<?xml version="1.0" encoding="UTF-8" standalone="no"?>
<!DOCTYPE svg PUBLIC "-//W3C//DTD SVG 1.1//EN"
 "http://www.w3.org/Graphics/SVG/1.1/DTD/svg11.dtd">
<!-- Title: OBDCarSystem Pages: 1 -->
<svg xmlns="http://www.w3.org/2000/svg"  id="generatedSVGCanvas" style="width: 820px; height: 1666px;"><defs><marker id="Triangle" viewBox="0 0 20 20" refX="20" refY="10" markerUnits="strokeWidth" markerWidth="8" markerHeight="6" orient="auto"><path d="M 0 0 L 20 10 L 0 20 z"></path></marker></defs><g style="fill: #ffffff; font-family: sans-serif;" transform="translate(50,20)"><rect style="stroke:#000000;" fill="#FFFFFF" height="40" width="256.2109375"></rect><rect style="stroke:#000000;" fill="#FFFFFF" height="20" width="256.2109375"></rect><rect style="fill:#e6e6e6;" x="1" y="1" width="191.2109375" height="18"></rect><polygon style="stroke:black;stroke-width:1;" points="192.2109375,2 192.2109375,18"></polygon><text style="fill: #000000;  font-family:tahoma; font-size: 10; font-weight:bold" y="15" x="15">MotorRotationSpeed</text></g><g transform="translate(45,30)"><rect style="stroke:#000000;" height="10" width="10" fill="#000000"><title>Relay port</title></rect><rect fill="#FFFFCC" height="4" width="4" x="3" y="3" style="stroke: #FFFFCC;"><title>Relay port</title></rect></g><text style="fill: #000000;  font-family:tahoma; font-size: 10;  font-weight:bold;" x="6.3125" y="36.5">speed</text><g style="fill: rgb(255,255,255); font-family:'sans-serif';" transform="translate(50,83)"><rect style="stroke:#000000;" fill="#FFFFFF" height="40" width="229.3203125"></rect><rect style="stroke:#000000;" fill="#FFFFFF" height="20" width="229.3203125"></rect><rect style="fill:#e6e6e6;" x="1" y="1" width="164.3203125" height="18"></rect><polygon style="stroke:black;stroke-width:1;" points="165.3203125,2 165.3203125,18"></polygon><text style="fill: #000000;  font-family:tahoma; font-size: 10; font-weight:bold" y="15" x="15">MotorOilQuantity</text></g><g transform="translate(45,93)"><rect style="stroke:#000000;" height="10" width="10" fill="#000000"><title>Relay port</title></rect><rect fill="#FFFFCC" height="4" width="4" x="3" y="3" style="stroke: #FFFFCC;"><title>Relay port</title></rect></g><text style="fill: #000000;  font-family:tahoma; font-size: 10;  font-weight:bold;" x="-40.14453125" y="99.5">motorOilQuantity</text><g style="fill: rgb(255,255,255); font-family:'sans-serif';" transform="translate(50,146)"><rect style="stroke:#000000;" fill="#FFFFFF" height="40" width="230.6953125"></rect><rect style="stroke:#000000;" fill="#FFFFFF" height="20" width="230.6953125"></rect><rect style="fill:#e6e6e6;" x="1" y="1" width="165.6953125" height="18"></rect><polygon style="stroke:black;stroke-width:1;" points="166.6953125,2 166.6953125,18"></polygon><text style="fill: #000000;  font-family:tahoma; font-size: 10; font-weight:bold" y="15" x="15">MotorOilViscosity</text></g><g transform="translate(45,156)"><rect style="stroke:#000000;" height="10" width="10" fill="#000000"><title>Relay port</title></rect><rect fill="#FFFFCC" height="4" width="4" x="3" y="3" style="stroke: #FFFFCC;"><title>Relay port</title></rect></g><text style="fill: #000000;  font-family:tahoma; font-size: 10;  font-weight:bold;" x="-40.83203125" y="162.5">motorOilViscosity</text><g style="fill: rgb(255,255,255); font-family:'sans-serif';" transform="translate(50,209)"><rect style="stroke:#000000;" fill="#FFFFFF" height="40" width="213.5625"></rect><rect style="stroke:#000000;" fill="#FFFFFF" height="20" width="213.5625"></rect><rect style="fill:#e6e6e6;" x="1" y="1" width="148.5625" height="18"></rect><polygon style="stroke:black;stroke-width:1;" points="149.5625,2 149.5625,18"></polygon><text style="fill: #000000;  font-family:tahoma; font-size: 10; font-weight:bold" y="15" x="15">ThrottleControl</text></g><g transform="translate(45,219)"><rect style="stroke:#000000;" height="10" width="10" fill="#000000"><title>Relay port</title></rect><rect fill="#FFFFCC" height="4" width="4" x="3" y="3" style="stroke: #FFFFCC;"><title>Relay port</title></rect></g><text style="fill: #000000;  font-family:tahoma; font-size: 10;  font-weight:bold;" x="-53.58984375" y="225.5">motorRotationSpeed</text><g transform="translate(45,234)"><rect style="stroke:#000000;" height="10" width="10" fill="#000000"><title>Relay port</title></rect><rect fill="#FFFFCC" height="4" width="4" x="3" y="3" style="stroke: #FFFFCC;"><title>Relay port</title></rect></g><text style="fill: #000000;  font-family:tahoma; font-size: 10;  font-weight:bold;" x="-23.13671875" y="240.5">throttleValue</text><g style="fill: rgb(255,255,255); font-family:'sans-serif';" transform="translate(50,272)"><rect style="stroke:#000000;" fill="#FFFFFF" height="40" width="196.9921875"></rect><rect style="stroke:#000000;" fill="#FFFFFF" height="20" width="196.9921875"></rect><rect style="fill:#e6e6e6;" x="1" y="1" width="131.9921875" height="18"></rect><polygon style="stroke:black;stroke-width:1;" points="132.9921875,2 132.9921875,18"></polygon><text style="fill: #000000;  font-family:tahoma; font-size: 10; font-weight:bold" y="15" x="15">Speedometer</text></g><g transform="translate(45,282)"><rect style="stroke:#000000;" height="10" width="10" fill="#000000"><title>Relay port</title></rect><rect fill="#FFFFCC" height="4" width="4" x="3" y="3" style="stroke: #FFFFCC;"><title>Relay port</title></rect></g><text style="fill: #000000;  font-family:tahoma; font-size: 10;  font-weight:bold;" x="6.3125" y="288.5">speed</text><g style="fill: rgb(255,255,255); font-family:'sans-serif';" transform="translate(50,335)"><rect style="stroke:#000000;" fill="#FFFFFF" height="40" width="208.1015625"></rect><rect style="stroke:#000000;" fill="#FFFFFF" height="20" width="208.1015625"></rect><rect style="fill:#e6e6e6;" x="1" y="1" width="143.1015625" height="18"></rect><polygon style="stroke:black;stroke-width:1;" points="144.1015625,2 144.1015625,18"></polygon><text style="fill: #000000;  font-family:tahoma; font-size: 10; font-weight:bold" y="15" x="15">MotorOilCheck</text></g><g transform="translate(45,345)"><rect style="stroke:#000000;" height="10" width="10" fill="#000000"><title>Relay port</title></rect><rect fill="#FFFFCC" height="4" width="4" x="3" y="3" style="stroke: #FFFFCC;"><title>Relay port</title></rect></g><text style="fill: #000000;  font-family:tahoma; font-size: 10;  font-weight:bold;" x="-53.58984375" y="351.5">motorRotationSpeed</text><g transform="translate(45,360)"><rect style="stroke:#000000;" height="10" width="10" fill="#000000"><title>Relay port</title></rect><rect fill="#FFFFCC" height="4" width="4" x="3" y="3" style="stroke: #FFFFCC;"><title>Relay port</title></rect></g><text style="fill: #000000;  font-family:tahoma; font-size: 10;  font-weight:bold;" x="-40.83203125" y="366.5">motorOilViscosity</text><g transform="translate(97.025390625,330)"><rect style="stroke:#000000;" height="10" width="10" fill="#000000"><title>Relay port</title></rect><rect fill="#FFFFCC" height="4" width="4" x="3" y="3" style="stroke: #FFFFCC;"><title>Relay port</title></rect></g><text style="fill: #000000;  font-family:tahoma; font-size: 10;  font-weight:bold;" x="31.490234375" y="326">motorOilRenewal</text><g style="fill: rgb(255,255,255); font-family:'sans-serif';" transform="translate(50,398)"><rect style="stroke:#000000;" fill="#FFFFFF" height="40" width="279.546875"></rect><rect style="stroke:#000000;" fill="#FFFFFF" height="20" width="279.546875"></rect><rect style="fill:#e6e6e6;" x="1" y="1" width="214.546875" height="18"></rect><polygon style="stroke:black;stroke-width:1;" points="215.546875,2 215.546875,18"></polygon><text style="fill: #000000;  font-family:tahoma; font-size: 10; font-weight:bold" y="15" x="15">ConditionCheckAdapter</text></g><g transform="translate(45,408)"><rect style="stroke:#000000;" height="10" width="10" fill="#000000"><title>Relay port</title></rect><rect fill="#FFFFCC" height="4" width="4" x="3" y="3" style="stroke: #FFFFCC;"><title>Relay port</title></rect></g><text style="fill: #000000;  font-family:tahoma; font-size: 10;  font-weight:bold;" x="-0.78125" y="414.5">ignition</text><g transform="translate(45,423)"><rect style="stroke:#000000;" height="10" width="10" fill="#000000"><title>Relay port</title></rect><rect fill="#FFFFCC" height="4" width="4" x="3" y="3" style="stroke: #FFFFCC;"><title>Relay port</title></rect></g><text style="fill: #000000;  font-family:tahoma; font-size: 10;  font-weight:bold;" x="-39.47265625" y="429.5">wheelsclientData</text><g transform="translate(114.88671875,393)"><rect style="stroke:#000000;" height="10" width="10" fill="#000000"><title>Relay port</title></rect><rect fill="#FFFFCC" height="4" width="4" x="3" y="3" style="stroke: #FFFFCC;"><title>Relay port</title></rect></g><text style="fill: #000000;  font-family:tahoma; font-size: 10;  font-weight:bold;" x="42.8984375" y="389">motorOilclientData</text><g transform="translate(184.7734375,393)"><rect style="stroke:#000000;" height="10" width="10" fill="#000000"><title>Relay port</title></rect><rect fill="#FFFFCC" height="4" width="4" x="3" y="3" style="stroke: #FFFFCC;"><title>Relay port</title></rect></g><text style="fill: #000000;  font-family:tahoma; font-size: 10;  font-weight:bold;" x="96.63671875" y="389">particleFilterclientData</text><g transform="translate(254.66015625,393)"><rect style="stroke:#000000;" height="10" width="10" fill="#000000"><title>Relay port</title></rect><rect fill="#FFFFCC" height="4" width="4" x="3" y="3" style="stroke: #FFFFCC;"><title>Relay port</title></rect></g><text style="fill: #000000;  font-family:tahoma; font-size: 10;  font-weight:bold;" x="177.8984375" y="389">sparkPlugclientData</text><g transform="translate(324.546875,403)"><rect style="stroke:#000000;" height="10" width="10" fill="#000000"><title>Relay port</title></rect><rect fill="#FFFFCC" height="4" width="4" x="3" y="3" style="stroke: #FFFFCC;"><title>Relay port</title></rect></g><text style="fill: #000000;  font-family:tahoma; font-size: 10;  font-weight:bold;" x="336.546875" y="408.5">driverInterface</text><g style="fill: rgb(255,255,255); font-family:'sans-serif';" transform="translate(50,461)"><rect style="stroke:#000000;" fill="#FFFFFF" height="40" width="202.125"></rect><rect style="stroke:#000000;" fill="#FFFFFF" height="20" width="202.125"></rect><rect style="fill:#e6e6e6;" x="1" y="1" width="137.125" height="18"></rect><polygon style="stroke:black;stroke-width:1;" points="138.125,2 138.125,18"></polygon><text style="fill: #000000;  font-family:tahoma; font-size: 10; font-weight:bold" y="15" x="15">SensorReader</text></g><g transform="translate(45,471)"><rect style="stroke:#000000;" height="10" width="10" fill="#000000"><title>Relay port</title></rect><rect fill="#FFFFCC" height="4" width="4" x="3" y="3" style="stroke: #FFFFCC;"><title>Relay port</title></rect></g><text style="fill: #000000;  font-family:tahoma; font-size: 10;  font-weight:bold;" x="-0.78125" y="477.5">ignition</text><g transform="translate(45,486)"><rect style="stroke:#000000;" height="10" width="10" fill="#000000"><title>Relay port</title></rect><rect fill="#FFFFCC" height="4" width="4" x="3" y="3" style="stroke: #FFFFCC;"><title>Relay port</title></rect></g><text style="fill: #000000;  font-family:tahoma; font-size: 10;  font-weight:bold;" x="-15.47265625" y="492.5">sensorData</text><g transform="translate(95.53125,456)"><rect style="stroke:#000000;" height="10" width="10" fill="#000000"><title>Relay port</title></rect><rect fill="#FFFFCC" height="4" width="4" x="3" y="3" style="stroke: #FFFFCC;"><title>Relay port</title></rect></g><text style="fill: #000000;  font-family:tahoma; font-size: 10;  font-weight:bold;" x="57.78515625" y="452">boardData</text><g transform="translate(146.0625,456)"><rect style="stroke:#000000;" height="10" width="10" fill="#000000"><title>Relay port</title></rect><rect fill="#FFFFCC" height="4" width="4" x="3" y="3" style="stroke: #FFFFCC;"><title>Relay port</title></rect></g><text style="fill: #000000;  font-family:tahoma; font-size: 10;  font-weight:bold;" x="109.359375" y="452">clientData</text><g style="fill: rgb(255,255,255); font-family:'sans-serif';" transform="translate(50,524)"><rect style="stroke:#000000;" fill="#FFFFFF" height="369" width="655.53125"></rect><rect style="stroke:#000000;" fill="#FFFFFF" height="20" width="655.53125"></rect><rect style="fill:#e6e6e6;" x="1" y="1" width="111.1796875" height="18"></rect><polygon style="stroke:black;stroke-width:1;" points="112.1796875,2 112.1796875,18"></polygon><text style="fill: #000000;  font-family:tahoma; font-size: 10; font-weight:bold" y="15" x="15">CarSystem</text></g><g style="fill: rgb(255,255,255); font-family:'sans-serif';" transform="translate(100,564)"><rect style="stroke:#000000;" fill="#FFFFFF" height="40" width="202.125"></rect><rect style="stroke:#000000;" fill="#5DBCD2" height="20" width="202.125"></rect><text style="fill: #000000;  font-family:tahoma; font-size: 10; font-weight:bold" y="15" x="37.5">SensorReader</text><rect style="stroke:#000000;" height="10" width="12" fill="none" x="177.125" y="6"></rect><rect style="stroke:#000000;" height="2" width="6" y="8" x="174.125" fill="#5DBCD2"></rect><rect style="stroke:#000000;" height="2" width="6" y="12" x="174.125" fill="#5DBCD2"></rect></g><text style="fill: #000000;  font-family:tahoma; font-size: 10;  font-weight:bold;" x="49.21875" y="580.5">ignition</text><text style="fill: #000000;  font-family:tahoma; font-size: 10;  font-weight:bold;" x="34.52734375" y="595.5">sensorData</text><text style="fill: #000000;  font-family:tahoma; font-size: 10;  font-weight:bold;" x="107.78515625" y="555">boardData</text><text style="fill: #000000;  font-family:tahoma; font-size: 10;  font-weight:bold;" x="159.359375" y="555">clientData</text><g style="fill: rgb(255,255,255); font-family:'sans-serif';" transform="translate(382.125,564)"><rect style="stroke:#000000;" fill="#FFFFFF" height="40" width="279.546875"></rect><rect style="stroke:#000000;" fill="#5DBCD2" height="20" width="279.546875"></rect><text style="fill: #000000;  font-family:tahoma; font-size: 10; font-weight:bold" y="15" x="37.5">ConditionCheckAdapter</text><rect style="stroke:#000000;" height="10" width="12" fill="none" x="254.546875" y="6"></rect><rect style="stroke:#000000;" height="2" width="6" y="8" x="251.546875" fill="#5DBCD2"></rect><rect style="stroke:#000000;" height="2" width="6" y="12" x="251.546875" fill="#5DBCD2"></rect></g><g transform="translate(586.78515625,559)"><rect style="stroke:#000000;" height="10" width="10" fill="#000000"><title>Relay port</title></rect><rect fill="#FFFFCC" height="4" width="4" x="3" y="3" style="stroke: #FFFFCC;"><title>Relay port</title></rect></g><text style="fill: #000000;  font-family:tahoma; font-size: 10;  font-weight:bold;" x="331.34375" y="580.5">ignition</text><text style="fill: #000000;  font-family:tahoma; font-size: 10;  font-weight:bold;" x="292.65234375" y="595.5">wheelsclientData</text><text style="fill: #000000;  font-family:tahoma; font-size: 10;  font-weight:bold;" x="375.0234375" y="555">motorOilclientData</text><text style="fill: #000000;  font-family:tahoma; font-size: 10;  font-weight:bold;" x="428.76171875" y="555">particleFilterclientData</text><text style="fill: #000000;  font-family:tahoma; font-size: 10;  font-weight:bold;" x="510.0234375" y="555">sparkPlugclientData</text><text style="fill: #000000;  font-family:tahoma; font-size: 10;  font-weight:bold;" x="668.671875" y="574.5">driverInterface</text><g style="fill: rgb(255,255,255); font-family:'sans-serif';" transform="translate(100,647)"><rect style="stroke:#000000;" fill="#FFFFFF" height="40" width="256.2109375"></rect><rect style="stroke:#000000;" fill="#5DBCD2" height="20" width="256.2109375"></rect><text style="fill: #000000;  font-family:tahoma; font-size: 10; font-weight:bold" y="15" x="37.5">MotorRotationSpeed</text><rect style="stroke:#000000;" height="10" width="12" fill="none" x="231.2109375" y="6"></rect><rect style="stroke:#000000;" height="2" width="6" y="8" x="228.2109375" fill="#5DBCD2"></rect><rect style="stroke:#000000;" height="2" width="6" y="12" x="228.2109375" fill="#5DBCD2"></rect></g><g transform="translate(95,657)"><rect style="stroke:#000000;" height="10" width="10" fill="#000000"><title>Relay port</title></rect><rect fill="#FFFFCC" height="4" width="4" x="3" y="3" style="stroke: #FFFFCC;"><title>Relay port</title></rect></g><text style="fill: #000000;  font-family:tahoma; font-size: 10;  font-weight:bold;" x="56.3125" y="663.5">speed</text><g style="fill: rgb(255,255,255); font-family:'sans-serif';" transform="translate(436.2109375,647)"><rect style="stroke:#000000;" fill="#FFFFFF" height="40" width="229.3203125"></rect><rect style="stroke:#000000;" fill="#5DBCD2" height="20" width="229.3203125"></rect><text style="fill: #000000;  font-family:tahoma; font-size: 10; font-weight:bold" y="15" x="37.5">MotorOilQuantity</text><rect style="stroke:#000000;" height="10" width="12" fill="none" x="204.3203125" y="6"></rect><rect style="stroke:#000000;" height="2" width="6" y="8" x="201.3203125" fill="#5DBCD2"></rect><rect style="stroke:#000000;" height="2" width="6" y="12" x="201.3203125" fill="#5DBCD2"></rect></g><g transform="translate(431.2109375,657)"><rect style="stroke:#000000;" height="10" width="10" fill="#000000"><title>Relay port</title></rect><rect fill="#FFFFCC" height="4" width="4" x="3" y="3" style="stroke: #FFFFCC;"><title>Relay port</title></rect></g><text style="fill: #000000;  font-family:tahoma; font-size: 10;  font-weight:bold;" x="346.06640625" y="663.5">motorOilQuantity</text><g style="fill: rgb(255,255,255); font-family:'sans-serif';" transform="translate(100,730)"><rect style="stroke:#000000;" fill="#FFFFFF" height="40" width="230.6953125"></rect><rect style="stroke:#000000;" fill="#5DBCD2" height="20" width="230.6953125"></rect><text style="fill: #000000;  font-family:tahoma; font-size: 10; font-weight:bold" y="15" x="37.5">MotorOilViscosity</text><rect style="stroke:#000000;" height="10" width="12" fill="none" x="205.6953125" y="6"></rect><rect style="stroke:#000000;" height="2" width="6" y="8" x="202.6953125" fill="#5DBCD2"></rect><rect style="stroke:#000000;" height="2" width="6" y="12" x="202.6953125" fill="#5DBCD2"></rect></g><text style="fill: #000000;  font-family:tahoma; font-size: 10;  font-weight:bold;" x="9.16796875" y="746.5">motorOilViscosity</text><g style="fill: rgb(255,255,255); font-family:'sans-serif';" transform="translate(410.6953125,730)"><rect style="stroke:#000000;" fill="#FFFFFF" height="40" width="213.5625"></rect><rect style="stroke:#000000;" fill="#5DBCD2" height="20" width="213.5625"></rect><text style="fill: #000000;  font-family:tahoma; font-size: 10; font-weight:bold" y="15" x="37.5">ThrottleControl</text><rect style="stroke:#000000;" height="10" width="12" fill="none" x="188.5625" y="6"></rect><rect style="stroke:#000000;" height="2" width="6" y="8" x="185.5625" fill="#5DBCD2"></rect><rect style="stroke:#000000;" height="2" width="6" y="12" x="185.5625" fill="#5DBCD2"></rect></g><g transform="translate(405.6953125,740)"><rect style="stroke:#000000;" height="10" width="10" fill="#000000"><title>Relay port</title></rect><rect fill="#FFFFCC" height="4" width="4" x="3" y="3" style="stroke: #FFFFCC;"><title>Relay port</title></rect></g><text style="fill: #000000;  font-family:tahoma; font-size: 10;  font-weight:bold;" x="307.10546875" y="746.5">motorRotationSpeed</text><text style="fill: #000000;  font-family:tahoma; font-size: 10;  font-weight:bold;" x="337.55859375" y="761.5">throttleValue</text><g style="fill: rgb(255,255,255); font-family:'sans-serif';" transform="translate(100,813)"><rect style="stroke:#000000;" fill="#FFFFFF" height="40" width="208.1015625"></rect><rect style="stroke:#000000;" fill="#5DBCD2" height="20" width="208.1015625"></rect><text style="fill: #000000;  font-family:tahoma; font-size: 10; font-weight:bold" y="15" x="37.5">MotorOilCheck</text><rect style="stroke:#000000;" height="10" width="12" fill="none" x="183.1015625" y="6"></rect><rect style="stroke:#000000;" height="2" width="6" y="8" x="180.1015625" fill="#5DBCD2"></rect><rect style="stroke:#000000;" height="2" width="6" y="12" x="180.1015625" fill="#5DBCD2"></rect></g><g transform="translate(95,823)"><rect style="stroke:#000000;" height="10" width="10" fill="#000000"><title>Relay port</title></rect><rect fill="#FFFFCC" height="4" width="4" x="3" y="3" style="stroke: #FFFFCC;"><title>Relay port</title></rect></g><text style="fill: #000000;  font-family:tahoma; font-size: 10;  font-weight:bold;" x="-3.58984375" y="829.5">motorRotationSpeed</text><text style="fill: #000000;  font-family:tahoma; font-size: 10;  font-weight:bold;" x="9.16796875" y="844.5">motorOilViscosity</text><text style="fill: #000000;  font-family:tahoma; font-size: 10;  font-weight:bold;" x="81.490234375" y="804">motorOilRenewal</text><text style="fill: #000000;  font-family:tahoma; font-size: 10;  font-weight:bold;" x="-0.78125" y="622.75">ignition</text><text style="fill: #000000;  font-family:tahoma; font-size: 10;  font-weight:bold;" x="-12.24609375" y="802.25">boardData</text><text style="fill: #000000;  font-family:tahoma; font-size: 10;  font-weight:bold;" x="166.15234375" y="515">wheelsData</text><text style="fill: #000000;  font-family:tahoma; font-size: 10;  font-weight:bold;" x="323.01953125" y="515">motorOilData</text><g transform="translate(536.6484375,519)"><rect style="stroke:#000000;" height="10" width="10" fill="#000000"><title>Relay port</title></rect><rect fill="#FFFFCC" height="4" width="4" x="3" y="3" style="stroke: #FFFFCC;"><title>Relay port</title></rect></g><text style="fill: #000000;  font-family:tahoma; font-size: 10;  font-weight:bold;" x="470.75390625" y="515">particleFilterData</text><g transform="translate(700.53125,611.25)"><rect style="stroke:#000000;" height="10" width="10" fill="#000000"><title>Relay port</title></rect><rect fill="#FFFFCC" height="4" width="4" x="3" y="3" style="stroke: #FFFFCC;"><title>Relay port</title></rect></g><text style="fill: #000000;  font-family:tahoma; font-size: 10;  font-weight:bold;" x="712.53125" y="616.75">sparkPlugData</text><text style="fill: #000000;  font-family:tahoma; font-size: 10;  font-weight:bold;" x="712.53125" y="801.25">driverInterface</text><text style="fill: #000000;  font-family:tahoma; font-size: 10;  font-weight:bold;" x="156.9765625" y="905">throttleStatus</text><text style="fill: #000000;  font-family:tahoma; font-size: 10;  font-weight:bold;" x="327.6171875" y="905">motorOilLed</text><polyline style="fill:none;stroke:black;stroke-width:1px;" points="55,621.25 65,621.25 85,621.25 85,579 95,579"></polyline><polyline style="fill:none;stroke:black;stroke-width:1px;" points="95,594 85,594 85,539 213.8828125,539 213.8828125,529"></polyline><g transform="translate(208.8828125,519)"><rect style="stroke:#000000;" height="10" width="10" fill="#000000"><title>Relay port</title></rect><rect fill="#FFFFCC" height="4" width="4" x="3" y="3" style="stroke: #FFFFCC;"><title>Relay port</title></rect></g><polyline style="fill:none;stroke:black;stroke-width:1px;" points="55,800.75 65,800.75 88.5,800.75 88.5,549 150.53125,549 150.53125,559"></polyline><polyline style="fill:none;stroke:black;stroke-width:1px;" points="55,621.25 65,621.25 85,621.25 85,579 95,579"></polyline><polyline style="fill:none;stroke:black;stroke-width:1px;" points="95,594 85,594 85,539 377.765625,539 377.765625,529"></polyline><g transform="translate(95,589)"><rect style="stroke:#000000;" height="10" width="10" fill="#000000"><title>Relay port</title></rect><rect fill="#FFFFCC" height="4" width="4" x="3" y="3" style="stroke: #FFFFCC;"><title>Relay port</title></rect></g><g transform="translate(372.765625,519)"><rect style="stroke:#000000;" height="10" width="10" fill="#000000"><title>Relay port</title></rect><rect fill="#FFFFCC" height="4" width="4" x="3" y="3" style="stroke: #FFFFCC;"><title>Relay port</title></rect></g><polyline style="fill:none;stroke:black;stroke-width:1px;" points="55,800.75 65,800.75 88.5,800.75 88.5,549 150.53125,549 150.53125,559"></polyline><polyline style="fill:none;stroke:black;stroke-width:1px;" points="55,621.25 65,621.25 85,621.25 85,579 95,579"></polyline><g transform="translate(95,574)"><rect style="stroke:#000000;" height="10" width="10" fill="#000000"><title>Relay port</title></rect><rect fill="#FFFFCC" height="4" width="4" x="3" y="3" style="stroke: #FFFFCC;"><title>Relay port</title></rect></g><polyline style="fill:none;stroke:black;stroke-width:1px;" points="55,800.75 65,800.75 88.5,800.75 88.5,549 150.53125,549 150.53125,559"></polyline><g transform="translate(145.53125,559)"><rect style="stroke:#000000;" height="10" width="10" fill="#000000"><title>Relay port</title></rect><rect fill="#FFFFCC" height="4" width="4" x="3" y="3" style="stroke: #FFFFCC;"><title>Relay port</title></rect></g><polyline style="fill:none;stroke:black;stroke-width:1px;" points="45,621.25 35,621.25 35,621.25 35,621.25 45,621.25"></polyline><polyline style="fill:none;stroke:black;stroke-width:1px;" points="45,800.75 35,800.75 35,800.75 35,800.75 45,800.75"></polyline><g transform="translate(45,795.75)"><rect style="stroke:#000000;" height="10" width="10" fill="#000000"><title>Relay port</title></rect><rect fill="#FFFFCC" height="4" width="4" x="3" y="3" style="stroke: #FFFFCC;"><title>Relay port</title></rect></g><polyline style="fill:none;stroke:black;stroke-width:1px;" points="55,621.25 65,621.25 367.125,621.25 367.125,579 377.125,579"></polyline><g transform="translate(45,616.25)"><rect style="stroke:#000000;" height="10" width="10" fill="#000000"><title>Relay port</title></rect><rect fill="#FFFFCC" height="4" width="4" x="3" y="3" style="stroke: #FFFFCC;"><title>Relay port</title></rect></g><g transform="translate(377.125,574)"><rect style="stroke:#000000;" height="10" width="10" fill="#000000"><title>Relay port</title></rect><rect fill="#FFFFCC" height="4" width="4" x="3" y="3" style="stroke: #FFFFCC;"><title>Relay port</title></rect></g><polyline style="fill:none;stroke:black;stroke-width:1px;" points="666.671875,574 676.671875,574 690.53125,574 690.53125,800.75 700.53125,800.75"></polyline><g transform="translate(656.671875,569)"><rect style="stroke:#000000;" height="10" width="10" fill="#000000"><title>Relay port</title></rect><rect fill="#FFFFCC" height="4" width="4" x="3" y="3" style="stroke: #FFFFCC;"><title>Relay port</title></rect></g><g transform="translate(700.53125,795.75)"><rect style="stroke:#000000;" height="10" width="10" fill="#000000"><title>Relay port</title></rect><rect fill="#FFFFCC" height="4" width="4" x="3" y="3" style="stroke: #FFFFCC;"><title>Relay port</title></rect></g><polyline style="fill:none;stroke:black;stroke-width:1px;" points="201.0625,559 201.0625,549 367.125,549 367.125,594 377.125,594"></polyline><g transform="translate(377.125,589)"><rect style="stroke:#000000;" height="10" width="10" fill="#000000"><title>Relay port</title></rect><rect fill="#FFFFCC" height="4" width="4" x="3" y="3" style="stroke: #FFFFCC;"><title>Relay port</title></rect></g><polyline style="fill:none;stroke:black;stroke-width:1px;" points="201.0625,559 201.0625,549 452.01171875,549 452.01171875,549 452.01171875,559"></polyline><g transform="translate(447.01171875,559)"><rect style="stroke:#000000;" height="10" width="10" fill="#000000"><title>Relay port</title></rect><rect fill="#FFFFCC" height="4" width="4" x="3" y="3" style="stroke: #FFFFCC;"><title>Relay port</title></rect></g><polyline style="fill:none;stroke:black;stroke-width:1px;" points="201.0625,559 201.0625,549 521.8984375,549 521.8984375,549 521.8984375,559"></polyline><g transform="translate(196.0625,559)"><rect style="stroke:#000000;" height="10" width="10" fill="#000000"><title>Relay port</title></rect><rect fill="#FFFFCC" height="4" width="4" x="3" y="3" style="stroke: #FFFFCC;"><title>Relay port</title></rect></g><g transform="translate(516.8984375,559)"><rect style="stroke:#000000;" height="10" width="10" fill="#000000"><title>Relay port</title></rect><rect fill="#FFFFCC" height="4" width="4" x="3" y="3" style="stroke: #FFFFCC;"><title>Relay port</title></rect></g><polyline style="fill:none;stroke:black;stroke-width:1px;" points="213.8828125,888 213.8828125,878 395.6953125,878 395.6953125,760 405.6953125,760"></polyline><g transform="translate(208.8828125,888)"><rect style="stroke:#000000;" height="10" width="10" fill="#000000"><title>Relay port</title></rect><rect fill="#FFFFCC" height="4" width="4" x="3" y="3" style="stroke: #FFFFCC;"><title>Relay port</title></rect></g><g transform="translate(405.6953125,755)"><rect style="stroke:#000000;" height="10" width="10" fill="#000000"><title>Relay port</title></rect><rect fill="#FFFFCC" height="4" width="4" x="3" y="3" style="stroke: #FFFFCC;"><title>Relay port</title></rect></g><polyline style="fill:none;stroke:black;stroke-width:1px;" points="152.025390625,808 152.025390625,798 377.765625,798 377.765625,878 377.765625,888"></polyline><g transform="translate(147.025390625,808)"><rect style="stroke:#000000;" height="10" width="10" fill="#000000"><title>Relay port</title></rect><rect fill="#FFFFCC" height="4" width="4" x="3" y="3" style="stroke: #FFFFCC;"><title>Relay port</title></rect></g><g transform="translate(372.765625,888)"><rect style="stroke:#000000;" height="10" width="10" fill="#000000"><title>Relay port</title></rect><rect fill="#FFFFCC" height="4" width="4" x="3" y="3" style="stroke: #FFFFCC;"><title>Relay port</title></rect></g><polyline style="fill:none;stroke:undefined;stroke-width:1px;" points="95,745 85,745 85,745 85,843 95,843"></polyline><g transform="translate(95,740)"><rect style="stroke:#000000;" height="10" width="10" fill="#000000"><title>Relay port</title></rect><rect fill="#FFFFCC" height="4" width="4" x="3" y="3" style="stroke: #FFFFCC;"><title>Relay port</title></rect></g><g transform="translate(95,838)"><rect style="stroke:#000000;" height="10" width="10" fill="#000000"><title>Relay port</title></rect><rect fill="#FFFFCC" height="4" width="4" x="3" y="3" style="stroke: #FFFFCC;"><title>Relay port</title></rect></g></svg>