<?xml version="1.0" encoding="UTF-8" standalone="no"?>
<!DOCTYPE svg PUBLIC "-//W3C//DTD SVG 1.1//EN"
 "http://www.w3.org/Graphics/SVG/1.1/DTD/svg11.dtd">
<!-- Generated by graphviz version 2.48.0 (20210717.1556)
 -->
<!-- Title: 2DShapes Pages: 1 -->
<svg width="507pt" height="311pt"
 viewBox="0.00 0.00 506.50 311.00" xmlns="http://www.w3.org/2000/svg" xmlns:xlink="http://www.w3.org/1999/xlink">
<g id="graph0" class="graph" transform="scale(1 1) rotate(0) translate(4 307)">
<title>2DShapes</title>
<polygon fill="white" stroke="transparent" points="-4,4 -4,-307 502.5,-307 502.5,4 -4,4"/>
<!-- Shape2D -->
<g id="node1" class="node">
<title>Shape2D</title>
<g id="a_node1"><a xlink:href="javascript:Action.selectClass(&quot;Shape2D&quot;);" xlink:title="class Shape2D&#10;Positioning&#13;">
<text text-anchor="start" x="173.5" y="-286.8" font-family="Times,serif" font-size="14.00"> &#160;&#160;&#160;Shape2D &#160;&#160;&#160;</text>
<g id="a_node1_0"><a xlink:href="javascript:Action.selectClass(&quot;Shape2D&quot;);" xlink:title="String center&#13;">
<text text-anchor="start" x="166.5" y="-265.8" font-family="Times,serif" font-size="14.00"> &#160;center : String &#160;</text>
</a>
</g>
<polygon fill="black" stroke="black" points="163.5,-279 163.5,-279 263.5,-279 263.5,-279 163.5,-279"/>
<polygon fill="none" stroke="black" points="163.5,-259 163.5,-303 263.5,-303 263.5,-259 163.5,-259"/>
</a>
</g>
</g>
<!-- EllipticalShape -->
<g id="node2" class="node">
<title>EllipticalShape</title>
<g id="a_node2"><a xlink:href="javascript:Action.selectClass(&quot;EllipticalShape&quot;);" xlink:title="class EllipticalShape&#10;Abstract&#13;">
<text text-anchor="start" x="86" y="-206.8" font-family="Times,serif" font-size="14.00"> &#160;&#160;&#160;EllipticalShape &#160;&#160;&#160;</text>
<g id="a_node2_1"><a xlink:href="javascript:Action.selectClass(&quot;EllipticalShape&quot;);" xlink:title="String semiMajorAxis&#13;">
<text text-anchor="start" x="69.5" y="-185.8" font-family="Times,serif" font-size="14.00"> &#160;semiMajorAxis : String &#160;</text>
</a>
</g>
<polygon fill="black" stroke="black" points="66.5,-199 66.5,-199 219.5,-199 219.5,-199 66.5,-199"/>
<polygon fill="none" stroke="black" points="66,-179 66,-223 219,-223 219,-179 66,-179"/>
</a>
</g>
</g>
<!-- EllipticalShape&#45;&gt;Shape2D -->
<g id="edge1" class="edge">
<title>EllipticalShape&#45;&gt;Shape2D</title>
<path fill="none" stroke="black" d="M169.34,-223.17C182.22,-233.33 196.72,-244.77 205.48,-251.67"/>
<polygon fill="none" stroke="black" points="203.48,-254.56 213.5,-258 207.82,-249.06 203.48,-254.56"/>
</g>
<!-- Polygon -->
<g id="node3" class="node">
<title>Polygon</title>
<g id="a_node3"><a xlink:href="javascript:Action.selectClass(&quot;Polygon&quot;);" xlink:title="class Polygon&#10;Abstract&#13;">
<text text-anchor="start" x="248.5" y="-196.8" font-family="Times,serif" font-size="14.00"> &#160;&#160;&#160;Polygon &#160;&#160;&#160;</text>
<polygon fill="none" stroke="black" points="237,-182.5 237,-219.5 334,-219.5 334,-182.5 237,-182.5"/>
</a>
</g>
</g>
<!-- Polygon&#45;&gt;Shape2D -->
<g id="edge2" class="edge">
<title>Polygon&#45;&gt;Shape2D</title>
<path fill="none" stroke="black" d="M262.72,-219.72C248.71,-230.61 231.6,-243.92 221.69,-251.63"/>
<polygon fill="none" stroke="black" points="219.24,-249.1 213.5,-258 223.54,-254.62 219.24,-249.1"/>
</g>
<!-- Circle -->
<g id="node4" class="node">
<title>Circle</title>
<g id="a_node4"><a xlink:href="javascript:Action.selectClass(&quot;Circle&quot;);" xlink:title="class Circle&#10;">
<text text-anchor="start" x="11.5" y="-116.8" font-family="Times,serif" font-size="14.00"> &#160;&#160;&#160;Circle &#160;&#160;&#160;</text>
<polygon fill="none" stroke="black" points="0,-102.5 0,-139.5 85,-139.5 85,-102.5 0,-102.5"/>
</a>
</g>
</g>
<!-- Circle&#45;&gt;EllipticalShape -->
<g id="edge3" class="edge">
<title>Circle&#45;&gt;EllipticalShape</title>
<path fill="none" stroke="black" d="M70.98,-139.72C89.31,-151.13 111.89,-165.18 123.95,-172.68"/>
<polygon fill="none" stroke="black" points="122.16,-175.69 132.5,-178 125.86,-169.75 122.16,-175.69"/>
</g>
<!-- Ellipse -->
<g id="node5" class="node">
<title>Ellipse</title>
<g id="a_node5"><a xlink:href="javascript:Action.selectClass(&quot;Ellipse&quot;);" xlink:title="class Ellipse&#10;">
<text text-anchor="start" x="114.5" y="-116.8" font-family="Times,serif" font-size="14.00"> &#160;&#160;&#160;Ellipse &#160;&#160;&#160;</text>
<polygon fill="none" stroke="black" points="103,-102.5 103,-139.5 192,-139.5 192,-102.5 103,-102.5"/>
</a>
</g>
</g>
<!-- Ellipse&#45;&gt;EllipticalShape -->
<g id="edge4" class="edge">
<title>Ellipse&#45;&gt;EllipticalShape</title>
<path fill="none" stroke="black" d="M142.75,-139.72C140.25,-149.08 137.26,-160.21 135.16,-168.05"/>
<polygon fill="none" stroke="black" points="131.71,-167.43 132.5,-178 138.47,-169.25 131.71,-167.43"/>
</g>
<!-- SimplePolygon -->
<g id="node6" class="node">
<title>SimplePolygon</title>
<g id="a_node6"><a xlink:href="javascript:Action.selectClass(&quot;SimplePolygon&quot;);" xlink:title="class SimplePolygon&#10;">
<text text-anchor="start" x="224" y="-126.8" font-family="Times,serif" font-size="14.00"> &#160;&#160;&#160;SimplePolygon &#160;&#160;&#160;</text>
<g id="a_node6_2"><a xlink:href="javascript:Action.selectClass(&quot;SimplePolygon&quot;);" xlink:title="String orientation&#13;">
<text text-anchor="start" x="221.5" y="-105.8" font-family="Times,serif" font-size="14.00"> &#160;orientation : String &#160;</text>
</a>
</g>
<polygon fill="black" stroke="black" points="218.5,-119 218.5,-119 344.5,-119 344.5,-119 218.5,-119"/>
<polygon fill="none" stroke="black" points="218.5,-99 218.5,-143 344.5,-143 344.5,-99 218.5,-99"/>
</a>
</g>
</g>
<!-- SimplePolygon&#45;&gt;Polygon -->
<g id="edge5" class="edge">
<title>SimplePolygon&#45;&gt;Polygon</title>
<path fill="none" stroke="black" d="M286.55,-143.3C288.81,-152.81 291.36,-163.55 293.16,-171.12"/>
<polygon fill="none" stroke="black" points="289.79,-172.08 295.5,-181 296.6,-170.46 289.79,-172.08"/>
</g>
<!-- ArbitraryPolygon -->
<g id="node7" class="node">
<title>ArbitraryPolygon</title>
<g id="a_node7"><a xlink:href="javascript:Action.selectClass(&quot;ArbitraryPolygon&quot;);" xlink:title="class ArbitraryPolygon&#10;">
<text text-anchor="start" x="367.5" y="-126.8" font-family="Times,serif" font-size="14.00"> &#160;&#160;&#160;ArbitraryPolygon &#160;&#160;&#160;</text>
<g id="a_node7_3"><a xlink:href="javascript:Action.selectClass(&quot;ArbitraryPolygon&quot;);" xlink:title="String points&#13;">
<text text-anchor="start" x="365.5" y="-105.8" font-family="Times,serif" font-size="14.00"> &#160;points : String &#160;</text>
</a>
</g>
<polygon fill="black" stroke="black" points="362.5,-119 362.5,-119 498.5,-119 498.5,-119 362.5,-119"/>
<polygon fill="none" stroke="black" points="362.5,-99 362.5,-143 498.5,-143 498.5,-99 362.5,-99"/>
</a>
</g>
</g>
<!-- ArbitraryPolygon&#45;&gt;Polygon -->
<g id="edge6" class="edge">
<title>ArbitraryPolygon&#45;&gt;Polygon</title>
<path fill="none" stroke="black" d="M382.14,-143.13C353.85,-155.5 320.66,-170 304.82,-176.93"/>
<polygon fill="none" stroke="black" points="303.26,-173.79 295.5,-181 306.06,-180.2 303.26,-173.79"/>
</g>
<!-- Rectangle -->
<g id="node8" class="node">
<title>Rectangle</title>
<g id="a_node8"><a xlink:href="javascript:Action.selectClass(&quot;Rectangle&quot;);" xlink:title="class Rectangle&#10;">
<text text-anchor="start" x="174" y="-46.3" font-family="Times,serif" font-size="14.00"> &#160;&#160;&#160;Rectangle &#160;&#160;&#160;</text>
<g id="a_node8_4"><a xlink:href="javascript:Action.selectClass(&quot;Rectangle&quot;);" xlink:title="String height&#13;">
<text text-anchor="start" x="168.5" y="-25.3" font-family="Times,serif" font-size="14.00"> &#160;height : String &#160;</text>
</a>
</g>
<g id="a_node8_5"><a xlink:href="javascript:Action.selectClass(&quot;Rectangle&quot;);" xlink:title="String width&#13;">
<text text-anchor="start" x="168.5" y="-6.3" font-family="Times,serif" font-size="14.00"> &#160;width : String &#160;</text>
</a>
</g>
<polygon fill="black" stroke="black" points="165.5,-38.5 165.5,-38.5 266.5,-38.5 266.5,-38.5 165.5,-38.5"/>
<polygon fill="none" stroke="black" points="165,0 165,-63 266,-63 266,0 165,0"/>
</a>
</g>
</g>
<!-- Rectangle&#45;&gt;SimplePolygon -->
<g id="edge7" class="edge">
<title>Rectangle&#45;&gt;SimplePolygon</title>
<path fill="none" stroke="black" d="M246.57,-63.33C256.87,-73.55 267.41,-84.02 274.19,-90.74"/>
<polygon fill="none" stroke="black" points="271.94,-93.44 281.5,-98 276.87,-88.47 271.94,-93.44"/>
</g>
<!-- RegularPolygon -->
<g id="node9" class="node">
<title>RegularPolygon</title>
<g id="a_node9"><a xlink:href="javascript:Action.selectClass(&quot;RegularPolygon&quot;);" xlink:title="class RegularPolygon&#10;">
<text text-anchor="start" x="289.5" y="-46.3" font-family="Times,serif" font-size="14.00"> &#160;&#160;&#160;RegularPolygon &#160;&#160;&#160;</text>
<g id="a_node9_6"><a xlink:href="javascript:Action.selectClass(&quot;RegularPolygon&quot;);" xlink:title="String numPoints&#13;">
<text text-anchor="start" x="287.5" y="-25.3" font-family="Times,serif" font-size="14.00"> &#160;numPoints : String &#160;</text>
</a>
</g>
<g id="a_node9_7"><a xlink:href="javascript:Action.selectClass(&quot;RegularPolygon&quot;);" xlink:title="String radius&#13;">
<text text-anchor="start" x="287.5" y="-6.3" font-family="Times,serif" font-size="14.00"> &#160;radius : String &#160;</text>
</a>
</g>
<polygon fill="black" stroke="black" points="284.5,-38.5 284.5,-38.5 413.5,-38.5 413.5,-38.5 284.5,-38.5"/>
<polygon fill="none" stroke="black" points="284,0 284,-63 413,-63 413,0 284,0"/>
</a>
</g>
</g>
<!-- RegularPolygon&#45;&gt;SimplePolygon -->
<g id="edge8" class="edge">
<title>RegularPolygon&#45;&gt;SimplePolygon</title>
<path fill="none" stroke="black" d="M316.96,-63.33C306.37,-73.68 295.52,-84.29 288.66,-91"/>
<polygon fill="none" stroke="black" points="286.2,-88.51 281.5,-98 291.1,-93.51 286.2,-88.51"/>
</g>
</g>
</svg>
