<?xml version="1.0" encoding="UTF-8" standalone="no"?>
<!DOCTYPE svg PUBLIC "-//W3C//DTD SVG 1.1//EN"
 "http://www.w3.org/Graphics/SVG/1.1/DTD/svg11.dtd">
<!-- Generated by graphviz version 2.29.20121108.1600 (20121108.1600)
 -->
<!-- Title: BcmsBaseConfiguration Pages: 1 -->
<svg width="784pt" height="698pt"
 viewBox="0.00 0.00 784.19 698.00" xmlns="http://www.w3.org/2000/svg" xmlns:xlink="http://www.w3.org/1999/xlink">
<g id="graph0" class="graph" transform="scale(1 1) rotate(0) translate(4 694)">
<title>BcmsBaseConfiguration</title>
<polygon fill="white" stroke="white" points="-4,5 -4,-694 781.195,-694 781.195,5 -4,5"/>
<!-- CityMap -->
<g id="node1" class="node"><title>CityMap</title>
<g id="a_node1"><a xlink:href="javascript:Action.selectClass(&quot;CityMap&quot;);" xlink:title="class CityMap
This file describes reusable model elements that are used in the 
bCMS Crisis Management System. It is necessary to have a rudimentary
Graphical Information System such as described in this submodel as part
of bCMS in order to plan routes and to track where crises are. This file
has the necessary classes.
* A CityMap contains the precompiled streets and landmarks
 This must be read in from the database on system initialization
">
<polygon fill="none" stroke="black" points="28.1104,-346 28.1104,-382 93.8896,-382 93.8896,-346 28.1104,-346"/>
<text text-anchor="middle" x="61" y="-358.5" font-family="Times,serif" font-size="14.00">CityMap</text>
</a>
</g>
</g>
<!-- Landmark -->
<g id="node3" class="node"><title>Landmark</title>
<g id="a_node3"><a xlink:href="javascript:Action.selectClass(&quot;Landmark&quot;);" xlink:title="class Landmark
">
<polygon fill="none" stroke="black" points="-0.662109,-477.2 -0.662109,-526.8 122.662,-526.8 122.662,-477.2 -0.662109,-477.2"/>
<text text-anchor="middle" x="61" y="-508.8" font-family="Times,serif" font-size="14.00">Landmark</text>
<polyline fill="none" stroke="black" points="-0.662109,-502 122.662,-502 "/>
<text text-anchor="start" x="7.33789" y="-484" font-family="Times,serif" font-size="14.00">description : String</text>
</a>
</g>
</g>
<!-- CityMap&#45;&gt;Landmark -->
<g id="edge3" class="edge"><title>CityMap&#45;&gt;Landmark</title>
<path fill="none" stroke="black" d="M51.6537,-382.224C47.1572,-403.426 46.3114,-439.928 49.1163,-466.885"/>
<polygon fill="black" stroke="black" points="50.4263,-477.058 44.6858,-467.714 49.7876,-472.098 49.149,-467.139 49.149,-467.139 49.149,-467.139 49.7876,-472.098 53.6121,-466.565 50.4263,-477.058 50.4263,-477.058"/>
<text text-anchor="middle" x="26.5073" y="-463.058" font-family="Times,serif" font-size="14.00">* fireStn</text>
<text text-anchor="middle" x="39.4037" y="-385.024" font-family="Times,serif" font-size="14.00">0..1 </text>
</g>
<!-- CityMap&#45;&gt;Landmark -->
<g id="edge4" class="edge"><title>CityMap&#45;&gt;Landmark</title>
<path fill="none" stroke="black" d="M61,-382.224C61,-403.426 61,-439.928 61,-466.885"/>
<polygon fill="black" stroke="black" points="61,-477.058 56.5001,-467.057 61,-472.058 61.0001,-467.058 61.0001,-467.058 61.0001,-467.058 61,-472.058 65.5001,-467.058 61,-477.058 61,-477.058"/>
<text text-anchor="middle" x="92.6914" y="-463.058" font-family="Times,serif" font-size="14.00">* policeStn</text>
<text text-anchor="middle" x="73.25" y="-385.024" font-family="Times,serif" font-size="14.00">0..1 </text>
</g>
<!-- CityMap&#45;&gt;Landmark -->
<g id="edge5" class="edge"><title>CityMap&#45;&gt;Landmark</title>
<path fill="none" stroke="black" d="M70.3463,-382.224C74.8428,-403.426 75.6886,-439.928 72.8837,-466.885"/>
<polygon fill="black" stroke="black" points="71.5737,-477.058 68.3879,-466.565 72.2124,-472.098 72.851,-467.139 72.851,-467.139 72.851,-467.139 72.2124,-472.098 77.3142,-467.714 71.5737,-477.058 71.5737,-477.058"/>
<text text-anchor="middle" x="100.927" y="-479.858" font-family="Times,serif" font-size="14.00">* otherLm</text>
<text text-anchor="middle" x="82.5963" y="-385.024" font-family="Times,serif" font-size="14.00">0..1 </text>
</g>
<!-- NamedRoad -->
<g id="node7" class="node"><title>NamedRoad</title>
<g id="a_node7"><a xlink:href="javascript:Action.selectClass(&quot;NamedRoad&quot;);" xlink:title="class NamedRoad
* A named road might have the name of a street, the number of
 a highway, etc. A RoadSegment can have several names because
 for example, sometimes several numbered highways share a segment
">
<polygon fill="none" stroke="black" points="140.562,-468.8 140.562,-535.2 251.438,-535.2 251.438,-468.8 140.562,-468.8"/>
<text text-anchor="middle" x="196" y="-517.2" font-family="Times,serif" font-size="14.00">NamedRoad</text>
<polyline fill="none" stroke="black" points="140.562,-510.4 251.438,-510.4 "/>
<text text-anchor="start" x="148.562" y="-492.4" font-family="Times,serif" font-size="14.00">name : String</text>
<text text-anchor="start" x="148.562" y="-475.6" font-family="Times,serif" font-size="14.00">direction : String</text>
</a>
</g>
</g>
<!-- CityMap&#45;&gt;NamedRoad -->
<g id="edge6" class="edge"><title>CityMap&#45;&gt;NamedRoad</title>
<path fill="none" stroke="black" d="M78.0978,-382.224C97.7483,-402.021 130.639,-435.155 156.696,-461.405"/>
<polygon fill="black" stroke="black" points="163.848,-468.61 153.609,-464.683 160.325,-465.061 156.803,-461.512 156.803,-461.512 156.803,-461.512 160.325,-465.061 159.996,-458.342 163.848,-468.61 163.848,-468.61"/>
<text text-anchor="middle" x="158.598" y="-454.61" font-family="Times,serif" font-size="14.00">* </text>
<text text-anchor="middle" x="90.3478" y="-368.224" font-family="Times,serif" font-size="14.00">0..1 </text>
</g>
<!-- Location -->
<g id="node2" class="node"><title>Location</title>
<g id="a_node2"><a xlink:href="javascript:Action.selectClass(&quot;Location&quot;);" xlink:title="class Location
* A Location describes a place such as an intersection, landmark, bend in a road, etc.
">
<polygon fill="none" stroke="black" points="92.7241,-597.8 92.7241,-664.2 201.276,-664.2 201.276,-597.8 92.7241,-597.8"/>
<text text-anchor="middle" x="147" y="-646.2" font-family="Times,serif" font-size="14.00">Location</text>
<polyline fill="none" stroke="black" points="92.7241,-639.4 201.276,-639.4 "/>
<text text-anchor="start" x="100.724" y="-621.4" font-family="Times,serif" font-size="14.00">lattitude : Float</text>
<text text-anchor="start" x="100.724" y="-604.6" font-family="Times,serif" font-size="14.00">longitude : Float</text>
</a>
</g>
</g>
<!-- Landmark&#45;&gt;Location -->
<g id="edge1" class="edge"><title>Landmark&#45;&gt;Location</title>
<path fill="none" stroke="black" d="M77.1759,-526.888C89.0116,-544.366 105.362,-568.511 119.265,-589.042"/>
<polygon fill="none" stroke="black" points="116.548,-591.273 125.053,-597.591 122.344,-587.348 116.548,-591.273"/>
</g>
<!-- RoadNode -->
<g id="node4" class="node"><title>RoadNode</title>
<g id="a_node4"><a xlink:href="javascript:Action.selectClass(&quot;RoadNode&quot;);" xlink:title="class RoadNode
* RoadNodes are places where RoadSegments connect. A node with just one incoming
 and one outgoing is used to handle changes in direction, e.g. as a road turns
 a corner, changes in speed limit, changes in number of lanes, and other factors.
 When there is more than one outgoing or incoming, the node represents points
 where traffic flow can split and join.
 A crossroads is one type. Entry into a roundabout would be another,
 Highway merges and exits are other kinds as are parking lots and entries
 into or out of fire stations..

 RoadSegments leaving the city lead to no RoadNode
 RoadSegments entering the city come from no RoadNode
">
<polygon fill="none" stroke="black" points="492.29,-477.2 492.29,-526.8 569.71,-526.8 569.71,-477.2 492.29,-477.2"/>
<text text-anchor="middle" x="531" y="-508.8" font-family="Times,serif" font-size="14.00">RoadNode</text>
<polyline fill="none" stroke="black" points="492.29,-502 569.71,-502 "/>
<text text-anchor="start" x="500.29" y="-484" font-family="Times,serif" font-size="14.00">id : Integer</text>
</a>
</g>
</g>
<!-- RoadNode&#45;&gt;Location -->
<g id="edge7" class="edge"><title>RoadNode&#45;&gt;Location</title>
<path fill="none" stroke="black" d="M500.314,-526.8C494.771,-530.298 488.879,-533.544 483,-536 404.502,-568.795 376.729,-548.379 295,-572 266.783,-580.155 236.448,-591.554 210.632,-602.09"/>
<polygon fill="black" stroke="black" points="201.338,-605.925 208.866,-597.951 205.96,-604.018 210.582,-602.111 210.582,-602.111 210.582,-602.111 205.96,-604.018 212.299,-606.271 201.338,-605.925 201.338,-605.925"/>
<text text-anchor="middle" x="245.075" y="-591.925" font-family="Times,serif" font-size="14.00">1 nodeLocation</text>
<text text-anchor="middle" x="488.064" y="-529.6" font-family="Times,serif" font-size="14.00">0..1 </text>
</g>
<!-- RoadSegment -->
<g id="node8" class="node"><title>RoadSegment</title>
<g id="a_node8"><a xlink:href="javascript:Action.selectClass(&quot;RoadSegment&quot;);" xlink:title="class RoadSegment
* A RoadSegment represents a section of road on which a vehicle can drive.
 The ends of each segment have been modeled using RoadNodes.
 Note that distance can be calculated from the speed limit, and locations
Classes defined elsewhere
">
<polygon fill="none" stroke="black" points="304.148,-572.6 304.148,-689.4 495.852,-689.4 495.852,-572.6 304.148,-572.6"/>
<text text-anchor="middle" x="400" y="-671.4" font-family="Times,serif" font-size="14.00">RoadSegment</text>
<polyline fill="none" stroke="black" points="304.148,-664.6 495.852,-664.6 "/>
<text text-anchor="start" x="312.148" y="-646.6" font-family="Times,serif" font-size="14.00">speedLimit : Integer</text>
<text text-anchor="start" x="312.148" y="-629.8" font-family="Times,serif" font-size="14.00">currentReportedSpeed : Integer</text>
<text text-anchor="start" x="312.148" y="-613" font-family="Times,serif" font-size="14.00">lanes : Integer</text>
<text text-anchor="start" x="312.148" y="-596.2" font-family="Times,serif" font-size="14.00">streetNumberAtStart : Integer</text>
<text text-anchor="start" x="312.148" y="-579.4" font-family="Times,serif" font-size="14.00">streetNumberAtEnd : Integer</text>
</a>
</g>
</g>
<!-- RoadNode&#45;&gt;RoadSegment -->
<g id="edge8" class="edge"><title>RoadNode&#45;&gt;RoadSegment</title>
<path fill="none" stroke="black" d="M500.948,-526.888C486.589,-539.821 469.046,-556.405 452.614,-572.474"/>
<text text-anchor="middle" x="403.423" y="-558.474" font-family="Times,serif" font-size="14.00">* incomingRoads</text>
<text text-anchor="middle" x="523.305" y="-529.688" font-family="Times,serif" font-size="14.00">0..1 end</text>
</g>
<!-- RoadNode&#45;&gt;RoadSegment -->
<g id="edge9" class="edge"><title>RoadNode&#45;&gt;RoadSegment</title>
<path fill="none" stroke="black" d="M511.771,-526.888C499.449,-539.821 482.78,-556.405 466.061,-572.474"/>
<text text-anchor="middle" x="513.701" y="-558.474" font-family="Times,serif" font-size="14.00">* outgoingRoads</text>
<text text-anchor="middle" x="487.47" y="-512.888" font-family="Times,serif" font-size="14.00">0..1 start</text>
</g>
<!-- Intersection -->
<g id="node5" class="node"><title>Intersection</title>
<g id="a_node5"><a xlink:href="javascript:Action.selectClass(&quot;Intersection&quot;);" xlink:title="class Intersection
">
<polygon fill="none" stroke="black" points="625.958,-346 625.958,-382 708.042,-382 708.042,-346 625.958,-346"/>
<text text-anchor="middle" x="667" y="-358.5" font-family="Times,serif" font-size="14.00">Intersection</text>
</a>
</g>
</g>
<!-- Intersection&#45;&gt;RoadNode -->
<g id="edge2" class="edge"><title>Intersection&#45;&gt;RoadNode</title>
<path fill="none" stroke="black" d="M649.776,-382.224C627.823,-404.177 589.469,-442.531 562.289,-469.711"/>
<polygon fill="none" stroke="black" points="559.539,-467.512 554.942,-477.058 564.488,-472.461 559.539,-467.512"/>
</g>
<!-- Turn -->
<g id="node6" class="node"><title>Turn</title>
<g id="a_node6"><a xlink:href="javascript:Action.selectClass(&quot;Turn&quot;);" xlink:title="class Turn
* Turns are used to model illegal turns, e.g. turning left
 when there is &#39;no left turn&#39; allowed, or &#39;no U turn&#39; allowed.
">
<polygon fill="none" stroke="black" points="587.838,-468.8 587.838,-535.2 746.162,-535.2 746.162,-468.8 587.838,-468.8"/>
<text text-anchor="middle" x="667" y="-517.2" font-family="Times,serif" font-size="14.00">Turn</text>
<polyline fill="none" stroke="black" points="587.838,-510.4 746.162,-510.4 "/>
<text text-anchor="start" x="595.838" y="-492.4" font-family="Times,serif" font-size="14.00">turnFrom : RoadSegment</text>
<text text-anchor="start" x="595.838" y="-475.6" font-family="Times,serif" font-size="14.00">turnTo : RoadSegment</text>
</a>
</g>
</g>
<!-- Intersection&#45;&gt;Turn -->
<g id="edge10" class="edge"><title>Intersection&#45;&gt;Turn</title>
<path fill="none" stroke="black" d="M662.327,-382.224C660.308,-401.259 659.761,-432.626 660.685,-458.347"/>
<polygon fill="black" stroke="black" points="661.151,-468.61 656.202,-458.824 660.924,-463.615 660.698,-458.62 660.698,-458.62 660.698,-458.62 660.924,-463.615 665.193,-458.416 661.151,-468.61 661.151,-468.61"/>
<text text-anchor="middle" x="622.32" y="-454.61" font-family="Times,serif" font-size="14.00">* illegalTurns</text>
<text text-anchor="middle" x="650.077" y="-385.024" font-family="Times,serif" font-size="14.00">0..1 </text>
</g>
<!-- Intersection&#45;&gt;Turn -->
<g id="edge11" class="edge"><title>Intersection&#45;&gt;Turn</title>
<path fill="none" stroke="black" d="M671.673,-382.224C673.692,-401.259 674.239,-432.626 673.315,-458.347"/>
<polygon fill="black" stroke="black" points="672.849,-468.61 668.807,-458.416 673.076,-463.615 673.302,-458.62 673.302,-458.62 673.302,-458.62 673.076,-463.615 677.798,-458.824 672.849,-468.61 672.849,-468.61"/>
<text text-anchor="middle" x="724.522" y="-454.61" font-family="Times,serif" font-size="14.00">* impossibleTurns</text>
<text text-anchor="middle" x="683.923" y="-385.024" font-family="Times,serif" font-size="14.00">0..1 </text>
</g>
<!-- NamedRoad&#45;&gt;RoadSegment -->
<g id="edge12" class="edge"><title>NamedRoad&#45;&gt;RoadSegment</title>
<path fill="none" stroke="black" d="M247.742,-535.212C265.92,-546.529 286.938,-559.613 307.442,-572.378"/>
<text text-anchor="middle" x="269.14" y="-558.378" font-family="Times,serif" font-size="14.00">1..* segments</text>
<text text-anchor="middle" x="242.492" y="-538.012" font-family="Times,serif" font-size="14.00">* </text>
</g>
<!-- RoadSegment&#45;&gt;RoadSegment -->
<g id="edge13" class="edge"><title>RoadSegment&#45;&gt;RoadSegment</title>
<path fill="none" stroke="black" d="M496.038,-610.961C506.361,-614.82 513,-621.5 513,-631 513,-637.383 510.003,-642.492 504.905,-646.329"/>
<polygon fill="black" stroke="black" points="496.038,-651.039 502.759,-642.374 500.454,-648.693 504.87,-646.348 504.87,-646.348 504.87,-646.348 500.454,-648.693 506.981,-650.322 496.038,-651.039 496.038,-651.039"/>
<text text-anchor="middle" x="548.723" y="-637.039" font-family="Times,serif" font-size="14.00">* inverseSegments</text>
<text text-anchor="middle" x="501.288" y="-596.961" font-family="Times,serif" font-size="14.00">* </text>
</g>
<!-- Route -->
<g id="node9" class="node"><title>Route</title>
<g id="a_node9"><a xlink:href="javascript:Action.selectClass(&quot;Route&quot;);" xlink:title="class Route
* A route is a plan to get from one location to another
 It is built by algorithms that traverse the nodes and arcs of the map
 taking into account speed, congestion, etc.
">
<polygon fill="none" stroke="black" points="325.38,-477.2 325.38,-526.8 474.62,-526.8 474.62,-477.2 325.38,-477.2"/>
<text text-anchor="middle" x="400" y="-508.8" font-family="Times,serif" font-size="14.00">Route</text>
<polyline fill="none" stroke="black" points="325.38,-502 474.62,-502 "/>
<text text-anchor="start" x="333.38" y="-484" font-family="Times,serif" font-size="14.00">estimatedTime : Integer</text>
</a>
</g>
</g>
<!-- Route&#45;&gt;RoadSegment -->
<g id="edge14" class="edge"><title>Route&#45;&gt;RoadSegment</title>
<path fill="none" stroke="black" d="M400,-526.888C400,-537.093 400,-549.571 400,-562.276"/>
<polygon fill="black" stroke="black" points="400,-572.474 395.5,-562.474 400,-567.474 400,-562.474 400,-562.474 400,-562.474 400,-567.474 404.5,-562.474 400,-572.474 400,-572.474"/>
<text text-anchor="middle" x="387.75" y="-558.474" font-family="Times,serif" font-size="14.00">1..* </text>
<text text-anchor="middle" x="387.75" y="-529.688" font-family="Times,serif" font-size="14.00">0..1 </text>
</g>
<!-- Crisis -->
<g id="node10" class="node"><title>Crisis</title>
<g id="a_node10"><a xlink:href="javascript:Action.selectClass(&quot;Crisis&quot;);" xlink:title="class Crisis
CoordinationStateMachine.ump

Author: Timothy C. Lethbridge
* State machine for co&#45;ordination of the
 crisis, as seen from one SC. If &#160;
 communication is operating properly the
 other coordinators&#39; state machines will
 generally be in the same states and
 substates.

 Modelled given Section 4 of the requirements
 This is a mixin to class crisis.
* A crisis is what is being managed by the
 Crisis Management System

">
<polygon fill="none" stroke="black" points="345.623,-75 345.623,-259 592.377,-259 592.377,-75 345.623,-75"/>
<text text-anchor="middle" x="469" y="-241" font-family="Times,serif" font-size="14.00">Crisis</text>
<polyline fill="none" stroke="black" points="345.623,-234.2 592.377,-234.2 "/>
<text text-anchor="start" x="353.623" y="-216.2" font-family="Times,serif" font-size="14.00">timeoutInMs : Integer</text>
<text text-anchor="start" x="353.623" y="-199.4" font-family="Times,serif" font-size="14.00">thisSideInitiator : Boolean</text>
<text text-anchor="start" x="353.623" y="-182.6" font-family="Times,serif" font-size="14.00">thisSideInitiatorOfTermination : Boolean</text>
<text text-anchor="start" x="353.623" y="-165.8" font-family="Times,serif" font-size="14.00">routeAgreedYet : Boolean</text>
<text text-anchor="start" x="353.623" y="-149" font-family="Times,serif" font-size="14.00">police : Boolean</text>
<text text-anchor="start" x="353.623" y="-132.2" font-family="Times,serif" font-size="14.00">identifier : String</text>
<text text-anchor="start" x="353.623" y="-115.4" font-family="Times,serif" font-size="14.00">gpsLocation : Location</text>
<text text-anchor="start" x="353.623" y="-98.6" font-family="Times,serif" font-size="14.00">initialReportedTime : Time</text>
<text text-anchor="start" x="353.623" y="-81.8" font-family="Times,serif" font-size="14.00">description : String</text>
</a>
</g>
</g>
<!-- Vehicle -->
<g id="node12" class="node"><title>Vehicle</title>
<g id="a_node12"><a xlink:href="javascript:Action.selectClass(&quot;Vehicle&quot;);" xlink:title="class Vehicle
Police or fire vehicle
From Requirements section 8 Data Dictionary
">
<polygon fill="none" stroke="black" points="307.091,-297.2 307.091,-430.8 492.909,-430.8 492.909,-297.2 307.091,-297.2"/>
<text text-anchor="middle" x="400" y="-412.8" font-family="Times,serif" font-size="14.00">Vehicle</text>
<polyline fill="none" stroke="black" points="307.091,-406 492.909,-406 "/>
<text text-anchor="start" x="315.091" y="-388" font-family="Times,serif" font-size="14.00">vehicleID : String</text>
<text text-anchor="start" x="315.091" y="-371.2" font-family="Times,serif" font-size="14.00">currentLocation : Location</text>
<text text-anchor="start" x="315.091" y="-354.4" font-family="Times,serif" font-size="14.00">eta : Time</text>
<text text-anchor="start" x="315.091" y="-337.6" font-family="Times,serif" font-size="14.00">intendedLocation : Location</text>
<text text-anchor="start" x="315.091" y="-320.8" font-family="Times,serif" font-size="14.00">brokenDown : Boolean</text>
<text text-anchor="start" x="315.091" y="-304" font-family="Times,serif" font-size="14.00">inTrafficCongestion : Boolean</text>
</a>
</g>
</g>
<!-- Crisis&#45;&gt;Vehicle -->
<g id="edge15" class="edge"><title>Crisis&#45;&gt;Vehicle</title>
<path fill="none" stroke="black" d="M429.985,-259.22C426.589,-268.71 423.251,-278.28 420.097,-287.568"/>
<polygon fill="black" stroke="black" points="416.884,-297.13 415.804,-286.217 418.477,-292.39 420.07,-287.65 420.07,-287.65 420.07,-287.65 418.477,-292.39 424.335,-289.084 416.884,-297.13 416.884,-297.13"/>
<text text-anchor="middle" x="481.231" y="-283.13" font-family="Times,serif" font-size="14.00">* assignedFireVehicles</text>
<text text-anchor="middle" x="417.735" y="-262.02" font-family="Times,serif" font-size="14.00">0..1 </text>
</g>
<!-- Crisis&#45;&gt;Vehicle -->
<g id="edge16" class="edge"><title>Crisis&#45;&gt;Vehicle</title>
<path fill="none" stroke="black" d="M443.46,-259.22C440.139,-268.71 436.705,-278.28 433.285,-287.568"/>
<polygon fill="black" stroke="black" points="429.732,-297.13 428.997,-286.188 431.474,-292.443 433.215,-287.756 433.215,-287.756 433.215,-287.756 431.474,-292.443 437.434,-289.324 429.732,-297.13 429.732,-297.13"/>
<text text-anchor="middle" x="359.164" y="-283.13" font-family="Times,serif" font-size="14.00">* assignedPoliceVehicles</text>
<text text-anchor="middle" x="455.71" y="-262.02" font-family="Times,serif" font-size="14.00">0..1 </text>
</g>
<!-- Crisis&#45;&gt;Route -->
<g id="edge17" class="edge"><title>Crisis&#45;&gt;Route</title>
<path fill="none" stroke="black" d="M489.57,-259.257C502.43,-312.449 510.859,-379.229 483,-432 474.547,-448.013 460.52,-461.013 446.236,-471.232"/>
<polygon fill="black" stroke="black" points="437.835,-476.928 443.586,-467.591 441.974,-474.122 446.112,-471.316 446.112,-471.316 446.112,-471.316 441.974,-474.122 448.637,-475.04 437.835,-476.928 437.835,-476.928"/>
<text text-anchor="middle" x="371.927" y="-462.928" font-family="Times,serif" font-size="14.00">0..1 proposedFireRoute</text>
<text text-anchor="middle" x="501.82" y="-262.057" font-family="Times,serif" font-size="14.00">0..1 </text>
</g>
<!-- Crisis&#45;&gt;Route -->
<g id="edge18" class="edge"><title>Crisis&#45;&gt;Route</title>
<path fill="none" stroke="black" d="M505.253,-259.257C520.43,-312.449 528.859,-379.229 501,-432 492.426,-448.242 478.118,-461.384 462.929,-471.668"/>
<polygon fill="black" stroke="black" points="454.431,-477.089 460.441,-467.917 458.646,-474.4 462.861,-471.711 462.861,-471.711 462.861,-471.711 458.646,-474.4 465.281,-475.505 454.431,-477.089 454.431,-477.089"/>
<text text-anchor="middle" x="526.56" y="-463.089" font-family="Times,serif" font-size="14.00">0..1 proposedPoliceRoute</text>
<text text-anchor="middle" x="517.503" y="-262.057" font-family="Times,serif" font-size="14.00">0..1 </text>
</g>
<!-- Crisis&#45;&gt;Route -->
<g id="edge19" class="edge"><title>Crisis&#45;&gt;Route</title>
<path fill="none" stroke="black" d="M520.937,-259.257C538.43,-312.449 546.859,-379.229 519,-432 510.426,-448.242 496.118,-461.384 480.235,-471.668"/>
<polygon fill="black" stroke="black" points="471.275,-477.089 477.502,-468.062 475.553,-474.501 479.831,-471.912 479.831,-471.912 479.831,-471.912 475.553,-474.501 482.161,-475.763 471.275,-477.089 471.275,-477.089"/>
<text text-anchor="middle" x="471.275" y="-479.889" font-family="Times,serif" font-size="14.00">* disagreedRoutes</text>
<text text-anchor="middle" x="533.187" y="-262.057" font-family="Times,serif" font-size="14.00">0..1 </text>
</g>
<!-- Crisis&#45;&gt;RoadSegment -->
<g id="edge20" class="edge"><title>Crisis&#45;&gt;RoadSegment</title>
<path fill="none" stroke="black" d="M345.621,-237.589C326.389,-254.138 309.205,-273.617 298,-296 250.118,-391.651 269.442,-439.698 316,-536 320.741,-545.806 326.813,-555.352 333.519,-564.368"/>
<polygon fill="black" stroke="black" points="339.836,-572.491 330.145,-567.36 336.767,-568.544 333.698,-564.597 333.698,-564.597 333.698,-564.597 336.767,-568.544 337.25,-561.835 339.836,-572.491 339.836,-572.491"/>
<text text-anchor="middle" x="248.269" y="-575.291" font-family="Times,serif" font-size="14.00">* blockedOrCongestedSegments</text>
<text text-anchor="middle" x="333.371" y="-223.589" font-family="Times,serif" font-size="14.00">0..1 </text>
</g>
<!-- CrisisManagementSystem -->
<g id="node11" class="node"><title>CrisisManagementSystem</title>
<g id="a_node11"><a xlink:href="javascript:Action.selectClass(&quot;CrisisManagementSystem&quot;);" xlink:title="class CrisisManagementSystem
BcmsCore.ump

 Core Umple model file for the Crisis 
 management system
 Source document: http://cserg0.site.uottawa.ca/cma2012/CaseStudy.pdf

 Author: Timothy C. Lethbridge

 To use this, a master file must be created
 with use statements that link in
 RoutesAndLocations.ump
 and CoordinationStateMachine.ump
 Plus provide multiplicities as described.
* The singleton that will link to the various 
 &#160;* system elements
 Note that variants with different 
 multiplicities will associate this with 
 crises and coordinators
">
<polygon fill="none" stroke="black" points="491.507,-1 491.507,-37 654.493,-37 654.493,-1 491.507,-1"/>
<text text-anchor="middle" x="573" y="-13.5" font-family="Times,serif" font-size="14.00">CrisisManagementSystem</text>
</a>
</g>
</g>
<!-- CrisisManagementSystem&#45;&gt;Crisis -->
<g id="edge21" class="edge"><title>CrisisManagementSystem&#45;&gt;Crisis</title>
<path fill="none" stroke="black" d="M560.866,-37.0338C555.175,-45.0237 547.891,-55.249 539.921,-66.4384"/>
<polygon fill="black" stroke="black" points="534.008,-74.7382 536.145,-63.9825 536.909,-70.6657 539.81,-66.5933 539.81,-66.5933 539.81,-66.5933 536.909,-70.6657 543.475,-69.2041 534.008,-74.7382 534.008,-74.7382"/>
<text text-anchor="middle" x="521.758" y="-60.7382" font-family="Times,serif" font-size="14.00">0..1 </text>
<text text-anchor="middle" x="555.616" y="-39.8338" font-family="Times,serif" font-size="14.00">1 </text>
</g>
<!-- StationCoordinator -->
<g id="node13" class="node"><title>StationCoordinator</title>
<g id="a_node13"><a xlink:href="javascript:Action.selectClass(&quot;StationCoordinator&quot;);" xlink:title="class StationCoordinator
* The station coordinator is the automated
 agent of the Human coordinator in
 either the fire service (FSC) or police 
 service (PSC).
 Any running version of this program will 
 just have one of these active as the
 current coordinator and one or more active 
 as remote coordinators to communicate with
">
<polygon fill="none" stroke="black" points="610.503,-133.8 610.503,-200.2 745.497,-200.2 745.497,-133.8 610.503,-133.8"/>
<text text-anchor="middle" x="678" y="-182.2" font-family="Times,serif" font-size="14.00">StationCoordinator</text>
<polyline fill="none" stroke="black" points="610.503,-175.4 745.497,-175.4 "/>
<text text-anchor="start" x="618.503" y="-157.4" font-family="Times,serif" font-size="14.00">identification : String</text>
<text text-anchor="start" x="618.503" y="-140.6" font-family="Times,serif" font-size="14.00">police : Boolean</text>
</a>
</g>
</g>
<!-- CrisisManagementSystem&#45;&gt;StationCoordinator -->
<g id="edge22" class="edge"><title>CrisisManagementSystem&#45;&gt;StationCoordinator</title>
<path fill="none" stroke="black" d="M585.25,-37.0338C600.711,-58.5312 627.809,-96.2112 648.737,-125.31"/>
<polygon fill="black" stroke="black" points="654.737,-133.653 645.245,-128.162 651.817,-129.594 648.898,-125.535 648.898,-125.535 648.898,-125.535 651.817,-129.594 652.551,-122.907 654.737,-133.653 654.737,-133.653"/>
<text text-anchor="middle" x="649.487" y="-119.653" font-family="Times,serif" font-size="14.00">2 </text>
<text text-anchor="middle" x="580" y="-39.8338" font-family="Times,serif" font-size="14.00">1 </text>
</g>
<!-- Vehicle&#45;&gt;Route -->
<g id="edge23" class="edge"><title>Vehicle&#45;&gt;Route</title>
<path fill="none" stroke="black" d="M400,-431.008C400,-447.521 400,-464.191 400,-477.118"/>
<text text-anchor="middle" x="360.922" y="-479.918" font-family="Times,serif" font-size="14.00">0..1 routePlan</text>
<text text-anchor="middle" x="387.75" y="-433.808" font-family="Times,serif" font-size="14.00">0..1 </text>
</g>
</g>
</svg>
