<?xml version="1.0" encoding="UTF-8" standalone="no"?>
<!DOCTYPE svg PUBLIC "-//W3C//DTD SVG 1.1//EN"
 "http://www.w3.org/Graphics/SVG/1.1/DTD/svg11.dtd">
<!-- Generated by graphviz version 2.40.1 (20161225.0304)
 -->
<!-- Title: Compositions Pages: 1 -->
<svg width="222pt" height="344pt"
 viewBox="0.00 0.00 221.50 344.00" xmlns="http://www.w3.org/2000/svg" xmlns:xlink="http://www.w3.org/1999/xlink">
<g id="graph0" class="graph" transform="scale(1 1) rotate(0) translate(4 340)">
<title>Compositions</title>
<polygon fill="#ffffff" stroke="transparent" points="-4,4 -4,-340 217.5,-340 217.5,4 -4,4"/>
<!-- Building -->
<g id="node1" class="node">
<title>Building</title>
<g id="a_node1"><a xlink:href="javascript:Action.selectClass(&quot;Building&quot;);" xlink:title="class Building&#10;Positioning&#13;">
<text text-anchor="start" x="11.4966" y="-88.8" font-family="Times,serif" font-size="14.00" fill="#000000"> &#160;&#160;&#160;Building &#160;&#160;&#160;</text>
<polygon fill="none" stroke="#000000" points="0,-75 0,-111 99,-111 99,-75 0,-75"/>
</a>
</g>
</g>
<!-- Floor -->
<g id="node2" class="node">
<title>Floor</title>
<g id="a_node2"><a xlink:href="javascript:Action.selectClass(&quot;Floor&quot;);" xlink:title="class Floor&#10;deleting a building deletes all its floors&#13;also, deleting a floor delete all its rooms&#13;">
<text text-anchor="start" x="78.3311" y="-13.8" font-family="Times,serif" font-size="14.00" fill="#000000"> &#160;&#160;&#160;Floor &#160;&#160;&#160;</text>
<polygon fill="none" stroke="#000000" points="67.5,0 67.5,-36 147.5,-36 147.5,0 67.5,0"/>
</a>
</g>
</g>
<!-- Floor&#45;&gt;Building -->
<g id="edge1" class="edge">
<title>Floor&#45;&gt;Building</title>
<g id="a_edge1"><a xlink:title="Floor 4..10 &#160;&#45;&lt;@&gt; 1 b Building">
<path fill="none" stroke="#000000" d="M93.4598,-36.1554C86.7415,-44.8428 78.5482,-55.4377 71.0636,-65.116"/>
<polygon fill="#000000" stroke="#000000" points="70.9529,-65.2592 70.4466,-72.4525 63.6119,-74.7518 64.1182,-67.5585 70.9529,-65.2592"/>
</a>
</g>
<text text-anchor="middle" x="54.8619" y="-63.5518" font-family="Times,serif" font-size="14.00" fill="#000000">1 b</text>
<text text-anchor="middle" x="77.7098" y="-38.9554" font-family="Times,serif" font-size="14.00" fill="#000000">4..10 </text>
</g>
<!-- Room -->
<g id="node3" class="node">
<title>Room</title>
<g id="a_node3"><a xlink:href="javascript:Action.selectClass(&quot;Room&quot;);" xlink:title="class Room&#10;">
<text text-anchor="start" x="134.3862" y="-97.8" font-family="Times,serif" font-size="14.00" fill="#000000"> &#160;&#160;&#160;Room &#160;&#160;&#160;</text>
<g id="a_node3_0"><a xlink:href="javascript:Action.selectClass(&quot;Room&quot;);" xlink:title="int windows&#13;">
<text text-anchor="start" x="120.3862" y="-77.8" font-family="Times,serif" font-size="14.00" fill="#000000"> &#160;windows : int &#160;</text>
</a>
</g>
<polygon fill="#000000" stroke="#000000" points="117.5,-91 117.5,-91 213.5,-91 213.5,-91 117.5,-91"/>
<polygon fill="none" stroke="#000000" points="117.5,-72 117.5,-114 213.5,-114 213.5,-72 117.5,-72"/>
</a>
</g>
</g>
<!-- Floor&#45;&gt;Room -->
<g id="edge2" class="edge">
<title>Floor&#45;&gt;Room</title>
<g id="a_edge2"><a xlink:title="Floor 1 &#160;&lt;@&gt;&#45; 0..6 r Room">
<path fill="none" stroke="#000000" d="M128.9995,-45.8011C135.6536,-54.4055 142.8733,-63.7413 149.1218,-71.8212"/>
<polygon fill="#000000" stroke="#000000" points="128.8812,-45.6481 122.0465,-43.3487 121.5402,-36.1554 128.3749,-38.4547 128.8812,-45.6481"/>
</a>
</g>
<text text-anchor="middle" x="134.5407" y="-60.6212" font-family="Times,serif" font-size="14.00" fill="#000000">0..6 r</text>
<text text-anchor="middle" x="116.2902" y="-38.9554" font-family="Times,serif" font-size="14.00" fill="#000000">1 </text>
</g>
<!-- Person -->
<g id="node4" class="node">
<title>Person</title>
<g id="a_node4"><a xlink:href="javascript:Action.selectClass(&quot;Person&quot;);" xlink:title="class Person&#10;">
<text text-anchor="start" x="132.9448" y="-175.8" font-family="Times,serif" font-size="14.00" fill="#000000"> &#160;&#160;&#160;Person &#160;&#160;&#160;</text>
<g id="a_node4_1"><a xlink:href="javascript:Action.selectClass(&quot;Person&quot;);" xlink:title="String name&#13;">
<text text-anchor="start" x="121.2827" y="-155.8" font-family="Times,serif" font-size="14.00" fill="#000000"> &#160;name : String &#160;</text>
</a>
</g>
<polygon fill="#000000" stroke="#000000" points="118.5,-169 118.5,-169 213.5,-169 213.5,-169 118.5,-169"/>
<polygon fill="none" stroke="#000000" points="118,-150 118,-192 213,-192 213,-150 118,-150"/>
</a>
</g>
</g>
<!-- Room&#45;&gt;Person -->
<g id="edge3" class="edge">
<title>Room&#45;&gt;Person</title>
<g id="a_edge3"><a xlink:title="Room 1 r &#45;&#45; * p Person">
<path fill="none" stroke="#000000" d="M165.5,-114.3138C165.5,-125.41 165.5,-138.9294 165.5,-149.982"/>
</a>
</g>
<text text-anchor="middle" x="156.75" y="-138.782" font-family="Times,serif" font-size="14.00" fill="#000000">* p</text>
<text text-anchor="middle" x="157.9189" y="-117.1138" font-family="Times,serif" font-size="14.00" fill="#000000">1 r</text>
</g>
<!-- Vehicle -->
<g id="node5" class="node">
<title>Vehicle</title>
<g id="a_node5"><a xlink:href="javascript:Action.selectClass(&quot;Vehicle&quot;);" xlink:title="class Vehicle&#10;">
<text text-anchor="start" x="131.1333" y="-241.8" font-family="Times,serif" font-size="14.00" fill="#000000"> &#160;&#160;&#160;Vehicle &#160;&#160;&#160;</text>
<polygon fill="none" stroke="#000000" points="120,-228 120,-264 211,-264 211,-228 120,-228"/>
</a>
</g>
</g>
<!-- Person&#45;&gt;Vehicle -->
<g id="edge4" class="edge">
<title>Person&#45;&gt;Vehicle</title>
<g id="a_edge4"><a xlink:title="Person 1 p &#45;&#45; 1..2 v Vehicle">
<path fill="none" stroke="#000000" d="M165.5,-192.2914C165.5,-203.5512 165.5,-217.2253 165.5,-227.9581"/>
</a>
</g>
<text text-anchor="middle" x="149.75" y="-216.7581" font-family="Times,serif" font-size="14.00" fill="#000000">1..2 v</text>
<text text-anchor="middle" x="156.75" y="-195.0914" font-family="Times,serif" font-size="14.00" fill="#000000">1 p</text>
</g>
<!-- Wheel -->
<g id="node6" class="node">
<title>Wheel</title>
<g id="a_node6"><a xlink:href="javascript:Action.selectClass(&quot;Wheel&quot;);" xlink:title="class Wheel&#10;">
<text text-anchor="start" x="133.3574" y="-313.8" font-family="Times,serif" font-size="14.00" fill="#000000"> &#160;&#160;&#160;Wheel &#160;&#160;&#160;</text>
<polygon fill="none" stroke="#000000" points="122.5,-300 122.5,-336 208.5,-336 208.5,-300 122.5,-300"/>
</a>
</g>
</g>
<!-- Vehicle&#45;&gt;Wheel -->
<g id="edge5" class="edge">
<title>Vehicle&#45;&gt;Wheel</title>
<g id="a_edge5"><a xlink:title="Vehicle 0..1 v &lt;@&gt;&#45; 4 w Wheel">
<path fill="none" stroke="#000000" d="M165.5,-276.4121C165.5,-284.2908 165.5,-292.5354 165.5,-299.5867"/>
<polygon fill="#000000" stroke="#000000" points="165.5001,-276.1686 161.5,-270.1687 165.5,-264.1686 169.5,-270.1686 165.5001,-276.1686"/>
</a>
</g>
<text text-anchor="middle" x="155.1948" y="-288.3867" font-family="Times,serif" font-size="14.00" fill="#000000">4 w</text>
<text text-anchor="middle" x="149.75" y="-266.9686" font-family="Times,serif" font-size="14.00" fill="#000000">0..1 v</text>
</g>
</g>
</svg>
