<?xml version="1.0" encoding="UTF-8" standalone="no"?>
<!DOCTYPE svg PUBLIC "-//W3C//DTD SVG 1.1//EN"
 "http://www.w3.org/Graphics/SVG/1.1/DTD/svg11.dtd">
<!-- Generated by graphviz version 2.40.1 (20161225.0304)
 -->
<!-- Title: DMMOverview Pages: 1 -->
<svg width="777pt" height="266pt"
 viewBox="0.00 0.00 776.50 266.00" xmlns="http://www.w3.org/2000/svg" xmlns:xlink="http://www.w3.org/1999/xlink">
<g id="graph0" class="graph" transform="scale(1 1) rotate(0) translate(4 262)">
<title>DMMOverview</title>
<polygon fill="#ffffff" stroke="transparent" points="-4,4 -4,-262 772.5,-262 772.5,4 -4,4"/>
<!-- SourceObject -->
<g id="node1" class="node">
<title>SourceObject</title>
<g id="a_node1"><a xlink:href="javascript:Action.selectClass(&quot;SourceObject&quot;);" xlink:title="class SourceObject&#10;This example refers to Figures 1, 4 and 5 of &#39;The Dagstuhl Middle Metamodel:&#13;A Schema for Reverse Engineering&#39;, ATEM 2003, First International&#13;Workshop on Meta&#45;Models and Schemas for Reverse Engineering,&#13;WCRE, Victoria, B.C., in Electronic Notes in Theoretical Computer&#13;Science, Elsevier, Vol. 94, pp 7&#45;18,&#13;Authors: Lethbridge, T.C., Sander Tichelaar, and Erhard Ploedereder (2003)&#13;To load the entire DMM example at once, copy and paste all&#13;five DMM components (DMM*) into the editor. &#160;Please note that the&#13;position attributes of classes and associations will need to be&#13;re&#45;adjusted, as the example has been made to display the diagrams&#13;as separate entities.&#13;This is a UML class diagram written in Umple&#13;Abstract&#13;">
<text text-anchor="start" x="48.9033" y="-232.8" font-family="Times,serif" font-size="14.00" fill="#000000"> &#160;&#160;&#160;SourceObject &#160;&#160;&#160;</text>
<polygon fill="none" stroke="#000000" points="38,-219 38,-255 164,-255 164,-219 38,-219"/>
</a>
</g>
</g>
<!-- Defines -->
<g id="node2" class="node">
<title>Defines</title>
<g id="a_node2"><a xlink:href="javascript:Action.selectClass(&quot;Defines&quot;);" xlink:title="class Defines&#10;">
<text text-anchor="start" x="10.6138" y="-157.8" font-family="Times,serif" font-size="14.00" fill="#000000"> &#160;&#160;&#160;Defines &#160;&#160;&#160;</text>
<polygon fill="none" stroke="#000000" points="0,-144 0,-180 92,-180 92,-144 0,-144"/>
</a>
</g>
</g>
<!-- Defines&#45;&gt;SourceObject -->
<g id="edge6" class="edge">
<title>Defines&#45;&gt;SourceObject</title>
<g id="a_edge6"><a xlink:title="Defines 0..1 &#160;&#45;&#45; 1 &#160;SourceObject">
<path fill="none" stroke="#000000" d="M59.314,-180.1554C67.8978,-191.8606 79.0209,-207.0284 87.618,-218.7518"/>
</a>
</g>
<text text-anchor="middle" x="82.368" y="-207.5518" font-family="Times,serif" font-size="14.00" fill="#000000">1 </text>
<text text-anchor="middle" x="47.064" y="-182.9554" font-family="Times,serif" font-size="14.00" fill="#000000">0..1 </text>
</g>
<!-- ModelObject -->
<g id="node4" class="node">
<title>ModelObject</title>
<g id="a_node4"><a xlink:href="javascript:Action.selectClass(&quot;ModelObject&quot;);" xlink:title="class ModelObject&#10;Abstract&#13;">
<text text-anchor="start" x="214.5654" y="-241.8" font-family="Times,serif" font-size="14.00" fill="#000000"> &#160;&#160;&#160;ModelObject &#160;&#160;&#160;</text>
<g id="a_node4_0"><a xlink:href="javascript:Action.selectClass(&quot;ModelObject&quot;);" xlink:title="String name&#13;">
<text text-anchor="start" x="213" y="-221.8" font-family="Times,serif" font-size="14.00" fill="#000000"> &#160;name : String &#160;</text>
</a>
</g>
<polygon fill="#000000" stroke="#000000" points="210,-235 210,-235 321,-235 321,-235 210,-235"/>
<polygon fill="none" stroke="#000000" points="209.5,-216 209.5,-258 320.5,-258 320.5,-216 209.5,-216"/>
</a>
</g>
</g>
<!-- Defines&#45;&gt;ModelObject -->
<g id="edge7" class="edge">
<title>Defines&#45;&gt;ModelObject</title>
<g id="a_edge7"><a xlink:title="Defines 0..1 &#160;&#45;&#45; 1 &#160;ModelObject">
<path fill="none" stroke="#000000" d="M92.1767,-177.8139C126.3106,-189.5036 172.9526,-205.4769 209.1793,-217.8833"/>
</a>
</g>
<text text-anchor="middle" x="203.9293" y="-206.6833" font-family="Times,serif" font-size="14.00" fill="#000000">1 </text>
<text text-anchor="middle" x="98.3017" y="-180.6139" font-family="Times,serif" font-size="14.00" fill="#000000">0..1 </text>
</g>
<!-- Declares -->
<g id="node3" class="node">
<title>Declares</title>
<g id="a_node3"><a xlink:href="javascript:Action.selectClass(&quot;Declares&quot;);" xlink:title="class Declares&#10;">
<text text-anchor="start" x="120.5171" y="-157.8" font-family="Times,serif" font-size="14.00" fill="#000000"> &#160;&#160;&#160;Declares &#160;&#160;&#160;</text>
<polygon fill="none" stroke="#000000" points="110,-144 110,-180 208,-180 208,-144 110,-144"/>
</a>
</g>
</g>
<!-- Declares&#45;&gt;SourceObject -->
<g id="edge8" class="edge">
<title>Declares&#45;&gt;SourceObject</title>
<g id="a_edge8"><a xlink:title="Declares 0..1 &#160;&#45;&#45; 1 &#160;SourceObject">
<path fill="none" stroke="#000000" d="M144.9598,-180.1554C135.9078,-191.8606 124.178,-207.0284 115.1119,-218.7518"/>
</a>
</g>
<text text-anchor="middle" x="109.8619" y="-207.5518" font-family="Times,serif" font-size="14.00" fill="#000000">1 </text>
<text text-anchor="middle" x="132.7098" y="-182.9554" font-family="Times,serif" font-size="14.00" fill="#000000">0..1 </text>
</g>
<!-- Declares&#45;&gt;ModelObject -->
<g id="edge9" class="edge">
<title>Declares&#45;&gt;ModelObject</title>
<g id="a_edge9"><a xlink:title="Declares * &#160;&#45;&#45; 1 &#160;ModelObject">
<path fill="none" stroke="#000000" d="M184.6596,-180.1554C199.855,-190.9068 219.1792,-204.5796 235.0674,-215.8212"/>
</a>
</g>
<text text-anchor="middle" x="229.8174" y="-204.6212" font-family="Times,serif" font-size="14.00" fill="#000000">1 </text>
<text text-anchor="middle" x="179.4096" y="-182.9554" font-family="Times,serif" font-size="14.00" fill="#000000">* </text>
</g>
<!-- Relationship -->
<g id="node5" class="node">
<title>Relationship</title>
<g id="a_node5"><a xlink:href="javascript:Action.selectClass(&quot;Relationship&quot;);" xlink:title="class Relationship&#10;Abstract&#13;">
<text text-anchor="start" x="443.6138" y="-85.8" font-family="Times,serif" font-size="14.00" fill="#000000"> &#160;&#160;&#160;Relationship &#160;&#160;&#160;</text>
<polygon fill="none" stroke="#000000" points="433,-72 433,-108 553,-108 553,-72 433,-72"/>
</a>
</g>
</g>
<!-- SourceRelationship -->
<g id="node6" class="node">
<title>SourceRelationship</title>
<g id="a_node6"><a xlink:href="javascript:Action.selectClass(&quot;SourceRelationship&quot;);" xlink:title="class SourceRelationship&#10;">
<text text-anchor="start" x="620.6758" y="-13.8" font-family="Times,serif" font-size="14.00" fill="#000000"> &#160;&#160;&#160;SourceRelationship &#160;&#160;&#160;</text>
<polygon fill="none" stroke="#000000" points="609.5,0 609.5,-36 768.5,-36 768.5,0 609.5,0"/>
</a>
</g>
</g>
<!-- SourceRelationship&#45;&gt;Relationship -->
<g id="edge1" class="edge">
<title>SourceRelationship&#45;&gt;Relationship</title>
<path fill="none" stroke="#000000" d="M623.4623,-36.0563C579.1704,-48.2592 524.905,-63.2099 502.9357,-69.2626"/>
<polygon fill="none" stroke="#000000" points="501.7111,-65.9695 493,-72 503.5705,-72.7181 501.7111,-65.9695"/>
</g>
<!-- ModelElement -->
<g id="node7" class="node">
<title>ModelElement</title>
<g id="a_node7"><a xlink:href="javascript:Action.selectClass(&quot;ModelElement&quot;);" xlink:title="class ModelElement&#10;">
<text text-anchor="start" x="237.8999" y="-157.8" font-family="Times,serif" font-size="14.00" fill="#000000"> &#160;&#160;&#160;ModelElement &#160;&#160;&#160;</text>
<polygon fill="none" stroke="#000000" points="226.5,-144 226.5,-180 359.5,-180 359.5,-144 226.5,-144"/>
</a>
</g>
</g>
<!-- ModelElement&#45;&gt;ModelObject -->
<g id="edge2" class="edge">
<title>ModelElement&#45;&gt;ModelObject</title>
<path fill="none" stroke="#000000" d="M285.5518,-180.2819C281.9617,-189.094 277.8062,-199.2939 274.8573,-206.5321"/>
<polygon fill="none" stroke="#000000" points="271.5317,-205.4185 271,-216 278.0144,-208.0596 271.5317,-205.4185"/>
</g>
<!-- ModelRelationship -->
<g id="node8" class="node">
<title>ModelRelationship</title>
<g id="a_node8"><a xlink:href="javascript:Action.selectClass(&quot;ModelRelationship&quot;);" xlink:title="class ModelRelationship&#10;">
<text text-anchor="start" x="225.8379" y="-85.8" font-family="Times,serif" font-size="14.00" fill="#000000"> &#160;&#160;&#160;ModelRelationship &#160;&#160;&#160;</text>
<polygon fill="none" stroke="#000000" points="214.5,-72 214.5,-108 371.5,-108 371.5,-72 214.5,-72"/>
</a>
</g>
</g>
<!-- ModelRelationship&#45;&gt;ModelObject -->
<g id="edge3" class="edge">
<title>ModelRelationship&#45;&gt;ModelObject</title>
<path fill="none" stroke="#000000" d="M331.6914,-108.0563C345.7867,-116.7796 360.1731,-128.7201 368,-144 375.2944,-158.2405 377.1358,-166.8647 368,-180 357.6922,-194.8203 303.7733,-208.561 281.0807,-213.7812"/>
<polygon fill="none" stroke="#000000" points="280.0138,-210.4321 271,-216 281.5186,-217.2685 280.0138,-210.4321"/>
</g>
<!-- ModelRelationship&#45;&gt;ModelElement -->
<g id="edge10" class="edge">
<title>ModelRelationship&#45;&gt;ModelElement</title>
<g id="a_edge10"><a xlink:title="ModelRelationship * toModelRel1 &#45;&#45; 1 toModelElem1 ModelElement">
<path fill="none" stroke="#000000" d="M287.0476,-108.1686C285.9921,-119 285.9842,-132.7124 287.024,-143.5867"/>
</a>
</g>
<text text-anchor="middle" x="239.7808" y="-132.3867" font-family="Times,serif" font-size="14.00" fill="#000000">1 toModelElem1</text>
<text text-anchor="middle" x="244.8562" y="-110.9686" font-family="Times,serif" font-size="14.00" fill="#000000">* toModelRel1</text>
</g>
<!-- ModelRelationship&#45;&gt;ModelElement -->
<g id="edge11" class="edge">
<title>ModelRelationship&#45;&gt;ModelElement</title>
<g id="a_edge11"><a xlink:title="ModelRelationship * toModelRel2 &#45;&#45; 1 toModelElem2 ModelElement">
<path fill="none" stroke="#000000" d="M298.9524,-108.1686C300.0079,-119 300.0158,-132.7124 298.976,-143.5867"/>
</a>
</g>
<text text-anchor="middle" x="346.2192" y="-132.3867" font-family="Times,serif" font-size="14.00" fill="#000000">1 toModelElem2</text>
<text text-anchor="middle" x="341.1438" y="-110.9686" font-family="Times,serif" font-size="14.00" fill="#000000">* toModelRel2</text>
</g>
<!-- RelationshipInModel -->
<g id="node9" class="node">
<title>RelationshipInModel</title>
<g id="a_node9"><a xlink:href="javascript:Action.selectClass(&quot;RelationshipInModel&quot;);" xlink:title="class RelationshipInModel&#10;">
<text text-anchor="start" x="219.5068" y="-13.8" font-family="Times,serif" font-size="14.00" fill="#000000"> &#160;&#160;&#160;RelationshipInModel &#160;&#160;&#160;</text>
<polygon fill="none" stroke="#000000" points="209,0 209,-36 377,-36 377,0 209,0"/>
</a>
</g>
</g>
<!-- RelationshipInModel&#45;&gt;Relationship -->
<g id="edge4" class="edge">
<title>RelationshipInModel&#45;&gt;Relationship</title>
<path fill="none" stroke="#000000" d="M359.8752,-36.0563C405.2982,-48.3205 461.0007,-63.3602 483.197,-69.3532"/>
<polygon fill="none" stroke="#000000" points="482.4333,-72.7723 493,-72 484.2581,-66.0143 482.4333,-72.7723"/>
</g>
<!-- RelationshipInModel&#45;&gt;ModelRelationship -->
<g id="edge12" class="edge">
<title>RelationshipInModel&#45;&gt;ModelRelationship</title>
<g id="a_edge12"><a xlink:title="RelationshipInModel 1 &#160;&#45;&#45; 1 &#160;ModelRelationship">
<path fill="none" stroke="#000000" d="M293,-36.1686C293,-47 293,-60.7124 293,-71.5867"/>
</a>
</g>
<text text-anchor="middle" x="287.75" y="-60.3867" font-family="Times,serif" font-size="14.00" fill="#000000">1 </text>
<text text-anchor="middle" x="287.75" y="-38.9686" font-family="Times,serif" font-size="14.00" fill="#000000">1 </text>
</g>
<!-- SourceModelRelationship -->
<g id="node10" class="node">
<title>SourceModelRelationship</title>
<g id="a_node10"><a xlink:href="javascript:Action.selectClass(&quot;SourceModelRelationship&quot;);" xlink:title="class SourceModelRelationship&#10;Positioning&#13;">
<text text-anchor="start" x="405.8999" y="-13.8" font-family="Times,serif" font-size="14.00" fill="#000000"> &#160;&#160;&#160;SourceModelRelationship &#160;&#160;&#160;</text>
<polygon fill="none" stroke="#000000" points="395,0 395,-36 591,-36 591,0 395,0"/>
</a>
</g>
</g>
<!-- SourceModelRelationship&#45;&gt;Relationship -->
<g id="edge5" class="edge">
<title>SourceModelRelationship&#45;&gt;Relationship</title>
<path fill="none" stroke="#000000" d="M493,-36.2819C493,-44.8492 493,-54.7283 493,-61.9222"/>
<polygon fill="none" stroke="#000000" points="489.5001,-62 493,-72 496.5001,-62 489.5001,-62"/>
</g>
</g>
</svg>
