<?xml version="1.0" encoding="UTF-8" standalone="no"?>
<!DOCTYPE svg PUBLIC "-//W3C//DTD SVG 1.1//EN"
 "http://www.w3.org/Graphics/SVG/1.1/DTD/svg11.dtd">
<!-- Generated by graphviz version 2.48.0 (20210717.1556)
 -->
<!-- Title: DMMRelationshipHierarchy Pages: 1 -->
<svg width="1973pt" height="264pt"
 viewBox="0.00 0.00 1973.00 264.00" xmlns="http://www.w3.org/2000/svg" xmlns:xlink="http://www.w3.org/1999/xlink">
<g id="graph0" class="graph" transform="scale(1 1) rotate(0) translate(4 260)">
<title>DMMRelationshipHierarchy</title>
<polygon fill="white" stroke="transparent" points="-4,4 -4,-260 1969,-260 1969,4 -4,4"/>
<!-- ModelRelationship -->
<g id="node1" class="node">
<title>ModelRelationship</title>
<g id="a_node1"><a xlink:href="javascript:Action.selectClass(&quot;ModelRelationship&quot;);" xlink:title="class ModelRelationship&#10;This example refers to Figures 4 and 5 of &#39;The Dagstuhl Middle Metamodel:&#13;A Schema for Reverse Engineering&#39;, ATEM 2003, First International&#13;Workshop on Meta&#45;Models and Schemas for Reverse Engineering,&#13;WCRE, Victoria, B.C., in Electronic Notes in Theoretical Computer&#13;Science, Elsevier, Vol. 94, pp 7&#45;18,&#13;Authors: Lethbridge, T.C., Sander Tichelaar, and Erhard Ploedereder (2003)&#13;To load the entire DMM example at once, copy and paste all&#13;five DMM components (DMM*) into the editor. &#160;Please note that the&#13;position attributes of classes and associations will need to be&#13;re&#45;adjusted, as the example has been made to display the diagrams&#13;as separate entities.&#13;This is a UML class diagram written in Umple&#13;">
<text text-anchor="start" x="551.5" y="-233.3" font-family="Times,serif" font-size="14.00"> &#160;&#160;&#160;ModelRelationship &#160;&#160;&#160;</text>
<polygon fill="none" stroke="black" points="540.5,-219 540.5,-256 698.5,-256 698.5,-219 540.5,-219"/>
</a>
</g>
</g>
<!-- SourceRelationship -->
<g id="node2" class="node">
<title>SourceRelationship</title>
<g id="a_node2"><a xlink:href="javascript:Action.selectClass(&quot;SourceRelationship&quot;);" xlink:title="class SourceRelationship&#10;">
<text text-anchor="start" x="1440.5" y="-87.3" font-family="Times,serif" font-size="14.00"> &#160;&#160;&#160;SourceRelationship &#160;&#160;&#160;</text>
<polygon fill="none" stroke="black" points="1429.5,-73 1429.5,-110 1589.5,-110 1589.5,-73 1429.5,-73"/>
</a>
</g>
</g>
<!-- SourceModelRelationship -->
<g id="node3" class="node">
<title>SourceModelRelationship</title>
<g id="a_node3"><a xlink:href="javascript:Action.selectClass(&quot;SourceModelRelationship&quot;);" xlink:title="class SourceModelRelationship&#10;">
<text text-anchor="start" x="1771.5" y="-87.3" font-family="Times,serif" font-size="14.00"> &#160;&#160;&#160;SourceModelRelationship &#160;&#160;&#160;</text>
<polygon fill="none" stroke="black" points="1760,-73 1760,-110 1957,-110 1957,-73 1760,-73"/>
</a>
</g>
</g>
<!-- IsExpansionOf -->
<g id="node4" class="node">
<title>IsExpansionOf</title>
<g id="a_node4"><a xlink:href="javascript:Action.selectClass(&quot;IsExpansionOf&quot;);" xlink:title="class IsExpansionOf&#10;">
<text text-anchor="start" x="1255.5" y="-14.3" font-family="Times,serif" font-size="14.00"> &#160;&#160;&#160;IsExpansionOf &#160;&#160;&#160;</text>
<polygon fill="none" stroke="black" points="1244.5,0 1244.5,-37 1378.5,-37 1378.5,0 1244.5,0"/>
</a>
</g>
</g>
<!-- IsExpansionOf&#45;&gt;SourceRelationship -->
<g id="edge1" class="edge">
<title>IsExpansionOf&#45;&gt;SourceRelationship</title>
<path fill="none" stroke="black" d="M1378.26,-37.03C1422.94,-48.77 1477.46,-63.09 1499.52,-68.88"/>
<polygon fill="none" stroke="black" points="1498.94,-72.35 1509.5,-71.5 1500.72,-65.57 1498.94,-72.35"/>
</g>
<!-- Describes -->
<g id="node5" class="node">
<title>Describes</title>
<g id="a_node5"><a xlink:href="javascript:Action.selectClass(&quot;Describes&quot;);" xlink:title="class Describes&#10;">
<text text-anchor="start" x="1407.5" y="-14.3" font-family="Times,serif" font-size="14.00"> &#160;&#160;&#160;Describes &#160;&#160;&#160;</text>
<polygon fill="none" stroke="black" points="1396.5,0 1396.5,-37 1502.5,-37 1502.5,0 1396.5,0"/>
</a>
</g>
</g>
<!-- Describes&#45;&gt;SourceRelationship -->
<g id="edge2" class="edge">
<title>Describes&#45;&gt;SourceRelationship</title>
<path fill="none" stroke="black" d="M1469.81,-37.1C1480.83,-46.65 1493.8,-57.89 1501.83,-64.85"/>
<polygon fill="none" stroke="black" points="1499.65,-67.6 1509.5,-71.5 1504.24,-62.31 1499.65,-67.6"/>
</g>
<!-- Includes -->
<g id="node6" class="node">
<title>Includes</title>
<g id="a_node6"><a xlink:href="javascript:Action.selectClass(&quot;Includes&quot;);" xlink:title="class Includes&#10;">
<text text-anchor="start" x="1531.5" y="-14.3" font-family="Times,serif" font-size="14.00"> &#160;&#160;&#160;Includes &#160;&#160;&#160;</text>
<polygon fill="none" stroke="black" points="1520.5,0 1520.5,-37 1618.5,-37 1618.5,0 1520.5,0"/>
</a>
</g>
</g>
<!-- Includes&#45;&gt;SourceRelationship -->
<g id="edge3" class="edge">
<title>Includes&#45;&gt;SourceRelationship</title>
<path fill="none" stroke="black" d="M1549.19,-37.1C1538.17,-46.65 1525.2,-57.89 1517.17,-64.85"/>
<polygon fill="none" stroke="black" points="1514.76,-62.31 1509.5,-71.5 1519.35,-67.6 1514.76,-62.31"/>
</g>
<!-- Contains -->
<g id="node7" class="node">
<title>Contains</title>
<g id="a_node7"><a xlink:href="javascript:Action.selectClass(&quot;Contains&quot;);" xlink:title="class Contains&#10;">
<text text-anchor="start" x="1647.5" y="-14.3" font-family="Times,serif" font-size="14.00"> &#160;&#160;&#160;Contains &#160;&#160;&#160;</text>
<polygon fill="none" stroke="black" points="1636.5,0 1636.5,-37 1736.5,-37 1736.5,0 1636.5,0"/>
</a>
</g>
</g>
<!-- Contains&#45;&gt;SourceRelationship -->
<g id="edge4" class="edge">
<title>Contains&#45;&gt;SourceRelationship</title>
<path fill="none" stroke="black" d="M1636.29,-34.41C1633.32,-35.29 1630.37,-36.15 1627.5,-37 1587.37,-48.82 1539.52,-62.76 1519.29,-68.65"/>
<polygon fill="none" stroke="black" points="1518.12,-65.35 1509.5,-71.5 1520.08,-72.07 1518.12,-65.35"/>
</g>
<!-- Defines -->
<g id="node8" class="node">
<title>Defines</title>
<g id="a_node8"><a xlink:href="javascript:Action.selectClass(&quot;Defines&quot;);" xlink:title="class Defines&#10;">
<text text-anchor="start" x="1766.5" y="-14.3" font-family="Times,serif" font-size="14.00"> &#160;&#160;&#160;Defines &#160;&#160;&#160;</text>
<polygon fill="none" stroke="black" points="1755,0 1755,-37 1848,-37 1848,0 1755,0"/>
</a>
</g>
</g>
<!-- Defines&#45;&gt;SourceModelRelationship -->
<g id="edge5" class="edge">
<title>Defines&#45;&gt;SourceModelRelationship</title>
<path fill="none" stroke="black" d="M1820.8,-37.1C1831.13,-46.53 1843.28,-57.61 1850.93,-64.59"/>
<polygon fill="none" stroke="black" points="1848.75,-67.35 1858.5,-71.5 1853.47,-62.17 1848.75,-67.35"/>
</g>
<!-- Declares -->
<g id="node9" class="node">
<title>Declares</title>
<g id="a_node9"><a xlink:href="javascript:Action.selectClass(&quot;Declares&quot;);" xlink:title="class Declares&#10;">
<text text-anchor="start" x="1877.5" y="-14.3" font-family="Times,serif" font-size="14.00"> &#160;&#160;&#160;Declares &#160;&#160;&#160;</text>
<polygon fill="none" stroke="black" points="1866,0 1866,-37 1965,-37 1965,0 1866,0"/>
</a>
</g>
</g>
<!-- Declares&#45;&gt;SourceModelRelationship -->
<g id="edge6" class="edge">
<title>Declares&#45;&gt;SourceModelRelationship</title>
<path fill="none" stroke="black" d="M1896.2,-37.1C1885.87,-46.53 1873.72,-57.61 1866.07,-64.59"/>
<polygon fill="none" stroke="black" points="1863.53,-62.17 1858.5,-71.5 1868.25,-67.35 1863.53,-62.17"/>
</g>
<!-- InheritsFrom -->
<g id="node10" class="node">
<title>InheritsFrom</title>
<g id="a_node10"><a xlink:href="javascript:Action.selectClass(&quot;InheritsFrom&quot;);" xlink:title="class InheritsFrom&#10;">
<text text-anchor="start" x="147.5" y="-160.3" font-family="Times,serif" font-size="14.00"> &#160;&#160;&#160;InheritsFrom &#160;&#160;&#160;</text>
<polygon fill="none" stroke="black" points="136.5,-146 136.5,-183 260.5,-183 260.5,-146 136.5,-146"/>
</a>
</g>
</g>
<!-- InheritsFrom&#45;&gt;ModelRelationship -->
<g id="edge7" class="edge">
<title>InheritsFrom&#45;&gt;ModelRelationship</title>
<path fill="none" stroke="black" d="M260.73,-181.37C263.69,-181.96 266.62,-182.51 269.5,-183 402.8,-205.88 567.45,-214.99 609.41,-217.04"/>
<polygon fill="none" stroke="black" points="609.35,-220.54 619.5,-217.5 609.67,-213.54 609.35,-220.54"/>
</g>
<!-- IsPartOf -->
<g id="node11" class="node">
<title>IsPartOf</title>
<g id="a_node11"><a xlink:href="javascript:Action.selectClass(&quot;IsPartOf&quot;);" xlink:title="class IsPartOf&#10;">
<text text-anchor="start" x="289.5" y="-160.3" font-family="Times,serif" font-size="14.00"> &#160;&#160;&#160;IsPartOf &#160;&#160;&#160;</text>
<polygon fill="none" stroke="black" points="278.5,-146 278.5,-183 376.5,-183 376.5,-146 278.5,-146"/>
</a>
</g>
</g>
<!-- IsPartOf&#45;&gt;ModelRelationship -->
<g id="edge8" class="edge">
<title>IsPartOf&#45;&gt;ModelRelationship</title>
<path fill="none" stroke="black" d="M376.73,-180.89C379.69,-181.65 382.63,-182.36 385.5,-183 470.86,-202.06 576.17,-213.29 609.14,-216.52"/>
<polygon fill="none" stroke="black" points="609.21,-220.04 619.5,-217.5 609.87,-213.07 609.21,-220.04"/>
</g>
<!-- Invokes -->
<g id="node12" class="node">
<title>Invokes</title>
<g id="a_node12"><a xlink:href="javascript:Action.selectClass(&quot;Invokes&quot;);" xlink:title="class Invokes&#10;">
<text text-anchor="start" x="406.5" y="-160.3" font-family="Times,serif" font-size="14.00"> &#160;&#160;&#160;Invokes &#160;&#160;&#160;</text>
<polygon fill="none" stroke="black" points="395,-146 395,-183 490,-183 490,-146 395,-146"/>
</a>
</g>
</g>
<!-- Invokes&#45;&gt;ModelRelationship -->
<g id="edge9" class="edge">
<title>Invokes&#45;&gt;ModelRelationship</title>
<path fill="none" stroke="black" d="M490.13,-180.47C492.96,-181.34 495.77,-182.18 498.5,-183 539.73,-195.32 589.16,-209.11 609.75,-214.81"/>
<polygon fill="none" stroke="black" points="608.93,-218.21 619.5,-217.5 610.79,-211.47 608.93,-218.21"/>
</g>
<!-- IsOfType -->
<g id="node13" class="node">
<title>IsOfType</title>
<g id="a_node13"><a xlink:href="javascript:Action.selectClass(&quot;IsOfType&quot;);" xlink:title="class IsOfType&#10;">
<text text-anchor="start" x="519.5" y="-160.3" font-family="Times,serif" font-size="14.00"> &#160;&#160;&#160;IsOfType &#160;&#160;&#160;</text>
<polygon fill="none" stroke="black" points="508,-146 508,-183 611,-183 611,-146 508,-146"/>
</a>
</g>
</g>
<!-- IsOfType&#45;&gt;ModelRelationship -->
<g id="edge10" class="edge">
<title>IsOfType&#45;&gt;ModelRelationship</title>
<path fill="none" stroke="black" d="M579.81,-183.1C590.83,-192.65 603.8,-203.89 611.83,-210.85"/>
<polygon fill="none" stroke="black" points="609.65,-213.6 619.5,-217.5 614.24,-208.31 609.65,-213.6"/>
</g>
<!-- Accesses -->
<g id="node14" class="node">
<title>Accesses</title>
<g id="a_node14"><a xlink:href="javascript:Action.selectClass(&quot;Accesses&quot;);" xlink:title="class Accesses&#10;">
<text text-anchor="start" x="640.5" y="-160.3" font-family="Times,serif" font-size="14.00"> &#160;&#160;&#160;Accesses &#160;&#160;&#160;</text>
<polygon fill="none" stroke="black" points="629,-146 629,-183 730,-183 730,-146 629,-146"/>
</a>
</g>
</g>
<!-- Accesses&#45;&gt;ModelRelationship -->
<g id="edge11" class="edge">
<title>Accesses&#45;&gt;ModelRelationship</title>
<path fill="none" stroke="black" d="M659.19,-183.1C648.17,-192.65 635.2,-203.89 627.17,-210.85"/>
<polygon fill="none" stroke="black" points="624.76,-208.31 619.5,-217.5 629.35,-213.6 624.76,-208.31"/>
</g>
<!-- IsDefinedInTermsOf -->
<g id="node15" class="node">
<title>IsDefinedInTermsOf</title>
<g id="a_node15"><a xlink:href="javascript:Action.selectClass(&quot;IsDefinedInTermsOf&quot;);" xlink:title="class IsDefinedInTermsOf&#10;">
<text text-anchor="start" x="759.5" y="-160.3" font-family="Times,serif" font-size="14.00"> &#160;&#160;&#160;IsDefinedInTermsOf &#160;&#160;&#160;</text>
<polygon fill="none" stroke="black" points="748.5,-146 748.5,-183 914.5,-183 914.5,-146 748.5,-146"/>
</a>
</g>
</g>
<!-- IsDefinedInTermsOf&#45;&gt;ModelRelationship -->
<g id="edge12" class="edge">
<title>IsDefinedInTermsOf&#45;&gt;ModelRelationship</title>
<path fill="none" stroke="black" d="M760.02,-183.03C711.7,-194.89 652.63,-209.37 629.48,-215.05"/>
<polygon fill="none" stroke="black" points="628.38,-211.72 619.5,-217.5 630.05,-218.52 628.38,-211.72"/>
</g>
<!-- IsPartOfSignatureOf -->
<g id="node16" class="node">
<title>IsPartOfSignatureOf</title>
<g id="a_node16"><a xlink:href="javascript:Action.selectClass(&quot;IsPartOfSignatureOf&quot;);" xlink:title="class IsPartOfSignatureOf&#10;">
<text text-anchor="start" x="943.5" y="-160.3" font-family="Times,serif" font-size="14.00"> &#160;&#160;&#160;IsPartOfSignatureOf &#160;&#160;&#160;</text>
<polygon fill="none" stroke="black" points="932.5,-146 932.5,-183 1098.5,-183 1098.5,-146 932.5,-146"/>
</a>
</g>
</g>
<!-- IsPartOfSignatureOf&#45;&gt;ModelRelationship -->
<g id="edge13" class="edge">
<title>IsPartOfSignatureOf&#45;&gt;ModelRelationship</title>
<path fill="none" stroke="black" d="M932.3,-181.61C929.33,-182.1 926.39,-182.56 923.5,-183 808.49,-200.44 667.78,-213.29 629.51,-216.64"/>
<polygon fill="none" stroke="black" points="629.16,-213.16 619.5,-217.5 629.76,-220.13 629.16,-213.16"/>
</g>
<!-- IsActualParameterOf -->
<g id="node17" class="node">
<title>IsActualParameterOf</title>
<g id="a_node17"><a xlink:href="javascript:Action.selectClass(&quot;IsActualParameterOf&quot;);" xlink:title="class IsActualParameterOf&#10;">
<text text-anchor="start" x="1128.5" y="-160.3" font-family="Times,serif" font-size="14.00"> &#160;&#160;&#160;IsActualParameterOf &#160;&#160;&#160;</text>
<polygon fill="none" stroke="black" points="1117,-146 1117,-183 1286,-183 1286,-146 1117,-146"/>
</a>
</g>
</g>
<!-- IsActualParameterOf&#45;&gt;ModelRelationship -->
<g id="edge14" class="edge">
<title>IsActualParameterOf&#45;&gt;ModelRelationship</title>
<path fill="none" stroke="black" d="M1116.77,-181.73C1113.64,-182.19 1110.55,-182.61 1107.5,-183 916.26,-207.48 680.47,-215.67 629.51,-217.21"/>
<polygon fill="none" stroke="black" points="629.4,-213.72 619.5,-217.5 629.6,-220.71 629.4,-213.72"/>
</g>
<!-- IsEnumerationLiteralOf -->
<g id="node18" class="node">
<title>IsEnumerationLiteralOf</title>
<g id="a_node18"><a xlink:href="javascript:Action.selectClass(&quot;IsEnumerationLiteralOf&quot;);" xlink:title="class IsEnumerationLiteralOf&#10;">
<text text-anchor="start" x="11.5" y="-87.3" font-family="Times,serif" font-size="14.00"> &#160;&#160;&#160;IsEnumerationLiteralOf &#160;&#160;&#160;</text>
<polygon fill="none" stroke="black" points="0,-73 0,-110 185,-110 185,-73 0,-73"/>
</a>
</g>
</g>
<!-- IsEnumerationLiteralOf&#45;&gt;IsPartOf -->
<g id="edge15" class="edge">
<title>IsEnumerationLiteralOf&#45;&gt;IsPartOf</title>
<path fill="none" stroke="black" d="M168.36,-110.03C220.16,-122 283.59,-136.66 307.63,-142.22"/>
<polygon fill="none" stroke="black" points="306.97,-145.66 317.5,-144.5 308.54,-138.84 306.97,-145.66"/>
</g>
<!-- IsMethodOf -->
<g id="node19" class="node">
<title>IsMethodOf</title>
<g id="a_node19"><a xlink:href="javascript:Action.selectClass(&quot;IsMethodOf&quot;);" xlink:title="class IsMethodOf&#10;">
<text text-anchor="start" x="214.5" y="-87.3" font-family="Times,serif" font-size="14.00"> &#160;&#160;&#160;IsMethodOf &#160;&#160;&#160;</text>
<polygon fill="none" stroke="black" points="203,-73 203,-110 322,-110 322,-73 203,-73"/>
</a>
</g>
</g>
<!-- IsMethodOf&#45;&gt;IsPartOf -->
<g id="edge16" class="edge">
<title>IsMethodOf&#45;&gt;IsPartOf</title>
<path fill="none" stroke="black" d="M281.12,-110.1C291.09,-119.53 302.81,-130.61 310.2,-137.59"/>
<polygon fill="none" stroke="black" points="307.83,-140.17 317.5,-144.5 312.64,-135.09 307.83,-140.17"/>
</g>
<!-- IsFieldOf -->
<g id="node20" class="node">
<title>IsFieldOf</title>
<g id="a_node20"><a xlink:href="javascript:Action.selectClass(&quot;IsFieldOf&quot;);" xlink:title="class IsFieldOf&#10;">
<text text-anchor="start" x="351.5" y="-87.3" font-family="Times,serif" font-size="14.00"> &#160;&#160;&#160;IsFieldOf &#160;&#160;&#160;</text>
<polygon fill="none" stroke="black" points="340.5,-73 340.5,-110 444.5,-110 444.5,-73 340.5,-73"/>
</a>
</g>
</g>
<!-- IsFieldOf&#45;&gt;IsPartOf -->
<g id="edge17" class="edge">
<title>IsFieldOf&#45;&gt;IsPartOf</title>
<path fill="none" stroke="black" d="M367.11,-110.1C352.83,-120 335.93,-131.72 325.99,-138.61"/>
<polygon fill="none" stroke="black" points="323.72,-135.93 317.5,-144.5 327.71,-141.68 323.72,-135.93"/>
</g>
<!-- IsParameterOf -->
<g id="node21" class="node">
<title>IsParameterOf</title>
<g id="a_node21"><a xlink:href="javascript:Action.selectClass(&quot;IsParameterOf&quot;);" xlink:title="class IsParameterOf&#10;">
<text text-anchor="start" x="960.5" y="-87.3" font-family="Times,serif" font-size="14.00"> &#160;&#160;&#160;IsParameterOf &#160;&#160;&#160;</text>
<polygon fill="none" stroke="black" points="949.5,-73 949.5,-110 1081.5,-110 1081.5,-73 949.5,-73"/>
</a>
</g>
</g>
<!-- IsParameterOf&#45;&gt;IsPartOfSignatureOf -->
<g id="edge18" class="edge">
<title>IsParameterOf&#45;&gt;IsPartOfSignatureOf</title>
<path fill="none" stroke="black" d="M1019.56,-110.1C1021.44,-118.24 1023.6,-127.6 1025.19,-134.5"/>
<polygon fill="none" stroke="black" points="1021.84,-135.54 1027.5,-144.5 1028.66,-133.97 1021.84,-135.54"/>
</g>
<!-- IsReturnTypeOf -->
<g id="node22" class="node">
<title>IsReturnTypeOf</title>
<g id="a_node22"><a xlink:href="javascript:Action.selectClass(&quot;IsReturnTypeOf&quot;);" xlink:title="class IsReturnTypeOf&#10;">
<text text-anchor="start" x="1111.5" y="-87.3" font-family="Times,serif" font-size="14.00"> &#160;&#160;&#160;IsReturnTypeOf &#160;&#160;&#160;</text>
<polygon fill="none" stroke="black" points="1100,-73 1100,-110 1241,-110 1241,-73 1100,-73"/>
</a>
</g>
</g>
<!-- IsReturnTypeOf&#45;&gt;IsPartOfSignatureOf -->
<g id="edge19" class="edge">
<title>IsReturnTypeOf&#45;&gt;IsPartOfSignatureOf</title>
<path fill="none" stroke="black" d="M1122.09,-110.1C1091.3,-121.3 1054.11,-134.82 1036.98,-141.05"/>
<polygon fill="none" stroke="black" points="1035.7,-137.79 1027.5,-144.5 1038.09,-144.37 1035.7,-137.79"/>
</g>
<!-- Sets -->
<g id="node23" class="node">
<title>Sets</title>
<g id="a_node23"><a xlink:href="javascript:Action.selectClass(&quot;Sets&quot;);" xlink:title="class Sets&#10;">
<text text-anchor="start" x="473.5" y="-87.3" font-family="Times,serif" font-size="14.00"> &#160;&#160;&#160;Sets &#160;&#160;&#160;</text>
<polygon fill="none" stroke="black" points="462.5,-73 462.5,-110 536.5,-110 536.5,-73 462.5,-73"/>
</a>
</g>
</g>
<!-- Sets&#45;&gt;Accesses -->
<g id="edge20" class="edge">
<title>Sets&#45;&gt;Accesses</title>
<path fill="none" stroke="black" d="M536.8,-103.27C579.02,-115.47 645.13,-134.57 669.79,-141.7"/>
<polygon fill="none" stroke="black" points="668.92,-145.09 679.5,-144.5 670.86,-138.36 668.92,-145.09"/>
</g>
<!-- Uses -->
<g id="node24" class="node">
<title>Uses</title>
<g id="a_node24"><a xlink:href="javascript:Action.selectClass(&quot;Uses&quot;);" xlink:title="class Uses&#10;">
<text text-anchor="start" x="651.5" y="-87.3" font-family="Times,serif" font-size="14.00"> &#160;&#160;&#160;Uses &#160;&#160;&#160;</text>
<polygon fill="none" stroke="black" points="640.5,-73 640.5,-110 718.5,-110 718.5,-73 640.5,-73"/>
</a>
</g>
</g>
<!-- Uses&#45;&gt;Accesses -->
<g id="edge21" class="edge">
<title>Uses&#45;&gt;Accesses</title>
<path fill="none" stroke="black" d="M679.5,-110.1C679.5,-118.24 679.5,-127.6 679.5,-134.5"/>
<polygon fill="none" stroke="black" points="676,-134.5 679.5,-144.5 683,-134.5 676,-134.5"/>
</g>
<!-- TakesAddressOf -->
<g id="node25" class="node">
<title>TakesAddressOf</title>
<g id="a_node25"><a xlink:href="javascript:Action.selectClass(&quot;TakesAddressOf&quot;);" xlink:title="class TakesAddressOf&#10;">
<text text-anchor="start" x="799.5" y="-87.3" font-family="Times,serif" font-size="14.00"> &#160;&#160;&#160;TakesAddressOf &#160;&#160;&#160;</text>
<polygon fill="none" stroke="black" points="788,-73 788,-110 931,-110 931,-73 788,-73"/>
</a>
</g>
</g>
<!-- TakesAddressOf&#45;&gt;Accesses -->
<g id="edge22" class="edge">
<title>TakesAddressOf&#45;&gt;Accesses</title>
<path fill="none" stroke="black" d="M798.81,-110.03C758.6,-121.65 709.62,-135.8 689.18,-141.7"/>
<polygon fill="none" stroke="black" points="688.14,-138.36 679.5,-144.5 690.08,-145.09 688.14,-138.36"/>
</g>
<!-- SetsComponent -->
<g id="node26" class="node">
<title>SetsComponent</title>
<g id="a_node26"><a xlink:href="javascript:Action.selectClass(&quot;SetsComponent&quot;);" xlink:title="class SetsComponent&#10;">
<text text-anchor="start" x="249.5" y="-14.3" font-family="Times,serif" font-size="14.00"> &#160;&#160;&#160;SetsComponent &#160;&#160;&#160;</text>
<polygon fill="none" stroke="black" points="238,0 238,-37 377,-37 377,0 238,0"/>
</a>
</g>
</g>
<!-- SetsComponent&#45;&gt;Sets -->
<g id="edge23" class="edge">
<title>SetsComponent&#45;&gt;Sets</title>
<path fill="none" stroke="black" d="M364.38,-37.1C401.5,-48.6 446.54,-62.54 465.9,-68.53"/>
<polygon fill="none" stroke="black" points="464.91,-71.89 475.5,-71.5 466.98,-65.2 464.91,-71.89"/>
</g>
<!-- SetsObject -->
<g id="node27" class="node">
<title>SetsObject</title>
<g id="a_node27"><a xlink:href="javascript:Action.selectClass(&quot;SetsObject&quot;);" xlink:title="class SetsObject&#10;">
<text text-anchor="start" x="406.5" y="-14.3" font-family="Times,serif" font-size="14.00"> &#160;&#160;&#160;SetsObject &#160;&#160;&#160;</text>
<polygon fill="none" stroke="black" points="395,0 395,-37 506,-37 506,0 395,0"/>
</a>
</g>
</g>
<!-- SetsObject&#45;&gt;Sets -->
<g id="edge24" class="edge">
<title>SetsObject&#45;&gt;Sets</title>
<path fill="none" stroke="black" d="M458.96,-37.1C463.04,-45.59 467.77,-55.41 471.12,-62.38"/>
<polygon fill="none" stroke="black" points="468.01,-64 475.5,-71.5 474.32,-60.97 468.01,-64"/>
</g>
<!-- UsesObject -->
<g id="node28" class="node">
<title>UsesObject</title>
<g id="a_node28"><a xlink:href="javascript:Action.selectClass(&quot;UsesObject&quot;);" xlink:title="class UsesObject&#10;">
<text text-anchor="start" x="535.5" y="-14.3" font-family="Times,serif" font-size="14.00"> &#160;&#160;&#160;UsesObject &#160;&#160;&#160;</text>
<polygon fill="none" stroke="black" points="524,0 524,-37 639,-37 639,0 524,0"/>
</a>
</g>
</g>
<!-- UsesObject&#45;&gt;Uses -->
<g id="edge25" class="edge">
<title>UsesObject&#45;&gt;Uses</title>
<path fill="none" stroke="black" d="M613.66,-37.1C632.61,-47.48 655.21,-59.84 667.48,-66.56"/>
<polygon fill="none" stroke="black" points="666.05,-69.77 676.5,-71.5 669.41,-63.63 666.05,-69.77"/>
</g>
<!-- UsesComponent -->
<g id="node29" class="node">
<title>UsesComponent</title>
<g id="a_node29"><a xlink:href="javascript:Action.selectClass(&quot;UsesComponent&quot;);" xlink:title="class UsesComponent&#10;">
<text text-anchor="start" x="668.5" y="-14.3" font-family="Times,serif" font-size="14.00"> &#160;&#160;&#160;UsesComponent &#160;&#160;&#160;</text>
<polygon fill="none" stroke="black" points="657,0 657,-37 800,-37 800,0 657,0"/>
</a>
</g>
</g>
<!-- UsesComponent&#45;&gt;Uses -->
<g id="edge26" class="edge">
<title>UsesComponent&#45;&gt;Uses</title>
<path fill="none" stroke="black" d="M710.9,-37.1C701.58,-46.42 690.66,-57.34 683.67,-64.33"/>
<polygon fill="none" stroke="black" points="681.1,-61.95 676.5,-71.5 686.05,-66.9 681.1,-61.95"/>
</g>
<!-- TakesAddressOfObject -->
<g id="node30" class="node">
<title>TakesAddressOfObject</title>
<g id="a_node30"><a xlink:href="javascript:Action.selectClass(&quot;TakesAddressOfObject&quot;);" xlink:title="class TakesAddressOfObject&#10;">
<text text-anchor="start" x="829.5" y="-14.3" font-family="Times,serif" font-size="14.00"> &#160;&#160;&#160;TakesAddressOfObject &#160;&#160;&#160;</text>
<polygon fill="none" stroke="black" points="818,0 818,-37 999,-37 999,0 818,0"/>
</a>
</g>
</g>
<!-- TakesAddressOfObject&#45;&gt;TakesAddressOf -->
<g id="edge27" class="edge">
<title>TakesAddressOfObject&#45;&gt;TakesAddressOf</title>
<path fill="none" stroke="black" d="M900.71,-37.1C897.01,-45.47 892.74,-55.14 889.66,-62.09"/>
<polygon fill="none" stroke="black" points="886.34,-60.94 885.5,-71.5 892.75,-63.77 886.34,-60.94"/>
</g>
<!-- TakesAddressOfComponent -->
<g id="node31" class="node">
<title>TakesAddressOfComponent</title>
<g id="a_node31"><a xlink:href="javascript:Action.selectClass(&quot;TakesAddressOfComponent&quot;);" xlink:title="class TakesAddressOfComponent&#10;Postioning&#13;Postioning&#13;">
<text text-anchor="start" x="1028.5" y="-14.3" font-family="Times,serif" font-size="14.00"> &#160;&#160;&#160;TakesAddressOfComponent &#160;&#160;&#160;</text>
<polygon fill="none" stroke="black" points="1017,0 1017,-37 1226,-37 1226,0 1017,0"/>
</a>
</g>
</g>
<!-- TakesAddressOfComponent&#45;&gt;TakesAddressOf -->
<g id="edge28" class="edge">
<title>TakesAddressOfComponent&#45;&gt;TakesAddressOf</title>
<path fill="none" stroke="black" d="M1041.93,-37.03C987.33,-49.06 920.42,-63.81 895.48,-69.3"/>
<polygon fill="none" stroke="black" points="894.51,-65.93 885.5,-71.5 896.02,-72.77 894.51,-65.93"/>
</g>
</g>
</svg>
