<?xml version="1.0" encoding="UTF-8" standalone="no"?>
<!DOCTYPE svg PUBLIC "-//W3C//DTD SVG 1.1//EN"
 "http://www.w3.org/Graphics/SVG/1.1/DTD/svg11.dtd">
<!-- Generated by graphviz version 2.40.1 (20161225.0304)
 -->
<!-- Title: GeographicalInformationSystem Pages: 1 -->
<svg width="563pt" height="422pt"
 viewBox="0.00 0.00 563.00 422.00" xmlns="http://www.w3.org/2000/svg" xmlns:xlink="http://www.w3.org/1999/xlink">
<g id="graph0" class="graph" transform="scale(1 1) rotate(0) translate(4 418)">
<title>GeographicalInformationSystem</title>
<polygon fill="#ffffff" stroke="transparent" points="-4,4 -4,-418 559,-418 559,4 -4,4"/>
<!-- Map -->
<g id="node1" class="node">
<title>Map</title>
<g id="a_node1"><a xlink:href="javascript:Action.selectClass(&quot;Map&quot;);" xlink:title="class Map&#10;Positioning&#13;">
<text text-anchor="start" x="32.1689" y="-319.8" font-family="Times,serif" font-size="14.00" fill="#000000"> &#160;&#160;&#160;Map &#160;&#160;&#160;</text>
<g id="a_node1_0"><a xlink:href="javascript:Action.selectClass(&quot;Map&quot;);" xlink:title="String scale&#13;">
<text text-anchor="start" x="3" y="-299.8" font-family="Times,serif" font-size="14.00" fill="#000000"> &#160;scale : String &#160;</text>
</a>
</g>
<g id="a_node1_1"><a xlink:href="javascript:Action.selectClass(&quot;Map&quot;);" xlink:title="String name&#13;">
<text text-anchor="start" x="3" y="-281.8" font-family="Times,serif" font-size="14.00" fill="#000000"> &#160;name : String &#160;</text>
</a>
</g>
<g id="a_node1_2"><a xlink:href="javascript:Action.selectClass(&quot;Map&quot;);" xlink:title="String lattitude&#13;">
<text text-anchor="start" x="3" y="-263.8" font-family="Times,serif" font-size="14.00" fill="#000000"> &#160;lattitude : String &#160;</text>
</a>
</g>
<g id="a_node1_3"><a xlink:href="javascript:Action.selectClass(&quot;Map&quot;);" xlink:title="String longitude&#13;">
<text text-anchor="start" x="3" y="-245.8" font-family="Times,serif" font-size="14.00" fill="#000000"> &#160;longitude : String &#160;</text>
</a>
</g>
<g id="a_node1_4"><a xlink:href="javascript:Action.selectClass(&quot;Map&quot;);" xlink:title="String height&#13;">
<text text-anchor="start" x="3" y="-227.8" font-family="Times,serif" font-size="14.00" fill="#000000"> &#160;height : String &#160;</text>
</a>
</g>
<g id="a_node1_5"><a xlink:href="javascript:Action.selectClass(&quot;Map&quot;);" xlink:title="String width&#13;">
<text text-anchor="start" x="3" y="-209.8" font-family="Times,serif" font-size="14.00" fill="#000000"> &#160;width : String &#160;</text>
</a>
</g>
<polygon fill="#000000" stroke="#000000" points="0,-313 0,-313 118,-313 118,-313 0,-313"/>
<polygon fill="none" stroke="#000000" points="0,-204 0,-336 118,-336 118,-204 0,-204"/>
</a>
</g>
</g>
<!-- Feature -->
<g id="node2" class="node">
<title>Feature</title>
<g id="a_node2"><a xlink:href="javascript:Action.selectClass(&quot;Feature&quot;);" xlink:title="class Feature&#10;">
<text text-anchor="start" x="245.5103" y="-397.8" font-family="Times,serif" font-size="14.00" fill="#000000"> &#160;&#160;&#160;Feature &#160;&#160;&#160;</text>
<g id="a_node2_6"><a xlink:href="javascript:Action.selectClass(&quot;Feature&quot;);" xlink:title="String name&#13;">
<text text-anchor="start" x="235.7827" y="-377.8" font-family="Times,serif" font-size="14.00" fill="#000000"> &#160;name : String &#160;</text>
</a>
</g>
<polygon fill="#000000" stroke="#000000" points="233,-391 233,-391 328,-391 328,-391 233,-391"/>
<polygon fill="none" stroke="#000000" points="232.5,-372 232.5,-414 327.5,-414 327.5,-372 232.5,-372"/>
</a>
</g>
</g>
<!-- Map&#45;&gt;Feature -->
<g id="edge7" class="edge">
<title>Map&#45;&gt;Feature</title>
<g id="a_edge7"><a xlink:title="Map 1 &#160;&#45;&#45; * &#160;Feature">
<path fill="none" stroke="#000000" d="M118.3189,-330.0749C121.1803,-332.1675 124.0793,-334.1544 127,-336 159.7091,-356.6689 201.0358,-371.5018 232.4908,-380.8459"/>
</a>
</g>
<text text-anchor="middle" x="227.2408" y="-369.6459" font-family="Times,serif" font-size="14.00" fill="#000000">* </text>
<text text-anchor="middle" x="123.5689" y="-318.8749" font-family="Times,serif" font-size="14.00" fill="#000000">1 </text>
</g>
<!-- PointFeature -->
<g id="node3" class="node">
<title>PointFeature</title>
<g id="a_node3"><a xlink:href="javascript:Action.selectClass(&quot;PointFeature&quot;);" xlink:title="class PointFeature&#10;">
<text text-anchor="start" x="292.7275" y="-265.8" font-family="Times,serif" font-size="14.00" fill="#000000"> &#160;&#160;&#160;PointFeature &#160;&#160;&#160;</text>
<polygon fill="none" stroke="#000000" points="281.5,-252 281.5,-288 402.5,-288 402.5,-252 281.5,-252"/>
</a>
</g>
</g>
<!-- PointFeature&#45;&gt;Feature -->
<g id="edge1" class="edge">
<title>PointFeature&#45;&gt;Feature</title>
<path fill="none" stroke="#000000" d="M334.4912,-288.2356C325.5251,-310.0105 310.8688,-345.6042 303.9077,-362.51"/>
<polygon fill="none" stroke="#000000" points="300.5712,-361.4206 300,-372 307.0439,-364.0859 300.5712,-361.4206"/>
</g>
<!-- Point -->
<g id="node4" class="node">
<title>Point</title>
<g id="a_node4"><a xlink:href="javascript:Action.selectClass(&quot;Point&quot;);" xlink:title="class Point&#10;">
<text text-anchor="start" x="374.7173" y="-388.8" font-family="Times,serif" font-size="14.00" fill="#000000"> &#160;&#160;&#160;Point &#160;&#160;&#160;</text>
<polygon fill="none" stroke="#000000" points="363.5,-375 363.5,-411 442.5,-411 442.5,-375 363.5,-375"/>
</a>
</g>
</g>
<!-- PointFeature&#45;&gt;Point -->
<g id="edge8" class="edge">
<title>PointFeature&#45;&gt;Point</title>
<g id="a_edge8"><a xlink:title="PointFeature * &#160;&#45;&gt; 1 &#160;Point">
<path fill="none" stroke="#000000" d="M351.0008,-288.1491C361.1372,-308.5882 377.7197,-342.025 389.4294,-365.6363"/>
<polygon fill="#000000" stroke="#000000" points="393.9623,-374.7765 385.4878,-367.817 391.7408,-370.2971 389.5193,-365.8177 389.5193,-365.8177 389.5193,-365.8177 391.7408,-370.2971 393.5507,-363.8183 393.9623,-374.7765 393.9623,-374.7765"/>
</a>
</g>
<text text-anchor="middle" x="388.7123" y="-363.5765" font-family="Times,serif" font-size="14.00" fill="#000000">1 </text>
<text text-anchor="middle" x="345.7508" y="-290.9491" font-family="Times,serif" font-size="14.00" fill="#000000">* </text>
</g>
<!-- CurveFeature -->
<g id="node5" class="node">
<title>CurveFeature</title>
<g id="a_node5"><a xlink:href="javascript:Action.selectClass(&quot;CurveFeature&quot;);" xlink:title="class CurveFeature&#10;">
<text text-anchor="start" x="431.9033" y="-265.8" font-family="Times,serif" font-size="14.00" fill="#000000"> &#160;&#160;&#160;CurveFeature &#160;&#160;&#160;</text>
<polygon fill="none" stroke="#000000" points="421,-252 421,-288 547,-288 547,-252 421,-252"/>
</a>
</g>
</g>
<!-- CurveFeature&#45;&gt;Feature -->
<g id="edge2" class="edge">
<title>CurveFeature&#45;&gt;Feature</title>
<path fill="none" stroke="#000000" d="M468.5009,-288.0021C454.9308,-302.7564 433.9913,-323.2189 412,-336 377.3894,-356.1153 330.1239,-366.5316 309.8695,-370.3093"/>
<polygon fill="none" stroke="#000000" points="309.2654,-366.8617 300,-372 310.4474,-373.7612 309.2654,-366.8617"/>
</g>
<!-- CurveFeature&#45;&gt;Point -->
<g id="edge9" class="edge">
<title>CurveFeature&#45;&gt;Point</title>
<g id="a_edge9"><a xlink:title="CurveFeature * &#160;&#45;&gt; * &#160;Point">
<path fill="none" stroke="#000000" d="M472.0482,-288.1491C458.4686,-308.7699 436.1768,-342.6205 420.6069,-366.2636"/>
<polygon fill="#000000" stroke="#000000" points="415.0009,-374.7765 416.7425,-363.9498 417.7508,-370.6006 420.5008,-366.4247 420.5008,-366.4247 420.5008,-366.4247 417.7508,-370.6006 424.2591,-368.8997 415.0009,-374.7765 415.0009,-374.7765"/>
</a>
</g>
<text text-anchor="middle" x="409.7509" y="-363.5765" font-family="Times,serif" font-size="14.00" fill="#000000">* </text>
<text text-anchor="middle" x="466.7982" y="-290.9491" font-family="Times,serif" font-size="14.00" fill="#000000">* </text>
</g>
<!-- RegionalFeature -->
<g id="node6" class="node">
<title>RegionalFeature</title>
<g id="a_node6"><a xlink:href="javascript:Action.selectClass(&quot;RegionalFeature&quot;);" xlink:title="class RegionalFeature&#10;">
<text text-anchor="start" x="423.7378" y="-115.8" font-family="Times,serif" font-size="14.00" fill="#000000"> &#160;&#160;&#160;RegionalFeature &#160;&#160;&#160;</text>
<polygon fill="none" stroke="#000000" points="413,-102 413,-138 555,-138 555,-102 413,-102"/>
</a>
</g>
</g>
<!-- RegionalFeature&#45;&gt;CurveFeature -->
<g id="edge3" class="edge">
<title>RegionalFeature&#45;&gt;CurveFeature</title>
<path fill="none" stroke="#000000" d="M484,-138.0935C484,-163.7708 484,-211.0366 484,-241.4649"/>
<polygon fill="none" stroke="#000000" points="480.5001,-241.8423 484,-251.8423 487.5001,-241.8424 480.5001,-241.8423"/>
</g>
<!-- FeatureType -->
<g id="node7" class="node">
<title>FeatureType</title>
<g id="a_node7"><a xlink:href="javascript:Action.selectClass(&quot;FeatureType&quot;);" xlink:title="class FeatureType&#10;">
<text text-anchor="start" x="151.6162" y="-274.8" font-family="Times,serif" font-size="14.00" fill="#000000"> &#160;&#160;&#160;FeatureType &#160;&#160;&#160;</text>
<g id="a_node7_7"><a xlink:href="javascript:Action.selectClass(&quot;FeatureType&quot;);" xlink:title="String description&#13;">
<text text-anchor="start" x="139.8379" y="-254.8" font-family="Times,serif" font-size="14.00" fill="#000000"> &#160;description : String &#160;</text>
</a>
</g>
<polygon fill="#000000" stroke="#000000" points="137,-268 137,-268 264,-268 264,-268 137,-268"/>
<polygon fill="none" stroke="#000000" points="136.5,-249 136.5,-291 263.5,-291 263.5,-249 136.5,-249"/>
</a>
</g>
</g>
<!-- FeatureType&#45;&gt;Feature -->
<g id="edge10" class="edge">
<title>FeatureType&#45;&gt;Feature</title>
<g id="a_edge10"><a xlink:title="FeatureType 1 &#160;&#45;&#45; * &#160;Feature">
<path fill="none" stroke="#000000" d="M213.7525,-291.1445C228.4056,-313.6736 251.4724,-349.1389 266.1592,-371.7198"/>
</a>
</g>
<text text-anchor="middle" x="260.9092" y="-360.5198" font-family="Times,serif" font-size="14.00" fill="#000000">* </text>
<text text-anchor="middle" x="208.5025" y="-293.9445" font-family="Times,serif" font-size="14.00" fill="#000000">1 </text>
</g>
<!-- PointFeatureType -->
<g id="node8" class="node">
<title>PointFeatureType</title>
<g id="a_node8"><a xlink:href="javascript:Action.selectClass(&quot;PointFeatureType&quot;);" xlink:title="class PointFeatureType&#10;">
<text text-anchor="start" x="220.8335" y="-13.8" font-family="Times,serif" font-size="14.00" fill="#000000"> &#160;&#160;&#160;PointFeatureType &#160;&#160;&#160;</text>
<polygon fill="none" stroke="#000000" points="209.5,0 209.5,-36 358.5,-36 358.5,0 209.5,0"/>
</a>
</g>
</g>
<!-- PointFeatureType&#45;&gt;FeatureType -->
<g id="edge4" class="edge">
<title>PointFeatureType&#45;&gt;FeatureType</title>
<path fill="none" stroke="#000000" d="M286.4089,-36.0057C289.5083,-65.1272 292.4051,-123.7625 273,-168 257.8947,-202.4352 221.705,-231.408 205.316,-243.2601"/>
<polygon fill="none" stroke="#000000" points="203.2418,-240.439 197,-249 207.2182,-246.2 203.2418,-240.439"/>
</g>
<!-- Bitmap -->
<g id="node10" class="node">
<title>Bitmap</title>
<g id="a_node10"><a xlink:href="javascript:Action.selectClass(&quot;Bitmap&quot;);" xlink:title="class Bitmap&#10;">
<text text-anchor="start" x="186.8896" y="-124.8" font-family="Times,serif" font-size="14.00" fill="#000000"> &#160;&#160;&#160;Bitmap &#160;&#160;&#160;</text>
<g id="a_node10_8"><a xlink:href="javascript:Action.selectClass(&quot;Bitmap&quot;);" xlink:title="String bits&#13;">
<text text-anchor="start" x="181.8276" y="-104.8" font-family="Times,serif" font-size="14.00" fill="#000000"> &#160;bits : String &#160;</text>
</a>
</g>
<polygon fill="#000000" stroke="#000000" points="179,-118 179,-118 264,-118 264,-118 179,-118"/>
<polygon fill="none" stroke="#000000" points="178.5,-99 178.5,-141 263.5,-141 263.5,-99 178.5,-99"/>
</a>
</g>
</g>
<!-- PointFeatureType&#45;&gt;Bitmap -->
<g id="edge11" class="edge">
<title>PointFeatureType&#45;&gt;Bitmap</title>
<g id="a_edge11"><a xlink:title="PointFeatureType * &#160;&#45;&gt; 1 symbol Bitmap">
<path fill="none" stroke="#000000" d="M272.7369,-36.2356C263.5143,-51.1673 250.2783,-72.5971 239.5029,-90.043"/>
<polygon fill="#000000" stroke="#000000" points="234.1266,-98.7474 235.553,-87.8747 236.7541,-94.4934 239.3816,-90.2394 239.3816,-90.2394 239.3816,-90.2394 236.7541,-94.4934 243.2102,-92.6042 234.1266,-98.7474 234.1266,-98.7474"/>
</a>
</g>
<text text-anchor="middle" x="208.2628" y="-87.5474" font-family="Times,serif" font-size="14.00" fill="#000000">1 symbol</text>
<text text-anchor="middle" x="267.4869" y="-39.0356" font-family="Times,serif" font-size="14.00" fill="#000000">* </text>
</g>
<!-- CurveFeatureType -->
<g id="node9" class="node">
<title>CurveFeatureType</title>
<g id="a_node9"><a xlink:href="javascript:Action.selectClass(&quot;CurveFeatureType&quot;);" xlink:title="class CurveFeatureType&#10;">
<text text-anchor="start" x="24.5093" y="-151.8" font-family="Times,serif" font-size="14.00" fill="#000000"> &#160;&#160;&#160;CurveFeatureType &#160;&#160;&#160;</text>
<g id="a_node9_9"><a xlink:href="javascript:Action.selectClass(&quot;CurveFeatureType&quot;);" xlink:title="String colour&#13;">
<text text-anchor="start" x="23" y="-131.8" font-family="Times,serif" font-size="14.00" fill="#000000"> &#160;colour : String &#160;</text>
</a>
</g>
<g id="a_node9_10"><a xlink:href="javascript:Action.selectClass(&quot;CurveFeatureType&quot;);" xlink:title="String thickness&#13;">
<text text-anchor="start" x="23" y="-113.8" font-family="Times,serif" font-size="14.00" fill="#000000"> &#160;thickness : String &#160;</text>
</a>
</g>
<g id="a_node9_11"><a xlink:href="javascript:Action.selectClass(&quot;CurveFeatureType&quot;);" xlink:title="String dashLength&#13;">
<text text-anchor="start" x="23" y="-95.8" font-family="Times,serif" font-size="14.00" fill="#000000"> &#160;dashLength : String &#160;</text>
</a>
</g>
<g id="a_node9_12"><a xlink:href="javascript:Action.selectClass(&quot;CurveFeatureType&quot;);" xlink:title="String gapLength&#13;">
<text text-anchor="start" x="23" y="-77.8" font-family="Times,serif" font-size="14.00" fill="#000000"> &#160;gapLength : String &#160;</text>
</a>
</g>
<polygon fill="#000000" stroke="#000000" points="20,-145 20,-145 161,-145 161,-145 20,-145"/>
<polygon fill="none" stroke="#000000" points="19.5,-72 19.5,-168 160.5,-168 160.5,-72 19.5,-72"/>
</a>
</g>
</g>
<!-- CurveFeatureType&#45;&gt;FeatureType -->
<g id="edge5" class="edge">
<title>CurveFeatureType&#45;&gt;FeatureType</title>
<path fill="none" stroke="#000000" d="M129.8429,-168.0348C152.4214,-195.2557 178.4779,-226.6696 190.4126,-241.0581"/>
<polygon fill="none" stroke="#000000" points="187.9218,-243.5376 197,-249 193.3097,-239.0686 187.9218,-243.5376"/>
</g>
<!-- RegionFeatureType -->
<g id="node11" class="node">
<title>RegionFeatureType</title>
<g id="a_node11"><a xlink:href="javascript:Action.selectClass(&quot;RegionFeatureType&quot;);" xlink:title="class RegionFeatureType&#10;">
<text text-anchor="start" x="34.8955" y="-13.8" font-family="Times,serif" font-size="14.00" fill="#000000"> &#160;&#160;&#160;RegionFeatureType &#160;&#160;&#160;</text>
<polygon fill="none" stroke="#000000" points="24,0 24,-36 184,-36 184,0 24,0"/>
</a>
</g>
</g>
<!-- RegionFeatureType&#45;&gt;CurveFeatureType -->
<g id="edge6" class="edge">
<title>RegionFeatureType&#45;&gt;CurveFeatureType</title>
<path fill="none" stroke="#000000" d="M101.4971,-36.2356C100.4921,-43.5577 99.2726,-52.4425 98.0083,-61.6538"/>
<polygon fill="none" stroke="#000000" points="94.5192,-61.3356 96.6269,-71.7187 101.4542,-62.2875 94.5192,-61.3356"/>
</g>
<!-- RegionFeatureType&#45;&gt;Bitmap -->
<g id="edge12" class="edge">
<title>RegionFeatureType&#45;&gt;Bitmap</title>
<g id="a_edge12"><a xlink:title="RegionFeatureType 1 &#160;&#45;&#45; 0..1 fillPattern Bitmap">
<path fill="none" stroke="#000000" d="M126.504,-36.2104C139.1309,-46.5488 155.0943,-59.8205 169,-72 178.8891,-80.6616 189.5958,-90.4681 198.7091,-98.9493"/>
</a>
</g>
<text text-anchor="middle" x="238.5694" y="-87.7493" font-family="Times,serif" font-size="14.00" fill="#000000">0..1 fillPattern</text>
<text text-anchor="middle" x="121.254" y="-39.0104" font-family="Times,serif" font-size="14.00" fill="#000000">1 </text>
</g>
</g>
</svg>
