<?xml version="1.0" encoding="UTF-8" standalone="no"?>
<!DOCTYPE svg PUBLIC "-//W3C//DTD SVG 1.1//EN"
 "http://www.w3.org/Graphics/SVG/1.1/DTD/svg11.dtd">
<!-- Generated by graphviz version 2.48.0 (20210717.1556)
 -->
<!-- Title: GeometricSystem Pages: 1 -->
<svg width="1596pt" height="636pt"
 viewBox="0.00 0.00 1596.00 636.00" xmlns="http://www.w3.org/2000/svg" xmlns:xlink="http://www.w3.org/1999/xlink">
<g id="graph0" class="graph" transform="scale(1 1) rotate(0) translate(4 632)">
<title>GeometricSystem</title>
<polygon fill="white" stroke="transparent" points="-4,4 -4,-632 1592,-632 1592,4 -4,4"/>
<!-- RootClass -->
<g id="node1" class="node">
<title>RootClass</title>
<g id="a_node1"><a xlink:href="javascript:Action.selectClass(&quot;RootClass&quot;);" xlink:title="class RootClass&#10;In order to see the class diagram with traits, please select option &quot;GraphViz Class&quot; in the menu &quot;OPTIONS&quot; and then checkout traits in the section &quot;SHOW VIEW&quot;.&#13;developed by Vahdat Abdelzad, in August 2015.&#13;A root class for all elements (classes) in the system.&#13;">
<text text-anchor="start" x="666" y="-611.3" font-family="Times,serif" font-size="14.00"> &#160;&#160;&#160;RootClass &#160;&#160;&#160;</text>
<text text-anchor="start" x="680" y="-588.3" font-family="Times,serif" font-size="14.00">«abstract»</text>
<g id="a_node1_0"><a xlink:href="javascript:Action.selectClass(&quot;RootClass&quot;);" xlink:title="Integer id&#13;">
<text text-anchor="start" x="664" y="-567.3" font-family="Times,serif" font-size="14.00"> &#160;id : Integer &#160;</text>
</a>
</g>
<polygon fill="black" stroke="black" points="661,-580.5 661,-580.5 757,-580.5 757,-580.5 661,-580.5"/>
<polygon fill="none" stroke="black" points="661,-561 661,-628 757,-628 757,-561 661,-561"/>
</a>
</g>
</g>
<!-- Color -->
<g id="node2" class="node">
<title>Color</title>
<g id="a_node2"><a xlink:href="javascript:Action.selectClass(&quot;Color&quot;);" xlink:title="class Color&#10;A class which represent basic features of color.&#13;">
<text text-anchor="start" x="679" y="-508.8" font-family="Times,serif" font-size="14.00"> &#160;&#160;&#160;Color &#160;&#160;&#160;</text>
<g id="a_node2_1"><a xlink:href="javascript:Action.selectClass(&quot;Color&quot;);" xlink:title="String rgb&#13;">
<text text-anchor="start" x="670" y="-487.8" font-family="Times,serif" font-size="14.00"> &#160;rgb : String &#160;</text>
</a>
</g>
<polygon fill="black" stroke="black" points="667,-501 667,-501 751,-501 751,-501 667,-501"/>
<polygon fill="none" stroke="black" points="667,-481 667,-525 751,-525 751,-481 667,-481"/>
</a>
</g>
</g>
<!-- Color&#45;&gt;RootClass -->
<g id="edge1" class="edge">
<title>Color&#45;&gt;RootClass</title>
<path fill="none" stroke="black" d="M712.84,-525.3C714.34,-533.61 715.98,-542.75 717.19,-549.48"/>
<polygon fill="none" stroke="black" points="713.78,-550.28 719,-559.5 720.67,-549.04 713.78,-550.28"/>
</g>
<!-- Canvas -->
<g id="node3" class="node">
<title>Canvas</title>
<g id="a_node3"><a xlink:href="javascript:Action.selectClass(&quot;Canvas&quot;);" xlink:title="class Canvas&#10;used to draw geometric objects.&#13;">
<text text-anchor="start" x="780" y="-498.8" font-family="Times,serif" font-size="14.00"> &#160;&#160;&#160;Canvas &#160;&#160;&#160;</text>
<polygon fill="none" stroke="black" points="769,-484.5 769,-521.5 861,-521.5 861,-484.5 769,-484.5"/>
</a>
</g>
</g>
<!-- Canvas&#45;&gt;RootClass -->
<g id="edge2" class="edge">
<title>Canvas&#45;&gt;RootClass</title>
<path fill="none" stroke="black" d="M784.62,-521.56C764.85,-532.99 740.44,-547.11 727.69,-554.48"/>
<polygon fill="none" stroke="black" points="725.91,-551.46 719,-559.5 729.41,-557.52 725.91,-551.46"/>
</g>
<!-- GeometricObject -->
<g id="node4" class="node">
<title>GeometricObject</title>
<g id="a_node4"><a xlink:href="javascript:Action.selectClass(&quot;GeometricObject&quot;);" xlink:title="class GeometricObject&#10;a root abstract class for geometric objects.&#13;">
<text text-anchor="start" x="647" y="-428.8" font-family="Times,serif" font-size="14.00"> &#160;&#160;&#160;GeometricObject &#160;&#160;&#160;</text>
<text text-anchor="start" x="680.5" y="-405.8" font-family="Times,serif" font-size="14.00">«abstract»</text>
<polygon fill="none" stroke="black" points="641.5,-397 641.5,-445 776.5,-445 776.5,-397 641.5,-397"/>
</a>
</g>
</g>
<!-- GeometricObject&#45;&gt;RootClass -->
<g id="edge3" class="edge">
<title>GeometricObject&#45;&gt;RootClass</title>
<path fill="none" stroke="black" d="M682.15,-445.18C672.61,-455.12 663.01,-467.55 658,-481 651.18,-499.33 648.15,-508.11 658,-525 669.03,-543.92 694.71,-553.29 708.98,-557.19"/>
<polygon fill="none" stroke="black" points="708.47,-560.66 719,-559.5 710.04,-553.84 708.47,-560.66"/>
</g>
<!-- GeometricObject&#45;&gt;Color -->
<g id="edge25" class="edge">
<title>GeometricObject&#45;&gt;Color</title>
<g id="a_edge25"><a xlink:title="GeometricObject 0..1 geometricObject &#45;&gt; * color Color&#10;&#10;A Color may have a GeometricObject. It can have none or just 1. &#10;&#10;A GeometricObject has some Colors. It can have none, and there is no upper bound defined.&#10;&#10;">
<path fill="none" stroke="black" d="M709,-445.14C709,-453.14 709,-462.25 709,-470.8"/>
<polygon fill="black" stroke="black" points="709,-480.83 704.5,-470.83 709,-475.83 709,-470.83 709,-470.83 709,-470.83 709,-475.83 713.5,-470.83 709,-480.83 709,-480.83"/>
</a>
</g>
<g id="a_edge25&#45;headlabel"><a xlink:title="GeometricObject 0..1 geometricObject &#45;&gt; * color Color&#10;&#10;A Color may have a GeometricObject. It can have none or just 1. &#10;&#10;A GeometricObject has some Colors. It can have none, and there is no upper bound defined.&#10;&#10;">
<text text-anchor="middle" x="689" y="-469.63" font-family="Times,serif" font-size="14.00">* color</text>
</a>
</g>
<g id="a_edge25&#45;taillabel"><a xlink:title="GeometricObject 0..1 geometricObject &#45;&gt; * color Color&#10;&#10;A Color may have a GeometricObject. It can have none or just 1. &#10;&#10;A GeometricObject has some Colors. It can have none, and there is no upper bound defined.&#10;&#10;">
<text text-anchor="middle" x="650" y="-448.94" font-family="Times,serif" font-size="14.00">0..1 geometricObject</text>
</a>
</g>
</g>
<!-- GeometricObject&#45;&gt;Canvas -->
<g id="edge24" class="edge">
<title>GeometricObject&#45;&gt;Canvas</title>
<g id="a_edge24"><a xlink:title="GeometricObject 0..1 geometricObject &#45;&gt; * canvas Canvas&#10;&#10;A Canvas may have a GeometricObject. It can have none or just 1. &#10;&#10;A GeometricObject has some Canvass. It can have none, and there is no upper bound defined.&#10;&#10;">
<path fill="none" stroke="black" d="M739.66,-445.14C753.33,-455.46 769.43,-467.61 783.23,-478.02"/>
<polygon fill="black" stroke="black" points="791.48,-484.25 780.79,-481.82 787.49,-481.24 783.5,-478.23 783.5,-478.23 783.5,-478.23 787.49,-481.24 786.21,-474.63 791.48,-484.25 791.48,-484.25"/>
</a>
</g>
<g id="a_edge24&#45;headlabel"><a xlink:title="GeometricObject 0..1 geometricObject &#45;&gt; * canvas Canvas&#10;&#10;A Canvas may have a GeometricObject. It can have none or just 1. &#10;&#10;A GeometricObject has some Canvass. It can have none, and there is no upper bound defined.&#10;&#10;">
<text text-anchor="middle" x="815.98" y="-473.05" font-family="Times,serif" font-size="14.00">* canvas</text>
</a>
</g>
<g id="a_edge24&#45;taillabel"><a xlink:title="GeometricObject 0..1 geometricObject &#45;&gt; * canvas Canvas&#10;&#10;A Canvas may have a GeometricObject. It can have none or just 1. &#10;&#10;A GeometricObject has some Canvass. It can have none, and there is no upper bound defined.&#10;&#10;">
<text text-anchor="middle" x="798.66" y="-448.94" font-family="Times,serif" font-size="14.00">0..1 geometricObject</text>
</a>
</g>
</g>
<!-- Shape2D -->
<g id="node5" class="node">
<title>Shape2D</title>
<g id="a_node5"><a xlink:href="javascript:Action.selectClass(&quot;Shape2D&quot;);" xlink:title="class Shape2D&#10;&#45;&#45;&#45;&#45;&#45;&#45;&#45;&#45;&#45;&#45;&#45;&#45;&#45;&#45;&#45;&#45;&#45;&#45;&#45;&#45;&#45;&#45;&#45;&#45;&#45;&#45;&#45;&#45;&#45;&#45;&#45;&#45;&#45;&#45;&#45;&#45;&#45;&#45;&#45;&#45;&#45;&#45;&#45;&#45;&#45;&#45;&#45;&#45;&#45;&#45;&#45;&#45;&#45;&#45;&#45;&#45;&#45;&#45;&#45;&#45;&#45;&#45;&#45;&#45;&#45;&#45;&#45;&#45;&#45;&#45;&#45;&#45;&#45;&#45;&#45;&#45;&#45;&#45;&#45;&#45;&#13;&#45;&#45;&#45;&#45;&#45;&#45;&#45;&#45;&#45;&#45;&#45;&#45;&#45;&#45;&#45;&#45;&#45;&#45;&#45;&#45;&#45;&#45;&#45;&#45;&#45;&#45;&#45;&#45;&#45;&#45;&#45;&#45;&#45;&#45;&#45;&#45;&#45;&#45;&#45;&#45;&#45;&#45;&#45;&#45;&#45;&#45;&#45;&#45;&#45;&#45;&#45;&#45;&#45;&#45;&#45;&#45;&#45;&#45;&#45;&#45;&#45;&#45;&#45;&#45;&#45;&#45;&#45;&#45;&#45;&#45;&#45;&#45;&#45;&#45;&#45;&#45;&#45;&#45;&#45;&#45;&#13;an abstract class for two&#45;dimensional objects such as circles and rectangles.&#13;">
<text text-anchor="start" x="452.5" y="-344.3" font-family="Times,serif" font-size="14.00"> &#160;&#160;&#160;Shape2D &#160;&#160;&#160;</text>
<text text-anchor="start" x="463.5" y="-321.3" font-family="Times,serif" font-size="14.00">«abstract»</text>
<g id="a_node5_2"><a xlink:href="javascript:Action.selectClass(&quot;Shape2D&quot;);" xlink:title="Point center&#13;">
<text text-anchor="start" x="448" y="-300.3" font-family="Times,serif" font-size="14.00"> &#160;center : Point &#160;</text>
</a>
</g>
<polygon fill="black" stroke="black" points="445,-313.5 445,-313.5 540,-313.5 540,-313.5 445,-313.5"/>
<polygon fill="none" stroke="black" points="444.5,-294 444.5,-361 539.5,-361 539.5,-294 444.5,-294"/>
</a>
</g>
</g>
<!-- Shape2D&#45;&gt;GeometricObject -->
<g id="edge4" class="edge">
<title>Shape2D&#45;&gt;GeometricObject</title>
<path fill="none" stroke="black" d="M539.62,-343.31C591.77,-359.53 671.66,-384.39 699.24,-392.96"/>
<polygon fill="none" stroke="black" points="698.41,-396.37 709,-396 700.49,-389.69 698.41,-396.37"/>
</g>
<!-- Shape3D -->
<g id="node6" class="node">
<title>Shape3D</title>
<g id="a_node6"><a xlink:href="javascript:Action.selectClass(&quot;Shape3D&quot;);" xlink:title="class Shape3D&#10;an abstract class for three&#45;dimensional objects such as cubes, prisms, cylinders and spheres.&#13;">
<text text-anchor="start" x="725.5" y="-344.3" font-family="Times,serif" font-size="14.00"> &#160;&#160;&#160;Shape3D &#160;&#160;&#160;</text>
<text text-anchor="start" x="736.5" y="-321.3" font-family="Times,serif" font-size="14.00">«abstract»</text>
<g id="a_node6_3"><a xlink:href="javascript:Action.selectClass(&quot;Shape3D&quot;);" xlink:title="Point center&#13;">
<text text-anchor="start" x="721" y="-300.3" font-family="Times,serif" font-size="14.00"> &#160;center : Point &#160;</text>
</a>
</g>
<polygon fill="black" stroke="black" points="718,-313.5 718,-313.5 813,-313.5 813,-313.5 718,-313.5"/>
<polygon fill="none" stroke="black" points="717.5,-294 717.5,-361 812.5,-361 812.5,-294 717.5,-294"/>
</a>
</g>
</g>
<!-- Shape3D&#45;&gt;GeometricObject -->
<g id="edge5" class="edge">
<title>Shape3D&#45;&gt;GeometricObject</title>
<path fill="none" stroke="black" d="M737.98,-361.06C729.59,-371.18 721.08,-381.43 715.48,-388.19"/>
<polygon fill="none" stroke="black" points="712.69,-386.07 709,-396 718.08,-390.54 712.69,-386.07"/>
</g>
<!-- Point -->
<g id="node7" class="node">
<title>Point</title>
<g id="a_node7"><a xlink:href="javascript:Action.selectClass(&quot;Point&quot;);" xlink:title="class Point&#10;a class for points. A point doesn&#39;t have a dimension.&#13;">
<text text-anchor="start" x="625" y="-342.3" font-family="Times,serif" font-size="14.00"> &#160;&#160;&#160;Point &#160;&#160;&#160;</text>
<g id="a_node7_4"><a xlink:href="javascript:Action.selectClass(&quot;Point&quot;);" xlink:title="Double pX&#13;">
<text text-anchor="start" x="612" y="-321.3" font-family="Times,serif" font-size="14.00"> &#160;pX : Double &#160;</text>
</a>
</g>
<g id="a_node7_5"><a xlink:href="javascript:Action.selectClass(&quot;Point&quot;);" xlink:title="Double pY&#13;">
<text text-anchor="start" x="612" y="-302.3" font-family="Times,serif" font-size="14.00"> &#160;pY : Double &#160;</text>
</a>
</g>
<polygon fill="black" stroke="black" points="609,-334.5 609,-334.5 699,-334.5 699,-334.5 609,-334.5"/>
<polygon fill="none" stroke="black" points="609,-296 609,-359 699,-359 699,-296 609,-296"/>
</a>
</g>
</g>
<!-- Point&#45;&gt;GeometricObject -->
<g id="edge6" class="edge">
<title>Point&#45;&gt;GeometricObject</title>
<path fill="none" stroke="black" d="M678.93,-359.09C687.68,-369.83 696.78,-381.01 702.65,-388.21"/>
<polygon fill="none" stroke="black" points="699.97,-390.46 709,-396 705.4,-386.04 699.97,-390.46"/>
</g>
<!-- Line -->
<g id="node8" class="node">
<title>Line</title>
<g id="a_node8"><a xlink:href="javascript:Action.selectClass(&quot;Line&quot;);" xlink:title="class Line&#10;a class for lines. A line doesn&#39;t have an end.&#13;">
<text text-anchor="start" x="842.5" y="-342.3" font-family="Times,serif" font-size="14.00"> &#160;&#160;&#160;Line &#160;&#160;&#160;</text>
<g id="a_node8_6"><a xlink:href="javascript:Action.selectClass(&quot;Line&quot;);" xlink:title="Point pA&#13;">
<text text-anchor="start" x="834" y="-321.3" font-family="Times,serif" font-size="14.00"> &#160;pA : Point &#160;</text>
</a>
</g>
<g id="a_node8_7"><a xlink:href="javascript:Action.selectClass(&quot;Line&quot;);" xlink:title="Point pB&#13;">
<text text-anchor="start" x="834" y="-302.3" font-family="Times,serif" font-size="14.00"> &#160;pB : Point &#160;</text>
</a>
</g>
<polygon fill="black" stroke="black" points="831,-334.5 831,-334.5 908,-334.5 908,-334.5 831,-334.5"/>
<polygon fill="none" stroke="black" points="830.5,-296 830.5,-359 907.5,-359 907.5,-296 830.5,-296"/>
</a>
</g>
</g>
<!-- Line&#45;&gt;GeometricObject -->
<g id="edge7" class="edge">
<title>Line&#45;&gt;GeometricObject</title>
<path fill="none" stroke="black" d="M830.27,-356.08C827.19,-357.85 824.08,-359.51 821,-361 785.21,-378.24 738.96,-389.53 718.95,-393.92"/>
<polygon fill="none" stroke="black" points="718.07,-390.53 709,-396 719.5,-397.38 718.07,-390.53"/>
</g>
<!-- CurvedShape -->
<g id="node9" class="node">
<title>CurvedShape</title>
<g id="a_node9"><a xlink:href="javascript:Action.selectClass(&quot;CurvedShape&quot;);" xlink:title="class CurvedShape&#10;&#45;&#45;&#45;&#45;&#45;&#45;&#45;&#45;&#45;&#45;&#45;&#45;&#45;&#45;&#45;&#45;&#45;&#45;&#45;&#45;&#45;&#45;&#45;&#45;&#45;&#45;&#45;&#45;&#45;&#45;&#45;&#45;&#45;&#45;&#45;&#45;&#45;&#45;&#45;&#45;&#45;&#45;&#45;&#45;&#45;&#45;&#45;&#45;&#45;&#45;&#45;&#45;&#45;&#45;&#45;&#45;&#45;&#45;&#45;&#45;&#45;&#45;&#45;&#45;&#45;&#45;&#45;&#45;&#45;&#45;&#45;&#45;&#45;&#45;&#45;&#45;&#45;&#45;&#45;&#45;&#13;&#45;&#45;&#45;&#45;&#45;&#45;&#45;&#45;&#45;&#45;&#45;&#45;&#45;&#45;&#45;&#45;&#45;&#45;&#45;&#45;&#45;&#45;&#45;&#45;&#45;&#45;&#45;&#45;&#45;&#45;&#45;&#45;&#45;&#45;&#45;&#45;&#45;&#45;&#45;&#45;&#45;&#45;&#45;&#45;&#45;&#45;&#45;&#45;&#45;&#45;&#45;&#45;&#45;&#45;&#45;&#45;&#45;&#45;&#45;&#45;&#45;&#45;&#45;&#45;&#45;&#45;&#45;&#45;&#45;&#45;&#45;&#45;&#45;&#45;&#45;&#45;&#45;&#45;&#45;&#45;&#13;an abstract class for curved two&#45;dimensional shapes.&#13;Trait TComparable applied here because we wanted to have type&#45;checking through parameters. For example, curved shapes can only be accepted in the related methods.&#13;">
<text text-anchor="start" x="152" y="-241.8" font-family="Times,serif" font-size="14.00"> &#160;&#160;&#160;CurvedShape &#160;&#160;&#160;</text>
<text text-anchor="start" x="175" y="-218.8" font-family="Times,serif" font-size="14.00">«abstract»</text>
<polygon fill="none" stroke="black" points="147,-210 147,-258 261,-258 261,-210 147,-210"/>
</a>
</g>
</g>
<!-- CurvedShape&#45;&gt;Shape2D -->
<g id="edge8" class="edge">
<title>CurvedShape&#45;&gt;Shape2D</title>
<path fill="none" stroke="black" d="M261.28,-247.48C325.89,-261.55 426.09,-283.37 457.93,-290.31"/>
<polygon fill="none" stroke="black" points="457.48,-293.79 468,-292.5 458.97,-286.95 457.48,-293.79"/>
</g>
<!-- Polygon -->
<g id="node10" class="node">
<title>Polygon</title>
<g id="a_node10"><a xlink:href="javascript:Action.selectClass(&quot;Polygon&quot;);" xlink:title="class Polygon&#10;an abstract class for polygon.&#13;Trait TComparable applied here because we wanted to have type&#45;checking through parameters. For example, polygon shapes can only be accepted in the related methods.&#13;">
<text text-anchor="start" x="455" y="-241.8" font-family="Times,serif" font-size="14.00"> &#160;&#160;&#160;Polygon &#160;&#160;&#160;</text>
<text text-anchor="start" x="463.5" y="-218.8" font-family="Times,serif" font-size="14.00">«abstract»</text>
<polygon fill="none" stroke="black" points="449.5,-210 449.5,-258 534.5,-258 534.5,-210 449.5,-210"/>
</a>
</g>
</g>
<!-- Polygon&#45;&gt;Shape2D -->
<g id="edge9" class="edge">
<title>Polygon&#45;&gt;Shape2D</title>
<path fill="none" stroke="black" d="M482.38,-258.06C478.73,-266.8 474.77,-276.29 471.93,-283.08"/>
<polygon fill="none" stroke="black" points="468.62,-281.92 468,-292.5 475.08,-284.62 468.62,-281.92"/>
</g>
<!-- Polygon&#45;&gt;Point -->
<g id="edge26" class="edge">
<title>Polygon&#45;&gt;Point</title>
<g id="a_edge26"><a xlink:title="Polygon 0..1 &#160;&#45;&gt; 3..* vertices Point&#10;&#10;A Point called vertices may have a Polygon. It can have none or just 1. &#10;&#10;A Polygon has at least3 Points called vertices and can never have none. And there is no upper bound defined.&#10;&#10;">
<path fill="none" stroke="black" d="M532.88,-258.09C553.23,-269.58 578.1,-283.63 599.99,-296"/>
<polygon fill="black" stroke="black" points="608.85,-301 597.93,-300 604.5,-298.54 600.15,-296.08 600.15,-296.08 600.15,-296.08 604.5,-298.54 602.36,-292.16 608.85,-301 608.85,-301"/>
</a>
</g>
<g id="a_edge26&#45;headlabel"><a xlink:title="Polygon 0..1 &#160;&#45;&gt; 3..* vertices Point&#10;&#10;A Point called vertices may have a Polygon. It can have none or just 1. &#10;&#10;A Polygon has at least3 Points called vertices and can never have none. And there is no upper bound defined.&#10;&#10;">
<text text-anchor="middle" x="574.35" y="-289.8" font-family="Times,serif" font-size="14.00">3..* vertices</text>
</a>
</g>
<g id="a_edge26&#45;taillabel"><a xlink:title="Polygon 0..1 &#160;&#45;&gt; 3..* vertices Point&#10;&#10;A Point called vertices may have a Polygon. It can have none or just 1. &#10;&#10;A Polygon has at least3 Points called vertices and can never have none. And there is no upper bound defined.&#10;&#10;">
<text text-anchor="middle" x="520.38" y="-261.89" font-family="Times,serif" font-size="14.00">0..1 </text>
</a>
</g>
</g>
<!-- Polyhedra -->
<g id="node11" class="node">
<title>Polyhedra</title>
<g id="a_node11"><a xlink:href="javascript:Action.selectClass(&quot;Polyhedra&quot;);" xlink:title="class Polyhedra&#10;three&#45;dimensional shapes that must have flat faces.&#13;an abstract class for Polyhedra.&#13;Trait TComparable applied here because we wanted to have type&#45;checking through parameters. For example, polyhedra shapes can only be accepted in the related methods.&#13;">
<text text-anchor="start" x="723" y="-241.8" font-family="Times,serif" font-size="14.00"> &#160;&#160;&#160;Polyhedra &#160;&#160;&#160;</text>
<text text-anchor="start" x="736.5" y="-218.8" font-family="Times,serif" font-size="14.00">«abstract»</text>
<polygon fill="none" stroke="black" points="717.5,-210 717.5,-258 812.5,-258 812.5,-210 717.5,-210"/>
</a>
</g>
</g>
<!-- Polyhedra&#45;&gt;Shape3D -->
<g id="edge10" class="edge">
<title>Polyhedra&#45;&gt;Shape3D</title>
<path fill="none" stroke="black" d="M776.23,-258.06C780.55,-266.93 785.24,-276.56 788.55,-283.37"/>
<polygon fill="none" stroke="black" points="785.48,-285.04 793,-292.5 791.77,-281.98 785.48,-285.04"/>
</g>
<!-- Polyhedra&#45;&gt;Point -->
<g id="edge27" class="edge">
<title>Polyhedra&#45;&gt;Point</title>
<g id="a_edge27"><a xlink:title="Polyhedra 0..1 &#160;&#45;&gt; * vertices Point&#10;&#10;A Point called vertices may have a Polyhedra. It can have none or just 1. &#10;&#10;A Polyhedra has some Points called vertices. It can have none, and there is no upper bound defined.&#10;&#10;">
<path fill="none" stroke="black" d="M736.99,-258.09C725.5,-267.56 711.91,-278.76 699.09,-289.33"/>
<polygon fill="black" stroke="black" points="691.23,-295.81 696.09,-285.98 695.09,-292.63 698.95,-289.45 698.95,-289.45 698.95,-289.45 695.09,-292.63 701.81,-292.92 691.23,-295.81 691.23,-295.81"/>
</a>
</g>
<g id="a_edge27&#45;headlabel"><a xlink:title="Polyhedra 0..1 &#160;&#45;&gt; * vertices Point&#10;&#10;A Point called vertices may have a Polyhedra. It can have none or just 1. &#10;&#10;A Polyhedra has some Points called vertices. It can have none, and there is no upper bound defined.&#10;&#10;">
<text text-anchor="middle" x="663.73" y="-284.61" font-family="Times,serif" font-size="14.00">* vertices</text>
</a>
</g>
<g id="a_edge27&#45;taillabel"><a xlink:title="Polyhedra 0..1 &#160;&#45;&gt; * vertices Point&#10;&#10;A Point called vertices may have a Polyhedra. It can have none or just 1. &#10;&#10;A Polyhedra has some Points called vertices. It can have none, and there is no upper bound defined.&#10;&#10;">
<text text-anchor="middle" x="724.49" y="-261.89" font-family="Times,serif" font-size="14.00">0..1 </text>
</a>
</g>
</g>
<!-- NonPolyhedra -->
<g id="node12" class="node">
<title>NonPolyhedra</title>
<g id="a_node12"><a xlink:href="javascript:Action.selectClass(&quot;NonPolyhedra&quot;);" xlink:title="class NonPolyhedra&#10;three&#45;dimensional shapes that don&#39;t have any flat surface&#13;an abstract class for non&#45;polyhedra shapes.&#13;Trait TComparable applied here because we wanted to have type&#45;checking through parameters. For example, non&#45;polyhedra shapes can only be accepted in related methods.&#13;">
<text text-anchor="start" x="1213" y="-241.8" font-family="Times,serif" font-size="14.00"> &#160;&#160;&#160;NonPolyhedra &#160;&#160;&#160;</text>
<text text-anchor="start" x="1238.5" y="-218.8" font-family="Times,serif" font-size="14.00">«abstract»</text>
<polygon fill="none" stroke="black" points="1207.5,-210 1207.5,-258 1326.5,-258 1326.5,-210 1207.5,-210"/>
</a>
</g>
</g>
<!-- NonPolyhedra&#45;&gt;Shape3D -->
<g id="edge11" class="edge">
<title>NonPolyhedra&#45;&gt;Shape3D</title>
<path fill="none" stroke="black" d="M1207.45,-242.22C1094.31,-255.95 854.95,-284.98 803.06,-291.28"/>
<polygon fill="none" stroke="black" points="802.51,-287.82 793,-292.5 803.35,-294.77 802.51,-287.82"/>
</g>
<!-- Circle -->
<g id="node13" class="node">
<title>Circle</title>
<g id="a_node13"><a xlink:href="javascript:Action.selectClass(&quot;Circle&quot;);" xlink:title="class Circle&#10;&#45;&#45;&#45;&#45;&#45;&#45;&#45;&#45;&#45;&#45;&#45;&#45;&#45;&#45;&#45;&#45;&#45;&#45;&#45;&#45;&#45;&#45;&#45;&#45;&#45;&#45;&#45;&#45;&#45;&#45;&#45;&#45;&#45;&#45;&#45;&#45;&#45;&#45;&#45;&#45;&#45;&#45;&#45;&#45;&#45;&#45;&#45;&#45;&#45;&#45;&#45;&#45;&#45;&#45;&#45;&#45;&#45;&#45;&#45;&#45;&#45;&#45;&#45;&#45;&#45;&#45;&#45;&#45;&#45;&#45;&#45;&#45;&#45;&#45;&#45;&#45;&#45;&#45;&#45;&#45;&#13;&#45;&#45;&#45;&#45;&#45;&#45;&#45;&#45;&#45;&#45;&#45;&#45;&#45;&#45;&#45;&#45;&#45;&#45;&#45;&#45;&#45;&#45;&#45;&#45;&#45;&#45;&#45;&#45;&#45;&#45;&#45;&#45;&#45;&#45;&#45;&#45;&#45;&#45;&#45;&#45;&#45;&#45;&#45;&#45;&#45;&#45;&#45;&#45;&#45;&#45;&#45;&#45;&#45;&#45;&#45;&#45;&#45;&#45;&#45;&#45;&#45;&#45;&#45;&#45;&#45;&#45;&#45;&#45;&#45;&#45;&#45;&#45;&#45;&#45;&#45;&#45;&#45;&#45;&#45;&#45;&#13;">
<text text-anchor="start" x="173" y="-129.3" font-family="Times,serif" font-size="14.00"> &#160;&#160;&#160;Circle &#160;&#160;&#160;</text>
<g id="a_node13_8"><a xlink:href="javascript:Action.selectClass(&quot;Circle&quot;);" xlink:title="Double radius&#13;">
<text text-anchor="start" x="154" y="-108.3" font-family="Times,serif" font-size="14.00"> &#160;radius : Double &#160;</text>
</a>
</g>
<polygon fill="black" stroke="black" points="151,-121.5 151,-121.5 258,-121.5 258,-121.5 151,-121.5"/>
<polygon fill="none" stroke="black" points="150.5,-101.5 150.5,-145.5 257.5,-145.5 257.5,-101.5 150.5,-101.5"/>
</a>
</g>
</g>
<!-- Circle&#45;&gt;CurvedShape -->
<g id="edge12" class="edge">
<title>Circle&#45;&gt;CurvedShape</title>
<path fill="none" stroke="black" d="M200.97,-145.82C198.56,-162.84 195.28,-185.91 193.43,-198.94"/>
<polygon fill="none" stroke="black" points="189.94,-198.61 192,-209 196.87,-199.59 189.94,-198.61"/>
</g>
<!-- Ellipse -->
<g id="node14" class="node">
<title>Ellipse</title>
<g id="a_node14"><a xlink:href="javascript:Action.selectClass(&quot;Ellipse&quot;);" xlink:title="class Ellipse&#10;">
<text text-anchor="start" x="32.5" y="-157.3" font-family="Times,serif" font-size="14.00"> &#160;&#160;&#160;Ellipse &#160;&#160;&#160;</text>
<g id="a_node14_9"><a xlink:href="javascript:Action.selectClass(&quot;Ellipse&quot;);" xlink:title="Double majorAxis&#13;">
<text text-anchor="start" x="3" y="-136.3" font-family="Times,serif" font-size="14.00"> &#160;majorAxis : Double &#160;</text>
</a>
</g>
<g id="a_node14_10"><a xlink:href="javascript:Action.selectClass(&quot;Ellipse&quot;);" xlink:title="Double minorAxis&#13;">
<text text-anchor="start" x="3" y="-117.3" font-family="Times,serif" font-size="14.00"> &#160;minorAxis : Double &#160;</text>
</a>
</g>
<g id="a_node14_11"><a xlink:href="javascript:Action.selectClass(&quot;Ellipse&quot;);" xlink:title="Point fFocus&#13;">
<text text-anchor="start" x="3" y="-98.3" font-family="Times,serif" font-size="14.00"> &#160;fFocus : Point &#160;</text>
</a>
</g>
<g id="a_node14_12"><a xlink:href="javascript:Action.selectClass(&quot;Ellipse&quot;);" xlink:title="Point gFocus&#13;">
<text text-anchor="start" x="3" y="-79.3" font-family="Times,serif" font-size="14.00"> &#160;gFocus : Point &#160;</text>
</a>
</g>
<polygon fill="black" stroke="black" points="0,-149.5 0,-149.5 132,-149.5 132,-149.5 0,-149.5"/>
<polygon fill="none" stroke="black" points="0,-73 0,-174 132,-174 132,-73 0,-73"/>
</a>
</g>
</g>
<!-- Ellipse&#45;&gt;CurvedShape -->
<g id="edge13" class="edge">
<title>Ellipse&#45;&gt;CurvedShape</title>
<path fill="none" stroke="black" d="M132.32,-168.98C152.72,-182.65 172.65,-196.02 183.53,-203.32"/>
<polygon fill="none" stroke="black" points="181.75,-206.34 192,-209 185.64,-200.52 181.75,-206.34"/>
</g>
<!-- Quadrilateral -->
<g id="node15" class="node">
<title>Quadrilateral</title>
<g id="a_node15"><a xlink:href="javascript:Action.selectClass(&quot;Quadrilateral&quot;);" xlink:title="class Quadrilateral&#10;">
<text text-anchor="start" x="287" y="-119.3" font-family="Times,serif" font-size="14.00"> &#160;&#160;&#160;Quadrilateral &#160;&#160;&#160;</text>
<polygon fill="none" stroke="black" points="276,-105 276,-142 400,-142 400,-105 276,-105"/>
</a>
</g>
</g>
<!-- Quadrilateral&#45;&gt;Polygon -->
<g id="edge14" class="edge">
<title>Quadrilateral&#45;&gt;Polygon</title>
<path fill="none" stroke="black" d="M361.4,-142.15C374.97,-152.04 392.57,-164.3 409,-174 430.3,-186.58 456.75,-198.77 470.57,-204.9"/>
<polygon fill="none" stroke="black" points="469.43,-208.22 480,-209 472.22,-201.8 469.43,-208.22"/>
</g>
<!-- Rectangle -->
<g id="node16" class="node">
<title>Rectangle</title>
<g id="a_node16"><a xlink:href="javascript:Action.selectClass(&quot;Rectangle&quot;);" xlink:title="class Rectangle&#10;">
<text text-anchor="start" x="296" y="-14.3" font-family="Times,serif" font-size="14.00"> &#160;&#160;&#160;Rectangle &#160;&#160;&#160;</text>
<polygon fill="none" stroke="black" points="285,0 285,-37 391,-37 391,0 285,0"/>
</a>
</g>
</g>
<!-- Rectangle&#45;&gt;Quadrilateral -->
<g id="edge15" class="edge">
<title>Rectangle&#45;&gt;Quadrilateral</title>
<path fill="none" stroke="black" d="M338,-37.44C338,-53.24 338,-76.52 338,-94.72"/>
<polygon fill="none" stroke="black" points="334.5,-94.76 338,-104.76 341.5,-94.76 334.5,-94.76"/>
</g>
<!-- ArbitraryPolygon -->
<g id="node17" class="node">
<title>ArbitraryPolygon</title>
<g id="a_node17"><a xlink:href="javascript:Action.selectClass(&quot;ArbitraryPolygon&quot;);" xlink:title="class ArbitraryPolygon&#10;">
<text text-anchor="start" x="429" y="-119.3" font-family="Times,serif" font-size="14.00"> &#160;&#160;&#160;ArbitraryPolygon &#160;&#160;&#160;</text>
<polygon fill="none" stroke="black" points="418,-105 418,-142 566,-142 566,-105 418,-105"/>
</a>
</g>
</g>
<!-- ArbitraryPolygon&#45;&gt;Polygon -->
<g id="edge16" class="edge">
<title>ArbitraryPolygon&#45;&gt;Polygon</title>
<path fill="none" stroke="black" d="M489.51,-142.01C487.07,-159.22 483.42,-184.88 481.43,-198.93"/>
<polygon fill="none" stroke="black" points="477.94,-198.61 480,-209 484.87,-199.59 477.94,-198.61"/>
</g>
<!-- Sphere -->
<g id="node18" class="node">
<title>Sphere</title>
<g id="a_node18"><a xlink:href="javascript:Action.selectClass(&quot;Sphere&quot;);" xlink:title="class Sphere&#10;">
<text text-anchor="start" x="1234" y="-129.3" font-family="Times,serif" font-size="14.00"> &#160;&#160;&#160;Sphere &#160;&#160;&#160;</text>
<g id="a_node18_13"><a xlink:href="javascript:Action.selectClass(&quot;Sphere&quot;);" xlink:title="Double radius&#13;">
<text text-anchor="start" x="1217" y="-108.3" font-family="Times,serif" font-size="14.00"> &#160;radius : Double &#160;</text>
</a>
</g>
<polygon fill="black" stroke="black" points="1214,-121.5 1214,-121.5 1321,-121.5 1321,-121.5 1214,-121.5"/>
<polygon fill="none" stroke="black" points="1213.5,-101.5 1213.5,-145.5 1320.5,-145.5 1320.5,-101.5 1213.5,-101.5"/>
</a>
</g>
</g>
<!-- Sphere&#45;&gt;NonPolyhedra -->
<g id="edge17" class="edge">
<title>Sphere&#45;&gt;NonPolyhedra</title>
<path fill="none" stroke="black" d="M1269.02,-145.82C1270.63,-162.84 1272.81,-185.91 1274.05,-198.94"/>
<polygon fill="none" stroke="black" points="1270.57,-199.37 1275,-209 1277.54,-198.71 1270.57,-199.37"/>
</g>
<!-- Torus -->
<g id="node19" class="node">
<title>Torus</title>
<g id="a_node19"><a xlink:href="javascript:Action.selectClass(&quot;Torus&quot;);" xlink:title="class Torus&#10;">
<text text-anchor="start" x="1370.5" y="-157.3" font-family="Times,serif" font-size="14.00"> &#160;&#160;&#160;Torus &#160;&#160;&#160;</text>
<g id="a_node19_14"><a xlink:href="javascript:Action.selectClass(&quot;Torus&quot;);" xlink:title="Double radius_r&#13;">
<text text-anchor="start" x="1342" y="-136.3" font-family="Times,serif" font-size="14.00"> &#160;radius_r : Double &#160;</text>
</a>
</g>
<g id="a_node19_15"><a xlink:href="javascript:Action.selectClass(&quot;Torus&quot;);" xlink:title="Double radius_R&#13;">
<text text-anchor="start" x="1342" y="-117.3" font-family="Times,serif" font-size="14.00"> &#160;radius_R : Double &#160;</text>
</a>
</g>
<g id="a_node19_16"><a xlink:href="javascript:Action.selectClass(&quot;Torus&quot;);" xlink:title="Double theta&#13;">
<text text-anchor="start" x="1342" y="-98.3" font-family="Times,serif" font-size="14.00"> &#160;theta : Double &#160;</text>
</a>
</g>
<g id="a_node19_17"><a xlink:href="javascript:Action.selectClass(&quot;Torus&quot;);" xlink:title="Double phi&#13;">
<text text-anchor="start" x="1342" y="-79.3" font-family="Times,serif" font-size="14.00"> &#160;phi : Double &#160;</text>
</a>
</g>
<polygon fill="black" stroke="black" points="1339,-149.5 1339,-149.5 1462,-149.5 1462,-149.5 1339,-149.5"/>
<polygon fill="none" stroke="black" points="1338.5,-73 1338.5,-174 1461.5,-174 1461.5,-73 1338.5,-73"/>
</a>
</g>
</g>
<!-- Torus&#45;&gt;NonPolyhedra -->
<g id="edge18" class="edge">
<title>Torus&#45;&gt;NonPolyhedra</title>
<path fill="none" stroke="black" d="M1338.28,-168.39C1335.49,-170.3 1332.72,-172.18 1330,-174 1313.84,-184.85 1294.56,-196.92 1283.66,-203.67"/>
<polygon fill="none" stroke="black" points="1281.68,-200.78 1275,-209 1285.35,-206.74 1281.68,-200.78"/>
</g>
<!-- Cylinder -->
<g id="node20" class="node">
<title>Cylinder</title>
<g id="a_node20"><a xlink:href="javascript:Action.selectClass(&quot;Cylinder&quot;);" xlink:title="class Cylinder&#10;">
<text text-anchor="start" x="1495.5" y="-138.3" font-family="Times,serif" font-size="14.00"> &#160;&#160;&#160;Cylinder &#160;&#160;&#160;</text>
<g id="a_node20_18"><a xlink:href="javascript:Action.selectClass(&quot;Cylinder&quot;);" xlink:title="Double radius&#13;">
<text text-anchor="start" x="1483" y="-117.3" font-family="Times,serif" font-size="14.00"> &#160;radius : Double &#160;</text>
</a>
</g>
<g id="a_node20_19"><a xlink:href="javascript:Action.selectClass(&quot;Cylinder&quot;);" xlink:title="Double height&#13;">
<text text-anchor="start" x="1483" y="-98.3" font-family="Times,serif" font-size="14.00"> &#160;height : Double &#160;</text>
</a>
</g>
<polygon fill="black" stroke="black" points="1480,-130.5 1480,-130.5 1588,-130.5 1588,-130.5 1480,-130.5"/>
<polygon fill="none" stroke="black" points="1480,-92 1480,-155 1588,-155 1588,-92 1480,-92"/>
</a>
</g>
</g>
<!-- Cylinder&#45;&gt;NonPolyhedra -->
<g id="edge19" class="edge">
<title>Cylinder&#45;&gt;NonPolyhedra</title>
<path fill="none" stroke="black" d="M1501.34,-155.04C1492.11,-162.25 1481.66,-169.22 1471,-174 1404.76,-203.69 1315.3,-208.22 1285.29,-208.89"/>
<polygon fill="none" stroke="black" points="1284.96,-205.39 1275,-209 1285.04,-212.39 1284.96,-205.39"/>
</g>
<!-- Cone -->
<g id="node21" class="node">
<title>Cone</title>
<g id="a_node21"><a xlink:href="javascript:Action.selectClass(&quot;Cone&quot;);" xlink:title="class Cone&#10;">
<text text-anchor="start" x="1099.5" y="-148.3" font-family="Times,serif" font-size="14.00"> &#160;&#160;&#160;Cone &#160;&#160;&#160;</text>
<g id="a_node21_20"><a xlink:href="javascript:Action.selectClass(&quot;Cone&quot;);" xlink:title="Double radius&#13;">
<text text-anchor="start" x="1064" y="-127.3" font-family="Times,serif" font-size="14.00"> &#160;radius : Double &#160;</text>
</a>
</g>
<g id="a_node21_21"><a xlink:href="javascript:Action.selectClass(&quot;Cone&quot;);" xlink:title="Double height&#13;">
<text text-anchor="start" x="1064" y="-108.3" font-family="Times,serif" font-size="14.00"> &#160;height : Double &#160;</text>
</a>
</g>
<g id="a_node21_22"><a xlink:href="javascript:Action.selectClass(&quot;Cone&quot;);" xlink:title="Double sideLength&#13;">
<text text-anchor="start" x="1064" y="-89.3" font-family="Times,serif" font-size="14.00"> &#160;sideLength : Double &#160;</text>
</a>
</g>
<polygon fill="black" stroke="black" points="1061,-140.5 1061,-140.5 1196,-140.5 1196,-140.5 1061,-140.5"/>
<polygon fill="none" stroke="black" points="1060.5,-82.5 1060.5,-164.5 1195.5,-164.5 1195.5,-82.5 1060.5,-82.5"/>
</a>
</g>
</g>
<!-- Cone&#45;&gt;NonPolyhedra -->
<g id="edge20" class="edge">
<title>Cone&#45;&gt;NonPolyhedra</title>
<path fill="none" stroke="black" d="M1189,-164.55C1194.36,-167.82 1199.75,-171.01 1205,-174 1226.25,-186.1 1252.23,-198.49 1265.77,-204.78"/>
<polygon fill="none" stroke="black" points="1264.45,-208.02 1275,-209 1267.36,-201.65 1264.45,-208.02"/>
</g>
<!-- Cube -->
<g id="node22" class="node">
<title>Cube</title>
<g id="a_node22"><a xlink:href="javascript:Action.selectClass(&quot;Cube&quot;);" xlink:title="class Cube&#10;">
<text text-anchor="start" x="787.5" y="-129.3" font-family="Times,serif" font-size="14.00"> &#160;&#160;&#160;Cube &#160;&#160;&#160;</text>
<g id="a_node22_23"><a xlink:href="javascript:Action.selectClass(&quot;Cube&quot;);" xlink:title="Double edgeLength&#13;">
<text text-anchor="start" x="750" y="-108.3" font-family="Times,serif" font-size="14.00"> &#160;edgeLength : Double &#160;</text>
</a>
</g>
<polygon fill="black" stroke="black" points="747,-121.5 747,-121.5 886,-121.5 886,-121.5 747,-121.5"/>
<polygon fill="none" stroke="black" points="746.5,-101.5 746.5,-145.5 885.5,-145.5 885.5,-101.5 746.5,-101.5"/>
</a>
</g>
</g>
<!-- Cube&#45;&gt;Polyhedra -->
<g id="edge21" class="edge">
<title>Cube&#45;&gt;Polyhedra</title>
<path fill="none" stroke="black" d="M804.9,-145.82C795.83,-163.23 783.47,-186.97 776.78,-199.83"/>
<polygon fill="none" stroke="black" points="773.51,-198.51 772,-209 779.72,-201.75 773.51,-198.51"/>
</g>
<!-- RectangularPrism -->
<g id="node23" class="node">
<title>RectangularPrism</title>
<g id="a_node23"><a xlink:href="javascript:Action.selectClass(&quot;RectangularPrism&quot;);" xlink:title="class RectangularPrism&#10;">
<text text-anchor="start" x="909" y="-148.3" font-family="Times,serif" font-size="14.00"> &#160;&#160;&#160;RectangularPrism &#160;&#160;&#160;</text>
<g id="a_node23_24"><a xlink:href="javascript:Action.selectClass(&quot;RectangularPrism&quot;);" xlink:title="Double length&#13;">
<text text-anchor="start" x="907" y="-127.3" font-family="Times,serif" font-size="14.00"> &#160;length : Double &#160;</text>
</a>
</g>
<g id="a_node23_25"><a xlink:href="javascript:Action.selectClass(&quot;RectangularPrism&quot;);" xlink:title="Double width&#13;">
<text text-anchor="start" x="907" y="-108.3" font-family="Times,serif" font-size="14.00"> &#160;width : Double &#160;</text>
</a>
</g>
<g id="a_node23_26"><a xlink:href="javascript:Action.selectClass(&quot;RectangularPrism&quot;);" xlink:title="Double height&#13;">
<text text-anchor="start" x="907" y="-89.3" font-family="Times,serif" font-size="14.00"> &#160;height : Double &#160;</text>
</a>
</g>
<polygon fill="black" stroke="black" points="904,-140.5 904,-140.5 1043,-140.5 1043,-140.5 904,-140.5"/>
<polygon fill="none" stroke="black" points="903.5,-82.5 903.5,-164.5 1042.5,-164.5 1042.5,-82.5 903.5,-82.5"/>
</a>
</g>
</g>
<!-- RectangularPrism&#45;&gt;Polyhedra -->
<g id="edge22" class="edge">
<title>RectangularPrism&#45;&gt;Polyhedra</title>
<path fill="none" stroke="black" d="M913.5,-164.66C907.38,-168.06 901.15,-171.24 895,-174 854.89,-191.98 803.24,-203.08 781.9,-207.19"/>
<polygon fill="none" stroke="black" points="781.21,-203.76 772,-209 782.47,-210.65 781.21,-203.76"/>
</g>
<!-- TriangularPyramid -->
<g id="node24" class="node">
<title>TriangularPyramid</title>
<g id="a_node24"><a xlink:href="javascript:Action.selectClass(&quot;TriangularPyramid&quot;);" xlink:title="class TriangularPyramid&#10;">
<text text-anchor="start" x="589" y="-138.3" font-family="Times,serif" font-size="14.00"> &#160;&#160;&#160;TriangularPyramid &#160;&#160;&#160;</text>
<g id="a_node24_27"><a xlink:href="javascript:Action.selectClass(&quot;TriangularPyramid&quot;);" xlink:title="Double slideLength&#13;">
<text text-anchor="start" x="587" y="-117.3" font-family="Times,serif" font-size="14.00"> &#160;slideLength : Double &#160;</text>
</a>
</g>
<g id="a_node24_28"><a xlink:href="javascript:Action.selectClass(&quot;TriangularPyramid&quot;);" xlink:title="Double height&#13;">
<text text-anchor="start" x="587" y="-98.3" font-family="Times,serif" font-size="14.00"> &#160;height : Double &#160;</text>
</a>
</g>
<polygon fill="black" stroke="black" points="584,-130.5 584,-130.5 728,-130.5 728,-130.5 584,-130.5"/>
<polygon fill="none" stroke="black" points="584,-92 584,-155 728,-155 728,-92 584,-92"/>
</a>
</g>
</g>
<!-- TriangularPyramid&#45;&gt;Polyhedra -->
<g id="edge23" class="edge">
<title>TriangularPyramid&#45;&gt;Polyhedra</title>
<path fill="none" stroke="black" d="M697.88,-155.01C722.02,-172.59 750.21,-193.13 763.82,-203.04"/>
<polygon fill="none" stroke="black" points="761.86,-205.94 772,-209 765.98,-200.28 761.86,-205.94"/>
</g>
</g>
</svg>
