<?xml version="1.0" encoding="UTF-8" standalone="no"?>
<!DOCTYPE svg PUBLIC "-//W3C//DTD SVG 1.1//EN"
 "http://www.w3.org/Graphics/SVG/1.1/DTD/svg11.dtd">
<!-- Generated by graphviz version 2.40.1 (20161225.0304)
 -->
<!-- Title: Hospital Pages: 1 -->
<svg width="377pt" height="518pt"
 viewBox="0.00 0.00 376.93 518.00" xmlns="http://www.w3.org/2000/svg" xmlns:xlink="http://www.w3.org/1999/xlink">
<g id="graph0" class="graph" transform="scale(1 1) rotate(0) translate(4 514)">
<title>Hospital</title>
<polygon fill="#ffffff" stroke="transparent" points="-4,4 -4,-514 372.9282,-514 372.9282,4 -4,4"/>
<!-- Hospital -->
<g id="node1" class="node">
<title>Hospital</title>
<g id="a_node1"><a xlink:href="javascript:Action.selectClass(&quot;Hospital&quot;);" xlink:title="class Hospital&#10;Hospital system &#45; sample UML class diagram in Umple&#13;">
<text text-anchor="start" x="120.7075" y="-13.8" font-family="Times,serif" font-size="14.00" fill="#000000"> &#160;&#160;&#160;Hospital &#160;&#160;&#160;</text>
<polygon fill="none" stroke="#000000" points="109.4282,0 109.4282,-36 206.4282,-36 206.4282,0 109.4282,0"/>
</a>
</g>
</g>
<!-- Ward -->
<g id="node2" class="node">
<title>Ward</title>
<g id="a_node2"><a xlink:href="javascript:Action.selectClass(&quot;Ward&quot;);" xlink:title="class Ward&#10;Subsections within the hospital.&#13;">
<text text-anchor="start" x="34.5634" y="-115.8" font-family="Times,serif" font-size="14.00" fill="#000000"> &#160;&#160;&#160;Ward &#160;&#160;&#160;</text>
<g id="a_node2_0"><a xlink:href="javascript:Action.selectClass(&quot;Ward&quot;);" xlink:title="String name&#13;">
<text text-anchor="start" x="7.9282" y="-95.8" font-family="Times,serif" font-size="14.00" fill="#000000"> &#160;name : String &#160;</text>
</a>
</g>
<g id="a_node2_1"><a xlink:href="javascript:Action.selectClass(&quot;Ward&quot;);" xlink:title="Integer capacity&#13;">
<text text-anchor="start" x="7.8452" y="-77.8" font-family="Times,serif" font-size="14.00" fill="#000000"> &#160;capacity : Integer &#160;</text>
</a>
</g>
<polygon fill="#000000" stroke="#000000" points="4.9282,-109 4.9282,-109 121.9282,-109 121.9282,-109 4.9282,-109"/>
<polygon fill="none" stroke="#000000" points="4.4282,-72 4.4282,-132 121.4282,-132 121.4282,-72 4.4282,-72"/>
</a>
</g>
</g>
<!-- Hospital&#45;&gt;Ward -->
<g id="edge5" class="edge">
<title>Hospital&#45;&gt;Ward</title>
<g id="a_edge5"><a xlink:title="Hospital 1 &#160;&#45;&#45; 1..* &#160;Ward">
<path fill="none" stroke="#000000" d="M137.3146,-36.2267C125.5273,-46.6492 110.4464,-59.9839 96.9487,-71.9187"/>
</a>
</g>
<text text-anchor="middle" x="84.6987" y="-60.7187" font-family="Times,serif" font-size="14.00" fill="#000000">1..* </text>
<text text-anchor="middle" x="132.0646" y="-39.0267" font-family="Times,serif" font-size="14.00" fill="#000000">1 </text>
</g>
<!-- Employee -->
<g id="node3" class="node">
<title>Employee</title>
<g id="a_node3"><a xlink:href="javascript:Action.selectClass(&quot;Employee&quot;);" xlink:title="class Employee&#10;The people who work at the hospital.&#13;">
<text text-anchor="start" x="173.0488" y="-379.8" font-family="Times,serif" font-size="14.00" fill="#000000"> &#160;&#160;&#160;Employee &#160;&#160;&#160;</text>
<g id="a_node3_2"><a xlink:href="javascript:Action.selectClass(&quot;Employee&quot;);" xlink:title="String name&#13;">
<text text-anchor="start" x="166.9282" y="-359.8" font-family="Times,serif" font-size="14.00" fill="#000000"> &#160;name : String &#160;</text>
</a>
</g>
<g id="a_node3_3"><a xlink:href="javascript:Action.selectClass(&quot;Employee&quot;);" xlink:title="Integer id&#13;">
<text text-anchor="start" x="166.9282" y="-341.8" font-family="Times,serif" font-size="14.00" fill="#000000"> &#160;id : Integer &#160;</text>
</a>
</g>
<g id="a_node3_4"><a xlink:href="javascript:Action.selectClass(&quot;Employee&quot;);" xlink:title="Integer salary&#13;">
<text text-anchor="start" x="166.4487" y="-323.8" font-family="Times,serif" font-size="14.00" fill="#000000"> &#160;salary : Integer &#160;</text>
</a>
</g>
<polygon fill="#000000" stroke="#000000" points="163.9282,-373 163.9282,-373 266.9282,-373 266.9282,-373 163.9282,-373"/>
<polygon fill="none" stroke="#000000" points="163.4282,-318 163.4282,-396 266.4282,-396 266.4282,-318 163.4282,-318"/>
</a>
</g>
</g>
<!-- Hospital&#45;&gt;Employee -->
<g id="edge4" class="edge">
<title>Hospital&#45;&gt;Employee</title>
<g id="a_edge4"><a xlink:title="Hospital 1 &#160;&#45;&#45; * &#160;Employee">
<path fill="none" stroke="#000000" d="M170.8177,-36.2974C189.1058,-63.4955 221.7191,-116.8897 233.9282,-168 246.0726,-218.8396 235.8955,-279.1758 226.3817,-317.7605"/>
</a>
</g>
<text text-anchor="middle" x="221.1317" y="-306.5605" font-family="Times,serif" font-size="14.00" fill="#000000">* </text>
<text text-anchor="middle" x="165.5677" y="-39.0974" font-family="Times,serif" font-size="14.00" fill="#000000">1 </text>
</g>
<!-- Ward&#45;&gt;Employee -->
<g id="edge6" class="edge">
<title>Ward&#45;&gt;Employee</title>
<g id="a_edge6"><a xlink:title="Ward 1..* &#160;&#45;&#45; * &#160;Employee">
<path fill="none" stroke="#000000" d="M29.0014,-132.1478C19.7029,-142.4848 10.8379,-154.8035 5.9282,-168 -.5808,-185.4951 -2.6737,-193.4334 5.9282,-210 38.7379,-273.1891 112.559,-314.9263 163.0705,-337.2726"/>
</a>
</g>
<text text-anchor="middle" x="157.8205" y="-326.0726" font-family="Times,serif" font-size="14.00" fill="#000000">* </text>
<text text-anchor="middle" x="16.7514" y="-134.9478" font-family="Times,serif" font-size="14.00" fill="#000000">1..* </text>
</g>
<!-- Patient -->
<g id="node9" class="node">
<title>Patient</title>
<g id="a_node9"><a xlink:href="javascript:Action.selectClass(&quot;Patient&quot;);" xlink:title="class Patient&#10;Patient who is at the hospital to get better.&#13;">
<text text-anchor="start" x="29.9868" y="-193.8" font-family="Times,serif" font-size="14.00" fill="#000000"> &#160;&#160;&#160;Patient &#160;&#160;&#160;</text>
<g id="a_node9_5"><a xlink:href="javascript:Action.selectClass(&quot;Patient&quot;);" xlink:title="String name&#13;">
<text text-anchor="start" x="18.7109" y="-173.8" font-family="Times,serif" font-size="14.00" fill="#000000"> &#160;name : String &#160;</text>
</a>
</g>
<polygon fill="#000000" stroke="#000000" points="15.9282,-187 15.9282,-187 110.9282,-187 110.9282,-187 15.9282,-187"/>
<polygon fill="none" stroke="#000000" points="15.4282,-168 15.4282,-210 110.4282,-210 110.4282,-168 15.4282,-168"/>
</a>
</g>
</g>
<!-- Ward&#45;&gt;Patient -->
<g id="edge7" class="edge">
<title>Ward&#45;&gt;Patient</title>
<g id="a_edge7"><a xlink:title="Ward 1 &#160;&#45;&#45; * &#160;Patient">
<path fill="none" stroke="#000000" d="M62.9282,-132.4284C62.9282,-144.0905 62.9282,-157.1345 62.9282,-167.7557"/>
</a>
</g>
<text text-anchor="middle" x="57.6782" y="-156.5557" font-family="Times,serif" font-size="14.00" fill="#000000">* </text>
<text text-anchor="middle" x="57.6782" y="-135.2284" font-family="Times,serif" font-size="14.00" fill="#000000">1 </text>
</g>
<!-- Shift -->
<g id="node4" class="node">
<title>Shift</title>
<g id="a_node4"><a xlink:href="javascript:Action.selectClass(&quot;Shift&quot;);" xlink:title="class Shift&#10;Working shifts that the employees have.&#13;">
<text text-anchor="start" x="119.8144" y="-493.8" font-family="Times,serif" font-size="14.00" fill="#000000"> &#160;&#160;&#160;Shift &#160;&#160;&#160;</text>
<g id="a_node4_6"><a xlink:href="javascript:Action.selectClass(&quot;Shift&quot;);" xlink:title="Date date&#13;">
<text text-anchor="start" x="88.9282" y="-473.8" font-family="Times,serif" font-size="14.00" fill="#000000"> &#160;date : Date &#160;</text>
</a>
</g>
<g id="a_node4_7"><a xlink:href="javascript:Action.selectClass(&quot;Shift&quot;);" xlink:title="Integer startTime&#13;">
<text text-anchor="start" x="88.581" y="-455.8" font-family="Times,serif" font-size="14.00" fill="#000000"> &#160;startTime : Integer &#160;</text>
</a>
</g>
<g id="a_node4_8"><a xlink:href="javascript:Action.selectClass(&quot;Shift&quot;);" xlink:title="Integer endTime&#13;">
<text text-anchor="start" x="88.9282" y="-437.8" font-family="Times,serif" font-size="14.00" fill="#000000"> &#160;endTime : Integer &#160;</text>
</a>
</g>
<polygon fill="#000000" stroke="#000000" points="85.9282,-487 85.9282,-487 208.9282,-487 208.9282,-487 85.9282,-487"/>
<polygon fill="none" stroke="#000000" points="85.4282,-432 85.4282,-510 208.4282,-510 208.4282,-432 85.4282,-432"/>
</a>
</g>
</g>
<!-- Employee&#45;&gt;Shift -->
<g id="edge8" class="edge">
<title>Employee&#45;&gt;Shift</title>
<g id="a_edge8"><a xlink:title="Employee 1 &#160;&#45;&#45; 1..* &#160;Shift">
<path fill="none" stroke="#000000" d="M191.5264,-396.2323C184.6881,-407.6967 177.2141,-420.2265 170.3731,-431.6954"/>
</a>
</g>
<text text-anchor="middle" x="158.1231" y="-420.4954" font-family="Times,serif" font-size="14.00" fill="#000000">1..* </text>
<text text-anchor="middle" x="186.2764" y="-399.0323" font-family="Times,serif" font-size="14.00" fill="#000000">1 </text>
</g>
<!-- Privilege -->
<g id="node5" class="node">
<title>Privilege</title>
<g id="a_node5"><a xlink:href="javascript:Action.selectClass(&quot;Privilege&quot;);" xlink:title="class Privilege&#10;Various privileges and roles that the employees have.&#13;">
<text text-anchor="start" x="244.6557" y="-475.8" font-family="Times,serif" font-size="14.00" fill="#000000"> &#160;&#160;&#160;Privilege &#160;&#160;&#160;</text>
<g id="a_node5_9"><a xlink:href="javascript:Action.selectClass(&quot;Privilege&quot;);" xlink:title="String privilege&#13;">
<text text-anchor="start" x="229.4902" y="-455.8" font-family="Times,serif" font-size="14.00" fill="#000000"> &#160;privilege : String &#160;</text>
</a>
</g>
<polygon fill="#000000" stroke="#000000" points="226.9282,-469 226.9282,-469 340.9282,-469 340.9282,-469 226.9282,-469"/>
<polygon fill="none" stroke="#000000" points="226.9282,-450 226.9282,-492 340.9282,-492 340.9282,-450 226.9282,-450"/>
</a>
</g>
</g>
<!-- Employee&#45;&gt;Privilege -->
<g id="edge9" class="edge">
<title>Employee&#45;&gt;Privilege</title>
<g id="a_edge9"><a xlink:title="Employee 1 &#160;&#45;&#45; 1..* &#160;Privilege">
<path fill="none" stroke="#000000" d="M238.6741,-396.2323C249.5893,-414.2662 262.1002,-434.9364 271.1971,-449.9661"/>
</a>
</g>
<text text-anchor="middle" x="258.9471" y="-438.7661" font-family="Times,serif" font-size="14.00" fill="#000000">1..* </text>
<text text-anchor="middle" x="233.4241" y="-399.0323" font-family="Times,serif" font-size="14.00" fill="#000000">1 </text>
</g>
<!-- Doctor -->
<g id="node6" class="node">
<title>Doctor</title>
<g id="a_node6"><a xlink:href="javascript:Action.selectClass(&quot;Doctor&quot;);" xlink:title="class Doctor&#10;Specialized employee who looks after patients.&#13;">
<text text-anchor="start" x="143.4902" y="-259.8" font-family="Times,serif" font-size="14.00" fill="#000000"> &#160;&#160;&#160;Doctor &#160;&#160;&#160;</text>
<polygon fill="none" stroke="#000000" points="132.9282,-246 132.9282,-282 220.9282,-282 220.9282,-246 132.9282,-246"/>
</a>
</g>
</g>
<!-- Doctor&#45;&gt;Employee -->
<g id="edge1" class="edge">
<title>Doctor&#45;&gt;Employee</title>
<path fill="none" stroke="#000000" d="M193.1788,-282.2819C201.6644,-291.8283 211.598,-303.0035 218.0637,-310.2775"/>
<polygon fill="none" stroke="#000000" points="215.6686,-312.8512 224.9282,-318 220.9005,-308.2006 215.6686,-312.8512"/>
</g>
<!-- Surgeon -->
<g id="node7" class="node">
<title>Surgeon</title>
<g id="a_node7"><a xlink:href="javascript:Action.selectClass(&quot;Surgeon&quot;);" xlink:title="class Surgeon&#10;Specialized doctor who performs advanced procedures on patients.&#13;">
<text text-anchor="start" x="139.7202" y="-184.8" font-family="Times,serif" font-size="14.00" fill="#000000"> &#160;&#160;&#160;Surgeon &#160;&#160;&#160;</text>
<polygon fill="none" stroke="#000000" points="128.9282,-171 128.9282,-207 224.9282,-207 224.9282,-171 128.9282,-171"/>
</a>
</g>
</g>
<!-- Surgeon&#45;&gt;Doctor -->
<g id="edge2" class="edge">
<title>Surgeon&#45;&gt;Doctor</title>
<path fill="none" stroke="#000000" d="M176.9282,-207.1554C176.9282,-215.6599 176.9282,-225.9924 176.9282,-235.5036"/>
<polygon fill="none" stroke="#000000" points="173.4283,-235.7518 176.9282,-245.7518 180.4283,-235.7519 173.4283,-235.7518"/>
</g>
<!-- Janitor -->
<g id="node8" class="node">
<title>Janitor</title>
<g id="a_node8"><a xlink:href="javascript:Action.selectClass(&quot;Janitor&quot;);" xlink:title="class Janitor&#10;Employee who maintains the cleanliness of the hospital.&#13;">
<text text-anchor="start" x="291.8764" y="-259.8" font-family="Times,serif" font-size="14.00" fill="#000000"> &#160;&#160;&#160;Janitor &#160;&#160;&#160;</text>
<polygon fill="none" stroke="#000000" points="280.9282,-246 280.9282,-282 368.9282,-282 368.9282,-246 280.9282,-246"/>
</a>
</g>
</g>
<!-- Janitor&#45;&gt;Employee -->
<g id="edge3" class="edge">
<title>Janitor&#45;&gt;Employee</title>
<path fill="none" stroke="#000000" d="M291.3514,-282.1314C271.1519,-293.0392 246.9294,-306.1194 234.044,-313.0775"/>
<polygon fill="none" stroke="#000000" points="232.0642,-310.1688 224.9282,-318 235.3903,-316.3281 232.0642,-310.1688"/>
</g>
<!-- Patient&#45;&gt;Doctor -->
<g id="edge10" class="edge">
<title>Patient&#45;&gt;Doctor</title>
<g id="a_edge10"><a xlink:title="Patient * &#160;&#45;&#45; * &#160;Doctor">
<path fill="none" stroke="#000000" d="M94.9869,-210.0913C112.1095,-221.3561 132.9725,-235.0818 149.3615,-245.864"/>
</a>
</g>
<text text-anchor="middle" x="144.1115" y="-234.664" font-family="Times,serif" font-size="14.00" fill="#000000">* </text>
<text text-anchor="middle" x="89.7369" y="-212.8913" font-family="Times,serif" font-size="14.00" fill="#000000">* </text>
</g>
</g>
</svg>
