<svg width="1320" height="389" xmlns="http://www.w3.org/2000/svg" xmlns:xlink="http://www.w3.org/1999/xlink" xml:space="preserve" overflow="hidden"><g transform="translate(-215 -701)"><g><text fill="#427898" fill-opacity="1" font-family="Arial,Arial_MSFontService,sans-serif" font-style="normal" font-variant="normal" font-weight="400" font-stretch="normal" font-size="183" text-anchor="start" direction="ltr" writing-mode="lr-tb" unicode-bidi="normal" text-decoration="none" transform="matrix(1 0 0 1 446.875 936)">mple</text><text fill="#427898" fill-opacity="1" font-family="Arial,Arial_MSFontService,sans-serif" font-style="normal" font-variant="normal" font-weight="400" font-stretch="normal" font-size="183" text-anchor="start" direction="ltr" writing-mode="lr-tb" unicode-bidi="normal" text-decoration="none" transform="matrix(1 0 0 1 894.896 936)">O</text><text fill="#427898" fill-opacity="1" font-family="Arial,Arial_MSFontService,sans-serif" font-style="normal" font-variant="normal" font-weight="400" font-stretch="normal" font-size="183" text-anchor="start" direction="ltr" writing-mode="lr-tb" unicode-bidi="normal" text-decoration="none" transform="matrix(1 0 0 1 1037.55 936)">nline</text><path d="M230.184 977C224.559 977 220 972.44 220 966.816L220 934.184C220 928.56 224.559 924 230.184 924L405.816 924C411.44 924 416 928.56 416 934.184L416 966.816C416 972.44 411.44 977 405.816 977Z" fill="#6B6B6B" fill-rule="evenodd" fill-opacity="1"/><path d="M219 743.184C219 737.559 223.56 733 229.184 733L261.816 733C267.44 733 272 737.559 272 743.184L272 966.816C272 972.44 267.44 977 261.816 977L229.184 977C223.56 977 219 972.44 219 966.816Z" fill="#6B3A3A" fill-rule="evenodd" fill-opacity="1"/><path d="M363 741.184C363 735.56 367.56 731 373.184 731L405.816 731C411.44 731 416 735.56 416 741.184L416 964.816C416 970.44 411.44 975 405.816 975L373.184 975C367.56 975 363 970.44 363 964.816Z" fill="#6B6B6B" fill-rule="evenodd" fill-opacity="1"/><path d="M363 924 373.184 924 385.84 924 393.16 924 405.816 924 416 924 416 934.184 416 951.362 416 966.816C416 972.44 411.44 977 405.816 977L393.16 977 373.184 977 363 977 363 966.816 363 934.184Z" fill="#6B3A3A" fill-rule="evenodd" fill-opacity="1"/><path d="M272 924 272 934.184 272 946.84 272 954.16 272 966.816 272 977 261.816 977 244.638 977 229.184 977C223.56 977 219 972.44 219 966.816L219 954.16 219 934.184 219 924 229.184 924 261.816 924Z" fill="#6B3A3A" fill-rule="evenodd" fill-opacity="1"/></g></g></svg>