<svg width="218" height="40" viewBox="190 760 1260 205" xmlns="http://www.w3.org/2000/svg" xmlns:xlink="http://www.w3.org/1999/xlink" xml:space="preserve" overflow="hidden">
  <g>
    <text fill="#6D7983" fill-opacity="1" font-family="Arial,Arial_MSFontService,sans-serif" font-style="normal" font-variant="normal" font-weight="400" font-stretch="normal" font-size="183" text-anchor="start" direction="ltr" writing-mode="lr-tb" unicode-bidi="normal" text-decoration="none" transform="matrix(1 0 0 1 419.375 931)">mple</text>
    <text fill="#6D7983" fill-opacity="1" font-family="Arial,Arial_MSFontService,sans-serif" font-style="normal" font-variant="normal" font-weight="400" font-stretch="normal" font-size="183" text-anchor="start" direction="ltr" writing-mode="lr-tb" unicode-bidi="normal" text-decoration="none" transform="matrix(1 0 0 1 867.969 931)">O</text>
    <text fill="#6D7983" fill-opacity="1" font-family="Arial,Arial_MSFontService,sans-serif" font-style="normal" font-variant="normal" font-weight="400" font-stretch="normal" font-size="183" text-anchor="start" direction="ltr" writing-mode="lr-tb" unicode-bidi="normal" text-decoration="none" transform="matrix(1 0 0 1 1010.62 931)">nline</text>
    <path d="M201.109 957C197.183 957 194 953.817 194 949.891L194 927.11C194 923.183 197.183 920 201.109 920L382.89 920C386.817 920 390 923.183 390 927.11L390 949.891C390 953.817 386.817 957 382.89 957Z" fill="#636D77" fill-rule="evenodd" fill-opacity="1" />
    <path d="M192 772.376C192 766.646 196.646 762 202.376 762L235.624 762C241.355 762 246 766.646 246 772.376L246 946.624C246 952.354 241.355 957 235.624 957L202.376 957C196.646 957 192 952.354 192 946.624Z" fill="#8F001A" fill-rule="evenodd" fill-opacity="1" />
    <path d="M337 772.184C337 766.56 341.559 762 347.184 762L379.816 762C385.441 762 390 766.56 390 772.184L390 946.816C390 952.44 385.441 957 379.816 957L347.184 957C341.559 957 337 952.44 337 946.816Z" fill="#636D77" fill-rule="evenodd" fill-opacity="1" />
    <path d="M337 920 347.184 920 359.84 920 367.16 920 379.816 920 390 920 390 927.109 390 939.102 390 949.891C390 953.817 385.441 957 379.816 957L367.16 957 347.184 957 337 957 337 949.891 337 927.109Z" fill="#8F001A" fill-rule="evenodd" fill-opacity="1" />
    <path d="M246 904 246 914.184 246 926.84 246 934.161 246 946.816 246 957 235.624 957 218.122 957 202.376 957C196.646 957 192 952.441 192 946.816L192 934.161 192 914.184 192 904 202.376 904 235.624 904Z" fill="#8F001A" fill-rule="evenodd" fill-opacity="1" />
  </g>
</svg>