<?xml version="1.0" encoding="UTF-8" standalone="no"?>
<!DOCTYPE svg PUBLIC "-//W3C//DTD SVG 1.1//EN"
 "http://www.w3.org/Graphics/SVG/1.1/DTD/svg11.dtd">
<!-- Generated by graphviz version 2.48.0 (20210717.1556)
 -->
<!-- Title: ApplicationProcessing Pages: 1 -->
<svg width="816pt" height="791pt"
 viewBox="0.00 0.00 816.00 791.40" xmlns="http://www.w3.org/2000/svg" xmlns:xlink="http://www.w3.org/1999/xlink">
<g id="graph0" class="graph" transform="scale(1 1) rotate(0) translate(4 787.4)">
<title>ApplicationProcessing</title>
<polygon fill="white" stroke="transparent" points="-4,4 -4,-787.4 812,-787.4 812,4 -4,4"/>
<!-- start_GrantApplication_status -->
<g id="node1" class="node">
<title>start_GrantApplication_status</title>
<g id="a_node1"><a xlink:title="Class GrantApplication, SM status, State start">
<ellipse fill="black" stroke="black" cx="81" cy="-776.2" rx="7.2" ry="7.2"/>
</a>
</g>
</g>
<!-- GrantApplication_status_Planned -->
<g id="node2" class="node">
<title>GrantApplication_status_Planned</title>
<g id="a_node2"><a xlink:title="Class GrantApplication, SM status, State Planned">
<path fill="none" stroke="black" d="M105,-732C105,-732 57,-732 57,-732 51,-732 45,-726 45,-720 45,-720 45,-708 45,-708 45,-702 51,-696 57,-696 57,-696 105,-696 105,-696 111,-696 117,-702 117,-708 117,-708 117,-720 117,-720 117,-726 111,-732 105,-732"/>
<text text-anchor="middle" x="81" y="-710.3" font-family="Times,serif" font-size="14.00">Planned</text>
</a>
</g>
</g>
<!-- start_GrantApplication_status&#45;&gt;GrantApplication_status_Planned -->
<g id="edge1" class="edge">
<title>start_GrantApplication_status&#45;&gt;GrantApplication_status_Planned</title>
<g id="a_edge1"><a xlink:title="start to Planned">
<path fill="none" stroke="black" d="M81,-768.76C81,-762.39 81,-752.2 81,-742.39"/>
<polygon fill="black" stroke="black" points="84.5,-742.1 81,-732.1 77.5,-742.1 84.5,-742.1"/>
</a>
</g>
</g>
<!-- GrantApplication_status_InProgress -->
<g id="node3" class="node">
<title>GrantApplication_status_InProgress</title>
<g id="a_node3"><a xlink:title="Class GrantApplication, SM status, State InProgress">
<path fill="none" stroke="black" d="M107,-645C107,-645 55,-645 55,-645 49,-645 43,-639 43,-633 43,-633 43,-621 43,-621 43,-615 49,-609 55,-609 55,-609 107,-609 107,-609 113,-609 119,-615 119,-621 119,-621 119,-633 119,-633 119,-639 113,-645 107,-645"/>
<text text-anchor="middle" x="81" y="-623.3" font-family="Times,serif" font-size="14.00">InProgress</text>
</a>
</g>
</g>
<!-- GrantApplication_status_Planned&#45;&gt;GrantApplication_status_InProgress -->
<g id="edge2" class="edge">
<title>GrantApplication_status_Planned&#45;&gt;GrantApplication_status_InProgress</title>
<g id="a_edge2"><a xlink:title="From Planned to InProgress on createApplication">
<path fill="none" stroke="black" d="M81,-695.8C81,-684.16 81,-668.55 81,-655.24"/>
<polygon fill="black" stroke="black" points="84.5,-655.18 81,-645.18 77.5,-655.18 84.5,-655.18"/>
</a>
</g>
<text text-anchor="middle" x="131" y="-666.8" font-family="Times,serif" font-size="14.00">createApplication</text>
</g>
<!-- GrantApplication_status_InProgress&#45;&gt;GrantApplication_status_InProgress -->
<g id="edge3" class="edge">
<title>GrantApplication_status_InProgress&#45;&gt;GrantApplication_status_InProgress</title>
<g id="a_edge3"><a xlink:title="From InProgress to InProgress on editByResearcher">
<path fill="none" stroke="black" d="M119.21,-634.81C129.33,-634.36 137,-631.76 137,-627 137,-624.03 134.01,-621.89 129.29,-620.61"/>
<polygon fill="black" stroke="black" points="129.6,-617.12 119.21,-619.19 128.63,-624.05 129.6,-617.12"/>
</a>
</g>
<text text-anchor="middle" x="187" y="-623.3" font-family="Times,serif" font-size="14.00">editByResearcher</text>
</g>
<!-- GrantApplication_status_EvaluationByInstitution -->
<g id="node4" class="node">
<title>GrantApplication_status_EvaluationByInstitution</title>
<g id="a_node4"><a xlink:title="Class GrantApplication, SM status, State EvaluationByInstitution">
<path fill="none" stroke="black" d="M414.5,-558C414.5,-558 287.5,-558 287.5,-558 281.5,-558 275.5,-552 275.5,-546 275.5,-546 275.5,-534 275.5,-534 275.5,-528 281.5,-522 287.5,-522 287.5,-522 414.5,-522 414.5,-522 420.5,-522 426.5,-528 426.5,-534 426.5,-534 426.5,-546 426.5,-546 426.5,-552 420.5,-558 414.5,-558"/>
<text text-anchor="middle" x="351" y="-536.3" font-family="Times,serif" font-size="14.00">EvaluationByInstitution</text>
</a>
</g>
</g>
<!-- GrantApplication_status_InProgress&#45;&gt;GrantApplication_status_EvaluationByInstitution -->
<g id="edge7" class="edge">
<title>GrantApplication_status_InProgress&#45;&gt;GrantApplication_status_EvaluationByInstitution</title>
<g id="a_edge7"><a xlink:title="From InProgress to EvaluationByInstitution on researcherDeclaresComplete">
<path fill="none" stroke="black" d="M119.18,-623.39C175.4,-619.02 277.23,-608.86 309,-591 319.44,-585.13 328.42,-575.59 335.36,-566.41"/>
<polygon fill="black" stroke="black" points="338.25,-568.38 341.15,-558.19 332.53,-564.35 338.25,-568.38"/>
</a>
</g>
<text text-anchor="middle" x="406.5" y="-579.8" font-family="Times,serif" font-size="14.00">researcherDeclaresComplete</text>
</g>
<!-- GrantApplication_status_EvaluationByInstitution&#45;&gt;GrantApplication_status_InProgress -->
<g id="edge4" class="edge">
<title>GrantApplication_status_EvaluationByInstitution&#45;&gt;GrantApplication_status_InProgress</title>
<g id="a_edge4"><a xlink:title="From EvaluationByInstitution to InProgress on returnToResearcher">
<path fill="none" stroke="black" d="M275.17,-555.53C250.32,-561.04 222.75,-567.95 198,-576 173.48,-583.97 147,-595.07 125.44,-604.79"/>
<polygon fill="black" stroke="black" points="123.86,-601.66 116.21,-608.99 126.76,-608.03 123.86,-601.66"/>
</a>
</g>
<text text-anchor="middle" x="253.5" y="-579.8" font-family="Times,serif" font-size="14.00">returnToResearcher</text>
</g>
<!-- GrantApplication_status_EvaluationByInstitution&#45;&gt;GrantApplication_status_EvaluationByInstitution -->
<g id="edge8" class="edge">
<title>GrantApplication_status_EvaluationByInstitution&#45;&gt;GrantApplication_status_EvaluationByInstitution</title>
<g id="a_edge8"><a xlink:title="From EvaluationByInstitution to EvaluationByInstitution on editByInstitution">
<path fill="none" stroke="black" d="M426.57,-547.07C437.3,-545.92 444.5,-543.57 444.5,-540 444.5,-537.71 441.55,-535.93 436.6,-534.64"/>
<polygon fill="black" stroke="black" points="437.02,-531.16 426.57,-532.93 435.85,-538.06 437.02,-531.16"/>
</a>
</g>
<text text-anchor="middle" x="492" y="-536.3" font-family="Times,serif" font-size="14.00">editByInstitution</text>
</g>
<!-- GrantApplication_status_VerifiedByInstitution -->
<g id="node5" class="node">
<title>GrantApplication_status_VerifiedByInstitution</title>
<g id="a_node5"><a xlink:title="Class GrantApplication, SM status, State VerifiedByInstitution">
<path fill="none" stroke="black" d="M472.5,-471C472.5,-471 361.5,-471 361.5,-471 355.5,-471 349.5,-465 349.5,-459 349.5,-459 349.5,-447 349.5,-447 349.5,-441 355.5,-435 361.5,-435 361.5,-435 472.5,-435 472.5,-435 478.5,-435 484.5,-441 484.5,-447 484.5,-447 484.5,-459 484.5,-459 484.5,-465 478.5,-471 472.5,-471"/>
<text text-anchor="middle" x="417" y="-449.3" font-family="Times,serif" font-size="14.00">VerifiedByInstitution</text>
</a>
</g>
</g>
<!-- GrantApplication_status_EvaluationByInstitution&#45;&gt;GrantApplication_status_VerifiedByInstitution -->
<g id="edge13" class="edge">
<title>GrantApplication_status_EvaluationByInstitution&#45;&gt;GrantApplication_status_VerifiedByInstitution</title>
<g id="a_edge13"><a xlink:title="From EvaluationByInstitution to VerifiedByInstitution on verified">
<path fill="none" stroke="black" d="M345.24,-521.59C342.95,-511.38 342.08,-498.63 348,-489 350.74,-484.54 354.25,-480.62 358.23,-477.19"/>
<polygon fill="black" stroke="black" points="360.41,-479.93 366.37,-471.17 356.25,-474.3 360.41,-479.93"/>
</a>
</g>
<text text-anchor="middle" x="369.5" y="-492.8" font-family="Times,serif" font-size="14.00">verified</text>
</g>
<!-- GrantApplication_status_VerifiedByInstitution&#45;&gt;GrantApplication_status_EvaluationByInstitution -->
<g id="edge9" class="edge">
<title>GrantApplication_status_VerifiedByInstitution&#45;&gt;GrantApplication_status_EvaluationByInstitution</title>
<g id="a_edge9"><a xlink:title="From VerifiedByInstitution to EvaluationByInstitution on reOpen">
<path fill="none" stroke="black" d="M411.73,-471.32C408.08,-481.49 402.53,-494.24 395,-504 391.88,-508.05 388.19,-511.91 384.3,-515.49"/>
<polygon fill="black" stroke="black" points="382,-512.84 376.66,-521.99 386.54,-518.17 382,-512.84"/>
</a>
</g>
<text text-anchor="middle" x="424" y="-492.8" font-family="Times,serif" font-size="14.00">reOpen</text>
</g>
<!-- GrantApplication_status_SubmittedByInstitution -->
<g id="node6" class="node">
<title>GrantApplication_status_SubmittedByInstitution</title>
<g id="a_node6"><a xlink:title="Class GrantApplication, SM status, State SubmittedByInstitution">
<path fill="none" stroke="black" d="M269,-384C269,-384 145,-384 145,-384 139,-384 133,-378 133,-372 133,-372 133,-360 133,-360 133,-354 139,-348 145,-348 145,-348 269,-348 269,-348 275,-348 281,-354 281,-360 281,-360 281,-372 281,-372 281,-378 275,-384 269,-384"/>
<text text-anchor="middle" x="207" y="-362.3" font-family="Times,serif" font-size="14.00">SubmittedByInstitution</text>
</a>
</g>
</g>
<!-- GrantApplication_status_VerifiedByInstitution&#45;&gt;GrantApplication_status_SubmittedByInstitution -->
<g id="edge14" class="edge">
<title>GrantApplication_status_VerifiedByInstitution&#45;&gt;GrantApplication_status_SubmittedByInstitution</title>
<g id="a_edge14"><a xlink:title="From VerifiedByInstitution to SubmittedByInstitution on submit">
<path fill="none" stroke="black" d="M374.76,-434.9C341.22,-421.33 294.2,-402.29 258.47,-387.83"/>
<polygon fill="black" stroke="black" points="259.76,-384.58 249.18,-384.07 257.13,-391.07 259.76,-384.58"/>
</a>
</g>
<text text-anchor="middle" x="343.5" y="-405.8" font-family="Times,serif" font-size="14.00">submit</text>
</g>
<!-- GrantApplication_status_SubmittedByInstitution&#45;&gt;GrantApplication_status_EvaluationByInstitution -->
<g id="edge10" class="edge">
<title>GrantApplication_status_SubmittedByInstitution&#45;&gt;GrantApplication_status_EvaluationByInstitution</title>
<g id="a_edge10"><a xlink:title="From SubmittedByInstitution to EvaluationByInstitution on submissionCheck&#13;Guard: &#160;[!adminCheckOk]">
<path fill="none" stroke="black" d="M180.91,-384.17C152.55,-404.99 114.04,-441.02 136,-471 165.53,-511.31 219.06,-528.33 265.31,-535.26"/>
<polygon fill="black" stroke="black" points="264.98,-538.75 275.37,-536.63 265.93,-531.81 264.98,-538.75"/>
</a>
</g>
<text text-anchor="middle" x="238.5" y="-449.3" font-family="Times,serif" font-size="14.00">submissionCheck [!adminCheckOk]</text>
</g>
<!-- GrantApplication_status_SubmittedByInstitution&#45;&gt;GrantApplication_status_SubmittedByInstitution -->
<g id="edge15" class="edge">
<title>GrantApplication_status_SubmittedByInstitution&#45;&gt;GrantApplication_status_SubmittedByInstitution</title>
<g id="a_edge15"><a xlink:title="From SubmittedByInstitution to SubmittedByInstitution on submissionCheck&#13;Guard: &#160;[adminCheckOk]">
<path fill="none" stroke="black" d="M281.36,-373.07C291.92,-371.92 299,-369.57 299,-366 299,-363.71 296.09,-361.93 291.23,-360.64"/>
<polygon fill="black" stroke="black" points="291.81,-357.18 281.36,-358.93 290.62,-364.08 291.81,-357.18"/>
</a>
</g>
<text text-anchor="middle" x="399" y="-362.3" font-family="Times,serif" font-size="14.00">submissionCheck [adminCheckOk]</text>
</g>
<!-- GrantApplication_status_UnderAdministrativeReview -->
<g id="node7" class="node">
<title>GrantApplication_status_UnderAdministrativeReview</title>
<g id="a_node7"><a xlink:title="Class GrantApplication, SM status, State UnderAdministrativeReview">
<path fill="none" stroke="black" d="M334,-297C334,-297 180,-297 180,-297 174,-297 168,-291 168,-285 168,-285 168,-273 168,-273 168,-267 174,-261 180,-261 180,-261 334,-261 334,-261 340,-261 346,-267 346,-273 346,-273 346,-285 346,-285 346,-291 340,-297 334,-297"/>
<text text-anchor="middle" x="257" y="-275.3" font-family="Times,serif" font-size="14.00">UnderAdministrativeReview</text>
</a>
</g>
</g>
<!-- GrantApplication_status_SubmittedByInstitution&#45;&gt;GrantApplication_status_UnderAdministrativeReview -->
<g id="edge16" class="edge">
<title>GrantApplication_status_SubmittedByInstitution&#45;&gt;GrantApplication_status_UnderAdministrativeReview</title>
<g id="a_edge16"><a xlink:title="From SubmittedByInstitution to UnderAdministrativeReview on acceptForReview">
<path fill="none" stroke="black" d="M217.12,-347.8C224.17,-335.82 233.7,-319.62 241.67,-306.06"/>
<polygon fill="black" stroke="black" points="244.84,-307.57 246.9,-297.18 238.81,-304.02 244.84,-307.57"/>
</a>
</g>
<text text-anchor="middle" x="284" y="-318.8" font-family="Times,serif" font-size="14.00">acceptForReview</text>
</g>
<!-- GrantApplication_status_Withdrawn -->
<g id="node12" class="node">
<title>GrantApplication_status_Withdrawn</title>
<g id="a_node12"><a xlink:title="Class GrantApplication, SM status, State Withdrawn">
<path fill="none" stroke="black" d="M159.5,-123C159.5,-123 104.5,-123 104.5,-123 98.5,-123 92.5,-117 92.5,-111 92.5,-111 92.5,-99 92.5,-99 92.5,-93 98.5,-87 104.5,-87 104.5,-87 159.5,-87 159.5,-87 165.5,-87 171.5,-93 171.5,-99 171.5,-99 171.5,-111 171.5,-111 171.5,-117 165.5,-123 159.5,-123"/>
<text text-anchor="middle" x="132" y="-101.3" font-family="Times,serif" font-size="14.00">Withdrawn</text>
</a>
</g>
</g>
<!-- GrantApplication_status_SubmittedByInstitution&#45;&gt;GrantApplication_status_Withdrawn -->
<g id="edge22" class="edge">
<title>GrantApplication_status_SubmittedByInstitution&#45;&gt;GrantApplication_status_Withdrawn</title>
<g id="a_edge22"><a xlink:title="From SubmittedByInstitution to Withdrawn on withdraw">
<path fill="none" stroke="black" d="M188.68,-347.68C166.94,-325.74 131.9,-285.62 118,-243 106.04,-206.32 114.72,-161.44 122.78,-133.28"/>
<polygon fill="black" stroke="black" points="126.23,-133.94 125.79,-123.35 119.53,-131.91 126.23,-133.94"/>
</a>
</g>
<text text-anchor="middle" x="144.5" y="-231.8" font-family="Times,serif" font-size="14.00">withdraw</text>
</g>
<!-- GrantApplication_status_UnderAdministrativeReview&#45;&gt;GrantApplication_status_EvaluationByInstitution -->
<g id="edge11" class="edge">
<title>GrantApplication_status_UnderAdministrativeReview&#45;&gt;GrantApplication_status_EvaluationByInstitution</title>
<g id="a_edge11"><a xlink:title="From UnderAdministrativeReview to EvaluationByInstitution on returnToInstitition">
<path fill="none" stroke="black" d="M346.1,-292.55C409.96,-303.58 488.08,-321.96 508,-348 541.43,-391.7 522.7,-424.06 494,-471 480.58,-492.95 457.86,-507.94 434.44,-518.12"/>
<polygon fill="black" stroke="black" points="433.04,-514.91 425.1,-521.93 435.68,-521.4 433.04,-514.91"/>
</a>
</g>
<text text-anchor="middle" x="576.5" y="-405.8" font-family="Times,serif" font-size="14.00">returnToInstitition</text>
</g>
<!-- GrantApplication_status_UnderExpertReview -->
<g id="node8" class="node">
<title>GrantApplication_status_UnderExpertReview</title>
<g id="a_node8"><a xlink:title="Class GrantApplication, SM status, State UnderExpertReview">
<path fill="none" stroke="black" d="M340,-210C340,-210 232,-210 232,-210 226,-210 220,-204 220,-198 220,-198 220,-186 220,-186 220,-180 226,-174 232,-174 232,-174 340,-174 340,-174 346,-174 352,-180 352,-186 352,-186 352,-198 352,-198 352,-204 346,-210 340,-210"/>
<text text-anchor="middle" x="286" y="-188.3" font-family="Times,serif" font-size="14.00">UnderExpertReview</text>
</a>
</g>
</g>
<!-- GrantApplication_status_UnderAdministrativeReview&#45;&gt;GrantApplication_status_UnderExpertReview -->
<g id="edge17" class="edge">
<title>GrantApplication_status_UnderAdministrativeReview&#45;&gt;GrantApplication_status_UnderExpertReview</title>
<g id="a_edge17"><a xlink:title="From UnderAdministrativeReview to UnderExpertReview on acceptForExpertReview">
<path fill="none" stroke="black" d="M254.66,-260.84C253.97,-250.95 254.22,-238.45 258,-228 259.2,-224.68 260.86,-221.44 262.77,-218.35"/>
<polygon fill="black" stroke="black" points="265.69,-220.29 268.66,-210.12 260,-216.21 265.69,-220.29"/>
</a>
</g>
<text text-anchor="middle" x="326" y="-231.8" font-family="Times,serif" font-size="14.00">acceptForExpertReview</text>
</g>
<!-- GrantApplication_status_AwaitingFinalDecision -->
<g id="node9" class="node">
<title>GrantApplication_status_AwaitingFinalDecision</title>
<g id="a_node9"><a xlink:title="Class GrantApplication, SM status, State AwaitingFinalDecision">
<path fill="none" stroke="black" d="M336,-123C336,-123 214,-123 214,-123 208,-123 202,-117 202,-111 202,-111 202,-99 202,-99 202,-93 208,-87 214,-87 214,-87 336,-87 336,-87 342,-87 348,-93 348,-99 348,-99 348,-111 348,-111 348,-117 342,-123 336,-123"/>
<text text-anchor="middle" x="275" y="-101.3" font-family="Times,serif" font-size="14.00">AwaitingFinalDecision</text>
</a>
</g>
</g>
<!-- GrantApplication_status_UnderAdministrativeReview&#45;&gt;GrantApplication_status_AwaitingFinalDecision -->
<g id="edge18" class="edge">
<title>GrantApplication_status_UnderAdministrativeReview&#45;&gt;GrantApplication_status_AwaitingFinalDecision</title>
<g id="a_edge18"><a xlink:title="From UnderAdministrativeReview to AwaitingFinalDecision on bypassExpertReviewDueToMinorChanges">
<path fill="none" stroke="black" d="M346.2,-264.03C368.07,-258.72 387.19,-251.77 394,-243 421.81,-207.2 421.16,-177.3 394,-141 384.99,-128.95 372.03,-120.87 357.95,-115.49"/>
<polygon fill="black" stroke="black" points="358.65,-112.04 348.06,-112.19 356.43,-118.68 358.65,-112.04"/>
</a>
</g>
<text text-anchor="middle" x="534" y="-188.3" font-family="Times,serif" font-size="14.00">bypassExpertReviewDueToMinorChanges</text>
</g>
<!-- GrantApplication_status_UnderAdministrativeReview&#45;&gt;GrantApplication_status_Withdrawn -->
<g id="edge23" class="edge">
<title>GrantApplication_status_UnderAdministrativeReview&#45;&gt;GrantApplication_status_Withdrawn</title>
<g id="a_edge23"><a xlink:title="From UnderAdministrativeReview to Withdrawn on withdraw">
<path fill="none" stroke="black" d="M219.9,-260.98C198.75,-249.45 173.46,-232.27 158,-210 142.22,-187.27 136,-155.87 133.56,-133.53"/>
<polygon fill="black" stroke="black" points="137.02,-133.01 132.64,-123.37 130.05,-133.64 137.02,-133.01"/>
</a>
</g>
<text text-anchor="middle" x="184.5" y="-188.3" font-family="Times,serif" font-size="14.00">withdraw</text>
</g>
<!-- GrantApplication_status_UnderExpertReview&#45;&gt;GrantApplication_status_AwaitingFinalDecision -->
<g id="edge19" class="edge">
<title>GrantApplication_status_UnderExpertReview&#45;&gt;GrantApplication_status_AwaitingFinalDecision</title>
<g id="a_edge19"><a xlink:title="From UnderExpertReview to AwaitingFinalDecision on expertReviewsReturned">
<path fill="none" stroke="black" d="M269.19,-173.82C265.05,-168.53 261.18,-162.39 259,-156 256.42,-148.44 257.48,-140.2 259.99,-132.63"/>
<polygon fill="black" stroke="black" points="263.32,-133.75 263.95,-123.18 256.86,-131.05 263.32,-133.75"/>
</a>
</g>
<text text-anchor="middle" x="326.5" y="-144.8" font-family="Times,serif" font-size="14.00">expertReviewsReturned</text>
</g>
<!-- GrantApplication_status_UnderExpertReview&#45;&gt;GrantApplication_status_Withdrawn -->
<g id="edge24" class="edge">
<title>GrantApplication_status_UnderExpertReview&#45;&gt;GrantApplication_status_Withdrawn</title>
<g id="a_edge24"><a xlink:title="From UnderExpertReview to Withdrawn on withdraw">
<path fill="none" stroke="black" d="M238.15,-173.97C225.45,-168.8 211.96,-162.69 200,-156 186.42,-148.4 172.4,-138.5 160.65,-129.51"/>
<polygon fill="black" stroke="black" points="162.56,-126.57 152.53,-123.18 158.26,-132.09 162.56,-126.57"/>
</a>
</g>
<text text-anchor="middle" x="226.5" y="-144.8" font-family="Times,serif" font-size="14.00">withdraw</text>
</g>
<!-- GrantApplication_status_AwaitingFinalDecision&#45;&gt;GrantApplication_status_EvaluationByInstitution -->
<g id="edge12" class="edge">
<title>GrantApplication_status_AwaitingFinalDecision&#45;&gt;GrantApplication_status_EvaluationByInstitution</title>
<g id="a_edge12"><a xlink:title="From AwaitingFinalDecision to EvaluationByInstitution on minorRevisionsNeeded">
<path fill="none" stroke="black" d="M348.08,-106.73C463.75,-109.9 676,-124.73 676,-191 676,-454 676,-454 676,-454 676,-503.5 533.11,-524.73 436.83,-533.41"/>
<polygon fill="black" stroke="black" points="436.45,-529.93 426.79,-534.29 437.05,-536.9 436.45,-529.93"/>
</a>
</g>
<text text-anchor="middle" x="742" y="-318.8" font-family="Times,serif" font-size="14.00">minorRevisionsNeeded</text>
</g>
<!-- GrantApplication_status_Accepted -->
<g id="node10" class="node">
<title>GrantApplication_status_Accepted</title>
<g id="a_node10"><a xlink:title="Class GrantApplication, SM status, State Accepted">
<path fill="none" stroke="black" d="M299,-36C299,-36 251,-36 251,-36 245,-36 239,-30 239,-24 239,-24 239,-12 239,-12 239,-6 245,0 251,0 251,0 299,0 299,0 305,0 311,-6 311,-12 311,-12 311,-24 311,-24 311,-30 305,-36 299,-36"/>
<text text-anchor="middle" x="275" y="-14.3" font-family="Times,serif" font-size="14.00">Accepted</text>
</a>
</g>
</g>
<!-- GrantApplication_status_AwaitingFinalDecision&#45;&gt;GrantApplication_status_Accepted -->
<g id="edge20" class="edge">
<title>GrantApplication_status_AwaitingFinalDecision&#45;&gt;GrantApplication_status_Accepted</title>
<g id="a_edge20"><a xlink:title="From AwaitingFinalDecision to Accepted on finalAccept">
<path fill="none" stroke="black" d="M275,-86.8C275,-75.16 275,-59.55 275,-46.24"/>
<polygon fill="black" stroke="black" points="278.5,-46.18 275,-36.18 271.5,-46.18 278.5,-46.18"/>
</a>
</g>
<text text-anchor="middle" x="307.5" y="-57.8" font-family="Times,serif" font-size="14.00">finalAccept</text>
</g>
<!-- GrantApplication_status_Rejected -->
<g id="node11" class="node">
<title>GrantApplication_status_Rejected</title>
<g id="a_node11"><a xlink:title="Class GrantApplication, SM status, State Rejected">
<path fill="none" stroke="black" d="M125,-36C125,-36 77,-36 77,-36 71,-36 65,-30 65,-24 65,-24 65,-12 65,-12 65,-6 71,0 77,0 77,0 125,0 125,0 131,0 137,-6 137,-12 137,-12 137,-24 137,-24 137,-30 131,-36 125,-36"/>
<text text-anchor="middle" x="101" y="-14.3" font-family="Times,serif" font-size="14.00">Rejected</text>
</a>
</g>
</g>
<!-- GrantApplication_status_AwaitingFinalDecision&#45;&gt;GrantApplication_status_Rejected -->
<g id="edge21" class="edge">
<title>GrantApplication_status_AwaitingFinalDecision&#45;&gt;GrantApplication_status_Rejected</title>
<g id="a_edge21"><a xlink:title="From AwaitingFinalDecision to Rejected on reject">
<path fill="none" stroke="black" d="M239.79,-86.8C212.46,-73.45 174.41,-54.86 145.06,-40.52"/>
<polygon fill="black" stroke="black" points="146.38,-37.27 135.86,-36.03 143.31,-43.56 146.38,-37.27"/>
</a>
</g>
<text text-anchor="middle" x="215" y="-57.8" font-family="Times,serif" font-size="14.00">reject</text>
</g>
<!-- GrantApplication_status_Rejected&#45;&gt;GrantApplication_status_InProgress -->
<g id="edge5" class="edge">
<title>GrantApplication_status_Rejected&#45;&gt;GrantApplication_status_InProgress</title>
<g id="a_edge5"><a xlink:title="From Rejected to InProgress on tryAgain">
<path fill="none" stroke="black" d="M64.82,-32.31C35.84,-45.58 0,-69.05 0,-104 0,-541 0,-541 0,-541 0,-567.16 20.35,-588.45 40.65,-603.18"/>
<polygon fill="black" stroke="black" points="38.76,-606.13 48.99,-608.89 42.72,-600.35 38.76,-606.13"/>
</a>
</g>
<text text-anchor="middle" x="25" y="-318.8" font-family="Times,serif" font-size="14.00">tryAgain</text>
</g>
<!-- GrantApplication_status_Withdrawn&#45;&gt;GrantApplication_status_InProgress -->
<g id="edge6" class="edge">
<title>GrantApplication_status_Withdrawn&#45;&gt;GrantApplication_status_InProgress</title>
<g id="a_edge6"><a xlink:title="From Withdrawn to InProgress on tryAgain">
<path fill="none" stroke="black" d="M107.05,-123.15C88,-138.48 65,-162.81 65,-191 65,-541 65,-541 65,-541 65,-560.59 69.15,-582.28 73.23,-598.85"/>
<polygon fill="black" stroke="black" points="69.94,-600.12 75.85,-608.92 76.72,-598.36 69.94,-600.12"/>
</a>
</g>
<text text-anchor="middle" x="90" y="-362.3" font-family="Times,serif" font-size="14.00">tryAgain</text>
</g>
</g>
</svg>
