<?xml version="1.0" encoding="UTF-8" standalone="no"?>
<!DOCTYPE svg PUBLIC "-//W3C//DTD SVG 1.1//EN"
 "http://www.w3.org/Graphics/SVG/1.1/DTD/svg11.dtd">
<!-- Generated by graphviz version 2.48.0 (20210717.1556)
 -->
<!-- Title: Ball_Game Pages: 1 -->
<svg width="1044pt" height="443pt"
 viewBox="0.00 0.00 1043.50 443.40" xmlns="http://www.w3.org/2000/svg" xmlns:xlink="http://www.w3.org/1999/xlink">
<g id="graph0" class="graph" transform="scale(1 1) rotate(0) translate(4 439.4)">
<title>Ball_Game</title>
<polygon fill="white" stroke="transparent" points="-4,4 -4,-439.4 1039.5,-439.4 1039.5,4 -4,4"/>
<!-- start_Ball_Game_ball_Status -->
<g id="node1" class="node">
<title>start_Ball_Game_ball_Status</title>
<g id="a_node1"><a xlink:title="Class Ball_Game, SM ball_Status, State start">
<ellipse fill="black" stroke="black" cx="430.5" cy="-428.2" rx="7.2" ry="7.2"/>
</a>
</g>
</g>
<!-- Ball_Game_ball_Status_NoBall -->
<g id="node2" class="node">
<title>Ball_Game_ball_Status_NoBall</title>
<g id="a_node2"><a xlink:title="Class Ball_Game, SM ball_Status, State NoBall">
<path fill="none" stroke="black" d="M454.5,-384C454.5,-384 406.5,-384 406.5,-384 400.5,-384 394.5,-378 394.5,-372 394.5,-372 394.5,-360 394.5,-360 394.5,-354 400.5,-348 406.5,-348 406.5,-348 454.5,-348 454.5,-348 460.5,-348 466.5,-354 466.5,-360 466.5,-360 466.5,-372 466.5,-372 466.5,-378 460.5,-384 454.5,-384"/>
<text text-anchor="middle" x="430.5" y="-362.3" font-family="Times,serif" font-size="14.00">NoBall</text>
</a>
</g>
</g>
<!-- start_Ball_Game_ball_Status&#45;&gt;Ball_Game_ball_Status_NoBall -->
<g id="edge1" class="edge">
<title>start_Ball_Game_ball_Status&#45;&gt;Ball_Game_ball_Status_NoBall</title>
<g id="a_edge1"><a xlink:title="start to NoBall">
<path fill="none" stroke="black" d="M430.5,-420.76C430.5,-414.39 430.5,-404.2 430.5,-394.39"/>
<polygon fill="black" stroke="black" points="434,-394.1 430.5,-384.1 427,-394.1 434,-394.1"/>
</a>
</g>
</g>
<!-- Ball_Game_ball_Status_Initialized -->
<g id="node3" class="node">
<title>Ball_Game_ball_Status_Initialized</title>
<g id="a_node3"><a xlink:title="Class Ball_Game, SM ball_Status, State Initialized">
<path fill="none" stroke="black" d="M455,-297C455,-297 406,-297 406,-297 400,-297 394,-291 394,-285 394,-285 394,-273 394,-273 394,-267 400,-261 406,-261 406,-261 455,-261 455,-261 461,-261 467,-267 467,-273 467,-273 467,-285 467,-285 467,-291 461,-297 455,-297"/>
<text text-anchor="middle" x="430.5" y="-275.3" font-family="Times,serif" font-size="14.00">Initialized</text>
</a>
</g>
</g>
<!-- Ball_Game_ball_Status_NoBall&#45;&gt;Ball_Game_ball_Status_Initialized -->
<g id="edge2" class="edge">
<title>Ball_Game_ball_Status_NoBall&#45;&gt;Ball_Game_ball_Status_Initialized</title>
<g id="a_edge2"><a xlink:title="From NoBall to Initialized on startGame">
<path fill="none" stroke="black" d="M430.5,-347.8C430.5,-336.16 430.5,-320.55 430.5,-307.24"/>
<polygon fill="black" stroke="black" points="434,-307.18 430.5,-297.18 427,-307.18 434,-307.18"/>
</a>
</g>
<text text-anchor="middle" x="459.5" y="-318.8" font-family="Times,serif" font-size="14.00">startGame</text>
</g>
<!-- Ball_Game_ball_Status_Moving -->
<g id="node5" class="node">
<title>Ball_Game_ball_Status_Moving</title>
<g id="a_node5"><a xlink:title="Class Ball_Game, SM ball_Status, State Moving&#13;Activity:&#10; &#160;&#160;moving();">
<path fill="none" stroke="black" d="M454.5,-210C454.5,-210 406.5,-210 406.5,-210 400.5,-210 394.5,-204 394.5,-198 394.5,-198 394.5,-186 394.5,-186 394.5,-180 400.5,-174 406.5,-174 406.5,-174 454.5,-174 454.5,-174 460.5,-174 466.5,-180 466.5,-186 466.5,-186 466.5,-198 466.5,-198 466.5,-204 460.5,-210 454.5,-210"/>
<text text-anchor="middle" x="430.5" y="-188.3" font-family="Times,serif" font-size="14.00">Moving</text>
</a>
</g>
</g>
<!-- Ball_Game_ball_Status_Initialized&#45;&gt;Ball_Game_ball_Status_Moving -->
<g id="edge4" class="edge">
<title>Ball_Game_ball_Status_Initialized&#45;&gt;Ball_Game_ball_Status_Moving</title>
<g id="a_edge4"><a xlink:title="From Initialized to Moving on mouseClick">
<path fill="none" stroke="black" d="M430.5,-260.8C430.5,-249.16 430.5,-233.55 430.5,-220.24"/>
<polygon fill="black" stroke="black" points="434,-220.18 430.5,-210.18 427,-220.18 434,-220.18"/>
</a>
</g>
<text text-anchor="middle" x="464" y="-231.8" font-family="Times,serif" font-size="14.00">mouseClick</text>
</g>
<!-- Ball_Game_ball_Status_BehindPaddle -->
<g id="node4" class="node">
<title>Ball_Game_ball_Status_BehindPaddle</title>
<g id="a_node4"><a xlink:title="Class Ball_Game, SM ball_Status, State BehindPaddle&#13;Entry:&#10; &#160;&#160;PlayTune();&#13;Entry:&#10; &#160;&#160;decrementBalls(1,bar);">
<path fill="none" stroke="black" d="M83,-123C83,-123 12,-123 12,-123 6,-123 0,-117 0,-111 0,-111 0,-99 0,-99 0,-93 6,-87 12,-87 12,-87 83,-87 83,-87 89,-87 95,-93 95,-99 95,-99 95,-111 95,-111 95,-117 89,-123 83,-123"/>
<text text-anchor="middle" x="47.5" y="-101.3" font-family="Times,serif" font-size="14.00">BehindPaddle</text>
</a>
</g>
</g>
<!-- Ball_Game_ball_Status_End -->
<g id="node9" class="node">
<title>Ball_Game_ball_Status_End</title>
<g id="a_node9"><a xlink:title="Class Ball_Game, SM ball_Status, State End&#13;Entry:&#10; &#160;&#160;displayGameOver();">
<path fill="none" stroke="black" d="M71.5,-36C71.5,-36 23.5,-36 23.5,-36 17.5,-36 11.5,-30 11.5,-24 11.5,-24 11.5,-12 11.5,-12 11.5,-6 17.5,0 23.5,0 23.5,0 71.5,0 71.5,0 77.5,0 83.5,-6 83.5,-12 83.5,-12 83.5,-24 83.5,-24 83.5,-30 77.5,-36 71.5,-36"/>
<text text-anchor="middle" x="47.5" y="-14.3" font-family="Times,serif" font-size="14.00">End</text>
</a>
</g>
</g>
<!-- Ball_Game_ball_Status_BehindPaddle&#45;&gt;Ball_Game_ball_Status_End -->
<g id="edge11" class="edge">
<title>Ball_Game_ball_Status_BehindPaddle&#45;&gt;Ball_Game_ball_Status_End</title>
<g id="a_edge11"><a xlink:title="From BehindPaddle to End on noMoreBalls">
<path fill="none" stroke="black" d="M47.5,-86.8C47.5,-75.16 47.5,-59.55 47.5,-46.24"/>
<polygon fill="black" stroke="black" points="51,-46.18 47.5,-36.18 44,-46.18 51,-46.18"/>
</a>
</g>
<text text-anchor="middle" x="84.5" y="-57.8" font-family="Times,serif" font-size="14.00">noMoreBalls</text>
</g>
<!-- Ball_Game_ball_Status_Moving&#45;&gt;Ball_Game_ball_Status_BehindPaddle -->
<g id="edge3" class="edge">
<title>Ball_Game_ball_Status_Moving&#45;&gt;Ball_Game_ball_Status_BehindPaddle</title>
<g id="a_edge3"><a xlink:title="From Moving to BehindPaddle on ballOut">
<path fill="none" stroke="black" d="M394.45,-189.87C306.59,-186.8 86.71,-177.07 61.5,-156 54.81,-150.41 51.18,-141.91 49.25,-133.5"/>
<polygon fill="black" stroke="black" points="52.68,-132.8 47.64,-123.48 45.77,-133.9 52.68,-132.8"/>
</a>
</g>
<text text-anchor="middle" x="82.5" y="-144.8" font-family="Times,serif" font-size="14.00">ballOut</text>
</g>
<!-- Ball_Game_ball_Status_HitsBrick -->
<g id="node6" class="node">
<title>Ball_Game_ball_Status_HitsBrick</title>
<g id="a_node6"><a xlink:title="Class Ball_Game, SM ball_Status, State HitsBrick&#13;Entry:&#10; &#160;&#160;playHitSound();&#13;Entry:&#10; &#160;&#160;increaseScore(1);&#13;Exit:&#10; &#160;&#160;calculateNewDirection();">
<path fill="none" stroke="black" d="M253.5,-123C253.5,-123 205.5,-123 205.5,-123 199.5,-123 193.5,-117 193.5,-111 193.5,-111 193.5,-99 193.5,-99 193.5,-93 199.5,-87 205.5,-87 205.5,-87 253.5,-87 253.5,-87 259.5,-87 265.5,-93 265.5,-99 265.5,-99 265.5,-111 265.5,-111 265.5,-117 259.5,-123 253.5,-123"/>
<text text-anchor="middle" x="229.5" y="-101.3" font-family="Times,serif" font-size="14.00">HitsBrick</text>
</a>
</g>
</g>
<!-- Ball_Game_ball_Status_Moving&#45;&gt;Ball_Game_ball_Status_HitsBrick -->
<g id="edge8" class="edge">
<title>Ball_Game_ball_Status_Moving&#45;&gt;Ball_Game_ball_Status_HitsBrick</title>
<g id="a_edge8"><a xlink:title="From Moving to HitsBrick automatically&#13;Guard: [ballPosition == brickPosition]">
<path fill="none" stroke="black" d="M394.46,-189.69C315.16,-186.44 131.05,-176.71 112.5,-156 88.81,-129.55 141,-116.61 183.12,-110.63"/>
<polygon fill="black" stroke="black" points="183.83,-114.07 193.28,-109.29 182.91,-107.13 183.83,-114.07"/>
</a>
</g>
<text text-anchor="middle" x="199.5" y="-144.8" font-family="Times,serif" font-size="14.00">[ballPosition == brickPosition]</text>
</g>
<!-- Ball_Game_ball_Status_HitsWall -->
<g id="node7" class="node">
<title>Ball_Game_ball_Status_HitsWall</title>
<g id="a_node7"><a xlink:title="Class Ball_Game, SM ball_Status, State HitsWall&#13;Entry:&#10; &#160;&#160;calculateNewDirection();">
<path fill="none" stroke="black" d="M553.5,-123C553.5,-123 505.5,-123 505.5,-123 499.5,-123 493.5,-117 493.5,-111 493.5,-111 493.5,-99 493.5,-99 493.5,-93 499.5,-87 505.5,-87 505.5,-87 553.5,-87 553.5,-87 559.5,-87 565.5,-93 565.5,-99 565.5,-99 565.5,-111 565.5,-111 565.5,-117 559.5,-123 553.5,-123"/>
<text text-anchor="middle" x="529.5" y="-101.3" font-family="Times,serif" font-size="14.00">HitsWall</text>
</a>
</g>
</g>
<!-- Ball_Game_ball_Status_Moving&#45;&gt;Ball_Game_ball_Status_HitsWall -->
<g id="edge9" class="edge">
<title>Ball_Game_ball_Status_Moving&#45;&gt;Ball_Game_ball_Status_HitsWall</title>
<g id="a_edge9"><a xlink:title="From Moving to HitsWall automatically&#13;Guard: [ballPossition == wallPosition]">
<path fill="none" stroke="black" d="M424.37,-173.75C421.84,-163.34 420.83,-150.34 427.5,-141 440.26,-123.13 462.75,-114.29 483.36,-109.95"/>
<polygon fill="black" stroke="black" points="484.06,-113.38 493.28,-108.16 482.82,-106.49 484.06,-113.38"/>
</a>
</g>
<text text-anchor="middle" x="515" y="-144.8" font-family="Times,serif" font-size="14.00">[ballPossition == wallPosition]</text>
</g>
<!-- Ball_Game_ball_Status_HitsPaddle -->
<g id="node8" class="node">
<title>Ball_Game_ball_Status_HitsPaddle</title>
<g id="a_node8"><a xlink:title="Class Ball_Game, SM ball_Status, State HitsPaddle&#13;Entry:&#10; &#160;&#160;calculateNewDirection();">
<path fill="none" stroke="black" d="M879.5,-123C879.5,-123 825.5,-123 825.5,-123 819.5,-123 813.5,-117 813.5,-111 813.5,-111 813.5,-99 813.5,-99 813.5,-93 819.5,-87 825.5,-87 825.5,-87 879.5,-87 879.5,-87 885.5,-87 891.5,-93 891.5,-99 891.5,-99 891.5,-111 891.5,-111 891.5,-117 885.5,-123 879.5,-123"/>
<text text-anchor="middle" x="852.5" y="-101.3" font-family="Times,serif" font-size="14.00">HitsPaddle</text>
</a>
</g>
</g>
<!-- Ball_Game_ball_Status_Moving&#45;&gt;Ball_Game_ball_Status_HitsPaddle -->
<g id="edge10" class="edge">
<title>Ball_Game_ball_Status_Moving&#45;&gt;Ball_Game_ball_Status_HitsPaddle</title>
<g id="a_edge10"><a xlink:title="From Moving to HitsPaddle automatically&#13;Guard: [ballPosition == paddlePosition]">
<path fill="none" stroke="black" d="M466.93,-190.01C521.5,-187.75 627.26,-180.32 713.5,-156 729.01,-151.63 731.5,-146.87 746.5,-141 764.93,-133.79 785.52,-126.77 803.61,-120.93"/>
<polygon fill="black" stroke="black" points="804.91,-124.18 813.38,-117.81 802.79,-117.52 804.91,-124.18"/>
</a>
</g>
<text text-anchor="middle" x="838" y="-144.8" font-family="Times,serif" font-size="14.00">[ballPosition == paddlePosition]</text>
</g>
<!-- Ball_Game_ball_Status_HitsBrick&#45;&gt;Ball_Game_ball_Status_Moving -->
<g id="edge5" class="edge">
<title>Ball_Game_ball_Status_HitsBrick&#45;&gt;Ball_Game_ball_Status_Moving</title>
<g id="a_edge5"><a xlink:title="From HitsBrick to Moving on directionUpdated">
<path fill="none" stroke="black" d="M257.82,-123.19C275.67,-133.56 299.44,-146.56 321.5,-156 341.67,-164.63 364.7,-172.32 384.38,-178.28"/>
<polygon fill="black" stroke="black" points="383.46,-181.66 394.04,-181.15 385.45,-174.95 383.46,-181.66"/>
</a>
</g>
<text text-anchor="middle" x="370.5" y="-144.8" font-family="Times,serif" font-size="14.00">directionUpdated</text>
</g>
<!-- Ball_Game_ball_Status_HitsWall&#45;&gt;Ball_Game_ball_Status_Moving -->
<g id="edge6" class="edge">
<title>Ball_Game_ball_Status_HitsWall&#45;&gt;Ball_Game_ball_Status_Moving</title>
<g id="a_edge6"><a xlink:title="From HitsWall to Moving on directionUpdated">
<path fill="none" stroke="black" d="M565.71,-115.03C592.43,-123.44 621.72,-137.46 606.5,-156 590.38,-175.65 523.31,-184.47 476.79,-188.28"/>
<polygon fill="black" stroke="black" points="476.32,-184.81 466.62,-189.06 476.86,-191.79 476.32,-184.81"/>
</a>
</g>
<text text-anchor="middle" x="660.5" y="-144.8" font-family="Times,serif" font-size="14.00">directionUpdated</text>
</g>
<!-- Ball_Game_ball_Status_HitsPaddle&#45;&gt;Ball_Game_ball_Status_Moving -->
<g id="edge7" class="edge">
<title>Ball_Game_ball_Status_HitsPaddle&#45;&gt;Ball_Game_ball_Status_Moving</title>
<g id="a_edge7"><a xlink:title="From HitsPaddle to Moving on directionUpdated">
<path fill="none" stroke="black" d="M891.64,-115.38C919.9,-123.92 950.35,-137.93 933.5,-156 902.74,-188.97 595.69,-191.54 476.99,-191.29"/>
<polygon fill="black" stroke="black" points="476.79,-187.79 466.77,-191.26 476.76,-194.79 476.79,-187.79"/>
</a>
</g>
<text text-anchor="middle" x="986.5" y="-144.8" font-family="Times,serif" font-size="14.00">directionUpdated</text>
</g>
</g>
</svg>
