<?xml version="1.0" encoding="UTF-8" standalone="no"?>
<!DOCTYPE svg PUBLIC "-//W3C//DTD SVG 1.1//EN"
 "http://www.w3.org/Graphics/SVG/1.1/DTD/svg11.dtd">
<!-- Generated by graphviz version 2.48.0 (20210717.1556)
 -->
<!-- Title: Booking Pages: 1 -->
<svg width="263pt" height="356pt"
 viewBox="0.00 0.00 262.50 356.40" xmlns="http://www.w3.org/2000/svg" xmlns:xlink="http://www.w3.org/1999/xlink">
<g id="graph0" class="graph" transform="scale(1 1) rotate(0) translate(4 352.4)">
<title>Booking</title>
<polygon fill="white" stroke="transparent" points="-4,4 -4,-352.4 258.5,-352.4 258.5,4 -4,4"/>
<!-- start_Booking_state -->
<g id="node1" class="node">
<title>start_Booking_state</title>
<g id="a_node1"><a xlink:title="Class Booking, SM state, State start">
<ellipse fill="black" stroke="black" cx="189.5" cy="-341.2" rx="7.2" ry="7.2"/>
</a>
</g>
</g>
<!-- Booking_state_newBooking -->
<g id="node2" class="node">
<title>Booking_state_newBooking</title>
<g id="a_node2"><a xlink:title="Class Booking, SM state, State newBooking">
<path fill="none" stroke="black" d="M221.5,-297C221.5,-297 157.5,-297 157.5,-297 151.5,-297 145.5,-291 145.5,-285 145.5,-285 145.5,-273 145.5,-273 145.5,-267 151.5,-261 157.5,-261 157.5,-261 221.5,-261 221.5,-261 227.5,-261 233.5,-267 233.5,-273 233.5,-273 233.5,-285 233.5,-285 233.5,-291 227.5,-297 221.5,-297"/>
<text text-anchor="middle" x="189.5" y="-275.3" font-family="Times,serif" font-size="14.00">newBooking</text>
</a>
</g>
</g>
<!-- start_Booking_state&#45;&gt;Booking_state_newBooking -->
<g id="edge1" class="edge">
<title>start_Booking_state&#45;&gt;Booking_state_newBooking</title>
<g id="a_edge1"><a xlink:title="start to newBooking">
<path fill="none" stroke="black" d="M189.5,-333.76C189.5,-327.39 189.5,-317.2 189.5,-307.39"/>
<polygon fill="black" stroke="black" points="193,-307.1 189.5,-297.1 186,-307.1 193,-307.1"/>
</a>
</g>
</g>
<!-- Booking_state_seatAssigned -->
<g id="node3" class="node">
<title>Booking_state_seatAssigned</title>
<g id="a_node3"><a xlink:title="Class Booking, SM state, State seatAssigned">
<path fill="none" stroke="black" d="M185.5,-210C185.5,-210 119.5,-210 119.5,-210 113.5,-210 107.5,-204 107.5,-198 107.5,-198 107.5,-186 107.5,-186 107.5,-180 113.5,-174 119.5,-174 119.5,-174 185.5,-174 185.5,-174 191.5,-174 197.5,-180 197.5,-186 197.5,-186 197.5,-198 197.5,-198 197.5,-204 191.5,-210 185.5,-210"/>
<text text-anchor="middle" x="152.5" y="-188.3" font-family="Times,serif" font-size="14.00">seatAssigned</text>
</a>
</g>
</g>
<!-- Booking_state_newBooking&#45;&gt;Booking_state_seatAssigned -->
<g id="edge2" class="edge">
<title>Booking_state_newBooking&#45;&gt;Booking_state_seatAssigned</title>
<g id="a_edge2"><a xlink:title="From newBooking to seatAssigned on assignSeat">
<path fill="none" stroke="black" d="M166.53,-260.93C161.3,-255.79 156.42,-249.72 153.5,-243 150.49,-236.07 149.41,-228.08 149.3,-220.54"/>
<polygon fill="black" stroke="black" points="152.8,-220.48 149.68,-210.35 145.81,-220.22 152.8,-220.48"/>
</a>
</g>
<text text-anchor="middle" x="183.5" y="-231.8" font-family="Times,serif" font-size="14.00">assignSeat</text>
</g>
<!-- Booking_state_cancelled -->
<g id="node5" class="node">
<title>Booking_state_cancelled</title>
<g id="a_node5"><a xlink:title="Class Booking, SM state, State cancelled">
<path fill="none" stroke="black" d="M187.5,-36C187.5,-36 139.5,-36 139.5,-36 133.5,-36 127.5,-30 127.5,-24 127.5,-24 127.5,-12 127.5,-12 127.5,-6 133.5,0 139.5,0 139.5,0 187.5,0 187.5,0 193.5,0 199.5,-6 199.5,-12 199.5,-12 199.5,-24 199.5,-24 199.5,-30 193.5,-36 187.5,-36"/>
<text text-anchor="middle" x="163.5" y="-14.3" font-family="Times,serif" font-size="14.00">cancelled</text>
</a>
</g>
</g>
<!-- Booking_state_newBooking&#45;&gt;Booking_state_cancelled -->
<g id="edge4" class="edge">
<title>Booking_state_newBooking&#45;&gt;Booking_state_cancelled</title>
<g id="a_edge4"><a xlink:title="From newBooking to cancelled on cancel">
<path fill="none" stroke="black" d="M204.21,-260.93C207.99,-255.54 211.54,-249.33 213.5,-243 224.12,-208.74 278.16,-353.31 198.5,-87 194.13,-72.4 186.65,-57.23 179.72,-44.93"/>
<polygon fill="black" stroke="black" points="182.65,-43.01 174.59,-36.14 176.61,-46.54 182.65,-43.01"/>
</a>
</g>
<text text-anchor="middle" x="236.5" y="-144.8" font-family="Times,serif" font-size="14.00">cancel</text>
</g>
<!-- Booking_state_checkedIn -->
<g id="node4" class="node">
<title>Booking_state_checkedIn</title>
<g id="a_node4"><a xlink:title="Class Booking, SM state, State checkedIn">
<path fill="none" stroke="black" d="M115.5,-123C115.5,-123 65.5,-123 65.5,-123 59.5,-123 53.5,-117 53.5,-111 53.5,-111 53.5,-99 53.5,-99 53.5,-93 59.5,-87 65.5,-87 65.5,-87 115.5,-87 115.5,-87 121.5,-87 127.5,-93 127.5,-99 127.5,-99 127.5,-111 127.5,-111 127.5,-117 121.5,-123 115.5,-123"/>
<text text-anchor="middle" x="90.5" y="-101.3" font-family="Times,serif" font-size="14.00">checkedIn</text>
</a>
</g>
</g>
<!-- Booking_state_seatAssigned&#45;&gt;Booking_state_checkedIn -->
<g id="edge3" class="edge">
<title>Booking_state_seatAssigned&#45;&gt;Booking_state_checkedIn</title>
<g id="a_edge3"><a xlink:title="From seatAssigned to checkedIn on checkIn">
<path fill="none" stroke="black" d="M122.31,-173.73C115.66,-168.74 109.21,-162.78 104.5,-156 99.85,-149.31 96.74,-141.11 94.66,-133.3"/>
<polygon fill="black" stroke="black" points="98.05,-132.43 92.48,-123.42 91.22,-133.94 98.05,-132.43"/>
</a>
</g>
<text text-anchor="middle" x="127" y="-144.8" font-family="Times,serif" font-size="14.00">checkIn</text>
</g>
<!-- Booking_state_seatAssigned&#45;&gt;Booking_state_cancelled -->
<g id="edge5" class="edge">
<title>Booking_state_seatAssigned&#45;&gt;Booking_state_cancelled</title>
<g id="a_edge5"><a xlink:title="From seatAssigned to cancelled on cancel">
<path fill="none" stroke="black" d="M153.59,-173.88C155.51,-144 159.46,-82.11 161.76,-46.27"/>
<polygon fill="black" stroke="black" points="165.26,-46.25 162.41,-36.05 158.28,-45.81 165.26,-46.25"/>
</a>
</g>
<text text-anchor="middle" x="176.5" y="-101.3" font-family="Times,serif" font-size="14.00">cancel</text>
</g>
<!-- Booking_state_checkedIn&#45;&gt;Booking_state_cancelled -->
<g id="edge6" class="edge">
<title>Booking_state_checkedIn&#45;&gt;Booking_state_cancelled</title>
<g id="a_edge6"><a xlink:title="From checkedIn to cancelled on cancel">
<path fill="none" stroke="black" d="M95.77,-86.99C99.55,-76.67 105.42,-63.68 113.5,-54 117.02,-49.78 121.17,-45.83 125.55,-42.22"/>
<polygon fill="black" stroke="black" points="127.75,-44.94 133.58,-36.1 123.51,-39.38 127.75,-44.94"/>
</a>
</g>
<text text-anchor="middle" x="131.5" y="-57.8" font-family="Times,serif" font-size="14.00">cancel</text>
</g>
<!-- Booking_state_completed -->
<g id="node6" class="node">
<title>Booking_state_completed</title>
<g id="a_node6"><a xlink:title="Class Booking, SM state, State completed">
<path fill="none" stroke="black" d="M63,-36C63,-36 12,-36 12,-36 6,-36 0,-30 0,-24 0,-24 0,-12 0,-12 0,-6 6,0 12,0 12,0 63,0 63,0 69,0 75,-6 75,-12 75,-12 75,-24 75,-24 75,-30 69,-36 63,-36"/>
<text text-anchor="middle" x="37.5" y="-14.3" font-family="Times,serif" font-size="14.00">completed</text>
</a>
</g>
</g>
<!-- Booking_state_checkedIn&#45;&gt;Booking_state_completed -->
<g id="edge7" class="edge">
<title>Booking_state_checkedIn&#45;&gt;Booking_state_completed</title>
<g id="a_edge7"><a xlink:title="From checkedIn to completed on complete">
<path fill="none" stroke="black" d="M55.13,-87C48.49,-82.14 42.41,-76.17 38.5,-69 34.79,-62.19 33.54,-54.04 33.5,-46.31"/>
<polygon fill="black" stroke="black" points="37,-46.39 34.06,-36.21 30.01,-46 37,-46.39"/>
</a>
</g>
<text text-anchor="middle" x="64.5" y="-57.8" font-family="Times,serif" font-size="14.00">complete</text>
</g>
</g>
</svg>
