<?xml version="1.0" encoding="UTF-8" standalone="no"?>
<!DOCTYPE svg PUBLIC "-//W3C//DTD SVG 1.1//EN"
 "http://www.w3.org/Graphics/SVG/1.1/DTD/svg11.dtd">
<!-- Generated by graphviz version 2.40.1 (20161225.0304)
 -->
<!-- Title: Booking Pages: 1 -->
<svg width="260pt" height="353pt"
 viewBox="0.00 0.00 259.90 353.40" xmlns="http://www.w3.org/2000/svg" xmlns:xlink="http://www.w3.org/1999/xlink">
<g id="graph0" class="graph" transform="scale(1 1) rotate(0) translate(4 349.4)">
<title>Booking</title>
<polygon fill="#ffffff" stroke="transparent" points="-4,4 -4,-349.4 255.9004,-349.4 255.9004,4 -4,4"/>
<!-- start_Booking_state -->
<g id="node1" class="node">
<title>start_Booking_state</title>
<g id="a_node1"><a xlink:title="Class Booking, SM state, State start">
<ellipse fill="#000000" stroke="#000000" cx="189.1553" cy="-338.2" rx="7.2" ry="7.2"/>
</a>
</g>
</g>
<!-- Booking_state_newBooking -->
<g id="node2" class="node">
<title>Booking_state_newBooking</title>
<g id="a_node2"><a xlink:title="Class Booking, SM state, State newBooking">
<path fill="none" stroke="#000000" d="M220.7082,-294C220.7082,-294 157.6024,-294 157.6024,-294 151.6024,-294 145.6024,-288 145.6024,-282 145.6024,-282 145.6024,-270 145.6024,-270 145.6024,-264 151.6024,-258 157.6024,-258 157.6024,-258 220.7082,-258 220.7082,-258 226.7082,-258 232.7082,-264 232.7082,-270 232.7082,-270 232.7082,-282 232.7082,-282 232.7082,-288 226.7082,-294 220.7082,-294"/>
<text text-anchor="middle" x="189.1553" y="-271.8" font-family="Times,serif" font-size="14.00" fill="#000000">newBooking</text>
</a>
</g>
</g>
<!-- start_Booking_state&#45;&gt;Booking_state_newBooking -->
<g id="edge1" class="edge">
<title>start_Booking_state&#45;&gt;Booking_state_newBooking</title>
<g id="a_edge1"><a xlink:title="start to newBooking">
<path fill="none" stroke="#000000" d="M189.1553,-330.5731C189.1553,-323.9503 189.1553,-313.9322 189.1553,-304.2795"/>
<polygon fill="#000000" stroke="#000000" points="192.6554,-304.1266 189.1553,-294.1266 185.6554,-304.1267 192.6554,-304.1266"/>
</a>
</g>
</g>
<!-- Booking_state_seatAssigned -->
<g id="node3" class="node">
<title>Booking_state_seatAssigned</title>
<g id="a_node3"><a xlink:title="Class Booking, SM state, State seatAssigned">
<path fill="none" stroke="#000000" d="M185.0313,-208C185.0313,-208 119.2792,-208 119.2792,-208 113.2792,-208 107.2792,-202 107.2792,-196 107.2792,-196 107.2792,-184 107.2792,-184 107.2792,-178 113.2792,-172 119.2792,-172 119.2792,-172 185.0313,-172 185.0313,-172 191.0313,-172 197.0313,-178 197.0313,-184 197.0313,-184 197.0313,-196 197.0313,-196 197.0313,-202 191.0313,-208 185.0313,-208"/>
<text text-anchor="middle" x="152.1553" y="-185.8" font-family="Times,serif" font-size="14.00" fill="#000000">seatAssigned</text>
</a>
</g>
</g>
<!-- Booking_state_newBooking&#45;&gt;Booking_state_seatAssigned -->
<g id="edge2" class="edge">
<title>Booking_state_newBooking&#45;&gt;Booking_state_seatAssigned</title>
<g id="a_edge2"><a xlink:title="From newBooking to seatAssigned on assignSeat">
<path fill="none" stroke="#000000" d="M165.7308,-257.9706C160.6199,-252.7723 155.8942,-246.6786 153.0518,-240 150.2192,-233.3446 149.1353,-225.7255 148.962,-218.4748"/>
<polygon fill="#000000" stroke="#000000" points="152.4665,-218.3691 149.2619,-208.2706 145.4695,-218.1634 152.4665,-218.3691"/>
</a>
</g>
<text text-anchor="middle" x="181.707" y="-228.8" font-family="Times,serif" font-size="14.00" fill="#000000">assignSeat</text>
</g>
<!-- Booking_state_cancelled -->
<g id="node5" class="node">
<title>Booking_state_cancelled</title>
<g id="a_node5"><a xlink:title="Class Booking, SM state, State cancelled">
<path fill="none" stroke="#000000" d="M186.1553,-36C186.1553,-36 138.1553,-36 138.1553,-36 132.1553,-36 126.1553,-30 126.1553,-24 126.1553,-24 126.1553,-12 126.1553,-12 126.1553,-6 132.1553,0 138.1553,0 138.1553,0 186.1553,0 186.1553,0 192.1553,0 198.1553,-6 198.1553,-12 198.1553,-12 198.1553,-24 198.1553,-24 198.1553,-30 192.1553,-36 186.1553,-36"/>
<text text-anchor="middle" x="162.1553" y="-13.8" font-family="Times,serif" font-size="14.00" fill="#000000">cancelled</text>
</a>
</g>
</g>
<!-- Booking_state_newBooking&#45;&gt;Booking_state_cancelled -->
<g id="edge4" class="edge">
<title>Booking_state_newBooking&#45;&gt;Booking_state_cancelled</title>
<g id="a_edge4"><a xlink:title="From newBooking to cancelled on cancel">
<path fill="none" stroke="#000000" d="M203.5056,-257.9312C207.0351,-252.4764 210.3249,-246.2647 212.1553,-240 222.3502,-205.1066 279.0256,-359.3156 197.1553,-86 192.9048,-71.8102 185.712,-57.0738 178.9485,-44.9621"/>
<polygon fill="#000000" stroke="#000000" points="181.9536,-43.1671 173.916,-36.2643 175.8947,-46.6728 181.9536,-43.1671"/>
</a>
</g>
<text text-anchor="middle" x="234.0278" y="-142.8" font-family="Times,serif" font-size="14.00" fill="#000000">cancel</text>
</g>
<!-- Booking_state_checkedIn -->
<g id="node4" class="node">
<title>Booking_state_checkedIn</title>
<g id="a_node4"><a xlink:title="Class Booking, SM state, State checkedIn">
<path fill="none" stroke="#000000" d="M113.6744,-122C113.6744,-122 64.6361,-122 64.6361,-122 58.6361,-122 52.6361,-116 52.6361,-110 52.6361,-110 52.6361,-98 52.6361,-98 52.6361,-92 58.6361,-86 64.6361,-86 64.6361,-86 113.6744,-86 113.6744,-86 119.6744,-86 125.6744,-92 125.6744,-98 125.6744,-98 125.6744,-110 125.6744,-110 125.6744,-116 119.6744,-122 113.6744,-122"/>
<text text-anchor="middle" x="89.1553" y="-99.8" font-family="Times,serif" font-size="14.00" fill="#000000">checkedIn</text>
</a>
</g>
</g>
<!-- Booking_state_seatAssigned&#45;&gt;Booking_state_checkedIn -->
<g id="edge3" class="edge">
<title>Booking_state_seatAssigned&#45;&gt;Booking_state_checkedIn</title>
<g id="a_edge3"><a xlink:title="From seatAssigned to checkedIn on checkIn">
<path fill="none" stroke="#000000" d="M121.5821,-171.8943C114.979,-166.8056 108.572,-160.7814 103.8516,-154 99.3739,-147.5674 96.2438,-139.7631 94.062,-132.2519"/>
<polygon fill="#000000" stroke="#000000" points="97.4148,-131.2283 91.637,-122.3475 90.6156,-132.893 97.4148,-131.2283"/>
</a>
</g>
<text text-anchor="middle" x="125.3071" y="-142.8" font-family="Times,serif" font-size="14.00" fill="#000000">checkIn</text>
</g>
<!-- Booking_state_seatAssigned&#45;&gt;Booking_state_cancelled -->
<g id="edge5" class="edge">
<title>Booking_state_seatAssigned&#45;&gt;Booking_state_cancelled</title>
<g id="a_edge5"><a xlink:title="From seatAssigned to cancelled on cancel">
<path fill="none" stroke="#000000" d="M153.2065,-171.9181C154.9471,-141.981 158.4403,-81.8972 160.51,-46.2989"/>
<polygon fill="#000000" stroke="#000000" points="164.0167,-46.2841 161.1031,-36.0977 157.0285,-45.8777 164.0167,-46.2841"/>
</a>
</g>
<text text-anchor="middle" x="175.0278" y="-99.8" font-family="Times,serif" font-size="14.00" fill="#000000">cancel</text>
</g>
<!-- Booking_state_checkedIn&#45;&gt;Booking_state_cancelled -->
<g id="edge6" class="edge">
<title>Booking_state_checkedIn&#45;&gt;Booking_state_cancelled</title>
<g id="a_edge6"><a xlink:title="From checkedIn to cancelled on cancel">
<path fill="none" stroke="#000000" d="M95.1163,-85.6122C98.9799,-75.5623 104.7333,-63.3044 112.4102,-54 115.759,-49.9412 119.6657,-46.1092 123.7908,-42.5675"/>
<polygon fill="#000000" stroke="#000000" points="126.2448,-45.0883 131.9032,-36.1309 121.894,-39.6046 126.2448,-45.0883"/>
</a>
</g>
<text text-anchor="middle" x="130.0278" y="-56.8" font-family="Times,serif" font-size="14.00" fill="#000000">cancel</text>
</g>
<!-- Booking_state_completed -->
<g id="node6" class="node">
<title>Booking_state_completed</title>
<g id="a_node6"><a xlink:title="Class Booking, SM state, State completed">
<path fill="none" stroke="#000000" d="M62.4665,-36C62.4665,-36 11.8441,-36 11.8441,-36 5.8441,-36 -.1559,-30 -.1559,-24 -.1559,-24 -.1559,-12 -.1559,-12 -.1559,-6 5.8441,0 11.8441,0 11.8441,0 62.4665,0 62.4665,0 68.4665,0 74.4665,-6 74.4665,-12 74.4665,-12 74.4665,-24 74.4665,-24 74.4665,-30 68.4665,-36 62.4665,-36"/>
<text text-anchor="middle" x="37.1553" y="-13.8" font-family="Times,serif" font-size="14.00" fill="#000000">completed</text>
</a>
</g>
</g>
<!-- Booking_state_checkedIn&#45;&gt;Booking_state_completed -->
<g id="edge7" class="edge">
<title>Booking_state_checkedIn&#45;&gt;Booking_state_completed</title>
<g id="a_edge7"><a xlink:title="From checkedIn to completed on complete">
<path fill="none" stroke="#000000" d="M53.6744,-85.878C47.3258,-80.9673 41.558,-75.0225 37.8447,-68 34.3694,-61.4275 33.1422,-53.6567 33.0478,-46.2251"/>
<polygon fill="#000000" stroke="#000000" points="36.55,-46.267 33.5525,-36.105 29.5587,-45.9182 36.55,-46.267"/>
</a>
</g>
<text text-anchor="middle" x="63.8105" y="-56.8" font-family="Times,serif" font-size="14.00" fill="#000000">complete</text>
</g>
</g>
</svg>
