<?xml version="1.0" encoding="UTF-8" standalone="no"?>
<!DOCTYPE svg PUBLIC "-//W3C//DTD SVG 1.1//EN"
 "http://www.w3.org/Graphics/SVG/1.1/DTD/svg11.dtd">
<!-- Generated by graphviz version 2.40.1 (20161225.0304)
 -->
<!-- Title: CarTransmission Pages: 1 -->
<svg width="807pt" height="496pt"
 viewBox="0.00 0.00 806.64 496.40" xmlns="http://www.w3.org/2000/svg" xmlns:xlink="http://www.w3.org/1999/xlink">
<g id="graph0" class="graph" transform="scale(1 1) rotate(0) translate(4 492.4)">
<title>CarTransmission</title>
<polygon fill="#ffffff" stroke="transparent" points="-4,4 -4,-492.4 802.6417,-492.4 802.6417,4 -4,4"/>
<g id="clust1" class="cluster">
<title>clusterCarTransmission_state_drive</title>
<path fill="none" stroke="#000000" d="M242.5587,-8C242.5587,-8 710.5587,-8 710.5587,-8 716.5587,-8 722.5587,-14 722.5587,-20 722.5587,-20 722.5587,-468.4 722.5587,-468.4 722.5587,-474.4 716.5587,-480.4 710.5587,-480.4 710.5587,-480.4 242.5587,-480.4 242.5587,-480.4 236.5587,-480.4 230.5587,-474.4 230.5587,-468.4 230.5587,-468.4 230.5587,-20 230.5587,-20 230.5587,-14 236.5587,-8 242.5587,-8"/>
<text text-anchor="middle" x="476.5587" y="-465.2" font-family="Times,serif" font-size="14.00" fill="#000000">drive</text>
</g>
<!-- start_CarTransmission_state -->
<g id="node1" class="node">
<title>start_CarTransmission_state</title>
<g id="a_node1"><a xlink:title="Class CarTransmission, SM state, State start">
<ellipse fill="#000000" stroke="#000000" cx="186.5587" cy="-443.2" rx="7.2" ry="7.2"/>
</a>
</g>
</g>
<!-- CarTransmission_state_neutral -->
<g id="node2" class="node">
<title>CarTransmission_state_neutral</title>
<g id="a_node2"><a xlink:title="Class CarTransmission, SM state, State neutral">
<path fill="none" stroke="#000000" d="M210.5587,-399C210.5587,-399 162.5587,-399 162.5587,-399 156.5587,-399 150.5587,-393 150.5587,-387 150.5587,-387 150.5587,-375 150.5587,-375 150.5587,-369 156.5587,-363 162.5587,-363 162.5587,-363 210.5587,-363 210.5587,-363 216.5587,-363 222.5587,-369 222.5587,-375 222.5587,-375 222.5587,-387 222.5587,-387 222.5587,-393 216.5587,-399 210.5587,-399"/>
<text text-anchor="middle" x="186.5587" y="-376.8" font-family="Times,serif" font-size="14.00" fill="#000000">neutral</text>
</a>
</g>
</g>
<!-- start_CarTransmission_state&#45;&gt;CarTransmission_state_neutral -->
<g id="edge1" class="edge">
<title>start_CarTransmission_state&#45;&gt;CarTransmission_state_neutral</title>
<g id="a_edge1"><a xlink:title="start to neutral">
<path fill="none" stroke="#000000" d="M186.5587,-435.5731C186.5587,-428.9503 186.5587,-418.9322 186.5587,-409.2795"/>
<polygon fill="#000000" stroke="#000000" points="190.0588,-409.1266 186.5587,-399.1266 183.0588,-409.1267 190.0588,-409.1266"/>
</a>
</g>
</g>
<!-- CarTransmission_state_reverse -->
<g id="node3" class="node">
<title>CarTransmission_state_reverse</title>
<g id="a_node3"><a xlink:title="Class CarTransmission, SM state, State reverse">
<path fill="none" stroke="#000000" d="M63.5587,-313C63.5587,-313 15.5587,-313 15.5587,-313 9.5587,-313 3.5587,-307 3.5587,-301 3.5587,-301 3.5587,-289 3.5587,-289 3.5587,-283 9.5587,-277 15.5587,-277 15.5587,-277 63.5587,-277 63.5587,-277 69.5587,-277 75.5587,-283 75.5587,-289 75.5587,-289 75.5587,-301 75.5587,-301 75.5587,-307 69.5587,-313 63.5587,-313"/>
<text text-anchor="middle" x="39.5587" y="-290.8" font-family="Times,serif" font-size="14.00" fill="#000000">reverse</text>
</a>
</g>
</g>
<!-- CarTransmission_state_neutral&#45;&gt;CarTransmission_state_reverse -->
<g id="edge4" class="edge">
<title>CarTransmission_state_neutral&#45;&gt;CarTransmission_state_reverse</title>
<g id="a_edge4"><a xlink:title="From neutral to reverse on selectReverse">
<path fill="none" stroke="#000000" d="M150.2415,-379.1528C102.2936,-375.8666 21.7979,-367.1279 3.5997,-345 -2.7165,-337.3198 .302,-328.6211 6.7066,-320.6575"/>
<polygon fill="#000000" stroke="#000000" points="9.6418,-322.6519 14.0195,-313.0038 4.5806,-317.8161 9.6418,-322.6519"/>
</a>
</g>
<text text-anchor="middle" x="43.0382" y="-333.8" font-family="Times,serif" font-size="14.00" fill="#000000">selectReverse</text>
</g>
<!-- CarTransmission_stateDrive_first -->
<g id="node7" class="node">
<title>CarTransmission_stateDrive_first</title>
<g id="a_node7"><a xlink:title="Class CarTransmission, SM state, State drive.first">
<path fill="none" stroke="#000000" d="M307.5587,-313C307.5587,-313 259.5587,-313 259.5587,-313 253.5587,-313 247.5587,-307 247.5587,-301 247.5587,-301 247.5587,-289 247.5587,-289 247.5587,-283 253.5587,-277 259.5587,-277 259.5587,-277 307.5587,-277 307.5587,-277 313.5587,-277 319.5587,-283 319.5587,-289 319.5587,-289 319.5587,-301 319.5587,-301 319.5587,-307 313.5587,-313 307.5587,-313"/>
<text text-anchor="middle" x="283.5587" y="-290.8" font-family="Times,serif" font-size="14.00" fill="#000000">first</text>
</a>
</g>
</g>
<!-- CarTransmission_state_neutral&#45;&gt;CarTransmission_stateDrive_first -->
<g id="edge5" class="edge">
<title>CarTransmission_state_neutral&#45;&gt;CarTransmission_stateDrive_first</title>
<g id="a_edge5"><a xlink:title="From neutral to drive on selectDrive">
<path fill="none" stroke="#000000" d="M222.8536,-364.2456C223.0147,-364.1702 223.1758,-364.0948 223.337,-364.0194"/>
<polygon fill="#000000" stroke="#000000" points="223.0006,-368.0447 230.5626,-360.624 220.0235,-361.7093 223.0006,-368.0447"/>
</a>
</g>
<text text-anchor="middle" x="302.4313" y="-333.8" font-family="Times,serif" font-size="14.00" fill="#000000">selectDrive</text>
</g>
<!-- CarTransmission_state_neutral&#45;&gt;CarTransmission_stateDrive_first -->
<g id="edge7" class="edge">
<title>CarTransmission_state_neutral&#45;&gt;CarTransmission_stateDrive_first</title>
<g id="a_edge7"><a xlink:title="From neutral to drive.first on selectFirst">
<path fill="none" stroke="#000000" d="M222.5885,-364.2746C223.9195,-363.8205 225.2456,-363.3934 226.5587,-363 250.7064,-355.765 322.209,-364.1871 338.5587,-345 347.1272,-334.9445 340.0468,-324.9353 328.4634,-316.5435"/>
<polygon fill="#000000" stroke="#000000" points="330.1656,-313.477 319.8616,-311.0116 326.3792,-319.3645 330.1656,-313.477"/>
</a>
</g>
<text text-anchor="middle" x="370.3312" y="-333.8" font-family="Times,serif" font-size="14.00" fill="#000000">selectFirst</text>
</g>
<!-- CarTransmission_stateDrive_second -->
<g id="node8" class="node">
<title>CarTransmission_stateDrive_second</title>
<g id="a_node8"><a xlink:title="Class CarTransmission, SM state, State drive.second">
<path fill="none" stroke="#000000" d="M560.5587,-176C560.5587,-176 512.5587,-176 512.5587,-176 506.5587,-176 500.5587,-170 500.5587,-164 500.5587,-164 500.5587,-152 500.5587,-152 500.5587,-146 506.5587,-140 512.5587,-140 512.5587,-140 560.5587,-140 560.5587,-140 566.5587,-140 572.5587,-146 572.5587,-152 572.5587,-152 572.5587,-164 572.5587,-164 572.5587,-170 566.5587,-176 560.5587,-176"/>
<text text-anchor="middle" x="536.5587" y="-153.8" font-family="Times,serif" font-size="14.00" fill="#000000">second</text>
</a>
</g>
</g>
<!-- CarTransmission_state_neutral&#45;&gt;CarTransmission_stateDrive_second -->
<g id="edge11" class="edge">
<title>CarTransmission_state_neutral&#45;&gt;CarTransmission_stateDrive_second</title>
<g id="a_edge11"><a xlink:title="From neutral to drive.second on selectSecond">
<path fill="none" stroke="#000000" d="M222.837,-377.52C338.142,-365.5447 691.5918,-321.4689 741.5587,-227 751.8611,-207.522 725.3118,-201.4053 704.5587,-194 664.5865,-179.7367 617.1514,-170.2078 582.8963,-164.5565"/>
<polygon fill="#000000" stroke="#000000" points="583.1389,-161.0509 572.7114,-162.9262 582.0324,-167.9629 583.1389,-161.0509"/>
</a>
</g>
<text text-anchor="middle" x="762.1002" y="-247.8" font-family="Times,serif" font-size="14.00" fill="#000000">selectSecond</text>
</g>
<!-- CarTransmission_state_reverse&#45;&gt;CarTransmission_state_neutral -->
<g id="edge2" class="edge">
<title>CarTransmission_state_reverse&#45;&gt;CarTransmission_state_neutral</title>
<g id="a_edge2"><a xlink:title="From reverse to neutral on selectNeutral">
<path fill="none" stroke="#000000" d="M60.3556,-313.0277C72.7172,-323.2036 89.005,-335.7036 104.7101,-345 115.9887,-351.6763 128.7306,-357.8646 140.7438,-363.1606"/>
<polygon fill="#000000" stroke="#000000" points="139.6101,-366.4826 150.18,-367.2088 142.37,-360.0496 139.6101,-366.4826"/>
</a>
</g>
<text text-anchor="middle" x="142.483" y="-333.8" font-family="Times,serif" font-size="14.00" fill="#000000">selectNeutral</text>
</g>
<!-- dummyNode1_drive_first -->
<g id="node4" class="node">
<title>dummyNode1_drive_first</title>
<ellipse fill="#000000" stroke="#000000" cx="175.5587" cy="-220" rx=".18" ry=".18"/>
</g>
<!-- dummyNode1_drive_first&#45;&gt;CarTransmission_stateDrive_first -->
<g id="edge9" class="edge">
<title>dummyNode1_drive_first:w&#45;&gt;CarTransmission_stateDrive_first</title>
<g id="a_edge9"><a xlink:title="From drive to drive.first on selectFirst">
<path fill="none" stroke="#000000" d="M175.5587,-220C157.7698,-220 172.7633,-245.6841 184.5587,-259 198.0246,-274.2018 218.4353,-282.989 237.2324,-288.0663"/>
<polygon fill="#000000" stroke="#000000" points="236.6194,-291.5187 247.1612,-290.46 238.26,-284.7137 236.6194,-291.5187"/>
</a>
</g>
</g>
<!-- dummyNode2_drive_second -->
<g id="node5" class="node">
<title>dummyNode2_drive_second</title>
<ellipse fill="#000000" stroke="#000000" cx="732.5587" cy="-220" rx=".18" ry=".18"/>
</g>
<!-- dummyNode2_drive_second&#45;&gt;CarTransmission_stateDrive_second -->
<g id="edge13" class="edge">
<title>dummyNode2_drive_second:w&#45;&gt;CarTransmission_stateDrive_second</title>
<g id="a_edge13"><a xlink:title="From drive to drive.second on selectSecond">
<path fill="none" stroke="#000000" d="M732.5587,-220C728.4611,-220 730.0041,-215.218 726.5587,-213 682.4652,-184.6147 623.3693,-170.5233 582.8588,-163.773"/>
<polygon fill="#000000" stroke="#000000" points="583.1479,-160.2754 572.7243,-162.1725 582.0559,-167.1897 583.1479,-160.2754"/>
</a>
</g>
</g>
<!-- start_CarTransmission_drive -->
<g id="node6" class="node">
<title>start_CarTransmission_drive</title>
<g id="a_node6"><a xlink:title="Class CarTransmission, SM state, State drive.start">
<ellipse fill="#000000" stroke="#000000" cx="707.5587" cy="-443.2" rx="7.2" ry="7.2"/>
</a>
</g>
</g>
<!-- start_CarTransmission_drive&#45;&gt;CarTransmission_stateDrive_first -->
<g id="edge6" class="edge">
<title>start_CarTransmission_drive&#45;&gt;CarTransmission_stateDrive_first</title>
<g id="a_edge6"><a xlink:title="start to drive.first">
<path fill="none" stroke="#000000" d="M700.5463,-440.4276C667.467,-427.3883 523.6124,-371.1196 403.5587,-331 379.2094,-322.8629 351.8034,-314.5763 329.3358,-308.0079"/>
<polygon fill="#000000" stroke="#000000" points="330.2911,-304.6408 319.7117,-305.2108 328.3375,-311.3627 330.2911,-304.6408"/>
</a>
</g>
</g>
<!-- CarTransmission_stateDrive_first&#45;&gt;CarTransmission_state_neutral -->
<g id="edge3" class="edge">
<title>CarTransmission_stateDrive_first&#45;&gt;CarTransmission_state_neutral</title>
<g id="a_edge3"><a xlink:title="From drive to neutral on selectNeutral">
<path fill="none" stroke="#000000" d="M230.562,-309.1727C211.509,-315.4082 193.3147,-323.1038 187.7101,-331 183.2875,-337.2309 181.7693,-345.0863 181.6815,-352.713"/>
<polygon fill="#000000" stroke="#000000" points="178.1946,-353.0343 182.3097,-362.7973 185.1811,-352.599 178.1946,-353.0343"/>
</a>
</g>
<text text-anchor="middle" x="225.483" y="-333.8" font-family="Times,serif" font-size="14.00" fill="#000000">selectNeutral</text>
</g>
<!-- CarTransmission_stateDrive_first&#45;&gt;dummyNode1_drive_first -->
<g id="edge8" class="edge">
<title>CarTransmission_stateDrive_first&#45;&gt;dummyNode1_drive_first:e</title>
<g id="a_edge8"><a xlink:title="From drive to drive.first on selectFirst">
<path fill="none" stroke="#000000" d="M230.5596,-281.1843C217.4722,-275.8717 204.2785,-268.6692 194.0138,-259 180.0554,-245.8514 194.7348,-220 175.5587,-220"/>
</a>
</g>
<text text-anchor="middle" x="223.3312" y="-247.8" font-family="Times,serif" font-size="14.00" fill="#000000">selectFirst</text>
</g>
<!-- CarTransmission_stateDrive_first&#45;&gt;dummyNode2_drive_second -->
<g id="edge12" class="edge">
<title>CarTransmission_stateDrive_first&#45;&gt;dummyNode2_drive_second:e</title>
<g id="a_edge12"><a xlink:title="From drive to drive.second on selectSecond">
<path fill="none" stroke="#000000" d="M722.5575,-228.2586C746.5777,-223.1918 753.4276,-220 732.5587,-220"/>
</a>
</g>
<text text-anchor="middle" x="654.1002" y="-247.8" font-family="Times,serif" font-size="14.00" fill="#000000">selectSecond</text>
</g>
<!-- CarTransmission_stateDrive_first&#45;&gt;CarTransmission_stateDrive_second -->
<g id="edge14" class="edge">
<title>CarTransmission_stateDrive_first&#45;&gt;CarTransmission_stateDrive_second</title>
<g id="a_edge14"><a xlink:title="From drive.first to drive.second on reachSecondSpeed&#13;Guard: &#160;[driveSelected]">
<path fill="none" stroke="#000000" d="M268.6765,-276.8608C255.848,-258.9087 241.5969,-231.5033 256.8165,-213 285.8485,-177.7042 418.5619,-164.7106 490.2666,-160.2098"/>
<polygon fill="#000000" stroke="#000000" points="490.6101,-163.6956 500.3837,-159.6058 490.1928,-156.7081 490.6101,-163.6956"/>
</a>
</g>
<text text-anchor="middle" x="353.9298" y="-215.8" font-family="Times,serif" font-size="14.00" fill="#000000">reachSecondSpeed [driveSelected]</text>
</g>
<!-- CarTransmission_stateDrive_second&#45;&gt;CarTransmission_stateDrive_first -->
<g id="edge10" class="edge">
<title>CarTransmission_stateDrive_second&#45;&gt;CarTransmission_stateDrive_first</title>
<g id="a_edge10"><a xlink:title="From drive.second to drive.first on dropBelowSecondSpeed&#13;Guard: &#160;[driveSelected]">
<path fill="none" stroke="#000000" d="M518.9245,-176.0509C503.3539,-191.2091 479.4691,-212.6339 455.5587,-227 415.4305,-251.1102 365.2231,-269.8134 329.4317,-281.4485"/>
<polygon fill="#000000" stroke="#000000" points="328.202,-278.167 319.7394,-284.5414 330.3301,-284.8357 328.202,-278.167"/>
</a>
</g>
<text text-anchor="middle" x="588.8849" y="-215.8" font-family="Times,serif" font-size="14.00" fill="#000000">dropBelowSecondSpeed [driveSelected]</text>
</g>
<!-- CarTransmission_stateDrive_third -->
<g id="node9" class="node">
<title>CarTransmission_stateDrive_third</title>
<g id="a_node9"><a xlink:title="Class CarTransmission, SM state, State drive.third">
<path fill="none" stroke="#000000" d="M475.5587,-52C475.5587,-52 427.5587,-52 427.5587,-52 421.5587,-52 415.5587,-46 415.5587,-40 415.5587,-40 415.5587,-28 415.5587,-28 415.5587,-22 421.5587,-16 427.5587,-16 427.5587,-16 475.5587,-16 475.5587,-16 481.5587,-16 487.5587,-22 487.5587,-28 487.5587,-28 487.5587,-40 487.5587,-40 487.5587,-46 481.5587,-52 475.5587,-52"/>
<text text-anchor="middle" x="451.5587" y="-29.8" font-family="Times,serif" font-size="14.00" fill="#000000">third</text>
</a>
</g>
</g>
<!-- CarTransmission_stateDrive_second&#45;&gt;CarTransmission_stateDrive_third -->
<g id="edge16" class="edge">
<title>CarTransmission_stateDrive_second&#45;&gt;CarTransmission_stateDrive_third</title>
<g id="a_edge16"><a xlink:title="From drive.second to drive.third on reachThirdSpeed&#13;Guard: &#160;[driveSelected]">
<path fill="none" stroke="#000000" d="M500.1401,-153.0277C449.0293,-145.2184 360.1017,-128.3091 340.9269,-103 319.3778,-74.5572 366.3183,-54.9795 405.57,-44.1342"/>
<polygon fill="#000000" stroke="#000000" points="406.5566,-47.4938 415.3373,-41.565 404.7758,-40.7241 406.5566,-47.4938"/>
</a>
</g>
<text text-anchor="middle" x="432.8746" y="-91.8" font-family="Times,serif" font-size="14.00" fill="#000000">reachThirdSpeed [driveSelected]</text>
</g>
<!-- CarTransmission_stateDrive_third&#45;&gt;CarTransmission_stateDrive_second -->
<g id="edge15" class="edge">
<title>CarTransmission_stateDrive_third&#45;&gt;CarTransmission_stateDrive_second</title>
<g id="a_edge15"><a xlink:title="From drive.third to drive.second on dropBelowThirdSpeed">
<path fill="none" stroke="#000000" d="M487.7298,-50.7027C503.2276,-59.7785 519.9443,-72.5483 529.5587,-89 536.5832,-101.0199 538.6903,-116.2578 538.889,-129.3548"/>
<polygon fill="#000000" stroke="#000000" points="535.3819,-129.6644 538.6731,-139.735 542.3804,-129.81 535.3819,-129.6644"/>
</a>
</g>
<text text-anchor="middle" x="598.3243" y="-91.8" font-family="Times,serif" font-size="14.00" fill="#000000">dropBelowThirdSpeed</text>
</g>
</g>
</svg>
