<?xml version="1.0" encoding="UTF-8" standalone="no"?>
<!DOCTYPE svg PUBLIC "-//W3C//DTD SVG 1.1//EN"
 "http://www.w3.org/Graphics/SVG/1.1/DTD/svg11.dtd">
<!-- Generated by graphviz version 2.48.0 (20210717.1556)
 -->
<!-- Title: CarTransmission Pages: 1 -->
<svg width="929pt" height="383pt"
 viewBox="0.00 0.00 928.82 382.60" xmlns="http://www.w3.org/2000/svg" xmlns:xlink="http://www.w3.org/1999/xlink">
<g id="graph0" class="graph" transform="scale(1 1) rotate(0) translate(4 378.6)">
<title>CarTransmission</title>
<polygon fill="white" stroke="transparent" points="-4,4 -4,-378.6 924.82,-378.6 924.82,4 -4,4"/>
<g id="clust1" class="cluster">
<title>clusterCarTransmission_state_drive</title>
<path fill="none" stroke="black" d="M190.82,-8C190.82,-8 645.82,-8 645.82,-8 651.82,-8 657.82,-14 657.82,-20 657.82,-20 657.82,-321.2 657.82,-321.2 657.82,-327.2 651.82,-333.2 645.82,-333.2 645.82,-333.2 190.82,-333.2 190.82,-333.2 184.82,-333.2 178.82,-327.2 178.82,-321.2 178.82,-321.2 178.82,-20 178.82,-20 178.82,-14 184.82,-8 190.82,-8"/>
<text text-anchor="middle" x="418.32" y="-318" font-family="Times,serif" font-size="14.00">drive</text>
</g>
<!-- start_CarTransmission_state -->
<g id="node1" class="node">
<title>start_CarTransmission_state</title>
<g id="a_node1"><a xlink:title="Class CarTransmission, SM state, State start">
<ellipse fill="black" stroke="black" cx="701.82" cy="-367.4" rx="7.2" ry="7.2"/>
</a>
</g>
</g>
<!-- CarTransmission_state_neutral -->
<g id="node2" class="node">
<title>CarTransmission_state_neutral</title>
<g id="a_node2"><a xlink:title="Class CarTransmission, SM state, State neutral">
<path fill="none" stroke="black" d="M725.82,-313C725.82,-313 677.82,-313 677.82,-313 671.82,-313 665.82,-307 665.82,-301 665.82,-301 665.82,-289 665.82,-289 665.82,-283 671.82,-277 677.82,-277 677.82,-277 725.82,-277 725.82,-277 731.82,-277 737.82,-283 737.82,-289 737.82,-289 737.82,-301 737.82,-301 737.82,-307 731.82,-313 725.82,-313"/>
<text text-anchor="middle" x="701.82" y="-291.3" font-family="Times,serif" font-size="14.00">neutral</text>
</a>
</g>
</g>
<!-- start_CarTransmission_state&#45;&gt;CarTransmission_state_neutral -->
<g id="edge1" class="edge">
<title>start_CarTransmission_state&#45;&gt;CarTransmission_state_neutral</title>
<g id="a_edge1"><a xlink:title="start to neutral">
<path fill="none" stroke="black" d="M701.82,-359.9C701.82,-351.58 701.82,-336.62 701.82,-323.27"/>
<polygon fill="black" stroke="black" points="705.32,-323.06 701.82,-313.06 698.32,-323.06 705.32,-323.06"/>
</a>
</g>
</g>
<!-- CarTransmission_state_reverse -->
<g id="node3" class="node">
<title>CarTransmission_state_reverse</title>
<g id="a_node3"><a xlink:title="Class CarTransmission, SM state, State reverse">
<path fill="none" stroke="black" d="M766.82,-226C766.82,-226 718.82,-226 718.82,-226 712.82,-226 706.82,-220 706.82,-214 706.82,-214 706.82,-202 706.82,-202 706.82,-196 712.82,-190 718.82,-190 718.82,-190 766.82,-190 766.82,-190 772.82,-190 778.82,-196 778.82,-202 778.82,-202 778.82,-214 778.82,-214 778.82,-220 772.82,-226 766.82,-226"/>
<text text-anchor="middle" x="742.82" y="-204.3" font-family="Times,serif" font-size="14.00">reverse</text>
</a>
</g>
</g>
<!-- CarTransmission_state_neutral&#45;&gt;CarTransmission_state_reverse -->
<g id="edge4" class="edge">
<title>CarTransmission_state_neutral&#45;&gt;CarTransmission_state_reverse</title>
<g id="a_edge4"><a xlink:title="From neutral to reverse on selectReverse">
<path fill="none" stroke="black" d="M686.76,-276.81C680,-266.91 674.75,-254.41 680.82,-244 684.94,-236.94 691.07,-231.2 697.89,-226.56"/>
<polygon fill="black" stroke="black" points="699.99,-229.38 706.8,-221.25 696.41,-223.36 699.99,-229.38"/>
</a>
</g>
<text text-anchor="middle" x="719.32" y="-247.8" font-family="Times,serif" font-size="14.00">selectReverse</text>
</g>
<!-- CarTransmission_stateDrive_first -->
<g id="node7" class="node">
<title>CarTransmission_stateDrive_first</title>
<g id="a_node7"><a xlink:title="Class CarTransmission, SM state, State drive.first">
<path fill="none" stroke="black" d="M257.82,-226C257.82,-226 209.82,-226 209.82,-226 203.82,-226 197.82,-220 197.82,-214 197.82,-214 197.82,-202 197.82,-202 197.82,-196 203.82,-190 209.82,-190 209.82,-190 257.82,-190 257.82,-190 263.82,-190 269.82,-196 269.82,-202 269.82,-202 269.82,-214 269.82,-214 269.82,-220 263.82,-226 257.82,-226"/>
<text text-anchor="middle" x="233.82" y="-204.3" font-family="Times,serif" font-size="14.00">first</text>
</a>
</g>
</g>
<!-- CarTransmission_state_neutral&#45;&gt;CarTransmission_stateDrive_first -->
<g id="edge5" class="edge">
<title>CarTransmission_state_neutral&#45;&gt;CarTransmission_stateDrive_first</title>
<g id="a_edge5"><a xlink:title="From neutral to drive on selectDrive">
<path fill="none" stroke="black" d="M665.81,-278.06C665.73,-278.03 665.65,-278.01 665.56,-277.98"/>
<polygon fill="black" stroke="black" points="668.37,-275.07 657.82,-276.06 666.68,-281.87 668.37,-275.07"/>
</a>
</g>
<text text-anchor="middle" x="419.82" y="-247.8" font-family="Times,serif" font-size="14.00">selectDrive</text>
</g>
<!-- CarTransmission_state_neutral&#45;&gt;CarTransmission_stateDrive_first -->
<g id="edge7" class="edge">
<title>CarTransmission_state_neutral&#45;&gt;CarTransmission_stateDrive_first</title>
<g id="a_edge7"><a xlink:title="From neutral to drive.first on selectFirst">
<path fill="none" stroke="black" d="M665.8,-278.11C664.47,-277.71 663.14,-277.33 661.82,-277 580.47,-256.34 552.76,-287.54 473.82,-259 462.69,-254.98 462.82,-248.38 451.82,-244 395.49,-221.58 325.54,-213.5 280.31,-210.6"/>
<polygon fill="black" stroke="black" points="280.4,-207.1 270.21,-210.02 279.99,-214.09 280.4,-207.1"/>
</a>
</g>
<text text-anchor="middle" x="502.82" y="-247.8" font-family="Times,serif" font-size="14.00">selectFirst</text>
</g>
<!-- CarTransmission_stateDrive_second -->
<g id="node8" class="node">
<title>CarTransmission_stateDrive_second</title>
<g id="a_node8"><a xlink:title="Class CarTransmission, SM state, State drive.second">
<path fill="none" stroke="black" d="M266.82,-139C266.82,-139 218.82,-139 218.82,-139 212.82,-139 206.82,-133 206.82,-127 206.82,-127 206.82,-115 206.82,-115 206.82,-109 212.82,-103 218.82,-103 218.82,-103 266.82,-103 266.82,-103 272.82,-103 278.82,-109 278.82,-115 278.82,-115 278.82,-127 278.82,-127 278.82,-133 272.82,-139 266.82,-139"/>
<text text-anchor="middle" x="242.82" y="-117.3" font-family="Times,serif" font-size="14.00">second</text>
</a>
</g>
</g>
<!-- CarTransmission_state_neutral&#45;&gt;CarTransmission_stateDrive_second -->
<g id="edge11" class="edge">
<title>CarTransmission_state_neutral&#45;&gt;CarTransmission_stateDrive_second</title>
<g id="a_edge11"><a xlink:title="From neutral to drive.second on selectSecond">
<path fill="none" stroke="black" d="M737.83,-290.01C774.95,-285.06 829.14,-275.24 841.82,-259 867.6,-225.99 842.33,-219.85 787.82,-190 702.16,-143.09 404.61,-127.71 289.13,-123.44"/>
<polygon fill="black" stroke="black" points="288.98,-119.93 278.86,-123.07 288.73,-126.93 288.98,-119.93"/>
</a>
</g>
<text text-anchor="middle" x="883.82" y="-204.3" font-family="Times,serif" font-size="14.00">selectSecond</text>
</g>
<!-- CarTransmission_state_reverse&#45;&gt;CarTransmission_state_neutral -->
<g id="edge2" class="edge">
<title>CarTransmission_state_reverse&#45;&gt;CarTransmission_state_neutral</title>
<g id="a_edge2"><a xlink:title="From reverse to neutral on selectNeutral">
<path fill="none" stroke="black" d="M756.76,-226.27C762.99,-236.19 767.74,-248.69 761.82,-259 758.11,-265.47 752.68,-270.86 746.59,-275.31"/>
<polygon fill="black" stroke="black" points="744.52,-272.48 737.97,-280.81 748.28,-278.38 744.52,-272.48"/>
</a>
</g>
<text text-anchor="middle" x="800.82" y="-247.8" font-family="Times,serif" font-size="14.00">selectNeutral</text>
</g>
<!-- dummyNode1_drive_second -->
<g id="node4" class="node">
<title>dummyNode1_drive_second</title>
<ellipse fill="black" stroke="black" cx="149.82" cy="-121" rx="0.18" ry="0.18"/>
</g>
<!-- dummyNode1_drive_second&#45;&gt;CarTransmission_stateDrive_second -->
<g id="edge13" class="edge">
<title>dummyNode1_drive_second:w&#45;&gt;CarTransmission_stateDrive_second</title>
<g id="a_edge13"><a xlink:title="From drive to drive.second on selectSecond">
<path fill="none" stroke="black" d="M148.82,-121C148.29,-112 149.47,-112.18 150,-112.18 165.01,-112.17 181.4,-112.14 196.12,-112.55"/>
<polygon fill="black" stroke="black" points="196.38,-116.07 206.5,-112.94 196.64,-109.07 196.38,-116.07"/>
</a>
</g>
</g>
<!-- dummyNode2_drive_first -->
<g id="node5" class="node">
<title>dummyNode2_drive_first</title>
<ellipse fill="black" stroke="black" cx="38.82" cy="-121" rx="0.18" ry="0.18"/>
</g>
<!-- dummyNode2_drive_first&#45;&gt;CarTransmission_stateDrive_first -->
<g id="edge9" class="edge">
<title>dummyNode2_drive_first:w&#45;&gt;CarTransmission_stateDrive_first</title>
<g id="a_edge9"><a xlink:title="From drive to drive.first on selectFirst">
<path fill="none" stroke="black" d="M37.82,-121C-3.23,-121 77.61,-154.68 114.82,-172 137.93,-182.75 165.11,-191.05 187.66,-196.85"/>
<polygon fill="black" stroke="black" points="187.11,-200.32 197.66,-199.35 188.81,-193.53 187.11,-200.32"/>
</a>
</g>
</g>
<!-- start_CarTransmission_stateDrive -->
<g id="node6" class="node">
<title>start_CarTransmission_stateDrive</title>
<g id="a_node6"><a xlink:title="Class CarTransmission, SM state, State drive.start">
<ellipse fill="black" stroke="black" cx="233.82" cy="-295" rx="7.2" ry="7.2"/>
</a>
</g>
</g>
<!-- start_CarTransmission_stateDrive&#45;&gt;CarTransmission_stateDrive_first -->
<g id="edge6" class="edge">
<title>start_CarTransmission_stateDrive&#45;&gt;CarTransmission_stateDrive_first</title>
<g id="a_edge6"><a xlink:title="start to drive.first">
<path fill="none" stroke="black" d="M233.82,-287.61C233.82,-276.83 233.82,-254.43 233.82,-236.29"/>
<polygon fill="black" stroke="black" points="237.32,-236.22 233.82,-226.22 230.32,-236.22 237.32,-236.22"/>
</a>
</g>
</g>
<!-- CarTransmission_stateDrive_first&#45;&gt;CarTransmission_state_neutral -->
<g id="edge3" class="edge">
<title>CarTransmission_stateDrive_first&#45;&gt;CarTransmission_state_neutral</title>
<g id="a_edge3"><a xlink:title="From drive to neutral on selectNeutral">
<path fill="none" stroke="black" d="M657.82,-275.18C659.8,-275.98 661.77,-276.78 663.75,-277.58"/>
<polygon fill="black" stroke="black" points="655.14,-277.87 665.72,-278.38 657.77,-271.38 655.14,-277.87"/>
</a>
</g>
<text text-anchor="middle" x="635.82" y="-247.8" font-family="Times,serif" font-size="14.00">selectNeutral</text>
</g>
<!-- CarTransmission_stateDrive_first&#45;&gt;dummyNode1_drive_second -->
<g id="edge12" class="edge">
<title>CarTransmission_stateDrive_first&#45;&gt;dummyNode1_drive_second:e</title>
<g id="a_edge12"><a xlink:title="From drive to drive.second on selectSecond">
<path fill="none" stroke="black" d="M178.82,-203.41C157.49,-199 135.05,-189.99 121.82,-172 117.87,-166.63 119.6,-163.29 121.82,-157 128.66,-137.62 171.37,-121 150.82,-121"/>
</a>
</g>
<text text-anchor="middle" x="158.82" y="-160.8" font-family="Times,serif" font-size="14.00">selectSecond</text>
</g>
<!-- CarTransmission_stateDrive_first&#45;&gt;dummyNode2_drive_first -->
<g id="edge8" class="edge">
<title>CarTransmission_stateDrive_first&#45;&gt;dummyNode2_drive_first:e</title>
<g id="a_edge8"><a xlink:title="From drive to drive.first on selectFirst">
<path fill="none" stroke="black" d="M178.83,-206.6C117.83,-204.85 25.07,-197.87 2.82,-172 -1.52,-166.95 0.23,-163.14 2.82,-157 11.75,-135.86 62.77,-121 39.82,-121"/>
</a>
</g>
<text text-anchor="middle" x="31.82" y="-160.8" font-family="Times,serif" font-size="14.00">selectFirst</text>
</g>
<!-- CarTransmission_stateDrive_first&#45;&gt;CarTransmission_stateDrive_second -->
<g id="edge14" class="edge">
<title>CarTransmission_stateDrive_first&#45;&gt;CarTransmission_stateDrive_second</title>
<g id="a_edge14"><a xlink:title="From drive.first to drive.second on reachSecondSpeed&#13;Guard: &#160;[driveSelected]">
<path fill="none" stroke="black" d="M212.37,-189.63C203.58,-180.31 196.56,-168.42 201.82,-157 203.54,-153.28 205.86,-149.81 208.54,-146.61"/>
<polygon fill="black" stroke="black" points="211.27,-148.83 215.78,-139.24 206.27,-143.93 211.27,-148.83"/>
</a>
</g>
<text text-anchor="middle" x="299.32" y="-160.8" font-family="Times,serif" font-size="14.00">reachSecondSpeed [driveSelected]</text>
</g>
<!-- CarTransmission_stateDrive_second&#45;&gt;CarTransmission_stateDrive_first -->
<g id="edge10" class="edge">
<title>CarTransmission_stateDrive_second&#45;&gt;CarTransmission_stateDrive_first</title>
<g id="a_edge10"><a xlink:title="From drive.second to drive.first on dropBelowSecondSpeed&#13;Guard: &#160;[driveSelected]">
<path fill="none" stroke="black" d="M278.91,-121.84C335.33,-122.85 434.65,-130.35 400.82,-172 385.87,-190.41 324.26,-199.49 280.23,-203.7"/>
<polygon fill="black" stroke="black" points="279.65,-200.24 270.01,-204.62 280.28,-207.21 279.65,-200.24"/>
</a>
</g>
<text text-anchor="middle" x="520.32" y="-160.8" font-family="Times,serif" font-size="14.00">dropBelowSecondSpeed [driveSelected]</text>
</g>
<!-- CarTransmission_stateDrive_third -->
<g id="node9" class="node">
<title>CarTransmission_stateDrive_third</title>
<g id="a_node9"><a xlink:title="Class CarTransmission, SM state, State drive.third">
<path fill="none" stroke="black" d="M345.82,-52C345.82,-52 297.82,-52 297.82,-52 291.82,-52 285.82,-46 285.82,-40 285.82,-40 285.82,-28 285.82,-28 285.82,-22 291.82,-16 297.82,-16 297.82,-16 345.82,-16 345.82,-16 351.82,-16 357.82,-22 357.82,-28 357.82,-28 357.82,-40 357.82,-40 357.82,-46 351.82,-52 345.82,-52"/>
<text text-anchor="middle" x="321.82" y="-30.3" font-family="Times,serif" font-size="14.00">third</text>
</a>
</g>
</g>
<!-- CarTransmission_stateDrive_second&#45;&gt;CarTransmission_stateDrive_third -->
<g id="edge16" class="edge">
<title>CarTransmission_stateDrive_second&#45;&gt;CarTransmission_stateDrive_third</title>
<g id="a_edge16"><a xlink:title="From drive.second to drive.third on reachThirdSpeed&#13;Guard: &#160;[driveSelected]">
<path fill="none" stroke="black" d="M220.97,-102.98C211.02,-93.14 203.02,-80.64 210.82,-70 225.65,-49.77 252.2,-40.93 275.61,-37.19"/>
<polygon fill="black" stroke="black" points="276.3,-40.63 285.75,-35.85 275.38,-33.69 276.3,-40.63"/>
</a>
</g>
<text text-anchor="middle" x="303.32" y="-73.8" font-family="Times,serif" font-size="14.00">reachThirdSpeed [driveSelected]</text>
</g>
<!-- CarTransmission_stateDrive_third&#45;&gt;CarTransmission_stateDrive_second -->
<g id="edge15" class="edge">
<title>CarTransmission_stateDrive_third&#45;&gt;CarTransmission_stateDrive_second</title>
<g id="a_edge15"><a xlink:title="From drive.third to drive.second on dropBelowThirdSpeed">
<path fill="none" stroke="black" d="M358.09,-43.77C385.15,-52.06 415.01,-66.05 399.82,-85 386.13,-102.07 330.37,-111.36 289.17,-115.99"/>
<polygon fill="black" stroke="black" points="288.62,-112.53 279.05,-117.07 289.36,-119.49 288.62,-112.53"/>
</a>
</g>
<text text-anchor="middle" x="467.82" y="-73.8" font-family="Times,serif" font-size="14.00">dropBelowThirdSpeed</text>
</g>
</g>
</svg>
