<?xml version="1.0" encoding="UTF-8" standalone="no"?>
<!DOCTYPE svg PUBLIC "-//W3C//DTD SVG 1.1//EN"
 "http://www.w3.org/Graphics/SVG/1.1/DTD/svg11.dtd">
<!-- Generated by graphviz version 2.48.0 (20210717.1556)
 -->
<!-- Title: ComplexStateMachine Pages: 1 -->
<svg width="447pt" height="376pt"
 viewBox="0.00 0.00 447.20 376.40" xmlns="http://www.w3.org/2000/svg" xmlns:xlink="http://www.w3.org/1999/xlink">
<g id="graph0" class="graph" transform="scale(1 1) rotate(0) translate(4 372.4)">
<title>ComplexStateMachine</title>
<polygon fill="white" stroke="transparent" points="-4,4 -4,-372.4 443.2,-372.4 443.2,4 -4,4"/>
<g id="clust1" class="cluster">
<title>clusterBigStateMachineTest_sm_Zxab</title>
<path fill="none" stroke="black" d="M221,-8C221,-8 405,-8 405,-8 411,-8 417,-14 417,-20 417,-20 417,-348.4 417,-348.4 417,-354.4 411,-360.4 405,-360.4 405,-360.4 221,-360.4 221,-360.4 215,-360.4 209,-354.4 209,-348.4 209,-348.4 209,-20 209,-20 209,-14 215,-8 221,-8"/>
<text text-anchor="middle" x="313" y="-345.2" font-family="Times,serif" font-size="14.00">Zxab</text>
</g>
<g id="clust2" class="cluster">
<title>clusterBigStateMachineTest_smZxab_Zx</title>
<path fill="none" stroke="black" d="M251,-95C251,-95 315,-95 315,-95 321,-95 327,-101 327,-107 327,-107 327,-317.4 327,-317.4 327,-323.4 321,-329.4 315,-329.4 315,-329.4 251,-329.4 251,-329.4 245,-329.4 239,-323.4 239,-317.4 239,-317.4 239,-107 239,-107 239,-101 245,-95 251,-95"/>
<text text-anchor="middle" x="283" y="-314.2" font-family="Times,serif" font-size="14.00">Zx</text>
</g>
<g id="clust3" class="cluster">
<title>clusterBigStateMachineTest_sm_Ge</title>
<path fill="none" stroke="black" d="M20,-8C20,-8 116,-8 116,-8 122,-8 128,-14 128,-20 128,-20 128,-158 128,-158 128,-164 122,-170 116,-170 116,-170 20,-170 20,-170 14,-170 8,-164 8,-158 8,-158 8,-20 8,-20 8,-14 14,-8 20,-8"/>
<text text-anchor="middle" x="68" y="-154.8" font-family="Times,serif" font-size="14.00">Ge</text>
</g>
<!-- start_BigStateMachineTest_sm -->
<g id="node1" class="node">
<title>start_BigStateMachineTest_sm</title>
<g id="a_node1"><a xlink:title="Class BigStateMachineTest, SM sm, State start">
<ellipse fill="black" stroke="black" cx="432" cy="-291.2" rx="7.2" ry="7.2"/>
</a>
</g>
</g>
<!-- BigStateMachineTest_smZxabZx_Z -->
<g id="node4" class="node">
<title>BigStateMachineTest_smZxabZx_Z</title>
<g id="a_node4"><a xlink:title="Class BigStateMachineTest, SM sm, State Zxab.Zx.Z">
<path fill="none" stroke="black" d="M307,-247C307,-247 259,-247 259,-247 253,-247 247,-241 247,-235 247,-235 247,-223 247,-223 247,-217 253,-211 259,-211 259,-211 307,-211 307,-211 313,-211 319,-217 319,-223 319,-223 319,-235 319,-235 319,-241 313,-247 307,-247"/>
<text text-anchor="middle" x="283" y="-225.3" font-family="Times,serif" font-size="14.00">Z</text>
</a>
</g>
</g>
<!-- start_BigStateMachineTest_sm&#45;&gt;BigStateMachineTest_smZxabZx_Z -->
<g id="edge1" class="edge">
<title>start_BigStateMachineTest_sm&#45;&gt;BigStateMachineTest_smZxabZx_Z</title>
<g id="a_edge1"><a xlink:title="start to Zxab">
<path fill="none" stroke="black" d="M425.6,-287.61C425.45,-287.55 425.3,-287.49 425.15,-287.43"/>
<polygon fill="black" stroke="black" points="427.58,-284.64 417,-284.14 424.96,-291.13 427.58,-284.64"/>
</a>
</g>
</g>
<!-- start_BigStateMachineTest_smZxab -->
<g id="node2" class="node">
<title>start_BigStateMachineTest_smZxab</title>
<g id="a_node2"><a xlink:title="Class BigStateMachineTest, SM sm, State Zxab.start">
<ellipse fill="black" stroke="black" cx="224" cy="-291.2" rx="7.2" ry="7.2"/>
</a>
</g>
</g>
<!-- start_BigStateMachineTest_smZxab&#45;&gt;BigStateMachineTest_smZxabZx_Z -->
<g id="edge2" class="edge">
<title>start_BigStateMachineTest_smZxab&#45;&gt;BigStateMachineTest_smZxabZx_Z</title>
<g id="a_edge2"><a xlink:title="start to Zxab.Zx">
<path fill="none" stroke="black" d="M228.63,-285.48C229.62,-284.46 230.75,-283.31 231.99,-282.05"/>
<polygon fill="black" stroke="black" points="234.5,-284.48 239,-274.89 229.5,-279.58 234.5,-284.48"/>
</a>
</g>
</g>
<!-- start_BigStateMachineTest_smZxabZx -->
<g id="node3" class="node">
<title>start_BigStateMachineTest_smZxabZx</title>
<g id="a_node3"><a xlink:title="Class BigStateMachineTest, SM sm, State Zxab.Zx.start">
<ellipse fill="black" stroke="black" cx="283" cy="-291.2" rx="7.2" ry="7.2"/>
</a>
</g>
</g>
<!-- start_BigStateMachineTest_smZxabZx&#45;&gt;BigStateMachineTest_smZxabZx_Z -->
<g id="edge3" class="edge">
<title>start_BigStateMachineTest_smZxabZx&#45;&gt;BigStateMachineTest_smZxabZx_Z</title>
<g id="a_edge3"><a xlink:title="start to Zxab.Zx.Z">
<path fill="none" stroke="black" d="M283,-283.76C283,-277.39 283,-267.2 283,-257.39"/>
<polygon fill="black" stroke="black" points="286.5,-257.1 283,-247.1 279.5,-257.1 286.5,-257.1"/>
</a>
</g>
</g>
<!-- BigStateMachineTest_smZxabZx_X -->
<g id="node5" class="node">
<title>BigStateMachineTest_smZxabZx_X</title>
<g id="a_node5"><a xlink:title="Class BigStateMachineTest, SM sm, State Zxab.Zx.X">
<path fill="none" stroke="black" d="M307,-139C307,-139 259,-139 259,-139 253,-139 247,-133 247,-127 247,-127 247,-115 247,-115 247,-109 253,-103 259,-103 259,-103 307,-103 307,-103 313,-103 319,-109 319,-115 319,-115 319,-127 319,-127 319,-133 313,-139 307,-139"/>
<text text-anchor="middle" x="283" y="-117.3" font-family="Times,serif" font-size="14.00">X</text>
</a>
</g>
</g>
<!-- BigStateMachineTest_smZxabZx_Z&#45;&gt;BigStateMachineTest_smZxabZx_X -->
<g id="edge4" class="edge">
<title>BigStateMachineTest_smZxabZx_Z&#45;&gt;BigStateMachineTest_smZxabZx_X</title>
<g id="a_edge4"><a xlink:title="From Zxab.Zx.Z to Zxab.Zx.X on e3">
<path fill="none" stroke="black" d="M280.66,-210.94C279.98,-205.25 279.33,-198.86 279,-193 278.18,-178.65 278.94,-162.67 280,-149.51"/>
<polygon fill="black" stroke="black" points="283.52,-149.49 280.94,-139.22 276.55,-148.86 283.52,-149.49"/>
</a>
</g>
<text text-anchor="middle" x="286" y="-181.8" font-family="Times,serif" font-size="14.00">e3</text>
</g>
<!-- BigStateMachineTest_smZxab_A -->
<g id="node6" class="node">
<title>BigStateMachineTest_smZxab_A</title>
<g id="a_node6"><a xlink:title="Class BigStateMachineTest, SM sm, State Zxab.A">
<path fill="none" stroke="black" d="M397,-139C397,-139 349,-139 349,-139 343,-139 337,-133 337,-127 337,-127 337,-115 337,-115 337,-109 343,-103 349,-103 349,-103 397,-103 397,-103 403,-103 409,-109 409,-115 409,-115 409,-127 409,-127 409,-133 403,-139 397,-139"/>
<text text-anchor="middle" x="373" y="-117.3" font-family="Times,serif" font-size="14.00">A</text>
</a>
</g>
</g>
<!-- BigStateMachineTest_smZxabZx_Z&#45;&gt;BigStateMachineTest_smZxab_A -->
<g id="edge6" class="edge">
<title>BigStateMachineTest_smZxabZx_Z&#45;&gt;BigStateMachineTest_smZxab_A</title>
<g id="a_edge6"><a xlink:title="From Zxab.Zx.Z to Zxab.A on e2">
<path fill="none" stroke="black" d="M297.46,-210.97C312.13,-193.69 335.01,-166.74 351.75,-147.03"/>
<polygon fill="black" stroke="black" points="354.47,-149.23 358.28,-139.34 349.14,-144.7 354.47,-149.23"/>
</a>
</g>
<text text-anchor="middle" x="332" y="-181.8" font-family="Times,serif" font-size="14.00">e2</text>
</g>
<!-- BigStateMachineTest_smGe_G -->
<g id="node10" class="node">
<title>BigStateMachineTest_smGe_G</title>
<g id="a_node10"><a xlink:title="Class BigStateMachineTest, SM sm, State Ge.G">
<path fill="none" stroke="black" d="M108,-52C108,-52 60,-52 60,-52 54,-52 48,-46 48,-40 48,-40 48,-28 48,-28 48,-22 54,-16 60,-16 60,-16 108,-16 108,-16 114,-16 120,-22 120,-28 120,-28 120,-40 120,-40 120,-46 114,-52 108,-52"/>
<text text-anchor="middle" x="84" y="-30.3" font-family="Times,serif" font-size="14.00">G</text>
</a>
</g>
</g>
<!-- BigStateMachineTest_smZxabZx_Z&#45;&gt;BigStateMachineTest_smGe_G -->
<g id="edge11" class="edge">
<title>BigStateMachineTest_smZxabZx_Z&#45;&gt;BigStateMachineTest_smGe_G</title>
<g id="a_edge11"><a xlink:title="From Zxab to Ge on e4">
<path fill="none" stroke="black" d="M209,-144.35C197.33,-117.39 199.02,-96.03 170,-70 158.59,-59.77 143.8,-52.31 129.71,-46.97"/>
<polygon fill="black" stroke="black" points="138,-49.12 128,-45.61 133.63,-54.59 138,-49.12"/>
</a>
</g>
<text text-anchor="middle" x="231" y="-117.3" font-family="Times,serif" font-size="14.00">e4</text>
</g>
<!-- BigStateMachineTest_smZxabZx_Z&#45;&gt;BigStateMachineTest_smGe_G -->
<g id="edge13" class="edge">
<title>BigStateMachineTest_smZxabZx_Z&#45;&gt;BigStateMachineTest_smGe_G</title>
<g id="a_edge13"><a xlink:title="From Zxab.Zx to Ge.G on e5">
<path fill="none" stroke="black" d="M239,-217.72C213.27,-210.98 183.95,-201.82 174,-193 138.14,-161.2 152.56,-136.74 129,-95 122.4,-83.3 119.98,-80.81 112,-70 109.62,-66.78 107.07,-63.44 104.51,-60.17"/>
<polygon fill="black" stroke="black" points="107.18,-57.9 98.23,-52.24 101.7,-62.25 107.18,-57.9"/>
</a>
</g>
<text text-anchor="middle" x="161" y="-117.3" font-family="Times,serif" font-size="14.00">e5</text>
</g>
<!-- BigStateMachineTest_smGe_E -->
<g id="node11" class="node">
<title>BigStateMachineTest_smGe_E</title>
<g id="a_node11"><a xlink:title="Class BigStateMachineTest, SM sm, State Ge.E">
<path fill="none" stroke="black" d="M76,-139C76,-139 28,-139 28,-139 22,-139 16,-133 16,-127 16,-127 16,-115 16,-115 16,-109 22,-103 28,-103 28,-103 76,-103 76,-103 82,-103 88,-109 88,-115 88,-115 88,-127 88,-127 88,-133 82,-139 76,-139"/>
<text text-anchor="middle" x="52" y="-117.3" font-family="Times,serif" font-size="14.00">E</text>
</a>
</g>
</g>
<!-- BigStateMachineTest_smZxabZx_Z&#45;&gt;BigStateMachineTest_smGe_E -->
<g id="edge16" class="edge">
<title>BigStateMachineTest_smZxabZx_Z&#45;&gt;BigStateMachineTest_smGe_E</title>
<g id="a_edge16"><a xlink:title="From Zxab to Ge.E on e1">
<path fill="none" stroke="black" d="M209,-210.79C169.45,-202.5 154.85,-212.65 119,-193 99.06,-182.07 81.62,-163.1 69.54,-147.51"/>
<polygon fill="black" stroke="black" points="72.18,-145.2 63.39,-139.28 66.56,-149.38 72.18,-145.2"/>
</a>
</g>
<text text-anchor="middle" x="126" y="-181.8" font-family="Times,serif" font-size="14.00">e1</text>
</g>
<!-- BigStateMachineTest_smZxab_B -->
<g id="node7" class="node">
<title>BigStateMachineTest_smZxab_B</title>
<g id="a_node7"><a xlink:title="Class BigStateMachineTest, SM sm, State Zxab.B">
<path fill="none" stroke="black" d="M337,-52C337,-52 289,-52 289,-52 283,-52 277,-46 277,-40 277,-40 277,-28 277,-28 277,-22 283,-16 289,-16 289,-16 337,-16 337,-16 343,-16 349,-22 349,-28 349,-28 349,-40 349,-40 349,-46 343,-52 337,-52"/>
<text text-anchor="middle" x="313" y="-30.3" font-family="Times,serif" font-size="14.00">B</text>
</a>
</g>
</g>
<!-- BigStateMachineTest_smZxab_A&#45;&gt;BigStateMachineTest_smZxab_B -->
<g id="edge7" class="edge">
<title>BigStateMachineTest_smZxab_A&#45;&gt;BigStateMachineTest_smZxab_B</title>
<g id="a_edge7"><a xlink:title="From Zxab.A to Zxab.B on e3">
<path fill="none" stroke="black" d="M360.86,-102.8C352.32,-90.7 340.74,-74.3 331.12,-60.67"/>
<polygon fill="black" stroke="black" points="333.75,-58.33 325.12,-52.18 328.03,-62.36 333.75,-58.33"/>
</a>
</g>
<text text-anchor="middle" x="353" y="-73.8" font-family="Times,serif" font-size="14.00">e3</text>
</g>
<!-- BigStateMachineTest_sm_D -->
<g id="node8" class="node">
<title>BigStateMachineTest_sm_D</title>
<g id="a_node8"><a xlink:title="Class BigStateMachineTest, SM sm, State D">
<path fill="none" stroke="black" d="M189,-247C189,-247 141,-247 141,-247 135,-247 129,-241 129,-235 129,-235 129,-223 129,-223 129,-217 135,-211 141,-211 141,-211 189,-211 189,-211 195,-211 201,-217 201,-223 201,-223 201,-235 201,-235 201,-241 195,-247 189,-247"/>
<text text-anchor="middle" x="165" y="-225.3" font-family="Times,serif" font-size="14.00">D</text>
</a>
</g>
</g>
<!-- BigStateMachineTest_smZxab_A&#45;&gt;BigStateMachineTest_sm_D -->
<g id="edge9" class="edge">
<title>BigStateMachineTest_smZxab_A&#45;&gt;BigStateMachineTest_sm_D</title>
<g id="a_edge9"><a xlink:title="From Zxab.A to D on e5">
<path fill="none" stroke="black" d="M362.85,-139.33C355.49,-150.16 344.48,-163.28 331,-170 287.13,-191.86 266.13,-158.88 221,-178 207.74,-183.62 195.5,-193.7 185.86,-203.34"/>
<polygon fill="black" stroke="black" points="183.05,-201.22 178.72,-210.89 188.14,-206.03 183.05,-201.22"/>
</a>
</g>
<text text-anchor="middle" x="228" y="-181.8" font-family="Times,serif" font-size="14.00">e5</text>
</g>
<!-- BigStateMachineTest_smZxab_B&#45;&gt;BigStateMachineTest_smGe_G -->
<g id="edge10" class="edge">
<title>BigStateMachineTest_smZxab_B&#45;&gt;BigStateMachineTest_smGe_G</title>
<g id="a_edge10"><a xlink:title="From Zxab.B to Ge on e3">
<path fill="none" stroke="black" d="M276.8,-34C237.17,-34 173.52,-34 130.29,-34"/>
<polygon fill="black" stroke="black" points="138,-30.5 128,-34 138,-37.5 138,-30.5"/>
</a>
</g>
<text text-anchor="middle" x="198.5" y="-40.8" font-family="Times,serif" font-size="14.00">e3</text>
</g>
<!-- BigStateMachineTest_sm_D&#45;&gt;BigStateMachineTest_smZxabZx_X -->
<g id="edge5" class="edge">
<title>BigStateMachineTest_sm_D&#45;&gt;BigStateMachineTest_smZxabZx_X</title>
<g id="a_edge5"><a xlink:title="From D to Zxab.Zx.X on e5">
<path fill="none" stroke="black" d="M169.75,-210.58C173.65,-199.56 180.33,-185.94 191,-178 206.24,-166.66 216.12,-178.72 233,-170 244.08,-164.28 254.39,-155.32 262.72,-146.69"/>
<polygon fill="black" stroke="black" points="265.34,-149.01 269.52,-139.27 260.18,-144.28 265.34,-149.01"/>
</a>
</g>
<text text-anchor="middle" x="198" y="-181.8" font-family="Times,serif" font-size="14.00">e5</text>
</g>
<!-- BigStateMachineTest_sm_D&#45;&gt;BigStateMachineTest_smGe_E -->
<g id="edge17" class="edge">
<title>BigStateMachineTest_sm_D&#45;&gt;BigStateMachineTest_smGe_E</title>
<g id="a_edge17"><a xlink:title="From D to Ge.E on e2">
<path fill="none" stroke="black" d="M128.83,-221.62C110.48,-216.66 89.16,-208 75,-193 63.76,-181.1 58.02,-163.65 55.08,-149.03"/>
<polygon fill="black" stroke="black" points="58.5,-148.29 53.39,-139.01 51.6,-149.45 58.5,-148.29"/>
</a>
</g>
<text text-anchor="middle" x="82" y="-181.8" font-family="Times,serif" font-size="14.00">e2</text>
</g>
<!-- start_BigStateMachineTest_smGe -->
<g id="node9" class="node">
<title>start_BigStateMachineTest_smGe</title>
<g id="a_node9"><a xlink:title="Class BigStateMachineTest, SM sm, State Ge.start">
<ellipse fill="black" stroke="black" cx="113" cy="-121" rx="7.2" ry="7.2"/>
</a>
</g>
</g>
<!-- start_BigStateMachineTest_smGe&#45;&gt;BigStateMachineTest_smGe_G -->
<g id="edge12" class="edge">
<title>start_BigStateMachineTest_smGe&#45;&gt;BigStateMachineTest_smGe_G</title>
<g id="a_edge12"><a xlink:title="start to Ge.G">
<path fill="none" stroke="black" d="M112.75,-113.65C112.21,-103.96 110.48,-85.03 105,-70 103.92,-67.03 102.58,-64.04 101.1,-61.12"/>
<polygon fill="black" stroke="black" points="104.01,-59.15 96.06,-52.15 97.91,-62.58 104.01,-59.15"/>
</a>
</g>
</g>
<!-- BigStateMachineTest_smGe_G&#45;&gt;BigStateMachineTest_smZxab_B -->
<g id="edge8" class="edge">
<title>BigStateMachineTest_smGe_G&#45;&gt;BigStateMachineTest_smZxab_B</title>
<g id="a_edge8"><a xlink:title="From Ge.G to Zxab.B on e1">
<path fill="none" stroke="black" d="M120.03,-34C159.6,-34 223.24,-34 266.53,-34"/>
<polygon fill="black" stroke="black" points="266.8,-37.5 276.8,-34 266.8,-30.5 266.8,-37.5"/>
</a>
</g>
<text text-anchor="middle" x="198.5" y="-40.8" font-family="Times,serif" font-size="14.00">e1</text>
</g>
<!-- BigStateMachineTest_smGe_E&#45;&gt;BigStateMachineTest_smGe_G -->
<g id="edge14" class="edge">
<title>BigStateMachineTest_smGe_E&#45;&gt;BigStateMachineTest_smGe_G</title>
<g id="a_edge14"><a xlink:title="From Ge.E to Ge.G on e1">
<path fill="none" stroke="black" d="M48.42,-102.75C47.15,-92.83 46.9,-80.33 51,-70 52.38,-66.54 54.27,-63.22 56.47,-60.1"/>
<polygon fill="black" stroke="black" points="59.2,-62.29 62.83,-52.34 53.79,-57.85 59.2,-62.29"/>
</a>
</g>
<text text-anchor="middle" x="58" y="-73.8" font-family="Times,serif" font-size="14.00">e1</text>
</g>
<!-- BigStateMachineTest_smGe_E&#45;&gt;BigStateMachineTest_smGe_G -->
<g id="edge15" class="edge">
<title>BigStateMachineTest_smGe_E&#45;&gt;BigStateMachineTest_smGe_G</title>
<g id="a_edge15"><a xlink:title="From Ge.E to Ge.G on e2">
<path fill="none" stroke="black" d="M58.48,-102.8C62.9,-91.05 68.85,-75.24 73.89,-61.84"/>
<polygon fill="black" stroke="black" points="77.29,-62.77 77.53,-52.18 70.74,-60.3 77.29,-62.77"/>
</a>
</g>
<text text-anchor="middle" x="76" y="-73.8" font-family="Times,serif" font-size="14.00">e2</text>
</g>
</g>
</svg>
