<?xml version="1.0" encoding="UTF-8" standalone="no"?>
<!DOCTYPE svg PUBLIC "-//W3C//DTD SVG 1.1//EN"
 "http://www.w3.org/Graphics/SVG/1.1/DTD/svg11.dtd">
<!-- Generated by graphviz version 2.40.1 (20161225.0304)
 -->
<!-- Title: CourseSectionNested Pages: 1 -->
<svg width="747pt" height="541pt"
 viewBox="0.00 0.00 747.20 541.40" xmlns="http://www.w3.org/2000/svg" xmlns:xlink="http://www.w3.org/1999/xlink">
<g id="graph0" class="graph" transform="scale(1 1) rotate(0) translate(4 537.4)">
<title>CourseSectionNested</title>
<polygon fill="#ffffff" stroke="transparent" points="-4,4 -4,-537.4 743.2002,-537.4 743.2002,4 -4,4"/>
<g id="clust1" class="cluster">
<title>clusterCourseSection_status_Open</title>
<path fill="none" stroke="#000000" d="M333,-164C333,-164 497,-164 497,-164 503,-164 509,-170 509,-176 509,-176 509,-513.4 509,-513.4 509,-519.4 503,-525.4 497,-525.4 497,-525.4 333,-525.4 333,-525.4 327,-525.4 321,-519.4 321,-513.4 321,-513.4 321,-176 321,-176 321,-170 327,-164 333,-164"/>
<text text-anchor="middle" x="415" y="-510.2" font-family="Times,serif" font-size="14.00" fill="#000000">Open</text>
</g>
<!-- start_CourseSection_status -->
<g id="node1" class="node">
<title>start_CourseSection_status</title>
<g id="a_node1"><a xlink:title="Class CourseSection, SM status, State start">
<ellipse fill="#000000" stroke="#000000" cx="143" cy="-488.2" rx="7.2" ry="7.2"/>
</a>
</g>
</g>
<!-- CourseSection_status_Planned -->
<g id="node2" class="node">
<title>CourseSection_status_Planned</title>
<g id="a_node2"><a xlink:title="Class CourseSection, SM status, State Planned">
<path fill="none" stroke="#000000" d="M167,-444C167,-444 119,-444 119,-444 113,-444 107,-438 107,-432 107,-432 107,-420 107,-420 107,-414 113,-408 119,-408 119,-408 167,-408 167,-408 173,-408 179,-414 179,-420 179,-420 179,-432 179,-432 179,-438 173,-444 167,-444"/>
<text text-anchor="middle" x="143" y="-421.8" font-family="Times,serif" font-size="14.00" fill="#000000">Planned</text>
</a>
</g>
</g>
<!-- start_CourseSection_status&#45;&gt;CourseSection_status_Planned -->
<g id="edge1" class="edge">
<title>start_CourseSection_status&#45;&gt;CourseSection_status_Planned</title>
<g id="a_edge1"><a xlink:title="start to Planned">
<path fill="none" stroke="#000000" d="M143,-480.5731C143,-473.9503 143,-463.9322 143,-454.2795"/>
<polygon fill="#000000" stroke="#000000" points="146.5001,-454.1266 143,-444.1266 139.5001,-454.1267 146.5001,-454.1266"/>
</a>
</g>
</g>
<!-- CourseSection_statusOpen_NotEnoughStudents -->
<g id="node6" class="node">
<title>CourseSection_statusOpen_NotEnoughStudents</title>
<g id="a_node6"><a xlink:title="Class CourseSection, SM status, State Open.NotEnoughStudents">
<path fill="none" stroke="#000000" d="M445.2795,-358C445.2795,-358 340.7205,-358 340.7205,-358 334.7205,-358 328.7205,-352 328.7205,-346 328.7205,-346 328.7205,-334 328.7205,-334 328.7205,-328 334.7205,-322 340.7205,-322 340.7205,-322 445.2795,-322 445.2795,-322 451.2795,-322 457.2795,-328 457.2795,-334 457.2795,-334 457.2795,-346 457.2795,-346 457.2795,-352 451.2795,-358 445.2795,-358"/>
<text text-anchor="middle" x="393" y="-335.8" font-family="Times,serif" font-size="14.00" fill="#000000">NotEnoughStudents</text>
</a>
</g>
</g>
<!-- CourseSection_status_Planned&#45;&gt;CourseSection_statusOpen_NotEnoughStudents -->
<g id="edge7" class="edge">
<title>CourseSection_status_Planned&#45;&gt;CourseSection_statusOpen_NotEnoughStudents</title>
<g id="a_edge7"><a xlink:title="From Planned to Open.NotEnoughStudents on openRegistration">
<path fill="none" stroke="#000000" d="M179.0852,-413.5867C218.6811,-399.9657 282.9566,-377.8549 330.73,-361.4209"/>
<polygon fill="#000000" stroke="#000000" points="332.0378,-364.6724 340.3554,-358.1097 329.7608,-358.0531 332.0378,-364.6724"/>
</a>
</g>
<text text-anchor="middle" x="329.8242" y="-378.8" font-family="Times,serif" font-size="14.00" fill="#000000">openRegistration</text>
</g>
<!-- CourseSection_status_Cancelled -->
<g id="node8" class="node">
<title>CourseSection_status_Cancelled</title>
<g id="a_node8"><a xlink:title="Class CourseSection, SM status, State Cancelled">
<path fill="none" stroke="#000000" d="M188,-36C188,-36 140,-36 140,-36 134,-36 128,-30 128,-24 128,-24 128,-12 128,-12 128,-6 134,0 140,0 140,0 188,0 188,0 194,0 200,-6 200,-12 200,-12 200,-24 200,-24 200,-30 194,-36 188,-36"/>
<text text-anchor="middle" x="164" y="-13.8" font-family="Times,serif" font-size="14.00" fill="#000000">Cancelled</text>
</a>
</g>
</g>
<!-- CourseSection_status_Planned&#45;&gt;CourseSection_status_Cancelled -->
<g id="edge9" class="edge">
<title>CourseSection_status_Planned&#45;&gt;CourseSection_status_Cancelled</title>
<g id="a_edge9"><a xlink:title="From Planned to Cancelled on cancel">
<path fill="none" stroke="#000000" d="M106.9151,-420.3931C64.5525,-411.5219 0,-389.8287 0,-340 0,-340 0,-340 0,-104 0,-50.5741 69.1066,-30.2711 117.6002,-22.6009"/>
<polygon fill="#000000" stroke="#000000" points="118.2098,-26.0492 127.6031,-21.1485 117.2039,-19.1218 118.2098,-26.0492"/>
</a>
</g>
<text text-anchor="middle" x="17.8726" y="-228.8" font-family="Times,serif" font-size="14.00" fill="#000000">cancel</text>
</g>
<!-- dummyNode1_NotEnoughStudents_Open -->
<g id="node3" class="node">
<title>dummyNode1_NotEnoughStudents_Open</title>
<ellipse fill="#000000" stroke="#000000" cx="43" cy="-265" rx=".18" ry=".18"/>
</g>
<!-- dummyNode1_NotEnoughStudents_Open&#45;&gt;CourseSection_statusOpen_NotEnoughStudents -->
<g id="edge3" class="edge">
<title>dummyNode1_NotEnoughStudents_Open:w&#45;&gt;CourseSection_statusOpen_NotEnoughStudents</title>
<g id="a_edge3"><a xlink:title="From Open.NotEnoughStudents to Open on requestToRegister">
<path fill="none" stroke="#000000" d="M43,-265C25.4627,-265 36.2988,-291.9073 49,-304 68.0921,-322.1774 222.8504,-332.3561 318.173,-336.9567"/>
<polygon fill="#000000" stroke="#000000" points="310.5546,-339.211 321,-337.4375 311.7285,-332.3101 310.5546,-339.211"/>
</a>
</g>
</g>
<!-- dummyNode2_EnoughStudents_Open -->
<g id="node4" class="node">
<title>dummyNode2_EnoughStudents_Open</title>
<ellipse fill="#000000" stroke="#000000" cx="341" cy="-104" rx=".18" ry=".18"/>
</g>
<!-- dummyNode2_EnoughStudents_Open&#45;&gt;CourseSection_statusOpen_NotEnoughStudents -->
<g id="edge5" class="edge">
<title>dummyNode2_EnoughStudents_Open:w&#45;&gt;CourseSection_statusOpen_NotEnoughStudents</title>
<g id="a_edge5"><a xlink:title="From Open.EnoughStudents to Open on requestToRegister">
<path fill="none" stroke="#000000" d="M341,-104C294.2525,-104 298.0491,-148.7076 317.2475,-199.2053"/>
<polygon fill="#000000" stroke="#000000" points="314.0678,-200.6823 321.0027,-208.6922 320.5765,-198.1059 314.0678,-200.6823"/>
</a>
</g>
</g>
<!-- start_CourseSection_Open -->
<g id="node5" class="node">
<title>start_CourseSection_Open</title>
<g id="a_node5"><a xlink:title="Class CourseSection, SM status, State Open.start">
<ellipse fill="#000000" stroke="#000000" cx="393" cy="-488.2" rx="7.2" ry="7.2"/>
</a>
</g>
</g>
<!-- start_CourseSection_Open&#45;&gt;CourseSection_statusOpen_NotEnoughStudents -->
<g id="edge6" class="edge">
<title>start_CourseSection_Open&#45;&gt;CourseSection_statusOpen_NotEnoughStudents</title>
<g id="a_edge6"><a xlink:title="start to Open.NotEnoughStudents">
<path fill="none" stroke="#000000" d="M393,-480.647C393,-460.2272 393,-403.1206 393,-368.2741"/>
<polygon fill="#000000" stroke="#000000" points="396.5001,-368.2395 393,-358.2395 389.5001,-368.2396 396.5001,-368.2395"/>
</a>
</g>
</g>
<!-- CourseSection_statusOpen_NotEnoughStudents&#45;&gt;dummyNode1_NotEnoughStudents_Open -->
<g id="edge2" class="edge">
<title>CourseSection_statusOpen_NotEnoughStudents&#45;&gt;dummyNode1_NotEnoughStudents_Open:e</title>
<g id="a_edge2"><a xlink:title="From Open.NotEnoughStudents to Open on requestToRegister">
<path fill="none" stroke="#000000" d="M328.5541,-336.5542C237.6474,-331.167 80.4193,-319.7163 59.3428,-304 44.2766,-292.7655 61.7937,-265 43,-265"/>
</a>
</g>
<text text-anchor="middle" x="110.8286" y="-292.8" font-family="Times,serif" font-size="14.00" fill="#000000">requestToRegister</text>
</g>
<!-- CourseSection_statusOpen_EnoughStudents -->
<g id="node7" class="node">
<title>CourseSection_statusOpen_EnoughStudents</title>
<g id="a_node7"><a xlink:title="Class CourseSection, SM status, State Open.EnoughStudents">
<path fill="none" stroke="#000000" d="M456.7795,-208C456.7795,-208 373.2205,-208 373.2205,-208 367.2205,-208 361.2205,-202 361.2205,-196 361.2205,-196 361.2205,-184 361.2205,-184 361.2205,-178 367.2205,-172 373.2205,-172 373.2205,-172 456.7795,-172 456.7795,-172 462.7795,-172 468.7795,-178 468.7795,-184 468.7795,-184 468.7795,-196 468.7795,-196 468.7795,-202 462.7795,-208 456.7795,-208"/>
<text text-anchor="middle" x="415" y="-185.8" font-family="Times,serif" font-size="14.00" fill="#000000">EnoughStudents</text>
</a>
</g>
</g>
<!-- CourseSection_statusOpen_NotEnoughStudents&#45;&gt;CourseSection_statusOpen_EnoughStudents -->
<g id="edge8" class="edge">
<title>CourseSection_statusOpen_NotEnoughStudents&#45;&gt;CourseSection_statusOpen_EnoughStudents</title>
<g id="a_edge8"><a xlink:title="From Open.NotEnoughStudents to Open.EnoughStudents on classSizeExceedsMinimum">
<path fill="none" stroke="#000000" d="M395.6537,-321.9065C399.4362,-296.1166 406.4129,-248.5484 410.8734,-218.1357"/>
<polygon fill="#000000" stroke="#000000" points="414.3486,-218.5598 412.3369,-208.1577 407.4227,-217.5439 414.3486,-218.5598"/>
</a>
</g>
<text text-anchor="middle" x="480.9829" y="-260.8" font-family="Times,serif" font-size="14.00" fill="#000000">classSizeExceedsMinimum</text>
</g>
<!-- CourseSection_statusOpen_NotEnoughStudents&#45;&gt;CourseSection_status_Cancelled -->
<g id="edge10" class="edge">
<title>CourseSection_statusOpen_NotEnoughStudents&#45;&gt;CourseSection_status_Cancelled</title>
<g id="a_edge10"><a xlink:title="From Open to Cancelled on cancel">
<path fill="none" stroke="#000000" d="M321.002,-334.2161C270.9036,-328.9211 209.5512,-319.4992 189,-304 110.1662,-244.5457 138.3723,-105.8397 155.1619,-46.1435"/>
<polygon fill="#000000" stroke="#000000" points="158.5988,-46.8594 158.0369,-36.2795 151.8784,-44.9006 158.5988,-46.8594"/>
</a>
</g>
<text text-anchor="middle" x="156.8726" y="-185.8" font-family="Times,serif" font-size="14.00" fill="#000000">cancel</text>
</g>
<!-- CourseSection_statusOpen_NotEnoughStudents&#45;&gt;CourseSection_status_Cancelled -->
<g id="edge11" class="edge">
<title>CourseSection_statusOpen_NotEnoughStudents&#45;&gt;CourseSection_status_Cancelled</title>
<g id="a_edge11"><a xlink:title="From Open.NotEnoughStudents to Cancelled on closeRegistration">
<path fill="none" stroke="#000000" d="M328.4655,-327.6262C272.359,-314.9648 200,-293.1742 200,-265 200,-265 200,-265 200,-104 200,-83.1632 190.8964,-61.5353 181.8451,-45.1811"/>
<polygon fill="#000000" stroke="#000000" points="184.6641,-43.0686 176.5911,-36.2073 178.6233,-46.6054 184.6641,-43.0686"/>
</a>
</g>
<text text-anchor="middle" x="248.6001" y="-185.8" font-family="Times,serif" font-size="14.00" fill="#000000">closeRegistration</text>
</g>
<!-- CourseSection_statusOpen_EnoughStudents&#45;&gt;dummyNode2_EnoughStudents_Open -->
<g id="edge4" class="edge">
<title>CourseSection_statusOpen_EnoughStudents&#45;&gt;dummyNode2_EnoughStudents_Open:e</title>
<g id="a_edge4"><a xlink:title="From Open.EnoughStudents to Open on requestToRegister">
<path fill="none" stroke="#000000" d="M375.3606,-171.8598C367.8704,-166.9504 360.7123,-161.0107 355.3428,-154 341.2856,-135.6463 364.1184,-104 341,-104"/>
</a>
</g>
<text text-anchor="middle" x="405.8286" y="-142.8" font-family="Times,serif" font-size="14.00" fill="#000000">requestToRegister</text>
</g>
<!-- CourseSection_status_Closed -->
<g id="node9" class="node">
<title>CourseSection_status_Closed</title>
<g id="a_node9"><a xlink:title="Class CourseSection, SM status, State Closed">
<path fill="none" stroke="#000000" d="M507,-122C507,-122 459,-122 459,-122 453,-122 447,-116 447,-110 447,-110 447,-98 447,-98 447,-92 453,-86 459,-86 459,-86 507,-86 507,-86 513,-86 519,-92 519,-98 519,-98 519,-110 519,-110 519,-116 513,-122 507,-122"/>
<text text-anchor="middle" x="483" y="-99.8" font-family="Times,serif" font-size="14.00" fill="#000000">Closed</text>
</a>
</g>
</g>
<!-- CourseSection_statusOpen_EnoughStudents&#45;&gt;CourseSection_status_Closed -->
<g id="edge13" class="edge">
<title>CourseSection_statusOpen_EnoughStudents&#45;&gt;CourseSection_status_Closed</title>
<g id="a_edge13"><a xlink:title="From Open.EnoughStudents to Closed on closeRegistration">
<path fill="none" stroke="#000000" d="M469.0378,-185.013C532.0392,-178.6423 629.0109,-166.8872 640,-154 644.0373,-149.2654 643.8771,-144.8667 640,-140 626.3463,-122.8611 570.5712,-113.2149 529.3636,-108.3106"/>
<polygon fill="#000000" stroke="#000000" points="529.5657,-104.8112 519.2355,-107.1643 528.7784,-111.7668 529.5657,-104.8112"/>
</a>
</g>
<text text-anchor="middle" x="690.6001" y="-142.8" font-family="Times,serif" font-size="14.00" fill="#000000">closeRegistration</text>
</g>
<!-- CourseSection_statusOpen_EnoughStudents&#45;&gt;CourseSection_status_Closed -->
<g id="edge14" class="edge">
<title>CourseSection_statusOpen_EnoughStudents&#45;&gt;CourseSection_status_Closed</title>
<g id="a_edge14"><a xlink:title="From Open.EnoughStudents to Closed on classSizeExceedsMaximum">
<path fill="none" stroke="#000000" d="M442.7929,-171.8147C449.3441,-166.6194 455.8974,-160.5661 461,-154 466.1555,-147.3658 470.3775,-139.3351 473.6947,-131.6692"/>
<polygon fill="#000000" stroke="#000000" points="476.9826,-132.8725 477.4147,-122.2865 470.4754,-130.2926 476.9826,-132.8725"/>
</a>
</g>
<text text-anchor="middle" x="547.145" y="-142.8" font-family="Times,serif" font-size="14.00" fill="#000000">classSizeExceedsMaximum</text>
</g>
<!-- CourseSection_status_Closed&#45;&gt;CourseSection_status_Cancelled -->
<g id="edge12" class="edge">
<title>CourseSection_status_Closed&#45;&gt;CourseSection_status_Cancelled</title>
<g id="a_edge12"><a xlink:title="From Closed to Cancelled on cancel">
<path fill="none" stroke="#000000" d="M446.7172,-94.2184C388.4344,-78.5058 274.0284,-47.6628 210.0652,-30.4188"/>
<polygon fill="#000000" stroke="#000000" points="210.8152,-26.9961 200.2489,-27.7724 208.9931,-33.7548 210.8152,-26.9961"/>
</a>
</g>
<text text-anchor="middle" x="359.8726" y="-56.8" font-family="Times,serif" font-size="14.00" fill="#000000">cancel</text>
</g>
</g>
</svg>
