<?xml version="1.0" encoding="UTF-8" standalone="no"?>
<!DOCTYPE svg PUBLIC "-//W3C//DTD SVG 1.1//EN"
 "http://www.w3.org/Graphics/SVG/1.1/DTD/svg11.dtd">
<!-- Generated by graphviz version 2.40.1 (20161225.0304)
 -->
<!-- Title: CourseSectionFlat Pages: 1 -->
<svg width="569pt" height="439pt"
 viewBox="0.00 0.00 568.80 439.40" xmlns="http://www.w3.org/2000/svg" xmlns:xlink="http://www.w3.org/1999/xlink">
<g id="graph0" class="graph" transform="scale(1 1) rotate(0) translate(4 435.4)">
<title>CourseSectionFlat</title>
<polygon fill="#ffffff" stroke="transparent" points="-4,4 -4,-435.4 564.7969,-435.4 564.7969,4 -4,4"/>
<!-- start_CourseSection_status -->
<g id="node1" class="node">
<title>start_CourseSection_status</title>
<g id="a_node1"><a xlink:title="Class CourseSection, SM status, State start">
<ellipse fill="#000000" stroke="#000000" cx="411.0518" cy="-424.2" rx="7.2" ry="7.2"/>
</a>
</g>
</g>
<!-- CourseSection_status_Planned -->
<g id="node2" class="node">
<title>CourseSection_status_Planned</title>
<g id="a_node2"><a xlink:title="Class CourseSection, SM status, State Planned">
<path fill="none" stroke="#000000" d="M435.0518,-380C435.0518,-380 387.0518,-380 387.0518,-380 381.0518,-380 375.0518,-374 375.0518,-368 375.0518,-368 375.0518,-356 375.0518,-356 375.0518,-350 381.0518,-344 387.0518,-344 387.0518,-344 435.0518,-344 435.0518,-344 441.0518,-344 447.0518,-350 447.0518,-356 447.0518,-356 447.0518,-368 447.0518,-368 447.0518,-374 441.0518,-380 435.0518,-380"/>
<text text-anchor="middle" x="411.0518" y="-357.8" font-family="Times,serif" font-size="14.00" fill="#000000">Planned</text>
</a>
</g>
</g>
<!-- start_CourseSection_status&#45;&gt;CourseSection_status_Planned -->
<g id="edge1" class="edge">
<title>start_CourseSection_status&#45;&gt;CourseSection_status_Planned</title>
<g id="a_edge1"><a xlink:title="start to Planned">
<path fill="none" stroke="#000000" d="M411.0518,-416.5731C411.0518,-409.9503 411.0518,-399.9322 411.0518,-390.2795"/>
<polygon fill="#000000" stroke="#000000" points="414.5519,-390.1266 411.0518,-380.1266 407.5519,-390.1267 414.5519,-390.1266"/>
</a>
</g>
</g>
<!-- CourseSection_status_OpenNotEnoughStudents -->
<g id="node3" class="node">
<title>CourseSection_status_OpenNotEnoughStudents</title>
<g id="a_node3"><a xlink:title="Class CourseSection, SM status, State OpenNotEnoughStudents">
<path fill="none" stroke="#000000" d="M365.6553,-294C365.6553,-294 230.4482,-294 230.4482,-294 224.4482,-294 218.4482,-288 218.4482,-282 218.4482,-282 218.4482,-270 218.4482,-270 218.4482,-264 224.4482,-258 230.4482,-258 230.4482,-258 365.6553,-258 365.6553,-258 371.6553,-258 377.6553,-264 377.6553,-270 377.6553,-270 377.6553,-282 377.6553,-282 377.6553,-288 371.6553,-294 365.6553,-294"/>
<text text-anchor="middle" x="298.0518" y="-271.8" font-family="Times,serif" font-size="14.00" fill="#000000">OpenNotEnoughStudents</text>
</a>
</g>
</g>
<!-- CourseSection_status_Planned&#45;&gt;CourseSection_status_OpenNotEnoughStudents -->
<g id="edge2" class="edge">
<title>CourseSection_status_Planned&#45;&gt;CourseSection_status_OpenNotEnoughStudents</title>
<g id="a_edge2"><a xlink:title="From Planned to OpenNotEnoughStudents on openRegistration">
<path fill="none" stroke="#000000" d="M387.3633,-343.9716C370.6389,-331.2433 348.0448,-314.0478 329.7668,-300.1371"/>
<polygon fill="#000000" stroke="#000000" points="331.7863,-297.2758 321.7091,-294.0047 327.547,-302.8461 331.7863,-297.2758"/>
</a>
</g>
<text text-anchor="middle" x="408.876" y="-314.8" font-family="Times,serif" font-size="14.00" fill="#000000">openRegistration</text>
</g>
<!-- CourseSection_status_Cancelled -->
<g id="node5" class="node">
<title>CourseSection_status_Cancelled</title>
<g id="a_node5"><a xlink:title="Class CourseSection, SM status, State Cancelled">
<path fill="none" stroke="#000000" d="M350.0518,-36C350.0518,-36 302.0518,-36 302.0518,-36 296.0518,-36 290.0518,-30 290.0518,-24 290.0518,-24 290.0518,-12 290.0518,-12 290.0518,-6 296.0518,0 302.0518,0 302.0518,0 350.0518,0 350.0518,0 356.0518,0 362.0518,-6 362.0518,-12 362.0518,-12 362.0518,-24 362.0518,-24 362.0518,-30 356.0518,-36 350.0518,-36"/>
<text text-anchor="middle" x="326.0518" y="-13.8" font-family="Times,serif" font-size="14.00" fill="#000000">Cancelled</text>
</a>
</g>
</g>
<!-- CourseSection_status_Planned&#45;&gt;CourseSection_status_Cancelled -->
<g id="edge6" class="edge">
<title>CourseSection_status_Planned&#45;&gt;CourseSection_status_Cancelled</title>
<g id="a_edge6"><a xlink:title="From Planned to Cancelled on cancel">
<path fill="none" stroke="#000000" d="M447.1221,-351.5235C480.5205,-339.3439 525.0518,-315.6668 525.0518,-276 525.0518,-276 525.0518,-276 525.0518,-104 525.0518,-70.823 430.6714,-42.5549 371.9055,-28.1693"/>
<polygon fill="#000000" stroke="#000000" points="372.6298,-24.7438 362.0892,-25.8138 370.9964,-31.5506 372.6298,-24.7438"/>
</a>
</g>
<text text-anchor="middle" x="542.9243" y="-185.8" font-family="Times,serif" font-size="14.00" fill="#000000">cancel</text>
</g>
<!-- CourseSection_status_OpenNotEnoughStudents&#45;&gt;CourseSection_status_OpenNotEnoughStudents -->
<g id="edge3" class="edge">
<title>CourseSection_status_OpenNotEnoughStudents&#45;&gt;CourseSection_status_OpenNotEnoughStudents</title>
<g id="a_edge3"><a xlink:title="From OpenNotEnoughStudents to OpenNotEnoughStudents on requestToRegister">
<path fill="none" stroke="#000000" d="M377.6652,-282.9863C388.4338,-281.8151 395.6035,-279.4863 395.6035,-276 395.6035,-273.7666 392.6611,-272.0082 387.715,-270.7249"/>
<polygon fill="#000000" stroke="#000000" points="388.1109,-267.242 377.6652,-269.0137 386.9358,-274.1427 388.1109,-267.242"/>
</a>
</g>
<text text-anchor="middle" x="446.4321" y="-271.8" font-family="Times,serif" font-size="14.00" fill="#000000">requestToRegister</text>
</g>
<!-- CourseSection_status_OpenEnoughStudents -->
<g id="node4" class="node">
<title>CourseSection_status_OpenEnoughStudents</title>
<g id="a_node4"><a xlink:title="Class CourseSection, SM status, State OpenEnoughStudents">
<path fill="none" stroke="#000000" d="M126.1553,-208C126.1553,-208 11.9482,-208 11.9482,-208 5.9482,-208 -.0518,-202 -.0518,-196 -.0518,-196 -.0518,-184 -.0518,-184 -.0518,-178 5.9482,-172 11.9482,-172 11.9482,-172 126.1553,-172 126.1553,-172 132.1553,-172 138.1553,-178 138.1553,-184 138.1553,-184 138.1553,-196 138.1553,-196 138.1553,-202 132.1553,-208 126.1553,-208"/>
<text text-anchor="middle" x="69.0518" y="-185.8" font-family="Times,serif" font-size="14.00" fill="#000000">OpenEnoughStudents</text>
</a>
</g>
</g>
<!-- CourseSection_status_OpenNotEnoughStudents&#45;&gt;CourseSection_status_OpenEnoughStudents -->
<g id="edge4" class="edge">
<title>CourseSection_status_OpenNotEnoughStudents&#45;&gt;CourseSection_status_OpenEnoughStudents</title>
<g id="a_edge4"><a xlink:title="From OpenNotEnoughStudents to OpenEnoughStudents on classSizeExceedsMinimum">
<path fill="none" stroke="#000000" d="M218.4298,-259.3367C198.4015,-254.1122 177.1793,-247.6643 158.0859,-240 140.2072,-232.8233 121.4636,-222.7297 105.8111,-213.4887"/>
<polygon fill="#000000" stroke="#000000" points="107.355,-210.3329 96.9822,-208.1749 103.7452,-216.3304 107.355,-210.3329"/>
</a>
</g>
<text text-anchor="middle" x="235.0347" y="-228.8" font-family="Times,serif" font-size="14.00" fill="#000000">classSizeExceedsMinimum</text>
</g>
<!-- CourseSection_status_OpenNotEnoughStudents&#45;&gt;CourseSection_status_Cancelled -->
<g id="edge7" class="edge">
<title>CourseSection_status_OpenNotEnoughStudents&#45;&gt;CourseSection_status_Cancelled</title>
<g id="a_edge7"><a xlink:title="From OpenNotEnoughStudents to Cancelled on closeRegistration">
<path fill="none" stroke="#000000" d="M306.4387,-257.6545C308.6367,-252.0931 310.7527,-245.8939 312.0518,-240 327.1153,-171.6546 327.8675,-88.8219 327.0218,-46.2635"/>
<polygon fill="#000000" stroke="#000000" points="330.5168,-46.0125 326.7729,-36.1012 323.5189,-46.1839 330.5168,-46.0125"/>
</a>
</g>
<text text-anchor="middle" x="373.6519" y="-142.8" font-family="Times,serif" font-size="14.00" fill="#000000">closeRegistration</text>
</g>
<!-- CourseSection_status_OpenNotEnoughStudents&#45;&gt;CourseSection_status_Cancelled -->
<g id="edge8" class="edge">
<title>CourseSection_status_OpenNotEnoughStudents&#45;&gt;CourseSection_status_Cancelled</title>
<g id="a_edge8"><a xlink:title="From OpenNotEnoughStudents to Cancelled on cancel">
<path fill="none" stroke="#000000" d="M327.6264,-257.8706C358.3393,-237.1165 404.5706,-199.9793 424.0518,-154 442.4458,-110.5865 398.3082,-67.6528 363.4194,-41.9793"/>
<polygon fill="#000000" stroke="#000000" points="365.417,-39.105 355.2437,-36.146 361.3513,-44.8033 365.417,-39.105"/>
</a>
</g>
<text text-anchor="middle" x="444.9243" y="-142.8" font-family="Times,serif" font-size="14.00" fill="#000000">cancel</text>
</g>
<!-- CourseSection_status_OpenEnoughStudents&#45;&gt;CourseSection_status_OpenEnoughStudents -->
<g id="edge5" class="edge">
<title>CourseSection_status_OpenEnoughStudents&#45;&gt;CourseSection_status_OpenEnoughStudents</title>
<g id="a_edge5"><a xlink:title="From OpenEnoughStudents to OpenEnoughStudents on requestToRegister">
<path fill="none" stroke="#000000" d="M138.3675,-197.1809C148.9307,-196.0851 156.1035,-193.6914 156.1035,-190 156.1035,-187.6352 153.1598,-185.803 148.2668,-184.5034"/>
<polygon fill="#000000" stroke="#000000" points="148.813,-181.0461 138.3675,-182.8191 147.6388,-187.9469 148.813,-181.0461"/>
</a>
</g>
<text text-anchor="middle" x="206.9321" y="-185.8" font-family="Times,serif" font-size="14.00" fill="#000000">requestToRegister</text>
</g>
<!-- CourseSection_status_OpenEnoughStudents&#45;&gt;CourseSection_status_Cancelled -->
<g id="edge9" class="edge">
<title>CourseSection_status_OpenEnoughStudents&#45;&gt;CourseSection_status_Cancelled</title>
<g id="a_edge9"><a xlink:title="From OpenEnoughStudents to Cancelled on cancel">
<path fill="none" stroke="#000000" d="M35.9924,-171.7393C29.9641,-166.8112 24.499,-160.8945 21.0518,-154 4.7903,-121.477 48.8063,-97.0858 66.3066,-86 132.896,-43.8179 224.8484,-27.6924 279.6016,-21.6052"/>
<polygon fill="#000000" stroke="#000000" points="280.1257,-25.0696 289.7077,-20.5491 279.3981,-18.1075 280.1257,-25.0696"/>
</a>
</g>
<text text-anchor="middle" x="84.9243" y="-99.8" font-family="Times,serif" font-size="14.00" fill="#000000">cancel</text>
</g>
<!-- CourseSection_status_Closed -->
<g id="node6" class="node">
<title>CourseSection_status_Closed</title>
<g id="a_node6"><a xlink:title="Class CourseSection, SM status, State Closed">
<path fill="none" stroke="#000000" d="M171.0518,-122C171.0518,-122 123.0518,-122 123.0518,-122 117.0518,-122 111.0518,-116 111.0518,-110 111.0518,-110 111.0518,-98 111.0518,-98 111.0518,-92 117.0518,-86 123.0518,-86 123.0518,-86 171.0518,-86 171.0518,-86 177.0518,-86 183.0518,-92 183.0518,-98 183.0518,-98 183.0518,-110 183.0518,-110 183.0518,-116 177.0518,-122 171.0518,-122"/>
<text text-anchor="middle" x="147.0518" y="-99.8" font-family="Times,serif" font-size="14.00" fill="#000000">Closed</text>
</a>
</g>
</g>
<!-- CourseSection_status_OpenEnoughStudents&#45;&gt;CourseSection_status_Closed -->
<g id="edge11" class="edge">
<title>CourseSection_status_OpenEnoughStudents&#45;&gt;CourseSection_status_Closed</title>
<g id="a_edge11"><a xlink:title="From OpenEnoughStudents to Closed on closeRegistration">
<path fill="none" stroke="#000000" d="M39.7096,-171.8342C28.3544,-162.4999 19.8045,-150.8363 27.8516,-140 36.8545,-127.8765 71.5315,-118.2637 101.179,-112.032"/>
<polygon fill="#000000" stroke="#000000" points="101.887,-115.4598 110.9963,-110.0495 100.5013,-108.5983 101.887,-115.4598"/>
</a>
</g>
<text text-anchor="middle" x="76.6519" y="-142.8" font-family="Times,serif" font-size="14.00" fill="#000000">closeRegistration</text>
</g>
<!-- CourseSection_status_OpenEnoughStudents&#45;&gt;CourseSection_status_Closed -->
<g id="edge12" class="edge">
<title>CourseSection_status_OpenEnoughStudents&#45;&gt;CourseSection_status_Closed</title>
<g id="a_edge12"><a xlink:title="From OpenEnoughStudents to Closed on classSizeExceedsMaximum">
<path fill="none" stroke="#000000" d="M104.1305,-171.9311C111.7099,-166.874 119.196,-160.8544 125.0518,-154 130.5958,-147.5104 134.9608,-139.404 138.2906,-131.6197"/>
<polygon fill="#000000" stroke="#000000" points="141.6376,-132.6675 141.9654,-122.0777 135.1053,-130.1517 141.6376,-132.6675"/>
</a>
</g>
<text text-anchor="middle" x="212.1968" y="-142.8" font-family="Times,serif" font-size="14.00" fill="#000000">classSizeExceedsMaximum</text>
</g>
<!-- CourseSection_status_Closed&#45;&gt;CourseSection_status_Cancelled -->
<g id="edge10" class="edge">
<title>CourseSection_status_Closed&#45;&gt;CourseSection_status_Cancelled</title>
<g id="a_edge10"><a xlink:title="From Closed to Cancelled on cancel">
<path fill="none" stroke="#000000" d="M183.2751,-86.5966C211.4193,-73.0748 250.6146,-54.2436 280.8193,-39.7318"/>
<polygon fill="#000000" stroke="#000000" points="282.3844,-42.8629 289.8823,-35.3775 279.3529,-36.5534 282.3844,-42.8629"/>
</a>
</g>
<text text-anchor="middle" x="264.9243" y="-56.8" font-family="Times,serif" font-size="14.00" fill="#000000">cancel</text>
</g>
</g>
</svg>
