<?xml version="1.0" encoding="UTF-8" standalone="no"?>
<!DOCTYPE svg PUBLIC "-//W3C//DTD SVG 1.1//EN"
 "http://www.w3.org/Graphics/SVG/1.1/DTD/svg11.dtd">
<!-- Generated by graphviz version 2.48.0 (20210717.1556)
 -->
<!-- Title: CourseSectionFlat Pages: 1 -->
<svg width="573pt" height="443pt"
 viewBox="0.00 0.00 572.50 443.40" xmlns="http://www.w3.org/2000/svg" xmlns:xlink="http://www.w3.org/1999/xlink">
<g id="graph0" class="graph" transform="scale(1 1) rotate(0) translate(4 439.4)">
<title>CourseSectionFlat</title>
<polygon fill="white" stroke="transparent" points="-4,4 -4,-439.4 568.5,-439.4 568.5,4 -4,4"/>
<!-- start_CourseSection_status -->
<g id="node1" class="node">
<title>start_CourseSection_status</title>
<g id="a_node1"><a xlink:title="Class CourseSection, SM status, State start">
<ellipse fill="black" stroke="black" cx="414.5" cy="-428.2" rx="7.2" ry="7.2"/>
</a>
</g>
</g>
<!-- CourseSection_status_Planned -->
<g id="node2" class="node">
<title>CourseSection_status_Planned</title>
<g id="a_node2"><a xlink:title="Class CourseSection, SM status, State Planned">
<path fill="none" stroke="black" d="M438.5,-384C438.5,-384 390.5,-384 390.5,-384 384.5,-384 378.5,-378 378.5,-372 378.5,-372 378.5,-360 378.5,-360 378.5,-354 384.5,-348 390.5,-348 390.5,-348 438.5,-348 438.5,-348 444.5,-348 450.5,-354 450.5,-360 450.5,-360 450.5,-372 450.5,-372 450.5,-378 444.5,-384 438.5,-384"/>
<text text-anchor="middle" x="414.5" y="-362.3" font-family="Times,serif" font-size="14.00">Planned</text>
</a>
</g>
</g>
<!-- start_CourseSection_status&#45;&gt;CourseSection_status_Planned -->
<g id="edge1" class="edge">
<title>start_CourseSection_status&#45;&gt;CourseSection_status_Planned</title>
<g id="a_edge1"><a xlink:title="start to Planned">
<path fill="none" stroke="black" d="M414.5,-420.76C414.5,-414.39 414.5,-404.2 414.5,-394.39"/>
<polygon fill="black" stroke="black" points="418,-394.1 414.5,-384.1 411,-394.1 418,-394.1"/>
</a>
</g>
</g>
<!-- CourseSection_status_OpenNotEnoughStudents -->
<g id="node3" class="node">
<title>CourseSection_status_OpenNotEnoughStudents</title>
<g id="a_node3"><a xlink:title="Class CourseSection, SM status, State OpenNotEnoughStudents">
<path fill="none" stroke="black" d="M368.5,-297C368.5,-297 232.5,-297 232.5,-297 226.5,-297 220.5,-291 220.5,-285 220.5,-285 220.5,-273 220.5,-273 220.5,-267 226.5,-261 232.5,-261 232.5,-261 368.5,-261 368.5,-261 374.5,-261 380.5,-267 380.5,-273 380.5,-273 380.5,-285 380.5,-285 380.5,-291 374.5,-297 368.5,-297"/>
<text text-anchor="middle" x="300.5" y="-275.3" font-family="Times,serif" font-size="14.00">OpenNotEnoughStudents</text>
</a>
</g>
</g>
<!-- CourseSection_status_Planned&#45;&gt;CourseSection_status_OpenNotEnoughStudents -->
<g id="edge2" class="edge">
<title>CourseSection_status_Planned&#45;&gt;CourseSection_status_OpenNotEnoughStudents</title>
<g id="a_edge2"><a xlink:title="From Planned to OpenNotEnoughStudents on openRegistration">
<path fill="none" stroke="black" d="M391.43,-347.8C374.2,-334.95 350.47,-317.26 331.57,-303.17"/>
<polygon fill="black" stroke="black" points="333.64,-300.35 323.54,-297.18 329.46,-305.96 333.64,-300.35"/>
</a>
</g>
<text text-anchor="middle" x="411.5" y="-318.8" font-family="Times,serif" font-size="14.00">openRegistration</text>
</g>
<!-- CourseSection_status_Cancelled -->
<g id="node5" class="node">
<title>CourseSection_status_Cancelled</title>
<g id="a_node5"><a xlink:title="Class CourseSection, SM status, State Cancelled">
<path fill="none" stroke="black" d="M352.5,-36C352.5,-36 304.5,-36 304.5,-36 298.5,-36 292.5,-30 292.5,-24 292.5,-24 292.5,-12 292.5,-12 292.5,-6 298.5,0 304.5,0 304.5,0 352.5,0 352.5,0 358.5,0 364.5,-6 364.5,-12 364.5,-12 364.5,-24 364.5,-24 364.5,-30 358.5,-36 352.5,-36"/>
<text text-anchor="middle" x="328.5" y="-14.3" font-family="Times,serif" font-size="14.00">Cancelled</text>
</a>
</g>
</g>
<!-- CourseSection_status_Planned&#45;&gt;CourseSection_status_Cancelled -->
<g id="edge6" class="edge">
<title>CourseSection_status_Planned&#45;&gt;CourseSection_status_Cancelled</title>
<g id="a_edge6"><a xlink:title="From Planned to Cancelled on cancel">
<path fill="none" stroke="black" d="M450.57,-354.77C483.97,-342.83 528.5,-319.5 528.5,-280 528.5,-280 528.5,-280 528.5,-104 528.5,-37.62 434.04,-22.33 374.95,-19.26"/>
<polygon fill="black" stroke="black" points="374.86,-15.76 364.72,-18.83 374.56,-22.75 374.86,-15.76"/>
</a>
</g>
<text text-anchor="middle" x="546.5" y="-188.3" font-family="Times,serif" font-size="14.00">cancel</text>
</g>
<!-- CourseSection_status_OpenNotEnoughStudents&#45;&gt;CourseSection_status_OpenNotEnoughStudents -->
<g id="edge3" class="edge">
<title>CourseSection_status_OpenNotEnoughStudents&#45;&gt;CourseSection_status_OpenNotEnoughStudents</title>
<g id="a_edge3"><a xlink:title="From OpenNotEnoughStudents to OpenNotEnoughStudents on requestToRegister">
<path fill="none" stroke="black" d="M380.86,-285.94C391.47,-284.76 398.5,-282.45 398.5,-279 398.5,-276.79 395.61,-275.05 390.75,-273.77"/>
<polygon fill="black" stroke="black" points="391.31,-270.32 380.86,-272.06 390.11,-277.21 391.31,-270.32"/>
</a>
</g>
<text text-anchor="middle" x="449.5" y="-275.3" font-family="Times,serif" font-size="14.00">requestToRegister</text>
</g>
<!-- CourseSection_status_OpenEnoughStudents -->
<g id="node4" class="node">
<title>CourseSection_status_OpenEnoughStudents</title>
<g id="a_node4"><a xlink:title="Class CourseSection, SM status, State OpenEnoughStudents">
<path fill="none" stroke="black" d="M127,-210C127,-210 12,-210 12,-210 6,-210 0,-204 0,-198 0,-198 0,-186 0,-186 0,-180 6,-174 12,-174 12,-174 127,-174 127,-174 133,-174 139,-180 139,-186 139,-186 139,-198 139,-198 139,-204 133,-210 127,-210"/>
<text text-anchor="middle" x="69.5" y="-188.3" font-family="Times,serif" font-size="14.00">OpenEnoughStudents</text>
</a>
</g>
</g>
<!-- CourseSection_status_OpenNotEnoughStudents&#45;&gt;CourseSection_status_OpenEnoughStudents -->
<g id="edge4" class="edge">
<title>CourseSection_status_OpenNotEnoughStudents&#45;&gt;CourseSection_status_OpenEnoughStudents</title>
<g id="a_edge4"><a xlink:title="From OpenNotEnoughStudents to OpenEnoughStudents on classSizeExceedsMinimum">
<path fill="none" stroke="black" d="M220.16,-261.68C200.35,-256.63 179.39,-250.41 160.5,-243 141.53,-235.56 121.56,-224.94 105.18,-215.4"/>
<polygon fill="black" stroke="black" points="106.87,-212.33 96.48,-210.24 103.3,-218.35 106.87,-212.33"/>
</a>
</g>
<text text-anchor="middle" x="237.5" y="-231.8" font-family="Times,serif" font-size="14.00">classSizeExceedsMinimum</text>
</g>
<!-- CourseSection_status_OpenNotEnoughStudents&#45;&gt;CourseSection_status_Cancelled -->
<g id="edge7" class="edge">
<title>CourseSection_status_OpenNotEnoughStudents&#45;&gt;CourseSection_status_Cancelled</title>
<g id="a_edge7"><a xlink:title="From OpenNotEnoughStudents to Cancelled on closeRegistration">
<path fill="none" stroke="black" d="M308.6,-260.9C310.9,-255.31 313.15,-249 314.5,-243 330.17,-173.41 330.59,-88.8 329.55,-46.24"/>
<polygon fill="black" stroke="black" points="333.05,-46.01 329.26,-36.12 326.05,-46.22 333.05,-46.01"/>
</a>
</g>
<text text-anchor="middle" x="376.5" y="-144.8" font-family="Times,serif" font-size="14.00">closeRegistration</text>
</g>
<!-- CourseSection_status_OpenNotEnoughStudents&#45;&gt;CourseSection_status_Cancelled -->
<g id="edge8" class="edge">
<title>CourseSection_status_OpenNotEnoughStudents&#45;&gt;CourseSection_status_Cancelled</title>
<g id="a_edge8"><a xlink:title="From OpenNotEnoughStudents to Cancelled on cancel">
<path fill="none" stroke="black" d="M328.9,-260.86C359.83,-240.35 407.55,-202.83 427.5,-156 446.45,-111.51 399.98,-67.53 364.47,-41.84"/>
<polygon fill="black" stroke="black" points="366.37,-38.9 356.17,-36.02 362.35,-44.63 366.37,-38.9"/>
</a>
</g>
<text text-anchor="middle" x="448.5" y="-144.8" font-family="Times,serif" font-size="14.00">cancel</text>
</g>
<!-- CourseSection_status_OpenEnoughStudents&#45;&gt;CourseSection_status_OpenEnoughStudents -->
<g id="edge5" class="edge">
<title>CourseSection_status_OpenEnoughStudents&#45;&gt;CourseSection_status_OpenEnoughStudents</title>
<g id="a_edge5"><a xlink:title="From OpenEnoughStudents to OpenEnoughStudents on requestToRegister">
<path fill="none" stroke="black" d="M139.17,-199.18C149.79,-198.09 157,-195.69 157,-192 157,-189.64 154.04,-187.8 149.12,-186.5"/>
<polygon fill="black" stroke="black" points="149.62,-183.04 139.17,-184.82 148.45,-189.94 149.62,-183.04"/>
</a>
</g>
<text text-anchor="middle" x="208" y="-188.3" font-family="Times,serif" font-size="14.00">requestToRegister</text>
</g>
<!-- CourseSection_status_OpenEnoughStudents&#45;&gt;CourseSection_status_Cancelled -->
<g id="edge9" class="edge">
<title>CourseSection_status_OpenEnoughStudents&#45;&gt;CourseSection_status_Cancelled</title>
<g id="a_edge9"><a xlink:title="From OpenEnoughStudents to Cancelled on cancel">
<path fill="none" stroke="black" d="M36.95,-173.79C30.73,-168.91 25.05,-162.99 21.5,-156 4.56,-122.69 53.05,-96.06 67.5,-87 134.77,-44.82 227.44,-28.68 282.34,-22.6"/>
<polygon fill="black" stroke="black" points="282.89,-26.06 292.47,-21.54 282.16,-19.1 282.89,-26.06"/>
</a>
</g>
<text text-anchor="middle" x="85.5" y="-101.3" font-family="Times,serif" font-size="14.00">cancel</text>
</g>
<!-- CourseSection_status_Closed -->
<g id="node6" class="node">
<title>CourseSection_status_Closed</title>
<g id="a_node6"><a xlink:title="Class CourseSection, SM status, State Closed">
<path fill="none" stroke="black" d="M172.5,-123C172.5,-123 124.5,-123 124.5,-123 118.5,-123 112.5,-117 112.5,-111 112.5,-111 112.5,-99 112.5,-99 112.5,-93 118.5,-87 124.5,-87 124.5,-87 172.5,-87 172.5,-87 178.5,-87 184.5,-93 184.5,-99 184.5,-99 184.5,-111 184.5,-111 184.5,-117 178.5,-123 172.5,-123"/>
<text text-anchor="middle" x="148.5" y="-101.3" font-family="Times,serif" font-size="14.00">Closed</text>
</a>
</g>
</g>
<!-- CourseSection_status_OpenEnoughStudents&#45;&gt;CourseSection_status_Closed -->
<g id="edge11" class="edge">
<title>CourseSection_status_OpenEnoughStudents&#45;&gt;CourseSection_status_Closed</title>
<g id="a_edge11"><a xlink:title="From OpenEnoughStudents to Closed on closeRegistration">
<path fill="none" stroke="black" d="M41.67,-173.94C29.66,-164.41 20.08,-152.23 28.5,-141 45.46,-118.39 76.21,-109.73 102.34,-106.67"/>
<polygon fill="black" stroke="black" points="102.82,-110.14 112.45,-105.73 102.17,-103.17 102.82,-110.14"/>
</a>
</g>
<text text-anchor="middle" x="77.5" y="-144.8" font-family="Times,serif" font-size="14.00">closeRegistration</text>
</g>
<!-- CourseSection_status_OpenEnoughStudents&#45;&gt;CourseSection_status_Closed -->
<g id="edge12" class="edge">
<title>CourseSection_status_OpenEnoughStudents&#45;&gt;CourseSection_status_Closed</title>
<g id="a_edge12"><a xlink:title="From OpenEnoughStudents to Closed on classSizeExceedsMaximum">
<path fill="none" stroke="black" d="M104.92,-173.86C112.73,-168.89 120.47,-162.91 126.5,-156 132.35,-149.29 136.87,-140.78 140.24,-132.7"/>
<polygon fill="black" stroke="black" points="143.57,-133.78 143.81,-123.19 137.02,-131.32 143.57,-133.78"/>
</a>
</g>
<text text-anchor="middle" x="214" y="-144.8" font-family="Times,serif" font-size="14.00">classSizeExceedsMaximum</text>
</g>
<!-- CourseSection_status_Closed&#45;&gt;CourseSection_status_Cancelled -->
<g id="edge10" class="edge">
<title>CourseSection_status_Closed&#45;&gt;CourseSection_status_Cancelled</title>
<g id="a_edge10"><a xlink:title="From Closed to Cancelled on cancel">
<path fill="none" stroke="black" d="M184.93,-86.8C213.32,-73.39 252.9,-54.7 283.31,-40.34"/>
<polygon fill="black" stroke="black" points="284.89,-43.47 292.44,-36.03 281.9,-37.14 284.89,-43.47"/>
</a>
</g>
<text text-anchor="middle" x="266.5" y="-57.8" font-family="Times,serif" font-size="14.00">cancel</text>
</g>
</g>
</svg>
