<?xml version="1.0" encoding="UTF-8" standalone="no"?>
<!DOCTYPE svg PUBLIC "-//W3C//DTD SVG 1.1//EN"
 "http://www.w3.org/Graphics/SVG/1.1/DTD/svg11.dtd">
<!-- Generated by graphviz version 2.48.0 (20210717.1556)
 -->
<!-- Title: CourseSectionNested Pages: 1 -->
<svg width="742pt" height="454pt"
 viewBox="0.00 0.00 742.00 453.60" xmlns="http://www.w3.org/2000/svg" xmlns:xlink="http://www.w3.org/1999/xlink">
<g id="graph0" class="graph" transform="scale(1 1) rotate(0) translate(4 449.6)">
<title>CourseSectionNested</title>
<polygon fill="white" stroke="transparent" points="-4,4 -4,-449.6 738,-449.6 738,4 -4,4"/>
<g id="clust1" class="cluster">
<title>clusterCourseSection_status_Open</title>
<path fill="none" stroke="black" d="M282,-166C282,-166 446,-166 446,-166 452,-166 458,-172 458,-178 458,-178 458,-392.2 458,-392.2 458,-398.2 452,-404.2 446,-404.2 446,-404.2 282,-404.2 282,-404.2 276,-404.2 270,-398.2 270,-392.2 270,-392.2 270,-178 270,-178 270,-172 276,-166 282,-166"/>
<text text-anchor="middle" x="364" y="-389" font-family="Times,serif" font-size="14.00">Open</text>
</g>
<!-- start_CourseSection_status -->
<g id="node1" class="node">
<title>start_CourseSection_status</title>
<g id="a_node1"><a xlink:title="Class CourseSection, SM status, State start">
<ellipse fill="black" stroke="black" cx="138" cy="-438.4" rx="7.2" ry="7.2"/>
</a>
</g>
</g>
<!-- CourseSection_status_Planned -->
<g id="node2" class="node">
<title>CourseSection_status_Planned</title>
<g id="a_node2"><a xlink:title="Class CourseSection, SM status, State Planned">
<path fill="none" stroke="black" d="M162,-384C162,-384 114,-384 114,-384 108,-384 102,-378 102,-372 102,-372 102,-360 102,-360 102,-354 108,-348 114,-348 114,-348 162,-348 162,-348 168,-348 174,-354 174,-360 174,-360 174,-372 174,-372 174,-378 168,-384 162,-384"/>
<text text-anchor="middle" x="138" y="-362.3" font-family="Times,serif" font-size="14.00">Planned</text>
</a>
</g>
</g>
<!-- start_CourseSection_status&#45;&gt;CourseSection_status_Planned -->
<g id="edge1" class="edge">
<title>start_CourseSection_status&#45;&gt;CourseSection_status_Planned</title>
<g id="a_edge1"><a xlink:title="start to Planned">
<path fill="none" stroke="black" d="M138,-430.9C138,-422.58 138,-407.62 138,-394.27"/>
<polygon fill="black" stroke="black" points="141.5,-394.06 138,-384.06 134.5,-394.06 141.5,-394.06"/>
</a>
</g>
</g>
<!-- CourseSection_statusOpen_NotEnoughStudents -->
<g id="node6" class="node">
<title>CourseSection_statusOpen_NotEnoughStudents</title>
<g id="a_node6"><a xlink:title="Class CourseSection, SM status, State Open.NotEnoughStudents">
<path fill="none" stroke="black" d="M395.5,-297C395.5,-297 290.5,-297 290.5,-297 284.5,-297 278.5,-291 278.5,-285 278.5,-285 278.5,-273 278.5,-273 278.5,-267 284.5,-261 290.5,-261 290.5,-261 395.5,-261 395.5,-261 401.5,-261 407.5,-267 407.5,-273 407.5,-273 407.5,-285 407.5,-285 407.5,-291 401.5,-297 395.5,-297"/>
<text text-anchor="middle" x="343" y="-275.3" font-family="Times,serif" font-size="14.00">NotEnoughStudents</text>
</a>
</g>
</g>
<!-- CourseSection_status_Planned&#45;&gt;CourseSection_statusOpen_NotEnoughStudents -->
<g id="edge7" class="edge">
<title>CourseSection_status_Planned&#45;&gt;CourseSection_statusOpen_NotEnoughStudents</title>
<g id="a_edge7"><a xlink:title="From Planned to Open.NotEnoughStudents on openRegistration">
<path fill="none" stroke="black" d="M171.63,-347.85C192.03,-337.73 218.73,-324.99 243,-315 255.27,-309.95 268.56,-304.97 281.32,-300.42"/>
<polygon fill="black" stroke="black" points="282.69,-303.65 290.96,-297.02 280.36,-297.04 282.69,-303.65"/>
</a>
</g>
<text text-anchor="middle" x="291" y="-318.8" font-family="Times,serif" font-size="14.00">openRegistration</text>
</g>
<!-- CourseSection_status_Cancelled -->
<g id="node8" class="node">
<title>CourseSection_status_Cancelled</title>
<g id="a_node8"><a xlink:title="Class CourseSection, SM status, State Cancelled">
<path fill="none" stroke="black" d="M194,-36C194,-36 146,-36 146,-36 140,-36 134,-30 134,-24 134,-24 134,-12 134,-12 134,-6 140,0 146,0 146,0 194,0 194,0 200,0 206,-6 206,-12 206,-12 206,-24 206,-24 206,-30 200,-36 194,-36"/>
<text text-anchor="middle" x="170" y="-14.3" font-family="Times,serif" font-size="14.00">Cancelled</text>
</a>
</g>
</g>
<!-- CourseSection_status_Planned&#45;&gt;CourseSection_status_Cancelled -->
<g id="edge9" class="edge">
<title>CourseSection_status_Planned&#45;&gt;CourseSection_status_Cancelled</title>
<g id="a_edge9"><a xlink:title="From Planned to Cancelled on cancel">
<path fill="none" stroke="black" d="M101.74,-358.86C60.86,-349.62 0,-327.84 0,-280 0,-280 0,-280 0,-104 0,-48.43 73.56,-29.19 123.9,-22.53"/>
<polygon fill="black" stroke="black" points="124.44,-25.99 133.95,-21.32 123.6,-19.04 124.44,-25.99"/>
</a>
</g>
<text text-anchor="middle" x="18" y="-188.3" font-family="Times,serif" font-size="14.00">cancel</text>
</g>
<!-- dummyNode1_NotEnoughStudents_Open -->
<g id="node3" class="node">
<title>dummyNode1_NotEnoughStudents_Open</title>
<ellipse fill="black" stroke="black" cx="56" cy="-192" rx="0.18" ry="0.18"/>
</g>
<!-- dummyNode1_NotEnoughStudents_Open&#45;&gt;CourseSection_statusOpen_NotEnoughStudents -->
<g id="edge3" class="edge">
<title>dummyNode1_NotEnoughStudents_Open:w&#45;&gt;CourseSection_statusOpen_NotEnoughStudents</title>
<g id="a_edge3"><a xlink:title="From Open.NotEnoughStudents to Open on requestToRegister">
<path fill="none" stroke="black" d="M55,-192C43,-192 46.07,-236.32 52,-243 66.17,-258.97 186.82,-269.04 268.25,-274.09"/>
<polygon fill="black" stroke="black" points="259.41,-274.67 270,-274.71 261.74,-268.07 259.41,-274.67"/>
</a>
</g>
</g>
<!-- dummyNode2_EnoughStudents_Open -->
<g id="node4" class="node">
<title>dummyNode2_EnoughStudents_Open</title>
<ellipse fill="black" stroke="black" cx="329" cy="-105" rx="0.18" ry="0.18"/>
</g>
<!-- dummyNode2_EnoughStudents_Open&#45;&gt;CourseSection_statusOpen_NotEnoughStudents -->
<g id="edge5" class="edge">
<title>dummyNode2_EnoughStudents_Open:w&#45;&gt;CourseSection_statusOpen_NotEnoughStudents</title>
<g id="a_edge5"><a xlink:title="From Open.EnoughStudents to Open on requestToRegister">
<path fill="none" stroke="black" d="M328,-105C303.97,-105 317.38,-131.04 319.77,-155.88"/>
<polygon fill="black" stroke="black" points="316.27,-156.08 320,-166 323.27,-155.92 316.27,-156.08"/>
</a>
</g>
</g>
<!-- start_CourseSection_statusOpen -->
<g id="node5" class="node">
<title>start_CourseSection_statusOpen</title>
<g id="a_node5"><a xlink:title="Class CourseSection, SM status, State Open.start">
<ellipse fill="black" stroke="black" cx="343" cy="-366" rx="7.2" ry="7.2"/>
</a>
</g>
</g>
<!-- start_CourseSection_statusOpen&#45;&gt;CourseSection_statusOpen_NotEnoughStudents -->
<g id="edge6" class="edge">
<title>start_CourseSection_statusOpen&#45;&gt;CourseSection_statusOpen_NotEnoughStudents</title>
<g id="a_edge6"><a xlink:title="start to Open.NotEnoughStudents">
<path fill="none" stroke="black" d="M343,-358.61C343,-347.83 343,-325.43 343,-307.29"/>
<polygon fill="black" stroke="black" points="346.5,-307.22 343,-297.22 339.5,-307.22 346.5,-307.22"/>
</a>
</g>
</g>
<!-- CourseSection_statusOpen_NotEnoughStudents&#45;&gt;dummyNode1_NotEnoughStudents_Open -->
<g id="edge2" class="edge">
<title>CourseSection_statusOpen_NotEnoughStudents&#45;&gt;dummyNode1_NotEnoughStudents_Open:e</title>
<g id="a_edge2"><a xlink:title="From Open.NotEnoughStudents to Open on requestToRegister">
<path fill="none" stroke="black" d="M278.41,-274.4C199.21,-269.33 73.61,-258.88 59,-243 43.64,-226.3 79.68,-192 57,-192"/>
</a>
</g>
<text text-anchor="middle" x="110" y="-231.8" font-family="Times,serif" font-size="14.00">requestToRegister</text>
</g>
<!-- CourseSection_statusOpen_EnoughStudents -->
<g id="node7" class="node">
<title>CourseSection_statusOpen_EnoughStudents</title>
<g id="a_node7"><a xlink:title="Class CourseSection, SM status, State Open.EnoughStudents">
<path fill="none" stroke="black" d="M425,-210C425,-210 341,-210 341,-210 335,-210 329,-204 329,-198 329,-198 329,-186 329,-186 329,-180 335,-174 341,-174 341,-174 425,-174 425,-174 431,-174 437,-180 437,-186 437,-186 437,-198 437,-198 437,-204 431,-210 425,-210"/>
<text text-anchor="middle" x="383" y="-188.3" font-family="Times,serif" font-size="14.00">EnoughStudents</text>
</a>
</g>
</g>
<!-- CourseSection_statusOpen_NotEnoughStudents&#45;&gt;CourseSection_statusOpen_EnoughStudents -->
<g id="edge8" class="edge">
<title>CourseSection_statusOpen_NotEnoughStudents&#45;&gt;CourseSection_statusOpen_EnoughStudents</title>
<g id="a_edge8"><a xlink:title="From Open.NotEnoughStudents to Open.EnoughStudents on classSizeExceedsMinimum">
<path fill="none" stroke="black" d="M351.09,-260.8C356.68,-248.93 364.21,-232.93 370.55,-219.45"/>
<polygon fill="black" stroke="black" points="373.83,-220.71 374.92,-210.18 367.49,-217.73 373.83,-220.71"/>
</a>
</g>
<text text-anchor="middle" x="442" y="-231.8" font-family="Times,serif" font-size="14.00">classSizeExceedsMinimum</text>
</g>
<!-- CourseSection_statusOpen_NotEnoughStudents&#45;&gt;CourseSection_status_Cancelled -->
<g id="edge10" class="edge">
<title>CourseSection_statusOpen_NotEnoughStudents&#45;&gt;CourseSection_status_Cancelled</title>
<g id="a_edge10"><a xlink:title="From Open to Cancelled on cancel">
<path fill="none" stroke="black" d="M270,-274.11C242.4,-269.56 212.1,-260.54 189,-243 154,-216.42 152.77,-198.61 142,-156 132.41,-118.06 146,-73.58 157.38,-45.84"/>
<polygon fill="black" stroke="black" points="160.69,-46.99 161.42,-36.42 154.26,-44.22 160.69,-46.99"/>
</a>
</g>
<text text-anchor="middle" x="160" y="-144.8" font-family="Times,serif" font-size="14.00">cancel</text>
</g>
<!-- CourseSection_statusOpen_NotEnoughStudents&#45;&gt;CourseSection_status_Cancelled -->
<g id="edge11" class="edge">
<title>CourseSection_statusOpen_NotEnoughStudents&#45;&gt;CourseSection_status_Cancelled</title>
<g id="a_edge11"><a xlink:title="From Open.NotEnoughStudents to Cancelled on closeRegistration">
<path fill="none" stroke="black" d="M318.81,-260.88C290.17,-239.44 242.87,-200.12 215,-156 193.19,-121.47 180.9,-75.3 174.86,-46.36"/>
<polygon fill="black" stroke="black" points="178.21,-45.3 172.84,-36.17 171.35,-46.66 178.21,-45.3"/>
</a>
</g>
<text text-anchor="middle" x="264" y="-144.8" font-family="Times,serif" font-size="14.00">closeRegistration</text>
</g>
<!-- CourseSection_statusOpen_EnoughStudents&#45;&gt;dummyNode2_EnoughStudents_Open -->
<g id="edge4" class="edge">
<title>CourseSection_statusOpen_EnoughStudents&#45;&gt;dummyNode2_EnoughStudents_Open:e</title>
<g id="a_edge4"><a xlink:title="From Open.EnoughStudents to Open on requestToRegister">
<path fill="none" stroke="black" d="M362.11,-173.96C356.61,-168.66 351.08,-162.5 347,-156 334.3,-135.76 353.89,-105 330,-105"/>
</a>
</g>
<text text-anchor="middle" x="398" y="-144.8" font-family="Times,serif" font-size="14.00">requestToRegister</text>
</g>
<!-- CourseSection_status_Closed -->
<g id="node9" class="node">
<title>CourseSection_status_Closed</title>
<g id="a_node9"><a xlink:title="Class CourseSection, SM status, State Closed">
<path fill="none" stroke="black" d="M495,-123C495,-123 447,-123 447,-123 441,-123 435,-117 435,-111 435,-111 435,-99 435,-99 435,-93 441,-87 447,-87 447,-87 495,-87 495,-87 501,-87 507,-93 507,-99 507,-99 507,-111 507,-111 507,-117 501,-123 495,-123"/>
<text text-anchor="middle" x="471" y="-101.3" font-family="Times,serif" font-size="14.00">Closed</text>
</a>
</g>
</g>
<!-- CourseSection_statusOpen_EnoughStudents&#45;&gt;CourseSection_status_Closed -->
<g id="edge13" class="edge">
<title>CourseSection_statusOpen_EnoughStudents&#45;&gt;CourseSection_status_Closed</title>
<g id="a_edge13"><a xlink:title="From Open.EnoughStudents to Closed on closeRegistration">
<path fill="none" stroke="black" d="M437.22,-191.22C501.99,-190.19 604.68,-184.02 629,-156 662.18,-117.77 575.13,-108.47 517.43,-106.39"/>
<polygon fill="black" stroke="black" points="517.49,-102.89 507.39,-106.09 517.28,-109.89 517.49,-102.89"/>
</a>
</g>
<text text-anchor="middle" x="685" y="-144.8" font-family="Times,serif" font-size="14.00">closeRegistration</text>
</g>
<!-- CourseSection_statusOpen_EnoughStudents&#45;&gt;CourseSection_status_Closed -->
<g id="edge14" class="edge">
<title>CourseSection_statusOpen_EnoughStudents&#45;&gt;CourseSection_status_Closed</title>
<g id="a_edge14"><a xlink:title="From Open.EnoughStudents to Closed on classSizeExceedsMaximum">
<path fill="none" stroke="black" d="M425.39,-173.94C433.97,-169.08 442.38,-163.12 449,-156 455.06,-149.48 459.63,-141.02 462.99,-132.92"/>
<polygon fill="black" stroke="black" points="466.34,-133.97 466.51,-123.37 459.77,-131.55 466.34,-133.97"/>
</a>
</g>
<text text-anchor="middle" x="537.5" y="-144.8" font-family="Times,serif" font-size="14.00">classSizeExceedsMaximum</text>
</g>
<!-- CourseSection_status_Closed&#45;&gt;CourseSection_status_Cancelled -->
<g id="edge12" class="edge">
<title>CourseSection_status_Closed&#45;&gt;CourseSection_status_Cancelled</title>
<g id="a_edge12"><a xlink:title="From Closed to Cancelled on cancel">
<path fill="none" stroke="black" d="M434.99,-93.83C380.26,-78.38 276.18,-48.98 216.03,-32"/>
<polygon fill="black" stroke="black" points="216.62,-28.53 206.05,-29.18 214.72,-35.27 216.62,-28.53"/>
</a>
</g>
<text text-anchor="middle" x="356" y="-57.8" font-family="Times,serif" font-size="14.00">cancel</text>
</g>
</g>
</svg>
