<?xml version="1.0" encoding="UTF-8" standalone="no"?>
<!DOCTYPE svg PUBLIC "-//W3C//DTD SVG 1.1//EN"
 "http://www.w3.org/Graphics/SVG/1.1/DTD/svg11.dtd">
<!-- Generated by graphviz version 2.48.0 (20210717.1556)
 -->
<!-- Title: DigitalWatchFlat Pages: 1 -->
<svg width="1173pt" height="878pt"
 viewBox="0.00 0.00 1173.00 878.40" xmlns="http://www.w3.org/2000/svg" xmlns:xlink="http://www.w3.org/1999/xlink">
<g id="graph0" class="graph" transform="scale(1 1) rotate(0) translate(4 874.4)">
<title>DigitalWatchFlat</title>
<polygon fill="white" stroke="transparent" points="-4,4 -4,-874.4 1169,-874.4 1169,4 -4,4"/>
<!-- start_DigitalWatch_sm -->
<g id="node1" class="node">
<title>start_DigitalWatch_sm</title>
<g id="a_node1"><a xlink:title="Class DigitalWatch, SM sm, State start">
<ellipse fill="black" stroke="black" cx="475" cy="-863.2" rx="7.2" ry="7.2"/>
</a>
</g>
</g>
<!-- DigitalWatch_sm_time -->
<g id="node2" class="node">
<title>DigitalWatch_sm_time</title>
<g id="a_node2"><a xlink:title="Class DigitalWatch, SM sm, State time">
<path fill="none" stroke="black" d="M499,-819C499,-819 451,-819 451,-819 445,-819 439,-813 439,-807 439,-807 439,-795 439,-795 439,-789 445,-783 451,-783 451,-783 499,-783 499,-783 505,-783 511,-789 511,-795 511,-795 511,-807 511,-807 511,-813 505,-819 499,-819"/>
<text text-anchor="middle" x="475" y="-797.3" font-family="Times,serif" font-size="14.00">time</text>
</a>
</g>
</g>
<!-- start_DigitalWatch_sm&#45;&gt;DigitalWatch_sm_time -->
<g id="edge1" class="edge">
<title>start_DigitalWatch_sm&#45;&gt;DigitalWatch_sm_time</title>
<g id="a_edge1"><a xlink:title="start to time">
<path fill="none" stroke="black" d="M475,-855.76C475,-849.39 475,-839.2 475,-829.39"/>
<polygon fill="black" stroke="black" points="478.5,-829.1 475,-819.1 471.5,-829.1 478.5,-829.1"/>
</a>
</g>
</g>
<!-- DigitalWatch_sm_date -->
<g id="node3" class="node">
<title>DigitalWatch_sm_date</title>
<g id="a_node3"><a xlink:title="Class DigitalWatch, SM sm, State date">
<path fill="none" stroke="black" d="M60,-732C60,-732 12,-732 12,-732 6,-732 0,-726 0,-720 0,-720 0,-708 0,-708 0,-702 6,-696 12,-696 12,-696 60,-696 60,-696 66,-696 72,-702 72,-708 72,-708 72,-720 72,-720 72,-726 66,-732 60,-732"/>
<text text-anchor="middle" x="36" y="-710.3" font-family="Times,serif" font-size="14.00">date</text>
</a>
</g>
</g>
<!-- DigitalWatch_sm_time&#45;&gt;DigitalWatch_sm_date -->
<g id="edge17" class="edge">
<title>DigitalWatch_sm_time&#45;&gt;DigitalWatch_sm_date</title>
<g id="a_edge17"><a xlink:title="From time to date on s1">
<path fill="none" stroke="black" d="M438.92,-800.18C353.67,-800.07 142.26,-796.53 80,-765 69.1,-759.48 59.7,-750 52.42,-740.77"/>
<polygon fill="black" stroke="black" points="55.09,-738.48 46.35,-732.48 49.44,-742.62 55.09,-738.48"/>
</a>
</g>
<text text-anchor="middle" x="86.5" y="-753.8" font-family="Times,serif" font-size="14.00">s1</text>
</g>
<!-- DigitalWatch_sm_paused -->
<g id="node4" class="node">
<title>DigitalWatch_sm_paused</title>
<g id="a_node4"><a xlink:title="Class DigitalWatch, SM sm, State paused">
<path fill="none" stroke="black" d="M150,-732C150,-732 102,-732 102,-732 96,-732 90,-726 90,-720 90,-720 90,-708 90,-708 90,-702 96,-696 102,-696 102,-696 150,-696 150,-696 156,-696 162,-702 162,-708 162,-708 162,-720 162,-720 162,-726 156,-732 150,-732"/>
<text text-anchor="middle" x="126" y="-710.3" font-family="Times,serif" font-size="14.00">paused</text>
</a>
</g>
</g>
<!-- DigitalWatch_sm_time&#45;&gt;DigitalWatch_sm_paused -->
<g id="edge18" class="edge">
<title>DigitalWatch_sm_time&#45;&gt;DigitalWatch_sm_paused</title>
<g id="a_edge18"><a xlink:title="From time to paused on s3">
<path fill="none" stroke="black" d="M438.99,-800.93C384.66,-801.15 279.33,-796.88 197,-765 180.97,-758.79 165.13,-748.2 152.5,-738.35"/>
<polygon fill="black" stroke="black" points="154.67,-735.6 144.69,-732.04 150.27,-741.05 154.67,-735.6"/>
</a>
</g>
<text text-anchor="middle" x="203.5" y="-753.8" font-family="Times,serif" font-size="14.00">s3</text>
</g>
<!-- DigitalWatch_sm_bothOff -->
<g id="node8" class="node">
<title>DigitalWatch_sm_bothOff</title>
<g id="a_node8"><a xlink:title="Class DigitalWatch, SM sm, State bothOff">
<path fill="none" stroke="black" d="M482,-732C482,-732 434,-732 434,-732 428,-732 422,-726 422,-720 422,-720 422,-708 422,-708 422,-702 428,-696 434,-696 434,-696 482,-696 482,-696 488,-696 494,-702 494,-708 494,-708 494,-720 494,-720 494,-726 488,-732 482,-732"/>
<text text-anchor="middle" x="458" y="-710.3" font-family="Times,serif" font-size="14.00">bothOff</text>
</a>
</g>
</g>
<!-- DigitalWatch_sm_time&#45;&gt;DigitalWatch_sm_bothOff -->
<g id="edge27" class="edge">
<title>DigitalWatch_sm_time&#45;&gt;DigitalWatch_sm_bothOff</title>
<g id="a_edge27"><a xlink:title="From time to bothOff on s2">
<path fill="none" stroke="black" d="M458.81,-782.73C454.82,-777.44 451.09,-771.32 449,-765 446.6,-757.75 446.86,-749.68 448.24,-742.17"/>
<polygon fill="black" stroke="black" points="451.65,-742.98 450.69,-732.42 444.86,-741.27 451.65,-742.98"/>
</a>
</g>
<text text-anchor="middle" x="455.5" y="-753.8" font-family="Times,serif" font-size="14.00">s2</text>
</g>
<!-- DigitalWatch_sm_alarmTime -->
<g id="node12" class="node">
<title>DigitalWatch_sm_alarmTime</title>
<g id="a_node12"><a xlink:title="Class DigitalWatch, SM sm, State alarmTime">
<path fill="none" stroke="black" d="M821.5,-732C821.5,-732 768.5,-732 768.5,-732 762.5,-732 756.5,-726 756.5,-720 756.5,-720 756.5,-708 756.5,-708 756.5,-702 762.5,-696 768.5,-696 768.5,-696 821.5,-696 821.5,-696 827.5,-696 833.5,-702 833.5,-708 833.5,-708 833.5,-720 833.5,-720 833.5,-726 827.5,-732 821.5,-732"/>
<text text-anchor="middle" x="795" y="-710.3" font-family="Times,serif" font-size="14.00">alarmTime</text>
</a>
</g>
</g>
<!-- DigitalWatch_sm_time&#45;&gt;DigitalWatch_sm_alarmTime -->
<g id="edge32" class="edge">
<title>DigitalWatch_sm_time&#45;&gt;DigitalWatch_sm_alarmTime</title>
<g id="a_edge32"><a xlink:title="From time to alarmTime on s3during2Secs">
<path fill="none" stroke="black" d="M511.22,-800.07C560.74,-799.03 651.55,-793.01 723,-765 739.04,-758.71 754.97,-748.21 767.76,-738.45"/>
<polygon fill="black" stroke="black" points="770,-741.14 775.67,-732.19 765.66,-735.65 770,-741.14"/>
</a>
</g>
<text text-anchor="middle" x="792" y="-753.8" font-family="Times,serif" font-size="14.00">s3during2Secs</text>
</g>
<!-- DigitalWatch_sm_date&#45;&gt;DigitalWatch_sm_time -->
<g id="edge2" class="edge">
<title>DigitalWatch_sm_date&#45;&gt;DigitalWatch_sm_time</title>
<g id="a_edge2"><a xlink:title="From date to time on notS1">
<path fill="none" stroke="black" d="M62.45,-732.08C81.33,-743.4 107.76,-757.5 133,-765 235.5,-795.47 362.04,-800.43 428.77,-800.67"/>
<polygon fill="black" stroke="black" points="428.95,-804.17 438.95,-800.67 428.95,-797.17 428.95,-804.17"/>
</a>
</g>
<text text-anchor="middle" x="149.5" y="-753.8" font-family="Times,serif" font-size="14.00">notS1</text>
</g>
<!-- DigitalWatch_sm_paused&#45;&gt;DigitalWatch_sm_time -->
<g id="edge3" class="edge">
<title>DigitalWatch_sm_paused&#45;&gt;DigitalWatch_sm_time</title>
<g id="a_edge3"><a xlink:title="From paused to time on s3">
<path fill="none" stroke="black" d="M162.02,-729.17C177.97,-735.49 196.94,-743.06 214,-750 230.05,-756.54 233.32,-760.3 250,-765 310.67,-782.09 383.05,-791.47 429.01,-796.11"/>
<polygon fill="black" stroke="black" points="428.68,-799.6 438.97,-797.09 429.36,-792.63 428.68,-799.6"/>
</a>
</g>
<text text-anchor="middle" x="256.5" y="-753.8" font-family="Times,serif" font-size="14.00">s3</text>
</g>
<!-- DigitalWatch_sm_paused&#45;&gt;DigitalWatch_sm_paused -->
<g id="edge19" class="edge">
<title>DigitalWatch_sm_paused&#45;&gt;DigitalWatch_sm_paused</title>
<g id="a_edge19"><a xlink:title="From paused to paused on s2&#13;Transition Action:&#10; &#160;&#160;&#160;&#160;zero();">
<path fill="none" stroke="black" d="M162.09,-721.84C172.22,-721.49 180,-718.88 180,-714 180,-710.95 176.96,-708.79 172.21,-707.51"/>
<polygon fill="black" stroke="black" points="172.46,-704.01 162.09,-706.16 171.54,-710.95 172.46,-704.01"/>
</a>
</g>
<text text-anchor="middle" x="210.5" y="-710.3" font-family="Times,serif" font-size="14.00">s2 / zero();</text>
</g>
<!-- DigitalWatch_sm_running -->
<g id="node5" class="node">
<title>DigitalWatch_sm_running</title>
<g id="a_node5"><a xlink:title="Class DigitalWatch, SM sm, State running">
<path fill="none" stroke="black" d="M254,-645C254,-645 206,-645 206,-645 200,-645 194,-639 194,-633 194,-633 194,-621 194,-621 194,-615 200,-609 206,-609 206,-609 254,-609 254,-609 260,-609 266,-615 266,-621 266,-621 266,-633 266,-633 266,-639 260,-645 254,-645"/>
<text text-anchor="middle" x="230" y="-623.3" font-family="Times,serif" font-size="14.00">running</text>
</a>
</g>
</g>
<!-- DigitalWatch_sm_paused&#45;&gt;DigitalWatch_sm_running -->
<g id="edge22" class="edge">
<title>DigitalWatch_sm_paused&#45;&gt;DigitalWatch_sm_running</title>
<g id="a_edge22"><a xlink:title="From paused to running on s1">
<path fill="none" stroke="black" d="M162.05,-701.8C175.72,-696.25 190.69,-688.45 202,-678 209.11,-671.43 214.87,-662.62 219.26,-654.23"/>
<polygon fill="black" stroke="black" points="222.49,-655.61 223.65,-645.08 216.17,-652.58 222.49,-655.61"/>
</a>
</g>
<text text-anchor="middle" x="220.5" y="-666.8" font-family="Times,serif" font-size="14.00">s1</text>
</g>
<!-- DigitalWatch_sm_running&#45;&gt;DigitalWatch_sm_time -->
<g id="edge4" class="edge">
<title>DigitalWatch_sm_running&#45;&gt;DigitalWatch_sm_time</title>
<g id="a_edge4"><a xlink:title="From running to time on s3">
<path fill="none" stroke="black" d="M234.25,-645.45C242.42,-675.02 263.2,-734.7 304,-765 323.43,-779.43 385.16,-789.47 428.86,-794.99"/>
<polygon fill="black" stroke="black" points="428.64,-798.49 438.99,-796.23 429.49,-791.54 428.64,-798.49"/>
</a>
</g>
<text text-anchor="middle" x="279.5" y="-710.3" font-family="Times,serif" font-size="14.00">s3</text>
</g>
<!-- DigitalWatch_sm_running&#45;&gt;DigitalWatch_sm_paused -->
<g id="edge20" class="edge">
<title>DigitalWatch_sm_running&#45;&gt;DigitalWatch_sm_paused</title>
<g id="a_edge20"><a xlink:title="From running to paused on s1">
<path fill="none" stroke="black" d="M208.99,-645.18C193.49,-657.84 172.21,-675.23 155.08,-689.23"/>
<polygon fill="black" stroke="black" points="152.57,-686.76 147.05,-695.8 157,-692.18 152.57,-686.76"/>
</a>
</g>
<text text-anchor="middle" x="191.5" y="-666.8" font-family="Times,serif" font-size="14.00">s1</text>
</g>
<!-- DigitalWatch_sm_lapRunning -->
<g id="node6" class="node">
<title>DigitalWatch_sm_lapRunning</title>
<g id="a_node6"><a xlink:title="Class DigitalWatch, SM sm, State lapRunning">
<path fill="none" stroke="black" d="M295,-558C295,-558 237,-558 237,-558 231,-558 225,-552 225,-546 225,-546 225,-534 225,-534 225,-528 231,-522 237,-522 237,-522 295,-522 295,-522 301,-522 307,-528 307,-534 307,-534 307,-546 307,-546 307,-552 301,-558 295,-558"/>
<text text-anchor="middle" x="266" y="-536.3" font-family="Times,serif" font-size="14.00">lapRunning</text>
</a>
</g>
</g>
<!-- DigitalWatch_sm_running&#45;&gt;DigitalWatch_sm_lapRunning -->
<g id="edge24" class="edge">
<title>DigitalWatch_sm_running&#45;&gt;DigitalWatch_sm_lapRunning</title>
<g id="a_edge24"><a xlink:title="From running to lapRunning on s2">
<path fill="none" stroke="black" d="M226.2,-608.66C224.85,-598.71 224.6,-586.21 229,-576 230.57,-572.36 232.72,-568.92 235.21,-565.72"/>
<polygon fill="black" stroke="black" points="237.81,-568.06 241.93,-558.3 232.62,-563.36 237.81,-568.06"/>
</a>
</g>
<text text-anchor="middle" x="235.5" y="-579.8" font-family="Times,serif" font-size="14.00">s2</text>
</g>
<!-- DigitalWatch_sm_lapRunning&#45;&gt;DigitalWatch_sm_time -->
<g id="edge5" class="edge">
<title>DigitalWatch_sm_lapRunning&#45;&gt;DigitalWatch_sm_time</title>
<g id="a_edge5"><a xlink:title="From lapRunning to time on s3">
<path fill="none" stroke="black" d="M269.64,-558.26C279.97,-605.58 310.69,-735.8 342,-765 365.33,-786.75 400.53,-795.34 428.86,-798.57"/>
<polygon fill="black" stroke="black" points="428.66,-802.06 438.95,-799.53 429.33,-795.1 428.66,-802.06"/>
</a>
</g>
<text text-anchor="middle" x="307.5" y="-666.8" font-family="Times,serif" font-size="14.00">s3</text>
</g>
<!-- DigitalWatch_sm_lapRunning&#45;&gt;DigitalWatch_sm_running -->
<g id="edge23" class="edge">
<title>DigitalWatch_sm_lapRunning&#45;&gt;DigitalWatch_sm_running</title>
<g id="a_edge23"><a xlink:title="From lapRunning to running on s2">
<path fill="none" stroke="black" d="M258.73,-558.18C253.7,-570.04 246.92,-586.04 241.21,-599.52"/>
<polygon fill="black" stroke="black" points="237.96,-598.23 237.29,-608.8 244.41,-600.96 237.96,-598.23"/>
</a>
</g>
<text text-anchor="middle" x="257.5" y="-579.8" font-family="Times,serif" font-size="14.00">s2</text>
</g>
<!-- DigitalWatch_sm_lapPaused -->
<g id="node7" class="node">
<title>DigitalWatch_sm_lapPaused</title>
<g id="a_node7"><a xlink:title="Class DigitalWatch, SM sm, State lapPaused">
<path fill="none" stroke="black" d="M290.5,-471C290.5,-471 241.5,-471 241.5,-471 235.5,-471 229.5,-465 229.5,-459 229.5,-459 229.5,-447 229.5,-447 229.5,-441 235.5,-435 241.5,-435 241.5,-435 290.5,-435 290.5,-435 296.5,-435 302.5,-441 302.5,-447 302.5,-447 302.5,-459 302.5,-459 302.5,-465 296.5,-471 290.5,-471"/>
<text text-anchor="middle" x="266" y="-449.3" font-family="Times,serif" font-size="14.00">lapPaused</text>
</a>
</g>
</g>
<!-- DigitalWatch_sm_lapRunning&#45;&gt;DigitalWatch_sm_lapPaused -->
<g id="edge26" class="edge">
<title>DigitalWatch_sm_lapRunning&#45;&gt;DigitalWatch_sm_lapPaused</title>
<g id="a_edge26"><a xlink:title="From lapRunning to lapPaused on s1">
<path fill="none" stroke="black" d="M255.72,-521.77C252.98,-516.28 250.39,-510.06 249,-504 247.23,-496.3 248.58,-488.11 251.15,-480.64"/>
<polygon fill="black" stroke="black" points="254.41,-481.91 255.07,-471.33 247.96,-479.19 254.41,-481.91"/>
</a>
</g>
<text text-anchor="middle" x="255.5" y="-492.8" font-family="Times,serif" font-size="14.00">s1</text>
</g>
<!-- DigitalWatch_sm_lapPaused&#45;&gt;DigitalWatch_sm_time -->
<g id="edge6" class="edge">
<title>DigitalWatch_sm_lapPaused&#45;&gt;DigitalWatch_sm_time</title>
<g id="a_edge6"><a xlink:title="From lapPaused to time on s3">
<path fill="none" stroke="black" d="M280.91,-471.22C291.77,-484.42 306.23,-503.46 316,-522 369.57,-623.61 325.12,-681.51 404,-765 411.22,-772.65 420.47,-778.85 429.89,-783.79"/>
<polygon fill="black" stroke="black" points="428.39,-786.95 438.92,-788.14 431.43,-780.64 428.39,-786.95"/>
</a>
</g>
<text text-anchor="middle" x="356.5" y="-623.3" font-family="Times,serif" font-size="14.00">s3</text>
</g>
<!-- DigitalWatch_sm_lapPaused&#45;&gt;DigitalWatch_sm_paused -->
<g id="edge21" class="edge">
<title>DigitalWatch_sm_lapPaused&#45;&gt;DigitalWatch_sm_paused</title>
<g id="a_edge21"><a xlink:title="From lapPaused to paused on s2">
<path fill="none" stroke="black" d="M251.86,-471.25C241.27,-484.62 226.8,-503.87 216,-522 182.65,-577.99 152.22,-648.33 136.73,-686.09"/>
<polygon fill="black" stroke="black" points="133.29,-685.25 132.77,-695.83 139.78,-687.89 133.29,-685.25"/>
</a>
</g>
<text text-anchor="middle" x="193.5" y="-579.8" font-family="Times,serif" font-size="14.00">s2</text>
</g>
<!-- DigitalWatch_sm_lapPaused&#45;&gt;DigitalWatch_sm_lapRunning -->
<g id="edge25" class="edge">
<title>DigitalWatch_sm_lapPaused&#45;&gt;DigitalWatch_sm_lapRunning</title>
<g id="a_edge25"><a xlink:title="From lapPaused to lapRunning on s1">
<path fill="none" stroke="black" d="M266,-471.18C266,-482.81 266,-498.42 266,-511.73"/>
<polygon fill="black" stroke="black" points="262.5,-511.8 266,-521.8 269.5,-511.8 262.5,-511.8"/>
</a>
</g>
<text text-anchor="middle" x="272.5" y="-492.8" font-family="Times,serif" font-size="14.00">s1</text>
</g>
<!-- DigitalWatch_sm_bothOff&#45;&gt;DigitalWatch_sm_time -->
<g id="edge7" class="edge">
<title>DigitalWatch_sm_bothOff&#45;&gt;DigitalWatch_sm_time</title>
<g id="a_edge7"><a xlink:title="From bothOff to time on notS2">
<path fill="none" stroke="black" d="M461.44,-732.18C463.76,-743.81 466.88,-759.42 469.55,-772.73"/>
<polygon fill="black" stroke="black" points="466.17,-773.68 471.56,-782.8 473.03,-772.31 466.17,-773.68"/>
</a>
</g>
<text text-anchor="middle" x="484.5" y="-753.8" font-family="Times,serif" font-size="14.00">notS2</text>
</g>
<!-- DigitalWatch_sm_chimeOn -->
<g id="node9" class="node">
<title>DigitalWatch_sm_chimeOn</title>
<g id="a_node9"><a xlink:title="Class DigitalWatch, SM sm, State chimeOn">
<path fill="none" stroke="black" d="M543,-645C543,-645 495,-645 495,-645 489,-645 483,-639 483,-633 483,-633 483,-621 483,-621 483,-615 489,-609 495,-609 495,-609 543,-609 543,-609 549,-609 555,-615 555,-621 555,-621 555,-633 555,-633 555,-639 549,-645 543,-645"/>
<text text-anchor="middle" x="519" y="-623.3" font-family="Times,serif" font-size="14.00">chimeOn</text>
</a>
</g>
</g>
<!-- DigitalWatch_sm_bothOff&#45;&gt;DigitalWatch_sm_chimeOn -->
<g id="edge29" class="edge">
<title>DigitalWatch_sm_bothOff&#45;&gt;DigitalWatch_sm_chimeOn</title>
<g id="a_edge29"><a xlink:title="From bothOff to chimeOn on s1">
<path fill="none" stroke="black" d="M467.25,-695.84C472.84,-685.95 480.34,-673.45 488,-663 490.41,-659.71 493.08,-656.36 495.8,-653.1"/>
<polygon fill="black" stroke="black" points="498.67,-655.12 502.57,-645.27 493.38,-650.54 498.67,-655.12"/>
</a>
</g>
<text text-anchor="middle" x="494.5" y="-666.8" font-family="Times,serif" font-size="14.00">s1</text>
</g>
<!-- DigitalWatch_sm_chimeOn&#45;&gt;DigitalWatch_sm_time -->
<g id="edge8" class="edge">
<title>DigitalWatch_sm_chimeOn&#45;&gt;DigitalWatch_sm_time</title>
<g id="a_edge8"><a xlink:title="From chimeOn to time on notS2">
<path fill="none" stroke="black" d="M543.71,-645.19C549.09,-650.25 554.05,-656.26 557,-663 575.55,-705.31 564.64,-727.99 537,-765 532.42,-771.13 526.44,-776.34 519.99,-780.72"/>
<polygon fill="black" stroke="black" points="517.73,-777.99 511,-786.18 521.37,-783.98 517.73,-777.99"/>
</a>
</g>
<text text-anchor="middle" x="583.5" y="-710.3" font-family="Times,serif" font-size="14.00">notS2</text>
</g>
<!-- DigitalWatch_sm_bothOn -->
<g id="node10" class="node">
<title>DigitalWatch_sm_bothOn</title>
<g id="a_node10"><a xlink:title="Class DigitalWatch, SM sm, State bothOn">
<path fill="none" stroke="black" d="M543,-558C543,-558 495,-558 495,-558 489,-558 483,-552 483,-546 483,-546 483,-534 483,-534 483,-528 489,-522 495,-522 495,-522 543,-522 543,-522 549,-522 555,-528 555,-534 555,-534 555,-546 555,-546 555,-552 549,-558 543,-558"/>
<text text-anchor="middle" x="519" y="-536.3" font-family="Times,serif" font-size="14.00">bothOn</text>
</a>
</g>
</g>
<!-- DigitalWatch_sm_chimeOn&#45;&gt;DigitalWatch_sm_bothOn -->
<g id="edge30" class="edge">
<title>DigitalWatch_sm_chimeOn&#45;&gt;DigitalWatch_sm_bothOn</title>
<g id="a_edge30"><a xlink:title="From chimeOn to bothOn on s1">
<path fill="none" stroke="black" d="M519,-608.8C519,-597.16 519,-581.55 519,-568.24"/>
<polygon fill="black" stroke="black" points="522.5,-568.18 519,-558.18 515.5,-568.18 522.5,-568.18"/>
</a>
</g>
<text text-anchor="middle" x="525.5" y="-579.8" font-family="Times,serif" font-size="14.00">s1</text>
</g>
<!-- DigitalWatch_sm_bothOn&#45;&gt;DigitalWatch_sm_time -->
<g id="edge9" class="edge">
<title>DigitalWatch_sm_bothOn&#45;&gt;DigitalWatch_sm_time</title>
<g id="a_edge9"><a xlink:title="From bothOn to time on notS2">
<path fill="none" stroke="black" d="M534.6,-558.27C545.18,-571.2 558.25,-589.89 564,-609 568.61,-624.32 567.62,-629.42 564,-645 550.54,-702.89 537.71,-715.38 505,-765 502.78,-768.36 500.28,-771.75 497.69,-775.04"/>
<polygon fill="black" stroke="black" points="494.87,-772.95 491.17,-782.88 500.25,-777.42 494.87,-772.95"/>
</a>
</g>
<text text-anchor="middle" x="576.5" y="-666.8" font-family="Times,serif" font-size="14.00">notS2</text>
</g>
<!-- DigitalWatch_sm_alarmOn -->
<g id="node11" class="node">
<title>DigitalWatch_sm_alarmOn</title>
<g id="a_node11"><a xlink:title="Class DigitalWatch, SM sm, State alarmOn">
<path fill="none" stroke="black" d="M479,-471C479,-471 431,-471 431,-471 425,-471 419,-465 419,-459 419,-459 419,-447 419,-447 419,-441 425,-435 431,-435 431,-435 479,-435 479,-435 485,-435 491,-441 491,-447 491,-447 491,-459 491,-459 491,-465 485,-471 479,-471"/>
<text text-anchor="middle" x="455" y="-449.3" font-family="Times,serif" font-size="14.00">alarmOn</text>
</a>
</g>
</g>
<!-- DigitalWatch_sm_bothOn&#45;&gt;DigitalWatch_sm_alarmOn -->
<g id="edge31" class="edge">
<title>DigitalWatch_sm_bothOn&#45;&gt;DigitalWatch_sm_alarmOn</title>
<g id="a_edge31"><a xlink:title="From bothOn to alarmOn on s1">
<path fill="none" stroke="black" d="M506.05,-521.8C496.85,-509.59 484.36,-492.99 474.03,-479.28"/>
<polygon fill="black" stroke="black" points="476.74,-477.06 467.93,-471.18 471.15,-481.27 476.74,-477.06"/>
</a>
</g>
<text text-anchor="middle" x="497.5" y="-492.8" font-family="Times,serif" font-size="14.00">s1</text>
</g>
<!-- DigitalWatch_sm_alarmOn&#45;&gt;DigitalWatch_sm_time -->
<g id="edge10" class="edge">
<title>DigitalWatch_sm_alarmOn&#45;&gt;DigitalWatch_sm_time</title>
<g id="a_edge10"><a xlink:title="From alarmOn to time on notS2">
<path fill="none" stroke="black" d="M432.98,-471.02C415.5,-486.6 394,-511.39 394,-539 394,-715 394,-715 394,-715 394,-741.16 414.35,-762.45 434.65,-777.18"/>
<polygon fill="black" stroke="black" points="432.76,-780.13 442.99,-782.89 436.72,-774.35 432.76,-780.13"/>
</a>
</g>
<text text-anchor="middle" x="410.5" y="-623.3" font-family="Times,serif" font-size="14.00">notS2</text>
</g>
<!-- DigitalWatch_sm_alarmOn&#45;&gt;DigitalWatch_sm_bothOff -->
<g id="edge28" class="edge">
<title>DigitalWatch_sm_alarmOn&#45;&gt;DigitalWatch_sm_bothOff</title>
<g id="a_edge28"><a xlink:title="From alarmOn to bothOff on s1">
<path fill="none" stroke="black" d="M455.2,-471.32C455.71,-515.38 457.06,-632.01 457.68,-685.49"/>
<polygon fill="black" stroke="black" points="454.18,-685.65 457.8,-695.6 461.18,-685.56 454.18,-685.65"/>
</a>
</g>
<text text-anchor="middle" x="463.5" y="-579.8" font-family="Times,serif" font-size="14.00">s1</text>
</g>
<!-- DigitalWatch_sm_alarmHour -->
<g id="node13" class="node">
<title>DigitalWatch_sm_alarmHour</title>
<g id="a_node13"><a xlink:title="Class DigitalWatch, SM sm, State alarmHour">
<path fill="none" stroke="black" d="M840.5,-645C840.5,-645 787.5,-645 787.5,-645 781.5,-645 775.5,-639 775.5,-633 775.5,-633 775.5,-621 775.5,-621 775.5,-615 781.5,-609 787.5,-609 787.5,-609 840.5,-609 840.5,-609 846.5,-609 852.5,-615 852.5,-621 852.5,-621 852.5,-633 852.5,-633 852.5,-639 846.5,-645 840.5,-645"/>
<text text-anchor="middle" x="814" y="-623.3" font-family="Times,serif" font-size="14.00">alarmHour</text>
</a>
</g>
</g>
<!-- DigitalWatch_sm_alarmTime&#45;&gt;DigitalWatch_sm_alarmHour -->
<g id="edge33" class="edge">
<title>DigitalWatch_sm_alarmTime&#45;&gt;DigitalWatch_sm_alarmHour</title>
<g id="a_edge33"><a xlink:title="From alarmTime to alarmHour on s2&#13;Transition Action:&#10; &#160;&#160;&#160;&#160;alarmHour++;">
<path fill="none" stroke="black" d="M798.84,-695.8C801.45,-684.16 804.94,-668.55 807.91,-655.24"/>
<polygon fill="black" stroke="black" points="811.39,-655.7 810.16,-645.18 804.56,-654.17 811.39,-655.7"/>
</a>
</g>
<text text-anchor="middle" x="858" y="-666.8" font-family="Times,serif" font-size="14.00">s2 / alarmHour++;</text>
</g>
<!-- DigitalWatch_sm_alarmMinute -->
<g id="node14" class="node">
<title>DigitalWatch_sm_alarmMinute</title>
<g id="a_node14"><a xlink:title="Class DigitalWatch, SM sm, State alarmMinute">
<path fill="none" stroke="black" d="M901.5,-558C901.5,-558 836.5,-558 836.5,-558 830.5,-558 824.5,-552 824.5,-546 824.5,-546 824.5,-534 824.5,-534 824.5,-528 830.5,-522 836.5,-522 836.5,-522 901.5,-522 901.5,-522 907.5,-522 913.5,-528 913.5,-534 913.5,-534 913.5,-546 913.5,-546 913.5,-552 907.5,-558 901.5,-558"/>
<text text-anchor="middle" x="869" y="-536.3" font-family="Times,serif" font-size="14.00">alarmMinute</text>
</a>
</g>
</g>
<!-- DigitalWatch_sm_alarmTime&#45;&gt;DigitalWatch_sm_alarmMinute -->
<g id="edge36" class="edge">
<title>DigitalWatch_sm_alarmTime&#45;&gt;DigitalWatch_sm_alarmMinute</title>
<g id="a_edge36"><a xlink:title="From alarmTime to alarmMinute on s1">
<path fill="none" stroke="black" d="M833.51,-712.11C878.9,-708.7 952.16,-695.21 984,-645 1005.62,-610.91 962.44,-581.06 922.96,-562.2"/>
<polygon fill="black" stroke="black" points="924.12,-558.88 913.57,-557.87 921.19,-565.23 924.12,-558.88"/>
</a>
</g>
<text text-anchor="middle" x="995.5" y="-623.3" font-family="Times,serif" font-size="14.00">s1</text>
</g>
<!-- DigitalWatch_sm_second -->
<g id="node15" class="node">
<title>DigitalWatch_sm_second</title>
<g id="a_node15"><a xlink:title="Class DigitalWatch, SM sm, State second">
<path fill="none" stroke="black" d="M845,-471C845,-471 797,-471 797,-471 791,-471 785,-465 785,-459 785,-459 785,-447 785,-447 785,-441 791,-435 797,-435 797,-435 845,-435 845,-435 851,-435 857,-441 857,-447 857,-447 857,-459 857,-459 857,-465 851,-471 845,-471"/>
<text text-anchor="middle" x="821" y="-449.3" font-family="Times,serif" font-size="14.00">second</text>
</a>
</g>
</g>
<!-- DigitalWatch_sm_alarmTime&#45;&gt;DigitalWatch_sm_second -->
<g id="edge39" class="edge">
<title>DigitalWatch_sm_alarmTime&#45;&gt;DigitalWatch_sm_second</title>
<g id="a_edge39"><a xlink:title="From alarmTime to second on s3">
<path fill="none" stroke="black" d="M785.33,-695.74C778.41,-682.36 769.7,-663.11 766,-645 762.8,-629.32 763.68,-624.83 766,-609 774.09,-553.91 780.6,-540.41 802,-489 803.21,-486.09 804.59,-483.11 806.04,-480.18"/>
<polygon fill="black" stroke="black" points="809.26,-481.58 810.8,-471.1 803.06,-478.33 809.26,-481.58"/>
</a>
</g>
<text text-anchor="middle" x="778.5" y="-579.8" font-family="Times,serif" font-size="14.00">s3</text>
</g>
<!-- DigitalWatch_sm_alarmHour&#45;&gt;DigitalWatch_sm_alarmHour -->
<g id="edge34" class="edge">
<title>DigitalWatch_sm_alarmHour&#45;&gt;DigitalWatch_sm_alarmHour</title>
<g id="a_edge34"><a xlink:title="From alarmHour to alarmHour on s2&#13;Transition Action:&#10; &#160;&#160;&#160;&#160;alarmHour++;">
<path fill="none" stroke="black" d="M852.56,-634.81C862.77,-634.36 870.5,-631.76 870.5,-627 870.5,-624.03 867.48,-621.89 862.72,-620.61"/>
<polygon fill="black" stroke="black" points="862.94,-617.1 852.56,-619.19 861.98,-624.04 862.94,-617.1"/>
</a>
</g>
<text text-anchor="middle" x="922.5" y="-623.3" font-family="Times,serif" font-size="14.00">s2 / alarmHour++;</text>
</g>
<!-- DigitalWatch_sm_alarmHour&#45;&gt;DigitalWatch_sm_alarmMinute -->
<g id="edge37" class="edge">
<title>DigitalWatch_sm_alarmHour&#45;&gt;DigitalWatch_sm_alarmMinute</title>
<g id="a_edge37"><a xlink:title="From alarmHour to alarmMinute on s1">
<path fill="none" stroke="black" d="M830.78,-608.97C835.7,-603.49 840.87,-597.22 845,-591 849.85,-583.7 854.28,-575.27 857.98,-567.44"/>
<polygon fill="black" stroke="black" points="861.19,-568.85 862.11,-558.3 854.81,-565.97 861.19,-568.85"/>
</a>
</g>
<text text-anchor="middle" x="860.5" y="-579.8" font-family="Times,serif" font-size="14.00">s1</text>
</g>
<!-- DigitalWatch_sm_alarmHour&#45;&gt;DigitalWatch_sm_second -->
<g id="edge40" class="edge">
<title>DigitalWatch_sm_alarmHour&#45;&gt;DigitalWatch_sm_second</title>
<g id="a_edge40"><a xlink:title="From alarmHour to second on s3">
<path fill="none" stroke="black" d="M809.34,-608.67C804.39,-588.01 797.83,-552.43 802,-522 803.9,-508.15 807.88,-493.14 811.71,-480.76"/>
<polygon fill="black" stroke="black" points="815.1,-481.65 814.84,-471.05 808.43,-479.5 815.1,-481.65"/>
</a>
</g>
<text text-anchor="middle" x="808.5" y="-536.3" font-family="Times,serif" font-size="14.00">s3</text>
</g>
<!-- DigitalWatch_sm_alarmMinute&#45;&gt;DigitalWatch_sm_alarmHour -->
<g id="edge35" class="edge">
<title>DigitalWatch_sm_alarmMinute&#45;&gt;DigitalWatch_sm_alarmHour</title>
<g id="a_edge35"><a xlink:title="From alarmMinute to alarmHour on s1">
<path fill="none" stroke="black" d="M847.61,-558.02C841.96,-563.32 836.26,-569.49 832,-576 827.38,-583.06 823.77,-591.45 821.03,-599.32"/>
<polygon fill="black" stroke="black" points="817.68,-598.29 818.02,-608.88 824.36,-600.39 817.68,-598.29"/>
</a>
</g>
<text text-anchor="middle" x="838.5" y="-579.8" font-family="Times,serif" font-size="14.00">s1</text>
</g>
<!-- DigitalWatch_sm_alarmMinute&#45;&gt;DigitalWatch_sm_alarmMinute -->
<g id="edge38" class="edge">
<title>DigitalWatch_sm_alarmMinute&#45;&gt;DigitalWatch_sm_alarmMinute</title>
<g id="a_edge38"><a xlink:title="From alarmMinute to alarmMinute on s2&#13;Transition Action:&#10; &#160;&#160;&#160;&#160;alarmMinute++;">
<path fill="none" stroke="black" d="M913.66,-547.7C923.95,-547.04 931.5,-544.47 931.5,-540 931.5,-537.21 928.55,-535.16 923.83,-533.85"/>
<polygon fill="black" stroke="black" points="924.08,-530.35 913.66,-532.3 923.02,-537.27 924.08,-530.35"/>
</a>
</g>
<text text-anchor="middle" x="989.5" y="-536.3" font-family="Times,serif" font-size="14.00">s2 / alarmMinute++;</text>
</g>
<!-- DigitalWatch_sm_alarmMinute&#45;&gt;DigitalWatch_sm_second -->
<g id="edge41" class="edge">
<title>DigitalWatch_sm_alarmMinute&#45;&gt;DigitalWatch_sm_second</title>
<g id="a_edge41"><a xlink:title="From alarmMinute to second on s3">
<path fill="none" stroke="black" d="M859.29,-521.8C852.52,-509.82 843.37,-493.62 835.71,-480.06"/>
<polygon fill="black" stroke="black" points="838.66,-478.16 830.7,-471.18 832.57,-481.6 838.66,-478.16"/>
</a>
</g>
<text text-anchor="middle" x="854.5" y="-492.8" font-family="Times,serif" font-size="14.00">s3</text>
</g>
<!-- DigitalWatch_sm_second&#45;&gt;DigitalWatch_sm_time -->
<g id="edge11" class="edge">
<title>DigitalWatch_sm_second&#45;&gt;DigitalWatch_sm_time</title>
<g id="a_edge11"><a xlink:title="From second to time on s3">
<path fill="none" stroke="black" d="M857.01,-459.07C916.92,-468.31 1032.9,-489.97 1057,-522 1092.58,-569.29 1041.45,-597.61 1006,-645 950.82,-718.77 924.17,-735.2 837,-765 779.72,-784.58 605.15,-794.47 521.13,-798.19"/>
<polygon fill="black" stroke="black" points="520.95,-794.7 511.11,-798.63 521.25,-801.69 520.95,-794.7"/>
</a>
</g>
<text text-anchor="middle" x="1042.5" y="-623.3" font-family="Times,serif" font-size="14.00">s3</text>
</g>
<!-- DigitalWatch_sm_second&#45;&gt;DigitalWatch_sm_second -->
<g id="edge42" class="edge">
<title>DigitalWatch_sm_second&#45;&gt;DigitalWatch_sm_second</title>
<g id="a_edge42"><a xlink:title="From second to second on s2&#13;Transition Action:&#10; &#160;&#160;&#160;&#160;secondzero();">
<path fill="none" stroke="black" d="M857.09,-460.84C867.22,-460.49 875,-457.88 875,-453 875,-449.95 871.96,-447.79 867.21,-446.51"/>
<polygon fill="black" stroke="black" points="867.46,-443.01 857.09,-445.16 866.54,-449.95 867.46,-443.01"/>
</a>
</g>
<text text-anchor="middle" x="925" y="-449.3" font-family="Times,serif" font-size="14.00">s2 / secondzero();</text>
</g>
<!-- DigitalWatch_sm_minute -->
<g id="node16" class="node">
<title>DigitalWatch_sm_minute</title>
<g id="a_node16"><a xlink:title="Class DigitalWatch, SM sm, State minute">
<path fill="none" stroke="black" d="M756,-384C756,-384 708,-384 708,-384 702,-384 696,-378 696,-372 696,-372 696,-360 696,-360 696,-354 702,-348 708,-348 708,-348 756,-348 756,-348 762,-348 768,-354 768,-360 768,-360 768,-372 768,-372 768,-378 762,-384 756,-384"/>
<text text-anchor="middle" x="732" y="-362.3" font-family="Times,serif" font-size="14.00">minute</text>
</a>
</g>
</g>
<!-- DigitalWatch_sm_second&#45;&gt;DigitalWatch_sm_minute -->
<g id="edge44" class="edge">
<title>DigitalWatch_sm_second&#45;&gt;DigitalWatch_sm_minute</title>
<g id="a_edge44"><a xlink:title="From second to minute on s1">
<path fill="none" stroke="black" d="M802.99,-434.8C789.84,-422.24 771.84,-405.05 757.26,-391.12"/>
<polygon fill="black" stroke="black" points="759.63,-388.55 749.98,-384.18 754.8,-393.61 759.63,-388.55"/>
</a>
</g>
<text text-anchor="middle" x="788.5" y="-405.8" font-family="Times,serif" font-size="14.00">s1</text>
</g>
<!-- DigitalWatch_sm_minute&#45;&gt;DigitalWatch_sm_time -->
<g id="edge12" class="edge">
<title>DigitalWatch_sm_minute&#45;&gt;DigitalWatch_sm_time</title>
<g id="a_edge12"><a xlink:title="From minute to time on s3">
<path fill="none" stroke="black" d="M724.47,-384.21C717.76,-401.13 709,-427.85 709,-452 709,-715 709,-715 709,-715 709,-740.26 702.53,-750.29 682,-765 656.93,-782.96 574.56,-792.47 521.59,-796.85"/>
<polygon fill="black" stroke="black" points="521.11,-793.38 511.42,-797.66 521.66,-800.36 521.11,-793.38"/>
</a>
</g>
<text text-anchor="middle" x="715.5" y="-579.8" font-family="Times,serif" font-size="14.00">s3</text>
</g>
<!-- DigitalWatch_sm_minute&#45;&gt;DigitalWatch_sm_minute -->
<g id="edge45" class="edge">
<title>DigitalWatch_sm_minute&#45;&gt;DigitalWatch_sm_minute</title>
<g id="a_edge45"><a xlink:title="From minute to minute on s2&#13;Transition Action:&#10; &#160;&#160;&#160;&#160;minute++;">
<path fill="none" stroke="black" d="M768.09,-373.84C778.22,-373.49 786,-370.88 786,-366 786,-362.95 782.96,-360.79 778.21,-359.51"/>
<polygon fill="black" stroke="black" points="778.46,-356.01 768.09,-358.16 777.54,-362.95 778.46,-356.01"/>
</a>
</g>
<text text-anchor="middle" x="827" y="-362.3" font-family="Times,serif" font-size="14.00">s2 / minute++;</text>
</g>
<!-- DigitalWatch_sm_hour -->
<g id="node17" class="node">
<title>DigitalWatch_sm_hour</title>
<g id="a_node17"><a xlink:title="Class DigitalWatch, SM sm, State hour">
<path fill="none" stroke="black" d="M756,-297C756,-297 708,-297 708,-297 702,-297 696,-291 696,-285 696,-285 696,-273 696,-273 696,-267 702,-261 708,-261 708,-261 756,-261 756,-261 762,-261 768,-267 768,-273 768,-273 768,-285 768,-285 768,-291 762,-297 756,-297"/>
<text text-anchor="middle" x="732" y="-275.3" font-family="Times,serif" font-size="14.00">hour</text>
</a>
</g>
</g>
<!-- DigitalWatch_sm_minute&#45;&gt;DigitalWatch_sm_hour -->
<g id="edge46" class="edge">
<title>DigitalWatch_sm_minute&#45;&gt;DigitalWatch_sm_hour</title>
<g id="a_edge46"><a xlink:title="From minute to hour on s1">
<path fill="none" stroke="black" d="M732,-347.8C732,-336.16 732,-320.55 732,-307.24"/>
<polygon fill="black" stroke="black" points="735.5,-307.18 732,-297.18 728.5,-307.18 735.5,-307.18"/>
</a>
</g>
<text text-anchor="middle" x="738.5" y="-318.8" font-family="Times,serif" font-size="14.00">s1</text>
</g>
<!-- DigitalWatch_sm_hour&#45;&gt;DigitalWatch_sm_time -->
<g id="edge13" class="edge">
<title>DigitalWatch_sm_hour&#45;&gt;DigitalWatch_sm_time</title>
<g id="a_edge13"><a xlink:title="From hour to time on s3">
<path fill="none" stroke="black" d="M708.53,-297.09C690.27,-312.55 668,-337.11 668,-365 668,-715 668,-715 668,-715 668,-739.65 663.42,-749.81 644,-765 625.21,-779.7 564.41,-789.65 521.13,-795.08"/>
<polygon fill="black" stroke="black" points="520.6,-791.62 511.09,-796.3 521.44,-798.57 520.6,-791.62"/>
</a>
</g>
<text text-anchor="middle" x="674.5" y="-536.3" font-family="Times,serif" font-size="14.00">s3</text>
</g>
<!-- DigitalWatch_sm_hour&#45;&gt;DigitalWatch_sm_hour -->
<g id="edge47" class="edge">
<title>DigitalWatch_sm_hour&#45;&gt;DigitalWatch_sm_hour</title>
<g id="a_edge47"><a xlink:title="From hour to hour on s2&#13;Transition Action:&#10; &#160;&#160;&#160;&#160;hour++;">
<path fill="none" stroke="black" d="M768.09,-286.84C778.22,-286.49 786,-283.88 786,-279 786,-275.95 782.96,-273.79 778.21,-272.51"/>
<polygon fill="black" stroke="black" points="778.46,-269.01 768.09,-271.16 777.54,-275.95 778.46,-269.01"/>
</a>
</g>
<text text-anchor="middle" x="820.5" y="-275.3" font-family="Times,serif" font-size="14.00">s2 / hour++;</text>
</g>
<!-- DigitalWatch_sm_month -->
<g id="node18" class="node">
<title>DigitalWatch_sm_month</title>
<g id="a_node18"><a xlink:title="Class DigitalWatch, SM sm, State month">
<path fill="none" stroke="black" d="M758,-210C758,-210 710,-210 710,-210 704,-210 698,-204 698,-198 698,-198 698,-186 698,-186 698,-180 704,-174 710,-174 710,-174 758,-174 758,-174 764,-174 770,-180 770,-186 770,-186 770,-198 770,-198 770,-204 764,-210 758,-210"/>
<text text-anchor="middle" x="734" y="-188.3" font-family="Times,serif" font-size="14.00">month</text>
</a>
</g>
</g>
<!-- DigitalWatch_sm_hour&#45;&gt;DigitalWatch_sm_month -->
<g id="edge48" class="edge">
<title>DigitalWatch_sm_hour&#45;&gt;DigitalWatch_sm_month</title>
<g id="a_edge48"><a xlink:title="From hour to month on s1">
<path fill="none" stroke="black" d="M732.4,-260.8C732.68,-249.16 733.05,-233.55 733.36,-220.24"/>
<polygon fill="black" stroke="black" points="736.86,-220.26 733.6,-210.18 729.86,-220.09 736.86,-220.26"/>
</a>
</g>
<text text-anchor="middle" x="740.5" y="-231.8" font-family="Times,serif" font-size="14.00">s1</text>
</g>
<!-- DigitalWatch_sm_month&#45;&gt;DigitalWatch_sm_time -->
<g id="edge14" class="edge">
<title>DigitalWatch_sm_month&#45;&gt;DigitalWatch_sm_time</title>
<g id="a_edge14"><a xlink:title="From month to time on s3">
<path fill="none" stroke="black" d="M770.09,-193.45C864.95,-195.61 1114,-207.95 1114,-278 1114,-715 1114,-715 1114,-715 1114,-774.84 668.03,-794.02 521.23,-798.71"/>
<polygon fill="black" stroke="black" points="521.07,-795.22 511.19,-799.03 521.29,-802.21 521.07,-795.22"/>
</a>
</g>
<text text-anchor="middle" x="1120.5" y="-492.8" font-family="Times,serif" font-size="14.00">s3</text>
</g>
<!-- DigitalWatch_sm_month&#45;&gt;DigitalWatch_sm_month -->
<g id="edge49" class="edge">
<title>DigitalWatch_sm_month&#45;&gt;DigitalWatch_sm_month</title>
<g id="a_edge49"><a xlink:title="From month to month on s2&#13;Transition Action:&#10; &#160;&#160;&#160;&#160;month++;">
<path fill="none" stroke="black" d="M770.09,-199.84C780.22,-199.49 788,-196.88 788,-192 788,-188.95 784.96,-186.79 780.21,-185.51"/>
<polygon fill="black" stroke="black" points="780.46,-182.01 770.09,-184.16 779.54,-188.95 780.46,-182.01"/>
</a>
</g>
<text text-anchor="middle" x="827.5" y="-188.3" font-family="Times,serif" font-size="14.00">s2 / month++;</text>
</g>
<!-- DigitalWatch_sm_day -->
<g id="node19" class="node">
<title>DigitalWatch_sm_day</title>
<g id="a_node19"><a xlink:title="Class DigitalWatch, SM sm, State day">
<path fill="none" stroke="black" d="M758,-123C758,-123 710,-123 710,-123 704,-123 698,-117 698,-111 698,-111 698,-99 698,-99 698,-93 704,-87 710,-87 710,-87 758,-87 758,-87 764,-87 770,-93 770,-99 770,-99 770,-111 770,-111 770,-117 764,-123 758,-123"/>
<text text-anchor="middle" x="734" y="-101.3" font-family="Times,serif" font-size="14.00">day</text>
</a>
</g>
</g>
<!-- DigitalWatch_sm_month&#45;&gt;DigitalWatch_sm_day -->
<g id="edge50" class="edge">
<title>DigitalWatch_sm_month&#45;&gt;DigitalWatch_sm_day</title>
<g id="a_edge50"><a xlink:title="From month to day on s1">
<path fill="none" stroke="black" d="M734,-173.8C734,-162.16 734,-146.55 734,-133.24"/>
<polygon fill="black" stroke="black" points="737.5,-133.18 734,-123.18 730.5,-133.18 737.5,-133.18"/>
</a>
</g>
<text text-anchor="middle" x="740.5" y="-144.8" font-family="Times,serif" font-size="14.00">s1</text>
</g>
<!-- DigitalWatch_sm_day&#45;&gt;DigitalWatch_sm_time -->
<g id="edge15" class="edge">
<title>DigitalWatch_sm_day&#45;&gt;DigitalWatch_sm_time</title>
<g id="a_edge15"><a xlink:title="From day to time on s3">
<path fill="none" stroke="black" d="M697.95,-116.65C665.2,-128.8 622,-152.19 622,-191 622,-497.5 622,-497.5 622,-497.5 622,-602.03 655.72,-641.16 604,-732 586.72,-762.34 550.62,-779.73 521,-789.31"/>
<polygon fill="black" stroke="black" points="519.79,-786.02 511.23,-792.27 521.82,-792.72 519.79,-786.02"/>
</a>
</g>
<text text-anchor="middle" x="628.5" y="-449.3" font-family="Times,serif" font-size="14.00">s3</text>
</g>
<!-- DigitalWatch_sm_day&#45;&gt;DigitalWatch_sm_day -->
<g id="edge51" class="edge">
<title>DigitalWatch_sm_day&#45;&gt;DigitalWatch_sm_day</title>
<g id="a_edge51"><a xlink:title="From day to day on s2&#13;Transition Action:&#10; &#160;&#160;&#160;&#160;day++;">
<path fill="none" stroke="black" d="M770.09,-112.84C780.22,-112.49 788,-109.88 788,-105 788,-101.95 784.96,-99.79 780.21,-98.51"/>
<polygon fill="black" stroke="black" points="780.46,-95.01 770.09,-97.16 779.54,-101.95 780.46,-95.01"/>
</a>
</g>
<text text-anchor="middle" x="820" y="-101.3" font-family="Times,serif" font-size="14.00">s2 / day++;</text>
</g>
<!-- DigitalWatch_sm_year -->
<g id="node20" class="node">
<title>DigitalWatch_sm_year</title>
<g id="a_node20"><a xlink:title="Class DigitalWatch, SM sm, State year">
<path fill="none" stroke="black" d="M920,-36C920,-36 872,-36 872,-36 866,-36 860,-30 860,-24 860,-24 860,-12 860,-12 860,-6 866,0 872,0 872,0 920,0 920,0 926,0 932,-6 932,-12 932,-12 932,-24 932,-24 932,-30 926,-36 920,-36"/>
<text text-anchor="middle" x="896" y="-14.3" font-family="Times,serif" font-size="14.00">year</text>
</a>
</g>
</g>
<!-- DigitalWatch_sm_day&#45;&gt;DigitalWatch_sm_year -->
<g id="edge52" class="edge">
<title>DigitalWatch_sm_day&#45;&gt;DigitalWatch_sm_year</title>
<g id="a_edge52"><a xlink:title="From day to year on s1">
<path fill="none" stroke="black" d="M766.78,-86.8C792.12,-73.51 827.35,-55.02 854.62,-40.71"/>
<polygon fill="black" stroke="black" points="856.31,-43.78 863.54,-36.03 853.06,-37.58 856.31,-43.78"/>
</a>
</g>
<text text-anchor="middle" x="831.5" y="-57.8" font-family="Times,serif" font-size="14.00">s1</text>
</g>
<!-- DigitalWatch_sm_year&#45;&gt;DigitalWatch_sm_time -->
<g id="edge16" class="edge">
<title>DigitalWatch_sm_year&#45;&gt;DigitalWatch_sm_time</title>
<g id="a_edge16"><a xlink:title="From year to time on s3">
<path fill="none" stroke="black" d="M932.14,-23.33C1002.7,-32.79 1152,-58.22 1152,-104 1152,-715 1152,-715 1152,-715 1152,-775.66 1084.5,-753.2 1025,-765 929.1,-784.02 635.79,-794.98 521.39,-798.62"/>
<polygon fill="black" stroke="black" points="521.09,-795.13 511.21,-798.94 521.31,-802.13 521.09,-795.13"/>
</a>
</g>
<text text-anchor="middle" x="1158.5" y="-405.8" font-family="Times,serif" font-size="14.00">s3</text>
</g>
<!-- DigitalWatch_sm_year&#45;&gt;DigitalWatch_sm_second -->
<g id="edge43" class="edge">
<title>DigitalWatch_sm_year&#45;&gt;DigitalWatch_sm_second</title>
<g id="a_edge43"><a xlink:title="From year to second on s1">
<path fill="none" stroke="black" d="M896,-36.26C896,-53.43 896,-80.54 896,-104 896,-367 896,-367 896,-367 896,-392.49 876.81,-413.94 857.84,-428.92"/>
<polygon fill="black" stroke="black" points="855.7,-426.14 849.78,-434.93 859.89,-431.75 855.7,-426.14"/>
</a>
</g>
<text text-anchor="middle" x="902.5" y="-231.8" font-family="Times,serif" font-size="14.00">s1</text>
</g>
<!-- DigitalWatch_sm_year&#45;&gt;DigitalWatch_sm_year -->
<g id="edge53" class="edge">
<title>DigitalWatch_sm_year&#45;&gt;DigitalWatch_sm_year</title>
<g id="a_edge53"><a xlink:title="From year to year on s2&#13;Transition Action:&#10; &#160;&#160;&#160;&#160;year++;">
<path fill="none" stroke="black" d="M932.09,-25.84C942.22,-25.49 950,-22.88 950,-18 950,-14.95 946.96,-12.79 942.21,-11.51"/>
<polygon fill="black" stroke="black" points="942.46,-8.01 932.09,-10.16 941.54,-14.95 942.46,-8.01"/>
</a>
</g>
<text text-anchor="middle" x="984" y="-14.3" font-family="Times,serif" font-size="14.00">s2 / year++;</text>
</g>
</g>
</svg>
