<?xml version="1.0" encoding="UTF-8" standalone="no"?>
<!DOCTYPE svg PUBLIC "-//W3C//DTD SVG 1.1//EN"
 "http://www.w3.org/Graphics/SVG/1.1/DTD/svg11.dtd">
<!-- Generated by graphviz version 2.48.0 (20210717.1556)
 -->
<!-- Title: DigitalWatchNested Pages: 1 -->
<svg width="1306pt" height="688pt"
 viewBox="0.00 0.00 1306.00 687.80" xmlns="http://www.w3.org/2000/svg" xmlns:xlink="http://www.w3.org/1999/xlink">
<g id="graph0" class="graph" transform="scale(1 1) rotate(0) translate(4 683.8)">
<title>DigitalWatchNested</title>
<polygon fill="white" stroke="transparent" points="-4,4 -4,-683.8 1302,-683.8 1302,4 -4,4"/>
<g id="clust1" class="cluster">
<title>clusterDigitalWatch_sm_regular</title>
<path fill="none" stroke="black" d="M678,-8C678,-8 973,-8 973,-8 979,-8 985,-14 985,-20 985,-20 985,-659.8 985,-659.8 985,-665.8 979,-671.8 973,-671.8 973,-671.8 678,-671.8 678,-671.8 672,-671.8 666,-665.8 666,-659.8 666,-659.8 666,-20 666,-20 666,-14 672,-8 678,-8"/>
<text text-anchor="middle" x="825.5" y="-656.6" font-family="Times,serif" font-size="14.00">regular</text>
</g>
<g id="clust2" class="cluster">
<title>clusterDigitalWatch_smRegular_update</title>
<path fill="none" stroke="black" d="M686,-16C686,-16 870,-16 870,-16 876,-16 882,-22 882,-28 882,-28 882,-628.8 882,-628.8 882,-634.8 876,-640.8 870,-640.8 870,-640.8 686,-640.8 686,-640.8 680,-640.8 674,-634.8 674,-628.8 674,-628.8 674,-28 674,-28 674,-22 680,-16 686,-16"/>
<text text-anchor="middle" x="778" y="-625.6" font-family="Times,serif" font-size="14.00">update</text>
</g>
<g id="clust3" class="cluster">
<title>clusterDigitalWatch_sm_chronometer</title>
<path fill="none" stroke="black" d="M1005,-194C1005,-194 1278,-194 1278,-194 1284,-194 1290,-200 1290,-206 1290,-206 1290,-469.4 1290,-469.4 1290,-475.4 1284,-481.4 1278,-481.4 1278,-481.4 1005,-481.4 1005,-481.4 999,-481.4 993,-475.4 993,-469.4 993,-469.4 993,-206 993,-206 993,-200 999,-194 1005,-194"/>
<text text-anchor="middle" x="1141.5" y="-466.2" font-family="Times,serif" font-size="14.00">chronometer</text>
</g>
<g id="clust4" class="cluster">
<title>clusterDigitalWatch_smChronometer_chronoNormal</title>
<path fill="none" stroke="black" d="M1105,-202C1105,-202 1248,-202 1248,-202 1254,-202 1260,-208 1260,-214 1260,-214 1260,-438.4 1260,-438.4 1260,-444.4 1254,-450.4 1248,-450.4 1248,-450.4 1105,-450.4 1105,-450.4 1099,-450.4 1093,-444.4 1093,-438.4 1093,-438.4 1093,-214 1093,-214 1093,-208 1099,-202 1105,-202"/>
<text text-anchor="middle" x="1176.5" y="-435.2" font-family="Times,serif" font-size="14.00">chronoNormal</text>
</g>
<g id="clust5" class="cluster">
<title>clusterDigitalWatch_sm_alarmStatus</title>
<path fill="none" stroke="black" d="M370,-16C370,-16 454,-16 454,-16 460,-16 466,-22 466,-28 466,-28 466,-438.4 466,-438.4 466,-444.4 460,-450.4 454,-450.4 454,-450.4 370,-450.4 370,-450.4 364,-450.4 358,-444.4 358,-438.4 358,-438.4 358,-28 358,-28 358,-22 364,-16 370,-16"/>
<text text-anchor="middle" x="412" y="-435.2" font-family="Times,serif" font-size="14.00">alarmStatus</text>
</g>
<g id="clust6" class="cluster">
<title>clusterDigitalWatch_sm_alarmUpdate</title>
<path fill="none" stroke="black" d="M20,-101C20,-101 338,-101 338,-101 344,-101 350,-107 350,-113 350,-113 350,-438.4 350,-438.4 350,-444.4 344,-450.4 338,-450.4 338,-450.4 20,-450.4 20,-450.4 14,-450.4 8,-444.4 8,-438.4 8,-438.4 8,-113 8,-113 8,-107 14,-101 20,-101"/>
<text text-anchor="middle" x="179" y="-435.2" font-family="Times,serif" font-size="14.00">alarmUpdate</text>
</g>
<g id="clust7" class="cluster">
<title>clusterDigitalWatch_smAlarmUpdate_hourMinuteUpdate</title>
<path fill="none" stroke="black" d="M114,-109C114,-109 330,-109 330,-109 336,-109 342,-115 342,-121 342,-121 342,-341.2 342,-341.2 342,-347.2 336,-353.2 330,-353.2 330,-353.2 114,-353.2 114,-353.2 108,-353.2 102,-347.2 102,-341.2 102,-341.2 102,-121 102,-121 102,-115 108,-109 114,-109"/>
<text text-anchor="middle" x="222" y="-338" font-family="Times,serif" font-size="14.00">hourMinuteUpdate</text>
</g>
<!-- start_DigitalWatch_sm -->
<g id="node1" class="node">
<title>start_DigitalWatch_sm</title>
<g id="a_node1"><a xlink:title="Class DigitalWatch, SM sm, State start">
<ellipse fill="black" stroke="black" cx="1000" cy="-540.4" rx="7.2" ry="7.2"/>
</a>
</g>
</g>
<!-- DigitalWatch_smRegular_time -->
<g id="node3" class="node">
<title>DigitalWatch_smRegular_time</title>
<g id="a_node3"><a xlink:title="Class DigitalWatch, SM sm, State regular.time">
<path fill="none" stroke="black" d="M952,-430.2C952,-430.2 904,-430.2 904,-430.2 898,-430.2 892,-424.2 892,-418.2 892,-418.2 892,-406.2 892,-406.2 892,-400.2 898,-394.2 904,-394.2 904,-394.2 952,-394.2 952,-394.2 958,-394.2 964,-400.2 964,-406.2 964,-406.2 964,-418.2 964,-418.2 964,-424.2 958,-430.2 952,-430.2"/>
<text text-anchor="middle" x="928" y="-408.5" font-family="Times,serif" font-size="14.00">time</text>
</a>
</g>
</g>
<!-- start_DigitalWatch_sm&#45;&gt;DigitalWatch_smRegular_time -->
<g id="edge1" class="edge">
<title>start_DigitalWatch_sm&#45;&gt;DigitalWatch_smRegular_time</title>
<g id="a_edge1"><a xlink:title="start to regular">
<path fill="none" stroke="black" d="M996.72,-533.65C995.01,-530.65 992.7,-526.61 989.97,-521.82"/>
<polygon fill="black" stroke="black" points="992.99,-520.06 985,-513.1 986.91,-523.52 992.99,-520.06"/>
</a>
</g>
</g>
<!-- start_DigitalWatch_smRegular -->
<g id="node2" class="node">
<title>start_DigitalWatch_smRegular</title>
<g id="a_node2"><a xlink:title="Class DigitalWatch, SM sm, State regular.start">
<ellipse fill="black" stroke="black" cx="928" cy="-540.4" rx="7.2" ry="7.2"/>
</a>
</g>
</g>
<!-- start_DigitalWatch_smRegular&#45;&gt;DigitalWatch_smRegular_time -->
<g id="edge2" class="edge">
<title>start_DigitalWatch_smRegular&#45;&gt;DigitalWatch_smRegular_time</title>
<g id="a_edge2"><a xlink:title="start to regular.time">
<path fill="none" stroke="black" d="M928,-532.97C928,-516.24 928,-470.58 928,-440.72"/>
<polygon fill="black" stroke="black" points="931.5,-440.52 928,-430.52 924.5,-440.52 931.5,-440.52"/>
</a>
</g>
</g>
<!-- DigitalWatch_smRegular_date -->
<g id="node4" class="node">
<title>DigitalWatch_smRegular_date</title>
<g id="a_node4"><a xlink:title="Class DigitalWatch, SM sm, State regular.date">
<path fill="none" stroke="black" d="M957,-333C957,-333 909,-333 909,-333 903,-333 897,-327 897,-321 897,-321 897,-309 897,-309 897,-303 903,-297 909,-297 909,-297 957,-297 957,-297 963,-297 969,-303 969,-309 969,-309 969,-321 969,-321 969,-327 963,-333 957,-333"/>
<text text-anchor="middle" x="933" y="-311.3" font-family="Times,serif" font-size="14.00">date</text>
</a>
</g>
</g>
<!-- DigitalWatch_smRegular_time&#45;&gt;DigitalWatch_smRegular_date -->
<g id="edge7" class="edge">
<title>DigitalWatch_smRegular_time&#45;&gt;DigitalWatch_smRegular_date</title>
<g id="a_edge7"><a xlink:title="From regular.time to regular.date on s1">
<path fill="none" stroke="black" d="M936.33,-394.15C938.64,-388.56 940.84,-382.24 942,-376.2 944.08,-365.38 942.98,-353.39 940.93,-342.98"/>
<polygon fill="black" stroke="black" points="944.33,-342.14 938.66,-333.19 937.51,-343.72 944.33,-342.14"/>
</a>
</g>
<text text-anchor="middle" x="949.5" y="-365" font-family="Times,serif" font-size="14.00">s1</text>
</g>
<!-- DigitalWatch_smChronometerChronoNormal_paused -->
<g id="node14" class="node">
<title>DigitalWatch_smChronometerChronoNormal_paused</title>
<g id="a_node14"><a xlink:title="Class DigitalWatch, SM sm, State chronometer.chronoNormal.paused">
<path fill="none" stroke="black" d="M1161,-333C1161,-333 1113,-333 1113,-333 1107,-333 1101,-327 1101,-321 1101,-321 1101,-309 1101,-309 1101,-303 1107,-297 1113,-297 1113,-297 1161,-297 1161,-297 1167,-297 1173,-303 1173,-309 1173,-309 1173,-321 1173,-321 1173,-327 1167,-333 1161,-333"/>
<text text-anchor="middle" x="1137" y="-311.3" font-family="Times,serif" font-size="14.00">paused</text>
</a>
</g>
</g>
<!-- DigitalWatch_smRegular_time&#45;&gt;DigitalWatch_smChronometerChronoNormal_paused -->
<g id="edge22" class="edge">
<title>DigitalWatch_smRegular_time&#45;&gt;DigitalWatch_smChronometerChronoNormal_paused</title>
<g id="a_edge22"><a xlink:title="From regular.time to chronometer on s3">
<path fill="none" stroke="black" d="M964.07,-408.03C969.93,-407.28 976.28,-406.37 982.97,-405.24"/>
<polygon fill="black" stroke="black" points="983.78,-408.65 993,-403.44 982.54,-401.76 983.78,-408.65"/>
</a>
</g>
<text text-anchor="middle" x="1102.5" y="-365" font-family="Times,serif" font-size="14.00">s3</text>
</g>
<!-- DigitalWatch_smAlarmStatus_bothOff -->
<g id="node19" class="node">
<title>DigitalWatch_smAlarmStatus_bothOff</title>
<g id="a_node19"><a xlink:title="Class DigitalWatch, SM sm, State alarmStatus.bothOff">
<path fill="none" stroke="black" d="M446,-333C446,-333 398,-333 398,-333 392,-333 386,-327 386,-321 386,-321 386,-309 386,-309 386,-303 392,-297 398,-297 398,-297 446,-297 446,-297 452,-297 458,-303 458,-309 458,-309 458,-321 458,-321 458,-327 452,-333 446,-333"/>
<text text-anchor="middle" x="422" y="-311.3" font-family="Times,serif" font-size="14.00">bothOff</text>
</a>
</g>
</g>
<!-- DigitalWatch_smRegular_time&#45;&gt;DigitalWatch_smAlarmStatus_bothOff -->
<g id="edge33" class="edge">
<title>DigitalWatch_smRegular_time&#45;&gt;DigitalWatch_smAlarmStatus_bothOff</title>
<g id="a_edge33"><a xlink:title="From regular.time to alarmStatus on s2">
<path fill="none" stroke="black" d="M891.57,-395.65C889.71,-395.11 887.84,-394.62 886,-394.2 822.6,-379.82 654.73,-399.4 594,-376.2 583.95,-372.36 584.55,-366.15 575,-361.2 541.04,-343.62 499.21,-331.85 467.88,-324.75"/>
<polygon fill="black" stroke="black" points="476.36,-325.82 466,-323.6 472.72,-331.79 476.36,-325.82"/>
</a>
</g>
<text text-anchor="middle" x="600.5" y="-365" font-family="Times,serif" font-size="14.00">s2</text>
</g>
<!-- DigitalWatch_smAlarmUpdate_alarmTime -->
<g id="node24" class="node">
<title>DigitalWatch_smAlarmUpdate_alarmTime</title>
<g id="a_node24"><a xlink:title="Class DigitalWatch, SM sm, State alarmUpdate.alarmTime">
<path fill="none" stroke="black" d="M81.5,-333C81.5,-333 28.5,-333 28.5,-333 22.5,-333 16.5,-327 16.5,-321 16.5,-321 16.5,-309 16.5,-309 16.5,-303 22.5,-297 28.5,-297 28.5,-297 81.5,-297 81.5,-297 87.5,-297 93.5,-303 93.5,-309 93.5,-309 93.5,-321 93.5,-321 93.5,-327 87.5,-333 81.5,-333"/>
<text text-anchor="middle" x="55" y="-311.3" font-family="Times,serif" font-size="14.00">alarmTime</text>
</a>
</g>
</g>
<!-- DigitalWatch_smRegular_time&#45;&gt;DigitalWatch_smAlarmUpdate_alarmTime -->
<g id="edge40" class="edge">
<title>DigitalWatch_smRegular_time&#45;&gt;DigitalWatch_smAlarmUpdate_alarmTime</title>
<g id="a_edge40"><a xlink:title="From regular.time to alarmUpdate.alarmTime on s3during2Secs">
<path fill="none" stroke="black" d="M891.58,-395.61C889.71,-395.08 887.84,-394.6 886,-394.2 799.72,-375.36 577.19,-380.79 489,-376.2 488.32,-376.16 98.63,-353.46 98,-353.2 90.71,-350.24 83.78,-345.51 77.71,-340.4"/>
<polygon fill="black" stroke="black" points="79.74,-337.51 70,-333.34 75.01,-342.68 79.74,-337.51"/>
</a>
</g>
<text text-anchor="middle" x="530" y="-365" font-family="Times,serif" font-size="14.00">s3during2Secs</text>
</g>
<!-- DigitalWatch_smRegular_date&#45;&gt;DigitalWatch_smRegular_time -->
<g id="edge3" class="edge">
<title>DigitalWatch_smRegular_date&#45;&gt;DigitalWatch_smRegular_time</title>
<g id="a_edge3"><a xlink:title="From regular.date to regular.time on notS1">
<path fill="none" stroke="black" d="M921.3,-333.22C916.47,-341.33 911.45,-351.37 909,-361.2 907.04,-369.06 908.62,-377.36 911.56,-384.9"/>
<polygon fill="black" stroke="black" points="908.4,-386.4 915.84,-393.94 914.72,-383.4 908.4,-386.4"/>
</a>
</g>
<text text-anchor="middle" x="925.5" y="-365" font-family="Times,serif" font-size="14.00">notS1</text>
</g>
<!-- start_DigitalWatch_smRegularUpdate -->
<g id="node5" class="node">
<title>start_DigitalWatch_smRegularUpdate</title>
<g id="a_node5"><a xlink:title="Class DigitalWatch, SM sm, State regular.update.start">
<ellipse fill="black" stroke="black" cx="719" cy="-602.6" rx="7.2" ry="7.2"/>
</a>
</g>
</g>
<!-- DigitalWatch_smRegularUpdate_second -->
<g id="node6" class="node">
<title>DigitalWatch_smRegularUpdate_second</title>
<g id="a_node6"><a xlink:title="Class DigitalWatch, SM sm, State regular.update.second">
<path fill="none" stroke="black" d="M743,-558.4C743,-558.4 695,-558.4 695,-558.4 689,-558.4 683,-552.4 683,-546.4 683,-546.4 683,-534.4 683,-534.4 683,-528.4 689,-522.4 695,-522.4 695,-522.4 743,-522.4 743,-522.4 749,-522.4 755,-528.4 755,-534.4 755,-534.4 755,-546.4 755,-546.4 755,-552.4 749,-558.4 743,-558.4"/>
<text text-anchor="middle" x="719" y="-536.7" font-family="Times,serif" font-size="14.00">second</text>
</a>
</g>
</g>
<!-- start_DigitalWatch_smRegularUpdate&#45;&gt;DigitalWatch_smRegularUpdate_second -->
<g id="edge8" class="edge">
<title>start_DigitalWatch_smRegularUpdate&#45;&gt;DigitalWatch_smRegularUpdate_second</title>
<g id="a_edge8"><a xlink:title="start to regular.update.second">
<path fill="none" stroke="black" d="M719,-595.16C719,-588.79 719,-578.6 719,-568.79"/>
<polygon fill="black" stroke="black" points="722.5,-568.5 719,-558.5 715.5,-568.5 722.5,-568.5"/>
</a>
</g>
</g>
<!-- DigitalWatch_smRegularUpdate_second&#45;&gt;DigitalWatch_smRegular_time -->
<g id="edge4" class="edge">
<title>DigitalWatch_smRegularUpdate_second&#45;&gt;DigitalWatch_smRegular_time</title>
<g id="a_edge4"><a xlink:title="From regular.update to regular.time on s3">
<path fill="none" stroke="black" d="M882,-501.39C901.52,-485.64 913.62,-459.77 920.48,-440.11"/>
<polygon fill="black" stroke="black" points="923.85,-441.06 923.61,-430.47 917.19,-438.9 923.85,-441.06"/>
</a>
</g>
<text text-anchor="middle" x="898.5" y="-493.2" font-family="Times,serif" font-size="14.00">s3</text>
</g>
<!-- DigitalWatch_smRegularUpdate_second&#45;&gt;DigitalWatch_smRegularUpdate_second -->
<g id="edge9" class="edge">
<title>DigitalWatch_smRegularUpdate_second&#45;&gt;DigitalWatch_smRegularUpdate_second</title>
<g id="a_edge9"><a xlink:title="From regular.update.second to regular.update.second on s2&#13;Transition Action:&#10; &#160;&#160;&#160;&#160;secondzero();">
<path fill="none" stroke="black" d="M755.09,-547.12C765.22,-546.82 773,-544.58 773,-540.4 773,-537.79 769.96,-535.93 765.21,-534.83"/>
<polygon fill="black" stroke="black" points="765.42,-531.34 755.09,-533.68 764.63,-538.29 765.42,-531.34"/>
</a>
</g>
<text text-anchor="middle" x="823" y="-536.7" font-family="Times,serif" font-size="14.00">s2 / secondzero();</text>
</g>
<!-- DigitalWatch_smRegularUpdate_minute -->
<g id="node7" class="node">
<title>DigitalWatch_smRegularUpdate_minute</title>
<g id="a_node7"><a xlink:title="Class DigitalWatch, SM sm, State regular.update.minute">
<path fill="none" stroke="black" d="M742,-430.2C742,-430.2 694,-430.2 694,-430.2 688,-430.2 682,-424.2 682,-418.2 682,-418.2 682,-406.2 682,-406.2 682,-400.2 688,-394.2 694,-394.2 694,-394.2 742,-394.2 742,-394.2 748,-394.2 754,-400.2 754,-406.2 754,-406.2 754,-418.2 754,-418.2 754,-424.2 748,-430.2 742,-430.2"/>
<text text-anchor="middle" x="718" y="-408.5" font-family="Times,serif" font-size="14.00">minute</text>
</a>
</g>
</g>
<!-- DigitalWatch_smRegularUpdate_second&#45;&gt;DigitalWatch_smRegularUpdate_minute -->
<g id="edge12" class="edge">
<title>DigitalWatch_smRegularUpdate_second&#45;&gt;DigitalWatch_smRegularUpdate_minute</title>
<g id="a_edge12"><a xlink:title="From regular.update.second to regular.update.minute on s1">
<path fill="none" stroke="black" d="M718.87,-522.38C718.7,-501.4 718.41,-465.47 718.22,-440.59"/>
<polygon fill="black" stroke="black" points="721.72,-440.33 718.14,-430.35 714.72,-440.38 721.72,-440.33"/>
</a>
</g>
<text text-anchor="middle" x="724.5" y="-493.2" font-family="Times,serif" font-size="14.00">s1</text>
</g>
<!-- DigitalWatch_smRegularUpdate_minute&#45;&gt;DigitalWatch_smRegularUpdate_minute -->
<g id="edge13" class="edge">
<title>DigitalWatch_smRegularUpdate_minute&#45;&gt;DigitalWatch_smRegularUpdate_minute</title>
<g id="a_edge13"><a xlink:title="From regular.update.minute to regular.update.minute on s2&#13;Transition Action:&#10; &#160;&#160;&#160;&#160;minute++;">
<path fill="none" stroke="black" d="M754.09,-420.04C764.22,-419.69 772,-417.08 772,-412.2 772,-409.15 768.96,-406.99 764.21,-405.71"/>
<polygon fill="black" stroke="black" points="764.46,-402.21 754.09,-404.36 763.54,-409.15 764.46,-402.21"/>
</a>
</g>
<text text-anchor="middle" x="813" y="-408.5" font-family="Times,serif" font-size="14.00">s2 / minute++;</text>
</g>
<!-- DigitalWatch_smRegularUpdate_hour -->
<g id="node8" class="node">
<title>DigitalWatch_smRegularUpdate_hour</title>
<g id="a_node8"><a xlink:title="Class DigitalWatch, SM sm, State regular.update.hour">
<path fill="none" stroke="black" d="M742,-333C742,-333 694,-333 694,-333 688,-333 682,-327 682,-321 682,-321 682,-309 682,-309 682,-303 688,-297 694,-297 694,-297 742,-297 742,-297 748,-297 754,-303 754,-309 754,-309 754,-321 754,-321 754,-327 748,-333 742,-333"/>
<text text-anchor="middle" x="718" y="-311.3" font-family="Times,serif" font-size="14.00">hour</text>
</a>
</g>
</g>
<!-- DigitalWatch_smRegularUpdate_minute&#45;&gt;DigitalWatch_smRegularUpdate_hour -->
<g id="edge14" class="edge">
<title>DigitalWatch_smRegularUpdate_minute&#45;&gt;DigitalWatch_smRegularUpdate_hour</title>
<g id="a_edge14"><a xlink:title="From regular.update.minute to regular.update.hour on s1">
<path fill="none" stroke="black" d="M718,-394.18C718,-380.05 718,-359.69 718,-343.29"/>
<polygon fill="black" stroke="black" points="721.5,-343.19 718,-333.19 714.5,-343.19 721.5,-343.19"/>
</a>
</g>
<text text-anchor="middle" x="724.5" y="-365" font-family="Times,serif" font-size="14.00">s1</text>
</g>
<!-- DigitalWatch_smRegularUpdate_hour&#45;&gt;DigitalWatch_smRegularUpdate_hour -->
<g id="edge15" class="edge">
<title>DigitalWatch_smRegularUpdate_hour&#45;&gt;DigitalWatch_smRegularUpdate_hour</title>
<g id="a_edge15"><a xlink:title="From regular.update.hour to regular.update.hour on s2&#13;Transition Action:&#10; &#160;&#160;&#160;&#160;hour++;">
<path fill="none" stroke="black" d="M754.09,-322.84C764.22,-322.49 772,-319.88 772,-315 772,-311.95 768.96,-309.79 764.21,-308.51"/>
<polygon fill="black" stroke="black" points="764.46,-305.01 754.09,-307.16 763.54,-311.95 764.46,-305.01"/>
</a>
</g>
<text text-anchor="middle" x="806.5" y="-311.3" font-family="Times,serif" font-size="14.00">s2 / hour++;</text>
</g>
<!-- DigitalWatch_smRegularUpdate_month -->
<g id="node9" class="node">
<title>DigitalWatch_smRegularUpdate_month</title>
<g id="a_node9"><a xlink:title="Class DigitalWatch, SM sm, State regular.update.month">
<path fill="none" stroke="black" d="M742,-246C742,-246 694,-246 694,-246 688,-246 682,-240 682,-234 682,-234 682,-222 682,-222 682,-216 688,-210 694,-210 694,-210 742,-210 742,-210 748,-210 754,-216 754,-222 754,-222 754,-234 754,-234 754,-240 748,-246 742,-246"/>
<text text-anchor="middle" x="718" y="-224.3" font-family="Times,serif" font-size="14.00">month</text>
</a>
</g>
</g>
<!-- DigitalWatch_smRegularUpdate_hour&#45;&gt;DigitalWatch_smRegularUpdate_month -->
<g id="edge16" class="edge">
<title>DigitalWatch_smRegularUpdate_hour&#45;&gt;DigitalWatch_smRegularUpdate_month</title>
<g id="a_edge16"><a xlink:title="From regular.update.hour to regular.update.month on s1">
<path fill="none" stroke="black" d="M718,-296.8C718,-285.16 718,-269.55 718,-256.24"/>
<polygon fill="black" stroke="black" points="721.5,-256.18 718,-246.18 714.5,-256.18 721.5,-256.18"/>
</a>
</g>
<text text-anchor="middle" x="724.5" y="-267.8" font-family="Times,serif" font-size="14.00">s1</text>
</g>
<!-- DigitalWatch_smRegularUpdate_month&#45;&gt;DigitalWatch_smRegularUpdate_month -->
<g id="edge17" class="edge">
<title>DigitalWatch_smRegularUpdate_month&#45;&gt;DigitalWatch_smRegularUpdate_month</title>
<g id="a_edge17"><a xlink:title="From regular.update.month to regular.update.month on s2&#13;Transition Action:&#10; &#160;&#160;&#160;&#160;month++;">
<path fill="none" stroke="black" d="M754.09,-235.84C764.22,-235.49 772,-232.88 772,-228 772,-224.95 768.96,-222.79 764.21,-221.51"/>
<polygon fill="black" stroke="black" points="764.46,-218.01 754.09,-220.16 763.54,-224.95 764.46,-218.01"/>
</a>
</g>
<text text-anchor="middle" x="811.5" y="-224.3" font-family="Times,serif" font-size="14.00">s2 / month++;</text>
</g>
<!-- DigitalWatch_smRegularUpdate_day -->
<g id="node10" class="node">
<title>DigitalWatch_smRegularUpdate_day</title>
<g id="a_node10"><a xlink:title="Class DigitalWatch, SM sm, State regular.update.day">
<path fill="none" stroke="black" d="M753,-153C753,-153 705,-153 705,-153 699,-153 693,-147 693,-141 693,-141 693,-129 693,-129 693,-123 699,-117 705,-117 705,-117 753,-117 753,-117 759,-117 765,-123 765,-129 765,-129 765,-141 765,-141 765,-147 759,-153 753,-153"/>
<text text-anchor="middle" x="729" y="-131.3" font-family="Times,serif" font-size="14.00">day</text>
</a>
</g>
</g>
<!-- DigitalWatch_smRegularUpdate_month&#45;&gt;DigitalWatch_smRegularUpdate_day -->
<g id="edge18" class="edge">
<title>DigitalWatch_smRegularUpdate_month&#45;&gt;DigitalWatch_smRegularUpdate_day</title>
<g id="a_edge18"><a xlink:title="From regular.update.month to regular.update.day on s1">
<path fill="none" stroke="black" d="M720.07,-209.88C721.65,-196.79 723.87,-178.48 725.69,-163.36"/>
<polygon fill="black" stroke="black" points="729.21,-163.39 726.94,-153.04 722.27,-162.55 729.21,-163.39"/>
</a>
</g>
<text text-anchor="middle" x="730.5" y="-174.8" font-family="Times,serif" font-size="14.00">s1</text>
</g>
<!-- DigitalWatch_smRegularUpdate_day&#45;&gt;DigitalWatch_smRegularUpdate_day -->
<g id="edge19" class="edge">
<title>DigitalWatch_smRegularUpdate_day&#45;&gt;DigitalWatch_smRegularUpdate_day</title>
<g id="a_edge19"><a xlink:title="From regular.update.day to regular.update.day on s2&#13;Transition Action:&#10; &#160;&#160;&#160;&#160;day++;">
<path fill="none" stroke="black" d="M765.09,-142.84C775.22,-142.49 783,-139.88 783,-135 783,-131.95 779.96,-129.79 775.21,-128.51"/>
<polygon fill="black" stroke="black" points="775.46,-125.01 765.09,-127.16 774.54,-131.95 775.46,-125.01"/>
</a>
</g>
<text text-anchor="middle" x="815" y="-131.3" font-family="Times,serif" font-size="14.00">s2 / day++;</text>
</g>
<!-- DigitalWatch_smRegularUpdate_year -->
<g id="node11" class="node">
<title>DigitalWatch_smRegularUpdate_year</title>
<g id="a_node11"><a xlink:title="Class DigitalWatch, SM sm, State regular.update.year">
<path fill="none" stroke="black" d="M770,-60C770,-60 722,-60 722,-60 716,-60 710,-54 710,-48 710,-48 710,-36 710,-36 710,-30 716,-24 722,-24 722,-24 770,-24 770,-24 776,-24 782,-30 782,-36 782,-36 782,-48 782,-48 782,-54 776,-60 770,-60"/>
<text text-anchor="middle" x="746" y="-38.3" font-family="Times,serif" font-size="14.00">year</text>
</a>
</g>
</g>
<!-- DigitalWatch_smRegularUpdate_day&#45;&gt;DigitalWatch_smRegularUpdate_year -->
<g id="edge20" class="edge">
<title>DigitalWatch_smRegularUpdate_day&#45;&gt;DigitalWatch_smRegularUpdate_year</title>
<g id="a_edge20"><a xlink:title="From regular.update.day to regular.update.year on s1">
<path fill="none" stroke="black" d="M732.2,-116.88C734.67,-103.66 738.13,-85.12 740.97,-69.92"/>
<polygon fill="black" stroke="black" points="744.42,-70.51 742.82,-60.04 737.54,-69.23 744.42,-70.51"/>
</a>
</g>
<text text-anchor="middle" x="745.5" y="-81.8" font-family="Times,serif" font-size="14.00">s1</text>
</g>
<!-- DigitalWatch_smRegularUpdate_year&#45;&gt;DigitalWatch_smRegularUpdate_second -->
<g id="edge10" class="edge">
<title>DigitalWatch_smRegularUpdate_year&#45;&gt;DigitalWatch_smRegularUpdate_second</title>
<g id="a_edge10"><a xlink:title="From regular.update.year to regular.update.second on s1">
<path fill="none" stroke="black" d="M782.26,-51.85C807.55,-60.08 839.6,-75.1 856,-101 867.3,-118.86 874.89,-463.93 863,-481.4 836.84,-519.83 808.84,-505.76 764.56,-520.49"/>
<polygon fill="black" stroke="black" points="763.33,-517.22 755.18,-523.98 765.77,-523.78 763.33,-517.22"/>
</a>
</g>
<text text-anchor="middle" x="873.5" y="-267.8" font-family="Times,serif" font-size="14.00">s1</text>
</g>
<!-- DigitalWatch_smRegularUpdate_year&#45;&gt;DigitalWatch_smRegularUpdate_year -->
<g id="edge21" class="edge">
<title>DigitalWatch_smRegularUpdate_year&#45;&gt;DigitalWatch_smRegularUpdate_year</title>
<g id="a_edge21"><a xlink:title="From regular.update.year to regular.update.year on s2&#13;Transition Action:&#10; &#160;&#160;&#160;&#160;year++;">
<path fill="none" stroke="black" d="M782.09,-49.84C792.22,-49.49 800,-46.88 800,-42 800,-38.95 796.96,-36.79 792.21,-35.51"/>
<polygon fill="black" stroke="black" points="792.46,-32.01 782.09,-34.16 791.54,-38.95 792.46,-32.01"/>
</a>
</g>
<text text-anchor="middle" x="834" y="-38.3" font-family="Times,serif" font-size="14.00">s2 / year++;</text>
</g>
<!-- start_DigitalWatch_smChronometer -->
<g id="node12" class="node">
<title>start_DigitalWatch_smChronometer</title>
<g id="a_node12"><a xlink:title="Class DigitalWatch, SM sm, State chronometer.start">
<ellipse fill="black" stroke="black" cx="1275" cy="-412.2" rx="7.2" ry="7.2"/>
</a>
</g>
</g>
<!-- start_DigitalWatch_smChronometer&#45;&gt;DigitalWatch_smChronometerChronoNormal_paused -->
<g id="edge23" class="edge">
<title>start_DigitalWatch_smChronometer&#45;&gt;DigitalWatch_smChronometerChronoNormal_paused</title>
<g id="a_edge23"><a xlink:title="start to chronometer.chronoNormal">
<path fill="none" stroke="black" d="M1272.09,-405.38C1270.93,-403.29 1269.47,-400.89 1266.93,-397.8"/>
<polygon fill="black" stroke="black" points="1269.39,-395.3 1260,-390.39 1264.28,-400.08 1269.39,-395.3"/>
</a>
</g>
</g>
<!-- start_DigitalWatch_smChronometerChronoNormal -->
<g id="node13" class="node">
<title>start_DigitalWatch_smChronometerChronoNormal</title>
<g id="a_node13"><a xlink:title="Class DigitalWatch, SM sm, State chronometer.chronoNormal.start">
<ellipse fill="black" stroke="black" cx="1137" cy="-412.2" rx="7.2" ry="7.2"/>
</a>
</g>
</g>
<!-- start_DigitalWatch_smChronometerChronoNormal&#45;&gt;DigitalWatch_smChronometerChronoNormal_paused -->
<g id="edge24" class="edge">
<title>start_DigitalWatch_smChronometerChronoNormal&#45;&gt;DigitalWatch_smChronometerChronoNormal_paused</title>
<g id="a_edge24"><a xlink:title="start to chronometer.chronoNormal.paused">
<path fill="none" stroke="black" d="M1137,-404.95C1137,-392.64 1137,-364.57 1137,-343.23"/>
<polygon fill="black" stroke="black" points="1140.5,-343.1 1137,-333.1 1133.5,-343.1 1140.5,-343.1"/>
</a>
</g>
</g>
<!-- DigitalWatch_smChronometerChronoNormal_paused&#45;&gt;DigitalWatch_smRegular_time -->
<g id="edge5" class="edge">
<title>DigitalWatch_smChronometerChronoNormal_paused&#45;&gt;DigitalWatch_smRegular_time</title>
<g id="a_edge5"><a xlink:title="From chronometer to regular.time on s3">
<path fill="none" stroke="black" d="M993,-384.97C986.26,-387.53 979.78,-390.04 973.71,-392.43"/>
<polygon fill="black" stroke="black" points="972.24,-389.25 964.24,-396.19 974.83,-395.75 972.24,-389.25"/>
</a>
</g>
<text text-anchor="middle" x="1068.5" y="-365" font-family="Times,serif" font-size="14.00">s3</text>
</g>
<!-- DigitalWatch_smChronometerChronoNormal_paused&#45;&gt;DigitalWatch_smChronometerChronoNormal_paused -->
<g id="edge25" class="edge">
<title>DigitalWatch_smChronometerChronoNormal_paused&#45;&gt;DigitalWatch_smChronometerChronoNormal_paused</title>
<g id="a_edge25"><a xlink:title="From chronometer.chronoNormal.paused to chronometer.chronoNormal.paused on s2&#13;Transition Action:&#10; &#160;&#160;&#160;&#160;zero();">
<path fill="none" stroke="black" d="M1173.09,-322.84C1183.22,-322.49 1191,-319.88 1191,-315 1191,-311.95 1187.96,-309.79 1183.21,-308.51"/>
<polygon fill="black" stroke="black" points="1183.46,-305.01 1173.09,-307.16 1182.54,-311.95 1183.46,-305.01"/>
</a>
</g>
<text text-anchor="middle" x="1221.5" y="-311.3" font-family="Times,serif" font-size="14.00">s2 / zero();</text>
</g>
<!-- DigitalWatch_smChronometerChronoNormal_running -->
<g id="node15" class="node">
<title>DigitalWatch_smChronometerChronoNormal_running</title>
<g id="a_node15"><a xlink:title="Class DigitalWatch, SM sm, State chronometer.chronoNormal.running">
<path fill="none" stroke="black" d="M1193,-246C1193,-246 1145,-246 1145,-246 1139,-246 1133,-240 1133,-234 1133,-234 1133,-222 1133,-222 1133,-216 1139,-210 1145,-210 1145,-210 1193,-210 1193,-210 1199,-210 1205,-216 1205,-222 1205,-222 1205,-234 1205,-234 1205,-240 1199,-246 1193,-246"/>
<text text-anchor="middle" x="1169" y="-224.3" font-family="Times,serif" font-size="14.00">running</text>
</a>
</g>
</g>
<!-- DigitalWatch_smChronometerChronoNormal_paused&#45;&gt;DigitalWatch_smChronometerChronoNormal_running -->
<g id="edge28" class="edge">
<title>DigitalWatch_smChronometerChronoNormal_paused&#45;&gt;DigitalWatch_smChronometerChronoNormal_running</title>
<g id="a_edge28"><a xlink:title="From chronometer.chronoNormal.paused to chronometer.chronoNormal.running on s1">
<path fill="none" stroke="black" d="M1163.4,-296.65C1168.9,-291.66 1173.95,-285.72 1177,-279 1180.2,-271.96 1180.25,-263.85 1178.94,-256.24"/>
<polygon fill="black" stroke="black" points="1182.29,-255.18 1176.49,-246.31 1175.49,-256.86 1182.29,-255.18"/>
</a>
</g>
<text text-anchor="middle" x="1185.5" y="-267.8" font-family="Times,serif" font-size="14.00">s1</text>
</g>
<!-- DigitalWatch_smChronometerChronoNormal_running&#45;&gt;DigitalWatch_smChronometerChronoNormal_paused -->
<g id="edge26" class="edge">
<title>DigitalWatch_smChronometerChronoNormal_running&#45;&gt;DigitalWatch_smChronometerChronoNormal_paused</title>
<g id="a_edge26"><a xlink:title="From chronometer.chronoNormal.running to chronometer.chronoNormal.paused on s1">
<path fill="none" stroke="black" d="M1199.1,-246.22C1211.13,-255.4 1220.55,-267.22 1213,-279 1206.01,-289.91 1194.68,-297.46 1182.86,-302.68"/>
<polygon fill="black" stroke="black" points="1181.41,-299.49 1173.36,-306.38 1183.95,-306.01 1181.41,-299.49"/>
</a>
</g>
<text text-anchor="middle" x="1221.5" y="-267.8" font-family="Times,serif" font-size="14.00">s1</text>
</g>
<!-- DigitalWatch_smChronometer_lapRunning -->
<g id="node16" class="node">
<title>DigitalWatch_smChronometer_lapRunning</title>
<g id="a_node16"><a xlink:title="Class DigitalWatch, SM sm, State chronometer.lapRunning">
<path fill="none" stroke="black" d="M1071,-333C1071,-333 1013,-333 1013,-333 1007,-333 1001,-327 1001,-321 1001,-321 1001,-309 1001,-309 1001,-303 1007,-297 1013,-297 1013,-297 1071,-297 1071,-297 1077,-297 1083,-303 1083,-309 1083,-309 1083,-321 1083,-321 1083,-327 1077,-333 1071,-333"/>
<text text-anchor="middle" x="1042" y="-311.3" font-family="Times,serif" font-size="14.00">lapRunning</text>
</a>
</g>
</g>
<!-- DigitalWatch_smChronometerChronoNormal_running&#45;&gt;DigitalWatch_smChronometer_lapRunning -->
<g id="edge30" class="edge">
<title>DigitalWatch_smChronometerChronoNormal_running&#45;&gt;DigitalWatch_smChronometer_lapRunning</title>
<g id="a_edge30"><a xlink:title="From chronometer.chronoNormal.running to chronometer.lapRunning on s2">
<path fill="none" stroke="black" d="M1132.99,-244.36C1111.86,-253.42 1089.06,-263.25 1088,-264 1078.13,-271.01 1068.79,-280.43 1061.13,-289.2"/>
<polygon fill="black" stroke="black" points="1058.34,-287.08 1054.6,-296.99 1063.71,-291.57 1058.34,-287.08"/>
</a>
</g>
<text text-anchor="middle" x="1094.5" y="-267.8" font-family="Times,serif" font-size="14.00">s2</text>
</g>
<!-- DigitalWatch_smChronometer_lapRunning&#45;&gt;DigitalWatch_smChronometerChronoNormal_running -->
<g id="edge29" class="edge">
<title>DigitalWatch_smChronometer_lapRunning&#45;&gt;DigitalWatch_smChronometerChronoNormal_running</title>
<g id="a_edge29"><a xlink:title="From chronometer.lapRunning to chronometer.chronoNormal.running on s2">
<path fill="none" stroke="black" d="M1074.97,-296.99C1084.82,-291.56 1095.52,-285.31 1105,-279 1113.95,-273.03 1115.53,-270.64 1124,-264 1128.79,-260.25 1133.88,-256.28 1138.84,-252.41"/>
<polygon fill="black" stroke="black" points="1141.26,-254.96 1147,-246.06 1136.96,-249.44 1141.26,-254.96"/>
</a>
</g>
<text text-anchor="middle" x="1130.5" y="-267.8" font-family="Times,serif" font-size="14.00">s2</text>
</g>
<!-- DigitalWatch_smChronometer_lapPaused -->
<g id="node17" class="node">
<title>DigitalWatch_smChronometer_lapPaused</title>
<g id="a_node17"><a xlink:title="Class DigitalWatch, SM sm, State chronometer.lapPaused">
<path fill="none" stroke="black" d="M1072.5,-246C1072.5,-246 1023.5,-246 1023.5,-246 1017.5,-246 1011.5,-240 1011.5,-234 1011.5,-234 1011.5,-222 1011.5,-222 1011.5,-216 1017.5,-210 1023.5,-210 1023.5,-210 1072.5,-210 1072.5,-210 1078.5,-210 1084.5,-216 1084.5,-222 1084.5,-222 1084.5,-234 1084.5,-234 1084.5,-240 1078.5,-246 1072.5,-246"/>
<text text-anchor="middle" x="1048" y="-224.3" font-family="Times,serif" font-size="14.00">lapPaused</text>
</a>
</g>
</g>
<!-- DigitalWatch_smChronometer_lapRunning&#45;&gt;DigitalWatch_smChronometer_lapPaused -->
<g id="edge32" class="edge">
<title>DigitalWatch_smChronometer_lapRunning&#45;&gt;DigitalWatch_smChronometer_lapPaused</title>
<g id="a_edge32"><a xlink:title="From chronometer.lapRunning to chronometer.lapPaused on s1">
<path fill="none" stroke="black" d="M1031.97,-296.93C1027.54,-287.29 1023.95,-275 1027,-264 1027.82,-261.02 1028.98,-258.04 1030.32,-255.15"/>
<polygon fill="black" stroke="black" points="1033.43,-256.77 1035.11,-246.31 1027.27,-253.44 1033.43,-256.77"/>
</a>
</g>
<text text-anchor="middle" x="1033.5" y="-267.8" font-family="Times,serif" font-size="14.00">s1</text>
</g>
<!-- DigitalWatch_smChronometer_lapPaused&#45;&gt;DigitalWatch_smChronometerChronoNormal_paused -->
<g id="edge27" class="edge">
<title>DigitalWatch_smChronometer_lapPaused&#45;&gt;DigitalWatch_smChronometerChronoNormal_paused</title>
<g id="a_edge27"><a xlink:title="From chronometer.lapPaused to chronometer.chronoNormal.paused on s2">
<path fill="none" stroke="black" d="M1084.62,-244.31C1086.09,-244.89 1087.56,-245.45 1089,-246 1111.86,-254.69 1126.81,-244.08 1141,-264 1145.64,-270.51 1146.43,-278.78 1145.55,-286.71"/>
<polygon fill="black" stroke="black" points="1142.07,-286.28 1143.6,-296.76 1148.94,-287.61 1142.07,-286.28"/>
</a>
</g>
<text text-anchor="middle" x="1151.5" y="-267.8" font-family="Times,serif" font-size="14.00">s2</text>
</g>
<!-- DigitalWatch_smChronometer_lapPaused&#45;&gt;DigitalWatch_smChronometer_lapRunning -->
<g id="edge31" class="edge">
<title>DigitalWatch_smChronometer_lapPaused&#45;&gt;DigitalWatch_smChronometer_lapRunning</title>
<g id="a_edge31"><a xlink:title="From chronometer.lapPaused to chronometer.lapRunning on s1">
<path fill="none" stroke="black" d="M1046.79,-246.18C1045.97,-257.81 1044.86,-273.42 1043.92,-286.73"/>
<polygon fill="black" stroke="black" points="1040.43,-286.58 1043.21,-296.8 1047.41,-287.07 1040.43,-286.58"/>
</a>
</g>
<text text-anchor="middle" x="1051.5" y="-267.8" font-family="Times,serif" font-size="14.00">s1</text>
</g>
<!-- start_DigitalWatch_smAlarmStatus -->
<g id="node18" class="node">
<title>start_DigitalWatch_smAlarmStatus</title>
<g id="a_node18"><a xlink:title="Class DigitalWatch, SM sm, State alarmStatus.start">
<ellipse fill="black" stroke="black" cx="422" cy="-412.2" rx="7.2" ry="7.2"/>
</a>
</g>
</g>
<!-- start_DigitalWatch_smAlarmStatus&#45;&gt;DigitalWatch_smAlarmStatus_bothOff -->
<g id="edge34" class="edge">
<title>start_DigitalWatch_smAlarmStatus&#45;&gt;DigitalWatch_smAlarmStatus_bothOff</title>
<g id="a_edge34"><a xlink:title="start to alarmStatus.bothOff">
<path fill="none" stroke="black" d="M422,-404.95C422,-392.64 422,-364.57 422,-343.23"/>
<polygon fill="black" stroke="black" points="425.5,-343.1 422,-333.1 418.5,-343.1 425.5,-343.1"/>
</a>
</g>
</g>
<!-- DigitalWatch_smAlarmStatus_bothOff&#45;&gt;DigitalWatch_smRegular_time -->
<g id="edge6" class="edge">
<title>DigitalWatch_smAlarmStatus_bothOff&#45;&gt;DigitalWatch_smRegular_time</title>
<g id="a_edge6"><a xlink:title="From alarmStatus to regular.time on notS2">
<path fill="none" stroke="black" d="M466,-322.81C505.02,-329.71 563.09,-342.12 611,-361.2 623.39,-366.14 624.25,-372.29 637,-376.2 739.97,-407.79 775.82,-371.34 881.78,-393.5"/>
<polygon fill="black" stroke="black" points="881.05,-396.93 891.57,-395.67 882.56,-390.09 881.05,-396.93"/>
</a>
</g>
<text text-anchor="middle" x="653.5" y="-365" font-family="Times,serif" font-size="14.00">notS2</text>
</g>
<!-- DigitalWatch_smAlarmStatus_chimeOn -->
<g id="node20" class="node">
<title>DigitalWatch_smAlarmStatus_chimeOn</title>
<g id="a_node20"><a xlink:title="Class DigitalWatch, SM sm, State alarmStatus.chimeOn">
<path fill="none" stroke="black" d="M426,-246C426,-246 378,-246 378,-246 372,-246 366,-240 366,-234 366,-234 366,-222 366,-222 366,-216 372,-210 378,-210 378,-210 426,-210 426,-210 432,-210 438,-216 438,-222 438,-222 438,-234 438,-234 438,-240 432,-246 426,-246"/>
<text text-anchor="middle" x="402" y="-224.3" font-family="Times,serif" font-size="14.00">chimeOn</text>
</a>
</g>
</g>
<!-- DigitalWatch_smAlarmStatus_bothOff&#45;&gt;DigitalWatch_smAlarmStatus_chimeOn -->
<g id="edge36" class="edge">
<title>DigitalWatch_smAlarmStatus_bothOff&#45;&gt;DigitalWatch_smAlarmStatus_chimeOn</title>
<g id="a_edge36"><a xlink:title="From alarmStatus.bothOff to alarmStatus.chimeOn on s1">
<path fill="none" stroke="black" d="M417.95,-296.8C415.21,-285.16 411.54,-269.55 408.41,-256.24"/>
<polygon fill="black" stroke="black" points="411.74,-255.11 406.04,-246.18 404.92,-256.71 411.74,-255.11"/>
</a>
</g>
<text text-anchor="middle" x="419.5" y="-267.8" font-family="Times,serif" font-size="14.00">s1</text>
</g>
<!-- DigitalWatch_smAlarmStatus_bothOn -->
<g id="node21" class="node">
<title>DigitalWatch_smAlarmStatus_bothOn</title>
<g id="a_node21"><a xlink:title="Class DigitalWatch, SM sm, State alarmStatus.bothOn">
<path fill="none" stroke="black" d="M426,-153C426,-153 378,-153 378,-153 372,-153 366,-147 366,-141 366,-141 366,-129 366,-129 366,-123 372,-117 378,-117 378,-117 426,-117 426,-117 432,-117 438,-123 438,-129 438,-129 438,-141 438,-141 438,-147 432,-153 426,-153"/>
<text text-anchor="middle" x="402" y="-131.3" font-family="Times,serif" font-size="14.00">bothOn</text>
</a>
</g>
</g>
<!-- DigitalWatch_smAlarmStatus_chimeOn&#45;&gt;DigitalWatch_smAlarmStatus_bothOn -->
<g id="edge37" class="edge">
<title>DigitalWatch_smAlarmStatus_chimeOn&#45;&gt;DigitalWatch_smAlarmStatus_bothOn</title>
<g id="a_edge37"><a xlink:title="From alarmStatus.chimeOn to alarmStatus.bothOn on s1">
<path fill="none" stroke="black" d="M402,-209.88C402,-196.79 402,-178.48 402,-163.36"/>
<polygon fill="black" stroke="black" points="405.5,-163.04 402,-153.04 398.5,-163.04 405.5,-163.04"/>
</a>
</g>
<text text-anchor="middle" x="408.5" y="-174.8" font-family="Times,serif" font-size="14.00">s1</text>
</g>
<!-- DigitalWatch_smAlarmStatus_alarmOn -->
<g id="node22" class="node">
<title>DigitalWatch_smAlarmStatus_alarmOn</title>
<g id="a_node22"><a xlink:title="Class DigitalWatch, SM sm, State alarmStatus.alarmOn">
<path fill="none" stroke="black" d="M441,-60C441,-60 393,-60 393,-60 387,-60 381,-54 381,-48 381,-48 381,-36 381,-36 381,-30 387,-24 393,-24 393,-24 441,-24 441,-24 447,-24 453,-30 453,-36 453,-36 453,-48 453,-48 453,-54 447,-60 441,-60"/>
<text text-anchor="middle" x="417" y="-38.3" font-family="Times,serif" font-size="14.00">alarmOn</text>
</a>
</g>
</g>
<!-- DigitalWatch_smAlarmStatus_bothOn&#45;&gt;DigitalWatch_smAlarmStatus_alarmOn -->
<g id="edge38" class="edge">
<title>DigitalWatch_smAlarmStatus_bothOn&#45;&gt;DigitalWatch_smAlarmStatus_alarmOn</title>
<g id="a_edge38"><a xlink:title="From alarmStatus.bothOn to alarmStatus.alarmOn on s1">
<path fill="none" stroke="black" d="M404.82,-116.88C407,-103.66 410.06,-85.12 412.56,-69.92"/>
<polygon fill="black" stroke="black" points="416.02,-70.48 414.19,-60.04 409.11,-69.34 416.02,-70.48"/>
</a>
</g>
<text text-anchor="middle" x="416.5" y="-81.8" font-family="Times,serif" font-size="14.00">s1</text>
</g>
<!-- DigitalWatch_smAlarmStatus_alarmOn&#45;&gt;DigitalWatch_smAlarmStatus_bothOff -->
<g id="edge35" class="edge">
<title>DigitalWatch_smAlarmStatus_alarmOn&#45;&gt;DigitalWatch_smAlarmStatus_bothOff</title>
<g id="a_edge35"><a xlink:title="From alarmStatus.alarmOn to alarmStatus.bothOff on s1">
<path fill="none" stroke="black" d="M428.65,-60.16C435.48,-71.27 443.44,-86.35 447,-101 462.24,-163.62 458.29,-182.55 447,-246 444.48,-260.17 439.22,-275.26 434.17,-287.61"/>
<polygon fill="black" stroke="black" points="430.93,-286.29 430.22,-296.86 437.36,-289.04 430.93,-286.29"/>
</a>
</g>
<text text-anchor="middle" x="462.5" y="-174.8" font-family="Times,serif" font-size="14.00">s1</text>
</g>
<!-- start_DigitalWatch_smAlarmUpdate -->
<g id="node23" class="node">
<title>start_DigitalWatch_smAlarmUpdate</title>
<g id="a_node23"><a xlink:title="Class DigitalWatch, SM sm, State alarmUpdate.start">
<ellipse fill="black" stroke="black" cx="55" cy="-412.2" rx="7.2" ry="7.2"/>
</a>
</g>
</g>
<!-- start_DigitalWatch_smAlarmUpdate&#45;&gt;DigitalWatch_smAlarmUpdate_alarmTime -->
<g id="edge39" class="edge">
<title>start_DigitalWatch_smAlarmUpdate&#45;&gt;DigitalWatch_smAlarmUpdate_alarmTime</title>
<g id="a_edge39"><a xlink:title="start to alarmUpdate.alarmTime">
<path fill="none" stroke="black" d="M55,-404.95C55,-392.64 55,-364.57 55,-343.23"/>
<polygon fill="black" stroke="black" points="58.5,-343.1 55,-333.1 51.5,-343.1 58.5,-343.1"/>
</a>
</g>
</g>
<!-- DigitalWatch_smAlarmUpdate_alarmTime&#45;&gt;DigitalWatch_smRegularUpdate_second -->
<g id="edge11" class="edge">
<title>DigitalWatch_smAlarmUpdate_alarmTime&#45;&gt;DigitalWatch_smRegularUpdate_second</title>
<g id="a_edge11"><a xlink:title="From alarmUpdate to regular.update.second on s3">
<path fill="none" stroke="black" d="M257.69,-450.4C280.48,-460.35 306.85,-470.12 341,-481.4 456.53,-519.54 600.33,-532.79 672.75,-537.25"/>
<polygon fill="black" stroke="black" points="672.71,-540.75 682.9,-537.85 673.12,-533.77 672.71,-540.75"/>
</a>
</g>
<text text-anchor="middle" x="347.5" y="-408.5" font-family="Times,serif" font-size="14.00">s3</text>
</g>
<!-- DigitalWatch_smAlarmUpdateHourMinuteUpdate_alarmHour -->
<g id="node26" class="node">
<title>DigitalWatch_smAlarmUpdateHourMinuteUpdate_alarmHour</title>
<g id="a_node26"><a xlink:title="Class DigitalWatch, SM sm, State alarmUpdate.hourMinuteUpdate.alarmHour">
<path fill="none" stroke="black" d="M182.5,-246C182.5,-246 129.5,-246 129.5,-246 123.5,-246 117.5,-240 117.5,-234 117.5,-234 117.5,-222 117.5,-222 117.5,-216 123.5,-210 129.5,-210 129.5,-210 182.5,-210 182.5,-210 188.5,-210 194.5,-216 194.5,-222 194.5,-222 194.5,-234 194.5,-234 194.5,-240 188.5,-246 182.5,-246"/>
<text text-anchor="middle" x="156" y="-224.3" font-family="Times,serif" font-size="14.00">alarmHour</text>
</a>
</g>
</g>
<!-- DigitalWatch_smAlarmUpdate_alarmTime&#45;&gt;DigitalWatch_smAlarmUpdateHourMinuteUpdate_alarmHour -->
<g id="edge42" class="edge">
<title>DigitalWatch_smAlarmUpdate_alarmTime&#45;&gt;DigitalWatch_smAlarmUpdateHourMinuteUpdate_alarmHour</title>
<g id="a_edge42"><a xlink:title="From alarmUpdate.alarmTime to alarmUpdate.hourMinuteUpdate.alarmHour on s2&#13;Transition Action:&#10; &#160;&#160;&#160;&#160;alarmHour++;">
<path fill="none" stroke="black" d="M58.73,-296.88C61.81,-286.26 67.15,-272.99 76,-264 77.42,-262.56 91.63,-256.2 107.69,-249.3"/>
<polygon fill="black" stroke="black" points="109.46,-252.35 117.28,-245.2 106.71,-245.91 109.46,-252.35"/>
</a>
</g>
<text text-anchor="middle" x="128" y="-267.8" font-family="Times,serif" font-size="14.00">s2 / alarmHour++;</text>
</g>
<!-- DigitalWatch_smAlarmUpdateHourMinuteUpdate_alarmMinute -->
<g id="node27" class="node">
<title>DigitalWatch_smAlarmUpdateHourMinuteUpdate_alarmMinute</title>
<g id="a_node27"><a xlink:title="Class DigitalWatch, SM sm, State alarmUpdate.hourMinuteUpdate.alarmMinute">
<path fill="none" stroke="black" d="M187.5,-153C187.5,-153 122.5,-153 122.5,-153 116.5,-153 110.5,-147 110.5,-141 110.5,-141 110.5,-129 110.5,-129 110.5,-123 116.5,-117 122.5,-117 122.5,-117 187.5,-117 187.5,-117 193.5,-117 199.5,-123 199.5,-129 199.5,-129 199.5,-141 199.5,-141 199.5,-147 193.5,-153 187.5,-153"/>
<text text-anchor="middle" x="155" y="-131.3" font-family="Times,serif" font-size="14.00">alarmMinute</text>
</a>
</g>
</g>
<!-- DigitalWatch_smAlarmUpdate_alarmTime&#45;&gt;DigitalWatch_smAlarmUpdateHourMinuteUpdate_alarmMinute -->
<g id="edge45" class="edge">
<title>DigitalWatch_smAlarmUpdate_alarmTime&#45;&gt;DigitalWatch_smAlarmUpdateHourMinuteUpdate_alarmMinute</title>
<g id="a_edge45"><a xlink:title="From alarmUpdate.alarmTime to alarmUpdate.hourMinuteUpdate.alarmMinute on s1">
<path fill="none" stroke="black" d="M55.62,-296.58C56.33,-286.83 57.83,-274.55 61,-264 71,-230.68 75.54,-222.13 96,-194 104.91,-181.75 116.48,-169.76 127.02,-159.89"/>
<polygon fill="black" stroke="black" points="129.43,-162.42 134.45,-153.1 124.71,-157.25 129.43,-162.42"/>
</a>
</g>
<text text-anchor="middle" x="102.5" y="-224.3" font-family="Times,serif" font-size="14.00">s1</text>
</g>
<!-- start_DigitalWatch_smAlarmUpdateHourMinuteUpdate -->
<g id="node25" class="node">
<title>start_DigitalWatch_smAlarmUpdateHourMinuteUpdate</title>
<g id="a_node25"><a xlink:title="Class DigitalWatch, SM sm, State alarmUpdate.hourMinuteUpdate.start">
<ellipse fill="black" stroke="black" cx="189" cy="-315" rx="7.2" ry="7.2"/>
</a>
</g>
</g>
<!-- start_DigitalWatch_smAlarmUpdateHourMinuteUpdate&#45;&gt;DigitalWatch_smAlarmUpdateHourMinuteUpdate_alarmHour -->
<g id="edge41" class="edge">
<title>start_DigitalWatch_smAlarmUpdateHourMinuteUpdate&#45;&gt;DigitalWatch_smAlarmUpdateHourMinuteUpdate_alarmHour</title>
<g id="a_edge41"><a xlink:title="start to alarmUpdate.hourMinuteUpdate.alarmHour">
<path fill="none" stroke="black" d="M189.49,-307.57C189.99,-297.77 190,-278.7 184,-264 182.67,-260.73 180.93,-257.52 178.97,-254.45"/>
<polygon fill="black" stroke="black" points="181.71,-252.28 173.01,-246.24 176.05,-256.39 181.71,-252.28"/>
</a>
</g>
</g>
<!-- DigitalWatch_smAlarmUpdateHourMinuteUpdate_alarmHour&#45;&gt;DigitalWatch_smAlarmUpdateHourMinuteUpdate_alarmHour -->
<g id="edge43" class="edge">
<title>DigitalWatch_smAlarmUpdateHourMinuteUpdate_alarmHour&#45;&gt;DigitalWatch_smAlarmUpdateHourMinuteUpdate_alarmHour</title>
<g id="a_edge43"><a xlink:title="From alarmUpdate.hourMinuteUpdate.alarmHour to alarmUpdate.hourMinuteUpdate.alarmHour on s2&#13;Transition Action:&#10; &#160;&#160;&#160;&#160;alarmHour++;">
<path fill="none" stroke="black" d="M194.56,-235.81C204.77,-235.36 212.5,-232.76 212.5,-228 212.5,-225.03 209.48,-222.89 204.72,-221.61"/>
<polygon fill="black" stroke="black" points="204.94,-218.1 194.56,-220.19 203.98,-225.04 204.94,-218.1"/>
</a>
</g>
<text text-anchor="middle" x="264.5" y="-224.3" font-family="Times,serif" font-size="14.00">s2 / alarmHour++;</text>
</g>
<!-- DigitalWatch_smAlarmUpdateHourMinuteUpdate_alarmHour&#45;&gt;DigitalWatch_smAlarmUpdateHourMinuteUpdate_alarmMinute -->
<g id="edge46" class="edge">
<title>DigitalWatch_smAlarmUpdateHourMinuteUpdate_alarmHour&#45;&gt;DigitalWatch_smAlarmUpdateHourMinuteUpdate_alarmMinute</title>
<g id="a_edge46"><a xlink:title="From alarmUpdate.hourMinuteUpdate.alarmHour to alarmUpdate.hourMinuteUpdate.alarmMinute on s1">
<path fill="none" stroke="black" d="M145.29,-209.56C139.86,-198.62 134.98,-184.14 138,-171 138.65,-168.16 139.57,-165.29 140.64,-162.47"/>
<polygon fill="black" stroke="black" points="143.88,-163.79 144.72,-153.23 137.48,-160.96 143.88,-163.79"/>
</a>
</g>
<text text-anchor="middle" x="144.5" y="-174.8" font-family="Times,serif" font-size="14.00">s1</text>
</g>
<!-- DigitalWatch_smAlarmUpdateHourMinuteUpdate_alarmMinute&#45;&gt;DigitalWatch_smAlarmUpdateHourMinuteUpdate_alarmHour -->
<g id="edge44" class="edge">
<title>DigitalWatch_smAlarmUpdateHourMinuteUpdate_alarmMinute&#45;&gt;DigitalWatch_smAlarmUpdateHourMinuteUpdate_alarmHour</title>
<g id="a_edge44"><a xlink:title="From alarmUpdate.hourMinuteUpdate.alarmMinute to alarmUpdate.hourMinuteUpdate.alarmHour on s1">
<path fill="none" stroke="black" d="M155.19,-153.04C155.33,-166.11 155.53,-184.42 155.7,-199.55"/>
<polygon fill="black" stroke="black" points="152.2,-199.92 155.81,-209.88 159.2,-199.85 152.2,-199.92"/>
</a>
</g>
<text text-anchor="middle" x="161.5" y="-174.8" font-family="Times,serif" font-size="14.00">s1</text>
</g>
<!-- DigitalWatch_smAlarmUpdateHourMinuteUpdate_alarmMinute&#45;&gt;DigitalWatch_smAlarmUpdateHourMinuteUpdate_alarmMinute -->
<g id="edge47" class="edge">
<title>DigitalWatch_smAlarmUpdateHourMinuteUpdate_alarmMinute&#45;&gt;DigitalWatch_smAlarmUpdateHourMinuteUpdate_alarmMinute</title>
<g id="a_edge47"><a xlink:title="From alarmUpdate.hourMinuteUpdate.alarmMinute to alarmUpdate.hourMinuteUpdate.alarmMinute on s2&#13;Transition Action:&#10; &#160;&#160;&#160;&#160;alarmMinute++;">
<path fill="none" stroke="black" d="M199.66,-142.7C209.95,-142.04 217.5,-139.47 217.5,-135 217.5,-132.21 214.55,-130.16 209.83,-128.85"/>
<polygon fill="black" stroke="black" points="210.08,-125.35 199.66,-127.3 209.02,-132.27 210.08,-125.35"/>
</a>
</g>
<text text-anchor="middle" x="275.5" y="-131.3" font-family="Times,serif" font-size="14.00">s2 / alarmMinute++;</text>
</g>
</g>
</svg>
