<?xml version="1.0" encoding="UTF-8" standalone="no"?>
<!DOCTYPE svg PUBLIC "-//W3C//DTD SVG 1.1//EN"
 "http://www.w3.org/Graphics/SVG/1.1/DTD/svg11.dtd">
<!-- Generated by graphviz version 2.40.1 (20161225.0304)
 -->
<!-- Title: DigitalWatchFlat Pages: 1 -->
<svg width="965pt" height="720pt"
 viewBox="0.00 0.00 965.17 720.00" xmlns="http://www.w3.org/2000/svg" xmlns:xlink="http://www.w3.org/1999/xlink">
<g id="graph0" class="graph" transform="scale(.8282 .8282) rotate(0) translate(4 865.4)">
<title>DigitalWatchFlat</title>
<polygon fill="#ffffff" stroke="transparent" points="-4,4 -4,-865.4 1161.4482,-865.4 1161.4482,4 -4,4"/>
<!-- start_DigitalWatch_sm -->
<g id="node1" class="node">
<title>start_DigitalWatch_sm</title>
<g id="a_node1"><a xlink:title="Class DigitalWatch, SM sm, State start">
<ellipse fill="#000000" stroke="#000000" cx="472" cy="-854.2" rx="7.2" ry="7.2"/>
</a>
</g>
</g>
<!-- DigitalWatch_sm_time -->
<g id="node2" class="node">
<title>DigitalWatch_sm_time</title>
<g id="a_node2"><a xlink:title="Class DigitalWatch, SM sm, State time">
<path fill="none" stroke="#000000" d="M496,-810C496,-810 448,-810 448,-810 442,-810 436,-804 436,-798 436,-798 436,-786 436,-786 436,-780 442,-774 448,-774 448,-774 496,-774 496,-774 502,-774 508,-780 508,-786 508,-786 508,-798 508,-798 508,-804 502,-810 496,-810"/>
<text text-anchor="middle" x="472" y="-787.8" font-family="Times,serif" font-size="14.00" fill="#000000">time</text>
</a>
</g>
</g>
<!-- start_DigitalWatch_sm&#45;&gt;DigitalWatch_sm_time -->
<g id="edge1" class="edge">
<title>start_DigitalWatch_sm&#45;&gt;DigitalWatch_sm_time</title>
<g id="a_edge1"><a xlink:title="start to time">
<path fill="none" stroke="#000000" d="M472,-846.5731C472,-839.9503 472,-829.9322 472,-820.2795"/>
<polygon fill="#000000" stroke="#000000" points="475.5001,-820.1266 472,-810.1266 468.5001,-820.1267 475.5001,-820.1266"/>
</a>
</g>
</g>
<!-- DigitalWatch_sm_date -->
<g id="node3" class="node">
<title>DigitalWatch_sm_date</title>
<g id="a_node3"><a xlink:title="Class DigitalWatch, SM sm, State date">
<path fill="none" stroke="#000000" d="M60,-724C60,-724 12,-724 12,-724 6,-724 0,-718 0,-712 0,-712 0,-700 0,-700 0,-694 6,-688 12,-688 12,-688 60,-688 60,-688 66,-688 72,-694 72,-700 72,-700 72,-712 72,-712 72,-718 66,-724 60,-724"/>
<text text-anchor="middle" x="36" y="-701.8" font-family="Times,serif" font-size="14.00" fill="#000000">date</text>
</a>
</g>
</g>
<!-- DigitalWatch_sm_time&#45;&gt;DigitalWatch_sm_date -->
<g id="edge17" class="edge">
<title>DigitalWatch_sm_time&#45;&gt;DigitalWatch_sm_date</title>
<g id="a_edge17"><a xlink:title="From time to date on s1">
<path fill="none" stroke="#000000" d="M435.7977,-791.6475C352.3552,-790.352 148.9695,-784.2972 87.5518,-756 75.6085,-750.4973 64.7561,-741.042 56.1229,-731.825"/>
<polygon fill="#000000" stroke="#000000" points="58.6601,-729.4105 49.4178,-724.2307 53.4127,-734.0435 58.6601,-729.4105"/>
</a>
</g>
<text text-anchor="middle" x="94.2241" y="-744.8" font-family="Times,serif" font-size="14.00" fill="#000000">s1</text>
</g>
<!-- DigitalWatch_sm_paused -->
<g id="node4" class="node">
<title>DigitalWatch_sm_paused</title>
<g id="a_node4"><a xlink:title="Class DigitalWatch, SM sm, State paused">
<path fill="none" stroke="#000000" d="M150,-724C150,-724 102,-724 102,-724 96,-724 90,-718 90,-712 90,-712 90,-700 90,-700 90,-694 96,-688 102,-688 102,-688 150,-688 150,-688 156,-688 162,-694 162,-700 162,-700 162,-712 162,-712 162,-718 156,-724 150,-724"/>
<text text-anchor="middle" x="126" y="-701.8" font-family="Times,serif" font-size="14.00" fill="#000000">paused</text>
</a>
</g>
</g>
<!-- DigitalWatch_sm_time&#45;&gt;DigitalWatch_sm_paused -->
<g id="edge18" class="edge">
<title>DigitalWatch_sm_time&#45;&gt;DigitalWatch_sm_paused</title>
<g id="a_edge18"><a xlink:title="From time to paused on s3">
<path fill="none" stroke="#000000" d="M435.5998,-789.2388C371.8601,-784.0622 242.7979,-771.9649 200.5518,-756 184.5272,-749.9443 168.5189,-739.8705 155.4673,-730.3458"/>
<polygon fill="#000000" stroke="#000000" points="157.4365,-727.447 147.3471,-724.2137 153.2181,-733.0332 157.4365,-727.447"/>
</a>
</g>
<text text-anchor="middle" x="207.2241" y="-744.8" font-family="Times,serif" font-size="14.00" fill="#000000">s3</text>
</g>
<!-- DigitalWatch_sm_bothOff -->
<g id="node8" class="node">
<title>DigitalWatch_sm_bothOff</title>
<g id="a_node8"><a xlink:title="Class DigitalWatch, SM sm, State bothOff">
<path fill="none" stroke="#000000" d="M480,-724C480,-724 432,-724 432,-724 426,-724 420,-718 420,-712 420,-712 420,-700 420,-700 420,-694 426,-688 432,-688 432,-688 480,-688 480,-688 486,-688 492,-694 492,-700 492,-700 492,-712 492,-712 492,-718 486,-724 480,-724"/>
<text text-anchor="middle" x="456" y="-701.8" font-family="Times,serif" font-size="14.00" fill="#000000">bothOff</text>
</a>
</g>
</g>
<!-- DigitalWatch_sm_time&#45;&gt;DigitalWatch_sm_bothOff -->
<g id="edge27" class="edge">
<title>DigitalWatch_sm_time&#45;&gt;DigitalWatch_sm_bothOff</title>
<g id="a_edge27"><a xlink:title="From time to bothOff on s2">
<path fill="none" stroke="#000000" d="M456.5013,-773.6745C452.8468,-768.3109 449.4612,-762.2104 447.5518,-756 445.431,-749.1025 445.5345,-741.4959 446.6553,-734.3415"/>
<polygon fill="#000000" stroke="#000000" points="450.13,-734.8396 448.8846,-724.3182 443.2969,-733.3197 450.13,-734.8396"/>
</a>
</g>
<text text-anchor="middle" x="454.2241" y="-744.8" font-family="Times,serif" font-size="14.00" fill="#000000">s2</text>
</g>
<!-- DigitalWatch_sm_alarmTime -->
<g id="node12" class="node">
<title>DigitalWatch_sm_alarmTime</title>
<g id="a_node12"><a xlink:title="Class DigitalWatch, SM sm, State alarmTime">
<path fill="none" stroke="#000000" d="M808.4287,-724C808.4287,-724 755.5713,-724 755.5713,-724 749.5713,-724 743.5713,-718 743.5713,-712 743.5713,-712 743.5713,-700 743.5713,-700 743.5713,-694 749.5713,-688 755.5713,-688 755.5713,-688 808.4287,-688 808.4287,-688 814.4287,-688 820.4287,-694 820.4287,-700 820.4287,-700 820.4287,-712 820.4287,-712 820.4287,-718 814.4287,-724 808.4287,-724"/>
<text text-anchor="middle" x="782" y="-701.8" font-family="Times,serif" font-size="14.00" fill="#000000">alarmTime</text>
</a>
</g>
</g>
<!-- DigitalWatch_sm_time&#45;&gt;DigitalWatch_sm_alarmTime -->
<g id="edge32" class="edge">
<title>DigitalWatch_sm_time&#45;&gt;DigitalWatch_sm_alarmTime</title>
<g id="a_edge32"><a xlink:title="From time to alarmTime on s3during2Secs">
<path fill="none" stroke="#000000" d="M508.0522,-789.066C567.1538,-783.8712 681.8043,-772.0689 719,-756 732.6878,-750.0867 745.9178,-740.4073 756.6905,-731.1323"/>
<polygon fill="#000000" stroke="#000000" points="759.3191,-733.4757 764.4164,-724.1876 754.6395,-728.2697 759.3191,-733.4757"/>
</a>
</g>
<text text-anchor="middle" x="782.8311" y="-744.8" font-family="Times,serif" font-size="14.00" fill="#000000">s3during2Secs</text>
</g>
<!-- DigitalWatch_sm_date&#45;&gt;DigitalWatch_sm_time -->
<g id="edge2" class="edge">
<title>DigitalWatch_sm_date&#45;&gt;DigitalWatch_sm_time</title>
<g id="a_edge2"><a xlink:title="From date to time on notS1">
<path fill="none" stroke="#000000" d="M66.2237,-724.2375C86.0265,-735.2978 112.8688,-748.6527 138.3242,-756 191.0959,-771.2317 347.1181,-783.5539 425.6875,-788.9907"/>
<polygon fill="#000000" stroke="#000000" points="425.5701,-792.4907 435.7856,-789.681 426.0476,-785.507 425.5701,-792.4907"/>
</a>
</g>
<text text-anchor="middle" x="155.3379" y="-744.8" font-family="Times,serif" font-size="14.00" fill="#000000">notS1</text>
</g>
<!-- DigitalWatch_sm_paused&#45;&gt;DigitalWatch_sm_time -->
<g id="edge3" class="edge">
<title>DigitalWatch_sm_paused&#45;&gt;DigitalWatch_sm_time</title>
<g id="a_edge3"><a xlink:title="From paused to time on s3">
<path fill="none" stroke="#000000" d="M162.2386,-720.8957C197.0587,-735.1726 245.0528,-754.7428 249.5518,-756 309.1511,-772.6547 380.0261,-782.4722 425.4887,-787.5432"/>
<polygon fill="#000000" stroke="#000000" points="425.3137,-791.0446 435.6327,-788.6428 426.0682,-784.0854 425.3137,-791.0446"/>
</a>
</g>
<text text-anchor="middle" x="256.2241" y="-744.8" font-family="Times,serif" font-size="14.00" fill="#000000">s3</text>
</g>
<!-- DigitalWatch_sm_paused&#45;&gt;DigitalWatch_sm_paused -->
<g id="edge19" class="edge">
<title>DigitalWatch_sm_paused&#45;&gt;DigitalWatch_sm_paused</title>
<g id="a_edge19"><a xlink:title="From paused to paused on s2&#13;Transition Action:&#10; &#160;&#160;&#160;&#160;zero();">
<path fill="none" stroke="#000000" d="M162.0873,-713.8361C172.2211,-713.4929 180,-710.8809 180,-706 180,-702.9495 176.9614,-700.7852 172.2083,-699.5072"/>
<polygon fill="#000000" stroke="#000000" points="172.4609,-696.0101 162.0873,-698.1639 171.5399,-702.9492 172.4609,-696.0101"/>
</a>
</g>
<text text-anchor="middle" x="210.3208" y="-701.8" font-family="Times,serif" font-size="14.00" fill="#000000">s2 / zero();</text>
</g>
<!-- DigitalWatch_sm_running -->
<g id="node5" class="node">
<title>DigitalWatch_sm_running</title>
<g id="a_node5"><a xlink:title="Class DigitalWatch, SM sm, State running">
<path fill="none" stroke="#000000" d="M253,-638C253,-638 205,-638 205,-638 199,-638 193,-632 193,-626 193,-626 193,-614 193,-614 193,-608 199,-602 205,-602 205,-602 253,-602 253,-602 259,-602 265,-608 265,-614 265,-614 265,-626 265,-626 265,-632 259,-638 253,-638"/>
<text text-anchor="middle" x="229" y="-615.8" font-family="Times,serif" font-size="14.00" fill="#000000">running</text>
</a>
</g>
</g>
<!-- DigitalWatch_sm_paused&#45;&gt;DigitalWatch_sm_running -->
<g id="edge22" class="edge">
<title>DigitalWatch_sm_paused&#45;&gt;DigitalWatch_sm_running</title>
<g id="a_edge22"><a xlink:title="From paused to running on s1">
<path fill="none" stroke="#000000" d="M162.1534,-693.5306C175.1387,-687.8045 189.2228,-680.0198 200,-670 206.7614,-663.7138 212.4084,-655.4883 216.8687,-647.5292"/>
<polygon fill="#000000" stroke="#000000" points="220.083,-648.9325 221.5554,-638.4405 213.8614,-645.7243 220.083,-648.9325"/>
</a>
</g>
<text text-anchor="middle" x="218.2241" y="-658.8" font-family="Times,serif" font-size="14.00" fill="#000000">s1</text>
</g>
<!-- DigitalWatch_sm_running&#45;&gt;DigitalWatch_sm_time -->
<g id="edge4" class="edge">
<title>DigitalWatch_sm_running&#45;&gt;DigitalWatch_sm_time</title>
<g id="a_edge4"><a xlink:title="From running to time on s3">
<path fill="none" stroke="#000000" d="M233.4448,-638.2371C241.6561,-667.8533 262.1231,-726.097 302,-756 321.2165,-770.4101 382.2995,-780.822 425.7316,-786.6343"/>
<polygon fill="#000000" stroke="#000000" points="425.4387,-790.1256 435.8063,-787.9433 426.3406,-783.184 425.4387,-790.1256"/>
</a>
</g>
<text text-anchor="middle" x="277.2241" y="-701.8" font-family="Times,serif" font-size="14.00" fill="#000000">s3</text>
</g>
<!-- DigitalWatch_sm_running&#45;&gt;DigitalWatch_sm_paused -->
<g id="edge20" class="edge">
<title>DigitalWatch_sm_running&#45;&gt;DigitalWatch_sm_paused</title>
<g id="a_edge20"><a xlink:title="From running to paused on s1">
<path fill="none" stroke="#000000" d="M207.1878,-638.2121C192.1736,-650.7483 172.0469,-667.5531 155.5895,-681.2942"/>
<polygon fill="#000000" stroke="#000000" points="153.2766,-678.6658 147.8437,-687.7616 157.763,-684.039 153.2766,-678.6658"/>
</a>
</g>
<text text-anchor="middle" x="190.2241" y="-658.8" font-family="Times,serif" font-size="14.00" fill="#000000">s1</text>
</g>
<!-- DigitalWatch_sm_lapRunning -->
<g id="node6" class="node">
<title>DigitalWatch_sm_lapRunning</title>
<g id="a_node6"><a xlink:title="Class DigitalWatch, SM sm, State lapRunning">
<path fill="none" stroke="#000000" d="M292.8317,-552C292.8317,-552 235.1683,-552 235.1683,-552 229.1683,-552 223.1683,-546 223.1683,-540 223.1683,-540 223.1683,-528 223.1683,-528 223.1683,-522 229.1683,-516 235.1683,-516 235.1683,-516 292.8317,-516 292.8317,-516 298.8317,-516 304.8317,-522 304.8317,-528 304.8317,-528 304.8317,-540 304.8317,-540 304.8317,-546 298.8317,-552 292.8317,-552"/>
<text text-anchor="middle" x="264" y="-529.8" font-family="Times,serif" font-size="14.00" fill="#000000">lapRunning</text>
</a>
</g>
</g>
<!-- DigitalWatch_sm_running&#45;&gt;DigitalWatch_sm_lapRunning -->
<g id="edge24" class="edge">
<title>DigitalWatch_sm_running&#45;&gt;DigitalWatch_sm_lapRunning</title>
<g id="a_edge24"><a xlink:title="From running to lapRunning on s2">
<path fill="none" stroke="#000000" d="M225.5104,-601.7733C224.4485,-592.003 224.4709,-579.9608 228.5518,-570 230.0004,-566.4642 231.9824,-563.0893 234.2744,-559.923"/>
<polygon fill="#000000" stroke="#000000" points="237.1351,-561.9601 240.9119,-552.0612 231.7865,-557.4443 237.1351,-561.9601"/>
</a>
</g>
<text text-anchor="middle" x="235.2241" y="-572.8" font-family="Times,serif" font-size="14.00" fill="#000000">s2</text>
</g>
<!-- DigitalWatch_sm_lapRunning&#45;&gt;DigitalWatch_sm_time -->
<g id="edge5" class="edge">
<title>DigitalWatch_sm_lapRunning&#45;&gt;DigitalWatch_sm_time</title>
<g id="a_edge5"><a xlink:title="From lapRunning to time on s3">
<path fill="none" stroke="#000000" d="M267.9079,-552.1153C278.5392,-599.8065 309.2533,-727.1487 340,-756 352.5191,-767.7473 392.9841,-777.706 425.8453,-784.1507"/>
<polygon fill="#000000" stroke="#000000" points="425.2823,-787.6063 435.7601,-786.0361 426.59,-780.7295 425.2823,-787.6063"/>
</a>
</g>
<text text-anchor="middle" x="306.2241" y="-658.8" font-family="Times,serif" font-size="14.00" fill="#000000">s3</text>
</g>
<!-- DigitalWatch_sm_lapRunning&#45;&gt;DigitalWatch_sm_running -->
<g id="edge23" class="edge">
<title>DigitalWatch_sm_lapRunning&#45;&gt;DigitalWatch_sm_running</title>
<g id="a_edge23"><a xlink:title="From lapRunning to running on s2">
<path fill="none" stroke="#000000" d="M256.5881,-552.2121C251.8572,-563.8366 245.6326,-579.1313 240.2935,-592.2503"/>
<polygon fill="#000000" stroke="#000000" points="236.9504,-591.1799 236.4226,-601.7616 243.434,-593.8187 236.9504,-591.1799"/>
</a>
</g>
<text text-anchor="middle" x="255.2241" y="-572.8" font-family="Times,serif" font-size="14.00" fill="#000000">s2</text>
</g>
<!-- DigitalWatch_sm_lapPaused -->
<g id="node7" class="node">
<title>DigitalWatch_sm_lapPaused</title>
<g id="a_node7"><a xlink:title="Class DigitalWatch, SM sm, State lapPaused">
<path fill="none" stroke="#000000" d="M287.266,-466C287.266,-466 238.734,-466 238.734,-466 232.734,-466 226.734,-460 226.734,-454 226.734,-454 226.734,-442 226.734,-442 226.734,-436 232.734,-430 238.734,-430 238.734,-430 287.266,-430 287.266,-430 293.266,-430 299.266,-436 299.266,-442 299.266,-442 299.266,-454 299.266,-454 299.266,-460 293.266,-466 287.266,-466"/>
<text text-anchor="middle" x="263" y="-443.8" font-family="Times,serif" font-size="14.00" fill="#000000">lapPaused</text>
</a>
</g>
</g>
<!-- DigitalWatch_sm_lapRunning&#45;&gt;DigitalWatch_sm_lapPaused -->
<g id="edge26" class="edge">
<title>DigitalWatch_sm_lapRunning&#45;&gt;DigitalWatch_sm_lapPaused</title>
<g id="a_edge26"><a xlink:title="From lapRunning to lapPaused on s1">
<path fill="none" stroke="#000000" d="M253.88,-515.8424C251.2902,-510.2863 248.8669,-504.0429 247.5518,-498 245.9941,-490.8424 246.9498,-483.2339 248.9903,-476.1683"/>
<polygon fill="#000000" stroke="#000000" points="252.444,-476.9147 252.5897,-466.3209 245.8694,-474.5116 252.444,-476.9147"/>
</a>
</g>
<text text-anchor="middle" x="254.2241" y="-486.8" font-family="Times,serif" font-size="14.00" fill="#000000">s1</text>
</g>
<!-- DigitalWatch_sm_lapPaused&#45;&gt;DigitalWatch_sm_time -->
<g id="edge6" class="edge">
<title>DigitalWatch_sm_lapPaused&#45;&gt;DigitalWatch_sm_time</title>
<g id="a_edge6"><a xlink:title="From lapPaused to time on s3">
<path fill="none" stroke="#000000" d="M278.9058,-466.0204C289.892,-479.1667 304.2287,-497.7971 314,-516 367.734,-616.1005 324.2183,-673.1902 402,-756 408.9468,-763.3959 417.7525,-769.53 426.7545,-774.5121"/>
<polygon fill="#000000" stroke="#000000" points="425.2628,-777.6804 435.7602,-779.1143 428.4482,-771.4471 425.2628,-777.6804"/>
</a>
</g>
<text text-anchor="middle" x="355.2241" y="-615.8" font-family="Times,serif" font-size="14.00" fill="#000000">s3</text>
</g>
<!-- DigitalWatch_sm_lapPaused&#45;&gt;DigitalWatch_sm_paused -->
<g id="edge21" class="edge">
<title>DigitalWatch_sm_lapPaused&#45;&gt;DigitalWatch_sm_paused</title>
<g id="a_edge21"><a xlink:title="From lapPaused to paused on s2">
<path fill="none" stroke="#000000" d="M248.4889,-466.1154C238.1687,-479.4584 224.3558,-498.288 214,-516 181.5768,-571.4549 151.9856,-640.8818 136.7654,-678.5691"/>
<polygon fill="#000000" stroke="#000000" points="133.5055,-677.295 133.0376,-687.8796 140.0039,-679.897 133.5055,-677.295"/>
</a>
</g>
<text text-anchor="middle" x="191.2241" y="-572.8" font-family="Times,serif" font-size="14.00" fill="#000000">s2</text>
</g>
<!-- DigitalWatch_sm_lapPaused&#45;&gt;DigitalWatch_sm_lapRunning -->
<g id="edge25" class="edge">
<title>DigitalWatch_sm_lapPaused&#45;&gt;DigitalWatch_sm_lapRunning</title>
<g id="a_edge25"><a xlink:title="From lapPaused to lapRunning on s1">
<path fill="none" stroke="#000000" d="M263.2118,-466.2121C263.3443,-477.6086 263.5178,-492.5329 263.6683,-505.4762"/>
<polygon fill="#000000" stroke="#000000" points="260.1718,-505.803 263.7879,-515.7616 267.1713,-505.7216 260.1718,-505.803"/>
</a>
</g>
<text text-anchor="middle" x="270.2241" y="-486.8" font-family="Times,serif" font-size="14.00" fill="#000000">s1</text>
</g>
<!-- DigitalWatch_sm_bothOff&#45;&gt;DigitalWatch_sm_time -->
<g id="edge7" class="edge">
<title>DigitalWatch_sm_bothOff&#45;&gt;DigitalWatch_sm_time</title>
<g id="a_edge7"><a xlink:title="From bothOff to time on notS2">
<path fill="none" stroke="#000000" d="M459.3883,-724.2121C461.5298,-735.7226 464.3408,-750.8318 466.7654,-763.8639"/>
<polygon fill="#000000" stroke="#000000" points="463.3367,-764.5705 468.6068,-773.7616 470.2186,-763.2901 463.3367,-764.5705"/>
</a>
</g>
<text text-anchor="middle" x="481.3379" y="-744.8" font-family="Times,serif" font-size="14.00" fill="#000000">notS2</text>
</g>
<!-- DigitalWatch_sm_chimeOn -->
<g id="node9" class="node">
<title>DigitalWatch_sm_chimeOn</title>
<g id="a_node9"><a xlink:title="Class DigitalWatch, SM sm, State chimeOn">
<path fill="none" stroke="#000000" d="M541,-638C541,-638 493,-638 493,-638 487,-638 481,-632 481,-626 481,-626 481,-614 481,-614 481,-608 487,-602 493,-602 493,-602 541,-602 541,-602 547,-602 553,-608 553,-614 553,-614 553,-626 553,-626 553,-632 547,-638 541,-638"/>
<text text-anchor="middle" x="517" y="-615.8" font-family="Times,serif" font-size="14.00" fill="#000000">chimeOn</text>
</a>
</g>
</g>
<!-- DigitalWatch_sm_bothOff&#45;&gt;DigitalWatch_sm_chimeOn -->
<g id="edge29" class="edge">
<title>DigitalWatch_sm_bothOff&#45;&gt;DigitalWatch_sm_chimeOn</title>
<g id="a_edge29"><a xlink:title="From bothOff to chimeOn on s1">
<path fill="none" stroke="#000000" d="M465.6259,-687.9108C471.0646,-678.1807 478.2269,-666.1331 485.5518,-656 488.013,-652.5951 490.7307,-649.1291 493.5071,-645.7592"/>
<polygon fill="#000000" stroke="#000000" points="496.1745,-648.0252 499.9989,-638.1447 490.8476,-643.4837 496.1745,-648.0252"/>
</a>
</g>
<text text-anchor="middle" x="492.2241" y="-658.8" font-family="Times,serif" font-size="14.00" fill="#000000">s1</text>
</g>
<!-- DigitalWatch_sm_chimeOn&#45;&gt;DigitalWatch_sm_time -->
<g id="edge8" class="edge">
<title>DigitalWatch_sm_chimeOn&#45;&gt;DigitalWatch_sm_time</title>
<g id="a_edge8"><a xlink:title="From chimeOn to time on notS2">
<path fill="none" stroke="#000000" d="M541.4636,-638.2844C546.5517,-643.4022 551.2109,-649.3948 554,-656 571.6314,-697.7547 560.9444,-719.5539 534,-756 529.4725,-762.1241 523.5674,-767.3772 517.2018,-771.826"/>
<polygon fill="#000000" stroke="#000000" points="514.9309,-769.119 508.3222,-777.4001 518.6526,-775.0477 514.9309,-769.119"/>
</a>
</g>
<text text-anchor="middle" x="579.3379" y="-701.8" font-family="Times,serif" font-size="14.00" fill="#000000">notS2</text>
</g>
<!-- DigitalWatch_sm_bothOn -->
<g id="node10" class="node">
<title>DigitalWatch_sm_bothOn</title>
<g id="a_node10"><a xlink:title="Class DigitalWatch, SM sm, State bothOn">
<path fill="none" stroke="#000000" d="M541,-552C541,-552 493,-552 493,-552 487,-552 481,-546 481,-540 481,-540 481,-528 481,-528 481,-522 487,-516 493,-516 493,-516 541,-516 541,-516 547,-516 553,-522 553,-528 553,-528 553,-540 553,-540 553,-546 547,-552 541,-552"/>
<text text-anchor="middle" x="517" y="-529.8" font-family="Times,serif" font-size="14.00" fill="#000000">bothOn</text>
</a>
</g>
</g>
<!-- DigitalWatch_sm_chimeOn&#45;&gt;DigitalWatch_sm_bothOn -->
<g id="edge30" class="edge">
<title>DigitalWatch_sm_chimeOn&#45;&gt;DigitalWatch_sm_bothOn</title>
<g id="a_edge30"><a xlink:title="From chimeOn to bothOn on s1">
<path fill="none" stroke="#000000" d="M517,-601.7616C517,-590.3597 517,-575.4342 517,-562.494"/>
<polygon fill="#000000" stroke="#000000" points="520.5001,-562.2121 517,-552.2121 513.5001,-562.2121 520.5001,-562.2121"/>
</a>
</g>
<text text-anchor="middle" x="523.2241" y="-572.8" font-family="Times,serif" font-size="14.00" fill="#000000">s1</text>
</g>
<!-- DigitalWatch_sm_bothOn&#45;&gt;DigitalWatch_sm_time -->
<g id="edge9" class="edge">
<title>DigitalWatch_sm_bothOn&#45;&gt;DigitalWatch_sm_time</title>
<g id="a_edge9"><a xlink:title="From bothOn to time on notS2">
<path fill="none" stroke="#000000" d="M533.2805,-552.0999C543.7339,-564.9942 556.3706,-583.2927 562,-602 566.6105,-617.3213 565.7286,-622.4405 562,-638 548.2892,-695.2149 534.3693,-706.87 502,-756 499.797,-759.3438 497.3321,-762.7325 494.7875,-766.0253"/>
<polygon fill="#000000" stroke="#000000" points="491.9618,-763.9537 488.4019,-773.9326 497.4077,-768.3516 491.9618,-763.9537"/>
</a>
</g>
<text text-anchor="middle" x="574.3379" y="-658.8" font-family="Times,serif" font-size="14.00" fill="#000000">notS2</text>
</g>
<!-- DigitalWatch_sm_alarmOn -->
<g id="node11" class="node">
<title>DigitalWatch_sm_alarmOn</title>
<g id="a_node11"><a xlink:title="Class DigitalWatch, SM sm, State alarmOn">
<path fill="none" stroke="#000000" d="M477,-466C477,-466 429,-466 429,-466 423,-466 417,-460 417,-454 417,-454 417,-442 417,-442 417,-436 423,-430 429,-430 429,-430 477,-430 477,-430 483,-430 489,-436 489,-442 489,-442 489,-454 489,-454 489,-460 483,-466 477,-466"/>
<text text-anchor="middle" x="453" y="-443.8" font-family="Times,serif" font-size="14.00" fill="#000000">alarmOn</text>
</a>
</g>
</g>
<!-- DigitalWatch_sm_bothOn&#45;&gt;DigitalWatch_sm_alarmOn -->
<g id="edge31" class="edge">
<title>DigitalWatch_sm_bothOn&#45;&gt;DigitalWatch_sm_alarmOn</title>
<g id="a_edge31"><a xlink:title="From bothOn to alarmOn on s1">
<path fill="none" stroke="#000000" d="M503.4272,-515.7616C494.5178,-503.7896 482.7174,-487.9328 472.7719,-474.5685"/>
<polygon fill="#000000" stroke="#000000" points="475.3312,-472.1449 466.5532,-466.2121 469.7155,-476.324 475.3312,-472.1449"/>
</a>
</g>
<text text-anchor="middle" x="495.2241" y="-486.8" font-family="Times,serif" font-size="14.00" fill="#000000">s1</text>
</g>
<!-- DigitalWatch_sm_alarmOn&#45;&gt;DigitalWatch_sm_time -->
<g id="edge10" class="edge">
<title>DigitalWatch_sm_alarmOn&#45;&gt;DigitalWatch_sm_time</title>
<g id="a_edge10"><a xlink:title="From alarmOn to time on notS2">
<path fill="none" stroke="#000000" d="M429.9385,-466.2185C412.6644,-482.0668 392,-506.7255 392,-534 392,-706 392,-706 392,-706 392,-731.6936 411.3799,-752.9284 431.0626,-767.8694"/>
<polygon fill="#000000" stroke="#000000" points="429.2925,-770.9066 439.4609,-773.8819 433.3673,-765.2148 429.2925,-770.9066"/>
</a>
</g>
<text text-anchor="middle" x="408.3379" y="-615.8" font-family="Times,serif" font-size="14.00" fill="#000000">notS2</text>
</g>
<!-- DigitalWatch_sm_alarmOn&#45;&gt;DigitalWatch_sm_bothOff -->
<g id="edge28" class="edge">
<title>DigitalWatch_sm_alarmOn&#45;&gt;DigitalWatch_sm_bothOff</title>
<g id="a_edge28"><a xlink:title="From alarmOn to bothOff on s1">
<path fill="none" stroke="#000000" d="M453.2107,-466.122C453.7258,-510.4188 455.0517,-624.4447 455.6715,-677.7484"/>
<polygon fill="#000000" stroke="#000000" points="452.1729,-677.8993 455.789,-687.8579 459.1724,-677.8179 452.1729,-677.8993"/>
</a>
</g>
<text text-anchor="middle" x="461.2241" y="-572.8" font-family="Times,serif" font-size="14.00" fill="#000000">s1</text>
</g>
<!-- DigitalWatch_sm_alarmHour -->
<g id="node13" class="node">
<title>DigitalWatch_sm_alarmHour</title>
<g id="a_node13"><a xlink:title="Class DigitalWatch, SM sm, State alarmHour">
<path fill="none" stroke="#000000" d="M835.1424,-638C835.1424,-638 782.8576,-638 782.8576,-638 776.8576,-638 770.8576,-632 770.8576,-626 770.8576,-626 770.8576,-614 770.8576,-614 770.8576,-608 776.8576,-602 782.8576,-602 782.8576,-602 835.1424,-602 835.1424,-602 841.1424,-602 847.1424,-608 847.1424,-614 847.1424,-614 847.1424,-626 847.1424,-626 847.1424,-632 841.1424,-638 835.1424,-638"/>
<text text-anchor="middle" x="809" y="-615.8" font-family="Times,serif" font-size="14.00" fill="#000000">alarmHour</text>
</a>
</g>
</g>
<!-- DigitalWatch_sm_alarmTime&#45;&gt;DigitalWatch_sm_alarmHour -->
<g id="edge33" class="edge">
<title>DigitalWatch_sm_alarmTime&#45;&gt;DigitalWatch_sm_alarmHour</title>
<g id="a_edge33"><a xlink:title="From alarmTime to alarmHour on s2&#13;Transition Action:&#10; &#160;&#160;&#160;&#160;alarmHour++;">
<path fill="none" stroke="#000000" d="M787.726,-687.7616C791.3415,-676.2456 796.0854,-661.1353 800.1759,-648.1064"/>
<polygon fill="#000000" stroke="#000000" points="803.6261,-648.8014 803.2822,-638.2121 796.9475,-646.7045 803.6261,-648.8014"/>
</a>
</g>
<text text-anchor="middle" x="849.8301" y="-658.8" font-family="Times,serif" font-size="14.00" fill="#000000">s2 / alarmHour++;</text>
</g>
<!-- DigitalWatch_sm_alarmMinute -->
<g id="node14" class="node">
<title>DigitalWatch_sm_alarmMinute</title>
<g id="a_node14"><a xlink:title="Class DigitalWatch, SM sm, State alarmMinute">
<path fill="none" stroke="#000000" d="M896.3111,-552C896.3111,-552 831.6889,-552 831.6889,-552 825.6889,-552 819.6889,-546 819.6889,-540 819.6889,-540 819.6889,-528 819.6889,-528 819.6889,-522 825.6889,-516 831.6889,-516 831.6889,-516 896.3111,-516 896.3111,-516 902.3111,-516 908.3111,-522 908.3111,-528 908.3111,-528 908.3111,-540 908.3111,-540 908.3111,-546 902.3111,-552 896.3111,-552"/>
<text text-anchor="middle" x="864" y="-529.8" font-family="Times,serif" font-size="14.00" fill="#000000">alarmMinute</text>
</a>
</g>
</g>
<!-- DigitalWatch_sm_alarmTime&#45;&gt;DigitalWatch_sm_alarmMinute -->
<g id="edge36" class="edge">
<title>DigitalWatch_sm_alarmTime&#45;&gt;DigitalWatch_sm_alarmMinute</title>
<g id="a_edge36"><a xlink:title="From alarmTime to alarmMinute on s1">
<path fill="none" stroke="#000000" d="M820.4537,-698.3728C872.1721,-687.2072 959.6818,-664.8012 977,-638 998.635,-604.5182 956.4544,-574.6712 917.6199,-555.634"/>
<polygon fill="#000000" stroke="#000000" points="918.9158,-552.3754 908.3791,-551.2676 915.9252,-558.7044 918.9158,-552.3754"/>
</a>
</g>
<text text-anchor="middle" x="988.2241" y="-615.8" font-family="Times,serif" font-size="14.00" fill="#000000">s1</text>
</g>
<!-- DigitalWatch_sm_second -->
<g id="node15" class="node">
<title>DigitalWatch_sm_second</title>
<g id="a_node15"><a xlink:title="Class DigitalWatch, SM sm, State second">
<path fill="none" stroke="#000000" d="M841,-466C841,-466 793,-466 793,-466 787,-466 781,-460 781,-454 781,-454 781,-442 781,-442 781,-436 787,-430 793,-430 793,-430 841,-430 841,-430 847,-430 853,-436 853,-442 853,-442 853,-454 853,-454 853,-460 847,-466 841,-466"/>
<text text-anchor="middle" x="817" y="-443.8" font-family="Times,serif" font-size="14.00" fill="#000000">second</text>
</a>
</g>
</g>
<!-- DigitalWatch_sm_alarmTime&#45;&gt;DigitalWatch_sm_second -->
<g id="edge39" class="edge">
<title>DigitalWatch_sm_alarmTime&#45;&gt;DigitalWatch_sm_second</title>
<g id="a_edge39"><a xlink:title="From alarmTime to second on s3">
<path fill="none" stroke="#000000" d="M775.1158,-687.8451C770.3719,-674.3259 764.4907,-655.2955 762,-638 753.4403,-578.5612 782.2391,-511.6691 801.3515,-475.2419"/>
<polygon fill="#000000" stroke="#000000" points="804.5436,-476.6962 806.2096,-466.2332 798.3824,-473.3736 804.5436,-476.6962"/>
</a>
</g>
<text text-anchor="middle" x="772.2241" y="-572.8" font-family="Times,serif" font-size="14.00" fill="#000000">s3</text>
</g>
<!-- DigitalWatch_sm_alarmHour&#45;&gt;DigitalWatch_sm_alarmHour -->
<g id="edge34" class="edge">
<title>DigitalWatch_sm_alarmHour&#45;&gt;DigitalWatch_sm_alarmHour</title>
<g id="a_edge34"><a xlink:title="From alarmHour to alarmHour on s2&#13;Transition Action:&#10; &#160;&#160;&#160;&#160;alarmHour++;">
<path fill="none" stroke="#000000" d="M847.1691,-627.8168C857.478,-627.4044 865.3208,-624.7988 865.3208,-620 865.3208,-617.0007 862.2572,-614.8582 857.4427,-613.5724"/>
<polygon fill="#000000" stroke="#000000" points="857.5479,-610.0548 847.1691,-612.1832 856.6099,-616.9917 857.5479,-610.0548"/>
</a>
</g>
<text text-anchor="middle" x="917.1509" y="-615.8" font-family="Times,serif" font-size="14.00" fill="#000000">s2 / alarmHour++;</text>
</g>
<!-- DigitalWatch_sm_alarmHour&#45;&gt;DigitalWatch_sm_alarmMinute -->
<g id="edge37" class="edge">
<title>DigitalWatch_sm_alarmHour&#45;&gt;DigitalWatch_sm_alarmMinute</title>
<g id="a_edge37"><a xlink:title="From alarmHour to alarmMinute on s1">
<path fill="none" stroke="#000000" d="M826.3962,-601.6851C831.1225,-596.2264 836.0271,-590.0743 840,-584 844.5952,-576.9742 848.8442,-568.9345 852.4497,-561.3863"/>
<polygon fill="#000000" stroke="#000000" points="855.6741,-562.7514 856.6504,-552.2016 849.3082,-559.84 855.6741,-562.7514"/>
</a>
</g>
<text text-anchor="middle" x="854.2241" y="-572.8" font-family="Times,serif" font-size="14.00" fill="#000000">s1</text>
</g>
<!-- DigitalWatch_sm_alarmHour&#45;&gt;DigitalWatch_sm_second -->
<g id="edge40" class="edge">
<title>DigitalWatch_sm_alarmHour&#45;&gt;DigitalWatch_sm_second</title>
<g id="a_edge40"><a xlink:title="From alarmHour to second on s3">
<path fill="none" stroke="#000000" d="M804.6383,-601.9222C800.2151,-581.144 794.5493,-546.0391 798.5518,-516 800.344,-502.5487 804.0474,-487.9857 807.6689,-475.8007"/>
<polygon fill="#000000" stroke="#000000" points="811.0267,-476.7892 810.648,-466.2011 804.3412,-474.7144 811.0267,-476.7892"/>
</a>
</g>
<text text-anchor="middle" x="805.2241" y="-529.8" font-family="Times,serif" font-size="14.00" fill="#000000">s3</text>
</g>
<!-- DigitalWatch_sm_alarmMinute&#45;&gt;DigitalWatch_sm_alarmHour -->
<g id="edge35" class="edge">
<title>DigitalWatch_sm_alarmMinute&#45;&gt;DigitalWatch_sm_alarmHour</title>
<g id="a_edge35"><a xlink:title="From alarmMinute to alarmHour on s1">
<path fill="none" stroke="#000000" d="M842.6179,-552.0411C837.1764,-557.4036 831.7014,-563.5746 827.5518,-570 823.151,-576.8141 819.5896,-584.8201 816.8085,-592.4043"/>
<polygon fill="#000000" stroke="#000000" points="813.4533,-591.4017 813.5969,-601.9956 820.091,-593.6244 813.4533,-591.4017"/>
</a>
</g>
<text text-anchor="middle" x="834.2241" y="-572.8" font-family="Times,serif" font-size="14.00" fill="#000000">s1</text>
</g>
<!-- DigitalWatch_sm_alarmMinute&#45;&gt;DigitalWatch_sm_alarmMinute -->
<g id="edge38" class="edge">
<title>DigitalWatch_sm_alarmMinute&#45;&gt;DigitalWatch_sm_alarmMinute</title>
<g id="a_edge38"><a xlink:title="From alarmMinute to alarmMinute on s2&#13;Transition Action:&#10; &#160;&#160;&#160;&#160;alarmMinute++;">
<path fill="none" stroke="#000000" d="M908.4168,-541.7015C918.6432,-541.0379 926.1553,-538.4707 926.1553,-534 926.1553,-531.2058 923.2209,-529.1552 918.5234,-527.8481"/>
<polygon fill="#000000" stroke="#000000" points="918.8318,-524.3546 908.4168,-526.2985 917.7708,-531.2737 918.8318,-524.3546"/>
</a>
</g>
<text text-anchor="middle" x="983.8198" y="-529.8" font-family="Times,serif" font-size="14.00" fill="#000000">s2 / alarmMinute++;</text>
</g>
<!-- DigitalWatch_sm_alarmMinute&#45;&gt;DigitalWatch_sm_second -->
<g id="edge41" class="edge">
<title>DigitalWatch_sm_alarmMinute&#45;&gt;DigitalWatch_sm_second</title>
<g id="a_edge41"><a xlink:title="From alarmMinute to second on s3">
<path fill="none" stroke="#000000" d="M854.0325,-515.7616C847.6143,-504.0176 839.1531,-488.5355 831.9388,-475.3349"/>
<polygon fill="#000000" stroke="#000000" points="834.8201,-473.3087 826.9531,-466.2121 828.6776,-476.6657 834.8201,-473.3087"/>
</a>
</g>
<text text-anchor="middle" x="850.2241" y="-486.8" font-family="Times,serif" font-size="14.00" fill="#000000">s3</text>
</g>
<!-- DigitalWatch_sm_second&#45;&gt;DigitalWatch_sm_time -->
<g id="edge11" class="edge">
<title>DigitalWatch_sm_second&#45;&gt;DigitalWatch_sm_time</title>
<g id="a_edge11"><a xlink:title="From second to time on s3">
<path fill="none" stroke="#000000" d="M853.0286,-453.2117C912.3256,-462.6077 1026.2995,-484.3939 1050,-516 1085.3614,-563.1566 1038.1014,-594.8022 998,-638 935.4259,-705.4058 914.3432,-724.3154 828,-756 772.2835,-776.4458 601.4096,-786.4261 518.3248,-790.1733"/>
<polygon fill="#000000" stroke="#000000" points="517.9984,-786.6841 508.1618,-790.6202 518.306,-793.6774 517.9984,-786.6841"/>
</a>
</g>
<text text-anchor="middle" x="1038.2241" y="-615.8" font-family="Times,serif" font-size="14.00" fill="#000000">s3</text>
</g>
<!-- DigitalWatch_sm_second&#45;&gt;DigitalWatch_sm_second -->
<g id="edge42" class="edge">
<title>DigitalWatch_sm_second&#45;&gt;DigitalWatch_sm_second</title>
<g id="a_edge42"><a xlink:title="From second to second on s2&#13;Transition Action:&#10; &#160;&#160;&#160;&#160;secondzero();">
<path fill="none" stroke="#000000" d="M853.0873,-455.8361C863.2211,-455.4929 871,-452.8809 871,-448 871,-444.9495 867.9614,-442.7852 863.2083,-441.5072"/>
<polygon fill="#000000" stroke="#000000" points="863.4609,-438.0101 853.0873,-440.1639 862.5399,-444.9492 863.4609,-438.0101"/>
</a>
</g>
<text text-anchor="middle" x="920.7588" y="-443.8" font-family="Times,serif" font-size="14.00" fill="#000000">s2 / secondzero();</text>
</g>
<!-- DigitalWatch_sm_minute -->
<g id="node16" class="node">
<title>DigitalWatch_sm_minute</title>
<g id="a_node16"><a xlink:title="Class DigitalWatch, SM sm, State minute">
<path fill="none" stroke="#000000" d="M753,-380C753,-380 705,-380 705,-380 699,-380 693,-374 693,-368 693,-368 693,-356 693,-356 693,-350 699,-344 705,-344 705,-344 753,-344 753,-344 759,-344 765,-350 765,-356 765,-356 765,-368 765,-368 765,-374 759,-380 753,-380"/>
<text text-anchor="middle" x="729" y="-357.8" font-family="Times,serif" font-size="14.00" fill="#000000">minute</text>
</a>
</g>
</g>
<!-- DigitalWatch_sm_second&#45;&gt;DigitalWatch_sm_minute -->
<g id="edge44" class="edge">
<title>DigitalWatch_sm_second&#45;&gt;DigitalWatch_sm_minute</title>
<g id="a_edge44"><a xlink:title="From second to minute on s1">
<path fill="none" stroke="#000000" d="M798.3375,-429.7616C785.737,-417.4475 768.9311,-401.0235 755.0207,-387.4293"/>
<polygon fill="#000000" stroke="#000000" points="757.2338,-384.6983 747.6356,-380.2121 752.3413,-389.7046 757.2338,-384.6983"/>
</a>
</g>
<text text-anchor="middle" x="785.2241" y="-400.8" font-family="Times,serif" font-size="14.00" fill="#000000">s1</text>
</g>
<!-- DigitalWatch_sm_minute&#45;&gt;DigitalWatch_sm_time -->
<g id="edge12" class="edge">
<title>DigitalWatch_sm_minute&#45;&gt;DigitalWatch_sm_time</title>
<g id="a_edge12"><a xlink:title="From minute to time on s3">
<path fill="none" stroke="#000000" d="M720.8747,-380.0462C713.9121,-397.173 705,-423.8184 705,-448 705,-706 705,-706 705,-706 705,-731.0471 699.2131,-741.2086 679,-756 654.0245,-774.2764 571.2112,-784.141 518.208,-788.7153"/>
<polygon fill="#000000" stroke="#000000" points="517.7068,-785.2448 508.0308,-789.5605 518.2862,-792.2208 517.7068,-785.2448"/>
</a>
</g>
<text text-anchor="middle" x="711.2241" y="-572.8" font-family="Times,serif" font-size="14.00" fill="#000000">s3</text>
</g>
<!-- DigitalWatch_sm_minute&#45;&gt;DigitalWatch_sm_minute -->
<g id="edge45" class="edge">
<title>DigitalWatch_sm_minute&#45;&gt;DigitalWatch_sm_minute</title>
<g id="a_edge45"><a xlink:title="From minute to minute on s2&#13;Transition Action:&#10; &#160;&#160;&#160;&#160;minute++;">
<path fill="none" stroke="#000000" d="M765.0873,-369.8361C775.2211,-369.4929 783,-366.8809 783,-362 783,-358.9495 779.9614,-356.7852 775.2083,-355.5072"/>
<polygon fill="#000000" stroke="#000000" points="775.4609,-352.0101 765.0873,-354.1639 774.5399,-358.9492 775.4609,-352.0101"/>
</a>
</g>
<text text-anchor="middle" x="823.9507" y="-357.8" font-family="Times,serif" font-size="14.00" fill="#000000">s2 / minute++;</text>
</g>
<!-- DigitalWatch_sm_hour -->
<g id="node17" class="node">
<title>DigitalWatch_sm_hour</title>
<g id="a_node17"><a xlink:title="Class DigitalWatch, SM sm, State hour">
<path fill="none" stroke="#000000" d="M753,-294C753,-294 705,-294 705,-294 699,-294 693,-288 693,-282 693,-282 693,-270 693,-270 693,-264 699,-258 705,-258 705,-258 753,-258 753,-258 759,-258 765,-264 765,-270 765,-270 765,-282 765,-282 765,-288 759,-294 753,-294"/>
<text text-anchor="middle" x="729" y="-271.8" font-family="Times,serif" font-size="14.00" fill="#000000">hour</text>
</a>
</g>
</g>
<!-- DigitalWatch_sm_minute&#45;&gt;DigitalWatch_sm_hour -->
<g id="edge46" class="edge">
<title>DigitalWatch_sm_minute&#45;&gt;DigitalWatch_sm_hour</title>
<g id="a_edge46"><a xlink:title="From minute to hour on s1">
<path fill="none" stroke="#000000" d="M729,-343.7616C729,-332.3597 729,-317.4342 729,-304.494"/>
<polygon fill="#000000" stroke="#000000" points="732.5001,-304.2121 729,-294.2121 725.5001,-304.2121 732.5001,-304.2121"/>
</a>
</g>
<text text-anchor="middle" x="735.2241" y="-314.8" font-family="Times,serif" font-size="14.00" fill="#000000">s1</text>
</g>
<!-- DigitalWatch_sm_hour&#45;&gt;DigitalWatch_sm_time -->
<g id="edge13" class="edge">
<title>DigitalWatch_sm_hour&#45;&gt;DigitalWatch_sm_time</title>
<g id="a_edge13"><a xlink:title="From hour to time on s3">
<path fill="none" stroke="#000000" d="M704.439,-294.2968C686.3906,-310.0156 665,-334.4554 665,-362 665,-706 665,-706 665,-706 665,-730.6496 660.3732,-740.7591 641,-756 622.2286,-770.7675 561.4238,-781.0922 518.1385,-786.7875"/>
<polygon fill="#000000" stroke="#000000" points="517.5736,-783.3311 508.0966,-788.0679 518.459,-790.2749 517.5736,-783.3311"/>
</a>
</g>
<text text-anchor="middle" x="671.2241" y="-529.8" font-family="Times,serif" font-size="14.00" fill="#000000">s3</text>
</g>
<!-- DigitalWatch_sm_hour&#45;&gt;DigitalWatch_sm_hour -->
<g id="edge47" class="edge">
<title>DigitalWatch_sm_hour&#45;&gt;DigitalWatch_sm_hour</title>
<g id="a_edge47"><a xlink:title="From hour to hour on s2&#13;Transition Action:&#10; &#160;&#160;&#160;&#160;hour++;">
<path fill="none" stroke="#000000" d="M765.0873,-283.8361C775.2211,-283.4929 783,-280.8809 783,-276 783,-272.9495 779.9614,-270.7852 775.2083,-269.5072"/>
<polygon fill="#000000" stroke="#000000" points="775.4609,-266.0101 765.0873,-268.1639 774.5399,-272.9492 775.4609,-266.0101"/>
</a>
</g>
<text text-anchor="middle" x="817.3403" y="-271.8" font-family="Times,serif" font-size="14.00" fill="#000000">s2 / hour++;</text>
</g>
<!-- DigitalWatch_sm_month -->
<g id="node18" class="node">
<title>DigitalWatch_sm_month</title>
<g id="a_node18"><a xlink:title="Class DigitalWatch, SM sm, State month">
<path fill="none" stroke="#000000" d="M755,-208C755,-208 707,-208 707,-208 701,-208 695,-202 695,-196 695,-196 695,-184 695,-184 695,-178 701,-172 707,-172 707,-172 755,-172 755,-172 761,-172 767,-178 767,-184 767,-184 767,-196 767,-196 767,-202 761,-208 755,-208"/>
<text text-anchor="middle" x="731" y="-185.8" font-family="Times,serif" font-size="14.00" fill="#000000">month</text>
</a>
</g>
</g>
<!-- DigitalWatch_sm_hour&#45;&gt;DigitalWatch_sm_month -->
<g id="edge48" class="edge">
<title>DigitalWatch_sm_hour&#45;&gt;DigitalWatch_sm_month</title>
<g id="a_edge48"><a xlink:title="From hour to month on s1">
<path fill="none" stroke="#000000" d="M729.4241,-257.7616C729.6893,-246.3597 730.0364,-231.4342 730.3373,-218.494"/>
<polygon fill="#000000" stroke="#000000" points="733.8429,-218.2908 730.5765,-208.2121 726.8448,-218.128 733.8429,-218.2908"/>
</a>
</g>
<text text-anchor="middle" x="737.2241" y="-228.8" font-family="Times,serif" font-size="14.00" fill="#000000">s1</text>
</g>
<!-- DigitalWatch_sm_month&#45;&gt;DigitalWatch_sm_time -->
<g id="edge14" class="edge">
<title>DigitalWatch_sm_month&#45;&gt;DigitalWatch_sm_time</title>
<g id="a_edge14"><a xlink:title="From month to time on s3">
<path fill="none" stroke="#000000" d="M767.0525,-190.6286C861.1622,-193.2395 1107,-206.6928 1107,-276 1107,-706 1107,-706 1107,-706 1107,-765.4136 664.8293,-785.5546 518.4398,-790.5946"/>
<polygon fill="#000000" stroke="#000000" points="518.2977,-787.0973 508.4211,-790.9318 518.5332,-794.0934 518.2977,-787.0973"/>
</a>
</g>
<text text-anchor="middle" x="1113.2241" y="-486.8" font-family="Times,serif" font-size="14.00" fill="#000000">s3</text>
</g>
<!-- DigitalWatch_sm_month&#45;&gt;DigitalWatch_sm_month -->
<g id="edge49" class="edge">
<title>DigitalWatch_sm_month&#45;&gt;DigitalWatch_sm_month</title>
<g id="a_edge49"><a xlink:title="From month to month on s2&#13;Transition Action:&#10; &#160;&#160;&#160;&#160;month++;">
<path fill="none" stroke="#000000" d="M767.0873,-197.8361C777.2211,-197.4929 785,-194.8809 785,-190 785,-186.9495 781.9614,-184.7852 777.2083,-183.5072"/>
<polygon fill="#000000" stroke="#000000" points="777.4609,-180.0101 767.0873,-182.1639 776.5399,-186.9492 777.4609,-180.0101"/>
</a>
</g>
<text text-anchor="middle" x="824.3989" y="-185.8" font-family="Times,serif" font-size="14.00" fill="#000000">s2 / month++;</text>
</g>
<!-- DigitalWatch_sm_day -->
<g id="node19" class="node">
<title>DigitalWatch_sm_day</title>
<g id="a_node19"><a xlink:title="Class DigitalWatch, SM sm, State day">
<path fill="none" stroke="#000000" d="M755,-122C755,-122 707,-122 707,-122 701,-122 695,-116 695,-110 695,-110 695,-98 695,-98 695,-92 701,-86 707,-86 707,-86 755,-86 755,-86 761,-86 767,-92 767,-98 767,-98 767,-110 767,-110 767,-116 761,-122 755,-122"/>
<text text-anchor="middle" x="731" y="-99.8" font-family="Times,serif" font-size="14.00" fill="#000000">day</text>
</a>
</g>
</g>
<!-- DigitalWatch_sm_month&#45;&gt;DigitalWatch_sm_day -->
<g id="edge50" class="edge">
<title>DigitalWatch_sm_month&#45;&gt;DigitalWatch_sm_day</title>
<g id="a_edge50"><a xlink:title="From month to day on s1">
<path fill="none" stroke="#000000" d="M731,-171.7616C731,-160.3597 731,-145.4342 731,-132.494"/>
<polygon fill="#000000" stroke="#000000" points="734.5001,-132.2121 731,-122.2121 727.5001,-132.2121 734.5001,-132.2121"/>
</a>
</g>
<text text-anchor="middle" x="737.2241" y="-142.8" font-family="Times,serif" font-size="14.00" fill="#000000">s1</text>
</g>
<!-- DigitalWatch_sm_day&#45;&gt;DigitalWatch_sm_time -->
<g id="edge15" class="edge">
<title>DigitalWatch_sm_day&#45;&gt;DigitalWatch_sm_time</title>
<g id="a_edge15"><a xlink:title="From day to time on s3">
<path fill="none" stroke="#000000" d="M694.946,-114.8954C662.2048,-127.2856 619,-151.0204 619,-190 619,-491 619,-491 619,-491 619,-594.8993 652.2735,-634.2083 600,-724 582.5972,-753.8932 546.9783,-771.2896 517.7233,-780.9909"/>
<polygon fill="#000000" stroke="#000000" points="516.589,-777.6782 508.0815,-783.9928 518.6699,-784.3618 516.589,-777.6782"/>
</a>
</g>
<text text-anchor="middle" x="625.2241" y="-443.8" font-family="Times,serif" font-size="14.00" fill="#000000">s3</text>
</g>
<!-- DigitalWatch_sm_day&#45;&gt;DigitalWatch_sm_day -->
<g id="edge51" class="edge">
<title>DigitalWatch_sm_day&#45;&gt;DigitalWatch_sm_day</title>
<g id="a_edge51"><a xlink:title="From day to day on s2&#13;Transition Action:&#10; &#160;&#160;&#160;&#160;day++;">
<path fill="none" stroke="#000000" d="M767.0873,-111.8361C777.2211,-111.4929 785,-108.8809 785,-104 785,-100.9495 781.9614,-98.7852 777.2083,-97.5072"/>
<polygon fill="#000000" stroke="#000000" points="777.4609,-94.0101 767.0873,-96.1639 776.5399,-100.9492 777.4609,-94.0101"/>
</a>
</g>
<text text-anchor="middle" x="816.6162" y="-99.8" font-family="Times,serif" font-size="14.00" fill="#000000">s2 / day++;</text>
</g>
<!-- DigitalWatch_sm_year -->
<g id="node20" class="node">
<title>DigitalWatch_sm_year</title>
<g id="a_node20"><a xlink:title="Class DigitalWatch, SM sm, State year">
<path fill="none" stroke="#000000" d="M916,-36C916,-36 868,-36 868,-36 862,-36 856,-30 856,-24 856,-24 856,-12 856,-12 856,-6 862,0 868,0 868,0 916,0 916,0 922,0 928,-6 928,-12 928,-12 928,-24 928,-24 928,-30 922,-36 916,-36"/>
<text text-anchor="middle" x="892" y="-13.8" font-family="Times,serif" font-size="14.00" fill="#000000">year</text>
</a>
</g>
</g>
<!-- DigitalWatch_sm_day&#45;&gt;DigitalWatch_sm_year -->
<g id="edge52" class="edge">
<title>DigitalWatch_sm_day&#45;&gt;DigitalWatch_sm_year</title>
<g id="a_edge52"><a xlink:title="From day to year on s1">
<path fill="none" stroke="#000000" d="M764.7509,-85.9716C789.3307,-72.842 822.8094,-54.959 849.2578,-40.8313"/>
<polygon fill="#000000" stroke="#000000" points="851.1221,-43.8035 858.2936,-36.0047 847.824,-37.6291 851.1221,-43.8035"/>
</a>
</g>
<text text-anchor="middle" x="828.2241" y="-56.8" font-family="Times,serif" font-size="14.00" fill="#000000">s1</text>
</g>
<!-- DigitalWatch_sm_year&#45;&gt;DigitalWatch_sm_time -->
<g id="edge16" class="edge">
<title>DigitalWatch_sm_year&#45;&gt;DigitalWatch_sm_time</title>
<g id="a_edge16"><a xlink:title="From year to time on s3">
<path fill="none" stroke="#000000" d="M928.2487,-22.6172C998.2055,-32.5456 1145,-58.7679 1145,-104 1145,-706 1145,-706 1145,-706 1145,-766.248 1078.1209,-744.4007 1019,-756 923.5692,-774.7231 631.896,-786.4955 518.1282,-790.4824"/>
<polygon fill="#000000" stroke="#000000" points="517.8775,-786.9889 508.0047,-790.833 518.1199,-793.9847 517.8775,-786.9889"/>
</a>
</g>
<text text-anchor="middle" x="1151.2241" y="-400.8" font-family="Times,serif" font-size="14.00" fill="#000000">s3</text>
</g>
<!-- DigitalWatch_sm_year&#45;&gt;DigitalWatch_sm_second -->
<g id="edge43" class="edge">
<title>DigitalWatch_sm_year&#45;&gt;DigitalWatch_sm_second</title>
<g id="a_edge43"><a xlink:title="From year to second on s1">
<path fill="none" stroke="#000000" d="M892,-36.1199C892,-53.5241 892,-80.559 892,-104 892,-362 892,-362 892,-362 892,-386.9104 873.9056,-408.098 855.4921,-423.2101"/>
<polygon fill="#000000" stroke="#000000" points="852.8447,-420.8327 847.0732,-429.7175 857.1257,-426.3711 852.8447,-420.8327"/>
</a>
</g>
<text text-anchor="middle" x="898.2241" y="-228.8" font-family="Times,serif" font-size="14.00" fill="#000000">s1</text>
</g>
<!-- DigitalWatch_sm_year&#45;&gt;DigitalWatch_sm_year -->
<g id="edge53" class="edge">
<title>DigitalWatch_sm_year&#45;&gt;DigitalWatch_sm_year</title>
<g id="a_edge53"><a xlink:title="From year to year on s2&#13;Transition Action:&#10; &#160;&#160;&#160;&#160;year++;">
<path fill="none" stroke="#000000" d="M928.0873,-25.8361C938.2211,-25.4929 946,-22.8809 946,-18 946,-14.9495 942.9614,-12.7852 938.2083,-11.5072"/>
<polygon fill="#000000" stroke="#000000" points="938.4609,-8.0101 928.0873,-10.1639 937.5399,-14.9492 938.4609,-8.0101"/>
</a>
</g>
<text text-anchor="middle" x="979.5542" y="-13.8" font-family="Times,serif" font-size="14.00" fill="#000000">s2 / year++;</text>
</g>
</g>
</svg>
