<?xml version="1.0" encoding="UTF-8" standalone="no"?>
<!DOCTYPE svg PUBLIC "-//W3C//DTD SVG 1.1//EN"
 "http://www.w3.org/Graphics/SVG/1.1/DTD/svg11.dtd">
<!-- Generated by graphviz version 2.44.1 (20200629.0846)
 -->
<!-- Title: Dishwasher Pages: 1 -->
<svg width="1802pt" height="408pt"
 viewBox="0.00 0.00 1802.00 408.00" xmlns="http://www.w3.org/2000/svg" xmlns:xlink="http://www.w3.org/1999/xlink">
<g id="graph0" class="graph" transform="scale(1 1) rotate(0) translate(4 404)">
<title>Dishwasher</title>
<polygon fill="white" stroke="transparent" points="-4,4 -4,-404 1798,-404 1798,4 -4,4"/>
<g id="clust1" class="cluster">
<title>clusterDishwasher_doorSm</title>
<polygon fill="none" stroke="black" stroke-width="0.5" points="8,-103 8,-357.2 359,-357.2 359,-103 8,-103"/>
<text text-anchor="middle" x="183.5" y="-342" font-family="Times,serif" font-size="14.00">sm Dishwasher doorSm</text>
</g>
<g id="clust2" class="cluster">
<title>clusterDishwasher_core</title>
<polygon fill="none" stroke="black" stroke-width="0.5" points="367,-8 367,-392 1073,-392 1073,-8 367,-8"/>
<text text-anchor="middle" x="720" y="-376.8" font-family="Times,serif" font-size="14.00">sm Dishwasher core</text>
</g>
<g id="clust3" class="cluster">
<title>clusterDishwasher_core_active</title>
<path fill="none" stroke="black" stroke-width="0.5" d="M714,-16C714,-16 971,-16 971,-16 977,-16 983,-22 983,-28 983,-28 983,-349 983,-349 983,-355 977,-361 971,-361 971,-361 714,-361 714,-361 708,-361 702,-355 702,-349 702,-349 702,-28 702,-28 702,-22 708,-16 714,-16"/>
<text text-anchor="middle" x="842.5" y="-345.8" font-family="Times,serif" font-size="14.00">active</text>
</g>
<g id="clust4" class="cluster">
<title>clusterDishwasher_timingSm</title>
<polygon fill="none" stroke="black" stroke-width="0.5" points="1081,-103 1081,-357.2 1786,-357.2 1786,-103 1081,-103"/>
<text text-anchor="middle" x="1433.5" y="-342" font-family="Times,serif" font-size="14.00">sm Dishwasher timingSm</text>
</g>
<!-- start_Dishwasher_doorSm -->
<g id="node1" class="node">
<title>start_Dishwasher_doorSm</title>
<g id="a_node1"><a xlink:title="Class Dishwasher, SM doorSm, State start">
<ellipse fill="black" stroke="black" cx="126" cy="-296" rx="7.2" ry="7.2"/>
</a>
</g>
</g>
<!-- Dishwasher_doorSm_closed -->
<g id="node2" class="node">
<title>Dishwasher_doorSm_closed</title>
<g id="a_node2"><a xlink:title="Class Dishwasher, SM doorSm, State closed">
<path fill="none" stroke="black" d="M150,-234C150,-234 102,-234 102,-234 96,-234 90,-228 90,-222 90,-222 90,-210 90,-210 90,-204 96,-198 102,-198 102,-198 150,-198 150,-198 156,-198 162,-204 162,-210 162,-210 162,-222 162,-222 162,-228 156,-234 150,-234"/>
<text text-anchor="middle" x="126" y="-212.3" font-family="Times,serif" font-size="14.00">closed</text>
</a>
</g>
</g>
<!-- start_Dishwasher_doorSm&#45;&gt;Dishwasher_doorSm_closed -->
<g id="edge1" class="edge">
<title>start_Dishwasher_doorSm&#45;&gt;Dishwasher_doorSm_closed</title>
<g id="a_edge1"><a xlink:title="start to closed">
<path fill="none" stroke="black" d="M126,-288.62C126,-279.04 126,-260.38 126,-244.51"/>
<polygon fill="black" stroke="black" points="129.5,-244.11 126,-234.11 122.5,-244.11 129.5,-244.11"/>
</a>
</g>
</g>
<!-- Dishwasher_doorSm_open -->
<g id="node3" class="node">
<title>Dishwasher_doorSm_open</title>
<g id="a_node3"><a xlink:title="Class Dishwasher, SM doorSm, State open">
<path fill="none" stroke="black" d="M150,-147C150,-147 102,-147 102,-147 96,-147 90,-141 90,-135 90,-135 90,-123 90,-123 90,-117 96,-111 102,-111 102,-111 150,-111 150,-111 156,-111 162,-117 162,-123 162,-123 162,-135 162,-135 162,-141 156,-147 150,-147"/>
<text text-anchor="middle" x="126" y="-125.3" font-family="Times,serif" font-size="14.00">open</text>
</a>
</g>
</g>
<!-- Dishwasher_doorSm_closed&#45;&gt;Dishwasher_doorSm_open -->
<g id="edge3" class="edge">
<title>Dishwasher_doorSm_closed&#45;&gt;Dishwasher_doorSm_open</title>
<g id="a_edge3"><a xlink:title="From closed to open on openDoor&#13;Transition Action:&#10; &#160;&#160;&#160;&#160;paused = true;">
<path fill="none" stroke="black" d="M89.59,-211.62C68.74,-207.61 44.17,-198.89 31,-180 15.42,-157.65 48.61,-144.52 79.95,-137.37"/>
<polygon fill="black" stroke="black" points="80.93,-140.74 90,-135.26 79.49,-133.89 80.93,-140.74"/>
</a>
</g>
<text text-anchor="middle" x="103" y="-168.8" font-family="Times,serif" font-size="14.00">openDoor / paused = true;</text>
</g>
<!-- Dishwasher_doorSm_open&#45;&gt;Dishwasher_doorSm_closed -->
<g id="edge2" class="edge">
<title>Dishwasher_doorSm_open&#45;&gt;Dishwasher_doorSm_closed</title>
<g id="a_edge2"><a xlink:title="From open to closed on closeDoor&#13;Transition Action:&#10; &#160;&#160;&#160;&#160;paused = false;">
<path fill="none" stroke="black" d="M162.14,-146.83C168.91,-151.7 175.08,-157.72 179,-165 184.48,-175.18 179.29,-184.47 170.35,-192.2"/>
<polygon fill="black" stroke="black" points="168.05,-189.54 162.11,-198.31 172.23,-195.16 168.05,-189.54"/>
</a>
</g>
<text text-anchor="middle" x="256" y="-168.8" font-family="Times,serif" font-size="14.00">closeDoor / paused = false;</text>
</g>
<!-- start_Dishwasher_core -->
<g id="node4" class="node">
<title>start_Dishwasher_core</title>
<g id="a_node4"><a xlink:title="Class Dishwasher, SM core, State start">
<ellipse fill="black" stroke="black" cx="565" cy="-216" rx="7.2" ry="7.2"/>
</a>
</g>
</g>
<!-- Dishwasher_core_idle -->
<g id="node5" class="node">
<title>Dishwasher_core_idle</title>
<g id="a_node5"><a xlink:title="Class Dishwasher, SM core, State idle&#13;Entry:&#10; &#160;&#160;display(&quot;Enter cycle to run (n,f,r,c,q)&quot;);">
<path fill="none" stroke="black" d="M682,-147C682,-147 634,-147 634,-147 628,-147 622,-141 622,-135 622,-135 622,-123 622,-123 622,-117 628,-111 634,-111 634,-111 682,-111 682,-111 688,-111 694,-117 694,-123 694,-123 694,-135 694,-135 694,-141 688,-147 682,-147"/>
<text text-anchor="middle" x="658" y="-125.3" font-family="Times,serif" font-size="14.00">idle</text>
</a>
</g>
</g>
<!-- start_Dishwasher_core&#45;&gt;Dishwasher_core_idle -->
<g id="edge4" class="edge">
<title>start_Dishwasher_core&#45;&gt;Dishwasher_core_idle</title>
<g id="a_edge4"><a xlink:title="start to idle">
<path fill="none" stroke="black" d="M561.57,-209.46C555.94,-199.57 546.26,-178.64 556,-165 556.12,-164.84 585.01,-154.93 612.01,-145.7"/>
<polygon fill="black" stroke="black" points="613.48,-148.9 621.81,-142.35 611.22,-142.27 613.48,-148.9"/>
</a>
</g>
</g>
<!-- Dishwasher_coreActive_preWash -->
<g id="node7" class="node">
<title>Dishwasher_coreActive_preWash</title>
<g id="a_node7"><a xlink:title="Class Dishwasher, SM core, State active.preWash&#13;Entry:&#10; &#160;&#160;display(&quot;PREWASH&quot;);&#13;Entry:&#10; &#160;&#160;startTimer(minutesRemaining,WashTime+RinseTime);">
<path fill="none" stroke="black" d="M866,-234C866,-234 818,-234 818,-234 812,-234 806,-228 806,-222 806,-222 806,-210 806,-210 806,-204 812,-198 818,-198 818,-198 866,-198 866,-198 872,-198 878,-204 878,-210 878,-210 878,-222 878,-222 878,-228 872,-234 866,-234"/>
<text text-anchor="middle" x="842" y="-212.3" font-family="Times,serif" font-size="14.00">preWash</text>
</a>
</g>
</g>
<!-- Dishwasher_core_idle&#45;&gt;Dishwasher_coreActive_preWash -->
<g id="edge6" class="edge">
<title>Dishwasher_core_idle&#45;&gt;Dishwasher_coreActive_preWash</title>
<g id="a_edge6"><a xlink:title="From idle to active on normal&#13;Guard: &#160;[!paused]&#13;Transition Action:&#10; &#160;&#160;&#160;&#160;minutesRemaining = PrewashTime;">
<path fill="none" stroke="black" d="M621.66,-141.33C598.22,-150.46 574.58,-164.32 589,-180 596.96,-188.66 643.63,-191.76 691.99,-193.5"/>
<polygon fill="black" stroke="black" points="691.89,-197 702,-193.84 692.13,-190 691.89,-197"/>
</a>
</g>
<text text-anchor="middle" x="654" y="-168.8" font-family="Times,serif" font-size="14.00">normal [!paused] / {...}</text>
</g>
<!-- Dishwasher_coreActive_mainWash -->
<g id="node8" class="node">
<title>Dishwasher_coreActive_mainWash</title>
<g id="a_node8"><a xlink:title="Class Dishwasher, SM core, State active.mainWash&#13;Entry:&#10; &#160;&#160;display(&quot;MAIN WASH&quot;);&#13;Entry:&#10; &#160;&#160;startTimer(minutesRemaining,RinseTime);">
<path fill="none" stroke="black" d="M885.5,-147C885.5,-147 834.5,-147 834.5,-147 828.5,-147 822.5,-141 822.5,-135 822.5,-135 822.5,-123 822.5,-123 822.5,-117 828.5,-111 834.5,-111 834.5,-111 885.5,-111 885.5,-111 891.5,-111 897.5,-117 897.5,-123 897.5,-123 897.5,-135 897.5,-135 897.5,-141 891.5,-147 885.5,-147"/>
<text text-anchor="middle" x="860" y="-125.3" font-family="Times,serif" font-size="14.00">mainWash</text>
</a>
</g>
</g>
<!-- Dishwasher_core_idle&#45;&gt;Dishwasher_coreActive_mainWash -->
<g id="edge8" class="edge">
<title>Dishwasher_core_idle&#45;&gt;Dishwasher_coreActive_mainWash</title>
<g id="a_edge8"><a xlink:title="From idle to active.mainWash on fast&#13;Guard: &#160;[!paused]&#13;Transition Action:&#10; &#160;&#160;&#160;&#160;minutesRemaining = WashTime;">
<path fill="none" stroke="black" d="M694.11,-129C727.06,-129 775.99,-129 812.17,-129"/>
<polygon fill="black" stroke="black" points="812.49,-132.5 822.49,-129 812.49,-125.5 812.49,-132.5"/>
</a>
</g>
<text text-anchor="middle" x="758.25" y="-135.8" font-family="Times,serif" font-size="14.00">fast [!paused] / {...}</text>
</g>
<!-- Dishwasher_coreActive_rinsing -->
<g id="node9" class="node">
<title>Dishwasher_coreActive_rinsing</title>
<g id="a_node9"><a xlink:title="Class Dishwasher, SM core, State active.rinsing&#13;Entry:&#10; &#160;&#160;display(&quot;RINSING&quot;);&#13;Entry:&#10; &#160;&#160;startTimer(minutesRemaining,0);">
<path fill="none" stroke="black" d="M770,-60C770,-60 722,-60 722,-60 716,-60 710,-54 710,-48 710,-48 710,-36 710,-36 710,-30 716,-24 722,-24 722,-24 770,-24 770,-24 776,-24 782,-30 782,-36 782,-36 782,-48 782,-48 782,-54 776,-60 770,-60"/>
<text text-anchor="middle" x="746" y="-38.3" font-family="Times,serif" font-size="14.00">rinsing</text>
</a>
</g>
</g>
<!-- Dishwasher_core_idle&#45;&gt;Dishwasher_coreActive_rinsing -->
<g id="edge10" class="edge">
<title>Dishwasher_core_idle&#45;&gt;Dishwasher_coreActive_rinsing</title>
<g id="a_edge10"><a xlink:title="From idle to active.rinsing on rinse&#13;Guard: &#160;[!paused]&#13;Transition Action:&#10; &#160;&#160;&#160;&#160;minutesRemaining = RinseTime;">
<path fill="none" stroke="black" d="M623.82,-110.91C606.05,-102.03 588,-93 588,-93 584.5,-87.33 583.83,-83.2 588,-78 601.82,-60.78 658.23,-51.51 699.72,-46.92"/>
<polygon fill="black" stroke="black" points="700.34,-50.38 709.92,-45.85 699.61,-43.42 700.34,-50.38"/>
</a>
</g>
<text text-anchor="middle" x="647" y="-81.8" font-family="Times,serif" font-size="14.00">rinse [!paused] / {...}</text>
</g>
<!-- start_Dishwasher_coreActive -->
<g id="node6" class="node">
<title>start_Dishwasher_coreActive</title>
<g id="a_node6"><a xlink:title="Class Dishwasher, SM core, State active.start">
<ellipse fill="black" stroke="black" cx="717" cy="-296" rx="7.2" ry="7.2"/>
</a>
</g>
</g>
<!-- start_Dishwasher_coreActive&#45;&gt;Dishwasher_coreActive_preWash -->
<g id="edge7" class="edge">
<title>start_Dishwasher_coreActive&#45;&gt;Dishwasher_coreActive_preWash</title>
<g id="a_edge7"><a xlink:title="start to active.preWash">
<path fill="none" stroke="black" d="M714.65,-288.94C711.55,-279.83 707.43,-262.55 716,-252 738.6,-224.18 760.78,-242.12 796.13,-235.21"/>
<polygon fill="black" stroke="black" points="797.1,-238.57 805.93,-232.71 795.37,-231.79 797.1,-238.57"/>
</a>
</g>
</g>
<!-- Dishwasher_coreActive_preWash&#45;&gt;Dishwasher_coreActive_mainWash -->
<g id="edge9" class="edge">
<title>Dishwasher_coreActive_preWash&#45;&gt;Dishwasher_coreActive_mainWash</title>
<g id="a_edge9"><a xlink:title="From active.preWash to active.mainWash on timerEnded&#13;Guard: &#160;[minutesRemaining == 0]&#13;Transition Action:&#10; &#160;&#160;&#160;&#160;minutesRemaining=WashTime;">
<path fill="none" stroke="black" d="M805.91,-199.35C804.59,-198.88 803.29,-198.43 802,-198 767.82,-186.66 705.14,-192.82 728,-165 752.02,-135.76 775.38,-155.11 811.98,-148.47"/>
<polygon fill="black" stroke="black" points="813.23,-151.77 822.12,-146.01 811.58,-144.97 813.23,-151.77"/>
</a>
</g>
<text text-anchor="middle" x="851.5" y="-168.8" font-family="Times,serif" font-size="14.00">timerEnded [minutesRemaining == 0] / {...}</text>
</g>
<!-- Dishwasher_core_draining -->
<g id="node11" class="node">
<title>Dishwasher_core_draining</title>
<g id="a_node11"><a xlink:title="Class Dishwasher, SM core, State draining&#13;Entry:&#10; &#160;&#160;display(&quot;DRAINING&quot;);">
<path fill="none" stroke="black" d="M528,-234C528,-234 480,-234 480,-234 474,-234 468,-228 468,-222 468,-222 468,-210 468,-210 468,-204 474,-198 480,-198 480,-198 528,-198 528,-198 534,-198 540,-204 540,-210 540,-210 540,-222 540,-222 540,-228 534,-234 528,-234"/>
<text text-anchor="middle" x="504" y="-212.3" font-family="Times,serif" font-size="14.00">draining</text>
</a>
</g>
</g>
<!-- Dishwasher_coreActive_preWash&#45;&gt;Dishwasher_core_draining -->
<g id="edge13" class="edge">
<title>Dishwasher_coreActive_preWash&#45;&gt;Dishwasher_core_draining</title>
<g id="a_edge13"><a xlink:title="From active to draining on cancel&#13;Transition Action:&#10; &#160;&#160;&#160;&#160;display(&quot;CANCELLING&quot;);startTimer(1,0);">
<path fill="none" stroke="black" d="M702,-263.11C649.21,-257.62 588.49,-244.16 549.9,-233.92"/>
<polygon fill="black" stroke="black" points="550.67,-230.51 540.11,-231.26 548.84,-237.26 550.67,-230.51"/>
</a>
</g>
<text text-anchor="middle" x="753" y="-255.8" font-family="Times,serif" font-size="14.00">cancel / {...}</text>
</g>
<!-- Dishwasher_core_suspended -->
<g id="node12" class="node">
<title>Dishwasher_core_suspended</title>
<g id="a_node12"><a xlink:title="Class Dishwasher, SM core, State suspended&#13;Entry:&#10; &#160;&#160;display(&quot;SUSPENDED &#45; door open &quot;&#10; &#160;&#160;+(minutesRemaining+subsequentTime)+&quot; left&quot;);&#13;Exit:&#10; &#160;&#160;display(&quot;RESUMING&quot;);">
<path fill="none" stroke="black" d="M1052.5,-147C1052.5,-147 1003.5,-147 1003.5,-147 997.5,-147 991.5,-141 991.5,-135 991.5,-135 991.5,-123 991.5,-123 991.5,-117 997.5,-111 1003.5,-111 1003.5,-111 1052.5,-111 1052.5,-111 1058.5,-111 1064.5,-117 1064.5,-123 1064.5,-123 1064.5,-135 1064.5,-135 1064.5,-141 1058.5,-147 1052.5,-147"/>
<text text-anchor="middle" x="1028" y="-125.3" font-family="Times,serif" font-size="14.00">suspended</text>
</a>
</g>
</g>
<!-- Dishwasher_coreActive_preWash&#45;&gt;Dishwasher_core_suspended -->
<g id="edge15" class="edge">
<title>Dishwasher_coreActive_preWash&#45;&gt;Dishwasher_core_suspended</title>
<g id="a_edge15"><a xlink:title="From active to suspended on openDoor">
<path fill="none" stroke="black" d="M983,-175.93C992.3,-169.92 1000.86,-162.11 1007.96,-154.63"/>
<polygon fill="black" stroke="black" points="1010.72,-156.78 1014.82,-147.01 1005.53,-152.09 1010.72,-156.78"/>
</a>
</g>
<text text-anchor="middle" x="1023.5" y="-168.8" font-family="Times,serif" font-size="14.00">openDoor</text>
</g>
<!-- Dishwasher_coreActive_mainWash&#45;&gt;Dishwasher_coreActive_rinsing -->
<g id="edge11" class="edge">
<title>Dishwasher_coreActive_mainWash&#45;&gt;Dishwasher_coreActive_rinsing</title>
<g id="a_edge11"><a xlink:title="From active.mainWash to active.rinsing on timerEnded&#13;Guard: &#160;[minutesRemaining == 0]&#13;Transition Action:&#10; &#160;&#160;&#160;&#160;minutesRemaining=RinseTime;">
<path fill="none" stroke="black" d="M836.93,-110.8C819.7,-97.95 795.97,-80.26 777.07,-66.17"/>
<polygon fill="black" stroke="black" points="779.14,-63.35 769.04,-60.18 774.96,-68.96 779.14,-63.35"/>
</a>
</g>
<text text-anchor="middle" x="932.5" y="-81.8" font-family="Times,serif" font-size="14.00">timerEnded [minutesRemaining == 0] / {...}</text>
</g>
<!-- Dishwasher_coreActive_rinsing&#45;&gt;Dishwasher_core_draining -->
<g id="edge14" class="edge">
<title>Dishwasher_coreActive_rinsing&#45;&gt;Dishwasher_core_draining</title>
<g id="a_edge14"><a xlink:title="From active.rinsing to draining on timerEnded&#13;Guard: &#160;[minutesRemaining == 0]">
<path fill="none" stroke="black" d="M709.72,-43.69C629.5,-46.05 441.06,-56.54 402,-103 389.42,-117.97 392.77,-129.76 402,-147 414.07,-169.56 437.3,-185.92 458.54,-196.94"/>
<polygon fill="black" stroke="black" points="457.28,-200.22 467.8,-201.48 460.36,-193.93 457.28,-200.22"/>
</a>
</g>
<text text-anchor="middle" x="507.5" y="-125.3" font-family="Times,serif" font-size="14.00">timerEnded [minutesRemaining == 0]</text>
</g>
<!-- Dishwasher_coreActive_H -->
<g id="node10" class="node">
<title>Dishwasher_coreActive_H</title>
<g id="a_node10"><a xlink:title="Class Dishwasher, SM core, State active.H">
<ellipse fill="none" stroke="black" cx="964" cy="-296" rx="11" ry="11"/>
<text text-anchor="middle" x="964" y="-292.3" font-family="Times,serif" font-size="14.00">H</text>
</a>
</g>
</g>
<!-- Dishwasher_core_draining&#45;&gt;Dishwasher_core_idle -->
<g id="edge5" class="edge">
<title>Dishwasher_core_draining&#45;&gt;Dishwasher_core_idle</title>
<g id="a_edge5"><a xlink:title="From draining to idle after(1)">
<path fill="none" stroke="black" d="M499.71,-197.73C498.15,-187.06 498.34,-173.77 506,-165 521.14,-147.67 585.71,-152.72 608,-147 609.27,-146.67 610.56,-146.33 611.86,-145.97"/>
<polygon fill="black" stroke="black" points="613.28,-149.2 621.88,-143.01 611.29,-142.49 613.28,-149.2"/>
</a>
</g>
<text text-anchor="middle" x="526.5" y="-168.8" font-family="Times,serif" font-size="14.00">after(1)</text>
</g>
<!-- Dishwasher_core_suspended&#45;&gt;Dishwasher_coreActive_H -->
<g id="edge12" class="edge">
<title>Dishwasher_core_suspended&#45;&gt;Dishwasher_coreActive_H</title>
<g id="a_edge12"><a xlink:title="From suspended to active.H on closeDoor">
<path fill="none" stroke="black" d="M1046.17,-147.38C1054.09,-157.12 1060.29,-169.4 1054,-180 1045.47,-194.37 1033,-186.38 1021,-198 997.72,-220.55 980.67,-254.63 971.55,-275.81"/>
<polygon fill="black" stroke="black" points="968.21,-274.75 967.62,-285.33 974.67,-277.42 968.21,-274.75"/>
</a>
</g>
<text text-anchor="middle" x="1049" y="-212.3" font-family="Times,serif" font-size="14.00">closeDoor</text>
</g>
<!-- start_Dishwasher_timingSm -->
<g id="node13" class="node">
<title>start_Dishwasher_timingSm</title>
<g id="a_node13"><a xlink:title="Class Dishwasher, SM timingSm, State start">
<ellipse fill="black" stroke="black" cx="1378" cy="-296" rx="7.2" ry="7.2"/>
</a>
</g>
</g>
<!-- Dishwasher_timingSm_idle -->
<g id="node14" class="node">
<title>Dishwasher_timingSm_idle</title>
<g id="a_node14"><a xlink:title="Class Dishwasher, SM timingSm, State idle">
<path fill="none" stroke="black" d="M1402,-234C1402,-234 1354,-234 1354,-234 1348,-234 1342,-228 1342,-222 1342,-222 1342,-210 1342,-210 1342,-204 1348,-198 1354,-198 1354,-198 1402,-198 1402,-198 1408,-198 1414,-204 1414,-210 1414,-210 1414,-222 1414,-222 1414,-228 1408,-234 1402,-234"/>
<text text-anchor="middle" x="1378" y="-212.3" font-family="Times,serif" font-size="14.00">idle</text>
</a>
</g>
</g>
<!-- start_Dishwasher_timingSm&#45;&gt;Dishwasher_timingSm_idle -->
<g id="edge16" class="edge">
<title>start_Dishwasher_timingSm&#45;&gt;Dishwasher_timingSm_idle</title>
<g id="a_edge16"><a xlink:title="start to idle">
<path fill="none" stroke="black" d="M1378,-288.62C1378,-279.04 1378,-260.38 1378,-244.51"/>
<polygon fill="black" stroke="black" points="1381.5,-244.11 1378,-234.11 1374.5,-244.11 1381.5,-244.11"/>
</a>
</g>
</g>
<!-- Dishwasher_timingSm_countingDown -->
<g id="node15" class="node">
<title>Dishwasher_timingSm_countingDown</title>
<g id="a_node15"><a xlink:title="Class Dishwasher, SM timingSm, State countingDown&#13;Exit:&#10; &#160;&#160;timerEnded();">
<path fill="none" stroke="black" d="M1174.5,-147C1174.5,-147 1101.5,-147 1101.5,-147 1095.5,-147 1089.5,-141 1089.5,-135 1089.5,-135 1089.5,-123 1089.5,-123 1089.5,-117 1095.5,-111 1101.5,-111 1101.5,-111 1174.5,-111 1174.5,-111 1180.5,-111 1186.5,-117 1186.5,-123 1186.5,-123 1186.5,-135 1186.5,-135 1186.5,-141 1180.5,-147 1174.5,-147"/>
<text text-anchor="middle" x="1138" y="-125.3" font-family="Times,serif" font-size="14.00">countingDown</text>
</a>
</g>
</g>
<!-- Dishwasher_timingSm_idle&#45;&gt;Dishwasher_timingSm_countingDown -->
<g id="edge19" class="edge">
<title>Dishwasher_timingSm_idle&#45;&gt;Dishwasher_timingSm_countingDown</title>
<g id="a_edge19"><a xlink:title="From idle to countingDown on startTimer(int numMins,int subsequentMins)">
<path fill="none" stroke="black" d="M1341.92,-213.01C1271.12,-208.73 1119.49,-197.59 1104,-180 1097.15,-172.22 1100.65,-163 1107.52,-154.61"/>
<polygon fill="black" stroke="black" points="1110.22,-156.85 1114.59,-147.2 1105.16,-152.02 1110.22,-156.85"/>
</a>
</g>
<text text-anchor="middle" x="1228" y="-168.8" font-family="Times,serif" font-size="14.00">startTimer(int numMins,int subsequentMins)</text>
</g>
<!-- Dishwasher_timingSm_countingDown&#45;&gt;Dishwasher_timingSm_idle -->
<g id="edge17" class="edge">
<title>Dishwasher_timingSm_countingDown&#45;&gt;Dishwasher_timingSm_idle</title>
<g id="a_edge17"><a xlink:title="From countingDown to idle after(1.0)&#13;Guard: &#160;[minutesRemaining &lt;= 0]">
<path fill="none" stroke="black" d="M1186.55,-132.45C1242.54,-136.18 1330.22,-145.08 1356,-165 1363.34,-170.67 1368.28,-179.3 1371.58,-187.8"/>
<polygon fill="black" stroke="black" points="1368.33,-189.12 1374.76,-197.54 1374.99,-186.95 1368.33,-189.12"/>
</a>
</g>
<text text-anchor="middle" x="1466.5" y="-168.8" font-family="Times,serif" font-size="14.00">after(1.0) [minutesRemaining &lt;= 0]</text>
</g>
<!-- Dishwasher_timingSm_countingDown&#45;&gt;Dishwasher_timingSm_idle -->
<g id="edge18" class="edge">
<title>Dishwasher_timingSm_countingDown&#45;&gt;Dishwasher_timingSm_idle</title>
<g id="a_edge18"><a xlink:title="From countingDown to idle on openDoor">
<path fill="none" stroke="black" d="M1186.5,-130.31C1293.92,-131.51 1544.43,-137.27 1570,-165 1574.52,-169.9 1574.27,-174.88 1570,-180 1551.83,-201.79 1475.27,-210.05 1424.49,-213.15"/>
<polygon fill="black" stroke="black" points="1424.18,-209.67 1414.39,-213.73 1424.57,-216.65 1424.18,-209.67"/>
</a>
</g>
<text text-anchor="middle" x="1600.5" y="-168.8" font-family="Times,serif" font-size="14.00">openDoor</text>
</g>
<!-- Dishwasher_timingSm_countingDown&#45;&gt;Dishwasher_timingSm_countingDown -->
<g id="edge20" class="edge">
<title>Dishwasher_timingSm_countingDown&#45;&gt;Dishwasher_timingSm_countingDown</title>
<g id="a_edge20"><a xlink:title="From countingDown to countingDown on startTimer(int numMins,int subsequentMins)">
<path fill="none" stroke="black" d="M1186.71,-132.81C1197.04,-132.42 1204.5,-131.15 1204.5,-129 1204.5,-127.65 1201.59,-126.65 1196.88,-126"/>
<polygon fill="black" stroke="black" points="1196.96,-122.49 1186.71,-125.19 1196.41,-129.47 1196.96,-122.49"/>
</a>
</g>
<text text-anchor="middle" x="1328.5" y="-125.3" font-family="Times,serif" font-size="14.00">startTimer(int numMins,int subsequentMins)</text>
</g>
<!-- Dishwasher_timingSm_countingDown&#45;&gt;Dishwasher_timingSm_countingDown -->
<g id="edge21" class="edge">
<title>Dishwasher_timingSm_countingDown&#45;&gt;Dishwasher_timingSm_countingDown</title>
<g id="a_edge21"><a xlink:title="From countingDown to countingDown after(1.0)&#13;Guard: &#160;[minutesRemaining &gt;= 1 &amp;&amp; !paused]&#13;Transition Action:&#10; &#160;&#160;&#160;&#160;displayTime();&#10; &#160;&#160;&#160;&#160;minutesRemaining&#45;&#45;;">
<path fill="none" stroke="black" d="M1186.5,-134.31C1275.98,-139.02 1452.5,-137.24 1452.5,-129 1452.5,-121.05 1288.51,-119.12 1196.53,-123.2"/>
<polygon fill="black" stroke="black" points="1196.32,-119.71 1186.5,-123.69 1196.66,-126.7 1196.32,-119.71"/>
</a>
</g>
<text text-anchor="middle" x="1606" y="-125.3" font-family="Times,serif" font-size="14.00">after(1.0) [minutesRemaining &gt;= 1 &amp;&amp; !paused] / {...}</text>
</g>
</g>
</svg>
