<?xml version="1.0" encoding="UTF-8" standalone="no"?>
<!DOCTYPE svg PUBLIC "-//W3C//DTD SVG 1.1//EN"
 "http://www.w3.org/Graphics/SVG/1.1/DTD/svg11.dtd">
<!-- Generated by graphviz version 2.48.0 (20210717.1556)
 -->
<!-- Title: Dishwasher Pages: 1 -->
<svg width="1822pt" height="408pt"
 viewBox="0.00 0.00 1822.00 408.00" xmlns="http://www.w3.org/2000/svg" xmlns:xlink="http://www.w3.org/1999/xlink">
<g id="graph0" class="graph" transform="scale(1 1) rotate(0) translate(4 404)">
<title>Dishwasher</title>
<polygon fill="white" stroke="transparent" points="-4,4 -4,-404 1818,-404 1818,4 -4,4"/>
<g id="clust1" class="cluster">
<title>clusterDishwasher_doorSm</title>
<polygon fill="none" stroke="black" stroke-width="0.5" points="8,-103 8,-357.2 365,-357.2 365,-103 8,-103"/>
<text text-anchor="middle" x="186.5" y="-342" font-family="Times,serif" font-size="14.00">sm Dishwasher doorSm</text>
</g>
<g id="clust2" class="cluster">
<title>clusterDishwasher_core</title>
<polygon fill="none" stroke="black" stroke-width="0.5" points="373,-8 373,-392 1086,-392 1086,-8 373,-8"/>
<text text-anchor="middle" x="729.5" y="-376.8" font-family="Times,serif" font-size="14.00">sm Dishwasher core</text>
</g>
<g id="clust3" class="cluster">
<title>clusterDishwasher_core_active</title>
<path fill="none" stroke="black" stroke-width="0.5" d="M723,-16C723,-16 982,-16 982,-16 988,-16 994,-22 994,-28 994,-28 994,-349 994,-349 994,-355 988,-361 982,-361 982,-361 723,-361 723,-361 717,-361 711,-355 711,-349 711,-349 711,-28 711,-28 711,-22 717,-16 723,-16"/>
<text text-anchor="middle" x="852.5" y="-345.8" font-family="Times,serif" font-size="14.00">active</text>
</g>
<g id="clust4" class="cluster">
<title>clusterDishwasher_timingSm</title>
<polygon fill="none" stroke="black" stroke-width="0.5" points="1094,-103 1094,-357.2 1806,-357.2 1806,-103 1094,-103"/>
<text text-anchor="middle" x="1450" y="-342" font-family="Times,serif" font-size="14.00">sm Dishwasher timingSm</text>
</g>
<!-- start_Dishwasher_doorSm -->
<g id="node1" class="node">
<title>start_Dishwasher_doorSm</title>
<g id="a_node1"><a xlink:title="Class Dishwasher, SM doorSm, State start">
<ellipse fill="black" stroke="black" cx="128" cy="-296" rx="7.2" ry="7.2"/>
</a>
</g>
</g>
<!-- Dishwasher_doorSm_closed -->
<g id="node2" class="node">
<title>Dishwasher_doorSm_closed</title>
<g id="a_node2"><a xlink:title="Class Dishwasher, SM doorSm, State closed">
<path fill="none" stroke="black" d="M152,-234C152,-234 104,-234 104,-234 98,-234 92,-228 92,-222 92,-222 92,-210 92,-210 92,-204 98,-198 104,-198 104,-198 152,-198 152,-198 158,-198 164,-204 164,-210 164,-210 164,-222 164,-222 164,-228 158,-234 152,-234"/>
<text text-anchor="middle" x="128" y="-212.3" font-family="Times,serif" font-size="14.00">closed</text>
</a>
</g>
</g>
<!-- start_Dishwasher_doorSm&#45;&gt;Dishwasher_doorSm_closed -->
<g id="edge1" class="edge">
<title>start_Dishwasher_doorSm&#45;&gt;Dishwasher_doorSm_closed</title>
<g id="a_edge1"><a xlink:title="start to closed">
<path fill="none" stroke="black" d="M128,-288.62C128,-279.04 128,-260.38 128,-244.51"/>
<polygon fill="black" stroke="black" points="131.5,-244.11 128,-234.11 124.5,-244.11 131.5,-244.11"/>
</a>
</g>
</g>
<!-- Dishwasher_doorSm_open -->
<g id="node3" class="node">
<title>Dishwasher_doorSm_open</title>
<g id="a_node3"><a xlink:title="Class Dishwasher, SM doorSm, State open">
<path fill="none" stroke="black" d="M152,-147C152,-147 104,-147 104,-147 98,-147 92,-141 92,-135 92,-135 92,-123 92,-123 92,-117 98,-111 104,-111 104,-111 152,-111 152,-111 158,-111 164,-117 164,-123 164,-123 164,-135 164,-135 164,-141 158,-147 152,-147"/>
<text text-anchor="middle" x="128" y="-125.3" font-family="Times,serif" font-size="14.00">open</text>
</a>
</g>
</g>
<!-- Dishwasher_doorSm_closed&#45;&gt;Dishwasher_doorSm_open -->
<g id="edge3" class="edge">
<title>Dishwasher_doorSm_closed&#45;&gt;Dishwasher_doorSm_open</title>
<g id="a_edge3"><a xlink:title="From closed to open on openDoor&#13;Transition Action:&#10; &#160;&#160;&#160;&#160;paused = true;">
<path fill="none" stroke="black" d="M91.82,-212.02C70.33,-208.17 44.68,-199.49 31,-180 14.92,-157.1 49.69,-143.98 81.99,-136.98"/>
<polygon fill="black" stroke="black" points="82.75,-140.39 91.87,-135 81.38,-133.53 82.75,-140.39"/>
</a>
</g>
<text text-anchor="middle" x="104.5" y="-168.8" font-family="Times,serif" font-size="14.00">openDoor / paused = true;</text>
</g>
<!-- Dishwasher_doorSm_open&#45;&gt;Dishwasher_doorSm_closed -->
<g id="edge2" class="edge">
<title>Dishwasher_doorSm_open&#45;&gt;Dishwasher_doorSm_closed</title>
<g id="a_edge2"><a xlink:title="From open to closed on closeDoor&#13;Transition Action:&#10; &#160;&#160;&#160;&#160;paused = false;">
<path fill="none" stroke="black" d="M164.26,-146.32C171.37,-151.26 177.89,-157.44 182,-165 187.73,-175.54 181.99,-185.08 172.43,-192.92"/>
<polygon fill="black" stroke="black" points="170.21,-190.2 164.08,-198.84 174.26,-195.91 170.21,-190.2"/>
</a>
</g>
<text text-anchor="middle" x="260.5" y="-168.8" font-family="Times,serif" font-size="14.00">closeDoor / paused = false;</text>
</g>
<!-- start_Dishwasher_core -->
<g id="node4" class="node">
<title>start_Dishwasher_core</title>
<g id="a_node4"><a xlink:title="Class Dishwasher, SM core, State start">
<ellipse fill="black" stroke="black" cx="572" cy="-216" rx="7.2" ry="7.2"/>
</a>
</g>
</g>
<!-- Dishwasher_core_idle -->
<g id="node5" class="node">
<title>Dishwasher_core_idle</title>
<g id="a_node5"><a xlink:title="Class Dishwasher, SM core, State idle&#13;Entry:&#10; &#160;&#160;display(&quot;Enter cycle to run (n,f,r,c,q)&quot;);">
<path fill="none" stroke="black" d="M691,-147C691,-147 643,-147 643,-147 637,-147 631,-141 631,-135 631,-135 631,-123 631,-123 631,-117 637,-111 643,-111 643,-111 691,-111 691,-111 697,-111 703,-117 703,-123 703,-123 703,-135 703,-135 703,-141 697,-147 691,-147"/>
<text text-anchor="middle" x="667" y="-125.3" font-family="Times,serif" font-size="14.00">idle</text>
</a>
</g>
</g>
<!-- start_Dishwasher_core&#45;&gt;Dishwasher_core_idle -->
<g id="edge4" class="edge">
<title>start_Dishwasher_core&#45;&gt;Dishwasher_core_idle</title>
<g id="a_edge4"><a xlink:title="start to idle">
<path fill="none" stroke="black" d="M568.74,-209.45C563.39,-199.54 554.27,-178.58 564,-165 564,-165 593.83,-154.87 621.38,-145.5"/>
<polygon fill="black" stroke="black" points="622.63,-148.77 630.98,-142.24 620.38,-142.14 622.63,-148.77"/>
</a>
</g>
</g>
<!-- Dishwasher_coreActive_preWash -->
<g id="node7" class="node">
<title>Dishwasher_coreActive_preWash</title>
<g id="a_node7"><a xlink:title="Class Dishwasher, SM core, State active.preWash&#13;Entry:&#10; &#160;&#160;display(&quot;PREWASH&quot;);&#13;Entry:&#10; &#160;&#160;startTimer(minutesRemaining,WashTime+RinseTime);">
<path fill="none" stroke="black" d="M875,-234C875,-234 827,-234 827,-234 821,-234 815,-228 815,-222 815,-222 815,-210 815,-210 815,-204 821,-198 827,-198 827,-198 875,-198 875,-198 881,-198 887,-204 887,-210 887,-210 887,-222 887,-222 887,-228 881,-234 875,-234"/>
<text text-anchor="middle" x="851" y="-212.3" font-family="Times,serif" font-size="14.00">preWash</text>
</a>
</g>
</g>
<!-- Dishwasher_core_idle&#45;&gt;Dishwasher_coreActive_preWash -->
<g id="edge6" class="edge">
<title>Dishwasher_core_idle&#45;&gt;Dishwasher_coreActive_preWash</title>
<g id="a_edge6"><a xlink:title="From idle to active on normal&#13;Guard: &#160;[!paused]&#13;Transition Action:&#10; &#160;&#160;&#160;&#160;minutesRemaining = PrewashTime;">
<path fill="none" stroke="black" d="M630.81,-143.94C615.9,-150.48 601.14,-158.3 597,-165 593.5,-170.67 592.49,-175.09 597,-180 605.02,-188.73 652.17,-191.81 700.92,-193.54"/>
<polygon fill="black" stroke="black" points="700.89,-197.04 711,-193.88 701.13,-190.04 700.89,-197.04"/>
</a>
</g>
<text text-anchor="middle" x="662.5" y="-168.8" font-family="Times,serif" font-size="14.00">normal [!paused] / {...}</text>
</g>
<!-- Dishwasher_coreActive_mainWash -->
<g id="node8" class="node">
<title>Dishwasher_coreActive_mainWash</title>
<g id="a_node8"><a xlink:title="Class Dishwasher, SM core, State active.mainWash&#13;Entry:&#10; &#160;&#160;display(&quot;MAIN WASH&quot;);&#13;Entry:&#10; &#160;&#160;startTimer(minutesRemaining,RinseTime);">
<path fill="none" stroke="black" d="M895.5,-147C895.5,-147 844.5,-147 844.5,-147 838.5,-147 832.5,-141 832.5,-135 832.5,-135 832.5,-123 832.5,-123 832.5,-117 838.5,-111 844.5,-111 844.5,-111 895.5,-111 895.5,-111 901.5,-111 907.5,-117 907.5,-123 907.5,-123 907.5,-135 907.5,-135 907.5,-141 901.5,-147 895.5,-147"/>
<text text-anchor="middle" x="870" y="-125.3" font-family="Times,serif" font-size="14.00">mainWash</text>
</a>
</g>
</g>
<!-- Dishwasher_core_idle&#45;&gt;Dishwasher_coreActive_mainWash -->
<g id="edge8" class="edge">
<title>Dishwasher_core_idle&#45;&gt;Dishwasher_coreActive_mainWash</title>
<g id="a_edge8"><a xlink:title="From idle to active.mainWash on fast&#13;Guard: &#160;[!paused]&#13;Transition Action:&#10; &#160;&#160;&#160;&#160;minutesRemaining = WashTime;">
<path fill="none" stroke="black" d="M703.29,-129C736.4,-129 785.57,-129 821.94,-129"/>
<polygon fill="black" stroke="black" points="822.3,-132.5 832.3,-129 822.3,-125.5 822.3,-132.5"/>
</a>
</g>
<text text-anchor="middle" x="767.75" y="-135.8" font-family="Times,serif" font-size="14.00">fast [!paused] / {...}</text>
</g>
<!-- Dishwasher_coreActive_rinsing -->
<g id="node9" class="node">
<title>Dishwasher_coreActive_rinsing</title>
<g id="a_node9"><a xlink:title="Class Dishwasher, SM core, State active.rinsing&#13;Entry:&#10; &#160;&#160;display(&quot;RINSING&quot;);&#13;Entry:&#10; &#160;&#160;startTimer(minutesRemaining,0);">
<path fill="none" stroke="black" d="M779,-60C779,-60 731,-60 731,-60 725,-60 719,-54 719,-48 719,-48 719,-36 719,-36 719,-30 725,-24 731,-24 731,-24 779,-24 779,-24 785,-24 791,-30 791,-36 791,-36 791,-48 791,-48 791,-54 785,-60 779,-60"/>
<text text-anchor="middle" x="755" y="-38.3" font-family="Times,serif" font-size="14.00">rinsing</text>
</a>
</g>
</g>
<!-- Dishwasher_core_idle&#45;&gt;Dishwasher_coreActive_rinsing -->
<g id="edge10" class="edge">
<title>Dishwasher_core_idle&#45;&gt;Dishwasher_coreActive_rinsing</title>
<g id="a_edge10"><a xlink:title="From idle to active.rinsing on rinse&#13;Guard: &#160;[!paused]&#13;Transition Action:&#10; &#160;&#160;&#160;&#160;minutesRemaining = RinseTime;">
<path fill="none" stroke="black" d="M633.15,-110.97C627.76,-108.28 622.23,-105.55 617,-103 607.71,-98.47 601.52,-101.74 596,-93 592.44,-87.36 591.82,-83.2 596,-78 609.95,-60.65 666.92,-51.4 708.7,-46.85"/>
<polygon fill="black" stroke="black" points="709.1,-50.33 718.69,-45.82 708.38,-43.37 709.1,-50.33"/>
</a>
</g>
<text text-anchor="middle" x="655.5" y="-81.8" font-family="Times,serif" font-size="14.00">rinse [!paused] / {...}</text>
</g>
<!-- start_Dishwasher_coreActive -->
<g id="node6" class="node">
<title>start_Dishwasher_coreActive</title>
<g id="a_node6"><a xlink:title="Class Dishwasher, SM core, State active.start">
<ellipse fill="black" stroke="black" cx="726" cy="-296" rx="7.2" ry="7.2"/>
</a>
</g>
</g>
<!-- start_Dishwasher_coreActive&#45;&gt;Dishwasher_coreActive_preWash -->
<g id="edge7" class="edge">
<title>start_Dishwasher_coreActive&#45;&gt;Dishwasher_coreActive_preWash</title>
<g id="a_edge7"><a xlink:title="start to active.preWash">
<path fill="none" stroke="black" d="M723.65,-288.94C720.55,-279.83 716.43,-262.55 725,-252 747.6,-224.18 769.78,-242.12 805.13,-235.21"/>
<polygon fill="black" stroke="black" points="806.1,-238.57 814.93,-232.71 804.37,-231.79 806.1,-238.57"/>
</a>
</g>
</g>
<!-- Dishwasher_coreActive_preWash&#45;&gt;Dishwasher_coreActive_mainWash -->
<g id="edge9" class="edge">
<title>Dishwasher_coreActive_preWash&#45;&gt;Dishwasher_coreActive_mainWash</title>
<g id="a_edge9"><a xlink:title="From active.preWash to active.mainWash on timerEnded&#13;Guard: &#160;[minutesRemaining == 0]&#13;Transition Action:&#10; &#160;&#160;&#160;&#160;minutesRemaining=WashTime;">
<path fill="none" stroke="black" d="M814.91,-199.35C813.59,-198.88 812.29,-198.43 811,-198 776.82,-186.66 714.11,-192.8 737,-165 761.41,-135.35 785.1,-155.3 822.35,-148.4"/>
<polygon fill="black" stroke="black" points="823.24,-151.78 832.12,-146.02 821.58,-144.98 823.24,-151.78"/>
</a>
</g>
<text text-anchor="middle" x="861.5" y="-168.8" font-family="Times,serif" font-size="14.00">timerEnded [minutesRemaining == 0] / {...}</text>
</g>
<!-- Dishwasher_core_draining -->
<g id="node11" class="node">
<title>Dishwasher_core_draining</title>
<g id="a_node11"><a xlink:title="Class Dishwasher, SM core, State draining&#13;Entry:&#10; &#160;&#160;display(&quot;DRAINING&quot;);">
<path fill="none" stroke="black" d="M535,-234C535,-234 487,-234 487,-234 481,-234 475,-228 475,-222 475,-222 475,-210 475,-210 475,-204 481,-198 487,-198 487,-198 535,-198 535,-198 541,-198 547,-204 547,-210 547,-210 547,-222 547,-222 547,-228 541,-234 535,-234"/>
<text text-anchor="middle" x="511" y="-212.3" font-family="Times,serif" font-size="14.00">draining</text>
</a>
</g>
</g>
<!-- Dishwasher_coreActive_preWash&#45;&gt;Dishwasher_core_draining -->
<g id="edge13" class="edge">
<title>Dishwasher_coreActive_preWash&#45;&gt;Dishwasher_core_draining</title>
<g id="a_edge13"><a xlink:title="From active to draining on cancel&#13;Transition Action:&#10; &#160;&#160;&#160;&#160;display(&quot;CANCELLING&quot;);startTimer(1,0);">
<path fill="none" stroke="black" d="M711,-263.27C657.61,-257.84 596.02,-244.26 556.97,-233.94"/>
<polygon fill="black" stroke="black" points="557.67,-230.5 547.11,-231.27 555.84,-237.26 557.67,-230.5"/>
</a>
</g>
<text text-anchor="middle" x="762" y="-255.8" font-family="Times,serif" font-size="14.00">cancel / {...}</text>
</g>
<!-- Dishwasher_core_suspended -->
<g id="node12" class="node">
<title>Dishwasher_core_suspended</title>
<g id="a_node12"><a xlink:title="Class Dishwasher, SM core, State suspended&#13;Entry:&#10; &#160;&#160;display(&quot;SUSPENDED &#45; door open &quot;&#10; &#160;&#160;+(minutesRemaining+subsequentTime)+&quot; left&quot;);&#13;Exit:&#10; &#160;&#160;display(&quot;RESUMING&quot;);">
<path fill="none" stroke="black" d="M1065.5,-147C1065.5,-147 1014.5,-147 1014.5,-147 1008.5,-147 1002.5,-141 1002.5,-135 1002.5,-135 1002.5,-123 1002.5,-123 1002.5,-117 1008.5,-111 1014.5,-111 1014.5,-111 1065.5,-111 1065.5,-111 1071.5,-111 1077.5,-117 1077.5,-123 1077.5,-123 1077.5,-135 1077.5,-135 1077.5,-141 1071.5,-147 1065.5,-147"/>
<text text-anchor="middle" x="1040" y="-125.3" font-family="Times,serif" font-size="14.00">suspended</text>
</a>
</g>
</g>
<!-- Dishwasher_coreActive_preWash&#45;&gt;Dishwasher_core_suspended -->
<g id="edge15" class="edge">
<title>Dishwasher_coreActive_preWash&#45;&gt;Dishwasher_core_suspended</title>
<g id="a_edge15"><a xlink:title="From active to suspended on openDoor">
<path fill="none" stroke="black" d="M994,-176C1003.48,-170 1012.23,-162.15 1019.5,-154.65"/>
<polygon fill="black" stroke="black" points="1022.32,-156.76 1026.52,-147.03 1017.17,-152.01 1022.32,-156.76"/>
</a>
</g>
<text text-anchor="middle" x="1036" y="-168.8" font-family="Times,serif" font-size="14.00">openDoor</text>
</g>
<!-- Dishwasher_coreActive_mainWash&#45;&gt;Dishwasher_coreActive_rinsing -->
<g id="edge11" class="edge">
<title>Dishwasher_coreActive_mainWash&#45;&gt;Dishwasher_coreActive_rinsing</title>
<g id="a_edge11"><a xlink:title="From active.mainWash to active.rinsing on timerEnded&#13;Guard: &#160;[minutesRemaining == 0]&#13;Transition Action:&#10; &#160;&#160;&#160;&#160;minutesRemaining=RinseTime;">
<path fill="none" stroke="black" d="M846.73,-110.8C829.35,-97.95 805.41,-80.26 786.34,-66.17"/>
<polygon fill="black" stroke="black" points="788.36,-63.3 778.24,-60.18 784.2,-68.93 788.36,-63.3"/>
</a>
</g>
<text text-anchor="middle" x="943.5" y="-81.8" font-family="Times,serif" font-size="14.00">timerEnded [minutesRemaining == 0] / {...}</text>
</g>
<!-- Dishwasher_coreActive_rinsing&#45;&gt;Dishwasher_core_draining -->
<g id="edge14" class="edge">
<title>Dishwasher_coreActive_rinsing&#45;&gt;Dishwasher_core_draining</title>
<g id="a_edge14"><a xlink:title="From active.rinsing to draining on timerEnded&#13;Guard: &#160;[minutesRemaining == 0]">
<path fill="none" stroke="black" d="M718.71,-43.63C637.97,-45.87 447.47,-56.11 408,-103 395.41,-117.96 398.73,-129.78 408,-147 420.35,-169.95 444.21,-186.44 465.86,-197.43"/>
<polygon fill="black" stroke="black" points="464.44,-200.63 474.97,-201.81 467.47,-194.32 464.44,-200.63"/>
</a>
</g>
<text text-anchor="middle" x="515" y="-125.3" font-family="Times,serif" font-size="14.00">timerEnded [minutesRemaining == 0]</text>
</g>
<!-- Dishwasher_coreActive_H -->
<g id="node10" class="node">
<title>Dishwasher_coreActive_H</title>
<g id="a_node10"><a xlink:title="Class Dishwasher, SM core, State active.H">
<ellipse fill="none" stroke="black" cx="975" cy="-296" rx="11" ry="11"/>
<text text-anchor="middle" x="975" y="-292.3" font-family="Times,serif" font-size="14.00">H</text>
</a>
</g>
</g>
<!-- Dishwasher_core_draining&#45;&gt;Dishwasher_core_idle -->
<g id="edge5" class="edge">
<title>Dishwasher_core_draining&#45;&gt;Dishwasher_core_idle</title>
<g id="a_edge5"><a xlink:title="From draining to idle after(1)">
<path fill="none" stroke="black" d="M506.7,-197.72C505.14,-187.04 505.33,-173.75 513,-165 528.46,-147.36 594.27,-152.79 617,-147 618.27,-146.68 619.56,-146.33 620.86,-145.98"/>
<polygon fill="black" stroke="black" points="622.28,-149.21 630.88,-143.02 620.3,-142.49 622.28,-149.21"/>
</a>
</g>
<text text-anchor="middle" x="534" y="-168.8" font-family="Times,serif" font-size="14.00">after(1)</text>
</g>
<!-- Dishwasher_core_suspended&#45;&gt;Dishwasher_coreActive_H -->
<g id="edge12" class="edge">
<title>Dishwasher_core_suspended&#45;&gt;Dishwasher_coreActive_H</title>
<g id="a_edge12"><a xlink:title="From suspended to active.H on closeDoor">
<path fill="none" stroke="black" d="M1058.22,-147.42C1066.16,-157.16 1072.36,-169.44 1066,-180 1057.18,-194.65 1044.36,-186.18 1032,-198 1008.58,-220.41 991.57,-254.53 982.5,-275.76"/>
<polygon fill="black" stroke="black" points="979.14,-274.72 978.59,-285.3 985.62,-277.37 979.14,-274.72"/>
</a>
</g>
<text text-anchor="middle" x="1061" y="-212.3" font-family="Times,serif" font-size="14.00">closeDoor</text>
</g>
<!-- start_Dishwasher_timingSm -->
<g id="node13" class="node">
<title>start_Dishwasher_timingSm</title>
<g id="a_node13"><a xlink:title="Class Dishwasher, SM timingSm, State start">
<ellipse fill="black" stroke="black" cx="1395" cy="-296" rx="7.2" ry="7.2"/>
</a>
</g>
</g>
<!-- Dishwasher_timingSm_idle -->
<g id="node14" class="node">
<title>Dishwasher_timingSm_idle</title>
<g id="a_node14"><a xlink:title="Class Dishwasher, SM timingSm, State idle">
<path fill="none" stroke="black" d="M1419,-234C1419,-234 1371,-234 1371,-234 1365,-234 1359,-228 1359,-222 1359,-222 1359,-210 1359,-210 1359,-204 1365,-198 1371,-198 1371,-198 1419,-198 1419,-198 1425,-198 1431,-204 1431,-210 1431,-210 1431,-222 1431,-222 1431,-228 1425,-234 1419,-234"/>
<text text-anchor="middle" x="1395" y="-212.3" font-family="Times,serif" font-size="14.00">idle</text>
</a>
</g>
</g>
<!-- start_Dishwasher_timingSm&#45;&gt;Dishwasher_timingSm_idle -->
<g id="edge16" class="edge">
<title>start_Dishwasher_timingSm&#45;&gt;Dishwasher_timingSm_idle</title>
<g id="a_edge16"><a xlink:title="start to idle">
<path fill="none" stroke="black" d="M1395,-288.62C1395,-279.04 1395,-260.38 1395,-244.51"/>
<polygon fill="black" stroke="black" points="1398.5,-244.11 1395,-234.11 1391.5,-244.11 1398.5,-244.11"/>
</a>
</g>
</g>
<!-- Dishwasher_timingSm_countingDown -->
<g id="node15" class="node">
<title>Dishwasher_timingSm_countingDown</title>
<g id="a_node15"><a xlink:title="Class Dishwasher, SM timingSm, State countingDown&#13;Exit:&#10; &#160;&#160;timerEnded();">
<path fill="none" stroke="black" d="M1190,-147C1190,-147 1114,-147 1114,-147 1108,-147 1102,-141 1102,-135 1102,-135 1102,-123 1102,-123 1102,-117 1108,-111 1114,-111 1114,-111 1190,-111 1190,-111 1196,-111 1202,-117 1202,-123 1202,-123 1202,-135 1202,-135 1202,-141 1196,-147 1190,-147"/>
<text text-anchor="middle" x="1152" y="-125.3" font-family="Times,serif" font-size="14.00">countingDown</text>
</a>
</g>
</g>
<!-- Dishwasher_timingSm_idle&#45;&gt;Dishwasher_timingSm_countingDown -->
<g id="edge19" class="edge">
<title>Dishwasher_timingSm_idle&#45;&gt;Dishwasher_timingSm_countingDown</title>
<g id="a_edge19"><a xlink:title="From idle to countingDown on startTimer(int numMins,int subsequentMins)">
<path fill="none" stroke="black" d="M1358.94,-213.08C1287.35,-208.9 1132.77,-197.88 1117,-180 1110.01,-172.07 1113.78,-162.73 1120.99,-154.28"/>
<polygon fill="black" stroke="black" points="1123.5,-156.72 1128.03,-147.14 1118.52,-151.8 1123.5,-156.72"/>
</a>
</g>
<text text-anchor="middle" x="1243" y="-168.8" font-family="Times,serif" font-size="14.00">startTimer(int numMins,int subsequentMins)</text>
</g>
<!-- Dishwasher_timingSm_countingDown&#45;&gt;Dishwasher_timingSm_idle -->
<g id="edge17" class="edge">
<title>Dishwasher_timingSm_countingDown&#45;&gt;Dishwasher_timingSm_idle</title>
<g id="a_edge17"><a xlink:title="From countingDown to idle after(1.0)&#13;Guard: &#160;[minutesRemaining &lt;= 0]">
<path fill="none" stroke="black" d="M1202.22,-132.44C1259.02,-136.13 1347,-144.96 1373,-165 1380.34,-170.66 1385.29,-179.29 1388.59,-187.79"/>
<polygon fill="black" stroke="black" points="1385.34,-189.11 1391.76,-197.53 1391.99,-186.94 1385.34,-189.11"/>
</a>
</g>
<text text-anchor="middle" x="1484.5" y="-168.8" font-family="Times,serif" font-size="14.00">after(1.0) [minutesRemaining &lt;= 0]</text>
</g>
<!-- Dishwasher_timingSm_countingDown&#45;&gt;Dishwasher_timingSm_idle -->
<g id="edge18" class="edge">
<title>Dishwasher_timingSm_countingDown&#45;&gt;Dishwasher_timingSm_idle</title>
<g id="a_edge18"><a xlink:title="From countingDown to idle on openDoor">
<path fill="none" stroke="black" d="M1202.29,-130.28C1311.61,-131.42 1563.22,-137.07 1589,-165 1593.52,-169.9 1593.28,-174.88 1589,-180 1570.57,-202.05 1492.84,-210.23 1441.54,-213.25"/>
<polygon fill="black" stroke="black" points="1441.14,-209.77 1431.34,-213.81 1441.52,-216.76 1441.14,-209.77"/>
</a>
</g>
<text text-anchor="middle" x="1620" y="-168.8" font-family="Times,serif" font-size="14.00">openDoor</text>
</g>
<!-- Dishwasher_timingSm_countingDown&#45;&gt;Dishwasher_timingSm_countingDown -->
<g id="edge20" class="edge">
<title>Dishwasher_timingSm_countingDown&#45;&gt;Dishwasher_timingSm_countingDown</title>
<g id="a_edge20"><a xlink:title="From countingDown to countingDown on startTimer(int numMins,int subsequentMins)">
<path fill="none" stroke="black" d="M1202.11,-132.8C1212.52,-132.4 1220,-131.13 1220,-129 1220,-127.67 1217.08,-126.67 1212.35,-126.02"/>
<polygon fill="black" stroke="black" points="1212.36,-122.51 1202.11,-125.2 1211.8,-129.48 1212.36,-122.51"/>
</a>
</g>
<text text-anchor="middle" x="1346" y="-125.3" font-family="Times,serif" font-size="14.00">startTimer(int numMins,int subsequentMins)</text>
</g>
<!-- Dishwasher_timingSm_countingDown&#45;&gt;Dishwasher_timingSm_countingDown -->
<g id="edge21" class="edge">
<title>Dishwasher_timingSm_countingDown&#45;&gt;Dishwasher_timingSm_countingDown</title>
<g id="a_edge21"><a xlink:title="From countingDown to countingDown after(1.0)&#13;Guard: &#160;[minutesRemaining &gt;= 1 &amp;&amp; !paused]&#13;Transition Action:&#10; &#160;&#160;&#160;&#160;displayTime();&#10; &#160;&#160;&#160;&#160;minutesRemaining&#45;&#45;;">
<path fill="none" stroke="black" d="M1202.04,-134.35C1293.29,-139.01 1472,-137.22 1472,-129 1472,-121.07 1305.98,-119.13 1212.26,-123.17"/>
<polygon fill="black" stroke="black" points="1211.86,-119.69 1202.04,-123.65 1212.19,-126.68 1211.86,-119.69"/>
</a>
</g>
<text text-anchor="middle" x="1626" y="-125.3" font-family="Times,serif" font-size="14.00">after(1.0) [minutesRemaining &gt;= 1 &amp;&amp; !paused] / {...}</text>
</g>
</g>
</svg>
