<?xml version="1.0" encoding="UTF-8" standalone="no"?>
<!DOCTYPE svg PUBLIC "-//W3C//DTD SVG 1.1//EN"
 "http://www.w3.org/Graphics/SVG/1.1/DTD/svg11.dtd">
<!-- Generated by graphviz version 2.48.0 (20210717.1556)
 -->
<!-- Title: Elevator_State_Machine Pages: 1 -->
<svg width="1274pt" height="693pt"
 viewBox="0.00 0.00 1274.00 692.80" xmlns="http://www.w3.org/2000/svg" xmlns:xlink="http://www.w3.org/1999/xlink">
<g id="graph0" class="graph" transform="scale(1 1) rotate(0) translate(4 688.8)">
<title>Elevator_State_Machine</title>
<polygon fill="white" stroke="transparent" points="-4,4 -4,-688.8 1270,-688.8 1270,4 -4,4"/>
<g id="clust4" class="cluster">
<title>clusterElevator_elevator_state_machine_OnFloor</title>
<path fill="none" stroke="black" d="M292,-279.2C292,-279.2 610,-279.2 610,-279.2 616,-279.2 622,-285.2 622,-291.2 622,-291.2 622,-664.8 622,-664.8 622,-670.8 616,-676.8 610,-676.8 610,-676.8 292,-676.8 292,-676.8 286,-676.8 280,-670.8 280,-664.8 280,-664.8 280,-291.2 280,-291.2 280,-285.2 286,-279.2 292,-279.2"/>
<text text-anchor="middle" x="451" y="-661.6" font-family="Times,serif" font-size="14.00">OnFloor</text>
</g>
<g id="clust1" class="cluster">
<title>clusterElevator_elevator_state_machine_PrepareUp</title>
<path fill="none" stroke="black" d="M642,-182C642,-182 784,-182 784,-182 790,-182 796,-188 796,-194 796,-194 796,-331.4 796,-331.4 796,-337.4 790,-343.4 784,-343.4 784,-343.4 642,-343.4 642,-343.4 636,-343.4 630,-337.4 630,-331.4 630,-331.4 630,-194 630,-194 630,-188 636,-182 642,-182"/>
<text text-anchor="middle" x="713" y="-328.2" font-family="Times,serif" font-size="14.00">PrepareUp</text>
</g>
<g id="clust2" class="cluster">
<title>clusterElevator_elevator_state_machine_PrepareDown</title>
<path fill="none" stroke="black" d="M20,-182C20,-182 180,-182 180,-182 186,-182 192,-188 192,-194 192,-194 192,-331.4 192,-331.4 192,-337.4 186,-343.4 180,-343.4 180,-343.4 20,-343.4 20,-343.4 14,-343.4 8,-337.4 8,-331.4 8,-331.4 8,-194 8,-194 8,-188 14,-182 20,-182"/>
<text text-anchor="middle" x="100" y="-328.2" font-family="Times,serif" font-size="14.00">PrepareDown</text>
</g>
<g id="clust3" class="cluster">
<title>clusterElevator_elevator_state_machine_InMotion</title>
<path fill="none" stroke="black" d="M816,-8C816,-8 1110,-8 1110,-8 1116,-8 1122,-14 1122,-20 1122,-20 1122,-234.2 1122,-234.2 1122,-240.2 1116,-246.2 1110,-246.2 1110,-246.2 816,-246.2 816,-246.2 810,-246.2 804,-240.2 804,-234.2 804,-234.2 804,-20 804,-20 804,-14 810,-8 816,-8"/>
<text text-anchor="middle" x="963" y="-231" font-family="Times,serif" font-size="14.00">InMotion</text>
</g>
<!-- start_Elevator_elevator_state_machine -->
<g id="node1" class="node">
<title>start_Elevator_elevator_state_machine</title>
<g id="a_node1"><a xlink:title="Class Elevator, SM elevator_state_machine, State start">
<ellipse fill="black" stroke="black" cx="236" cy="-402.4" rx="7.2" ry="7.2"/>
</a>
</g>
</g>
<!-- Elevator_elevator_state_machine_Idle -->
<g id="node2" class="node">
<title>Elevator_elevator_state_machine_Idle</title>
<g id="a_node2"><a xlink:title="Class Elevator, SM elevator_state_machine, State Idle">
<path fill="none" stroke="black" d="M260,-323.2C260,-323.2 212,-323.2 212,-323.2 206,-323.2 200,-317.2 200,-311.2 200,-311.2 200,-299.2 200,-299.2 200,-293.2 206,-287.2 212,-287.2 212,-287.2 260,-287.2 260,-287.2 266,-287.2 272,-293.2 272,-299.2 272,-299.2 272,-311.2 272,-311.2 272,-317.2 266,-323.2 260,-323.2"/>
<text text-anchor="middle" x="236" y="-301.5" font-family="Times,serif" font-size="14.00">Idle</text>
</a>
</g>
</g>
<!-- start_Elevator_elevator_state_machine&#45;&gt;Elevator_elevator_state_machine_Idle -->
<g id="edge1" class="edge">
<title>start_Elevator_elevator_state_machine&#45;&gt;Elevator_elevator_state_machine_Idle</title>
<g id="a_edge1"><a xlink:title="start to Idle">
<path fill="none" stroke="black" d="M236,-395.15C236,-382.84 236,-354.77 236,-333.43"/>
<polygon fill="black" stroke="black" points="239.5,-333.3 236,-323.3 232.5,-333.3 239.5,-333.3"/>
</a>
</g>
</g>
<!-- Elevator_elevator_state_machinePrepareUp_DoorClosingMovingUp -->
<g id="node4" class="node">
<title>Elevator_elevator_state_machinePrepareUp_DoorClosingMovingUp</title>
<g id="a_node4"><a xlink:title="Class Elevator, SM elevator_state_machine, State PrepareUp.DoorClosingMovingUp">
<path fill="none" stroke="black" d="M776,-226C776,-226 650,-226 650,-226 644,-226 638,-220 638,-214 638,-214 638,-202 638,-202 638,-196 644,-190 650,-190 650,-190 776,-190 776,-190 782,-190 788,-196 788,-202 788,-202 788,-214 788,-214 788,-220 782,-226 776,-226"/>
<text text-anchor="middle" x="713" y="-204.3" font-family="Times,serif" font-size="14.00">DoorClosingMovingUp</text>
</a>
</g>
</g>
<!-- Elevator_elevator_state_machine_Idle&#45;&gt;Elevator_elevator_state_machinePrepareUp_DoorClosingMovingUp -->
<g id="edge3" class="edge">
<title>Elevator_elevator_state_machine_Idle&#45;&gt;Elevator_elevator_state_machinePrepareUp_DoorClosingMovingUp</title>
<g id="a_edge3"><a xlink:title="From Idle to PrepareUp on upRequest">
<path fill="none" stroke="black" d="M241.39,-286.91C245.84,-275.65 253.36,-261.71 265,-254.2 323.11,-216.72 514.85,-209.45 627.78,-208.54"/>
<polygon fill="black" stroke="black" points="620.11,-212.27 630,-208.48 619.9,-205.28 620.11,-212.27"/>
</a>
</g>
<text text-anchor="middle" x="295" y="-258" font-family="Times,serif" font-size="14.00">upRequest</text>
</g>
<!-- Elevator_elevator_state_machinePrepareDown_DoorClosingMovingDown -->
<g id="node6" class="node">
<title>Elevator_elevator_state_machinePrepareDown_DoorClosingMovingDown</title>
<g id="a_node6"><a xlink:title="Class Elevator, SM elevator_state_machine, State PrepareDown.DoorClosingMovingDown">
<path fill="none" stroke="black" d="M171.5,-226C171.5,-226 28.5,-226 28.5,-226 22.5,-226 16.5,-220 16.5,-214 16.5,-214 16.5,-202 16.5,-202 16.5,-196 22.5,-190 28.5,-190 28.5,-190 171.5,-190 171.5,-190 177.5,-190 183.5,-196 183.5,-202 183.5,-202 183.5,-214 183.5,-214 183.5,-220 177.5,-226 171.5,-226"/>
<text text-anchor="middle" x="100" y="-204.3" font-family="Times,serif" font-size="14.00">DoorClosingMovingDown</text>
</a>
</g>
</g>
<!-- Elevator_elevator_state_machine_Idle&#45;&gt;Elevator_elevator_state_machinePrepareDown_DoorClosingMovingDown -->
<g id="edge6" class="edge">
<title>Elevator_elevator_state_machine_Idle&#45;&gt;Elevator_elevator_state_machinePrepareDown_DoorClosingMovingDown</title>
<g id="a_edge6"><a xlink:title="From Idle to PrepareDown on downRequest">
<path fill="none" stroke="black" d="M210.69,-287.13C207.85,-285.44 204.93,-283.77 201.16,-281.86"/>
<polygon fill="black" stroke="black" points="202.53,-278.64 192,-277.51 199.53,-284.96 202.53,-278.64"/>
</a>
</g>
<text text-anchor="middle" x="204.5" y="-258" font-family="Times,serif" font-size="14.00">downRequest</text>
</g>
<!-- start_Elevator_elevator_state_machinePrepareUp -->
<g id="node3" class="node">
<title>start_Elevator_elevator_state_machinePrepareUp</title>
<g id="a_node3"><a xlink:title="Class Elevator, SM elevator_state_machine, State PrepareUp.start">
<ellipse fill="black" stroke="black" cx="713" cy="-305.2" rx="7.2" ry="7.2"/>
</a>
</g>
</g>
<!-- start_Elevator_elevator_state_machinePrepareUp&#45;&gt;Elevator_elevator_state_machinePrepareUp_DoorClosingMovingUp -->
<g id="edge5" class="edge">
<title>start_Elevator_elevator_state_machinePrepareUp&#45;&gt;Elevator_elevator_state_machinePrepareUp_DoorClosingMovingUp</title>
<g id="a_edge5"><a xlink:title="start to PrepareUp.DoorClosingMovingUp">
<path fill="none" stroke="black" d="M713,-297.95C713,-285.64 713,-257.57 713,-236.23"/>
<polygon fill="black" stroke="black" points="716.5,-236.1 713,-226.1 709.5,-236.1 716.5,-236.1"/>
</a>
</g>
</g>
<!-- Elevator_elevator_state_machineInMotion_Moving -->
<g id="node8" class="node">
<title>Elevator_elevator_state_machineInMotion_Moving</title>
<g id="a_node8"><a xlink:title="Class Elevator, SM elevator_state_machine, State InMotion.Moving">
<path fill="none" stroke="black" d="M872,-139C872,-139 824,-139 824,-139 818,-139 812,-133 812,-127 812,-127 812,-115 812,-115 812,-109 818,-103 824,-103 824,-103 872,-103 872,-103 878,-103 884,-109 884,-115 884,-115 884,-127 884,-127 884,-133 878,-139 872,-139"/>
<text text-anchor="middle" x="848" y="-117.3" font-family="Times,serif" font-size="14.00">Moving</text>
</a>
</g>
</g>
<!-- Elevator_elevator_state_machinePrepareUp_DoorClosingMovingUp&#45;&gt;Elevator_elevator_state_machineInMotion_Moving -->
<g id="edge9" class="edge">
<title>Elevator_elevator_state_machinePrepareUp_DoorClosingMovingUp&#45;&gt;Elevator_elevator_state_machineInMotion_Moving</title>
<g id="a_edge9"><a xlink:title="From PrepareUp.DoorClosingMovingUp to InMotion on doorClosed&#13;Transition Action:&#10; &#160;&#160;&#160;&#160;goUp();">
<path fill="none" stroke="black" d="M704.64,-189.58C700.95,-179.12 698.86,-166.11 706,-157 717.81,-141.93 764.99,-132.47 801.77,-127.24"/>
<polygon fill="black" stroke="black" points="794.69,-131.94 804,-126.87 793.57,-125.03 794.69,-131.94"/>
</a>
</g>
<text text-anchor="middle" x="766" y="-160.8" font-family="Times,serif" font-size="14.00">doorClosed / goUp();</text>
</g>
<!-- Elevator_elevator_state_machinePrepareUp_DoorClosingMovingUp&#45;&gt;Elevator_elevator_state_machineInMotion_Moving -->
<g id="edge12" class="edge">
<title>Elevator_elevator_state_machinePrepareUp_DoorClosingMovingUp&#45;&gt;Elevator_elevator_state_machineInMotion_Moving</title>
<g id="a_edge12"><a xlink:title="From PrepareUp to InMotion.Moving on started">
<path fill="none" stroke="black" d="M796,-182.56C812.03,-177.58 824.41,-173.42 826,-172 832.92,-165.83 837.76,-157.08 841.1,-148.62"/>
<polygon fill="black" stroke="black" points="844.47,-149.59 844.37,-139 837.84,-147.34 844.47,-149.59"/>
</a>
</g>
<text text-anchor="middle" x="855" y="-160.8" font-family="Times,serif" font-size="14.00">started</text>
</g>
<!-- start_Elevator_elevator_state_machinePrepareDown -->
<g id="node5" class="node">
<title>start_Elevator_elevator_state_machinePrepareDown</title>
<g id="a_node5"><a xlink:title="Class Elevator, SM elevator_state_machine, State PrepareDown.start">
<ellipse fill="black" stroke="black" cx="100" cy="-305.2" rx="7.2" ry="7.2"/>
</a>
</g>
</g>
<!-- start_Elevator_elevator_state_machinePrepareDown&#45;&gt;Elevator_elevator_state_machinePrepareDown_DoorClosingMovingDown -->
<g id="edge8" class="edge">
<title>start_Elevator_elevator_state_machinePrepareDown&#45;&gt;Elevator_elevator_state_machinePrepareDown_DoorClosingMovingDown</title>
<g id="a_edge8"><a xlink:title="start to PrepareDown.DoorClosingMovingDown">
<path fill="none" stroke="black" d="M100,-297.95C100,-285.64 100,-257.57 100,-236.23"/>
<polygon fill="black" stroke="black" points="103.5,-236.1 100,-226.1 96.5,-236.1 103.5,-236.1"/>
</a>
</g>
</g>
<!-- Elevator_elevator_state_machinePrepareDown_DoorClosingMovingDown&#45;&gt;Elevator_elevator_state_machineInMotion_Moving -->
<g id="edge10" class="edge">
<title>Elevator_elevator_state_machinePrepareDown_DoorClosingMovingDown&#45;&gt;Elevator_elevator_state_machineInMotion_Moving</title>
<g id="a_edge10"><a xlink:title="From PrepareDown.DoorClosingMovingDown to InMotion on doorClosed&#13;Transition Action:&#10; &#160;&#160;&#160;&#160;goDown();">
<path fill="none" stroke="black" d="M183.63,-197.5C341.43,-179.56 678.32,-141.28 801.59,-127.27"/>
<polygon fill="black" stroke="black" points="796.51,-133.6 804,-126.11 793.47,-127.3 796.51,-133.6"/>
</a>
</g>
<text text-anchor="middle" x="586.5" y="-160.8" font-family="Times,serif" font-size="14.00">doorClosed / goDown();</text>
</g>
<!-- Elevator_elevator_state_machinePrepareDown_DoorClosingMovingDown&#45;&gt;Elevator_elevator_state_machineInMotion_Moving -->
<g id="edge13" class="edge">
<title>Elevator_elevator_state_machinePrepareDown_DoorClosingMovingDown&#45;&gt;Elevator_elevator_state_machineInMotion_Moving</title>
<g id="a_edge13"><a xlink:title="From PrepareDown to InMotion.Moving on started">
<path fill="none" stroke="black" d="M192,-188.64C248.14,-178.02 321.47,-165.18 387,-157 538.04,-138.15 718.28,-128.02 801.58,-124.04"/>
<polygon fill="black" stroke="black" points="801.9,-127.53 811.72,-123.56 801.57,-120.53 801.9,-127.53"/>
</a>
</g>
<text text-anchor="middle" x="406" y="-160.8" font-family="Times,serif" font-size="14.00">started</text>
</g>
<!-- start_Elevator_elevator_state_machineInMotion -->
<g id="node7" class="node">
<title>start_Elevator_elevator_state_machineInMotion</title>
<g id="a_node7"><a xlink:title="Class Elevator, SM elevator_state_machine, State InMotion.start">
<ellipse fill="black" stroke="black" cx="892" cy="-208" rx="7.2" ry="7.2"/>
</a>
</g>
</g>
<!-- start_Elevator_elevator_state_machineInMotion&#45;&gt;Elevator_elevator_state_machineInMotion_Moving -->
<g id="edge11" class="edge">
<title>start_Elevator_elevator_state_machineInMotion&#45;&gt;Elevator_elevator_state_machineInMotion_Moving</title>
<g id="a_edge11"><a xlink:title="start to InMotion.Moving">
<path fill="none" stroke="black" d="M892.76,-200.76C893.67,-190.88 894.26,-171.31 887,-157 885.15,-153.36 882.76,-149.92 880.06,-146.73"/>
<polygon fill="black" stroke="black" points="882.35,-144.06 872.88,-139.31 877.32,-148.93 882.35,-144.06"/>
</a>
</g>
</g>
<!-- Elevator_elevator_state_machineInMotion_Moving&#45;&gt;Elevator_elevator_state_machineInMotion_Moving -->
<g id="edge14" class="edge">
<title>Elevator_elevator_state_machineInMotion_Moving&#45;&gt;Elevator_elevator_state_machineInMotion_Moving</title>
<g id="a_edge14"><a xlink:title="From InMotion.Moving to InMotion.Moving on approachingFloor&#13;Guard: &#160;[!floorRequested()]">
<path fill="none" stroke="black" d="M884.09,-128.84C894.22,-128.49 902,-125.88 902,-121 902,-117.95 898.96,-115.79 894.21,-114.51"/>
<polygon fill="black" stroke="black" points="894.46,-111.01 884.09,-113.16 893.54,-117.95 894.46,-111.01"/>
</a>
</g>
<text text-anchor="middle" x="1008" y="-117.3" font-family="Times,serif" font-size="14.00">approachingFloor [!floorRequested()]</text>
</g>
<!-- Elevator_elevator_state_machineInMotion_Stopping -->
<g id="node9" class="node">
<title>Elevator_elevator_state_machineInMotion_Stopping</title>
<g id="a_node9"><a xlink:title="Class Elevator, SM elevator_state_machine, State InMotion.Stopping">
<path fill="none" stroke="black" d="M995,-52C995,-52 947,-52 947,-52 941,-52 935,-46 935,-40 935,-40 935,-28 935,-28 935,-22 941,-16 947,-16 947,-16 995,-16 995,-16 1001,-16 1007,-22 1007,-28 1007,-28 1007,-40 1007,-40 1007,-46 1001,-52 995,-52"/>
<text text-anchor="middle" x="971" y="-30.3" font-family="Times,serif" font-size="14.00">Stopping</text>
</a>
</g>
</g>
<!-- Elevator_elevator_state_machineInMotion_Moving&#45;&gt;Elevator_elevator_state_machineInMotion_Stopping -->
<g id="edge15" class="edge">
<title>Elevator_elevator_state_machineInMotion_Moving&#45;&gt;Elevator_elevator_state_machineInMotion_Stopping</title>
<g id="a_edge15"><a xlink:title="From InMotion.Moving to InMotion.Stopping on approachedFloor&#13;Guard: &#160;[floorRequested()]&#13;Transition Action:&#10; &#160;&#160;&#160;&#160;stop();">
<path fill="none" stroke="black" d="M854.85,-102.68C859.85,-91.98 867.58,-78.69 878,-70 891.49,-58.74 908.97,-50.91 925.13,-45.55"/>
<polygon fill="black" stroke="black" points="926.44,-48.8 934.97,-42.52 924.38,-42.11 926.44,-48.8"/>
</a>
</g>
<text text-anchor="middle" x="1003" y="-73.8" font-family="Times,serif" font-size="14.00">approachedFloor [floorRequested()] / stop();</text>
</g>
<!-- Elevator_elevator_state_machineOnFloor_DoorOpening -->
<g id="node11" class="node">
<title>Elevator_elevator_state_machineOnFloor_DoorOpening</title>
<g id="a_node11"><a xlink:title="Class Elevator, SM elevator_state_machine, State OnFloor.DoorOpening">
<path fill="none" stroke="black" d="M491.5,-594.4C491.5,-594.4 422.5,-594.4 422.5,-594.4 416.5,-594.4 410.5,-588.4 410.5,-582.4 410.5,-582.4 410.5,-570.4 410.5,-570.4 410.5,-564.4 416.5,-558.4 422.5,-558.4 422.5,-558.4 491.5,-558.4 491.5,-558.4 497.5,-558.4 503.5,-564.4 503.5,-570.4 503.5,-570.4 503.5,-582.4 503.5,-582.4 503.5,-588.4 497.5,-594.4 491.5,-594.4"/>
<text text-anchor="middle" x="457" y="-572.7" font-family="Times,serif" font-size="14.00">DoorOpening</text>
</a>
</g>
</g>
<!-- Elevator_elevator_state_machineInMotion_Stopping&#45;&gt;Elevator_elevator_state_machineOnFloor_DoorOpening -->
<g id="edge17" class="edge">
<title>Elevator_elevator_state_machineInMotion_Stopping&#45;&gt;Elevator_elevator_state_machineOnFloor_DoorOpening</title>
<g id="a_edge17"><a xlink:title="From InMotion.Stopping to OnFloor.DoorOpening on stopped&#13;Transition Action:&#10; &#160;&#160;&#160;&#160;openDoor();">
<path fill="none" stroke="black" d="M1007.14,-38.76C1047.94,-43.71 1110.87,-53.77 1128,-70 1144.75,-85.87 1142,-96.92 1142,-120 1142,-490.4 1142,-490.4 1142,-490.4 1142,-553.5 678.3,-570.31 513.93,-574.28"/>
<polygon fill="black" stroke="black" points="513.46,-570.79 503.54,-574.53 513.62,-577.79 513.46,-570.79"/>
</a>
</g>
<text text-anchor="middle" x="1204" y="-301.5" font-family="Times,serif" font-size="14.00">stopped / openDoor();</text>
</g>
<!-- start_Elevator_elevator_state_machineOnFloor -->
<g id="node10" class="node">
<title>start_Elevator_elevator_state_machineOnFloor</title>
<g id="a_node10"><a xlink:title="Class Elevator, SM elevator_state_machine, State OnFloor.start">
<ellipse fill="black" stroke="black" cx="457" cy="-638.6" rx="7.2" ry="7.2"/>
</a>
</g>
</g>
<!-- start_Elevator_elevator_state_machineOnFloor&#45;&gt;Elevator_elevator_state_machineOnFloor_DoorOpening -->
<g id="edge16" class="edge">
<title>start_Elevator_elevator_state_machineOnFloor&#45;&gt;Elevator_elevator_state_machineOnFloor_DoorOpening</title>
<g id="a_edge16"><a xlink:title="start to OnFloor.DoorOpening">
<path fill="none" stroke="black" d="M457,-631.16C457,-624.79 457,-614.6 457,-604.79"/>
<polygon fill="black" stroke="black" points="460.5,-604.5 457,-594.5 453.5,-604.5 460.5,-604.5"/>
</a>
</g>
</g>
<!-- Elevator_elevator_state_machineOnFloor_AtFloor -->
<g id="node12" class="node">
<title>Elevator_elevator_state_machineOnFloor_AtFloor</title>
<g id="a_node12"><a xlink:title="Class Elevator, SM elevator_state_machine, State OnFloor.AtFloor">
<path fill="none" stroke="black" d="M447,-507.4C447,-507.4 399,-507.4 399,-507.4 393,-507.4 387,-501.4 387,-495.4 387,-495.4 387,-483.4 387,-483.4 387,-477.4 393,-471.4 399,-471.4 399,-471.4 447,-471.4 447,-471.4 453,-471.4 459,-477.4 459,-483.4 459,-483.4 459,-495.4 459,-495.4 459,-501.4 453,-507.4 447,-507.4"/>
<text text-anchor="middle" x="423" y="-485.7" font-family="Times,serif" font-size="14.00">AtFloor</text>
</a>
</g>
</g>
<!-- Elevator_elevator_state_machineOnFloor_DoorOpening&#45;&gt;Elevator_elevator_state_machineOnFloor_AtFloor -->
<g id="edge20" class="edge">
<title>Elevator_elevator_state_machineOnFloor_DoorOpening&#45;&gt;Elevator_elevator_state_machineOnFloor_AtFloor</title>
<g id="a_edge20"><a xlink:title="From OnFloor.DoorOpening to OnFloor.AtFloor on doorOpened">
<path fill="none" stroke="black" d="M432.93,-558.1C427.69,-553.04 422.87,-547.06 420,-540.4 416.97,-533.37 416.38,-525.27 416.91,-517.66"/>
<polygon fill="black" stroke="black" points="420.38,-518.1 418.2,-507.73 413.44,-517.2 420.38,-518.1"/>
</a>
</g>
<text text-anchor="middle" x="455" y="-529.2" font-family="Times,serif" font-size="14.00">doorOpened</text>
</g>
<!-- Elevator_elevator_state_machineOnFloor_DoorClosing -->
<g id="node13" class="node">
<title>Elevator_elevator_state_machineOnFloor_DoorClosing</title>
<g id="a_node13"><a xlink:title="Class Elevator, SM elevator_state_machine, State OnFloor.DoorClosing">
<path fill="none" stroke="black" d="M463.5,-420.4C463.5,-420.4 398.5,-420.4 398.5,-420.4 392.5,-420.4 386.5,-414.4 386.5,-408.4 386.5,-408.4 386.5,-396.4 386.5,-396.4 386.5,-390.4 392.5,-384.4 398.5,-384.4 398.5,-384.4 463.5,-384.4 463.5,-384.4 469.5,-384.4 475.5,-390.4 475.5,-396.4 475.5,-396.4 475.5,-408.4 475.5,-408.4 475.5,-414.4 469.5,-420.4 463.5,-420.4"/>
<text text-anchor="middle" x="431" y="-398.7" font-family="Times,serif" font-size="14.00">DoorClosing</text>
</a>
</g>
</g>
<!-- Elevator_elevator_state_machineOnFloor_AtFloor&#45;&gt;Elevator_elevator_state_machineOnFloor_DoorClosing -->
<g id="edge21" class="edge">
<title>Elevator_elevator_state_machineOnFloor_AtFloor&#45;&gt;Elevator_elevator_state_machineOnFloor_DoorClosing</title>
<g id="a_edge21"><a xlink:title="From OnFloor.AtFloor to OnFloor.DoorClosing after(timer)&#13;Guard: &#160;[!obstruction()]">
<path fill="none" stroke="black" d="M386.99,-476.03C382.29,-474.45 377.53,-472.87 373,-471.4 347.33,-463.06 331.01,-475.13 315,-453.4 311.05,-448.03 311.02,-443.75 315,-438.4 329.2,-419.28 353.54,-410.22 376.27,-406.07"/>
<polygon fill="black" stroke="black" points="376.86,-409.52 386.21,-404.54 375.79,-402.6 376.86,-409.52"/>
</a>
</g>
<text text-anchor="middle" x="392.5" y="-442.2" font-family="Times,serif" font-size="14.00">after(timer) [!obstruction()]</text>
</g>
<!-- Elevator_elevator_state_machineOnFloor_AtFloor&#45;&gt;Elevator_elevator_state_machineOnFloor_DoorClosing -->
<g id="edge22" class="edge">
<title>Elevator_elevator_state_machineOnFloor_AtFloor&#45;&gt;Elevator_elevator_state_machineOnFloor_DoorClosing</title>
<g id="a_edge22"><a xlink:title="From OnFloor.AtFloor to OnFloor.DoorClosing on doorClosingRequest">
<path fill="none" stroke="black" d="M454.89,-471.07C460.98,-466.2 466.53,-460.31 470,-453.4 474.48,-444.47 470.89,-435.59 464.38,-427.84"/>
<polygon fill="black" stroke="black" points="466.62,-425.14 457.08,-420.52 461.66,-430.07 466.62,-425.14"/>
</a>
</g>
<text text-anchor="middle" x="528.5" y="-442.2" font-family="Times,serif" font-size="14.00">doorClosingRequest</text>
</g>
<!-- Elevator_elevator_state_machineOnFloor_DoorClosing&#45;&gt;Elevator_elevator_state_machineOnFloor_DoorOpening -->
<g id="edge18" class="edge">
<title>Elevator_elevator_state_machineOnFloor_DoorClosing&#45;&gt;Elevator_elevator_state_machineOnFloor_DoorOpening</title>
<g id="a_edge18"><a xlink:title="From OnFloor.DoorClosing to OnFloor.DoorOpening on obstruction">
<path fill="none" stroke="black" d="M386.39,-403.6C359.36,-406.33 326.77,-414.82 309,-438.4 304.99,-443.72 308.63,-446.74 309,-453.4 310.34,-477.51 301.02,-487.71 315,-507.4 335.13,-535.76 370.33,-552.72 400.64,-562.62"/>
<polygon fill="black" stroke="black" points="399.7,-565.99 410.29,-565.59 401.76,-559.3 399.7,-565.99"/>
</a>
</g>
<text text-anchor="middle" x="346.5" y="-485.7" font-family="Times,serif" font-size="14.00">obstruction</text>
</g>
<!-- Elevator_elevator_state_machineOnFloor_DoorClosing&#45;&gt;Elevator_elevator_state_machineOnFloor_DoorOpening -->
<g id="edge19" class="edge">
<title>Elevator_elevator_state_machineOnFloor_DoorClosing&#45;&gt;Elevator_elevator_state_machineOnFloor_DoorOpening</title>
<g id="a_edge19"><a xlink:title="From OnFloor.DoorClosing to OnFloor.DoorOpening on doorOpeningRequest">
<path fill="none" stroke="black" d="M475.73,-407.08C517.63,-411.57 575.88,-420.83 590,-438.4 625.07,-482.03 556.01,-527.71 504.93,-553.75"/>
<polygon fill="black" stroke="black" points="503.34,-550.63 495.95,-558.23 506.46,-556.9 503.34,-550.63"/>
</a>
</g>
<text text-anchor="middle" x="657.5" y="-485.7" font-family="Times,serif" font-size="14.00">doorOpeningRequest</text>
</g>
<!-- Elevator_elevator_state_machineOnFloor_CheckingNextDestination -->
<g id="node14" class="node">
<title>Elevator_elevator_state_machineOnFloor_CheckingNextDestination</title>
<g id="a_node14"><a xlink:title="Class Elevator, SM elevator_state_machine, State OnFloor.CheckingNextDestination">
<path fill="none" stroke="black" d="M500,-323.2C500,-323.2 362,-323.2 362,-323.2 356,-323.2 350,-317.2 350,-311.2 350,-311.2 350,-299.2 350,-299.2 350,-293.2 356,-287.2 362,-287.2 362,-287.2 500,-287.2 500,-287.2 506,-287.2 512,-293.2 512,-299.2 512,-299.2 512,-311.2 512,-311.2 512,-317.2 506,-323.2 500,-323.2"/>
<text text-anchor="middle" x="431" y="-301.5" font-family="Times,serif" font-size="14.00">CheckingNextDestination</text>
</a>
</g>
</g>
<!-- Elevator_elevator_state_machineOnFloor_DoorClosing&#45;&gt;Elevator_elevator_state_machineOnFloor_CheckingNextDestination -->
<g id="edge23" class="edge">
<title>Elevator_elevator_state_machineOnFloor_DoorClosing&#45;&gt;Elevator_elevator_state_machineOnFloor_CheckingNextDestination</title>
<g id="a_edge23"><a xlink:title="From OnFloor.DoorClosing to OnFloor.CheckingNextDestination on doorClosed">
<path fill="none" stroke="black" d="M431,-384.38C431,-370.25 431,-349.89 431,-333.49"/>
<polygon fill="black" stroke="black" points="434.5,-333.39 431,-323.39 427.5,-333.39 434.5,-333.39"/>
</a>
</g>
<text text-anchor="middle" x="463.5" y="-355.2" font-family="Times,serif" font-size="14.00">doorClosed</text>
</g>
<!-- Elevator_elevator_state_machineOnFloor_CheckingNextDestination&#45;&gt;Elevator_elevator_state_machine_Idle -->
<g id="edge2" class="edge">
<title>Elevator_elevator_state_machineOnFloor_CheckingNextDestination&#45;&gt;Elevator_elevator_state_machine_Idle</title>
<g id="a_edge2"><a xlink:title="From OnFloor.CheckingNextDestination to Idle on noRequest">
<path fill="none" stroke="black" d="M349.7,-305.2C326.72,-305.2 302.51,-305.2 282.36,-305.2"/>
<polygon fill="black" stroke="black" points="282.22,-301.7 272.22,-305.2 282.22,-308.7 282.22,-301.7"/>
</a>
</g>
<text text-anchor="middle" x="311" y="-312" font-family="Times,serif" font-size="14.00">noRequest</text>
</g>
<!-- Elevator_elevator_state_machineOnFloor_CheckingNextDestination&#45;&gt;Elevator_elevator_state_machinePrepareUp_DoorClosingMovingUp -->
<g id="edge4" class="edge">
<title>Elevator_elevator_state_machineOnFloor_CheckingNextDestination&#45;&gt;Elevator_elevator_state_machinePrepareUp_DoorClosingMovingUp</title>
<g id="a_edge4"><a xlink:title="From OnFloor.CheckingNextDestination to PrepareUp on upRequest">
<path fill="none" stroke="black" d="M481.42,-287.18C519.91,-274.19 574.02,-255.92 620.26,-240.31"/>
<polygon fill="black" stroke="black" points="621.65,-243.53 630,-237.02 619.41,-236.9 621.65,-243.53"/>
</a>
</g>
<text text-anchor="middle" x="602" y="-258" font-family="Times,serif" font-size="14.00">upRequest</text>
</g>
<!-- Elevator_elevator_state_machineOnFloor_CheckingNextDestination&#45;&gt;Elevator_elevator_state_machinePrepareDown_DoorClosingMovingDown -->
<g id="edge7" class="edge">
<title>Elevator_elevator_state_machineOnFloor_CheckingNextDestination&#45;&gt;Elevator_elevator_state_machinePrepareDown_DoorClosingMovingDown</title>
<g id="a_edge7"><a xlink:title="From OnFloor.CheckingNextDestination to PrepareDown on downRequest">
<path fill="none" stroke="black" d="M401.53,-287.19C381.61,-276.35 354.41,-262.77 329,-254.2 285.54,-239.54 235.75,-229.01 193.72,-221.82"/>
<polygon fill="black" stroke="black" points="202.59,-221.49 192,-221.16 200.07,-228.02 202.59,-221.49"/>
</a>
</g>
<text text-anchor="middle" x="402.5" y="-258" font-family="Times,serif" font-size="14.00">downRequest</text>
</g>
</g>
</svg>
