<?xml version="1.0" encoding="UTF-8" standalone="no"?>
<!DOCTYPE svg PUBLIC "-//W3C//DTD SVG 1.1//EN"
 "http://www.w3.org/Graphics/SVG/1.1/DTD/svg11.dtd">
<!-- Generated by graphviz version 2.48.0 (20210717.1556)
 -->
<!-- Title: GarageDoor Pages: 1 -->
<svg width="340pt" height="443pt"
 viewBox="0.00 0.00 340.00 443.40" xmlns="http://www.w3.org/2000/svg" xmlns:xlink="http://www.w3.org/1999/xlink">
<g id="graph0" class="graph" transform="scale(1 1) rotate(0) translate(4 439.4)">
<title>GarageDoor</title>
<polygon fill="white" stroke="transparent" points="-4,4 -4,-439.4 336,-439.4 336,4 -4,4"/>
<!-- start_GarageDoor_status -->
<g id="node1" class="node">
<title>start_GarageDoor_status</title>
<g id="a_node1"><a xlink:title="Class GarageDoor, SM status, State start">
<ellipse fill="black" stroke="black" cx="202" cy="-428.2" rx="7.2" ry="7.2"/>
</a>
</g>
</g>
<!-- GarageDoor_status_Open -->
<g id="node2" class="node">
<title>GarageDoor_status_Open</title>
<g id="a_node2"><a xlink:title="Class GarageDoor, SM status, State Open">
<path fill="none" stroke="black" d="M226,-384C226,-384 178,-384 178,-384 172,-384 166,-378 166,-372 166,-372 166,-360 166,-360 166,-354 172,-348 178,-348 178,-348 226,-348 226,-348 232,-348 238,-354 238,-360 238,-360 238,-372 238,-372 238,-378 232,-384 226,-384"/>
<text text-anchor="middle" x="202" y="-362.3" font-family="Times,serif" font-size="14.00">Open</text>
</a>
</g>
</g>
<!-- start_GarageDoor_status&#45;&gt;GarageDoor_status_Open -->
<g id="edge1" class="edge">
<title>start_GarageDoor_status&#45;&gt;GarageDoor_status_Open</title>
<g id="a_edge1"><a xlink:title="start to Open">
<path fill="none" stroke="black" d="M202,-420.76C202,-414.39 202,-404.2 202,-394.39"/>
<polygon fill="black" stroke="black" points="205.5,-394.1 202,-384.1 198.5,-394.1 205.5,-394.1"/>
</a>
</g>
</g>
<!-- GarageDoor_status_Closing -->
<g id="node3" class="node">
<title>GarageDoor_status_Closing</title>
<g id="a_node3"><a xlink:title="Class GarageDoor, SM status, State Closing">
<path fill="none" stroke="black" d="M162,-297C162,-297 114,-297 114,-297 108,-297 102,-291 102,-285 102,-285 102,-273 102,-273 102,-267 108,-261 114,-261 114,-261 162,-261 162,-261 168,-261 174,-267 174,-273 174,-273 174,-285 174,-285 174,-291 168,-297 162,-297"/>
<text text-anchor="middle" x="138" y="-275.3" font-family="Times,serif" font-size="14.00">Closing</text>
</a>
</g>
</g>
<!-- GarageDoor_status_Open&#45;&gt;GarageDoor_status_Closing -->
<g id="edge3" class="edge">
<title>GarageDoor_status_Open&#45;&gt;GarageDoor_status_Closing</title>
<g id="a_edge3"><a xlink:title="From Open to Closing on buttonOrObstacle">
<path fill="none" stroke="black" d="M170.55,-347.92C163.62,-342.93 156.9,-336.92 152,-330 147.29,-323.35 144.16,-315.17 142.08,-307.35"/>
<polygon fill="black" stroke="black" points="145.47,-306.48 139.91,-297.47 138.64,-307.98 145.47,-306.48"/>
</a>
</g>
<text text-anchor="middle" x="202" y="-318.8" font-family="Times,serif" font-size="14.00">buttonOrObstacle</text>
</g>
<!-- GarageDoor_status_Closed -->
<g id="node4" class="node">
<title>GarageDoor_status_Closed</title>
<g id="a_node4"><a xlink:title="Class GarageDoor, SM status, State Closed">
<path fill="none" stroke="black" d="M60,-210C60,-210 12,-210 12,-210 6,-210 0,-204 0,-198 0,-198 0,-186 0,-186 0,-180 6,-174 12,-174 12,-174 60,-174 60,-174 66,-174 72,-180 72,-186 72,-186 72,-198 72,-198 72,-204 66,-210 60,-210"/>
<text text-anchor="middle" x="36" y="-188.3" font-family="Times,serif" font-size="14.00">Closed</text>
</a>
</g>
</g>
<!-- GarageDoor_status_Closing&#45;&gt;GarageDoor_status_Closed -->
<g id="edge4" class="edge">
<title>GarageDoor_status_Closing&#45;&gt;GarageDoor_status_Closed</title>
<g id="a_edge4"><a xlink:title="From Closing to Closed on reachBottom">
<path fill="none" stroke="black" d="M101.58,-271.08C84.11,-266.02 64.17,-257.43 51,-243 45.24,-236.69 41.69,-228.26 39.5,-220.11"/>
<polygon fill="black" stroke="black" points="42.89,-219.19 37.39,-210.13 36.04,-220.64 42.89,-219.19"/>
</a>
</g>
<text text-anchor="middle" x="87.5" y="-231.8" font-family="Times,serif" font-size="14.00">reachBottom</text>
</g>
<!-- GarageDoor_status_Opening -->
<g id="node5" class="node">
<title>GarageDoor_status_Opening</title>
<g id="a_node5"><a xlink:title="Class GarageDoor, SM status, State Opening">
<path fill="none" stroke="black" d="M162,-123C162,-123 114,-123 114,-123 108,-123 102,-117 102,-111 102,-111 102,-99 102,-99 102,-93 108,-87 114,-87 114,-87 162,-87 162,-87 168,-87 174,-93 174,-99 174,-99 174,-111 174,-111 174,-117 168,-123 162,-123"/>
<text text-anchor="middle" x="138" y="-101.3" font-family="Times,serif" font-size="14.00">Opening</text>
</a>
</g>
</g>
<!-- GarageDoor_status_Closing&#45;&gt;GarageDoor_status_Opening -->
<g id="edge5" class="edge">
<title>GarageDoor_status_Closing&#45;&gt;GarageDoor_status_Opening</title>
<g id="a_edge5"><a xlink:title="From Closing to Opening on buttonOrObstacle">
<path fill="none" stroke="black" d="M138,-260.88C138,-231 138,-169.11 138,-133.27"/>
<polygon fill="black" stroke="black" points="141.5,-133.05 138,-123.05 134.5,-133.05 141.5,-133.05"/>
</a>
</g>
<text text-anchor="middle" x="188" y="-188.3" font-family="Times,serif" font-size="14.00">buttonOrObstacle</text>
</g>
<!-- GarageDoor_status_Closed&#45;&gt;GarageDoor_status_Opening -->
<g id="edge6" class="edge">
<title>GarageDoor_status_Closed&#45;&gt;GarageDoor_status_Opening</title>
<g id="a_edge6"><a xlink:title="From Closed to Opening on buttonOrObstacle">
<path fill="none" stroke="black" d="M25.35,-173.84C20.41,-163.47 17,-150.48 24,-141 39.5,-120.02 67.36,-111.21 91.66,-107.68"/>
<polygon fill="black" stroke="black" points="92.29,-111.13 101.81,-106.47 91.46,-104.18 92.29,-111.13"/>
</a>
</g>
<text text-anchor="middle" x="74" y="-144.8" font-family="Times,serif" font-size="14.00">buttonOrObstacle</text>
</g>
<!-- GarageDoor_status_Opening&#45;&gt;GarageDoor_status_Open -->
<g id="edge2" class="edge">
<title>GarageDoor_status_Opening&#45;&gt;GarageDoor_status_Open</title>
<g id="a_edge2"><a xlink:title="From Opening to Open on reachTop">
<path fill="none" stroke="black" d="M174.05,-119.55C197.66,-130.45 226.86,-148.24 242,-174 396.41,-436.77 269.85,-295.72 252,-330 249.88,-334.08 247.04,-337.77 243.79,-341.11"/>
<polygon fill="black" stroke="black" points="241.34,-338.6 236.14,-347.82 245.96,-343.86 241.34,-338.6"/>
</a>
</g>
<text text-anchor="middle" x="306" y="-231.8" font-family="Times,serif" font-size="14.00">reachTop</text>
</g>
<!-- GarageDoor_status_HalfOpen -->
<g id="node6" class="node">
<title>GarageDoor_status_HalfOpen</title>
<g id="a_node6"><a xlink:title="Class GarageDoor, SM status, State HalfOpen">
<path fill="none" stroke="black" d="M162,-36C162,-36 114,-36 114,-36 108,-36 102,-30 102,-24 102,-24 102,-12 102,-12 102,-6 108,0 114,0 114,0 162,0 162,0 168,0 174,-6 174,-12 174,-12 174,-24 174,-24 174,-30 168,-36 162,-36"/>
<text text-anchor="middle" x="138" y="-14.3" font-family="Times,serif" font-size="14.00">HalfOpen</text>
</a>
</g>
</g>
<!-- GarageDoor_status_Opening&#45;&gt;GarageDoor_status_HalfOpen -->
<g id="edge8" class="edge">
<title>GarageDoor_status_Opening&#45;&gt;GarageDoor_status_HalfOpen</title>
<g id="a_edge8"><a xlink:title="From Opening to HalfOpen on buttonOrObstacle">
<path fill="none" stroke="black" d="M101.85,-92.5C90.97,-87.15 80.26,-79.57 74,-69 65.95,-55.41 77.19,-44.14 92.39,-35.77"/>
<polygon fill="black" stroke="black" points="94.27,-38.74 101.68,-31.17 91.17,-32.47 94.27,-38.74"/>
</a>
</g>
<text text-anchor="middle" x="124" y="-57.8" font-family="Times,serif" font-size="14.00">buttonOrObstacle</text>
</g>
<!-- GarageDoor_status_HalfOpen&#45;&gt;GarageDoor_status_Opening -->
<g id="edge7" class="edge">
<title>GarageDoor_status_HalfOpen&#45;&gt;GarageDoor_status_Opening</title>
<g id="a_edge7"><a xlink:title="From HalfOpen to Opening on buttonOrObstacle">
<path fill="none" stroke="black" d="M164.4,-36.35C169.9,-41.34 174.95,-47.28 178,-54 182.13,-63.11 178.42,-72 171.86,-79.69"/>
<polygon fill="black" stroke="black" points="169.18,-77.42 164.54,-86.94 174.11,-82.39 169.18,-77.42"/>
</a>
</g>
<text text-anchor="middle" x="230" y="-57.8" font-family="Times,serif" font-size="14.00">buttonOrObstacle</text>
</g>
</g>
</svg>
