<?xml version="1.0" encoding="UTF-8" standalone="no"?>
<!DOCTYPE svg PUBLIC "-//W3C//DTD SVG 1.1//EN"
 "http://www.w3.org/Graphics/SVG/1.1/DTD/svg11.dtd">
<!-- Generated by graphviz version 2.48.0 (20210717.1556)
 -->
<!-- Title: Lights Pages: 1 -->
<svg width="2550pt" height="520pt"
 viewBox="0.00 0.00 2550.00 520.00" xmlns="http://www.w3.org/2000/svg" xmlns:xlink="http://www.w3.org/1999/xlink">
<g id="graph0" class="graph" transform="scale(1 1) rotate(0) translate(4 516)">
<title>Lights</title>
<polygon fill="white" stroke="transparent" points="-4,4 -4,-516 2546,-516 2546,4 -4,4"/>
<g id="clust1" class="cluster">
<title>clusterLight1_light</title>
<polygon fill="none" stroke="black" stroke-width="0.5" points="8,-356 8,-504 128,-504 128,-356 8,-356"/>
<text text-anchor="middle" x="68" y="-488.8" font-family="Times,serif" font-size="14.00">sm Light1 light</text>
</g>
<g id="clust2" class="cluster">
<title>clusterLight1_sm</title>
<polygon fill="none" stroke="black" stroke-width="0.5" points="136,-182 136,-493.2 520,-493.2 520,-182 136,-182"/>
<text text-anchor="middle" x="328" y="-478" font-family="Times,serif" font-size="14.00">sm Light1 sm</text>
</g>
<g id="clust3" class="cluster">
<title>clusterLight2_light</title>
<polygon fill="none" stroke="black" stroke-width="0.5" points="528,-356 528,-504 648,-504 648,-356 528,-356"/>
<text text-anchor="middle" x="588" y="-488.8" font-family="Times,serif" font-size="14.00">sm Light2 light</text>
</g>
<g id="clust4" class="cluster">
<title>clusterLight2_sm</title>
<polygon fill="none" stroke="black" stroke-width="0.5" points="656,-356 656,-493.2 1544,-493.2 1544,-356 656,-356"/>
<text text-anchor="middle" x="1100" y="-478" font-family="Times,serif" font-size="14.00">sm Light2 sm</text>
</g>
<g id="clust5" class="cluster">
<title>clusterLight3_light</title>
<polygon fill="none" stroke="black" stroke-width="0.5" points="1552,-356 1552,-504 1672,-504 1672,-356 1552,-356"/>
<text text-anchor="middle" x="1612" y="-488.8" font-family="Times,serif" font-size="14.00">sm Light3 light</text>
</g>
<g id="clust6" class="cluster">
<title>clusterLight3_sm</title>
<polygon fill="none" stroke="black" stroke-width="0.5" points="1680,-8 1680,-493.2 2534,-493.2 2534,-8 1680,-8"/>
<text text-anchor="middle" x="2107" y="-478" font-family="Times,serif" font-size="14.00">sm Light3 sm</text>
</g>
<!-- start_Light1_light -->
<g id="node1" class="node">
<title>start_Light1_light</title>
<g id="a_node1"><a xlink:title="Class Light1, SM light, State start">
<ellipse fill="black" stroke="black" cx="113" cy="-455" rx="7.2" ry="7.2"/>
</a>
</g>
</g>
<!-- Light1_light_OFF -->
<g id="node2" class="node">
<title>Light1_light_OFF</title>
<g id="a_node2"><a xlink:title="Class Light1, SM light, State OFF">
<path fill="none" stroke="black" d="M108,-400C108,-400 60,-400 60,-400 54,-400 48,-394 48,-388 48,-388 48,-376 48,-376 48,-370 54,-364 60,-364 60,-364 108,-364 108,-364 114,-364 120,-370 120,-376 120,-376 120,-388 120,-388 120,-394 114,-400 108,-400"/>
<text text-anchor="middle" x="84" y="-378.3" font-family="Times,serif" font-size="14.00">OFF</text>
</a>
</g>
</g>
<!-- start_Light1_light&#45;&gt;Light1_light_OFF -->
<g id="edge1" class="edge">
<title>start_Light1_light&#45;&gt;Light1_light_OFF</title>
<g id="a_edge1"><a xlink:title="start to OFF">
<path fill="none" stroke="black" d="M110.53,-447.95C107.09,-439.53 100.64,-423.75 94.97,-409.85"/>
<polygon fill="black" stroke="black" points="98.05,-408.13 91.02,-400.2 91.57,-410.78 98.05,-408.13"/>
</a>
</g>
</g>
<!-- Light1_light_ON -->
<g id="node3" class="node">
<title>Light1_light_ON</title>
<g id="a_node3"><a xlink:title="Class Light1, SM light, State ON">
<path fill="none" stroke="black" d="M76,-473C76,-473 28,-473 28,-473 22,-473 16,-467 16,-461 16,-461 16,-449 16,-449 16,-443 22,-437 28,-437 28,-437 76,-437 76,-437 82,-437 88,-443 88,-449 88,-449 88,-461 88,-461 88,-467 82,-473 76,-473"/>
<text text-anchor="middle" x="52" y="-451.3" font-family="Times,serif" font-size="14.00">ON</text>
</a>
</g>
</g>
<!-- start_Light1_sm -->
<g id="node4" class="node">
<title>start_Light1_sm</title>
<g id="a_node4"><a xlink:title="Class Light1, SM sm, State start">
<ellipse fill="black" stroke="black" cx="277" cy="-455" rx="7.2" ry="7.2"/>
</a>
</g>
</g>
<!-- Light1_sm_s1 -->
<g id="node5" class="node">
<title>Light1_sm_s1</title>
<g id="a_node5"><a xlink:title="Class Light1, SM sm, State s1&#13;Entry:&#10; &#160;&#160;light = Light.OFF;">
<path fill="none" stroke="black" d="M301,-400C301,-400 253,-400 253,-400 247,-400 241,-394 241,-388 241,-388 241,-376 241,-376 241,-370 247,-364 253,-364 253,-364 301,-364 301,-364 307,-364 313,-370 313,-376 313,-376 313,-388 313,-388 313,-394 307,-400 301,-400"/>
<text text-anchor="middle" x="277" y="-378.3" font-family="Times,serif" font-size="14.00">s1</text>
</a>
</g>
</g>
<!-- start_Light1_sm&#45;&gt;Light1_sm_s1 -->
<g id="edge2" class="edge">
<title>start_Light1_sm&#45;&gt;Light1_sm_s1</title>
<g id="a_edge2"><a xlink:title="start to s1">
<path fill="none" stroke="black" d="M277,-447.45C277,-439.05 277,-423.97 277,-410.5"/>
<polygon fill="black" stroke="black" points="280.5,-410.21 277,-400.21 273.5,-410.21 280.5,-410.21"/>
</a>
</g>
</g>
<!-- Light1_sm_s2 -->
<g id="node6" class="node">
<title>Light1_sm_s2</title>
<g id="a_node6"><a xlink:title="Class Light1, SM sm, State s2&#13;Entry:&#10; &#160;&#160;light = Light.ON; brightness = 0;">
<path fill="none" stroke="black" d="M229,-313C229,-313 181,-313 181,-313 175,-313 169,-307 169,-301 169,-301 169,-289 169,-289 169,-283 175,-277 181,-277 181,-277 229,-277 229,-277 235,-277 241,-283 241,-289 241,-289 241,-301 241,-301 241,-307 235,-313 229,-313"/>
<text text-anchor="middle" x="205" y="-291.3" font-family="Times,serif" font-size="14.00">s2</text>
</a>
</g>
</g>
<!-- Light1_sm_s1&#45;&gt;Light1_sm_s2 -->
<g id="edge4" class="edge">
<title>Light1_sm_s1&#45;&gt;Light1_sm_s2</title>
<g id="a_edge4"><a xlink:title="From s1 to s2 on on">
<path fill="none" stroke="black" d="M262.43,-363.8C251.99,-351.47 237.76,-334.68 226.08,-320.89"/>
<polygon fill="black" stroke="black" points="228.68,-318.54 219.55,-313.18 223.34,-323.07 228.68,-318.54"/>
</a>
</g>
<text text-anchor="middle" x="252" y="-334.8" font-family="Times,serif" font-size="14.00">on</text>
</g>
<!-- Light1_sm_s3 -->
<g id="node7" class="node">
<title>Light1_sm_s3</title>
<g id="a_node7"><a xlink:title="Class Light1, SM sm, State s3">
<path fill="none" stroke="black" d="M204,-226C204,-226 156,-226 156,-226 150,-226 144,-220 144,-214 144,-214 144,-202 144,-202 144,-196 150,-190 156,-190 156,-190 204,-190 204,-190 210,-190 216,-196 216,-202 216,-202 216,-214 216,-214 216,-220 210,-226 204,-226"/>
<text text-anchor="middle" x="180" y="-204.3" font-family="Times,serif" font-size="14.00">s3</text>
</a>
</g>
</g>
<!-- Light1_sm_s2&#45;&gt;Light1_sm_s3 -->
<g id="edge5" class="edge">
<title>Light1_sm_s2&#45;&gt;Light1_sm_s3</title>
<g id="a_edge5"><a xlink:title="From s2 to s3 on set(Integer b)&#13;Guard: &#160;[b &gt;= 1 &amp;&amp; b &lt;= 3]&#13;Transition Action:&#10; &#160;&#160;&#160;&#160;brightness=b;">
<path fill="none" stroke="black" d="M183.83,-276.66C179.03,-271.53 174.59,-265.52 172,-259 169.14,-251.81 169.2,-243.66 170.5,-236.05"/>
<polygon fill="black" stroke="black" points="173.94,-236.7 172.89,-226.16 167.14,-235.06 173.94,-236.7"/>
</a>
</g>
<text text-anchor="middle" x="311" y="-247.8" font-family="Times,serif" font-size="14.00">set(Integer b) [b &gt;= 1 &amp;&amp; b &lt;= 3] / brightness=b;</text>
</g>
<!-- Light1_sm_s3&#45;&gt;Light1_sm_s1 -->
<g id="edge3" class="edge">
<title>Light1_sm_s3&#45;&gt;Light1_sm_s1</title>
<g id="a_edge3"><a xlink:title="From s3 to s1 on off">
<path fill="none" stroke="black" d="M216.09,-211.07C286.09,-215.44 434.79,-226.69 450,-244 496.18,-296.56 388.43,-343.85 322.87,-366.64"/>
<polygon fill="black" stroke="black" points="321.47,-363.42 313.14,-369.95 323.73,-370.05 321.47,-363.42"/>
</a>
</g>
<text text-anchor="middle" x="468.5" y="-291.3" font-family="Times,serif" font-size="14.00">off</text>
</g>
<!-- Light1_sm_s3&#45;&gt;Light1_sm_s3 -->
<g id="edge6" class="edge">
<title>Light1_sm_s3&#45;&gt;Light1_sm_s3</title>
<g id="a_edge6"><a xlink:title="From s3 to s3 on set(Integer b)&#13;Guard: &#160;[b &gt;= 1 &amp;&amp; b &lt;= 3]&#13;Transition Action:&#10; &#160;&#160;&#160;&#160;brightness=b;">
<path fill="none" stroke="black" d="M216.09,-215.84C226.22,-215.49 234,-212.88 234,-208 234,-204.95 230.96,-202.79 226.21,-201.51"/>
<polygon fill="black" stroke="black" points="226.46,-198.01 216.09,-200.16 225.54,-204.95 226.46,-198.01"/>
</a>
</g>
<text text-anchor="middle" x="373" y="-204.3" font-family="Times,serif" font-size="14.00">set(Integer b) [b &gt;= 1 &amp;&amp; b &lt;= 3] / brightness=b;</text>
</g>
<!-- start_Light2_light -->
<g id="node8" class="node">
<title>start_Light2_light</title>
<g id="a_node8"><a xlink:title="Class Light2, SM light, State start">
<ellipse fill="black" stroke="black" cx="633" cy="-455" rx="7.2" ry="7.2"/>
</a>
</g>
</g>
<!-- Light2_light_OFF -->
<g id="node9" class="node">
<title>Light2_light_OFF</title>
<g id="a_node9"><a xlink:title="Class Light2, SM light, State OFF">
<path fill="none" stroke="black" d="M628,-400C628,-400 580,-400 580,-400 574,-400 568,-394 568,-388 568,-388 568,-376 568,-376 568,-370 574,-364 580,-364 580,-364 628,-364 628,-364 634,-364 640,-370 640,-376 640,-376 640,-388 640,-388 640,-394 634,-400 628,-400"/>
<text text-anchor="middle" x="604" y="-378.3" font-family="Times,serif" font-size="14.00">OFF</text>
</a>
</g>
</g>
<!-- start_Light2_light&#45;&gt;Light2_light_OFF -->
<g id="edge7" class="edge">
<title>start_Light2_light&#45;&gt;Light2_light_OFF</title>
<g id="a_edge7"><a xlink:title="start to OFF">
<path fill="none" stroke="black" d="M630.53,-447.95C627.09,-439.53 620.64,-423.75 614.97,-409.85"/>
<polygon fill="black" stroke="black" points="618.05,-408.13 611.02,-400.2 611.57,-410.78 618.05,-408.13"/>
</a>
</g>
</g>
<!-- Light2_light_ON -->
<g id="node10" class="node">
<title>Light2_light_ON</title>
<g id="a_node10"><a xlink:title="Class Light2, SM light, State ON">
<path fill="none" stroke="black" d="M596,-473C596,-473 548,-473 548,-473 542,-473 536,-467 536,-461 536,-461 536,-449 536,-449 536,-443 542,-437 548,-437 548,-437 596,-437 596,-437 602,-437 608,-443 608,-449 608,-449 608,-461 608,-461 608,-467 602,-473 596,-473"/>
<text text-anchor="middle" x="572" y="-451.3" font-family="Times,serif" font-size="14.00">ON</text>
</a>
</g>
</g>
<!-- start_Light2_sm -->
<g id="node11" class="node">
<title>start_Light2_sm</title>
<g id="a_node11"><a xlink:title="Class Light2, SM sm, State start">
<ellipse fill="black" stroke="black" cx="700" cy="-455" rx="7.2" ry="7.2"/>
</a>
</g>
</g>
<!-- Light2_sm_s2 -->
<g id="node12" class="node">
<title>Light2_sm_s2</title>
<g id="a_node12"><a xlink:title="Class Light2, SM sm, State s2">
<path fill="none" stroke="black" d="M724,-400C724,-400 676,-400 676,-400 670,-400 664,-394 664,-388 664,-388 664,-376 664,-376 664,-370 670,-364 676,-364 676,-364 724,-364 724,-364 730,-364 736,-370 736,-376 736,-376 736,-388 736,-388 736,-394 730,-400 724,-400"/>
<text text-anchor="middle" x="700" y="-378.3" font-family="Times,serif" font-size="14.00">s2</text>
</a>
</g>
</g>
<!-- start_Light2_sm&#45;&gt;Light2_sm_s2 -->
<g id="edge8" class="edge">
<title>start_Light2_sm&#45;&gt;Light2_sm_s2</title>
<g id="a_edge8"><a xlink:title="start to s2">
<path fill="none" stroke="black" d="M700,-447.45C700,-439.05 700,-423.97 700,-410.5"/>
<polygon fill="black" stroke="black" points="703.5,-410.21 700,-400.21 696.5,-410.21 703.5,-410.21"/>
</a>
</g>
</g>
<!-- Light2_sm_s2&#45;&gt;Light2_sm_s2 -->
<g id="edge9" class="edge">
<title>Light2_sm_s2&#45;&gt;Light2_sm_s2</title>
<g id="a_edge9"><a xlink:title="From s2 to s2 on on&#13;Guard: &#160;[light == Light.OFF]&#13;Transition Action:&#10; &#160;&#160;&#160;&#160;light = Light.ON; brightness = 0;">
<path fill="none" stroke="black" d="M736.09,-384.24C746.22,-384.14 754,-383.39 754,-382 754,-381.13 750.96,-380.51 746.21,-380.14"/>
<polygon fill="black" stroke="black" points="746.21,-376.64 736.09,-379.76 745.95,-383.64 746.21,-376.64"/>
</a>
</g>
<text text-anchor="middle" x="839" y="-378.3" font-family="Times,serif" font-size="14.00">on [light == Light.OFF] / {...}</text>
</g>
<!-- Light2_sm_s2&#45;&gt;Light2_sm_s2 -->
<g id="edge10" class="edge">
<title>Light2_sm_s2&#45;&gt;Light2_sm_s2</title>
<g id="a_edge10"><a xlink:title="From s2 to s2 on set(Integer b)&#13;Guard: &#160;[light == Light.ON &amp;&amp; b &gt;= 1 &amp;&amp; b &lt;= 3]&#13;Transition Action:&#10; &#160;&#160;&#160;&#160;brightness=b;">
<path fill="none" stroke="black" d="M736.11,-385.04C800.71,-387.72 924,-386.71 924,-382 924,-377.53 812.91,-376.39 746.38,-378.58"/>
<polygon fill="black" stroke="black" points="745.97,-375.1 736.11,-378.96 746.23,-382.09 745.97,-375.1"/>
</a>
</g>
<text text-anchor="middle" x="1128.5" y="-378.3" font-family="Times,serif" font-size="14.00">set(Integer b) [light == Light.ON &amp;&amp; b &gt;= 1 &amp;&amp; b &lt;= 3] / brightness=b;</text>
</g>
<!-- Light2_sm_s2&#45;&gt;Light2_sm_s2 -->
<g id="edge11" class="edge">
<title>Light2_sm_s2&#45;&gt;Light2_sm_s2</title>
<g id="a_edge11"><a xlink:title="From s2 to s2 on off&#13;Guard: &#160;[light == Light.ON]&#13;Transition Action:&#10; &#160;&#160;&#160;&#160;light = Light.OFF;">
<path fill="none" stroke="black" d="M736.27,-384.97C872.36,-390.86 1333,-389.87 1333,-382 1333,-374.32 893.7,-373.19 746.36,-378.62"/>
<polygon fill="black" stroke="black" points="746.12,-375.13 736.27,-379.03 746.4,-382.13 746.12,-375.13"/>
</a>
</g>
<text text-anchor="middle" x="1416.5" y="-378.3" font-family="Times,serif" font-size="14.00">off [light == Light.ON] / {...}</text>
</g>
<!-- start_Light3_light -->
<g id="node13" class="node">
<title>start_Light3_light</title>
<g id="a_node13"><a xlink:title="Class Light3, SM light, State start">
<ellipse fill="black" stroke="black" cx="1657" cy="-455" rx="7.2" ry="7.2"/>
</a>
</g>
</g>
<!-- Light3_light_OFF -->
<g id="node14" class="node">
<title>Light3_light_OFF</title>
<g id="a_node14"><a xlink:title="Class Light3, SM light, State OFF">
<path fill="none" stroke="black" d="M1652,-400C1652,-400 1604,-400 1604,-400 1598,-400 1592,-394 1592,-388 1592,-388 1592,-376 1592,-376 1592,-370 1598,-364 1604,-364 1604,-364 1652,-364 1652,-364 1658,-364 1664,-370 1664,-376 1664,-376 1664,-388 1664,-388 1664,-394 1658,-400 1652,-400"/>
<text text-anchor="middle" x="1628" y="-378.3" font-family="Times,serif" font-size="14.00">OFF</text>
</a>
</g>
</g>
<!-- start_Light3_light&#45;&gt;Light3_light_OFF -->
<g id="edge12" class="edge">
<title>start_Light3_light&#45;&gt;Light3_light_OFF</title>
<g id="a_edge12"><a xlink:title="start to OFF">
<path fill="none" stroke="black" d="M1654.53,-447.95C1651.09,-439.53 1644.64,-423.75 1638.97,-409.85"/>
<polygon fill="black" stroke="black" points="1642.05,-408.13 1635.02,-400.2 1635.57,-410.78 1642.05,-408.13"/>
</a>
</g>
</g>
<!-- Light3_light_ON -->
<g id="node15" class="node">
<title>Light3_light_ON</title>
<g id="a_node15"><a xlink:title="Class Light3, SM light, State ON">
<path fill="none" stroke="black" d="M1620,-473C1620,-473 1572,-473 1572,-473 1566,-473 1560,-467 1560,-461 1560,-461 1560,-449 1560,-449 1560,-443 1566,-437 1572,-437 1572,-437 1620,-437 1620,-437 1626,-437 1632,-443 1632,-449 1632,-449 1632,-461 1632,-461 1632,-467 1626,-473 1620,-473"/>
<text text-anchor="middle" x="1596" y="-451.3" font-family="Times,serif" font-size="14.00">ON</text>
</a>
</g>
</g>
<!-- start_Light3_sm -->
<g id="node16" class="node">
<title>start_Light3_sm</title>
<g id="a_node16"><a xlink:title="Class Light3, SM sm, State start">
<ellipse fill="black" stroke="black" cx="2236" cy="-455" rx="7.2" ry="7.2"/>
</a>
</g>
</g>
<!-- Light3_sm_s1 -->
<g id="node17" class="node">
<title>Light3_sm_s1</title>
<g id="a_node17"><a xlink:title="Class Light3, SM sm, State s1&#13;Entry:&#10; &#160;&#160;light = Light.OFF;">
<path fill="none" stroke="black" d="M2260,-400C2260,-400 2212,-400 2212,-400 2206,-400 2200,-394 2200,-388 2200,-388 2200,-376 2200,-376 2200,-370 2206,-364 2212,-364 2212,-364 2260,-364 2260,-364 2266,-364 2272,-370 2272,-376 2272,-376 2272,-388 2272,-388 2272,-394 2266,-400 2260,-400"/>
<text text-anchor="middle" x="2236" y="-378.3" font-family="Times,serif" font-size="14.00">s1</text>
</a>
</g>
</g>
<!-- start_Light3_sm&#45;&gt;Light3_sm_s1 -->
<g id="edge13" class="edge">
<title>start_Light3_sm&#45;&gt;Light3_sm_s1</title>
<g id="a_edge13"><a xlink:title="start to s1">
<path fill="none" stroke="black" d="M2236,-447.45C2236,-439.05 2236,-423.97 2236,-410.5"/>
<polygon fill="black" stroke="black" points="2239.5,-410.21 2236,-400.21 2232.5,-410.21 2239.5,-410.21"/>
</a>
</g>
</g>
<!-- Light3_sm_s2 -->
<g id="node18" class="node">
<title>Light3_sm_s2</title>
<g id="a_node18"><a xlink:title="Class Light3, SM sm, State s2&#13;Entry:&#10; &#160;&#160;light = Light.ON; brightness = 0;">
<path fill="none" stroke="black" d="M2413,-313C2413,-313 2365,-313 2365,-313 2359,-313 2353,-307 2353,-301 2353,-301 2353,-289 2353,-289 2353,-283 2359,-277 2365,-277 2365,-277 2413,-277 2413,-277 2419,-277 2425,-283 2425,-289 2425,-289 2425,-301 2425,-301 2425,-307 2419,-313 2413,-313"/>
<text text-anchor="middle" x="2389" y="-291.3" font-family="Times,serif" font-size="14.00">s2</text>
</a>
</g>
</g>
<!-- Light3_sm_s1&#45;&gt;Light3_sm_s2 -->
<g id="edge17" class="edge">
<title>Light3_sm_s1&#45;&gt;Light3_sm_s2</title>
<g id="a_edge17"><a xlink:title="From s1 to s2 on on">
<path fill="none" stroke="black" d="M2266.96,-363.8C2290.79,-350.56 2323.87,-332.18 2349.59,-317.9"/>
<polygon fill="black" stroke="black" points="2351.3,-320.95 2358.35,-313.03 2347.9,-314.83 2351.3,-320.95"/>
</a>
</g>
<text text-anchor="middle" x="2328" y="-334.8" font-family="Times,serif" font-size="14.00">on</text>
</g>
<!-- Light3_sm_s3 -->
<g id="node19" class="node">
<title>Light3_sm_s3</title>
<g id="a_node19"><a xlink:title="Class Light3, SM sm, State s3">
<path fill="none" stroke="black" d="M1851,-226C1851,-226 1803,-226 1803,-226 1797,-226 1791,-220 1791,-214 1791,-214 1791,-202 1791,-202 1791,-196 1797,-190 1803,-190 1803,-190 1851,-190 1851,-190 1857,-190 1863,-196 1863,-202 1863,-202 1863,-214 1863,-214 1863,-220 1857,-226 1851,-226"/>
<text text-anchor="middle" x="1827" y="-204.3" font-family="Times,serif" font-size="14.00">s3</text>
</a>
</g>
</g>
<!-- Light3_sm_s2&#45;&gt;Light3_sm_s3 -->
<g id="edge18" class="edge">
<title>Light3_sm_s2&#45;&gt;Light3_sm_s3</title>
<g id="a_edge18"><a xlink:title="From s2 to s3 on set(Integer b)&#13;Guard: &#160;[b == 1]&#13;Transition Action:&#10; &#160;&#160;&#160;&#160;brightness=b;">
<path fill="none" stroke="black" d="M2352.95,-291.21C2315.37,-287.35 2255.33,-278.53 2207,-259 2195.68,-254.43 2195.51,-248.04 2184,-244 2127.86,-224.28 1956.64,-214.5 1873.4,-210.81"/>
<polygon fill="black" stroke="black" points="1873.37,-207.3 1863.22,-210.37 1873.06,-214.3 1873.37,-207.3"/>
</a>
</g>
<text text-anchor="middle" x="2313" y="-247.8" font-family="Times,serif" font-size="14.00">set(Integer b) [b == 1] / brightness=b;</text>
</g>
<!-- Light3_sm_s4 -->
<g id="node20" class="node">
<title>Light3_sm_s4</title>
<g id="a_node20"><a xlink:title="Class Light3, SM sm, State s4">
<path fill="none" stroke="black" d="M2159,-52C2159,-52 2111,-52 2111,-52 2105,-52 2099,-46 2099,-40 2099,-40 2099,-28 2099,-28 2099,-22 2105,-16 2111,-16 2111,-16 2159,-16 2159,-16 2165,-16 2171,-22 2171,-28 2171,-28 2171,-40 2171,-40 2171,-46 2165,-52 2159,-52"/>
<text text-anchor="middle" x="2135" y="-30.3" font-family="Times,serif" font-size="14.00">s4</text>
</a>
</g>
</g>
<!-- Light3_sm_s2&#45;&gt;Light3_sm_s4 -->
<g id="edge22" class="edge">
<title>Light3_sm_s2&#45;&gt;Light3_sm_s4</title>
<g id="a_edge22"><a xlink:title="From s2 to s4 on set(Integer b)&#13;Guard: &#160;[b == 2]&#13;Transition Action:&#10; &#160;&#160;&#160;&#160;brightness=b;">
<path fill="none" stroke="black" d="M2413.32,-276.89C2443.5,-253.66 2487.77,-211.66 2460,-182 2436.86,-157.29 2331.14,-196.71 2308,-172 2303.44,-167.13 2303.52,-161.93 2308,-157 2336.07,-126.1 2466.93,-169.9 2495,-139 2505.76,-127.16 2502.23,-117.27 2495,-103 2483.79,-80.88 2473.11,-79.01 2450,-70 2402.14,-51.34 2256.52,-41.28 2181.21,-37.2"/>
<polygon fill="black" stroke="black" points="2181.24,-33.7 2171.07,-36.67 2180.87,-40.69 2181.24,-33.7"/>
</a>
</g>
<text text-anchor="middle" x="2414" y="-160.8" font-family="Times,serif" font-size="14.00">set(Integer b) [b == 2] / brightness=b;</text>
</g>
<!-- Light3_sm_s5 -->
<g id="node21" class="node">
<title>Light3_sm_s5</title>
<g id="a_node21"><a xlink:title="Class Light3, SM sm, State s5">
<path fill="none" stroke="black" d="M2244,-139C2244,-139 2196,-139 2196,-139 2190,-139 2184,-133 2184,-127 2184,-127 2184,-115 2184,-115 2184,-109 2190,-103 2196,-103 2196,-103 2244,-103 2244,-103 2250,-103 2256,-109 2256,-115 2256,-115 2256,-127 2256,-127 2256,-133 2250,-139 2244,-139"/>
<text text-anchor="middle" x="2220" y="-117.3" font-family="Times,serif" font-size="14.00">s5</text>
</a>
</g>
</g>
<!-- Light3_sm_s2&#45;&gt;Light3_sm_s5 -->
<g id="edge26" class="edge">
<title>Light3_sm_s2&#45;&gt;Light3_sm_s5</title>
<g id="a_edge26"><a xlink:title="From s2 to s5 on set(Integer b)&#13;Guard: &#160;[b == 3]&#13;Transition Action:&#10; &#160;&#160;&#160;&#160;brightness=b;">
<path fill="none" stroke="black" d="M2410.05,-276.69C2419.93,-266.52 2427.81,-253.78 2419,-244 2393.43,-215.6 2277.07,-250.8 2248,-226 2247.24,-225.35 2235.04,-179.33 2227,-148.73"/>
<polygon fill="black" stroke="black" points="2230.38,-147.81 2224.46,-139.03 2223.61,-149.59 2230.38,-147.81"/>
</a>
</g>
<text text-anchor="middle" x="2354" y="-204.3" font-family="Times,serif" font-size="14.00">set(Integer b) [b == 3] / brightness=b;</text>
</g>
<!-- Light3_sm_s3&#45;&gt;Light3_sm_s1 -->
<g id="edge14" class="edge">
<title>Light3_sm_s3&#45;&gt;Light3_sm_s1</title>
<g id="a_edge14"><a xlink:title="From s3 to s1 on off">
<path fill="none" stroke="black" d="M1863.21,-224.23C1937.73,-255.57 2108.08,-327.21 2190.15,-361.72"/>
<polygon fill="black" stroke="black" points="2189.13,-365.09 2199.7,-365.74 2191.84,-358.63 2189.13,-365.09"/>
</a>
</g>
<text text-anchor="middle" x="2080.5" y="-291.3" font-family="Times,serif" font-size="14.00">off</text>
</g>
<!-- Light3_sm_s3&#45;&gt;Light3_sm_s3 -->
<g id="edge19" class="edge">
<title>Light3_sm_s3&#45;&gt;Light3_sm_s3</title>
<g id="a_edge19"><a xlink:title="From s3 to s3 on set(Integer b)&#13;Guard: &#160;[b == 1]&#13;Transition Action:&#10; &#160;&#160;&#160;&#160;brightness=b;">
<path fill="none" stroke="black" d="M1863.09,-215.84C1873.22,-215.49 1881,-212.88 1881,-208 1881,-204.95 1877.96,-202.79 1873.21,-201.51"/>
<polygon fill="black" stroke="black" points="1873.46,-198.01 1863.09,-200.16 1872.54,-204.95 1873.46,-198.01"/>
</a>
</g>
<text text-anchor="middle" x="1987" y="-204.3" font-family="Times,serif" font-size="14.00">set(Integer b) [b == 1] / brightness=b;</text>
</g>
<!-- Light3_sm_s3&#45;&gt;Light3_sm_s4 -->
<g id="edge23" class="edge">
<title>Light3_sm_s3&#45;&gt;Light3_sm_s4</title>
<g id="a_edge23"><a xlink:title="From s3 to s4 on set(Integer b)&#13;Guard: &#160;[b == 2]&#13;Transition Action:&#10; &#160;&#160;&#160;&#160;brightness=b;">
<path fill="none" stroke="black" d="M1790.84,-194.21C1744.59,-175.93 1674.07,-140.39 1706,-103 1754.83,-45.82 1987.96,-36.46 2088.58,-35.12"/>
<polygon fill="black" stroke="black" points="2088.8,-38.62 2098.76,-35 2088.72,-31.62 2088.8,-38.62"/>
</a>
</g>
<text text-anchor="middle" x="1812" y="-117.3" font-family="Times,serif" font-size="14.00">set(Integer b) [b == 2] / brightness=b;</text>
</g>
<!-- Light3_sm_s3&#45;&gt;Light3_sm_s5 -->
<g id="edge27" class="edge">
<title>Light3_sm_s3&#45;&gt;Light3_sm_s5</title>
<g id="a_edge27"><a xlink:title="From s3 to s5 on set(Integer b)&#13;Guard: &#160;[b == 3]&#13;Transition Action:&#10; &#160;&#160;&#160;&#160;brightness=b;">
<path fill="none" stroke="black" d="M1790.75,-191.27C1773.69,-181.75 1759.38,-169.15 1771,-157 1786.33,-140.96 2148.2,-143.11 2170,-139 2171.27,-138.76 2172.55,-138.5 2173.83,-138.21"/>
<polygon fill="black" stroke="black" points="2174.92,-141.55 2183.73,-135.66 2173.17,-134.77 2174.92,-141.55"/>
</a>
</g>
<text text-anchor="middle" x="1877" y="-160.8" font-family="Times,serif" font-size="14.00">set(Integer b) [b == 3] / brightness=b;</text>
</g>
<!-- Light3_sm_s4&#45;&gt;Light3_sm_s1 -->
<g id="edge15" class="edge">
<title>Light3_sm_s4&#45;&gt;Light3_sm_s1</title>
<g id="a_edge15"><a xlink:title="From s4 to s1 on off">
<path fill="none" stroke="black" d="M2171.03,-35.75C2246.35,-37.8 2417.81,-45.12 2470,-70 2510.26,-89.19 2513.23,-112.92 2520,-157 2532.03,-235.25 2495.62,-263.3 2434,-313 2389.61,-348.81 2325.24,-366.27 2282.07,-374.42"/>
<polygon fill="black" stroke="black" points="2281.34,-370.99 2272.12,-376.2 2282.58,-377.88 2281.34,-370.99"/>
</a>
</g>
<text text-anchor="middle" x="2530.5" y="-204.3" font-family="Times,serif" font-size="14.00">off</text>
</g>
<!-- Light3_sm_s4&#45;&gt;Light3_sm_s3 -->
<g id="edge20" class="edge">
<title>Light3_sm_s4&#45;&gt;Light3_sm_s3</title>
<g id="a_edge20"><a xlink:title="From s4 to s3 on set(Integer b)&#13;Guard: &#160;[b == 1]&#13;Transition Action:&#10; &#160;&#160;&#160;&#160;brightness=b;">
<path fill="none" stroke="black" d="M2098.77,-41.53C2072.91,-47.03 2037.77,-56.22 2009,-70 1986.31,-80.87 1982.7,-87.35 1963,-103 1944.01,-118.09 1944.18,-129.19 1922,-139 1889.28,-153.47 1785.84,-130.32 1762,-157 1750.69,-169.66 1764.01,-181.37 1781.47,-190.27"/>
<polygon fill="black" stroke="black" points="1780.33,-193.6 1790.88,-194.66 1783.29,-187.26 1780.33,-193.6"/>
</a>
</g>
<text text-anchor="middle" x="2069" y="-117.3" font-family="Times,serif" font-size="14.00">set(Integer b) [b == 1] / brightness=b;</text>
</g>
<!-- Light3_sm_s4&#45;&gt;Light3_sm_s4 -->
<g id="edge24" class="edge">
<title>Light3_sm_s4&#45;&gt;Light3_sm_s4</title>
<g id="a_edge24"><a xlink:title="From s4 to s4 on set(Integer b)&#13;Guard: &#160;[b == 2]&#13;Transition Action:&#10; &#160;&#160;&#160;&#160;brightness=b;">
<path fill="none" stroke="black" d="M2171.09,-41.84C2181.22,-41.49 2189,-38.88 2189,-34 2189,-30.95 2185.96,-28.79 2181.21,-27.51"/>
<polygon fill="black" stroke="black" points="2181.46,-24.01 2171.09,-26.16 2180.54,-30.95 2181.46,-24.01"/>
</a>
</g>
<text text-anchor="middle" x="2295" y="-30.3" font-family="Times,serif" font-size="14.00">set(Integer b) [b == 2] / brightness=b;</text>
</g>
<!-- Light3_sm_s4&#45;&gt;Light3_sm_s5 -->
<g id="edge28" class="edge">
<title>Light3_sm_s4&#45;&gt;Light3_sm_s5</title>
<g id="a_edge28"><a xlink:title="From s4 to s5 on set(Integer b)&#13;Guard: &#160;[b == 3]&#13;Transition Action:&#10; &#160;&#160;&#160;&#160;brightness=b;">
<path fill="none" stroke="black" d="M2171.3,-38.18C2192.47,-42.11 2217.57,-50.81 2231,-70 2235.78,-76.83 2235.58,-85.38 2233.41,-93.46"/>
<polygon fill="black" stroke="black" points="2230.09,-92.34 2229.98,-102.94 2236.67,-94.72 2230.09,-92.34"/>
</a>
</g>
<text text-anchor="middle" x="2340" y="-73.8" font-family="Times,serif" font-size="14.00">set(Integer b) [b == 3] / brightness=b;</text>
</g>
<!-- Light3_sm_s5&#45;&gt;Light3_sm_s1 -->
<g id="edge16" class="edge">
<title>Light3_sm_s5&#45;&gt;Light3_sm_s1</title>
<g id="a_edge16"><a xlink:title="From s5 to s1 on off">
<path fill="none" stroke="black" d="M2223.81,-139.15C2225.24,-149.03 2225.74,-161.53 2222,-172 2206.28,-215.99 2150.56,-213.97 2163,-259 2173.13,-295.66 2197.51,-332.38 2215.32,-355.82"/>
<polygon fill="black" stroke="black" points="2212.64,-358.08 2221.54,-363.82 2218.17,-353.78 2212.64,-358.08"/>
</a>
</g>
<text text-anchor="middle" x="2171.5" y="-247.8" font-family="Times,serif" font-size="14.00">off</text>
</g>
<!-- Light3_sm_s5&#45;&gt;Light3_sm_s3 -->
<g id="edge21" class="edge">
<title>Light3_sm_s5&#45;&gt;Light3_sm_s3</title>
<g id="a_edge21"><a xlink:title="From s5 to s3 on set(Integer b)&#13;Guard: &#160;[b == 1]&#13;Transition Action:&#10; &#160;&#160;&#160;&#160;brightness=b;">
<path fill="none" stroke="black" d="M2183.94,-135.28C2179.29,-136.69 2174.56,-137.98 2170,-139 2100.16,-154.61 2077.34,-132.8 2010,-157 1998.51,-161.13 1998.26,-167.29 1987,-172 1950.32,-187.36 1905.96,-196.39 1873.26,-201.41"/>
<polygon fill="black" stroke="black" points="1872.47,-197.99 1863.08,-202.91 1873.48,-204.92 1872.47,-197.99"/>
</a>
</g>
<text text-anchor="middle" x="2116" y="-160.8" font-family="Times,serif" font-size="14.00">set(Integer b) [b == 1] / brightness=b;</text>
</g>
<!-- Light3_sm_s5&#45;&gt;Light3_sm_s4 -->
<g id="edge25" class="edge">
<title>Light3_sm_s5&#45;&gt;Light3_sm_s4</title>
<g id="a_edge25"><a xlink:title="From s5 to s4 on set(Integer b)&#13;Guard: &#160;[b == 2]&#13;Transition Action:&#10; &#160;&#160;&#160;&#160;brightness=b;">
<path fill="none" stroke="black" d="M2183.93,-106.75C2179.29,-105.33 2174.56,-104.03 2170,-103 2137.05,-95.52 2041.44,-110.27 2019,-85 1995.66,-58.72 2047.02,-45.74 2088.69,-39.72"/>
<polygon fill="black" stroke="black" points="2089.31,-43.17 2098.75,-38.37 2088.38,-36.23 2089.31,-43.17"/>
</a>
</g>
<text text-anchor="middle" x="2125" y="-73.8" font-family="Times,serif" font-size="14.00">set(Integer b) [b == 2] / brightness=b;</text>
</g>
<!-- Light3_sm_s5&#45;&gt;Light3_sm_s5 -->
<g id="edge29" class="edge">
<title>Light3_sm_s5&#45;&gt;Light3_sm_s5</title>
<g id="a_edge29"><a xlink:title="From s5 to s5 on set(Integer b)&#13;Guard: &#160;[b == 3]&#13;Transition Action:&#10; &#160;&#160;&#160;&#160;brightness=b;">
<path fill="none" stroke="black" d="M2256.09,-128.84C2266.22,-128.49 2274,-125.88 2274,-121 2274,-117.95 2270.96,-115.79 2266.21,-114.51"/>
<polygon fill="black" stroke="black" points="2266.46,-111.01 2256.09,-113.16 2265.54,-117.95 2266.46,-111.01"/>
</a>
</g>
<text text-anchor="middle" x="2380" y="-117.3" font-family="Times,serif" font-size="14.00">set(Integer b) [b == 3] / brightness=b;</text>
</g>
</g>
</svg>
