<?xml version="1.0" encoding="UTF-8" standalone="no"?>
<!DOCTYPE svg PUBLIC "-//W3C//DTD SVG 1.1//EN"
 "http://www.w3.org/Graphics/SVG/1.1/DTD/svg11.dtd">
<!-- Generated by graphviz version 2.48.0 (20210717.1556)
 -->
<!-- Title: Messenger Pages: 1 -->
<svg width="406pt" height="443pt"
 viewBox="0.00 0.00 406.00 443.40" xmlns="http://www.w3.org/2000/svg" xmlns:xlink="http://www.w3.org/1999/xlink">
<g id="graph0" class="graph" transform="scale(1 1) rotate(0) translate(4 439.4)">
<title>Messenger</title>
<polygon fill="white" stroke="transparent" points="-4,4 -4,-439.4 402,-439.4 402,4 -4,4"/>
<!-- start_Messenger_message -->
<g id="node1" class="node">
<title>start_Messenger_message</title>
<g id="a_node1"><a xlink:title="Class Messenger, SM message, State start">
<ellipse fill="black" stroke="black" cx="123" cy="-428.2" rx="7.2" ry="7.2"/>
</a>
</g>
</g>
<!-- Messenger_message_Composed -->
<g id="node2" class="node">
<title>Messenger_message_Composed</title>
<g id="a_node2"><a xlink:title="Class Messenger, SM message, State Composed">
<path fill="none" stroke="black" d="M149,-384C149,-384 97,-384 97,-384 91,-384 85,-378 85,-372 85,-372 85,-360 85,-360 85,-354 91,-348 97,-348 97,-348 149,-348 149,-348 155,-348 161,-354 161,-360 161,-360 161,-372 161,-372 161,-378 155,-384 149,-384"/>
<text text-anchor="middle" x="123" y="-362.3" font-family="Times,serif" font-size="14.00">Composed</text>
</a>
</g>
</g>
<!-- start_Messenger_message&#45;&gt;Messenger_message_Composed -->
<g id="edge1" class="edge">
<title>start_Messenger_message&#45;&gt;Messenger_message_Composed</title>
<g id="a_edge1"><a xlink:title="start to Composed">
<path fill="none" stroke="black" d="M123,-420.76C123,-414.39 123,-404.2 123,-394.39"/>
<polygon fill="black" stroke="black" points="126.5,-394.1 123,-384.1 119.5,-394.1 126.5,-394.1"/>
</a>
</g>
</g>
<!-- Messenger_message_Sent -->
<g id="node3" class="node">
<title>Messenger_message_Sent</title>
<g id="a_node3"><a xlink:title="Class Messenger, SM message, State Sent">
<path fill="none" stroke="black" d="M102,-297C102,-297 54,-297 54,-297 48,-297 42,-291 42,-285 42,-285 42,-273 42,-273 42,-267 48,-261 54,-261 54,-261 102,-261 102,-261 108,-261 114,-267 114,-273 114,-273 114,-285 114,-285 114,-291 108,-297 102,-297"/>
<text text-anchor="middle" x="78" y="-275.3" font-family="Times,serif" font-size="14.00">Sent</text>
</a>
</g>
</g>
<!-- Messenger_message_Composed&#45;&gt;Messenger_message_Sent -->
<g id="edge2" class="edge">
<title>Messenger_message_Composed&#45;&gt;Messenger_message_Sent</title>
<g id="a_edge2"><a xlink:title="From Composed to Sent on send">
<path fill="none" stroke="black" d="M113.89,-347.8C107.55,-335.82 98.97,-319.62 91.79,-306.06"/>
<polygon fill="black" stroke="black" points="94.87,-304.38 87.09,-297.18 88.68,-307.65 94.87,-304.38"/>
</a>
</g>
<text text-anchor="middle" x="117" y="-318.8" font-family="Times,serif" font-size="14.00">send</text>
</g>
<!-- Messenger_message_Discarded -->
<g id="node8" class="node">
<title>Messenger_message_Discarded</title>
<g id="a_node8"><a xlink:title="Class Messenger, SM message, State Discarded">
<path fill="none" stroke="black" d="M193.5,-297C193.5,-297 144.5,-297 144.5,-297 138.5,-297 132.5,-291 132.5,-285 132.5,-285 132.5,-273 132.5,-273 132.5,-267 138.5,-261 144.5,-261 144.5,-261 193.5,-261 193.5,-261 199.5,-261 205.5,-267 205.5,-273 205.5,-273 205.5,-285 205.5,-285 205.5,-291 199.5,-297 193.5,-297"/>
<text text-anchor="middle" x="169" y="-275.3" font-family="Times,serif" font-size="14.00">Discarded</text>
</a>
</g>
</g>
<!-- Messenger_message_Composed&#45;&gt;Messenger_message_Discarded -->
<g id="edge9" class="edge">
<title>Messenger_message_Composed&#45;&gt;Messenger_message_Discarded</title>
<g id="a_edge9"><a xlink:title="From Composed to Discarded on cancel">
<path fill="none" stroke="black" d="M132.31,-347.8C138.79,-335.82 147.56,-319.62 154.9,-306.06"/>
<polygon fill="black" stroke="black" points="158.02,-307.64 159.71,-297.18 151.87,-304.3 158.02,-307.64"/>
</a>
</g>
<text text-anchor="middle" x="167" y="-318.8" font-family="Times,serif" font-size="14.00">cancel</text>
</g>
<!-- Messenger_message_InTransit -->
<g id="node4" class="node">
<title>Messenger_message_InTransit</title>
<g id="a_node4"><a xlink:title="Class Messenger, SM message, State InTransit">
<path fill="none" stroke="black" d="M236,-210C236,-210 188,-210 188,-210 182,-210 176,-204 176,-198 176,-198 176,-186 176,-186 176,-180 182,-174 188,-174 188,-174 236,-174 236,-174 242,-174 248,-180 248,-186 248,-186 248,-198 248,-198 248,-204 242,-210 236,-210"/>
<text text-anchor="middle" x="212" y="-188.3" font-family="Times,serif" font-size="14.00">InTransit</text>
</a>
</g>
</g>
<!-- Messenger_message_Sent&#45;&gt;Messenger_message_InTransit -->
<g id="edge3" class="edge">
<title>Messenger_message_Sent&#45;&gt;Messenger_message_InTransit</title>
<g id="a_edge3"><a xlink:title="From Sent to InTransit on transmitViaGateway&#13;Guard: &#160;[externalContact]">
<path fill="none" stroke="black" d="M73.43,-260.88C71.68,-250.26 71.61,-236.98 79,-228 102.99,-198.86 125.63,-220.09 162,-210 163.41,-209.61 164.83,-209.2 166.27,-208.78"/>
<polygon fill="black" stroke="black" points="167.3,-212.13 175.83,-205.84 165.24,-205.43 167.3,-212.13"/>
</a>
</g>
<text text-anchor="middle" x="187.5" y="-231.8" font-family="Times,serif" font-size="14.00">transmitViaGateway [externalContact]</text>
</g>
<!-- Messenger_message_Delivered -->
<g id="node5" class="node">
<title>Messenger_message_Delivered</title>
<g id="a_node5"><a xlink:title="Class Messenger, SM message, State Delivered">
<path fill="none" stroke="black" d="M60,-123C60,-123 12,-123 12,-123 6,-123 0,-117 0,-111 0,-111 0,-99 0,-99 0,-93 6,-87 12,-87 12,-87 60,-87 60,-87 66,-87 72,-93 72,-99 72,-99 72,-111 72,-111 72,-117 66,-123 60,-123"/>
<text text-anchor="middle" x="36" y="-101.3" font-family="Times,serif" font-size="14.00">Delivered</text>
</a>
</g>
</g>
<!-- Messenger_message_Sent&#45;&gt;Messenger_message_Delivered -->
<g id="edge4" class="edge">
<title>Messenger_message_Sent&#45;&gt;Messenger_message_Delivered</title>
<g id="a_edge4"><a xlink:title="From Sent to Delivered on transmit&#13;Guard: &#160;[internalContact]">
<path fill="none" stroke="black" d="M57.75,-260.98C44.49,-248.44 28.32,-230.12 21,-210 11.8,-184.69 18.19,-153.99 25.26,-132.53"/>
<polygon fill="black" stroke="black" points="28.57,-133.68 28.61,-123.09 21.97,-131.34 28.57,-133.68"/>
</a>
</g>
<text text-anchor="middle" x="94" y="-188.3" font-family="Times,serif" font-size="14.00">transmit [internalContact]</text>
</g>
<!-- Messenger_message_Deleted -->
<g id="node6" class="node">
<title>Messenger_message_Deleted</title>
<g id="a_node6"><a xlink:title="Class Messenger, SM message, State Deleted">
<path fill="none" stroke="black" d="M285,-123C285,-123 237,-123 237,-123 231,-123 225,-117 225,-111 225,-111 225,-99 225,-99 225,-93 231,-87 237,-87 237,-87 285,-87 285,-87 291,-87 297,-93 297,-99 297,-99 297,-111 297,-111 297,-117 291,-123 285,-123"/>
<text text-anchor="middle" x="261" y="-101.3" font-family="Times,serif" font-size="14.00">Deleted</text>
</a>
</g>
</g>
<!-- Messenger_message_Sent&#45;&gt;Messenger_message_Deleted -->
<g id="edge6" class="edge">
<title>Messenger_message_Sent&#45;&gt;Messenger_message_Deleted</title>
<g id="a_edge6"><a xlink:title="From Sent to Deleted on deleteMessage">
<path fill="none" stroke="black" d="M114.1,-263.45C117.08,-262.53 120.07,-261.69 123,-261 160.61,-252.1 270.12,-271.71 296,-243 326.35,-209.33 313.35,-182.88 296,-141 294.53,-137.46 292.51,-134.09 290.18,-130.93"/>
<polygon fill="black" stroke="black" points="292.62,-128.41 283.43,-123.14 287.33,-132.99 292.62,-128.41"/>
</a>
</g>
<text text-anchor="middle" x="356.5" y="-188.3" font-family="Times,serif" font-size="14.00">deleteMessage</text>
</g>
<!-- Messenger_message_InTransit&#45;&gt;Messenger_message_Delivered -->
<g id="edge5" class="edge">
<title>Messenger_message_InTransit&#45;&gt;Messenger_message_Delivered</title>
<g id="a_edge5"><a xlink:title="From InTransit to Delivered on reachRecipient">
<path fill="none" stroke="black" d="M175.99,-178.7C159.03,-172.52 138.69,-164.53 121,-156 104.27,-147.93 86.46,-137.72 71.48,-128.63"/>
<polygon fill="black" stroke="black" points="72.91,-125.41 62.56,-123.15 69.24,-131.37 72.91,-125.41"/>
</a>
</g>
<text text-anchor="middle" x="163" y="-144.8" font-family="Times,serif" font-size="14.00">reachRecipient</text>
</g>
<!-- Messenger_message_InTransit&#45;&gt;Messenger_message_Deleted -->
<g id="edge7" class="edge">
<title>Messenger_message_InTransit&#45;&gt;Messenger_message_Deleted</title>
<g id="a_edge7"><a xlink:title="From InTransit to Deleted on deleteMessage">
<path fill="none" stroke="black" d="M208.7,-173.86C207.61,-163.75 207.78,-151.01 213,-141 215.09,-136.98 217.88,-133.31 221.07,-129.99"/>
<polygon fill="black" stroke="black" points="223.45,-132.55 228.55,-123.27 218.77,-127.34 223.45,-132.55"/>
</a>
</g>
<text text-anchor="middle" x="254.5" y="-144.8" font-family="Times,serif" font-size="14.00">deleteMessage</text>
</g>
<!-- Messenger_message_Read -->
<g id="node7" class="node">
<title>Messenger_message_Read</title>
<g id="a_node7"><a xlink:title="Class Messenger, SM message, State Read">
<path fill="none" stroke="black" d="M60,-36C60,-36 12,-36 12,-36 6,-36 0,-30 0,-24 0,-24 0,-12 0,-12 0,-6 6,0 12,0 12,0 60,0 60,0 66,0 72,-6 72,-12 72,-12 72,-24 72,-24 72,-30 66,-36 60,-36"/>
<text text-anchor="middle" x="36" y="-14.3" font-family="Times,serif" font-size="14.00">Read</text>
</a>
</g>
</g>
<!-- Messenger_message_Delivered&#45;&gt;Messenger_message_Read -->
<g id="edge8" class="edge">
<title>Messenger_message_Delivered&#45;&gt;Messenger_message_Read</title>
<g id="a_edge8"><a xlink:title="From Delivered to Read on read">
<path fill="none" stroke="black" d="M36,-86.8C36,-75.16 36,-59.55 36,-46.24"/>
<polygon fill="black" stroke="black" points="39.5,-46.18 36,-36.18 32.5,-46.18 39.5,-46.18"/>
</a>
</g>
<text text-anchor="middle" x="48.5" y="-57.8" font-family="Times,serif" font-size="14.00">read</text>
</g>
</g>
</svg>
