<?xml version="1.0" encoding="UTF-8" standalone="no"?>
<!DOCTYPE svg PUBLIC "-//W3C//DTD SVG 1.1//EN"
 "http://www.w3.org/Graphics/SVG/1.1/DTD/svg11.dtd">
<!-- Generated by graphviz version 2.48.0 (20210717.1556)
 -->
<!-- Title: MicrowaveOven2 Pages: 1 -->
<svg width="1029pt" height="443pt"
 viewBox="0.00 0.00 1029.00 443.40" xmlns="http://www.w3.org/2000/svg" xmlns:xlink="http://www.w3.org/1999/xlink">
<g id="graph0" class="graph" transform="scale(1 1) rotate(0) translate(4 439.4)">
<title>MicrowaveOven2</title>
<polygon fill="white" stroke="transparent" points="-4,4 -4,-439.4 1025,-439.4 1025,4 -4,4"/>
<!-- start_Microwave_operatingMicrowaveStateMachine -->
<g id="node1" class="node">
<title>start_Microwave_operatingMicrowaveStateMachine</title>
<g id="a_node1"><a xlink:title="Class Microwave, SM operatingMicrowaveStateMachine, State start">
<ellipse fill="black" stroke="black" cx="684" cy="-428.2" rx="7.2" ry="7.2"/>
</a>
</g>
</g>
<!-- Microwave_operatingMicrowaveStateMachine_readyToCook -->
<g id="node2" class="node">
<title>Microwave_operatingMicrowaveStateMachine_readyToCook</title>
<g id="a_node2"><a xlink:title="Class Microwave, SM operatingMicrowaveStateMachine, State readyToCook&#13;Entry:&#10; &#160;&#160;// turn off light&#10; &#160;&#160;turnOff();">
<path fill="none" stroke="black" d="M718,-384C718,-384 650,-384 650,-384 644,-384 638,-378 638,-372 638,-372 638,-360 638,-360 638,-354 644,-348 650,-348 650,-348 718,-348 718,-348 724,-348 730,-354 730,-360 730,-360 730,-372 730,-372 730,-378 724,-384 718,-384"/>
<text text-anchor="middle" x="684" y="-362.3" font-family="Times,serif" font-size="14.00">readyToCook</text>
</a>
</g>
</g>
<!-- start_Microwave_operatingMicrowaveStateMachine&#45;&gt;Microwave_operatingMicrowaveStateMachine_readyToCook -->
<g id="edge1" class="edge">
<title>start_Microwave_operatingMicrowaveStateMachine&#45;&gt;Microwave_operatingMicrowaveStateMachine_readyToCook</title>
<g id="a_edge1"><a xlink:title="start to readyToCook">
<path fill="none" stroke="black" d="M684,-420.76C684,-414.39 684,-404.2 684,-394.39"/>
<polygon fill="black" stroke="black" points="687.5,-394.1 684,-384.1 680.5,-394.1 687.5,-394.1"/>
</a>
</g>
</g>
<!-- Microwave_operatingMicrowaveStateMachine_doorOpen -->
<g id="node3" class="node">
<title>Microwave_operatingMicrowaveStateMachine_doorOpen</title>
<g id="a_node3"><a xlink:title="Class Microwave, SM operatingMicrowaveStateMachine, State doorOpen&#13;Entry:&#10; &#160;&#160;// turn on light&#10; &#160;&#160;turnLightOn(true);">
<path fill="none" stroke="black" d="M283,-36C283,-36 235,-36 235,-36 229,-36 223,-30 223,-24 223,-24 223,-12 223,-12 223,-6 229,0 235,0 235,0 283,0 283,0 289,0 295,-6 295,-12 295,-12 295,-24 295,-24 295,-30 289,-36 283,-36"/>
<text text-anchor="middle" x="259" y="-14.3" font-family="Times,serif" font-size="14.00">doorOpen</text>
</a>
</g>
</g>
<!-- Microwave_operatingMicrowaveStateMachine_readyToCook&#45;&gt;Microwave_operatingMicrowaveStateMachine_doorOpen -->
<g id="edge4" class="edge">
<title>Microwave_operatingMicrowaveStateMachine_readyToCook&#45;&gt;Microwave_operatingMicrowaveStateMachine_doorOpen</title>
<g id="a_edge4"><a xlink:title="From readyToCook to doorOpen on doorOpened&#13;Transition Action:&#10; &#160;&#160;&#160;&#160;setIsDoorOpened(true);">
<path fill="none" stroke="black" d="M637.79,-364.13C484.14,-360.61 0,-344.43 0,-280 0,-280 0,-280 0,-104 0,-59.71 138.49,-34.74 212.93,-24.52"/>
<polygon fill="black" stroke="black" points="213.54,-27.97 222.99,-23.18 212.61,-21.03 213.54,-27.97"/>
</a>
</g>
<text text-anchor="middle" x="52.5" y="-188.3" font-family="Times,serif" font-size="14.00">doorOpened / {...}</text>
</g>
<!-- Microwave_operatingMicrowaveStateMachine_cooking -->
<g id="node4" class="node">
<title>Microwave_operatingMicrowaveStateMachine_cooking</title>
<g id="a_node4"><a xlink:title="Class Microwave, SM operatingMicrowaveStateMachine, State cooking&#13;Entry:&#10; &#160;&#160;// turn on light&#10; &#160;&#160;turnLightOn(true);&#10; &#160;&#160;// energize power tube&#10; &#160;&#160;energizePowerTube(true);&#10; &#160;&#160;//release a button&#10; &#160;&#160;...&#13;Activity:&#10; &#160;&#160;timer.tick(timer.getTimeMs());">
<path fill="none" stroke="black" d="M472,-297C472,-297 424,-297 424,-297 418,-297 412,-291 412,-285 412,-285 412,-273 412,-273 412,-267 418,-261 424,-261 424,-261 472,-261 472,-261 478,-261 484,-267 484,-273 484,-273 484,-285 484,-285 484,-291 478,-297 472,-297"/>
<text text-anchor="middle" x="448" y="-275.3" font-family="Times,serif" font-size="14.00">cooking</text>
</a>
</g>
</g>
<!-- Microwave_operatingMicrowaveStateMachine_readyToCook&#45;&gt;Microwave_operatingMicrowaveStateMachine_cooking -->
<g id="edge6" class="edge">
<title>Microwave_operatingMicrowaveStateMachine_readyToCook&#45;&gt;Microwave_operatingMicrowaveStateMachine_cooking</title>
<g id="a_edge6"><a xlink:title="From readyToCook to cooking on buttonPressed&#13;Transition Action:&#10; &#160;&#160;&#160;&#160;setIsButtonPressed(true);">
<path fill="none" stroke="black" d="M637.94,-348.41C596.33,-333.43 535.44,-311.49 493.89,-296.53"/>
<polygon fill="black" stroke="black" points="494.89,-293.17 484.29,-293.07 492.51,-299.75 494.89,-293.17"/>
</a>
</g>
<text text-anchor="middle" x="637" y="-318.8" font-family="Times,serif" font-size="14.00">buttonPressed / {...}</text>
</g>
<!-- Microwave_operatingMicrowaveStateMachine_doorOpen&#45;&gt;Microwave_operatingMicrowaveStateMachine_readyToCook -->
<g id="edge2" class="edge">
<title>Microwave_operatingMicrowaveStateMachine_doorOpen&#45;&gt;Microwave_operatingMicrowaveStateMachine_readyToCook</title>
<g id="a_edge2"><a xlink:title="From doorOpen to readyToCook on doorClosed&#13;Transition Action:&#10; &#160;&#160;&#160;&#160;setIsDoorOpened(false);">
<path fill="none" stroke="black" d="M295.06,-19.8C433.21,-23.34 921,-40.34 921,-104 921,-280 921,-280 921,-280 921,-318.23 810.38,-343.89 740.29,-356.32"/>
<polygon fill="black" stroke="black" points="739.51,-352.9 730.26,-358.06 740.71,-359.8 739.51,-352.9"/>
</a>
</g>
<text text-anchor="middle" x="971" y="-188.3" font-family="Times,serif" font-size="14.00">doorClosed / {...}</text>
</g>
<!-- Microwave_operatingMicrowaveStateMachine_cookingInterrupted -->
<g id="node5" class="node">
<title>Microwave_operatingMicrowaveStateMachine_cookingInterrupted</title>
<g id="a_node5"><a xlink:title="Class Microwave, SM operatingMicrowaveStateMachine, State cookingInterrupted&#13;Entry:&#10; &#160;&#160;turnOff();">
<path fill="none" stroke="black" d="M723,-123C723,-123 623,-123 623,-123 617,-123 611,-117 611,-111 611,-111 611,-99 611,-99 611,-93 617,-87 623,-87 623,-87 723,-87 723,-87 729,-87 735,-93 735,-99 735,-99 735,-111 735,-111 735,-117 729,-123 723,-123"/>
<text text-anchor="middle" x="673" y="-101.3" font-family="Times,serif" font-size="14.00">cookingInterrupted</text>
</a>
</g>
</g>
<!-- Microwave_operatingMicrowaveStateMachine_cooking&#45;&gt;Microwave_operatingMicrowaveStateMachine_cookingInterrupted -->
<g id="edge8" class="edge">
<title>Microwave_operatingMicrowaveStateMachine_cooking&#45;&gt;Microwave_operatingMicrowaveStateMachine_cookingInterrupted</title>
<g id="a_edge8"><a xlink:title="From cooking to cookingInterrupted on doorOpened&#13;Transition Action:&#10; &#160;&#160;&#160;&#160;setIsDoorOpened(true);">
<path fill="none" stroke="black" d="M484.31,-276.1C529.23,-271.71 604.81,-257.27 646,-210 664.51,-188.75 670.58,-156.36 672.44,-133.38"/>
<polygon fill="black" stroke="black" points="675.94,-133.44 673.04,-123.25 668.96,-133.03 675.94,-133.44"/>
</a>
</g>
<text text-anchor="middle" x="716.5" y="-188.3" font-family="Times,serif" font-size="14.00">doorOpened / {...}</text>
</g>
<!-- Microwave_operatingMicrowaveStateMachine_cookingComplete -->
<g id="node6" class="node">
<title>Microwave_operatingMicrowaveStateMachine_cookingComplete</title>
<g id="a_node6"><a xlink:title="Class Microwave, SM operatingMicrowaveStateMachine, State cookingComplete&#13;Entry:&#10; &#160;&#160;turnOff();">
<path fill="none" stroke="black" d="M305,-123C305,-123 213,-123 213,-123 207,-123 201,-117 201,-111 201,-111 201,-99 201,-99 201,-93 207,-87 213,-87 213,-87 305,-87 305,-87 311,-87 317,-93 317,-99 317,-99 317,-111 317,-111 317,-117 311,-123 305,-123"/>
<text text-anchor="middle" x="259" y="-101.3" font-family="Times,serif" font-size="14.00">cookingComplete</text>
</a>
</g>
</g>
<!-- Microwave_operatingMicrowaveStateMachine_cooking&#45;&gt;Microwave_operatingMicrowaveStateMachine_cookingComplete -->
<g id="edge10" class="edge">
<title>Microwave_operatingMicrowaveStateMachine_cooking&#45;&gt;Microwave_operatingMicrowaveStateMachine_cookingComplete</title>
<g id="a_edge10"><a xlink:title="From cooking to cookingComplete on timerTimesout">
<path fill="none" stroke="black" d="M411.94,-274.77C343.28,-267.79 198.01,-248.69 169,-210 146.91,-180.54 184.1,-148.83 217.16,-128.27"/>
<polygon fill="black" stroke="black" points="219.1,-131.19 225.88,-123.04 215.5,-125.19 219.1,-131.19"/>
</a>
</g>
<text text-anchor="middle" x="210" y="-188.3" font-family="Times,serif" font-size="14.00">timerTimesout</text>
</g>
<!-- Microwave_operatingMicrowaveStateMachine_cookingExtended -->
<g id="node7" class="node">
<title>Microwave_operatingMicrowaveStateMachine_cookingExtended</title>
<g id="a_node7"><a xlink:title="Class Microwave, SM operatingMicrowaveStateMachine, State cookingExtended&#13;Entry:&#10; &#160;&#160;// add 1 minute to timer&#10; &#160;&#160;timer.setTimeMs(TimeIncrementMs + timer.getTimeMs());&#10; &#160;&#160;//release a button&#10; &#160;&#160;setIsButtonPressed(false);">
<path fill="none" stroke="black" d="M493,-210C493,-210 403,-210 403,-210 397,-210 391,-204 391,-198 391,-198 391,-186 391,-186 391,-180 397,-174 403,-174 403,-174 493,-174 493,-174 499,-174 505,-180 505,-186 505,-186 505,-198 505,-198 505,-204 499,-210 493,-210"/>
<text text-anchor="middle" x="448" y="-188.3" font-family="Times,serif" font-size="14.00">cookingExtended</text>
</a>
</g>
</g>
<!-- Microwave_operatingMicrowaveStateMachine_cooking&#45;&gt;Microwave_operatingMicrowaveStateMachine_cookingExtended -->
<g id="edge12" class="edge">
<title>Microwave_operatingMicrowaveStateMachine_cooking&#45;&gt;Microwave_operatingMicrowaveStateMachine_cookingExtended</title>
<g id="a_edge12"><a xlink:title="From cooking to cookingExtended on buttonPressed&#13;Transition Action:&#10; &#160;&#160;&#160;&#160;setIsButtonPressed(true);">
<path fill="none" stroke="black" d="M448,-260.8C448,-249.16 448,-233.55 448,-220.24"/>
<polygon fill="black" stroke="black" points="451.5,-220.18 448,-210.18 444.5,-220.18 451.5,-220.18"/>
</a>
</g>
<text text-anchor="middle" x="505" y="-231.8" font-family="Times,serif" font-size="14.00">buttonPressed / {...}</text>
</g>
<!-- Microwave_operatingMicrowaveStateMachine_cookingInterrupted&#45;&gt;Microwave_operatingMicrowaveStateMachine_readyToCook -->
<g id="edge3" class="edge">
<title>Microwave_operatingMicrowaveStateMachine_cookingInterrupted&#45;&gt;Microwave_operatingMicrowaveStateMachine_readyToCook</title>
<g id="a_edge3"><a xlink:title="From cookingInterrupted to readyToCook on doorClosed&#13;Transition Action:&#10; &#160;&#160;&#160;&#160;setIsDoorOpened(false);">
<path fill="none" stroke="black" d="M715.37,-123.11C736.79,-134.18 760.77,-150.9 773,-174 804,-232.56 746.59,-303.86 710.35,-340.57"/>
<polygon fill="black" stroke="black" points="707.62,-338.33 702.97,-347.85 712.55,-343.31 707.62,-338.33"/>
</a>
</g>
<text text-anchor="middle" x="829" y="-231.8" font-family="Times,serif" font-size="14.00">doorClosed / {...}</text>
</g>
<!-- Microwave_operatingMicrowaveStateMachine_cookingComplete&#45;&gt;Microwave_operatingMicrowaveStateMachine_doorOpen -->
<g id="edge5" class="edge">
<title>Microwave_operatingMicrowaveStateMachine_cookingComplete&#45;&gt;Microwave_operatingMicrowaveStateMachine_doorOpen</title>
<g id="a_edge5"><a xlink:title="From cookingComplete to doorOpen on doorOpened&#13;Transition Action:&#10; &#160;&#160;&#160;&#160;setIsDoorOpened(true);">
<path fill="none" stroke="black" d="M259,-86.8C259,-75.16 259,-59.55 259,-46.24"/>
<polygon fill="black" stroke="black" points="262.5,-46.18 259,-36.18 255.5,-46.18 262.5,-46.18"/>
</a>
</g>
<text text-anchor="middle" x="311.5" y="-57.8" font-family="Times,serif" font-size="14.00">doorOpened / {...}</text>
</g>
<!-- Microwave_operatingMicrowaveStateMachine_cookingComplete&#45;&gt;Microwave_operatingMicrowaveStateMachine_cooking -->
<g id="edge7" class="edge">
<title>Microwave_operatingMicrowaveStateMachine_cookingComplete&#45;&gt;Microwave_operatingMicrowaveStateMachine_cooking</title>
<g id="a_edge7"><a xlink:title="From cookingComplete to cooking on buttonPressed&#13;Transition Action:&#10; &#160;&#160;&#160;&#160;setIsButtonPressed(true);">
<path fill="none" stroke="black" d="M255.38,-123.05C251.68,-145.4 248.86,-184.71 268,-210 299.57,-251.71 359.87,-267.83 401.93,-274.07"/>
<polygon fill="black" stroke="black" points="401.56,-277.55 411.94,-275.42 402.5,-270.61 401.56,-277.55"/>
</a>
</g>
<text text-anchor="middle" x="325" y="-188.3" font-family="Times,serif" font-size="14.00">buttonPressed / {...}</text>
</g>
<!-- Microwave_operatingMicrowaveStateMachine_cookingExtended&#45;&gt;Microwave_operatingMicrowaveStateMachine_cookingInterrupted -->
<g id="edge9" class="edge">
<title>Microwave_operatingMicrowaveStateMachine_cookingExtended&#45;&gt;Microwave_operatingMicrowaveStateMachine_cookingInterrupted</title>
<g id="a_edge9"><a xlink:title="From cookingExtended to cookingInterrupted on doorOpened&#13;Transition Action:&#10; &#160;&#160;&#160;&#160;setIsDoorOpened(true);">
<path fill="none" stroke="black" d="M480.85,-173.89C501.5,-163.54 528.9,-150.55 554,-141 569.09,-135.26 585.54,-129.89 601.26,-125.15"/>
<polygon fill="black" stroke="black" points="602.34,-128.48 610.94,-122.28 600.36,-121.77 602.34,-128.48"/>
</a>
</g>
<text text-anchor="middle" x="606.5" y="-144.8" font-family="Times,serif" font-size="14.00">doorOpened / {...}</text>
</g>
<!-- Microwave_operatingMicrowaveStateMachine_cookingExtended&#45;&gt;Microwave_operatingMicrowaveStateMachine_cookingComplete -->
<g id="edge11" class="edge">
<title>Microwave_operatingMicrowaveStateMachine_cookingExtended&#45;&gt;Microwave_operatingMicrowaveStateMachine_cookingComplete</title>
<g id="a_edge11"><a xlink:title="From cookingExtended to cookingComplete on timerTimesout">
<path fill="none" stroke="black" d="M409.75,-173.8C379.81,-160.33 338.02,-141.54 306.03,-127.15"/>
<polygon fill="black" stroke="black" points="307.42,-123.94 296.87,-123.03 304.55,-130.32 307.42,-123.94"/>
</a>
</g>
<text text-anchor="middle" x="406" y="-144.8" font-family="Times,serif" font-size="14.00">timerTimesout</text>
</g>
<!-- Microwave_operatingMicrowaveStateMachine_cookingExtended&#45;&gt;Microwave_operatingMicrowaveStateMachine_cookingExtended -->
<g id="edge13" class="edge">
<title>Microwave_operatingMicrowaveStateMachine_cookingExtended&#45;&gt;Microwave_operatingMicrowaveStateMachine_cookingExtended</title>
<g id="a_edge13"><a xlink:title="From cookingExtended to cookingExtended on buttonPressed&#13;Transition Action:&#10; &#160;&#160;&#160;&#160;setIsButtonPressed(true);">
<path fill="none" stroke="black" d="M505.23,-199.44C515.67,-198.5 523,-196.02 523,-192 523,-189.49 520.14,-187.58 515.44,-186.27"/>
<polygon fill="black" stroke="black" points="515.67,-182.76 505.23,-184.56 514.51,-189.66 515.67,-182.76"/>
</a>
</g>
<text text-anchor="middle" x="580" y="-188.3" font-family="Times,serif" font-size="14.00">buttonPressed / {...}</text>
</g>
</g>
</svg>
