<?xml version="1.0" encoding="UTF-8" standalone="no"?>
<!DOCTYPE svg PUBLIC "-//W3C//DTD SVG 1.1//EN"
 "http://www.w3.org/Graphics/SVG/1.1/DTD/svg11.dtd">
<!-- Generated by graphviz version 2.40.1 (20161225.0304)
 -->
<!-- Title: Ovens Pages: 1 -->
<svg width="2229pt" height="581pt"
 viewBox="0.00 0.00 2229.00 581.00" xmlns="http://www.w3.org/2000/svg" xmlns:xlink="http://www.w3.org/1999/xlink">
<g id="graph0" class="graph" transform="scale(1 1) rotate(0) translate(4 577)">
<title>Ovens</title>
<polygon fill="#ffffff" stroke="transparent" points="-4,4 -4,-577 2225,-577 2225,4 -4,4"/>
<g id="clust1" class="cluster">
<title>clusterOven1_cook</title>
<polygon fill="none" stroke="#000000" stroke-width=".5" points="8,-380 8,-565 128,-565 128,-380 8,-380"/>
<text text-anchor="middle" x="68" y="-549.8" font-family="Times,serif" font-size="14.00" fill="#000000">sm Oven1 cook</text>
</g>
<g id="clust2" class="cluster">
<title>clusterOven1_ovenstate</title>
<polygon fill="none" stroke="#000000" stroke-width=".5" points="136,-132 136,-554.2 475,-554.2 475,-132 136,-132"/>
<text text-anchor="middle" x="305.5" y="-539" font-family="Times,serif" font-size="14.00" fill="#000000">sm Oven1 ovenstate</text>
</g>
<g id="clust3" class="cluster">
<title>clusterOven2_cook</title>
<polygon fill="none" stroke="#000000" stroke-width=".5" points="483,-380 483,-565 603,-565 603,-380 483,-380"/>
<text text-anchor="middle" x="543" y="-549.8" font-family="Times,serif" font-size="14.00" fill="#000000">sm Oven2 cook</text>
</g>
<g id="clust4" class="cluster">
<title>clusterOven2_ovenstate</title>
<polygon fill="none" stroke="#000000" stroke-width=".5" points="611,-8 611,-554.2 1227,-554.2 1227,-8 611,-8"/>
<text text-anchor="middle" x="919" y="-539" font-family="Times,serif" font-size="14.00" fill="#000000">sm Oven2 ovenstate</text>
</g>
<g id="clust5" class="cluster">
<title>clusterOven3_cook</title>
<polygon fill="none" stroke="#000000" stroke-width=".5" points="1235,-380 1235,-565 1355,-565 1355,-380 1235,-380"/>
<text text-anchor="middle" x="1295" y="-549.8" font-family="Times,serif" font-size="14.00" fill="#000000">sm Oven3 cook</text>
</g>
<g id="clust6" class="cluster">
<title>clusterOven3_ovenstate</title>
<polygon fill="none" stroke="#000000" stroke-width=".5" points="1363,-380 1363,-554.2 2213,-554.2 2213,-380 1363,-380"/>
<text text-anchor="middle" x="1788" y="-539" font-family="Times,serif" font-size="14.00" fill="#000000">sm Oven3 ovenstate</text>
</g>
<!-- start_Oven1_cook -->
<g id="node1" class="node">
<title>start_Oven1_cook</title>
<g id="a_node1"><a xlink:title="Class Oven1, SM cook, State start">
<ellipse fill="#000000" stroke="#000000" cx="113" cy="-517" rx="7.2" ry="7.2"/>
</a>
</g>
</g>
<!-- Oven1_cook_OFF -->
<g id="node2" class="node">
<title>Oven1_cook_OFF</title>
<g id="a_node2"><a xlink:title="Class Oven1, SM cook, State OFF">
<path fill="none" stroke="#000000" d="M108,-424C108,-424 60,-424 60,-424 54,-424 48,-418 48,-412 48,-412 48,-400 48,-400 48,-394 54,-388 60,-388 60,-388 108,-388 108,-388 114,-388 120,-394 120,-400 120,-400 120,-412 120,-412 120,-418 114,-424 108,-424"/>
<text text-anchor="middle" x="84" y="-401.8" font-family="Times,serif" font-size="14.00" fill="#000000">OFF</text>
</a>
</g>
</g>
<!-- start_Oven1_cook&#45;&gt;Oven1_cook_OFF -->
<g id="edge1" class="edge">
<title>start_Oven1_cook&#45;&gt;Oven1_cook_OFF</title>
<g id="a_edge1"><a xlink:title="start to OFF">
<path fill="none" stroke="#000000" d="M111.0972,-509.717C107.1545,-494.6258 97.9109,-459.2453 91.3178,-434.0096"/>
<polygon fill="#000000" stroke="#000000" points="94.6786,-433.0266 88.7644,-424.2361 87.9059,-434.7961 94.6786,-433.0266"/>
</a>
</g>
</g>
<!-- Oven1_cook_ON -->
<g id="node3" class="node">
<title>Oven1_cook_ON</title>
<g id="a_node3"><a xlink:title="Class Oven1, SM cook, State ON">
<path fill="none" stroke="#000000" d="M76,-535C76,-535 28,-535 28,-535 22,-535 16,-529 16,-523 16,-523 16,-511 16,-511 16,-505 22,-499 28,-499 28,-499 76,-499 76,-499 82,-499 88,-505 88,-511 88,-511 88,-523 88,-523 88,-529 82,-535 76,-535"/>
<text text-anchor="middle" x="52" y="-512.8" font-family="Times,serif" font-size="14.00" fill="#000000">ON</text>
</a>
</g>
</g>
<!-- start_Oven1_ovenstate -->
<g id="node4" class="node">
<title>start_Oven1_ovenstate</title>
<g id="a_node4"><a xlink:title="Class Oven1, SM ovenstate, State start">
<ellipse fill="#000000" stroke="#000000" cx="180" cy="-517" rx="7.2" ry="7.2"/>
</a>
</g>
</g>
<!-- Oven1_ovenstate_s1_1 -->
<g id="node5" class="node">
<title>Oven1_ovenstate_s1_1</title>
<g id="a_node5"><a xlink:title="Class Oven1, SM ovenstate, State s1_1">
<path fill="none" stroke="#000000" d="M204,-424C204,-424 156,-424 156,-424 150,-424 144,-418 144,-412 144,-412 144,-400 144,-400 144,-394 150,-388 156,-388 156,-388 204,-388 204,-388 210,-388 216,-394 216,-400 216,-400 216,-412 216,-412 216,-418 210,-424 204,-424"/>
<text text-anchor="middle" x="180" y="-401.8" font-family="Times,serif" font-size="14.00" fill="#000000">s1_1</text>
</a>
</g>
</g>
<!-- start_Oven1_ovenstate&#45;&gt;Oven1_ovenstate_s1_1 -->
<g id="edge2" class="edge">
<title>start_Oven1_ovenstate&#45;&gt;Oven1_ovenstate_s1_1</title>
<g id="a_edge2"><a xlink:title="start to s1_1">
<path fill="none" stroke="#000000" d="M180,-509.717C180,-494.6929 180,-459.5594 180,-434.3466"/>
<polygon fill="#000000" stroke="#000000" points="183.5001,-434.2361 180,-424.2361 176.5001,-434.2362 183.5001,-434.2361"/>
</a>
</g>
</g>
<!-- Oven1_ovenstate_s1_2 -->
<g id="node6" class="node">
<title>Oven1_ovenstate_s1_2</title>
<g id="a_node6"><a xlink:title="Class Oven1, SM ovenstate, State s1_2">
<path fill="none" stroke="#000000" d="M204,-300C204,-300 156,-300 156,-300 150,-300 144,-294 144,-288 144,-288 144,-276 144,-276 144,-270 150,-264 156,-264 156,-264 204,-264 204,-264 210,-264 216,-270 216,-276 216,-276 216,-288 216,-288 216,-294 210,-300 204,-300"/>
<text text-anchor="middle" x="180" y="-277.8" font-family="Times,serif" font-size="14.00" fill="#000000">s1_2</text>
</a>
</g>
</g>
<!-- Oven1_ovenstate_s1_1&#45;&gt;Oven1_ovenstate_s1_2 -->
<g id="edge3" class="edge">
<title>Oven1_ovenstate_s1_1&#45;&gt;Oven1_ovenstate_s1_2</title>
<g id="a_edge3"><a xlink:title="From s1_1 to s1_2 on enterTime(Integer t)&#13;Guard: &#160;[t &gt; 0]&#13;Transition Action:&#10; &#160;&#160;&#160;&#160;leftTime = t;">
<path fill="none" stroke="#000000" d="M180,-387.9693C180,-367.5822 180,-334.1268 180,-310.2614"/>
<polygon fill="#000000" stroke="#000000" points="183.5001,-310.0524 180,-300.0524 176.5001,-310.0525 183.5001,-310.0524"/>
</a>
</g>
<text text-anchor="middle" x="296.6416" y="-339.8" font-family="Times,serif" font-size="14.00" fill="#000000">enterTime(Integer t) [t &gt; 0] / leftTime = t;</text>
</g>
<!-- Oven1_ovenstate_s1_2&#45;&gt;Oven1_ovenstate_s1_2 -->
<g id="edge4" class="edge">
<title>Oven1_ovenstate_s1_2&#45;&gt;Oven1_ovenstate_s1_2</title>
<g id="a_edge4"><a xlink:title="From s1_2 to s1_2 on enterTime(Integer t)&#13;Guard: &#160;[t &gt; 0]&#13;Transition Action:&#10; &#160;&#160;&#160;&#160;leftTime = t;">
<path fill="none" stroke="#000000" d="M216.0873,-288.7166C226.2211,-288.4225 234,-286.1836 234,-282 234,-279.3853 230.9614,-277.5302 226.2083,-276.4347"/>
<polygon fill="#000000" stroke="#000000" points="226.4189,-272.9362 216.0873,-275.2834 225.6276,-279.8913 226.4189,-272.9362"/>
</a>
</g>
<text text-anchor="middle" x="350.6416" y="-277.8" font-family="Times,serif" font-size="14.00" fill="#000000">enterTime(Integer t) [t &gt; 0] / leftTime = t;</text>
</g>
<!-- Oven1_ovenstate_s1_3 -->
<g id="node7" class="node">
<title>Oven1_ovenstate_s1_3</title>
<g id="a_node7"><a xlink:title="Class Oven1, SM ovenstate, State s1_3">
<path fill="none" stroke="#000000" d="M204,-176C204,-176 156,-176 156,-176 150,-176 144,-170 144,-164 144,-164 144,-152 144,-152 144,-146 150,-140 156,-140 156,-140 204,-140 204,-140 210,-140 216,-146 216,-152 216,-152 216,-164 216,-164 216,-170 210,-176 204,-176"/>
<text text-anchor="middle" x="180" y="-153.8" font-family="Times,serif" font-size="14.00" fill="#000000">s1_3</text>
</a>
</g>
</g>
<!-- Oven1_ovenstate_s1_2&#45;&gt;Oven1_ovenstate_s1_3 -->
<g id="edge5" class="edge">
<title>Oven1_ovenstate_s1_2&#45;&gt;Oven1_ovenstate_s1_3</title>
<g id="a_edge5"><a xlink:title="From s1_2 to s1_3 on start&#13;Transition Action:&#10; &#160;&#160;&#160;&#160;cook = Cook.ON;">
<path fill="none" stroke="#000000" d="M180,-263.9693C180,-243.5822 180,-210.1268 180,-186.2614"/>
<polygon fill="#000000" stroke="#000000" points="183.5001,-186.0524 180,-176.0524 176.5001,-186.0525 183.5001,-186.0524"/>
</a>
</g>
<text text-anchor="middle" x="247.5254" y="-215.8" font-family="Times,serif" font-size="14.00" fill="#000000">start / cook = Cook.ON;</text>
</g>
<!-- start_Oven2_cook -->
<g id="node8" class="node">
<title>start_Oven2_cook</title>
<g id="a_node8"><a xlink:title="Class Oven2, SM cook, State start">
<ellipse fill="#000000" stroke="#000000" cx="588" cy="-517" rx="7.2" ry="7.2"/>
</a>
</g>
</g>
<!-- Oven2_cook_OFF -->
<g id="node9" class="node">
<title>Oven2_cook_OFF</title>
<g id="a_node9"><a xlink:title="Class Oven2, SM cook, State OFF">
<path fill="none" stroke="#000000" d="M583,-424C583,-424 535,-424 535,-424 529,-424 523,-418 523,-412 523,-412 523,-400 523,-400 523,-394 529,-388 535,-388 535,-388 583,-388 583,-388 589,-388 595,-394 595,-400 595,-400 595,-412 595,-412 595,-418 589,-424 583,-424"/>
<text text-anchor="middle" x="559" y="-401.8" font-family="Times,serif" font-size="14.00" fill="#000000">OFF</text>
</a>
</g>
</g>
<!-- start_Oven2_cook&#45;&gt;Oven2_cook_OFF -->
<g id="edge6" class="edge">
<title>start_Oven2_cook&#45;&gt;Oven2_cook_OFF</title>
<g id="a_edge6"><a xlink:title="start to OFF">
<path fill="none" stroke="#000000" d="M586.0972,-509.717C582.1545,-494.6258 572.9109,-459.2453 566.3178,-434.0096"/>
<polygon fill="#000000" stroke="#000000" points="569.6786,-433.0266 563.7644,-424.2361 562.9059,-434.7961 569.6786,-433.0266"/>
</a>
</g>
</g>
<!-- Oven2_cook_ON -->
<g id="node10" class="node">
<title>Oven2_cook_ON</title>
<g id="a_node10"><a xlink:title="Class Oven2, SM cook, State ON">
<path fill="none" stroke="#000000" d="M551,-535C551,-535 503,-535 503,-535 497,-535 491,-529 491,-523 491,-523 491,-511 491,-511 491,-505 497,-499 503,-499 503,-499 551,-499 551,-499 557,-499 563,-505 563,-511 563,-511 563,-523 563,-523 563,-529 557,-535 551,-535"/>
<text text-anchor="middle" x="527" y="-512.8" font-family="Times,serif" font-size="14.00" fill="#000000">ON</text>
</a>
</g>
</g>
<!-- start_Oven2_ovenstate -->
<g id="node11" class="node">
<title>start_Oven2_ovenstate</title>
<g id="a_node11"><a xlink:title="Class Oven2, SM ovenstate, State start">
<ellipse fill="#000000" stroke="#000000" cx="834" cy="-517" rx="7.2" ry="7.2"/>
</a>
</g>
</g>
<!-- Oven2_ovenstate_s2_1 -->
<g id="node12" class="node">
<title>Oven2_ovenstate_s2_1</title>
<g id="a_node12"><a xlink:title="Class Oven2, SM ovenstate, State s2_1">
<path fill="none" stroke="#000000" d="M858,-424C858,-424 810,-424 810,-424 804,-424 798,-418 798,-412 798,-412 798,-400 798,-400 798,-394 804,-388 810,-388 810,-388 858,-388 858,-388 864,-388 870,-394 870,-400 870,-400 870,-412 870,-412 870,-418 864,-424 858,-424"/>
<text text-anchor="middle" x="834" y="-401.8" font-family="Times,serif" font-size="14.00" fill="#000000">s2_1</text>
</a>
</g>
</g>
<!-- start_Oven2_ovenstate&#45;&gt;Oven2_ovenstate_s2_1 -->
<g id="edge7" class="edge">
<title>start_Oven2_ovenstate&#45;&gt;Oven2_ovenstate_s2_1</title>
<g id="a_edge7"><a xlink:title="start to s2_1">
<path fill="none" stroke="#000000" d="M834,-509.717C834,-494.6929 834,-459.5594 834,-434.3466"/>
<polygon fill="#000000" stroke="#000000" points="837.5001,-434.2361 834,-424.2361 830.5001,-434.2362 837.5001,-434.2361"/>
</a>
</g>
</g>
<!-- Oven2_ovenstate_s2_2 -->
<g id="node13" class="node">
<title>Oven2_ovenstate_s2_2</title>
<g id="a_node13"><a xlink:title="Class Oven2, SM ovenstate, State s2_2">
<path fill="none" stroke="#000000" d="M679,-300C679,-300 631,-300 631,-300 625,-300 619,-294 619,-288 619,-288 619,-276 619,-276 619,-270 625,-264 631,-264 631,-264 679,-264 679,-264 685,-264 691,-270 691,-276 691,-276 691,-288 691,-288 691,-294 685,-300 679,-300"/>
<text text-anchor="middle" x="655" y="-277.8" font-family="Times,serif" font-size="14.00" fill="#000000">s2_2</text>
</a>
</g>
</g>
<!-- Oven2_ovenstate_s2_1&#45;&gt;Oven2_ovenstate_s2_2 -->
<g id="edge8" class="edge">
<title>Oven2_ovenstate_s2_1&#45;&gt;Oven2_ovenstate_s2_2</title>
<g id="a_edge8"><a xlink:title="From s2_1 to s2_2 on enterTime(Integer t)&#13;Guard: &#160;[t &gt; 1]&#13;Transition Action:&#10; &#160;&#160;&#160;&#160;leftTime = t;">
<path fill="none" stroke="#000000" d="M800.0564,-387.8835C781.7577,-377.7024 759.0334,-364.3803 739.7168,-351 720.1971,-337.4791 699.5108,-320.6829 683.4661,-307.0476"/>
<polygon fill="#000000" stroke="#000000" points="685.3984,-304.0938 675.5296,-300.2393 680.8407,-309.4068 685.3984,-304.0938"/>
</a>
</g>
<text text-anchor="middle" x="855.6416" y="-339.8" font-family="Times,serif" font-size="14.00" fill="#000000">enterTime(Integer t) [t &gt; 1] / leftTime = t;</text>
</g>
<!-- Oven2_ovenstate_s2_3 -->
<g id="node14" class="node">
<title>Oven2_ovenstate_s2_3</title>
<g id="a_node14"><a xlink:title="Class Oven2, SM ovenstate, State s2_3">
<path fill="none" stroke="#000000" d="M844,-176C844,-176 796,-176 796,-176 790,-176 784,-170 784,-164 784,-164 784,-152 784,-152 784,-146 790,-140 796,-140 796,-140 844,-140 844,-140 850,-140 856,-146 856,-152 856,-152 856,-164 856,-164 856,-170 850,-176 844,-176"/>
<text text-anchor="middle" x="820" y="-153.8" font-family="Times,serif" font-size="14.00" fill="#000000">s2_3</text>
</a>
</g>
</g>
<!-- Oven2_ovenstate_s2_1&#45;&gt;Oven2_ovenstate_s2_3 -->
<g id="edge11" class="edge">
<title>Oven2_ovenstate_s2_1&#45;&gt;Oven2_ovenstate_s2_3</title>
<g id="a_edge11"><a xlink:title="From s2_1 to s2_3 on enterTime(Integer t)&#13;Guard: &#160;[t == 1]&#13;Transition Action:&#10; &#160;&#160;&#160;&#160;leftTime = t;">
<path fill="none" stroke="#000000" d="M870.1827,-399.5367C970.999,-380.0499 1242.0603,-316.7473 1154,-213 1135.5683,-191.285 953.5025,-170.9168 866.214,-162.3092"/>
<polygon fill="#000000" stroke="#000000" points="866.3488,-158.8058 856.0562,-161.3185 865.6692,-165.7728 866.3488,-158.8058"/>
</a>
</g>
<text text-anchor="middle" x="1289.5894" y="-277.8" font-family="Times,serif" font-size="14.00" fill="#000000">enterTime(Integer t) [t == 1] / leftTime = t;</text>
</g>
<!-- Oven2_ovenstate_s2_2&#45;&gt;Oven2_ovenstate_s2_2 -->
<g id="edge9" class="edge">
<title>Oven2_ovenstate_s2_2&#45;&gt;Oven2_ovenstate_s2_2</title>
<g id="a_edge9"><a xlink:title="From s2_2 to s2_2 on enterTime(Integer t)&#13;Guard: &#160;[t &gt; 1]&#13;Transition Action:&#10; &#160;&#160;&#160;&#160;leftTime = t;">
<path fill="none" stroke="#000000" d="M691.0873,-288.7166C701.2211,-288.4225 709,-286.1836 709,-282 709,-279.3853 705.9614,-277.5302 701.2083,-276.4347"/>
<polygon fill="#000000" stroke="#000000" points="701.4189,-272.9362 691.0873,-275.2834 700.6276,-279.8913 701.4189,-272.9362"/>
</a>
</g>
<text text-anchor="middle" x="825.6416" y="-277.8" font-family="Times,serif" font-size="14.00" fill="#000000">enterTime(Integer t) [t &gt; 1] / leftTime = t;</text>
</g>
<!-- Oven2_ovenstate_s2_2&#45;&gt;Oven2_ovenstate_s2_3 -->
<g id="edge12" class="edge">
<title>Oven2_ovenstate_s2_2&#45;&gt;Oven2_ovenstate_s2_3</title>
<g id="a_edge12"><a xlink:title="From s2_2 to s2_3 on enterTime(Integer t)&#13;Guard: &#160;[t == 1]&#13;Transition Action:&#10; &#160;&#160;&#160;&#160;leftTime = t;">
<path fill="none" stroke="#000000" d="M691.3594,-279.4146C753.9141,-274.1276 877.7318,-259.7036 904,-227 920.7236,-206.1793 893.2946,-187.2942 865.414,-174.5662"/>
<polygon fill="#000000" stroke="#000000" points="866.5721,-171.2537 856.0047,-170.4919 863.7906,-177.6773 866.5721,-171.2537"/>
</a>
</g>
<text text-anchor="middle" x="1029.5894" y="-215.8" font-family="Times,serif" font-size="14.00" fill="#000000">enterTime(Integer t) [t == 1] / leftTime = t;</text>
</g>
<!-- Oven2_ovenstate_s2_4 -->
<g id="node15" class="node">
<title>Oven2_ovenstate_s2_4</title>
<g id="a_node15"><a xlink:title="Class Oven2, SM ovenstate, State s2_4&#13;Entry:&#10; &#160;&#160;cook = Cook.ON;">
<path fill="none" stroke="#000000" d="M725,-52C725,-52 677,-52 677,-52 671,-52 665,-46 665,-40 665,-40 665,-28 665,-28 665,-22 671,-16 677,-16 677,-16 725,-16 725,-16 731,-16 737,-22 737,-28 737,-28 737,-40 737,-40 737,-46 731,-52 725,-52"/>
<text text-anchor="middle" x="701" y="-29.8" font-family="Times,serif" font-size="14.00" fill="#000000">s2_4</text>
</a>
</g>
</g>
<!-- Oven2_ovenstate_s2_2&#45;&gt;Oven2_ovenstate_s2_4 -->
<g id="edge14" class="edge">
<title>Oven2_ovenstate_s2_2&#45;&gt;Oven2_ovenstate_s2_4</title>
<g id="a_edge14"><a xlink:title="From s2_2 to s2_4 on start">
<path fill="none" stroke="#000000" d="M653.1791,-263.7043C652.6947,-258.0358 652.2398,-251.7649 652,-246 651.3805,-231.1058 654.8844,-227.5779 658,-213 669.4411,-159.4666 684.8215,-97.4386 693.7482,-62.2471"/>
<polygon fill="#000000" stroke="#000000" points="697.224,-62.7808 696.2999,-52.2263 690.4404,-61.0534 697.224,-62.7808"/>
</a>
</g>
<text text-anchor="middle" x="688.0518" y="-153.8" font-family="Times,serif" font-size="14.00" fill="#000000">start</text>
</g>
<!-- Oven2_ovenstate_s2_3&#45;&gt;Oven2_ovenstate_s2_2 -->
<g id="edge10" class="edge">
<title>Oven2_ovenstate_s2_3&#45;&gt;Oven2_ovenstate_s2_2</title>
<g id="a_edge10"><a xlink:title="From s2_3 to s2_2 on enterTime(Integer t)&#13;Guard: &#160;[t &gt; 1]&#13;Transition Action:&#10; &#160;&#160;&#160;&#160;leftTime = t;">
<path fill="none" stroke="#000000" d="M783.7826,-161.5963C749.6352,-166.9495 699.5212,-180.2165 670.7168,-213 660.959,-224.1058 656.9018,-240.0155 655.3422,-253.7597"/>
<polygon fill="#000000" stroke="#000000" points="651.8522,-253.4956 654.5832,-263.7323 658.832,-254.0268 651.8522,-253.4956"/>
</a>
</g>
<text text-anchor="middle" x="786.6416" y="-215.8" font-family="Times,serif" font-size="14.00" fill="#000000">enterTime(Integer t) [t &gt; 1] / leftTime = t;</text>
</g>
<!-- Oven2_ovenstate_s2_3&#45;&gt;Oven2_ovenstate_s2_3 -->
<g id="edge13" class="edge">
<title>Oven2_ovenstate_s2_3&#45;&gt;Oven2_ovenstate_s2_3</title>
<g id="a_edge13"><a xlink:title="From s2_3 to s2_3 on enterTime(Integer t)&#13;Guard: &#160;[t == 1]&#13;Transition Action:&#10; &#160;&#160;&#160;&#160;leftTime = t;">
<path fill="none" stroke="#000000" d="M856.0873,-164.7166C866.2211,-164.4225 874,-162.1836 874,-158 874,-155.3853 870.9614,-153.5302 866.2083,-152.4347"/>
<polygon fill="#000000" stroke="#000000" points="866.4189,-148.9362 856.0873,-151.2834 865.6276,-155.8913 866.4189,-148.9362"/>
</a>
</g>
<text text-anchor="middle" x="994.5894" y="-153.8" font-family="Times,serif" font-size="14.00" fill="#000000">enterTime(Integer t) [t == 1] / leftTime = t;</text>
</g>
<!-- Oven2_ovenstate_s2_3&#45;&gt;Oven2_ovenstate_s2_4 -->
<g id="edge15" class="edge">
<title>Oven2_ovenstate_s2_3&#45;&gt;Oven2_ovenstate_s2_4</title>
<g id="a_edge15"><a xlink:title="From s2_3 to s2_4 on start">
<path fill="none" stroke="#000000" d="M802.6964,-139.9693C782.3381,-118.7556 748.4011,-83.3927 725.3831,-59.4076"/>
<polygon fill="#000000" stroke="#000000" points="727.7739,-56.844 718.3245,-52.0524 722.7234,-61.6909 727.7739,-56.844"/>
</a>
</g>
<text text-anchor="middle" x="778.0518" y="-91.8" font-family="Times,serif" font-size="14.00" fill="#000000">start</text>
</g>
<!-- start_Oven3_cook -->
<g id="node16" class="node">
<title>start_Oven3_cook</title>
<g id="a_node16"><a xlink:title="Class Oven3, SM cook, State start">
<ellipse fill="#000000" stroke="#000000" cx="1340" cy="-517" rx="7.2" ry="7.2"/>
</a>
</g>
</g>
<!-- Oven3_cook_OFF -->
<g id="node17" class="node">
<title>Oven3_cook_OFF</title>
<g id="a_node17"><a xlink:title="Class Oven3, SM cook, State OFF">
<path fill="none" stroke="#000000" d="M1335,-424C1335,-424 1287,-424 1287,-424 1281,-424 1275,-418 1275,-412 1275,-412 1275,-400 1275,-400 1275,-394 1281,-388 1287,-388 1287,-388 1335,-388 1335,-388 1341,-388 1347,-394 1347,-400 1347,-400 1347,-412 1347,-412 1347,-418 1341,-424 1335,-424"/>
<text text-anchor="middle" x="1311" y="-401.8" font-family="Times,serif" font-size="14.00" fill="#000000">OFF</text>
</a>
</g>
</g>
<!-- start_Oven3_cook&#45;&gt;Oven3_cook_OFF -->
<g id="edge16" class="edge">
<title>start_Oven3_cook&#45;&gt;Oven3_cook_OFF</title>
<g id="a_edge16"><a xlink:title="start to OFF">
<path fill="none" stroke="#000000" d="M1338.0972,-509.717C1334.1545,-494.6258 1324.9109,-459.2453 1318.3178,-434.0096"/>
<polygon fill="#000000" stroke="#000000" points="1321.6786,-433.0266 1315.7644,-424.2361 1314.9059,-434.7961 1321.6786,-433.0266"/>
</a>
</g>
</g>
<!-- Oven3_cook_ON -->
<g id="node18" class="node">
<title>Oven3_cook_ON</title>
<g id="a_node18"><a xlink:title="Class Oven3, SM cook, State ON">
<path fill="none" stroke="#000000" d="M1303,-535C1303,-535 1255,-535 1255,-535 1249,-535 1243,-529 1243,-523 1243,-523 1243,-511 1243,-511 1243,-505 1249,-499 1255,-499 1255,-499 1303,-499 1303,-499 1309,-499 1315,-505 1315,-511 1315,-511 1315,-523 1315,-523 1315,-529 1309,-535 1303,-535"/>
<text text-anchor="middle" x="1279" y="-512.8" font-family="Times,serif" font-size="14.00" fill="#000000">ON</text>
</a>
</g>
</g>
<!-- start_Oven3_ovenstate -->
<g id="node19" class="node">
<title>start_Oven3_ovenstate</title>
<g id="a_node19"><a xlink:title="Class Oven3, SM ovenstate, State start">
<ellipse fill="#000000" stroke="#000000" cx="1407" cy="-517" rx="7.2" ry="7.2"/>
</a>
</g>
</g>
<!-- Oven3_ovenstate_s3_1 -->
<g id="node20" class="node">
<title>Oven3_ovenstate_s3_1</title>
<g id="a_node20"><a xlink:title="Class Oven3, SM ovenstate, State s3_1">
<path fill="none" stroke="#000000" d="M1431,-424C1431,-424 1383,-424 1383,-424 1377,-424 1371,-418 1371,-412 1371,-412 1371,-400 1371,-400 1371,-394 1377,-388 1383,-388 1383,-388 1431,-388 1431,-388 1437,-388 1443,-394 1443,-400 1443,-400 1443,-412 1443,-412 1443,-418 1437,-424 1431,-424"/>
<text text-anchor="middle" x="1407" y="-401.8" font-family="Times,serif" font-size="14.00" fill="#000000">s3_1</text>
</a>
</g>
</g>
<!-- start_Oven3_ovenstate&#45;&gt;Oven3_ovenstate_s3_1 -->
<g id="edge17" class="edge">
<title>start_Oven3_ovenstate&#45;&gt;Oven3_ovenstate_s3_1</title>
<g id="a_edge17"><a xlink:title="start to s3_1">
<path fill="none" stroke="#000000" d="M1407,-509.717C1407,-494.6929 1407,-459.5594 1407,-434.3466"/>
<polygon fill="#000000" stroke="#000000" points="1410.5001,-434.2361 1407,-424.2361 1403.5001,-434.2362 1410.5001,-434.2361"/>
</a>
</g>
</g>
<!-- Oven3_ovenstate_s3_1&#45;&gt;Oven3_ovenstate_s3_1 -->
<g id="edge18" class="edge">
<title>Oven3_ovenstate_s3_1&#45;&gt;Oven3_ovenstate_s3_1</title>
<g id="a_edge18"><a xlink:title="From s3_1 to s3_1 on enterTime(Integer t)&#13;Guard: &#160;[cook == Cook.OFF &amp;&amp; t &gt; 0]&#13;Transition Action:&#10; &#160;&#160;&#160;&#160;leftTime = t;">
<path fill="none" stroke="#000000" d="M1443.0873,-409.3583C1453.2211,-409.2112 1461,-408.0918 1461,-406 1461,-404.6926 1457.9614,-403.7651 1453.2083,-403.2174"/>
<polygon fill="#000000" stroke="#000000" points="1453.27,-399.7153 1443.0873,-402.6417 1452.8724,-406.704 1453.27,-399.7153"/>
</a>
</g>
<text text-anchor="middle" x="1646.7939" y="-401.8" font-family="Times,serif" font-size="14.00" fill="#000000">enterTime(Integer t) [cook == Cook.OFF &amp;&amp; t &gt; 0] / leftTime = t;</text>
</g>
<!-- Oven3_ovenstate_s3_1&#45;&gt;Oven3_ovenstate_s3_1 -->
<g id="edge19" class="edge">
<title>Oven3_ovenstate_s3_1&#45;&gt;Oven3_ovenstate_s3_1</title>
<g id="a_edge19"><a xlink:title="From s3_1 to s3_1 on start&#13;Guard: &#160;[cook == Cook.OFF &amp;&amp; leftTime &gt; 0]&#13;Transition Action:&#10; &#160;&#160;&#160;&#160;cook = Cook.ON;">
<path fill="none" stroke="#000000" d="M1443.294,-409.5777C1547.3532,-414.7775 1832.5879,-413.585 1832.5879,-406 1832.5879,-398.6521 1564.9019,-397.3033 1453.5662,-401.9536"/>
<polygon fill="#000000" stroke="#000000" points="1453.1241,-398.47 1443.294,-402.4223 1453.4432,-405.4627 1453.1241,-398.47"/>
</a>
</g>
<text text-anchor="middle" x="2010.4829" y="-401.8" font-family="Times,serif" font-size="14.00" fill="#000000">start [cook == Cook.OFF &amp;&amp; leftTime &gt; 0] / cook = Cook.ON;</text>
</g>
</g>
</svg>
