<?xml version="1.0" encoding="UTF-8" standalone="no"?>
<!DOCTYPE svg PUBLIC "-//W3C//DTD SVG 1.1//EN"
 "http://www.w3.org/Graphics/SVG/1.1/DTD/svg11.dtd">
<!-- Generated by graphviz version 2.48.0 (20210717.1556)
 -->
<!-- Title: Ovens Pages: 1 -->
<svg width="2234pt" height="433pt"
 viewBox="0.00 0.00 2234.00 433.00" xmlns="http://www.w3.org/2000/svg" xmlns:xlink="http://www.w3.org/1999/xlink">
<g id="graph0" class="graph" transform="scale(1 1) rotate(0) translate(4 429)">
<title>Ovens</title>
<polygon fill="white" stroke="transparent" points="-4,4 -4,-429 2230,-429 2230,4 -4,4"/>
<g id="clust1" class="cluster">
<title>clusterOven1_cook</title>
<polygon fill="none" stroke="black" stroke-width="0.5" points="8,-269 8,-417 128,-417 128,-269 8,-269"/>
<text text-anchor="middle" x="68" y="-401.8" font-family="Times,serif" font-size="14.00">sm Oven1 cook</text>
</g>
<g id="clust2" class="cluster">
<title>clusterOven1_ovenstate</title>
<polygon fill="none" stroke="black" stroke-width="0.5" points="136,-95 136,-406.2 476,-406.2 476,-95 136,-95"/>
<text text-anchor="middle" x="306" y="-391" font-family="Times,serif" font-size="14.00">sm Oven1 ovenstate</text>
</g>
<g id="clust3" class="cluster">
<title>clusterOven2_cook</title>
<polygon fill="none" stroke="black" stroke-width="0.5" points="484,-269 484,-417 604,-417 604,-269 484,-269"/>
<text text-anchor="middle" x="544" y="-401.8" font-family="Times,serif" font-size="14.00">sm Oven2 cook</text>
</g>
<g id="clust4" class="cluster">
<title>clusterOven2_ovenstate</title>
<polygon fill="none" stroke="black" stroke-width="0.5" points="612,-8 612,-406.2 1230,-406.2 1230,-8 612,-8"/>
<text text-anchor="middle" x="921" y="-391" font-family="Times,serif" font-size="14.00">sm Oven2 ovenstate</text>
</g>
<g id="clust5" class="cluster">
<title>clusterOven3_cook</title>
<polygon fill="none" stroke="black" stroke-width="0.5" points="1238,-269 1238,-417 1358,-417 1358,-269 1238,-269"/>
<text text-anchor="middle" x="1298" y="-401.8" font-family="Times,serif" font-size="14.00">sm Oven3 cook</text>
</g>
<g id="clust6" class="cluster">
<title>clusterOven3_ovenstate</title>
<polygon fill="none" stroke="black" stroke-width="0.5" points="1366,-269 1366,-406.2 2218,-406.2 2218,-269 1366,-269"/>
<text text-anchor="middle" x="1792" y="-391" font-family="Times,serif" font-size="14.00">sm Oven3 ovenstate</text>
</g>
<!-- start_Oven1_cook -->
<g id="node1" class="node">
<title>start_Oven1_cook</title>
<g id="a_node1"><a xlink:title="Class Oven1, SM cook, State start">
<ellipse fill="black" stroke="black" cx="113" cy="-368" rx="7.2" ry="7.2"/>
</a>
</g>
</g>
<!-- Oven1_cook_OFF -->
<g id="node2" class="node">
<title>Oven1_cook_OFF</title>
<g id="a_node2"><a xlink:title="Class Oven1, SM cook, State OFF">
<path fill="none" stroke="black" d="M108,-313C108,-313 60,-313 60,-313 54,-313 48,-307 48,-301 48,-301 48,-289 48,-289 48,-283 54,-277 60,-277 60,-277 108,-277 108,-277 114,-277 120,-283 120,-289 120,-289 120,-301 120,-301 120,-307 114,-313 108,-313"/>
<text text-anchor="middle" x="84" y="-291.3" font-family="Times,serif" font-size="14.00">OFF</text>
</a>
</g>
</g>
<!-- start_Oven1_cook&#45;&gt;Oven1_cook_OFF -->
<g id="edge1" class="edge">
<title>start_Oven1_cook&#45;&gt;Oven1_cook_OFF</title>
<g id="a_edge1"><a xlink:title="start to OFF">
<path fill="none" stroke="black" d="M110.53,-360.95C107.09,-352.53 100.64,-336.75 94.97,-322.85"/>
<polygon fill="black" stroke="black" points="98.05,-321.13 91.02,-313.2 91.57,-323.78 98.05,-321.13"/>
</a>
</g>
</g>
<!-- Oven1_cook_ON -->
<g id="node3" class="node">
<title>Oven1_cook_ON</title>
<g id="a_node3"><a xlink:title="Class Oven1, SM cook, State ON">
<path fill="none" stroke="black" d="M76,-386C76,-386 28,-386 28,-386 22,-386 16,-380 16,-374 16,-374 16,-362 16,-362 16,-356 22,-350 28,-350 28,-350 76,-350 76,-350 82,-350 88,-356 88,-362 88,-362 88,-374 88,-374 88,-380 82,-386 76,-386"/>
<text text-anchor="middle" x="52" y="-364.3" font-family="Times,serif" font-size="14.00">ON</text>
</a>
</g>
</g>
<!-- start_Oven1_ovenstate -->
<g id="node4" class="node">
<title>start_Oven1_ovenstate</title>
<g id="a_node4"><a xlink:title="Class Oven1, SM ovenstate, State start">
<ellipse fill="black" stroke="black" cx="180" cy="-368" rx="7.2" ry="7.2"/>
</a>
</g>
</g>
<!-- Oven1_ovenstate_s1_1 -->
<g id="node5" class="node">
<title>Oven1_ovenstate_s1_1</title>
<g id="a_node5"><a xlink:title="Class Oven1, SM ovenstate, State s1_1">
<path fill="none" stroke="black" d="M204,-313C204,-313 156,-313 156,-313 150,-313 144,-307 144,-301 144,-301 144,-289 144,-289 144,-283 150,-277 156,-277 156,-277 204,-277 204,-277 210,-277 216,-283 216,-289 216,-289 216,-301 216,-301 216,-307 210,-313 204,-313"/>
<text text-anchor="middle" x="180" y="-291.3" font-family="Times,serif" font-size="14.00">s1_1</text>
</a>
</g>
</g>
<!-- start_Oven1_ovenstate&#45;&gt;Oven1_ovenstate_s1_1 -->
<g id="edge2" class="edge">
<title>start_Oven1_ovenstate&#45;&gt;Oven1_ovenstate_s1_1</title>
<g id="a_edge2"><a xlink:title="start to s1_1">
<path fill="none" stroke="black" d="M180,-360.45C180,-352.05 180,-336.97 180,-323.5"/>
<polygon fill="black" stroke="black" points="183.5,-323.21 180,-313.21 176.5,-323.21 183.5,-323.21"/>
</a>
</g>
</g>
<!-- Oven1_ovenstate_s1_2 -->
<g id="node6" class="node">
<title>Oven1_ovenstate_s1_2</title>
<g id="a_node6"><a xlink:title="Class Oven1, SM ovenstate, State s1_2">
<path fill="none" stroke="black" d="M204,-226C204,-226 156,-226 156,-226 150,-226 144,-220 144,-214 144,-214 144,-202 144,-202 144,-196 150,-190 156,-190 156,-190 204,-190 204,-190 210,-190 216,-196 216,-202 216,-202 216,-214 216,-214 216,-220 210,-226 204,-226"/>
<text text-anchor="middle" x="180" y="-204.3" font-family="Times,serif" font-size="14.00">s1_2</text>
</a>
</g>
</g>
<!-- Oven1_ovenstate_s1_1&#45;&gt;Oven1_ovenstate_s1_2 -->
<g id="edge3" class="edge">
<title>Oven1_ovenstate_s1_1&#45;&gt;Oven1_ovenstate_s1_2</title>
<g id="a_edge3"><a xlink:title="From s1_1 to s1_2 on enterTime(Integer t)&#13;Guard: &#160;[t &gt; 0]&#13;Transition Action:&#10; &#160;&#160;&#160;&#160;leftTime = t;">
<path fill="none" stroke="black" d="M180,-276.8C180,-265.16 180,-249.55 180,-236.24"/>
<polygon fill="black" stroke="black" points="183.5,-236.18 180,-226.18 176.5,-236.18 183.5,-236.18"/>
</a>
</g>
<text text-anchor="middle" x="297" y="-247.8" font-family="Times,serif" font-size="14.00">enterTime(Integer t) [t &gt; 0] / leftTime = t;</text>
</g>
<!-- Oven1_ovenstate_s1_2&#45;&gt;Oven1_ovenstate_s1_2 -->
<g id="edge4" class="edge">
<title>Oven1_ovenstate_s1_2&#45;&gt;Oven1_ovenstate_s1_2</title>
<g id="a_edge4"><a xlink:title="From s1_2 to s1_2 on enterTime(Integer t)&#13;Guard: &#160;[t &gt; 0]&#13;Transition Action:&#10; &#160;&#160;&#160;&#160;leftTime = t;">
<path fill="none" stroke="black" d="M216.09,-215.84C226.22,-215.49 234,-212.88 234,-208 234,-204.95 230.96,-202.79 226.21,-201.51"/>
<polygon fill="black" stroke="black" points="226.46,-198.01 216.09,-200.16 225.54,-204.95 226.46,-198.01"/>
</a>
</g>
<text text-anchor="middle" x="351" y="-204.3" font-family="Times,serif" font-size="14.00">enterTime(Integer t) [t &gt; 0] / leftTime = t;</text>
</g>
<!-- Oven1_ovenstate_s1_3 -->
<g id="node7" class="node">
<title>Oven1_ovenstate_s1_3</title>
<g id="a_node7"><a xlink:title="Class Oven1, SM ovenstate, State s1_3">
<path fill="none" stroke="black" d="M204,-139C204,-139 156,-139 156,-139 150,-139 144,-133 144,-127 144,-127 144,-115 144,-115 144,-109 150,-103 156,-103 156,-103 204,-103 204,-103 210,-103 216,-109 216,-115 216,-115 216,-127 216,-127 216,-133 210,-139 204,-139"/>
<text text-anchor="middle" x="180" y="-117.3" font-family="Times,serif" font-size="14.00">s1_3</text>
</a>
</g>
</g>
<!-- Oven1_ovenstate_s1_2&#45;&gt;Oven1_ovenstate_s1_3 -->
<g id="edge5" class="edge">
<title>Oven1_ovenstate_s1_2&#45;&gt;Oven1_ovenstate_s1_3</title>
<g id="a_edge5"><a xlink:title="From s1_2 to s1_3 on start&#13;Transition Action:&#10; &#160;&#160;&#160;&#160;cook = Cook.ON;">
<path fill="none" stroke="black" d="M180,-189.8C180,-178.16 180,-162.55 180,-149.24"/>
<polygon fill="black" stroke="black" points="183.5,-149.18 180,-139.18 176.5,-149.18 183.5,-149.18"/>
</a>
</g>
<text text-anchor="middle" x="248" y="-160.8" font-family="Times,serif" font-size="14.00">start / cook = Cook.ON;</text>
</g>
<!-- start_Oven2_cook -->
<g id="node8" class="node">
<title>start_Oven2_cook</title>
<g id="a_node8"><a xlink:title="Class Oven2, SM cook, State start">
<ellipse fill="black" stroke="black" cx="589" cy="-368" rx="7.2" ry="7.2"/>
</a>
</g>
</g>
<!-- Oven2_cook_OFF -->
<g id="node9" class="node">
<title>Oven2_cook_OFF</title>
<g id="a_node9"><a xlink:title="Class Oven2, SM cook, State OFF">
<path fill="none" stroke="black" d="M584,-313C584,-313 536,-313 536,-313 530,-313 524,-307 524,-301 524,-301 524,-289 524,-289 524,-283 530,-277 536,-277 536,-277 584,-277 584,-277 590,-277 596,-283 596,-289 596,-289 596,-301 596,-301 596,-307 590,-313 584,-313"/>
<text text-anchor="middle" x="560" y="-291.3" font-family="Times,serif" font-size="14.00">OFF</text>
</a>
</g>
</g>
<!-- start_Oven2_cook&#45;&gt;Oven2_cook_OFF -->
<g id="edge6" class="edge">
<title>start_Oven2_cook&#45;&gt;Oven2_cook_OFF</title>
<g id="a_edge6"><a xlink:title="start to OFF">
<path fill="none" stroke="black" d="M586.53,-360.95C583.09,-352.53 576.64,-336.75 570.97,-322.85"/>
<polygon fill="black" stroke="black" points="574.05,-321.13 567.02,-313.2 567.57,-323.78 574.05,-321.13"/>
</a>
</g>
</g>
<!-- Oven2_cook_ON -->
<g id="node10" class="node">
<title>Oven2_cook_ON</title>
<g id="a_node10"><a xlink:title="Class Oven2, SM cook, State ON">
<path fill="none" stroke="black" d="M552,-386C552,-386 504,-386 504,-386 498,-386 492,-380 492,-374 492,-374 492,-362 492,-362 492,-356 498,-350 504,-350 504,-350 552,-350 552,-350 558,-350 564,-356 564,-362 564,-362 564,-374 564,-374 564,-380 558,-386 552,-386"/>
<text text-anchor="middle" x="528" y="-364.3" font-family="Times,serif" font-size="14.00">ON</text>
</a>
</g>
</g>
<!-- start_Oven2_ovenstate -->
<g id="node11" class="node">
<title>start_Oven2_ovenstate</title>
<g id="a_node11"><a xlink:title="Class Oven2, SM ovenstate, State start">
<ellipse fill="black" stroke="black" cx="818" cy="-368" rx="7.2" ry="7.2"/>
</a>
</g>
</g>
<!-- Oven2_ovenstate_s2_1 -->
<g id="node12" class="node">
<title>Oven2_ovenstate_s2_1</title>
<g id="a_node12"><a xlink:title="Class Oven2, SM ovenstate, State s2_1">
<path fill="none" stroke="black" d="M842,-313C842,-313 794,-313 794,-313 788,-313 782,-307 782,-301 782,-301 782,-289 782,-289 782,-283 788,-277 794,-277 794,-277 842,-277 842,-277 848,-277 854,-283 854,-289 854,-289 854,-301 854,-301 854,-307 848,-313 842,-313"/>
<text text-anchor="middle" x="818" y="-291.3" font-family="Times,serif" font-size="14.00">s2_1</text>
</a>
</g>
</g>
<!-- start_Oven2_ovenstate&#45;&gt;Oven2_ovenstate_s2_1 -->
<g id="edge7" class="edge">
<title>start_Oven2_ovenstate&#45;&gt;Oven2_ovenstate_s2_1</title>
<g id="a_edge7"><a xlink:title="start to s2_1">
<path fill="none" stroke="black" d="M818,-360.45C818,-352.05 818,-336.97 818,-323.5"/>
<polygon fill="black" stroke="black" points="821.5,-323.21 818,-313.21 814.5,-323.21 821.5,-323.21"/>
</a>
</g>
</g>
<!-- Oven2_ovenstate_s2_2 -->
<g id="node13" class="node">
<title>Oven2_ovenstate_s2_2</title>
<g id="a_node13"><a xlink:title="Class Oven2, SM ovenstate, State s2_2">
<path fill="none" stroke="black" d="M680,-226C680,-226 632,-226 632,-226 626,-226 620,-220 620,-214 620,-214 620,-202 620,-202 620,-196 626,-190 632,-190 632,-190 680,-190 680,-190 686,-190 692,-196 692,-202 692,-202 692,-214 692,-214 692,-220 686,-226 680,-226"/>
<text text-anchor="middle" x="656" y="-204.3" font-family="Times,serif" font-size="14.00">s2_2</text>
</a>
</g>
</g>
<!-- Oven2_ovenstate_s2_1&#45;&gt;Oven2_ovenstate_s2_2 -->
<g id="edge8" class="edge">
<title>Oven2_ovenstate_s2_1&#45;&gt;Oven2_ovenstate_s2_2</title>
<g id="a_edge8"><a xlink:title="From s2_1 to s2_2 on enterTime(Integer t)&#13;Guard: &#160;[t &gt; 1]&#13;Transition Action:&#10; &#160;&#160;&#160;&#160;leftTime = t;">
<path fill="none" stroke="black" d="M781.97,-278.57C768.92,-272.73 754.16,-265.84 741,-259 724.77,-250.57 707.28,-240.47 692.42,-231.56"/>
<polygon fill="black" stroke="black" points="693.9,-228.36 683.53,-226.19 690.28,-234.36 693.9,-228.36"/>
</a>
</g>
<text text-anchor="middle" x="858" y="-247.8" font-family="Times,serif" font-size="14.00">enterTime(Integer t) [t &gt; 1] / leftTime = t;</text>
</g>
<!-- Oven2_ovenstate_s2_3 -->
<g id="node14" class="node">
<title>Oven2_ovenstate_s2_3</title>
<g id="a_node14"><a xlink:title="Class Oven2, SM ovenstate, State s2_3">
<path fill="none" stroke="black" d="M836,-139C836,-139 788,-139 788,-139 782,-139 776,-133 776,-127 776,-127 776,-115 776,-115 776,-109 782,-103 788,-103 788,-103 836,-103 836,-103 842,-103 848,-109 848,-115 848,-115 848,-127 848,-127 848,-133 842,-139 836,-139"/>
<text text-anchor="middle" x="812" y="-117.3" font-family="Times,serif" font-size="14.00">s2_3</text>
</a>
</g>
</g>
<!-- Oven2_ovenstate_s2_1&#45;&gt;Oven2_ovenstate_s2_3 -->
<g id="edge11" class="edge">
<title>Oven2_ovenstate_s2_1&#45;&gt;Oven2_ovenstate_s2_3</title>
<g id="a_edge11"><a xlink:title="From s2_1 to s2_3 on enterTime(Integer t)&#13;Guard: &#160;[t == 1]&#13;Transition Action:&#10; &#160;&#160;&#160;&#160;leftTime = t;">
<path fill="none" stroke="black" d="M854.24,-291.3C953.81,-282.63 1218.8,-250.37 1135,-157 1116.87,-136.8 943.42,-127.19 858.45,-123.66"/>
<polygon fill="black" stroke="black" points="858.43,-120.16 848.3,-123.25 858.15,-127.16 858.43,-120.16"/>
</a>
</g>
<text text-anchor="middle" x="1272" y="-204.3" font-family="Times,serif" font-size="14.00">enterTime(Integer t) [t == 1] / leftTime = t;</text>
</g>
<!-- Oven2_ovenstate_s2_2&#45;&gt;Oven2_ovenstate_s2_2 -->
<g id="edge9" class="edge">
<title>Oven2_ovenstate_s2_2&#45;&gt;Oven2_ovenstate_s2_2</title>
<g id="a_edge9"><a xlink:title="From s2_2 to s2_2 on enterTime(Integer t)&#13;Guard: &#160;[t &gt; 1]&#13;Transition Action:&#10; &#160;&#160;&#160;&#160;leftTime = t;">
<path fill="none" stroke="black" d="M692.09,-215.84C702.22,-215.49 710,-212.88 710,-208 710,-204.95 706.96,-202.79 702.21,-201.51"/>
<polygon fill="black" stroke="black" points="702.46,-198.01 692.09,-200.16 701.54,-204.95 702.46,-198.01"/>
</a>
</g>
<text text-anchor="middle" x="827" y="-204.3" font-family="Times,serif" font-size="14.00">enterTime(Integer t) [t &gt; 1] / leftTime = t;</text>
</g>
<!-- Oven2_ovenstate_s2_2&#45;&gt;Oven2_ovenstate_s2_3 -->
<g id="edge12" class="edge">
<title>Oven2_ovenstate_s2_2&#45;&gt;Oven2_ovenstate_s2_3</title>
<g id="a_edge12"><a xlink:title="From s2_2 to s2_3 on enterTime(Integer t)&#13;Guard: &#160;[t == 1]&#13;Transition Action:&#10; &#160;&#160;&#160;&#160;leftTime = t;">
<path fill="none" stroke="black" d="M692.07,-206.95C750.19,-206.02 860.57,-200.45 885,-172 897.92,-156.96 879.26,-144.38 857.57,-135.59"/>
<polygon fill="black" stroke="black" points="858.77,-132.31 848.18,-132.07 856.31,-138.86 858.77,-132.31"/>
</a>
</g>
<text text-anchor="middle" x="1010" y="-160.8" font-family="Times,serif" font-size="14.00">enterTime(Integer t) [t == 1] / leftTime = t;</text>
</g>
<!-- Oven2_ovenstate_s2_4 -->
<g id="node15" class="node">
<title>Oven2_ovenstate_s2_4</title>
<g id="a_node15"><a xlink:title="Class Oven2, SM ovenstate, State s2_4&#13;Entry:&#10; &#160;&#160;cook = Cook.ON;">
<path fill="none" stroke="black" d="M721,-52C721,-52 673,-52 673,-52 667,-52 661,-46 661,-40 661,-40 661,-28 661,-28 661,-22 667,-16 673,-16 673,-16 721,-16 721,-16 727,-16 733,-22 733,-28 733,-28 733,-40 733,-40 733,-46 727,-52 721,-52"/>
<text text-anchor="middle" x="697" y="-30.3" font-family="Times,serif" font-size="14.00">s2_4</text>
</a>
</g>
</g>
<!-- Oven2_ovenstate_s2_2&#45;&gt;Oven2_ovenstate_s2_4 -->
<g id="edge14" class="edge">
<title>Oven2_ovenstate_s2_2&#45;&gt;Oven2_ovenstate_s2_4</title>
<g id="a_edge14"><a xlink:title="From s2_2 to s2_4 on start">
<path fill="none" stroke="black" d="M646.23,-189.59C642.04,-180.05 638.6,-167.98 641,-157 648.64,-122.03 667.28,-85.1 680.96,-61.15"/>
<polygon fill="black" stroke="black" points="684.09,-62.74 686.11,-52.34 678.04,-59.21 684.09,-62.74"/>
</a>
</g>
<text text-anchor="middle" x="674.5" y="-117.3" font-family="Times,serif" font-size="14.00">start</text>
</g>
<!-- Oven2_ovenstate_s2_3&#45;&gt;Oven2_ovenstate_s2_2 -->
<g id="edge10" class="edge">
<title>Oven2_ovenstate_s2_3&#45;&gt;Oven2_ovenstate_s2_2</title>
<g id="a_edge10"><a xlink:title="From s2_3 to s2_2 on enterTime(Integer t)&#13;Guard: &#160;[t &gt; 1]&#13;Transition Action:&#10; &#160;&#160;&#160;&#160;leftTime = t;">
<path fill="none" stroke="black" d="M775.99,-124.68C733.42,-128.68 666.39,-137.9 651,-157 645.84,-163.4 645.16,-171.86 646.35,-180"/>
<polygon fill="black" stroke="black" points="643,-181.02 648.68,-189.96 649.81,-179.42 643,-181.02"/>
</a>
</g>
<text text-anchor="middle" x="768" y="-160.8" font-family="Times,serif" font-size="14.00">enterTime(Integer t) [t &gt; 1] / leftTime = t;</text>
</g>
<!-- Oven2_ovenstate_s2_3&#45;&gt;Oven2_ovenstate_s2_3 -->
<g id="edge13" class="edge">
<title>Oven2_ovenstate_s2_3&#45;&gt;Oven2_ovenstate_s2_3</title>
<g id="a_edge13"><a xlink:title="From s2_3 to s2_3 on enterTime(Integer t)&#13;Guard: &#160;[t == 1]&#13;Transition Action:&#10; &#160;&#160;&#160;&#160;leftTime = t;">
<path fill="none" stroke="black" d="M848.09,-128.84C858.22,-128.49 866,-125.88 866,-121 866,-117.95 862.96,-115.79 858.21,-114.51"/>
<polygon fill="black" stroke="black" points="858.46,-111.01 848.09,-113.16 857.54,-117.95 858.46,-111.01"/>
</a>
</g>
<text text-anchor="middle" x="987" y="-117.3" font-family="Times,serif" font-size="14.00">enterTime(Integer t) [t == 1] / leftTime = t;</text>
</g>
<!-- Oven2_ovenstate_s2_3&#45;&gt;Oven2_ovenstate_s2_4 -->
<g id="edge15" class="edge">
<title>Oven2_ovenstate_s2_3&#45;&gt;Oven2_ovenstate_s2_4</title>
<g id="a_edge15"><a xlink:title="From s2_3 to s2_4 on start">
<path fill="none" stroke="black" d="M788.73,-102.8C771.35,-89.95 747.41,-72.26 728.34,-58.17"/>
<polygon fill="black" stroke="black" points="730.36,-55.3 720.24,-52.18 726.2,-60.93 730.36,-55.3"/>
</a>
</g>
<text text-anchor="middle" x="773.5" y="-73.8" font-family="Times,serif" font-size="14.00">start</text>
</g>
<!-- start_Oven3_cook -->
<g id="node16" class="node">
<title>start_Oven3_cook</title>
<g id="a_node16"><a xlink:title="Class Oven3, SM cook, State start">
<ellipse fill="black" stroke="black" cx="1343" cy="-368" rx="7.2" ry="7.2"/>
</a>
</g>
</g>
<!-- Oven3_cook_OFF -->
<g id="node17" class="node">
<title>Oven3_cook_OFF</title>
<g id="a_node17"><a xlink:title="Class Oven3, SM cook, State OFF">
<path fill="none" stroke="black" d="M1338,-313C1338,-313 1290,-313 1290,-313 1284,-313 1278,-307 1278,-301 1278,-301 1278,-289 1278,-289 1278,-283 1284,-277 1290,-277 1290,-277 1338,-277 1338,-277 1344,-277 1350,-283 1350,-289 1350,-289 1350,-301 1350,-301 1350,-307 1344,-313 1338,-313"/>
<text text-anchor="middle" x="1314" y="-291.3" font-family="Times,serif" font-size="14.00">OFF</text>
</a>
</g>
</g>
<!-- start_Oven3_cook&#45;&gt;Oven3_cook_OFF -->
<g id="edge16" class="edge">
<title>start_Oven3_cook&#45;&gt;Oven3_cook_OFF</title>
<g id="a_edge16"><a xlink:title="start to OFF">
<path fill="none" stroke="black" d="M1340.53,-360.95C1337.09,-352.53 1330.64,-336.75 1324.97,-322.85"/>
<polygon fill="black" stroke="black" points="1328.05,-321.13 1321.02,-313.2 1321.57,-323.78 1328.05,-321.13"/>
</a>
</g>
</g>
<!-- Oven3_cook_ON -->
<g id="node18" class="node">
<title>Oven3_cook_ON</title>
<g id="a_node18"><a xlink:title="Class Oven3, SM cook, State ON">
<path fill="none" stroke="black" d="M1306,-386C1306,-386 1258,-386 1258,-386 1252,-386 1246,-380 1246,-374 1246,-374 1246,-362 1246,-362 1246,-356 1252,-350 1258,-350 1258,-350 1306,-350 1306,-350 1312,-350 1318,-356 1318,-362 1318,-362 1318,-374 1318,-374 1318,-380 1312,-386 1306,-386"/>
<text text-anchor="middle" x="1282" y="-364.3" font-family="Times,serif" font-size="14.00">ON</text>
</a>
</g>
</g>
<!-- start_Oven3_ovenstate -->
<g id="node19" class="node">
<title>start_Oven3_ovenstate</title>
<g id="a_node19"><a xlink:title="Class Oven3, SM ovenstate, State start">
<ellipse fill="black" stroke="black" cx="1410" cy="-368" rx="7.2" ry="7.2"/>
</a>
</g>
</g>
<!-- Oven3_ovenstate_s3_1 -->
<g id="node20" class="node">
<title>Oven3_ovenstate_s3_1</title>
<g id="a_node20"><a xlink:title="Class Oven3, SM ovenstate, State s3_1">
<path fill="none" stroke="black" d="M1434,-313C1434,-313 1386,-313 1386,-313 1380,-313 1374,-307 1374,-301 1374,-301 1374,-289 1374,-289 1374,-283 1380,-277 1386,-277 1386,-277 1434,-277 1434,-277 1440,-277 1446,-283 1446,-289 1446,-289 1446,-301 1446,-301 1446,-307 1440,-313 1434,-313"/>
<text text-anchor="middle" x="1410" y="-291.3" font-family="Times,serif" font-size="14.00">s3_1</text>
</a>
</g>
</g>
<!-- start_Oven3_ovenstate&#45;&gt;Oven3_ovenstate_s3_1 -->
<g id="edge17" class="edge">
<title>start_Oven3_ovenstate&#45;&gt;Oven3_ovenstate_s3_1</title>
<g id="a_edge17"><a xlink:title="start to s3_1">
<path fill="none" stroke="black" d="M1410,-360.45C1410,-352.05 1410,-336.97 1410,-323.5"/>
<polygon fill="black" stroke="black" points="1413.5,-323.21 1410,-313.21 1406.5,-323.21 1413.5,-323.21"/>
</a>
</g>
</g>
<!-- Oven3_ovenstate_s3_1&#45;&gt;Oven3_ovenstate_s3_1 -->
<g id="edge18" class="edge">
<title>Oven3_ovenstate_s3_1&#45;&gt;Oven3_ovenstate_s3_1</title>
<g id="a_edge18"><a xlink:title="From s3_1 to s3_1 on enterTime(Integer t)&#13;Guard: &#160;[cook == Cook.OFF &amp;&amp; t &gt; 0]&#13;Transition Action:&#10; &#160;&#160;&#160;&#160;leftTime = t;">
<path fill="none" stroke="black" d="M1446.09,-298.36C1456.22,-298.21 1464,-297.09 1464,-295 1464,-293.69 1460.96,-292.77 1456.21,-292.22"/>
<polygon fill="black" stroke="black" points="1456.27,-288.72 1446.09,-291.64 1455.87,-295.7 1456.27,-288.72"/>
</a>
</g>
<text text-anchor="middle" x="1650" y="-291.3" font-family="Times,serif" font-size="14.00">enterTime(Integer t) [cook == Cook.OFF &amp;&amp; t &gt; 0] / leftTime = t;</text>
</g>
<!-- Oven3_ovenstate_s3_1&#45;&gt;Oven3_ovenstate_s3_1 -->
<g id="edge19" class="edge">
<title>Oven3_ovenstate_s3_1&#45;&gt;Oven3_ovenstate_s3_1</title>
<g id="a_edge19"><a xlink:title="From s3_1 to s3_1 on start&#13;Guard: &#160;[cook == Cook.OFF &amp;&amp; leftTime &gt; 0]&#13;Transition Action:&#10; &#160;&#160;&#160;&#160;cook = Cook.ON;">
<path fill="none" stroke="black" d="M1446.32,-298.58C1550.47,-303.78 1836,-302.58 1836,-295 1836,-287.65 1568.04,-286.3 1456.6,-290.95"/>
<polygon fill="black" stroke="black" points="1456.15,-287.47 1446.32,-291.42 1456.47,-294.46 1456.15,-287.47"/>
</a>
</g>
<text text-anchor="middle" x="2014" y="-291.3" font-family="Times,serif" font-size="14.00">start [cook == Cook.OFF &amp;&amp; leftTime &gt; 0] / cook = Cook.ON;</text>
</g>
</g>
</svg>
