<?xml version="1.0" encoding="UTF-8" standalone="no"?>
<!DOCTYPE svg PUBLIC "-//W3C//DTD SVG 1.1//EN"
 "http://www.w3.org/Graphics/SVG/1.1/DTD/svg11.dtd">
<!-- Generated by graphviz version 2.40.1 (20161225.0304)
 -->
<!-- Title: ParliamentBill Pages: 1 -->
<svg width="743pt" height="720pt"
 viewBox="0.00 0.00 743.20 720.00" xmlns="http://www.w3.org/2000/svg" xmlns:xlink="http://www.w3.org/1999/xlink">
<g id="graph0" class="graph" transform="scale(.9431 .9431) rotate(0) translate(4 759.4)">
<title>ParliamentBill</title>
<polygon fill="#ffffff" stroke="transparent" points="-4,4 -4,-759.4 784,-759.4 784,4 -4,4"/>
<g id="clust1" class="cluster">
<title>clusterBill_billState_inHouseOfCommons</title>
<path fill="none" stroke="#000000" d="M20,-164C20,-164 166,-164 166,-164 172,-164 178,-170 178,-176 178,-176 178,-735.4 178,-735.4 178,-741.4 172,-747.4 166,-747.4 166,-747.4 20,-747.4 20,-747.4 14,-747.4 8,-741.4 8,-735.4 8,-735.4 8,-176 8,-176 8,-170 14,-164 20,-164"/>
<text text-anchor="middle" x="93" y="-732.2" font-family="Times,serif" font-size="14.00" fill="#000000">inHouseOfCommons</text>
</g>
<g id="clust2" class="cluster">
<title>clusterBill_billState_inSenate</title>
<path fill="none" stroke="#000000" d="M606,-164C606,-164 760,-164 760,-164 766,-164 772,-170 772,-176 772,-176 772,-735.4 772,-735.4 772,-741.4 766,-747.4 760,-747.4 760,-747.4 606,-747.4 606,-747.4 600,-747.4 594,-741.4 594,-735.4 594,-735.4 594,-176 594,-176 594,-170 600,-164 606,-164"/>
<text text-anchor="middle" x="683" y="-732.2" font-family="Times,serif" font-size="14.00" fill="#000000">inSenate</text>
</g>
<!-- start_Bill_billState -->
<g id="node1" class="node">
<title>start_Bill_billState</title>
<g id="a_node1"><a xlink:title="Class Bill, SM billState, State start">
<ellipse fill="#000000" stroke="#000000" cx="393" cy="-524" rx="7.2" ry="7.2"/>
</a>
</g>
</g>
<!-- Bill_billState_inPreparation -->
<g id="node2" class="node">
<title>Bill_billState_inPreparation</title>
<g id="a_node2"><a xlink:title="Class Bill, SM billState, State inPreparation">
<path fill="none" stroke="#000000" d="M471.9219,-456C471.9219,-456 404.0781,-456 404.0781,-456 398.0781,-456 392.0781,-450 392.0781,-444 392.0781,-444 392.0781,-432 392.0781,-432 392.0781,-426 398.0781,-420 404.0781,-420 404.0781,-420 471.9219,-420 471.9219,-420 477.9219,-420 483.9219,-426 483.9219,-432 483.9219,-432 483.9219,-444 483.9219,-444 483.9219,-450 477.9219,-456 471.9219,-456"/>
<text text-anchor="middle" x="438" y="-433.8" font-family="Times,serif" font-size="14.00" fill="#000000">inPreparation</text>
</a>
</g>
</g>
<!-- start_Bill_billState&#45;&gt;Bill_billState_inPreparation -->
<g id="edge1" class="edge">
<title>start_Bill_billState&#45;&gt;Bill_billState_inPreparation</title>
<g id="a_edge1"><a xlink:title="start to inPreparation">
<path fill="none" stroke="#000000" d="M396.3823,-517.536C402.1526,-506.5083 414.2121,-483.4612 423.8712,-465.0018"/>
<polygon fill="#000000" stroke="#000000" points="426.9842,-466.6016 428.5194,-456.1185 420.782,-463.3562 426.9842,-466.6016"/>
</a>
</g>
</g>
<!-- Bill_billStateInHouseOfCommons_firstReading -->
<g id="node4" class="node">
<title>Bill_billStateInHouseOfCommons_firstReading</title>
<g id="a_node4"><a xlink:title="Class Bill, SM billState, State inHouseOfCommons.firstReading">
<path fill="none" stroke="#000000" d="M158.4426,-628C158.4426,-628 97.5574,-628 97.5574,-628 91.5574,-628 85.5574,-622 85.5574,-616 85.5574,-616 85.5574,-604 85.5574,-604 85.5574,-598 91.5574,-592 97.5574,-592 97.5574,-592 158.4426,-592 158.4426,-592 164.4426,-592 170.4426,-598 170.4426,-604 170.4426,-604 170.4426,-616 170.4426,-616 170.4426,-622 164.4426,-628 158.4426,-628"/>
<text text-anchor="middle" x="128" y="-605.8" font-family="Times,serif" font-size="14.00" fill="#000000">firstReading</text>
</a>
</g>
</g>
<!-- Bill_billState_inPreparation&#45;&gt;Bill_billStateInHouseOfCommons_firstReading -->
<g id="edge3" class="edge">
<title>Bill_billState_inPreparation&#45;&gt;Bill_billStateInHouseOfCommons_firstReading</title>
<g id="a_edge3"><a xlink:title="From inPreparation to inHouseOfCommons on introduceInHouse">
<path fill="none" stroke="#000000" d="M392.0422,-454.5976C359.1465,-467.1392 314.2247,-485.6326 276.6963,-506 239.0917,-526.4087 232.0375,-535.4441 197,-560 193.5258,-562.4348 189.9642,-564.9516 186.3782,-567.5014"/>
<polygon fill="#000000" stroke="#000000" points="184.0999,-564.8276 177.9966,-573.4878 188.1684,-570.5238 184.0999,-564.8276"/>
</a>
</g>
<text text-anchor="middle" x="326.1519" y="-519.8" font-family="Times,serif" font-size="14.00" fill="#000000">introduceInHouse</text>
</g>
<!-- Bill_billStateInSenate_firstReadingS -->
<g id="node9" class="node">
<title>Bill_billStateInSenate_firstReadingS</title>
<g id="a_node9"><a xlink:title="Class Bill, SM billState, State inSenate.firstReadingS">
<path fill="none" stroke="#000000" d="M682.2278,-628C682.2278,-628 613.7722,-628 613.7722,-628 607.7722,-628 601.7722,-622 601.7722,-616 601.7722,-616 601.7722,-604 601.7722,-604 601.7722,-598 607.7722,-592 613.7722,-592 613.7722,-592 682.2278,-592 682.2278,-592 688.2278,-592 694.2278,-598 694.2278,-604 694.2278,-604 694.2278,-616 694.2278,-616 694.2278,-622 688.2278,-628 682.2278,-628"/>
<text text-anchor="middle" x="648" y="-605.8" font-family="Times,serif" font-size="14.00" fill="#000000">firstReadingS</text>
</a>
</g>
</g>
<!-- Bill_billState_inPreparation&#45;&gt;Bill_billStateInSenate_firstReadingS -->
<g id="edge9" class="edge">
<title>Bill_billState_inPreparation&#45;&gt;Bill_billStateInSenate_firstReadingS</title>
<g id="a_edge9"><a xlink:title="From inPreparation to inSenate on introduceInSenate&#13;Transition Action:&#10; &#160;&#160;&#160;&#160;setIsCommonsBill(false);">
<path fill="none" stroke="#000000" d="M470.5003,-456.0894C478.1069,-461.2491 485.7924,-467.3097 492,-474 515.5959,-499.4305 505.9245,-517.3378 530.3223,-542 545.926,-557.7728 565.9431,-571.1328 585.0264,-581.7245"/>
<polygon fill="#000000" stroke="#000000" points="583.5361,-584.8969 594.0017,-586.547 586.8494,-578.7306 583.5361,-584.8969"/>
</a>
</g>
<text text-anchor="middle" x="598.3389" y="-519.8" font-family="Times,serif" font-size="14.00" fill="#000000">introduceInSenate / {...}</text>
</g>
<!-- start_Bill_inHouseOfCommons -->
<g id="node3" class="node">
<title>start_Bill_inHouseOfCommons</title>
<g id="a_node3"><a xlink:title="Class Bill, SM billState, State inHouseOfCommons.start">
<ellipse fill="#000000" stroke="#000000" cx="128" cy="-710.2" rx="7.2" ry="7.2"/>
</a>
</g>
</g>
<!-- start_Bill_inHouseOfCommons&#45;&gt;Bill_billStateInHouseOfCommons_firstReading -->
<g id="edge5" class="edge">
<title>start_Bill_inHouseOfCommons&#45;&gt;Bill_billStateInHouseOfCommons_firstReading</title>
<g id="a_edge5"><a xlink:title="start to inHouseOfCommons.firstReading">
<path fill="none" stroke="#000000" d="M128,-702.9939C128,-689.6512 128,-660.442 128,-638.2953"/>
<polygon fill="#000000" stroke="#000000" points="131.5001,-638.091 128,-628.0911 124.5001,-638.0911 131.5001,-638.091"/>
</a>
</g>
</g>
<!-- Bill_billStateInHouseOfCommons_secondReading -->
<g id="node5" class="node">
<title>Bill_billStateInHouseOfCommons_secondReading</title>
<g id="a_node5"><a xlink:title="Class Bill, SM billState, State inHouseOfCommons.secondReading">
<path fill="none" stroke="#000000" d="M105.5323,-456C105.5323,-456 28.4677,-456 28.4677,-456 22.4677,-456 16.4677,-450 16.4677,-444 16.4677,-444 16.4677,-432 16.4677,-432 16.4677,-426 22.4677,-420 28.4677,-420 28.4677,-420 105.5323,-420 105.5323,-420 111.5323,-420 117.5323,-426 117.5323,-432 117.5323,-432 117.5323,-444 117.5323,-444 117.5323,-450 111.5323,-456 105.5323,-456"/>
<text text-anchor="middle" x="67" y="-433.8" font-family="Times,serif" font-size="14.00" fill="#000000">secondReading</text>
</a>
</g>
</g>
<!-- Bill_billStateInHouseOfCommons_firstReading&#45;&gt;Bill_billStateInHouseOfCommons_secondReading -->
<g id="edge6" class="edge">
<title>Bill_billStateInHouseOfCommons_firstReading&#45;&gt;Bill_billStateInHouseOfCommons_secondReading</title>
<g id="a_edge6"><a xlink:title="From inHouseOfCommons.firstReading to inHouseOfCommons.secondReading on votePasses">
<path fill="none" stroke="#000000" d="M111.9423,-591.7215C101.4706,-578.7475 88.4682,-560.4271 81.3379,-542 71.8849,-517.5705 68.5269,-487.7927 67.3997,-466.3711"/>
<polygon fill="#000000" stroke="#000000" points="70.8937,-466.1489 67.0007,-456.2953 63.8992,-466.4259 70.8937,-466.1489"/>
</a>
</g>
<text text-anchor="middle" x="112.3311" y="-519.8" font-family="Times,serif" font-size="14.00" fill="#000000">votePasses</text>
</g>
<!-- Bill_billState_withdrawn -->
<g id="node15" class="node">
<title>Bill_billState_withdrawn</title>
<g id="a_node15"><a xlink:title="Class Bill, SM billState, State withdrawn">
<path fill="none" stroke="#000000" d="M481.8761,-542C481.8761,-542 430.1239,-542 430.1239,-542 424.1239,-542 418.1239,-536 418.1239,-530 418.1239,-530 418.1239,-518 418.1239,-518 418.1239,-512 424.1239,-506 430.1239,-506 430.1239,-506 481.8761,-506 481.8761,-506 487.8761,-506 493.8761,-512 493.8761,-518 493.8761,-518 493.8761,-530 493.8761,-530 493.8761,-536 487.8761,-542 481.8761,-542"/>
<text text-anchor="middle" x="456" y="-519.8" font-family="Times,serif" font-size="14.00" fill="#000000">withdrawn</text>
</a>
</g>
</g>
<!-- Bill_billStateInHouseOfCommons_firstReading&#45;&gt;Bill_billState_withdrawn -->
<g id="edge18" class="edge">
<title>Bill_billStateInHouseOfCommons_firstReading&#45;&gt;Bill_billState_withdrawn</title>
<g id="a_edge18"><a xlink:title="From inHouseOfCommons to withdrawn on withdraw">
<path fill="none" stroke="#000000" d="M177.9977,-597.6021C219.3013,-587.3964 279.4835,-572.6095 332.124,-560 363.4504,-552.4961 373.7764,-552.2794 408.1178,-542.0659"/>
<polygon fill="#000000" stroke="#000000" points="409.3858,-545.3384 417.9316,-539.0759 407.3457,-538.6423 409.3858,-545.3384"/>
</a>
</g>
<text text-anchor="middle" x="358.438" y="-562.8" font-family="Times,serif" font-size="14.00" fill="#000000">withdraw</text>
</g>
<!-- Bill_billStateInHouseOfCommons_firstReading&#45;&gt;Bill_billState_withdrawn -->
<g id="edge19" class="edge">
<title>Bill_billStateInHouseOfCommons_firstReading&#45;&gt;Bill_billState_withdrawn</title>
<g id="a_edge19"><a xlink:title="From inHouseOfCommons to withdrawn on voteFails">
<path fill="none" stroke="#000000" d="M177.9967,-582.7609C199.19,-571.2609 219.366,-560.396 220.6689,-560 298.1344,-536.4577 325.1339,-559.3761 408.1928,-541.7446"/>
<polygon fill="#000000" stroke="#000000" points="409.0673,-545.1354 418.0519,-539.5204 407.5267,-538.307 409.0673,-545.1354"/>
</a>
</g>
<text text-anchor="middle" x="245.6655" y="-562.8" font-family="Times,serif" font-size="14.00" fill="#000000">voteFails</text>
</g>
<!-- Bill_billStateInHouseOfCommons_committeeConsideration -->
<g id="node6" class="node">
<title>Bill_billStateInHouseOfCommons_committeeConsideration</title>
<g id="a_node6"><a xlink:title="Class Bill, SM billState, State inHouseOfCommons.committeeConsideration">
<path fill="none" stroke="#000000" d="M157.6352,-332C157.6352,-332 28.3648,-332 28.3648,-332 22.3648,-332 16.3648,-326 16.3648,-320 16.3648,-320 16.3648,-308 16.3648,-308 16.3648,-302 22.3648,-296 28.3648,-296 28.3648,-296 157.6352,-296 157.6352,-296 163.6352,-296 169.6352,-302 169.6352,-308 169.6352,-308 169.6352,-320 169.6352,-320 169.6352,-326 163.6352,-332 157.6352,-332"/>
<text text-anchor="middle" x="93" y="-309.8" font-family="Times,serif" font-size="14.00" fill="#000000">committeeConsideration</text>
</a>
</g>
</g>
<!-- Bill_billStateInHouseOfCommons_secondReading&#45;&gt;Bill_billStateInHouseOfCommons_committeeConsideration -->
<g id="edge7" class="edge">
<title>Bill_billStateInHouseOfCommons_secondReading&#45;&gt;Bill_billStateInHouseOfCommons_committeeConsideration</title>
<g id="a_edge7"><a xlink:title="From inHouseOfCommons.secondReading to inHouseOfCommons.committeeConsideration on votePasses">
<path fill="none" stroke="#000000" d="M67.4187,-419.9389C68.041,-405.9063 69.5745,-386.0321 73.3379,-369 75.335,-359.9617 78.4077,-350.3762 81.5351,-341.7829"/>
<polygon fill="#000000" stroke="#000000" points="84.8801,-342.8339 85.1704,-332.243 78.3389,-340.3413 84.8801,-342.8339"/>
</a>
</g>
<text text-anchor="middle" x="104.3311" y="-371.8" font-family="Times,serif" font-size="14.00" fill="#000000">votePasses</text>
</g>
<!-- Bill_billStateInHouseOfCommons_thirdReading -->
<g id="node7" class="node">
<title>Bill_billStateInHouseOfCommons_thirdReading</title>
<g id="a_node7"><a xlink:title="Class Bill, SM billState, State inHouseOfCommons.thirdReading">
<path fill="none" stroke="#000000" d="M157.5967,-208C157.5967,-208 92.4033,-208 92.4033,-208 86.4033,-208 80.4033,-202 80.4033,-196 80.4033,-196 80.4033,-184 80.4033,-184 80.4033,-178 86.4033,-172 92.4033,-172 92.4033,-172 157.5967,-172 157.5967,-172 163.5967,-172 169.5967,-178 169.5967,-184 169.5967,-184 169.5967,-196 169.5967,-196 169.5967,-202 163.5967,-208 157.5967,-208"/>
<text text-anchor="middle" x="125" y="-185.8" font-family="Times,serif" font-size="14.00" fill="#000000">thirdReading</text>
</a>
</g>
</g>
<!-- Bill_billStateInHouseOfCommons_committeeConsideration&#45;&gt;Bill_billStateInHouseOfCommons_thirdReading -->
<g id="edge8" class="edge">
<title>Bill_billStateInHouseOfCommons_committeeConsideration&#45;&gt;Bill_billStateInHouseOfCommons_thirdReading</title>
<g id="a_edge8"><a xlink:title="From inHouseOfCommons.committeeConsideration to inHouseOfCommons.thirdReading on votePasses">
<path fill="none" stroke="#000000" d="M97.6531,-295.9693C102.938,-275.4903 111.6258,-241.8251 117.7898,-217.9395"/>
<polygon fill="#000000" stroke="#000000" points="121.2314,-218.6098 120.3413,-208.0524 114.4535,-216.8606 121.2314,-218.6098"/>
</a>
</g>
<text text-anchor="middle" x="140.3311" y="-247.8" font-family="Times,serif" font-size="14.00" fill="#000000">votePasses</text>
</g>
<!-- Bill_billStateInHouseOfCommons_thirdReading&#45;&gt;Bill_billStateInSenate_firstReadingS -->
<g id="edge10" class="edge">
<title>Bill_billStateInHouseOfCommons_thirdReading&#45;&gt;Bill_billStateInSenate_firstReadingS</title>
<g id="a_edge10"><a xlink:title="From inHouseOfCommons.thirdReading to inSenate on votePasses&#13;Guard: &#160;[isCommonsBill]">
<path fill="none" stroke="#000000" d="M169.6491,-192.7932C237.3045,-198.2675 358,-213.4374 358,-252 358,-524 358,-524 358,-524 358,-549.2552 364.2397,-559.6181 385,-574 417.5201,-596.5286 524.711,-605.0314 591.7901,-608.1884"/>
<polygon fill="#000000" stroke="#000000" points="583.5057,-610.0898 594,-608.6335 584.8881,-603.2276 583.5057,-610.0898"/>
</a>
</g>
<text text-anchor="middle" x="438.6982" y="-371.8" font-family="Times,serif" font-size="14.00" fill="#000000">votePasses [isCommonsBill]</text>
</g>
<!-- Bill_billState_awaitingRoyalAssent -->
<g id="node13" class="node">
<title>Bill_billState_awaitingRoyalAssent</title>
<g id="a_node13"><a xlink:title="Class Bill, SM billState, State awaitingRoyalAssent">
<path fill="none" stroke="#000000" d="M442.759,-122C442.759,-122 331.241,-122 331.241,-122 325.241,-122 319.241,-116 319.241,-110 319.241,-110 319.241,-98 319.241,-98 319.241,-92 325.241,-86 331.241,-86 331.241,-86 442.759,-86 442.759,-86 448.759,-86 454.759,-92 454.759,-98 454.759,-98 454.759,-110 454.759,-110 454.759,-116 448.759,-122 442.759,-122"/>
<text text-anchor="middle" x="387" y="-99.8" font-family="Times,serif" font-size="14.00" fill="#000000">awaitingRoyalAssent</text>
</a>
</g>
</g>
<!-- Bill_billStateInHouseOfCommons_thirdReading&#45;&gt;Bill_billState_awaitingRoyalAssent -->
<g id="edge15" class="edge">
<title>Bill_billStateInHouseOfCommons_thirdReading&#45;&gt;Bill_billState_awaitingRoyalAssent</title>
<g id="a_edge15"><a xlink:title="From inHouseOfCommons.thirdReading to awaitingRoyalAssent on votePasses&#13;Guard: &#160;[!isCommonsBill]">
<path fill="none" stroke="#000000" d="M169.7417,-175.3138C211.7187,-161.5351 274.9673,-140.7741 322.4131,-125.2003"/>
<polygon fill="#000000" stroke="#000000" points="323.5724,-128.5036 331.982,-122.0593 321.3892,-121.8527 323.5724,-128.5036"/>
</a>
</g>
<text text-anchor="middle" x="354.0293" y="-142.8" font-family="Times,serif" font-size="14.00" fill="#000000">votePasses [!isCommonsBill]</text>
</g>
<!-- start_Bill_inSenate -->
<g id="node8" class="node">
<title>start_Bill_inSenate</title>
<g id="a_node8"><a xlink:title="Class Bill, SM billState, State inSenate.start">
<ellipse fill="#000000" stroke="#000000" cx="648" cy="-710.2" rx="7.2" ry="7.2"/>
</a>
</g>
</g>
<!-- start_Bill_inSenate&#45;&gt;Bill_billStateInSenate_firstReadingS -->
<g id="edge11" class="edge">
<title>start_Bill_inSenate&#45;&gt;Bill_billStateInSenate_firstReadingS</title>
<g id="a_edge11"><a xlink:title="start to inSenate.firstReadingS">
<path fill="none" stroke="#000000" d="M648,-702.9939C648,-689.6512 648,-660.442 648,-638.2953"/>
<polygon fill="#000000" stroke="#000000" points="651.5001,-638.091 648,-628.0911 644.5001,-638.0911 651.5001,-638.091"/>
</a>
</g>
</g>
<!-- Bill_billStateInSenate_secondReadingS -->
<g id="node10" class="node">
<title>Bill_billStateInSenate_secondReadingS</title>
<g id="a_node10"><a xlink:title="Class Bill, SM billState, State inSenate.secondReadingS">
<path fill="none" stroke="#000000" d="M740.8178,-456C740.8178,-456 655.1822,-456 655.1822,-456 649.1822,-456 643.1822,-450 643.1822,-444 643.1822,-444 643.1822,-432 643.1822,-432 643.1822,-426 649.1822,-420 655.1822,-420 655.1822,-420 740.8178,-420 740.8178,-420 746.8178,-420 752.8178,-426 752.8178,-432 752.8178,-432 752.8178,-444 752.8178,-444 752.8178,-450 746.8178,-456 740.8178,-456"/>
<text text-anchor="middle" x="698" y="-433.8" font-family="Times,serif" font-size="14.00" fill="#000000">secondReadingS</text>
</a>
</g>
</g>
<!-- Bill_billStateInSenate_firstReadingS&#45;&gt;Bill_billStateInSenate_secondReadingS -->
<g id="edge12" class="edge">
<title>Bill_billStateInSenate_firstReadingS&#45;&gt;Bill_billStateInSenate_secondReadingS</title>
<g id="a_edge12"><a xlink:title="From inSenate.firstReadingS to inSenate.secondReadingS on votePasses">
<path fill="none" stroke="#000000" d="M654.5082,-591.931C659.3233,-578.2935 665.9025,-559.0769 671,-542 678.6227,-516.4635 686.1462,-487.04 691.3072,-466.0207"/>
<polygon fill="#000000" stroke="#000000" points="694.7464,-466.6901 693.7099,-456.146 687.9449,-465.0351 694.7464,-466.6901"/>
</a>
</g>
<text text-anchor="middle" x="710.3311" y="-519.8" font-family="Times,serif" font-size="14.00" fill="#000000">votePasses</text>
</g>
<!-- Bill_billStateInSenate_firstReadingS&#45;&gt;Bill_billState_withdrawn -->
<g id="edge20" class="edge">
<title>Bill_billStateInSenate_firstReadingS&#45;&gt;Bill_billState_withdrawn</title>
<g id="a_edge20"><a xlink:title="From inSenate to withdrawn on withdraw">
<path fill="none" stroke="#000000" d="M594.0006,-606.1386C522.8578,-600.4934 405.1671,-589.0066 392.124,-574 388.0422,-569.3037 388.985,-565.3724 392.124,-560 396.233,-552.9675 402.2783,-547.2015 409.0353,-542.5082"/>
<polygon fill="#000000" stroke="#000000" points="411.1608,-545.312 417.8827,-537.1225 407.5209,-539.3327 411.1608,-545.312"/>
</a>
</g>
<text text-anchor="middle" x="418.438" y="-562.8" font-family="Times,serif" font-size="14.00" fill="#000000">withdraw</text>
</g>
<!-- Bill_billStateInSenate_firstReadingS&#45;&gt;Bill_billState_withdrawn -->
<g id="edge21" class="edge">
<title>Bill_billStateInSenate_firstReadingS&#45;&gt;Bill_billState_withdrawn</title>
<g id="a_edge21"><a xlink:title="From inSenate to withdrawn on voteFails">
<path fill="none" stroke="#000000" d="M594.0006,-605.6226C547.588,-600.745 485.4133,-591.1814 467.6689,-574 461.7254,-568.245 458.5578,-560.0909 456.9344,-552.0337"/>
<polygon fill="#000000" stroke="#000000" points="460.397,-551.52 455.6114,-542.0676 453.4579,-552.4412 460.397,-551.52"/>
</a>
</g>
<text text-anchor="middle" x="492.6655" y="-562.8" font-family="Times,serif" font-size="14.00" fill="#000000">voteFails</text>
</g>
<!-- Bill_billStateInSenate_committeeConsiderationS -->
<g id="node11" class="node">
<title>Bill_billStateInSenate_committeeConsiderationS</title>
<g id="a_node11"><a xlink:title="Class Bill, SM billState, State inSenate.committeeConsiderationS">
<path fill="none" stroke="#000000" d="M751.9214,-332C751.9214,-332 614.0786,-332 614.0786,-332 608.0786,-332 602.0786,-326 602.0786,-320 602.0786,-320 602.0786,-308 602.0786,-308 602.0786,-302 608.0786,-296 614.0786,-296 614.0786,-296 751.9214,-296 751.9214,-296 757.9214,-296 763.9214,-302 763.9214,-308 763.9214,-308 763.9214,-320 763.9214,-320 763.9214,-326 757.9214,-332 751.9214,-332"/>
<text text-anchor="middle" x="683" y="-309.8" font-family="Times,serif" font-size="14.00" fill="#000000">committeeConsiderationS</text>
</a>
</g>
</g>
<!-- Bill_billStateInSenate_secondReadingS&#45;&gt;Bill_billStateInSenate_committeeConsiderationS -->
<g id="edge13" class="edge">
<title>Bill_billStateInSenate_secondReadingS&#45;&gt;Bill_billStateInSenate_committeeConsiderationS</title>
<g id="a_edge13"><a xlink:title="From inSenate.secondReadingS to inSenate.committeeConsiderationS on votePasses">
<path fill="none" stroke="#000000" d="M695.8189,-419.9693C693.3527,-399.5822 689.3057,-366.1268 686.4187,-342.2614"/>
<polygon fill="#000000" stroke="#000000" points="689.8594,-341.5597 685.1838,-332.0524 682.9101,-342.4004 689.8594,-341.5597"/>
</a>
</g>
<text text-anchor="middle" x="721.3311" y="-371.8" font-family="Times,serif" font-size="14.00" fill="#000000">votePasses</text>
</g>
<!-- Bill_billStateInSenate_thirdReadingS -->
<g id="node12" class="node">
<title>Bill_billStateInSenate_thirdReadingS</title>
<g id="a_node12"><a xlink:title="Class Bill, SM billState, State inSenate.thirdReadingS">
<path fill="none" stroke="#000000" d="M686.3829,-208C686.3829,-208 613.6171,-208 613.6171,-208 607.6171,-208 601.6171,-202 601.6171,-196 601.6171,-196 601.6171,-184 601.6171,-184 601.6171,-178 607.6171,-172 613.6171,-172 613.6171,-172 686.3829,-172 686.3829,-172 692.3829,-172 698.3829,-178 698.3829,-184 698.3829,-184 698.3829,-196 698.3829,-196 698.3829,-202 692.3829,-208 686.3829,-208"/>
<text text-anchor="middle" x="650" y="-185.8" font-family="Times,serif" font-size="14.00" fill="#000000">thirdReadingS</text>
</a>
</g>
</g>
<!-- Bill_billStateInSenate_committeeConsiderationS&#45;&gt;Bill_billStateInSenate_thirdReadingS -->
<g id="edge14" class="edge">
<title>Bill_billStateInSenate_committeeConsiderationS&#45;&gt;Bill_billStateInSenate_thirdReadingS</title>
<g id="a_edge14"><a xlink:title="From inSenate.committeeConsiderationS to inSenate.thirdReadingS on votePasses">
<path fill="none" stroke="#000000" d="M678.2015,-295.9693C672.7515,-275.4903 663.7922,-241.8251 657.4355,-217.9395"/>
<polygon fill="#000000" stroke="#000000" points="660.7584,-216.8159 654.8043,-208.0524 653.9938,-218.6162 660.7584,-216.8159"/>
</a>
</g>
<text text-anchor="middle" x="698.3311" y="-247.8" font-family="Times,serif" font-size="14.00" fill="#000000">votePasses</text>
</g>
<!-- Bill_billStateInSenate_thirdReadingS&#45;&gt;Bill_billStateInHouseOfCommons_firstReading -->
<g id="edge4" class="edge">
<title>Bill_billStateInSenate_thirdReadingS&#45;&gt;Bill_billStateInHouseOfCommons_firstReading</title>
<g id="a_edge4"><a xlink:title="From inSenate.thirdReadingS to inHouseOfCommons on votePasses&#13;Guard: &#160;[!isCommonsBill]">
<path fill="none" stroke="#000000" d="M601.2814,-199.9578C499.6331,-221.8691 267.5861,-278.1078 185.4674,-350.3016"/>
<polygon fill="#000000" stroke="#000000" points="182.8774,-347.933 177.9979,-357.3373 187.677,-353.0285 182.8774,-347.933"/>
</a>
</g>
<text text-anchor="middle" x="249.0293" y="-371.8" font-family="Times,serif" font-size="14.00" fill="#000000">votePasses [!isCommonsBill]</text>
</g>
<!-- Bill_billStateInSenate_thirdReadingS&#45;&gt;Bill_billState_awaitingRoyalAssent -->
<g id="edge16" class="edge">
<title>Bill_billStateInSenate_thirdReadingS&#45;&gt;Bill_billState_awaitingRoyalAssent</title>
<g id="a_edge16"><a xlink:title="From inSenate.thirdReadingS to awaitingRoyalAssent on votePasses&#13;Guard: &#160;[isCommonsBill]">
<path fill="none" stroke="#000000" d="M601.4553,-174.1261C559.3311,-160.3516 498.0114,-140.3003 451.7208,-125.1635"/>
<polygon fill="#000000" stroke="#000000" points="452.6759,-121.7935 442.0834,-122.012 450.5003,-128.4468 452.6759,-121.7935"/>
</a>
</g>
<text text-anchor="middle" x="614.6982" y="-142.8" font-family="Times,serif" font-size="14.00" fill="#000000">votePasses [isCommonsBill]</text>
</g>
<!-- Bill_billState_actOfParliament -->
<g id="node14" class="node">
<title>Bill_billState_actOfParliament</title>
<g id="a_node14"><a xlink:title="Class Bill, SM billState, State actOfParliament">
<path fill="none" stroke="#000000" d="M428.7386,-36C428.7386,-36 345.2614,-36 345.2614,-36 339.2614,-36 333.2614,-30 333.2614,-24 333.2614,-24 333.2614,-12 333.2614,-12 333.2614,-6 339.2614,0 345.2614,0 345.2614,0 428.7386,0 428.7386,0 434.7386,0 440.7386,-6 440.7386,-12 440.7386,-12 440.7386,-24 440.7386,-24 440.7386,-30 434.7386,-36 428.7386,-36"/>
<text text-anchor="middle" x="387" y="-13.8" font-family="Times,serif" font-size="14.00" fill="#000000">actOfParliament</text>
</a>
</g>
</g>
<!-- Bill_billState_awaitingRoyalAssent&#45;&gt;Bill_billState_actOfParliament -->
<g id="edge17" class="edge">
<title>Bill_billState_awaitingRoyalAssent&#45;&gt;Bill_billState_actOfParliament</title>
<g id="a_edge17"><a xlink:title="From awaitingRoyalAssent to actOfParliament on royalAssent">
<path fill="none" stroke="#000000" d="M387,-85.7616C387,-74.3597 387,-59.4342 387,-46.494"/>
<polygon fill="#000000" stroke="#000000" points="390.5001,-46.2121 387,-36.2121 383.5001,-46.2121 390.5001,-46.2121"/>
</a>
</g>
<text text-anchor="middle" x="420.438" y="-56.8" font-family="Times,serif" font-size="14.00" fill="#000000">royalAssent</text>
</g>
<!-- Bill_billState_withdrawn&#45;&gt;Bill_billState_inPreparation -->
<g id="edge2" class="edge">
<title>Bill_billState_withdrawn&#45;&gt;Bill_billState_inPreparation</title>
<g id="a_edge2"><a xlink:title="From withdrawn to inPreparation on modify">
<path fill="none" stroke="#000000" d="M452.1827,-505.7616C449.7723,-494.2456 446.6097,-479.1353 443.8827,-466.1064"/>
<polygon fill="#000000" stroke="#000000" points="447.2863,-465.283 441.8118,-456.2121 440.4348,-466.7171 447.2863,-465.283"/>
</a>
</g>
<text text-anchor="middle" x="468.2207" y="-476.8" font-family="Times,serif" font-size="14.00" fill="#000000">modify</text>
</g>
</g>
</svg>
