<?xml version="1.0" encoding="UTF-8" standalone="no"?>
<!DOCTYPE svg PUBLIC "-//W3C//DTD SVG 1.1//EN"
 "http://www.w3.org/Graphics/SVG/1.1/DTD/svg11.dtd">
<!-- Generated by graphviz version 2.48.0 (20210717.1556)
 -->
<!-- Title: ParliamentBill Pages: 1 -->
<svg width="916pt" height="569pt"
 viewBox="0.00 0.00 916.00 569.40" xmlns="http://www.w3.org/2000/svg" xmlns:xlink="http://www.w3.org/1999/xlink">
<g id="graph0" class="graph" transform="scale(1 1) rotate(0) translate(4 565.4)">
<title>ParliamentBill</title>
<polygon fill="white" stroke="transparent" points="-4,4 -4,-565.4 912,-565.4 912,4 -4,4"/>
<g id="clust1" class="cluster">
<title>clusterBill_billState_inHouseOfCommons</title>
<path fill="none" stroke="black" d="M20,-166C20,-166 166,-166 166,-166 172,-166 178,-172 178,-178 178,-178 178,-541.4 178,-541.4 178,-547.4 172,-553.4 166,-553.4 166,-553.4 20,-553.4 20,-553.4 14,-553.4 8,-547.4 8,-541.4 8,-541.4 8,-178 8,-178 8,-172 14,-166 20,-166"/>
<text text-anchor="middle" x="93" y="-538.2" font-family="Times,serif" font-size="14.00">inHouseOfCommons</text>
</g>
<g id="clust2" class="cluster">
<title>clusterBill_billState_inSenate</title>
<path fill="none" stroke="black" d="M734,-166C734,-166 888,-166 888,-166 894,-166 900,-172 900,-178 900,-178 900,-541.4 900,-541.4 900,-547.4 894,-553.4 888,-553.4 888,-553.4 734,-553.4 734,-553.4 728,-553.4 722,-547.4 722,-541.4 722,-541.4 722,-178 722,-178 722,-172 728,-166 734,-166"/>
<text text-anchor="middle" x="811" y="-538.2" font-family="Times,serif" font-size="14.00">inSenate</text>
</g>
<!-- start_Bill_billState -->
<g id="node1" class="node">
<title>start_Bill_billState</title>
<g id="a_node1"><a xlink:title="Class Bill, SM billState, State start">
<ellipse fill="black" stroke="black" cx="490" cy="-366" rx="7.2" ry="7.2"/>
</a>
</g>
</g>
<!-- Bill_billState_inPreparation -->
<g id="node2" class="node">
<title>Bill_billState_inPreparation</title>
<g id="a_node2"><a xlink:title="Class Bill, SM billState, State inPreparation">
<path fill="none" stroke="black" d="M588,-297C588,-297 520,-297 520,-297 514,-297 508,-291 508,-285 508,-285 508,-273 508,-273 508,-267 514,-261 520,-261 520,-261 588,-261 588,-261 594,-261 600,-267 600,-273 600,-273 600,-285 600,-285 600,-291 594,-297 588,-297"/>
<text text-anchor="middle" x="554" y="-275.3" font-family="Times,serif" font-size="14.00">inPreparation</text>
</a>
</g>
</g>
<!-- start_Bill_billState&#45;&gt;Bill_billState_inPreparation -->
<g id="edge1" class="edge">
<title>start_Bill_billState&#45;&gt;Bill_billState_inPreparation</title>
<g id="a_edge1"><a xlink:title="start to inPreparation">
<path fill="none" stroke="black" d="M494.44,-360.2C497.63,-356.77 502.05,-352.07 506,-348 513.88,-339.88 517.04,-338.92 524,-330 529.73,-322.66 535.22,-314.14 539.9,-306.23"/>
<polygon fill="black" stroke="black" points="543.05,-307.76 544.98,-297.34 536.98,-304.28 543.05,-307.76"/>
</a>
</g>
</g>
<!-- Bill_billStateInHouseOfCommons_firstReading -->
<g id="node4" class="node">
<title>Bill_billStateInHouseOfCommons_firstReading</title>
<g id="a_node4"><a xlink:title="Class Bill, SM billState, State inHouseOfCommons.firstReading">
<path fill="none" stroke="black" d="M157.5,-471C157.5,-471 96.5,-471 96.5,-471 90.5,-471 84.5,-465 84.5,-459 84.5,-459 84.5,-447 84.5,-447 84.5,-441 90.5,-435 96.5,-435 96.5,-435 157.5,-435 157.5,-435 163.5,-435 169.5,-441 169.5,-447 169.5,-447 169.5,-459 169.5,-459 169.5,-465 163.5,-471 157.5,-471"/>
<text text-anchor="middle" x="127" y="-449.3" font-family="Times,serif" font-size="14.00">firstReading</text>
</a>
</g>
</g>
<!-- Bill_billState_inPreparation&#45;&gt;Bill_billStateInHouseOfCommons_firstReading -->
<g id="edge3" class="edge">
<title>Bill_billState_inPreparation&#45;&gt;Bill_billStateInHouseOfCommons_firstReading</title>
<g id="a_edge3"><a xlink:title="From inPreparation to inHouseOfCommons on introduceInHouse">
<path fill="none" stroke="black" d="M507.95,-282.26C464.04,-285.65 396.7,-294.07 342,-315 325.33,-321.38 244.34,-374.09 186.68,-412.23"/>
<polygon fill="black" stroke="black" points="184.41,-409.54 178,-417.98 188.27,-415.37 184.41,-409.54"/>
</a>
</g>
<text text-anchor="middle" x="333.5" y="-362.3" font-family="Times,serif" font-size="14.00">introduceInHouse</text>
</g>
<!-- Bill_billStateInSenate_firstReadingS -->
<g id="node9" class="node">
<title>Bill_billStateInSenate_firstReadingS</title>
<g id="a_node9"><a xlink:title="Class Bill, SM billState, State inSenate.firstReadingS">
<path fill="none" stroke="black" d="M811.5,-471C811.5,-471 742.5,-471 742.5,-471 736.5,-471 730.5,-465 730.5,-459 730.5,-459 730.5,-447 730.5,-447 730.5,-441 736.5,-435 742.5,-435 742.5,-435 811.5,-435 811.5,-435 817.5,-435 823.5,-441 823.5,-447 823.5,-447 823.5,-459 823.5,-459 823.5,-465 817.5,-471 811.5,-471"/>
<text text-anchor="middle" x="777" y="-449.3" font-family="Times,serif" font-size="14.00">firstReadingS</text>
</a>
</g>
</g>
<!-- Bill_billState_inPreparation&#45;&gt;Bill_billStateInSenate_firstReadingS -->
<g id="edge9" class="edge">
<title>Bill_billState_inPreparation&#45;&gt;Bill_billStateInSenate_firstReadingS</title>
<g id="a_edge9"><a xlink:title="From inPreparation to inSenate on introduceInSenate&#13;Transition Action:&#10; &#160;&#160;&#160;&#160;setIsCommonsBill(false);">
<path fill="none" stroke="black" d="M579.28,-297.32C585.84,-302.53 592.59,-308.59 598,-315 620.58,-341.75 610.58,-359.92 636,-384 659.91,-406.66 692.79,-423.1 720.78,-434.14"/>
<polygon fill="black" stroke="black" points="711.56,-432.99 722,-434.82 714.98,-426.88 711.56,-432.99"/>
</a>
</g>
<text text-anchor="middle" x="704.5" y="-362.3" font-family="Times,serif" font-size="14.00">introduceInSenate / {...}</text>
</g>
<!-- start_Bill_billStateInHouseOfCommons -->
<g id="node3" class="node">
<title>start_Bill_billStateInHouseOfCommons</title>
<g id="a_node3"><a xlink:title="Class Bill, SM billState, State inHouseOfCommons.start">
<ellipse fill="black" stroke="black" cx="127" cy="-515.2" rx="7.2" ry="7.2"/>
</a>
</g>
</g>
<!-- start_Bill_billStateInHouseOfCommons&#45;&gt;Bill_billStateInHouseOfCommons_firstReading -->
<g id="edge5" class="edge">
<title>start_Bill_billStateInHouseOfCommons&#45;&gt;Bill_billStateInHouseOfCommons_firstReading</title>
<g id="a_edge5"><a xlink:title="start to inHouseOfCommons.firstReading">
<path fill="none" stroke="black" d="M127,-507.76C127,-501.39 127,-491.2 127,-481.39"/>
<polygon fill="black" stroke="black" points="130.5,-481.1 127,-471.1 123.5,-481.1 130.5,-481.1"/>
</a>
</g>
</g>
<!-- Bill_billStateInHouseOfCommons_secondReading -->
<g id="node5" class="node">
<title>Bill_billStateInHouseOfCommons_secondReading</title>
<g id="a_node5"><a xlink:title="Class Bill, SM billState, State inHouseOfCommons.secondReading">
<path fill="none" stroke="black" d="M106,-384C106,-384 28,-384 28,-384 22,-384 16,-378 16,-372 16,-372 16,-360 16,-360 16,-354 22,-348 28,-348 28,-348 106,-348 106,-348 112,-348 118,-354 118,-360 118,-360 118,-372 118,-372 118,-378 112,-384 106,-384"/>
<text text-anchor="middle" x="67" y="-362.3" font-family="Times,serif" font-size="14.00">secondReading</text>
</a>
</g>
</g>
<!-- Bill_billStateInHouseOfCommons_firstReading&#45;&gt;Bill_billStateInHouseOfCommons_secondReading -->
<g id="edge6" class="edge">
<title>Bill_billStateInHouseOfCommons_firstReading&#45;&gt;Bill_billStateInHouseOfCommons_secondReading</title>
<g id="a_edge6"><a xlink:title="From inHouseOfCommons.firstReading to inHouseOfCommons.secondReading on votePasses">
<path fill="none" stroke="black" d="M88.73,-434.88C81.77,-430.07 75.35,-424.15 71,-417 66.96,-410.35 65.25,-402.25 64.74,-394.52"/>
<polygon fill="black" stroke="black" points="68.24,-394.36 64.68,-384.38 61.24,-394.4 68.24,-394.36"/>
</a>
</g>
<text text-anchor="middle" x="101.5" y="-405.8" font-family="Times,serif" font-size="14.00">votePasses</text>
</g>
<!-- Bill_billState_withdrawn -->
<g id="node15" class="node">
<title>Bill_billState_withdrawn</title>
<g id="a_node15"><a xlink:title="Class Bill, SM billState, State withdrawn">
<path fill="none" stroke="black" d="M579,-384C579,-384 527,-384 527,-384 521,-384 515,-378 515,-372 515,-372 515,-360 515,-360 515,-354 521,-348 527,-348 527,-348 579,-348 579,-348 585,-348 591,-354 591,-360 591,-360 591,-372 591,-372 591,-378 585,-384 579,-384"/>
<text text-anchor="middle" x="553" y="-362.3" font-family="Times,serif" font-size="14.00">withdrawn</text>
</a>
</g>
</g>
<!-- Bill_billStateInHouseOfCommons_firstReading&#45;&gt;Bill_billState_withdrawn -->
<g id="edge18" class="edge">
<title>Bill_billStateInHouseOfCommons_firstReading&#45;&gt;Bill_billState_withdrawn</title>
<g id="a_edge18"><a xlink:title="From inHouseOfCommons to withdrawn on withdraw">
<path fill="none" stroke="black" d="M178,-443.95C262.55,-430.43 429.42,-402.93 505.03,-383.96"/>
<polygon fill="black" stroke="black" points="506.16,-387.28 514.95,-381.37 504.39,-380.51 506.16,-387.28"/>
</a>
</g>
<text text-anchor="middle" x="442.5" y="-405.8" font-family="Times,serif" font-size="14.00">withdraw</text>
</g>
<!-- Bill_billStateInHouseOfCommons_firstReading&#45;&gt;Bill_billState_withdrawn -->
<g id="edge19" class="edge">
<title>Bill_billStateInHouseOfCommons_firstReading&#45;&gt;Bill_billState_withdrawn</title>
<g id="a_edge19"><a xlink:title="From inHouseOfCommons to withdrawn on voteFails">
<path fill="none" stroke="black" d="M178,-437.67C199.38,-431.52 224.46,-424.12 247,-417 266.7,-410.77 270.78,-406.23 291,-402 381.75,-383.03 410.43,-403.06 504.81,-383.88"/>
<polygon fill="black" stroke="black" points="505.72,-387.26 514.77,-381.76 504.26,-380.42 505.72,-387.26"/>
</a>
</g>
<text text-anchor="middle" x="317" y="-405.8" font-family="Times,serif" font-size="14.00">voteFails</text>
</g>
<!-- Bill_billStateInHouseOfCommons_committeeConsideration -->
<g id="node6" class="node">
<title>Bill_billStateInHouseOfCommons_committeeConsideration</title>
<g id="a_node6"><a xlink:title="Class Bill, SM billState, State inHouseOfCommons.committeeConsideration">
<path fill="none" stroke="black" d="M158,-297C158,-297 28,-297 28,-297 22,-297 16,-291 16,-285 16,-285 16,-273 16,-273 16,-267 22,-261 28,-261 28,-261 158,-261 158,-261 164,-261 170,-267 170,-273 170,-273 170,-285 170,-285 170,-291 164,-297 158,-297"/>
<text text-anchor="middle" x="93" y="-275.3" font-family="Times,serif" font-size="14.00">committeeConsideration</text>
</a>
</g>
</g>
<!-- Bill_billStateInHouseOfCommons_secondReading&#45;&gt;Bill_billStateInHouseOfCommons_committeeConsideration -->
<g id="edge7" class="edge">
<title>Bill_billStateInHouseOfCommons_secondReading&#45;&gt;Bill_billStateInHouseOfCommons_committeeConsideration</title>
<g id="a_edge7"><a xlink:title="From inHouseOfCommons.secondReading to inHouseOfCommons.committeeConsideration on votePasses">
<path fill="none" stroke="black" d="M62.1,-347.84C60.13,-337.95 59.13,-325.45 63,-315 64.23,-311.67 65.94,-308.45 67.91,-305.39"/>
<polygon fill="black" stroke="black" points="70.81,-307.36 74.04,-297.26 65.22,-303.14 70.81,-307.36"/>
</a>
</g>
<text text-anchor="middle" x="93.5" y="-318.8" font-family="Times,serif" font-size="14.00">votePasses</text>
</g>
<!-- Bill_billStateInHouseOfCommons_thirdReading -->
<g id="node7" class="node">
<title>Bill_billStateInHouseOfCommons_thirdReading</title>
<g id="a_node7"><a xlink:title="Class Bill, SM billState, State inHouseOfCommons.thirdReading">
<path fill="none" stroke="black" d="M158,-210C158,-210 92,-210 92,-210 86,-210 80,-204 80,-198 80,-198 80,-186 80,-186 80,-180 86,-174 92,-174 92,-174 158,-174 158,-174 164,-174 170,-180 170,-186 170,-186 170,-198 170,-198 170,-204 164,-210 158,-210"/>
<text text-anchor="middle" x="125" y="-188.3" font-family="Times,serif" font-size="14.00">thirdReading</text>
</a>
</g>
</g>
<!-- Bill_billStateInHouseOfCommons_committeeConsideration&#45;&gt;Bill_billStateInHouseOfCommons_thirdReading -->
<g id="edge8" class="edge">
<title>Bill_billStateInHouseOfCommons_committeeConsideration&#45;&gt;Bill_billStateInHouseOfCommons_thirdReading</title>
<g id="a_edge8"><a xlink:title="From inHouseOfCommons.committeeConsideration to inHouseOfCommons.thirdReading on votePasses">
<path fill="none" stroke="black" d="M99.48,-260.8C103.9,-249.05 109.85,-233.24 114.89,-219.84"/>
<polygon fill="black" stroke="black" points="118.29,-220.77 118.53,-210.18 111.74,-218.3 118.29,-220.77"/>
</a>
</g>
<text text-anchor="middle" x="141.5" y="-231.8" font-family="Times,serif" font-size="14.00">votePasses</text>
</g>
<!-- Bill_billStateInHouseOfCommons_thirdReading&#45;&gt;Bill_billStateInSenate_firstReadingS -->
<g id="edge10" class="edge">
<title>Bill_billStateInHouseOfCommons_thirdReading&#45;&gt;Bill_billStateInSenate_firstReadingS</title>
<g id="a_edge10"><a xlink:title="From inHouseOfCommons.thirdReading to inSenate on votePasses&#13;Guard: &#160;[isCommonsBill]">
<path fill="none" stroke="black" d="M154.67,-210.08C213.55,-244.06 343.19,-319.35 386,-348 428.48,-376.42 430.54,-398.04 478,-417 520.7,-434.06 645.98,-444.2 720.13,-448.88"/>
<polygon fill="black" stroke="black" points="711.41,-449.66 722,-449.5 713.62,-443.02 711.41,-449.66"/>
</a>
</g>
<text text-anchor="middle" x="438" y="-318.8" font-family="Times,serif" font-size="14.00">votePasses [isCommonsBill]</text>
</g>
<!-- Bill_billState_awaitingRoyalAssent -->
<g id="node13" class="node">
<title>Bill_billState_awaitingRoyalAssent</title>
<g id="a_node13"><a xlink:title="Class Bill, SM billState, State awaitingRoyalAssent">
<path fill="none" stroke="black" d="M508,-123C508,-123 396,-123 396,-123 390,-123 384,-117 384,-111 384,-111 384,-99 384,-99 384,-93 390,-87 396,-87 396,-87 508,-87 508,-87 514,-87 520,-93 520,-99 520,-99 520,-111 520,-111 520,-117 514,-123 508,-123"/>
<text text-anchor="middle" x="452" y="-101.3" font-family="Times,serif" font-size="14.00">awaitingRoyalAssent</text>
</a>
</g>
</g>
<!-- Bill_billStateInHouseOfCommons_thirdReading&#45;&gt;Bill_billState_awaitingRoyalAssent -->
<g id="edge15" class="edge">
<title>Bill_billStateInHouseOfCommons_thirdReading&#45;&gt;Bill_billState_awaitingRoyalAssent</title>
<g id="a_edge15"><a xlink:title="From inHouseOfCommons.thirdReading to awaitingRoyalAssent on votePasses&#13;Guard: &#160;[!isCommonsBill]">
<path fill="none" stroke="black" d="M170.12,-179.27C223.34,-165.44 312.63,-142.23 376.45,-125.64"/>
<polygon fill="black" stroke="black" points="377.67,-128.94 386.47,-123.03 375.91,-122.16 377.67,-128.94"/>
</a>
</g>
<text text-anchor="middle" x="391.5" y="-144.8" font-family="Times,serif" font-size="14.00">votePasses [!isCommonsBill]</text>
</g>
<!-- start_Bill_billStateInSenate -->
<g id="node8" class="node">
<title>start_Bill_billStateInSenate</title>
<g id="a_node8"><a xlink:title="Class Bill, SM billState, State inSenate.start">
<ellipse fill="black" stroke="black" cx="777" cy="-515.2" rx="7.2" ry="7.2"/>
</a>
</g>
</g>
<!-- start_Bill_billStateInSenate&#45;&gt;Bill_billStateInSenate_firstReadingS -->
<g id="edge11" class="edge">
<title>start_Bill_billStateInSenate&#45;&gt;Bill_billStateInSenate_firstReadingS</title>
<g id="a_edge11"><a xlink:title="start to inSenate.firstReadingS">
<path fill="none" stroke="black" d="M777,-507.76C777,-501.39 777,-491.2 777,-481.39"/>
<polygon fill="black" stroke="black" points="780.5,-481.1 777,-471.1 773.5,-481.1 780.5,-481.1"/>
</a>
</g>
</g>
<!-- Bill_billStateInSenate_secondReadingS -->
<g id="node10" class="node">
<title>Bill_billStateInSenate_secondReadingS</title>
<g id="a_node10"><a xlink:title="Class Bill, SM billState, State inSenate.secondReadingS">
<path fill="none" stroke="black" d="M880,-384C880,-384 794,-384 794,-384 788,-384 782,-378 782,-372 782,-372 782,-360 782,-360 782,-354 788,-348 794,-348 794,-348 880,-348 880,-348 886,-348 892,-354 892,-360 892,-360 892,-372 892,-372 892,-378 886,-384 880,-384"/>
<text text-anchor="middle" x="837" y="-362.3" font-family="Times,serif" font-size="14.00">secondReadingS</text>
</a>
</g>
</g>
<!-- Bill_billStateInSenate_firstReadingS&#45;&gt;Bill_billStateInSenate_secondReadingS -->
<g id="edge12" class="edge">
<title>Bill_billStateInSenate_firstReadingS&#45;&gt;Bill_billStateInSenate_secondReadingS</title>
<g id="a_edge12"><a xlink:title="From inSenate.firstReadingS to inSenate.secondReadingS on votePasses">
<path fill="none" stroke="black" d="M789.14,-434.8C797.68,-422.7 809.26,-406.3 818.88,-392.67"/>
<polygon fill="black" stroke="black" points="821.97,-394.36 824.88,-384.18 816.25,-390.33 821.97,-394.36"/>
</a>
</g>
<text text-anchor="middle" x="840.5" y="-405.8" font-family="Times,serif" font-size="14.00">votePasses</text>
</g>
<!-- Bill_billStateInSenate_firstReadingS&#45;&gt;Bill_billState_withdrawn -->
<g id="edge20" class="edge">
<title>Bill_billStateInSenate_firstReadingS&#45;&gt;Bill_billState_withdrawn</title>
<g id="a_edge20"><a xlink:title="From inSenate to withdrawn on withdraw">
<path fill="none" stroke="black" d="M722,-449.29C641.77,-444.76 500.43,-434.39 485,-417 480.58,-412.01 481.53,-407.69 485,-402 487.86,-397.31 495.96,-392 505.63,-386.96"/>
<polygon fill="black" stroke="black" points="507.41,-389.99 514.84,-382.43 504.32,-383.7 507.41,-389.99"/>
</a>
</g>
<text text-anchor="middle" x="511.5" y="-405.8" font-family="Times,serif" font-size="14.00">withdraw</text>
</g>
<!-- Bill_billStateInSenate_firstReadingS&#45;&gt;Bill_billState_withdrawn -->
<g id="edge21" class="edge">
<title>Bill_billStateInSenate_firstReadingS&#45;&gt;Bill_billState_withdrawn</title>
<g id="a_edge21"><a xlink:title="From inSenate to withdrawn on voteFails">
<path fill="none" stroke="black" d="M722,-450.24C665.58,-447.22 583.02,-439.06 561,-417 555.06,-411.05 552.44,-402.57 551.49,-394.28"/>
<polygon fill="black" stroke="black" points="554.98,-393.92 551.06,-384.08 547.99,-394.22 554.98,-393.92"/>
</a>
</g>
<text text-anchor="middle" x="587" y="-405.8" font-family="Times,serif" font-size="14.00">voteFails</text>
</g>
<!-- Bill_billStateInSenate_committeeConsiderationS -->
<g id="node11" class="node">
<title>Bill_billStateInSenate_committeeConsiderationS</title>
<g id="a_node11"><a xlink:title="Class Bill, SM billState, State inSenate.committeeConsiderationS">
<path fill="none" stroke="black" d="M880,-297C880,-297 742,-297 742,-297 736,-297 730,-291 730,-285 730,-285 730,-273 730,-273 730,-267 736,-261 742,-261 742,-261 880,-261 880,-261 886,-261 892,-267 892,-273 892,-273 892,-285 892,-285 892,-291 886,-297 880,-297"/>
<text text-anchor="middle" x="811" y="-275.3" font-family="Times,serif" font-size="14.00">committeeConsiderationS</text>
</a>
</g>
</g>
<!-- Bill_billStateInSenate_secondReadingS&#45;&gt;Bill_billStateInSenate_committeeConsiderationS -->
<g id="edge13" class="edge">
<title>Bill_billStateInSenate_secondReadingS&#45;&gt;Bill_billStateInSenate_committeeConsiderationS</title>
<g id="a_edge13"><a xlink:title="From inSenate.secondReadingS to inSenate.committeeConsiderationS on votePasses">
<path fill="none" stroke="black" d="M831.74,-347.8C828.14,-336.05 823.31,-320.24 819.21,-306.84"/>
<polygon fill="black" stroke="black" points="822.53,-305.71 816.25,-297.18 815.83,-307.76 822.53,-305.71"/>
</a>
</g>
<text text-anchor="middle" x="855.5" y="-318.8" font-family="Times,serif" font-size="14.00">votePasses</text>
</g>
<!-- Bill_billStateInSenate_thirdReadingS -->
<g id="node12" class="node">
<title>Bill_billStateInSenate_thirdReadingS</title>
<g id="a_node12"><a xlink:title="Class Bill, SM billState, State inSenate.thirdReadingS">
<path fill="none" stroke="black" d="M815.5,-210C815.5,-210 742.5,-210 742.5,-210 736.5,-210 730.5,-204 730.5,-198 730.5,-198 730.5,-186 730.5,-186 730.5,-180 736.5,-174 742.5,-174 742.5,-174 815.5,-174 815.5,-174 821.5,-174 827.5,-180 827.5,-186 827.5,-186 827.5,-198 827.5,-198 827.5,-204 821.5,-210 815.5,-210"/>
<text text-anchor="middle" x="779" y="-188.3" font-family="Times,serif" font-size="14.00">thirdReadingS</text>
</a>
</g>
</g>
<!-- Bill_billStateInSenate_committeeConsiderationS&#45;&gt;Bill_billStateInSenate_thirdReadingS -->
<g id="edge14" class="edge">
<title>Bill_billStateInSenate_committeeConsiderationS&#45;&gt;Bill_billStateInSenate_thirdReadingS</title>
<g id="a_edge14"><a xlink:title="From inSenate.committeeConsiderationS to inSenate.thirdReadingS on votePasses">
<path fill="none" stroke="black" d="M804.52,-260.8C800.1,-249.05 794.15,-233.24 789.11,-219.84"/>
<polygon fill="black" stroke="black" points="792.26,-218.3 785.47,-210.18 785.71,-220.77 792.26,-218.3"/>
</a>
</g>
<text text-anchor="middle" x="826.5" y="-231.8" font-family="Times,serif" font-size="14.00">votePasses</text>
</g>
<!-- Bill_billStateInSenate_thirdReadingS&#45;&gt;Bill_billStateInHouseOfCommons_firstReading -->
<g id="edge4" class="edge">
<title>Bill_billStateInSenate_thirdReadingS&#45;&gt;Bill_billStateInHouseOfCommons_firstReading</title>
<g id="a_edge4"><a xlink:title="From inSenate.thirdReadingS to inHouseOfCommons on votePasses&#13;Guard: &#160;[!isCommonsBill]">
<path fill="none" stroke="black" d="M730.37,-199.05C610.91,-214.3 304.33,-255.81 187.7,-294.29"/>
<polygon fill="black" stroke="black" points="186.3,-291.07 178,-297.64 188.59,-297.68 186.3,-291.07"/>
</a>
</g>
<text text-anchor="middle" x="228.5" y="-318.8" font-family="Times,serif" font-size="14.00">votePasses [!isCommonsBill]</text>
</g>
<!-- Bill_billStateInSenate_thirdReadingS&#45;&gt;Bill_billState_awaitingRoyalAssent -->
<g id="edge16" class="edge">
<title>Bill_billStateInSenate_thirdReadingS&#45;&gt;Bill_billState_awaitingRoyalAssent</title>
<g id="a_edge16"><a xlink:title="From inSenate.thirdReadingS to awaitingRoyalAssent on votePasses&#13;Guard: &#160;[isCommonsBill]">
<path fill="none" stroke="black" d="M730.4,-178.37C676.78,-164.43 589.82,-141.83 527.35,-125.59"/>
<polygon fill="black" stroke="black" points="528.11,-122.17 517.55,-123.04 526.35,-128.94 528.11,-122.17"/>
</a>
</g>
<text text-anchor="middle" x="716" y="-144.8" font-family="Times,serif" font-size="14.00">votePasses [isCommonsBill]</text>
</g>
<!-- Bill_billState_actOfParliament -->
<g id="node14" class="node">
<title>Bill_billState_actOfParliament</title>
<g id="a_node14"><a xlink:title="Class Bill, SM billState, State actOfParliament">
<path fill="none" stroke="black" d="M494,-36C494,-36 410,-36 410,-36 404,-36 398,-30 398,-24 398,-24 398,-12 398,-12 398,-6 404,0 410,0 410,0 494,0 494,0 500,0 506,-6 506,-12 506,-12 506,-24 506,-24 506,-30 500,-36 494,-36"/>
<text text-anchor="middle" x="452" y="-14.3" font-family="Times,serif" font-size="14.00">actOfParliament</text>
</a>
</g>
</g>
<!-- Bill_billState_awaitingRoyalAssent&#45;&gt;Bill_billState_actOfParliament -->
<g id="edge17" class="edge">
<title>Bill_billState_awaitingRoyalAssent&#45;&gt;Bill_billState_actOfParliament</title>
<g id="a_edge17"><a xlink:title="From awaitingRoyalAssent to actOfParliament on royalAssent">
<path fill="none" stroke="black" d="M452,-86.8C452,-75.16 452,-59.55 452,-46.24"/>
<polygon fill="black" stroke="black" points="455.5,-46.18 452,-36.18 448.5,-46.18 455.5,-46.18"/>
</a>
</g>
<text text-anchor="middle" x="485.5" y="-57.8" font-family="Times,serif" font-size="14.00">royalAssent</text>
</g>
<!-- Bill_billState_withdrawn&#45;&gt;Bill_billState_inPreparation -->
<g id="edge2" class="edge">
<title>Bill_billState_withdrawn&#45;&gt;Bill_billState_inPreparation</title>
<g id="a_edge2"><a xlink:title="From withdrawn to inPreparation on modify">
<path fill="none" stroke="black" d="M553.2,-347.8C553.34,-336.16 553.52,-320.55 553.68,-307.24"/>
<polygon fill="black" stroke="black" points="557.18,-307.22 553.8,-297.18 550.18,-307.13 557.18,-307.22"/>
</a>
</g>
<text text-anchor="middle" x="573.5" y="-318.8" font-family="Times,serif" font-size="14.00">modify</text>
</g>
</g>
</svg>
