<?xml version="1.0" encoding="UTF-8" standalone="no"?>
<!DOCTYPE svg PUBLIC "-//W3C//DTD SVG 1.1//EN"
 "http://www.w3.org/Graphics/SVG/1.1/DTD/svg11.dtd">
<!-- Generated by graphviz version 2.48.0 (20210717.1556)
 -->
<!-- Title: Phone Pages: 1 -->
<svg width="985pt" height="551pt"
 viewBox="0.00 0.00 985.28 551.40" xmlns="http://www.w3.org/2000/svg" xmlns:xlink="http://www.w3.org/1999/xlink">
<g id="graph0" class="graph" transform="scale(1 1) rotate(0) translate(4 547.4)">
<title>Phone</title>
<polygon fill="white" stroke="transparent" points="-4,4 -4,-547.4 981.28,-547.4 981.28,4 -4,4"/>
<!-- start_PhoneLine_state -->
<g id="node1" class="node">
<title>start_PhoneLine_state</title>
<g id="a_node1"><a xlink:title="Class PhoneLine, SM state, State start">
<ellipse fill="black" stroke="black" cx="354.28" cy="-536.2" rx="7.2" ry="7.2"/>
</a>
</g>
</g>
<!-- PhoneLine_state_onHook -->
<g id="node2" class="node">
<title>PhoneLine_state_onHook</title>
<g id="a_node2"><a xlink:title="Class PhoneLine, SM state, State onHook&#13;Entry:&#10; &#160;&#160;if(getOtherParty() != null) {&#10; &#160;&#160;&#160;&#160;getOtherParty().otherPartyHangUp();&#10; &#160;&#160;} &#10; &#160;&#160;setOtherParty(null); p();">
<path fill="none" stroke="black" d="M378.28,-492C378.28,-492 330.28,-492 330.28,-492 324.28,-492 318.28,-486 318.28,-480 318.28,-480 318.28,-468 318.28,-468 318.28,-462 324.28,-456 330.28,-456 330.28,-456 378.28,-456 378.28,-456 384.28,-456 390.28,-462 390.28,-468 390.28,-468 390.28,-480 390.28,-480 390.28,-486 384.28,-492 378.28,-492"/>
<text text-anchor="middle" x="354.28" y="-470.3" font-family="Times,serif" font-size="14.00">onHook</text>
</a>
</g>
</g>
<!-- start_PhoneLine_state&#45;&gt;PhoneLine_state_onHook -->
<g id="edge1" class="edge">
<title>start_PhoneLine_state&#45;&gt;PhoneLine_state_onHook</title>
<g id="a_edge1"><a xlink:title="start to onHook">
<path fill="none" stroke="black" d="M354.28,-528.76C354.28,-522.39 354.28,-512.2 354.28,-502.39"/>
<polygon fill="black" stroke="black" points="357.78,-502.1 354.28,-492.1 350.78,-502.1 357.78,-502.1"/>
</a>
</g>
</g>
<!-- PhoneLine_state_ringing -->
<g id="node3" class="node">
<title>PhoneLine_state_ringing</title>
<g id="a_node3"><a xlink:title="Class PhoneLine, SM state, State ringing&#13;Entry:&#10; &#160;&#160;say(RingRing);">
<path fill="none" stroke="black" d="M81.28,-351C81.28,-351 33.28,-351 33.28,-351 27.28,-351 21.28,-345 21.28,-339 21.28,-339 21.28,-327 21.28,-327 21.28,-321 27.28,-315 33.28,-315 33.28,-315 81.28,-315 81.28,-315 87.28,-315 93.28,-321 93.28,-327 93.28,-327 93.28,-339 93.28,-339 93.28,-345 87.28,-351 81.28,-351"/>
<text text-anchor="middle" x="57.28" y="-329.3" font-family="Times,serif" font-size="14.00">ringing</text>
</a>
</g>
</g>
<!-- PhoneLine_state_onHook&#45;&gt;PhoneLine_state_ringing -->
<g id="edge9" class="edge">
<title>PhoneLine_state_onHook&#45;&gt;PhoneLine_state_ringing</title>
<g id="a_edge9"><a xlink:title="From onHook to ringing on incomingCall">
<path fill="none" stroke="black" d="M318.07,-471.95C234.79,-469.15 35.3,-460.19 15.28,-438 -5.13,-415.37 15.12,-381.52 33.95,-358.65"/>
<polygon fill="black" stroke="black" points="36.61,-360.91 40.47,-351.05 31.3,-356.35 36.61,-360.91"/>
</a>
</g>
<text text-anchor="middle" x="53.78" y="-426.8" font-family="Times,serif" font-size="14.00">incomingCall</text>
</g>
<!-- PhoneLine_state_dialing -->
<g id="node6" class="node">
<title>PhoneLine_state_dialing</title>
<g id="a_node6"><a xlink:title="Class PhoneLine, SM state, State dialing&#13;Entry:&#10; &#160;&#160;say(Dial);">
<path fill="none" stroke="black" d="M378.28,-405C378.28,-405 330.28,-405 330.28,-405 324.28,-405 318.28,-399 318.28,-393 318.28,-393 318.28,-381 318.28,-381 318.28,-375 324.28,-369 330.28,-369 330.28,-369 378.28,-369 378.28,-369 384.28,-369 390.28,-375 390.28,-381 390.28,-381 390.28,-393 390.28,-393 390.28,-399 384.28,-405 378.28,-405"/>
<text text-anchor="middle" x="354.28" y="-383.3" font-family="Times,serif" font-size="14.00">dialing</text>
</a>
</g>
</g>
<!-- PhoneLine_state_onHook&#45;&gt;PhoneLine_state_dialing -->
<g id="edge15" class="edge">
<title>PhoneLine_state_onHook&#45;&gt;PhoneLine_state_dialing</title>
<g id="a_edge15"><a xlink:title="From onHook to dialing on startDialing">
<path fill="none" stroke="black" d="M318.02,-463.92C304.73,-458.65 291.05,-450.49 283.28,-438 273.57,-422.38 289.25,-410.29 308.32,-401.91"/>
<polygon fill="black" stroke="black" points="309.87,-405.06 317.86,-398.1 307.27,-398.56 309.87,-405.06"/>
</a>
</g>
<text text-anchor="middle" x="316.78" y="-426.8" font-family="Times,serif" font-size="14.00">startDialing</text>
</g>
<!-- PhoneLine_state_ringing&#45;&gt;PhoneLine_state_onHook -->
<g id="edge2" class="edge">
<title>PhoneLine_state_ringing&#45;&gt;PhoneLine_state_onHook</title>
<g id="a_edge2"><a xlink:title="From ringing to onHook on otherPartyHangUp">
<path fill="none" stroke="black" d="M61.04,-351.24C67.18,-374.94 81.76,-417.03 111.28,-438 142,-459.81 246.16,-468.19 307.69,-471.29"/>
<polygon fill="black" stroke="black" points="307.77,-474.79 317.92,-471.77 308.1,-467.8 307.77,-474.79"/>
</a>
</g>
<text text-anchor="middle" x="164.28" y="-426.8" font-family="Times,serif" font-size="14.00">otherPartyHangUp</text>
</g>
<!-- PhoneLine_state_communicating -->
<g id="node4" class="node">
<title>PhoneLine_state_communicating</title>
<g id="a_node4"><a xlink:title="Class PhoneLine, SM state, State communicating&#13;Entry:&#10; &#160;&#160;say(Hello+getOtherParty().getId());">
<path fill="none" stroke="black" d="M343.28,-210C343.28,-210 263.28,-210 263.28,-210 257.28,-210 251.28,-204 251.28,-198 251.28,-198 251.28,-186 251.28,-186 251.28,-180 257.28,-174 263.28,-174 263.28,-174 343.28,-174 343.28,-174 349.28,-174 355.28,-180 355.28,-186 355.28,-186 355.28,-198 355.28,-198 355.28,-204 349.28,-210 343.28,-210"/>
<text text-anchor="middle" x="303.28" y="-188.3" font-family="Times,serif" font-size="14.00">communicating</text>
</a>
</g>
</g>
<!-- PhoneLine_state_ringing&#45;&gt;PhoneLine_state_communicating -->
<g id="edge10" class="edge">
<title>PhoneLine_state_ringing&#45;&gt;PhoneLine_state_communicating</title>
<g id="a_edge10"><a xlink:title="From ringing to communicating on pickUp&#13;Transition Action:&#10; &#160;&#160;&#160;&#160;getOtherParty().otherPartyPickUp();">
<path fill="none" stroke="black" d="M22.48,-314.94C15.97,-310.08 10.04,-304.13 6.28,-297 -1.17,-282.84 -2.75,-274.2 6.28,-261 32.45,-222.78 161.82,-205.03 240.94,-197.63"/>
<polygon fill="black" stroke="black" points="241.63,-201.08 251.27,-196.69 241,-194.11 241.63,-201.08"/>
</a>
</g>
<text text-anchor="middle" x="44.78" y="-275.3" font-family="Times,serif" font-size="14.00">pickUp / {...}</text>
</g>
<!-- PhoneLine_state_ringing&#45;&gt;PhoneLine_state_communicating -->
<g id="edge11" class="edge">
<title>PhoneLine_state_ringing&#45;&gt;PhoneLine_state_communicating</title>
<g id="a_edge11"><a xlink:title="From ringing to communicating on autoPickup&#13;Transition Action:&#10; &#160;&#160;&#160;&#160;getOtherParty().otherPartyPickUp();">
<path fill="none" stroke="black" d="M70.74,-314.7C85.35,-296.27 108.1,-268.71 119.28,-261 156.22,-235.54 203.86,-218.28 241.41,-207.52"/>
<polygon fill="black" stroke="black" points="242.53,-210.84 251.23,-204.79 240.65,-204.1 242.53,-210.84"/>
</a>
</g>
<text text-anchor="middle" x="168.28" y="-275.3" font-family="Times,serif" font-size="14.00">autoPickup / {...}</text>
</g>
<!-- PhoneLine_state_communicating&#45;&gt;PhoneLine_state_onHook -->
<g id="edge3" class="edge">
<title>PhoneLine_state_communicating&#45;&gt;PhoneLine_state_onHook</title>
<g id="a_edge3"><a xlink:title="From communicating to onHook on hangUp&#13;Transition Action:&#10; &#160;&#160;&#160;&#160;say(Click);">
<path fill="none" stroke="black" d="M287.96,-210.29C264.74,-238.62 224.5,-297.15 236.28,-351 245.38,-392.57 246.05,-408.05 276.28,-438 285.35,-446.99 297.13,-453.88 308.78,-459.08"/>
<polygon fill="black" stroke="black" points="307.45,-462.32 318.03,-462.9 310.12,-455.85 307.45,-462.32"/>
</a>
</g>
<text text-anchor="middle" x="295.28" y="-329.3" font-family="Times,serif" font-size="14.00">hangUp / say(Click);</text>
</g>
<!-- PhoneLine_state_onHold -->
<g id="node5" class="node">
<title>PhoneLine_state_onHold</title>
<g id="a_node5"><a xlink:title="Class PhoneLine, SM state, State onHold">
<path fill="none" stroke="black" d="M487.28,-123C487.28,-123 439.28,-123 439.28,-123 433.28,-123 427.28,-117 427.28,-111 427.28,-111 427.28,-99 427.28,-99 427.28,-93 433.28,-87 439.28,-87 439.28,-87 487.28,-87 487.28,-87 493.28,-87 499.28,-93 499.28,-99 499.28,-99 499.28,-111 499.28,-111 499.28,-117 493.28,-123 487.28,-123"/>
<text text-anchor="middle" x="463.28" y="-101.3" font-family="Times,serif" font-size="14.00">onHold</text>
</a>
</g>
</g>
<!-- PhoneLine_state_communicating&#45;&gt;PhoneLine_state_onHold -->
<g id="edge14" class="edge">
<title>PhoneLine_state_communicating&#45;&gt;PhoneLine_state_onHold</title>
<g id="a_edge14"><a xlink:title="From communicating to onHold on putOnHold">
<path fill="none" stroke="black" d="M314.43,-173.83C322.36,-162.91 333.94,-149.32 347.28,-141 373.08,-124.91 384.21,-131.9 413.28,-123 414.68,-122.57 416.1,-122.13 417.53,-121.68"/>
<polygon fill="black" stroke="black" points="418.6,-125.01 427.05,-118.61 416.46,-118.35 418.6,-125.01"/>
</a>
</g>
<text text-anchor="middle" x="378.78" y="-144.8" font-family="Times,serif" font-size="14.00">putOnHold</text>
</g>
<!-- PhoneLine_state_waitForHook -->
<g id="node8" class="node">
<title>PhoneLine_state_waitForHook</title>
<g id="a_node8"><a xlink:title="Class PhoneLine, SM state, State waitForHook&#13;Entry:&#10; &#160;&#160;say(Beep);">
<path fill="none" stroke="black" d="M496.78,-36C496.78,-36 429.78,-36 429.78,-36 423.78,-36 417.78,-30 417.78,-24 417.78,-24 417.78,-12 417.78,-12 417.78,-6 423.78,0 429.78,0 429.78,0 496.78,0 496.78,0 502.78,0 508.78,-6 508.78,-12 508.78,-12 508.78,-24 508.78,-24 508.78,-30 502.78,-36 496.78,-36"/>
<text text-anchor="middle" x="463.28" y="-14.3" font-family="Times,serif" font-size="14.00">waitForHook</text>
</a>
</g>
</g>
<!-- PhoneLine_state_communicating&#45;&gt;PhoneLine_state_waitForHook -->
<g id="edge17" class="edge">
<title>PhoneLine_state_communicating&#45;&gt;PhoneLine_state_waitForHook</title>
<g id="a_edge17"><a xlink:title="From communicating to waitForHook on otherPartyHangUp">
<path fill="none" stroke="black" d="M299.85,-173.74C296.44,-151.52 294.04,-112.72 312.28,-87 334.44,-55.76 374.43,-38.62 407.69,-29.36"/>
<polygon fill="black" stroke="black" points="408.98,-32.65 417.77,-26.74 407.21,-25.87 408.98,-32.65"/>
</a>
</g>
<text text-anchor="middle" x="365.28" y="-101.3" font-family="Times,serif" font-size="14.00">otherPartyHangUp</text>
</g>
<!-- PhoneLine_state_onHold&#45;&gt;PhoneLine_state_onHook -->
<g id="edge4" class="edge">
<title>PhoneLine_state_onHold&#45;&gt;PhoneLine_state_onHook</title>
<g id="a_edge4"><a xlink:title="From onHold to onHook on hangUp&#13;Transition Action:&#10; &#160;&#160;&#160;&#160;say(Click);">
<path fill="none" stroke="black" d="M499.37,-110.6C568.6,-120.45 713.28,-146.36 713.28,-191 713.28,-388 713.28,-388 713.28,-388 713.28,-451.57 497.41,-467.66 400.46,-471.68"/>
<polygon fill="black" stroke="black" points="400.21,-468.19 390.35,-472.08 400.48,-475.19 400.21,-468.19"/>
</a>
</g>
<text text-anchor="middle" x="772.28" y="-275.3" font-family="Times,serif" font-size="14.00">hangUp / say(Click);</text>
</g>
<!-- PhoneLine_state_onHold&#45;&gt;PhoneLine_state_communicating -->
<g id="edge12" class="edge">
<title>PhoneLine_state_onHold&#45;&gt;PhoneLine_state_communicating</title>
<g id="a_edge12"><a xlink:title="From onHold to communicating on takeOffHold">
<path fill="none" stroke="black" d="M449.96,-123.44C440.94,-134.18 428.16,-147.48 414.28,-156 399.38,-165.14 381.88,-172.11 365.23,-177.32"/>
<polygon fill="black" stroke="black" points="364.14,-173.99 355.55,-180.18 366.13,-180.7 364.14,-173.99"/>
</a>
</g>
<text text-anchor="middle" x="467.78" y="-144.8" font-family="Times,serif" font-size="14.00">takeOffHold</text>
</g>
<!-- PhoneLine_state_onHold&#45;&gt;PhoneLine_state_waitForHook -->
<g id="edge18" class="edge">
<title>PhoneLine_state_onHold&#45;&gt;PhoneLine_state_waitForHook</title>
<g id="a_edge18"><a xlink:title="From onHold to waitForHook on otherPartyHangUp">
<path fill="none" stroke="black" d="M463.28,-86.8C463.28,-75.16 463.28,-59.55 463.28,-46.24"/>
<polygon fill="black" stroke="black" points="466.78,-46.18 463.28,-36.18 459.78,-46.18 466.78,-46.18"/>
</a>
</g>
<text text-anchor="middle" x="516.28" y="-57.8" font-family="Times,serif" font-size="14.00">otherPartyHangUp</text>
</g>
<!-- PhoneLine_state_dialing&#45;&gt;PhoneLine_state_onHook -->
<g id="edge5" class="edge">
<title>PhoneLine_state_dialing&#45;&gt;PhoneLine_state_onHook</title>
<g id="a_edge5"><a xlink:title="From dialing to onHook on hangUp&#13;Transition Action:&#10; &#160;&#160;&#160;&#160;say(Click);">
<path fill="none" stroke="black" d="M354.28,-405.18C354.28,-416.81 354.28,-432.42 354.28,-445.73"/>
<polygon fill="black" stroke="black" points="350.78,-445.8 354.28,-455.8 357.78,-445.8 350.78,-445.8"/>
</a>
</g>
<text text-anchor="middle" x="413.28" y="-426.8" font-family="Times,serif" font-size="14.00">hangUp / say(Click);</text>
</g>
<!-- PhoneLine_state_waitingForConnection -->
<g id="node7" class="node">
<title>PhoneLine_state_waitingForConnection</title>
<g id="a_node7"><a xlink:title="Class PhoneLine, SM state, State waitingForConnection&#13;Entry:&#10; &#160;&#160;getOtherParty().incomingCall();">
<path fill="none" stroke="black" d="M487.28,-297C487.28,-297 369.28,-297 369.28,-297 363.28,-297 357.28,-291 357.28,-285 357.28,-285 357.28,-273 357.28,-273 357.28,-267 363.28,-261 369.28,-261 369.28,-261 487.28,-261 487.28,-261 493.28,-261 499.28,-267 499.28,-273 499.28,-273 499.28,-285 499.28,-285 499.28,-291 493.28,-297 487.28,-297"/>
<text text-anchor="middle" x="428.28" y="-275.3" font-family="Times,serif" font-size="14.00">waitingForConnection</text>
</a>
</g>
</g>
<!-- PhoneLine_state_dialing&#45;&gt;PhoneLine_state_waitingForConnection -->
<g id="edge16" class="edge">
<title>PhoneLine_state_dialing&#45;&gt;PhoneLine_state_waitingForConnection</title>
<g id="a_edge16"><a xlink:title="From dialing to waitingForConnection on completeNumber">
<path fill="none" stroke="black" d="M355.39,-368.71C357.15,-353.32 361.66,-330.85 373.28,-315 376.42,-310.72 380.26,-306.83 384.43,-303.33"/>
<polygon fill="black" stroke="black" points="386.86,-305.89 392.78,-297.1 382.67,-300.28 386.86,-305.89"/>
</a>
</g>
<text text-anchor="middle" x="422.28" y="-329.3" font-family="Times,serif" font-size="14.00">completeNumber</text>
</g>
<!-- PhoneLine_state_waitingForConnection&#45;&gt;PhoneLine_state_onHook -->
<g id="edge6" class="edge">
<title>PhoneLine_state_waitingForConnection&#45;&gt;PhoneLine_state_onHook</title>
<g id="a_edge6"><a xlink:title="From waitingForConnection to onHook on hangUp&#13;Transition Action:&#10; &#160;&#160;&#160;&#160;say(Click);">
<path fill="none" stroke="black" d="M456.53,-297.06C462.45,-302.06 467.91,-308.08 471.28,-315 520.74,-416.58 480.34,-428.56 473.28,-438 456.54,-460.38 426.19,-469.06 400.34,-472.18"/>
<polygon fill="black" stroke="black" points="399.93,-468.71 390.32,-473.15 400.61,-475.67 399.93,-468.71"/>
</a>
</g>
<text text-anchor="middle" x="554.28" y="-383.3" font-family="Times,serif" font-size="14.00">hangUp / say(Click);</text>
</g>
<!-- PhoneLine_state_waitingForConnection&#45;&gt;PhoneLine_state_onHook -->
<g id="edge7" class="edge">
<title>PhoneLine_state_waitingForConnection&#45;&gt;PhoneLine_state_onHook</title>
<g id="a_edge7"><a xlink:title="From waitingForConnection to onHook on timeOut">
<path fill="none" stroke="black" d="M499.5,-297.09C568.21,-317.02 656.49,-353.89 617.28,-405 591.11,-439.12 468.73,-459.14 400.52,-467.83"/>
<polygon fill="black" stroke="black" points="399.96,-464.37 390.47,-469.08 400.82,-471.32 399.96,-464.37"/>
</a>
</g>
<text text-anchor="middle" x="649.28" y="-383.3" font-family="Times,serif" font-size="14.00">timeOut</text>
</g>
<!-- PhoneLine_state_waitingForConnection&#45;&gt;PhoneLine_state_communicating -->
<g id="edge13" class="edge">
<title>PhoneLine_state_waitingForConnection&#45;&gt;PhoneLine_state_communicating</title>
<g id="a_edge13"><a xlink:title="From waitingForConnection to communicating on otherPartyPickUp">
<path fill="none" stroke="black" d="M402.99,-260.8C384.01,-247.9 357.84,-230.1 337.07,-215.98"/>
<polygon fill="black" stroke="black" points="338.78,-212.9 328.54,-210.18 334.84,-218.69 338.78,-212.9"/>
</a>
</g>
<text text-anchor="middle" x="422.78" y="-231.8" font-family="Times,serif" font-size="14.00">otherPartyPickUp</text>
</g>
<!-- PhoneLine_state_waitForHook&#45;&gt;PhoneLine_state_onHook -->
<g id="edge8" class="edge">
<title>PhoneLine_state_waitForHook&#45;&gt;PhoneLine_state_onHook</title>
<g id="a_edge8"><a xlink:title="From waitForHook to onHook on hangUp&#13;Transition Action:&#10; &#160;&#160;&#160;&#160;say(Click);">
<path fill="none" stroke="black" d="M509.1,-19.28C613.34,-21.15 859.28,-33.07 859.28,-104 859.28,-388 859.28,-388 859.28,-388 859.28,-434.26 525.43,-461.49 400.62,-470.05"/>
<polygon fill="black" stroke="black" points="400.34,-466.56 390.6,-470.73 400.82,-473.54 400.34,-466.56"/>
</a>
</g>
<text text-anchor="middle" x="918.28" y="-231.8" font-family="Times,serif" font-size="14.00">hangUp / say(Click);</text>
</g>
</g>
</svg>
