<?xml version="1.0" encoding="UTF-8" standalone="no"?>
<!DOCTYPE svg PUBLIC "-//W3C//DTD SVG 1.1//EN"
 "http://www.w3.org/Graphics/SVG/1.1/DTD/svg11.dtd">
<!-- Generated by graphviz version 2.48.0 (20210717.1556)
 -->
<!-- Title: Runway Pages: 1 -->
<svg width="1103pt" height="429pt"
 viewBox="0.00 0.00 1103.20 429.40" xmlns="http://www.w3.org/2000/svg" xmlns:xlink="http://www.w3.org/1999/xlink">
<g id="graph0" class="graph" transform="scale(1 1) rotate(0) translate(4 425.4)">
<title>Runway</title>
<polygon fill="white" stroke="transparent" points="-4,4 -4,-425.4 1099.2,-425.4 1099.2,4 -4,4"/>
<g id="clust1" class="cluster">
<title>clusterRunway_runwayStateMachine_Open</title>
<path fill="none" stroke="black" d="M34.2,-101C34.2,-101 458.2,-101 458.2,-101 464.2,-101 470.2,-107 470.2,-113 470.2,-113 470.2,-339.4 470.2,-339.4 470.2,-345.4 464.2,-351.4 458.2,-351.4 458.2,-351.4 34.2,-351.4 34.2,-351.4 28.2,-351.4 22.2,-345.4 22.2,-339.4 22.2,-339.4 22.2,-113 22.2,-113 22.2,-107 28.2,-101 34.2,-101"/>
<text text-anchor="middle" x="246.2" y="-336.2" font-family="Times,serif" font-size="14.00">Open</text>
</g>
<g id="clust2" class="cluster">
<title>clusterRunway_runwayStateMachine_Closed</title>
<path fill="none" stroke="black" d="M490.2,-8C490.2,-8 1075.2,-8 1075.2,-8 1081.2,-8 1087.2,-14 1087.2,-20 1087.2,-20 1087.2,-401.4 1087.2,-401.4 1087.2,-407.4 1081.2,-413.4 1075.2,-413.4 1075.2,-413.4 490.2,-413.4 490.2,-413.4 484.2,-413.4 478.2,-407.4 478.2,-401.4 478.2,-401.4 478.2,-20 478.2,-20 478.2,-14 484.2,-8 490.2,-8"/>
<text text-anchor="middle" x="782.7" y="-398.2" font-family="Times,serif" font-size="14.00">Closed</text>
</g>
<g id="clust3" class="cluster">
<title>clusterRunway_runwayStateMachineClosed_Restoration</title>
<path fill="none" stroke="black" d="M586.2,-93C586.2,-93 1067.2,-93 1067.2,-93 1073.2,-93 1079.2,-99 1079.2,-105 1079.2,-105 1079.2,-370.4 1079.2,-370.4 1079.2,-376.4 1073.2,-382.4 1067.2,-382.4 1067.2,-382.4 586.2,-382.4 586.2,-382.4 580.2,-382.4 574.2,-376.4 574.2,-370.4 574.2,-370.4 574.2,-105 574.2,-105 574.2,-99 580.2,-93 586.2,-93"/>
<text text-anchor="middle" x="826.7" y="-367.2" font-family="Times,serif" font-size="14.00">Restoration</text>
</g>
<g id="clust4" class="cluster">
<title>clusterRunway_runwayStateMachineClosedRestorationRestoration_1_Restoration_1</title>
<path fill="none" stroke="black" d="M779.2,-101C779.2,-101 1059.2,-101 1059.2,-101 1065.2,-101 1071.2,-107 1071.2,-113 1071.2,-113 1071.2,-339.4 1071.2,-339.4 1071.2,-345.4 1065.2,-351.4 1059.2,-351.4 1059.2,-351.4 779.2,-351.4 779.2,-351.4 773.2,-351.4 767.2,-345.4 767.2,-339.4 767.2,-339.4 767.2,-113 767.2,-113 767.2,-107 773.2,-101 779.2,-101"/>
<text text-anchor="middle" x="919.2" y="-336.2" font-family="Times,serif" font-size="14.00">Restoration_1</text>
</g>
<g id="clust5" class="cluster">
<title>clusterRunway_runwayStateMachineClosedRestorationRestoration_2_Restoration_2</title>
<path fill="none" stroke="black" d="M643.2,-188C643.2,-188 725.2,-188 725.2,-188 731.2,-188 737.2,-194 737.2,-200 737.2,-200 737.2,-339.4 737.2,-339.4 737.2,-345.4 731.2,-351.4 725.2,-351.4 725.2,-351.4 643.2,-351.4 643.2,-351.4 637.2,-351.4 631.2,-345.4 631.2,-339.4 631.2,-339.4 631.2,-200 631.2,-200 631.2,-194 637.2,-188 643.2,-188"/>
<text text-anchor="middle" x="684.2" y="-336.2" font-family="Times,serif" font-size="14.00">Restoration_2</text>
</g>
<!-- start_Runway_runwayStateMachine -->
<g id="node1" class="node">
<title>start_Runway_runwayStateMachine</title>
<g id="a_node1"><a xlink:title="Class Runway, SM runwayStateMachine, State start">
<ellipse fill="black" stroke="black" cx="7.2" cy="-290.2" rx="7.2" ry="7.2"/>
</a>
</g>
</g>
<!-- Runway_runwayStateMachineOpen_Free -->
<g id="node3" class="node">
<title>Runway_runwayStateMachineOpen_Free</title>
<g id="a_node3"><a xlink:title="Class Runway, SM runwayStateMachine, State Open.Free&#13;Entry:&#10; &#160;&#160;turnOnGreenLight();&#13;Exit:&#10; &#160;&#160;turnOffGreenLight();">
<path fill="none" stroke="black" d="M284.2,-232C284.2,-232 236.2,-232 236.2,-232 230.2,-232 224.2,-226 224.2,-220 224.2,-220 224.2,-208 224.2,-208 224.2,-202 230.2,-196 236.2,-196 236.2,-196 284.2,-196 284.2,-196 290.2,-196 296.2,-202 296.2,-208 296.2,-208 296.2,-220 296.2,-220 296.2,-226 290.2,-232 284.2,-232"/>
<text text-anchor="middle" x="260.2" y="-210.3" font-family="Times,serif" font-size="14.00">Free</text>
</a>
</g>
</g>
<!-- start_Runway_runwayStateMachine&#45;&gt;Runway_runwayStateMachineOpen_Free -->
<g id="edge1" class="edge">
<title>start_Runway_runwayStateMachine&#45;&gt;Runway_runwayStateMachineOpen_Free</title>
<g id="a_edge1"><a xlink:title="start to Open">
<path fill="none" stroke="black" d="M12.89,-285.65C13,-285.59 13.1,-285.53 13.21,-285.47"/>
<polygon fill="black" stroke="black" points="14.57,-288.7 22.2,-281.35 11.66,-282.33 14.57,-288.7"/>
</a>
</g>
</g>
<!-- start_Runway_runwayStateMachineOpen -->
<g id="node2" class="node">
<title>start_Runway_runwayStateMachineOpen</title>
<g id="a_node2"><a xlink:title="Class Runway, SM runwayStateMachine, State Open.start">
<ellipse fill="black" stroke="black" cx="260.2" cy="-290.2" rx="7.2" ry="7.2"/>
</a>
</g>
</g>
<!-- start_Runway_runwayStateMachineOpen&#45;&gt;Runway_runwayStateMachineOpen_Free -->
<g id="edge3" class="edge">
<title>start_Runway_runwayStateMachineOpen&#45;&gt;Runway_runwayStateMachineOpen_Free</title>
<g id="a_edge3"><a xlink:title="start to Open.Free">
<path fill="none" stroke="black" d="M260.2,-282.87C260.2,-273.91 260.2,-256.95 260.2,-242.23"/>
<polygon fill="black" stroke="black" points="263.7,-242.05 260.2,-232.05 256.7,-242.05 263.7,-242.05"/>
</a>
</g>
</g>
<!-- Runway_runwayStateMachineOpen_Occupied -->
<g id="node4" class="node">
<title>Runway_runwayStateMachineOpen_Occupied</title>
<g id="a_node4"><a xlink:title="Class Runway, SM runwayStateMachine, State Open.Occupied">
<path fill="none" stroke="black" d="M263.2,-145C263.2,-145 215.2,-145 215.2,-145 209.2,-145 203.2,-139 203.2,-133 203.2,-133 203.2,-121 203.2,-121 203.2,-115 209.2,-109 215.2,-109 215.2,-109 263.2,-109 263.2,-109 269.2,-109 275.2,-115 275.2,-121 275.2,-121 275.2,-133 275.2,-133 275.2,-139 269.2,-145 263.2,-145"/>
<text text-anchor="middle" x="239.2" y="-123.3" font-family="Times,serif" font-size="14.00">Occupied</text>
</a>
</g>
</g>
<!-- Runway_runwayStateMachineOpen_Free&#45;&gt;Runway_runwayStateMachineOpen_Occupied -->
<g id="edge6" class="edge">
<title>Runway_runwayStateMachineOpen_Free&#45;&gt;Runway_runwayStateMachineOpen_Occupied</title>
<g id="a_edge6"><a xlink:title="From Open.Free to Open.Occupied on planeLanding">
<path fill="none" stroke="black" d="M223.87,-212.41C169.55,-210.67 71.17,-203.92 49.2,-178 22.14,-146.08 33.71,-171.22 168.2,-145 176.25,-143.43 184.76,-141.57 193,-139.66"/>
<polygon fill="black" stroke="black" points="193.92,-143.04 202.84,-137.33 192.31,-136.23 193.92,-143.04"/>
</a>
</g>
<text text-anchor="middle" x="87.7" y="-166.8" font-family="Times,serif" font-size="14.00">planeLanding</text>
</g>
<!-- Runway_runwayStateMachineOpen_Free&#45;&gt;Runway_runwayStateMachineOpen_Occupied -->
<g id="edge7" class="edge">
<title>Runway_runwayStateMachineOpen_Free&#45;&gt;Runway_runwayStateMachineOpen_Occupied</title>
<g id="a_edge7"><a xlink:title="From Open.Free to Open.Occupied on planeTakingOff">
<path fill="none" stroke="black" d="M223.98,-211.29C200.22,-208.06 170.76,-199.59 155.2,-178 141.5,-158.99 167,-145.95 193.41,-137.96"/>
<polygon fill="black" stroke="black" points="194.42,-141.31 203.11,-135.24 192.54,-134.57 194.42,-141.31"/>
</a>
</g>
<text text-anchor="middle" x="199.7" y="-166.8" font-family="Times,serif" font-size="14.00">planeTakingOff</text>
</g>
<!-- Runway_runwayStateMachineClosed_Emergency -->
<g id="node6" class="node">
<title>Runway_runwayStateMachineClosed_Emergency</title>
<g id="a_node6"><a xlink:title="Class Runway, SM runwayStateMachine, State Closed.Emergency">
<path fill="none" stroke="black" d="M554.2,-145C554.2,-145 498.2,-145 498.2,-145 492.2,-145 486.2,-139 486.2,-133 486.2,-133 486.2,-121 486.2,-121 486.2,-115 492.2,-109 498.2,-109 498.2,-109 554.2,-109 554.2,-109 560.2,-109 566.2,-115 566.2,-121 566.2,-121 566.2,-133 566.2,-133 566.2,-139 560.2,-145 554.2,-145"/>
<text text-anchor="middle" x="526.2" y="-123.3" font-family="Times,serif" font-size="14.00">Emergency</text>
</a>
</g>
</g>
<!-- Runway_runwayStateMachineOpen_Free&#45;&gt;Runway_runwayStateMachineClosed_Emergency -->
<g id="edge9" class="edge">
<title>Runway_runwayStateMachineOpen_Free&#45;&gt;Runway_runwayStateMachineClosed_Emergency</title>
<g id="a_edge9"><a xlink:title="From Open to Closed.Emergency on alarm">
<path fill="none" stroke="black" d="M470.2,-164.11C478.29,-159.76 486.04,-155.17 493.06,-150.77"/>
<polygon fill="black" stroke="black" points="495.2,-153.56 501.72,-145.21 491.41,-147.67 495.2,-153.56"/>
</a>
</g>
<text text-anchor="middle" x="485.2" y="-166.8" font-family="Times,serif" font-size="14.00">alarm</text>
</g>
<!-- Runway_runwayStateMachineClosedRestorationRestoration_1Restoration_1_Repair -->
<g id="node10" class="node">
<title>Runway_runwayStateMachineClosedRestorationRestoration_1Restoration_1_Repair</title>
<g id="a_node10"><a xlink:title="Class Runway, SM runwayStateMachine, State Closed.Restoration_1.Restoration_1.Repair">
<path fill="none" stroke="black" d="M835.2,-232C835.2,-232 787.2,-232 787.2,-232 781.2,-232 775.2,-226 775.2,-220 775.2,-220 775.2,-208 775.2,-208 775.2,-202 781.2,-196 787.2,-196 787.2,-196 835.2,-196 835.2,-196 841.2,-196 847.2,-202 847.2,-208 847.2,-208 847.2,-220 847.2,-220 847.2,-226 841.2,-232 835.2,-232"/>
<text text-anchor="middle" x="811.2" y="-210.3" font-family="Times,serif" font-size="14.00">Repair</text>
</a>
</g>
</g>
<!-- Runway_runwayStateMachineOpen_Free&#45;&gt;Runway_runwayStateMachineClosedRestorationRestoration_1Restoration_1_Repair -->
<g id="edge12" class="edge">
<title>Runway_runwayStateMachineOpen_Free&#45;&gt;Runway_runwayStateMachineClosedRestorationRestoration_1Restoration_1_Repair</title>
<g id="a_edge12"><a xlink:title="From Open.Free to Closed.Restoration on repair">
<path fill="none" stroke="black" d="M296.44,-224.45C351.24,-239.15 459.89,-264.08 564.13,-263.41"/>
<polygon fill="black" stroke="black" points="564.26,-266.91 574.2,-263.26 564.15,-259.91 564.26,-266.91"/>
</a>
</g>
<text text-anchor="middle" x="606.2" y="-253.8" font-family="Times,serif" font-size="14.00">repair</text>
</g>
<!-- Runway_runwayStateMachineOpen_Occupied&#45;&gt;Runway_runwayStateMachineOpen_Free -->
<g id="edge4" class="edge">
<title>Runway_runwayStateMachineOpen_Occupied&#45;&gt;Runway_runwayStateMachineOpen_Free</title>
<g id="a_edge4"><a xlink:title="From Open.Occupied to Open.Free on planeTakesOff">
<path fill="none" stroke="black" d="M243.44,-145.18C246.32,-156.81 250.17,-172.42 253.46,-185.73"/>
<polygon fill="black" stroke="black" points="250.15,-186.93 255.95,-195.8 256.95,-185.25 250.15,-186.93"/>
</a>
</g>
<text text-anchor="middle" x="291.2" y="-166.8" font-family="Times,serif" font-size="14.00">planeTakesOff</text>
</g>
<!-- Runway_runwayStateMachineOpen_Occupied&#45;&gt;Runway_runwayStateMachineOpen_Free -->
<g id="edge5" class="edge">
<title>Runway_runwayStateMachineOpen_Occupied&#45;&gt;Runway_runwayStateMachineOpen_Free</title>
<g id="a_edge5"><a xlink:title="From Open.Occupied to Open.Free on landingComplete">
<path fill="none" stroke="black" d="M275.38,-130.98C296.87,-134.83 322.52,-143.51 336.2,-163 347.99,-179.79 328.24,-192.42 305.92,-200.78"/>
<polygon fill="black" stroke="black" points="304.59,-197.54 296.28,-204.11 306.87,-204.16 304.59,-197.54"/>
</a>
</g>
<text text-anchor="middle" x="387.7" y="-166.8" font-family="Times,serif" font-size="14.00">landingComplete</text>
</g>
<!-- start_Runway_runwayStateMachineClosed -->
<g id="node5" class="node">
<title>start_Runway_runwayStateMachineClosed</title>
<g id="a_node5"><a xlink:title="Class Runway, SM runwayStateMachine, State Closed.start">
<ellipse fill="black" stroke="black" cx="526.2" cy="-214" rx="7.2" ry="7.2"/>
</a>
</g>
</g>
<!-- start_Runway_runwayStateMachineClosed&#45;&gt;Runway_runwayStateMachineClosed_Emergency -->
<g id="edge8" class="edge">
<title>start_Runway_runwayStateMachineClosed&#45;&gt;Runway_runwayStateMachineClosed_Emergency</title>
<g id="a_edge8"><a xlink:title="start to Closed.Emergency">
<path fill="none" stroke="black" d="M526.2,-206.61C526.2,-195.83 526.2,-173.43 526.2,-155.29"/>
<polygon fill="black" stroke="black" points="529.7,-155.22 526.2,-145.22 522.7,-155.22 529.7,-155.22"/>
</a>
</g>
</g>
<!-- Runway_runwayStateMachineClosed_ReadyToOpen -->
<g id="node7" class="node">
<title>Runway_runwayStateMachineClosed_ReadyToOpen</title>
<g id="a_node7"><a xlink:title="Class Runway, SM runwayStateMachine, State Closed.ReadyToOpen">
<path fill="none" stroke="black" d="M571.7,-52C571.7,-52 498.7,-52 498.7,-52 492.7,-52 486.7,-46 486.7,-40 486.7,-40 486.7,-28 486.7,-28 486.7,-22 492.7,-16 498.7,-16 498.7,-16 571.7,-16 571.7,-16 577.7,-16 583.7,-22 583.7,-28 583.7,-28 583.7,-40 583.7,-40 583.7,-46 577.7,-52 571.7,-52"/>
<text text-anchor="middle" x="535.2" y="-30.3" font-family="Times,serif" font-size="14.00">ReadyToOpen</text>
</a>
</g>
</g>
<!-- Runway_runwayStateMachineClosed_Emergency&#45;&gt;Runway_runwayStateMachineClosed_ReadyToOpen -->
<g id="edge10" class="edge">
<title>Runway_runwayStateMachineClosed_Emergency&#45;&gt;Runway_runwayStateMachineClosed_ReadyToOpen</title>
<g id="a_edge10"><a xlink:title="From Closed.Emergency to Closed.ReadyToOpen on emergencyOver">
<path fill="none" stroke="black" d="M527.89,-108.88C529.19,-95.79 531,-77.48 532.49,-62.36"/>
<polygon fill="black" stroke="black" points="536.01,-62.34 533.51,-52.04 529.05,-61.65 536.01,-62.34"/>
</a>
</g>
<text text-anchor="middle" x="576.2" y="-73.8" font-family="Times,serif" font-size="14.00">emergencyOver</text>
</g>
<!-- Runway_runwayStateMachineClosed_ReadyToOpen&#45;&gt;Runway_runwayStateMachineOpen_Free -->
<g id="edge2" class="edge">
<title>Runway_runwayStateMachineClosed_ReadyToOpen&#45;&gt;Runway_runwayStateMachineOpen_Free</title>
<g id="a_edge2"><a xlink:title="From Closed.ReadyToOpen to Open on open&#13;Guard: &#160;[noPlaneOnRunway]">
<path fill="none" stroke="black" d="M486.68,-37.48C369.23,-43.95 76.88,-62.92 45.2,-93 44.93,-93.26 44.65,-93.52 44.38,-93.78"/>
<polygon fill="black" stroke="black" points="41.72,-91.49 37.07,-101 46.65,-96.46 41.72,-91.49"/>
</a>
</g>
<text text-anchor="middle" x="119.7" y="-123.3" font-family="Times,serif" font-size="14.00">open [noPlaneOnRunway]</text>
</g>
<!-- start_Runway_runwayStateMachineClosedRestorationRestoration_1 -->
<g id="node8" class="node">
<title>start_Runway_runwayStateMachineClosedRestorationRestoration_1</title>
<g id="a_node8"><a xlink:title="Class Runway, SM runwayStateMachine, State Closed.Restoration_1.start">
<ellipse fill="black" stroke="black" cx="752.2" cy="-290.2" rx="7.2" ry="7.2"/>
</a>
</g>
</g>
<!-- start_Runway_runwayStateMachineClosedRestorationRestoration_1&#45;&gt;Runway_runwayStateMachineClosedRestorationRestoration_1Restoration_1_Repair -->
<g id="edge13" class="edge">
<title>start_Runway_runwayStateMachineClosedRestorationRestoration_1&#45;&gt;Runway_runwayStateMachineClosedRestorationRestoration_1Restoration_1_Repair</title>
<g id="a_edge13"><a xlink:title="start to Closed.Restoration_1.Restoration_1">
<path fill="none" stroke="black" d="M756.44,-283.86C757.7,-282.28 759.19,-280.41 760.87,-278.29"/>
<polygon fill="black" stroke="black" points="763.72,-280.34 767.2,-270.33 758.24,-275.98 763.72,-280.34"/>
</a>
</g>
</g>
<!-- start_Runway_runwayStateMachineClosedRestorationRestoration_1Restoration_1 -->
<g id="node9" class="node">
<title>start_Runway_runwayStateMachineClosedRestorationRestoration_1Restoration_1</title>
<g id="a_node9"><a xlink:title="Class Runway, SM runwayStateMachine, State Closed.Restoration_1.Restoration_1.start">
<ellipse fill="black" stroke="black" cx="811.2" cy="-290.2" rx="7.2" ry="7.2"/>
</a>
</g>
</g>
<!-- start_Runway_runwayStateMachineClosedRestorationRestoration_1Restoration_1&#45;&gt;Runway_runwayStateMachineClosedRestorationRestoration_1Restoration_1_Repair -->
<g id="edge14" class="edge">
<title>start_Runway_runwayStateMachineClosedRestorationRestoration_1Restoration_1&#45;&gt;Runway_runwayStateMachineClosedRestorationRestoration_1Restoration_1_Repair</title>
<g id="a_edge14"><a xlink:title="start to Closed.Restoration_1.Restoration_1.Repair">
<path fill="none" stroke="black" d="M811.2,-282.87C811.2,-273.91 811.2,-256.95 811.2,-242.23"/>
<polygon fill="black" stroke="black" points="814.7,-242.05 811.2,-232.05 807.7,-242.05 814.7,-242.05"/>
</a>
</g>
</g>
<!-- Runway_runwayStateMachineClosedRestorationRestoration_1Restoration_1_InspectRepairs -->
<g id="node11" class="node">
<title>Runway_runwayStateMachineClosedRestorationRestoration_1Restoration_1_InspectRepairs</title>
<g id="a_node11"><a xlink:title="Class Runway, SM runwayStateMachine, State Closed.Restoration_1.Restoration_1.InspectRepairs">
<path fill="none" stroke="black" d="M863.2,-145C863.2,-145 787.2,-145 787.2,-145 781.2,-145 775.2,-139 775.2,-133 775.2,-133 775.2,-121 775.2,-121 775.2,-115 781.2,-109 787.2,-109 787.2,-109 863.2,-109 863.2,-109 869.2,-109 875.2,-115 875.2,-121 875.2,-121 875.2,-133 875.2,-133 875.2,-139 869.2,-145 863.2,-145"/>
<text text-anchor="middle" x="825.2" y="-123.3" font-family="Times,serif" font-size="14.00">InspectRepairs</text>
</a>
</g>
</g>
<!-- Runway_runwayStateMachineClosedRestorationRestoration_1Restoration_1_Repair&#45;&gt;Runway_runwayStateMachineClosedRestorationRestoration_1Restoration_1_InspectRepairs -->
<g id="edge16" class="edge">
<title>Runway_runwayStateMachineClosedRestorationRestoration_1Restoration_1_Repair&#45;&gt;Runway_runwayStateMachineClosedRestorationRestoration_1Restoration_1_InspectRepairs</title>
<g id="a_edge16"><a xlink:title="From Closed.Restoration_1.Restoration_1.Repair to Closed.Restoration_1.Restoration_1.InspectRepairs on repairCompleted">
<path fill="none" stroke="black" d="M796.94,-195.89C790.68,-186.24 785.66,-173.96 790.2,-163 791.67,-159.46 793.69,-156.09 796.02,-152.93"/>
<polygon fill="black" stroke="black" points="798.87,-154.99 802.77,-145.14 793.58,-150.41 798.87,-154.99"/>
</a>
</g>
<text text-anchor="middle" x="837.7" y="-166.8" font-family="Times,serif" font-size="14.00">repairCompleted</text>
</g>
<!-- Runway_runwayStateMachineClosedRestorationRestoration_1Restoration_1_InspectRepairs&#45;&gt;Runway_runwayStateMachineClosed_ReadyToOpen -->
<g id="edge11" class="edge">
<title>Runway_runwayStateMachineClosedRestorationRestoration_1Restoration_1_InspectRepairs&#45;&gt;Runway_runwayStateMachineClosed_ReadyToOpen</title>
<g id="a_edge11"><a xlink:title="From Closed.Restoration_1.Restoration_1.InspectRepairs to Closed.ReadyToOpen on check&#13;Guard: &#160;[inspectionSuccess]">
<path fill="none" stroke="black" d="M800.78,-108.88C791.8,-103.19 781.34,-97.23 771.2,-93 713.21,-68.84 642.83,-53.16 594.1,-44.27"/>
<polygon fill="black" stroke="black" points="594.5,-40.79 584.04,-42.48 593.27,-47.68 594.5,-40.79"/>
</a>
</g>
<text text-anchor="middle" x="820.2" y="-73.8" font-family="Times,serif" font-size="14.00">check [inspectionSuccess]</text>
</g>
<!-- Runway_runwayStateMachineClosedRestorationRestoration_1Restoration_1_InspectRepairs&#45;&gt;Runway_runwayStateMachineClosedRestorationRestoration_1Restoration_1_Repair -->
<g id="edge15" class="edge">
<title>Runway_runwayStateMachineClosedRestorationRestoration_1Restoration_1_InspectRepairs&#45;&gt;Runway_runwayStateMachineClosedRestorationRestoration_1Restoration_1_Repair</title>
<g id="a_edge15"><a xlink:title="From Closed.Restoration_1.Restoration_1.InspectRepairs to Closed.Restoration_1.Restoration_1.Repair on check&#13;Guard: &#160;[!inspectionSuccess]">
<path fill="none" stroke="black" d="M871.31,-145.08C886.6,-153.52 897.78,-164.74 889.2,-178 881.74,-189.52 869.5,-197.28 856.9,-202.5"/>
<polygon fill="black" stroke="black" points="855.47,-199.3 847.27,-206.01 857.87,-205.87 855.47,-199.3"/>
</a>
</g>
<text text-anchor="middle" x="967.2" y="-166.8" font-family="Times,serif" font-size="14.00">check [!inspectionSuccess]</text>
</g>
<!-- start_Runway_runwayStateMachineClosedRestorationRestoration_2 -->
<g id="node12" class="node">
<title>start_Runway_runwayStateMachineClosedRestorationRestoration_2</title>
<g id="a_node12"><a xlink:title="Class Runway, SM runwayStateMachine, State Closed.Restoration_2.start">
<ellipse fill="black" stroke="black" cx="589.2" cy="-290.2" rx="7.2" ry="7.2"/>
</a>
</g>
</g>
<!-- Runway_runwayStateMachineClosedRestorationRestoration_2Restoration_2_Maintenance -->
<g id="node14" class="node">
<title>Runway_runwayStateMachineClosedRestorationRestoration_2Restoration_2_Maintenance</title>
<g id="a_node14"><a xlink:title="Class Runway, SM runwayStateMachine, State Closed.Restoration_2.Restoration_2.Maintenance&#13;Activity:&#10; &#160;&#160;performMaintenanceWork();">
<path fill="none" stroke="black" d="M716.7,-232C716.7,-232 651.7,-232 651.7,-232 645.7,-232 639.7,-226 639.7,-220 639.7,-220 639.7,-208 639.7,-208 639.7,-202 645.7,-196 651.7,-196 651.7,-196 716.7,-196 716.7,-196 722.7,-196 728.7,-202 728.7,-208 728.7,-208 728.7,-220 728.7,-220 728.7,-226 722.7,-232 716.7,-232"/>
<text text-anchor="middle" x="684.2" y="-210.3" font-family="Times,serif" font-size="14.00">Maintenance</text>
</a>
</g>
</g>
<!-- start_Runway_runwayStateMachineClosedRestorationRestoration_2&#45;&gt;Runway_runwayStateMachineClosedRestorationRestoration_2Restoration_2_Maintenance -->
<g id="edge17" class="edge">
<title>start_Runway_runwayStateMachineClosedRestorationRestoration_2&#45;&gt;Runway_runwayStateMachineClosedRestorationRestoration_2Restoration_2_Maintenance</title>
<g id="a_edge17"><a xlink:title="start to Closed.Restoration_2.Restoration_2">
<path fill="none" stroke="black" d="M587.04,-283.27C584.45,-275 581.25,-259.93 588.2,-250 588.57,-249.47 608.41,-242.2 629.96,-234.42"/>
<polygon fill="black" stroke="black" points="623.08,-240.76 631.2,-233.96 620.61,-234.21 623.08,-240.76"/>
</a>
</g>
</g>
<!-- start_Runway_runwayStateMachineClosedRestorationRestoration_2Restoration_2 -->
<g id="node13" class="node">
<title>start_Runway_runwayStateMachineClosedRestorationRestoration_2Restoration_2</title>
<g id="a_node13"><a xlink:title="Class Runway, SM runwayStateMachine, State Closed.Restoration_2.Restoration_2.start">
<ellipse fill="black" stroke="black" cx="684.2" cy="-290.2" rx="7.2" ry="7.2"/>
</a>
</g>
</g>
<!-- start_Runway_runwayStateMachineClosedRestorationRestoration_2Restoration_2&#45;&gt;Runway_runwayStateMachineClosedRestorationRestoration_2Restoration_2_Maintenance -->
<g id="edge18" class="edge">
<title>start_Runway_runwayStateMachineClosedRestorationRestoration_2Restoration_2&#45;&gt;Runway_runwayStateMachineClosedRestorationRestoration_2Restoration_2_Maintenance</title>
<g id="a_edge18"><a xlink:title="start to Closed.Restoration_2.Restoration_2.Maintenance">
<path fill="none" stroke="black" d="M684.2,-282.87C684.2,-273.91 684.2,-256.95 684.2,-242.23"/>
<polygon fill="black" stroke="black" points="687.7,-242.05 684.2,-232.05 680.7,-242.05 687.7,-242.05"/>
</a>
</g>
</g>
</g>
</svg>
