<?xml version="1.0" encoding="UTF-8" standalone="no"?>
<!DOCTYPE svg PUBLIC "-//W3C//DTD SVG 1.1//EN"
 "http://www.w3.org/Graphics/SVG/1.1/DTD/svg11.dtd">
<!-- Generated by graphviz version 2.44.1 (20200629.0846)
 -->
<!-- Title: Runway Pages: 1 -->
<svg width="1091pt" height="429pt"
 viewBox="0.00 0.00 1091.27 429.40" xmlns="http://www.w3.org/2000/svg" xmlns:xlink="http://www.w3.org/1999/xlink">
<g id="graph0" class="graph" transform="scale(1 1) rotate(0) translate(4 425.4)">
<title>Runway</title>
<polygon fill="white" stroke="transparent" points="-4,4 -4,-425.4 1087.27,-425.4 1087.27,4 -4,4"/>
<g id="clust1" class="cluster">
<title>clusterRunway_runwayStateMachine_Open</title>
<path fill="none" stroke="black" d="M41.27,-101C41.27,-101 457.27,-101 457.27,-101 463.27,-101 469.27,-107 469.27,-113 469.27,-113 469.27,-339.4 469.27,-339.4 469.27,-345.4 463.27,-351.4 457.27,-351.4 457.27,-351.4 41.27,-351.4 41.27,-351.4 35.27,-351.4 29.27,-345.4 29.27,-339.4 29.27,-339.4 29.27,-113 29.27,-113 29.27,-107 35.27,-101 41.27,-101"/>
<text text-anchor="middle" x="249.27" y="-336.2" font-family="Times,serif" font-size="14.00">Open</text>
</g>
<g id="clust2" class="cluster">
<title>clusterRunway_runwayStateMachine_Closed</title>
<path fill="none" stroke="black" d="M489.27,-8C489.27,-8 1063.27,-8 1063.27,-8 1069.27,-8 1075.27,-14 1075.27,-20 1075.27,-20 1075.27,-401.4 1075.27,-401.4 1075.27,-407.4 1069.27,-413.4 1063.27,-413.4 1063.27,-413.4 489.27,-413.4 489.27,-413.4 483.27,-413.4 477.27,-407.4 477.27,-401.4 477.27,-401.4 477.27,-20 477.27,-20 477.27,-14 483.27,-8 489.27,-8"/>
<text text-anchor="middle" x="776.27" y="-398.2" font-family="Times,serif" font-size="14.00">Closed</text>
</g>
<g id="clust3" class="cluster">
<title>clusterRunway_runwayStateMachineClosed_Restoration</title>
<path fill="none" stroke="black" d="M585.27,-93C585.27,-93 1055.27,-93 1055.27,-93 1061.27,-93 1067.27,-99 1067.27,-105 1067.27,-105 1067.27,-370.4 1067.27,-370.4 1067.27,-376.4 1061.27,-382.4 1055.27,-382.4 1055.27,-382.4 585.27,-382.4 585.27,-382.4 579.27,-382.4 573.27,-376.4 573.27,-370.4 573.27,-370.4 573.27,-105 573.27,-105 573.27,-99 579.27,-93 585.27,-93"/>
<text text-anchor="middle" x="820.27" y="-367.2" font-family="Times,serif" font-size="14.00">Restoration</text>
</g>
<g id="clust4" class="cluster">
<title>clusterRunway_runwayStateMachineClosedRestorationRestoration_1_Restoration_1</title>
<path fill="none" stroke="black" d="M774.27,-101C774.27,-101 1047.27,-101 1047.27,-101 1053.27,-101 1059.27,-107 1059.27,-113 1059.27,-113 1059.27,-339.4 1059.27,-339.4 1059.27,-345.4 1053.27,-351.4 1047.27,-351.4 1047.27,-351.4 774.27,-351.4 774.27,-351.4 768.27,-351.4 762.27,-345.4 762.27,-339.4 762.27,-339.4 762.27,-113 762.27,-113 762.27,-107 768.27,-101 774.27,-101"/>
<text text-anchor="middle" x="910.77" y="-336.2" font-family="Times,serif" font-size="14.00">Restoration_1</text>
</g>
<g id="clust5" class="cluster">
<title>clusterRunway_runwayStateMachineClosedRestorationRestoration_2_Restoration_2</title>
<path fill="none" stroke="black" d="M640.27,-188C640.27,-188 720.27,-188 720.27,-188 726.27,-188 732.27,-194 732.27,-200 732.27,-200 732.27,-339.4 732.27,-339.4 732.27,-345.4 726.27,-351.4 720.27,-351.4 720.27,-351.4 640.27,-351.4 640.27,-351.4 634.27,-351.4 628.27,-345.4 628.27,-339.4 628.27,-339.4 628.27,-200 628.27,-200 628.27,-194 634.27,-188 640.27,-188"/>
<text text-anchor="middle" x="680.27" y="-336.2" font-family="Times,serif" font-size="14.00">Restoration_2</text>
</g>
<!-- start_Runway_runwayStateMachine -->
<g id="node1" class="node">
<title>start_Runway_runwayStateMachine</title>
<g id="a_node1"><a xlink:title="Class Runway, SM runwayStateMachine, State start">
<ellipse fill="black" stroke="black" cx="14.27" cy="-290.2" rx="7.2" ry="7.2"/>
</a>
</g>
</g>
<!-- Runway_runwayStateMachineOpen_Free -->
<g id="node3" class="node">
<title>Runway_runwayStateMachineOpen_Free</title>
<g id="a_node3"><a xlink:title="Class Runway, SM runwayStateMachine, State Open.Free&#13;Entry:&#10; &#160;&#160;turnOnGreenLight();&#13;Exit:&#10; &#160;&#160;turnOffGreenLight();">
<path fill="none" stroke="black" d="M287.27,-232C287.27,-232 239.27,-232 239.27,-232 233.27,-232 227.27,-226 227.27,-220 227.27,-220 227.27,-208 227.27,-208 227.27,-202 233.27,-196 239.27,-196 239.27,-196 287.27,-196 287.27,-196 293.27,-196 299.27,-202 299.27,-208 299.27,-208 299.27,-220 299.27,-220 299.27,-226 293.27,-232 287.27,-232"/>
<text text-anchor="middle" x="263.27" y="-210.3" font-family="Times,serif" font-size="14.00">Free</text>
</a>
</g>
</g>
<!-- start_Runway_runwayStateMachine&#45;&gt;Runway_runwayStateMachineOpen_Free -->
<g id="edge1" class="edge">
<title>start_Runway_runwayStateMachine&#45;&gt;Runway_runwayStateMachineOpen_Free</title>
<g id="a_edge1"><a xlink:title="start to Open">
<path fill="none" stroke="black" d="M19.96,-285.66C20.07,-285.6 20.17,-285.54 20.28,-285.48"/>
<polygon fill="black" stroke="black" points="21.65,-288.7 29.27,-281.34 18.73,-282.34 21.65,-288.7"/>
</a>
</g>
</g>
<!-- start_Runway_runwayStateMachineOpen -->
<g id="node2" class="node">
<title>start_Runway_runwayStateMachineOpen</title>
<g id="a_node2"><a xlink:title="Class Runway, SM runwayStateMachine, State Open.start">
<ellipse fill="black" stroke="black" cx="263.27" cy="-290.2" rx="7.2" ry="7.2"/>
</a>
</g>
</g>
<!-- start_Runway_runwayStateMachineOpen&#45;&gt;Runway_runwayStateMachineOpen_Free -->
<g id="edge3" class="edge">
<title>start_Runway_runwayStateMachineOpen&#45;&gt;Runway_runwayStateMachineOpen_Free</title>
<g id="a_edge3"><a xlink:title="start to Open.Free">
<path fill="none" stroke="black" d="M263.27,-282.87C263.27,-273.91 263.27,-256.95 263.27,-242.23"/>
<polygon fill="black" stroke="black" points="266.77,-242.05 263.27,-232.05 259.77,-242.05 266.77,-242.05"/>
</a>
</g>
</g>
<!-- Runway_runwayStateMachineOpen_Occupied -->
<g id="node4" class="node">
<title>Runway_runwayStateMachineOpen_Occupied</title>
<g id="a_node4"><a xlink:title="Class Runway, SM runwayStateMachine, State Open.Occupied">
<path fill="none" stroke="black" d="M266.27,-145C266.27,-145 218.27,-145 218.27,-145 212.27,-145 206.27,-139 206.27,-133 206.27,-133 206.27,-121 206.27,-121 206.27,-115 212.27,-109 218.27,-109 218.27,-109 266.27,-109 266.27,-109 272.27,-109 278.27,-115 278.27,-121 278.27,-121 278.27,-133 278.27,-133 278.27,-139 272.27,-145 266.27,-145"/>
<text text-anchor="middle" x="242.27" y="-123.3" font-family="Times,serif" font-size="14.00">Occupied</text>
</a>
</g>
</g>
<!-- Runway_runwayStateMachineOpen_Free&#45;&gt;Runway_runwayStateMachineOpen_Occupied -->
<g id="edge6" class="edge">
<title>Runway_runwayStateMachineOpen_Free&#45;&gt;Runway_runwayStateMachineOpen_Occupied</title>
<g id="a_edge6"><a xlink:title="From Open.Free to Open.Occupied on planeLanding">
<path fill="none" stroke="black" d="M227.19,-212.28C173.8,-210.37 77.74,-203.4 56.27,-178 3.71,-115.81 -76.67,-194.01 171.27,-145 179.31,-143.41 187.83,-141.54 196.06,-139.63"/>
<polygon fill="black" stroke="black" points="196.98,-143.01 205.91,-137.3 195.37,-136.19 196.98,-143.01"/>
</a>
</g>
<text text-anchor="middle" x="93.77" y="-166.8" font-family="Times,serif" font-size="14.00">planeLanding</text>
</g>
<!-- Runway_runwayStateMachineOpen_Free&#45;&gt;Runway_runwayStateMachineOpen_Occupied -->
<g id="edge7" class="edge">
<title>Runway_runwayStateMachineOpen_Free&#45;&gt;Runway_runwayStateMachineOpen_Occupied</title>
<g id="a_edge7"><a xlink:title="From Open.Free to Open.Occupied on planeTakingOff">
<path fill="none" stroke="black" d="M227.21,-211.01C203.98,-207.64 175.39,-199.11 160.27,-178 147.05,-159.55 171.07,-146.59 196.47,-138.49"/>
<polygon fill="black" stroke="black" points="197.59,-141.81 206.19,-135.62 195.61,-135.09 197.59,-141.81"/>
</a>
</g>
<text text-anchor="middle" x="203.77" y="-166.8" font-family="Times,serif" font-size="14.00">planeTakingOff</text>
</g>
<!-- Runway_runwayStateMachineClosed_Emergency -->
<g id="node6" class="node">
<title>Runway_runwayStateMachineClosed_Emergency</title>
<g id="a_node6"><a xlink:title="Class Runway, SM runwayStateMachine, State Closed.Emergency">
<path fill="none" stroke="black" d="M552.77,-145C552.77,-145 497.77,-145 497.77,-145 491.77,-145 485.77,-139 485.77,-133 485.77,-133 485.77,-121 485.77,-121 485.77,-115 491.77,-109 497.77,-109 497.77,-109 552.77,-109 552.77,-109 558.77,-109 564.77,-115 564.77,-121 564.77,-121 564.77,-133 564.77,-133 564.77,-139 558.77,-145 552.77,-145"/>
<text text-anchor="middle" x="525.27" y="-123.3" font-family="Times,serif" font-size="14.00">Emergency</text>
</a>
</g>
</g>
<!-- Runway_runwayStateMachineOpen_Free&#45;&gt;Runway_runwayStateMachineClosed_Emergency -->
<g id="edge9" class="edge">
<title>Runway_runwayStateMachineOpen_Free&#45;&gt;Runway_runwayStateMachineClosed_Emergency</title>
<g id="a_edge9"><a xlink:title="From Open to Closed.Emergency on alarm">
<path fill="none" stroke="black" d="M469.27,-164.07C477.35,-159.72 485.1,-155.13 492.12,-150.74"/>
<polygon fill="black" stroke="black" points="494.25,-153.53 500.78,-145.18 490.47,-147.63 494.25,-153.53"/>
</a>
</g>
<text text-anchor="middle" x="484.27" y="-166.8" font-family="Times,serif" font-size="14.00">alarm</text>
</g>
<!-- Runway_runwayStateMachineClosedRestorationRestoration_1Restoration_1_Repair -->
<g id="node10" class="node">
<title>Runway_runwayStateMachineClosedRestorationRestoration_1Restoration_1_Repair</title>
<g id="a_node10"><a xlink:title="Class Runway, SM runwayStateMachine, State Closed.Restoration_1.Restoration_1.Repair">
<path fill="none" stroke="black" d="M830.27,-232C830.27,-232 782.27,-232 782.27,-232 776.27,-232 770.27,-226 770.27,-220 770.27,-220 770.27,-208 770.27,-208 770.27,-202 776.27,-196 782.27,-196 782.27,-196 830.27,-196 830.27,-196 836.27,-196 842.27,-202 842.27,-208 842.27,-208 842.27,-220 842.27,-220 842.27,-226 836.27,-232 830.27,-232"/>
<text text-anchor="middle" x="806.27" y="-210.3" font-family="Times,serif" font-size="14.00">Repair</text>
</a>
</g>
</g>
<!-- Runway_runwayStateMachineOpen_Free&#45;&gt;Runway_runwayStateMachineClosedRestorationRestoration_1Restoration_1_Repair -->
<g id="edge12" class="edge">
<title>Runway_runwayStateMachineOpen_Free&#45;&gt;Runway_runwayStateMachineClosedRestorationRestoration_1Restoration_1_Repair</title>
<g id="a_edge12"><a xlink:title="From Open.Free to Closed.Restoration on repair">
<path fill="none" stroke="black" d="M299.47,-224.6C353.69,-239.36 460.57,-264.22 563.05,-263.43"/>
<polygon fill="black" stroke="black" points="563.33,-266.93 573.27,-263.27 563.22,-259.93 563.33,-266.93"/>
</a>
</g>
<text text-anchor="middle" x="604.27" y="-253.8" font-family="Times,serif" font-size="14.00">repair</text>
</g>
<!-- Runway_runwayStateMachineOpen_Occupied&#45;&gt;Runway_runwayStateMachineOpen_Free -->
<g id="edge4" class="edge">
<title>Runway_runwayStateMachineOpen_Occupied&#45;&gt;Runway_runwayStateMachineOpen_Free</title>
<g id="a_edge4"><a xlink:title="From Open.Occupied to Open.Free on planeTakesOff">
<path fill="none" stroke="black" d="M246.51,-145.18C249.39,-156.81 253.24,-172.42 256.53,-185.73"/>
<polygon fill="black" stroke="black" points="253.22,-186.93 259.02,-195.8 260.02,-185.25 253.22,-186.93"/>
</a>
</g>
<text text-anchor="middle" x="293.77" y="-166.8" font-family="Times,serif" font-size="14.00">planeTakesOff</text>
</g>
<!-- Runway_runwayStateMachineOpen_Occupied&#45;&gt;Runway_runwayStateMachineOpen_Free -->
<g id="edge5" class="edge">
<title>Runway_runwayStateMachineOpen_Occupied&#45;&gt;Runway_runwayStateMachineOpen_Free</title>
<g id="a_edge5"><a xlink:title="From Open.Occupied to Open.Free on landingComplete">
<path fill="none" stroke="black" d="M278.57,-131.18C299.74,-135.11 324.84,-143.81 338.27,-163 349.85,-179.55 330.69,-192.12 308.84,-200.52"/>
<polygon fill="black" stroke="black" points="307.66,-197.22 299.4,-203.86 309.99,-203.82 307.66,-197.22"/>
</a>
</g>
<text text-anchor="middle" x="388.27" y="-166.8" font-family="Times,serif" font-size="14.00">landingComplete</text>
</g>
<!-- start_Runway_runwayStateMachineClosed -->
<g id="node5" class="node">
<title>start_Runway_runwayStateMachineClosed</title>
<g id="a_node5"><a xlink:title="Class Runway, SM runwayStateMachine, State Closed.start">
<ellipse fill="black" stroke="black" cx="525.27" cy="-214" rx="7.2" ry="7.2"/>
</a>
</g>
</g>
<!-- start_Runway_runwayStateMachineClosed&#45;&gt;Runway_runwayStateMachineClosed_Emergency -->
<g id="edge8" class="edge">
<title>start_Runway_runwayStateMachineClosed&#45;&gt;Runway_runwayStateMachineClosed_Emergency</title>
<g id="a_edge8"><a xlink:title="start to Closed.Emergency">
<path fill="none" stroke="black" d="M525.27,-206.61C525.27,-195.83 525.27,-173.43 525.27,-155.29"/>
<polygon fill="black" stroke="black" points="528.77,-155.22 525.27,-145.22 521.77,-155.22 528.77,-155.22"/>
</a>
</g>
</g>
<!-- Runway_runwayStateMachineClosed_ReadyToOpen -->
<g id="node7" class="node">
<title>Runway_runwayStateMachineClosed_ReadyToOpen</title>
<g id="a_node7"><a xlink:title="Class Runway, SM runwayStateMachine, State Closed.ReadyToOpen">
<path fill="none" stroke="black" d="M568.77,-52C568.77,-52 497.77,-52 497.77,-52 491.77,-52 485.77,-46 485.77,-40 485.77,-40 485.77,-28 485.77,-28 485.77,-22 491.77,-16 497.77,-16 497.77,-16 568.77,-16 568.77,-16 574.77,-16 580.77,-22 580.77,-28 580.77,-28 580.77,-40 580.77,-40 580.77,-46 574.77,-52 568.77,-52"/>
<text text-anchor="middle" x="533.27" y="-30.3" font-family="Times,serif" font-size="14.00">ReadyToOpen</text>
</a>
</g>
</g>
<!-- Runway_runwayStateMachineClosed_Emergency&#45;&gt;Runway_runwayStateMachineClosed_ReadyToOpen -->
<g id="edge10" class="edge">
<title>Runway_runwayStateMachineClosed_Emergency&#45;&gt;Runway_runwayStateMachineClosed_ReadyToOpen</title>
<g id="a_edge10"><a xlink:title="From Closed.Emergency to Closed.ReadyToOpen on emergencyOver">
<path fill="none" stroke="black" d="M526.78,-108.88C527.93,-95.79 529.54,-77.48 530.86,-62.36"/>
<polygon fill="black" stroke="black" points="534.38,-62.31 531.77,-52.04 527.41,-61.69 534.38,-62.31"/>
</a>
</g>
<text text-anchor="middle" x="573.27" y="-73.8" font-family="Times,serif" font-size="14.00">emergencyOver</text>
</g>
<!-- Runway_runwayStateMachineClosed_ReadyToOpen&#45;&gt;Runway_runwayStateMachineOpen_Free -->
<g id="edge2" class="edge">
<title>Runway_runwayStateMachineClosed_ReadyToOpen&#45;&gt;Runway_runwayStateMachineOpen_Free</title>
<g id="a_edge2"><a xlink:title="From Closed.ReadyToOpen to Open on open&#13;Guard: &#160;[noPlaneOnRunway]">
<path fill="none" stroke="black" d="M485.74,-37.65C370.66,-44.51 84.15,-64.3 52.27,-93 51.88,-93.35 51.5,-93.69 51.12,-94.04"/>
<polygon fill="black" stroke="black" points="48.6,-91.61 43.7,-101 53.39,-96.71 48.6,-91.61"/>
</a>
</g>
<text text-anchor="middle" x="124.77" y="-123.3" font-family="Times,serif" font-size="14.00">open [noPlaneOnRunway]</text>
</g>
<!-- start_Runway_runwayStateMachineClosedRestorationRestoration_1 -->
<g id="node8" class="node">
<title>start_Runway_runwayStateMachineClosedRestorationRestoration_1</title>
<g id="a_node8"><a xlink:title="Class Runway, SM runwayStateMachine, State Closed.Restoration_1.start">
<ellipse fill="black" stroke="black" cx="747.27" cy="-290.2" rx="7.2" ry="7.2"/>
</a>
</g>
</g>
<!-- start_Runway_runwayStateMachineClosedRestorationRestoration_1&#45;&gt;Runway_runwayStateMachineClosedRestorationRestoration_1Restoration_1_Repair -->
<g id="edge13" class="edge">
<title>start_Runway_runwayStateMachineClosedRestorationRestoration_1&#45;&gt;Runway_runwayStateMachineClosedRestorationRestoration_1Restoration_1_Repair</title>
<g id="a_edge13"><a xlink:title="start to Closed.Restoration_1.Restoration_1">
<path fill="none" stroke="black" d="M751.51,-283.86C752.77,-282.28 754.26,-280.41 755.94,-278.29"/>
<polygon fill="black" stroke="black" points="758.79,-280.34 762.27,-270.33 753.31,-275.98 758.79,-280.34"/>
</a>
</g>
</g>
<!-- start_Runway_runwayStateMachineClosedRestorationRestoration_1Restoration_1 -->
<g id="node9" class="node">
<title>start_Runway_runwayStateMachineClosedRestorationRestoration_1Restoration_1</title>
<g id="a_node9"><a xlink:title="Class Runway, SM runwayStateMachine, State Closed.Restoration_1.Restoration_1.start">
<ellipse fill="black" stroke="black" cx="806.27" cy="-290.2" rx="7.2" ry="7.2"/>
</a>
</g>
</g>
<!-- start_Runway_runwayStateMachineClosedRestorationRestoration_1Restoration_1&#45;&gt;Runway_runwayStateMachineClosedRestorationRestoration_1Restoration_1_Repair -->
<g id="edge14" class="edge">
<title>start_Runway_runwayStateMachineClosedRestorationRestoration_1Restoration_1&#45;&gt;Runway_runwayStateMachineClosedRestorationRestoration_1Restoration_1_Repair</title>
<g id="a_edge14"><a xlink:title="start to Closed.Restoration_1.Restoration_1.Repair">
<path fill="none" stroke="black" d="M806.27,-282.87C806.27,-273.91 806.27,-256.95 806.27,-242.23"/>
<polygon fill="black" stroke="black" points="809.77,-242.05 806.27,-232.05 802.77,-242.05 809.77,-242.05"/>
</a>
</g>
</g>
<!-- Runway_runwayStateMachineClosedRestorationRestoration_1Restoration_1_InspectRepairs -->
<g id="node11" class="node">
<title>Runway_runwayStateMachineClosedRestorationRestoration_1Restoration_1_InspectRepairs</title>
<g id="a_node11"><a xlink:title="Class Runway, SM runwayStateMachine, State Closed.Restoration_1.Restoration_1.InspectRepairs">
<path fill="none" stroke="black" d="M855.77,-145C855.77,-145 782.77,-145 782.77,-145 776.77,-145 770.77,-139 770.77,-133 770.77,-133 770.77,-121 770.77,-121 770.77,-115 776.77,-109 782.77,-109 782.77,-109 855.77,-109 855.77,-109 861.77,-109 867.77,-115 867.77,-121 867.77,-121 867.77,-133 867.77,-133 867.77,-139 861.77,-145 855.77,-145"/>
<text text-anchor="middle" x="819.27" y="-123.3" font-family="Times,serif" font-size="14.00">InspectRepairs</text>
</a>
</g>
</g>
<!-- Runway_runwayStateMachineClosedRestorationRestoration_1Restoration_1_Repair&#45;&gt;Runway_runwayStateMachineClosedRestorationRestoration_1Restoration_1_InspectRepairs -->
<g id="edge16" class="edge">
<title>Runway_runwayStateMachineClosedRestorationRestoration_1Restoration_1_Repair&#45;&gt;Runway_runwayStateMachineClosedRestorationRestoration_1Restoration_1_InspectRepairs</title>
<g id="a_edge16"><a xlink:title="From Closed.Restoration_1.Restoration_1.Repair to Closed.Restoration_1.Restoration_1.InspectRepairs on repairCompleted">
<path fill="none" stroke="black" d="M792.07,-195.92C785.83,-186.28 780.81,-173.99 785.27,-163 786.69,-159.5 788.65,-156.15 790.92,-153.02"/>
<polygon fill="black" stroke="black" points="793.7,-155.14 797.47,-145.24 788.35,-150.63 793.7,-155.14"/>
</a>
</g>
<text text-anchor="middle" x="831.27" y="-166.8" font-family="Times,serif" font-size="14.00">repairCompleted</text>
</g>
<!-- Runway_runwayStateMachineClosedRestorationRestoration_1Restoration_1_InspectRepairs&#45;&gt;Runway_runwayStateMachineClosed_ReadyToOpen -->
<g id="edge11" class="edge">
<title>Runway_runwayStateMachineClosedRestorationRestoration_1Restoration_1_InspectRepairs&#45;&gt;Runway_runwayStateMachineClosed_ReadyToOpen</title>
<g id="a_edge11"><a xlink:title="From Closed.Restoration_1.Restoration_1.InspectRepairs to Closed.ReadyToOpen on check&#13;Guard: &#160;[inspectionSuccess]">
<path fill="none" stroke="black" d="M795.83,-108.86C787.19,-103.16 777.1,-97.21 767.27,-93 709.61,-68.33 639.28,-52.67 590.87,-43.92"/>
<polygon fill="black" stroke="black" points="591.34,-40.45 580.88,-42.16 590.12,-47.35 591.34,-40.45"/>
</a>
</g>
<text text-anchor="middle" x="813.77" y="-73.8" font-family="Times,serif" font-size="14.00">check [inspectionSuccess]</text>
</g>
<!-- Runway_runwayStateMachineClosedRestorationRestoration_1Restoration_1_InspectRepairs&#45;&gt;Runway_runwayStateMachineClosedRestorationRestoration_1Restoration_1_Repair -->
<g id="edge15" class="edge">
<title>Runway_runwayStateMachineClosedRestorationRestoration_1Restoration_1_InspectRepairs&#45;&gt;Runway_runwayStateMachineClosedRestorationRestoration_1Restoration_1_Repair</title>
<g id="a_edge15"><a xlink:title="From Closed.Restoration_1.Restoration_1.InspectRepairs to Closed.Restoration_1.Restoration_1.Repair on check&#13;Guard: &#160;[!inspectionSuccess]">
<path fill="none" stroke="black" d="M863.55,-145.04C878.57,-153.53 889.66,-164.82 881.27,-178 874.45,-188.71 863.4,-196.2 851.85,-201.41"/>
<polygon fill="black" stroke="black" points="850.55,-198.16 842.56,-205.12 853.14,-204.66 850.55,-198.16"/>
</a>
</g>
<text text-anchor="middle" x="957.27" y="-166.8" font-family="Times,serif" font-size="14.00">check [!inspectionSuccess]</text>
</g>
<!-- start_Runway_runwayStateMachineClosedRestorationRestoration_2 -->
<g id="node12" class="node">
<title>start_Runway_runwayStateMachineClosedRestorationRestoration_2</title>
<g id="a_node12"><a xlink:title="Class Runway, SM runwayStateMachine, State Closed.Restoration_2.start">
<ellipse fill="black" stroke="black" cx="588.27" cy="-290.2" rx="7.2" ry="7.2"/>
</a>
</g>
</g>
<!-- Runway_runwayStateMachineClosedRestorationRestoration_2Restoration_2_Maintenance -->
<g id="node14" class="node">
<title>Runway_runwayStateMachineClosedRestorationRestoration_2Restoration_2_Maintenance</title>
<g id="a_node14"><a xlink:title="Class Runway, SM runwayStateMachine, State Closed.Restoration_2.Restoration_2.Maintenance&#13;Activity:&#10; &#160;&#160;performMaintenanceWork();">
<path fill="none" stroke="black" d="M711.77,-232C711.77,-232 648.77,-232 648.77,-232 642.77,-232 636.77,-226 636.77,-220 636.77,-220 636.77,-208 636.77,-208 636.77,-202 642.77,-196 648.77,-196 648.77,-196 711.77,-196 711.77,-196 717.77,-196 723.77,-202 723.77,-208 723.77,-208 723.77,-220 723.77,-220 723.77,-226 717.77,-232 711.77,-232"/>
<text text-anchor="middle" x="680.27" y="-210.3" font-family="Times,serif" font-size="14.00">Maintenance</text>
</a>
</g>
</g>
<!-- start_Runway_runwayStateMachineClosedRestorationRestoration_2&#45;&gt;Runway_runwayStateMachineClosedRestorationRestoration_2Restoration_2_Maintenance -->
<g id="edge17" class="edge">
<title>start_Runway_runwayStateMachineClosedRestorationRestoration_2&#45;&gt;Runway_runwayStateMachineClosedRestorationRestoration_2Restoration_2_Maintenance</title>
<g id="a_edge17"><a xlink:title="start to Closed.Restoration_2.Restoration_2">
<path fill="none" stroke="black" d="M586.13,-283.28C583.55,-275.02 580.37,-259.96 587.27,-250 587.97,-248.99 606.64,-241.88 627.07,-234.33"/>
<polygon fill="black" stroke="black" points="620.27,-240.8 628.27,-233.86 617.68,-234.3 620.27,-240.8"/>
</a>
</g>
</g>
<!-- start_Runway_runwayStateMachineClosedRestorationRestoration_2Restoration_2 -->
<g id="node13" class="node">
<title>start_Runway_runwayStateMachineClosedRestorationRestoration_2Restoration_2</title>
<g id="a_node13"><a xlink:title="Class Runway, SM runwayStateMachine, State Closed.Restoration_2.Restoration_2.start">
<ellipse fill="black" stroke="black" cx="680.27" cy="-290.2" rx="7.2" ry="7.2"/>
</a>
</g>
</g>
<!-- start_Runway_runwayStateMachineClosedRestorationRestoration_2Restoration_2&#45;&gt;Runway_runwayStateMachineClosedRestorationRestoration_2Restoration_2_Maintenance -->
<g id="edge18" class="edge">
<title>start_Runway_runwayStateMachineClosedRestorationRestoration_2Restoration_2&#45;&gt;Runway_runwayStateMachineClosedRestorationRestoration_2Restoration_2_Maintenance</title>
<g id="a_edge18"><a xlink:title="start to Closed.Restoration_2.Restoration_2.Maintenance">
<path fill="none" stroke="black" d="M680.27,-282.87C680.27,-273.91 680.27,-256.95 680.27,-242.23"/>
<polygon fill="black" stroke="black" points="683.77,-242.05 680.27,-232.05 676.77,-242.05 683.77,-242.05"/>
</a>
</g>
</g>
</g>
</svg>
