<?xml version="1.0" encoding="UTF-8" standalone="no"?>
<!DOCTYPE svg PUBLIC "-//W3C//DTD SVG 1.1//EN"
 "http://www.w3.org/Graphics/SVG/1.1/DTD/svg11.dtd">
<!-- Generated by graphviz version 2.40.1 (20161225.0304)
 -->
<!-- Title: SecurityLight Pages: 1 -->
<svg width="678pt" height="470pt"
 viewBox="0.00 0.00 677.93 470.40" xmlns="http://www.w3.org/2000/svg" xmlns:xlink="http://www.w3.org/1999/xlink">
<g id="graph0" class="graph" transform="scale(1 1) rotate(0) translate(4 466.4)">
<title>SecurityLight</title>
<polygon fill="#ffffff" stroke="transparent" points="-4,4 -4,-466.4 673.9344,-466.4 673.9344,4 -4,4"/>
<g id="clust1" class="cluster">
<title>clusterExternalSecurityLight_externalSecurityLightStateMachine_night</title>
<path fill="none" stroke="#000000" d="M212.2,-8C212.2,-8 553.2,-8 553.2,-8 559.2,-8 565.2,-14 565.2,-20 565.2,-20 565.2,-442.4 565.2,-442.4 565.2,-448.4 559.2,-454.4 553.2,-454.4 553.2,-454.4 212.2,-454.4 212.2,-454.4 206.2,-454.4 200.2,-448.4 200.2,-442.4 200.2,-442.4 200.2,-20 200.2,-20 200.2,-14 206.2,-8 212.2,-8"/>
<text text-anchor="middle" x="382.7" y="-439.2" font-family="Times,serif" font-size="14.00" fill="#000000">night</text>
</g>
<!-- start_ExternalSecurityLight_externalSecurityLightStateMachine -->
<g id="node1" class="node">
<title>start_ExternalSecurityLight_externalSecurityLightStateMachine</title>
<g id="a_node1"><a xlink:title="Class ExternalSecurityLight, SM externalSecurityLightStateMachine, State start">
<ellipse fill="#000000" stroke="#000000" cx="7.2" cy="-317" rx="7.2" ry="7.2"/>
</a>
</g>
</g>
<!-- ExternalSecurityLight_externalSecurityLightStateMachine_day -->
<g id="node2" class="node">
<title>ExternalSecurityLight_externalSecurityLightStateMachine_day</title>
<g id="a_node2"><a xlink:title="Class ExternalSecurityLight, SM externalSecurityLightStateMachine, State day">
<path fill="none" stroke="#000000" d="M64.2,-249C64.2,-249 16.2,-249 16.2,-249 10.2,-249 4.2,-243 4.2,-237 4.2,-237 4.2,-225 4.2,-225 4.2,-219 10.2,-213 16.2,-213 16.2,-213 64.2,-213 64.2,-213 70.2,-213 76.2,-219 76.2,-225 76.2,-225 76.2,-237 76.2,-237 76.2,-243 70.2,-249 64.2,-249"/>
<text text-anchor="middle" x="40.2" y="-226.8" font-family="Times,serif" font-size="14.00" fill="#000000">day</text>
</a>
</g>
</g>
<!-- start_ExternalSecurityLight_externalSecurityLightStateMachine&#45;&gt;ExternalSecurityLight_externalSecurityLightStateMachine_day -->
<g id="edge1" class="edge">
<title>start_ExternalSecurityLight_externalSecurityLightStateMachine&#45;&gt;ExternalSecurityLight_externalSecurityLightStateMachine_day</title>
<g id="a_edge1"><a xlink:title="start to day">
<path fill="none" stroke="#000000" d="M8.726,-309.721C10.9111,-299.8438 15.3253,-281.7376 21.2,-267 22.3408,-264.1382 23.644,-261.2071 25.0212,-258.3134"/>
<polygon fill="#000000" stroke="#000000" points="28.1759,-259.8308 29.5646,-249.3274 21.929,-256.6723 28.1759,-259.8308"/>
</a>
</g>
</g>
<!-- ExternalSecurityLight_externalSecurityLightStateMachineNight_off -->
<g id="node4" class="node">
<title>ExternalSecurityLight_externalSecurityLightStateMachineNight_off</title>
<g id="a_node4"><a xlink:title="Class ExternalSecurityLight, SM externalSecurityLightStateMachine, State night.off">
<path fill="none" stroke="#000000" d="M268.2,-335C268.2,-335 220.2,-335 220.2,-335 214.2,-335 208.2,-329 208.2,-323 208.2,-323 208.2,-311 208.2,-311 208.2,-305 214.2,-299 220.2,-299 220.2,-299 268.2,-299 268.2,-299 274.2,-299 280.2,-305 280.2,-311 280.2,-311 280.2,-323 280.2,-323 280.2,-329 274.2,-335 268.2,-335"/>
<text text-anchor="middle" x="244.2" y="-312.8" font-family="Times,serif" font-size="14.00" fill="#000000">off</text>
</a>
</g>
</g>
<!-- ExternalSecurityLight_externalSecurityLightStateMachine_day&#45;&gt;ExternalSecurityLight_externalSecurityLightStateMachineNight_off -->
<g id="edge4" class="edge">
<title>ExternalSecurityLight_externalSecurityLightStateMachine_day&#45;&gt;ExternalSecurityLight_externalSecurityLightStateMachineNight_off</title>
<g id="a_edge4"><a xlink:title="From day to night.off on dark&#13;Transition Action:&#10; &#160;&#160;&#160;&#160;setAmbientLight(false);">
<path fill="none" stroke="#000000" d="M33.5933,-249.128C31.0328,-259.5919 30.2215,-272.3504 37.4949,-281 57.5921,-304.8999 143.4844,-312.9342 198.028,-315.6342"/>
<polygon fill="#000000" stroke="#000000" points="198.0092,-319.1369 208.1572,-316.0926 198.3257,-312.144 198.0092,-319.1369"/>
</a>
</g>
<text text-anchor="middle" x="68.0525" y="-269.8" font-family="Times,serif" font-size="14.00" fill="#000000">dark / {...}</text>
</g>
<!-- start_ExternalSecurityLight_night -->
<g id="node3" class="node">
<title>start_ExternalSecurityLight_night</title>
<g id="a_node3"><a xlink:title="Class ExternalSecurityLight, SM externalSecurityLightStateMachine, State night.start">
<ellipse fill="#000000" stroke="#000000" cx="244.2" cy="-417.2" rx="7.2" ry="7.2"/>
</a>
</g>
</g>
<!-- start_ExternalSecurityLight_night&#45;&gt;ExternalSecurityLight_externalSecurityLightStateMachineNight_off -->
<g id="edge3" class="edge">
<title>start_ExternalSecurityLight_night&#45;&gt;ExternalSecurityLight_externalSecurityLightStateMachineNight_off</title>
<g id="a_edge3"><a xlink:title="start to night.off">
<path fill="none" stroke="#000000" d="M244.2,-409.9939C244.2,-396.6512 244.2,-367.442 244.2,-345.2953"/>
<polygon fill="#000000" stroke="#000000" points="247.7001,-345.091 244.2,-335.0911 240.7001,-345.0911 247.7001,-345.091"/>
</a>
</g>
</g>
<!-- ExternalSecurityLight_externalSecurityLightStateMachineNight_off&#45;&gt;ExternalSecurityLight_externalSecurityLightStateMachine_day -->
<g id="edge2" class="edge">
<title>ExternalSecurityLight_externalSecurityLightStateMachineNight_off&#45;&gt;ExternalSecurityLight_externalSecurityLightStateMachine_day</title>
<g id="a_edge2"><a xlink:title="From night to day on light&#13;Transition Action:&#10; &#160;&#160;&#160;&#160;lampOff();">
<path fill="none" stroke="#000000" d="M200.2031,-306.6736C177.0848,-300.5362 148.5767,-291.8285 124.2459,-281 113.2968,-276.1271 111.4821,-273.1568 101.2,-267 94.3011,-262.869 86.9467,-258.4996 79.8195,-254.283"/>
<polygon fill="#000000" stroke="#000000" points="81.355,-251.1251 70.9647,-249.0533 77.7952,-257.1523 81.355,-251.1251"/>
</a>
</g>
<text text-anchor="middle" x="173.6771" y="-269.8" font-family="Times,serif" font-size="14.00" fill="#000000">light / lampOff();</text>
</g>
<!-- ExternalSecurityLight_externalSecurityLightStateMachineNight_moving -->
<g id="node5" class="node">
<title>ExternalSecurityLight_externalSecurityLightStateMachineNight_moving</title>
<g id="a_node5"><a xlink:title="Class ExternalSecurityLight, SM externalSecurityLightStateMachine, State night.moving">
<path fill="none" stroke="#000000" d="M268.2,-176C268.2,-176 220.2,-176 220.2,-176 214.2,-176 208.2,-170 208.2,-164 208.2,-164 208.2,-152 208.2,-152 208.2,-146 214.2,-140 220.2,-140 220.2,-140 268.2,-140 268.2,-140 274.2,-140 280.2,-146 280.2,-152 280.2,-152 280.2,-164 280.2,-164 280.2,-170 274.2,-176 268.2,-176"/>
<text text-anchor="middle" x="244.2" y="-153.8" font-family="Times,serif" font-size="14.00" fill="#000000">moving</text>
</a>
</g>
</g>
<!-- ExternalSecurityLight_externalSecurityLightStateMachineNight_off&#45;&gt;ExternalSecurityLight_externalSecurityLightStateMachineNight_moving -->
<g id="edge6" class="edge">
<title>ExternalSecurityLight_externalSecurityLightStateMachineNight_off&#45;&gt;ExternalSecurityLight_externalSecurityLightStateMachineNight_moving</title>
<g id="a_edge6"><a xlink:title="From night.off to night.moving on movement&#13;Guard: &#160;[getAmbientLight() == false]&#13;Transition Action:&#10; &#160;&#160;&#160;&#160;lampOn();">
<path fill="none" stroke="#000000" d="M242.6515,-298.9644C241.0654,-278.2248 238.9793,-243.1553 240.1014,-213 240.4218,-204.3884 241.0235,-195.034 241.6691,-186.5235"/>
<polygon fill="#000000" stroke="#000000" points="245.1772,-186.5633 242.4925,-176.3143 238.1998,-186.0005 245.1772,-186.5633"/>
</a>
</g>
<text text-anchor="middle" x="387.2493" y="-226.8" font-family="Times,serif" font-size="14.00" fill="#000000">movement [getAmbientLight() == false] / lampOn();</text>
</g>
<!-- ExternalSecurityLight_externalSecurityLightStateMachineNight_timing -->
<g id="node6" class="node">
<title>ExternalSecurityLight_externalSecurityLightStateMachineNight_timing</title>
<g id="a_node6"><a xlink:title="Class ExternalSecurityLight, SM externalSecurityLightStateMachine, State night.timing">
<path fill="none" stroke="#000000" d="M395.2,-52C395.2,-52 347.2,-52 347.2,-52 341.2,-52 335.2,-46 335.2,-40 335.2,-40 335.2,-28 335.2,-28 335.2,-22 341.2,-16 347.2,-16 347.2,-16 395.2,-16 395.2,-16 401.2,-16 407.2,-22 407.2,-28 407.2,-28 407.2,-40 407.2,-40 407.2,-46 401.2,-52 395.2,-52"/>
<text text-anchor="middle" x="371.2" y="-29.8" font-family="Times,serif" font-size="14.00" fill="#000000">timing</text>
</a>
</g>
</g>
<!-- ExternalSecurityLight_externalSecurityLightStateMachineNight_moving&#45;&gt;ExternalSecurityLight_externalSecurityLightStateMachineNight_timing -->
<g id="edge8" class="edge">
<title>ExternalSecurityLight_externalSecurityLightStateMachineNight_moving&#45;&gt;ExternalSecurityLight_externalSecurityLightStateMachineNight_timing</title>
<g id="a_edge8"><a xlink:title="From night.moving to night.timing on noMovement&#13;Transition Action:&#10; &#160;&#160;&#160;&#160;timer.startTimer(); setAmbientLight(true);">
<path fill="none" stroke="#000000" d="M231.7063,-139.8812C223.196,-125.0823 215.2107,-104.2018 225.7156,-89 237.4468,-72.0235 287.0287,-55.7133 325.0829,-45.325"/>
<polygon fill="#000000" stroke="#000000" points="326.2139,-48.6458 334.9733,-42.6857 324.409,-41.8825 326.2139,-48.6458"/>
</a>
</g>
<text text-anchor="middle" x="279.9422" y="-91.8" font-family="Times,serif" font-size="14.00" fill="#000000">noMovement / {...}</text>
</g>
<!-- ExternalSecurityLight_externalSecurityLightStateMachineNight_timing&#45;&gt;ExternalSecurityLight_externalSecurityLightStateMachineNight_off -->
<g id="edge5" class="edge">
<title>ExternalSecurityLight_externalSecurityLightStateMachineNight_timing&#45;&gt;ExternalSecurityLight_externalSecurityLightStateMachineNight_off</title>
<g id="a_edge5"><a xlink:title="From night.timing to night.off on timeout&#13;Guard: &#160;[getAmbientLight() == true]&#13;Transition Action:&#10; &#160;&#160;&#160;&#160;timer.stopTimer();&#10; &#160;&#160;&#160;&#160;&#10; &#160;&#160;&#160;&#160;while (System.currentTimeMillis() &lt; timer.getStopTime()) {&#10; &#160;&#160;&#160;&#160;&#160;&#160;try {&#10; &#160;&#160;&#160;&#160;&#160;&#160;&#160;&#160;Thread.sleep(10000); &#10; &#160;&#160;&#160;&#160;...">
<path fill="none" stroke="#000000" d="M387.8764,-52.0248C396.395,-62.1791 406.2018,-75.5049 412.2,-89 428.2111,-125.0228 403.5759,-146.2726 429.4656,-176 452.4274,-202.3653 593.6874,-176.5869 536.2,-249 506.0243,-287.0103 364.8709,-305.7265 290.4312,-313.0887"/>
<polygon fill="#000000" stroke="#000000" points="290.0083,-309.6131 280.3887,-314.053 290.6775,-316.581 290.0083,-309.6131"/>
</a>
</g>
<text text-anchor="middle" x="549.5672" y="-153.8" font-family="Times,serif" font-size="14.00" fill="#000000">timeout [getAmbientLight() == true] / {...}</text>
</g>
<!-- ExternalSecurityLight_externalSecurityLightStateMachineNight_timing&#45;&gt;ExternalSecurityLight_externalSecurityLightStateMachineNight_moving -->
<g id="edge7" class="edge">
<title>ExternalSecurityLight_externalSecurityLightStateMachineNight_timing&#45;&gt;ExternalSecurityLight_externalSecurityLightStateMachineNight_moving</title>
<g id="a_edge7"><a xlink:title="From night.timing to night.moving on movement">
<path fill="none" stroke="#000000" d="M366.1547,-52.1706C361.248,-67.1992 352.5575,-88.3747 339.2,-103 325.5366,-117.9602 306.8378,-129.9803 289.6423,-138.9222"/>
<polygon fill="#000000" stroke="#000000" points="287.6829,-135.9875 280.2854,-143.5723 290.7982,-142.2561 287.6829,-135.9875"/>
</a>
</g>
<text text-anchor="middle" x="378.7483" y="-91.8" font-family="Times,serif" font-size="14.00" fill="#000000">movement</text>
</g>
</g>
</svg>
