<?xml version="1.0" encoding="UTF-8" standalone="no"?>
<!DOCTYPE svg PUBLIC "-//W3C//DTD SVG 1.1//EN"
 "http://www.w3.org/Graphics/SVG/1.1/DTD/svg11.dtd">
<!-- Generated by graphviz version 2.48.0 (20210717.1556)
 -->
<!-- Title: SecurityLight Pages: 1 -->
<svg width="630pt" height="324pt"
 viewBox="0.00 0.00 630.20 324.40" xmlns="http://www.w3.org/2000/svg" xmlns:xlink="http://www.w3.org/1999/xlink">
<g id="graph0" class="graph" transform="scale(1 1) rotate(0) translate(4 320.4)">
<title>SecurityLight</title>
<polygon fill="white" stroke="transparent" points="-4,4 -4,-320.4 626.2,-320.4 626.2,4 -4,4"/>
<g id="clust1" class="cluster">
<title>clusterExternalSecurityLight_externalSecurityLightStateMachine_night</title>
<path fill="none" stroke="black" d="M229.2,-8C229.2,-8 570.2,-8 570.2,-8 576.2,-8 582.2,-14 582.2,-20 582.2,-20 582.2,-296.4 582.2,-296.4 582.2,-302.4 576.2,-308.4 570.2,-308.4 570.2,-308.4 229.2,-308.4 229.2,-308.4 223.2,-308.4 217.2,-302.4 217.2,-296.4 217.2,-296.4 217.2,-20 217.2,-20 217.2,-14 223.2,-8 229.2,-8"/>
<text text-anchor="middle" x="399.7" y="-293.2" font-family="Times,serif" font-size="14.00">night</text>
</g>
<!-- start_ExternalSecurityLight_externalSecurityLightStateMachine -->
<g id="node1" class="node">
<title>start_ExternalSecurityLight_externalSecurityLightStateMachine</title>
<g id="a_node1"><a xlink:title="Class ExternalSecurityLight, SM externalSecurityLightStateMachine, State start">
<ellipse fill="black" stroke="black" cx="7.2" cy="-208" rx="7.2" ry="7.2"/>
</a>
</g>
</g>
<!-- ExternalSecurityLight_externalSecurityLightStateMachine_day -->
<g id="node2" class="node">
<title>ExternalSecurityLight_externalSecurityLightStateMachine_day</title>
<g id="a_node2"><a xlink:title="Class ExternalSecurityLight, SM externalSecurityLightStateMachine, State day">
<path fill="none" stroke="black" d="M64.2,-139C64.2,-139 16.2,-139 16.2,-139 10.2,-139 4.2,-133 4.2,-127 4.2,-127 4.2,-115 4.2,-115 4.2,-109 10.2,-103 16.2,-103 16.2,-103 64.2,-103 64.2,-103 70.2,-103 76.2,-109 76.2,-115 76.2,-115 76.2,-127 76.2,-127 76.2,-133 70.2,-139 64.2,-139"/>
<text text-anchor="middle" x="40.2" y="-117.3" font-family="Times,serif" font-size="14.00">day</text>
</a>
</g>
</g>
<!-- start_ExternalSecurityLight_externalSecurityLightStateMachine&#45;&gt;ExternalSecurityLight_externalSecurityLightStateMachine_day -->
<g id="edge1" class="edge">
<title>start_ExternalSecurityLight_externalSecurityLightStateMachine&#45;&gt;ExternalSecurityLight_externalSecurityLightStateMachine_day</title>
<g id="a_edge1"><a xlink:title="start to day">
<path fill="none" stroke="black" d="M8.49,-200.69C10.56,-191.06 15.04,-172.2 21.2,-157 22.38,-154.08 23.75,-151.1 25.19,-148.16"/>
<polygon fill="black" stroke="black" points="28.41,-149.56 29.94,-139.07 22.2,-146.31 28.41,-149.56"/>
</a>
</g>
</g>
<!-- ExternalSecurityLight_externalSecurityLightStateMachineNight_off -->
<g id="node4" class="node">
<title>ExternalSecurityLight_externalSecurityLightStateMachineNight_off</title>
<g id="a_node4"><a xlink:title="Class ExternalSecurityLight, SM externalSecurityLightStateMachine, State night.off">
<path fill="none" stroke="black" d="M285.2,-226C285.2,-226 237.2,-226 237.2,-226 231.2,-226 225.2,-220 225.2,-214 225.2,-214 225.2,-202 225.2,-202 225.2,-196 231.2,-190 237.2,-190 237.2,-190 285.2,-190 285.2,-190 291.2,-190 297.2,-196 297.2,-202 297.2,-202 297.2,-214 297.2,-214 297.2,-220 291.2,-226 285.2,-226"/>
<text text-anchor="middle" x="261.2" y="-204.3" font-family="Times,serif" font-size="14.00">off</text>
</a>
</g>
</g>
<!-- ExternalSecurityLight_externalSecurityLightStateMachine_day&#45;&gt;ExternalSecurityLight_externalSecurityLightStateMachineNight_off -->
<g id="edge4" class="edge">
<title>ExternalSecurityLight_externalSecurityLightStateMachine_day&#45;&gt;ExternalSecurityLight_externalSecurityLightStateMachineNight_off</title>
<g id="a_edge4"><a xlink:title="From day to night.off on dark&#13;Transition Action:&#10; &#160;&#160;&#160;&#160;setAmbientLight(false);">
<path fill="none" stroke="black" d="M36.27,-139.36C34.92,-150.07 35.38,-163.36 43.2,-172 65.48,-196.61 157.42,-203.94 214.55,-206.11"/>
<polygon fill="black" stroke="black" points="214.67,-209.61 224.78,-206.46 214.91,-202.62 214.67,-209.61"/>
</a>
</g>
<text text-anchor="middle" x="73.2" y="-160.8" font-family="Times,serif" font-size="14.00">dark / {...}</text>
</g>
<!-- start_ExternalSecurityLight_externalSecurityLightStateMachineNight -->
<g id="node3" class="node">
<title>start_ExternalSecurityLight_externalSecurityLightStateMachineNight</title>
<g id="a_node3"><a xlink:title="Class ExternalSecurityLight, SM externalSecurityLightStateMachine, State night.start">
<ellipse fill="black" stroke="black" cx="261.2" cy="-270.2" rx="7.2" ry="7.2"/>
</a>
</g>
</g>
<!-- start_ExternalSecurityLight_externalSecurityLightStateMachineNight&#45;&gt;ExternalSecurityLight_externalSecurityLightStateMachineNight_off -->
<g id="edge3" class="edge">
<title>start_ExternalSecurityLight_externalSecurityLightStateMachineNight&#45;&gt;ExternalSecurityLight_externalSecurityLightStateMachineNight_off</title>
<g id="a_edge3"><a xlink:title="start to night.off">
<path fill="none" stroke="black" d="M261.2,-262.76C261.2,-256.39 261.2,-246.2 261.2,-236.39"/>
<polygon fill="black" stroke="black" points="264.7,-236.1 261.2,-226.1 257.7,-236.1 264.7,-236.1"/>
</a>
</g>
</g>
<!-- ExternalSecurityLight_externalSecurityLightStateMachineNight_off&#45;&gt;ExternalSecurityLight_externalSecurityLightStateMachine_day -->
<g id="edge2" class="edge">
<title>ExternalSecurityLight_externalSecurityLightStateMachineNight_off&#45;&gt;ExternalSecurityLight_externalSecurityLightStateMachine_day</title>
<g id="a_edge2"><a xlink:title="From night to day on light&#13;Transition Action:&#10; &#160;&#160;&#160;&#160;lampOff();">
<path fill="none" stroke="black" d="M217.2,-195.98C194.49,-189.81 166.53,-181.46 142.2,-172 121.44,-163.93 99.15,-153.25 80.72,-143.83"/>
<polygon fill="black" stroke="black" points="82.22,-140.67 71.73,-139.19 79.01,-146.89 82.22,-140.67"/>
</a>
</g>
<text text-anchor="middle" x="190.7" y="-160.8" font-family="Times,serif" font-size="14.00">light / lampOff();</text>
</g>
<!-- ExternalSecurityLight_externalSecurityLightStateMachineNight_moving -->
<g id="node5" class="node">
<title>ExternalSecurityLight_externalSecurityLightStateMachineNight_moving</title>
<g id="a_node5"><a xlink:title="Class ExternalSecurityLight, SM externalSecurityLightStateMachine, State night.moving">
<path fill="none" stroke="black" d="M285.2,-139C285.2,-139 237.2,-139 237.2,-139 231.2,-139 225.2,-133 225.2,-127 225.2,-127 225.2,-115 225.2,-115 225.2,-109 231.2,-103 237.2,-103 237.2,-103 285.2,-103 285.2,-103 291.2,-103 297.2,-109 297.2,-115 297.2,-115 297.2,-127 297.2,-127 297.2,-133 291.2,-139 285.2,-139"/>
<text text-anchor="middle" x="261.2" y="-117.3" font-family="Times,serif" font-size="14.00">moving</text>
</a>
</g>
</g>
<!-- ExternalSecurityLight_externalSecurityLightStateMachineNight_off&#45;&gt;ExternalSecurityLight_externalSecurityLightStateMachineNight_moving -->
<g id="edge6" class="edge">
<title>ExternalSecurityLight_externalSecurityLightStateMachineNight_off&#45;&gt;ExternalSecurityLight_externalSecurityLightStateMachineNight_moving</title>
<g id="a_edge6"><a xlink:title="From night.off to night.moving on movement&#13;Guard: &#160;[getAmbientLight() == false]&#13;Transition Action:&#10; &#160;&#160;&#160;&#160;lampOn();">
<path fill="none" stroke="black" d="M250.27,-189.67C245.56,-180.16 241.65,-168.08 244.2,-157 244.85,-154.16 245.77,-151.29 246.84,-148.47"/>
<polygon fill="black" stroke="black" points="250.08,-149.79 250.92,-139.23 243.68,-146.96 250.08,-149.79"/>
</a>
</g>
<text text-anchor="middle" x="392.7" y="-160.8" font-family="Times,serif" font-size="14.00">movement [getAmbientLight() == false] / lampOn();</text>
</g>
<!-- ExternalSecurityLight_externalSecurityLightStateMachineNight_timing -->
<g id="node6" class="node">
<title>ExternalSecurityLight_externalSecurityLightStateMachineNight_timing</title>
<g id="a_node6"><a xlink:title="Class ExternalSecurityLight, SM externalSecurityLightStateMachine, State night.timing">
<path fill="none" stroke="black" d="M400.2,-52C400.2,-52 352.2,-52 352.2,-52 346.2,-52 340.2,-46 340.2,-40 340.2,-40 340.2,-28 340.2,-28 340.2,-22 346.2,-16 352.2,-16 352.2,-16 400.2,-16 400.2,-16 406.2,-16 412.2,-22 412.2,-28 412.2,-28 412.2,-40 412.2,-40 412.2,-46 406.2,-52 400.2,-52"/>
<text text-anchor="middle" x="376.2" y="-30.3" font-family="Times,serif" font-size="14.00">timing</text>
</a>
</g>
</g>
<!-- ExternalSecurityLight_externalSecurityLightStateMachineNight_moving&#45;&gt;ExternalSecurityLight_externalSecurityLightStateMachineNight_timing -->
<g id="edge8" class="edge">
<title>ExternalSecurityLight_externalSecurityLightStateMachineNight_moving&#45;&gt;ExternalSecurityLight_externalSecurityLightStateMachineNight_timing</title>
<g id="a_edge8"><a xlink:title="From night.moving to night.timing on noMovement&#13;Transition Action:&#10; &#160;&#160;&#160;&#160;timer.startTimer(); setAmbientLight(true);">
<path fill="none" stroke="black" d="M245.5,-102.62C238.23,-92.42 232.7,-79.67 240.2,-70 251.25,-55.75 294.92,-46.28 329.84,-40.83"/>
<polygon fill="black" stroke="black" points="330.51,-44.27 339.88,-39.33 329.48,-37.35 330.51,-44.27"/>
</a>
</g>
<text text-anchor="middle" x="295.2" y="-73.8" font-family="Times,serif" font-size="14.00">noMovement / {...}</text>
</g>
<!-- ExternalSecurityLight_externalSecurityLightStateMachineNight_timing&#45;&gt;ExternalSecurityLight_externalSecurityLightStateMachineNight_off -->
<g id="edge5" class="edge">
<title>ExternalSecurityLight_externalSecurityLightStateMachineNight_timing&#45;&gt;ExternalSecurityLight_externalSecurityLightStateMachineNight_off</title>
<g id="a_edge5"><a xlink:title="From night.timing to night.off on timeout&#13;Guard: &#160;[getAmbientLight() == true]&#13;Transition Action:&#10; &#160;&#160;&#160;&#160;timer.stopTimer();&#10; &#160;&#160;&#160;&#160;&#10; &#160;&#160;&#160;&#160;while (System.currentTimeMillis() &lt; timer.getStopTime()) {&#10; &#160;&#160;&#160;&#160;&#160;&#160;try {&#10; &#160;&#160;&#160;&#160;&#160;&#160;&#160;&#160;Thread.sleep(10000); &#10; &#160;&#160;&#160;&#160;...">
<path fill="none" stroke="black" d="M412.19,-52.08C426,-61.05 436.65,-72.72 428.2,-85 415.52,-103.43 393.88,-84.57 381.2,-103 372.13,-116.18 370.54,-127.07 381.2,-139 428.89,-192.35 493.51,-103.65 541.2,-157 545.64,-161.97 545.61,-167 541.2,-172 526.01,-189.21 382.96,-199.98 307.43,-204.52"/>
<polygon fill="black" stroke="black" points="307.02,-201.03 297.24,-205.11 307.43,-208.02 307.02,-201.03"/>
</a>
</g>
<text text-anchor="middle" x="501.7" y="-117.3" font-family="Times,serif" font-size="14.00">timeout [getAmbientLight() == true] / {...}</text>
</g>
<!-- ExternalSecurityLight_externalSecurityLightStateMachineNight_timing&#45;&gt;ExternalSecurityLight_externalSecurityLightStateMachineNight_moving -->
<g id="edge7" class="edge">
<title>ExternalSecurityLight_externalSecurityLightStateMachineNight_timing&#45;&gt;ExternalSecurityLight_externalSecurityLightStateMachineNight_moving</title>
<g id="a_edge7"><a xlink:title="From night.timing to night.moving on movement">
<path fill="none" stroke="black" d="M372.26,-52.29C369.02,-62.97 363.43,-76.26 354.2,-85 352.21,-86.88 329.35,-95.49 306.8,-103.71"/>
<polygon fill="black" stroke="black" points="305.42,-100.48 297.21,-107.18 307.8,-107.06 305.42,-100.48"/>
</a>
</g>
<text text-anchor="middle" x="394.2" y="-73.8" font-family="Times,serif" font-size="14.00">movement</text>
</g>
</g>
</svg>
