<?xml version="1.0" encoding="UTF-8" standalone="no"?>
<!DOCTYPE svg PUBLIC "-//W3C//DTD SVG 1.1//EN"
 "http://www.w3.org/Graphics/SVG/1.1/DTD/svg11.dtd">
<!-- Generated by graphviz version 2.40.1 (20161225.0304)
 -->
<!-- Title: SpecificFlight Pages: 1 -->
<svg width="578pt" height="720pt"
 viewBox="0.00 0.00 578.45 720.00" xmlns="http://www.w3.org/2000/svg" xmlns:xlink="http://www.w3.org/1999/xlink">
<g id="graph0" class="graph" transform="scale(.8316 .8316) rotate(0) translate(4 861.8)">
<title>SpecificFlight</title>
<polygon fill="#ffffff" stroke="transparent" points="-4,4 -4,-861.8 691.583,-861.8 691.583,4 -4,4"/>
<g id="clust1" class="cluster">
<title>clusterSpecificFlight_state_activeWithPassengers</title>
<path fill="none" stroke="#000000" d="M332,-164C332,-164 586,-164 586,-164 592,-164 598,-170 598,-176 598,-176 598,-837.8 598,-837.8 598,-843.8 592,-849.8 586,-849.8 586,-849.8 332,-849.8 332,-849.8 326,-849.8 320,-843.8 320,-837.8 320,-837.8 320,-176 320,-176 320,-170 326,-164 332,-164"/>
<text text-anchor="middle" x="459" y="-834.6" font-family="Times,serif" font-size="14.00" fill="#000000">activeWithPassengers</text>
</g>
<!-- start_SpecificFlight_state -->
<g id="node1" class="node">
<title>start_SpecificFlight_state</title>
<g id="a_node1"><a xlink:title="Class SpecificFlight, SM state, State start">
<ellipse fill="#000000" stroke="#000000" cx="53" cy="-252.2" rx="7.2" ry="7.2"/>
</a>
</g>
</g>
<!-- SpecificFlight_state_planned -->
<g id="node2" class="node">
<title>SpecificFlight_state_planned</title>
<g id="a_node2"><a xlink:title="Class SpecificFlight, SM state, State planned">
<path fill="none" stroke="#000000" d="M77,-208C77,-208 29,-208 29,-208 23,-208 17,-202 17,-196 17,-196 17,-184 17,-184 17,-178 23,-172 29,-172 29,-172 77,-172 77,-172 83,-172 89,-178 89,-184 89,-184 89,-196 89,-196 89,-202 83,-208 77,-208"/>
<text text-anchor="middle" x="53" y="-185.8" font-family="Times,serif" font-size="14.00" fill="#000000">planned</text>
</a>
</g>
</g>
<!-- start_SpecificFlight_state&#45;&gt;SpecificFlight_state_planned -->
<g id="edge1" class="edge">
<title>start_SpecificFlight_state&#45;&gt;SpecificFlight_state_planned</title>
<g id="a_edge1"><a xlink:title="start to planned">
<path fill="none" stroke="#000000" d="M53,-244.5731C53,-237.9503 53,-227.9322 53,-218.2795"/>
<polygon fill="#000000" stroke="#000000" points="56.5001,-218.1266 53,-208.1266 49.5001,-218.1267 56.5001,-218.1266"/>
</a>
</g>
</g>
<!-- SpecificFlight_state_planeAssigned -->
<g id="node3" class="node">
<title>SpecificFlight_state_planeAssigned</title>
<g id="a_node3"><a xlink:title="Class SpecificFlight, SM state, State planeAssigned">
<path fill="none" stroke="#000000" d="M179.4287,-122C179.4287,-122 104.5713,-122 104.5713,-122 98.5713,-122 92.5713,-116 92.5713,-110 92.5713,-110 92.5713,-98 92.5713,-98 92.5713,-92 98.5713,-86 104.5713,-86 104.5713,-86 179.4287,-86 179.4287,-86 185.4287,-86 191.4287,-92 191.4287,-98 191.4287,-98 191.4287,-110 191.4287,-110 191.4287,-116 185.4287,-122 179.4287,-122"/>
<text text-anchor="middle" x="142" y="-99.8" font-family="Times,serif" font-size="14.00" fill="#000000">planeAssigned</text>
</a>
</g>
</g>
<!-- SpecificFlight_state_planned&#45;&gt;SpecificFlight_state_planeAssigned -->
<g id="edge3" class="edge">
<title>SpecificFlight_state_planned&#45;&gt;SpecificFlight_state_planeAssigned</title>
<g id="a_edge3"><a xlink:title="From planned to planeAssigned on assignPlane">
<path fill="none" stroke="#000000" d="M46.7401,-171.8953C44.3948,-161.6937 43.6189,-149.1937 49.8965,-140 54.4061,-133.3954 67.8316,-126.8302 83.0863,-121.1503"/>
<polygon fill="#000000" stroke="#000000" points="84.4932,-124.3653 92.7575,-117.7357 82.1627,-117.7647 84.4932,-124.3653"/>
</a>
</g>
<text text-anchor="middle" x="83.0518" y="-142.8" font-family="Times,serif" font-size="14.00" fill="#000000">assignPlane</text>
</g>
<!-- SpecificFlight_state_cancelled -->
<g id="node12" class="node">
<title>SpecificFlight_state_cancelled</title>
<g id="a_node12"><a xlink:title="Class SpecificFlight, SM state, State cancelled">
<path fill="none" stroke="#000000" d="M60,-36C60,-36 12,-36 12,-36 6,-36 0,-30 0,-24 0,-24 0,-12 0,-12 0,-6 6,0 12,0 12,0 60,0 60,0 66,0 72,-6 72,-12 72,-12 72,-24 72,-24 72,-30 66,-36 60,-36"/>
<text text-anchor="middle" x="36" y="-13.8" font-family="Times,serif" font-size="14.00" fill="#000000">cancelled</text>
</a>
</g>
</g>
<!-- SpecificFlight_state_planned&#45;&gt;SpecificFlight_state_cancelled -->
<g id="edge15" class="edge">
<title>SpecificFlight_state_planned&#45;&gt;SpecificFlight_state_cancelled</title>
<g id="a_edge15"><a xlink:title="From planned to cancelled on cancel">
<path fill="none" stroke="#000000" d="M46.4956,-171.9019C44.7263,-166.2414 43.0191,-159.9254 42,-154 35.6698,-117.193 34.8684,-74.0058 35.1822,-46.3399"/>
<polygon fill="#000000" stroke="#000000" points="38.6841,-46.2526 35.3558,-36.1942 31.6851,-46.1328 38.6841,-46.2526"/>
</a>
</g>
<text text-anchor="middle" x="55.8726" y="-99.8" font-family="Times,serif" font-size="14.00" fill="#000000">cancel</text>
</g>
<!-- SpecificFlight_state_planeAssigned&#45;&gt;SpecificFlight_state_planned -->
<g id="edge2" class="edge">
<title>SpecificFlight_state_planeAssigned&#45;&gt;SpecificFlight_state_planned</title>
<g id="a_edge2"><a xlink:title="From planeAssigned to planned on changePlane">
<path fill="none" stroke="#000000" d="M137.18,-122.3145C133.74,-132.586 128.24,-145.086 120,-154 113.7467,-160.7649 105.9257,-166.5162 97.856,-171.3041"/>
<polygon fill="#000000" stroke="#000000" points="96.1506,-168.2475 89.0642,-176.1236 99.5155,-174.3857 96.1506,-168.2475"/>
</a>
</g>
<text text-anchor="middle" x="165.3726" y="-142.8" font-family="Times,serif" font-size="14.00" fill="#000000">changePlane</text>
</g>
<!-- SpecificFlight_stateActiveWithPassengers_boarding -->
<g id="node7" class="node">
<title>SpecificFlight_stateActiveWithPassengers_boarding</title>
<g id="a_node7"><a xlink:title="Class SpecificFlight, SM state, State activeWithPassengers.boarding">
<path fill="none" stroke="#000000" d="M388,-606.4C388,-606.4 340,-606.4 340,-606.4 334,-606.4 328,-600.4 328,-594.4 328,-594.4 328,-582.4 328,-582.4 328,-576.4 334,-570.4 340,-570.4 340,-570.4 388,-570.4 388,-570.4 394,-570.4 400,-576.4 400,-582.4 400,-582.4 400,-594.4 400,-594.4 400,-600.4 394,-606.4 388,-606.4"/>
<text text-anchor="middle" x="364" y="-584.2" font-family="Times,serif" font-size="14.00" fill="#000000">boarding</text>
</a>
</g>
</g>
<!-- SpecificFlight_state_planeAssigned&#45;&gt;SpecificFlight_stateActiveWithPassengers_boarding -->
<g id="edge7" class="edge">
<title>SpecificFlight_state_planeAssigned&#45;&gt;SpecificFlight_stateActiveWithPassengers_boarding</title>
<g id="a_edge7"><a xlink:title="From planeAssigned to activeWithPassengers.boarding on readyForPassengers">
<path fill="none" stroke="#000000" d="M182.3779,-122.0908C190.5704,-127.0567 198.6196,-133.0319 205,-140 221.5187,-158.0404 228,-165.5394 228,-190 228,-526.4 228,-526.4 228,-526.4 228,-546.6736 278.669,-565.297 318.1521,-576.7315"/>
<polygon fill="#000000" stroke="#000000" points="317.3372,-580.1381 327.9116,-579.4803 319.235,-573.4002 317.3372,-580.1381"/>
</a>
</g>
<text text-anchor="middle" x="283.9863" y="-353.2" font-family="Times,serif" font-size="14.00" fill="#000000">readyForPassengers</text>
</g>
<!-- SpecificFlight_state_planeAssigned&#45;&gt;SpecificFlight_state_cancelled -->
<g id="edge16" class="edge">
<title>SpecificFlight_state_planeAssigned&#45;&gt;SpecificFlight_state_cancelled</title>
<g id="a_edge16"><a xlink:title="From planeAssigned to cancelled on cancel">
<path fill="none" stroke="#000000" d="M119.7789,-85.9716C104.2319,-73.358 83.2776,-56.3573 66.2147,-42.5139"/>
<polygon fill="#000000" stroke="#000000" points="68.1626,-39.5872 58.1918,-36.0047 63.7523,-45.0231 68.1626,-39.5872"/>
</a>
</g>
<text text-anchor="middle" x="113.8726" y="-56.8" font-family="Times,serif" font-size="14.00" fill="#000000">cancel</text>
</g>
<!-- dummyNode1_activeWithPassengers_disembarking -->
<g id="node4" class="node">
<title>dummyNode1_activeWithPassengers_disembarking</title>
<ellipse fill="#000000" stroke="#000000" cx="612" cy="-252.2" rx=".18" ry=".18"/>
</g>
<!-- SpecificFlight_stateActiveWithPassengers_disembarking -->
<g id="node10" class="node">
<title>SpecificFlight_stateActiveWithPassengers_disembarking</title>
<g id="a_node10"><a xlink:title="Class SpecificFlight, SM state, State activeWithPassengers.disembarking">
<path fill="none" stroke="#000000" d="M513.2073,-208C513.2073,-208 444.7927,-208 444.7927,-208 438.7927,-208 432.7927,-202 432.7927,-196 432.7927,-196 432.7927,-184 432.7927,-184 432.7927,-178 438.7927,-172 444.7927,-172 444.7927,-172 513.2073,-172 513.2073,-172 519.2073,-172 525.2073,-178 525.2073,-184 525.2073,-184 525.2073,-196 525.2073,-196 525.2073,-202 519.2073,-208 513.2073,-208"/>
<text text-anchor="middle" x="479" y="-185.8" font-family="Times,serif" font-size="14.00" fill="#000000">disembarking</text>
</a>
</g>
</g>
<!-- dummyNode1_activeWithPassengers_disembarking&#45;&gt;SpecificFlight_stateActiveWithPassengers_disembarking -->
<g id="edge12" class="edge">
<title>dummyNode1_activeWithPassengers_disembarking:w&#45;&gt;SpecificFlight_stateActiveWithPassengers_disembarking</title>
<g id="a_edge12"><a xlink:title="From activeWithPassengers to activeWithPassengers.disembarking on evacuate">
<path fill="none" stroke="#000000" d="M612,-252.2C606.5234,-252.2 606.7465,-247.7319 602,-245 580.7194,-232.7518 556.2111,-221.3011 534.6996,-212.053"/>
<polygon fill="#000000" stroke="#000000" points="535.9397,-208.7773 525.3668,-208.0967 533.2076,-215.2221 535.9397,-208.7773"/>
</a>
</g>
</g>
<!-- start_SpecificFlight_activeWithPassengers -->
<g id="node5" class="node">
<title>start_SpecificFlight_activeWithPassengers</title>
<g id="a_node5"><a xlink:title="Class SpecificFlight, SM state, State activeWithPassengers.start">
<ellipse fill="#000000" stroke="#000000" cx="482" cy="-812.6" rx="7.2" ry="7.2"/>
</a>
</g>
</g>
<!-- SpecificFlight_stateActiveWithPassengers_waitingForNextLeg -->
<g id="node6" class="node">
<title>SpecificFlight_stateActiveWithPassengers_waitingForNextLeg</title>
<g id="a_node6"><a xlink:title="Class SpecificFlight, SM state, State activeWithPassengers.waitingForNextLeg">
<path fill="none" stroke="#000000" d="M533.4216,-730.4C533.4216,-730.4 430.5784,-730.4 430.5784,-730.4 424.5784,-730.4 418.5784,-724.4 418.5784,-718.4 418.5784,-718.4 418.5784,-706.4 418.5784,-706.4 418.5784,-700.4 424.5784,-694.4 430.5784,-694.4 430.5784,-694.4 533.4216,-694.4 533.4216,-694.4 539.4216,-694.4 545.4216,-700.4 545.4216,-706.4 545.4216,-706.4 545.4216,-718.4 545.4216,-718.4 545.4216,-724.4 539.4216,-730.4 533.4216,-730.4"/>
<text text-anchor="middle" x="482" y="-708.2" font-family="Times,serif" font-size="14.00" fill="#000000">waitingForNextLeg</text>
</a>
</g>
</g>
<!-- start_SpecificFlight_activeWithPassengers&#45;&gt;SpecificFlight_stateActiveWithPassengers_waitingForNextLeg -->
<g id="edge5" class="edge">
<title>start_SpecificFlight_activeWithPassengers&#45;&gt;SpecificFlight_stateActiveWithPassengers_waitingForNextLeg</title>
<g id="a_edge5"><a xlink:title="start to activeWithPassengers.waitingForNextLeg">
<path fill="none" stroke="#000000" d="M482,-805.3939C482,-792.0512 482,-762.842 482,-740.6953"/>
<polygon fill="#000000" stroke="#000000" points="485.5001,-740.491 482,-730.4911 478.5001,-740.4911 485.5001,-740.491"/>
</a>
</g>
</g>
<!-- SpecificFlight_stateActiveWithPassengers_waitingForNextLeg&#45;&gt;dummyNode1_activeWithPassengers_disembarking -->
<g id="edge11" class="edge">
<title>SpecificFlight_stateActiveWithPassengers_waitingForNextLeg&#45;&gt;dummyNode1_activeWithPassengers_disembarking:e</title>
<g id="a_edge11"><a xlink:title="From activeWithPassengers to activeWithPassengers.disembarking on evacuate">
<path fill="none" stroke="#000000" d="M597.998,-673.3683C610.0517,-666.2005 618,-658.4297 618,-650.4 618,-650.4 618,-650.4 618,-314.4 618,-286.6272 639.7728,-252.2 612,-252.2"/>
</a>
</g>
<text text-anchor="middle" x="642.4795" y="-490.2" font-family="Times,serif" font-size="14.00" fill="#000000">evacuate</text>
</g>
<!-- SpecificFlight_stateActiveWithPassengers_waitingForNextLeg&#45;&gt;SpecificFlight_stateActiveWithPassengers_boarding -->
<g id="edge8" class="edge">
<title>SpecificFlight_stateActiveWithPassengers_waitingForNextLeg&#45;&gt;SpecificFlight_stateActiveWithPassengers_boarding</title>
<g id="a_edge8"><a xlink:title="From activeWithPassengers.waitingForNextLeg to activeWithPassengers.boarding on readyForPassengers">
<path fill="none" stroke="#000000" d="M418.4913,-697.1491C397.9108,-688.8973 377.256,-676.3496 365.0273,-657.4 357.3898,-645.5649 356.5508,-630.0471 357.8767,-616.7256"/>
<polygon fill="#000000" stroke="#000000" points="361.3702,-617.0188 359.3156,-606.6251 354.4401,-616.0315 361.3702,-617.0188"/>
</a>
</g>
<text text-anchor="middle" x="420.9863" y="-646.2" font-family="Times,serif" font-size="14.00" fill="#000000">readyForPassengers</text>
</g>
<!-- SpecificFlight_stateActiveWithPassengers_closedAtGate -->
<g id="node8" class="node">
<title>SpecificFlight_stateActiveWithPassengers_closedAtGate</title>
<g id="a_node8"><a xlink:title="Class SpecificFlight, SM state, State activeWithPassengers.closedAtGate">
<path fill="none" stroke="#000000" d="M408.1936,-469.4C408.1936,-469.4 339.8064,-469.4 339.8064,-469.4 333.8064,-469.4 327.8064,-463.4 327.8064,-457.4 327.8064,-457.4 327.8064,-445.4 327.8064,-445.4 327.8064,-439.4 333.8064,-433.4 339.8064,-433.4 339.8064,-433.4 408.1936,-433.4 408.1936,-433.4 414.1936,-433.4 420.1936,-439.4 420.1936,-445.4 420.1936,-445.4 420.1936,-457.4 420.1936,-457.4 420.1936,-463.4 414.1936,-469.4 408.1936,-469.4"/>
<text text-anchor="middle" x="374" y="-447.2" font-family="Times,serif" font-size="14.00" fill="#000000">closedAtGate</text>
</a>
</g>
</g>
<!-- SpecificFlight_stateActiveWithPassengers_boarding&#45;&gt;SpecificFlight_stateActiveWithPassengers_closedAtGate -->
<g id="edge9" class="edge">
<title>SpecificFlight_stateActiveWithPassengers_boarding&#45;&gt;SpecificFlight_stateActiveWithPassengers_closedAtGate</title>
<g id="a_edge9"><a xlink:title="From activeWithPassengers.boarding to activeWithPassengers.closedAtGate on boardingComplete">
<path fill="none" stroke="#000000" d="M365.3279,-570.2075C367.0164,-547.075 369.9501,-506.8836 371.9325,-479.7242"/>
<polygon fill="#000000" stroke="#000000" points="375.4292,-479.8961 372.6666,-469.6678 368.4478,-479.3864 375.4292,-479.8961"/>
</a>
</g>
<text text-anchor="middle" x="421.1001" y="-522.2" font-family="Times,serif" font-size="14.00" fill="#000000">boardingComplete</text>
</g>
<!-- SpecificFlight_stateActiveWithPassengers_underway -->
<g id="node9" class="node">
<title>SpecificFlight_stateActiveWithPassengers_underway</title>
<g id="a_node9"><a xlink:title="Class SpecificFlight, SM state, State activeWithPassengers.underway">
<path fill="none" stroke="#000000" d="M394,-332.4C394,-332.4 346,-332.4 346,-332.4 340,-332.4 334,-326.4 334,-320.4 334,-320.4 334,-308.4 334,-308.4 334,-302.4 340,-296.4 346,-296.4 346,-296.4 394,-296.4 394,-296.4 400,-296.4 406,-302.4 406,-308.4 406,-308.4 406,-320.4 406,-320.4 406,-326.4 400,-332.4 394,-332.4"/>
<text text-anchor="middle" x="370" y="-310.2" font-family="Times,serif" font-size="14.00" fill="#000000">underway</text>
</a>
</g>
</g>
<!-- SpecificFlight_stateActiveWithPassengers_closedAtGate&#45;&gt;SpecificFlight_stateActiveWithPassengers_underway -->
<g id="edge10" class="edge">
<title>SpecificFlight_stateActiveWithPassengers_closedAtGate&#45;&gt;SpecificFlight_stateActiveWithPassengers_underway</title>
<g id="a_edge10"><a xlink:title="From activeWithPassengers.closedAtGate to activeWithPassengers.underway on permissionToDepart">
<path fill="none" stroke="#000000" d="M368.132,-433.2889C365.0006,-422.6685 361.4742,-408.9185 359.8945,-396.4 357.6475,-378.5935 360.0112,-358.6041 363.0153,-342.8196"/>
<polygon fill="#000000" stroke="#000000" points="366.5225,-343.1475 365.1485,-332.6421 359.6714,-341.7114 366.5225,-343.1475"/>
</a>
</g>
<text text-anchor="middle" x="416.0527" y="-385.2" font-family="Times,serif" font-size="14.00" fill="#000000">permissionToDepart</text>
</g>
<!-- SpecificFlight_stateActiveWithPassengers_underway&#45;&gt;SpecificFlight_stateActiveWithPassengers_disembarking -->
<g id="edge13" class="edge">
<title>SpecificFlight_stateActiveWithPassengers_underway&#45;&gt;SpecificFlight_stateActiveWithPassengers_disembarking</title>
<g id="a_edge13"><a xlink:title="From activeWithPassengers.underway to activeWithPassengers.disembarking on arriveAtGate">
<path fill="none" stroke="#000000" d="M375.1513,-296.1194C380.0176,-281.2009 388.4476,-260.1816 400.9307,-245 410.8551,-232.9301 424.0538,-222.2926 436.7706,-213.6689"/>
<polygon fill="#000000" stroke="#000000" points="438.9736,-216.4114 445.4514,-208.0275 435.1592,-210.5419 438.9736,-216.4114"/>
</a>
</g>
<text text-anchor="middle" x="436.5347" y="-248" font-family="Times,serif" font-size="14.00" fill="#000000">arriveAtGate</text>
</g>
<!-- SpecificFlight_stateActiveWithPassengers_disembarking&#45;&gt;SpecificFlight_state_planeAssigned -->
<g id="edge4" class="edge">
<title>SpecificFlight_stateActiveWithPassengers_disembarking&#45;&gt;SpecificFlight_state_planeAssigned</title>
<g id="a_edge4"><a xlink:title="From activeWithPassengers.disembarking to planeAssigned on passengersOut&#13;Guard: &#160;[!finished &amp;&amp; empty]">
<path fill="none" stroke="#000000" d="M432.8747,-184.9049C390.6357,-179.5464 326.6787,-169.6804 272.7549,-154 257.1595,-149.465 254.117,-145.9377 239,-140 226.7427,-135.1856 213.5507,-130.1762 200.9646,-125.4784"/>
<polygon fill="#000000" stroke="#000000" points="202.0764,-122.1577 191.4835,-121.955 199.638,-128.7193 202.0764,-122.1577"/>
</a>
</g>
<text text-anchor="middle" x="376.6226" y="-142.8" font-family="Times,serif" font-size="14.00" fill="#000000">passengersOut [!finished &amp;&amp; empty]</text>
</g>
<!-- SpecificFlight_stateActiveWithPassengers_disembarking&#45;&gt;SpecificFlight_stateActiveWithPassengers_waitingForNextLeg -->
<g id="edge6" class="edge">
<title>SpecificFlight_stateActiveWithPassengers_disembarking&#45;&gt;SpecificFlight_stateActiveWithPassengers_waitingForNextLeg</title>
<g id="a_edge6"><a xlink:title="From activeWithPassengers.disembarking to activeWithPassengers.waitingForNextLeg on passengersOut&#13;Guard: &#160;[!empty]">
<path fill="none" stroke="#000000" d="M479,-208.2352C479,-220.6325 479,-237.4059 479,-252.2 479,-357.4 479,-357.4 479,-357.4 479,-391.4205 471.9041,-399.4402 469.8721,-433.4 468.9164,-449.3714 468.7054,-453.4426 469.8721,-469.4 472.5744,-506.3621 482,-514.8393 482,-551.9 482,-650.4 482,-650.4 482,-650.4 482,-661.3447 482,-673.3761 482,-683.9045"/>
<polygon fill="#000000" stroke="#000000" points="478.5001,-684.2234 482,-694.2234 485.5001,-684.2235 478.5001,-684.2234"/>
</a>
</g>
<text text-anchor="middle" x="536.064" y="-447.2" font-family="Times,serif" font-size="14.00" fill="#000000">passengersOut [!empty]</text>
</g>
<!-- SpecificFlight_state_completed -->
<g id="node11" class="node">
<title>SpecificFlight_state_completed</title>
<g id="a_node11"><a xlink:title="Class SpecificFlight, SM state, State completed">
<path fill="none" stroke="#000000" d="M516.3112,-122C516.3112,-122 465.6888,-122 465.6888,-122 459.6888,-122 453.6888,-116 453.6888,-110 453.6888,-110 453.6888,-98 453.6888,-98 453.6888,-92 459.6888,-86 465.6888,-86 465.6888,-86 516.3112,-86 516.3112,-86 522.3112,-86 528.3112,-92 528.3112,-98 528.3112,-98 528.3112,-110 528.3112,-110 528.3112,-116 522.3112,-122 516.3112,-122"/>
<text text-anchor="middle" x="491" y="-99.8" font-family="Times,serif" font-size="14.00" fill="#000000">completed</text>
</a>
</g>
</g>
<!-- SpecificFlight_stateActiveWithPassengers_disembarking&#45;&gt;SpecificFlight_state_completed -->
<g id="edge14" class="edge">
<title>SpecificFlight_stateActiveWithPassengers_disembarking&#45;&gt;SpecificFlight_state_completed</title>
<g id="a_edge14"><a xlink:title="From activeWithPassengers.disembarking to completed on passengersOut&#13;Guard: &#160;[finished &amp;&amp; empty]">
<path fill="none" stroke="#000000" d="M481.5449,-171.7616C483.1359,-160.3597 485.2185,-145.4342 487.0241,-132.494"/>
<polygon fill="#000000" stroke="#000000" points="490.5432,-132.5999 488.4588,-122.2121 483.6103,-131.6324 490.5432,-132.5999"/>
</a>
</g>
<text text-anchor="middle" x="586.2915" y="-142.8" font-family="Times,serif" font-size="14.00" fill="#000000">passengersOut [finished &amp;&amp; empty]</text>
</g>
</g>
</svg>
