<?xml version="1.0" encoding="UTF-8" standalone="no"?>
<!DOCTYPE svg PUBLIC "-//W3C//DTD SVG 1.1//EN"
 "http://www.w3.org/Graphics/SVG/1.1/DTD/svg11.dtd">
<!-- Generated by graphviz version 2.48.0 (20210717.1556)
 -->
<!-- Title: SpecificFlightFlat Pages: 1 -->
<svg width="622pt" height="617pt"
 viewBox="0.00 0.00 621.50 617.40" xmlns="http://www.w3.org/2000/svg" xmlns:xlink="http://www.w3.org/1999/xlink">
<g id="graph0" class="graph" transform="scale(1 1) rotate(0) translate(4 613.4)">
<title>SpecificFlightFlat</title>
<polygon fill="white" stroke="transparent" points="-4,4 -4,-613.4 617.5,-613.4 617.5,4 -4,4"/>
<!-- start_SpecificFlight_state -->
<g id="node1" class="node">
<title>start_SpecificFlight_state</title>
<g id="a_node1"><a xlink:title="Class SpecificFlight, SM state, State start">
<ellipse fill="black" stroke="black" cx="404.5" cy="-602.2" rx="7.2" ry="7.2"/>
</a>
</g>
</g>
<!-- SpecificFlight_state_planned -->
<g id="node2" class="node">
<title>SpecificFlight_state_planned</title>
<g id="a_node2"><a xlink:title="Class SpecificFlight, SM state, State planned">
<path fill="none" stroke="black" d="M428.5,-558C428.5,-558 380.5,-558 380.5,-558 374.5,-558 368.5,-552 368.5,-546 368.5,-546 368.5,-534 368.5,-534 368.5,-528 374.5,-522 380.5,-522 380.5,-522 428.5,-522 428.5,-522 434.5,-522 440.5,-528 440.5,-534 440.5,-534 440.5,-546 440.5,-546 440.5,-552 434.5,-558 428.5,-558"/>
<text text-anchor="middle" x="404.5" y="-536.3" font-family="Times,serif" font-size="14.00">planned</text>
</a>
</g>
</g>
<!-- start_SpecificFlight_state&#45;&gt;SpecificFlight_state_planned -->
<g id="edge1" class="edge">
<title>start_SpecificFlight_state&#45;&gt;SpecificFlight_state_planned</title>
<g id="a_edge1"><a xlink:title="start to planned">
<path fill="none" stroke="black" d="M404.5,-594.76C404.5,-588.39 404.5,-578.2 404.5,-568.39"/>
<polygon fill="black" stroke="black" points="408,-568.1 404.5,-558.1 401,-568.1 408,-568.1"/>
</a>
</g>
</g>
<!-- SpecificFlight_state_planeAssigned -->
<g id="node3" class="node">
<title>SpecificFlight_state_planeAssigned</title>
<g id="a_node3"><a xlink:title="Class SpecificFlight, SM state, State planeAssigned">
<path fill="none" stroke="black" d="M442,-471C442,-471 367,-471 367,-471 361,-471 355,-465 355,-459 355,-459 355,-447 355,-447 355,-441 361,-435 367,-435 367,-435 442,-435 442,-435 448,-435 454,-441 454,-447 454,-447 454,-459 454,-459 454,-465 448,-471 442,-471"/>
<text text-anchor="middle" x="404.5" y="-449.3" font-family="Times,serif" font-size="14.00">planeAssigned</text>
</a>
</g>
</g>
<!-- SpecificFlight_state_planned&#45;&gt;SpecificFlight_state_planeAssigned -->
<g id="edge3" class="edge">
<title>SpecificFlight_state_planned&#45;&gt;SpecificFlight_state_planeAssigned</title>
<g id="a_edge3"><a xlink:title="From planned to planeAssigned on assignPlane">
<path fill="none" stroke="black" d="M368.23,-529.92C354.94,-524.65 341.27,-516.49 333.5,-504 326.05,-492.03 333.52,-482.13 346,-474.39"/>
<polygon fill="black" stroke="black" points="347.69,-477.45 354.82,-469.61 344.36,-471.3 347.69,-477.45"/>
</a>
</g>
<text text-anchor="middle" x="367" y="-492.8" font-family="Times,serif" font-size="14.00">assignPlane</text>
</g>
<!-- SpecificFlight_state_cancelled -->
<g id="node10" class="node">
<title>SpecificFlight_state_cancelled</title>
<g id="a_node10"><a xlink:title="Class SpecificFlight, SM state, State cancelled">
<path fill="none" stroke="black" d="M503.5,-384C503.5,-384 455.5,-384 455.5,-384 449.5,-384 443.5,-378 443.5,-372 443.5,-372 443.5,-360 443.5,-360 443.5,-354 449.5,-348 455.5,-348 455.5,-348 503.5,-348 503.5,-348 509.5,-348 515.5,-354 515.5,-360 515.5,-360 515.5,-372 515.5,-372 515.5,-378 509.5,-384 503.5,-384"/>
<text text-anchor="middle" x="479.5" y="-362.3" font-family="Times,serif" font-size="14.00">cancelled</text>
</a>
</g>
</g>
<!-- SpecificFlight_state_planned&#45;&gt;SpecificFlight_state_cancelled -->
<g id="edge17" class="edge">
<title>SpecificFlight_state_planned&#45;&gt;SpecificFlight_state_cancelled</title>
<g id="a_edge17"><a xlink:title="From planned to cancelled on cancel">
<path fill="none" stroke="black" d="M440.75,-530.1C454.32,-524.84 468.4,-516.64 476.5,-504 497.66,-471 492.82,-423.73 486.69,-394.23"/>
<polygon fill="black" stroke="black" points="490.05,-393.2 484.42,-384.22 483.22,-394.75 490.05,-393.2"/>
</a>
</g>
<text text-anchor="middle" x="509.5" y="-449.3" font-family="Times,serif" font-size="14.00">cancel</text>
</g>
<!-- SpecificFlight_state_planeAssigned&#45;&gt;SpecificFlight_state_planned -->
<g id="edge2" class="edge">
<title>SpecificFlight_state_planeAssigned&#45;&gt;SpecificFlight_state_planned</title>
<g id="a_edge2"><a xlink:title="From planeAssigned to planned on changePlane">
<path fill="none" stroke="black" d="M404.5,-471.18C404.5,-482.81 404.5,-498.42 404.5,-511.73"/>
<polygon fill="black" stroke="black" points="401,-511.8 404.5,-521.8 408,-511.8 401,-511.8"/>
</a>
</g>
<text text-anchor="middle" x="440" y="-492.8" font-family="Times,serif" font-size="14.00">changePlane</text>
</g>
<!-- SpecificFlight_state_boarding -->
<g id="node5" class="node">
<title>SpecificFlight_state_boarding</title>
<g id="a_node5"><a xlink:title="Class SpecificFlight, SM state, State boarding">
<path fill="none" stroke="black" d="M207.5,-384C207.5,-384 159.5,-384 159.5,-384 153.5,-384 147.5,-378 147.5,-372 147.5,-372 147.5,-360 147.5,-360 147.5,-354 153.5,-348 159.5,-348 159.5,-348 207.5,-348 207.5,-348 213.5,-348 219.5,-354 219.5,-360 219.5,-360 219.5,-372 219.5,-372 219.5,-378 213.5,-384 207.5,-384"/>
<text text-anchor="middle" x="183.5" y="-362.3" font-family="Times,serif" font-size="14.00">boarding</text>
</a>
</g>
</g>
<!-- SpecificFlight_state_planeAssigned&#45;&gt;SpecificFlight_state_boarding -->
<g id="edge6" class="edge">
<title>SpecificFlight_state_planeAssigned&#45;&gt;SpecificFlight_state_boarding</title>
<g id="a_edge6"><a xlink:title="From planeAssigned to boarding on readyForPassengers">
<path fill="none" stroke="black" d="M354.75,-440.59C331.51,-434.63 303.71,-426.57 279.5,-417 259.89,-409.24 239.03,-398.68 221.77,-389.26"/>
<polygon fill="black" stroke="black" points="223.04,-385.96 212.59,-384.17 219.64,-392.08 223.04,-385.96"/>
</a>
</g>
<text text-anchor="middle" x="335.5" y="-405.8" font-family="Times,serif" font-size="14.00">readyForPassengers</text>
</g>
<!-- SpecificFlight_state_planeAssigned&#45;&gt;SpecificFlight_state_cancelled -->
<g id="edge18" class="edge">
<title>SpecificFlight_state_planeAssigned&#45;&gt;SpecificFlight_state_cancelled</title>
<g id="a_edge18"><a xlink:title="From planeAssigned to cancelled on cancel">
<path fill="none" stroke="black" d="M415.64,-434.64C422.35,-424.69 431.35,-412.19 440.5,-402 443.82,-398.3 447.5,-394.59 451.23,-391.04"/>
<polygon fill="black" stroke="black" points="453.87,-393.36 458.88,-384.02 449.14,-388.2 453.87,-393.36"/>
</a>
</g>
<text text-anchor="middle" x="458.5" y="-405.8" font-family="Times,serif" font-size="14.00">cancel</text>
</g>
<!-- SpecificFlight_state_waitingForNextLeg -->
<g id="node4" class="node">
<title>SpecificFlight_state_waitingForNextLeg</title>
<g id="a_node4"><a xlink:title="Class SpecificFlight, SM state, State waitingForNextLeg">
<path fill="none" stroke="black" d="M115,-36C115,-36 12,-36 12,-36 6,-36 0,-30 0,-24 0,-24 0,-12 0,-12 0,-6 6,0 12,0 12,0 115,0 115,0 121,0 127,-6 127,-12 127,-12 127,-24 127,-24 127,-30 121,-36 115,-36"/>
<text text-anchor="middle" x="63.5" y="-14.3" font-family="Times,serif" font-size="14.00">waitingForNextLeg</text>
</a>
</g>
</g>
<!-- SpecificFlight_state_waitingForNextLeg&#45;&gt;SpecificFlight_state_boarding -->
<g id="edge7" class="edge">
<title>SpecificFlight_state_waitingForNextLeg&#45;&gt;SpecificFlight_state_boarding</title>
<g id="a_edge7"><a xlink:title="From waitingForNextLeg to boarding on readyForPassengers">
<path fill="none" stroke="black" d="M47.33,-36.05C33.73,-52.22 16.5,-77.86 16.5,-104 16.5,-280 16.5,-280 16.5,-280 16.5,-334.37 87.66,-353.97 137.08,-361.04"/>
<polygon fill="black" stroke="black" points="136.9,-364.54 147.26,-362.36 137.8,-357.6 136.9,-364.54"/>
</a>
</g>
<text text-anchor="middle" x="72.5" y="-188.3" font-family="Times,serif" font-size="14.00">readyForPassengers</text>
</g>
<!-- SpecificFlight_state_disembarking -->
<g id="node8" class="node">
<title>SpecificFlight_state_disembarking</title>
<g id="a_node8"><a xlink:title="Class SpecificFlight, SM state, State disembarking">
<path fill="none" stroke="black" d="M267,-123C267,-123 198,-123 198,-123 192,-123 186,-117 186,-111 186,-111 186,-99 186,-99 186,-93 192,-87 198,-87 198,-87 267,-87 267,-87 273,-87 279,-93 279,-99 279,-99 279,-111 279,-111 279,-117 273,-123 267,-123"/>
<text text-anchor="middle" x="232.5" y="-101.3" font-family="Times,serif" font-size="14.00">disembarking</text>
</a>
</g>
</g>
<!-- SpecificFlight_state_waitingForNextLeg&#45;&gt;SpecificFlight_state_disembarking -->
<g id="edge10" class="edge">
<title>SpecificFlight_state_waitingForNextLeg&#45;&gt;SpecificFlight_state_disembarking</title>
<g id="a_edge10"><a xlink:title="From waitingForNextLeg to disembarking on evacuate">
<path fill="none" stroke="black" d="M127.19,-25.51C151.53,-30.41 178.46,-38.99 199.5,-54 208.05,-60.1 214.98,-69.16 220.25,-77.9"/>
<polygon fill="black" stroke="black" points="217.24,-79.69 225.14,-86.76 223.37,-76.31 217.24,-79.69"/>
</a>
</g>
<text text-anchor="middle" x="239" y="-57.8" font-family="Times,serif" font-size="14.00">evacuate</text>
</g>
<!-- SpecificFlight_state_closedAtGate -->
<g id="node6" class="node">
<title>SpecificFlight_state_closedAtGate</title>
<g id="a_node6"><a xlink:title="Class SpecificFlight, SM state, State closedAtGate">
<path fill="none" stroke="black" d="M266,-297C266,-297 197,-297 197,-297 191,-297 185,-291 185,-285 185,-285 185,-273 185,-273 185,-267 191,-261 197,-261 197,-261 266,-261 266,-261 272,-261 278,-267 278,-273 278,-273 278,-285 278,-285 278,-291 272,-297 266,-297"/>
<text text-anchor="middle" x="231.5" y="-275.3" font-family="Times,serif" font-size="14.00">closedAtGate</text>
</a>
</g>
</g>
<!-- SpecificFlight_state_boarding&#45;&gt;SpecificFlight_state_closedAtGate -->
<g id="edge8" class="edge">
<title>SpecificFlight_state_boarding&#45;&gt;SpecificFlight_state_closedAtGate</title>
<g id="a_edge8"><a xlink:title="From boarding to closedAtGate on boardingComplete">
<path fill="none" stroke="black" d="M193.21,-347.8C199.98,-335.82 209.13,-319.62 216.79,-306.06"/>
<polygon fill="black" stroke="black" points="219.93,-307.6 221.8,-297.18 213.84,-304.16 219.93,-307.6"/>
</a>
</g>
<text text-anchor="middle" x="263" y="-318.8" font-family="Times,serif" font-size="14.00">boardingComplete</text>
</g>
<!-- SpecificFlight_state_boarding&#45;&gt;SpecificFlight_state_disembarking -->
<g id="edge11" class="edge">
<title>SpecificFlight_state_boarding&#45;&gt;SpecificFlight_state_disembarking</title>
<g id="a_edge11"><a xlink:title="From boarding to disembarking on evacuate">
<path fill="none" stroke="black" d="M178.33,-347.88C171.22,-321.69 160.37,-270.29 170.5,-228 179.04,-192.35 199.81,-155.36 214.96,-131.59"/>
<polygon fill="black" stroke="black" points="217.93,-133.45 220.46,-123.16 212.06,-129.62 217.93,-133.45"/>
</a>
</g>
<text text-anchor="middle" x="195" y="-231.8" font-family="Times,serif" font-size="14.00">evacuate</text>
</g>
<!-- SpecificFlight_state_underway -->
<g id="node7" class="node">
<title>SpecificFlight_state_underway</title>
<g id="a_node7"><a xlink:title="Class SpecificFlight, SM state, State underway">
<path fill="none" stroke="black" d="M338.5,-210C338.5,-210 290.5,-210 290.5,-210 284.5,-210 278.5,-204 278.5,-198 278.5,-198 278.5,-186 278.5,-186 278.5,-180 284.5,-174 290.5,-174 290.5,-174 338.5,-174 338.5,-174 344.5,-174 350.5,-180 350.5,-186 350.5,-186 350.5,-198 350.5,-198 350.5,-204 344.5,-210 338.5,-210"/>
<text text-anchor="middle" x="314.5" y="-188.3" font-family="Times,serif" font-size="14.00">underway</text>
</a>
</g>
</g>
<!-- SpecificFlight_state_closedAtGate&#45;&gt;SpecificFlight_state_underway -->
<g id="edge9" class="edge">
<title>SpecificFlight_state_closedAtGate&#45;&gt;SpecificFlight_state_underway</title>
<g id="a_edge9"><a xlink:title="From closedAtGate to underway on permissionToDepart">
<path fill="none" stroke="black" d="M246.12,-260.97C254.74,-251.13 265.99,-238.63 276.5,-228 280.11,-224.35 284.01,-220.58 287.89,-216.92"/>
<polygon fill="black" stroke="black" points="290.28,-219.47 295.23,-210.11 285.52,-214.34 290.28,-219.47"/>
</a>
</g>
<text text-anchor="middle" x="334" y="-231.8" font-family="Times,serif" font-size="14.00">permissionToDepart</text>
</g>
<!-- SpecificFlight_state_closedAtGate&#45;&gt;SpecificFlight_state_disembarking -->
<g id="edge12" class="edge">
<title>SpecificFlight_state_closedAtGate&#45;&gt;SpecificFlight_state_disembarking</title>
<g id="a_edge12"><a xlink:title="From closedAtGate to disembarking on evacuate">
<path fill="none" stroke="black" d="M227.93,-260.76C225.28,-247.07 221.9,-227.4 220.5,-210 219.22,-194.05 219.1,-189.94 220.5,-174 221.68,-160.51 224.15,-145.7 226.55,-133.34"/>
<polygon fill="black" stroke="black" points="230.05,-133.71 228.6,-123.22 223.19,-132.32 230.05,-133.71"/>
</a>
</g>
<text text-anchor="middle" x="245" y="-188.3" font-family="Times,serif" font-size="14.00">evacuate</text>
</g>
<!-- SpecificFlight_state_underway&#45;&gt;SpecificFlight_state_disembarking -->
<g id="edge13" class="edge">
<title>SpecificFlight_state_underway&#45;&gt;SpecificFlight_state_disembarking</title>
<g id="a_edge13"><a xlink:title="From underway to disembarking on evacuate">
<path fill="none" stroke="black" d="M278.24,-179.5C266.3,-174.09 253.92,-166.46 245.5,-156 240.34,-149.59 237.21,-141.35 235.31,-133.41"/>
<polygon fill="black" stroke="black" points="238.71,-132.54 233.47,-123.34 231.83,-133.8 238.71,-132.54"/>
</a>
</g>
<text text-anchor="middle" x="270" y="-144.8" font-family="Times,serif" font-size="14.00">evacuate</text>
</g>
<!-- SpecificFlight_state_underway&#45;&gt;SpecificFlight_state_disembarking -->
<g id="edge14" class="edge">
<title>SpecificFlight_state_underway&#45;&gt;SpecificFlight_state_disembarking</title>
<g id="a_edge14"><a xlink:title="From underway to disembarking on arriveAtGate">
<path fill="none" stroke="black" d="M310.69,-173.71C307.69,-163.29 302.63,-150.29 294.5,-141 290.54,-136.47 285.84,-132.4 280.83,-128.77"/>
<polygon fill="black" stroke="black" points="282.46,-125.65 272.18,-123.09 278.62,-131.51 282.46,-125.65"/>
</a>
</g>
<text text-anchor="middle" x="341.5" y="-144.8" font-family="Times,serif" font-size="14.00">arriveAtGate</text>
</g>
<!-- SpecificFlight_state_disembarking&#45;&gt;SpecificFlight_state_planeAssigned -->
<g id="edge4" class="edge">
<title>SpecificFlight_state_disembarking&#45;&gt;SpecificFlight_state_planeAssigned</title>
<g id="a_edge4"><a xlink:title="From disembarking to planeAssigned on passengersOut&#13;Guard: &#160;[!finished &amp;&amp; empty]">
<path fill="none" stroke="black" d="M279.12,-106.47C311.35,-109.08 353.49,-117.33 382.5,-141 401.45,-156.47 405.5,-166.54 405.5,-191 405.5,-367 405.5,-367 405.5,-367 405.5,-386.25 405.24,-407.95 404.99,-424.6"/>
<polygon fill="black" stroke="black" points="401.48,-424.69 404.82,-434.74 408.48,-424.8 401.48,-424.69"/>
</a>
</g>
<text text-anchor="middle" x="509.5" y="-275.3" font-family="Times,serif" font-size="14.00">passengersOut [!finished &amp;&amp; empty]</text>
</g>
<!-- SpecificFlight_state_disembarking&#45;&gt;SpecificFlight_state_waitingForNextLeg -->
<g id="edge5" class="edge">
<title>SpecificFlight_state_disembarking&#45;&gt;SpecificFlight_state_waitingForNextLeg</title>
<g id="a_edge5"><a xlink:title="From disembarking to waitingForNextLeg on passengersOut&#13;Guard: &#160;[!empty]">
<path fill="none" stroke="black" d="M185.77,-100.66C141.54,-96.43 79.72,-87.34 64.5,-69 59.28,-62.71 57.76,-54.27 57.93,-46.12"/>
<polygon fill="black" stroke="black" points="61.42,-46.43 58.9,-36.14 54.45,-45.76 61.42,-46.43"/>
</a>
</g>
<text text-anchor="middle" x="132" y="-57.8" font-family="Times,serif" font-size="14.00">passengersOut [!empty]</text>
</g>
<!-- SpecificFlight_state_disembarking&#45;&gt;SpecificFlight_state_disembarking -->
<g id="edge15" class="edge">
<title>SpecificFlight_state_disembarking&#45;&gt;SpecificFlight_state_disembarking</title>
<g id="a_edge15"><a xlink:title="From disembarking to disembarking on evacuate">
<path fill="none" stroke="black" d="M279.17,-112.66C289.49,-111.94 297,-109.39 297,-105 297,-102.26 294.07,-100.23 289.35,-98.92"/>
<polygon fill="black" stroke="black" points="289.59,-95.42 279.17,-97.34 288.52,-102.33 289.59,-95.42"/>
</a>
</g>
<text text-anchor="middle" x="321.5" y="-101.3" font-family="Times,serif" font-size="14.00">evacuate</text>
</g>
<!-- SpecificFlight_state_completed -->
<g id="node9" class="node">
<title>SpecificFlight_state_completed</title>
<g id="a_node9"><a xlink:title="Class SpecificFlight, SM state, State completed">
<path fill="none" stroke="black" d="M319,-36C319,-36 268,-36 268,-36 262,-36 256,-30 256,-24 256,-24 256,-12 256,-12 256,-6 262,0 268,0 268,0 319,0 319,0 325,0 331,-6 331,-12 331,-12 331,-24 331,-24 331,-30 325,-36 319,-36"/>
<text text-anchor="middle" x="293.5" y="-14.3" font-family="Times,serif" font-size="14.00">completed</text>
</a>
</g>
</g>
<!-- SpecificFlight_state_disembarking&#45;&gt;SpecificFlight_state_completed -->
<g id="edge16" class="edge">
<title>SpecificFlight_state_disembarking&#45;&gt;SpecificFlight_state_completed</title>
<g id="a_edge16"><a xlink:title="From disembarking to completed on passengersOut&#13;Guard: &#160;[finished &amp;&amp; empty]">
<path fill="none" stroke="black" d="M254.77,-86.94C260.73,-81.65 266.8,-75.48 271.5,-69 276.64,-61.9 280.94,-53.41 284.33,-45.46"/>
<polygon fill="black" stroke="black" points="287.59,-46.74 288.01,-36.16 281.08,-44.17 287.59,-46.74"/>
</a>
</g>
<text text-anchor="middle" x="382" y="-57.8" font-family="Times,serif" font-size="14.00">passengersOut [finished &amp;&amp; empty]</text>
</g>
</g>
</svg>
