<?xml version="1.0" encoding="UTF-8" standalone="no"?>
<!DOCTYPE svg PUBLIC "-//W3C//DTD SVG 1.1//EN"
 "http://www.w3.org/Graphics/SVG/1.1/DTD/svg11.dtd">
<!-- Generated by graphviz version 2.48.0 (20210717.1556)
 -->
<!-- Title: TcpIpSimulation Pages: 1 -->
<svg width="510pt" height="638pt"
 viewBox="0.00 0.00 510.00 638.40" xmlns="http://www.w3.org/2000/svg" xmlns:xlink="http://www.w3.org/1999/xlink">
<g id="graph0" class="graph" transform="scale(1 1) rotate(0) translate(4 634.4)">
<title>TcpIpSimulation</title>
<polygon fill="white" stroke="transparent" points="-4,4 -4,-634.4 506,-634.4 506,4 -4,4"/>
<!-- start_Tcp_connection -->
<g id="node1" class="node">
<title>start_Tcp_connection</title>
<g id="a_node1"><a xlink:title="Class Tcp, SM connection, State start">
<ellipse fill="black" stroke="black" cx="259" cy="-623.2" rx="7.2" ry="7.2"/>
</a>
</g>
</g>
<!-- Tcp_connection_Closed -->
<g id="node2" class="node">
<title>Tcp_connection_Closed</title>
<g id="a_node2"><a xlink:title="Class Tcp, SM connection, State Closed">
<path fill="none" stroke="black" d="M283,-579C283,-579 235,-579 235,-579 229,-579 223,-573 223,-567 223,-567 223,-555 223,-555 223,-549 229,-543 235,-543 235,-543 283,-543 283,-543 289,-543 295,-549 295,-555 295,-555 295,-567 295,-567 295,-573 289,-579 283,-579"/>
<text text-anchor="middle" x="259" y="-557.3" font-family="Times,serif" font-size="14.00">Closed</text>
</a>
</g>
</g>
<!-- start_Tcp_connection&#45;&gt;Tcp_connection_Closed -->
<g id="edge1" class="edge">
<title>start_Tcp_connection&#45;&gt;Tcp_connection_Closed</title>
<g id="a_edge1"><a xlink:title="start to Closed">
<path fill="none" stroke="black" d="M259,-615.76C259,-609.39 259,-599.2 259,-589.39"/>
<polygon fill="black" stroke="black" points="262.5,-589.1 259,-579.1 255.5,-589.1 262.5,-589.1"/>
</a>
</g>
</g>
<!-- Tcp_connection_Listen -->
<g id="node3" class="node">
<title>Tcp_connection_Listen</title>
<g id="a_node3"><a xlink:title="Class Tcp, SM connection, State Listen">
<path fill="none" stroke="black" d="M136,-492C136,-492 88,-492 88,-492 82,-492 76,-486 76,-480 76,-480 76,-468 76,-468 76,-462 82,-456 88,-456 88,-456 136,-456 136,-456 142,-456 148,-462 148,-468 148,-468 148,-480 148,-480 148,-486 142,-492 136,-492"/>
<text text-anchor="middle" x="112" y="-470.3" font-family="Times,serif" font-size="14.00">Listen</text>
</a>
</g>
</g>
<!-- Tcp_connection_Closed&#45;&gt;Tcp_connection_Listen -->
<g id="edge5" class="edge">
<title>Tcp_connection_Closed&#45;&gt;Tcp_connection_Listen</title>
<g id="a_edge5"><a xlink:title="From Closed to Listen on passiveOpen">
<path fill="none" stroke="black" d="M222.96,-556.67C183.2,-552.17 122.96,-542.6 109,-525 103.91,-518.58 102.97,-510.12 103.82,-501.98"/>
<polygon fill="black" stroke="black" points="107.28,-502.5 105.67,-492.02 100.4,-501.22 107.28,-502.5"/>
</a>
</g>
<text text-anchor="middle" x="145" y="-513.8" font-family="Times,serif" font-size="14.00">passiveOpen</text>
</g>
<!-- Tcp_connection_SYN_Sent -->
<g id="node5" class="node">
<title>Tcp_connection_SYN_Sent</title>
<g id="a_node5"><a xlink:title="Class Tcp, SM connection, State SYN_Sent">
<path fill="none" stroke="black" d="M290,-438C290,-438 238,-438 238,-438 232,-438 226,-432 226,-426 226,-426 226,-414 226,-414 226,-408 232,-402 238,-402 238,-402 290,-402 290,-402 296,-402 302,-408 302,-414 302,-414 302,-426 302,-426 302,-432 296,-438 290,-438"/>
<text text-anchor="middle" x="264" y="-416.3" font-family="Times,serif" font-size="14.00">SYN_Sent</text>
</a>
</g>
</g>
<!-- Tcp_connection_Closed&#45;&gt;Tcp_connection_SYN_Sent -->
<g id="edge7" class="edge">
<title>Tcp_connection_Closed&#45;&gt;Tcp_connection_SYN_Sent</title>
<g id="a_edge7"><a xlink:title="From Closed to SYN_Sent on activeOpen&#13;Transition Action:&#10; &#160;&#160;&#160;&#160;sendSyn();">
<path fill="none" stroke="black" d="M259.24,-542.87C259.4,-533.22 259.65,-520.93 260,-510 260.67,-489.26 261.74,-465.82 262.6,-448.2"/>
<polygon fill="black" stroke="black" points="266.1,-448.22 263.11,-438.06 259.11,-447.87 266.1,-448.22"/>
</a>
</g>
<text text-anchor="middle" x="328" y="-513.8" font-family="Times,serif" font-size="14.00">activeOpen / sendSyn();</text>
</g>
<!-- Tcp_connection_Listen&#45;&gt;Tcp_connection_Closed -->
<g id="edge2" class="edge">
<title>Tcp_connection_Listen&#45;&gt;Tcp_connection_Closed</title>
<g id="a_edge2"><a xlink:title="From Listen to Closed on close">
<path fill="none" stroke="black" d="M148.19,-491.06C160.1,-496.69 173.3,-503.29 185,-510 189.33,-512.49 208.07,-525.15 225.6,-537.1"/>
<polygon fill="black" stroke="black" points="223.81,-540.12 234.04,-542.87 227.76,-534.34 223.81,-540.12"/>
</a>
</g>
<text text-anchor="middle" x="220.5" y="-513.8" font-family="Times,serif" font-size="14.00">close</text>
</g>
<!-- Tcp_connection_SYN_Received -->
<g id="node4" class="node">
<title>Tcp_connection_SYN_Received</title>
<g id="a_node4"><a xlink:title="Class Tcp, SM connection, State SYN_Received">
<path fill="none" stroke="black" d="M163,-384C163,-384 83,-384 83,-384 77,-384 71,-378 71,-372 71,-372 71,-360 71,-360 71,-354 77,-348 83,-348 83,-348 163,-348 163,-348 169,-348 175,-354 175,-360 175,-360 175,-372 175,-372 175,-378 169,-384 163,-384"/>
<text text-anchor="middle" x="123" y="-362.3" font-family="Times,serif" font-size="14.00">SYN_Received</text>
</a>
</g>
</g>
<!-- Tcp_connection_Listen&#45;&gt;Tcp_connection_SYN_Received -->
<g id="edge6" class="edge">
<title>Tcp_connection_Listen&#45;&gt;Tcp_connection_SYN_Received</title>
<g id="a_edge6"><a xlink:title="From Listen to SYN_Received on syn&#13;Transition Action:&#10; &#160;&#160;&#160;&#160;sendSynAck();">
<path fill="none" stroke="black" d="M105.71,-455.82C101.31,-441.28 97.02,-419.99 102,-402 102.82,-399.02 103.98,-396.04 105.32,-393.15"/>
<polygon fill="black" stroke="black" points="108.43,-394.77 110.11,-384.31 102.27,-391.44 108.43,-394.77"/>
</a>
</g>
<text text-anchor="middle" x="159.5" y="-416.3" font-family="Times,serif" font-size="14.00">syn / sendSynAck();</text>
</g>
<!-- Tcp_connection_Established -->
<g id="node6" class="node">
<title>Tcp_connection_Established</title>
<g id="a_node6"><a xlink:title="Class Tcp, SM connection, State Established">
<path fill="none" stroke="black" d="M221.5,-297C221.5,-297 164.5,-297 164.5,-297 158.5,-297 152.5,-291 152.5,-285 152.5,-285 152.5,-273 152.5,-273 152.5,-267 158.5,-261 164.5,-261 164.5,-261 221.5,-261 221.5,-261 227.5,-261 233.5,-267 233.5,-273 233.5,-273 233.5,-285 233.5,-285 233.5,-291 227.5,-297 221.5,-297"/>
<text text-anchor="middle" x="193" y="-275.3" font-family="Times,serif" font-size="14.00">Established</text>
</a>
</g>
</g>
<!-- Tcp_connection_SYN_Received&#45;&gt;Tcp_connection_Established -->
<g id="edge8" class="edge">
<title>Tcp_connection_SYN_Received&#45;&gt;Tcp_connection_Established</title>
<g id="a_edge8"><a xlink:title="From SYN_Received to Established on ack">
<path fill="none" stroke="black" d="M137.17,-347.8C147.22,-335.59 160.89,-318.99 172.18,-305.28"/>
<polygon fill="black" stroke="black" points="175.2,-307.12 178.86,-297.18 169.8,-302.67 175.2,-307.12"/>
</a>
</g>
<text text-anchor="middle" x="173" y="-318.8" font-family="Times,serif" font-size="14.00">ack</text>
</g>
<!-- Tcp_connection_SYN_Sent&#45;&gt;Tcp_connection_Established -->
<g id="edge9" class="edge">
<title>Tcp_connection_SYN_Sent&#45;&gt;Tcp_connection_Established</title>
<g id="a_edge9"><a xlink:title="From SYN_Sent to Established on synAck&#13;Transition Action:&#10; &#160;&#160;&#160;&#160;sendAck();">
<path fill="none" stroke="black" d="M255.29,-401.96C243.1,-378.09 220.84,-334.5 206.49,-306.41"/>
<polygon fill="black" stroke="black" points="209.44,-304.5 201.78,-297.18 203.21,-307.68 209.44,-304.5"/>
</a>
</g>
<text text-anchor="middle" x="304" y="-362.3" font-family="Times,serif" font-size="14.00">synAck / sendAck();</text>
</g>
<!-- Tcp_connection_Established&#45;&gt;Tcp_connection_Established -->
<g id="edge10" class="edge">
<title>Tcp_connection_Established&#45;&gt;Tcp_connection_Established</title>
<g id="a_edge10"><a xlink:title="From Established to Established on data&#13;Transition Action:&#10; &#160;&#160;&#160;&#160;sendData();">
<path fill="none" stroke="black" d="M233.73,-286.77C243.9,-286.22 251.5,-283.63 251.5,-279 251.5,-276.1 248.53,-274.01 243.82,-272.71"/>
<polygon fill="black" stroke="black" points="244.14,-269.22 233.73,-271.23 243.12,-276.14 244.14,-269.22"/>
</a>
</g>
<text text-anchor="middle" x="301.5" y="-275.3" font-family="Times,serif" font-size="14.00">data / sendData();</text>
</g>
<!-- Tcp_connection_Close_Wait -->
<g id="node7" class="node">
<title>Tcp_connection_Close_Wait</title>
<g id="a_node7"><a xlink:title="Class Tcp, SM connection, State Close_Wait">
<path fill="none" stroke="black" d="M281.5,-210C281.5,-210 224.5,-210 224.5,-210 218.5,-210 212.5,-204 212.5,-198 212.5,-198 212.5,-186 212.5,-186 212.5,-180 218.5,-174 224.5,-174 224.5,-174 281.5,-174 281.5,-174 287.5,-174 293.5,-180 293.5,-186 293.5,-186 293.5,-198 293.5,-198 293.5,-204 287.5,-210 281.5,-210"/>
<text text-anchor="middle" x="253" y="-188.3" font-family="Times,serif" font-size="14.00">Close_Wait</text>
</a>
</g>
</g>
<!-- Tcp_connection_Established&#45;&gt;Tcp_connection_Close_Wait -->
<g id="edge11" class="edge">
<title>Tcp_connection_Established&#45;&gt;Tcp_connection_Close_Wait</title>
<g id="a_edge11"><a xlink:title="From Established to Close_Wait on fin&#13;Transition Action:&#10; &#160;&#160;&#160;&#160;sendAck();">
<path fill="none" stroke="black" d="M215.35,-260.99C221.3,-255.7 227.36,-249.52 232,-243 236.99,-235.99 241.09,-227.61 244.31,-219.73"/>
<polygon fill="black" stroke="black" points="247.66,-220.76 247.9,-210.17 241.11,-218.3 247.66,-220.76"/>
</a>
</g>
<text text-anchor="middle" x="284" y="-231.8" font-family="Times,serif" font-size="14.00">fin / sendAck();</text>
</g>
<!-- Tcp_connection_FIN_Wait_1 -->
<g id="node9" class="node">
<title>Tcp_connection_FIN_Wait_1</title>
<g id="a_node9"><a xlink:title="Class Tcp, SM connection, State FIN_Wait_1">
<path fill="none" stroke="black" d="M138,-210C138,-210 76,-210 76,-210 70,-210 64,-204 64,-198 64,-198 64,-186 64,-186 64,-180 70,-174 76,-174 76,-174 138,-174 138,-174 144,-174 150,-180 150,-186 150,-186 150,-198 150,-198 150,-204 144,-210 138,-210"/>
<text text-anchor="middle" x="107" y="-188.3" font-family="Times,serif" font-size="14.00">FIN_Wait_1</text>
</a>
</g>
</g>
<!-- Tcp_connection_Established&#45;&gt;Tcp_connection_FIN_Wait_1 -->
<g id="edge13" class="edge">
<title>Tcp_connection_Established&#45;&gt;Tcp_connection_FIN_Wait_1</title>
<g id="a_edge13"><a xlink:title="From Established to FIN_Wait_1 on activeClose&#13;Transition Action:&#10; &#160;&#160;&#160;&#160;sendFin();">
<path fill="none" stroke="black" d="M152.35,-274.55C131.26,-270.46 107.21,-261.68 94,-243 89.14,-236.13 89.59,-227.57 92.11,-219.5"/>
<polygon fill="black" stroke="black" points="95.44,-220.6 95.99,-210.02 88.96,-217.95 95.44,-220.6"/>
</a>
</g>
<text text-anchor="middle" x="161" y="-231.8" font-family="Times,serif" font-size="14.00">activeClose / sendFin();</text>
</g>
<!-- Tcp_connection_Last_ACK -->
<g id="node8" class="node">
<title>Tcp_connection_Last_ACK</title>
<g id="a_node8"><a xlink:title="Class Tcp, SM connection, State Last_ACK">
<path fill="none" stroke="black" d="M412.5,-123C412.5,-123 359.5,-123 359.5,-123 353.5,-123 347.5,-117 347.5,-111 347.5,-111 347.5,-99 347.5,-99 347.5,-93 353.5,-87 359.5,-87 359.5,-87 412.5,-87 412.5,-87 418.5,-87 424.5,-93 424.5,-99 424.5,-99 424.5,-111 424.5,-111 424.5,-117 418.5,-123 412.5,-123"/>
<text text-anchor="middle" x="386" y="-101.3" font-family="Times,serif" font-size="14.00">Last_ACK</text>
</a>
</g>
</g>
<!-- Tcp_connection_Close_Wait&#45;&gt;Tcp_connection_Last_ACK -->
<g id="edge12" class="edge">
<title>Tcp_connection_Close_Wait&#45;&gt;Tcp_connection_Last_ACK</title>
<g id="a_edge12"><a xlink:title="From Close_Wait to Last_ACK on passiveClose&#13;Transition Action:&#10; &#160;&#160;&#160;&#160;sendFin();">
<path fill="none" stroke="black" d="M248.5,-173.94C246.79,-163.35 246.72,-150.08 254,-141 275.18,-114.6 295.31,-131.76 328,-123 331.14,-122.16 334.37,-121.27 337.63,-120.36"/>
<polygon fill="black" stroke="black" points="338.72,-123.69 347.38,-117.59 336.81,-116.96 338.72,-123.69"/>
</a>
</g>
<text text-anchor="middle" x="325" y="-144.8" font-family="Times,serif" font-size="14.00">passiveClose / sendFin();</text>
</g>
<!-- Tcp_connection_Last_ACK&#45;&gt;Tcp_connection_Closed -->
<g id="edge3" class="edge">
<title>Tcp_connection_Last_ACK&#45;&gt;Tcp_connection_Closed</title>
<g id="a_edge3"><a xlink:title="From Last_ACK to Closed on ack">
<path fill="none" stroke="black" d="M393.86,-123.18C400.86,-140.07 410,-166.77 410,-191 410,-475 410,-475 410,-475 410,-498.08 412.5,-508.87 396,-525 372.13,-548.33 334.97,-556.75 305.37,-559.52"/>
<polygon fill="black" stroke="black" points="304.96,-556.04 295.25,-560.28 305.48,-563.02 304.96,-556.04"/>
</a>
</g>
<text text-anchor="middle" x="420" y="-318.8" font-family="Times,serif" font-size="14.00">ack</text>
</g>
<!-- Tcp_connection_FIN_Wait_2 -->
<g id="node10" class="node">
<title>Tcp_connection_FIN_Wait_2</title>
<g id="a_node10"><a xlink:title="Class Tcp, SM connection, State FIN_Wait_2">
<path fill="none" stroke="black" d="M74,-123C74,-123 12,-123 12,-123 6,-123 0,-117 0,-111 0,-111 0,-99 0,-99 0,-93 6,-87 12,-87 12,-87 74,-87 74,-87 80,-87 86,-93 86,-99 86,-99 86,-111 86,-111 86,-117 80,-123 74,-123"/>
<text text-anchor="middle" x="43" y="-101.3" font-family="Times,serif" font-size="14.00">FIN_Wait_2</text>
</a>
</g>
</g>
<!-- Tcp_connection_FIN_Wait_1&#45;&gt;Tcp_connection_FIN_Wait_2 -->
<g id="edge14" class="edge">
<title>Tcp_connection_FIN_Wait_1&#45;&gt;Tcp_connection_FIN_Wait_2</title>
<g id="a_edge14"><a xlink:title="From FIN_Wait_1 to FIN_Wait_2 on ack">
<path fill="none" stroke="black" d="M94.05,-173.8C84.85,-161.59 72.36,-144.99 62.03,-131.28"/>
<polygon fill="black" stroke="black" points="64.74,-129.06 55.93,-123.18 59.15,-133.27 64.74,-129.06"/>
</a>
</g>
<text text-anchor="middle" x="89" y="-144.8" font-family="Times,serif" font-size="14.00">ack</text>
</g>
<!-- Tcp_connection_Closing -->
<g id="node11" class="node">
<title>Tcp_connection_Closing</title>
<g id="a_node11"><a xlink:title="Class Tcp, SM connection, State Closing">
<path fill="none" stroke="black" d="M164,-123C164,-123 116,-123 116,-123 110,-123 104,-117 104,-111 104,-111 104,-99 104,-99 104,-93 110,-87 116,-87 116,-87 164,-87 164,-87 170,-87 176,-93 176,-99 176,-99 176,-111 176,-111 176,-117 170,-123 164,-123"/>
<text text-anchor="middle" x="140" y="-101.3" font-family="Times,serif" font-size="14.00">Closing</text>
</a>
</g>
</g>
<!-- Tcp_connection_FIN_Wait_1&#45;&gt;Tcp_connection_Closing -->
<g id="edge15" class="edge">
<title>Tcp_connection_FIN_Wait_1&#45;&gt;Tcp_connection_Closing</title>
<g id="a_edge15"><a xlink:title="From FIN_Wait_1 to Closing on fin&#13;Transition Action:&#10; &#160;&#160;&#160;&#160;sendAck();">
<path fill="none" stroke="black" d="M105.37,-173.74C105.08,-163.82 105.83,-151.32 110,-141 111.4,-137.53 113.29,-134.16 115.45,-130.97"/>
<polygon fill="black" stroke="black" points="118.26,-133.05 121.61,-123 112.72,-128.77 118.26,-133.05"/>
</a>
</g>
<text text-anchor="middle" x="154" y="-144.8" font-family="Times,serif" font-size="14.00">fin / sendAck();</text>
</g>
<!-- Tcp_connection_Timed_Wait -->
<g id="node12" class="node">
<title>Tcp_connection_Timed_Wait</title>
<g id="a_node12"><a xlink:title="Class Tcp, SM connection, State Timed_Wait">
<path fill="none" stroke="black" d="M219,-36C219,-36 157,-36 157,-36 151,-36 145,-30 145,-24 145,-24 145,-12 145,-12 145,-6 151,0 157,0 157,0 219,0 219,0 225,0 231,-6 231,-12 231,-12 231,-24 231,-24 231,-30 225,-36 219,-36"/>
<text text-anchor="middle" x="188" y="-14.3" font-family="Times,serif" font-size="14.00">Timed_Wait</text>
</a>
</g>
</g>
<!-- Tcp_connection_FIN_Wait_1&#45;&gt;Tcp_connection_Timed_Wait -->
<g id="edge16" class="edge">
<title>Tcp_connection_FIN_Wait_1&#45;&gt;Tcp_connection_Timed_Wait</title>
<g id="a_edge16"><a xlink:title="From FIN_Wait_1 to Timed_Wait on finAck&#13;Transition Action:&#10; &#160;&#160;&#160;&#160;sendAck();">
<path fill="none" stroke="black" d="M150.32,-185.2C168.17,-180.43 187.17,-171.77 198,-156 220.34,-123.47 209.62,-75.75 199.25,-46.07"/>
<polygon fill="black" stroke="black" points="202.41,-44.53 195.64,-36.38 195.85,-46.97 202.41,-44.53"/>
</a>
</g>
<text text-anchor="middle" x="267" y="-101.3" font-family="Times,serif" font-size="14.00">finAck / sendAck();</text>
</g>
<!-- Tcp_connection_FIN_Wait_2&#45;&gt;Tcp_connection_Timed_Wait -->
<g id="edge17" class="edge">
<title>Tcp_connection_FIN_Wait_2&#45;&gt;Tcp_connection_Timed_Wait</title>
<g id="a_edge17"><a xlink:title="From FIN_Wait_2 to Timed_Wait on fin&#13;Transition Action:&#10; &#160;&#160;&#160;&#160;sendAck();">
<path fill="none" stroke="black" d="M48.37,-86.92C52.62,-76.04 59.58,-62.46 70,-54 88.41,-39.05 113.04,-30.48 135.04,-25.58"/>
<polygon fill="black" stroke="black" points="135.82,-28.99 144.92,-23.57 134.43,-22.13 135.82,-28.99"/>
</a>
</g>
<text text-anchor="middle" x="114" y="-57.8" font-family="Times,serif" font-size="14.00">fin / sendAck();</text>
</g>
<!-- Tcp_connection_Closing&#45;&gt;Tcp_connection_Timed_Wait -->
<g id="edge18" class="edge">
<title>Tcp_connection_Closing&#45;&gt;Tcp_connection_Timed_Wait</title>
<g id="a_edge18"><a xlink:title="From Closing to Timed_Wait on ack">
<path fill="none" stroke="black" d="M149.71,-86.8C156.48,-74.82 165.63,-58.62 173.29,-45.06"/>
<polygon fill="black" stroke="black" points="176.43,-46.6 178.3,-36.18 170.34,-43.16 176.43,-46.6"/>
</a>
</g>
<text text-anchor="middle" x="177" y="-57.8" font-family="Times,serif" font-size="14.00">ack</text>
</g>
<!-- Tcp_connection_Timed_Wait&#45;&gt;Tcp_connection_Closed -->
<g id="edge4" class="edge">
<title>Tcp_connection_Timed_Wait&#45;&gt;Tcp_connection_Closed</title>
<g id="a_edge4"><a xlink:title="From Timed_Wait to Closed on timeOut">
<path fill="none" stroke="black" d="M231.06,-23.64C306.82,-33.01 456,-57.38 456,-104 456,-475 456,-475 456,-475 456,-540.36 363.45,-556.05 305.22,-559.46"/>
<polygon fill="black" stroke="black" points="304.95,-555.97 295.13,-559.95 305.29,-562.96 304.95,-555.97"/>
</a>
</g>
<text text-anchor="middle" x="479" y="-275.3" font-family="Times,serif" font-size="14.00">timeOut</text>
</g>
</g>
</svg>
