<?xml version="1.0" encoding="UTF-8" standalone="no"?>
<!DOCTYPE svg PUBLIC "-//W3C//DTD SVG 1.1//EN"
 "http://www.w3.org/Graphics/SVG/1.1/DTD/svg11.dtd">
<!-- Generated by graphviz version 2.40.1 (20161225.0304)
 -->
<!-- Title: TcpIpSimulation Pages: 1 -->
<svg width="505pt" height="633pt"
 viewBox="0.00 0.00 504.71 633.40" xmlns="http://www.w3.org/2000/svg" xmlns:xlink="http://www.w3.org/1999/xlink">
<g id="graph0" class="graph" transform="scale(1 1) rotate(0) translate(4 629.4)">
<title>TcpIpSimulation</title>
<polygon fill="#ffffff" stroke="transparent" points="-4,4 -4,-629.4 500.7085,-629.4 500.7085,4 -4,4"/>
<!-- start_Tcp_connection -->
<g id="node1" class="node">
<title>start_Tcp_connection</title>
<g id="a_node1"><a xlink:title="Class Tcp, SM connection, State start">
<ellipse fill="#000000" stroke="#000000" cx="254.8257" cy="-618.2" rx="7.2" ry="7.2"/>
</a>
</g>
</g>
<!-- Tcp_connection_Closed -->
<g id="node2" class="node">
<title>Tcp_connection_Closed</title>
<g id="a_node2"><a xlink:title="Class Tcp, SM connection, State Closed">
<path fill="none" stroke="#000000" d="M278.8257,-574C278.8257,-574 230.8257,-574 230.8257,-574 224.8257,-574 218.8257,-568 218.8257,-562 218.8257,-562 218.8257,-550 218.8257,-550 218.8257,-544 224.8257,-538 230.8257,-538 230.8257,-538 278.8257,-538 278.8257,-538 284.8257,-538 290.8257,-544 290.8257,-550 290.8257,-550 290.8257,-562 290.8257,-562 290.8257,-568 284.8257,-574 278.8257,-574"/>
<text text-anchor="middle" x="254.8257" y="-551.8" font-family="Times,serif" font-size="14.00" fill="#000000">Closed</text>
</a>
</g>
</g>
<!-- start_Tcp_connection&#45;&gt;Tcp_connection_Closed -->
<g id="edge1" class="edge">
<title>start_Tcp_connection&#45;&gt;Tcp_connection_Closed</title>
<g id="a_edge1"><a xlink:title="start to Closed">
<path fill="none" stroke="#000000" d="M254.8257,-610.5731C254.8257,-603.9503 254.8257,-593.9322 254.8257,-584.2795"/>
<polygon fill="#000000" stroke="#000000" points="258.3258,-584.1266 254.8257,-574.1266 251.3258,-584.1267 258.3258,-584.1266"/>
</a>
</g>
</g>
<!-- Tcp_connection_Listen -->
<g id="node3" class="node">
<title>Tcp_connection_Listen</title>
<g id="a_node3"><a xlink:title="Class Tcp, SM connection, State Listen">
<path fill="none" stroke="#000000" d="M131.8257,-488C131.8257,-488 83.8257,-488 83.8257,-488 77.8257,-488 71.8257,-482 71.8257,-476 71.8257,-476 71.8257,-464 71.8257,-464 71.8257,-458 77.8257,-452 83.8257,-452 83.8257,-452 131.8257,-452 131.8257,-452 137.8257,-452 143.8257,-458 143.8257,-464 143.8257,-464 143.8257,-476 143.8257,-476 143.8257,-482 137.8257,-488 131.8257,-488"/>
<text text-anchor="middle" x="107.8257" y="-465.8" font-family="Times,serif" font-size="14.00" fill="#000000">Listen</text>
</a>
</g>
</g>
<!-- Tcp_connection_Closed&#45;&gt;Tcp_connection_Listen -->
<g id="edge5" class="edge">
<title>Tcp_connection_Closed&#45;&gt;Tcp_connection_Listen</title>
<g id="a_edge5"><a xlink:title="From Closed to Listen on passiveOpen">
<path fill="none" stroke="#000000" d="M218.5299,-552.3659C178.8745,-547.5578 119.1275,-537.5671 105.2876,-520 100.5542,-513.9918 99.3749,-506.2061 99.8656,-498.5748"/>
<polygon fill="#000000" stroke="#000000" points="103.3628,-498.8557 101.3929,-488.4456 96.441,-497.812 103.3628,-498.8557"/>
</a>
</g>
<text text-anchor="middle" x="141.5947" y="-508.8" font-family="Times,serif" font-size="14.00" fill="#000000">passiveOpen</text>
</g>
<!-- Tcp_connection_SYN_Sent -->
<g id="node5" class="node">
<title>Tcp_connection_SYN_Sent</title>
<g id="a_node5"><a xlink:title="Class Tcp, SM connection, State SYN_Sent">
<path fill="none" stroke="#000000" d="M285.7222,-434C285.7222,-434 233.9291,-434 233.9291,-434 227.9291,-434 221.9291,-428 221.9291,-422 221.9291,-422 221.9291,-410 221.9291,-410 221.9291,-404 227.9291,-398 233.9291,-398 233.9291,-398 285.7222,-398 285.7222,-398 291.7222,-398 297.7222,-404 297.7222,-410 297.7222,-410 297.7222,-422 297.7222,-422 297.7222,-428 291.7222,-434 285.7222,-434"/>
<text text-anchor="middle" x="259.8257" y="-411.8" font-family="Times,serif" font-size="14.00" fill="#000000">SYN_Sent</text>
</a>
</g>
</g>
<!-- Tcp_connection_Closed&#45;&gt;Tcp_connection_SYN_Sent -->
<g id="edge7" class="edge">
<title>Tcp_connection_Closed&#45;&gt;Tcp_connection_SYN_Sent</title>
<g id="a_edge7"><a xlink:title="From Closed to SYN_Sent on activeOpen&#13;Transition Action:&#10; &#160;&#160;&#160;&#160;sendSyn();">
<path fill="none" stroke="#000000" d="M254.9331,-537.945C255.0267,-528.4381 255.2018,-516.5863 255.5288,-506 256.1648,-485.4127 257.2833,-462.1938 258.2197,-444.4968"/>
<polygon fill="#000000" stroke="#000000" points="261.7279,-444.4389 258.7733,-434.2644 254.7381,-444.0607 261.7279,-444.4389"/>
</a>
</g>
<text text-anchor="middle" x="322.4741" y="-508.8" font-family="Times,serif" font-size="14.00" fill="#000000">activeOpen / sendSyn();</text>
</g>
<!-- Tcp_connection_Listen&#45;&gt;Tcp_connection_Closed -->
<g id="edge2" class="edge">
<title>Tcp_connection_Listen&#45;&gt;Tcp_connection_Closed</title>
<g id="a_edge2"><a xlink:title="From Listen to Closed on close">
<path fill="none" stroke="#000000" d="M143.9812,-486.6252C155.8967,-492.421 169.095,-499.1868 180.8257,-506 194.4428,-513.9088 208.9024,-523.412 221.3928,-531.9997"/>
<polygon fill="#000000" stroke="#000000" points="219.4821,-534.934 229.6909,-537.7679 223.4775,-529.1863 219.4821,-534.934"/>
</a>
</g>
<text text-anchor="middle" x="215.2085" y="-508.8" font-family="Times,serif" font-size="14.00" fill="#000000">close</text>
</g>
<!-- Tcp_connection_SYN_Received -->
<g id="node4" class="node">
<title>Tcp_connection_SYN_Received</title>
<g id="a_node4"><a xlink:title="Class Tcp, SM connection, State SYN_Received">
<path fill="none" stroke="#000000" d="M159.4156,-380C159.4156,-380 80.2358,-380 80.2358,-380 74.2358,-380 68.2358,-374 68.2358,-368 68.2358,-368 68.2358,-356 68.2358,-356 68.2358,-350 74.2358,-344 80.2358,-344 80.2358,-344 159.4156,-344 159.4156,-344 165.4156,-344 171.4156,-350 171.4156,-356 171.4156,-356 171.4156,-368 171.4156,-368 171.4156,-374 165.4156,-380 159.4156,-380"/>
<text text-anchor="middle" x="119.8257" y="-357.8" font-family="Times,serif" font-size="14.00" fill="#000000">SYN_Received</text>
</a>
</g>
</g>
<!-- Tcp_connection_Listen&#45;&gt;Tcp_connection_SYN_Received -->
<g id="edge6" class="edge">
<title>Tcp_connection_Listen&#45;&gt;Tcp_connection_SYN_Received</title>
<g id="a_edge6"><a xlink:title="From Listen to SYN_Received on syn&#13;Transition Action:&#10; &#160;&#160;&#160;&#160;sendSynAck();">
<path fill="none" stroke="#000000" d="M101.6158,-451.9752C97.4593,-437.2449 93.5728,-415.9916 98.5015,-398 99.3195,-395.0137 100.4564,-392.0238 101.7832,-389.1143"/>
<polygon fill="#000000" stroke="#000000" points="104.9188,-390.6719 106.5105,-380.1973 98.7342,-387.3931 104.9188,-390.6719"/>
</a>
</g>
<text text-anchor="middle" x="155.9878" y="-411.8" font-family="Times,serif" font-size="14.00" fill="#000000">syn / sendSynAck();</text>
</g>
<!-- Tcp_connection_Established -->
<g id="node6" class="node">
<title>Tcp_connection_Established</title>
<g id="a_node6"><a xlink:title="Class Tcp, SM connection, State Established">
<path fill="none" stroke="#000000" d="M217.8719,-294C217.8719,-294 161.7795,-294 161.7795,-294 155.7795,-294 149.7795,-288 149.7795,-282 149.7795,-282 149.7795,-270 149.7795,-270 149.7795,-264 155.7795,-258 161.7795,-258 161.7795,-258 217.8719,-258 217.8719,-258 223.8719,-258 229.8719,-264 229.8719,-270 229.8719,-270 229.8719,-282 229.8719,-282 229.8719,-288 223.8719,-294 217.8719,-294"/>
<text text-anchor="middle" x="189.8257" y="-271.8" font-family="Times,serif" font-size="14.00" fill="#000000">Established</text>
</a>
</g>
</g>
<!-- Tcp_connection_SYN_Received&#45;&gt;Tcp_connection_Established -->
<g id="edge8" class="edge">
<title>Tcp_connection_SYN_Received&#45;&gt;Tcp_connection_Established</title>
<g id="a_edge8"><a xlink:title="From SYN_Received to Established on ack">
<path fill="none" stroke="#000000" d="M134.6709,-343.7616C144.5084,-331.6756 157.5684,-315.6304 168.5104,-302.1874"/>
<polygon fill="#000000" stroke="#000000" points="171.4036,-304.1772 175.0019,-294.2121 165.9747,-299.7583 171.4036,-304.1772"/>
</a>
</g>
<text text-anchor="middle" x="169.5396" y="-314.8" font-family="Times,serif" font-size="14.00" fill="#000000">ack</text>
</g>
<!-- Tcp_connection_SYN_Sent&#45;&gt;Tcp_connection_Established -->
<g id="edge9" class="edge">
<title>Tcp_connection_SYN_Sent&#45;&gt;Tcp_connection_Established</title>
<g id="a_edge9"><a xlink:title="From SYN_Sent to Established on synAck&#13;Transition Action:&#10; &#160;&#160;&#160;&#160;sendAck();">
<path fill="none" stroke="#000000" d="M250.8177,-397.9841C238.8605,-374.0696 217.6309,-331.6105 203.6408,-303.6303"/>
<polygon fill="#000000" stroke="#000000" points="206.624,-301.7704 199.0214,-294.3914 200.3631,-304.9009 206.624,-301.7704"/>
</a>
</g>
<text text-anchor="middle" x="297.7568" y="-357.8" font-family="Times,serif" font-size="14.00" fill="#000000">synAck / sendAck();</text>
</g>
<!-- Tcp_connection_Established&#45;&gt;Tcp_connection_Established -->
<g id="edge10" class="edge">
<title>Tcp_connection_Established&#45;&gt;Tcp_connection_Established</title>
<g id="a_edge10"><a xlink:title="From Established to Established on data&#13;Transition Action:&#10; &#160;&#160;&#160;&#160;sendData();">
<path fill="none" stroke="#000000" d="M230.1328,-283.7808C240.3944,-283.2694 248.0981,-280.6758 248.0981,-276 248.0981,-273.0776 245.0889,-270.9686 240.3266,-269.673"/>
<polygon fill="#000000" stroke="#000000" points="240.5268,-266.1662 230.1328,-268.2192 239.5384,-273.0961 240.5268,-266.1662"/>
</a>
</g>
<text text-anchor="middle" x="297.8535" y="-271.8" font-family="Times,serif" font-size="14.00" fill="#000000">data / sendData();</text>
</g>
<!-- Tcp_connection_Close_Wait -->
<g id="node7" class="node">
<title>Tcp_connection_Close_Wait</title>
<g id="a_node7"><a xlink:title="Class Tcp, SM connection, State Close_Wait">
<path fill="none" stroke="#000000" d="M277.3081,-208C277.3081,-208 220.3433,-208 220.3433,-208 214.3433,-208 208.3433,-202 208.3433,-196 208.3433,-196 208.3433,-184 208.3433,-184 208.3433,-178 214.3433,-172 220.3433,-172 220.3433,-172 277.3081,-172 277.3081,-172 283.3081,-172 289.3081,-178 289.3081,-184 289.3081,-184 289.3081,-196 289.3081,-196 289.3081,-202 283.3081,-208 277.3081,-208"/>
<text text-anchor="middle" x="248.8257" y="-185.8" font-family="Times,serif" font-size="14.00" fill="#000000">Close_Wait</text>
</a>
</g>
</g>
<!-- Tcp_connection_Established&#45;&gt;Tcp_connection_Close_Wait -->
<g id="edge11" class="edge">
<title>Tcp_connection_Established&#45;&gt;Tcp_connection_Close_Wait</title>
<g id="a_edge11"><a xlink:title="From Established to Close_Wait on fin&#13;Transition Action:&#10; &#160;&#160;&#160;&#160;sendAck();">
<path fill="none" stroke="#000000" d="M211.9608,-257.9625C217.6334,-252.6 223.3804,-246.4281 227.8257,-240 232.57,-233.1395 236.5456,-225.0392 239.7164,-217.3788"/>
<polygon fill="#000000" stroke="#000000" points="242.986,-218.6277 243.2996,-208.0375 236.4503,-216.1207 242.986,-218.6277"/>
</a>
</g>
<text text-anchor="middle" x="278.7637" y="-228.8" font-family="Times,serif" font-size="14.00" fill="#000000">fin / sendAck();</text>
</g>
<!-- Tcp_connection_FIN_Wait_1 -->
<g id="node9" class="node">
<title>Tcp_connection_FIN_Wait_1</title>
<g id="a_node9"><a xlink:title="Class Tcp, SM connection, State FIN_Wait_1">
<path fill="none" stroke="#000000" d="M133.4778,-208C133.4778,-208 72.1736,-208 72.1736,-208 66.1736,-208 60.1736,-202 60.1736,-196 60.1736,-196 60.1736,-184 60.1736,-184 60.1736,-178 66.1736,-172 72.1736,-172 72.1736,-172 133.4778,-172 133.4778,-172 139.4778,-172 145.4778,-178 145.4778,-184 145.4778,-184 145.4778,-196 145.4778,-196 145.4778,-202 139.4778,-208 133.4778,-208"/>
<text text-anchor="middle" x="102.8257" y="-185.8" font-family="Times,serif" font-size="14.00" fill="#000000">FIN_Wait_1</text>
</a>
</g>
</g>
<!-- Tcp_connection_Established&#45;&gt;Tcp_connection_FIN_Wait_1 -->
<g id="edge13" class="edge">
<title>Tcp_connection_Established&#45;&gt;Tcp_connection_FIN_Wait_1</title>
<g id="a_edge13"><a xlink:title="From Established to FIN_Wait_1 on activeClose&#13;Transition Action:&#10; &#160;&#160;&#160;&#160;sendFin();">
<path fill="none" stroke="#000000" d="M149.6311,-266.5126C125.1756,-259.8356 97.2951,-250.2834 90.0737,-240 85.5127,-233.5049 85.6357,-225.5171 87.7471,-217.8477"/>
<polygon fill="#000000" stroke="#000000" points="91.041,-219.0317 91.2819,-208.4396 84.4883,-216.5696 91.041,-219.0317"/>
</a>
</g>
<text text-anchor="middle" x="157.7017" y="-228.8" font-family="Times,serif" font-size="14.00" fill="#000000">activeClose / sendFin();</text>
</g>
<!-- Tcp_connection_Last_ACK -->
<g id="node8" class="node">
<title>Tcp_connection_Last_ACK</title>
<g id="a_node8"><a xlink:title="Class Tcp, SM connection, State Last_ACK">
<path fill="none" stroke="#000000" d="M409.9885,-122C409.9885,-122 357.6628,-122 357.6628,-122 351.6628,-122 345.6628,-116 345.6628,-110 345.6628,-110 345.6628,-98 345.6628,-98 345.6628,-92 351.6628,-86 357.6628,-86 357.6628,-86 409.9885,-86 409.9885,-86 415.9885,-86 421.9885,-92 421.9885,-98 421.9885,-98 421.9885,-110 421.9885,-110 421.9885,-116 415.9885,-122 409.9885,-122"/>
<text text-anchor="middle" x="383.8257" y="-99.8" font-family="Times,serif" font-size="14.00" fill="#000000">Last_ACK</text>
</a>
</g>
</g>
<!-- Tcp_connection_Close_Wait&#45;&gt;Tcp_connection_Last_ACK -->
<g id="edge12" class="edge">
<title>Tcp_connection_Close_Wait&#45;&gt;Tcp_connection_Last_ACK</title>
<g id="a_edge12"><a xlink:title="From Close_Wait to Last_ACK on passiveClose&#13;Transition Action:&#10; &#160;&#160;&#160;&#160;sendFin();">
<path fill="none" stroke="#000000" d="M243.917,-171.9842C242.2137,-161.5601 242.2207,-148.804 249.2808,-140 271.4151,-112.3981 292.6984,-131.3342 326.8257,-122 329.7833,-121.1911 332.8175,-120.3291 335.8712,-119.4371"/>
<polygon fill="#000000" stroke="#000000" points="337.0472,-122.7385 345.6208,-116.514 335.0369,-116.0333 337.0472,-122.7385"/>
</a>
</g>
<text text-anchor="middle" x="319.5981" y="-142.8" font-family="Times,serif" font-size="14.00" fill="#000000">passiveClose / sendFin();</text>
</g>
<!-- Tcp_connection_Last_ACK&#45;&gt;Tcp_connection_Closed -->
<g id="edge3" class="edge">
<title>Tcp_connection_Last_ACK&#45;&gt;Tcp_connection_Closed</title>
<g id="a_edge3"><a xlink:title="From Last_ACK to Closed on ack">
<path fill="none" stroke="#000000" d="M390.9353,-122.1403C397.0276,-139.3337 404.8257,-166.024 404.8257,-190 404.8257,-470 404.8257,-470 404.8257,-470 404.8257,-493.0769 407.2593,-503.7987 390.8257,-520 378.0426,-532.6024 335.1022,-542.6013 300.8503,-548.8316"/>
<polygon fill="#000000" stroke="#000000" points="300.2404,-545.3851 290.9984,-550.5654 301.4537,-552.2791 300.2404,-545.3851"/>
</a>
</g>
<text text-anchor="middle" x="414.5396" y="-314.8" font-family="Times,serif" font-size="14.00" fill="#000000">ack</text>
</g>
<!-- Tcp_connection_FIN_Wait_2 -->
<g id="node10" class="node">
<title>Tcp_connection_FIN_Wait_2</title>
<g id="a_node10"><a xlink:title="Class Tcp, SM connection, State FIN_Wait_2">
<path fill="none" stroke="#000000" d="M73.4778,-122C73.4778,-122 12.1736,-122 12.1736,-122 6.1736,-122 .1736,-116 .1736,-110 .1736,-110 .1736,-98 .1736,-98 .1736,-92 6.1736,-86 12.1736,-86 12.1736,-86 73.4778,-86 73.4778,-86 79.4778,-86 85.4778,-92 85.4778,-98 85.4778,-98 85.4778,-110 85.4778,-110 85.4778,-116 79.4778,-122 73.4778,-122"/>
<text text-anchor="middle" x="42.8257" y="-99.8" font-family="Times,serif" font-size="14.00" fill="#000000">FIN_Wait_2</text>
</a>
</g>
</g>
<!-- Tcp_connection_FIN_Wait_1&#45;&gt;Tcp_connection_FIN_Wait_2 -->
<g id="edge14" class="edge">
<title>Tcp_connection_FIN_Wait_1&#45;&gt;Tcp_connection_FIN_Wait_2</title>
<g id="a_edge14"><a xlink:title="From FIN_Wait_1 to FIN_Wait_2 on ack">
<path fill="none" stroke="#000000" d="M90.1012,-171.7616C81.7486,-159.7896 70.6858,-143.9328 61.3619,-130.5685"/>
<polygon fill="#000000" stroke="#000000" points="64.1241,-128.4107 55.5318,-122.2121 58.3832,-132.416 64.1241,-128.4107"/>
</a>
</g>
<text text-anchor="middle" x="86.5396" y="-142.8" font-family="Times,serif" font-size="14.00" fill="#000000">ack</text>
</g>
<!-- Tcp_connection_Closing -->
<g id="node11" class="node">
<title>Tcp_connection_Closing</title>
<g id="a_node11"><a xlink:title="Class Tcp, SM connection, State Closing">
<path fill="none" stroke="#000000" d="M163.8257,-122C163.8257,-122 115.8257,-122 115.8257,-122 109.8257,-122 103.8257,-116 103.8257,-110 103.8257,-110 103.8257,-98 103.8257,-98 103.8257,-92 109.8257,-86 115.8257,-86 115.8257,-86 163.8257,-86 163.8257,-86 169.8257,-86 175.8257,-92 175.8257,-98 175.8257,-98 175.8257,-110 175.8257,-110 175.8257,-116 169.8257,-122 163.8257,-122"/>
<text text-anchor="middle" x="139.8257" y="-99.8" font-family="Times,serif" font-size="14.00" fill="#000000">Closing</text>
</a>
</g>
</g>
<!-- Tcp_connection_FIN_Wait_1&#45;&gt;Tcp_connection_Closing -->
<g id="edge15" class="edge">
<title>Tcp_connection_FIN_Wait_1&#45;&gt;Tcp_connection_Closing</title>
<g id="a_edge15"><a xlink:title="From FIN_Wait_1 to Closing on fin&#13;Transition Action:&#10; &#160;&#160;&#160;&#160;sendAck();">
<path fill="none" stroke="#000000" d="M103.0413,-171.757C103.7359,-161.982 105.545,-149.9404 109.9497,-140 111.453,-136.6075 113.3713,-133.2792 115.5085,-130.1004"/>
<polygon fill="#000000" stroke="#000000" points="118.3195,-132.1858 121.5428,-122.0932 112.7292,-127.9729 118.3195,-132.1858"/>
</a>
</g>
<text text-anchor="middle" x="154.7637" y="-142.8" font-family="Times,serif" font-size="14.00" fill="#000000">fin / sendAck();</text>
</g>
<!-- Tcp_connection_Timed_Wait -->
<g id="node12" class="node">
<title>Tcp_connection_Timed_Wait</title>
<g id="a_node12"><a xlink:title="Class Tcp, SM connection, State Timed_Wait">
<path fill="none" stroke="#000000" d="M219.4782,-36C219.4782,-36 158.1732,-36 158.1732,-36 152.1732,-36 146.1732,-30 146.1732,-24 146.1732,-24 146.1732,-12 146.1732,-12 146.1732,-6 152.1732,0 158.1732,0 158.1732,0 219.4782,0 219.4782,0 225.4782,0 231.4782,-6 231.4782,-12 231.4782,-12 231.4782,-24 231.4782,-24 231.4782,-30 225.4782,-36 219.4782,-36"/>
<text text-anchor="middle" x="188.8257" y="-13.8" font-family="Times,serif" font-size="14.00" fill="#000000">Timed_Wait</text>
</a>
</g>
</g>
<!-- Tcp_connection_FIN_Wait_1&#45;&gt;Tcp_connection_Timed_Wait -->
<g id="edge16" class="edge">
<title>Tcp_connection_FIN_Wait_1&#45;&gt;Tcp_connection_Timed_Wait</title>
<g id="a_edge16"><a xlink:title="From FIN_Wait_1 to Timed_Wait on finAck&#13;Transition Action:&#10; &#160;&#160;&#160;&#160;sendAck();">
<path fill="none" stroke="#000000" d="M145.5155,-178.9668C167.6621,-172.289 191.4121,-163.289 197.8257,-154 219.8343,-122.124 210.016,-75.4043 200.075,-45.8585"/>
<polygon fill="#000000" stroke="#000000" points="203.2739,-44.4097 196.6056,-36.1765 196.6842,-46.7711 203.2739,-44.4097"/>
</a>
</g>
<text text-anchor="middle" x="266.4258" y="-99.8" font-family="Times,serif" font-size="14.00" fill="#000000">finAck / sendAck();</text>
</g>
<!-- Tcp_connection_FIN_Wait_2&#45;&gt;Tcp_connection_Timed_Wait -->
<g id="edge17" class="edge">
<title>Tcp_connection_FIN_Wait_2&#45;&gt;Tcp_connection_Timed_Wait</title>
<g id="a_edge17"><a xlink:title="From FIN_Wait_2 to Timed_Wait on fin&#13;Transition Action:&#10; &#160;&#160;&#160;&#160;sendAck();">
<path fill="none" stroke="#000000" d="M48.6403,-85.9687C52.9498,-75.2723 59.8455,-62.2363 69.9497,-54 88.6476,-38.7587 113.704,-29.9634 135.9912,-24.891"/>
<polygon fill="#000000" stroke="#000000" points="136.9238,-28.2721 146.0037,-22.8126 135.501,-21.4182 136.9238,-28.2721"/>
</a>
</g>
<text text-anchor="middle" x="114.7637" y="-56.8" font-family="Times,serif" font-size="14.00" fill="#000000">fin / sendAck();</text>
</g>
<!-- Tcp_connection_Closing&#45;&gt;Tcp_connection_Timed_Wait -->
<g id="edge18" class="edge">
<title>Tcp_connection_Closing&#45;&gt;Tcp_connection_Timed_Wait</title>
<g id="a_edge18"><a xlink:title="From Closing to Timed_Wait on ack">
<path fill="none" stroke="#000000" d="M150.2173,-85.7616C156.9736,-73.9036 165.9014,-58.2345 173.4699,-44.951"/>
<polygon fill="#000000" stroke="#000000" points="176.5395,-46.6334 178.449,-36.2121 170.4574,-43.1681 176.5395,-46.6334"/>
</a>
</g>
<text text-anchor="middle" x="177.5396" y="-56.8" font-family="Times,serif" font-size="14.00" fill="#000000">ack</text>
</g>
<!-- Tcp_connection_Timed_Wait&#45;&gt;Tcp_connection_Closed -->
<g id="edge4" class="edge">
<title>Tcp_connection_Timed_Wait&#45;&gt;Tcp_connection_Closed</title>
<g id="a_edge4"><a xlink:title="From Timed_Wait to Closed on timeOut">
<path fill="none" stroke="#000000" d="M231.5036,-23.0533C305.7444,-33.0436 450.8257,-58.4001 450.8257,-104 450.8257,-470 450.8257,-470 450.8257,-470 450.8257,-498.7381 434.2336,-504.8299 409.8257,-520 391.8409,-531.178 339.813,-541.8781 300.9635,-548.6642"/>
<polygon fill="#000000" stroke="#000000" points="300.1639,-545.2501 290.8979,-550.3872 301.3451,-552.1497 300.1639,-545.2501"/>
</a>
</g>
<text text-anchor="middle" x="473.7671" y="-271.8" font-family="Times,serif" font-size="14.00" fill="#000000">timeOut</text>
</g>
</g>
</svg>
