<?xml version="1.0" encoding="UTF-8" standalone="no"?>
<!DOCTYPE svg PUBLIC "-//W3C//DTD SVG 1.1//EN"
 "http://www.w3.org/Graphics/SVG/1.1/DTD/svg11.dtd">
<!-- Generated by graphviz version 2.48.0 (20210717.1556)
 -->
<!-- Title: TelephoneSystem2 Pages: 1 -->
<svg width="1291pt" height="324pt"
 viewBox="0.00 0.00 1291.00 324.40" xmlns="http://www.w3.org/2000/svg" xmlns:xlink="http://www.w3.org/1999/xlink">
<g id="graph0" class="graph" transform="scale(1 1) rotate(0) translate(4 320.4)">
<title>TelephoneSystem2</title>
<polygon fill="white" stroke="transparent" points="-4,4 -4,-320.4 1287,-320.4 1287,4 -4,4"/>
<g id="clust1" class="cluster">
<title>clusterPhone_ringerSound</title>
<polygon fill="none" stroke="black" stroke-width="0.5" points="8,-95 8,-308.4 546,-308.4 546,-95 8,-95"/>
<text text-anchor="middle" x="277" y="-293.2" font-family="Times,serif" font-size="14.00">sm Phone ringerSound</text>
</g>
<g id="clust2" class="cluster">
<title>clusterPhone_screenLight</title>
<polygon fill="none" stroke="black" stroke-width="0.5" points="554,-8 554,-308.4 927,-308.4 927,-8 554,-8"/>
<text text-anchor="middle" x="740.5" y="-293.2" font-family="Times,serif" font-size="14.00">sm Phone screenLight</text>
</g>
<g id="clust3" class="cluster">
<title>clusterPhone_vibration</title>
<polygon fill="none" stroke="black" stroke-width="0.5" points="935,-95 935,-308.4 1275,-308.4 1275,-95 935,-95"/>
<text text-anchor="middle" x="1105" y="-293.2" font-family="Times,serif" font-size="14.00">sm Phone vibration</text>
</g>
<!-- start_Phone_ringerSound -->
<g id="node1" class="node">
<title>start_Phone_ringerSound</title>
<g id="a_node1"><a xlink:title="Class Phone, SM ringerSound, State start">
<ellipse fill="black" stroke="black" cx="328" cy="-270.2" rx="7.2" ry="7.2"/>
</a>
</g>
</g>
<!-- Phone_ringerSound_Off -->
<g id="node2" class="node">
<title>Phone_ringerSound_Off</title>
<g id="a_node2"><a xlink:title="Class Phone, SM ringerSound, State Off">
<path fill="none" stroke="black" d="M352,-226C352,-226 304,-226 304,-226 298,-226 292,-220 292,-214 292,-214 292,-202 292,-202 292,-196 298,-190 304,-190 304,-190 352,-190 352,-190 358,-190 364,-196 364,-202 364,-202 364,-214 364,-214 364,-220 358,-226 352,-226"/>
<text text-anchor="middle" x="328" y="-204.3" font-family="Times,serif" font-size="14.00">Off</text>
</a>
</g>
</g>
<!-- start_Phone_ringerSound&#45;&gt;Phone_ringerSound_Off -->
<g id="edge1" class="edge">
<title>start_Phone_ringerSound&#45;&gt;Phone_ringerSound_Off</title>
<g id="a_edge1"><a xlink:title="start to Off">
<path fill="none" stroke="black" d="M328,-262.76C328,-256.39 328,-246.2 328,-236.39"/>
<polygon fill="black" stroke="black" points="331.5,-236.1 328,-226.1 324.5,-236.1 331.5,-236.1"/>
</a>
</g>
</g>
<!-- Phone_ringerSound_On -->
<g id="node3" class="node">
<title>Phone_ringerSound_On</title>
<g id="a_node3"><a xlink:title="Class Phone, SM ringerSound, State On">
<path fill="none" stroke="black" d="M352,-139C352,-139 304,-139 304,-139 298,-139 292,-133 292,-127 292,-127 292,-115 292,-115 292,-109 298,-103 304,-103 304,-103 352,-103 352,-103 358,-103 364,-109 364,-115 364,-115 364,-127 364,-127 364,-133 358,-139 352,-139"/>
<text text-anchor="middle" x="328" y="-117.3" font-family="Times,serif" font-size="14.00">On</text>
</a>
</g>
</g>
<!-- Phone_ringerSound_Off&#45;&gt;Phone_ringerSound_On -->
<g id="edge6" class="edge">
<title>Phone_ringerSound_Off&#45;&gt;Phone_ringerSound_On</title>
<g id="a_edge6"><a xlink:title="From Off to On on callReceived&#13;Guard: &#160;[!permanentMute]">
<path fill="none" stroke="black" d="M291.74,-206.22C209.27,-203.8 17.24,-194.15 50,-157 65.06,-139.93 206.74,-129.11 281.81,-124.53"/>
<polygon fill="black" stroke="black" points="282.17,-128.01 291.94,-123.92 281.75,-121.02 282.17,-128.01"/>
</a>
</g>
<text text-anchor="middle" x="139.5" y="-160.8" font-family="Times,serif" font-size="14.00">callReceived [!permanentMute]</text>
</g>
<!-- Phone_ringerSound_On&#45;&gt;Phone_ringerSound_Off -->
<g id="edge2" class="edge">
<title>Phone_ringerSound_On&#45;&gt;Phone_ringerSound_Off</title>
<g id="a_edge2"><a xlink:title="From On to Off on silentButton">
<path fill="none" stroke="black" d="M291.72,-127.92C259.81,-134.81 220.77,-148.37 237,-172 247.25,-186.93 264.83,-195.49 281.82,-200.4"/>
<polygon fill="black" stroke="black" points="281.15,-203.84 291.7,-202.89 282.86,-197.06 281.15,-203.84"/>
</a>
</g>
<text text-anchor="middle" x="271.5" y="-160.8" font-family="Times,serif" font-size="14.00">silentButton</text>
</g>
<!-- Phone_ringerSound_On&#45;&gt;Phone_ringerSound_Off -->
<g id="edge3" class="edge">
<title>Phone_ringerSound_On&#45;&gt;Phone_ringerSound_Off</title>
<g id="a_edge3"><a xlink:title="From On to Off on pickUp">
<path fill="none" stroke="black" d="M328,-139.18C328,-150.81 328,-166.42 328,-179.73"/>
<polygon fill="black" stroke="black" points="324.5,-179.8 328,-189.8 331.5,-179.8 324.5,-179.8"/>
</a>
</g>
<text text-anchor="middle" x="349" y="-160.8" font-family="Times,serif" font-size="14.00">pickUp</text>
</g>
<!-- Phone_ringerSound_On&#45;&gt;Phone_ringerSound_Off -->
<g id="edge4" class="edge">
<title>Phone_ringerSound_On&#45;&gt;Phone_ringerSound_Off</title>
<g id="a_edge4"><a xlink:title="From On to Off on rejectCall">
<path fill="none" stroke="black" d="M356.34,-139.02C362.25,-144.02 367.69,-150.05 371,-157 375.39,-166.23 371.49,-175.1 364.55,-182.74"/>
<polygon fill="black" stroke="black" points="361.74,-180.57 356.79,-189.94 366.5,-185.7 361.74,-180.57"/>
</a>
</g>
<text text-anchor="middle" x="399.5" y="-160.8" font-family="Times,serif" font-size="14.00">rejectCall</text>
</g>
<!-- Phone_ringerSound_On&#45;&gt;Phone_ringerSound_Off -->
<g id="edge5" class="edge">
<title>Phone_ringerSound_On&#45;&gt;Phone_ringerSound_Off</title>
<g id="a_edge5"><a xlink:title="From On to Off on unanswered">
<path fill="none" stroke="black" d="M364.03,-126.2C400.91,-132.04 450.27,-145.09 431,-172 418,-190.14 395.06,-198.99 374.12,-203.26"/>
<polygon fill="black" stroke="black" points="373.31,-199.85 364.06,-205.01 374.51,-206.75 373.31,-199.85"/>
</a>
</g>
<text text-anchor="middle" x="468.5" y="-160.8" font-family="Times,serif" font-size="14.00">unanswered</text>
</g>
<!-- start_Phone_screenLight -->
<g id="node4" class="node">
<title>start_Phone_screenLight</title>
<g id="a_node4"><a xlink:title="Class Phone, SM screenLight, State start">
<ellipse fill="black" stroke="black" cx="763" cy="-270.2" rx="7.2" ry="7.2"/>
</a>
</g>
</g>
<!-- Phone_screenLight_Off -->
<g id="node5" class="node">
<title>Phone_screenLight_Off</title>
<g id="a_node5"><a xlink:title="Class Phone, SM screenLight, State Off">
<path fill="none" stroke="black" d="M787,-226C787,-226 739,-226 739,-226 733,-226 727,-220 727,-214 727,-214 727,-202 727,-202 727,-196 733,-190 739,-190 739,-190 787,-190 787,-190 793,-190 799,-196 799,-202 799,-202 799,-214 799,-214 799,-220 793,-226 787,-226"/>
<text text-anchor="middle" x="763" y="-204.3" font-family="Times,serif" font-size="14.00">Off</text>
</a>
</g>
</g>
<!-- start_Phone_screenLight&#45;&gt;Phone_screenLight_Off -->
<g id="edge7" class="edge">
<title>start_Phone_screenLight&#45;&gt;Phone_screenLight_Off</title>
<g id="a_edge7"><a xlink:title="start to Off">
<path fill="none" stroke="black" d="M763,-262.76C763,-256.39 763,-246.2 763,-236.39"/>
<polygon fill="black" stroke="black" points="766.5,-236.1 763,-226.1 759.5,-236.1 766.5,-236.1"/>
</a>
</g>
</g>
<!-- Phone_screenLight_On -->
<g id="node6" class="node">
<title>Phone_screenLight_On</title>
<g id="a_node6"><a xlink:title="Class Phone, SM screenLight, State On">
<path fill="none" stroke="black" d="M622,-139C622,-139 574,-139 574,-139 568,-139 562,-133 562,-127 562,-127 562,-115 562,-115 562,-109 568,-103 574,-103 574,-103 622,-103 622,-103 628,-103 634,-109 634,-115 634,-115 634,-127 634,-127 634,-133 628,-139 622,-139"/>
<text text-anchor="middle" x="598" y="-117.3" font-family="Times,serif" font-size="14.00">On</text>
</a>
</g>
</g>
<!-- Phone_screenLight_Off&#45;&gt;Phone_screenLight_On -->
<g id="edge11" class="edge">
<title>Phone_screenLight_Off&#45;&gt;Phone_screenLight_On</title>
<g id="a_edge11"><a xlink:title="From Off to On on callReceived">
<path fill="none" stroke="black" d="M726.88,-205.33C679.2,-202.28 599.13,-193.95 581,-172 575.4,-165.22 576.38,-156.5 579.8,-148.25"/>
<polygon fill="black" stroke="black" points="582.97,-149.75 584.47,-139.26 576.76,-146.52 582.97,-149.75"/>
</a>
</g>
<text text-anchor="middle" x="617.5" y="-160.8" font-family="Times,serif" font-size="14.00">callReceived</text>
</g>
<!-- Phone_screenLight_Off&#45;&gt;Phone_screenLight_On -->
<g id="edge12" class="edge">
<title>Phone_screenLight_Off&#45;&gt;Phone_screenLight_On</title>
<g id="a_edge12"><a xlink:title="From Off to On on pickUp">
<path fill="none" stroke="black" d="M726.74,-194.02C711.13,-187.98 692.85,-180.3 677,-172 666.19,-166.34 664.29,-163.57 654,-157 647.69,-152.97 640.95,-148.72 634.42,-144.62"/>
<polygon fill="black" stroke="black" points="636.03,-141.5 625.7,-139.16 632.32,-147.43 636.03,-141.5"/>
</a>
</g>
<text text-anchor="middle" x="698" y="-160.8" font-family="Times,serif" font-size="14.00">pickUp</text>
</g>
<!-- Phone_screenLight_Off&#45;&gt;Phone_screenLight_On -->
<g id="edge13" class="edge">
<title>Phone_screenLight_Off&#45;&gt;Phone_screenLight_On</title>
<g id="a_edge13"><a xlink:title="From Off to On on dial">
<path fill="none" stroke="black" d="M751.9,-189.75C744,-178.8 732.42,-165.2 719,-157 691.23,-140.02 679.21,-148.25 648,-139 646.6,-138.58 645.18,-138.16 643.75,-137.72"/>
<polygon fill="black" stroke="black" points="644.8,-134.38 634.21,-134.69 642.69,-141.05 644.8,-134.38"/>
</a>
</g>
<text text-anchor="middle" x="747.5" y="-160.8" font-family="Times,serif" font-size="14.00">dial</text>
</g>
<!-- Phone_screenLight_On&#45;&gt;Phone_screenLight_Off -->
<g id="edge8" class="edge">
<title>Phone_screenLight_On&#45;&gt;Phone_screenLight_Off</title>
<g id="a_edge8"><a xlink:title="From On to Off on hangUp">
<path fill="none" stroke="black" d="M634.1,-135.09C638.74,-136.53 643.46,-137.88 648,-139 673.12,-145.19 746.18,-137.35 763,-157 768.32,-163.21 769.72,-171.63 769.37,-179.78"/>
<polygon fill="black" stroke="black" points="765.89,-179.43 768.15,-189.78 772.84,-180.27 765.89,-179.43"/>
</a>
</g>
<text text-anchor="middle" x="791.5" y="-160.8" font-family="Times,serif" font-size="14.00">hangUp</text>
</g>
<!-- Phone_screenLight_Dimmed -->
<g id="node7" class="node">
<title>Phone_screenLight_Dimmed</title>
<g id="a_node7"><a xlink:title="Class Phone, SM screenLight, State Dimmed">
<path fill="none" stroke="black" d="M825,-52C825,-52 777,-52 777,-52 771,-52 765,-46 765,-40 765,-40 765,-28 765,-28 765,-22 771,-16 777,-16 777,-16 825,-16 825,-16 831,-16 837,-22 837,-28 837,-28 837,-40 837,-40 837,-46 831,-52 825,-52"/>
<text text-anchor="middle" x="801" y="-30.3" font-family="Times,serif" font-size="14.00">Dimmed</text>
</a>
</g>
</g>
<!-- Phone_screenLight_On&#45;&gt;Phone_screenLight_Dimmed -->
<g id="edge17" class="edge">
<title>Phone_screenLight_On&#45;&gt;Phone_screenLight_Dimmed</title>
<g id="a_edge17"><a xlink:title="From On to Dimmed after(30000)">
<path fill="none" stroke="black" d="M583.34,-102.73C576.34,-92.32 571.04,-79.32 579,-70 601.12,-44.12 696.26,-37.26 754.57,-35.51"/>
<polygon fill="black" stroke="black" points="754.75,-39.01 764.65,-35.25 754.57,-32.01 754.75,-39.01"/>
</a>
</g>
<text text-anchor="middle" x="614" y="-73.8" font-family="Times,serif" font-size="14.00">after(30000)</text>
</g>
<!-- Phone_screenLight_Dimmed&#45;&gt;Phone_screenLight_Off -->
<g id="edge9" class="edge">
<title>Phone_screenLight_Dimmed&#45;&gt;Phone_screenLight_Off</title>
<g id="a_edge9"><a xlink:title="From Dimmed to Off on hangUp">
<path fill="none" stroke="black" d="M828.3,-52.22C840.74,-62.12 850.74,-74.62 841,-85 817.08,-110.49 707.92,-69.51 684,-95 670.62,-109.26 671.13,-124.28 684,-139 723.56,-184.23 778.44,-111.77 818,-157 826.77,-167.02 819.53,-177.09 807.77,-185.54"/>
<polygon fill="black" stroke="black" points="805.59,-182.77 799.04,-191.1 809.35,-188.68 805.59,-182.77"/>
</a>
</g>
<text text-anchor="middle" x="706.5" y="-117.3" font-family="Times,serif" font-size="14.00">hangUp</text>
</g>
<!-- Phone_screenLight_Dimmed&#45;&gt;Phone_screenLight_Off -->
<g id="edge10" class="edge">
<title>Phone_screenLight_Dimmed&#45;&gt;Phone_screenLight_Off</title>
<g id="a_edge10"><a xlink:title="From Dimmed to Off after(60000)&#13;Guard: &#160;[!callInProgress]">
<path fill="none" stroke="black" d="M832.5,-52.22C846.05,-61.8 856.79,-73.98 847,-85 822.04,-113.11 787.96,-66.89 763,-95 750.02,-109.62 751.29,-123.34 763,-139 779.92,-161.64 807.08,-134.36 824,-157 833.12,-169.19 822.81,-180.23 808.23,-188.81"/>
<polygon fill="black" stroke="black" points="806.46,-185.79 799.27,-193.57 809.74,-191.97 806.46,-185.79"/>
</a>
</g>
<text text-anchor="middle" x="847" y="-117.3" font-family="Times,serif" font-size="14.00">after(60000) [!callInProgress]</text>
</g>
<!-- Phone_screenLight_Dimmed&#45;&gt;Phone_screenLight_On -->
<g id="edge14" class="edge">
<title>Phone_screenLight_Dimmed&#45;&gt;Phone_screenLight_On</title>
<g id="a_edge14"><a xlink:title="From Dimmed to On on callReceived">
<path fill="none" stroke="black" d="M764.92,-41.79C738.92,-47.43 703.37,-56.69 674,-70 673.39,-70.28 652.1,-84.29 632.2,-97.41"/>
<polygon fill="black" stroke="black" points="630.25,-94.51 623.83,-102.94 634.1,-100.35 630.25,-94.51"/>
</a>
</g>
<text text-anchor="middle" x="710.5" y="-73.8" font-family="Times,serif" font-size="14.00">callReceived</text>
</g>
<!-- Phone_screenLight_Dimmed&#45;&gt;Phone_screenLight_On -->
<g id="edge15" class="edge">
<title>Phone_screenLight_Dimmed&#45;&gt;Phone_screenLight_On</title>
<g id="a_edge15"><a xlink:title="From Dimmed to On on pickUp">
<path fill="none" stroke="black" d="M787.4,-52.45C777.51,-63.79 763.07,-77.75 747,-85 706.69,-103.19 690.48,-82.69 648,-95 644.39,-96.05 640.72,-97.35 637.1,-98.81"/>
<polygon fill="black" stroke="black" points="635.43,-95.72 627.69,-102.96 638.25,-102.13 635.43,-95.72"/>
</a>
</g>
<text text-anchor="middle" x="789" y="-73.8" font-family="Times,serif" font-size="14.00">pickUp</text>
</g>
<!-- Phone_screenLight_Dimmed&#45;&gt;Phone_screenLight_On -->
<g id="edge16" class="edge">
<title>Phone_screenLight_Dimmed&#45;&gt;Phone_screenLight_On</title>
<g id="a_edge16"><a xlink:title="From Dimmed to On on dial">
<path fill="none" stroke="black" d="M811.67,-52.33C816.76,-63.03 820.16,-76.33 812,-85 799.49,-98.3 665.63,-90.27 648,-95 644.21,-96.02 640.36,-97.34 636.58,-98.84"/>
<polygon fill="black" stroke="black" points="635.12,-95.66 627.36,-102.88 637.93,-102.07 635.12,-95.66"/>
</a>
</g>
<text text-anchor="middle" x="826.5" y="-73.8" font-family="Times,serif" font-size="14.00">dial</text>
</g>
<!-- start_Phone_vibration -->
<g id="node8" class="node">
<title>start_Phone_vibration</title>
<g id="a_node8"><a xlink:title="Class Phone, SM vibration, State start">
<ellipse fill="black" stroke="black" cx="1089" cy="-270.2" rx="7.2" ry="7.2"/>
</a>
</g>
</g>
<!-- Phone_vibration_Off -->
<g id="node9" class="node">
<title>Phone_vibration_Off</title>
<g id="a_node9"><a xlink:title="Class Phone, SM vibration, State Off">
<path fill="none" stroke="black" d="M1113,-226C1113,-226 1065,-226 1065,-226 1059,-226 1053,-220 1053,-214 1053,-214 1053,-202 1053,-202 1053,-196 1059,-190 1065,-190 1065,-190 1113,-190 1113,-190 1119,-190 1125,-196 1125,-202 1125,-202 1125,-214 1125,-214 1125,-220 1119,-226 1113,-226"/>
<text text-anchor="middle" x="1089" y="-204.3" font-family="Times,serif" font-size="14.00">Off</text>
</a>
</g>
</g>
<!-- start_Phone_vibration&#45;&gt;Phone_vibration_Off -->
<g id="edge18" class="edge">
<title>start_Phone_vibration&#45;&gt;Phone_vibration_Off</title>
<g id="a_edge18"><a xlink:title="start to Off">
<path fill="none" stroke="black" d="M1089,-262.76C1089,-256.39 1089,-246.2 1089,-236.39"/>
<polygon fill="black" stroke="black" points="1092.5,-236.1 1089,-226.1 1085.5,-236.1 1092.5,-236.1"/>
</a>
</g>
</g>
<!-- Phone_vibration_On -->
<g id="node10" class="node">
<title>Phone_vibration_On</title>
<g id="a_node10"><a xlink:title="Class Phone, SM vibration, State On">
<path fill="none" stroke="black" d="M1113,-139C1113,-139 1065,-139 1065,-139 1059,-139 1053,-133 1053,-127 1053,-127 1053,-115 1053,-115 1053,-109 1059,-103 1065,-103 1065,-103 1113,-103 1113,-103 1119,-103 1125,-109 1125,-115 1125,-115 1125,-127 1125,-127 1125,-133 1119,-139 1113,-139"/>
<text text-anchor="middle" x="1089" y="-117.3" font-family="Times,serif" font-size="14.00">On</text>
</a>
</g>
</g>
<!-- Phone_vibration_Off&#45;&gt;Phone_vibration_On -->
<g id="edge22" class="edge">
<title>Phone_vibration_Off&#45;&gt;Phone_vibration_On</title>
<g id="a_edge22"><a xlink:title="From Off to On on callReceived">
<path fill="none" stroke="black" d="M1052.97,-203.61C1013.37,-198.39 957.95,-185.79 979,-157 993.63,-136.99 1019.81,-128.15 1042.95,-124.35"/>
<polygon fill="black" stroke="black" points="1043.55,-127.8 1052.98,-122.97 1042.6,-120.86 1043.55,-127.8"/>
</a>
</g>
<text text-anchor="middle" x="1015.5" y="-160.8" font-family="Times,serif" font-size="14.00">callReceived</text>
</g>
<!-- Phone_vibration_On&#45;&gt;Phone_vibration_Off -->
<g id="edge19" class="edge">
<title>Phone_vibration_On&#45;&gt;Phone_vibration_Off</title>
<g id="a_edge19"><a xlink:title="From On to Off on pickUp">
<path fill="none" stroke="black" d="M1068.78,-139.18C1060.42,-148.45 1053.58,-160.35 1058,-172 1059.28,-175.37 1061.04,-178.62 1063.09,-181.69"/>
<polygon fill="black" stroke="black" points="1060.52,-184.09 1069.42,-189.83 1066.04,-179.79 1060.52,-184.09"/>
</a>
</g>
<text text-anchor="middle" x="1079" y="-160.8" font-family="Times,serif" font-size="14.00">pickUp</text>
</g>
<!-- Phone_vibration_On&#45;&gt;Phone_vibration_Off -->
<g id="edge20" class="edge">
<title>Phone_vibration_On&#45;&gt;Phone_vibration_Off</title>
<g id="a_edge20"><a xlink:title="From On to Off on rejectCall">
<path fill="none" stroke="black" d="M1095.94,-139.02C1099.06,-148.65 1101.7,-160.93 1100,-172 1099.59,-174.68 1099.01,-177.44 1098.33,-180.17"/>
<polygon fill="black" stroke="black" points="1094.96,-179.22 1095.55,-189.8 1101.69,-181.17 1094.96,-179.22"/>
</a>
</g>
<text text-anchor="middle" x="1127.5" y="-160.8" font-family="Times,serif" font-size="14.00">rejectCall</text>
</g>
<!-- Phone_vibration_On&#45;&gt;Phone_vibration_Off -->
<g id="edge21" class="edge">
<title>Phone_vibration_On&#45;&gt;Phone_vibration_Off</title>
<g id="a_edge21"><a xlink:title="From On to Off on unanswered">
<path fill="none" stroke="black" d="M1125.39,-132.36C1147.71,-140.74 1170.07,-154.09 1159,-172 1153.2,-181.38 1144.05,-188.33 1134.24,-193.45"/>
<polygon fill="black" stroke="black" points="1132.75,-190.28 1125.14,-197.65 1135.68,-196.64 1132.75,-190.28"/>
</a>
</g>
<text text-anchor="middle" x="1194.5" y="-160.8" font-family="Times,serif" font-size="14.00">unanswered</text>
</g>
</g>
</svg>
