<?xml version="1.0" encoding="UTF-8" standalone="no"?>
<!DOCTYPE svg PUBLIC "-//W3C//DTD SVG 1.1//EN"
 "http://www.w3.org/Graphics/SVG/1.1/DTD/svg11.dtd">
<!-- Generated by graphviz version 2.40.1 (20161225.0304)
 -->
<!-- Title: TelephoneSystem2 Pages: 1 -->
<svg width="1388pt" height="435pt"
 viewBox="0.00 0.00 1388.00 435.40" xmlns="http://www.w3.org/2000/svg" xmlns:xlink="http://www.w3.org/1999/xlink">
<g id="graph0" class="graph" transform="scale(1 1) rotate(0) translate(4 431.4)">
<title>TelephoneSystem2</title>
<polygon fill="#ffffff" stroke="transparent" points="-4,4 -4,-431.4 1384,-431.4 1384,4 -4,4"/>
<g id="clust1" class="cluster">
<title>clusterPhone_ringerSound</title>
<polygon fill="none" stroke="#000000" stroke-width=".5" points="8,-132 8,-419.4 594,-419.4 594,-132 8,-132"/>
<text text-anchor="middle" x="301" y="-404.2" font-family="Times,serif" font-size="14.00" fill="#000000">sm Phone ringerSound</text>
</g>
<g id="clust2" class="cluster">
<title>clusterPhone_screenLight</title>
<polygon fill="none" stroke="#000000" stroke-width=".5" points="602,-8 602,-419.4 988,-419.4 988,-8 602,-8"/>
<text text-anchor="middle" x="795" y="-404.2" font-family="Times,serif" font-size="14.00" fill="#000000">sm Phone screenLight</text>
</g>
<g id="clust3" class="cluster">
<title>clusterPhone_vibration</title>
<polygon fill="none" stroke="#000000" stroke-width=".5" points="996,-132 996,-419.4 1372,-419.4 1372,-132 996,-132"/>
<text text-anchor="middle" x="1184" y="-404.2" font-family="Times,serif" font-size="14.00" fill="#000000">sm Phone vibration</text>
</g>
<!-- start_Phone_ringerSound -->
<g id="node1" class="node">
<title>start_Phone_ringerSound</title>
<g id="a_node1"><a xlink:title="Class Phone, SM ringerSound, State start">
<ellipse fill="#000000" stroke="#000000" cx="352" cy="-382.2" rx="7.2" ry="7.2"/>
</a>
</g>
</g>
<!-- Phone_ringerSound_Off -->
<g id="node2" class="node">
<title>Phone_ringerSound_Off</title>
<g id="a_node2"><a xlink:title="Class Phone, SM ringerSound, State Off">
<path fill="none" stroke="#000000" d="M376,-300C376,-300 328,-300 328,-300 322,-300 316,-294 316,-288 316,-288 316,-276 316,-276 316,-270 322,-264 328,-264 328,-264 376,-264 376,-264 382,-264 388,-270 388,-276 388,-276 388,-288 388,-288 388,-294 382,-300 376,-300"/>
<text text-anchor="middle" x="352" y="-277.8" font-family="Times,serif" font-size="14.00" fill="#000000">Off</text>
</a>
</g>
</g>
<!-- start_Phone_ringerSound&#45;&gt;Phone_ringerSound_Off -->
<g id="edge1" class="edge">
<title>start_Phone_ringerSound&#45;&gt;Phone_ringerSound_Off</title>
<g id="a_edge1"><a xlink:title="start to Off">
<path fill="none" stroke="#000000" d="M352,-374.9939C352,-361.6512 352,-332.442 352,-310.2953"/>
<polygon fill="#000000" stroke="#000000" points="355.5001,-310.091 352,-300.0911 348.5001,-310.0911 355.5001,-310.091"/>
</a>
</g>
</g>
<!-- Phone_ringerSound_On -->
<g id="node3" class="node">
<title>Phone_ringerSound_On</title>
<g id="a_node3"><a xlink:title="Class Phone, SM ringerSound, State On">
<path fill="none" stroke="#000000" d="M376,-176C376,-176 328,-176 328,-176 322,-176 316,-170 316,-164 316,-164 316,-152 316,-152 316,-146 322,-140 328,-140 328,-140 376,-140 376,-140 382,-140 388,-146 388,-152 388,-152 388,-164 388,-164 388,-170 382,-176 376,-176"/>
<text text-anchor="middle" x="352" y="-153.8" font-family="Times,serif" font-size="14.00" fill="#000000">On</text>
</a>
</g>
</g>
<!-- Phone_ringerSound_Off&#45;&gt;Phone_ringerSound_On -->
<g id="edge6" class="edge">
<title>Phone_ringerSound_Off&#45;&gt;Phone_ringerSound_On</title>
<g id="a_edge6"><a xlink:title="From Off to On on callReceived&#13;Guard: &#160;[!permanentMute]">
<path fill="none" stroke="#000000" d="M315.758,-279.2136C233.8476,-272.2012 43.9381,-251.5691 75.5889,-213 104.2113,-178.1211 235.055,-164.9518 305.9783,-160.3144"/>
<polygon fill="#000000" stroke="#000000" points="306.2254,-163.8059 315.9883,-159.6905 305.7899,-156.8194 306.2254,-163.8059"/>
</a>
</g>
<text text-anchor="middle" x="164.2056" y="-215.8" font-family="Times,serif" font-size="14.00" fill="#000000">callReceived [!permanentMute]</text>
</g>
<!-- Phone_ringerSound_On&#45;&gt;Phone_ringerSound_Off -->
<g id="edge2" class="edge">
<title>Phone_ringerSound_On&#45;&gt;Phone_ringerSound_Off</title>
<g id="a_edge2"><a xlink:title="From On to Off on silentButton">
<path fill="none" stroke="#000000" d="M315.8849,-169.9202C296.0474,-178.5308 273.1714,-192.335 261.5518,-213 247.7671,-237.5153 277.305,-256.1072 306.2336,-267.7799"/>
<polygon fill="#000000" stroke="#000000" points="305.3662,-271.1943 315.9574,-271.4718 307.8509,-264.6501 305.3662,-271.1943"/>
</a>
</g>
<text text-anchor="middle" x="295.2241" y="-215.8" font-family="Times,serif" font-size="14.00" fill="#000000">silentButton</text>
</g>
<!-- Phone_ringerSound_On&#45;&gt;Phone_ringerSound_Off -->
<g id="edge3" class="edge">
<title>Phone_ringerSound_On&#45;&gt;Phone_ringerSound_Off</title>
<g id="a_edge3"><a xlink:title="From On to Off on pickUp">
<path fill="none" stroke="#000000" d="M352,-176.0524C352,-196.4489 352,-229.9055 352,-253.7641"/>
<polygon fill="#000000" stroke="#000000" points="348.5001,-253.9693 352,-263.9693 355.5001,-253.9694 348.5001,-253.9693"/>
</a>
</g>
<text text-anchor="middle" x="372.6069" y="-215.8" font-family="Times,serif" font-size="14.00" fill="#000000">pickUp</text>
</g>
<!-- Phone_ringerSound_On&#45;&gt;Phone_ringerSound_Off -->
<g id="edge4" class="edge">
<title>Phone_ringerSound_On&#45;&gt;Phone_ringerSound_Off</title>
<g id="a_edge4"><a xlink:title="From On to Off on rejectCall">
<path fill="none" stroke="#000000" d="M375.4914,-176.0475C389.6419,-189.275 403.7312,-208.1432 397,-227 393.2282,-237.5663 386.4578,-247.5659 379.295,-256.0682"/>
<polygon fill="#000000" stroke="#000000" points="376.4851,-253.9581 372.3925,-263.7306 381.6861,-258.6433 376.4851,-253.9581"/>
</a>
</g>
<text text-anchor="middle" x="425.207" y="-215.8" font-family="Times,serif" font-size="14.00" fill="#000000">rejectCall</text>
</g>
<!-- Phone_ringerSound_On&#45;&gt;Phone_ringerSound_Off -->
<g id="edge5" class="edge">
<title>Phone_ringerSound_On&#45;&gt;Phone_ringerSound_Off</title>
<g id="a_edge5"><a xlink:title="From On to Off on unanswered">
<path fill="none" stroke="#000000" d="M388.1335,-166.7246C411.9487,-174.5559 441.3505,-188.6808 456,-213 473.0159,-241.2477 433.0435,-260.2955 397.8278,-271.0986"/>
<polygon fill="#000000" stroke="#000000" points="396.7019,-267.7808 388.0726,-273.9277 398.6517,-274.5037 396.7019,-267.7808"/>
</a>
</g>
<text text-anchor="middle" x="493.4312" y="-215.8" font-family="Times,serif" font-size="14.00" fill="#000000">unanswered</text>
</g>
<!-- start_Phone_screenLight -->
<g id="node4" class="node">
<title>start_Phone_screenLight</title>
<g id="a_node4"><a xlink:title="Class Phone, SM screenLight, State start">
<ellipse fill="#000000" stroke="#000000" cx="841" cy="-382.2" rx="7.2" ry="7.2"/>
</a>
</g>
</g>
<!-- Phone_screenLight_Off -->
<g id="node5" class="node">
<title>Phone_screenLight_Off</title>
<g id="a_node5"><a xlink:title="Class Phone, SM screenLight, State Off">
<path fill="none" stroke="#000000" d="M865,-300C865,-300 817,-300 817,-300 811,-300 805,-294 805,-288 805,-288 805,-276 805,-276 805,-270 811,-264 817,-264 817,-264 865,-264 865,-264 871,-264 877,-270 877,-276 877,-276 877,-288 877,-288 877,-294 871,-300 865,-300"/>
<text text-anchor="middle" x="841" y="-277.8" font-family="Times,serif" font-size="14.00" fill="#000000">Off</text>
</a>
</g>
</g>
<!-- start_Phone_screenLight&#45;&gt;Phone_screenLight_Off -->
<g id="edge7" class="edge">
<title>start_Phone_screenLight&#45;&gt;Phone_screenLight_Off</title>
<g id="a_edge7"><a xlink:title="start to Off">
<path fill="none" stroke="#000000" d="M841,-374.9939C841,-361.6512 841,-332.442 841,-310.2953"/>
<polygon fill="#000000" stroke="#000000" points="844.5001,-310.091 841,-300.0911 837.5001,-310.0911 844.5001,-310.091"/>
</a>
</g>
</g>
<!-- Phone_screenLight_On -->
<g id="node6" class="node">
<title>Phone_screenLight_On</title>
<g id="a_node6"><a xlink:title="Class Phone, SM screenLight, State On">
<path fill="none" stroke="#000000" d="M684,-176C684,-176 636,-176 636,-176 630,-176 624,-170 624,-164 624,-164 624,-152 624,-152 624,-146 630,-140 636,-140 636,-140 684,-140 684,-140 690,-140 696,-146 696,-152 696,-152 696,-164 696,-164 696,-170 690,-176 684,-176"/>
<text text-anchor="middle" x="660" y="-153.8" font-family="Times,serif" font-size="14.00" fill="#000000">On</text>
</a>
</g>
</g>
<!-- Phone_screenLight_Off&#45;&gt;Phone_screenLight_On -->
<g id="edge11" class="edge">
<title>Phone_screenLight_Off&#45;&gt;Phone_screenLight_On</title>
<g id="a_edge11"><a xlink:title="From Off to On on callReceived">
<path fill="none" stroke="#000000" d="M804.7738,-277.2586C752.8636,-269.6371 661.3876,-252.8439 641.71,-227 632.5602,-214.983 636.2678,-198.7694 642.6643,-185.0785"/>
<polygon fill="#000000" stroke="#000000" points="645.837,-186.5652 647.3973,-176.0859 639.6426,-183.3049 645.837,-186.5652"/>
</a>
</g>
<text text-anchor="middle" x="677.145" y="-215.8" font-family="Times,serif" font-size="14.00" fill="#000000">callReceived</text>
</g>
<!-- Phone_screenLight_Off&#45;&gt;Phone_screenLight_On -->
<g id="edge12" class="edge">
<title>Phone_screenLight_Off&#45;&gt;Phone_screenLight_On</title>
<g id="a_edge12"><a xlink:title="From Off to On on pickUp">
<path fill="none" stroke="#000000" d="M808.7877,-263.7701C791.0722,-253.4494 768.8777,-240.0309 749.7861,-227 729.2738,-212.9992 707.1418,-196.0141 689.9838,-182.3992"/>
<polygon fill="#000000" stroke="#000000" points="691.9872,-179.52 681.9892,-176.0142 687.6187,-184.9896 691.9872,-179.52"/>
</a>
</g>
<text text-anchor="middle" x="769.6069" y="-215.8" font-family="Times,serif" font-size="14.00" fill="#000000">pickUp</text>
</g>
<!-- Phone_screenLight_Off&#45;&gt;Phone_screenLight_On -->
<g id="edge13" class="edge">
<title>Phone_screenLight_Off&#45;&gt;Phone_screenLight_On</title>
<g id="a_edge13"><a xlink:title="From Off to On on dial">
<path fill="none" stroke="#000000" d="M831.4982,-263.7051C822.752,-248.3942 808.5009,-226.8826 791,-213 783.802,-207.2902 740.6095,-189.5967 705.7583,-175.8027"/>
<polygon fill="#000000" stroke="#000000" points="706.7734,-172.4407 696.1865,-172.0286 704.2057,-178.9528 706.7734,-172.4407"/>
</a>
</g>
<text text-anchor="middle" x="815.4966" y="-215.8" font-family="Times,serif" font-size="14.00" fill="#000000">dial</text>
</g>
<!-- Phone_screenLight_On&#45;&gt;Phone_screenLight_Off -->
<g id="edge8" class="edge">
<title>Phone_screenLight_On&#45;&gt;Phone_screenLight_Off</title>
<g id="a_edge8"><a xlink:title="From On to Off on hangUp">
<path fill="none" stroke="#000000" d="M696.0793,-171.8552C700.7242,-173.3822 705.4473,-174.8115 710,-176 757.0842,-188.2914 774.4494,-172.2895 818,-194 828.9727,-199.47 832.9197,-201.8415 838,-213 843.7059,-225.5325 844.8961,-240.7069 844.4739,-253.6306"/>
<polygon fill="#000000" stroke="#000000" points="840.9657,-253.6421 843.8037,-263.8498 847.9507,-254.1003 840.9657,-253.6421"/>
</a>
</g>
<text text-anchor="middle" x="864.1621" y="-215.8" font-family="Times,serif" font-size="14.00" fill="#000000">hangUp</text>
</g>
<!-- Phone_screenLight_Dimmed -->
<g id="node7" class="node">
<title>Phone_screenLight_Dimmed</title>
<g id="a_node7"><a xlink:title="Class Phone, SM screenLight, State Dimmed">
<path fill="none" stroke="#000000" d="M905,-52C905,-52 857,-52 857,-52 851,-52 845,-46 845,-40 845,-40 845,-28 845,-28 845,-22 851,-16 857,-16 857,-16 905,-16 905,-16 911,-16 917,-22 917,-28 917,-28 917,-40 917,-40 917,-46 911,-52 905,-52"/>
<text text-anchor="middle" x="881" y="-29.8" font-family="Times,serif" font-size="14.00" fill="#000000">Dimmed</text>
</a>
</g>
</g>
<!-- Phone_screenLight_On&#45;&gt;Phone_screenLight_Dimmed -->
<g id="edge17" class="edge">
<title>Phone_screenLight_On&#45;&gt;Phone_screenLight_Dimmed</title>
<g id="a_edge17"><a xlink:title="From On to Dimmed after(30000)">
<path fill="none" stroke="#000000" d="M651.3903,-139.9159C645.5591,-124.7369 640.7622,-103.3003 652.0342,-89 674.343,-60.6978 774.5171,-45.2926 834.7283,-38.4437"/>
<polygon fill="#000000" stroke="#000000" points="835.1971,-41.9133 844.7541,-37.3401 834.4312,-34.9554 835.1971,-41.9133"/>
</a>
</g>
<text text-anchor="middle" x="686.9829" y="-91.8" font-family="Times,serif" font-size="14.00" fill="#000000">after(30000)</text>
</g>
<!-- Phone_screenLight_Dimmed&#45;&gt;Phone_screenLight_Off -->
<g id="edge9" class="edge">
<title>Phone_screenLight_Dimmed&#45;&gt;Phone_screenLight_Off</title>
<g id="a_edge9"><a xlink:title="From Dimmed to Off on hangUp">
<path fill="none" stroke="#000000" d="M899.3332,-52.0999C911.639,-66.5095 923.7922,-86.8658 913,-103 900.7017,-121.3858 888.5016,-116.8072 867,-122 853.8518,-125.1754 754.839,-122.0505 745.6758,-132 732.428,-146.3846 733.5161,-160.6846 745.6758,-176 767.6162,-203.6344 788.8339,-185.1842 823,-194 852.9704,-201.7332 871.3365,-188.3079 890,-213 900.9392,-227.4727 889.9263,-244.0365 875.5927,-257.3072"/>
<polygon fill="#000000" stroke="#000000" points="873.2001,-254.7483 867.8931,-263.9182 877.7602,-260.0593 873.2001,-254.7483"/>
</a>
</g>
<text text-anchor="middle" x="767.1621" y="-153.8" font-family="Times,serif" font-size="14.00" fill="#000000">hangUp</text>
</g>
<!-- Phone_screenLight_Dimmed&#45;&gt;Phone_screenLight_Off -->
<g id="edge10" class="edge">
<title>Phone_screenLight_Dimmed&#45;&gt;Phone_screenLight_Off</title>
<g id="a_edge10"><a xlink:title="From Dimmed to Off after(60000)&#13;Guard: &#160;[!callInProgress]">
<path fill="none" stroke="#000000" d="M902.6007,-52.0214C916.914,-66.2069 931.1697,-86.3014 920,-103 907.7017,-121.3858 895.1614,-115.5597 874,-122 852.5105,-128.5402 838.6837,-114.616 824.458,-132 812.0734,-147.1341 814.2437,-159.324 824.458,-176 843.3621,-206.8631 878.0959,-182.1369 897,-213 906.6757,-228.7967 894.956,-244.9542 879.7823,-257.659"/>
<polygon fill="#000000" stroke="#000000" points="877.3953,-255.0806 871.6277,-263.9679 881.6787,-260.6171 877.3953,-255.0806"/>
</a>
</g>
<text text-anchor="middle" x="907.771" y="-153.8" font-family="Times,serif" font-size="14.00" fill="#000000">after(60000) [!callInProgress]</text>
</g>
<!-- Phone_screenLight_Dimmed&#45;&gt;Phone_screenLight_On -->
<g id="edge14" class="edge">
<title>Phone_screenLight_Dimmed&#45;&gt;Phone_screenLight_On</title>
<g id="a_edge14"><a xlink:title="From Dimmed to On on callReceived">
<path fill="none" stroke="#000000" d="M844.9428,-45.8235C817.3809,-55.5755 778.9394,-70.7458 747.71,-89 726.1482,-101.6033 704.0617,-119.0092 687.4461,-133.1855"/>
<polygon fill="#000000" stroke="#000000" points="685.0203,-130.6562 679.755,-139.8501 689.6045,-135.9464 685.0203,-130.6562"/>
</a>
</g>
<text text-anchor="middle" x="783.145" y="-91.8" font-family="Times,serif" font-size="14.00" fill="#000000">callReceived</text>
</g>
<!-- Phone_screenLight_Dimmed&#45;&gt;Phone_screenLight_On -->
<g id="edge15" class="edge">
<title>Phone_screenLight_Dimmed&#45;&gt;Phone_screenLight_On</title>
<g id="a_edge15"><a xlink:title="From Dimmed to On on pickUp">
<path fill="none" stroke="#000000" d="M869.4359,-52.2879C858.5472,-68.0255 840.8261,-90.165 820,-103 776.9582,-129.5264 757.1626,-113.7808 710,-132 707.1707,-133.093 704.2935,-134.3025 701.4214,-135.5843"/>
<polygon fill="#000000" stroke="#000000" points="699.8832,-132.4399 692.3307,-139.8703 702.8684,-138.7715 699.8832,-132.4399"/>
</a>
</g>
<text text-anchor="middle" x="857.6069" y="-91.8" font-family="Times,serif" font-size="14.00" fill="#000000">pickUp</text>
</g>
<!-- Phone_screenLight_Dimmed&#45;&gt;Phone_screenLight_On -->
<g id="edge16" class="edge">
<title>Phone_screenLight_Dimmed&#45;&gt;Phone_screenLight_On</title>
<g id="a_edge16"><a xlink:title="From Dimmed to On on dial">
<path fill="none" stroke="#000000" d="M887.1824,-52.0255C891.2005,-67.3763 893.7575,-89.0941 882,-103 831.9466,-162.1991 783.5077,-107.3728 710,-132 706.7472,-133.0898 703.4474,-134.3688 700.1747,-135.7647"/>
<polygon fill="#000000" stroke="#000000" points="698.7049,-132.5882 691.084,-139.9484 701.6314,-138.9471 698.7049,-132.5882"/>
</a>
</g>
<text text-anchor="middle" x="898.4966" y="-91.8" font-family="Times,serif" font-size="14.00" fill="#000000">dial</text>
</g>
<!-- start_Phone_vibration -->
<g id="node8" class="node">
<title>start_Phone_vibration</title>
<g id="a_node8"><a xlink:title="Class Phone, SM vibration, State start">
<ellipse fill="#000000" stroke="#000000" cx="1168" cy="-382.2" rx="7.2" ry="7.2"/>
</a>
</g>
</g>
<!-- Phone_vibration_Off -->
<g id="node9" class="node">
<title>Phone_vibration_Off</title>
<g id="a_node9"><a xlink:title="Class Phone, SM vibration, State Off">
<path fill="none" stroke="#000000" d="M1192,-300C1192,-300 1144,-300 1144,-300 1138,-300 1132,-294 1132,-288 1132,-288 1132,-276 1132,-276 1132,-270 1138,-264 1144,-264 1144,-264 1192,-264 1192,-264 1198,-264 1204,-270 1204,-276 1204,-276 1204,-288 1204,-288 1204,-294 1198,-300 1192,-300"/>
<text text-anchor="middle" x="1168" y="-277.8" font-family="Times,serif" font-size="14.00" fill="#000000">Off</text>
</a>
</g>
</g>
<!-- start_Phone_vibration&#45;&gt;Phone_vibration_Off -->
<g id="edge18" class="edge">
<title>start_Phone_vibration&#45;&gt;Phone_vibration_Off</title>
<g id="a_edge18"><a xlink:title="start to Off">
<path fill="none" stroke="#000000" d="M1168,-374.9939C1168,-361.6512 1168,-332.442 1168,-310.2953"/>
<polygon fill="#000000" stroke="#000000" points="1171.5001,-310.091 1168,-300.0911 1164.5001,-310.0911 1171.5001,-310.091"/>
</a>
</g>
</g>
<!-- Phone_vibration_On -->
<g id="node10" class="node">
<title>Phone_vibration_On</title>
<g id="a_node10"><a xlink:title="Class Phone, SM vibration, State On">
<path fill="none" stroke="#000000" d="M1193,-176C1193,-176 1145,-176 1145,-176 1139,-176 1133,-170 1133,-164 1133,-164 1133,-152 1133,-152 1133,-146 1139,-140 1145,-140 1145,-140 1193,-140 1193,-140 1199,-140 1205,-146 1205,-152 1205,-152 1205,-164 1205,-164 1205,-170 1199,-176 1193,-176"/>
<text text-anchor="middle" x="1169" y="-153.8" font-family="Times,serif" font-size="14.00" fill="#000000">On</text>
</a>
</g>
</g>
<!-- Phone_vibration_Off&#45;&gt;Phone_vibration_On -->
<g id="edge22" class="edge">
<title>Phone_vibration_Off&#45;&gt;Phone_vibration_On</title>
<g id="a_edge22"><a xlink:title="From Off to On on callReceived">
<path fill="none" stroke="#000000" d="M1131.8455,-273.6227C1095.5579,-263.3275 1047.4599,-243.394 1065.71,-213 1078.271,-192.0807 1101.7812,-178.6843 1123.2018,-170.3564"/>
<polygon fill="#000000" stroke="#000000" points="1124.6297,-173.5622 1132.8499,-166.878 1122.2555,-166.9771 1124.6297,-173.5622"/>
</a>
</g>
<text text-anchor="middle" x="1101.145" y="-215.8" font-family="Times,serif" font-size="14.00" fill="#000000">callReceived</text>
</g>
<!-- Phone_vibration_On&#45;&gt;Phone_vibration_Off -->
<g id="edge19" class="edge">
<title>Phone_vibration_On&#45;&gt;Phone_vibration_Off</title>
<g id="a_edge19"><a xlink:title="From On to Off on pickUp">
<path fill="none" stroke="#000000" d="M1158.2813,-176.141C1152.761,-186.5435 1146.6088,-200.0692 1143.7861,-213 1140.7008,-227.1339 1145.1599,-242.3567 1151.0584,-254.8984"/>
<polygon fill="#000000" stroke="#000000" points="1148.025,-256.6514 1155.7483,-263.9041 1154.2336,-253.4181 1148.025,-256.6514"/>
</a>
</g>
<text text-anchor="middle" x="1163.6069" y="-215.8" font-family="Times,serif" font-size="14.00" fill="#000000">pickUp</text>
</g>
<!-- Phone_vibration_On&#45;&gt;Phone_vibration_Off -->
<g id="edge20" class="edge">
<title>Phone_vibration_On&#45;&gt;Phone_vibration_Off</title>
<g id="a_edge20"><a xlink:title="From On to Off on rejectCall">
<path fill="none" stroke="#000000" d="M1177.0262,-176.0109C1182.2512,-189.8475 1187.6442,-209.4908 1185,-227 1183.627,-236.0917 1181.0452,-245.752 1178.3009,-254.398"/>
<polygon fill="#000000" stroke="#000000" points="1174.9463,-253.3928 1175.0673,-263.987 1181.5793,-255.6297 1174.9463,-253.3928"/>
</a>
</g>
<text text-anchor="middle" x="1212.207" y="-215.8" font-family="Times,serif" font-size="14.00" fill="#000000">rejectCall</text>
</g>
<!-- Phone_vibration_On&#45;&gt;Phone_vibration_Off -->
<g id="edge21" class="edge">
<title>Phone_vibration_On&#45;&gt;Phone_vibration_Off</title>
<g id="a_edge21"><a xlink:title="From On to Off on unanswered">
<path fill="none" stroke="#000000" d="M1205.1657,-172.8532C1229.2435,-185.1615 1254.5129,-204.2804 1243,-227 1236.3634,-240.0967 1224.9792,-250.8286 1213.0572,-259.2233"/>
<polygon fill="#000000" stroke="#000000" points="1210.7949,-256.5208 1204.3414,-264.9233 1214.6262,-262.3792 1210.7949,-256.5208"/>
</a>
</g>
<text text-anchor="middle" x="1278.4312" y="-215.8" font-family="Times,serif" font-size="14.00" fill="#000000">unanswered</text>
</g>
</g>
</svg>
