<?xml version="1.0" encoding="UTF-8" standalone="no"?>
<!DOCTYPE svg PUBLIC "-//W3C//DTD SVG 1.1//EN"
 "http://www.w3.org/Graphics/SVG/1.1/DTD/svg11.dtd">
<!-- Generated by graphviz version 2.48.0 (20210717.1556)
 -->
<!-- Title: TicTacToe Pages: 1 -->
<svg width="918pt" height="269pt"
 viewBox="0.00 0.00 918.39 269.40" xmlns="http://www.w3.org/2000/svg" xmlns:xlink="http://www.w3.org/1999/xlink">
<g id="graph0" class="graph" transform="scale(1 1) rotate(0) translate(4 265.4)">
<title>TicTacToe</title>
<polygon fill="white" stroke="transparent" points="-4,4 -4,-265.4 914.39,-265.4 914.39,4 -4,4"/>
<!-- start_TicTacToe_state -->
<g id="node1" class="node">
<title>start_TicTacToe_state</title>
<g id="a_node1"><a xlink:title="Class TicTacToe, SM state, State start">
<ellipse fill="black" stroke="black" cx="454.39" cy="-254.2" rx="7.2" ry="7.2"/>
</a>
</g>
</g>
<!-- TicTacToe_state_xTurn -->
<g id="node2" class="node">
<title>TicTacToe_state_xTurn</title>
<g id="a_node2"><a xlink:title="Class TicTacToe, SM state, State xTurn">
<path fill="none" stroke="black" d="M478.39,-210C478.39,-210 430.39,-210 430.39,-210 424.39,-210 418.39,-204 418.39,-198 418.39,-198 418.39,-186 418.39,-186 418.39,-180 424.39,-174 430.39,-174 430.39,-174 478.39,-174 478.39,-174 484.39,-174 490.39,-180 490.39,-186 490.39,-186 490.39,-198 490.39,-198 490.39,-204 484.39,-210 478.39,-210"/>
<text text-anchor="middle" x="454.39" y="-188.3" font-family="Times,serif" font-size="14.00">xTurn</text>
</a>
</g>
</g>
<!-- start_TicTacToe_state&#45;&gt;TicTacToe_state_xTurn -->
<g id="edge1" class="edge">
<title>start_TicTacToe_state&#45;&gt;TicTacToe_state_xTurn</title>
<g id="a_edge1"><a xlink:title="start to xTurn">
<path fill="none" stroke="black" d="M454.39,-246.76C454.39,-240.39 454.39,-230.2 454.39,-220.39"/>
<polygon fill="black" stroke="black" points="457.89,-220.1 454.39,-210.1 450.89,-220.1 457.89,-220.1"/>
</a>
</g>
</g>
<!-- TicTacToe_state_oTurn -->
<g id="node3" class="node">
<title>TicTacToe_state_oTurn</title>
<g id="a_node3"><a xlink:title="Class TicTacToe, SM state, State oTurn">
<path fill="none" stroke="black" d="M323.39,-123C323.39,-123 275.39,-123 275.39,-123 269.39,-123 263.39,-117 263.39,-111 263.39,-111 263.39,-99 263.39,-99 263.39,-93 269.39,-87 275.39,-87 275.39,-87 323.39,-87 323.39,-87 329.39,-87 335.39,-93 335.39,-99 335.39,-99 335.39,-111 335.39,-111 335.39,-117 329.39,-123 323.39,-123"/>
<text text-anchor="middle" x="299.39" y="-101.3" font-family="Times,serif" font-size="14.00">oTurn</text>
</a>
</g>
</g>
<!-- TicTacToe_state_xTurn&#45;&gt;TicTacToe_state_oTurn -->
<g id="edge3" class="edge">
<title>TicTacToe_state_xTurn&#45;&gt;TicTacToe_state_oTurn</title>
<g id="a_edge3"><a xlink:title="From xTurn to oTurn on xPlays&#13;Guard: &#160;[!(isThreeInARow()) &amp;&amp; spaceAvailable()]">
<path fill="none" stroke="black" d="M418.37,-190.94C316.56,-190.39 32.3,-186.16 4.39,-156 -30.26,-118.55 161.95,-109.13 253.28,-106.78"/>
<polygon fill="black" stroke="black" points="253.45,-110.28 263.37,-106.54 253.29,-103.28 253.45,-110.28"/>
</a>
</g>
<text text-anchor="middle" x="147.89" y="-144.8" font-family="Times,serif" font-size="14.00">xPlays [!(isThreeInARow()) &amp;&amp; spaceAvailable()]</text>
</g>
<!-- TicTacToe_state_xWin -->
<g id="node4" class="node">
<title>TicTacToe_state_xWin</title>
<g id="a_node4"><a xlink:title="Class TicTacToe, SM state, State xWin">
<path fill="none" stroke="black" d="M633.39,-123C633.39,-123 585.39,-123 585.39,-123 579.39,-123 573.39,-117 573.39,-111 573.39,-111 573.39,-99 573.39,-99 573.39,-93 579.39,-87 585.39,-87 585.39,-87 633.39,-87 633.39,-87 639.39,-87 645.39,-93 645.39,-99 645.39,-99 645.39,-111 645.39,-111 645.39,-117 639.39,-123 633.39,-123"/>
<text text-anchor="middle" x="609.39" y="-101.3" font-family="Times,serif" font-size="14.00">xWin</text>
</a>
</g>
</g>
<!-- TicTacToe_state_xTurn&#45;&gt;TicTacToe_state_xWin -->
<g id="edge4" class="edge">
<title>TicTacToe_state_xTurn&#45;&gt;TicTacToe_state_xWin</title>
<g id="a_edge4"><a xlink:title="From xTurn to xWin on xPlays&#13;Guard: &#160;[isThreeInARow()]">
<path fill="none" stroke="black" d="M490.49,-189.88C519.72,-187.17 560.34,-179.1 587.39,-156 594.44,-149.98 599.31,-141.27 602.65,-132.8"/>
<polygon fill="black" stroke="black" points="606.02,-133.73 605.89,-123.14 599.39,-131.51 606.02,-133.73"/>
</a>
</g>
<text text-anchor="middle" x="672.39" y="-144.8" font-family="Times,serif" font-size="14.00">xPlays [isThreeInARow()]</text>
</g>
<!-- TicTacToe_state_tie -->
<g id="node6" class="node">
<title>TicTacToe_state_tie</title>
<g id="a_node6"><a xlink:title="Class TicTacToe, SM state, State tie">
<path fill="none" stroke="black" d="M716.39,-36C716.39,-36 668.39,-36 668.39,-36 662.39,-36 656.39,-30 656.39,-24 656.39,-24 656.39,-12 656.39,-12 656.39,-6 662.39,0 668.39,0 668.39,0 716.39,0 716.39,0 722.39,0 728.39,-6 728.39,-12 728.39,-12 728.39,-24 728.39,-24 728.39,-30 722.39,-36 716.39,-36"/>
<text text-anchor="middle" x="692.39" y="-14.3" font-family="Times,serif" font-size="14.00">tie</text>
</a>
</g>
</g>
<!-- TicTacToe_state_xTurn&#45;&gt;TicTacToe_state_tie -->
<g id="edge6" class="edge">
<title>TicTacToe_state_xTurn&#45;&gt;TicTacToe_state_tie</title>
<g id="a_edge6"><a xlink:title="From xTurn to tie on xPlays&#13;Guard: &#160;[!spaceAvailable()]">
<path fill="none" stroke="black" d="M490.59,-189.38C565.99,-185.64 734.32,-175.21 751.39,-156 780.77,-122.96 744.71,-73.05 717.44,-43.47"/>
<polygon fill="black" stroke="black" points="719.82,-40.89 710.39,-36.05 714.74,-45.71 719.82,-40.89"/>
</a>
</g>
<text text-anchor="middle" x="835.89" y="-101.3" font-family="Times,serif" font-size="14.00">xPlays [!spaceAvailable()]</text>
</g>
<!-- TicTacToe_state_oTurn&#45;&gt;TicTacToe_state_xTurn -->
<g id="edge2" class="edge">
<title>TicTacToe_state_oTurn&#45;&gt;TicTacToe_state_xTurn</title>
<g id="a_edge2"><a xlink:title="From oTurn to xTurn on oPlays&#13;Guard: &#160;[!(isThreeInARow()) &amp;&amp; spaceAvailable()]">
<path fill="none" stroke="black" d="M294.85,-123.1C293.11,-133.7 293.04,-146.98 300.39,-156 313.85,-172.52 367.76,-181.89 408.02,-186.69"/>
<polygon fill="black" stroke="black" points="407.86,-190.19 418.19,-187.84 408.65,-183.24 407.86,-190.19"/>
</a>
</g>
<text text-anchor="middle" x="443.89" y="-144.8" font-family="Times,serif" font-size="14.00">oPlays [!(isThreeInARow()) &amp;&amp; spaceAvailable()]</text>
</g>
<!-- TicTacToe_state_oWin -->
<g id="node5" class="node">
<title>TicTacToe_state_oWin</title>
<g id="a_node5"><a xlink:title="Class TicTacToe, SM state, State oWin">
<path fill="none" stroke="black" d="M323.39,-36C323.39,-36 275.39,-36 275.39,-36 269.39,-36 263.39,-30 263.39,-24 263.39,-24 263.39,-12 263.39,-12 263.39,-6 269.39,0 275.39,0 275.39,0 323.39,0 323.39,0 329.39,0 335.39,-6 335.39,-12 335.39,-12 335.39,-24 335.39,-24 335.39,-30 329.39,-36 323.39,-36"/>
<text text-anchor="middle" x="299.39" y="-14.3" font-family="Times,serif" font-size="14.00">oWin</text>
</a>
</g>
</g>
<!-- TicTacToe_state_oTurn&#45;&gt;TicTacToe_state_oWin -->
<g id="edge5" class="edge">
<title>TicTacToe_state_oTurn&#45;&gt;TicTacToe_state_oWin</title>
<g id="a_edge5"><a xlink:title="From oTurn to oWin on oPlays&#13;Guard: &#160;[isThreeInARow()]">
<path fill="none" stroke="black" d="M299.39,-86.8C299.39,-75.16 299.39,-59.55 299.39,-46.24"/>
<polygon fill="black" stroke="black" points="302.89,-46.18 299.39,-36.18 295.89,-46.18 302.89,-46.18"/>
</a>
</g>
<text text-anchor="middle" x="374.39" y="-57.8" font-family="Times,serif" font-size="14.00">oPlays [isThreeInARow()]</text>
</g>
<!-- TicTacToe_state_oTurn&#45;&gt;TicTacToe_state_tie -->
<g id="edge7" class="edge">
<title>TicTacToe_state_oTurn&#45;&gt;TicTacToe_state_tie</title>
<g id="a_edge7"><a xlink:title="From oTurn to tie on oPlays&#13;Guard: &#160;[!spaceAvailable()]">
<path fill="none" stroke="black" d="M335.66,-96.16C407.31,-80.66 566.91,-46.14 646.05,-29.02"/>
<polygon fill="black" stroke="black" points="647.18,-32.36 656.21,-26.83 645.7,-25.52 647.18,-32.36"/>
</a>
</g>
<text text-anchor="middle" x="593.89" y="-57.8" font-family="Times,serif" font-size="14.00">oPlays [!spaceAvailable()]</text>
</g>
</g>
</svg>
