<?xml version="1.0" encoding="UTF-8" standalone="no"?>
<!DOCTYPE svg PUBLIC "-//W3C//DTD SVG 1.1//EN"
 "http://www.w3.org/Graphics/SVG/1.1/DTD/svg11.dtd">
<!-- Generated by graphviz version 2.48.0 (20210717.1556)
 -->
<!-- Title: TimedCommands Pages: 1 -->
<svg width="343pt" height="269pt"
 viewBox="0.00 0.00 342.85 269.40" xmlns="http://www.w3.org/2000/svg" xmlns:xlink="http://www.w3.org/1999/xlink">
<g id="graph0" class="graph" transform="scale(1 1) rotate(0) translate(4 265.4)">
<title>TimedCommands</title>
<polygon fill="white" stroke="transparent" points="-4,4 -4,-265.4 338.85,-265.4 338.85,4 -4,4"/>
<!-- start_CommandIssuer_sm -->
<g id="node1" class="node">
<title>start_CommandIssuer_sm</title>
<g id="a_node1"><a xlink:title="Class CommandIssuer, SM sm, State start">
<ellipse fill="black" stroke="black" cx="131.85" cy="-254.2" rx="7.2" ry="7.2"/>
</a>
</g>
</g>
<!-- CommandIssuer_sm_initializing -->
<g id="node2" class="node">
<title>CommandIssuer_sm_initializing</title>
<g id="a_node2"><a xlink:title="Class CommandIssuer, SM sm, State initializing">
<path fill="none" stroke="black" d="M158.35,-210C158.35,-210 105.35,-210 105.35,-210 99.35,-210 93.35,-204 93.35,-198 93.35,-198 93.35,-186 93.35,-186 93.35,-180 99.35,-174 105.35,-174 105.35,-174 158.35,-174 158.35,-174 164.35,-174 170.35,-180 170.35,-186 170.35,-186 170.35,-198 170.35,-198 170.35,-204 164.35,-210 158.35,-210"/>
<text text-anchor="middle" x="131.85" y="-188.3" font-family="Times,serif" font-size="14.00">initializing</text>
</a>
</g>
</g>
<!-- start_CommandIssuer_sm&#45;&gt;CommandIssuer_sm_initializing -->
<g id="edge1" class="edge">
<title>start_CommandIssuer_sm&#45;&gt;CommandIssuer_sm_initializing</title>
<g id="a_edge1"><a xlink:title="start to initializing">
<path fill="none" stroke="black" d="M131.85,-246.76C131.85,-240.39 131.85,-230.2 131.85,-220.39"/>
<polygon fill="black" stroke="black" points="135.35,-220.1 131.85,-210.1 128.35,-220.1 135.35,-220.1"/>
</a>
</g>
</g>
<!-- CommandIssuer_sm_processing -->
<g id="node3" class="node">
<title>CommandIssuer_sm_processing</title>
<g id="a_node3"><a xlink:title="Class CommandIssuer, SM sm, State processing">
<path fill="none" stroke="black" d="M157.85,-123C157.85,-123 105.85,-123 105.85,-123 99.85,-123 93.85,-117 93.85,-111 93.85,-111 93.85,-99 93.85,-99 93.85,-93 99.85,-87 105.85,-87 105.85,-87 157.85,-87 157.85,-87 163.85,-87 169.85,-93 169.85,-99 169.85,-99 169.85,-111 169.85,-111 169.85,-117 163.85,-123 157.85,-123"/>
<text text-anchor="middle" x="131.85" y="-101.3" font-family="Times,serif" font-size="14.00">processing</text>
</a>
</g>
</g>
<!-- CommandIssuer_sm_initializing&#45;&gt;CommandIssuer_sm_processing -->
<g id="edge2" class="edge">
<title>CommandIssuer_sm_initializing&#45;&gt;CommandIssuer_sm_processing</title>
<g id="a_edge2"><a xlink:title="From initializing to processing on processCommands">
<path fill="none" stroke="black" d="M131.85,-173.8C131.85,-162.16 131.85,-146.55 131.85,-133.24"/>
<polygon fill="black" stroke="black" points="135.35,-133.18 131.85,-123.18 128.35,-133.18 135.35,-133.18"/>
</a>
</g>
<text text-anchor="middle" x="184.85" y="-144.8" font-family="Times,serif" font-size="14.00">processCommands</text>
</g>
<!-- CommandIssuer_sm_doingACommand -->
<g id="node4" class="node">
<title>CommandIssuer_sm_doingACommand</title>
<g id="a_node4"><a xlink:title="Class CommandIssuer, SM sm, State doingACommand&#13;Entry:&#10; &#160;&#160;nextCommand = getCommand(0);&#10; &#160;&#160;nextDelay = nextCommand.getDelay();&#13;Exit:&#10; &#160;&#160;System.out.println(nextCommand.getName()); &#160;&#160;&#160;&#160;&#160;&#10; &#160;&#160;removeCommand(nextCommand);">
<path fill="none" stroke="black" d="M116.35,-36C116.35,-36 23.35,-36 23.35,-36 17.35,-36 11.35,-30 11.35,-24 11.35,-24 11.35,-12 11.35,-12 11.35,-6 17.35,0 23.35,0 23.35,0 116.35,0 116.35,0 122.35,0 128.35,-6 128.35,-12 128.35,-12 128.35,-24 128.35,-24 128.35,-30 122.35,-36 116.35,-36"/>
<text text-anchor="middle" x="69.85" y="-14.3" font-family="Times,serif" font-size="14.00">doingACommand</text>
</a>
</g>
</g>
<!-- CommandIssuer_sm_processing&#45;&gt;CommandIssuer_sm_doingACommand -->
<g id="edge4" class="edge">
<title>CommandIssuer_sm_processing&#45;&gt;CommandIssuer_sm_doingACommand</title>
<g id="a_edge4"><a xlink:title="From processing to doingACommand automatically&#13;Guard: [hasCommands()]">
<path fill="none" stroke="black" d="M93.82,-98.74C60.19,-93.22 14.78,-83.33 3.85,-69 -4.23,-58.42 2.18,-48.95 13.64,-41.17"/>
<polygon fill="black" stroke="black" points="15.45,-44.17 22.28,-36.06 11.89,-38.14 15.45,-44.17"/>
</a>
</g>
<text text-anchor="middle" x="54.85" y="-57.8" font-family="Times,serif" font-size="14.00">[hasCommands()]</text>
</g>
<!-- CommandIssuer_sm_done -->
<g id="node5" class="node">
<title>CommandIssuer_sm_done</title>
<g id="a_node5"><a xlink:title="Class CommandIssuer, SM sm, State done&#13;Entry:&#10; &#160;&#160;System.exit(0);">
<path fill="none" stroke="black" d="M271.85,-36C271.85,-36 223.85,-36 223.85,-36 217.85,-36 211.85,-30 211.85,-24 211.85,-24 211.85,-12 211.85,-12 211.85,-6 217.85,0 223.85,0 223.85,0 271.85,0 271.85,0 277.85,0 283.85,-6 283.85,-12 283.85,-12 283.85,-24 283.85,-24 283.85,-30 277.85,-36 271.85,-36"/>
<text text-anchor="middle" x="247.85" y="-14.3" font-family="Times,serif" font-size="14.00">done</text>
</a>
</g>
</g>
<!-- CommandIssuer_sm_processing&#45;&gt;CommandIssuer_sm_done -->
<g id="edge5" class="edge">
<title>CommandIssuer_sm_processing&#45;&gt;CommandIssuer_sm_done</title>
<g id="a_edge5"><a xlink:title="From processing to done automatically&#13;Guard: [!hasCommands()]">
<path fill="none" stroke="black" d="M170.08,-93.58C185.47,-88.06 202.65,-80.07 215.85,-69 223.62,-62.48 230.14,-53.59 235.23,-45.1"/>
<polygon fill="black" stroke="black" points="238.38,-46.64 240.18,-36.2 232.26,-43.24 238.38,-46.64"/>
</a>
</g>
<text text-anchor="middle" x="281.85" y="-57.8" font-family="Times,serif" font-size="14.00">[!hasCommands()]</text>
</g>
<!-- CommandIssuer_sm_doingACommand&#45;&gt;CommandIssuer_sm_processing -->
<g id="edge3" class="edge">
<title>CommandIssuer_sm_doingACommand&#45;&gt;CommandIssuer_sm_processing</title>
<g id="a_edge3"><a xlink:title="From doingACommand to processing after(nextDelay)">
<path fill="none" stroke="black" d="M93.12,-36.34C99.1,-41.55 105.15,-47.6 109.85,-54 115.03,-61.07 119.34,-69.55 122.73,-77.5"/>
<polygon fill="black" stroke="black" points="119.48,-78.79 126.41,-86.81 125.99,-76.22 119.48,-78.79"/>
</a>
</g>
<text text-anchor="middle" x="165.35" y="-57.8" font-family="Times,serif" font-size="14.00">after(nextDelay)</text>
</g>
</g>
</svg>
