<?xml version="1.0" encoding="UTF-8" standalone="no"?>
<!DOCTYPE svg PUBLIC "-//W3C//DTD SVG 1.1//EN"
 "http://www.w3.org/Graphics/SVG/1.1/DTD/svg11.dtd">
<!-- Generated by graphviz version 2.44.1 (20200629.0846)
 -->
<!-- Title: TimedCommands Pages: 1 -->
<svg width="336pt" height="269pt"
 viewBox="0.00 0.00 335.81 269.40" xmlns="http://www.w3.org/2000/svg" xmlns:xlink="http://www.w3.org/1999/xlink">
<g id="graph0" class="graph" transform="scale(1 1) rotate(0) translate(4 265.4)">
<title>TimedCommands</title>
<polygon fill="white" stroke="transparent" points="-4,4 -4,-265.4 331.81,-265.4 331.81,4 -4,4"/>
<!-- start_CommandIssuer_sm -->
<g id="node1" class="node">
<title>start_CommandIssuer_sm</title>
<g id="a_node1"><a xlink:title="Class CommandIssuer, SM sm, State start">
<ellipse fill="black" stroke="black" cx="129.81" cy="-254.2" rx="7.2" ry="7.2"/>
</a>
</g>
</g>
<!-- CommandIssuer_sm_initializing -->
<g id="node2" class="node">
<title>CommandIssuer_sm_initializing</title>
<g id="a_node2"><a xlink:title="Class CommandIssuer, SM sm, State initializing">
<path fill="none" stroke="black" d="M155.31,-210C155.31,-210 104.31,-210 104.31,-210 98.31,-210 92.31,-204 92.31,-198 92.31,-198 92.31,-186 92.31,-186 92.31,-180 98.31,-174 104.31,-174 104.31,-174 155.31,-174 155.31,-174 161.31,-174 167.31,-180 167.31,-186 167.31,-186 167.31,-198 167.31,-198 167.31,-204 161.31,-210 155.31,-210"/>
<text text-anchor="middle" x="129.81" y="-188.3" font-family="Times,serif" font-size="14.00">initializing</text>
</a>
</g>
</g>
<!-- start_CommandIssuer_sm&#45;&gt;CommandIssuer_sm_initializing -->
<g id="edge1" class="edge">
<title>start_CommandIssuer_sm&#45;&gt;CommandIssuer_sm_initializing</title>
<g id="a_edge1"><a xlink:title="start to initializing">
<path fill="none" stroke="black" d="M129.81,-246.76C129.81,-240.39 129.81,-230.2 129.81,-220.39"/>
<polygon fill="black" stroke="black" points="133.31,-220.1 129.81,-210.1 126.31,-220.1 133.31,-220.1"/>
</a>
</g>
</g>
<!-- CommandIssuer_sm_processing -->
<g id="node3" class="node">
<title>CommandIssuer_sm_processing</title>
<g id="a_node3"><a xlink:title="Class CommandIssuer, SM sm, State processing">
<path fill="none" stroke="black" d="M154.81,-123C154.81,-123 104.81,-123 104.81,-123 98.81,-123 92.81,-117 92.81,-111 92.81,-111 92.81,-99 92.81,-99 92.81,-93 98.81,-87 104.81,-87 104.81,-87 154.81,-87 154.81,-87 160.81,-87 166.81,-93 166.81,-99 166.81,-99 166.81,-111 166.81,-111 166.81,-117 160.81,-123 154.81,-123"/>
<text text-anchor="middle" x="129.81" y="-101.3" font-family="Times,serif" font-size="14.00">processing</text>
</a>
</g>
</g>
<!-- CommandIssuer_sm_initializing&#45;&gt;CommandIssuer_sm_processing -->
<g id="edge2" class="edge">
<title>CommandIssuer_sm_initializing&#45;&gt;CommandIssuer_sm_processing</title>
<g id="a_edge2"><a xlink:title="From initializing to processing on processCommands">
<path fill="none" stroke="black" d="M129.81,-173.8C129.81,-162.16 129.81,-146.55 129.81,-133.24"/>
<polygon fill="black" stroke="black" points="133.31,-133.18 129.81,-123.18 126.31,-133.18 133.31,-133.18"/>
</a>
</g>
<text text-anchor="middle" x="181.81" y="-144.8" font-family="Times,serif" font-size="14.00">processCommands</text>
</g>
<!-- CommandIssuer_sm_doingACommand -->
<g id="node4" class="node">
<title>CommandIssuer_sm_doingACommand</title>
<g id="a_node4"><a xlink:title="Class CommandIssuer, SM sm, State doingACommand&#13;Entry:&#10; &#160;&#160;nextCommand = getCommand(0);&#10; &#160;&#160;nextDelay = nextCommand.getDelay();&#13;Exit:&#10; &#160;&#160;System.out.println(nextCommand.getName()); &#160;&#160;&#160;&#160;&#160;&#10; &#160;&#160;removeCommand(nextCommand);">
<path fill="none" stroke="black" d="M114.31,-36C114.31,-36 23.31,-36 23.31,-36 17.31,-36 11.31,-30 11.31,-24 11.31,-24 11.31,-12 11.31,-12 11.31,-6 17.31,0 23.31,0 23.31,0 114.31,0 114.31,0 120.31,0 126.31,-6 126.31,-12 126.31,-12 126.31,-24 126.31,-24 126.31,-30 120.31,-36 114.31,-36"/>
<text text-anchor="middle" x="68.81" y="-14.3" font-family="Times,serif" font-size="14.00">doingACommand</text>
</a>
</g>
</g>
<!-- CommandIssuer_sm_processing&#45;&gt;CommandIssuer_sm_doingACommand -->
<g id="edge4" class="edge">
<title>CommandIssuer_sm_processing&#45;&gt;CommandIssuer_sm_doingACommand</title>
<g id="a_edge4"><a xlink:title="From processing to doingACommand automatically&#13;Guard: [hasCommands()]">
<path fill="none" stroke="black" d="M92.69,-98.71C59.54,-93.14 14.59,-83.19 3.81,-69 -4.1,-58.6 2.01,-49.24 13.1,-41.5"/>
<polygon fill="black" stroke="black" points="15.19,-44.33 21.93,-36.16 11.56,-38.34 15.19,-44.33"/>
</a>
</g>
<text text-anchor="middle" x="53.81" y="-57.8" font-family="Times,serif" font-size="14.00">[hasCommands()]</text>
</g>
<!-- CommandIssuer_sm_done -->
<g id="node5" class="node">
<title>CommandIssuer_sm_done</title>
<g id="a_node5"><a xlink:title="Class CommandIssuer, SM sm, State done&#13;Entry:&#10; &#160;&#160;System.exit(0);">
<path fill="none" stroke="black" d="M266.81,-36C266.81,-36 218.81,-36 218.81,-36 212.81,-36 206.81,-30 206.81,-24 206.81,-24 206.81,-12 206.81,-12 206.81,-6 212.81,0 218.81,0 218.81,0 266.81,0 266.81,0 272.81,0 278.81,-6 278.81,-12 278.81,-12 278.81,-24 278.81,-24 278.81,-30 272.81,-36 266.81,-36"/>
<text text-anchor="middle" x="242.81" y="-14.3" font-family="Times,serif" font-size="14.00">done</text>
</a>
</g>
</g>
<!-- CommandIssuer_sm_processing&#45;&gt;CommandIssuer_sm_done -->
<g id="edge5" class="edge">
<title>CommandIssuer_sm_processing&#45;&gt;CommandIssuer_sm_done</title>
<g id="a_edge5"><a xlink:title="From processing to done automatically&#13;Guard: [!hasCommands()]">
<path fill="none" stroke="black" d="M167.08,-93.18C181.82,-87.62 198.2,-79.72 210.81,-69 218.53,-62.43 225.05,-53.52 230.14,-45.05"/>
<polygon fill="black" stroke="black" points="233.29,-46.59 235.1,-36.15 227.17,-43.18 233.29,-46.59"/>
</a>
</g>
<text text-anchor="middle" x="275.81" y="-57.8" font-family="Times,serif" font-size="14.00">[!hasCommands()]</text>
</g>
<!-- CommandIssuer_sm_doingACommand&#45;&gt;CommandIssuer_sm_processing -->
<g id="edge3" class="edge">
<title>CommandIssuer_sm_doingACommand&#45;&gt;CommandIssuer_sm_processing</title>
<g id="a_edge3"><a xlink:title="From doingACommand to processing after(nextDelay)">
<path fill="none" stroke="black" d="M91.08,-36.06C97.03,-41.35 103.11,-47.52 107.81,-54 112.95,-61.1 117.25,-69.59 120.64,-77.54"/>
<polygon fill="black" stroke="black" points="117.39,-78.83 124.32,-86.84 123.89,-76.26 117.39,-78.83"/>
</a>
</g>
<text text-anchor="middle" x="161.81" y="-57.8" font-family="Times,serif" font-size="14.00">after(nextDelay)</text>
</g>
</g>
</svg>
