<?xml version="1.0" encoding="UTF-8" standalone="no"?>
<!DOCTYPE svg PUBLIC "-//W3C//DTD SVG 1.1//EN"
 "http://www.w3.org/Graphics/SVG/1.1/DTD/svg11.dtd">
<!-- Generated by graphviz version 2.48.0 (20210717.1556)
 -->
<!-- Title: TollBooth Pages: 1 -->
<svg width="1053pt" height="411pt"
 viewBox="0.00 0.00 1053.00 411.40" xmlns="http://www.w3.org/2000/svg" xmlns:xlink="http://www.w3.org/1999/xlink">
<g id="graph0" class="graph" transform="scale(1 1) rotate(0) translate(4 407.4)">
<title>TollBooth</title>
<polygon fill="white" stroke="transparent" points="-4,4 -4,-407.4 1049,-407.4 1049,4 -4,4"/>
<g id="clust1" class="cluster">
<title>clusterTollLane_vehicleProcessingState</title>
<polygon fill="none" stroke="black" stroke-width="0.5" points="8,-8 8,-395.4 735,-395.4 735,-8 8,-8"/>
<text text-anchor="middle" x="371.5" y="-380.2" font-family="Times,serif" font-size="14.00">sm TollLane vehicleProcessingState</text>
</g>
<g id="clust2" class="cluster">
<title>clusterTollLane_laneAndBoothState</title>
<polygon fill="none" stroke="black" stroke-width="0.5" points="743,-8 743,-395.4 1009,-395.4 1009,-8 743,-8"/>
<text text-anchor="middle" x="876" y="-380.2" font-family="Times,serif" font-size="14.00">sm TollLane laneAndBoothState</text>
</g>
<!-- start_TollLane_vehicleProcessingState -->
<g id="node1" class="node">
<title>start_TollLane_vehicleProcessingState</title>
<g id="a_node1"><a xlink:title="Class TollLane, SM vehicleProcessingState, State start">
<ellipse fill="black" stroke="black" cx="215" cy="-357.2" rx="7.2" ry="7.2"/>
</a>
</g>
</g>
<!-- TollLane_vehicleProcessingState_Empty -->
<g id="node2" class="node">
<title>TollLane_vehicleProcessingState_Empty</title>
<g id="a_node2"><a xlink:title="Class TollLane, SM vehicleProcessingState, State Empty">
<path fill="none" stroke="black" d="M239,-313C239,-313 191,-313 191,-313 185,-313 179,-307 179,-301 179,-301 179,-289 179,-289 179,-283 185,-277 191,-277 191,-277 239,-277 239,-277 245,-277 251,-283 251,-289 251,-289 251,-301 251,-301 251,-307 245,-313 239,-313"/>
<text text-anchor="middle" x="215" y="-291.3" font-family="Times,serif" font-size="14.00">Empty</text>
</a>
</g>
</g>
<!-- start_TollLane_vehicleProcessingState&#45;&gt;TollLane_vehicleProcessingState_Empty -->
<g id="edge1" class="edge">
<title>start_TollLane_vehicleProcessingState&#45;&gt;TollLane_vehicleProcessingState_Empty</title>
<g id="a_edge1"><a xlink:title="start to Empty">
<path fill="none" stroke="black" d="M215,-349.76C215,-343.39 215,-333.2 215,-323.39"/>
<polygon fill="black" stroke="black" points="218.5,-323.1 215,-313.1 211.5,-323.1 218.5,-323.1"/>
</a>
</g>
</g>
<!-- TollLane_vehicleProcessingState_VehicleClassified -->
<g id="node3" class="node">
<title>TollLane_vehicleProcessingState_VehicleClassified</title>
<g id="a_node3"><a xlink:title="Class TollLane, SM vehicleProcessingState, State VehicleClassified">
<path fill="none" stroke="black" d="M218,-226C218,-226 128,-226 128,-226 122,-226 116,-220 116,-214 116,-214 116,-202 116,-202 116,-196 122,-190 128,-190 128,-190 218,-190 218,-190 224,-190 230,-196 230,-202 230,-202 230,-214 230,-214 230,-220 224,-226 218,-226"/>
<text text-anchor="middle" x="173" y="-204.3" font-family="Times,serif" font-size="14.00">VehicleClassified</text>
</a>
</g>
</g>
<!-- TollLane_vehicleProcessingState_Empty&#45;&gt;TollLane_vehicleProcessingState_VehicleClassified -->
<g id="edge6" class="edge">
<title>TollLane_vehicleProcessingState_Empty&#45;&gt;TollLane_vehicleProcessingState_VehicleClassified</title>
<g id="a_edge6"><a xlink:title="From Empty to VehicleClassified on classify">
<path fill="none" stroke="black" d="M178.78,-290.1C158.78,-285.89 135.51,-277.15 123,-259 116.4,-249.43 121.52,-240.1 130.6,-232.14"/>
<polygon fill="black" stroke="black" points="132.74,-234.91 138.58,-226.07 128.5,-229.34 132.74,-234.91"/>
</a>
</g>
<text text-anchor="middle" x="144.5" y="-247.8" font-family="Times,serif" font-size="14.00">classify</text>
</g>
<!-- TollLane_vehicleProcessingState_ExitSensorActive -->
<g id="node5" class="node">
<title>TollLane_vehicleProcessingState_ExitSensorActive</title>
<g id="a_node5"><a xlink:title="Class TollLane, SM vehicleProcessingState, State ExitSensorActive">
<path fill="none" stroke="black" d="M307.5,-52C307.5,-52 216.5,-52 216.5,-52 210.5,-52 204.5,-46 204.5,-40 204.5,-40 204.5,-28 204.5,-28 204.5,-22 210.5,-16 216.5,-16 216.5,-16 307.5,-16 307.5,-16 313.5,-16 319.5,-22 319.5,-28 319.5,-28 319.5,-40 319.5,-40 319.5,-46 313.5,-52 307.5,-52"/>
<text text-anchor="middle" x="262" y="-30.3" font-family="Times,serif" font-size="14.00">ExitSensorActive</text>
</a>
</g>
</g>
<!-- TollLane_vehicleProcessingState_Empty&#45;&gt;TollLane_vehicleProcessingState_ExitSensorActive -->
<g id="edge9" class="edge">
<title>TollLane_vehicleProcessingState_Empty&#45;&gt;TollLane_vehicleProcessingState_ExitSensorActive</title>
<g id="a_edge9"><a xlink:title="From Empty to ExitSensorActive on vehicleActivatedExitSensor">
<path fill="none" stroke="black" d="M178.85,-284.87C114.76,-266.81 -8.47,-222.49 31,-157 66.28,-98.46 140.08,-66.57 194.81,-50.23"/>
<polygon fill="black" stroke="black" points="195.81,-53.59 204.45,-47.45 193.88,-46.86 195.81,-53.59"/>
</a>
</g>
<text text-anchor="middle" x="109.5" y="-160.8" font-family="Times,serif" font-size="14.00">vehicleActivatedExitSensor</text>
</g>
<!-- TollLane_vehicleProcessingState_ReverseEntry -->
<g id="node6" class="node">
<title>TollLane_vehicleProcessingState_ReverseEntry</title>
<g id="a_node6"><a xlink:title="Class TollLane, SM vehicleProcessingState, State ReverseEntry">
<path fill="none" stroke="black" d="M411.5,-226C411.5,-226 342.5,-226 342.5,-226 336.5,-226 330.5,-220 330.5,-214 330.5,-214 330.5,-202 330.5,-202 330.5,-196 336.5,-190 342.5,-190 342.5,-190 411.5,-190 411.5,-190 417.5,-190 423.5,-196 423.5,-202 423.5,-202 423.5,-214 423.5,-214 423.5,-220 417.5,-226 411.5,-226"/>
<text text-anchor="middle" x="377" y="-204.3" font-family="Times,serif" font-size="14.00">ReverseEntry</text>
</a>
</g>
</g>
<!-- TollLane_vehicleProcessingState_Empty&#45;&gt;TollLane_vehicleProcessingState_ReverseEntry -->
<g id="edge12" class="edge">
<title>TollLane_vehicleProcessingState_Empty&#45;&gt;TollLane_vehicleProcessingState_ReverseEntry</title>
<g id="a_edge12"><a xlink:title="From Empty to ReverseEntry on vehicleActivatedExitSensorReverseDirection">
<path fill="none" stroke="black" d="M218.05,-276.76C220.87,-265.82 226.18,-252.22 236,-244 263.94,-220.6 280.66,-234.89 316,-226 317.47,-225.63 318.95,-225.25 320.45,-224.87"/>
<polygon fill="black" stroke="black" points="321.66,-228.17 330.44,-222.24 319.88,-221.4 321.66,-228.17"/>
</a>
</g>
<text text-anchor="middle" x="363.5" y="-247.8" font-family="Times,serif" font-size="14.00">vehicleActivatedExitSensorReverseDirection</text>
</g>
<!-- TollLane_vehicleProcessingState_VehicleClassified&#45;&gt;TollLane_vehicleProcessingState_Empty -->
<g id="edge2" class="edge">
<title>TollLane_vehicleProcessingState_VehicleClassified&#45;&gt;TollLane_vehicleProcessingState_Empty</title>
<g id="a_edge2"><a xlink:title="From VehicleClassified to Empty on cancel">
<path fill="none" stroke="black" d="M169.93,-226.47C169,-236.46 169.25,-248.96 174,-259 175.75,-262.7 178.1,-266.16 180.8,-269.35"/>
<polygon fill="black" stroke="black" points="178.54,-272.05 188.05,-276.71 183.53,-267.13 178.54,-272.05"/>
</a>
</g>
<text text-anchor="middle" x="192" y="-247.8" font-family="Times,serif" font-size="14.00">cancel</text>
</g>
<!-- TollLane_vehicleProcessingState_VehicleFreeToGo -->
<g id="node4" class="node">
<title>TollLane_vehicleProcessingState_VehicleFreeToGo</title>
<g id="a_node4"><a xlink:title="Class TollLane, SM vehicleProcessingState, State VehicleFreeToGo">
<path fill="none" stroke="black" d="M475.5,-139C475.5,-139 384.5,-139 384.5,-139 378.5,-139 372.5,-133 372.5,-127 372.5,-127 372.5,-115 372.5,-115 372.5,-109 378.5,-103 384.5,-103 384.5,-103 475.5,-103 475.5,-103 481.5,-103 487.5,-109 487.5,-115 487.5,-115 487.5,-127 487.5,-127 487.5,-133 481.5,-139 475.5,-139"/>
<text text-anchor="middle" x="430" y="-117.3" font-family="Times,serif" font-size="14.00">VehicleFreeToGo</text>
</a>
</g>
</g>
<!-- TollLane_vehicleProcessingState_VehicleClassified&#45;&gt;TollLane_vehicleProcessingState_VehicleFreeToGo -->
<g id="edge7" class="edge">
<title>TollLane_vehicleProcessingState_VehicleClassified&#45;&gt;TollLane_vehicleProcessingState_VehicleFreeToGo</title>
<g id="a_edge7"><a xlink:title="From VehicleClassified to VehicleFreeToGo on paymentComplete">
<path fill="none" stroke="black" d="M185.07,-189.7C193.93,-178.44 207,-164.5 222,-157 276.54,-129.74 298.03,-150.02 358,-139 359.46,-138.73 360.94,-138.45 362.42,-138.17"/>
<polygon fill="black" stroke="black" points="363.24,-141.57 372.34,-136.15 361.84,-134.71 363.24,-141.57"/>
</a>
</g>
<text text-anchor="middle" x="273.5" y="-160.8" font-family="Times,serif" font-size="14.00">paymentComplete</text>
</g>
<!-- TollLane_vehicleProcessingState_VehicleClassified&#45;&gt;TollLane_vehicleProcessingState_ExitSensorActive -->
<g id="edge10" class="edge">
<title>TollLane_vehicleProcessingState_VehicleClassified&#45;&gt;TollLane_vehicleProcessingState_ExitSensorActive</title>
<g id="a_edge10"><a xlink:title="From VehicleClassified to ExitSensorActive on vehicleActivatedExitSensor">
<path fill="none" stroke="black" d="M183.67,-189.65C186.71,-184.16 189.78,-177.96 192,-172 202.93,-142.58 193.43,-131.3 207,-103 214.59,-87.16 226.55,-71.76 237.38,-59.62"/>
<polygon fill="black" stroke="black" points="240.07,-61.87 244.28,-52.15 234.92,-57.13 240.07,-61.87"/>
</a>
</g>
<text text-anchor="middle" x="285.5" y="-117.3" font-family="Times,serif" font-size="14.00">vehicleActivatedExitSensor</text>
</g>
<!-- TollLane_vehicleProcessingState_VehicleFreeToGo&#45;&gt;TollLane_vehicleProcessingState_Empty -->
<g id="edge3" class="edge">
<title>TollLane_vehicleProcessingState_VehicleFreeToGo&#45;&gt;TollLane_vehicleProcessingState_Empty</title>
<g id="a_edge3"><a xlink:title="From VehicleFreeToGo to Empty on unblock">
<path fill="none" stroke="black" d="M385.93,-139.14C373.46,-144.44 360.01,-150.58 348,-157 337.24,-162.75 335.91,-166.53 325,-172 304.26,-182.4 295.63,-177.64 276,-190 256.58,-202.22 255.55,-210.11 239,-226 230.61,-234.06 225.12,-233.56 220,-244 216.57,-251 214.92,-259.21 214.23,-266.92"/>
<polygon fill="black" stroke="black" points="210.73,-266.85 213.81,-276.99 217.73,-267.14 210.73,-266.85"/>
</a>
</g>
<text text-anchor="middle" x="299" y="-204.3" font-family="Times,serif" font-size="14.00">unblock</text>
</g>
<!-- TollLane_vehicleProcessingState_VehicleFreeToGo&#45;&gt;TollLane_vehicleProcessingState_ExitSensorActive -->
<g id="edge11" class="edge">
<title>TollLane_vehicleProcessingState_VehicleFreeToGo&#45;&gt;TollLane_vehicleProcessingState_ExitSensorActive</title>
<g id="a_edge11"><a xlink:title="From VehicleFreeToGo to ExitSensorActive on vehicleActivatedExitSensor">
<path fill="none" stroke="black" d="M396,-102.8C369.73,-89.51 333.2,-71.02 304.91,-56.71"/>
<polygon fill="black" stroke="black" points="306.16,-53.42 295.66,-52.03 303,-59.67 306.16,-53.42"/>
</a>
</g>
<text text-anchor="middle" x="434.5" y="-73.8" font-family="Times,serif" font-size="14.00">vehicleActivatedExitSensor</text>
</g>
<!-- TollLane_vehicleProcessingState_ExitSensorActive&#45;&gt;TollLane_vehicleProcessingState_Empty -->
<g id="edge4" class="edge">
<title>TollLane_vehicleProcessingState_ExitSensorActive&#45;&gt;TollLane_vehicleProcessingState_Empty</title>
<g id="a_edge4"><a xlink:title="From ExitSensorActive to Empty on exitSensorDeactivated">
<path fill="none" stroke="black" d="M319.72,-37.64C384.51,-41.52 484.79,-50.51 517,-70 558.87,-95.33 663.12,-222.97 630,-259 605.46,-285.7 364.54,-292.05 261.43,-293.54"/>
<polygon fill="black" stroke="black" points="261.26,-290.04 251.31,-293.68 261.36,-297.04 261.26,-290.04"/>
</a>
</g>
<text text-anchor="middle" x="671" y="-160.8" font-family="Times,serif" font-size="14.00">exitSensorDeactivated</text>
</g>
<!-- TollLane_vehicleProcessingState_ReverseEntry&#45;&gt;TollLane_vehicleProcessingState_Empty -->
<g id="edge5" class="edge">
<title>TollLane_vehicleProcessingState_ReverseEntry&#45;&gt;TollLane_vehicleProcessingState_Empty</title>
<g id="a_edge5"><a xlink:title="From ReverseEntry to Empty on exitSensorDeactivated">
<path fill="none" stroke="black" d="M423.88,-213.51C466.25,-219.37 518.63,-232.23 495,-259 479.81,-276.21 336.76,-286.98 261.23,-291.52"/>
<polygon fill="black" stroke="black" points="260.82,-288.03 251.04,-292.11 261.23,-295.02 260.82,-288.03"/>
</a>
</g>
<text text-anchor="middle" x="563" y="-247.8" font-family="Times,serif" font-size="14.00">exitSensorDeactivated</text>
</g>
<!-- TollLane_vehicleProcessingState_ReverseEntry&#45;&gt;TollLane_vehicleProcessingState_VehicleFreeToGo -->
<g id="edge8" class="edge">
<title>TollLane_vehicleProcessingState_ReverseEntry&#45;&gt;TollLane_vehicleProcessingState_VehicleFreeToGo</title>
<g id="a_edge8"><a xlink:title="From ReverseEntry to VehicleFreeToGo on exitSensorDeactivatedReverseDirection">
<path fill="none" stroke="black" d="M361.11,-189.68C353.98,-179.74 348.48,-167.24 355,-157 357.87,-152.49 361.49,-148.56 365.57,-145.13"/>
<polygon fill="black" stroke="black" points="367.86,-147.79 373.94,-139.12 363.78,-142.11 367.86,-147.79"/>
</a>
</g>
<text text-anchor="middle" x="467" y="-160.8" font-family="Times,serif" font-size="14.00">exitSensorDeactivatedReverseDirection</text>
</g>
<!-- start_TollLane_laneAndBoothState -->
<g id="node7" class="node">
<title>start_TollLane_laneAndBoothState</title>
<g id="a_node7"><a xlink:title="Class TollLane, SM laneAndBoothState, State start">
<ellipse fill="black" stroke="black" cx="820" cy="-357.2" rx="7.2" ry="7.2"/>
</a>
</g>
</g>
<!-- TollLane_laneAndBoothState_Closed -->
<g id="node8" class="node">
<title>TollLane_laneAndBoothState_Closed</title>
<g id="a_node8"><a xlink:title="Class TollLane, SM laneAndBoothState, State Closed">
<path fill="none" stroke="black" d="M844,-313C844,-313 796,-313 796,-313 790,-313 784,-307 784,-301 784,-301 784,-289 784,-289 784,-283 790,-277 796,-277 796,-277 844,-277 844,-277 850,-277 856,-283 856,-289 856,-289 856,-301 856,-301 856,-307 850,-313 844,-313"/>
<text text-anchor="middle" x="820" y="-291.3" font-family="Times,serif" font-size="14.00">Closed</text>
</a>
</g>
</g>
<!-- start_TollLane_laneAndBoothState&#45;&gt;TollLane_laneAndBoothState_Closed -->
<g id="edge13" class="edge">
<title>start_TollLane_laneAndBoothState&#45;&gt;TollLane_laneAndBoothState_Closed</title>
<g id="a_edge13"><a xlink:title="start to Closed">
<path fill="none" stroke="black" d="M820,-349.76C820,-343.39 820,-333.2 820,-323.39"/>
<polygon fill="black" stroke="black" points="823.5,-323.1 820,-313.1 816.5,-323.1 823.5,-323.1"/>
</a>
</g>
</g>
<!-- TollLane_laneAndBoothState_Opening -->
<g id="node9" class="node">
<title>TollLane_laneAndBoothState_Opening</title>
<g id="a_node9"><a xlink:title="Class TollLane, SM laneAndBoothState, State Opening">
<path fill="none" stroke="black" d="M811,-226C811,-226 763,-226 763,-226 757,-226 751,-220 751,-214 751,-214 751,-202 751,-202 751,-196 757,-190 763,-190 763,-190 811,-190 811,-190 817,-190 823,-196 823,-202 823,-202 823,-214 823,-214 823,-220 817,-226 811,-226"/>
<text text-anchor="middle" x="787" y="-204.3" font-family="Times,serif" font-size="14.00">Opening</text>
</a>
</g>
</g>
<!-- TollLane_laneAndBoothState_Closed&#45;&gt;TollLane_laneAndBoothState_Opening -->
<g id="edge16" class="edge">
<title>TollLane_laneAndBoothState_Closed&#45;&gt;TollLane_laneAndBoothState_Opening</title>
<g id="a_edge16"><a xlink:title="From Closed to Opening on open">
<path fill="none" stroke="black" d="M785.19,-276.94C778.68,-272.08 772.75,-266.13 769,-259 765.09,-251.57 766.23,-243.11 769.33,-235.28"/>
<polygon fill="black" stroke="black" points="772.55,-236.67 773.87,-226.16 766.28,-233.55 772.55,-236.67"/>
</a>
</g>
<text text-anchor="middle" x="783" y="-247.8" font-family="Times,serif" font-size="14.00">open</text>
</g>
<!-- TollLane_laneAndBoothState_Opening&#45;&gt;TollLane_laneAndBoothState_Closed -->
<g id="edge14" class="edge">
<title>TollLane_laneAndBoothState_Opening&#45;&gt;TollLane_laneAndBoothState_Closed</title>
<g id="a_edge14"><a xlink:title="From Opening to Closed on cancelOpening">
<path fill="none" stroke="black" d="M793.67,-226.18C798.23,-237.92 804.37,-253.73 809.57,-267.13"/>
<polygon fill="black" stroke="black" points="806.44,-268.74 813.32,-276.8 812.97,-266.21 806.44,-268.74"/>
</a>
</g>
<text text-anchor="middle" x="847" y="-247.8" font-family="Times,serif" font-size="14.00">cancelOpening</text>
</g>
<!-- TollLane_laneAndBoothState_Open -->
<g id="node10" class="node">
<title>TollLane_laneAndBoothState_Open</title>
<g id="a_node10"><a xlink:title="Class TollLane, SM laneAndBoothState, State Open">
<path fill="none" stroke="black" d="M811,-139C811,-139 763,-139 763,-139 757,-139 751,-133 751,-127 751,-127 751,-115 751,-115 751,-109 757,-103 763,-103 763,-103 811,-103 811,-103 817,-103 823,-109 823,-115 823,-115 823,-127 823,-127 823,-133 817,-139 811,-139"/>
<text text-anchor="middle" x="787" y="-117.3" font-family="Times,serif" font-size="14.00">Open</text>
</a>
</g>
</g>
<!-- TollLane_laneAndBoothState_Opening&#45;&gt;TollLane_laneAndBoothState_Open -->
<g id="edge17" class="edge">
<title>TollLane_laneAndBoothState_Opening&#45;&gt;TollLane_laneAndBoothState_Open</title>
<g id="a_edge17"><a xlink:title="From Opening to Open on completedOpening">
<path fill="none" stroke="black" d="M776.72,-189.77C773.98,-184.28 771.39,-178.06 770,-172 768.23,-164.3 769.58,-156.11 772.15,-148.64"/>
<polygon fill="black" stroke="black" points="775.41,-149.91 776.07,-139.33 768.96,-147.19 775.41,-149.91"/>
</a>
</g>
<text text-anchor="middle" x="823.5" y="-160.8" font-family="Times,serif" font-size="14.00">completedOpening</text>
</g>
<!-- TollLane_laneAndBoothState_Closing -->
<g id="node11" class="node">
<title>TollLane_laneAndBoothState_Closing</title>
<g id="a_node11"><a xlink:title="Class TollLane, SM laneAndBoothState, State Closing">
<path fill="none" stroke="black" d="M845,-52C845,-52 797,-52 797,-52 791,-52 785,-46 785,-40 785,-40 785,-28 785,-28 785,-22 791,-16 797,-16 797,-16 845,-16 845,-16 851,-16 857,-22 857,-28 857,-28 857,-40 857,-40 857,-46 851,-52 845,-52"/>
<text text-anchor="middle" x="821" y="-30.3" font-family="Times,serif" font-size="14.00">Closing</text>
</a>
</g>
</g>
<!-- TollLane_laneAndBoothState_Open&#45;&gt;TollLane_laneAndBoothState_Closing -->
<g id="edge19" class="edge">
<title>TollLane_laneAndBoothState_Open&#45;&gt;TollLane_laneAndBoothState_Closing</title>
<g id="a_edge19"><a xlink:title="From Open to Closing on close">
<path fill="none" stroke="black" d="M773.28,-102.85C767.12,-92.97 762.37,-80.47 768,-70 770.33,-65.68 773.45,-61.8 777.02,-58.34"/>
<polygon fill="black" stroke="black" points="779.4,-60.91 784.86,-51.83 774.93,-55.52 779.4,-60.91"/>
</a>
</g>
<text text-anchor="middle" x="782.5" y="-73.8" font-family="Times,serif" font-size="14.00">close</text>
</g>
<!-- TollLane_laneAndBoothState_Closing&#45;&gt;TollLane_laneAndBoothState_Closed -->
<g id="edge15" class="edge">
<title>TollLane_laneAndBoothState_Closing&#45;&gt;TollLane_laneAndBoothState_Closed</title>
<g id="a_edge15"><a xlink:title="From Closing to Closed on completedClosing">
<path fill="none" stroke="black" d="M857.25,-44.84C869.81,-50.16 882.59,-58.16 890,-70 1028.76,-291.67 905.14,-239.72 893,-259 886.63,-269.12 876.43,-276.38 865.65,-281.56"/>
<polygon fill="black" stroke="black" points="863.96,-278.48 856.11,-285.6 866.68,-284.92 863.96,-278.48"/>
</a>
</g>
<text text-anchor="middle" x="994" y="-160.8" font-family="Times,serif" font-size="14.00">completedClosing</text>
</g>
<!-- TollLane_laneAndBoothState_Closing&#45;&gt;TollLane_laneAndBoothState_Open -->
<g id="edge18" class="edge">
<title>TollLane_laneAndBoothState_Closing&#45;&gt;TollLane_laneAndBoothState_Open</title>
<g id="a_edge18"><a xlink:title="From Closing to Open on cancelClosing">
<path fill="none" stroke="black" d="M814.13,-52.18C809.43,-63.92 803.11,-79.73 797.75,-93.13"/>
<polygon fill="black" stroke="black" points="794.34,-92.21 793.88,-102.8 800.84,-94.81 794.34,-92.21"/>
</a>
</g>
<text text-anchor="middle" x="846" y="-73.8" font-family="Times,serif" font-size="14.00">cancelClosing</text>
</g>
</g>
</svg>
