<?xml version="1.0" encoding="UTF-8" standalone="no"?>
<!DOCTYPE svg PUBLIC "-//W3C//DTD SVG 1.1//EN"
 "http://www.w3.org/Graphics/SVG/1.1/DTD/svg11.dtd">
<!-- Generated by graphviz version 2.48.0 (20210717.1556)
 -->
<!-- Title: TrafficLightsB Pages: 1 -->
<svg width="2009pt" height="520pt"
 viewBox="0.00 0.00 2009.00 520.00" xmlns="http://www.w3.org/2000/svg" xmlns:xlink="http://www.w3.org/1999/xlink">
<g id="graph0" class="graph" transform="scale(1 1) rotate(0) translate(4 516)">
<title>TrafficLightsB</title>
<polygon fill="white" stroke="transparent" points="-4,4 -4,-516 2005,-516 2005,4 -4,4"/>
<g id="clust1" class="cluster">
<title>clusterIntersectionTimerDriven_flow</title>
<polygon fill="none" stroke="black" stroke-width="0.5" points="8,-8 8,-493.2 344,-493.2 344,-8 8,-8"/>
<text text-anchor="middle" x="176" y="-478" font-family="Times,serif" font-size="14.00">sm IntersectionTimerDriven flow</text>
</g>
<g id="clust2" class="cluster">
<title>clusterIntersectionTimerDriven_pedestrianFlow</title>
<polygon fill="none" stroke="black" stroke-width="0.5" points="352,-8 352,-493.2 913,-493.2 913,-8 352,-8"/>
<text text-anchor="middle" x="632.5" y="-478" font-family="Times,serif" font-size="14.00">sm IntersectionTimerDriven pedestrianFlow</text>
</g>
<g id="clust3" class="cluster">
<title>clusterIntersectionTimerDriven_DirectionOneLight</title>
<polygon fill="none" stroke="black" stroke-width="0.5" points="921,-356 921,-504 1221,-504 1221,-356 921,-356"/>
<text text-anchor="middle" x="1071" y="-488.8" font-family="Times,serif" font-size="14.00">sm IntersectionTimerDriven DirectionOneLight</text>
</g>
<g id="clust4" class="cluster">
<title>clusterIntersectionTimerDriven_DirectionTwoLight</title>
<polygon fill="none" stroke="black" stroke-width="0.5" points="1229,-356 1229,-504 1529,-504 1529,-356 1229,-356"/>
<text text-anchor="middle" x="1379" y="-488.8" font-family="Times,serif" font-size="14.00">sm IntersectionTimerDriven DirectionTwoLight</text>
</g>
<g id="clust5" class="cluster">
<title>clusterIntersectionTimerDriven_P1Light</title>
<polygon fill="none" stroke="black" stroke-width="0.5" points="1537,-356 1537,-504 1761,-504 1761,-356 1537,-356"/>
<text text-anchor="middle" x="1649" y="-488.8" font-family="Times,serif" font-size="14.00">sm IntersectionTimerDriven P1Light</text>
</g>
<g id="clust6" class="cluster">
<title>clusterIntersectionTimerDriven_P2Light</title>
<polygon fill="none" stroke="black" stroke-width="0.5" points="1769,-356 1769,-504 1993,-504 1993,-356 1769,-356"/>
<text text-anchor="middle" x="1881" y="-488.8" font-family="Times,serif" font-size="14.00">sm IntersectionTimerDriven P2Light</text>
</g>
<!-- start_IntersectionTimerDriven_flow -->
<g id="node1" class="node">
<title>start_IntersectionTimerDriven_flow</title>
<g id="a_node1"><a xlink:title="Class IntersectionTimerDriven, SM flow, State start">
<ellipse fill="black" stroke="black" cx="289" cy="-455" rx="7.2" ry="7.2"/>
</a>
</g>
</g>
<!-- IntersectionTimerDriven_flow_FourWayStop -->
<g id="node2" class="node">
<title>IntersectionTimerDriven_flow_FourWayStop</title>
<g id="a_node2"><a xlink:title="Class IntersectionTimerDriven, SM flow, State FourWayStop&#13;Entry:&#10; &#160;&#160;setDirectionOneLight(DirectionOneLight.FlashingRed);&#10; &#160;&#160;setDirectionTwoLight(DirectionTwoLight.FlashingRed);">
<path fill="none" stroke="black" d="M324,-400C324,-400 254,-400 254,-400 248,-400 242,-394 242,-388 242,-388 242,-376 242,-376 242,-370 248,-364 254,-364 254,-364 324,-364 324,-364 330,-364 336,-370 336,-376 336,-376 336,-388 336,-388 336,-394 330,-400 324,-400"/>
<text text-anchor="middle" x="289" y="-378.3" font-family="Times,serif" font-size="14.00">FourWayStop</text>
</a>
</g>
</g>
<!-- start_IntersectionTimerDriven_flow&#45;&gt;IntersectionTimerDriven_flow_FourWayStop -->
<g id="edge1" class="edge">
<title>start_IntersectionTimerDriven_flow&#45;&gt;IntersectionTimerDriven_flow_FourWayStop</title>
<g id="a_edge1"><a xlink:title="start to FourWayStop">
<path fill="none" stroke="black" d="M289,-447.45C289,-439.05 289,-423.97 289,-410.5"/>
<polygon fill="black" stroke="black" points="292.5,-410.21 289,-400.21 285.5,-410.21 292.5,-410.21"/>
</a>
</g>
</g>
<!-- IntersectionTimerDriven_flow_DirectionOneGo -->
<g id="node3" class="node">
<title>IntersectionTimerDriven_flow_DirectionOneGo</title>
<g id="a_node3"><a xlink:title="Class IntersectionTimerDriven, SM flow, State DirectionOneGo&#13;Entry:&#10; &#160;&#160;setDirectionOneLight(DirectionOneLight.Green);&#10; &#160;&#160;setDirectionTwoLight(DirectionTwoLight.Red);">
<path fill="none" stroke="black" d="M114,-313C114,-313 28,-313 28,-313 22,-313 16,-307 16,-301 16,-301 16,-289 16,-289 16,-283 22,-277 28,-277 28,-277 114,-277 114,-277 120,-277 126,-283 126,-289 126,-289 126,-301 126,-301 126,-307 120,-313 114,-313"/>
<text text-anchor="middle" x="71" y="-291.3" font-family="Times,serif" font-size="14.00">DirectionOneGo</text>
</a>
</g>
</g>
<!-- IntersectionTimerDriven_flow_FourWayStop&#45;&gt;IntersectionTimerDriven_flow_DirectionOneGo -->
<g id="edge6" class="edge">
<title>IntersectionTimerDriven_flow_FourWayStop&#45;&gt;IntersectionTimerDriven_flow_DirectionOneGo</title>
<g id="a_edge6"><a xlink:title="From FourWayStop to DirectionOneGo on initiateRegularOperation">
<path fill="none" stroke="black" d="M241.92,-381.68C175.09,-381.52 57.84,-376.72 31,-346 23.74,-337.69 28.12,-328.31 36.2,-319.94"/>
<polygon fill="black" stroke="black" points="38.61,-322.49 43.69,-313.19 33.92,-317.29 38.61,-322.49"/>
</a>
</g>
<text text-anchor="middle" x="101" y="-334.8" font-family="Times,serif" font-size="14.00">initiateRegularOperation</text>
</g>
<!-- IntersectionTimerDriven_flow_DirectionOneGo&#45;&gt;IntersectionTimerDriven_flow_FourWayStop -->
<g id="edge2" class="edge">
<title>IntersectionTimerDriven_flow_DirectionOneGo&#45;&gt;IntersectionTimerDriven_flow_FourWayStop</title>
<g id="a_edge2"><a xlink:title="From DirectionOneGo to FourWayStop on detectMalfunction">
<path fill="none" stroke="black" d="M126.01,-311.63C142.14,-316.98 159.57,-323.52 175,-331 185.98,-336.32 187.13,-340.45 198,-346 208.83,-351.54 220.76,-356.72 232.3,-361.32"/>
<polygon fill="black" stroke="black" points="231.29,-364.68 241.88,-365.04 233.83,-358.16 231.29,-364.68"/>
</a>
</g>
<text text-anchor="middle" x="249.5" y="-334.8" font-family="Times,serif" font-size="14.00">detectMalfunction</text>
</g>
<!-- IntersectionTimerDriven_flow_DirectionOneHalting -->
<g id="node4" class="node">
<title>IntersectionTimerDriven_flow_DirectionOneHalting</title>
<g id="a_node4"><a xlink:title="Class IntersectionTimerDriven, SM flow, State DirectionOneHalting&#13;Entry:&#10; &#160;&#160;setDirectionOneLight(DirectionOneLight.Yellow);">
<path fill="none" stroke="black" d="M164.5,-226C164.5,-226 53.5,-226 53.5,-226 47.5,-226 41.5,-220 41.5,-214 41.5,-214 41.5,-202 41.5,-202 41.5,-196 47.5,-190 53.5,-190 53.5,-190 164.5,-190 164.5,-190 170.5,-190 176.5,-196 176.5,-202 176.5,-202 176.5,-214 176.5,-214 176.5,-220 170.5,-226 164.5,-226"/>
<text text-anchor="middle" x="109" y="-204.3" font-family="Times,serif" font-size="14.00">DirectionOneHalting</text>
</a>
</g>
</g>
<!-- IntersectionTimerDriven_flow_DirectionOneGo&#45;&gt;IntersectionTimerDriven_flow_DirectionOneHalting -->
<g id="edge8" class="edge">
<title>IntersectionTimerDriven_flow_DirectionOneGo&#45;&gt;IntersectionTimerDriven_flow_DirectionOneHalting</title>
<g id="a_edge8"><a xlink:title="From DirectionOneGo to DirectionOneHalting after(directionOneGoTime)">
<path fill="none" stroke="black" d="M51.09,-276.78C42.37,-267.1 35.45,-254.81 42,-244 44.69,-239.55 48.16,-235.65 52.09,-232.22"/>
<polygon fill="black" stroke="black" points="54.23,-234.98 60.15,-226.19 50.04,-229.38 54.23,-234.98"/>
</a>
</g>
<text text-anchor="middle" x="119.5" y="-247.8" font-family="Times,serif" font-size="14.00">after(directionOneGoTime)</text>
</g>
<!-- IntersectionTimerDriven_flow_DirectionOneHalting&#45;&gt;IntersectionTimerDriven_flow_FourWayStop -->
<g id="edge3" class="edge">
<title>IntersectionTimerDriven_flow_DirectionOneHalting&#45;&gt;IntersectionTimerDriven_flow_FourWayStop</title>
<g id="a_edge3"><a xlink:title="From DirectionOneHalting to FourWayStop on detectMalfunction">
<path fill="none" stroke="black" d="M175.33,-226.23C183.61,-230.83 191.19,-236.64 197,-244 216.2,-268.33 185.59,-290.6 207,-313 236.39,-343.75 273.9,-298.22 301,-331 306.34,-337.46 306.15,-345.9 303.77,-354"/>
<polygon fill="black" stroke="black" points="300.41,-352.98 300,-363.56 306.92,-355.54 300.41,-352.98"/>
</a>
</g>
<text text-anchor="middle" x="258.5" y="-291.3" font-family="Times,serif" font-size="14.00">detectMalfunction</text>
</g>
<!-- IntersectionTimerDriven_flow_DirectionTwoGo -->
<g id="node5" class="node">
<title>IntersectionTimerDriven_flow_DirectionTwoGo</title>
<g id="a_node5"><a xlink:title="Class IntersectionTimerDriven, SM flow, State DirectionTwoGo&#13;Entry:&#10; &#160;&#160;setDirectionOneLight(DirectionOneLight.Red);&#10; &#160;&#160;setDirectionTwoLight(DirectionTwoLight.Green);">
<path fill="none" stroke="black" d="M203.5,-139C203.5,-139 116.5,-139 116.5,-139 110.5,-139 104.5,-133 104.5,-127 104.5,-127 104.5,-115 104.5,-115 104.5,-109 110.5,-103 116.5,-103 116.5,-103 203.5,-103 203.5,-103 209.5,-103 215.5,-109 215.5,-115 215.5,-115 215.5,-127 215.5,-127 215.5,-133 209.5,-139 203.5,-139"/>
<text text-anchor="middle" x="160" y="-117.3" font-family="Times,serif" font-size="14.00">DirectionTwoGo</text>
</a>
</g>
</g>
<!-- IntersectionTimerDriven_flow_DirectionOneHalting&#45;&gt;IntersectionTimerDriven_flow_DirectionTwoGo -->
<g id="edge9" class="edge">
<title>IntersectionTimerDriven_flow_DirectionOneHalting&#45;&gt;IntersectionTimerDriven_flow_DirectionTwoGo</title>
<g id="a_edge9"><a xlink:title="From DirectionOneHalting to DirectionTwoGo after(yellowTime)">
<path fill="none" stroke="black" d="M124.76,-189.92C129.37,-184.43 134.19,-178.18 138,-172 142.48,-164.74 146.54,-156.4 149.9,-148.65"/>
<polygon fill="black" stroke="black" points="153.2,-149.83 153.78,-139.25 146.73,-147.16 153.2,-149.83"/>
</a>
</g>
<text text-anchor="middle" x="196.5" y="-160.8" font-family="Times,serif" font-size="14.00">after(yellowTime)</text>
</g>
<!-- IntersectionTimerDriven_flow_DirectionTwoGo&#45;&gt;IntersectionTimerDriven_flow_FourWayStop -->
<g id="edge4" class="edge">
<title>IntersectionTimerDriven_flow_DirectionTwoGo&#45;&gt;IntersectionTimerDriven_flow_FourWayStop</title>
<g id="a_edge4"><a xlink:title="From DirectionTwoGo to FourWayStop on detectMalfunction">
<path fill="none" stroke="black" d="M215.83,-131.44C229.92,-136.61 243.46,-144.62 252,-157 255.78,-162.49 255.65,-166.42 252,-172 241.12,-188.66 221.88,-173.34 211,-190 202.25,-203.4 207.42,-210.41 211,-226 214.65,-241.89 214.19,-248.92 227,-259 256.67,-282.33 286.31,-247.62 310,-277 327.78,-299.05 316.62,-332.15 304.87,-355.06"/>
<polygon fill="black" stroke="black" points="301.77,-353.43 300.05,-363.89 307.91,-356.78 301.77,-353.43"/>
</a>
</g>
<text text-anchor="middle" x="278.5" y="-247.8" font-family="Times,serif" font-size="14.00">detectMalfunction</text>
</g>
<!-- IntersectionTimerDriven_flow_DirectionTwoHalting -->
<g id="node6" class="node">
<title>IntersectionTimerDriven_flow_DirectionTwoHalting</title>
<g id="a_node6"><a xlink:title="Class IntersectionTimerDriven, SM flow, State DirectionTwoHalting&#13;Entry:&#10; &#160;&#160;setDirectionTwoLight(DirectionTwoLight.Yellow);">
<path fill="none" stroke="black" d="M171,-52C171,-52 59,-52 59,-52 53,-52 47,-46 47,-40 47,-40 47,-28 47,-28 47,-22 53,-16 59,-16 59,-16 171,-16 171,-16 177,-16 183,-22 183,-28 183,-28 183,-40 183,-40 183,-46 177,-52 171,-52"/>
<text text-anchor="middle" x="115" y="-30.3" font-family="Times,serif" font-size="14.00">DirectionTwoHalting</text>
</a>
</g>
</g>
<!-- IntersectionTimerDriven_flow_DirectionTwoGo&#45;&gt;IntersectionTimerDriven_flow_DirectionTwoHalting -->
<g id="edge10" class="edge">
<title>IntersectionTimerDriven_flow_DirectionTwoGo&#45;&gt;IntersectionTimerDriven_flow_DirectionTwoHalting</title>
<g id="a_edge10"><a xlink:title="From DirectionTwoGo to DirectionTwoHalting after(directionOneGoTime)">
<path fill="none" stroke="black" d="M130.66,-102.67C124.78,-97.74 119.38,-91.82 116,-85 112.56,-78.04 111.4,-69.85 111.35,-62.13"/>
<polygon fill="black" stroke="black" points="114.85,-62.22 111.85,-52.06 107.85,-61.87 114.85,-62.22"/>
</a>
</g>
<text text-anchor="middle" x="193.5" y="-73.8" font-family="Times,serif" font-size="14.00">after(directionOneGoTime)</text>
</g>
<!-- IntersectionTimerDriven_flow_DirectionTwoHalting&#45;&gt;IntersectionTimerDriven_flow_FourWayStop -->
<g id="edge5" class="edge">
<title>IntersectionTimerDriven_flow_DirectionTwoHalting&#45;&gt;IntersectionTimerDriven_flow_FourWayStop</title>
<g id="a_edge5"><a xlink:title="From DirectionTwoHalting to FourWayStop on detectMalfunction">
<path fill="none" stroke="black" d="M183.4,-41.91C219.98,-47.18 259.77,-55.97 271,-70 299.56,-105.68 275.24,-129.68 258,-172 254.28,-181.14 248.04,-180.61 245,-190 240.08,-205.22 234.93,-213.57 245,-226 269.31,-256 305.69,-214 330,-244 334.2,-249.18 330.49,-252.35 330,-259 327.1,-297.99 332.64,-310.17 317,-346 315.59,-349.24 313.8,-352.42 311.8,-355.48"/>
<polygon fill="black" stroke="black" points="308.89,-353.54 305.81,-363.67 314.54,-357.67 308.89,-353.54"/>
</a>
</g>
<text text-anchor="middle" x="296.5" y="-204.3" font-family="Times,serif" font-size="14.00">detectMalfunction</text>
</g>
<!-- IntersectionTimerDriven_flow_DirectionTwoHalting&#45;&gt;IntersectionTimerDriven_flow_DirectionOneGo -->
<g id="edge7" class="edge">
<title>IntersectionTimerDriven_flow_DirectionTwoHalting&#45;&gt;IntersectionTimerDriven_flow_DirectionOneGo</title>
<g id="a_edge7"><a xlink:title="From DirectionTwoHalting to DirectionOneGo after(yellowTime)">
<path fill="none" stroke="black" d="M98.05,-52.14C77.54,-74.21 44.13,-114.76 31,-157 17.53,-200.32 16.09,-217.76 35,-259 36.67,-262.64 38.9,-266.1 41.43,-269.33"/>
<polygon fill="black" stroke="black" points="38.92,-271.77 48.22,-276.85 44.12,-267.08 38.92,-271.77"/>
</a>
</g>
<text text-anchor="middle" x="82.5" y="-160.8" font-family="Times,serif" font-size="14.00">after(yellowTime)</text>
</g>
<!-- start_IntersectionTimerDriven_pedestrianFlow -->
<g id="node7" class="node">
<title>start_IntersectionTimerDriven_pedestrianFlow</title>
<g id="a_node7"><a xlink:title="Class IntersectionTimerDriven, SM pedestrianFlow, State start">
<ellipse fill="black" stroke="black" cx="674" cy="-455" rx="7.2" ry="7.2"/>
</a>
</g>
</g>
<!-- IntersectionTimerDriven_pedestrianFlow_FourWayStop -->
<g id="node8" class="node">
<title>IntersectionTimerDriven_pedestrianFlow_FourWayStop</title>
<g id="a_node8"><a xlink:title="Class IntersectionTimerDriven, SM pedestrianFlow, State FourWayStop&#13;Entry:&#10; &#160;&#160;setP1Light(P1Light.DoNotWalk); &#160;&#10; &#160;	setP2Light(P2Light.DoNotWalk);">
<path fill="none" stroke="black" d="M709,-400C709,-400 639,-400 639,-400 633,-400 627,-394 627,-388 627,-388 627,-376 627,-376 627,-370 633,-364 639,-364 639,-364 709,-364 709,-364 715,-364 721,-370 721,-376 721,-376 721,-388 721,-388 721,-394 715,-400 709,-400"/>
<text text-anchor="middle" x="674" y="-378.3" font-family="Times,serif" font-size="14.00">FourWayStop</text>
</a>
</g>
</g>
<!-- start_IntersectionTimerDriven_pedestrianFlow&#45;&gt;IntersectionTimerDriven_pedestrianFlow_FourWayStop -->
<g id="edge11" class="edge">
<title>start_IntersectionTimerDriven_pedestrianFlow&#45;&gt;IntersectionTimerDriven_pedestrianFlow_FourWayStop</title>
<g id="a_edge11"><a xlink:title="start to FourWayStop">
<path fill="none" stroke="black" d="M674,-447.45C674,-439.05 674,-423.97 674,-410.5"/>
<polygon fill="black" stroke="black" points="677.5,-410.21 674,-400.21 670.5,-410.21 677.5,-410.21"/>
</a>
</g>
</g>
<!-- IntersectionTimerDriven_pedestrianFlow_P2Go -->
<g id="node11" class="node">
<title>IntersectionTimerDriven_pedestrianFlow_P2Go</title>
<g id="a_node11"><a xlink:title="Class IntersectionTimerDriven, SM pedestrianFlow, State P2Go&#13;Entry:&#10; &#160;&#160;setP2Light(P2Light.Walk);">
<path fill="none" stroke="black" d="M426,-313C426,-313 378,-313 378,-313 372,-313 366,-307 366,-301 366,-301 366,-289 366,-289 366,-283 372,-277 378,-277 378,-277 426,-277 426,-277 432,-277 438,-283 438,-289 438,-289 438,-301 438,-301 438,-307 432,-313 426,-313"/>
<text text-anchor="middle" x="402" y="-291.3" font-family="Times,serif" font-size="14.00">P2Go</text>
</a>
</g>
</g>
<!-- IntersectionTimerDriven_pedestrianFlow_FourWayStop&#45;&gt;IntersectionTimerDriven_pedestrianFlow_P2Go -->
<g id="edge18" class="edge">
<title>IntersectionTimerDriven_pedestrianFlow_FourWayStop&#45;&gt;IntersectionTimerDriven_pedestrianFlow_P2Go</title>
<g id="a_edge18"><a xlink:title="From FourWayStop to P2Go on initiateRegularOperation">
<path fill="none" stroke="black" d="M626.88,-378.35C552.26,-373.66 413.79,-362.79 399,-346 393.58,-339.85 392.56,-331.46 393.43,-323.3"/>
<polygon fill="black" stroke="black" points="396.91,-323.77 395.36,-313.29 390.03,-322.44 396.91,-323.77"/>
</a>
</g>
<text text-anchor="middle" x="469" y="-334.8" font-family="Times,serif" font-size="14.00">initiateRegularOperation</text>
</g>
<!-- IntersectionTimerDriven_pedestrianFlow_P1Go -->
<g id="node9" class="node">
<title>IntersectionTimerDriven_pedestrianFlow_P1Go</title>
<g id="a_node9"><a xlink:title="Class IntersectionTimerDriven, SM pedestrianFlow, State P1Go&#13;Entry:&#10; &#160;&#160;setP1Light(P1Light.Walk);">
<path fill="none" stroke="black" d="M670,-139C670,-139 622,-139 622,-139 616,-139 610,-133 610,-127 610,-127 610,-115 610,-115 610,-109 616,-103 622,-103 622,-103 670,-103 670,-103 676,-103 682,-109 682,-115 682,-115 682,-127 682,-127 682,-133 676,-139 670,-139"/>
<text text-anchor="middle" x="646" y="-117.3" font-family="Times,serif" font-size="14.00">P1Go</text>
</a>
</g>
</g>
<!-- IntersectionTimerDriven_pedestrianFlow_P1Go&#45;&gt;IntersectionTimerDriven_pedestrianFlow_FourWayStop -->
<g id="edge12" class="edge">
<title>IntersectionTimerDriven_pedestrianFlow_P1Go&#45;&gt;IntersectionTimerDriven_pedestrianFlow_FourWayStop</title>
<g id="a_edge12"><a xlink:title="From P1Go to FourWayStop on detectMalfunction">
<path fill="none" stroke="black" d="M682.24,-121.61C743.93,-121.81 865.28,-126.21 892,-157 926.01,-196.19 818.38,-155.08 780,-190 763.08,-205.39 755.98,-239.44 766,-259 772.24,-271.19 784.76,-264.81 791,-277 798.29,-291.24 798.98,-299.13 791,-313 777.82,-335.91 753.63,-351.81 730.65,-362.45"/>
<polygon fill="black" stroke="black" points="729.02,-359.34 721.25,-366.55 731.82,-365.76 729.02,-359.34"/>
</a>
</g>
<text text-anchor="middle" x="817.5" y="-247.8" font-family="Times,serif" font-size="14.00">detectMalfunction</text>
</g>
<!-- IntersectionTimerDriven_pedestrianFlow_P1Halting -->
<g id="node10" class="node">
<title>IntersectionTimerDriven_pedestrianFlow_P1Halting</title>
<g id="a_node10"><a xlink:title="Class IntersectionTimerDriven, SM pedestrianFlow, State P1Halting&#13;Entry:&#10; &#160;&#160;setP1Light(P1Light.Flashing);">
<path fill="none" stroke="black" d="M628.5,-52C628.5,-52 579.5,-52 579.5,-52 573.5,-52 567.5,-46 567.5,-40 567.5,-40 567.5,-28 567.5,-28 567.5,-22 573.5,-16 579.5,-16 579.5,-16 628.5,-16 628.5,-16 634.5,-16 640.5,-22 640.5,-28 640.5,-28 640.5,-40 640.5,-40 640.5,-46 634.5,-52 628.5,-52"/>
<text text-anchor="middle" x="604" y="-30.3" font-family="Times,serif" font-size="14.00">P1Halting</text>
</a>
</g>
</g>
<!-- IntersectionTimerDriven_pedestrianFlow_P1Go&#45;&gt;IntersectionTimerDriven_pedestrianFlow_P1Halting -->
<g id="edge17" class="edge">
<title>IntersectionTimerDriven_pedestrianFlow_P1Go&#45;&gt;IntersectionTimerDriven_pedestrianFlow_P1Halting</title>
<g id="a_edge17"><a xlink:title="From P1Go to P1Halting after(directionOneGoTime&#45;extraPedestrianWarning)">
<path fill="none" stroke="black" d="M619.05,-102.71C613.41,-97.72 608.2,-91.77 605,-85 601.77,-78.17 600.62,-70.21 600.51,-62.67"/>
<polygon fill="black" stroke="black" points="604.01,-62.6 600.93,-52.47 597.02,-62.31 604.01,-62.6"/>
</a>
</g>
<text text-anchor="middle" x="752" y="-73.8" font-family="Times,serif" font-size="14.00">after(directionOneGoTime&#45;extraPedestrianWarning)</text>
</g>
<!-- IntersectionTimerDriven_pedestrianFlow_P1Halting&#45;&gt;IntersectionTimerDriven_pedestrianFlow_FourWayStop -->
<g id="edge13" class="edge">
<title>IntersectionTimerDriven_pedestrianFlow_P1Halting&#45;&gt;IntersectionTimerDriven_pedestrianFlow_FourWayStop</title>
<g id="a_edge13"><a xlink:title="From P1Halting to FourWayStop on detectMalfunction">
<path fill="none" stroke="black" d="M640.52,-36.67C715.69,-40.47 882.09,-50.96 899,-70 955.49,-133.58 915.84,-188.01 869,-259 837.29,-307.06 822.45,-316.49 773,-346 760.03,-353.74 745.08,-360.14 730.79,-365.25"/>
<polygon fill="black" stroke="black" points="729.37,-362.04 721.04,-368.59 731.63,-368.66 729.37,-362.04"/>
</a>
</g>
<text text-anchor="middle" x="961.5" y="-204.3" font-family="Times,serif" font-size="14.00">detectMalfunction</text>
</g>
<!-- IntersectionTimerDriven_pedestrianFlow_P1Halting&#45;&gt;IntersectionTimerDriven_pedestrianFlow_P2Go -->
<g id="edge19" class="edge">
<title>IntersectionTimerDriven_pedestrianFlow_P1Halting&#45;&gt;IntersectionTimerDriven_pedestrianFlow_P2Go</title>
<g id="a_edge19"><a xlink:title="From P1Halting to P2Go after(extraPedestrianWarning+yellowTime)">
<path fill="none" stroke="black" d="M567.19,-44.93C518.74,-60.16 435.24,-94.33 397,-157 376.58,-190.48 384.51,-237.61 392.77,-266.96"/>
<polygon fill="black" stroke="black" points="389.53,-268.34 395.77,-276.91 396.23,-266.32 389.53,-268.34"/>
</a>
</g>
<text text-anchor="middle" x="519.5" y="-160.8" font-family="Times,serif" font-size="14.00">after(extraPedestrianWarning+yellowTime)</text>
</g>
<!-- IntersectionTimerDriven_pedestrianFlow_P2Go&#45;&gt;IntersectionTimerDriven_pedestrianFlow_FourWayStop -->
<g id="edge14" class="edge">
<title>IntersectionTimerDriven_pedestrianFlow_P2Go&#45;&gt;IntersectionTimerDriven_pedestrianFlow_FourWayStop</title>
<g id="a_edge14"><a xlink:title="From P2Go to FourWayStop on detectMalfunction">
<path fill="none" stroke="black" d="M438.13,-301.53C467.28,-306.79 508.89,-316.15 543,-331 554.19,-335.87 554.99,-340.74 566,-346 582.13,-353.71 600.39,-360.34 617.24,-365.71"/>
<polygon fill="black" stroke="black" points="616.39,-369.1 626.97,-368.71 618.45,-362.42 616.39,-369.1"/>
</a>
</g>
<text text-anchor="middle" x="617.5" y="-334.8" font-family="Times,serif" font-size="14.00">detectMalfunction</text>
</g>
<!-- IntersectionTimerDriven_pedestrianFlow_P2Halting -->
<g id="node12" class="node">
<title>IntersectionTimerDriven_pedestrianFlow_P2Halting</title>
<g id="a_node12"><a xlink:title="Class IntersectionTimerDriven, SM pedestrianFlow, State P2Halting&#13;Entry:&#10; &#160;&#160;setP2Light(P2Light.Flashing);">
<path fill="none" stroke="black" d="M670.5,-226C670.5,-226 621.5,-226 621.5,-226 615.5,-226 609.5,-220 609.5,-214 609.5,-214 609.5,-202 609.5,-202 609.5,-196 615.5,-190 621.5,-190 621.5,-190 670.5,-190 670.5,-190 676.5,-190 682.5,-196 682.5,-202 682.5,-202 682.5,-214 682.5,-214 682.5,-220 676.5,-226 670.5,-226"/>
<text text-anchor="middle" x="646" y="-204.3" font-family="Times,serif" font-size="14.00">P2Halting</text>
</a>
</g>
</g>
<!-- IntersectionTimerDriven_pedestrianFlow_P2Go&#45;&gt;IntersectionTimerDriven_pedestrianFlow_P2Halting -->
<g id="edge20" class="edge">
<title>IntersectionTimerDriven_pedestrianFlow_P2Go&#45;&gt;IntersectionTimerDriven_pedestrianFlow_P2Halting</title>
<g id="a_edge20"><a xlink:title="From P2Go to P2Halting after(directionTwoGoTime&#45;extraPedestrianWarning)">
<path fill="none" stroke="black" d="M397.21,-276.7C395.38,-266.01 395.29,-252.72 403,-244 428.14,-215.56 535.89,-209.75 599.16,-208.85"/>
<polygon fill="black" stroke="black" points="599.33,-212.35 609.29,-208.74 599.25,-205.35 599.33,-212.35"/>
</a>
</g>
<text text-anchor="middle" x="550.5" y="-247.8" font-family="Times,serif" font-size="14.00">after(directionTwoGoTime&#45;extraPedestrianWarning)</text>
</g>
<!-- IntersectionTimerDriven_pedestrianFlow_P2Halting&#45;&gt;IntersectionTimerDriven_pedestrianFlow_FourWayStop -->
<g id="edge15" class="edge">
<title>IntersectionTimerDriven_pedestrianFlow_P2Halting&#45;&gt;IntersectionTimerDriven_pedestrianFlow_FourWayStop</title>
<g id="a_edge15"><a xlink:title="From P2Halting to FourWayStop on detectMalfunction">
<path fill="none" stroke="black" d="M681.74,-226.14C688.27,-230.97 694.22,-236.89 698,-244 705.2,-257.53 692.83,-262.45 688,-277 679.61,-302.29 676.23,-332.64 674.88,-354"/>
<polygon fill="black" stroke="black" points="671.39,-353.83 674.36,-364 678.38,-354.19 671.39,-353.83"/>
</a>
</g>
<text text-anchor="middle" x="739.5" y="-291.3" font-family="Times,serif" font-size="14.00">detectMalfunction</text>
</g>
<!-- IntersectionTimerDriven_pedestrianFlow_P2Halting&#45;&gt;IntersectionTimerDriven_pedestrianFlow_P1Go -->
<g id="edge16" class="edge">
<title>IntersectionTimerDriven_pedestrianFlow_P2Halting&#45;&gt;IntersectionTimerDriven_pedestrianFlow_P1Go</title>
<g id="a_edge16"><a xlink:title="From P2Halting to P1Go after(extraPedestrianWarning+yellowTime)">
<path fill="none" stroke="black" d="M646,-189.8C646,-178.16 646,-162.55 646,-149.24"/>
<polygon fill="black" stroke="black" points="649.5,-149.18 646,-139.18 642.5,-149.18 649.5,-149.18"/>
</a>
</g>
<text text-anchor="middle" x="768.5" y="-160.8" font-family="Times,serif" font-size="14.00">after(extraPedestrianWarning+yellowTime)</text>
</g>
<!-- start_IntersectionTimerDriven_DirectionOneLight -->
<g id="node13" class="node">
<title>start_IntersectionTimerDriven_DirectionOneLight</title>
<g id="a_node13"><a xlink:title="Class IntersectionTimerDriven, SM DirectionOneLight, State start">
<ellipse fill="black" stroke="black" cx="1206" cy="-455" rx="7.2" ry="7.2"/>
</a>
</g>
</g>
<!-- IntersectionTimerDriven_DirectionOneLight_FlashingRed -->
<g id="node14" class="node">
<title>IntersectionTimerDriven_DirectionOneLight_FlashingRed</title>
<g id="a_node14"><a xlink:title="Class IntersectionTimerDriven, SM DirectionOneLight, State FlashingRed">
<path fill="none" stroke="black" d="M1200.5,-400C1200.5,-400 1137.5,-400 1137.5,-400 1131.5,-400 1125.5,-394 1125.5,-388 1125.5,-388 1125.5,-376 1125.5,-376 1125.5,-370 1131.5,-364 1137.5,-364 1137.5,-364 1200.5,-364 1200.5,-364 1206.5,-364 1212.5,-370 1212.5,-376 1212.5,-376 1212.5,-388 1212.5,-388 1212.5,-394 1206.5,-400 1200.5,-400"/>
<text text-anchor="middle" x="1169" y="-378.3" font-family="Times,serif" font-size="14.00">FlashingRed</text>
</a>
</g>
</g>
<!-- start_IntersectionTimerDriven_DirectionOneLight&#45;&gt;IntersectionTimerDriven_DirectionOneLight_FlashingRed -->
<g id="edge21" class="edge">
<title>start_IntersectionTimerDriven_DirectionOneLight&#45;&gt;IntersectionTimerDriven_DirectionOneLight_FlashingRed</title>
<g id="a_edge21"><a xlink:title="start to FlashingRed">
<path fill="none" stroke="black" d="M1202.85,-447.95C1198.42,-439.45 1190.08,-423.44 1182.78,-409.45"/>
<polygon fill="black" stroke="black" points="1185.69,-407.45 1177.96,-400.2 1179.48,-410.68 1185.69,-407.45"/>
</a>
</g>
</g>
<!-- IntersectionTimerDriven_DirectionOneLight_Red -->
<g id="node15" class="node">
<title>IntersectionTimerDriven_DirectionOneLight_Red</title>
<g id="a_node15"><a xlink:title="Class IntersectionTimerDriven, SM DirectionOneLight, State Red">
<path fill="none" stroke="black" d="M1169,-473C1169,-473 1121,-473 1121,-473 1115,-473 1109,-467 1109,-461 1109,-461 1109,-449 1109,-449 1109,-443 1115,-437 1121,-437 1121,-437 1169,-437 1169,-437 1175,-437 1181,-443 1181,-449 1181,-449 1181,-461 1181,-461 1181,-467 1175,-473 1169,-473"/>
<text text-anchor="middle" x="1145" y="-451.3" font-family="Times,serif" font-size="14.00">Red</text>
</a>
</g>
</g>
<!-- IntersectionTimerDriven_DirectionOneLight_Yellow -->
<g id="node16" class="node">
<title>IntersectionTimerDriven_DirectionOneLight_Yellow</title>
<g id="a_node16"><a xlink:title="Class IntersectionTimerDriven, SM DirectionOneLight, State Yellow">
<path fill="none" stroke="black" d="M1079,-473C1079,-473 1031,-473 1031,-473 1025,-473 1019,-467 1019,-461 1019,-461 1019,-449 1019,-449 1019,-443 1025,-437 1031,-437 1031,-437 1079,-437 1079,-437 1085,-437 1091,-443 1091,-449 1091,-449 1091,-461 1091,-461 1091,-467 1085,-473 1079,-473"/>
<text text-anchor="middle" x="1055" y="-451.3" font-family="Times,serif" font-size="14.00">Yellow</text>
</a>
</g>
</g>
<!-- IntersectionTimerDriven_DirectionOneLight_Green -->
<g id="node17" class="node">
<title>IntersectionTimerDriven_DirectionOneLight_Green</title>
<g id="a_node17"><a xlink:title="Class IntersectionTimerDriven, SM DirectionOneLight, State Green">
<path fill="none" stroke="black" d="M989,-473C989,-473 941,-473 941,-473 935,-473 929,-467 929,-461 929,-461 929,-449 929,-449 929,-443 935,-437 941,-437 941,-437 989,-437 989,-437 995,-437 1001,-443 1001,-449 1001,-449 1001,-461 1001,-461 1001,-467 995,-473 989,-473"/>
<text text-anchor="middle" x="965" y="-451.3" font-family="Times,serif" font-size="14.00">Green</text>
</a>
</g>
</g>
<!-- start_IntersectionTimerDriven_DirectionTwoLight -->
<g id="node18" class="node">
<title>start_IntersectionTimerDriven_DirectionTwoLight</title>
<g id="a_node18"><a xlink:title="Class IntersectionTimerDriven, SM DirectionTwoLight, State start">
<ellipse fill="black" stroke="black" cx="1514" cy="-455" rx="7.2" ry="7.2"/>
</a>
</g>
</g>
<!-- IntersectionTimerDriven_DirectionTwoLight_FlashingRed -->
<g id="node19" class="node">
<title>IntersectionTimerDriven_DirectionTwoLight_FlashingRed</title>
<g id="a_node19"><a xlink:title="Class IntersectionTimerDriven, SM DirectionTwoLight, State FlashingRed">
<path fill="none" stroke="black" d="M1508.5,-400C1508.5,-400 1445.5,-400 1445.5,-400 1439.5,-400 1433.5,-394 1433.5,-388 1433.5,-388 1433.5,-376 1433.5,-376 1433.5,-370 1439.5,-364 1445.5,-364 1445.5,-364 1508.5,-364 1508.5,-364 1514.5,-364 1520.5,-370 1520.5,-376 1520.5,-376 1520.5,-388 1520.5,-388 1520.5,-394 1514.5,-400 1508.5,-400"/>
<text text-anchor="middle" x="1477" y="-378.3" font-family="Times,serif" font-size="14.00">FlashingRed</text>
</a>
</g>
</g>
<!-- start_IntersectionTimerDriven_DirectionTwoLight&#45;&gt;IntersectionTimerDriven_DirectionTwoLight_FlashingRed -->
<g id="edge22" class="edge">
<title>start_IntersectionTimerDriven_DirectionTwoLight&#45;&gt;IntersectionTimerDriven_DirectionTwoLight_FlashingRed</title>
<g id="a_edge22"><a xlink:title="start to FlashingRed">
<path fill="none" stroke="black" d="M1510.85,-447.95C1506.42,-439.45 1498.08,-423.44 1490.78,-409.45"/>
<polygon fill="black" stroke="black" points="1493.69,-407.45 1485.96,-400.2 1487.48,-410.68 1493.69,-407.45"/>
</a>
</g>
</g>
<!-- IntersectionTimerDriven_DirectionTwoLight_Red -->
<g id="node20" class="node">
<title>IntersectionTimerDriven_DirectionTwoLight_Red</title>
<g id="a_node20"><a xlink:title="Class IntersectionTimerDriven, SM DirectionTwoLight, State Red">
<path fill="none" stroke="black" d="M1477,-473C1477,-473 1429,-473 1429,-473 1423,-473 1417,-467 1417,-461 1417,-461 1417,-449 1417,-449 1417,-443 1423,-437 1429,-437 1429,-437 1477,-437 1477,-437 1483,-437 1489,-443 1489,-449 1489,-449 1489,-461 1489,-461 1489,-467 1483,-473 1477,-473"/>
<text text-anchor="middle" x="1453" y="-451.3" font-family="Times,serif" font-size="14.00">Red</text>
</a>
</g>
</g>
<!-- IntersectionTimerDriven_DirectionTwoLight_Yellow -->
<g id="node21" class="node">
<title>IntersectionTimerDriven_DirectionTwoLight_Yellow</title>
<g id="a_node21"><a xlink:title="Class IntersectionTimerDriven, SM DirectionTwoLight, State Yellow">
<path fill="none" stroke="black" d="M1387,-473C1387,-473 1339,-473 1339,-473 1333,-473 1327,-467 1327,-461 1327,-461 1327,-449 1327,-449 1327,-443 1333,-437 1339,-437 1339,-437 1387,-437 1387,-437 1393,-437 1399,-443 1399,-449 1399,-449 1399,-461 1399,-461 1399,-467 1393,-473 1387,-473"/>
<text text-anchor="middle" x="1363" y="-451.3" font-family="Times,serif" font-size="14.00">Yellow</text>
</a>
</g>
</g>
<!-- IntersectionTimerDriven_DirectionTwoLight_Green -->
<g id="node22" class="node">
<title>IntersectionTimerDriven_DirectionTwoLight_Green</title>
<g id="a_node22"><a xlink:title="Class IntersectionTimerDriven, SM DirectionTwoLight, State Green">
<path fill="none" stroke="black" d="M1297,-473C1297,-473 1249,-473 1249,-473 1243,-473 1237,-467 1237,-461 1237,-461 1237,-449 1237,-449 1237,-443 1243,-437 1249,-437 1249,-437 1297,-437 1297,-437 1303,-437 1309,-443 1309,-449 1309,-449 1309,-461 1309,-461 1309,-467 1303,-473 1297,-473"/>
<text text-anchor="middle" x="1273" y="-451.3" font-family="Times,serif" font-size="14.00">Green</text>
</a>
</g>
</g>
<!-- start_IntersectionTimerDriven_P1Light -->
<g id="node23" class="node">
<title>start_IntersectionTimerDriven_P1Light</title>
<g id="a_node23"><a xlink:title="Class IntersectionTimerDriven, SM P1Light, State start">
<ellipse fill="black" stroke="black" cx="1732" cy="-455" rx="7.2" ry="7.2"/>
</a>
</g>
</g>
<!-- IntersectionTimerDriven_P1Light_DoNotWalk -->
<g id="node24" class="node">
<title>IntersectionTimerDriven_P1Light_DoNotWalk</title>
<g id="a_node24"><a xlink:title="Class IntersectionTimerDriven, SM P1Light, State DoNotWalk">
<path fill="none" stroke="black" d="M1741,-400C1741,-400 1681,-400 1681,-400 1675,-400 1669,-394 1669,-388 1669,-388 1669,-376 1669,-376 1669,-370 1675,-364 1681,-364 1681,-364 1741,-364 1741,-364 1747,-364 1753,-370 1753,-376 1753,-376 1753,-388 1753,-388 1753,-394 1747,-400 1741,-400"/>
<text text-anchor="middle" x="1711" y="-378.3" font-family="Times,serif" font-size="14.00">DoNotWalk</text>
</a>
</g>
</g>
<!-- start_IntersectionTimerDriven_P1Light&#45;&gt;IntersectionTimerDriven_P1Light_DoNotWalk -->
<g id="edge23" class="edge">
<title>start_IntersectionTimerDriven_P1Light&#45;&gt;IntersectionTimerDriven_P1Light_DoNotWalk</title>
<g id="a_edge23"><a xlink:title="start to DoNotWalk">
<path fill="none" stroke="black" d="M1730.21,-447.95C1727.72,-439.53 1723.05,-423.75 1718.94,-409.85"/>
<polygon fill="black" stroke="black" points="1722.28,-408.8 1716.09,-400.2 1715.57,-410.78 1722.28,-408.8"/>
</a>
</g>
</g>
<!-- IntersectionTimerDriven_P1Light_Flashing -->
<g id="node25" class="node">
<title>IntersectionTimerDriven_P1Light_Flashing</title>
<g id="a_node25"><a xlink:title="Class IntersectionTimerDriven, SM P1Light, State Flashing">
<path fill="none" stroke="black" d="M1695,-473C1695,-473 1647,-473 1647,-473 1641,-473 1635,-467 1635,-461 1635,-461 1635,-449 1635,-449 1635,-443 1641,-437 1647,-437 1647,-437 1695,-437 1695,-437 1701,-437 1707,-443 1707,-449 1707,-449 1707,-461 1707,-461 1707,-467 1701,-473 1695,-473"/>
<text text-anchor="middle" x="1671" y="-451.3" font-family="Times,serif" font-size="14.00">Flashing</text>
</a>
</g>
</g>
<!-- IntersectionTimerDriven_P1Light_Walk -->
<g id="node26" class="node">
<title>IntersectionTimerDriven_P1Light_Walk</title>
<g id="a_node26"><a xlink:title="Class IntersectionTimerDriven, SM P1Light, State Walk">
<path fill="none" stroke="black" d="M1605,-473C1605,-473 1557,-473 1557,-473 1551,-473 1545,-467 1545,-461 1545,-461 1545,-449 1545,-449 1545,-443 1551,-437 1557,-437 1557,-437 1605,-437 1605,-437 1611,-437 1617,-443 1617,-449 1617,-449 1617,-461 1617,-461 1617,-467 1611,-473 1605,-473"/>
<text text-anchor="middle" x="1581" y="-451.3" font-family="Times,serif" font-size="14.00">Walk</text>
</a>
</g>
</g>
<!-- start_IntersectionTimerDriven_P2Light -->
<g id="node27" class="node">
<title>start_IntersectionTimerDriven_P2Light</title>
<g id="a_node27"><a xlink:title="Class IntersectionTimerDriven, SM P2Light, State start">
<ellipse fill="black" stroke="black" cx="1964" cy="-455" rx="7.2" ry="7.2"/>
</a>
</g>
</g>
<!-- IntersectionTimerDriven_P2Light_DoNotWalk -->
<g id="node28" class="node">
<title>IntersectionTimerDriven_P2Light_DoNotWalk</title>
<g id="a_node28"><a xlink:title="Class IntersectionTimerDriven, SM P2Light, State DoNotWalk">
<path fill="none" stroke="black" d="M1973,-400C1973,-400 1913,-400 1913,-400 1907,-400 1901,-394 1901,-388 1901,-388 1901,-376 1901,-376 1901,-370 1907,-364 1913,-364 1913,-364 1973,-364 1973,-364 1979,-364 1985,-370 1985,-376 1985,-376 1985,-388 1985,-388 1985,-394 1979,-400 1973,-400"/>
<text text-anchor="middle" x="1943" y="-378.3" font-family="Times,serif" font-size="14.00">DoNotWalk</text>
</a>
</g>
</g>
<!-- start_IntersectionTimerDriven_P2Light&#45;&gt;IntersectionTimerDriven_P2Light_DoNotWalk -->
<g id="edge24" class="edge">
<title>start_IntersectionTimerDriven_P2Light&#45;&gt;IntersectionTimerDriven_P2Light_DoNotWalk</title>
<g id="a_edge24"><a xlink:title="start to DoNotWalk">
<path fill="none" stroke="black" d="M1962.21,-447.95C1959.72,-439.53 1955.05,-423.75 1950.94,-409.85"/>
<polygon fill="black" stroke="black" points="1954.28,-408.8 1948.09,-400.2 1947.57,-410.78 1954.28,-408.8"/>
</a>
</g>
</g>
<!-- IntersectionTimerDriven_P2Light_Flashing -->
<g id="node29" class="node">
<title>IntersectionTimerDriven_P2Light_Flashing</title>
<g id="a_node29"><a xlink:title="Class IntersectionTimerDriven, SM P2Light, State Flashing">
<path fill="none" stroke="black" d="M1927,-473C1927,-473 1879,-473 1879,-473 1873,-473 1867,-467 1867,-461 1867,-461 1867,-449 1867,-449 1867,-443 1873,-437 1879,-437 1879,-437 1927,-437 1927,-437 1933,-437 1939,-443 1939,-449 1939,-449 1939,-461 1939,-461 1939,-467 1933,-473 1927,-473"/>
<text text-anchor="middle" x="1903" y="-451.3" font-family="Times,serif" font-size="14.00">Flashing</text>
</a>
</g>
</g>
<!-- IntersectionTimerDriven_P2Light_Walk -->
<g id="node30" class="node">
<title>IntersectionTimerDriven_P2Light_Walk</title>
<g id="a_node30"><a xlink:title="Class IntersectionTimerDriven, SM P2Light, State Walk">
<path fill="none" stroke="black" d="M1837,-473C1837,-473 1789,-473 1789,-473 1783,-473 1777,-467 1777,-461 1777,-461 1777,-449 1777,-449 1777,-443 1783,-437 1789,-437 1789,-437 1837,-437 1837,-437 1843,-437 1849,-443 1849,-449 1849,-449 1849,-461 1849,-461 1849,-467 1843,-473 1837,-473"/>
<text text-anchor="middle" x="1813" y="-451.3" font-family="Times,serif" font-size="14.00">Walk</text>
</a>
</g>
</g>
</g>
</svg>
