<?xml version="1.0" encoding="UTF-8" standalone="no"?>
<!DOCTYPE svg PUBLIC "-//W3C//DTD SVG 1.1//EN"
 "http://www.w3.org/Graphics/SVG/1.1/DTD/svg11.dtd">
<!-- Generated by graphviz version 2.48.0 (20210717.1556)
 -->
<!-- Title: TrafficLightsA Pages: 1 -->
<svg width="1090pt" height="443pt"
 viewBox="0.00 0.00 1090.48 443.40" xmlns="http://www.w3.org/2000/svg" xmlns:xlink="http://www.w3.org/1999/xlink">
<g id="graph0" class="graph" transform="scale(1 1) rotate(0) translate(4 439.4)">
<title>TrafficLightsA</title>
<polygon fill="white" stroke="transparent" points="-4,4 -4,-439.4 1086.48,-439.4 1086.48,4 -4,4"/>
<!-- start_Intersection_timerDriven_noPedestrian_flow -->
<g id="node1" class="node">
<title>start_Intersection_timerDriven_noPedestrian_flow</title>
<g id="a_node1"><a xlink:title="Class Intersection_timerDriven_noPedestrian, SM flow, State start">
<ellipse fill="black" stroke="black" cx="372.48" cy="-428.2" rx="7.2" ry="7.2"/>
</a>
</g>
</g>
<!-- Intersection_timerDriven_noPedestrian_flow_FourWayStop -->
<g id="node2" class="node">
<title>Intersection_timerDriven_noPedestrian_flow_FourWayStop</title>
<g id="a_node2"><a xlink:title="Class Intersection_timerDriven_noPedestrian, SM flow, State FourWayStop">
<path fill="none" stroke="black" d="M407.48,-384C407.48,-384 337.48,-384 337.48,-384 331.48,-384 325.48,-378 325.48,-372 325.48,-372 325.48,-360 325.48,-360 325.48,-354 331.48,-348 337.48,-348 337.48,-348 407.48,-348 407.48,-348 413.48,-348 419.48,-354 419.48,-360 419.48,-360 419.48,-372 419.48,-372 419.48,-378 413.48,-384 407.48,-384"/>
<text text-anchor="middle" x="372.48" y="-362.3" font-family="Times,serif" font-size="14.00">FourWayStop</text>
</a>
</g>
</g>
<!-- start_Intersection_timerDriven_noPedestrian_flow&#45;&gt;Intersection_timerDriven_noPedestrian_flow_FourWayStop -->
<g id="edge1" class="edge">
<title>start_Intersection_timerDriven_noPedestrian_flow&#45;&gt;Intersection_timerDriven_noPedestrian_flow_FourWayStop</title>
<g id="a_edge1"><a xlink:title="start to FourWayStop">
<path fill="none" stroke="black" d="M372.48,-420.76C372.48,-414.39 372.48,-404.2 372.48,-394.39"/>
<polygon fill="black" stroke="black" points="375.98,-394.1 372.48,-384.1 368.98,-394.1 375.98,-394.1"/>
</a>
</g>
</g>
<!-- Intersection_timerDriven_noPedestrian_flow_DirectionOneGo -->
<g id="node3" class="node">
<title>Intersection_timerDriven_noPedestrian_flow_DirectionOneGo</title>
<g id="a_node3"><a xlink:title="Class Intersection_timerDriven_noPedestrian, SM flow, State DirectionOneGo">
<path fill="none" stroke="black" d="M218.48,-297C218.48,-297 132.48,-297 132.48,-297 126.48,-297 120.48,-291 120.48,-285 120.48,-285 120.48,-273 120.48,-273 120.48,-267 126.48,-261 132.48,-261 132.48,-261 218.48,-261 218.48,-261 224.48,-261 230.48,-267 230.48,-273 230.48,-273 230.48,-285 230.48,-285 230.48,-291 224.48,-297 218.48,-297"/>
<text text-anchor="middle" x="175.48" y="-275.3" font-family="Times,serif" font-size="14.00">DirectionOneGo</text>
</a>
</g>
</g>
<!-- Intersection_timerDriven_noPedestrian_flow_FourWayStop&#45;&gt;Intersection_timerDriven_noPedestrian_flow_DirectionOneGo -->
<g id="edge6" class="edge">
<title>Intersection_timerDriven_noPedestrian_flow_FourWayStop&#45;&gt;Intersection_timerDriven_noPedestrian_flow_DirectionOneGo</title>
<g id="a_edge6"><a xlink:title="From FourWayStop to DirectionOneGo on initiateRegularOperation">
<path fill="none" stroke="black" d="M325.31,-363.93C231.65,-361.31 29.4,-353.03 8.48,-330 -24.32,-293.89 50.38,-283.43 110.22,-280.64"/>
<polygon fill="black" stroke="black" points="110.58,-284.13 120.43,-280.23 110.29,-277.13 110.58,-284.13"/>
</a>
</g>
<text text-anchor="middle" x="78.48" y="-318.8" font-family="Times,serif" font-size="14.00">initiateRegularOperation</text>
</g>
<!-- Intersection_timerDriven_noPedestrian_flow_DirectionOneGo&#45;&gt;Intersection_timerDriven_noPedestrian_flow_FourWayStop -->
<g id="edge2" class="edge">
<title>Intersection_timerDriven_noPedestrian_flow_DirectionOneGo&#45;&gt;Intersection_timerDriven_noPedestrian_flow_FourWayStop</title>
<g id="a_edge2"><a xlink:title="From DirectionOneGo to FourWayStop on detectMalfunction_DirectionOneGo">
<path fill="none" stroke="black" d="M160.32,-297.22C153.05,-307.6 147.48,-320.6 155.48,-330 175.61,-353.64 257.83,-361.37 315.07,-363.86"/>
<polygon fill="black" stroke="black" points="314.96,-367.36 325.09,-364.26 315.24,-360.36 314.96,-367.36"/>
</a>
</g>
<text text-anchor="middle" x="256.98" y="-318.8" font-family="Times,serif" font-size="14.00">detectMalfunction_DirectionOneGo</text>
</g>
<!-- Intersection_timerDriven_noPedestrian_flow_DirectionOneHalting -->
<g id="node4" class="node">
<title>Intersection_timerDriven_noPedestrian_flow_DirectionOneHalting</title>
<g id="a_node4"><a xlink:title="Class Intersection_timerDriven_noPedestrian, SM flow, State DirectionOneHalting">
<path fill="none" stroke="black" d="M424.98,-210C424.98,-210 313.98,-210 313.98,-210 307.98,-210 301.98,-204 301.98,-198 301.98,-198 301.98,-186 301.98,-186 301.98,-180 307.98,-174 313.98,-174 313.98,-174 424.98,-174 424.98,-174 430.98,-174 436.98,-180 436.98,-186 436.98,-186 436.98,-198 436.98,-198 436.98,-204 430.98,-210 424.98,-210"/>
<text text-anchor="middle" x="369.48" y="-188.3" font-family="Times,serif" font-size="14.00">DirectionOneHalting</text>
</a>
</g>
</g>
<!-- Intersection_timerDriven_noPedestrian_flow_DirectionOneGo&#45;&gt;Intersection_timerDriven_noPedestrian_flow_DirectionOneHalting -->
<g id="edge8" class="edge">
<title>Intersection_timerDriven_noPedestrian_flow_DirectionOneGo&#45;&gt;Intersection_timerDriven_noPedestrian_flow_DirectionOneHalting</title>
<g id="a_edge8"><a xlink:title="From DirectionOneGo to DirectionOneHalting on Wait_DirectionOneGo">
<path fill="none" stroke="black" d="M189.55,-260.78C199.37,-249.84 213.38,-236.24 228.48,-228 247.96,-217.36 270.72,-209.9 292.19,-204.69"/>
<polygon fill="black" stroke="black" points="292.99,-208.1 301.95,-202.45 291.42,-201.28 292.99,-208.1"/>
</a>
</g>
<text text-anchor="middle" x="291.98" y="-231.8" font-family="Times,serif" font-size="14.00">Wait_DirectionOneGo</text>
</g>
<!-- Intersection_timerDriven_noPedestrian_flow_DirectionOneHalting&#45;&gt;Intersection_timerDriven_noPedestrian_flow_FourWayStop -->
<g id="edge3" class="edge">
<title>Intersection_timerDriven_noPedestrian_flow_DirectionOneHalting&#45;&gt;Intersection_timerDriven_noPedestrian_flow_FourWayStop</title>
<g id="a_edge3"><a xlink:title="From DirectionOneHalting to FourWayStop on detectMalfunction_DirectionOneaHalting">
<path fill="none" stroke="black" d="M369.78,-210.05C370.3,-239.88 371.38,-301.76 372,-337.64"/>
<polygon fill="black" stroke="black" points="368.51,-337.94 372.18,-347.88 375.51,-337.82 368.51,-337.94"/>
</a>
</g>
<text text-anchor="middle" x="487.98" y="-275.3" font-family="Times,serif" font-size="14.00">detectMalfunction_DirectionOneaHalting</text>
</g>
<!-- Intersection_timerDriven_noPedestrian_flow_DirectionTwoGo -->
<g id="node5" class="node">
<title>Intersection_timerDriven_noPedestrian_flow_DirectionTwoGo</title>
<g id="a_node5"><a xlink:title="Class Intersection_timerDriven_noPedestrian, SM flow, State DirectionTwoGo">
<path fill="none" stroke="black" d="M569.98,-123C569.98,-123 482.98,-123 482.98,-123 476.98,-123 470.98,-117 470.98,-111 470.98,-111 470.98,-99 470.98,-99 470.98,-93 476.98,-87 482.98,-87 482.98,-87 569.98,-87 569.98,-87 575.98,-87 581.98,-93 581.98,-99 581.98,-99 581.98,-111 581.98,-111 581.98,-117 575.98,-123 569.98,-123"/>
<text text-anchor="middle" x="526.48" y="-101.3" font-family="Times,serif" font-size="14.00">DirectionTwoGo</text>
</a>
</g>
</g>
<!-- Intersection_timerDriven_noPedestrian_flow_DirectionOneHalting&#45;&gt;Intersection_timerDriven_noPedestrian_flow_DirectionTwoGo -->
<g id="edge9" class="edge">
<title>Intersection_timerDriven_noPedestrian_flow_DirectionOneHalting&#45;&gt;Intersection_timerDriven_noPedestrian_flow_DirectionTwoGo</title>
<g id="a_edge9"><a xlink:title="From DirectionOneHalting to DirectionTwoGo on WaitDirectionOneHalting">
<path fill="none" stroke="black" d="M401.25,-173.8C425.7,-160.56 459.65,-142.18 486.03,-127.9"/>
<polygon fill="black" stroke="black" points="487.9,-130.87 495.02,-123.03 484.56,-124.71 487.9,-130.87"/>
</a>
</g>
<text text-anchor="middle" x="528.98" y="-144.8" font-family="Times,serif" font-size="14.00">WaitDirectionOneHalting</text>
</g>
<!-- Intersection_timerDriven_noPedestrian_flow_DirectionTwoGo&#45;&gt;Intersection_timerDriven_noPedestrian_flow_FourWayStop -->
<g id="edge4" class="edge">
<title>Intersection_timerDriven_noPedestrian_flow_DirectionTwoGo&#45;&gt;Intersection_timerDriven_noPedestrian_flow_FourWayStop</title>
<g id="a_edge4"><a xlink:title="From DirectionTwoGo to FourWayStop on detectMalfunction_DirectionTwoGo">
<path fill="none" stroke="black" d="M582.09,-121.01C591.28,-125.92 599.69,-132.42 605.48,-141 632.94,-181.7 618.59,-284.91 609.48,-297 587.86,-325.7 492.65,-346.01 429.68,-356.58"/>
<polygon fill="black" stroke="black" points="428.78,-353.18 419.48,-358.26 429.92,-360.09 428.78,-353.18"/>
</a>
</g>
<text text-anchor="middle" x="722.98" y="-231.8" font-family="Times,serif" font-size="14.00">detectMalfunction_DirectionTwoGo</text>
</g>
<!-- Intersection_timerDriven_noPedestrian_flow_DirectionTwoHalting -->
<g id="node6" class="node">
<title>Intersection_timerDriven_noPedestrian_flow_DirectionTwoHalting</title>
<g id="a_node6"><a xlink:title="Class Intersection_timerDriven_noPedestrian, SM flow, State DirectionTwoHalting">
<path fill="none" stroke="black" d="M582.48,-36C582.48,-36 470.48,-36 470.48,-36 464.48,-36 458.48,-30 458.48,-24 458.48,-24 458.48,-12 458.48,-12 458.48,-6 464.48,0 470.48,0 470.48,0 582.48,0 582.48,0 588.48,0 594.48,-6 594.48,-12 594.48,-12 594.48,-24 594.48,-24 594.48,-30 588.48,-36 582.48,-36"/>
<text text-anchor="middle" x="526.48" y="-14.3" font-family="Times,serif" font-size="14.00">DirectionTwoHalting</text>
</a>
</g>
</g>
<!-- Intersection_timerDriven_noPedestrian_flow_DirectionTwoGo&#45;&gt;Intersection_timerDriven_noPedestrian_flow_DirectionTwoHalting -->
<g id="edge10" class="edge">
<title>Intersection_timerDriven_noPedestrian_flow_DirectionTwoGo&#45;&gt;Intersection_timerDriven_noPedestrian_flow_DirectionTwoHalting</title>
<g id="a_edge10"><a xlink:title="From DirectionTwoGo to DirectionTwoHalting on WaitDirectionTwoGo">
<path fill="none" stroke="black" d="M526.48,-86.8C526.48,-75.16 526.48,-59.55 526.48,-46.24"/>
<polygon fill="black" stroke="black" points="529.98,-46.18 526.48,-36.18 522.98,-46.18 529.98,-46.18"/>
</a>
</g>
<text text-anchor="middle" x="586.98" y="-57.8" font-family="Times,serif" font-size="14.00">WaitDirectionTwoGo</text>
</g>
<!-- Intersection_timerDriven_noPedestrian_flow_DirectionTwoHalting&#45;&gt;Intersection_timerDriven_noPedestrian_flow_FourWayStop -->
<g id="edge5" class="edge">
<title>Intersection_timerDriven_noPedestrian_flow_DirectionTwoHalting&#45;&gt;Intersection_timerDriven_noPedestrian_flow_FourWayStop</title>
<g id="a_edge5"><a xlink:title="From DirectionTwoHalting to FourWayStop on detectMalfunction_DirectionTwoHalting">
<path fill="none" stroke="black" d="M594.82,-23.04C690.41,-30.61 852.48,-51.21 852.48,-104 852.48,-280 852.48,-280 852.48,-280 852.48,-322.44 557.72,-350.56 430.17,-360.75"/>
<polygon fill="black" stroke="black" points="429.51,-357.29 419.82,-361.56 430.06,-364.26 429.51,-357.29"/>
</a>
</g>
<text text-anchor="middle" x="967.48" y="-188.3" font-family="Times,serif" font-size="14.00">detectMalfunction_DirectionTwoHalting</text>
</g>
<!-- Intersection_timerDriven_noPedestrian_flow_DirectionTwoHalting&#45;&gt;Intersection_timerDriven_noPedestrian_flow_DirectionOneGo -->
<g id="edge7" class="edge">
<title>Intersection_timerDriven_noPedestrian_flow_DirectionTwoHalting&#45;&gt;Intersection_timerDriven_noPedestrian_flow_DirectionOneGo</title>
<g id="a_edge7"><a xlink:title="From DirectionTwoHalting to DirectionOneGo on Wait_DirectionTwoGo">
<path fill="none" stroke="black" d="M485.48,-36.12C418.51,-65.94 285.17,-133.4 205.48,-228 199.32,-235.31 193.62,-244.04 188.88,-252.13"/>
<polygon fill="black" stroke="black" points="185.8,-250.47 183.97,-260.9 191.91,-253.89 185.8,-250.47"/>
</a>
</g>
<text text-anchor="middle" x="363.48" y="-144.8" font-family="Times,serif" font-size="14.00">Wait_DirectionTwoGo</text>
</g>
</g>
</svg>
