<?xml version="1.0" encoding="UTF-8" standalone="no"?>
<!DOCTYPE svg PUBLIC "-//W3C//DTD SVG 1.1//EN"
 "http://www.w3.org/Graphics/SVG/1.1/DTD/svg11.dtd">
<!-- Generated by graphviz version 2.48.0 (20210717.1556)
 -->
<!-- Title: VendingMachine Pages: 1 -->
<svg width="264pt" height="356pt"
 viewBox="0.00 0.00 264.00 356.40" xmlns="http://www.w3.org/2000/svg" xmlns:xlink="http://www.w3.org/1999/xlink">
<g id="graph0" class="graph" transform="scale(1 1) rotate(0) translate(4 352.4)">
<title>VendingMachine</title>
<polygon fill="white" stroke="transparent" points="-4,4 -4,-352.4 260,-352.4 260,4 -4,4"/>
<!-- start_VendingMachine_controlUnit -->
<g id="node1" class="node">
<title>start_VendingMachine_controlUnit</title>
<g id="a_node1"><a xlink:title="Class VendingMachine, SM controlUnit, State start">
<ellipse fill="black" stroke="black" cx="121" cy="-341.2" rx="7.2" ry="7.2"/>
</a>
</g>
</g>
<!-- VendingMachine_controlUnit_ReceivingMoney -->
<g id="node2" class="node">
<title>VendingMachine_controlUnit_ReceivingMoney</title>
<g id="a_node2"><a xlink:title="Class VendingMachine, SM controlUnit, State ReceivingMoney">
<path fill="none" stroke="black" d="M165.5,-297C165.5,-297 76.5,-297 76.5,-297 70.5,-297 64.5,-291 64.5,-285 64.5,-285 64.5,-273 64.5,-273 64.5,-267 70.5,-261 76.5,-261 76.5,-261 165.5,-261 165.5,-261 171.5,-261 177.5,-267 177.5,-273 177.5,-273 177.5,-285 177.5,-285 177.5,-291 171.5,-297 165.5,-297"/>
<text text-anchor="middle" x="121" y="-275.3" font-family="Times,serif" font-size="14.00">ReceivingMoney</text>
</a>
</g>
</g>
<!-- start_VendingMachine_controlUnit&#45;&gt;VendingMachine_controlUnit_ReceivingMoney -->
<g id="edge1" class="edge">
<title>start_VendingMachine_controlUnit&#45;&gt;VendingMachine_controlUnit_ReceivingMoney</title>
<g id="a_edge1"><a xlink:title="start to ReceivingMoney">
<path fill="none" stroke="black" d="M121,-333.76C121,-327.39 121,-317.2 121,-307.39"/>
<polygon fill="black" stroke="black" points="124.5,-307.1 121,-297.1 117.5,-307.1 124.5,-307.1"/>
</a>
</g>
</g>
<!-- VendingMachine_controlUnit_DeliveringItem -->
<g id="node3" class="node">
<title>VendingMachine_controlUnit_DeliveringItem</title>
<g id="a_node3"><a xlink:title="Class VendingMachine, SM controlUnit, State DeliveringItem">
<path fill="none" stroke="black" d="M117,-210C117,-210 39,-210 39,-210 33,-210 27,-204 27,-198 27,-198 27,-186 27,-186 27,-180 33,-174 39,-174 39,-174 117,-174 117,-174 123,-174 129,-180 129,-186 129,-186 129,-198 129,-198 129,-204 123,-210 117,-210"/>
<text text-anchor="middle" x="78" y="-188.3" font-family="Times,serif" font-size="14.00">DeliveringItem</text>
</a>
</g>
</g>
<!-- VendingMachine_controlUnit_ReceivingMoney&#45;&gt;VendingMachine_controlUnit_DeliveringItem -->
<g id="edge3" class="edge">
<title>VendingMachine_controlUnit_ReceivingMoney&#45;&gt;VendingMachine_controlUnit_DeliveringItem</title>
<g id="a_edge3"><a xlink:title="From ReceivingMoney to DeliveringItem on enterCoin">
<path fill="none" stroke="black" d="M112.3,-260.8C106.3,-248.93 98.2,-232.93 91.38,-219.45"/>
<polygon fill="black" stroke="black" points="94.33,-217.52 86.69,-210.18 88.08,-220.68 94.33,-217.52"/>
</a>
</g>
<text text-anchor="middle" x="131" y="-231.8" font-family="Times,serif" font-size="14.00">enterCoin</text>
</g>
<!-- VendingMachine_controlUnit_ReturningMoney -->
<g id="node4" class="node">
<title>VendingMachine_controlUnit_ReturningMoney</title>
<g id="a_node4"><a xlink:title="Class VendingMachine, SM controlUnit, State ReturningMoney">
<path fill="none" stroke="black" d="M100,-123C100,-123 12,-123 12,-123 6,-123 0,-117 0,-111 0,-111 0,-99 0,-99 0,-93 6,-87 12,-87 12,-87 100,-87 100,-87 106,-87 112,-93 112,-99 112,-99 112,-111 112,-111 112,-117 106,-123 100,-123"/>
<text text-anchor="middle" x="56" y="-101.3" font-family="Times,serif" font-size="14.00">ReturningMoney</text>
</a>
</g>
</g>
<!-- VendingMachine_controlUnit_DeliveringItem&#45;&gt;VendingMachine_controlUnit_ReturningMoney -->
<g id="edge4" class="edge">
<title>VendingMachine_controlUnit_DeliveringItem&#45;&gt;VendingMachine_controlUnit_ReturningMoney</title>
<g id="a_edge4"><a xlink:title="From DeliveringItem to ReturningMoney on deliveryComplete">
<path fill="none" stroke="black" d="M64.5,-173.77C61.04,-168.38 57.79,-162.21 56,-156 53.94,-148.86 53.26,-140.9 53.27,-133.47"/>
<polygon fill="black" stroke="black" points="56.76,-133.58 53.66,-123.46 49.77,-133.31 56.76,-133.58"/>
</a>
</g>
<text text-anchor="middle" x="106.5" y="-144.8" font-family="Times,serif" font-size="14.00">deliveryComplete</text>
</g>
<!-- VendingMachine_controlUnit_Waiting -->
<g id="node5" class="node">
<title>VendingMachine_controlUnit_Waiting</title>
<g id="a_node5"><a xlink:title="Class VendingMachine, SM controlUnit, State Waiting">
<path fill="none" stroke="black" d="M141,-36C141,-36 93,-36 93,-36 87,-36 81,-30 81,-24 81,-24 81,-12 81,-12 81,-6 87,0 93,0 93,0 141,0 141,0 147,0 153,-6 153,-12 153,-12 153,-24 153,-24 153,-30 147,-36 141,-36"/>
<text text-anchor="middle" x="117" y="-14.3" font-family="Times,serif" font-size="14.00">Waiting</text>
</a>
</g>
</g>
<!-- VendingMachine_controlUnit_ReturningMoney&#45;&gt;VendingMachine_controlUnit_Waiting -->
<g id="edge5" class="edge">
<title>VendingMachine_controlUnit_ReturningMoney&#45;&gt;VendingMachine_controlUnit_Waiting</title>
<g id="a_edge5"><a xlink:title="From ReturningMoney to Waiting on returningComplete">
<path fill="none" stroke="black" d="M53.21,-86.62C52.47,-76.42 53.15,-63.67 59,-54 62.39,-48.39 67.06,-43.56 72.29,-39.44"/>
<polygon fill="black" stroke="black" points="74.61,-42.09 80.86,-33.54 70.64,-36.33 74.61,-42.09"/>
</a>
</g>
<text text-anchor="middle" x="112" y="-57.8" font-family="Times,serif" font-size="14.00">returningComplete</text>
</g>
<!-- VendingMachine_controlUnit_Waiting&#45;&gt;VendingMachine_controlUnit_ReceivingMoney -->
<g id="edge2" class="edge">
<title>VendingMachine_controlUnit_Waiting&#45;&gt;VendingMachine_controlUnit_ReceivingMoney</title>
<g id="a_edge2"><a xlink:title="From Waiting to ReceivingMoney on pressSelection">
<path fill="none" stroke="black" d="M149.55,-36.21C155.77,-41.09 161.45,-47.01 165,-54 168.02,-59.94 165.04,-62.33 165,-69 164.56,-146.34 196.21,-173.15 163,-243 161.17,-246.86 158.68,-250.44 155.83,-253.73"/>
<polygon fill="black" stroke="black" points="153.28,-251.32 148.64,-260.84 158.21,-256.29 153.28,-251.32"/>
</a>
</g>
<text text-anchor="middle" x="215.5" y="-144.8" font-family="Times,serif" font-size="14.00">pressSelection</text>
</g>
</g>
</svg>
