<svg width="160" height="151" viewBox="770 762 198 195" xmlns="http://www.w3.org/2000/svg" xmlns:xlink="http://www.w3.org/1999/xlink" xml:space="preserve" overflow="hidden">
  <g>
    <path d="M778.109 957C774.183 957 771 953.817 771 949.891L771 927.11C771 923.183 774.183 920 778.109 920L960.89 920C964.817 920 968 923.183 968 927.11L968 949.891C968 953.817 964.817 957 960.89 957Z" fill="#636D77" fill-rule="evenodd" fill-opacity="1" />
    <path d="M770 772.184C770 766.56 774.56 762 780.184 762L812.816 762C818.441 762 823 766.56 823 772.184L823 946.816C823 952.44 818.441 957 812.816 957L780.184 957C774.56 957 770 952.44 770 946.816Z" fill="#8F001A" fill-rule="evenodd" fill-opacity="1" />
    <path d="M914 772.376C914 766.646 918.646 762 924.376 762L957.624 762C963.354 762 968 766.646 968 772.376L968 946.624C968 952.354 963.354 957 957.624 957L924.376 957C918.646 957 914 952.354 914 946.624Z" fill="#636D77" fill-rule="evenodd" fill-opacity="1" />
    <path d="M914 920 924.376 920 937.271 920 944.73 920 957.624 920 968 920 968 927.109 968 939.102 968 949.891C968 953.817 963.354 957 957.624 957L944.73 957 924.376 957 914 957 914 949.891 914 927.109Z" fill="#8F001A" fill-rule="evenodd" fill-opacity="1" />
    <path d="M823 904 823 914.184 823 926.84 823 934.16 823 946.816 823 957 812.816 957 795.638 957 780.184 957C774.56 957 770 952.44 770 946.816L770 934.16 770 914.184 770 904 780.184 904 812.816 904Z" fill="#8F001A" fill-rule="evenodd" fill-opacity="1" />
  </g>
</svg>