<?xml version="1.0" encoding="UTF-8" standalone="no"?>
<!DOCTYPE svg PUBLIC "-//W3C//DTD SVG 1.1//EN"
 "http://www.w3.org/Graphics/SVG/1.1/DTD/svg11.dtd">
<!-- Generated by graphviz version 2.40.1 (20161225.0304)
 -->
<!-- Title: 2DShapes Pages: 1 -->
<svg width="504pt" height="302pt"
 viewBox="0.00 0.00 504.00 302.00" xmlns="http://www.w3.org/2000/svg" xmlns:xlink="http://www.w3.org/1999/xlink">
<g id="graph0" class="graph" transform="scale(1 1) rotate(0) translate(4 298)">
<title>2DShapes</title>
<polygon fill="#ffffff" stroke="transparent" points="-4,4 -4,-298 500,-298 500,4 -4,4"/>
<!-- Shape2D -->
<g id="node1" class="node">
<title>Shape2D</title>
<g id="a_node1"><a xlink:href="javascript:Action.selectClass(&quot;Shape2D&quot;);" xlink:title="class Shape2D&#10;Positioning&#13;">
<text text-anchor="start" x="172.8379" y="-277.8" font-family="Times,serif" font-size="14.00" fill="#000000"> &#160;&#160;&#160;Shape2D &#160;&#160;&#160;</text>
<g id="a_node1_0"><a xlink:href="javascript:Action.selectClass(&quot;Shape2D&quot;);" xlink:title="String center&#13;">
<text text-anchor="start" x="165.8447" y="-257.8" font-family="Times,serif" font-size="14.00" fill="#000000"> &#160;center : String &#160;</text>
</a>
</g>
<polygon fill="#000000" stroke="#000000" points="163,-271 163,-271 262,-271 262,-271 163,-271"/>
<polygon fill="none" stroke="#000000" points="162.5,-252 162.5,-294 261.5,-294 261.5,-252 162.5,-252"/>
</a>
</g>
</g>
<!-- EllipticalShape -->
<g id="node2" class="node">
<title>EllipticalShape</title>
<g id="a_node2"><a xlink:href="javascript:Action.selectClass(&quot;EllipticalShape&quot;);" xlink:title="class EllipticalShape&#10;Abstract&#13;">
<text text-anchor="start" x="84.2344" y="-199.8" font-family="Times,serif" font-size="14.00" fill="#000000"> &#160;&#160;&#160;EllipticalShape &#160;&#160;&#160;</text>
<g id="a_node2_1"><a xlink:href="javascript:Action.selectClass(&quot;EllipticalShape&quot;);" xlink:title="String semiMajorAxis&#13;">
<text text-anchor="start" x="67.8896" y="-179.8" font-family="Times,serif" font-size="14.00" fill="#000000"> &#160;semiMajorAxis : String &#160;</text>
</a>
</g>
<polygon fill="#000000" stroke="#000000" points="65,-193 65,-193 217,-193 217,-193 65,-193"/>
<polygon fill="none" stroke="#000000" points="65,-174 65,-216 217,-216 217,-174 65,-174"/>
</a>
</g>
</g>
<!-- EllipticalShape&#45;&gt;Shape2D -->
<g id="edge1" class="edge">
<title>EllipticalShape&#45;&gt;Shape2D</title>
<path fill="none" stroke="#000000" d="M167.4378,-216.2247C180.3696,-226.6066 195.0209,-238.3689 203.8813,-245.4822"/>
<polygon fill="none" stroke="#000000" points="202.0109,-248.4689 212,-252 206.3931,-243.0103 202.0109,-248.4689"/>
</g>
<!-- Polygon -->
<g id="node3" class="node">
<title>Polygon</title>
<g id="a_node3"><a xlink:href="javascript:Action.selectClass(&quot;Polygon&quot;);" xlink:title="class Polygon&#10;Abstract&#13;">
<text text-anchor="start" x="245.6621" y="-190.8" font-family="Times,serif" font-size="14.00" fill="#000000"> &#160;&#160;&#160;Polygon &#160;&#160;&#160;</text>
<polygon fill="none" stroke="#000000" points="235,-177 235,-213 331,-213 331,-177 235,-177"/>
</a>
</g>
</g>
<!-- Polygon&#45;&gt;Shape2D -->
<g id="edge2" class="edge">
<title>Polygon&#45;&gt;Shape2D</title>
<path fill="none" stroke="#000000" d="M260.5352,-213.0352C246.7221,-224.1245 229.8515,-237.6685 220.0755,-245.5169"/>
<polygon fill="none" stroke="#000000" points="217.6069,-243.0103 212,-252 221.9891,-248.4689 217.6069,-243.0103"/>
</g>
<!-- Circle -->
<g id="node4" class="node">
<title>Circle</title>
<g id="a_node4"><a xlink:href="javascript:Action.selectClass(&quot;Circle&quot;);" xlink:title="class Circle&#10;">
<text text-anchor="start" x="10.8965" y="-112.8" font-family="Times,serif" font-size="14.00" fill="#000000"> &#160;&#160;&#160;Circle &#160;&#160;&#160;</text>
<polygon fill="none" stroke="#000000" points="0,-99 0,-135 84,-135 84,-99 0,-99"/>
</a>
</g>
</g>
<!-- Circle&#45;&gt;EllipticalShape -->
<g id="edge3" class="edge">
<title>Circle&#45;&gt;EllipticalShape</title>
<path fill="none" stroke="#000000" d="M70.4766,-135.0352C88.81,-146.6463 111.3926,-160.9486 123.4519,-168.5862"/>
<polygon fill="none" stroke="#000000" points="121.6791,-171.6063 132,-174 125.4245,-165.6926 121.6791,-171.6063"/>
</g>
<!-- Ellipse -->
<g id="node5" class="node">
<title>Ellipse</title>
<g id="a_node5"><a xlink:href="javascript:Action.selectClass(&quot;Ellipse&quot;);" xlink:title="class Ellipse&#10;">
<text text-anchor="start" x="112.5586" y="-112.8" font-family="Times,serif" font-size="14.00" fill="#000000"> &#160;&#160;&#160;Ellipse &#160;&#160;&#160;</text>
<polygon fill="none" stroke="#000000" points="102,-99 102,-135 190,-135 190,-99 102,-99"/>
</a>
</g>
</g>
<!-- Ellipse&#45;&gt;EllipticalShape -->
<g id="edge4" class="edge">
<title>Ellipse&#45;&gt;EllipticalShape</title>
<path fill="none" stroke="#000000" d="M141.5703,-135.0352C139.1991,-144.6894 136.3709,-156.2041 134.4067,-164.2014"/>
<polygon fill="none" stroke="#000000" points="130.9863,-163.4538 132,-174 137.7843,-165.1235 130.9863,-163.4538"/>
</g>
<!-- SimplePolygon -->
<g id="node6" class="node">
<title>SimplePolygon</title>
<g id="a_node6"><a xlink:href="javascript:Action.selectClass(&quot;SimplePolygon&quot;);" xlink:title="class SimplePolygon&#10;">
<text text-anchor="start" x="222.3276" y="-121.8" font-family="Times,serif" font-size="14.00" fill="#000000"> &#160;&#160;&#160;SimplePolygon &#160;&#160;&#160;</text>
<g id="a_node6_2"><a xlink:href="javascript:Action.selectClass(&quot;SimplePolygon&quot;);" xlink:title="String orientation&#13;">
<text text-anchor="start" x="219.6172" y="-101.8" font-family="Times,serif" font-size="14.00" fill="#000000"> &#160;orientation : String &#160;</text>
</a>
</g>
<polygon fill="#000000" stroke="#000000" points="217,-115 217,-115 342,-115 342,-115 217,-115"/>
<polygon fill="none" stroke="#000000" points="216.5,-96 216.5,-138 341.5,-138 341.5,-96 216.5,-96"/>
</a>
</g>
</g>
<!-- SimplePolygon&#45;&gt;Polygon -->
<g id="edge5" class="edge">
<title>SimplePolygon&#45;&gt;Polygon</title>
<path fill="none" stroke="#000000" d="M283.9753,-138.3227C286.2702,-148.1581 288.8829,-159.3551 290.7044,-167.1615"/>
<polygon fill="none" stroke="#000000" points="287.3192,-168.0569 293,-177 294.1361,-166.4663 287.3192,-168.0569"/>
</g>
<!-- ArbitraryPolygon -->
<g id="node7" class="node">
<title>ArbitraryPolygon</title>
<g id="a_node7"><a xlink:href="javascript:Action.selectClass(&quot;ArbitraryPolygon&quot;);" xlink:title="class ArbitraryPolygon&#10;">
<text text-anchor="start" x="365" y="-121.8" font-family="Times,serif" font-size="14.00" fill="#000000"> &#160;&#160;&#160;ArbitraryPolygon &#160;&#160;&#160;</text>
<g id="a_node7_3"><a xlink:href="javascript:Action.selectClass(&quot;ArbitraryPolygon&quot;);" xlink:title="String points&#13;">
<text text-anchor="start" x="363" y="-101.8" font-family="Times,serif" font-size="14.00" fill="#000000"> &#160;points : String &#160;</text>
</a>
</g>
<polygon fill="#000000" stroke="#000000" points="360,-115 360,-115 496,-115 496,-115 360,-115"/>
<polygon fill="none" stroke="#000000" points="360,-96 360,-138 496,-138 496,-96 360,-96"/>
</a>
</g>
</g>
<!-- ArbitraryPolygon&#45;&gt;Polygon -->
<g id="edge6" class="edge">
<title>ArbitraryPolygon&#45;&gt;Polygon</title>
<path fill="none" stroke="#000000" d="M380.4041,-138.1538C351.8609,-150.8396 318.1029,-165.8432 302.1829,-172.9187"/>
<polygon fill="none" stroke="#000000" points="300.7166,-169.7402 293,-177 303.5596,-176.1369 300.7166,-169.7402"/>
</g>
<!-- Rectangle -->
<g id="node8" class="node">
<title>Rectangle</title>
<g id="a_node8"><a xlink:href="javascript:Action.selectClass(&quot;Rectangle&quot;);" xlink:title="class Rectangle&#10;">
<text text-anchor="start" x="171.0137" y="-43.8" font-family="Times,serif" font-size="14.00" fill="#000000"> &#160;&#160;&#160;Rectangle &#160;&#160;&#160;</text>
<g id="a_node8_4"><a xlink:href="javascript:Action.selectClass(&quot;Rectangle&quot;);" xlink:title="String height&#13;">
<text text-anchor="start" x="165.9448" y="-23.8" font-family="Times,serif" font-size="14.00" fill="#000000"> &#160;height : String &#160;</text>
</a>
</g>
<g id="a_node8_5"><a xlink:href="javascript:Action.selectClass(&quot;Rectangle&quot;);" xlink:title="String width&#13;">
<text text-anchor="start" x="166" y="-5.8" font-family="Times,serif" font-size="14.00" fill="#000000"> &#160;width : String &#160;</text>
</a>
</g>
<polygon fill="#000000" stroke="#000000" points="163,-37 163,-37 263,-37 263,-37 163,-37"/>
<polygon fill="none" stroke="#000000" points="163,0 163,-60 263,-60 263,0 163,0"/>
</a>
</g>
</g>
<!-- Rectangle&#45;&gt;SimplePolygon -->
<g id="edge7" class="edge">
<title>Rectangle&#45;&gt;SimplePolygon</title>
<path fill="none" stroke="#000000" d="M243.2957,-60.2957C253.8685,-70.8685 264.8141,-81.8141 271.752,-88.752"/>
<polygon fill="none" stroke="#000000" points="269.454,-91.4038 279,-96 274.4038,-86.454 269.454,-91.4038"/>
</g>
<!-- RegularPolygon -->
<g id="node9" class="node">
<title>RegularPolygon</title>
<g id="a_node9"><a xlink:href="javascript:Action.selectClass(&quot;RegularPolygon&quot;);" xlink:title="class RegularPolygon&#10;">
<text text-anchor="start" x="285.5034" y="-43.8" font-family="Times,serif" font-size="14.00" fill="#000000"> &#160;&#160;&#160;RegularPolygon &#160;&#160;&#160;</text>
<g id="a_node9_6"><a xlink:href="javascript:Action.selectClass(&quot;RegularPolygon&quot;);" xlink:title="String numPoints&#13;">
<text text-anchor="start" x="284" y="-23.8" font-family="Times,serif" font-size="14.00" fill="#000000"> &#160;numPoints : String &#160;</text>
</a>
</g>
<g id="a_node9_7"><a xlink:href="javascript:Action.selectClass(&quot;RegularPolygon&quot;);" xlink:title="String radius&#13;">
<text text-anchor="start" x="284" y="-5.8" font-family="Times,serif" font-size="14.00" fill="#000000"> &#160;radius : String &#160;</text>
</a>
</g>
<polygon fill="#000000" stroke="#000000" points="281,-37 281,-37 409,-37 409,-37 281,-37"/>
<polygon fill="none" stroke="#000000" points="281,0 281,-60 409,-60 409,0 281,0"/>
</a>
</g>
</g>
<!-- RegularPolygon&#45;&gt;SimplePolygon -->
<g id="edge8" class="edge">
<title>RegularPolygon&#45;&gt;SimplePolygon</title>
<path fill="none" stroke="#000000" d="M314.7043,-60.2957C304.1315,-70.8685 293.1859,-81.8141 286.248,-88.752"/>
<polygon fill="none" stroke="#000000" points="283.5962,-86.454 279,-96 288.546,-91.4038 283.5962,-86.454"/>
</g>
</g>
</svg>
