<?xml version="1.0" encoding="UTF-8" standalone="no"?>
<!DOCTYPE svg PUBLIC "-//W3C//DTD SVG 1.1//EN"
 "http://www.w3.org/Graphics/SVG/1.1/DTD/svg11.dtd">
<!-- Generated by graphviz version 2.39.20140502.0445 (20140502.0445)
 -->
<!-- Title: 2DShapes Pages: 1 -->
<svg width="418pt" height="319pt"
 viewBox="0.00 0.00 417.50 319.00" xmlns="http://www.w3.org/2000/svg" xmlns:xlink="http://www.w3.org/1999/xlink">
<g id="graph0" class="graph" transform="scale(1 1) rotate(0) translate(4 315)">
<title>2DShapes</title>
<polygon fill="white" stroke="none" points="-4,4 -4,-315 413.5,-315 413.5,4 -4,4"/>
<!-- Shape2D -->
<g id="node1" class="node"><title>Shape2D</title>
<g id="a_node1"><a xlink:href="javascript:Action.selectClass(&quot;Shape2D&quot;);" xlink:title="class Shape2D
Positioning
">
<polygon fill="none" stroke="black" points="109,-264.5 109,-310.5 205,-310.5 205,-264.5 109,-264.5"/>
<text text-anchor="middle" x="157" y="-295.3" font-family="Times,serif" font-size="14.00">Shape2D</text>
<polyline fill="none" stroke="black" points="109,-287.5 205,-287.5 "/>
<text text-anchor="start" x="117" y="-272.3" font-family="Times,serif" font-size="14.00">center : String</text>
</a>
</g>
</g>
<!-- EllipticalShape -->
<g id="node2" class="node"><title>EllipticalShape</title>
<g id="a_node2"><a xlink:href="javascript:Action.selectClass(&quot;EllipticalShape&quot;);" xlink:title="class EllipticalShape
Abstract
">
<polygon fill="none" stroke="black" points="20.5,-181.5 20.5,-227.5 169.5,-227.5 169.5,-181.5 20.5,-181.5"/>
<text text-anchor="middle" x="95" y="-212.3" font-family="Times,serif" font-size="14.00">EllipticalShape</text>
<polyline fill="none" stroke="black" points="20.5,-204.5 169.5,-204.5 "/>
<text text-anchor="start" x="28.5" y="-189.3" font-family="Times,serif" font-size="14.00">semiMajorAxis : String</text>
</a>
</g>
</g>
<!-- EllipticalShape&#45;&gt;Shape2D -->
<g id="edge1" class="edge"><title>EllipticalShape&#45;&gt;Shape2D</title>
<path fill="none" stroke="black" d="M118.44,-227.805C129.55,-238.378 142.04,-250.264 149.715,-257.568"/>
<polygon fill="none" stroke="black" points="147.343,-260.142 157,-264.5 152.169,-255.071 147.343,-260.142"/>
</g>
<!-- Polygon -->
<g id="node3" class="node"><title>Polygon</title>
<g id="a_node3"><a xlink:href="javascript:Action.selectClass(&quot;Polygon&quot;);" xlink:title="class Polygon
Abstract
">
<polygon fill="none" stroke="black" points="187.5,-186.5 187.5,-222.5 250.5,-222.5 250.5,-186.5 187.5,-186.5"/>
<text text-anchor="middle" x="219" y="-200.8" font-family="Times,serif" font-size="14.00">Polygon</text>
</a>
</g>
</g>
<!-- Polygon&#45;&gt;Shape2D -->
<g id="edge2" class="edge"><title>Polygon&#45;&gt;Shape2D</title>
<path fill="none" stroke="black" d="M164.461,-257.4 173.465,-248.832 188.907,-234.136 201.067,-222.565"/>
<polygon fill="none" stroke="black" points="161.831,-255.071 157,-264.5 166.657,-260.142 161.831,-255.071"/>
</g>
<!-- Circle -->
<g id="node4" class="node"><title>Circle</title>
<g id="a_node4"><a xlink:href="javascript:Action.selectClass(&quot;Circle&quot;);" xlink:title="class Circle
">
<polygon fill="none" stroke="black" points="0,-103.5 0,-139.5 54,-139.5 54,-103.5 0,-103.5"/>
<text text-anchor="middle" x="27" y="-117.8" font-family="Times,serif" font-size="14.00">Circle</text>
</a>
</g>
</g>
<!-- Circle&#45;&gt;EllipticalShape -->
<g id="edge3" class="edge"><title>Circle&#45;&gt;EllipticalShape</title>
<path fill="none" stroke="black" d="M44.3545,-139.565C56.1219,-151.136 71.0665,-165.832 79.7794,-174.4"/>
<polygon fill="none" stroke="black" points="77.4157,-176.984 87,-181.5 82.3237,-171.993 77.4157,-176.984"/>
</g>
<!-- Ellipse -->
<g id="node5" class="node"><title>Ellipse</title>
<g id="a_node5"><a xlink:href="javascript:Action.selectClass(&quot;Ellipse&quot;);" xlink:title="class Ellipse
">
<polygon fill="none" stroke="black" points="72.5,-103.5 72.5,-139.5 127.5,-139.5 127.5,-103.5 72.5,-103.5"/>
<text text-anchor="middle" x="100" y="-117.8" font-family="Times,serif" font-size="14.00">Ellipse</text>
</a>
</g>
</g>
<!-- Ellipse&#45;&gt;EllipticalShape -->
<g id="edge4" class="edge"><title>Ellipse&#45;&gt;EllipticalShape</title>
<path fill="none" stroke="black" d="M89.2071,-171.483 91.1302,-162.755 93.9602,-149.911 96.2399,-139.565"/>
<polygon fill="none" stroke="black" points="85.7338,-170.981 87,-181.5 92.5699,-172.487 85.7338,-170.981"/>
</g>
<!-- SimplePolygon -->
<g id="node6" class="node"><title>SimplePolygon</title>
<g id="a_node6"><a xlink:href="javascript:Action.selectClass(&quot;SimplePolygon&quot;);" xlink:title="class SimplePolygon
">
<polygon fill="none" stroke="black" points="154,-98.5 154,-144.5 276,-144.5 276,-98.5 154,-98.5"/>
<text text-anchor="middle" x="215" y="-129.3" font-family="Times,serif" font-size="14.00">SimplePolygon</text>
<polyline fill="none" stroke="black" points="154,-121.5 276,-121.5 "/>
<text text-anchor="start" x="162" y="-106.3" font-family="Times,serif" font-size="14.00">orientation : String</text>
</a>
</g>
</g>
<!-- SimplePolygon&#45;&gt;Polygon -->
<g id="edge5" class="edge"><title>SimplePolygon&#45;&gt;Polygon</title>
<path fill="none" stroke="black" d="M219.818,-144.525C222.191,-155.373 224.935,-167.919 226.801,-176.449"/>
<polygon fill="none" stroke="black" points="223.444,-177.479 229,-186.5 230.282,-175.983 223.444,-177.479"/>
</g>
<!-- ArbitraryPolygon -->
<g id="node7" class="node"><title>ArbitraryPolygon</title>
<g id="a_node7"><a xlink:href="javascript:Action.selectClass(&quot;ArbitraryPolygon&quot;);" xlink:title="class ArbitraryPolygon
">
<polygon fill="none" stroke="black" points="294.5,-98.5 294.5,-144.5 409.5,-144.5 409.5,-98.5 294.5,-98.5"/>
<text text-anchor="middle" x="352" y="-129.3" font-family="Times,serif" font-size="14.00">ArbitraryPolygon</text>
<polyline fill="none" stroke="black" points="294.5,-121.5 409.5,-121.5 "/>
<text text-anchor="start" x="302.5" y="-106.3" font-family="Times,serif" font-size="14.00">points : String</text>
</a>
</g>
</g>
<!-- ArbitraryPolygon&#45;&gt;Polygon -->
<g id="edge6" class="edge"><title>ArbitraryPolygon&#45;&gt;Polygon</title>
<path fill="none" stroke="black" d="M237.998,-181.818 252.948,-174.039 283.82,-157.976 309.67,-144.525"/>
<polygon fill="none" stroke="black" points="236.255,-178.779 229,-186.5 239.487,-184.989 236.255,-178.779"/>
</g>
<!-- Rectangle -->
<g id="node8" class="node"><title>Rectangle</title>
<g id="a_node8"><a xlink:href="javascript:Action.selectClass(&quot;Rectangle&quot;);" xlink:title="class Rectangle
">
<polygon fill="none" stroke="black" points="102.5,-0.5 102.5,-61.5 199.5,-61.5 199.5,-0.5 102.5,-0.5"/>
<text text-anchor="middle" x="151" y="-46.3" font-family="Times,serif" font-size="14.00">Rectangle</text>
<polyline fill="none" stroke="black" points="102.5,-38.5 199.5,-38.5 "/>
<text text-anchor="start" x="110.5" y="-23.3" font-family="Times,serif" font-size="14.00">height : String</text>
<text text-anchor="start" x="110.5" y="-8.3" font-family="Times,serif" font-size="14.00">width : String</text>
</a>
</g>
</g>
<!-- Rectangle&#45;&gt;SimplePolygon -->
<g id="edge7" class="edge"><title>Rectangle&#45;&gt;SimplePolygon</title>
<path fill="none" stroke="black" d="M179.631,-61.7489C190.148,-72.6768 201.156,-84.1148 208.042,-91.2706"/>
<polygon fill="none" stroke="black" points="205.544,-93.7218 215,-98.5 210.587,-88.8677 205.544,-93.7218"/>
</g>
<!-- RegularPolygon -->
<g id="node9" class="node"><title>RegularPolygon</title>
<g id="a_node9"><a xlink:href="javascript:Action.selectClass(&quot;RegularPolygon&quot;);" xlink:title="class RegularPolygon
">
<polygon fill="none" stroke="black" points="218,-0.5 218,-61.5 340,-61.5 340,-0.5 218,-0.5"/>
<text text-anchor="middle" x="279" y="-46.3" font-family="Times,serif" font-size="14.00">RegularPolygon</text>
<polyline fill="none" stroke="black" points="218,-38.5 340,-38.5 "/>
<text text-anchor="start" x="226" y="-23.3" font-family="Times,serif" font-size="14.00">numPoints : String</text>
<text text-anchor="start" x="226" y="-8.3" font-family="Times,serif" font-size="14.00">radius : String</text>
</a>
</g>
</g>
<!-- RegularPolygon&#45;&gt;SimplePolygon -->
<g id="edge8" class="edge"><title>RegularPolygon&#45;&gt;SimplePolygon</title>
<path fill="none" stroke="black" d="M221.958,-91.2706 228.844,-84.1148 239.852,-72.6768 250.369,-61.7489"/>
<polygon fill="none" stroke="black" points="219.413,-88.8677 215,-98.5 224.456,-93.7218 219.413,-88.8677"/>
</g>
</g>
</svg>
