<?xml version="1.0" encoding="UTF-8" standalone="no"?>
<!DOCTYPE svg PUBLIC "-//W3C//DTD SVG 1.1//EN"
 "http://www.w3.org/Graphics/SVG/1.1/DTD/svg11.dtd">
<!-- Generated by graphviz version 2.29.20121108.1600 (20121108.1600)
 -->
<!-- Title: 2DShapes Pages: 1 -->
<svg width="414pt" height="340pt"
 viewBox="0.00 0.00 414.00 340.00" xmlns="http://www.w3.org/2000/svg" xmlns:xlink="http://www.w3.org/1999/xlink">
<g id="graph0" class="graph" transform="scale(1 1) rotate(0) translate(4 336)">
<title>2DShapes</title>
<polygon fill="white" stroke="white" points="-4,5 -4,-336 411,-336 411,5 -4,5"/>
<!-- Shape2D -->
<g id="node1" class="node"><title>Shape2D</title>
<g id="a_node1"><a xlink:href="javascript:Action.selectClass(&quot;Shape2D&quot;);" xlink:title="class Shape2D
Positioning
">
<polygon fill="none" stroke="black" points="107.345,-281.2 107.345,-330.8 202.655,-330.8 202.655,-281.2 107.345,-281.2"/>
<text text-anchor="middle" x="155" y="-312.8" font-family="Times,serif" font-size="14.00">Shape2D</text>
<polyline fill="none" stroke="black" points="107.345,-306 202.655,-306 "/>
<text text-anchor="start" x="115.345" y="-288" font-family="Times,serif" font-size="14.00">center : String</text>
</a>
</g>
</g>
<!-- EllipticalShape -->
<g id="node2" class="node"><title>EllipticalShape</title>
<g id="a_node2"><a xlink:href="javascript:Action.selectClass(&quot;EllipticalShape&quot;);" xlink:title="class EllipticalShape
Abstract
">
<polygon fill="none" stroke="black" points="19.8896,-193.2 19.8896,-242.8 168.11,-242.8 168.11,-193.2 19.8896,-193.2"/>
<text text-anchor="middle" x="94" y="-224.8" font-family="Times,serif" font-size="14.00">EllipticalShape</text>
<polyline fill="none" stroke="black" points="19.8896,-218 168.11,-218 "/>
<text text-anchor="start" x="27.8896" y="-200" font-family="Times,serif" font-size="14.00">semiMajorAxis : String</text>
</a>
</g>
</g>
<!-- EllipticalShape&#45;&gt;Shape2D -->
<g id="edge1" class="edge"><title>EllipticalShape&#45;&gt;Shape2D</title>
<path fill="none" stroke="black" d="M117.759,-243.148C128.464,-254.029 140.335,-266.094 147.733,-273.614"/>
<polygon fill="none" stroke="black" points="145.492,-276.326 155,-281 150.482,-271.417 145.492,-276.326"/>
</g>
<!-- Polygon -->
<g id="node3" class="node"><title>Polygon</title>
<g id="a_node3"><a xlink:href="javascript:Action.selectClass(&quot;Polygon&quot;);" xlink:title="class Polygon
Abstract
">
<polygon fill="none" stroke="black" points="185.662,-200 185.662,-236 248.338,-236 248.338,-200 185.662,-200"/>
<text text-anchor="middle" x="217" y="-212.5" font-family="Times,serif" font-size="14.00">Polygon</text>
</a>
</g>
</g>
<!-- Polygon&#45;&gt;Shape2D -->
<g id="edge2" class="edge"><title>Polygon&#45;&gt;Shape2D</title>
<path fill="none" stroke="black" d="M199.73,-236.27C187.404,-248.596 171.449,-264.551 162.306,-273.694"/>
<polygon fill="none" stroke="black" points="159.596,-271.454 155,-281 164.546,-276.404 159.596,-271.454"/>
</g>
<!-- Circle -->
<g id="node4" class="node"><title>Circle</title>
<g id="a_node4"><a xlink:href="javascript:Action.selectClass(&quot;Circle&quot;);" xlink:title="class Circle
">
<polygon fill="none" stroke="black" points="0,-112 0,-148 54,-148 54,-112 0,-112"/>
<text text-anchor="middle" x="26.6035" y="-124.5" font-family="Times,serif" font-size="14.00">Circle</text>
</a>
</g>
</g>
<!-- Circle&#45;&gt;EllipticalShape -->
<g id="edge3" class="edge"><title>Circle&#45;&gt;EllipticalShape</title>
<path fill="none" stroke="black" d="M43.4348,-148.27C55.1641,-160.596 70.3468,-176.551 79.0476,-185.694"/>
<polygon fill="none" stroke="black" points="76.5709,-188.169 86,-193 81.6418,-183.343 76.5709,-188.169"/>
</g>
<!-- Ellipse -->
<g id="node5" class="node"><title>Ellipse</title>
<g id="a_node5"><a xlink:href="javascript:Action.selectClass(&quot;Ellipse&quot;);" xlink:title="class Ellipse
">
<polygon fill="none" stroke="black" points="71.5586,-112 71.5586,-148 126.441,-148 126.441,-112 71.5586,-112"/>
<text text-anchor="middle" x="99" y="-124.5" font-family="Times,serif" font-size="14.00">Ellipse</text>
</a>
</g>
</g>
<!-- Ellipse&#45;&gt;EllipticalShape -->
<g id="edge4" class="edge"><title>Ellipse&#45;&gt;EllipticalShape</title>
<path fill="none" stroke="black" d="M95.3788,-148.27C93.0348,-159.45 90.0648,-173.614 88.1022,-182.974"/>
<polygon fill="none" stroke="black" points="84.6267,-182.495 86,-193 91.4777,-183.931 84.6267,-182.495"/>
</g>
<!-- SimplePolygon -->
<g id="node6" class="node"><title>SimplePolygon</title>
<g id="a_node6"><a xlink:href="javascript:Action.selectClass(&quot;SimplePolygon&quot;);" xlink:title="class SimplePolygon
">
<polygon fill="none" stroke="black" points="152.117,-105.2 152.117,-154.8 273.883,-154.8 273.883,-105.2 152.117,-105.2"/>
<text text-anchor="middle" x="213" y="-136.8" font-family="Times,serif" font-size="14.00">SimplePolygon</text>
<polyline fill="none" stroke="black" points="152.117,-130 273.883,-130 "/>
<text text-anchor="start" x="160.117" y="-112" font-family="Times,serif" font-size="14.00">orientation : String</text>
</a>
</g>
</g>
<!-- SimplePolygon&#45;&gt;Polygon -->
<g id="edge5" class="edge"><title>SimplePolygon&#45;&gt;Polygon</title>
<path fill="none" stroke="black" d="M217.547,-155.133C219.802,-167.103 222.403,-180.908 224.118,-190.008"/>
<polygon fill="none" stroke="black" points="220.709,-190.821 226,-200 227.588,-189.525 220.709,-190.821"/>
</g>
<!-- ArbitraryPolygon -->
<g id="node7" class="node"><title>ArbitraryPolygon</title>
<g id="a_node7"><a xlink:href="javascript:Action.selectClass(&quot;ArbitraryPolygon&quot;);" xlink:title="class ArbitraryPolygon
">
<polygon fill="none" stroke="black" points="291.617,-105.2 291.617,-154.8 406.383,-154.8 406.383,-105.2 291.617,-105.2"/>
<text text-anchor="middle" x="349" y="-136.8" font-family="Times,serif" font-size="14.00">ArbitraryPolygon</text>
<polyline fill="none" stroke="black" points="291.617,-130 406.383,-130 "/>
<text text-anchor="start" x="299.617" y="-112" font-family="Times,serif" font-size="14.00">points : String</text>
</a>
</g>
</g>
<!-- ArbitraryPolygon&#45;&gt;Polygon -->
<g id="edge6" class="edge"><title>ArbitraryPolygon&#45;&gt;Polygon</title>
<path fill="none" stroke="black" d="M306.326,-154.939C280.514,-169.419 249.807,-186.645 234.943,-194.983"/>
<polygon fill="none" stroke="black" points="233.009,-192.055 226,-200 236.434,-198.16 233.009,-192.055"/>
</g>
<!-- Rectangle -->
<g id="node8" class="node"><title>Rectangle</title>
<g id="a_node8"><a xlink:href="javascript:Action.selectClass(&quot;Rectangle&quot;);" xlink:title="class Rectangle
">
<polygon fill="none" stroke="black" points="100.945,-0.8 100.945,-67.2 197.055,-67.2 197.055,-0.8 100.945,-0.8"/>
<text text-anchor="middle" x="149" y="-49.2" font-family="Times,serif" font-size="14.00">Rectangle</text>
<polyline fill="none" stroke="black" points="100.945,-42.4 197.055,-42.4 "/>
<text text-anchor="start" x="108.945" y="-24.4" font-family="Times,serif" font-size="14.00">height : String</text>
<text text-anchor="start" x="108.945" y="-7.6" font-family="Times,serif" font-size="14.00">width : String</text>
</a>
</g>
</g>
<!-- Rectangle&#45;&gt;SimplePolygon -->
<g id="edge7" class="edge"><title>Rectangle&#45;&gt;SimplePolygon</title>
<path fill="none" stroke="black" d="M178.752,-67.5409C188.936,-78.6803 199.426,-90.1535 206.067,-97.4173"/>
<polygon fill="none" stroke="black" points="203.669,-99.9814 213,-105 208.835,-95.258 203.669,-99.9814"/>
</g>
<!-- RegularPolygon -->
<g id="node9" class="node"><title>RegularPolygon</title>
<g id="a_node9"><a xlink:href="javascript:Action.selectClass(&quot;RegularPolygon&quot;);" xlink:title="class RegularPolygon
">
<polygon fill="none" stroke="black" points="215.49,-0.8 215.49,-67.2 336.51,-67.2 336.51,-0.8 215.49,-0.8"/>
<text text-anchor="middle" x="276" y="-49.2" font-family="Times,serif" font-size="14.00">RegularPolygon</text>
<polyline fill="none" stroke="black" points="215.49,-42.4 336.51,-42.4 "/>
<text text-anchor="start" x="223.49" y="-24.4" font-family="Times,serif" font-size="14.00">numPoints : String</text>
<text text-anchor="start" x="223.49" y="-7.6" font-family="Times,serif" font-size="14.00">radius : String</text>
</a>
</g>
</g>
<!-- RegularPolygon&#45;&gt;SimplePolygon -->
<g id="edge8" class="edge"><title>RegularPolygon&#45;&gt;SimplePolygon</title>
<path fill="none" stroke="black" d="M246.713,-67.5409C236.688,-78.6803 226.362,-90.1535 219.824,-97.4173"/>
<polygon fill="none" stroke="black" points="217.088,-95.2256 213,-105 222.291,-99.9084 217.088,-95.2256"/>
</g>
</g>
</svg>
