<?xml version="1.0" encoding="UTF-8" standalone="no"?>
<!DOCTYPE svg PUBLIC "-//W3C//DTD SVG 1.1//EN"
 "http://www.w3.org/Graphics/SVG/1.1/DTD/svg11.dtd">
<!-- Generated by graphviz version 2.39.20140502.0445 (20140502.0445)
 -->
<!-- Title: AccessControl Pages: 1 -->
<svg width="459pt" height="341pt"
 viewBox="0.00 0.00 458.50 341.00" xmlns="http://www.w3.org/2000/svg" xmlns:xlink="http://www.w3.org/1999/xlink">
<g id="graph0" class="graph" transform="scale(1 1) rotate(0) translate(4 337)">
<title>AccessControl</title>
<polygon fill="white" stroke="none" points="-4,4 -4,-337 454.5,-337 454.5,4 -4,4"/>
<!-- FacilityType -->
<g id="node1" class="node"><title>FacilityType</title>
<g id="a_node1"><a xlink:href="javascript:Action.selectClass(&quot;FacilityType&quot;);" xlink:title="class FacilityType
Ref_Facility_Type
">
<polygon fill="none" stroke="black" points="26.5,-286.5 26.5,-332.5 114.5,-332.5 114.5,-286.5 26.5,-286.5"/>
<text text-anchor="middle" x="70.5" y="-317.3" font-family="Times,serif" font-size="14.00">FacilityType</text>
<polyline fill="none" stroke="black" points="26.5,-309.5 114.5,-309.5 "/>
<text text-anchor="start" x="34.5" y="-294.3" font-family="Times,serif" font-size="14.00">code : String</text>
</a>
</g>
</g>
<!-- FunctionalArea -->
<g id="node2" class="node"><title>FunctionalArea</title>
<g id="a_node2"><a xlink:href="javascript:Action.selectClass(&quot;FunctionalArea&quot;);" xlink:title="class FunctionalArea
Functional_Area
Positioning
">
<polygon fill="none" stroke="black" points="2.5,-30.5 2.5,-76.5 106.5,-76.5 106.5,-30.5 2.5,-30.5"/>
<text text-anchor="middle" x="54.5" y="-61.3" font-family="Times,serif" font-size="14.00">FunctionalArea</text>
<polyline fill="none" stroke="black" points="2.5,-53.5 106.5,-53.5 "/>
<text text-anchor="start" x="10.5" y="-38.3" font-family="Times,serif" font-size="14.00">code : String</text>
</a>
</g>
</g>
<!-- FunctionalArea&#45;&gt;FunctionalArea -->
<g id="edge1" class="edge"><title>FunctionalArea&#45;&gt;FunctionalArea</title>
<g id="a_edge1"><a xlink:title="FunctionalArea 0..1 parent &#45;&#45; * child FunctionalArea">
<path fill="none" stroke="black" d="M81.439,-30.4648C102.693,-21.554 124.5,-29.2324 124.5,-53.5 124.5,-77.7676 102.693,-85.446 81.439,-76.5352"/>
</a>
</g>
<text text-anchor="middle" x="61.939" y="-80.3352" font-family="Times,serif" font-size="14.00">* child</text>
<text text-anchor="middle" x="111.439" y="-19.2648" font-family="Times,serif" font-size="14.00">0..1 parent</text>
</g>
<!-- Facility -->
<g id="node3" class="node"><title>Facility</title>
<g id="a_node3"><a xlink:href="javascript:Action.selectClass(&quot;Facility&quot;);" xlink:title="class Facility
">
<polygon fill="none" stroke="black" points="0,-143.5 0,-249.5 141,-249.5 141,-143.5 0,-143.5"/>
<text text-anchor="middle" x="70.5" y="-234.3" font-family="Times,serif" font-size="14.00">Facility</text>
<polyline fill="none" stroke="black" points="0,-226.5 141,-226.5 "/>
<text text-anchor="start" x="8" y="-211.3" font-family="Times,serif" font-size="14.00">id : Integer</text>
<text text-anchor="start" x="8" y="-196.3" font-family="Times,serif" font-size="14.00">access_count : Integer</text>
<text text-anchor="start" x="8" y="-181.3" font-family="Times,serif" font-size="14.00">name : String</text>
<text text-anchor="start" x="8" y="-166.3" font-family="Times,serif" font-size="14.00">description : String</text>
<text text-anchor="start" x="8" y="-151.3" font-family="Times,serif" font-size="14.00">other_details : String</text>
</a>
</g>
</g>
<!-- FunctionalArea&#45;&gt;Facility -->
<g id="edge2" class="edge"><title>FunctionalArea&#45;&gt;Facility</title>
<g id="a_edge2"><a xlink:title="FunctionalArea * &#160;&#45;&#45; * &#160;Facility">
<path fill="none" stroke="black" d="M57,-76.5312C59.0303,-94.423 61.9765,-120.387 64.599,-143.497"/>
</a>
</g>
<text text-anchor="middle" x="59.099" y="-132.297" font-family="Times,serif" font-size="14.00">* </text>
<text text-anchor="middle" x="51.5" y="-65.3312" font-family="Times,serif" font-size="14.00">* </text>
</g>
<!-- Facility&#45;&gt;FacilityType -->
<g id="edge3" class="edge"><title>Facility&#45;&gt;FacilityType</title>
<g id="a_edge3"><a xlink:title="Facility * &#160;&#45;&gt; 0..1 &#160;FacilityType">
<path fill="none" stroke="black" d="M70.5,-249.75C70.5,-258.843 70.5,-268.053 70.5,-276.4"/>
<polygon fill="black" stroke="black" points="70.5,-286.435 66.0001,-276.435 70.5,-281.435 70.5001,-276.435 70.5001,-276.435 70.5001,-276.435 70.5,-281.435 75.0001,-276.435 70.5,-286.435 70.5,-286.435"/>
</a>
</g>
<text text-anchor="middle" x="58" y="-275.235" font-family="Times,serif" font-size="14.00">0..1 </text>
<text text-anchor="middle" x="65" y="-253.55" font-family="Times,serif" font-size="14.00">* </text>
</g>
<!-- Role -->
<g id="node4" class="node"><title>Role</title>
<g id="a_node4"><a xlink:href="javascript:Action.selectClass(&quot;Role&quot;);" xlink:title="class Role
">
<polygon fill="none" stroke="black" points="257.5,-173.5 257.5,-219.5 345.5,-219.5 345.5,-173.5 257.5,-173.5"/>
<text text-anchor="middle" x="301.5" y="-204.3" font-family="Times,serif" font-size="14.00">Role</text>
<polyline fill="none" stroke="black" points="257.5,-196.5 345.5,-196.5 "/>
<text text-anchor="start" x="265.5" y="-181.3" font-family="Times,serif" font-size="14.00">code : String</text>
</a>
</g>
</g>
<!-- User -->
<g id="node5" class="node"><title>User</title>
<g id="a_node5"><a xlink:href="javascript:Action.selectClass(&quot;User&quot;);" xlink:title="class User
">
<polygon fill="none" stroke="black" points="316.5,-0.5 316.5,-106.5 450.5,-106.5 450.5,-0.5 316.5,-0.5"/>
<text text-anchor="middle" x="383.5" y="-91.3" font-family="Times,serif" font-size="14.00">User</text>
<polyline fill="none" stroke="black" points="316.5,-83.5 450.5,-83.5 "/>
<text text-anchor="start" x="324.5" y="-68.3" font-family="Times,serif" font-size="14.00">id : Integer</text>
<text text-anchor="start" x="324.5" y="-53.3" font-family="Times,serif" font-size="14.00">first_name : String</text>
<text text-anchor="start" x="324.5" y="-38.3" font-family="Times,serif" font-size="14.00">last_name : String</text>
<text text-anchor="start" x="324.5" y="-23.3" font-family="Times,serif" font-size="14.00">password : String</text>
<text text-anchor="start" x="324.5" y="-8.3" font-family="Times,serif" font-size="14.00">other_details : String</text>
</a>
</g>
</g>
<!-- User&#45;&gt;Role -->
<g id="edge4" class="edge"><title>User&#45;&gt;Role</title>
<g id="a_edge4"><a xlink:title="User * &#160;&#45;&gt; 0..1 &#160;Role">
<path fill="none" stroke="black" d="M319.529,-164.499 329.395,-147.534 341.882,-126.063 353.199,-106.603"/>
<polygon fill="black" stroke="black" points="314.341,-173.419 315.479,-162.512 316.855,-169.097 319.369,-164.775 319.369,-164.775 319.369,-164.775 316.855,-169.097 323.259,-167.037 314.341,-173.419 314.341,-173.419"/>
</a>
</g>
<text text-anchor="middle" x="301.841" y="-162.219" font-family="Times,serif" font-size="14.00">0..1 </text>
<text text-anchor="middle" x="347.699" y="-110.403" font-family="Times,serif" font-size="14.00">* </text>
</g>
<!-- RoleFacilityAccessRight -->
<g id="node6" class="node"><title>RoleFacilityAccessRight</title>
<g id="a_node6"><a xlink:href="javascript:Action.selectClass(&quot;RoleFacilityAccessRight&quot;);" xlink:title="class RoleFacilityAccessRight
">
<polygon fill="none" stroke="black" points="142.5,-35.5 142.5,-71.5 298.5,-71.5 298.5,-35.5 142.5,-35.5"/>
<text text-anchor="middle" x="220.5" y="-49.8" font-family="Times,serif" font-size="14.00">RoleFacilityAccessRight</text>
</a>
</g>
</g>
<!-- RoleFacilityAccessRight&#45;&gt;Facility -->
<g id="edge5" class="edge"><title>RoleFacilityAccessRight&#45;&gt;Facility</title>
<g id="a_edge5"><a xlink:title="RoleFacilityAccessRight * &#160;&#45;&#45; 1 &#160;Facility">
<path fill="none" stroke="black" d="M126.126,-143.211 153.05,-117.903 183.55,-89.2333 202.406,-71.5079"/>
</a>
</g>
<text text-anchor="middle" x="120.626" y="-132.011" font-family="Times,serif" font-size="14.00">1 </text>
<text text-anchor="middle" x="196.906" y="-75.3079" font-family="Times,serif" font-size="14.00">* </text>
</g>
<!-- RoleFacilityAccessRight&#45;&gt;Role -->
<g id="edge6" class="edge"><title>RoleFacilityAccessRight&#45;&gt;Role</title>
<g id="a_edge6"><a xlink:title="RoleFacilityAccessRight * &#160;&#45;&#45; 1 &#160;Role">
<path fill="none" stroke="black" d="M230.27,-71.5079C244.913,-96.9973 272.557,-145.118 288.764,-173.331"/>
</a>
</g>
<text text-anchor="middle" x="283.264" y="-162.131" font-family="Times,serif" font-size="14.00">1 </text>
<text text-anchor="middle" x="224.77" y="-75.3079" font-family="Times,serif" font-size="14.00">* </text>
</g>
</g>
</svg>
