<?xml version="1.0" encoding="UTF-8" standalone="no"?>
<!DOCTYPE svg PUBLIC "-//W3C//DTD SVG 1.1//EN"
 "http://www.w3.org/Graphics/SVG/1.1/DTD/svg11.dtd">
<!-- Generated by graphviz version 2.39.20140502.0445 (20140502.0445)
 -->
<!-- Title: AccessControl2 Pages: 1 -->
<svg width="455pt" height="304pt"
 viewBox="0.00 0.00 455.15 304.00" xmlns="http://www.w3.org/2000/svg" xmlns:xlink="http://www.w3.org/1999/xlink">
<g id="graph0" class="graph" transform="scale(1 1) rotate(0) translate(4 300)">
<title>AccessControl2</title>
<polygon fill="white" stroke="none" points="-4,4 -4,-300 451.155,-300 451.155,4 -4,4"/>
<!-- User -->
<g id="node1" class="node"><title>User</title>
<g id="a_node1"><a xlink:href="javascript:Action.selectClass(&quot;User&quot;);" xlink:title="class User
User: a person with known identity and authorization &quot;correct access right&quot; to enter specific access zone
User Name: a user name
">
<polygon fill="none" stroke="black" points="262.155,-83.5 262.155,-129.5 354.155,-129.5 354.155,-83.5 262.155,-83.5"/>
<text text-anchor="middle" x="308.155" y="-114.3" font-family="Times,serif" font-size="14.00">User</text>
<polyline fill="none" stroke="black" points="262.155,-106.5 354.155,-106.5 "/>
<text text-anchor="start" x="270.155" y="-91.3" font-family="Times,serif" font-size="14.00">name : String</text>
</a>
</g>
</g>
<!-- AccessPoint -->
<g id="node2" class="node"><title>AccessPoint</title>
<g id="a_node2"><a xlink:href="javascript:Action.selectClass(&quot;AccessPoint&quot;);" xlink:title="class AccessPoint
Access Point: each direction of passage through a door is considered as an access point.
">
<polygon fill="none" stroke="black" points="154.155,-166.5 154.155,-212.5 314.155,-212.5 314.155,-166.5 154.155,-166.5"/>
<text text-anchor="middle" x="234.155" y="-197.3" font-family="Times,serif" font-size="14.00">AccessPoint</text>
<polyline fill="none" stroke="black" points="154.155,-189.5 314.155,-189.5 "/>
<text text-anchor="start" x="162.155" y="-174.3" font-family="Times,serif" font-size="14.00">cardIdentification : String</text>
</a>
</g>
</g>
<!-- User&#45;&gt;AccessPoint -->
<g id="edge1" class="edge"><title>User&#45;&gt;AccessPoint</title>
<g id="a_edge1"><a xlink:title="User * mayEnterThrough &#45;&#45; * &#160;AccessPoint">
<path fill="none" stroke="black" d="M254.351,-166.393 264.789,-154.968 277.492,-141.063 287.934,-129.634"/>
</a>
</g>
<text text-anchor="middle" x="248.851" y="-155.193" font-family="Times,serif" font-size="14.00">* </text>
<text text-anchor="middle" x="230.934" y="-133.434" font-family="Times,serif" font-size="14.00">* mayEnterThrough</text>
</g>
<!-- AccessZone -->
<g id="node3" class="node"><title>AccessZone</title>
<g id="a_node3"><a xlink:href="javascript:Action.selectClass(&quot;AccessZone&quot;);" xlink:title="class AccessZone
Access Zone: a physical zone where a user is present, accessible through doors
">
<polygon fill="none" stroke="black" points="50.6548,-171.5 50.6548,-207.5 135.655,-207.5 135.655,-171.5 50.6548,-171.5"/>
<text text-anchor="middle" x="93.1548" y="-185.8" font-family="Times,serif" font-size="14.00">AccessZone</text>
</a>
</g>
</g>
<!-- User&#45;&gt;AccessZone -->
<g id="edge2" class="edge"><title>User&#45;&gt;AccessZone</title>
<g id="a_edge2"><a xlink:title="User * mayEnter &#45;&#45; * mayAccept AccessZone">
<path fill="none" stroke="black" d="M131.621,-171.415 136.16,-169.53 140.744,-167.686 145.155,-166 192.417,-147.937 205.714,-147.588 253.155,-130 256.057,-128.924 259.034,-127.791 262.029,-126.63"/>
</a>
</g>
<text text-anchor="middle" x="94.1212" y="-160.215" font-family="Times,serif" font-size="14.00">* mayAccept</text>
<text text-anchor="middle" x="294.529" y="-130.43" font-family="Times,serif" font-size="14.00">* mayEnter</text>
</g>
<!-- Card -->
<g id="node7" class="node"><title>Card</title>
<g id="a_node7"><a xlink:href="javascript:Action.selectClass(&quot;Card&quot;);" xlink:title="class Card
Magnetic stripe card holding a card code and a secrete personal identification number PIN entered by users
">
<polygon fill="none" stroke="black" points="350.155,-166.5 350.155,-212.5 444.155,-212.5 444.155,-166.5 350.155,-166.5"/>
<text text-anchor="middle" x="397.155" y="-197.3" font-family="Times,serif" font-size="14.00">Card</text>
<polyline fill="none" stroke="black" points="350.155,-189.5 444.155,-189.5 "/>
<text text-anchor="start" x="358.155" y="-174.3" font-family="Times,serif" font-size="14.00">pin : Integer[]</text>
</a>
</g>
</g>
<!-- User&#45;&gt;Card -->
<g id="edge3" class="edge"><title>User&#45;&gt;Card</title>
<g id="a_edge3"><a xlink:title="User 1 owns &#45;&#45; 0..1 &#160;Card">
<path fill="none" stroke="black" d="M332.474,-129.634C345.032,-141.063 360.311,-154.968 372.865,-166.393"/>
</a>
</g>
<text text-anchor="middle" x="360.365" y="-155.193" font-family="Times,serif" font-size="14.00">0..1 </text>
<text text-anchor="middle" x="352.974" y="-133.434" font-family="Times,serif" font-size="14.00">1 owns</text>
</g>
<!-- AccessPoint&#45;&gt;AccessPoint -->
<g id="edge5" class="edge"><title>AccessPoint&#45;&gt;AccessPoint</title>
<g id="a_edge5"><a xlink:title="AccessPoint 0..1 Autorizer &#45;&gt; * &#160;AccessPoint">
<path fill="none" stroke="black" d="M314.514,-175.942C325.121,-178.254 332.155,-182.773 332.155,-189.5 332.155,-193.914 329.125,-197.378 324.045,-199.891"/>
<polygon fill="black" stroke="black" points="314.514,-203.058 322.585,-195.634 319.259,-201.482 324.004,-199.905 324.004,-199.905 324.004,-199.905 319.259,-201.482 325.423,-204.175 314.514,-203.058 314.514,-203.058"/>
</a>
</g>
<text text-anchor="middle" x="320.014" y="-206.858" font-family="Times,serif" font-size="14.00">* </text>
<text text-anchor="middle" x="314.514" y="-179.742" font-family="Times,serif" font-size="14.00">0..1 Autorizer</text>
</g>
<!-- Door -->
<g id="node5" class="node"><title>Door</title>
<g id="a_node5"><a xlink:href="javascript:Action.selectClass(&quot;Door&quot;);" xlink:title="class Door
Door: controlled passage from one access zone to another
">
<polygon fill="none" stroke="black" points="115.155,-249.5 115.155,-295.5 211.155,-295.5 211.155,-249.5 115.155,-249.5"/>
<text text-anchor="middle" x="163.155" y="-280.3" font-family="Times,serif" font-size="14.00">Door</text>
<polyline fill="none" stroke="black" points="115.155,-272.5 211.155,-272.5 "/>
<text text-anchor="start" x="123.155" y="-257.3" font-family="Times,serif" font-size="14.00">lock : boolean</text>
</a>
</g>
</g>
<!-- AccessPoint&#45;&gt;Door -->
<g id="edge4" class="edge"><title>AccessPoint&#45;&gt;Door</title>
<g id="a_edge4"><a xlink:title="AccessPoint 1 controls &#45;&#45; 1 &#160;Door">
<path fill="none" stroke="black" d="M182.532,-249.393 192.547,-237.968 204.736,-224.063 214.754,-212.634"/>
</a>
</g>
<text text-anchor="middle" x="177.032" y="-238.193" font-family="Times,serif" font-size="14.00">1 </text>
<text text-anchor="middle" x="186.754" y="-216.434" font-family="Times,serif" font-size="14.00">1 controls</text>
</g>
<!-- AccessZone&#45;&gt;Door -->
<g id="edge6" class="edge"><title>AccessZone&#45;&gt;Door</title>
<g id="a_edge6"><a xlink:title="AccessZone 1 accessedThrough &#45;&#45; 1..* &#160;Door">
<path fill="none" stroke="black" d="M108,-207.678C118.515,-219.845 132.711,-236.272 144.067,-249.413"/>
</a>
</g>
<text text-anchor="middle" x="131.567" y="-238.213" font-family="Times,serif" font-size="14.00">1..* </text>
<text text-anchor="middle" x="54" y="-211.478" font-family="Times,serif" font-size="14.00">1 accessedThrough</text>
</g>
<!-- Authorizer -->
<g id="node4" class="node"><title>Authorizer</title>
<g id="a_node4"><a xlink:href="javascript:Action.selectClass(&quot;Authorizer&quot;);" xlink:title="class Authorizer
Authentication: to establish the identity of the user
Authorization: to establish the right of a user to enter access zone
">
<polygon fill="none" stroke="black" points="130.155,-83.5 130.155,-129.5 244.155,-129.5 244.155,-83.5 130.155,-83.5"/>
<text text-anchor="middle" x="187.155" y="-114.3" font-family="Times,serif" font-size="14.00">Authorizer</text>
<polyline fill="none" stroke="black" points="130.155,-106.5 244.155,-106.5 "/>
<text text-anchor="start" x="138.155" y="-91.3" font-family="Times,serif" font-size="14.00">isValid : Boolean</text>
</a>
</g>
</g>
<!-- Authorizer&#45;&gt;AccessPoint -->
<g id="edge7" class="edge"><title>Authorizer&#45;&gt;AccessPoint</title>
<g id="a_edge7"><a xlink:title="Authorizer 1 controls &#45;&#45; * &#160;AccessPoint">
<path fill="none" stroke="black" d="M199.998,-129.634C206.63,-141.063 214.698,-154.968 221.327,-166.393"/>
</a>
</g>
<text text-anchor="middle" x="215.827" y="-155.193" font-family="Times,serif" font-size="14.00">* </text>
<text text-anchor="middle" x="171.998" y="-133.434" font-family="Times,serif" font-size="14.00">1 controls</text>
</g>
<!-- Authorizer&#45;&gt;AccessZone -->
<g id="edge8" class="edge"><title>Authorizer&#45;&gt;AccessZone</title>
<g id="a_edge8"><a xlink:title="Authorizer 1 hasKnowledge &#45;&#45; * &#160;AccessZone">
<path fill="none" stroke="black" d="M113.147,-171.272 127.245,-159.125 146.248,-142.749 161.469,-129.634"/>
</a>
</g>
<text text-anchor="middle" x="107.647" y="-175.072" font-family="Times,serif" font-size="14.00">* </text>
<text text-anchor="middle" x="114.469" y="-133.434" font-family="Times,serif" font-size="14.00">1 hasKnowledge</text>
</g>
<!-- ACSystem -->
<g id="node6" class="node"><title>ACSystem</title>
<g id="a_node6"><a xlink:href="javascript:Action.selectClass(&quot;ACSystem&quot;);" xlink:title="class ACSystem
">
<polygon fill="none" stroke="black" points="32.1548,-0.5 32.1548,-46.5 154.155,-46.5 154.155,-0.5 32.1548,-0.5"/>
<text text-anchor="middle" x="93.1548" y="-31.3" font-family="Times,serif" font-size="14.00">ACSystem</text>
<polyline fill="none" stroke="black" points="32.1548,-23.5 154.155,-23.5 "/>
<text text-anchor="start" x="40.1548" y="-8.3" font-family="Times,serif" font-size="14.00">doorTime : Integer</text>
</a>
</g>
</g>
<!-- ACSystem&#45;&gt;User -->
<g id="edge9" class="edge"><title>ACSystem&#45;&gt;User</title>
<g id="a_edge9"><a xlink:title="ACSystem 0..1 mayAcceptAndValidate &#45;&#45; 1..* mayUse User">
<path fill="none" stroke="black" d="M154.52,-46.3226C184.382,-57.0985 220.747,-70.4518 253.155,-83 256.041,-84.1175 259.006,-85.2821 261.992,-86.4674"/>
</a>
</g>
<text text-anchor="middle" x="226.492" y="-75.2674" font-family="Times,serif" font-size="14.00">1..* mayUse</text>
<text text-anchor="middle" x="234.52" y="-35.1226" font-family="Times,serif" font-size="14.00">0..1 mayAcceptAndValidate</text>
</g>
<!-- ACSystem&#45;&gt;AccessZone -->
<g id="edge10" class="edge"><title>ACSystem&#45;&gt;AccessZone</title>
<g id="a_edge10"><a xlink:title="ACSystem 1 exitControls &#45;&#45; 1 exiting AccessZone">
<path fill="none" stroke="black" d="M88.3663,-46.6178C85.61,-79.6669 85.7586,-141.251 88.8122,-171.223"/>
</a>
</g>
<text text-anchor="middle" x="63.8122" y="-175.023" font-family="Times,serif" font-size="14.00">1 exiting</text>
<text text-anchor="middle" x="48.3663" y="-50.4178" font-family="Times,serif" font-size="14.00">1 exitControls</text>
</g>
<!-- ACSystem&#45;&gt;AccessZone -->
<g id="edge11" class="edge"><title>ACSystem&#45;&gt;AccessZone</title>
<g id="a_edge11"><a xlink:title="ACSystem 1 entryControls &#45;&#45; 1 enteriing AccessZone">
<path fill="none" stroke="black" d="M97.4974,-171.223 100.551,-141.251 100.7,-79.6669 97.9433,-46.6178"/>
</a>
</g>
<text text-anchor="middle" x="127.997" y="-175.023" font-family="Times,serif" font-size="14.00">1 enteriing</text>
<text text-anchor="middle" x="141.943" y="-50.4178" font-family="Times,serif" font-size="14.00">1 entryControls</text>
</g>
<!-- Code -->
<g id="node8" class="node"><title>Code</title>
<g id="a_node8"><a xlink:href="javascript:Action.selectClass(&quot;Code&quot;);" xlink:title="class Code
Card code: a unique identification of a card stored in a machine&#45;readable form on the card
">
<polygon fill="none" stroke="black" points="347.155,-249.5 347.155,-295.5 447.155,-295.5 447.155,-249.5 347.155,-249.5"/>
<text text-anchor="middle" x="397.155" y="-280.3" font-family="Times,serif" font-size="14.00">Code</text>
<polyline fill="none" stroke="black" points="347.155,-272.5 447.155,-272.5 "/>
<text text-anchor="start" x="355.155" y="-257.3" font-family="Times,serif" font-size="14.00">userID : String</text>
</a>
</g>
</g>
<!-- Card&#45;&gt;Code -->
<g id="edge12" class="edge"><title>Card&#45;&gt;Code</title>
<g id="a_edge12"><a xlink:title="Card 1 &#160;&#45;&#45; 1 cardId Code">
<path fill="none" stroke="black" d="M397.155,-212.634C397.155,-224.063 397.155,-237.968 397.155,-249.393"/>
</a>
</g>
<text text-anchor="middle" x="373.655" y="-238.193" font-family="Times,serif" font-size="14.00">1 cardId</text>
<text text-anchor="middle" x="391.655" y="-216.434" font-family="Times,serif" font-size="14.00">1 </text>
</g>
</g>
</svg>
