<?xml version="1.0" encoding="UTF-8" standalone="no"?>
<!DOCTYPE svg PUBLIC "-//W3C//DTD SVG 1.1//EN"
 "http://www.w3.org/Graphics/SVG/1.1/DTD/svg11.dtd">
<!-- Generated by graphviz version 2.30.0 (20130114.0340)
 -->
<!-- Title: model Pages: 1 -->
<svg width="399pt" height="284pt"
 viewBox="0.00 0.00 455.51 324.00" xmlns="http://www.w3.org/2000/svg" xmlns:xlink="http://www.w3.org/1999/xlink">
<g id="graph0" class="graph" transform="scale(0.875 0.875) rotate(0) translate(4 320)">
<title>model</title>
<polygon fill="white" stroke="white" points="-4,5 -4,-320 452.51,-320 452.51,5 -4,5"/>
<!-- User -->
<g id="node1" class="node"><title>User</title>
<g id="a_node1"><a xlink:href="javascript:Action.selectClass(&quot;User&quot;);" xlink:title="class User
User: a person with known identity and authorization &quot;correct access right&quot; to enter specific access zone
User Name: a user name
">
<polygon fill="none" stroke="black" points="262.792,-89.2 262.792,-138.8 354.227,-138.8 354.227,-89.2 262.792,-89.2"/>
<text text-anchor="middle" x="308.51" y="-122.2" font-family="Times,serif" font-size="14.00">User</text>
<polyline fill="none" stroke="black" points="262.792,-114 354.227,-114 "/>
<text text-anchor="start" x="270.792" y="-97.4" font-family="Times,serif" font-size="14.00">name : String</text>
</a>
</g>
</g>
<!-- AccessPoint -->
<g id="node2" class="node"><title>AccessPoint</title>
<g id="a_node2"><a xlink:href="javascript:Action.selectClass(&quot;AccessPoint&quot;);" xlink:title="class AccessPoint
Access Point: each direction of passage through a door is considered as an access point.
">
<polygon fill="none" stroke="black" points="154.198,-177.2 154.198,-226.8 314.821,-226.8 314.821,-177.2 154.198,-177.2"/>
<text text-anchor="middle" x="234.51" y="-210.2" font-family="Times,serif" font-size="14.00">AccessPoint</text>
<polyline fill="none" stroke="black" points="154.198,-202 314.821,-202 "/>
<text text-anchor="start" x="162.198" y="-185.4" font-family="Times,serif" font-size="14.00">cardIdentification : String</text>
</a>
</g>
</g>
<!-- User&#45;&gt;AccessPoint -->
<g id="edge1" class="edge"><title>User&#45;&gt;AccessPoint</title>
<path fill="none" stroke="black" d="M287.897,-138.956C277.633,-150.884 265.261,-165.262 255.012,-177.173"/>
<text text-anchor="middle" x="242.762" y="-164.573" font-family="Times,serif" font-size="14.00">1..* </text>
<text text-anchor="middle" x="351.465" y="-143.156" font-family="Times,serif" font-size="14.00">1..* mayEnterThrough</text>
</g>
<!-- AccessZone -->
<g id="node3" class="node"><title>AccessZone</title>
<g id="a_node3"><a xlink:href="javascript:Action.selectClass(&quot;AccessZone&quot;);" xlink:title="class AccessZone
Access Zone: a physical zone where a user is present, accessible through doors
">
<polygon fill="none" stroke="black" points="51.3065,-184 51.3065,-220 135.713,-220 135.713,-184 51.3065,-184"/>
<text text-anchor="middle" x="93.5099" y="-197.9" font-family="Times,serif" font-size="14.00">AccessZone</text>
</a>
</g>
</g>
<!-- User&#45;&gt;AccessZone -->
<g id="edge2" class="edge"><title>User&#45;&gt;AccessZone</title>
<path fill="none" stroke="black" d="M262.512,-135.952C259.142,-137.358 255.783,-138.722 252.51,-140 205.771,-158.248 191.987,-157.094 145.51,-176 139.572,-178.416 133.352,-181.186 127.364,-183.983"/>
<text text-anchor="middle" x="83.2409" y="-171.383" font-family="Times,serif" font-size="14.00">1..* mayAccept</text>
<text text-anchor="middle" x="223.05" y="-140.152" font-family="Times,serif" font-size="14.00">1..* mayEnter</text>
</g>
<!-- Card -->
<g id="node7" class="node"><title>Card</title>
<g id="a_node7"><a xlink:href="javascript:Action.selectClass(&quot;Card&quot;);" xlink:title="class Card
Magnetic stripe card holding a card code and a secrete personal identification number PIN entered by users
">
<polygon fill="none" stroke="black" points="350.638,-177.2 350.638,-226.8 444.382,-226.8 444.382,-177.2 350.638,-177.2"/>
<text text-anchor="middle" x="397.51" y="-210.2" font-family="Times,serif" font-size="14.00">Card</text>
<polyline fill="none" stroke="black" points="350.638,-202 444.382,-202 "/>
<text text-anchor="start" x="358.638" y="-185.4" font-family="Times,serif" font-size="14.00">pin : Integer[]</text>
</a>
</g>
</g>
<!-- User&#45;&gt;Card -->
<g id="edge3" class="edge"><title>User&#45;&gt;Card</title>
<path fill="none" stroke="black" d="M333.301,-138.956C345.646,-150.884 360.525,-165.262 372.851,-177.173"/>
<text text-anchor="middle" x="360.601" y="-164.573" font-family="Times,serif" font-size="14.00">0..1 </text>
<text text-anchor="middle" x="353.327" y="-126.356" font-family="Times,serif" font-size="14.00">1 owns</text>
</g>
<!-- Door -->
<g id="node5" class="node"><title>Door</title>
<g id="a_node5"><a xlink:href="javascript:Action.selectClass(&quot;Door&quot;);" xlink:title="class Door
Door: controlled passage from one access zone to another
">
<polygon fill="none" stroke="black" points="115.852,-265.2 115.852,-314.8 211.168,-314.8 211.168,-265.2 115.852,-265.2"/>
<text text-anchor="middle" x="163.51" y="-298.2" font-family="Times,serif" font-size="14.00">Door</text>
<polyline fill="none" stroke="black" points="115.852,-290 211.168,-290 "/>
<text text-anchor="start" x="123.852" y="-273.4" font-family="Times,serif" font-size="14.00">lock : boolean</text>
</a>
</g>
</g>
<!-- AccessPoint&#45;&gt;Door -->
<g id="edge4" class="edge"><title>AccessPoint&#45;&gt;Door</title>
<path fill="none" stroke="black" d="M214.732,-226.956C204.885,-238.884 193.014,-253.262 183.181,-265.173"/>
<text text-anchor="middle" x="177.931" y="-252.573" font-family="Times,serif" font-size="14.00">1 </text>
<text text-anchor="middle" x="242.533" y="-231.156" font-family="Times,serif" font-size="14.00">1 controls</text>
</g>
<!-- AccessPoint&#45;&gt;AccessPoint -->
<g id="edge5" class="edge"><title>AccessPoint&#45;&gt;AccessPoint</title>
<path fill="none" stroke="black" d="M314.869,-187.45C325.476,-189.931 332.51,-194.781 332.51,-202 332.51,-206.737 329.48,-210.455 324.4,-213.152"/>
<polygon fill="black" stroke="black" points="314.869,-216.55 322.777,-208.953 319.579,-214.871 324.289,-213.191 324.289,-213.191 324.289,-213.191 319.579,-214.871 325.8,-217.43 314.869,-216.55 314.869,-216.55"/>
<text text-anchor="middle" x="320.119" y="-220.75" font-family="Times,serif" font-size="14.00">* </text>
<text text-anchor="middle" x="353.939" y="-191.65" font-family="Times,serif" font-size="14.00">0..1 Autorizer</text>
</g>
<!-- AccessZone&#45;&gt;Door -->
<g id="edge6" class="edge"><title>AccessZone&#45;&gt;Door</title>
<path fill="none" stroke="black" d="M107.675,-220.403C118.142,-233.263 132.517,-250.924 144.06,-265.105"/>
<text text-anchor="middle" x="131.81" y="-252.505" font-family="Times,serif" font-size="14.00">1..* </text>
<text text-anchor="middle" x="53.8377" y="-224.603" font-family="Times,serif" font-size="14.00">1 accessedThrough</text>
</g>
<!-- Authorizer -->
<g id="node4" class="node"><title>Authorizer</title>
<g id="a_node4"><a xlink:href="javascript:Action.selectClass(&quot;Authorizer&quot;);" xlink:title="class Authorizer
Authentication: to establish the identity of the user
Authorization: to establish the right of a user to enter access zone
">
<polygon fill="none" stroke="black" points="130.518,-89.2 130.518,-138.8 244.502,-138.8 244.502,-89.2 130.518,-89.2"/>
<text text-anchor="middle" x="187.51" y="-122.2" font-family="Times,serif" font-size="14.00">Authorizer</text>
<polyline fill="none" stroke="black" points="130.518,-114 244.502,-114 "/>
<text text-anchor="start" x="138.518" y="-97.4" font-family="Times,serif" font-size="14.00">isValid : Boolean</text>
</a>
</g>
</g>
<!-- Authorizer&#45;&gt;AccessPoint -->
<g id="edge7" class="edge"><title>Authorizer&#45;&gt;AccessPoint</title>
<path fill="none" stroke="black" d="M200.602,-138.956C207.121,-150.884 214.979,-165.262 221.488,-177.173"/>
<text text-anchor="middle" x="216.238" y="-164.573" font-family="Times,serif" font-size="14.00">* </text>
<text text-anchor="middle" x="172.801" y="-143.156" font-family="Times,serif" font-size="14.00">1 controls</text>
</g>
<!-- Authorizer&#45;&gt;AccessZone -->
<g id="edge8" class="edge"><title>Authorizer&#45;&gt;AccessZone</title>
<path fill="none" stroke="black" d="M161.326,-138.956C145.68,-153.27 126.179,-171.112 112.109,-183.983"/>
<text text-anchor="middle" x="106.859" y="-171.383" font-family="Times,serif" font-size="14.00">* </text>
<text text-anchor="middle" x="114.48" y="-143.156" font-family="Times,serif" font-size="14.00">1 hasKnowledge</text>
</g>
<!-- ACSystem -->
<g id="node6" class="node"><title>ACSystem</title>
<g id="a_node6"><a xlink:href="javascript:Action.selectClass(&quot;ACSystem&quot;);" xlink:title="class ACSystem
">
<polygon fill="none" stroke="black" points="32.6396,-1.2 32.6396,-50.8 154.38,-50.8 154.38,-1.2 32.6396,-1.2"/>
<text text-anchor="middle" x="93.5099" y="-34.2" font-family="Times,serif" font-size="14.00">ACSystem</text>
<polyline fill="none" stroke="black" points="32.6396,-26 154.38,-26 "/>
<text text-anchor="start" x="40.6396" y="-9.4" font-family="Times,serif" font-size="14.00">doorTime : Integer</text>
</a>
</g>
</g>
<!-- ACSystem&#45;&gt;User -->
<g id="edge9" class="edge"><title>ACSystem&#45;&gt;User</title>
<path fill="none" stroke="black" d="M154.592,-49.5593C184.291,-60.7503 220.42,-74.6926 252.51,-88 255.854,-89.3867 259.297,-90.846 262.755,-92.3342"/>
<text text-anchor="middle" x="227.569" y="-79.7342" font-family="Times,serif" font-size="14.00">1..* mayUse</text>
<text text-anchor="middle" x="234.479" y="-36.9593" font-family="Times,serif" font-size="14.00">0..1 mayAcceptAndValidate</text>
</g>
<!-- ACSystem&#45;&gt;AccessZone -->
<g id="edge10" class="edge"><title>ACSystem&#45;&gt;AccessZone</title>
<path fill="none" stroke="black" d="M88.693,-50.8291C85.9347,-86.3836 86.1281,-152.478 89.2733,-183.749"/>
<text text-anchor="middle" x="64.5801" y="-187.949" font-family="Times,serif" font-size="14.00">1 exiting</text>
<text text-anchor="middle" x="48.8336" y="-55.0291" font-family="Times,serif" font-size="14.00">1 exitControls</text>
</g>
<!-- ACSystem&#45;&gt;AccessZone -->
<g id="edge11" class="edge"><title>ACSystem&#45;&gt;AccessZone</title>
<path fill="none" stroke="black" d="M98.3267,-50.8291C101.085,-86.3836 100.892,-152.478 97.7464,-183.749"/>
<text text-anchor="middle" x="127.877" y="-187.949" font-family="Times,serif" font-size="14.00">1 enteriing</text>
<text text-anchor="middle" x="142.071" y="-55.0291" font-family="Times,serif" font-size="14.00">1 entryControls</text>
</g>
<!-- Code -->
<g id="node8" class="node"><title>Code</title>
<g id="a_node8"><a xlink:href="javascript:Action.selectClass(&quot;Code&quot;);" xlink:title="class Code
Card code: a unique identification of a card stored in a machine&#45;readable form on the card
">
<polygon fill="none" stroke="black" points="347.909,-265.2 347.909,-314.8 447.111,-314.8 447.111,-265.2 347.909,-265.2"/>
<text text-anchor="middle" x="397.51" y="-298.2" font-family="Times,serif" font-size="14.00">Code</text>
<polyline fill="none" stroke="black" points="347.909,-290 447.111,-290 "/>
<text text-anchor="start" x="355.909" y="-273.4" font-family="Times,serif" font-size="14.00">userID : String</text>
</a>
</g>
</g>
<!-- Card&#45;&gt;Code -->
<g id="edge12" class="edge"><title>Card&#45;&gt;Code</title>
<path fill="none" stroke="black" d="M397.51,-226.956C397.51,-238.884 397.51,-253.262 397.51,-265.173"/>
<text text-anchor="middle" x="374.385" y="-252.573" font-family="Times,serif" font-size="14.00">1 cardId</text>
<text text-anchor="middle" x="392.26" y="-231.156" font-family="Times,serif" font-size="14.00">1 </text>
</g>
</g>
</svg>
