<?xml version="1.0" encoding="UTF-8" standalone="no"?>
<!DOCTYPE svg PUBLIC "-//W3C//DTD SVG 1.1//EN"
 "http://www.w3.org/Graphics/SVG/1.1/DTD/svg11.dtd">
<!-- Generated by graphviz version 2.29.20121108.1600 (20121108.1600)
 -->
<!-- Title: Accidents Pages: 1 -->
<svg width="484pt" height="280pt"
 viewBox="0.00 0.00 484.00 280.00" xmlns="http://www.w3.org/2000/svg" xmlns:xlink="http://www.w3.org/1999/xlink">
<g id="graph0" class="graph" transform="scale(1 1) rotate(0) translate(4 276)">
<title>Accidents</title>
<polygon fill="white" stroke="white" points="-4,5 -4,-276 481,-276 481,5 -4,5"/>
<!-- AccidentType -->
<g id="node1" class="node"><title>AccidentType</title>
<g id="a_node1"><a xlink:href="javascript:Action.selectClass(&quot;AccidentType&quot;);" xlink:title="class AccidentType
">
<polygon fill="none" stroke="black" points="212.338,-179.8 212.338,-246.2 335.662,-246.2 335.662,-179.8 212.338,-179.8"/>
<text text-anchor="middle" x="274" y="-228.2" font-family="Times,serif" font-size="14.00">AccidentType</text>
<polyline fill="none" stroke="black" points="212.338,-221.4 335.662,-221.4 "/>
<text text-anchor="start" x="220.338" y="-203.4" font-family="Times,serif" font-size="14.00">code : String</text>
<text text-anchor="start" x="220.338" y="-186.6" font-family="Times,serif" font-size="14.00">description : String</text>
</a>
</g>
</g>
<!-- SeriousnessLevel -->
<g id="node2" class="node"><title>SeriousnessLevel</title>
<g id="a_node2"><a xlink:href="javascript:Action.selectClass(&quot;SeriousnessLevel&quot;);" xlink:title="class SeriousnessLevel
">
<polygon fill="none" stroke="black" points="353.338,-179.8 353.338,-246.2 476.662,-246.2 476.662,-179.8 353.338,-179.8"/>
<text text-anchor="middle" x="415" y="-228.2" font-family="Times,serif" font-size="14.00">SeriousnessLevel</text>
<polyline fill="none" stroke="black" points="353.338,-221.4 476.662,-221.4 "/>
<text text-anchor="start" x="361.338" y="-203.4" font-family="Times,serif" font-size="14.00">code : String</text>
<text text-anchor="start" x="361.338" y="-186.6" font-family="Times,serif" font-size="14.00">description : String</text>
</a>
</g>
</g>
<!-- Employee -->
<g id="node3" class="node"><title>Employee</title>
<g id="a_node3"><a xlink:href="javascript:Action.selectClass(&quot;Employee&quot;);" xlink:title="class Employee
">
<polygon fill="none" stroke="black" points="-0.424316,-154.6 -0.424316,-271.4 194.424,-271.4 194.424,-154.6 -0.424316,-154.6"/>
<text text-anchor="middle" x="97" y="-253.4" font-family="Times,serif" font-size="14.00">Employee</text>
<polyline fill="none" stroke="black" points="-0.424316,-246.6 194.424,-246.6 "/>
<text text-anchor="start" x="7.57568" y="-228.6" font-family="Times,serif" font-size="14.00">id : String</text>
<text text-anchor="start" x="7.57568" y="-211.8" font-family="Times,serif" font-size="14.00">department : String</text>
<text text-anchor="start" x="7.57568" y="-195" font-family="Times,serif" font-size="14.00">name : String</text>
<text text-anchor="start" x="7.57568" y="-178.2" font-family="Times,serif" font-size="14.00">supervisor : String</text>
<text text-anchor="start" x="7.57568" y="-161.4" font-family="Times,serif" font-size="14.00">other_employee_details : String</text>
</a>
</g>
</g>
<!-- Accident -->
<g id="node4" class="node"><title>Accident</title>
<g id="a_node4"><a xlink:href="javascript:Action.selectClass(&quot;Accident&quot;);" xlink:title="class Accident
Positioning
">
<polygon fill="none" stroke="black" points="207.286,-0.6 207.286,-117.4 340.714,-117.4 340.714,-0.6 207.286,-0.6"/>
<text text-anchor="middle" x="274" y="-99.4" font-family="Times,serif" font-size="14.00">Accident</text>
<polyline fill="none" stroke="black" points="207.286,-92.6 340.714,-92.6 "/>
<text text-anchor="start" x="215.286" y="-74.6" font-family="Times,serif" font-size="14.00">id : String</text>
<text text-anchor="start" x="215.286" y="-57.8" font-family="Times,serif" font-size="14.00">description : String</text>
<text text-anchor="start" x="215.286" y="-41" font-family="Times,serif" font-size="14.00">date : Date</text>
<text text-anchor="start" x="215.286" y="-24.2" font-family="Times,serif" font-size="14.00">time : Time</text>
<text text-anchor="start" x="215.286" y="-7.4" font-family="Times,serif" font-size="14.00">other_details : String</text>
</a>
</g>
</g>
<!-- Accident&#45;&gt;Employee -->
<g id="edge1" class="edge"><title>Accident&#45;&gt;Employee</title>
<path fill="none" stroke="black" d="M207.084,-117.465C192.987,-129.571 178.111,-142.345 164.011,-154.454"/>
<text text-anchor="middle" x="158.761" y="-140.454" font-family="Times,serif" font-size="14.00">1 </text>
<text text-anchor="middle" x="201.834" y="-103.465" font-family="Times,serif" font-size="14.00">* </text>
</g>
<!-- Accident&#45;&gt;AccidentType -->
<g id="edge2" class="edge"><title>Accident&#45;&gt;AccidentType</title>
<path fill="none" stroke="black" d="M274,-117.465C274,-134.706 274,-153.302 274,-169.402"/>
<polygon fill="black" stroke="black" points="274,-179.582 269.5,-169.581 274,-174.582 274,-169.582 274,-169.582 274,-169.582 274,-174.582 278.5,-169.582 274,-179.582 274,-179.582"/>
<text text-anchor="middle" x="268.75" y="-165.582" font-family="Times,serif" font-size="14.00">1 </text>
<text text-anchor="middle" x="268.75" y="-120.265" font-family="Times,serif" font-size="14.00">* </text>
</g>
<!-- Accident&#45;&gt;SeriousnessLevel -->
<g id="edge3" class="edge"><title>Accident&#45;&gt;SeriousnessLevel</title>
<path fill="none" stroke="black" d="M327.306,-117.465C344.213,-135.691 362.525,-155.431 378.021,-172.136"/>
<polygon fill="black" stroke="black" points="384.928,-179.582 374.828,-175.311 381.527,-175.916 378.127,-172.25 378.127,-172.25 378.127,-172.25 381.527,-175.916 381.426,-169.19 384.928,-179.582 384.928,-179.582"/>
<text text-anchor="middle" x="379.678" y="-165.582" font-family="Times,serif" font-size="14.00">1 </text>
<text text-anchor="middle" x="322.056" y="-120.265" font-family="Times,serif" font-size="14.00">* </text>
</g>
</g>
</svg>
