<?xml version="1.0" encoding="UTF-8" standalone="no"?>
<!DOCTYPE svg PUBLIC "-//W3C//DTD SVG 1.1//EN"
 "http://www.w3.org/Graphics/SVG/1.1/DTD/svg11.dtd">
<!-- Generated by graphviz version 2.29.20121108.1600 (20121108.1600)
 -->
<!-- Title: Accommodations Pages: 1 -->
<svg width="678pt" height="468pt"
 viewBox="0.00 0.00 678.00 468.00" xmlns="http://www.w3.org/2000/svg" xmlns:xlink="http://www.w3.org/1999/xlink">
<g id="graph0" class="graph" transform="scale(1 1) rotate(0) translate(4 464)">
<title>Accommodations</title>
<polygon fill="white" stroke="white" points="-4,5 -4,-464 675,-464 675,5 -4,5"/>
<!-- UnitFacility -->
<g id="node1" class="node"><title>UnitFacility</title>
<g id="a_node1"><a xlink:href="javascript:Action.selectClass(&quot;UnitFacility&quot;);" xlink:title="class UnitFacility
">
<polygon fill="none" stroke="black" points="-0.875977,-17.8 -0.875977,-84.2 204.876,-84.2 204.876,-17.8 -0.875977,-17.8"/>
<text text-anchor="middle" x="102" y="-66.2" font-family="Times,serif" font-size="14.00">UnitFacility</text>
<polyline fill="none" stroke="black" points="-0.875977,-59.4 204.876,-59.4 "/>
<text text-anchor="start" x="7.12402" y="-41.4" font-family="Times,serif" font-size="14.00">unit_attribute_code : String</text>
<text text-anchor="start" x="7.12402" y="-24.6" font-family="Times,serif" font-size="14.00">unit_attribute_description : String</text>
</a>
</g>
</g>
<!-- Unit -->
<g id="node3" class="node"><title>Unit</title>
<g id="a_node3"><a xlink:href="javascript:Action.selectClass(&quot;Unit&quot;);" xlink:title="class Unit
">
<polygon fill="none" stroke="black" points="203.896,-138.6 203.896,-255.4 366.104,-255.4 366.104,-138.6 203.896,-138.6"/>
<text text-anchor="middle" x="285" y="-237.4" font-family="Times,serif" font-size="14.00">Unit</text>
<polyline fill="none" stroke="black" points="203.896,-230.6 366.104,-230.6 "/>
<text text-anchor="start" x="211.896" y="-212.6" font-family="Times,serif" font-size="14.00">id : String</text>
<text text-anchor="start" x="211.896" y="-195.8" font-family="Times,serif" font-size="14.00">unit_number : Integer</text>
<text text-anchor="start" x="211.896" y="-179" font-family="Times,serif" font-size="14.00">bedroom_count : Integer</text>
<text text-anchor="start" x="211.896" y="-162.2" font-family="Times,serif" font-size="14.00">room_count : Integer</text>
<text text-anchor="start" x="211.896" y="-145.4" font-family="Times,serif" font-size="14.00">other_unit_details : String</text>
</a>
</g>
</g>
<!-- UnitFacility&#45;&gt;Unit -->
<g id="edge1" class="edge"><title>UnitFacility&#45;&gt;Unit</title>
<path fill="none" stroke="black" d="M143.069,-84.3164C163.407,-100.32 188.58,-120.128 212.052,-138.598"/>
<text text-anchor="middle" x="206.802" y="-124.598" font-family="Times,serif" font-size="14.00">* </text>
<text text-anchor="middle" x="137.819" y="-87.1164" font-family="Times,serif" font-size="14.00">* </text>
</g>
<!-- Location -->
<g id="node2" class="node"><title>Location</title>
<g id="a_node2"><a xlink:href="javascript:Action.selectClass(&quot;Location&quot;);" xlink:title="class Location
Positioning
">
<polygon fill="none" stroke="black" points="76.2378,-292.4 76.2378,-459.6 261.762,-459.6 261.762,-292.4 76.2378,-292.4"/>
<text text-anchor="middle" x="169" y="-441.6" font-family="Times,serif" font-size="14.00">Location</text>
<polyline fill="none" stroke="black" points="76.2378,-434.8 261.762,-434.8 "/>
<text text-anchor="start" x="84.2378" y="-416.8" font-family="Times,serif" font-size="14.00">id : Integer</text>
<text text-anchor="start" x="84.2378" y="-400" font-family="Times,serif" font-size="14.00">short_name : String</text>
<text text-anchor="start" x="84.2378" y="-383.2" font-family="Times,serif" font-size="14.00">full_name : String</text>
<text text-anchor="start" x="84.2378" y="-366.4" font-family="Times,serif" font-size="14.00">description : String</text>
<text text-anchor="start" x="84.2378" y="-349.6" font-family="Times,serif" font-size="14.00">address : String</text>
<text text-anchor="start" x="84.2378" y="-332.8" font-family="Times,serif" font-size="14.00">manager : String</text>
<text text-anchor="start" x="84.2378" y="-316" font-family="Times,serif" font-size="14.00">phone : String</text>
<text text-anchor="start" x="84.2378" y="-299.2" font-family="Times,serif" font-size="14.00">other_location_details : String</text>
</a>
</g>
</g>
<!-- Unit&#45;&gt;Location -->
<g id="edge2" class="edge"><title>Unit&#45;&gt;Location</title>
<path fill="none" stroke="black" d="M247.338,-255.467C241.403,-264.523 235.142,-274.076 228.852,-283.674"/>
<polygon fill="black" stroke="black" points="223.325,-292.108 225.043,-281.277 226.066,-287.926 228.806,-283.744 228.806,-283.744 228.806,-283.744 226.066,-287.926 232.57,-286.21 223.325,-292.108 223.325,-292.108"/>
<text text-anchor="middle" x="235.575" y="-278.108" font-family="Times,serif" font-size="14.00">0..1 </text>
<text text-anchor="middle" x="242.088" y="-258.267" font-family="Times,serif" font-size="14.00">* </text>
</g>
<!-- UnitType -->
<g id="node4" class="node"><title>UnitType</title>
<g id="a_node4"><a xlink:href="javascript:Action.selectClass(&quot;UnitType&quot;);" xlink:title="class UnitType
">
<polygon fill="none" stroke="black" points="280.228,-351.2 280.228,-400.8 367.772,-400.8 367.772,-351.2 280.228,-351.2"/>
<text text-anchor="middle" x="324" y="-382.8" font-family="Times,serif" font-size="14.00">UnitType</text>
<polyline fill="none" stroke="black" points="280.228,-376 367.772,-376 "/>
<text text-anchor="start" x="288.228" y="-358" font-family="Times,serif" font-size="14.00">code : String</text>
</a>
</g>
</g>
<!-- Unit&#45;&gt;UnitType -->
<g id="edge3" class="edge"><title>Unit&#45;&gt;UnitType</title>
<path fill="none" stroke="black" d="M297.662,-255.467C303.89,-283.731 311.183,-316.83 316.514,-341.023"/>
<polygon fill="black" stroke="black" points="318.669,-350.806 312.123,-342.009 317.593,-345.923 316.517,-341.041 316.517,-341.041 316.517,-341.041 317.593,-345.923 320.912,-340.072 318.669,-350.806 318.669,-350.806"/>
<text text-anchor="middle" x="294.367" y="-336.806" font-family="Times,serif" font-size="14.00">0..1 type</text>
<text text-anchor="middle" x="324.688" y="-258.267" font-family="Times,serif" font-size="14.00">* hasUnit</text>
</g>
<!-- ViewUnitStatus -->
<g id="node5" class="node"><title>ViewUnitStatus</title>
<g id="a_node5"><a xlink:href="javascript:Action.selectClass(&quot;ViewUnitStatus&quot;);" xlink:title="class ViewUnitStatus
">
<polygon fill="none" stroke="black" points="222.679,-17.8 222.679,-84.2 355.321,-84.2 355.321,-17.8 222.679,-17.8"/>
<text text-anchor="middle" x="289" y="-66.2" font-family="Times,serif" font-size="14.00">ViewUnitStatus</text>
<polyline fill="none" stroke="black" points="222.679,-59.4 355.321,-59.4 "/>
<text text-anchor="start" x="230.679" y="-41.4" font-family="Times,serif" font-size="14.00">status_date : Date</text>
<text text-anchor="start" x="230.679" y="-24.6" font-family="Times,serif" font-size="14.00">available_yn : String</text>
</a>
</g>
</g>
<!-- ViewUnitStatus&#45;&gt;Unit -->
<g id="edge4" class="edge"><title>ViewUnitStatus&#45;&gt;Unit</title>
<path fill="none" stroke="black" d="M288.102,-84.3164C287.658,-100.32 287.108,-120.128 286.594,-138.598"/>
<text text-anchor="middle" x="274.344" y="-124.598" font-family="Times,serif" font-size="14.00">0..1 </text>
<text text-anchor="middle" x="282.852" y="-87.1164" font-family="Times,serif" font-size="14.00">* </text>
</g>
<!-- BookingStatus -->
<g id="node6" class="node"><title>BookingStatus</title>
<g id="a_node6"><a xlink:href="javascript:Action.selectClass(&quot;BookingStatus&quot;);" xlink:title="class BookingStatus
">
<polygon fill="none" stroke="black" points="571.772,-172.2 571.772,-221.8 670.228,-221.8 670.228,-172.2 571.772,-172.2"/>
<text text-anchor="middle" x="621" y="-203.8" font-family="Times,serif" font-size="14.00">BookingStatus</text>
<polyline fill="none" stroke="black" points="571.772,-197 670.228,-197 "/>
<text text-anchor="start" x="579.772" y="-179" font-family="Times,serif" font-size="14.00">code : String</text>
</a>
</g>
</g>
<!-- UnitBooking -->
<g id="node7" class="node"><title>UnitBooking</title>
<g id="a_node7"><a xlink:href="javascript:Action.selectClass(&quot;UnitBooking&quot;);" xlink:title="class UnitBooking
">
<polygon fill="none" stroke="black" points="375.841,-1 375.841,-101 562.159,-101 562.159,-1 375.841,-1"/>
<text text-anchor="middle" x="469" y="-83" font-family="Times,serif" font-size="14.00">UnitBooking</text>
<polyline fill="none" stroke="black" points="375.841,-76.2 562.159,-76.2 "/>
<text text-anchor="start" x="383.841" y="-58.2" font-family="Times,serif" font-size="14.00">id : String</text>
<text text-anchor="start" x="383.841" y="-41.4" font-family="Times,serif" font-size="14.00">start_date : Date</text>
<text text-anchor="start" x="383.841" y="-24.6" font-family="Times,serif" font-size="14.00">end_date : Date</text>
<text text-anchor="start" x="383.841" y="-7.8" font-family="Times,serif" font-size="14.00">other_booking_details : String</text>
</a>
</g>
</g>
<!-- UnitBooking&#45;&gt;Unit -->
<g id="edge5" class="edge"><title>UnitBooking&#45;&gt;Unit</title>
<path fill="none" stroke="black" d="M406.192,-101.154C390.888,-113.131 374.382,-126.049 358.626,-138.38"/>
<text text-anchor="middle" x="346.376" y="-124.38" font-family="Times,serif" font-size="14.00">0..1 </text>
<text text-anchor="middle" x="400.942" y="-103.954" font-family="Times,serif" font-size="14.00">* </text>
</g>
<!-- Guest -->
<g id="node8" class="node"><title>Guest</title>
<g id="a_node8"><a xlink:href="javascript:Action.selectClass(&quot;Guest&quot;);" xlink:title="class Guest
">
<polygon fill="none" stroke="black" points="384.01,-138.6 384.01,-255.4 553.99,-255.4 553.99,-138.6 384.01,-138.6"/>
<text text-anchor="middle" x="469" y="-237.4" font-family="Times,serif" font-size="14.00">Guest</text>
<polyline fill="none" stroke="black" points="384.01,-230.6 553.99,-230.6 "/>
<text text-anchor="start" x="392.01" y="-212.6" font-family="Times,serif" font-size="14.00">id : String</text>
<text text-anchor="start" x="392.01" y="-195.8" font-family="Times,serif" font-size="14.00">first_name : String</text>
<text text-anchor="start" x="392.01" y="-179" font-family="Times,serif" font-size="14.00">last_name : String</text>
<text text-anchor="start" x="392.01" y="-162.2" font-family="Times,serif" font-size="14.00">date_of_birth : Date</text>
<text text-anchor="start" x="392.01" y="-145.4" font-family="Times,serif" font-size="14.00">other_guest_details : String</text>
</a>
</g>
</g>
<!-- UnitBooking&#45;&gt;Guest -->
<g id="edge6" class="edge"><title>UnitBooking&#45;&gt;Guest</title>
<path fill="none" stroke="black" d="M469,-101.154C469,-113.131 469,-126.049 469,-138.38"/>
<text text-anchor="middle" x="456.75" y="-124.38" font-family="Times,serif" font-size="14.00">0..1 </text>
<text text-anchor="middle" x="463.75" y="-103.954" font-family="Times,serif" font-size="14.00">* </text>
</g>
<!-- UnitBooking&#45;&gt;BookingStatus -->
<g id="edge7" class="edge"><title>UnitBooking&#45;&gt;BookingStatus</title>
<path fill="none" stroke="black" d="M522.865,-101.292C535.757,-113.232 549.426,-126.011 562,-138 573.643,-149.101 586.391,-161.591 597.049,-172.128"/>
<text text-anchor="middle" x="609.299" y="-158.128" font-family="Times,serif" font-size="14.00">0..1 </text>
<text text-anchor="middle" x="517.615" y="-104.092" font-family="Times,serif" font-size="14.00">* </text>
</g>
<!-- Gender -->
<g id="node9" class="node"><title>Gender</title>
<g id="a_node9"><a xlink:href="javascript:Action.selectClass(&quot;Gender&quot;);" xlink:title="class Gender
">
<polygon fill="none" stroke="black" points="425.228,-351.2 425.228,-400.8 512.772,-400.8 512.772,-351.2 425.228,-351.2"/>
<text text-anchor="middle" x="469" y="-382.8" font-family="Times,serif" font-size="14.00">Gender</text>
<polyline fill="none" stroke="black" points="425.228,-376 512.772,-376 "/>
<text text-anchor="start" x="433.228" y="-358" font-family="Times,serif" font-size="14.00">code : String</text>
</a>
</g>
</g>
<!-- Guest&#45;&gt;Gender -->
<g id="edge8" class="edge"><title>Guest&#45;&gt;Gender</title>
<path fill="none" stroke="black" d="M469,-255.467C469,-283.605 469,-316.535 469,-340.699"/>
<polygon fill="black" stroke="black" points="469,-350.806 464.5,-340.806 469,-345.806 469,-340.806 469,-340.806 469,-340.806 469,-345.806 473.5,-340.806 469,-350.806 469,-350.806"/>
<text text-anchor="middle" x="463.75" y="-336.806" font-family="Times,serif" font-size="14.00">1 </text>
<text text-anchor="middle" x="463.75" y="-258.267" font-family="Times,serif" font-size="14.00">* </text>
</g>
</g>
</svg>
