<?xml version="1.0" encoding="UTF-8" standalone="no"?>
<!DOCTYPE svg PUBLIC "-//W3C//DTD SVG 1.1//EN"
 "http://www.w3.org/Graphics/SVG/1.1/DTD/svg11.dtd">
<!-- Generated by graphviz version 2.39.20140502.0445 (20140502.0445)
 -->
<!-- Title: Accommodations Pages: 1 -->
<svg width="700pt" height="431pt"
 viewBox="0.00 0.00 700.00 431.00" xmlns="http://www.w3.org/2000/svg" xmlns:xlink="http://www.w3.org/1999/xlink">
<g id="graph0" class="graph" transform="scale(1 1) rotate(0) translate(4 427)">
<title>Accommodations</title>
<polygon fill="white" stroke="none" points="-4,4 -4,-427 696,-427 696,4 -4,4"/>
<!-- UnitFacility -->
<g id="node1" class="node"><title>UnitFacility</title>
<g id="a_node1"><a xlink:href="javascript:Action.selectClass(&quot;UnitFacility&quot;);" xlink:title="class UnitFacility
">
<polygon fill="none" stroke="black" points="0,-15.5 0,-76.5 206,-76.5 206,-15.5 0,-15.5"/>
<text text-anchor="middle" x="103" y="-61.3" font-family="Times,serif" font-size="14.00">UnitFacility</text>
<polyline fill="none" stroke="black" points="0,-53.5 206,-53.5 "/>
<text text-anchor="start" x="8" y="-38.3" font-family="Times,serif" font-size="14.00">unit_attribute_code : String</text>
<text text-anchor="start" x="8" y="-23.3" font-family="Times,serif" font-size="14.00">unit_attribute_description : String</text>
</a>
</g>
</g>
<!-- Unit -->
<g id="node3" class="node"><title>Unit</title>
<g id="a_node3"><a xlink:href="javascript:Action.selectClass(&quot;Unit&quot;);" xlink:title="class Unit
">
<polygon fill="none" stroke="black" points="209.5,-128.5 209.5,-234.5 372.5,-234.5 372.5,-128.5 209.5,-128.5"/>
<text text-anchor="middle" x="291" y="-219.3" font-family="Times,serif" font-size="14.00">Unit</text>
<polyline fill="none" stroke="black" points="209.5,-211.5 372.5,-211.5 "/>
<text text-anchor="start" x="217.5" y="-196.3" font-family="Times,serif" font-size="14.00">id : String</text>
<text text-anchor="start" x="217.5" y="-181.3" font-family="Times,serif" font-size="14.00">unit_number : Integer</text>
<text text-anchor="start" x="217.5" y="-166.3" font-family="Times,serif" font-size="14.00">bedroom_count : Integer</text>
<text text-anchor="start" x="217.5" y="-151.3" font-family="Times,serif" font-size="14.00">room_count : Integer</text>
<text text-anchor="start" x="217.5" y="-136.3" font-family="Times,serif" font-size="14.00">other_unit_details : String</text>
</a>
</g>
</g>
<!-- UnitFacility&#45;&gt;Unit -->
<g id="edge1" class="edge"><title>UnitFacility&#45;&gt;Unit</title>
<g id="a_edge1"><a xlink:title="UnitFacility * &#160;&#45;&#45; * &#160;Unit">
<path fill="none" stroke="black" d="M144.723,-76.628C166.142,-91.8377 192.871,-110.818 217.599,-128.378"/>
</a>
</g>
<text text-anchor="middle" x="212.099" y="-117.178" font-family="Times,serif" font-size="14.00">* </text>
<text text-anchor="middle" x="139.223" y="-80.428" font-family="Times,serif" font-size="14.00">* </text>
</g>
<!-- Location -->
<g id="node2" class="node"><title>Location</title>
<g id="a_node2"><a xlink:href="javascript:Action.selectClass(&quot;Location&quot;);" xlink:title="class Location
Positioning
">
<polygon fill="none" stroke="black" points="121,-271.5 121,-422.5 307,-422.5 307,-271.5 121,-271.5"/>
<text text-anchor="middle" x="214" y="-407.3" font-family="Times,serif" font-size="14.00">Location</text>
<polyline fill="none" stroke="black" points="121,-399.5 307,-399.5 "/>
<text text-anchor="start" x="129" y="-384.3" font-family="Times,serif" font-size="14.00">id : Integer</text>
<text text-anchor="start" x="129" y="-369.3" font-family="Times,serif" font-size="14.00">short_name : String</text>
<text text-anchor="start" x="129" y="-354.3" font-family="Times,serif" font-size="14.00">full_name : String</text>
<text text-anchor="start" x="129" y="-339.3" font-family="Times,serif" font-size="14.00">description : String</text>
<text text-anchor="start" x="129" y="-324.3" font-family="Times,serif" font-size="14.00">address : String</text>
<text text-anchor="start" x="129" y="-309.3" font-family="Times,serif" font-size="14.00">manager : String</text>
<text text-anchor="start" x="129" y="-294.3" font-family="Times,serif" font-size="14.00">phone : String</text>
<text text-anchor="start" x="129" y="-279.3" font-family="Times,serif" font-size="14.00">other_location_details : String</text>
</a>
</g>
</g>
<!-- Unit&#45;&gt;Location -->
<g id="edge2" class="edge"><title>Unit&#45;&gt;Location</title>
<g id="a_edge2"><a xlink:title="Unit * &#160;&#45;&gt; 0..1 &#160;Location">
<path fill="none" stroke="black" d="M253.535,-262.052 257.926,-252.729 262.299,-243.443 266.425,-234.682"/>
<polygon fill="black" stroke="black" points="249.147,-271.37 249.336,-260.406 251.277,-266.846 253.408,-262.323 253.408,-262.323 253.408,-262.323 251.277,-266.846 257.479,-264.24 249.147,-271.37 249.147,-271.37"/>
</a>
</g>
<text text-anchor="middle" x="236.647" y="-260.17" font-family="Times,serif" font-size="14.00">0..1 </text>
<text text-anchor="middle" x="260.925" y="-238.482" font-family="Times,serif" font-size="14.00">* </text>
</g>
<!-- UnitType -->
<g id="node4" class="node"><title>UnitType</title>
<g id="a_node4"><a xlink:href="javascript:Action.selectClass(&quot;UnitType&quot;);" xlink:title="class UnitType
">
<polygon fill="none" stroke="black" points="325,-324 325,-370 413,-370 413,-324 325,-324"/>
<text text-anchor="middle" x="369" y="-354.8" font-family="Times,serif" font-size="14.00">UnitType</text>
<polyline fill="none" stroke="black" points="325,-347 413,-347 "/>
<text text-anchor="start" x="333" y="-331.8" font-family="Times,serif" font-size="14.00">code : String</text>
</a>
</g>
</g>
<!-- Unit&#45;&gt;UnitType -->
<g id="edge3" class="edge"><title>Unit&#45;&gt;UnitType</title>
<g id="a_edge3"><a xlink:title="Unit * hasUnit &#45;&gt; 0..1 type UnitType">
<path fill="none" stroke="black" d="M315.894,-234.682C328.456,-261.013 343.274,-292.074 354.061,-314.686"/>
<polygon fill="black" stroke="black" points="358.419,-323.821 350.052,-316.733 356.266,-319.308 354.113,-314.795 354.113,-314.795 354.113,-314.795 356.266,-319.308 358.175,-312.858 358.419,-323.821 358.419,-323.821"/>
</a>
</g>
<text text-anchor="middle" x="333.919" y="-312.621" font-family="Times,serif" font-size="14.00">0..1 type</text>
<text text-anchor="middle" x="343.394" y="-238.482" font-family="Times,serif" font-size="14.00">* hasUnit</text>
</g>
<!-- ViewUnitStatus -->
<g id="node5" class="node"><title>ViewUnitStatus</title>
<g id="a_node5"><a xlink:href="javascript:Action.selectClass(&quot;ViewUnitStatus&quot;);" xlink:title="class ViewUnitStatus
">
<polygon fill="none" stroke="black" points="224.5,-15.5 224.5,-76.5 357.5,-76.5 357.5,-15.5 224.5,-15.5"/>
<text text-anchor="middle" x="291" y="-61.3" font-family="Times,serif" font-size="14.00">ViewUnitStatus</text>
<polyline fill="none" stroke="black" points="224.5,-53.5 357.5,-53.5 "/>
<text text-anchor="start" x="232.5" y="-38.3" font-family="Times,serif" font-size="14.00">status_date : Date</text>
<text text-anchor="start" x="232.5" y="-23.3" font-family="Times,serif" font-size="14.00">available_yn : String</text>
</a>
</g>
</g>
<!-- ViewUnitStatus&#45;&gt;Unit -->
<g id="edge4" class="edge"><title>ViewUnitStatus&#45;&gt;Unit</title>
<g id="a_edge4"><a xlink:title="ViewUnitStatus * &#160;&#45;&#45; 0..1 &#160;Unit">
<path fill="none" stroke="black" d="M291,-76.628C291,-91.8377 291,-110.818 291,-128.378"/>
</a>
</g>
<text text-anchor="middle" x="278.5" y="-117.178" font-family="Times,serif" font-size="14.00">0..1 </text>
<text text-anchor="middle" x="285.5" y="-80.428" font-family="Times,serif" font-size="14.00">* </text>
</g>
<!-- BookingStatus -->
<g id="node6" class="node"><title>BookingStatus</title>
<g id="a_node6"><a xlink:href="javascript:Action.selectClass(&quot;BookingStatus&quot;);" xlink:title="class BookingStatus
">
<polygon fill="none" stroke="black" points="404.5,-158.5 404.5,-204.5 503.5,-204.5 503.5,-158.5 404.5,-158.5"/>
<text text-anchor="middle" x="454" y="-189.3" font-family="Times,serif" font-size="14.00">BookingStatus</text>
<polyline fill="none" stroke="black" points="404.5,-181.5 503.5,-181.5 "/>
<text text-anchor="start" x="412.5" y="-166.3" font-family="Times,serif" font-size="14.00">code : String</text>
</a>
</g>
</g>
<!-- UnitBooking -->
<g id="node7" class="node"><title>UnitBooking</title>
<g id="a_node7"><a xlink:href="javascript:Action.selectClass(&quot;UnitBooking&quot;);" xlink:title="class UnitBooking
">
<polygon fill="none" stroke="black" points="375.5,-0.5 375.5,-91.5 562.5,-91.5 562.5,-0.5 375.5,-0.5"/>
<text text-anchor="middle" x="469" y="-76.3" font-family="Times,serif" font-size="14.00">UnitBooking</text>
<polyline fill="none" stroke="black" points="375.5,-68.5 562.5,-68.5 "/>
<text text-anchor="start" x="383.5" y="-53.3" font-family="Times,serif" font-size="14.00">id : String</text>
<text text-anchor="start" x="383.5" y="-38.3" font-family="Times,serif" font-size="14.00">start_date : Date</text>
<text text-anchor="start" x="383.5" y="-23.3" font-family="Times,serif" font-size="14.00">end_date : Date</text>
<text text-anchor="start" x="383.5" y="-8.3" font-family="Times,serif" font-size="14.00">other_booking_details : String</text>
</a>
</g>
</g>
<!-- UnitBooking&#45;&gt;Unit -->
<g id="edge5" class="edge"><title>UnitBooking&#45;&gt;Unit</title>
<g id="a_edge5"><a xlink:title="UnitBooking * &#160;&#45;&#45; 0..1 &#160;Unit">
<path fill="none" stroke="black" d="M360.454,-128.41 376.567,-116.325 393.579,-103.566 409.233,-91.8249"/>
</a>
</g>
<text text-anchor="middle" x="372.954" y="-117.21" font-family="Times,serif" font-size="14.00">0..1 </text>
<text text-anchor="middle" x="403.733" y="-95.6249" font-family="Times,serif" font-size="14.00">* </text>
</g>
<!-- UnitBooking&#45;&gt;BookingStatus -->
<g id="edge7" class="edge"><title>UnitBooking&#45;&gt;BookingStatus</title>
<g id="a_edge7"><a xlink:title="UnitBooking * &#160;&#45;&#45; 0..1 &#160;BookingStatus">
<path fill="none" stroke="black" d="M456.479,-158.441 458.508,-140.381 461.444,-114.246 463.963,-91.8249"/>
</a>
</g>
<text text-anchor="middle" x="443.979" y="-147.241" font-family="Times,serif" font-size="14.00">0..1 </text>
<text text-anchor="middle" x="458.463" y="-95.6249" font-family="Times,serif" font-size="14.00">* </text>
</g>
<!-- Guest -->
<g id="node8" class="node"><title>Guest</title>
<g id="a_node8"><a xlink:href="javascript:Action.selectClass(&quot;Guest&quot;);" xlink:title="class Guest
">
<polygon fill="none" stroke="black" points="522,-128.5 522,-234.5 692,-234.5 692,-128.5 522,-128.5"/>
<text text-anchor="middle" x="607" y="-219.3" font-family="Times,serif" font-size="14.00">Guest</text>
<polyline fill="none" stroke="black" points="522,-211.5 692,-211.5 "/>
<text text-anchor="start" x="530" y="-196.3" font-family="Times,serif" font-size="14.00">id : String</text>
<text text-anchor="start" x="530" y="-181.3" font-family="Times,serif" font-size="14.00">first_name : String</text>
<text text-anchor="start" x="530" y="-166.3" font-family="Times,serif" font-size="14.00">last_name : String</text>
<text text-anchor="start" x="530" y="-151.3" font-family="Times,serif" font-size="14.00">date_of_birth : Date</text>
<text text-anchor="start" x="530" y="-136.3" font-family="Times,serif" font-size="14.00">other_guest_details : String</text>
</a>
</g>
</g>
<!-- UnitBooking&#45;&gt;Guest -->
<g id="edge6" class="edge"><title>UnitBooking&#45;&gt;Guest</title>
<g id="a_edge6"><a xlink:title="UnitBooking * &#160;&#45;&#45; 0..1 &#160;Guest">
<path fill="none" stroke="black" d="M515.336,-91.8249C527.394,-103.49 540.492,-116.16 552.912,-128.176"/>
</a>
</g>
<text text-anchor="middle" x="540.412" y="-116.976" font-family="Times,serif" font-size="14.00">0..1 </text>
<text text-anchor="middle" x="509.836" y="-95.6249" font-family="Times,serif" font-size="14.00">* </text>
</g>
<!-- Gender -->
<g id="node9" class="node"><title>Gender</title>
<g id="a_node9"><a xlink:href="javascript:Action.selectClass(&quot;Gender&quot;);" xlink:title="class Gender
">
<polygon fill="none" stroke="black" points="563,-324 563,-370 651,-370 651,-324 563,-324"/>
<text text-anchor="middle" x="607" y="-354.8" font-family="Times,serif" font-size="14.00">Gender</text>
<polyline fill="none" stroke="black" points="563,-347 651,-347 "/>
<text text-anchor="start" x="571" y="-331.8" font-family="Times,serif" font-size="14.00">code : String</text>
</a>
</g>
</g>
<!-- Guest&#45;&gt;Gender -->
<g id="edge8" class="edge"><title>Guest&#45;&gt;Gender</title>
<g id="a_edge8"><a xlink:title="Guest * &#160;&#45;&gt; 1 &#160;Gender">
<path fill="none" stroke="black" d="M607,-234.682C607,-260.66 607,-291.243 607,-313.773"/>
<polygon fill="black" stroke="black" points="607,-323.821 602.5,-313.821 607,-318.821 607,-313.821 607,-313.821 607,-313.821 607,-318.821 611.5,-313.821 607,-323.821 607,-323.821"/>
</a>
</g>
<text text-anchor="middle" x="601.5" y="-312.621" font-family="Times,serif" font-size="14.00">1 </text>
<text text-anchor="middle" x="601.5" y="-238.482" font-family="Times,serif" font-size="14.00">* </text>
</g>
</g>
</svg>
