<?xml version="1.0" encoding="UTF-8" standalone="no"?>
<!DOCTYPE svg PUBLIC "-//W3C//DTD SVG 1.1//EN"
 "http://www.w3.org/Graphics/SVG/1.1/DTD/svg11.dtd">
<!-- Generated by graphviz version 2.29.20121108.1600 (20121108.1600)
 -->
<!-- Title: AfghanRainDesign Pages: 1 -->
<svg width="717pt" height="592pt"
 viewBox="0.00 0.00 717.00 592.00" xmlns="http://www.w3.org/2000/svg" xmlns:xlink="http://www.w3.org/1999/xlink">
<g id="graph0" class="graph" transform="scale(1 1) rotate(0) translate(4 588)">
<title>AfghanRainDesign</title>
<polygon fill="white" stroke="white" points="-4,5 -4,-588 714,-588 714,5 -4,5"/>
<!-- Watershed -->
<g id="node1" class="node"><title>Watershed</title>
<g id="a_node1"><a xlink:href="javascript:Action.selectClass(&quot;Watershed&quot;);" xlink:title="class Watershed
">
<polygon fill="none" stroke="black" points="181.169,-412.8 181.169,-479.2 278.831,-479.2 278.831,-412.8 181.169,-412.8"/>
<text text-anchor="middle" x="230" y="-461.2" font-family="Times,serif" font-size="14.00">Watershed</text>
<polyline fill="none" stroke="black" points="181.169,-454.4 278.831,-454.4 "/>
<text text-anchor="start" x="189.169" y="-436.4" font-family="Times,serif" font-size="14.00">id : Integer</text>
<text text-anchor="start" x="189.169" y="-419.6" font-family="Times,serif" font-size="14.00">details : String</text>
</a>
</g>
</g>
<!-- District -->
<g id="node2" class="node"><title>District</title>
<g id="a_node2"><a xlink:href="javascript:Action.selectClass(&quot;District&quot;);" xlink:title="class District
">
<polygon fill="none" stroke="black" points="61.2827,-516.8 61.2827,-583.2 152.717,-583.2 152.717,-516.8 61.2827,-516.8"/>
<text text-anchor="middle" x="107" y="-565.2" font-family="Times,serif" font-size="14.00">District</text>
<polyline fill="none" stroke="black" points="61.2827,-558.4 152.717,-558.4 "/>
<text text-anchor="start" x="69.2827" y="-540.4" font-family="Times,serif" font-size="14.00">id : Integer</text>
<text text-anchor="start" x="69.2827" y="-523.6" font-family="Times,serif" font-size="14.00">name : String</text>
</a>
</g>
</g>
<!-- Office -->
<g id="node3" class="node"><title>Office</title>
<g id="a_node3"><a xlink:href="javascript:Action.selectClass(&quot;Office&quot;);" xlink:title="class Office
">
<polygon fill="none" stroke="black" points="307.848,-292.4 307.848,-375.6 480.152,-375.6 480.152,-292.4 307.848,-292.4"/>
<text text-anchor="middle" x="394" y="-357.6" font-family="Times,serif" font-size="14.00">Office</text>
<polyline fill="none" stroke="black" points="307.848,-350.8 480.152,-350.8 "/>
<text text-anchor="start" x="315.848" y="-332.8" font-family="Times,serif" font-size="14.00">id : Integer</text>
<text text-anchor="start" x="315.848" y="-316" font-family="Times,serif" font-size="14.00">name : String</text>
<text text-anchor="start" x="315.848" y="-299.2" font-family="Times,serif" font-size="14.00">other_office_details : String</text>
</a>
</g>
</g>
<!-- WorkerRole -->
<g id="node4" class="node"><title>WorkerRole</title>
<g id="a_node4"><a xlink:href="javascript:Action.selectClass(&quot;WorkerRole&quot;);" xlink:title="class WorkerRole
">
<polygon fill="none" stroke="black" points="498.338,-300.8 498.338,-367.2 621.662,-367.2 621.662,-300.8 498.338,-300.8"/>
<text text-anchor="middle" x="560" y="-349.2" font-family="Times,serif" font-size="14.00">WorkerRole</text>
<polyline fill="none" stroke="black" points="498.338,-342.4 621.662,-342.4 "/>
<text text-anchor="start" x="506.338" y="-324.4" font-family="Times,serif" font-size="14.00">code : String</text>
<text text-anchor="start" x="506.338" y="-307.6" font-family="Times,serif" font-size="14.00">description : String</text>
</a>
</g>
</g>
<!-- Worker -->
<g id="node5" class="node"><title>Worker</title>
<g id="a_node5"><a xlink:href="javascript:Action.selectClass(&quot;Worker&quot;);" xlink:title="class Worker
associationClass Workder
">
<polygon fill="none" stroke="black" points="342.4,-155 342.4,-255 511.6,-255 511.6,-155 342.4,-155"/>
<text text-anchor="middle" x="427" y="-237" font-family="Times,serif" font-size="14.00">Worker</text>
<polyline fill="none" stroke="black" points="342.4,-230.2 511.6,-230.2 "/>
<text text-anchor="start" x="350.4" y="-212.2" font-family="Times,serif" font-size="14.00">id : Integer</text>
<text text-anchor="start" x="350.4" y="-195.4" font-family="Times,serif" font-size="14.00">gender : String</text>
<text text-anchor="start" x="350.4" y="-178.6" font-family="Times,serif" font-size="14.00">name : String</text>
<text text-anchor="start" x="350.4" y="-161.8" font-family="Times,serif" font-size="14.00">other_work_details : String</text>
</a>
</g>
</g>
<!-- Worker&#45;&gt;Office -->
<g id="edge1" class="edge"><title>Worker&#45;&gt;Office</title>
<path fill="none" stroke="black" d="M414.241,-255.102C411.049,-267.386 407.66,-280.43 404.586,-292.26"/>
<text text-anchor="middle" x="399.336" y="-278.26" font-family="Times,serif" font-size="14.00">* </text>
<text text-anchor="middle" x="408.991" y="-257.902" font-family="Times,serif" font-size="14.00">1 </text>
</g>
<!-- Worker&#45;&gt;WorkerRole -->
<g id="edge2" class="edge"><title>Worker&#45;&gt;WorkerRole</title>
<path fill="none" stroke="black" d="M478.421,-255.102C494.357,-270.318 511.511,-286.699 525.958,-300.494"/>
<text text-anchor="middle" x="520.708" y="-286.494" font-family="Times,serif" font-size="14.00">* </text>
<text text-anchor="middle" x="473.171" y="-257.902" font-family="Times,serif" font-size="14.00">1 </text>
</g>
<!-- WorkersOnSurvey -->
<g id="node6" class="node"><title>WorkersOnSurvey</title>
<g id="a_node6"><a xlink:href="javascript:Action.selectClass(&quot;WorkersOnSurvey&quot;);" xlink:title="class WorkersOnSurvey
">
<polygon fill="none" stroke="black" points="281.969,-17.4 281.969,-100.6 448.031,-100.6 448.031,-17.4 281.969,-17.4"/>
<text text-anchor="middle" x="365" y="-82.6" font-family="Times,serif" font-size="14.00">WorkersOnSurvey</text>
<polyline fill="none" stroke="black" points="281.969,-75.8 448.031,-75.8 "/>
<text text-anchor="start" x="289.969" y="-57.8" font-family="Times,serif" font-size="14.00">id : Integer</text>
<text text-anchor="start" x="289.969" y="-41" font-family="Times,serif" font-size="14.00">date_assigned_from : Date</text>
<text text-anchor="start" x="289.969" y="-24.2" font-family="Times,serif" font-size="14.00">date_assigned_to : Date</text>
</a>
</g>
</g>
<!-- VillageSurvey -->
<g id="node7" class="node"><title>VillageSurvey</title>
<g id="a_node7"><a xlink:href="javascript:Action.selectClass(&quot;VillageSurvey&quot;);" xlink:title="class VillageSurvey
">
<polygon fill="none" stroke="black" points="28.6895,-163.4 28.6895,-246.6 175.311,-246.6 175.311,-163.4 28.6895,-163.4"/>
<text text-anchor="middle" x="102" y="-228.6" font-family="Times,serif" font-size="14.00">VillageSurvey</text>
<polyline fill="none" stroke="black" points="28.6895,-221.8 175.311,-221.8 "/>
<text text-anchor="start" x="36.6895" y="-203.8" font-family="Times,serif" font-size="14.00">id : Integer</text>
<text text-anchor="start" x="36.6895" y="-187" font-family="Times,serif" font-size="14.00">due_date : Date</text>
<text text-anchor="start" x="36.6895" y="-170.2" font-family="Times,serif" font-size="14.00">completion_date : Date</text>
</a>
</g>
</g>
<!-- WorkersOnSurvey&#45;&gt;VillageSurvey -->
<g id="edge3" class="edge"><title>WorkersOnSurvey&#45;&gt;VillageSurvey</title>
<path fill="none" stroke="black" d="M283.724,-100.708C252.312,-116.832 216.234,-135.831 184,-154 178.771,-156.948 173.391,-160.055 168.006,-163.219"/>
<text text-anchor="middle" x="173.256" y="-149.219" font-family="Times,serif" font-size="14.00">* </text>
<text text-anchor="middle" x="278.474" y="-103.508" font-family="Times,serif" font-size="14.00">1 </text>
</g>
<!-- WorkersOnSurvey&#45;&gt;Worker -->
<g id="edge4" class="edge"><title>WorkersOnSurvey&#45;&gt;Worker</title>
<path fill="none" stroke="black" d="M382.601,-100.879C389.833,-117.676 398.269,-137.27 405.834,-154.84"/>
<text text-anchor="middle" x="400.584" y="-140.84" font-family="Times,serif" font-size="14.00">* </text>
<text text-anchor="middle" x="377.351" y="-103.679" font-family="Times,serif" font-size="14.00">1 </text>
</g>
<!-- Village -->
<g id="node13" class="node"><title>Village</title>
<g id="a_node13"><a xlink:href="javascript:Action.selectClass(&quot;Village&quot;);" xlink:title="class Village
assocationClass
">
<polygon fill="none" stroke="black" points="78.7378,-292.4 78.7378,-375.6 257.262,-375.6 257.262,-292.4 78.7378,-292.4"/>
<text text-anchor="middle" x="168" y="-357.6" font-family="Times,serif" font-size="14.00">Village</text>
<polyline fill="none" stroke="black" points="78.7378,-350.8 257.262,-350.8 "/>
<text text-anchor="start" x="86.7378" y="-332.8" font-family="Times,serif" font-size="14.00">id : Integer</text>
<text text-anchor="start" x="86.7378" y="-316" font-family="Times,serif" font-size="14.00">name : String</text>
<text text-anchor="start" x="86.7378" y="-299.2" font-family="Times,serif" font-size="14.00">other_village_details : String</text>
</a>
</g>
</g>
<!-- VillageSurvey&#45;&gt;Village -->
<g id="edge5" class="edge"><title>VillageSurvey&#45;&gt;Village</title>
<path fill="none" stroke="black" d="M123.246,-246.883C129.252,-258.439 135.855,-271.146 142.102,-283.166"/>
<polygon fill="black" stroke="black" points="146.794,-292.194 138.189,-285.396 144.488,-287.757 142.182,-283.321 142.182,-283.321 142.182,-283.321 144.488,-287.757 146.175,-281.245 146.794,-292.194 146.794,-292.194"/>
<text text-anchor="middle" x="134.544" y="-278.194" font-family="Times,serif" font-size="14.00">0..1 </text>
<text text-anchor="middle" x="128.496" y="-249.683" font-family="Times,serif" font-size="14.00">* </text>
</g>
<!-- SurveyObservation -->
<g id="node8" class="node"><title>SurveyObservation</title>
<g id="a_node8"><a xlink:href="javascript:Action.selectClass(&quot;SurveyObservation&quot;);" xlink:title="class SurveyObservation
Positioning
">
<polygon fill="none" stroke="black" points="-0.872559,-0.6 -0.872559,-117.4 204.873,-117.4 204.873,-0.6 -0.872559,-0.6"/>
<text text-anchor="middle" x="102" y="-99.4" font-family="Times,serif" font-size="14.00">SurveyObservation</text>
<polyline fill="none" stroke="black" points="-0.872559,-92.6 204.873,-92.6 "/>
<text text-anchor="start" x="7.12744" y="-74.6" font-family="Times,serif" font-size="14.00">id : Integer</text>
<text text-anchor="start" x="7.12744" y="-57.8" font-family="Times,serif" font-size="14.00">rainfall_centimetres : Integer</text>
<text text-anchor="start" x="7.12744" y="-41" font-family="Times,serif" font-size="14.00">humidity : Integer</text>
<text text-anchor="start" x="7.12744" y="-24.2" font-family="Times,serif" font-size="14.00">temperature : Integer</text>
<text text-anchor="start" x="7.12744" y="-7.4" font-family="Times,serif" font-size="14.00">other_observation_details : String</text>
</a>
</g>
</g>
<!-- SurveyObservation&#45;&gt;VillageSurvey -->
<g id="edge6" class="edge"><title>SurveyObservation&#45;&gt;VillageSurvey</title>
<path fill="none" stroke="black" d="M102,-117.741C102,-129.363 102,-141.501 102,-152.878"/>
<polygon fill="black" stroke="black" points="102,-163.075 97.5001,-153.075 102,-158.075 102,-153.075 102,-153.075 102,-153.075 102,-158.075 106.5,-153.076 102,-163.075 102,-163.075"/>
<text text-anchor="middle" x="89.75" y="-149.075" font-family="Times,serif" font-size="14.00">0..1 </text>
<text text-anchor="middle" x="96.75" y="-120.541" font-family="Times,serif" font-size="14.00">* </text>
</g>
<!-- Farm -->
<g id="node9" class="node"><title>Farm</title>
<g id="a_node9"><a xlink:href="javascript:Action.selectClass(&quot;Farm&quot;);" xlink:title="class Farm
">
<polygon fill="none" stroke="black" points="193.455,-171.8 193.455,-238.2 324.545,-238.2 324.545,-171.8 193.455,-171.8"/>
<text text-anchor="middle" x="259" y="-220.2" font-family="Times,serif" font-size="14.00">Farm</text>
<polyline fill="none" stroke="black" points="193.455,-213.4 324.545,-213.4 "/>
<text text-anchor="start" x="201.455" y="-195.4" font-family="Times,serif" font-size="14.00">id : String</text>
<text text-anchor="start" x="201.455" y="-178.6" font-family="Times,serif" font-size="14.00">farm_details : String</text>
</a>
</g>
</g>
<!-- Farm&#45;&gt;Village -->
<g id="edge7" class="edge"><title>Farm&#45;&gt;Village</title>
<path fill="none" stroke="black" d="M235.801,-238.376C225.938,-252.142 214.217,-268.5 203.317,-283.711"/>
<polygon fill="black" stroke="black" points="197.363,-292.02 199.53,-281.27 200.276,-287.956 203.188,-283.891 203.188,-283.891 203.188,-283.891 200.276,-287.956 206.846,-286.513 197.363,-292.02 197.363,-292.02"/>
<text text-anchor="middle" x="209.613" y="-278.02" font-family="Times,serif" font-size="14.00">0..1 </text>
<text text-anchor="middle" x="230.551" y="-241.176" font-family="Times,serif" font-size="14.00">* </text>
</g>
<!-- Bulletin -->
<g id="node10" class="node"><title>Bulletin</title>
<g id="a_node10"><a xlink:href="javascript:Action.selectClass(&quot;Bulletin&quot;);" xlink:title="class Bulletin
">
<polygon fill="none" stroke="black" points="524.638,-9 524.638,-109 709.362,-109 709.362,-9 524.638,-9"/>
<text text-anchor="middle" x="617" y="-91" font-family="Times,serif" font-size="14.00">Bulletin</text>
<polyline fill="none" stroke="black" points="524.638,-84.2 709.362,-84.2 "/>
<text text-anchor="start" x="532.638" y="-66.2" font-family="Times,serif" font-size="14.00">id : Integer</text>
<text text-anchor="start" x="532.638" y="-49.4" font-family="Times,serif" font-size="14.00">next_bulletin_due_date : Date</text>
<text text-anchor="start" x="532.638" y="-32.6" font-family="Times,serif" font-size="14.00">issued_date : Date</text>
<text text-anchor="start" x="532.638" y="-15.8" font-family="Times,serif" font-size="14.00">comments : String</text>
</a>
</g>
</g>
<!-- AgriculturalResearchStation -->
<g id="node11" class="node"><title>AgriculturalResearchStation</title>
<g id="a_node11"><a xlink:href="javascript:Action.selectClass(&quot;AgriculturalResearchStation&quot;);" xlink:title="class AgriculturalResearchStation
">
<polygon fill="none" stroke="black" points="529.303,-180.2 529.303,-229.8 704.697,-229.8 704.697,-180.2 529.303,-180.2"/>
<text text-anchor="middle" x="617" y="-211.8" font-family="Times,serif" font-size="14.00">AgriculturalResearchStation</text>
<polyline fill="none" stroke="black" points="529.303,-205 704.697,-205 "/>
<text text-anchor="start" x="537.303" y="-187" font-family="Times,serif" font-size="14.00">name : String</text>
</a>
</g>
</g>
<!-- Bulletin&#45;&gt;AgriculturalResearchStation -->
<g id="edge8" class="edge"><title>Bulletin&#45;&gt;AgriculturalResearchStation</title>
<path fill="none" stroke="black" d="M617,-109.154C617,-129.178 617,-151.832 617,-169.977"/>
<polygon fill="black" stroke="black" points="617,-180.086 612.5,-170.086 617,-175.086 617,-170.086 617,-170.086 617,-170.086 617,-175.086 621.5,-170.086 617,-180.086 617,-180.086"/>
<text text-anchor="middle" x="604.75" y="-166.086" font-family="Times,serif" font-size="14.00">0..1 </text>
<text text-anchor="middle" x="611.75" y="-111.954" font-family="Times,serif" font-size="14.00">* </text>
</g>
<!-- AgriculturalZone -->
<g id="node12" class="node"><title>AgriculturalZone</title>
<g id="a_node12"><a xlink:href="javascript:Action.selectClass(&quot;AgriculturalZone&quot;);" xlink:title="class AgriculturalZone
">
<polygon fill="none" stroke="black" points="50.4067,-412.8 50.4067,-479.2 163.593,-479.2 163.593,-412.8 50.4067,-412.8"/>
<text text-anchor="middle" x="107" y="-461.2" font-family="Times,serif" font-size="14.00">AgriculturalZone</text>
<polyline fill="none" stroke="black" points="50.4067,-454.4 163.593,-454.4 "/>
<text text-anchor="start" x="58.4067" y="-436.4" font-family="Times,serif" font-size="14.00">id : Integer</text>
<text text-anchor="start" x="58.4067" y="-419.6" font-family="Times,serif" font-size="14.00">details : String</text>
</a>
</g>
</g>
<!-- AgriculturalZone&#45;&gt;District -->
<g id="edge9" class="edge"><title>AgriculturalZone&#45;&gt;District</title>
<path fill="none" stroke="black" d="M107,-479.273C107,-487.924 107,-497.41 107,-506.522"/>
<polygon fill="black" stroke="black" points="107,-516.586 102.5,-506.586 107,-511.586 107,-506.586 107,-506.586 107,-506.586 107,-511.586 111.5,-506.586 107,-516.586 107,-516.586"/>
<text text-anchor="middle" x="94.75" y="-502.586" font-family="Times,serif" font-size="14.00">0..1 </text>
<text text-anchor="middle" x="101.75" y="-482.073" font-family="Times,serif" font-size="14.00">* </text>
</g>
<!-- Village&#45;&gt;AgriculturalZone -->
<g id="edge10" class="edge"><title>Village&#45;&gt;AgriculturalZone</title>
<path fill="none" stroke="black" d="M145.459,-375.647C138.671,-387.888 131.318,-401.148 124.877,-412.763"/>
<text text-anchor="middle" x="119.627" y="-398.763" font-family="Times,serif" font-size="14.00">* </text>
<text text-anchor="middle" x="150.709" y="-378.447" font-family="Times,serif" font-size="14.00">1 </text>
</g>
<!-- Village&#45;&gt;Watershed -->
<g id="edge11" class="edge"><title>Village&#45;&gt;Watershed</title>
<path fill="none" stroke="black" d="M190.91,-375.647C197.809,-387.888 205.283,-401.148 211.83,-412.763"/>
<text text-anchor="middle" x="206.58" y="-398.763" font-family="Times,serif" font-size="14.00">* </text>
<text text-anchor="middle" x="185.66" y="-378.447" font-family="Times,serif" font-size="14.00">1 </text>
</g>
</g>
</svg>
