<?xml version="1.0" encoding="UTF-8" standalone="no"?>
<!DOCTYPE svg PUBLIC "-//W3C//DTD SVG 1.1//EN"
 "http://www.w3.org/Graphics/SVG/1.1/DTD/svg11.dtd">
<!-- Generated by graphviz version 2.39.20140502.0445 (20140502.0445)
 -->
<!-- Title: AfghanRainDesign Pages: 1 -->
<svg width="719pt" height="552pt"
 viewBox="0.00 0.00 719.00 552.00" xmlns="http://www.w3.org/2000/svg" xmlns:xlink="http://www.w3.org/1999/xlink">
<g id="graph0" class="graph" transform="scale(1 1) rotate(0) translate(4 548)">
<title>AfghanRainDesign</title>
<polygon fill="white" stroke="none" points="-4,4 -4,-548 715,-548 715,4 -4,4"/>
<!-- Watershed -->
<g id="node1" class="node"><title>Watershed</title>
<g id="a_node1"><a xlink:href="javascript:Action.selectClass(&quot;Watershed&quot;);" xlink:title="class Watershed
">
<polygon fill="none" stroke="black" points="322.5,-384.5 322.5,-445.5 420.5,-445.5 420.5,-384.5 322.5,-384.5"/>
<text text-anchor="middle" x="371.5" y="-430.3" font-family="Times,serif" font-size="14.00">Watershed</text>
<polyline fill="none" stroke="black" points="322.5,-422.5 420.5,-422.5 "/>
<text text-anchor="start" x="330.5" y="-407.3" font-family="Times,serif" font-size="14.00">id : Integer</text>
<text text-anchor="start" x="330.5" y="-392.3" font-family="Times,serif" font-size="14.00">details : String</text>
</a>
</g>
</g>
<!-- District -->
<g id="node2" class="node"><title>District</title>
<g id="a_node2"><a xlink:href="javascript:Action.selectClass(&quot;District&quot;);" xlink:title="class District
">
<polygon fill="none" stroke="black" points="449.5,-482.5 449.5,-543.5 541.5,-543.5 541.5,-482.5 449.5,-482.5"/>
<text text-anchor="middle" x="495.5" y="-528.3" font-family="Times,serif" font-size="14.00">District</text>
<polyline fill="none" stroke="black" points="449.5,-520.5 541.5,-520.5 "/>
<text text-anchor="start" x="457.5" y="-505.3" font-family="Times,serif" font-size="14.00">id : Integer</text>
<text text-anchor="start" x="457.5" y="-490.3" font-family="Times,serif" font-size="14.00">name : String</text>
</a>
</g>
</g>
<!-- Office -->
<g id="node3" class="node"><title>Office</title>
<g id="a_node3"><a xlink:href="javascript:Action.selectClass(&quot;Office&quot;);" xlink:title="class Office
">
<polygon fill="none" stroke="black" points="0,-271.5 0,-347.5 173,-347.5 173,-271.5 0,-271.5"/>
<text text-anchor="middle" x="86.5" y="-332.3" font-family="Times,serif" font-size="14.00">Office</text>
<polyline fill="none" stroke="black" points="0,-324.5 173,-324.5 "/>
<text text-anchor="start" x="8" y="-309.3" font-family="Times,serif" font-size="14.00">id : Integer</text>
<text text-anchor="start" x="8" y="-294.3" font-family="Times,serif" font-size="14.00">name : String</text>
<text text-anchor="start" x="8" y="-279.3" font-family="Times,serif" font-size="14.00">other_office_details : String</text>
</a>
</g>
</g>
<!-- WorkerRole -->
<g id="node4" class="node"><title>WorkerRole</title>
<g id="a_node4"><a xlink:href="javascript:Action.selectClass(&quot;WorkerRole&quot;);" xlink:title="class WorkerRole
">
<polygon fill="none" stroke="black" points="191.5,-279 191.5,-340 315.5,-340 315.5,-279 191.5,-279"/>
<text text-anchor="middle" x="253.5" y="-324.8" font-family="Times,serif" font-size="14.00">WorkerRole</text>
<polyline fill="none" stroke="black" points="191.5,-317 315.5,-317 "/>
<text text-anchor="start" x="199.5" y="-301.8" font-family="Times,serif" font-size="14.00">code : String</text>
<text text-anchor="start" x="199.5" y="-286.8" font-family="Times,serif" font-size="14.00">description : String</text>
</a>
</g>
</g>
<!-- Worker -->
<g id="node5" class="node"><title>Worker</title>
<g id="a_node5"><a xlink:href="javascript:Action.selectClass(&quot;Worker&quot;);" xlink:title="class Worker
associationClass Workder
">
<polygon fill="none" stroke="black" points="8.5,-143.5 8.5,-234.5 178.5,-234.5 178.5,-143.5 8.5,-143.5"/>
<text text-anchor="middle" x="93.5" y="-219.3" font-family="Times,serif" font-size="14.00">Worker</text>
<polyline fill="none" stroke="black" points="8.5,-211.5 178.5,-211.5 "/>
<text text-anchor="start" x="16.5" y="-196.3" font-family="Times,serif" font-size="14.00">id : Integer</text>
<text text-anchor="start" x="16.5" y="-181.3" font-family="Times,serif" font-size="14.00">gender : String</text>
<text text-anchor="start" x="16.5" y="-166.3" font-family="Times,serif" font-size="14.00">name : String</text>
<text text-anchor="start" x="16.5" y="-151.3" font-family="Times,serif" font-size="14.00">other_work_details : String</text>
</a>
</g>
</g>
<!-- Worker&#45;&gt;Office -->
<g id="edge1" class="edge"><title>Worker&#45;&gt;Office</title>
<g id="a_edge1"><a xlink:title="Worker 1 &#160;&#45;&#45; * &#160;Office">
<path fill="none" stroke="black" d="M88.6938,-271.361 89.3786,-259.77 90.1412,-246.859 90.8536,-234.8"/>
</a>
</g>
<text text-anchor="middle" x="83.1938" y="-260.161" font-family="Times,serif" font-size="14.00">* </text>
<text text-anchor="middle" x="85.3536" y="-238.6" font-family="Times,serif" font-size="14.00">1 </text>
</g>
<!-- Worker&#45;&gt;WorkerRole -->
<g id="edge2" class="edge"><title>Worker&#45;&gt;WorkerRole</title>
<g id="a_edge2"><a xlink:title="Worker 1 &#160;&#45;&#45; * &#160;WorkerRole">
<path fill="none" stroke="black" d="M153.989,-234.8C173.812,-249.481 195.337,-265.423 213.28,-278.712"/>
</a>
</g>
<text text-anchor="middle" x="207.78" y="-267.512" font-family="Times,serif" font-size="14.00">* </text>
<text text-anchor="middle" x="148.489" y="-238.6" font-family="Times,serif" font-size="14.00">1 </text>
</g>
<!-- WorkersOnSurvey -->
<g id="node6" class="node"><title>WorkersOnSurvey</title>
<g id="a_node6"><a xlink:href="javascript:Action.selectClass(&quot;WorkersOnSurvey&quot;);" xlink:title="class WorkersOnSurvey
">
<polygon fill="none" stroke="black" points="10,-15.5 10,-91.5 177,-91.5 177,-15.5 10,-15.5"/>
<text text-anchor="middle" x="93.5" y="-76.3" font-family="Times,serif" font-size="14.00">WorkersOnSurvey</text>
<polyline fill="none" stroke="black" points="10,-68.5 177,-68.5 "/>
<text text-anchor="start" x="18" y="-53.3" font-family="Times,serif" font-size="14.00">id : Integer</text>
<text text-anchor="start" x="18" y="-38.3" font-family="Times,serif" font-size="14.00">date_assigned_from : Date</text>
<text text-anchor="start" x="18" y="-23.3" font-family="Times,serif" font-size="14.00">date_assigned_to : Date</text>
</a>
</g>
</g>
<!-- WorkersOnSurvey&#45;&gt;Worker -->
<g id="edge4" class="edge"><title>WorkersOnSurvey&#45;&gt;Worker</title>
<g id="a_edge4"><a xlink:title="WorkersOnSurvey 1 &#160;&#45;&#45; * &#160;Worker">
<path fill="none" stroke="black" d="M93.5,-91.6872C93.5,-107.735 93.5,-126.639 93.5,-143.43"/>
</a>
</g>
<text text-anchor="middle" x="88" y="-132.23" font-family="Times,serif" font-size="14.00">* </text>
<text text-anchor="middle" x="88" y="-95.4872" font-family="Times,serif" font-size="14.00">1 </text>
</g>
<!-- VillageSurvey -->
<g id="node7" class="node"><title>VillageSurvey</title>
<g id="a_node7"><a xlink:href="javascript:Action.selectClass(&quot;VillageSurvey&quot;);" xlink:title="class VillageSurvey
">
<polygon fill="none" stroke="black" points="215,-151 215,-227 362,-227 362,-151 215,-151"/>
<text text-anchor="middle" x="288.5" y="-211.8" font-family="Times,serif" font-size="14.00">VillageSurvey</text>
<polyline fill="none" stroke="black" points="215,-204 362,-204 "/>
<text text-anchor="start" x="223" y="-188.8" font-family="Times,serif" font-size="14.00">id : Integer</text>
<text text-anchor="start" x="223" y="-173.8" font-family="Times,serif" font-size="14.00">due_date : Date</text>
<text text-anchor="start" x="223" y="-158.8" font-family="Times,serif" font-size="14.00">completion_date : Date</text>
</a>
</g>
</g>
<!-- WorkersOnSurvey&#45;&gt;VillageSurvey -->
<g id="edge3" class="edge"><title>WorkersOnSurvey&#45;&gt;VillageSurvey</title>
<g id="a_edge3"><a xlink:title="WorkersOnSurvey 1 &#160;&#45;&#45; * &#160;VillageSurvey">
<path fill="none" stroke="black" d="M147.559,-91.5099C174.611,-110.03 207.27,-132.388 234.335,-150.918"/>
</a>
</g>
<text text-anchor="middle" x="228.835" y="-139.718" font-family="Times,serif" font-size="14.00">* </text>
<text text-anchor="middle" x="142.059" y="-95.3099" font-family="Times,serif" font-size="14.00">1 </text>
</g>
<!-- Village -->
<g id="node13" class="node"><title>Village</title>
<g id="a_node13"><a xlink:href="javascript:Action.selectClass(&quot;Village&quot;);" xlink:title="class Village
assocationClass
">
<polygon fill="none" stroke="black" points="344,-271.5 344,-347.5 523,-347.5 523,-271.5 344,-271.5"/>
<text text-anchor="middle" x="433.5" y="-332.3" font-family="Times,serif" font-size="14.00">Village</text>
<polyline fill="none" stroke="black" points="344,-324.5 523,-324.5 "/>
<text text-anchor="start" x="352" y="-309.3" font-family="Times,serif" font-size="14.00">id : Integer</text>
<text text-anchor="start" x="352" y="-294.3" font-family="Times,serif" font-size="14.00">name : String</text>
<text text-anchor="start" x="352" y="-279.3" font-family="Times,serif" font-size="14.00">other_village_details : String</text>
</a>
</g>
</g>
<!-- VillageSurvey&#45;&gt;Village -->
<g id="edge5" class="edge"><title>VillageSurvey&#45;&gt;Village</title>
<g id="a_edge5"><a xlink:title="VillageSurvey * &#160;&#45;&gt; 0..1 &#160;Village">
<path fill="none" stroke="black" d="M333.981,-227.169C348.692,-239.191 365.135,-252.629 380.351,-265.064"/>
<polygon fill="black" stroke="black" points="388.18,-271.463 377.59,-268.619 384.309,-268.299 380.437,-265.135 380.437,-265.135 380.437,-265.135 384.309,-268.299 383.285,-261.65 388.18,-271.463 388.18,-271.463"/>
</a>
</g>
<text text-anchor="middle" x="375.68" y="-260.263" font-family="Times,serif" font-size="14.00">0..1 </text>
<text text-anchor="middle" x="328.481" y="-230.969" font-family="Times,serif" font-size="14.00">* </text>
</g>
<!-- SurveyObservation -->
<g id="node8" class="node"><title>SurveyObservation</title>
<g id="a_node8"><a xlink:href="javascript:Action.selectClass(&quot;SurveyObservation&quot;);" xlink:title="class SurveyObservation
Positioning
">
<polygon fill="none" stroke="black" points="195.5,-0.5 195.5,-106.5 401.5,-106.5 401.5,-0.5 195.5,-0.5"/>
<text text-anchor="middle" x="298.5" y="-91.3" font-family="Times,serif" font-size="14.00">SurveyObservation</text>
<polyline fill="none" stroke="black" points="195.5,-83.5 401.5,-83.5 "/>
<text text-anchor="start" x="203.5" y="-68.3" font-family="Times,serif" font-size="14.00">id : Integer</text>
<text text-anchor="start" x="203.5" y="-53.3" font-family="Times,serif" font-size="14.00">rainfall_centimetres : Integer</text>
<text text-anchor="start" x="203.5" y="-38.3" font-family="Times,serif" font-size="14.00">humidity : Integer</text>
<text text-anchor="start" x="203.5" y="-23.3" font-family="Times,serif" font-size="14.00">temperature : Integer</text>
<text text-anchor="start" x="203.5" y="-8.3" font-family="Times,serif" font-size="14.00">other_observation_details : String</text>
</a>
</g>
</g>
<!-- SurveyObservation&#45;&gt;VillageSurvey -->
<g id="edge6" class="edge"><title>SurveyObservation&#45;&gt;VillageSurvey</title>
<g id="a_edge6"><a xlink:title="SurveyObservation * &#160;&#45;&gt; 0..1 &#160;VillageSurvey">
<path fill="none" stroke="black" d="M292.061,-140.457 292.876,-129.576 293.747,-117.951 294.576,-106.88"/>
<polygon fill="black" stroke="black" points="291.3,-150.619 287.56,-140.31 291.674,-145.633 292.047,-140.647 292.047,-140.647 292.047,-140.647 291.674,-145.633 296.535,-140.983 291.3,-150.619 291.3,-150.619"/>
</a>
</g>
<text text-anchor="middle" x="278.8" y="-139.419" font-family="Times,serif" font-size="14.00">0..1 </text>
<text text-anchor="middle" x="289.076" y="-110.68" font-family="Times,serif" font-size="14.00">* </text>
</g>
<!-- Farm -->
<g id="node9" class="node"><title>Farm</title>
<g id="a_node9"><a xlink:href="javascript:Action.selectClass(&quot;Farm&quot;);" xlink:title="class Farm
">
<polygon fill="none" stroke="black" points="380.5,-158.5 380.5,-219.5 512.5,-219.5 512.5,-158.5 380.5,-158.5"/>
<text text-anchor="middle" x="446.5" y="-204.3" font-family="Times,serif" font-size="14.00">Farm</text>
<polyline fill="none" stroke="black" points="380.5,-196.5 512.5,-196.5 "/>
<text text-anchor="start" x="388.5" y="-181.3" font-family="Times,serif" font-size="14.00">id : String</text>
<text text-anchor="start" x="388.5" y="-166.3" font-family="Times,serif" font-size="14.00">farm_details : String</text>
</a>
</g>
</g>
<!-- Farm&#45;&gt;Village -->
<g id="edge7" class="edge"><title>Farm&#45;&gt;Village</title>
<g id="a_edge7"><a xlink:title="Farm * &#160;&#45;&gt; 0..1 &#160;Village">
<path fill="none" stroke="black" d="M438.689,-261.198 440.23,-247.153 441.873,-232.174 443.253,-219.597"/>
<polygon fill="black" stroke="black" points="437.591,-271.212 434.208,-260.781 438.136,-266.242 438.681,-261.271 438.681,-261.271 438.681,-261.271 438.136,-266.242 443.154,-261.762 437.591,-271.212 437.591,-271.212"/>
</a>
</g>
<text text-anchor="middle" x="425.091" y="-260.012" font-family="Times,serif" font-size="14.00">0..1 </text>
<text text-anchor="middle" x="437.753" y="-223.397" font-family="Times,serif" font-size="14.00">* </text>
</g>
<!-- Bulletin -->
<g id="node10" class="node"><title>Bulletin</title>
<g id="a_node10"><a xlink:href="javascript:Action.selectClass(&quot;Bulletin&quot;);" xlink:title="class Bulletin
">
<polygon fill="none" stroke="black" points="526,-8 526,-99 711,-99 711,-8 526,-8"/>
<text text-anchor="middle" x="618.5" y="-83.8" font-family="Times,serif" font-size="14.00">Bulletin</text>
<polyline fill="none" stroke="black" points="526,-76 711,-76 "/>
<text text-anchor="start" x="534" y="-60.8" font-family="Times,serif" font-size="14.00">id : Integer</text>
<text text-anchor="start" x="534" y="-45.8" font-family="Times,serif" font-size="14.00">next_bulletin_due_date : Date</text>
<text text-anchor="start" x="534" y="-30.8" font-family="Times,serif" font-size="14.00">issued_date : Date</text>
<text text-anchor="start" x="534" y="-15.8" font-family="Times,serif" font-size="14.00">comments : String</text>
</a>
</g>
</g>
<!-- AgriculturalResearchStation -->
<g id="node11" class="node"><title>AgriculturalResearchStation</title>
<g id="a_node11"><a xlink:href="javascript:Action.selectClass(&quot;AgriculturalResearchStation&quot;);" xlink:title="class AgriculturalResearchStation
">
<polygon fill="none" stroke="black" points="530.5,-166 530.5,-212 706.5,-212 706.5,-166 530.5,-166"/>
<text text-anchor="middle" x="618.5" y="-196.8" font-family="Times,serif" font-size="14.00">AgriculturalResearchStation</text>
<polyline fill="none" stroke="black" points="530.5,-189 706.5,-189 "/>
<text text-anchor="start" x="538.5" y="-173.8" font-family="Times,serif" font-size="14.00">name : String</text>
</a>
</g>
</g>
<!-- Bulletin&#45;&gt;AgriculturalResearchStation -->
<g id="edge8" class="edge"><title>Bulletin&#45;&gt;AgriculturalResearchStation</title>
<g id="a_edge8"><a xlink:title="Bulletin * &#160;&#45;&gt; 0..1 &#160;AgriculturalResearchStation">
<path fill="none" stroke="black" d="M618.5,-99.3249C618.5,-117.718 618.5,-138.609 618.5,-155.492"/>
<polygon fill="black" stroke="black" points="618.5,-165.941 614,-155.941 618.5,-160.941 618.5,-155.941 618.5,-155.941 618.5,-155.941 618.5,-160.941 623,-155.941 618.5,-165.941 618.5,-165.941"/>
</a>
</g>
<text text-anchor="middle" x="606" y="-154.741" font-family="Times,serif" font-size="14.00">0..1 </text>
<text text-anchor="middle" x="613" y="-103.125" font-family="Times,serif" font-size="14.00">* </text>
</g>
<!-- AgriculturalZone -->
<g id="node12" class="node"><title>AgriculturalZone</title>
<g id="a_node12"><a xlink:href="javascript:Action.selectClass(&quot;AgriculturalZone&quot;);" xlink:title="class AgriculturalZone
">
<polygon fill="none" stroke="black" points="438.5,-384.5 438.5,-445.5 552.5,-445.5 552.5,-384.5 438.5,-384.5"/>
<text text-anchor="middle" x="495.5" y="-430.3" font-family="Times,serif" font-size="14.00">AgriculturalZone</text>
<polyline fill="none" stroke="black" points="438.5,-422.5 552.5,-422.5 "/>
<text text-anchor="start" x="446.5" y="-407.3" font-family="Times,serif" font-size="14.00">id : Integer</text>
<text text-anchor="start" x="446.5" y="-392.3" font-family="Times,serif" font-size="14.00">details : String</text>
</a>
</g>
</g>
<!-- AgriculturalZone&#45;&gt;District -->
<g id="edge9" class="edge"><title>AgriculturalZone&#45;&gt;District</title>
<g id="a_edge9"><a xlink:title="AgriculturalZone * &#160;&#45;&gt; 0..1 &#160;District">
<path fill="none" stroke="black" d="M495.5,-445.586C495.5,-453.981 495.5,-463.261 495.5,-472.157"/>
<polygon fill="black" stroke="black" points="495.5,-482.346 491,-472.346 495.5,-477.346 495.5,-472.346 495.5,-472.346 495.5,-472.346 495.5,-477.346 500,-472.346 495.5,-482.346 495.5,-482.346"/>
</a>
</g>
<text text-anchor="middle" x="483" y="-471.146" font-family="Times,serif" font-size="14.00">0..1 </text>
<text text-anchor="middle" x="490" y="-449.386" font-family="Times,serif" font-size="14.00">* </text>
</g>
<!-- Village&#45;&gt;Watershed -->
<g id="edge11" class="edge"><title>Village&#45;&gt;Watershed</title>
<g id="a_edge11"><a xlink:title="Village 1 &#160;&#45;&#45; * &#160;Watershed">
<path fill="none" stroke="black" d="M389.282,-384.315 396.142,-372.864 404.064,-359.638 411.292,-347.574"/>
</a>
</g>
<text text-anchor="middle" x="383.782" y="-373.115" font-family="Times,serif" font-size="14.00">* </text>
<text text-anchor="middle" x="405.792" y="-351.374" font-family="Times,serif" font-size="14.00">1 </text>
</g>
<!-- Village&#45;&gt;AgriculturalZone -->
<g id="edge10" class="edge"><title>Village&#45;&gt;AgriculturalZone</title>
<g id="a_edge10"><a xlink:title="Village 1 &#160;&#45;&#45; * &#160;AgriculturalZone">
<path fill="none" stroke="black" d="M455.708,-347.574C462.936,-359.638 470.858,-372.864 477.718,-384.315"/>
</a>
</g>
<text text-anchor="middle" x="472.218" y="-373.115" font-family="Times,serif" font-size="14.00">* </text>
<text text-anchor="middle" x="450.208" y="-351.374" font-family="Times,serif" font-size="14.00">1 </text>
</g>
</g>
</svg>
