<?xml version="1.0" encoding="UTF-8" standalone="no"?>
<!DOCTYPE svg PUBLIC "-//W3C//DTD SVG 1.1//EN"
 "http://www.w3.org/Graphics/SVG/1.1/DTD/svg11.dtd">
<!-- Generated by graphviz version 2.29.20121108.1600 (20121108.1600)
 -->
<!-- Title: AirlineExample Pages: 1 -->
<svg width="639pt" height="252pt"
 viewBox="0.00 0.00 639.00 252.00" xmlns="http://www.w3.org/2000/svg" xmlns:xlink="http://www.w3.org/1999/xlink">
<g id="graph0" class="graph" transform="scale(1 1) rotate(0) translate(4 248)">
<title>AirlineExample</title>
<polygon fill="white" stroke="white" points="-4,5 -4,-248 636,-248 636,5 -4,5"/>
<!-- Airline -->
<g id="node1" class="node"><title>Airline</title>
<g id="a_node1"><a xlink:href="javascript:Action.selectClass(&quot;Airline&quot;);" xlink:title="class Airline
">
<polygon fill="none" stroke="black" points="365.172,-8 365.172,-44 420.828,-44 420.828,-8 365.172,-8"/>
<text text-anchor="middle" x="393" y="-20.5" font-family="Times,serif" font-size="14.00">Airline</text>
</a>
</g>
</g>
<!-- RegularFlight -->
<g id="node2" class="node"><title>RegularFlight</title>
<g id="a_node2"><a xlink:href="javascript:Action.selectClass(&quot;RegularFlight&quot;);" xlink:title="class RegularFlight
">
<polygon fill="none" stroke="black" points="146.014,-88.8 146.014,-155.2 287.986,-155.2 287.986,-88.8 146.014,-88.8"/>
<text text-anchor="middle" x="217" y="-137.2" font-family="Times,serif" font-size="14.00">RegularFlight</text>
<polyline fill="none" stroke="black" points="146.014,-130.4 287.986,-130.4 "/>
<text text-anchor="start" x="154.014" y="-112.4" font-family="Times,serif" font-size="14.00">time : Time</text>
<text text-anchor="start" x="154.014" y="-95.6" font-family="Times,serif" font-size="14.00">flightNumber : Integer</text>
</a>
</g>
</g>
<!-- Airline&#45;&gt;RegularFlight -->
<g id="edge3" class="edge"><title>Airline&#45;&gt;RegularFlight</title>
<path fill="none" stroke="black" d="M365.112,-41.8946C341.656,-54.4225 307.284,-72.7801 277.556,-88.6577"/>
<text text-anchor="middle" x="272.306" y="-74.6577" font-family="Times,serif" font-size="14.00">* </text>
<text text-anchor="middle" x="359.862" y="-27.8946" font-family="Times,serif" font-size="14.00">1 </text>
</g>
<!-- Person -->
<g id="node7" class="node"><title>Person</title>
<g id="a_node7"><a xlink:href="javascript:Action.selectClass(&quot;Person&quot;);" xlink:title="class Person
LAYOUT INFORMATION
">
<polygon fill="none" stroke="black" points="508.352,-88.8 508.352,-155.2 631.648,-155.2 631.648,-88.8 508.352,-88.8"/>
<text text-anchor="middle" x="570" y="-137.2" font-family="Times,serif" font-size="14.00">Person</text>
<polyline fill="none" stroke="black" points="508.352,-130.4 631.648,-130.4 "/>
<text text-anchor="start" x="516.352" y="-112.4" font-family="Times,serif" font-size="14.00">name : String</text>
<text text-anchor="start" x="516.352" y="-95.6" font-family="Times,serif" font-size="14.00">idNumber : Integer</text>
</a>
</g>
</g>
<!-- Airline&#45;&gt;Person -->
<g id="edge4" class="edge"><title>Airline&#45;&gt;Person</title>
<path fill="none" stroke="black" d="M421.046,-41.8946C444.636,-54.4225 479.203,-72.7801 509.1,-88.6577"/>
<text text-anchor="middle" x="503.85" y="-74.6577" font-family="Times,serif" font-size="14.00">* </text>
<text text-anchor="middle" x="426.296" y="-27.8946" font-family="Times,serif" font-size="14.00">1 </text>
</g>
<!-- SpecificFlight -->
<g id="node3" class="node"><title>SpecificFlight</title>
<g id="a_node3"><a xlink:href="javascript:Action.selectClass(&quot;SpecificFlight&quot;);" xlink:title="class SpecificFlight
">
<polygon fill="none" stroke="black" points="169.721,-193.2 169.721,-242.8 264.279,-242.8 264.279,-193.2 169.721,-193.2"/>
<text text-anchor="middle" x="217" y="-224.8" font-family="Times,serif" font-size="14.00">SpecificFlight</text>
<polyline fill="none" stroke="black" points="169.721,-218 264.279,-218 "/>
<text text-anchor="start" x="177.721" y="-200" font-family="Times,serif" font-size="14.00">date : Date</text>
</a>
</g>
</g>
<!-- RegularFlight&#45;&gt;SpecificFlight -->
<g id="edge5" class="edge"><title>RegularFlight&#45;&gt;SpecificFlight</title>
<path fill="none" stroke="black" d="M217,-155.349C217,-167.67 217,-181.484 217,-192.907"/>
<text text-anchor="middle" x="211.75" y="-178.907" font-family="Times,serif" font-size="14.00">* </text>
<text text-anchor="middle" x="211.75" y="-158.149" font-family="Times,serif" font-size="14.00">1 </text>
</g>
<!-- PersonRole -->
<g id="node4" class="node"><title>PersonRole</title>
<g id="a_node4"><a xlink:href="javascript:Action.selectClass(&quot;PersonRole&quot;);" xlink:title="class PersonRole
">
<polygon fill="none" stroke="black" points="439.724,-200 439.724,-236 520.276,-236 520.276,-200 439.724,-200"/>
<text text-anchor="middle" x="480" y="-212.5" font-family="Times,serif" font-size="14.00">PersonRole</text>
</a>
</g>
</g>
<!-- PassengerRole -->
<g id="node5" class="node"><title>PassengerRole</title>
<g id="a_node5"><a xlink:href="javascript:Action.selectClass(&quot;PassengerRole&quot;);" xlink:title="class PassengerRole
">
<polygon fill="none" stroke="black" points="219.786,-1.2 219.786,-50.8 318.214,-50.8 318.214,-1.2 219.786,-1.2"/>
<text text-anchor="middle" x="269" y="-32.8" font-family="Times,serif" font-size="14.00">PassengerRole</text>
<polyline fill="none" stroke="black" points="219.786,-26 318.214,-26 "/>
<text text-anchor="start" x="227.786" y="-8" font-family="Times,serif" font-size="14.00">name : String</text>
</a>
</g>
</g>
<!-- PassengerRole&#45;&gt;PersonRole -->
<g id="edge1" class="edge"><title>PassengerRole&#45;&gt;PersonRole</title>
<path fill="none" stroke="black" d="M318.45,-41.1382C373.873,-57.2165 456.625,-82.0192 461,-88 483.847,-119.231 470.57,-169.585 463.525,-190.46"/>
<polygon fill="none" stroke="black" points="460.183,-189.407 460,-200 466.749,-191.833 460.183,-189.407"/>
</g>
<!-- Booking -->
<g id="node8" class="node"><title>Booking</title>
<g id="a_node8"><a xlink:href="javascript:Action.selectClass(&quot;Booking&quot;);" xlink:title="class Booking
">
<polygon fill="none" stroke="black" points="-0.379395,-97.2 -0.379395,-146.8 128.379,-146.8 128.379,-97.2 -0.379395,-97.2"/>
<text text-anchor="middle" x="64" y="-128.8" font-family="Times,serif" font-size="14.00">Booking</text>
<polyline fill="none" stroke="black" points="-0.379395,-122 128.379,-122 "/>
<text text-anchor="start" x="7.62061" y="-104" font-family="Times,serif" font-size="14.00">seatNumber : String</text>
</a>
</g>
</g>
<!-- PassengerRole&#45;&gt;Booking -->
<g id="edge6" class="edge"><title>PassengerRole&#45;&gt;Booking</title>
<path fill="none" stroke="black" d="M219.637,-49.635C188.359,-63.9768 147.958,-82.5024 116.157,-97.0842"/>
<text text-anchor="middle" x="121.407" y="-83.0842" font-family="Times,serif" font-size="14.00">* </text>
<text text-anchor="middle" x="214.387" y="-35.635" font-family="Times,serif" font-size="14.00">1 </text>
</g>
<!-- EmployeeRole -->
<g id="node6" class="node"><title>EmployeeRole</title>
<g id="a_node6"><a xlink:href="javascript:Action.selectClass(&quot;EmployeeRole&quot;);" xlink:title="class EmployeeRole
">
<polygon fill="none" stroke="black" points="305.607,-97.2 305.607,-146.8 434.393,-146.8 434.393,-97.2 305.607,-97.2"/>
<text text-anchor="middle" x="370" y="-128.8" font-family="Times,serif" font-size="14.00">EmployeeRole</text>
<polyline fill="none" stroke="black" points="305.607,-122 434.393,-122 "/>
<text text-anchor="start" x="313.607" y="-104" font-family="Times,serif" font-size="14.00">jobFunction : String</text>
</a>
</g>
</g>
<!-- EmployeeRole&#45;&gt;PersonRole -->
<g id="edge2" class="edge"><title>EmployeeRole&#45;&gt;PersonRole</title>
<path fill="none" stroke="black" d="M397.983,-146.941C416.766,-163.011 440.187,-183.049 452.158,-193.291"/>
<polygon fill="none" stroke="black" points="450.126,-196.158 460,-200 454.677,-190.84 450.126,-196.158"/>
</g>
<!-- EmployeeRole&#45;&gt;EmployeeRole -->
<g id="edge7" class="edge"><title>EmployeeRole&#45;&gt;EmployeeRole</title>
<path fill="none" stroke="black" d="M434.625,-105.424C444.94,-107.85 452,-113.375 452,-122 452,-130.625 444.94,-136.15 434.625,-138.576"/>
<text text-anchor="middle" x="476.037" y="-124.576" font-family="Times,serif" font-size="14.00">0..1 supervisor</text>
<text text-anchor="middle" x="439.875" y="-91.4238" font-family="Times,serif" font-size="14.00">* </text>
</g>
<!-- EmployeeRole&#45;&gt;SpecificFlight -->
<g id="edge8" class="edge"><title>EmployeeRole&#45;&gt;SpecificFlight</title>
<path fill="none" stroke="black" d="M330.996,-146.963C307.977,-161.106 278.94,-178.946 255.933,-193.08"/>
<text text-anchor="middle" x="261.183" y="-179.08" font-family="Times,serif" font-size="14.00">* </text>
<text text-anchor="middle" x="325.746" y="-149.763" font-family="Times,serif" font-size="14.00">* </text>
</g>
<!-- Person&#45;&gt;PersonRole -->
<g id="edge9" class="edge"><title>Person&#45;&gt;PersonRole</title>
<path fill="none" stroke="black" d="M539.027,-155.349C524.688,-170.326 508.238,-187.507 496.352,-199.921"/>
<text text-anchor="middle" x="484.102" y="-185.921" font-family="Times,serif" font-size="14.00">0..2 </text>
<text text-anchor="middle" x="533.777" y="-158.149" font-family="Times,serif" font-size="14.00">1 </text>
</g>
<!-- Booking&#45;&gt;SpecificFlight -->
<g id="edge10" class="edge"><title>Booking&#45;&gt;SpecificFlight</title>
<path fill="none" stroke="black" d="M103.004,-146.963C126.023,-161.106 155.06,-178.946 178.067,-193.08"/>
<text text-anchor="middle" x="172.817" y="-179.08" font-family="Times,serif" font-size="14.00">1 </text>
<text text-anchor="middle" x="108.254" y="-149.763" font-family="Times,serif" font-size="14.00">* </text>
</g>
</g>
</svg>
