<?xml version="1.0" encoding="UTF-8" standalone="no"?>
<!DOCTYPE svg PUBLIC "-//W3C//DTD SVG 1.1//EN"
 "http://www.w3.org/Graphics/SVG/1.1/DTD/svg11.dtd">
<!-- Generated by graphviz version 2.39.20140502.0445 (20140502.0445)
 -->
<!-- Title: Airline Pages: 1 -->
<svg width="644pt" height="236pt"
 viewBox="0.00 0.00 643.50 236.00" xmlns="http://www.w3.org/2000/svg" xmlns:xlink="http://www.w3.org/1999/xlink">
<g id="graph0" class="graph" transform="scale(1 1) rotate(0) translate(4 232)">
<title>Airline</title>
<polygon fill="white" stroke="none" points="-4,4 -4,-232 639.5,-232 639.5,4 -4,4"/>
<!-- Airline -->
<g id="node1" class="node"><title>Airline</title>
<g id="a_node1"><a xlink:href="javascript:Action.selectClass(&quot;Airline&quot;);" xlink:title="class Airline
">
<polygon fill="none" stroke="black" points="367.5,-5.5 367.5,-41.5 423.5,-41.5 423.5,-5.5 367.5,-5.5"/>
<text text-anchor="middle" x="395.5" y="-19.8" font-family="Times,serif" font-size="14.00">Airline</text>
</a>
</g>
</g>
<!-- RegularFlight -->
<g id="node2" class="node"><title>RegularFlight</title>
<g id="a_node2"><a xlink:href="javascript:Action.selectClass(&quot;RegularFlight&quot;);" xlink:title="class RegularFlight
">
<polygon fill="none" stroke="black" points="147.5,-83.5 147.5,-144.5 289.5,-144.5 289.5,-83.5 147.5,-83.5"/>
<text text-anchor="middle" x="218.5" y="-129.3" font-family="Times,serif" font-size="14.00">RegularFlight</text>
<polyline fill="none" stroke="black" points="147.5,-121.5 289.5,-121.5 "/>
<text text-anchor="start" x="155.5" y="-106.3" font-family="Times,serif" font-size="14.00">time : Time</text>
<text text-anchor="start" x="155.5" y="-91.3" font-family="Times,serif" font-size="14.00">flightNumber : Integer</text>
</a>
</g>
</g>
<!-- Airline&#45;&gt;RegularFlight -->
<g id="edge3" class="edge"><title>Airline&#45;&gt;RegularFlight</title>
<g id="a_edge3"><a xlink:title="Airline 1 &#160;&#45;&#45; * &#160;RegularFlight">
<path fill="none" stroke="black" d="M277.553,-83.4736 307.864,-68.318 343.377,-50.5617 367.454,-38.5231"/>
</a>
</g>
<text text-anchor="middle" x="272.053" y="-72.2736" font-family="Times,serif" font-size="14.00">* </text>
<text text-anchor="middle" x="361.954" y="-27.3231" font-family="Times,serif" font-size="14.00">1 </text>
</g>
<!-- Person -->
<g id="node7" class="node"><title>Person</title>
<g id="a_node7"><a xlink:href="javascript:Action.selectClass(&quot;Person&quot;);" xlink:title="class Person
LAYOUT INFORMATION
">
<polygon fill="none" stroke="black" points="511.5,-83.5 511.5,-144.5 635.5,-144.5 635.5,-83.5 511.5,-83.5"/>
<text text-anchor="middle" x="573.5" y="-129.3" font-family="Times,serif" font-size="14.00">Person</text>
<polyline fill="none" stroke="black" points="511.5,-121.5 635.5,-121.5 "/>
<text text-anchor="start" x="519.5" y="-106.3" font-family="Times,serif" font-size="14.00">name : String</text>
<text text-anchor="start" x="519.5" y="-91.3" font-family="Times,serif" font-size="14.00">idNumber : Integer</text>
</a>
</g>
</g>
<!-- Airline&#45;&gt;Person -->
<g id="edge4" class="edge"><title>Airline&#45;&gt;Person</title>
<g id="a_edge4"><a xlink:title="Airline 1 &#160;&#45;&#45; * &#160;Person">
<path fill="none" stroke="black" d="M423.705,-38.5231C447.918,-50.5617 483.631,-68.318 514.114,-83.4736"/>
</a>
</g>
<text text-anchor="middle" x="508.614" y="-72.2736" font-family="Times,serif" font-size="14.00">* </text>
<text text-anchor="middle" x="429.205" y="-27.3231" font-family="Times,serif" font-size="14.00">1 </text>
</g>
<!-- SpecificFlight -->
<g id="node3" class="node"><title>SpecificFlight</title>
<g id="a_node3"><a xlink:href="javascript:Action.selectClass(&quot;SpecificFlight&quot;);" xlink:title="class SpecificFlight
">
<polygon fill="none" stroke="black" points="171,-181.5 171,-227.5 266,-227.5 266,-181.5 171,-181.5"/>
<text text-anchor="middle" x="218.5" y="-212.3" font-family="Times,serif" font-size="14.00">SpecificFlight</text>
<polyline fill="none" stroke="black" points="171,-204.5 266,-204.5 "/>
<text text-anchor="start" x="179" y="-189.3" font-family="Times,serif" font-size="14.00">date : Date</text>
</a>
</g>
</g>
<!-- RegularFlight&#45;&gt;SpecificFlight -->
<g id="edge5" class="edge"><title>RegularFlight&#45;&gt;SpecificFlight</title>
<g id="a_edge5"><a xlink:title="RegularFlight 1 &#160;&#45;&#45; * &#160;SpecificFlight">
<path fill="none" stroke="black" d="M218.5,-144.962C218.5,-156.897 218.5,-170.385 218.5,-181.403"/>
</a>
</g>
<text text-anchor="middle" x="213" y="-170.203" font-family="Times,serif" font-size="14.00">* </text>
<text text-anchor="middle" x="213" y="-148.762" font-family="Times,serif" font-size="14.00">1 </text>
</g>
<!-- PersonRole -->
<g id="node4" class="node"><title>PersonRole</title>
<g id="a_node4"><a xlink:href="javascript:Action.selectClass(&quot;PersonRole&quot;);" xlink:title="class PersonRole
">
<polygon fill="none" stroke="black" points="443,-186.5 443,-222.5 524,-222.5 524,-186.5 443,-186.5"/>
<text text-anchor="middle" x="483.5" y="-200.8" font-family="Times,serif" font-size="14.00">PersonRole</text>
</a>
</g>
</g>
<!-- PassengerRole -->
<g id="node5" class="node"><title>PassengerRole</title>
<g id="a_node5"><a xlink:href="javascript:Action.selectClass(&quot;PassengerRole&quot;);" xlink:title="class PassengerRole
">
<polygon fill="none" stroke="black" points="221,-0.5 221,-46.5 320,-46.5 320,-0.5 221,-0.5"/>
<text text-anchor="middle" x="270.5" y="-31.3" font-family="Times,serif" font-size="14.00">PassengerRole</text>
<polyline fill="none" stroke="black" points="221,-23.5 320,-23.5 "/>
<text text-anchor="start" x="229" y="-8.3" font-family="Times,serif" font-size="14.00">name : String</text>
</a>
</g>
</g>
<!-- PassengerRole&#45;&gt;PersonRole -->
<g id="edge1" class="edge"><title>PassengerRole&#45;&gt;PersonRole</title>
<path fill="none" stroke="black" d="M320.2,-37.9827C375.904,-53.328 459.08,-77.0421 463.5,-83 484.594,-111.435 472.039,-157.397 465.131,-177.073"/>
<polygon fill="none" stroke="black" points="461.828,-175.91 461.5,-186.5 468.36,-178.426 461.828,-175.91"/>
</g>
<!-- Booking -->
<g id="node8" class="node"><title>Booking</title>
<g id="a_node8"><a xlink:href="javascript:Action.selectClass(&quot;Booking&quot;);" xlink:title="class Booking
">
<polygon fill="none" stroke="black" points="0,-91 0,-137 129,-137 129,-91 0,-91"/>
<text text-anchor="middle" x="64.5" y="-121.8" font-family="Times,serif" font-size="14.00">Booking</text>
<polyline fill="none" stroke="black" points="0,-114 129,-114 "/>
<text text-anchor="start" x="8" y="-98.8" font-family="Times,serif" font-size="14.00">seatNumber : String</text>
</a>
</g>
</g>
<!-- PassengerRole&#45;&gt;Booking -->
<g id="edge6" class="edge"><title>PassengerRole&#45;&gt;Booking</title>
<g id="a_edge6"><a xlink:title="PassengerRole 1 &#160;&#45;&#45; * &#160;Booking">
<path fill="none" stroke="black" d="M115.825,-90.9501 147.943,-77.1518 189.109,-59.4667 220.896,-45.8106"/>
</a>
</g>
<text text-anchor="middle" x="110.325" y="-79.7501" font-family="Times,serif" font-size="14.00">* </text>
<text text-anchor="middle" x="215.396" y="-34.6106" font-family="Times,serif" font-size="14.00">1 </text>
</g>
<!-- EmployeeRole -->
<g id="node6" class="node"><title>EmployeeRole</title>
<g id="a_node6"><a xlink:href="javascript:Action.selectClass(&quot;EmployeeRole&quot;);" xlink:title="class EmployeeRole
">
<polygon fill="none" stroke="black" points="308,-91 308,-137 437,-137 437,-91 308,-91"/>
<text text-anchor="middle" x="372.5" y="-121.8" font-family="Times,serif" font-size="14.00">EmployeeRole</text>
<polyline fill="none" stroke="black" points="308,-114 437,-114 "/>
<text text-anchor="start" x="316" y="-98.8" font-family="Times,serif" font-size="14.00">jobFunction : String</text>
</a>
</g>
</g>
<!-- EmployeeRole&#45;&gt;SpecificFlight -->
<g id="edge8" class="edge"><title>EmployeeRole&#45;&gt;SpecificFlight</title>
<g id="a_edge8"><a xlink:title="EmployeeRole * &#160;&#45;&#45; * &#160;SpecificFlight">
<path fill="none" stroke="black" d="M257.007,-181.371 280.534,-167.85 310.517,-150.62 334.037,-137.104"/>
</a>
</g>
<text text-anchor="middle" x="262.507" y="-170.171" font-family="Times,serif" font-size="14.00">* </text>
<text text-anchor="middle" x="328.537" y="-140.904" font-family="Times,serif" font-size="14.00">* </text>
</g>
<!-- EmployeeRole&#45;&gt;PersonRole -->
<g id="edge2" class="edge"><title>EmployeeRole&#45;&gt;PersonRole</title>
<path fill="none" stroke="black" d="M400.172,-137.231C418.542,-151.989 441.399,-170.351 453.351,-179.953"/>
<polygon fill="none" stroke="black" points="451.512,-182.966 461.5,-186.5 455.896,-177.508 451.512,-182.966"/>
</g>
<!-- EmployeeRole&#45;&gt;EmployeeRole -->
<g id="edge7" class="edge"><title>EmployeeRole&#45;&gt;EmployeeRole</title>
<g id="a_edge7"><a xlink:title="EmployeeRole * &#160;&#45;&#45; 0..1 supervisor EmployeeRole">
<path fill="none" stroke="black" d="M437.18,-98.3867C447.741,-100.622 455,-105.826 455,-114 455,-122.174 447.741,-127.378 437.18,-129.613"/>
</a>
</g>
<text text-anchor="middle" x="478.68" y="-118.413" font-family="Times,serif" font-size="14.00">0..1 supervisor</text>
<text text-anchor="middle" x="442.68" y="-87.1867" font-family="Times,serif" font-size="14.00">* </text>
</g>
<!-- Person&#45;&gt;PersonRole -->
<g id="edge9" class="edge"><title>Person&#45;&gt;PersonRole</title>
<g id="a_edge9"><a xlink:title="Person 1 &#160;&#45;&#45; 0..2 &#160;PersonRole">
<path fill="none" stroke="black" d="M500.813,-186.476 512.756,-174.731 528.955,-158.802 543.03,-144.962"/>
</a>
</g>
<text text-anchor="middle" x="513.313" y="-175.276" font-family="Times,serif" font-size="14.00">0..2 </text>
<text text-anchor="middle" x="537.53" y="-148.762" font-family="Times,serif" font-size="14.00">1 </text>
</g>
<!-- Booking&#45;&gt;SpecificFlight -->
<g id="edge10" class="edge"><title>Booking&#45;&gt;SpecificFlight</title>
<g id="a_edge10"><a xlink:title="Booking * Booking &#45;&#45; 1 &#160;SpecificFlight">
<path fill="none" stroke="black" d="M102.963,-137.104C126.483,-150.62 156.466,-167.85 179.993,-181.371"/>
</a>
</g>
<text text-anchor="middle" x="174.493" y="-170.171" font-family="Times,serif" font-size="14.00">1 </text>
<text text-anchor="middle" x="73.4635" y="-140.904" font-family="Times,serif" font-size="14.00">* Booking</text>
</g>
</g>
</svg>
