<?xml version="1.0" encoding="UTF-8" standalone="no"?>
<!DOCTYPE svg PUBLIC "-//W3C//DTD SVG 1.1//EN"
 "http://www.w3.org/Graphics/SVG/1.1/DTD/svg11.dtd">
<!-- Generated by graphviz version 2.29.20121108.1600 (20121108.1600)
 -->
<!-- Title: BankingSystemA Pages: 1 -->
<svg width="754pt" height="420pt"
 viewBox="0.00 0.00 754.00 420.00" xmlns="http://www.w3.org/2000/svg" xmlns:xlink="http://www.w3.org/1999/xlink">
<g id="graph0" class="graph" transform="scale(1 1) rotate(0) translate(4 416)">
<title>BankingSystemA</title>
<polygon fill="white" stroke="white" points="-4,5 -4,-416 751,-416 751,5 -4,5"/>
<!-- PersonRole -->
<g id="node1" class="node"><title>PersonRole</title>
<g id="a_node1"><a xlink:href="javascript:Action.selectClass(&quot;PersonRole&quot;);" xlink:title="class PersonRole
">
<polygon fill="none" stroke="black" points="154.724,-368 154.724,-404 235.276,-404 235.276,-368 154.724,-368"/>
<text text-anchor="middle" x="195" y="-380.5" font-family="Times,serif" font-size="14.00">PersonRole</text>
</a>
</g>
</g>
<!-- Person -->
<g id="node2" class="node"><title>Person</title>
<g id="a_node2"><a xlink:href="javascript:Action.selectClass(&quot;Person&quot;);" xlink:title="class Person
">
<polygon fill="none" stroke="black" points="-0.603516,-240.4 -0.603516,-323.6 140.604,-323.6 140.604,-240.4 -0.603516,-240.4"/>
<text text-anchor="middle" x="70" y="-305.6" font-family="Times,serif" font-size="14.00">Person</text>
<polyline fill="none" stroke="black" points="-0.603516,-298.8 140.604,-298.8 "/>
<text text-anchor="start" x="7.39648" y="-280.8" font-family="Times,serif" font-size="14.00">name : String</text>
<text text-anchor="start" x="7.39648" y="-264" font-family="Times,serif" font-size="14.00">address : String</text>
<text text-anchor="start" x="7.39648" y="-247.2" font-family="Times,serif" font-size="14.00">phoneNumber : String</text>
</a>
</g>
</g>
<!-- Person&#45;&gt;PersonRole -->
<g id="edge7" class="edge"><title>Person&#45;&gt;PersonRole</title>
<path fill="none" stroke="black" d="M119.762,-323.606C138.69,-339.051 159.244,-355.823 174.079,-367.928"/>
<text text-anchor="middle" x="168.829" y="-353.928" font-family="Times,serif" font-size="14.00">* </text>
<text text-anchor="middle" x="114.512" y="-326.406" font-family="Times,serif" font-size="14.00">1 </text>
</g>
<!-- Employee -->
<g id="node3" class="node"><title>Employee</title>
<g id="a_node3"><a xlink:href="javascript:Action.selectClass(&quot;Employee&quot;);" xlink:title="class Employee
">
<polygon fill="none" stroke="black" points="158.621,-264 158.621,-300 231.379,-300 231.379,-264 158.621,-264"/>
<text text-anchor="middle" x="195" y="-276.5" font-family="Times,serif" font-size="14.00">Employee</text>
</a>
</g>
</g>
<!-- Employee&#45;&gt;PersonRole -->
<g id="edge1" class="edge"><title>Employee&#45;&gt;PersonRole</title>
<path fill="none" stroke="black" d="M196.012,-300.201C197.028,-317.471 198.559,-343.503 199.398,-357.763"/>
<polygon fill="none" stroke="black" points="195.919,-358.223 200,-368 202.907,-357.812 195.919,-358.223"/>
</g>
<!-- Client -->
<g id="node4" class="node"><title>Client</title>
<g id="a_node4"><a xlink:href="javascript:Action.selectClass(&quot;Client&quot;);" xlink:title="class Client
">
<polygon fill="none" stroke="black" points="322.396,-0.4 322.396,-83.6 463.604,-83.6 463.604,-0.4 322.396,-0.4"/>
<text text-anchor="middle" x="393" y="-65.6" font-family="Times,serif" font-size="14.00">Client</text>
<polyline fill="none" stroke="black" points="322.396,-58.8 463.604,-58.8 "/>
<text text-anchor="start" x="330.396" y="-40.8" font-family="Times,serif" font-size="14.00">name : String</text>
<text text-anchor="start" x="330.396" y="-24" font-family="Times,serif" font-size="14.00">address : String</text>
<text text-anchor="start" x="330.396" y="-7.2" font-family="Times,serif" font-size="14.00">phoneNumber : String</text>
</a>
</g>
</g>
<!-- Client&#45;&gt;PersonRole -->
<g id="edge2" class="edge"><title>Client&#45;&gt;PersonRole</title>
<path fill="none" stroke="black" d="M375.456,-83.8905C350.062,-140.707 299.529,-245.402 240,-324 229.529,-337.826 215.574,-352.455 207.218,-360.878"/>
<polygon fill="none" stroke="black" points="204.66,-358.485 200,-368 209.577,-363.468 204.66,-358.485"/>
</g>
<!-- Account -->
<g id="node6" class="node"><title>Account</title>
<g id="a_node6"><a xlink:href="javascript:Action.selectClass(&quot;Account&quot;);" xlink:title="class Account
Positioning
">
<polygon fill="none" stroke="black" points="430.031,-120.4 430.031,-203.6 585.969,-203.6 585.969,-120.4 430.031,-120.4"/>
<text text-anchor="middle" x="508" y="-185.6" font-family="Times,serif" font-size="14.00">Account</text>
<polyline fill="none" stroke="black" points="430.031,-178.8 585.969,-178.8 "/>
<text text-anchor="start" x="438.031" y="-160.8" font-family="Times,serif" font-size="14.00">accountNumber : Integer</text>
<text text-anchor="start" x="438.031" y="-144" font-family="Times,serif" font-size="14.00">balance : Float</text>
<text text-anchor="start" x="438.031" y="-127.2" font-family="Times,serif" font-size="14.00">creditLimit : Float</text>
</a>
</g>
</g>
<!-- Client&#45;&gt;Account -->
<g id="edge8" class="edge"><title>Client&#45;&gt;Account</title>
<path fill="none" stroke="black" d="M432.576,-83.6089C444.141,-95.4755 456.781,-108.445 468.351,-120.316"/>
<text text-anchor="middle" x="480.601" y="-106.316" font-family="Times,serif" font-size="14.00">1..* </text>
<text text-anchor="middle" x="420.326" y="-86.4089" font-family="Times,serif" font-size="14.00">1..2 </text>
</g>
<!-- Manager -->
<g id="node5" class="node"><title>Manager</title>
<g id="a_node5"><a xlink:href="javascript:Action.selectClass(&quot;Manager&quot;);" xlink:title="class Manager
">
<polygon fill="none" stroke="black" points="113.124,-144 113.124,-180 178.876,-180 178.876,-144 113.124,-144"/>
<text text-anchor="middle" x="146" y="-156.5" font-family="Times,serif" font-size="14.00">Manager</text>
</a>
</g>
</g>
<!-- Manager&#45;&gt;Employee -->
<g id="edge3" class="edge"><title>Manager&#45;&gt;Employee</title>
<path fill="none" stroke="black" d="M148.197,-180.158C154.201,-199.734 167.321,-231.97 178.359,-254.718"/>
<polygon fill="none" stroke="black" points="175.317,-256.459 182.936,-263.821 181.571,-253.314 175.317,-256.459"/>
</g>
<!-- Manager&#45;&gt;Employee -->
<g id="edge9" class="edge"><title>Manager&#45;&gt;Employee</title>
<path fill="none" stroke="black" d="M158.053,-180.158C169.772,-202.53 185.929,-241.439 192.797,-263.821"/>
<text text-anchor="middle" x="187.547" y="-249.821" font-family="Times,serif" font-size="14.00">* </text>
<text text-anchor="middle" x="145.803" y="-182.958" font-family="Times,serif" font-size="14.00">0..1 </text>
</g>
<!-- AccountType -->
<g id="node7" class="node"><title>AccountType</title>
<g id="a_node7"><a xlink:href="javascript:Action.selectClass(&quot;AccountType&quot;);" xlink:title="class AccountType
">
<polygon fill="none" stroke="black" points="446.724,-248.8 446.724,-315.2 569.276,-315.2 569.276,-248.8 446.724,-248.8"/>
<text text-anchor="middle" x="508" y="-297.2" font-family="Times,serif" font-size="14.00">AccountType</text>
<polyline fill="none" stroke="black" points="446.724,-290.4 569.276,-290.4 "/>
<text text-anchor="start" x="454.724" y="-272.4" font-family="Times,serif" font-size="14.00">monthlyFee : Float</text>
<text text-anchor="start" x="454.724" y="-255.6" font-family="Times,serif" font-size="14.00">interestRate : Float</text>
</a>
</g>
</g>
<!-- Account&#45;&gt;AccountType -->
<g id="edge10" class="edge"><title>Account&#45;&gt;AccountType</title>
<path fill="none" stroke="black" d="M508,-203.609C508,-214.838 508,-227.055 508,-238.394"/>
<polygon fill="black" stroke="black" points="508,-248.507 503.5,-238.507 508,-243.507 508,-238.507 508,-238.507 508,-238.507 508,-243.507 512.5,-238.507 508,-248.507 508,-248.507"/>
<text text-anchor="middle" x="502.75" y="-234.507" font-family="Times,serif" font-size="14.00">1 </text>
<text text-anchor="middle" x="502.75" y="-206.409" font-family="Times,serif" font-size="14.00">* </text>
</g>
<!-- Privilege -->
<g id="node8" class="node"><title>Privilege</title>
<g id="a_node8"><a xlink:href="javascript:Action.selectClass(&quot;Privilege&quot;);" xlink:title="class Privilege
">
<polygon fill="none" stroke="black" points="446.338,-361.2 446.338,-410.8 569.662,-410.8 569.662,-361.2 446.338,-361.2"/>
<text text-anchor="middle" x="508" y="-392.8" font-family="Times,serif" font-size="14.00">Privilege</text>
<polyline fill="none" stroke="black" points="446.338,-386 569.662,-386 "/>
<text text-anchor="start" x="454.338" y="-368" font-family="Times,serif" font-size="14.00">description : String</text>
</a>
</g>
</g>
<!-- AccountType&#45;&gt;Privilege -->
<g id="edge11" class="edge"><title>AccountType&#45;&gt;Privilege</title>
<path fill="none" stroke="black" d="M508,-315.273C508,-330.098 508,-347.374 508,-361.021"/>
<text text-anchor="middle" x="502.75" y="-347.021" font-family="Times,serif" font-size="14.00">* </text>
<text text-anchor="middle" x="502.75" y="-318.073" font-family="Times,serif" font-size="14.00">* </text>
</g>
<!-- CreditCardAccount -->
<g id="node9" class="node"><title>CreditCardAccount</title>
<g id="a_node9"><a xlink:href="javascript:Action.selectClass(&quot;CreditCardAccount&quot;);" xlink:title="class CreditCardAccount
">
<polygon fill="none" stroke="black" points="618.183,-17.2 618.183,-66.8 743.817,-66.8 743.817,-17.2 618.183,-17.2"/>
<text text-anchor="middle" x="681" y="-48.8" font-family="Times,serif" font-size="14.00">CreditCardAccount</text>
<polyline fill="none" stroke="black" points="618.183,-42 743.817,-42 "/>
<text text-anchor="start" x="626.183" y="-24" font-family="Times,serif" font-size="14.00">expiryDate : Date</text>
</a>
</g>
</g>
<!-- CreditCardAccount&#45;&gt;Account -->
<g id="edge4" class="edge"><title>CreditCardAccount&#45;&gt;Account</title>
<path fill="none" stroke="black" d="M639.069,-66.897C628.937,-72.5752 618.114,-78.5615 608,-84 586.335,-95.6498 560.53,-108.715 547.117,-115.446"/>
<polygon fill="none" stroke="black" points="545.382,-112.4 538,-120 548.51,-118.662 545.382,-112.4"/>
</g>
<!-- Card -->
<g id="node11" class="node"><title>Card</title>
<g id="a_node11"><a xlink:href="javascript:Action.selectClass(&quot;Card&quot;);" xlink:title="class Card
">
<polygon fill="none" stroke="black" points="615.845,-137.2 615.845,-186.8 746.155,-186.8 746.155,-137.2 615.845,-137.2"/>
<text text-anchor="middle" x="681" y="-168.8" font-family="Times,serif" font-size="14.00">Card</text>
<polyline fill="none" stroke="black" points="615.845,-162 746.155,-162 "/>
<text text-anchor="start" x="623.845" y="-144" font-family="Times,serif" font-size="14.00">holderName : String</text>
</a>
</g>
</g>
<!-- CreditCardAccount&#45;&gt;Card -->
<g id="edge12" class="edge"><title>CreditCardAccount&#45;&gt;Card</title>
<path fill="none" stroke="black" d="M681,-66.8791C681,-87.3515 681,-116.694 681,-137.156"/>
<text text-anchor="middle" x="668.75" y="-123.156" font-family="Times,serif" font-size="14.00">1..* </text>
<text text-anchor="middle" x="686.25" y="-69.6791" font-family="Times,serif" font-size="14.00">1 </text>
</g>
<!-- MortgageAccount -->
<g id="node10" class="node"><title>MortgageAccount</title>
<g id="a_node10"><a xlink:href="javascript:Action.selectClass(&quot;MortgageAccount&quot;);" xlink:title="class MortgageAccount
">
<polygon fill="none" stroke="black" points="482.072,-17.2 482.072,-66.8 599.928,-66.8 599.928,-17.2 482.072,-17.2"/>
<text text-anchor="middle" x="541" y="-48.8" font-family="Times,serif" font-size="14.00">MortgageAccount</text>
<polyline fill="none" stroke="black" points="482.072,-42 599.928,-42 "/>
<text text-anchor="start" x="490.072" y="-24" font-family="Times,serif" font-size="14.00">collateral : String</text>
</a>
</g>
</g>
<!-- MortgageAccount&#45;&gt;Account -->
<g id="edge5" class="edge"><title>MortgageAccount&#45;&gt;Account</title>
<path fill="none" stroke="black" d="M540.067,-66.9412C539.503,-81.4216 538.813,-99.1243 538.39,-109.978"/>
<polygon fill="none" stroke="black" points="534.892,-109.871 538,-120 541.887,-110.144 534.892,-109.871"/>
</g>
<!-- Division -->
<g id="node12" class="node"><title>Division</title>
<g id="a_node12"><a xlink:href="javascript:Action.selectClass(&quot;Division&quot;);" xlink:title="class Division
">
<polygon fill="none" stroke="black" points="197.283,-137.2 197.283,-186.8 288.717,-186.8 288.717,-137.2 197.283,-137.2"/>
<text text-anchor="middle" x="243" y="-168.8" font-family="Times,serif" font-size="14.00">Division</text>
<polyline fill="none" stroke="black" points="197.283,-162 288.717,-162 "/>
<text text-anchor="start" x="205.283" y="-144" font-family="Times,serif" font-size="14.00">name : String</text>
</a>
</g>
</g>
<!-- Division&#45;&gt;Employee -->
<g id="edge13" class="edge"><title>Division&#45;&gt;Employee</title>
<path fill="none" stroke="black" d="M233.286,-186.879C224.027,-209.641 210.308,-243.369 202.052,-263.664"/>
<text text-anchor="middle" x="207.302" y="-249.664" font-family="Times,serif" font-size="14.00">* </text>
<text text-anchor="middle" x="238.536" y="-189.679" font-family="Times,serif" font-size="14.00">1 </text>
</g>
<!-- Division&#45;&gt;Division -->
<g id="edge14" class="edge"><title>Division&#45;&gt;Division</title>
<path fill="none" stroke="black" d="M288.87,-140.165C298.799,-142.3 306,-149.578 306,-162 306,-174.422 298.799,-181.7 288.87,-183.835"/>
<text text-anchor="middle" x="327.958" y="-169.835" font-family="Times,serif" font-size="14.00">* subDivision</text>
<text text-anchor="middle" x="301.12" y="-126.165" font-family="Times,serif" font-size="14.00">0..1 </text>
</g>
<!-- Branch -->
<g id="node13" class="node"><title>Branch</title>
<g id="a_node13"><a xlink:href="javascript:Action.selectClass(&quot;Branch&quot;);" xlink:title="class Branch
">
<polygon fill="none" stroke="black" points="159.458,-8.8 159.458,-75.2 304.542,-75.2 304.542,-8.8 159.458,-8.8"/>
<text text-anchor="middle" x="232" y="-57.2" font-family="Times,serif" font-size="14.00">Branch</text>
<polyline fill="none" stroke="black" points="159.458,-50.4 304.542,-50.4 "/>
<text text-anchor="start" x="167.458" y="-32.4" font-family="Times,serif" font-size="14.00">address : String</text>
<text text-anchor="start" x="167.458" y="-15.6" font-family="Times,serif" font-size="14.00">branchNumber : String</text>
</a>
</g>
</g>
<!-- Branch&#45;&gt;Division -->
<g id="edge6" class="edge"><title>Branch&#45;&gt;Division</title>
<path fill="none" stroke="black" d="M235.006,-75.244C236.498,-91.2532 238.301,-110.597 239.817,-126.858"/>
<polygon fill="none" stroke="black" points="236.353,-127.4 240.766,-137.032 243.322,-126.75 236.353,-127.4"/>
</g>
<!-- Branch&#45;&gt;Account -->
<g id="edge15" class="edge"><title>Branch&#45;&gt;Account</title>
<path fill="none" stroke="black" d="M294.516,-75.3632C300.725,-78.3601 306.962,-81.2867 313,-84 351.014,-101.082 394.032,-118.287 429.974,-132.088"/>
<text text-anchor="middle" x="424.724" y="-118.088" font-family="Times,serif" font-size="14.00">* </text>
<text text-anchor="middle" x="289.266" y="-78.1632" font-family="Times,serif" font-size="14.00">1 </text>
</g>
</g>
</svg>
