<?xml version="1.0" encoding="UTF-8" standalone="no"?>
<!DOCTYPE svg PUBLIC "-//W3C//DTD SVG 1.1//EN"
 "http://www.w3.org/Graphics/SVG/1.1/DTD/svg11.dtd">
<!-- Generated by graphviz version 2.40.1 (20161225.0304)
 -->
<!-- Title: BankingSystemB Pages: 1 -->
<svg width="564pt" height="560pt"
 viewBox="0.00 0.00 564.00 560.00" xmlns="http://www.w3.org/2000/svg" xmlns:xlink="http://www.w3.org/1999/xlink">
<g id="graph0" class="graph" transform="scale(1 1) rotate(0) translate(4 556)">
<title>BankingSystemB</title>
<polygon fill="#ffffff" stroke="transparent" points="-4,4 -4,-556 560,-556 560,4 -4,4"/>
<!-- FinancialInstitution -->
<g id="node1" class="node">
<title>FinancialInstitution</title>
<g id="a_node1"><a xlink:href="javascript:Action.selectClass(&quot;FinancialInstitution&quot;);" xlink:title="class FinancialInstitution&#10;">
<text text-anchor="start" x="14.6724" y="-106.8" font-family="Times,serif" font-size="14.00" fill="#000000"> &#160;&#160;&#160;FinancialInstitution &#160;&#160;&#160;</text>
<g id="a_node1_0"><a xlink:href="javascript:Action.selectClass(&quot;FinancialInstitution&quot;);" xlink:title="String name&#13;">
<text text-anchor="start" x="13" y="-86.8" font-family="Times,serif" font-size="14.00" fill="#000000"> &#160;name : String &#160;</text>
</a>
</g>
<polygon fill="#000000" stroke="#000000" points="10,-100 10,-100 157,-100 157,-100 10,-100"/>
<polygon fill="none" stroke="#000000" points="9.5,-81 9.5,-123 156.5,-123 156.5,-81 9.5,-81"/>
</a>
</g>
</g>
<!-- ReusableFinancialInstrument -->
<g id="node5" class="node">
<title>ReusableFinancialInstrument</title>
<g id="a_node5"><a xlink:href="javascript:Action.selectClass(&quot;ReusableFinancialInstrument&quot;);" xlink:title="class ReusableFinancialInstrument&#10;">
<text text-anchor="start" x="69.9653" y="-430.8" font-family="Times,serif" font-size="14.00" fill="#000000"> &#160;&#160;&#160;ReusableFinancialInstrument &#160;&#160;&#160;</text>
<g id="a_node5_1"><a xlink:href="javascript:Action.selectClass(&quot;ReusableFinancialInstrument&quot;);" xlink:title="String number&#13;">
<text text-anchor="start" x="68" y="-410.8" font-family="Times,serif" font-size="14.00" fill="#000000"> &#160;number : String &#160;</text>
</a>
</g>
<g id="a_node5_2"><a xlink:href="javascript:Action.selectClass(&quot;ReusableFinancialInstrument&quot;);" xlink:title="String pin&#13;">
<text text-anchor="start" x="68" y="-392.8" font-family="Times,serif" font-size="14.00" fill="#000000"> &#160;pin : String &#160;</text>
</a>
</g>
<polygon fill="#000000" stroke="#000000" points="65,-424 65,-424 267,-424 267,-424 65,-424"/>
<polygon fill="none" stroke="#000000" points="65,-387 65,-447 267,-447 267,-387 65,-387"/>
</a>
</g>
</g>
<!-- FinancialInstitution&#45;&gt;ReusableFinancialInstrument -->
<g id="edge9" class="edge">
<title>FinancialInstitution&#45;&gt;ReusableFinancialInstrument</title>
<g id="a_edge9"><a xlink:title="FinancialInstitution 1 &#160;&#45;&#45; * &#160;ReusableFinancialInstrument">
<path fill="none" stroke="#000000" d="M76.143,-123.1921C63.3491,-166.6743 40.1407,-268.0968 75,-342 83.472,-359.9609 98.5886,-375.0785 114.0982,-386.9289"/>
</a>
</g>
<text text-anchor="middle" x="108.8482" y="-375.7289" font-family="Times,serif" font-size="14.00" fill="#000000">* </text>
<text text-anchor="middle" x="70.893" y="-125.9921" font-family="Times,serif" font-size="14.00" fill="#000000">1 </text>
</g>
<!-- CreditCardCompany -->
<g id="node2" class="node">
<title>CreditCardCompany</title>
<g id="a_node2"><a xlink:href="javascript:Action.selectClass(&quot;CreditCardCompany&quot;);" xlink:title="class CreditCardCompany&#10;">
<text text-anchor="start" x="10.6758" y="-13.8" font-family="Times,serif" font-size="14.00" fill="#000000"> &#160;&#160;&#160;CreditCardCompany &#160;&#160;&#160;</text>
<polygon fill="none" stroke="#000000" points="0,0 0,-36 166,-36 166,0 0,0"/>
</a>
</g>
</g>
<!-- CreditCardCompany&#45;&gt;FinancialInstitution -->
<g id="edge1" class="edge">
<title>CreditCardCompany&#45;&gt;FinancialInstitution</title>
<path fill="none" stroke="#000000" d="M86.4709,-36.2222C88.6306,-47.5604 91.3253,-61.7079 93.101,-71.0305"/>
<polygon fill="none" stroke="#000000" points="89.6906,-71.8315 95,-81 96.567,-70.5217 89.6906,-71.8315"/>
</g>
<!-- Bank -->
<g id="node3" class="node">
<title>Bank</title>
<g id="a_node3"><a xlink:href="javascript:Action.selectClass(&quot;Bank&quot;);" xlink:title="class Bank&#10;">
<text text-anchor="start" x="197.7241" y="-13.8" font-family="Times,serif" font-size="14.00" fill="#000000"> &#160;&#160;&#160;Bank &#160;&#160;&#160;</text>
<polygon fill="none" stroke="#000000" points="186.5,0 186.5,-36 265.5,-36 265.5,0 186.5,0"/>
</a>
</g>
</g>
<!-- Bank&#45;&gt;FinancialInstitution -->
<g id="edge2" class="edge">
<title>Bank&#45;&gt;FinancialInstitution</title>
<path fill="none" stroke="#000000" d="M188.4607,-36.0533C159.428,-50.0156 121.3727,-68.3169 104.1596,-76.595"/>
<polygon fill="none" stroke="#000000" points="102.4951,-73.5117 95,-81 105.5289,-79.8201 102.4951,-73.5117"/>
</g>
<!-- Branch -->
<g id="node11" class="node">
<title>Branch</title>
<g id="a_node11"><a xlink:href="javascript:Action.selectClass(&quot;Branch&quot;);" xlink:title="class Branch&#10;">
<text text-anchor="start" x="207.2861" y="-115.8" font-family="Times,serif" font-size="14.00" fill="#000000"> &#160;&#160;&#160;Branch &#160;&#160;&#160;</text>
<g id="a_node11_3"><a xlink:href="javascript:Action.selectClass(&quot;Branch&quot;);" xlink:title="String name&#13;">
<text text-anchor="start" x="191" y="-95.8" font-family="Times,serif" font-size="14.00" fill="#000000"> &#160;name : String &#160;</text>
</a>
</g>
<g id="a_node11_4"><a xlink:href="javascript:Action.selectClass(&quot;Branch&quot;);" xlink:title="String address&#13;">
<text text-anchor="start" x="190.9482" y="-77.8" font-family="Times,serif" font-size="14.00" fill="#000000"> &#160;address : String &#160;</text>
</a>
</g>
<polygon fill="#000000" stroke="#000000" points="188,-109 188,-109 295,-109 295,-109 188,-109"/>
<polygon fill="none" stroke="#000000" points="187.5,-72 187.5,-132 294.5,-132 294.5,-72 187.5,-72"/>
</a>
</g>
</g>
<!-- Bank&#45;&gt;Branch -->
<g id="edge10" class="edge">
<title>Bank&#45;&gt;Branch</title>
<g id="a_edge10"><a xlink:title="Bank 1 &#160;&#45;&#45; * &#160;Branch">
<path fill="none" stroke="#000000" d="M229.2548,-36.2267C231.1159,-46.6492 233.4971,-59.9839 235.6283,-71.9187"/>
</a>
</g>
<text text-anchor="middle" x="230.3783" y="-60.7187" font-family="Times,serif" font-size="14.00" fill="#000000">* </text>
<text text-anchor="middle" x="224.0048" y="-39.0267" font-family="Times,serif" font-size="14.00" fill="#000000">1 </text>
</g>
<!-- FinancialInstrument -->
<g id="node4" class="node">
<title>FinancialInstrument</title>
<g id="a_node4"><a xlink:href="javascript:Action.selectClass(&quot;FinancialInstrument&quot;);" xlink:title="class FinancialInstrument&#10;">
<text text-anchor="start" x="295.624" y="-517.8" font-family="Times,serif" font-size="14.00" fill="#000000"> &#160;&#160;&#160;FinancialInstrument &#160;&#160;&#160;</text>
<polygon fill="none" stroke="#000000" points="285,-504 285,-540 447,-540 447,-504 285,-504"/>
</a>
</g>
</g>
<!-- ReusableFinancialInstrument&#45;&gt;FinancialInstrument -->
<g id="edge3" class="edge">
<title>ReusableFinancialInstrument&#45;&gt;FinancialInstrument</title>
<path fill="none" stroke="#000000" d="M234.4176,-447.0623C279.1294,-466.7084 333.0698,-490.4095 354.5292,-499.8386"/>
<polygon fill="none" stroke="#000000" points="353.4368,-503.1815 364,-504 356.2528,-496.7729 353.4368,-503.1815"/>
</g>
<!-- Currency -->
<g id="node10" class="node">
<title>Currency</title>
<g id="a_node10"><a xlink:href="javascript:Action.selectClass(&quot;Currency&quot;);" xlink:title="class Currency&#10;">
<text text-anchor="start" x="126.4551" y="-535.8" font-family="Times,serif" font-size="14.00" fill="#000000"> &#160;&#160;&#160;Currency &#160;&#160;&#160;</text>
<g id="a_node10_5"><a xlink:href="javascript:Action.selectClass(&quot;Currency&quot;);" xlink:title="String code&#13;">
<text text-anchor="start" x="98" y="-515.8" font-family="Times,serif" font-size="14.00" fill="#000000"> &#160;code : String &#160;</text>
</a>
</g>
<g id="a_node10_6"><a xlink:href="javascript:Action.selectClass(&quot;Currency&quot;);" xlink:title="String exchangeRate&#13;">
<text text-anchor="start" x="97.686" y="-497.8" font-family="Times,serif" font-size="14.00" fill="#000000"> &#160;exchangeRate : String &#160;</text>
</a>
</g>
<polygon fill="#000000" stroke="#000000" points="95,-529 95,-529 238,-529 238,-529 95,-529"/>
<polygon fill="none" stroke="#000000" points="94.5,-492 94.5,-552 237.5,-552 237.5,-492 94.5,-492"/>
</a>
</g>
</g>
<!-- ReusableFinancialInstrument&#45;&gt;Currency -->
<g id="edge11" class="edge">
<title>ReusableFinancialInstrument&#45;&gt;Currency</title>
<g id="a_edge11"><a xlink:title="ReusableFinancialInstrument * &#160;&#45;&gt; 1 &#160;Currency">
<path fill="none" stroke="#000000" d="M166,-447.0888C166,-457.8529 166,-470.1644 166,-481.6541"/>
<polygon fill="#000000" stroke="#000000" points="166,-491.9068 161.5001,-481.9068 166,-486.9068 166.0001,-481.9068 166.0001,-481.9068 166.0001,-481.9068 166,-486.9068 170.5001,-481.9069 166,-491.9068 166,-491.9068"/>
</a>
</g>
<text text-anchor="middle" x="160.75" y="-480.7068" font-family="Times,serif" font-size="14.00" fill="#000000">1 </text>
<text text-anchor="middle" x="160.75" y="-449.8888" font-family="Times,serif" font-size="14.00" fill="#000000">* </text>
</g>
<!-- CreditCard -->
<g id="node6" class="node">
<title>CreditCard</title>
<g id="a_node6"><a xlink:href="javascript:Action.selectClass(&quot;CreditCard&quot;);" xlink:title="class CreditCard&#10;">
<text text-anchor="start" x="228.8965" y="-325.8" font-family="Times,serif" font-size="14.00" fill="#000000"> &#160;&#160;&#160;CreditCard &#160;&#160;&#160;</text>
<g id="a_node6_7"><a xlink:href="javascript:Action.selectClass(&quot;CreditCard&quot;);" xlink:title="String creditLimit&#13;">
<text text-anchor="start" x="212.9517" y="-305.8" font-family="Times,serif" font-size="14.00" fill="#000000"> &#160;creditLimit : String &#160;</text>
</a>
</g>
<g id="a_node6_8"><a xlink:href="javascript:Action.selectClass(&quot;CreditCard&quot;);" xlink:title="String name&#13;">
<text text-anchor="start" x="213" y="-287.8" font-family="Times,serif" font-size="14.00" fill="#000000"> &#160;name : String &#160;</text>
</a>
</g>
<polygon fill="#000000" stroke="#000000" points="210,-319 210,-319 338,-319 338,-319 210,-319"/>
<polygon fill="none" stroke="#000000" points="210,-282 210,-342 338,-342 338,-282 210,-282"/>
</a>
</g>
</g>
<!-- CreditCard&#45;&gt;ReusableFinancialInstrument -->
<g id="edge4" class="edge">
<title>CreditCard&#45;&gt;ReusableFinancialInstrument</title>
<path fill="none" stroke="#000000" d="M233.9024,-342.0732C214.7756,-356.4183 193.6349,-372.2738 182.2898,-380.7826"/>
<polygon fill="none" stroke="#000000" points="179.9,-378.2 174,-387 184.1,-383.8 179.9,-378.2"/>
</g>
<!-- DebitCard -->
<g id="node7" class="node">
<title>DebitCard</title>
<g id="a_node7"><a xlink:href="javascript:Action.selectClass(&quot;DebitCard&quot;);" xlink:title="class DebitCard&#10;">
<text text-anchor="start" x="94.8413" y="-307.8" font-family="Times,serif" font-size="14.00" fill="#000000"> &#160;&#160;&#160;DebitCard &#160;&#160;&#160;</text>
<polygon fill="none" stroke="#000000" points="84,-294 84,-330 192,-330 192,-294 84,-294"/>
</a>
</g>
</g>
<!-- DebitCard&#45;&gt;ReusableFinancialInstrument -->
<g id="edge5" class="edge">
<title>DebitCard&#45;&gt;ReusableFinancialInstrument</title>
<path fill="none" stroke="#000000" d="M146.7146,-330.1554C153.9562,-345.2421 163.9589,-366.0811 169.6239,-377.8832"/>
<polygon fill="none" stroke="#000000" points="166.5173,-379.4993 174,-387 172.828,-376.4702 166.5173,-379.4993"/>
</g>
<!-- Cheque -->
<g id="node8" class="node">
<title>Cheque</title>
<g id="a_node8"><a xlink:href="javascript:Action.selectClass(&quot;Cheque&quot;);" xlink:title="class Cheque&#10;Positioning&#13;">
<text text-anchor="start" x="439.6172" y="-439.8" font-family="Times,serif" font-size="14.00" fill="#000000"> &#160;&#160;&#160;Cheque &#160;&#160;&#160;</text>
<g id="a_node8_9"><a xlink:href="javascript:Action.selectClass(&quot;Cheque&quot;);" xlink:title="String amount&#13;">
<text text-anchor="start" x="397" y="-419.8" font-family="Times,serif" font-size="14.00" fill="#000000"> &#160;amount : String &#160;</text>
</a>
</g>
<g id="a_node8_10"><a xlink:href="javascript:Action.selectClass(&quot;Cheque&quot;);" xlink:title="Date date&#13;">
<text text-anchor="start" x="397" y="-401.8" font-family="Times,serif" font-size="14.00" fill="#000000"> &#160;date : Date &#160;</text>
</a>
</g>
<g id="a_node8_11"><a xlink:href="javascript:Action.selectClass(&quot;Cheque&quot;);" xlink:title="String sequenceNumber&#13;">
<text text-anchor="start" x="396.8516" y="-383.8" font-family="Times,serif" font-size="14.00" fill="#000000"> &#160;sequenceNumber : String &#160;</text>
</a>
</g>
<polygon fill="#000000" stroke="#000000" points="394,-433 394,-433 556,-433 556,-433 394,-433"/>
<polygon fill="none" stroke="#000000" points="394,-378 394,-456 556,-456 556,-378 394,-378"/>
</a>
</g>
</g>
<!-- Cheque&#45;&gt;FinancialInstrument -->
<g id="edge6" class="edge">
<title>Cheque&#45;&gt;FinancialInstrument</title>
<path fill="none" stroke="#000000" d="M425.0202,-456.1734C404.7649,-472.0491 383.519,-488.7013 372.2185,-497.5585"/>
<polygon fill="none" stroke="#000000" points="369.7115,-495.0764 364,-504 374.0297,-500.5858 369.7115,-495.0764"/>
</g>
<!-- BankAccount -->
<g id="node9" class="node">
<title>BankAccount</title>
<g id="a_node9"><a xlink:href="javascript:Action.selectClass(&quot;BankAccount&quot;);" xlink:title="class BankAccount&#10;">
<text text-anchor="start" x="307.0103" y="-229.8" font-family="Times,serif" font-size="14.00" fill="#000000"> &#160;&#160;&#160;BankAccount &#160;&#160;&#160;</text>
<g id="a_node9_12"><a xlink:href="javascript:Action.selectClass(&quot;BankAccount&quot;);" xlink:title="String accountNumber&#13;">
<text text-anchor="start" x="267" y="-209.8" font-family="Times,serif" font-size="14.00" fill="#000000"> &#160;accountNumber : String &#160;</text>
</a>
</g>
<g id="a_node9_13"><a xlink:href="javascript:Action.selectClass(&quot;BankAccount&quot;);" xlink:title="String balance&#13;">
<text text-anchor="start" x="267" y="-191.8" font-family="Times,serif" font-size="14.00" fill="#000000"> &#160;balance : String &#160;</text>
</a>
</g>
<g id="a_node9_14"><a xlink:href="javascript:Action.selectClass(&quot;BankAccount&quot;);" xlink:title="Float overdraftOrCreditLimit&#13;">
<text text-anchor="start" x="266.5757" y="-173.8" font-family="Times,serif" font-size="14.00" fill="#000000"> &#160;overdraftOrCreditLimit : Float &#160;</text>
</a>
</g>
<polygon fill="#000000" stroke="#000000" points="264,-223 264,-223 455,-223 455,-223 264,-223"/>
<polygon fill="none" stroke="#000000" points="263.5,-168 263.5,-246 454.5,-246 454.5,-168 263.5,-168"/>
</a>
</g>
</g>
<!-- BankAccount&#45;&gt;FinancialInstrument -->
<g id="edge7" class="edge">
<title>BankAccount&#45;&gt;FinancialInstrument</title>
<path fill="none" stroke="#000000" d="M359.6588,-246.133C360.8229,-315.2826 363.1823,-455.4281 363.8314,-493.9858"/>
<polygon fill="none" stroke="#000000" points="360.3321,-494.0604 364,-504 367.3311,-493.9425 360.3321,-494.0604"/>
</g>
<!-- BankAccount&#45;&gt;DebitCard -->
<g id="edge12" class="edge">
<title>BankAccount&#45;&gt;DebitCard</title>
<g id="a_edge12"><a xlink:title="BankAccount 1..* &#160;&#45;&#45; * &#160;DebitCard">
<path fill="none" stroke="#000000" d="M276.5782,-246.1008C252.2371,-257.6545 225.5432,-270.3313 201,-282 192.9039,-285.8492 184.2242,-289.9798 175.9749,-293.9075"/>
</a>
</g>
<text text-anchor="middle" x="170.7249" y="-282.7075" font-family="Times,serif" font-size="14.00" fill="#000000">* </text>
<text text-anchor="middle" x="264.3282" y="-248.9008" font-family="Times,serif" font-size="14.00" fill="#000000">1..* </text>
</g>
<!-- BankAccount&#45;&gt;Cheque -->
<g id="edge13" class="edge">
<title>BankAccount&#45;&gt;Cheque</title>
<g id="a_edge13"><a xlink:title="BankAccount 1 &#160;&#45;&#45; * &#160;Cheque">
<path fill="none" stroke="#000000" d="M380.5469,-246.0072C401.3168,-283.6079 432.5749,-340.1959 453.372,-377.8459"/>
</a>
</g>
<text text-anchor="middle" x="448.122" y="-366.6459" font-family="Times,serif" font-size="14.00" fill="#000000">* </text>
<text text-anchor="middle" x="375.2969" y="-248.8072" font-family="Times,serif" font-size="14.00" fill="#000000">1 </text>
</g>
<!-- Branch&#45;&gt;BankAccount -->
<g id="edge14" class="edge">
<title>Branch&#45;&gt;BankAccount</title>
<g id="a_edge14"><a xlink:title="Branch 1 &#160;&#45;&#45; * &#160;BankAccount">
<path fill="none" stroke="#000000" d="M274.8141,-132.0888C287.345,-143.2392 301.742,-156.0501 315.0454,-167.8879"/>
</a>
</g>
<text text-anchor="middle" x="309.7954" y="-156.6879" font-family="Times,serif" font-size="14.00" fill="#000000">* </text>
<text text-anchor="middle" x="269.5641" y="-134.8888" font-family="Times,serif" font-size="14.00" fill="#000000">1 </text>
</g>
<!-- Loan -->
<g id="node12" class="node">
<title>Loan</title>
<g id="a_node12"><a xlink:href="javascript:Action.selectClass(&quot;Loan&quot;);" xlink:title="class Loan&#10;">
<text text-anchor="start" x="330.6172" y="-97.8" font-family="Times,serif" font-size="14.00" fill="#000000"> &#160;&#160;&#160;Loan &#160;&#160;&#160;</text>
<polygon fill="none" stroke="#000000" points="320,-84 320,-120 398,-120 398,-84 320,-84"/>
</a>
</g>
</g>
<!-- Loan&#45;&gt;BankAccount -->
<g id="edge8" class="edge">
<title>Loan&#45;&gt;BankAccount</title>
<path fill="none" stroke="#000000" d="M359,-120.2896C359,-130.684 359,-144.2472 359,-157.5487"/>
<polygon fill="none" stroke="#000000" points="355.5001,-157.6124 359,-167.6125 362.5001,-157.6125 355.5001,-157.6124"/>
</g>
</g>
</svg>
