<?xml version="1.0" encoding="UTF-8" standalone="no"?>
<!DOCTYPE svg PUBLIC "-//W3C//DTD SVG 1.1//EN"
 "http://www.w3.org/Graphics/SVG/1.1/DTD/svg11.dtd">
<!-- Generated by graphviz version 2.29.20121108.1600 (20121108.1600)
 -->
<!-- Title: BankingSystemB Pages: 1 -->
<svg width="527pt" height="598pt"
 viewBox="0.00 0.00 527.00 598.00" xmlns="http://www.w3.org/2000/svg" xmlns:xlink="http://www.w3.org/1999/xlink">
<g id="graph0" class="graph" transform="scale(1 1) rotate(0) translate(4 594)">
<title>BankingSystemB</title>
<polygon fill="white" stroke="white" points="-4,5 -4,-594 524,-594 524,5 -4,5"/>
<!-- FinancialInstitution -->
<g id="node1" class="node"><title>FinancialInstitution</title>
<g id="a_node1"><a xlink:href="javascript:Action.selectClass(&quot;FinancialInstitution&quot;);" xlink:title="class FinancialInstitution
">
<polygon fill="none" stroke="black" points="3.17236,-83.2 3.17236,-132.8 128.828,-132.8 128.828,-83.2 3.17236,-83.2"/>
<text text-anchor="middle" x="66" y="-114.8" font-family="Times,serif" font-size="14.00">FinancialInstitution</text>
<polyline fill="none" stroke="black" points="3.17236,-108 128.828,-108 "/>
<text text-anchor="start" x="11.1724" y="-90" font-family="Times,serif" font-size="14.00">name : String</text>
</a>
</g>
</g>
<!-- ReusableFinancialInstrument -->
<g id="node5" class="node"><title>ReusableFinancialInstrument</title>
<g id="a_node5"><a xlink:href="javascript:Action.selectClass(&quot;ReusableFinancialInstrument&quot;);" xlink:title="class ReusableFinancialInstrument
">
<polygon fill="none" stroke="black" points="62.9653,-410.8 62.9653,-477.2 243.035,-477.2 243.035,-410.8 62.9653,-410.8"/>
<text text-anchor="middle" x="153" y="-459.2" font-family="Times,serif" font-size="14.00">ReusableFinancialInstrument</text>
<polyline fill="none" stroke="black" points="62.9653,-452.4 243.035,-452.4 "/>
<text text-anchor="start" x="70.9653" y="-434.4" font-family="Times,serif" font-size="14.00">number : String</text>
<text text-anchor="start" x="70.9653" y="-417.6" font-family="Times,serif" font-size="14.00">pin : String</text>
</a>
</g>
</g>
<!-- FinancialInstitution&#45;&gt;ReusableFinancialInstrument -->
<g id="edge9" class="edge"><title>FinancialInstitution&#45;&gt;ReusableFinancialInstrument</title>
<path fill="none" stroke="black" d="M62.0333,-132.911C55.3546,-179.844 45.7178,-286.379 80,-366 87.212,-382.75 99.7632,-398.06 112.446,-410.54"/>
<text text-anchor="middle" x="107.196" y="-396.54" font-family="Times,serif" font-size="14.00">* </text>
<text text-anchor="middle" x="67.2833" y="-135.711" font-family="Times,serif" font-size="14.00">1 </text>
</g>
<!-- CreditCardCompany -->
<g id="node2" class="node"><title>CreditCardCompany</title>
<g id="a_node2"><a xlink:href="javascript:Action.selectClass(&quot;CreditCardCompany&quot;);" xlink:title="class CreditCardCompany
">
<polygon fill="none" stroke="black" points="-0.324219,-1 -0.324219,-37 132.324,-37 132.324,-1 -0.324219,-1"/>
<text text-anchor="middle" x="66" y="-13.5" font-family="Times,serif" font-size="14.00">CreditCardCompany</text>
</a>
</g>
</g>
<!-- CreditCardCompany&#45;&gt;FinancialInstitution -->
<g id="edge1" class="edge"><title>CreditCardCompany&#45;&gt;FinancialInstitution</title>
<path fill="none" stroke="black" d="M69.5523,-37.215C71.9279,-48.7275 74.9699,-63.4697 76.9509,-73.0696"/>
<polygon fill="none" stroke="black" points="73.5512,-73.9137 79,-83 80.4068,-72.499 73.5512,-73.9137"/>
</g>
<!-- Bank -->
<g id="node3" class="node"><title>Bank</title>
<g id="a_node3"><a xlink:href="javascript:Action.selectClass(&quot;Bank&quot;);" xlink:title="class Bank
">
<polygon fill="none" stroke="black" points="160,-1 160,-37 214,-37 214,-1 160,-1"/>
<text text-anchor="middle" x="186.776" y="-13.5" font-family="Times,serif" font-size="14.00">Bank</text>
</a>
</g>
</g>
<!-- Bank&#45;&gt;FinancialInstitution -->
<g id="edge2" class="edge"><title>Bank&#45;&gt;FinancialInstitution</title>
<path fill="none" stroke="black" d="M159.747,-35.8976C136.251,-49.6034 103.718,-68.5814 88.0917,-77.6965"/>
<polygon fill="none" stroke="black" points="85.8742,-74.938 79,-83 89.4014,-80.9845 85.8742,-74.938"/>
</g>
<!-- Branch -->
<g id="node11" class="node"><title>Branch</title>
<g id="a_node11"><a xlink:href="javascript:Action.selectClass(&quot;Branch&quot;);" xlink:title="class Branch
">
<polygon fill="none" stroke="black" points="167.448,-74.8 167.448,-141.2 270.552,-141.2 270.552,-74.8 167.448,-74.8"/>
<text text-anchor="middle" x="219" y="-123.2" font-family="Times,serif" font-size="14.00">Branch</text>
<polyline fill="none" stroke="black" points="167.448,-116.4 270.552,-116.4 "/>
<text text-anchor="start" x="175.448" y="-98.4" font-family="Times,serif" font-size="14.00">name : String</text>
<text text-anchor="start" x="175.448" y="-81.6" font-family="Times,serif" font-size="14.00">address : String</text>
</a>
</g>
</g>
<!-- Bank&#45;&gt;Branch -->
<g id="edge10" class="edge"><title>Bank&#45;&gt;Branch</title>
<path fill="none" stroke="black" d="M193.322,-37.1884C197.256,-47.8848 202.441,-61.9811 207.121,-74.7049"/>
<text text-anchor="middle" x="201.871" y="-60.7049" font-family="Times,serif" font-size="14.00">* </text>
<text text-anchor="middle" x="188.072" y="-39.9884" font-family="Times,serif" font-size="14.00">1 </text>
</g>
<!-- FinancialInstrument -->
<g id="node4" class="node"><title>FinancialInstrument</title>
<g id="a_node4"><a xlink:href="javascript:Action.selectClass(&quot;FinancialInstrument&quot;);" xlink:title="class FinancialInstrument
">
<polygon fill="none" stroke="black" points="268.624,-538 268.624,-574 397.376,-574 397.376,-538 268.624,-538"/>
<text text-anchor="middle" x="333" y="-550.5" font-family="Times,serif" font-size="14.00">FinancialInstrument</text>
</a>
</g>
</g>
<!-- ReusableFinancialInstrument&#45;&gt;FinancialInstrument -->
<g id="edge3" class="edge"><title>ReusableFinancialInstrument&#45;&gt;FinancialInstrument</title>
<path fill="none" stroke="black" d="M215.103,-477.266C255.089,-498.041 303.15,-523.011 322.875,-533.259"/>
<polygon fill="none" stroke="black" points="321.513,-536.495 332,-538 324.74,-530.284 321.513,-536.495"/>
</g>
<!-- Currency -->
<g id="node10" class="node"><title>Currency</title>
<g id="a_node10"><a xlink:href="javascript:Action.selectClass(&quot;Currency&quot;);" xlink:title="class Currency
">
<polygon fill="none" stroke="black" points="83.186,-522.8 83.186,-589.2 222.814,-589.2 222.814,-522.8 83.186,-522.8"/>
<text text-anchor="middle" x="153" y="-571.2" font-family="Times,serif" font-size="14.00">Currency</text>
<polyline fill="none" stroke="black" points="83.186,-564.4 222.814,-564.4 "/>
<text text-anchor="start" x="91.186" y="-546.4" font-family="Times,serif" font-size="14.00">code : String</text>
<text text-anchor="start" x="91.186" y="-529.6" font-family="Times,serif" font-size="14.00">exchangeRate : String</text>
</a>
</g>
</g>
<!-- ReusableFinancialInstrument&#45;&gt;Currency -->
<g id="edge11" class="edge"><title>ReusableFinancialInstrument&#45;&gt;Currency</title>
<path fill="none" stroke="black" d="M153,-477.409C153,-488.277 153,-500.57 153,-512.114"/>
<polygon fill="black" stroke="black" points="153,-522.443 148.5,-512.443 153,-517.443 153,-512.443 153,-512.443 153,-512.443 153,-517.443 157.5,-512.443 153,-522.443 153,-522.443"/>
<text text-anchor="middle" x="147.75" y="-508.443" font-family="Times,serif" font-size="14.00">1 </text>
<text text-anchor="middle" x="147.75" y="-480.209" font-family="Times,serif" font-size="14.00">* </text>
</g>
<!-- CreditCard -->
<g id="node6" class="node"><title>CreditCard</title>
<g id="a_node6"><a xlink:href="javascript:Action.selectClass(&quot;CreditCard&quot;);" xlink:title="class CreditCard
">
<polygon fill="none" stroke="black" points="180.952,-298.8 180.952,-365.2 305.048,-365.2 305.048,-298.8 180.952,-298.8"/>
<text text-anchor="middle" x="243" y="-347.2" font-family="Times,serif" font-size="14.00">CreditCard</text>
<polyline fill="none" stroke="black" points="180.952,-340.4 305.048,-340.4 "/>
<text text-anchor="start" x="188.952" y="-322.4" font-family="Times,serif" font-size="14.00">creditLimit : String</text>
<text text-anchor="start" x="188.952" y="-305.6" font-family="Times,serif" font-size="14.00">name : String</text>
</a>
</g>
</g>
<!-- CreditCard&#45;&gt;ReusableFinancialInstrument -->
<g id="edge4" class="edge"><title>CreditCard&#45;&gt;ReusableFinancialInstrument</title>
<path fill="none" stroke="black" d="M208.281,-365.627C193.178,-379.821 176.843,-395.172 167.572,-403.884"/>
<polygon fill="none" stroke="black" points="164.89,-401.601 160,-411 169.684,-406.702 164.89,-401.601"/>
</g>
<!-- DebitCard -->
<g id="node7" class="node"><title>DebitCard</title>
<g id="a_node7"><a xlink:href="javascript:Action.selectClass(&quot;DebitCard&quot;);" xlink:title="class DebitCard
">
<polygon fill="none" stroke="black" points="88.8413,-314 88.8413,-350 163.159,-350 163.159,-314 88.8413,-314"/>
<text text-anchor="middle" x="126" y="-326.5" font-family="Times,serif" font-size="14.00">DebitCard</text>
</a>
</g>
</g>
<!-- DebitCard&#45;&gt;ReusableFinancialInstrument -->
<g id="edge5" class="edge"><title>DebitCard&#45;&gt;ReusableFinancialInstrument</title>
<path fill="none" stroke="black" d="M133.546,-350.311C140.432,-366.109 150.354,-388.87 155.882,-401.553"/>
<polygon fill="none" stroke="black" points="152.796,-403.232 160,-411 159.213,-400.434 152.796,-403.232"/>
</g>
<!-- Cheque -->
<g id="node8" class="node"><title>Cheque</title>
<g id="a_node8"><a xlink:href="javascript:Action.selectClass(&quot;Cheque&quot;);" xlink:title="class Cheque
">
<polygon fill="none" stroke="black" points="360.852,-402.4 360.852,-485.6 519.148,-485.6 519.148,-402.4 360.852,-402.4"/>
<text text-anchor="middle" x="440" y="-467.6" font-family="Times,serif" font-size="14.00">Cheque</text>
<polyline fill="none" stroke="black" points="360.852,-460.8 519.148,-460.8 "/>
<text text-anchor="start" x="368.852" y="-442.8" font-family="Times,serif" font-size="14.00">amount : String</text>
<text text-anchor="start" x="368.852" y="-426" font-family="Times,serif" font-size="14.00">date : Date</text>
<text text-anchor="start" x="368.852" y="-409.2" font-family="Times,serif" font-size="14.00">sequenceNumber : String</text>
</a>
</g>
</g>
<!-- Cheque&#45;&gt;FinancialInstrument -->
<g id="edge6" class="edge"><title>Cheque&#45;&gt;FinancialInstrument</title>
<path fill="none" stroke="black" d="M392.63,-485.791C372.453,-503.166 351.022,-521.62 339.836,-531.252"/>
<polygon fill="none" stroke="black" points="337.294,-528.823 332,-538 341.862,-534.127 337.294,-528.823"/>
</g>
<!-- BankAccount -->
<g id="node9" class="node"><title>BankAccount</title>
<g id="a_node9"><a xlink:href="javascript:Action.selectClass(&quot;BankAccount&quot;);" xlink:title="class BankAccount
Positioning
">
<polygon fill="none" stroke="black" points="233.076,-178.4 233.076,-261.6 420.924,-261.6 420.924,-178.4 233.076,-178.4"/>
<text text-anchor="middle" x="327" y="-243.6" font-family="Times,serif" font-size="14.00">BankAccount</text>
<polyline fill="none" stroke="black" points="233.076,-236.8 420.924,-236.8 "/>
<text text-anchor="start" x="241.076" y="-218.8" font-family="Times,serif" font-size="14.00">accountNumber : String</text>
<text text-anchor="start" x="241.076" y="-202" font-family="Times,serif" font-size="14.00">balance : String</text>
<text text-anchor="start" x="241.076" y="-185.2" font-family="Times,serif" font-size="14.00">overdraftOrCreditLimit : Float</text>
</a>
</g>
</g>
<!-- BankAccount&#45;&gt;FinancialInstrument -->
<g id="edge7" class="edge"><title>BankAccount&#45;&gt;FinancialInstrument</title>
<path fill="none" stroke="black" d="M327.643,-261.793C328.807,-335.537 331.198,-487.16 331.839,-527.793"/>
<polygon fill="none" stroke="black" points="328.343,-528.056 332,-538 335.342,-527.946 328.343,-528.056"/>
</g>
<!-- BankAccount&#45;&gt;DebitCard -->
<g id="edge12" class="edge"><title>BankAccount&#45;&gt;DebitCard</title>
<path fill="none" stroke="black" d="M238.78,-261.755C216.601,-272.831 193.112,-285.297 172,-298 164.084,-302.763 155.779,-308.478 148.438,-313.803"/>
<text text-anchor="middle" x="143.188" y="-299.803" font-family="Times,serif" font-size="14.00">* </text>
<text text-anchor="middle" x="226.53" y="-264.555" font-family="Times,serif" font-size="14.00">1..* </text>
</g>
<!-- BankAccount&#45;&gt;Cheque -->
<g id="edge13" class="edge"><title>BankAccount&#45;&gt;Cheque</title>
<path fill="none" stroke="black" d="M347.726,-261.718C368.051,-301.649 398.869,-362.194 419.214,-402.165"/>
<text text-anchor="middle" x="424.464" y="-388.165" font-family="Times,serif" font-size="14.00">* </text>
<text text-anchor="middle" x="342.476" y="-264.518" font-family="Times,serif" font-size="14.00">1 </text>
</g>
<!-- Branch&#45;&gt;BankAccount -->
<g id="edge14" class="edge"><title>Branch&#45;&gt;BankAccount</title>
<path fill="none" stroke="black" d="M250.819,-141.409C262.144,-152.943 275.043,-166.081 286.967,-178.226"/>
<text text-anchor="middle" x="281.717" y="-164.226" font-family="Times,serif" font-size="14.00">* </text>
<text text-anchor="middle" x="245.569" y="-144.209" font-family="Times,serif" font-size="14.00">1 </text>
</g>
<!-- Loan -->
<g id="node12" class="node"><title>Loan</title>
<g id="a_node12"><a xlink:href="javascript:Action.selectClass(&quot;Loan&quot;);" xlink:title="class Loan
">
<polygon fill="none" stroke="black" points="300,-90 300,-126 354,-126 354,-90 300,-90"/>
<text text-anchor="middle" x="326.883" y="-102.5" font-family="Times,serif" font-size="14.00">Loan</text>
</a>
</g>
</g>
<!-- Loan&#45;&gt;BankAccount -->
<g id="edge8" class="edge"><title>Loan&#45;&gt;BankAccount</title>
<path fill="none" stroke="black" d="M327,-126.188C327,-137.479 327,-152.893 327,-167.915"/>
<polygon fill="none" stroke="black" points="323.5,-168.196 327,-178.196 330.5,-168.196 323.5,-168.196"/>
</g>
</g>
</svg>
