<?xml version="1.0" encoding="UTF-8" standalone="no"?>
<!DOCTYPE svg PUBLIC "-//W3C//DTD SVG 1.1//EN"
 "http://www.w3.org/Graphics/SVG/1.1/DTD/svg11.dtd">
<!-- Generated by graphviz version 2.39.20140502.0445 (20140502.0445)
 -->
<!-- Title: BankingSystemB Pages: 1 -->
<svg width="531pt" height="565pt"
 viewBox="0.00 0.00 531.00 565.00" xmlns="http://www.w3.org/2000/svg" xmlns:xlink="http://www.w3.org/1999/xlink">
<g id="graph0" class="graph" transform="scale(1 1) rotate(0) translate(4 561)">
<title>BankingSystemB</title>
<polygon fill="white" stroke="none" points="-4,4 -4,-561 527,-561 527,4 -4,4"/>
<!-- FinancialInstitution -->
<g id="node1" class="node"><title>FinancialInstitution</title>
<g id="a_node1"><a xlink:href="javascript:Action.selectClass(&quot;FinancialInstitution&quot;);" xlink:title="class FinancialInstitution
">
<polygon fill="none" stroke="black" points="3.5,-81 3.5,-127 129.5,-127 129.5,-81 3.5,-81"/>
<text text-anchor="middle" x="66.5" y="-111.8" font-family="Times,serif" font-size="14.00">FinancialInstitution</text>
<polyline fill="none" stroke="black" points="3.5,-104 129.5,-104 "/>
<text text-anchor="start" x="11.5" y="-88.8" font-family="Times,serif" font-size="14.00">name : String</text>
</a>
</g>
</g>
<!-- ReusableFinancialInstrument -->
<g id="node5" class="node"><title>ReusableFinancialInstrument</title>
<g id="a_node5"><a xlink:href="javascript:Action.selectClass(&quot;ReusableFinancialInstrument&quot;);" xlink:title="class ReusableFinancialInstrument
">
<polygon fill="none" stroke="black" points="64,-390 64,-451 245,-451 245,-390 64,-390"/>
<text text-anchor="middle" x="154.5" y="-435.8" font-family="Times,serif" font-size="14.00">ReusableFinancialInstrument</text>
<polyline fill="none" stroke="black" points="64,-428 245,-428 "/>
<text text-anchor="start" x="72" y="-412.8" font-family="Times,serif" font-size="14.00">number : String</text>
<text text-anchor="start" x="72" y="-397.8" font-family="Times,serif" font-size="14.00">pin : String</text>
</a>
</g>
</g>
<!-- FinancialInstitution&#45;&gt;ReusableFinancialInstrument -->
<g id="edge9" class="edge"><title>FinancialInstitution&#45;&gt;ReusableFinancialInstrument</title>
<g id="a_edge9"><a xlink:title="FinancialInstitution 1 &#160;&#45;&#45; * &#160;ReusableFinancialInstrument">
<path fill="none" stroke="black" d="M62.5763,-127.187C55.8615,-171.206 45.9195,-271.742 79.5,-346 87.0871,-362.778 100.362,-377.757 113.655,-389.746"/>
</a>
</g>
<text text-anchor="middle" x="108.155" y="-378.546" font-family="Times,serif" font-size="14.00">* </text>
<text text-anchor="middle" x="57.0763" y="-130.987" font-family="Times,serif" font-size="14.00">1 </text>
</g>
<!-- CreditCardCompany -->
<g id="node2" class="node"><title>CreditCardCompany</title>
<g id="a_node2"><a xlink:href="javascript:Action.selectClass(&quot;CreditCardCompany&quot;);" xlink:title="class CreditCardCompany
">
<polygon fill="none" stroke="black" points="0,-0.5 0,-36.5 133,-36.5 133,-0.5 0,-0.5"/>
<text text-anchor="middle" x="66.5" y="-14.8" font-family="Times,serif" font-size="14.00">CreditCardCompany</text>
</a>
</g>
</g>
<!-- CreditCardCompany&#45;&gt;FinancialInstitution -->
<g id="edge1" class="edge"><title>CreditCardCompany&#45;&gt;FinancialInstitution</title>
<path fill="none" stroke="black" d="M69.8427,-36.6312C72.0064,-47.7202 74.7479,-61.7703 76.5595,-71.0549"/>
<polygon fill="none" stroke="black" points="73.1496,-71.8554 78.5,-81 80.02,-70.5148 73.1496,-71.8554"/>
</g>
<!-- Bank -->
<g id="node3" class="node"><title>Bank</title>
<g id="a_node3"><a xlink:href="javascript:Action.selectClass(&quot;Bank&quot;);" xlink:title="class Bank
">
<polygon fill="none" stroke="black" points="161.5,-0.5 161.5,-36.5 215.5,-36.5 215.5,-0.5 161.5,-0.5"/>
<text text-anchor="middle" x="188.5" y="-14.8" font-family="Times,serif" font-size="14.00">Bank</text>
</a>
</g>
</g>
<!-- Bank&#45;&gt;FinancialInstitution -->
<g id="edge2" class="edge"><title>Bank&#45;&gt;FinancialInstitution</title>
<path fill="none" stroke="black" d="M87.3535,-76.0501 103.228,-67.1745 137.133,-48.2189 161.309,-34.7023"/>
<polygon fill="none" stroke="black" points="85.5204,-73.065 78.5,-81 88.9365,-79.1749 85.5204,-73.065"/>
</g>
<!-- Branch -->
<g id="node11" class="node"><title>Branch</title>
<g id="a_node11"><a xlink:href="javascript:Action.selectClass(&quot;Branch&quot;);" xlink:title="class Branch
">
<polygon fill="none" stroke="black" points="169.5,-73.5 169.5,-134.5 273.5,-134.5 273.5,-73.5 169.5,-73.5"/>
<text text-anchor="middle" x="221.5" y="-119.3" font-family="Times,serif" font-size="14.00">Branch</text>
<polyline fill="none" stroke="black" points="169.5,-111.5 273.5,-111.5 "/>
<text text-anchor="start" x="177.5" y="-96.3" font-family="Times,serif" font-size="14.00">name : String</text>
<text text-anchor="start" x="177.5" y="-81.3" font-family="Times,serif" font-size="14.00">address : String</text>
</a>
</g>
</g>
<!-- Bank&#45;&gt;Branch -->
<g id="edge10" class="edge"><title>Bank&#45;&gt;Branch</title>
<g id="a_edge10"><a xlink:title="Bank 1 &#160;&#45;&#45; * &#160;Branch">
<path fill="none" stroke="black" d="M195.338,-36.8013C199.491,-47.3104 204.905,-61.0106 209.73,-73.2193"/>
</a>
</g>
<text text-anchor="middle" x="204.23" y="-62.0193" font-family="Times,serif" font-size="14.00">* </text>
<text text-anchor="middle" x="189.838" y="-40.6013" font-family="Times,serif" font-size="14.00">1 </text>
</g>
<!-- FinancialInstrument -->
<g id="node4" class="node"><title>FinancialInstrument</title>
<g id="a_node4"><a xlink:href="javascript:Action.selectClass(&quot;FinancialInstrument&quot;);" xlink:title="class FinancialInstrument
">
<polygon fill="none" stroke="black" points="271,-508 271,-544 400,-544 400,-508 271,-508"/>
<text text-anchor="middle" x="335.5" y="-522.3" font-family="Times,serif" font-size="14.00">FinancialInstrument</text>
</a>
</g>
</g>
<!-- ReusableFinancialInstrument&#45;&gt;FinancialInstrument -->
<g id="edge3" class="edge"><title>ReusableFinancialInstrument&#45;&gt;FinancialInstrument</title>
<path fill="none" stroke="black" d="M215.942,-451.026C256.273,-470.408 305.139,-493.89 325.211,-503.536"/>
<polygon fill="none" stroke="black" points="323.971,-506.823 334.5,-508 327.003,-500.514 323.971,-506.823"/>
</g>
<!-- Currency -->
<g id="node10" class="node"><title>Currency</title>
<g id="a_node10"><a xlink:href="javascript:Action.selectClass(&quot;Currency&quot;);" xlink:title="class Currency
">
<polygon fill="none" stroke="black" points="84.5,-495.5 84.5,-556.5 224.5,-556.5 224.5,-495.5 84.5,-495.5"/>
<text text-anchor="middle" x="154.5" y="-541.3" font-family="Times,serif" font-size="14.00">Currency</text>
<polyline fill="none" stroke="black" points="84.5,-533.5 224.5,-533.5 "/>
<text text-anchor="start" x="92.5" y="-518.3" font-family="Times,serif" font-size="14.00">code : String</text>
<text text-anchor="start" x="92.5" y="-503.3" font-family="Times,serif" font-size="14.00">exchangeRate : String</text>
</a>
</g>
</g>
<!-- ReusableFinancialInstrument&#45;&gt;Currency -->
<g id="edge11" class="edge"><title>ReusableFinancialInstrument&#45;&gt;Currency</title>
<g id="a_edge11"><a xlink:title="ReusableFinancialInstrument * &#160;&#45;&gt; 1 &#160;Currency">
<path fill="none" stroke="black" d="M154.5,-451.159C154.5,-461.769 154.5,-473.905 154.5,-485.23"/>
<polygon fill="black" stroke="black" points="154.5,-495.337 150,-485.337 154.5,-490.337 154.5,-485.337 154.5,-485.337 154.5,-485.337 154.5,-490.337 159,-485.337 154.5,-495.337 154.5,-495.337"/>
</a>
</g>
<text text-anchor="middle" x="149" y="-484.137" font-family="Times,serif" font-size="14.00">1 </text>
<text text-anchor="middle" x="149" y="-454.959" font-family="Times,serif" font-size="14.00">* </text>
</g>
<!-- CreditCard -->
<g id="node6" class="node"><title>CreditCard</title>
<g id="a_node6"><a xlink:href="javascript:Action.selectClass(&quot;CreditCard&quot;);" xlink:title="class CreditCard
">
<polygon fill="none" stroke="black" points="182,-284.5 182,-345.5 307,-345.5 307,-284.5 182,-284.5"/>
<text text-anchor="middle" x="244.5" y="-330.3" font-family="Times,serif" font-size="14.00">CreditCard</text>
<polyline fill="none" stroke="black" points="182,-322.5 307,-322.5 "/>
<text text-anchor="start" x="190" y="-307.3" font-family="Times,serif" font-size="14.00">creditLimit : String</text>
<text text-anchor="start" x="190" y="-292.3" font-family="Times,serif" font-size="14.00">name : String</text>
</a>
</g>
</g>
<!-- CreditCard&#45;&gt;ReusableFinancialInstrument -->
<g id="edge4" class="edge"><title>CreditCard&#45;&gt;ReusableFinancialInstrument</title>
<path fill="none" stroke="black" d="M169.271,-382.618 178.774,-374.203 195.481,-359.408 210.741,-345.895"/>
<polygon fill="none" stroke="black" points="166.666,-380.25 161.5,-389.5 171.307,-385.491 166.666,-380.25"/>
</g>
<!-- DebitCard -->
<g id="node7" class="node"><title>DebitCard</title>
<g id="a_node7"><a xlink:href="javascript:Action.selectClass(&quot;DebitCard&quot;);" xlink:title="class DebitCard
">
<polygon fill="none" stroke="black" points="89,-297 89,-333 164,-333 164,-297 89,-297"/>
<text text-anchor="middle" x="126.5" y="-311.3" font-family="Times,serif" font-size="14.00">DebitCard</text>
</a>
</g>
</g>
<!-- DebitCard&#45;&gt;ReusableFinancialInstrument -->
<g id="edge5" class="edge"><title>DebitCard&#45;&gt;ReusableFinancialInstrument</title>
<path fill="none" stroke="black" d="M134.618,-333.047C141.645,-347.805 151.539,-368.581 157.156,-380.377"/>
<polygon fill="none" stroke="black" points="154.041,-381.976 161.5,-389.5 160.361,-378.967 154.041,-381.976"/>
</g>
<!-- Cheque -->
<g id="node8" class="node"><title>Cheque</title>
<g id="a_node8"><a xlink:href="javascript:Action.selectClass(&quot;Cheque&quot;);" xlink:title="class Cheque
">
<polygon fill="none" stroke="black" points="364,-382.5 364,-458.5 523,-458.5 523,-382.5 364,-382.5"/>
<text text-anchor="middle" x="443.5" y="-443.3" font-family="Times,serif" font-size="14.00">Cheque</text>
<polyline fill="none" stroke="black" points="364,-435.5 523,-435.5 "/>
<text text-anchor="start" x="372" y="-420.3" font-family="Times,serif" font-size="14.00">amount : String</text>
<text text-anchor="start" x="372" y="-405.3" font-family="Times,serif" font-size="14.00">date : Date</text>
<text text-anchor="start" x="372" y="-390.3" font-family="Times,serif" font-size="14.00">sequenceNumber : String</text>
</a>
</g>
</g>
<!-- Cheque&#45;&gt;FinancialInstrument -->
<g id="edge6" class="edge"><title>Cheque&#45;&gt;FinancialInstrument</title>
<path fill="none" stroke="black" d="M342.57,-501.596 354.081,-492.461 376.1,-474.987 396.642,-458.686"/>
<polygon fill="none" stroke="black" points="340.157,-499.042 334.5,-508 344.509,-504.525 340.157,-499.042"/>
</g>
<!-- BankAccount -->
<g id="node9" class="node"><title>BankAccount</title>
<g id="a_node9"><a xlink:href="javascript:Action.selectClass(&quot;BankAccount&quot;);" xlink:title="class BankAccount
Positioning
">
<polygon fill="none" stroke="black" points="235.5,-171.5 235.5,-247.5 423.5,-247.5 423.5,-171.5 235.5,-171.5"/>
<text text-anchor="middle" x="329.5" y="-232.3" font-family="Times,serif" font-size="14.00">BankAccount</text>
<polyline fill="none" stroke="black" points="235.5,-224.5 423.5,-224.5 "/>
<text text-anchor="start" x="243.5" y="-209.3" font-family="Times,serif" font-size="14.00">accountNumber : String</text>
<text text-anchor="start" x="243.5" y="-194.3" font-family="Times,serif" font-size="14.00">balance : String</text>
<text text-anchor="start" x="243.5" y="-179.3" font-family="Times,serif" font-size="14.00">overdraftOrCreditLimit : Float</text>
</a>
</g>
</g>
<!-- BankAccount&#45;&gt;FinancialInstrument -->
<g id="edge7" class="edge"><title>BankAccount&#45;&gt;FinancialInstrument</title>
<path fill="none" stroke="black" d="M330.123,-247.577C331.272,-315.957 333.669,-458.532 334.329,-497.798"/>
<polygon fill="none" stroke="black" points="330.832,-498.06 334.5,-508 337.831,-497.943 330.832,-498.06"/>
</g>
<!-- BankAccount&#45;&gt;DebitCard -->
<g id="edge12" class="edge"><title>BankAccount&#45;&gt;DebitCard</title>
<g id="a_edge12"><a xlink:title="BankAccount 1..* &#160;&#45;&#45; * &#160;DebitCard">
<path fill="none" stroke="black" d="M151.415,-296.845 158.144,-292.464 165.502,-287.895 172.5,-284 195.379,-271.266 220.839,-258.699 244.485,-247.655"/>
</a>
</g>
<text text-anchor="middle" x="145.915" y="-285.645" font-family="Times,serif" font-size="14.00">* </text>
<text text-anchor="middle" x="231.985" y="-251.455" font-family="Times,serif" font-size="14.00">1..* </text>
</g>
<!-- BankAccount&#45;&gt;Cheque -->
<g id="edge13" class="edge"><title>BankAccount&#45;&gt;Cheque</title>
<g id="a_edge13"><a xlink:title="BankAccount 1 &#160;&#45;&#45; * &#160;Cheque">
<path fill="none" stroke="black" d="M349.881,-247.865C370.631,-285.907 402.609,-344.534 423.296,-382.458"/>
</a>
</g>
<text text-anchor="middle" x="417.796" y="-371.258" font-family="Times,serif" font-size="14.00">* </text>
<text text-anchor="middle" x="344.381" y="-251.665" font-family="Times,serif" font-size="14.00">1 </text>
</g>
<!-- Branch&#45;&gt;BankAccount -->
<g id="edge14" class="edge"><title>Branch&#45;&gt;BankAccount</title>
<g id="a_edge14"><a xlink:title="Branch 1 &#160;&#45;&#45; * &#160;BankAccount">
<path fill="none" stroke="black" d="M252.448,-134.659C264.416,-146.128 278.243,-159.379 290.853,-171.463"/>
</a>
</g>
<text text-anchor="middle" x="296.353" y="-160.263" font-family="Times,serif" font-size="14.00">* </text>
<text text-anchor="middle" x="246.948" y="-138.459" font-family="Times,serif" font-size="14.00">1 </text>
</g>
<!-- Loan -->
<g id="node12" class="node"><title>Loan</title>
<g id="a_node12"><a xlink:href="javascript:Action.selectClass(&quot;Loan&quot;);" xlink:title="class Loan
">
<polygon fill="none" stroke="black" points="302.5,-86 302.5,-122 356.5,-122 356.5,-86 302.5,-86"/>
<text text-anchor="middle" x="329.5" y="-100.3" font-family="Times,serif" font-size="14.00">Loan</text>
</a>
</g>
</g>
<!-- Loan&#45;&gt;BankAccount -->
<g id="edge8" class="edge"><title>Loan&#45;&gt;BankAccount</title>
<path fill="none" stroke="black" d="M329.5,-122.091C329.5,-132.81 329.5,-147.2 329.5,-161.159"/>
<polygon fill="none" stroke="black" points="326,-161.189 329.5,-171.189 333,-161.189 326,-161.189"/>
</g>
</g>
</svg>
