<?xml version="1.0" encoding="UTF-8" standalone="no"?>
<!DOCTYPE svg PUBLIC "-//W3C//DTD SVG 1.1//EN"
 "http://www.w3.org/Graphics/SVG/1.1/DTD/svg11.dtd">
<!-- Generated by graphviz version 2.39.20140502.0445 (20140502.0445)
 -->
<!-- Title: BankingSystemA Pages: 1 -->
<svg width="758pt" height="394pt"
 viewBox="0.00 0.00 757.50 394.00" xmlns="http://www.w3.org/2000/svg" xmlns:xlink="http://www.w3.org/1999/xlink">
<g id="graph0" class="graph" transform="scale(1 1) rotate(0) translate(4 390)">
<title>BankingSystemA</title>
<polygon fill="white" stroke="none" points="-4,4 -4,-390 753.5,-390 753.5,4 -4,4"/>
<!-- PersonRole -->
<g id="node1" class="node"><title>PersonRole</title>
<g id="a_node1"><a xlink:href="javascript:Action.selectClass(&quot;PersonRole&quot;);" xlink:title="class PersonRole
">
<polygon fill="none" stroke="black" points="156.5,-344.5 156.5,-380.5 237.5,-380.5 237.5,-344.5 156.5,-344.5"/>
<text text-anchor="middle" x="197" y="-358.8" font-family="Times,serif" font-size="14.00">PersonRole</text>
</a>
</g>
</g>
<!-- Person -->
<g id="node2" class="node"><title>Person</title>
<g id="a_node2"><a xlink:href="javascript:Action.selectClass(&quot;Person&quot;);" xlink:title="class Person
">
<polygon fill="none" stroke="black" points="0,-226.5 0,-302.5 142,-302.5 142,-226.5 0,-226.5"/>
<text text-anchor="middle" x="71" y="-287.3" font-family="Times,serif" font-size="14.00">Person</text>
<polyline fill="none" stroke="black" points="0,-279.5 142,-279.5 "/>
<text text-anchor="start" x="8" y="-264.3" font-family="Times,serif" font-size="14.00">name : String</text>
<text text-anchor="start" x="8" y="-249.3" font-family="Times,serif" font-size="14.00">address : String</text>
<text text-anchor="start" x="8" y="-234.3" font-family="Times,serif" font-size="14.00">phoneNumber : String</text>
</a>
</g>
</g>
<!-- Person&#45;&gt;PersonRole -->
<g id="edge7" class="edge"><title>Person&#45;&gt;PersonRole</title>
<g id="a_edge7"><a xlink:title="Person 1 &#160;&#45;&#45; * &#160;PersonRole">
<path fill="none" stroke="black" d="M119.715,-302.616C138.551,-316.967 159.186,-332.689 174.392,-344.275"/>
</a>
</g>
<text text-anchor="middle" x="168.892" y="-333.075" font-family="Times,serif" font-size="14.00">* </text>
<text text-anchor="middle" x="114.215" y="-306.416" font-family="Times,serif" font-size="14.00">1 </text>
</g>
<!-- Employee -->
<g id="node3" class="node"><title>Employee</title>
<g id="a_node3"><a xlink:href="javascript:Action.selectClass(&quot;Employee&quot;);" xlink:title="class Employee
">
<polygon fill="none" stroke="black" points="160.5,-246.5 160.5,-282.5 233.5,-282.5 233.5,-246.5 160.5,-246.5"/>
<text text-anchor="middle" x="197" y="-260.8" font-family="Times,serif" font-size="14.00">Employee</text>
</a>
</g>
</g>
<!-- Employee&#45;&gt;PersonRole -->
<g id="edge1" class="edge"><title>Employee&#45;&gt;PersonRole</title>
<path fill="none" stroke="black" d="M198.085,-282.642C199.084,-298.434 200.534,-321.336 201.36,-334.387"/>
<polygon fill="none" stroke="black" points="197.875,-334.741 202,-344.5 204.861,-334.299 197.875,-334.741"/>
</g>
<!-- Client -->
<g id="node4" class="node"><title>Client</title>
<g id="a_node4"><a xlink:href="javascript:Action.selectClass(&quot;Client&quot;);" xlink:title="class Client
">
<polygon fill="none" stroke="black" points="325,-0.5 325,-76.5 467,-76.5 467,-0.5 325,-0.5"/>
<text text-anchor="middle" x="396" y="-61.3" font-family="Times,serif" font-size="14.00">Client</text>
<polyline fill="none" stroke="black" points="325,-53.5 467,-53.5 "/>
<text text-anchor="start" x="333" y="-38.3" font-family="Times,serif" font-size="14.00">name : String</text>
<text text-anchor="start" x="333" y="-23.3" font-family="Times,serif" font-size="14.00">address : String</text>
<text text-anchor="start" x="333" y="-8.3" font-family="Times,serif" font-size="14.00">phoneNumber : String</text>
</a>
</g>
</g>
<!-- Client&#45;&gt;PersonRole -->
<g id="edge2" class="edge"><title>Client&#45;&gt;PersonRole</title>
<path fill="none" stroke="black" d="M209.485,-337.51 217.841,-329.535 231.561,-315.921 242,-303 301.604,-229.223 353.147,-129.791 378.761,-76.6519"/>
<polygon fill="none" stroke="black" points="206.919,-335.117 202,-344.5 211.697,-340.232 206.919,-335.117"/>
</g>
<!-- Account -->
<g id="node6" class="node"><title>Account</title>
<g id="a_node6"><a xlink:href="javascript:Action.selectClass(&quot;Account&quot;);" xlink:title="class Account
Positioning
">
<polygon fill="none" stroke="black" points="432,-113.5 432,-189.5 588,-189.5 588,-113.5 432,-113.5"/>
<text text-anchor="middle" x="510" y="-174.3" font-family="Times,serif" font-size="14.00">Account</text>
<polyline fill="none" stroke="black" points="432,-166.5 588,-166.5 "/>
<text text-anchor="start" x="440" y="-151.3" font-family="Times,serif" font-size="14.00">accountNumber : Integer</text>
<text text-anchor="start" x="440" y="-136.3" font-family="Times,serif" font-size="14.00">balance : Float</text>
<text text-anchor="start" x="440" y="-121.3" font-family="Times,serif" font-size="14.00">creditLimit : Float</text>
</a>
</g>
</g>
<!-- Client&#45;&gt;Account -->
<g id="edge8" class="edge"><title>Client&#45;&gt;Account</title>
<g id="a_edge8"><a xlink:title="Client 1..2 &#160;&#45;&#45; 1..* &#160;Account">
<path fill="none" stroke="black" d="M434.277,-76.7702C446.309,-88.4848 459.592,-101.418 471.629,-113.139"/>
</a>
</g>
<text text-anchor="middle" x="459.129" y="-101.939" font-family="Times,serif" font-size="14.00">1..* </text>
<text text-anchor="middle" x="421.777" y="-80.5702" font-family="Times,serif" font-size="14.00">1..2 </text>
</g>
<!-- Manager -->
<g id="node5" class="node"><title>Manager</title>
<g id="a_node5"><a xlink:href="javascript:Action.selectClass(&quot;Manager&quot;);" xlink:title="class Manager
">
<polygon fill="none" stroke="black" points="115,-133.5 115,-169.5 181,-169.5 181,-133.5 115,-133.5"/>
<text text-anchor="middle" x="148" y="-147.8" font-family="Times,serif" font-size="14.00">Manager</text>
</a>
</g>
</g>
<!-- Manager&#45;&gt;Employee -->
<g id="edge3" class="edge"><title>Manager&#45;&gt;Employee</title>
<path fill="none" stroke="black" d="M150.594,-169.844C156.622,-187.927 168.972,-216.486 179.61,-237.316"/>
<polygon fill="none" stroke="black" points="176.58,-239.074 184.348,-246.278 182.768,-235.802 176.58,-239.074"/>
</g>
<!-- Manager&#45;&gt;Employee -->
<g id="edge9" class="edge"><title>Manager&#45;&gt;Employee</title>
<g id="a_edge9"><a xlink:title="Manager 0..1 &#160;&#45;&#45; * &#160;Employee">
<path fill="none" stroke="black" d="M160.719,-169.844C172.179,-190.697 187.529,-225.479 194.447,-246.278"/>
</a>
</g>
<text text-anchor="middle" x="188.947" y="-235.078" font-family="Times,serif" font-size="14.00">* </text>
<text text-anchor="middle" x="148.219" y="-173.644" font-family="Times,serif" font-size="14.00">0..1 </text>
</g>
<!-- AccountType -->
<g id="node7" class="node"><title>AccountType</title>
<g id="a_node7"><a xlink:href="javascript:Action.selectClass(&quot;AccountType&quot;);" xlink:title="class AccountType
">
<polygon fill="none" stroke="black" points="448.5,-234 448.5,-295 571.5,-295 571.5,-234 448.5,-234"/>
<text text-anchor="middle" x="510" y="-279.8" font-family="Times,serif" font-size="14.00">AccountType</text>
<polyline fill="none" stroke="black" points="448.5,-272 571.5,-272 "/>
<text text-anchor="start" x="456.5" y="-256.8" font-family="Times,serif" font-size="14.00">monthlyFee : Float</text>
<text text-anchor="start" x="456.5" y="-241.8" font-family="Times,serif" font-size="14.00">interestRate : Float</text>
</a>
</g>
</g>
<!-- Account&#45;&gt;AccountType -->
<g id="edge10" class="edge"><title>Account&#45;&gt;AccountType</title>
<g id="a_edge10"><a xlink:title="Account * &#160;&#45;&gt; 1 &#160;AccountType">
<path fill="none" stroke="black" d="M510,-189.77C510,-200.652 510,-212.586 510,-223.623"/>
<polygon fill="black" stroke="black" points="510,-233.866 505.5,-223.866 510,-228.866 510,-223.866 510,-223.866 510,-223.866 510,-228.866 514.5,-223.866 510,-233.866 510,-233.866"/>
</a>
</g>
<text text-anchor="middle" x="504.5" y="-222.666" font-family="Times,serif" font-size="14.00">1 </text>
<text text-anchor="middle" x="504.5" y="-193.57" font-family="Times,serif" font-size="14.00">* </text>
</g>
<!-- Privilege -->
<g id="node8" class="node"><title>Privilege</title>
<g id="a_node8"><a xlink:href="javascript:Action.selectClass(&quot;Privilege&quot;);" xlink:title="class Privilege
">
<polygon fill="none" stroke="black" points="448,-339.5 448,-385.5 572,-385.5 572,-339.5 448,-339.5"/>
<text text-anchor="middle" x="510" y="-370.3" font-family="Times,serif" font-size="14.00">Privilege</text>
<polyline fill="none" stroke="black" points="448,-362.5 572,-362.5 "/>
<text text-anchor="start" x="456" y="-347.3" font-family="Times,serif" font-size="14.00">description : String</text>
</a>
</g>
</g>
<!-- AccountType&#45;&gt;Privilege -->
<g id="edge11" class="edge"><title>AccountType&#45;&gt;Privilege</title>
<g id="a_edge11"><a xlink:title="AccountType * &#160;&#45;&#45; * &#160;Privilege">
<path fill="none" stroke="black" d="M510,-295.086C510,-309.41 510,-326.313 510,-339.481"/>
</a>
</g>
<text text-anchor="middle" x="504.5" y="-328.281" font-family="Times,serif" font-size="14.00">* </text>
<text text-anchor="middle" x="504.5" y="-298.886" font-family="Times,serif" font-size="14.00">* </text>
</g>
<!-- CreditCardAccount -->
<g id="node9" class="node"><title>CreditCardAccount</title>
<g id="a_node9"><a xlink:href="javascript:Action.selectClass(&quot;CreditCardAccount&quot;);" xlink:title="class CreditCardAccount
">
<polygon fill="none" stroke="black" points="621,-15.5 621,-61.5 747,-61.5 747,-15.5 621,-15.5"/>
<text text-anchor="middle" x="684" y="-46.3" font-family="Times,serif" font-size="14.00">CreditCardAccount</text>
<polyline fill="none" stroke="black" points="621,-38.5 747,-38.5 "/>
<text text-anchor="start" x="629" y="-23.3" font-family="Times,serif" font-size="14.00">expiryDate : Date</text>
</a>
</g>
</g>
<!-- CreditCardAccount&#45;&gt;Account -->
<g id="edge4" class="edge"><title>CreditCardAccount&#45;&gt;Account</title>
<path fill="none" stroke="black" d="M548.015,-109.052 561.824,-102.226 589.03,-88.7232 612,-77 621.666,-72.0667 632.031,-66.7085 641.8,-61.6273"/>
<polygon fill="none" stroke="black" points="546.419,-105.937 539,-113.5 549.517,-112.214 546.419,-105.937"/>
</g>
<!-- Card -->
<g id="node11" class="node"><title>Card</title>
<g id="a_node11"><a xlink:href="javascript:Action.selectClass(&quot;Card&quot;);" xlink:title="class Card
">
<polygon fill="none" stroke="black" points="618.5,-128.5 618.5,-174.5 749.5,-174.5 749.5,-128.5 618.5,-128.5"/>
<text text-anchor="middle" x="684" y="-159.3" font-family="Times,serif" font-size="14.00">Card</text>
<polyline fill="none" stroke="black" points="618.5,-151.5 749.5,-151.5 "/>
<text text-anchor="start" x="626.5" y="-136.3" font-family="Times,serif" font-size="14.00">holderName : String</text>
</a>
</g>
</g>
<!-- CreditCardAccount&#45;&gt;Card -->
<g id="edge12" class="edge"><title>CreditCardAccount&#45;&gt;Card</title>
<g id="a_edge12"><a xlink:title="CreditCardAccount 1 &#160;&#45;&#45; 1..* &#160;Card">
<path fill="none" stroke="black" d="M684,-61.6957C684,-81.0554 684,-108.994 684,-128.343"/>
</a>
</g>
<text text-anchor="middle" x="671.5" y="-117.143" font-family="Times,serif" font-size="14.00">1..* </text>
<text text-anchor="middle" x="678.5" y="-65.4957" font-family="Times,serif" font-size="14.00">1 </text>
</g>
<!-- MortgageAccount -->
<g id="node10" class="node"><title>MortgageAccount</title>
<g id="a_node10"><a xlink:href="javascript:Action.selectClass(&quot;MortgageAccount&quot;);" xlink:title="class MortgageAccount
">
<polygon fill="none" stroke="black" points="485,-15.5 485,-61.5 603,-61.5 603,-15.5 485,-15.5"/>
<text text-anchor="middle" x="544" y="-46.3" font-family="Times,serif" font-size="14.00">MortgageAccount</text>
<polyline fill="none" stroke="black" points="485,-38.5 603,-38.5 "/>
<text text-anchor="start" x="493" y="-23.3" font-family="Times,serif" font-size="14.00">collateral : String</text>
</a>
</g>
</g>
<!-- MortgageAccount&#45;&gt;Account -->
<g id="edge5" class="edge"><title>MortgageAccount&#45;&gt;Account</title>
<path fill="none" stroke="black" d="M539.692,-103.257 540.414,-92.5745 541.568,-75.496 542.5,-61.7024"/>
<polygon fill="none" stroke="black" points="536.182,-103.287 539,-113.5 543.166,-103.759 536.182,-103.287"/>
</g>
<!-- Division -->
<g id="node12" class="node"><title>Division</title>
<g id="a_node12"><a xlink:href="javascript:Action.selectClass(&quot;Division&quot;);" xlink:title="class Division
">
<polygon fill="none" stroke="black" points="199,-128.5 199,-174.5 291,-174.5 291,-128.5 199,-128.5"/>
<text text-anchor="middle" x="245" y="-159.3" font-family="Times,serif" font-size="14.00">Division</text>
<polyline fill="none" stroke="black" points="199,-151.5 291,-151.5 "/>
<text text-anchor="start" x="207" y="-136.3" font-family="Times,serif" font-size="14.00">name : String</text>
</a>
</g>
</g>
<!-- Division&#45;&gt;Employee -->
<g id="edge13" class="edge"><title>Division&#45;&gt;Employee</title>
<g id="a_edge13"><a xlink:title="Division 1 &#160;&#45;&#45; * &#160;Employee">
<path fill="none" stroke="black" d="M204.384,-246.425 212.706,-227.179 226.264,-195.827 235.402,-174.696"/>
</a>
</g>
<text text-anchor="middle" x="209.884" y="-235.225" font-family="Times,serif" font-size="14.00">* </text>
<text text-anchor="middle" x="229.902" y="-178.496" font-family="Times,serif" font-size="14.00">1 </text>
</g>
<!-- Division&#45;&gt;Division -->
<g id="edge14" class="edge"><title>Division&#45;&gt;Division</title>
<g id="a_edge14"><a xlink:title="Division 0..1 &#160;&#45;&#45; * subDivision Division">
<path fill="none" stroke="black" d="M291.024,-131.013C301.406,-132.858 309,-139.688 309,-151.5 309,-163.312 301.406,-170.142 291.024,-171.987"/>
</a>
</g>
<text text-anchor="middle" x="330.524" y="-160.787" font-family="Times,serif" font-size="14.00">* subDivision</text>
<text text-anchor="middle" x="303.524" y="-119.813" font-family="Times,serif" font-size="14.00">0..1 </text>
</g>
<!-- Branch -->
<g id="node13" class="node"><title>Branch</title>
<g id="a_node13"><a xlink:href="javascript:Action.selectClass(&quot;Branch&quot;);" xlink:title="class Branch
">
<polygon fill="none" stroke="black" points="161,-8 161,-69 307,-69 307,-8 161,-8"/>
<text text-anchor="middle" x="234" y="-53.8" font-family="Times,serif" font-size="14.00">Branch</text>
<polyline fill="none" stroke="black" points="161,-46 307,-46 "/>
<text text-anchor="start" x="169" y="-30.8" font-family="Times,serif" font-size="14.00">address : String</text>
<text text-anchor="start" x="169" y="-15.8" font-family="Times,serif" font-size="14.00">branchNumber : String</text>
</a>
</g>
</g>
<!-- Branch&#45;&gt;Account -->
<g id="edge15" class="edge"><title>Branch&#45;&gt;Account</title>
<g id="a_edge15"><a xlink:title="Branch 1 &#160;&#45;&#45; * &#160;Account">
<path fill="none" stroke="black" d="M297.831,-69.1896C303.949,-71.8843 310.077,-74.527 316,-77 353.723,-92.7509 396.13,-108.983 431.653,-122.173"/>
</a>
</g>
<text text-anchor="middle" x="426.153" y="-110.973" font-family="Times,serif" font-size="14.00">* </text>
<text text-anchor="middle" x="292.331" y="-72.9896" font-family="Times,serif" font-size="14.00">1 </text>
</g>
<!-- Branch&#45;&gt;Division -->
<g id="edge6" class="edge"><title>Branch&#45;&gt;Division</title>
<path fill="none" stroke="black" d="M236.948,-69.246C238.447,-84.3773 240.272,-102.79 241.805,-118.26"/>
<polygon fill="none" stroke="black" points="238.343,-118.817 242.812,-128.423 245.309,-118.126 238.343,-118.817"/>
</g>
</g>
</svg>
