<?xml version="1.0" encoding="UTF-8" standalone="no"?>
<!DOCTYPE svg PUBLIC "-//W3C//DTD SVG 1.1//EN"
 "http://www.w3.org/Graphics/SVG/1.1/DTD/svg11.dtd">
<!-- Generated by graphviz version 2.29.20121108.1600 (20121108.1600)
 -->
<!-- Title: BcmsCore Pages: 1 -->
<svg width="539pt" height="356pt"
 viewBox="0.00 0.00 538.68 356.00" xmlns="http://www.w3.org/2000/svg" xmlns:xlink="http://www.w3.org/1999/xlink">
<g id="graph0" class="graph" transform="scale(1 1) rotate(0) translate(4 352)">
<title>BcmsCore</title>
<polygon fill="white" stroke="white" points="-4,5 -4,-352 535.678,-352 535.678,5 -4,5"/>
<!-- CrisisManagementSystem -->
<g id="node1" class="node"><title>CrisisManagementSystem</title>
<g id="a_node1"><a xlink:href="javascript:Action.selectClass(&quot;CrisisManagementSystem&quot;);" xlink:title="class CrisisManagementSystem
BcmsCore.ump

 Core Umple model file for the Crisis 
 management system
 Source document: http://cserg0.site.uottawa.ca/cma2012/CaseStudy.pdf

 Author: Timothy C. Lethbridge

 To use this, a master file must be created
 with use statements that link in
 RoutesAndLocations.ump
 and CoordinationStateMachine.ump
 Plus provide multiplicities as described.
* The singleton that will link to the various 
 &#160;* system elements
 Note that variants with different 
 multiplicities will associate this with 
 crises and coordinators
">
<polygon fill="none" stroke="black" points="-0.493164,-33 -0.493164,-69 162.493,-69 162.493,-33 -0.493164,-33"/>
<text text-anchor="middle" x="81" y="-45.5" font-family="Times,serif" font-size="14.00">CrisisManagementSystem</text>
</a>
</g>
</g>
<!-- Crisis -->
<g id="node2" class="node"><title>Crisis</title>
<g id="a_node2"><a xlink:href="javascript:Action.selectClass(&quot;Crisis&quot;);" xlink:title="class Crisis
* A crisis is what is being managed by the
 Crisis Management System

">
<polygon fill="none" stroke="black" points="180.629,-1 180.629,-101 349.371,-101 349.371,-1 180.629,-1"/>
<text text-anchor="middle" x="265" y="-83" font-family="Times,serif" font-size="14.00">Crisis</text>
<polyline fill="none" stroke="black" points="180.629,-76.2 349.371,-76.2 "/>
<text text-anchor="start" x="188.629" y="-58.2" font-family="Times,serif" font-size="14.00">identifier : String</text>
<text text-anchor="start" x="188.629" y="-41.4" font-family="Times,serif" font-size="14.00">gpsLocation : Location</text>
<text text-anchor="start" x="188.629" y="-24.6" font-family="Times,serif" font-size="14.00">initialReportedTime : Time</text>
<text text-anchor="start" x="188.629" y="-7.8" font-family="Times,serif" font-size="14.00">description : String</text>
</a>
</g>
</g>
<!-- Vehicle -->
<g id="node3" class="node"><title>Vehicle</title>
<g id="a_node3"><a xlink:href="javascript:Action.selectClass(&quot;Vehicle&quot;);" xlink:title="class Vehicle
Police or fire vehicle
From Requirements section 8 Data Dictionary
">
<polygon fill="none" stroke="black" points="33.0908,-139.2 33.0908,-272.8 218.909,-272.8 218.909,-139.2 33.0908,-139.2"/>
<text text-anchor="middle" x="126" y="-254.8" font-family="Times,serif" font-size="14.00">Vehicle</text>
<polyline fill="none" stroke="black" points="33.0908,-248 218.909,-248 "/>
<text text-anchor="start" x="41.0908" y="-230" font-family="Times,serif" font-size="14.00">vehicleID : String</text>
<text text-anchor="start" x="41.0908" y="-213.2" font-family="Times,serif" font-size="14.00">currentLocation : Location</text>
<text text-anchor="start" x="41.0908" y="-196.4" font-family="Times,serif" font-size="14.00">eta : Time</text>
<text text-anchor="start" x="41.0908" y="-179.6" font-family="Times,serif" font-size="14.00">intendedLocation : Location</text>
<text text-anchor="start" x="41.0908" y="-162.8" font-family="Times,serif" font-size="14.00">brokenDown : Boolean</text>
<text text-anchor="start" x="41.0908" y="-146" font-family="Times,serif" font-size="14.00">inTrafficCongestion : Boolean</text>
</a>
</g>
</g>
<!-- Crisis&#45;&gt;Vehicle -->
<g id="edge1" class="edge"><title>Crisis&#45;&gt;Vehicle</title>
<path fill="none" stroke="black" d="M213.9,-101.252C204.794,-110.953 195.239,-121.326 185.917,-131.624"/>
<polygon fill="black" stroke="black" points="179.18,-139.098 182.533,-128.657 182.528,-135.384 185.875,-131.67 185.875,-131.67 185.875,-131.67 182.528,-135.384 189.218,-134.683 179.18,-139.098 179.18,-139.098"/>
<text text-anchor="middle" x="243.526" y="-125.098" font-family="Times,serif" font-size="14.00">* assignedFireVehicles</text>
<text text-anchor="middle" x="201.65" y="-104.052" font-family="Times,serif" font-size="14.00">0..1 </text>
</g>
<!-- Crisis&#45;&gt;Vehicle -->
<g id="edge2" class="edge"><title>Crisis&#45;&gt;Vehicle</title>
<path fill="none" stroke="black" d="M226.608,-101.252C218.089,-110.953 208.795,-121.326 199.407,-131.624"/>
<polygon fill="black" stroke="black" points="192.564,-139.098 195.998,-128.683 195.94,-135.41 199.317,-131.722 199.317,-131.722 199.317,-131.722 195.94,-135.41 202.636,-134.761 192.564,-139.098 192.564,-139.098"/>
<text text-anchor="middle" x="121.997" y="-125.098" font-family="Times,serif" font-size="14.00">* assignedPoliceVehicles</text>
<text text-anchor="middle" x="238.858" y="-104.052" font-family="Times,serif" font-size="14.00">0..1 </text>
</g>
<!-- Route -->
<g id="node6" class="node"><title>Route</title>
<g id="a_node6"><a xlink:href="javascript:Action.selectClass(&quot;Route&quot;);" xlink:title="class Route
">
<polygon fill="none" stroke="black" points="238,-311 238,-347 292,-347 292,-311 238,-311"/>
<text text-anchor="middle" x="264.721" y="-323.5" font-family="Times,serif" font-size="14.00">Route</text>
</a>
</g>
</g>
<!-- Crisis&#45;&gt;Route -->
<g id="edge3" class="edge"><title>Crisis&#45;&gt;Route</title>
<path fill="none" stroke="black" d="M254.393,-101.025C249.909,-159.372 250.638,-254.711 256.578,-301.037"/>
<polygon fill="black" stroke="black" points="258.061,-310.929 252.128,-301.707 257.32,-305.985 256.578,-301.04 256.578,-301.04 256.578,-301.04 257.32,-305.985 261.029,-300.373 258.061,-310.929 258.061,-310.929"/>
<text text-anchor="middle" x="323.97" y="-296.929" font-family="Times,serif" font-size="14.00">0..1 proposedFireRoute</text>
<text text-anchor="middle" x="266.643" y="-103.825" font-family="Times,serif" font-size="14.00">0..1 </text>
</g>
<!-- Crisis&#45;&gt;Route -->
<g id="edge4" class="edge"><title>Crisis&#45;&gt;Route</title>
<path fill="none" stroke="black" d="M265,-101.025C265,-159.249 265,-254.309 265,-300.743"/>
<polygon fill="black" stroke="black" points="265,-310.929 260.5,-300.929 265,-305.929 265,-300.929 265,-300.929 265,-300.929 265,-305.929 269.5,-300.929 265,-310.929 265,-310.929"/>
<text text-anchor="middle" x="192.871" y="-296.929" font-family="Times,serif" font-size="14.00">0..1 proposedPoliceRoute</text>
<text text-anchor="middle" x="277.25" y="-103.825" font-family="Times,serif" font-size="14.00">0..1 </text>
</g>
<!-- Crisis&#45;&gt;Route -->
<g id="edge5" class="edge"><title>Crisis&#45;&gt;Route</title>
<path fill="none" stroke="black" d="M275.607,-101.025C280.091,-159.372 279.362,-254.711 273.422,-301.037"/>
<polygon fill="black" stroke="black" points="271.939,-310.929 268.971,-300.373 272.68,-305.985 273.422,-301.04 273.422,-301.04 273.422,-301.04 272.68,-305.985 277.872,-301.707 271.939,-310.929 271.939,-310.929"/>
<text text-anchor="middle" x="323.455" y="-313.729" font-family="Times,serif" font-size="14.00">* disagreedRoutes</text>
<text text-anchor="middle" x="287.857" y="-103.825" font-family="Times,serif" font-size="14.00">0..1 </text>
</g>
<!-- RoadSegment -->
<g id="node5" class="node"><title>RoadSegment</title>
<g id="a_node5"><a xlink:href="javascript:Action.selectClass(&quot;RoadSegment&quot;);" xlink:title="class RoadSegment
Classes defined elsewhere
">
<polygon fill="none" stroke="black" points="310.728,-188 310.728,-224 405.272,-224 405.272,-188 310.728,-188"/>
<text text-anchor="middle" x="358" y="-200.5" font-family="Times,serif" font-size="14.00">RoadSegment</text>
</a>
</g>
</g>
<!-- Crisis&#45;&gt;RoadSegment -->
<g id="edge6" class="edge"><title>Crisis&#45;&gt;RoadSegment</title>
<path fill="none" stroke="black" d="M294.938,-101.252C310.664,-127.125 329.298,-157.781 342.213,-179.028"/>
<polygon fill="black" stroke="black" points="347.543,-187.797 338.504,-181.589 344.946,-183.525 342.349,-179.252 342.349,-179.252 342.349,-179.252 344.946,-183.525 346.195,-176.915 347.543,-187.797 347.543,-187.797"/>
<text text-anchor="middle" x="439.111" y="-173.797" font-family="Times,serif" font-size="14.00">* blockedOrCongestedSegments</text>
<text text-anchor="middle" x="307.188" y="-104.052" font-family="Times,serif" font-size="14.00">0..1 </text>
</g>
<!-- Vehicle&#45;&gt;Route -->
<g id="edge7" class="edge"><title>Vehicle&#45;&gt;Route</title>
<path fill="none" stroke="black" d="M201.601,-272.811C217.775,-286.89 233.504,-300.583 245.25,-310.807"/>
<text text-anchor="middle" x="206.172" y="-313.607" font-family="Times,serif" font-size="14.00">0..1 routePlan</text>
<text text-anchor="middle" x="213.851" y="-275.611" font-family="Times,serif" font-size="14.00">0..1 </text>
</g>
<!-- StationCoordinator -->
<g id="node4" class="node"><title>StationCoordinator</title>
<g id="a_node4"><a xlink:href="javascript:Action.selectClass(&quot;StationCoordinator&quot;);" xlink:title="class StationCoordinator
* The station coordinator is the automated
 agent of the Human coordinator in
 either the fire service (FSC) or police 
 service (PSC).
 Any running version of this program will 
 just have one of these active as the
 current coordinator and one or more active 
 as remote coordinators to communicate with
">
<polygon fill="none" stroke="black" points="367.503,-17.8 367.503,-84.2 502.497,-84.2 502.497,-17.8 367.503,-17.8"/>
<text text-anchor="middle" x="435" y="-66.2" font-family="Times,serif" font-size="14.00">StationCoordinator</text>
<polyline fill="none" stroke="black" points="367.503,-59.4 502.497,-59.4 "/>
<text text-anchor="start" x="375.503" y="-41.4" font-family="Times,serif" font-size="14.00">identification : String</text>
<text text-anchor="start" x="375.503" y="-24.6" font-family="Times,serif" font-size="14.00">police : Boolean</text>
</a>
</g>
</g>
</g>
</svg>
