<?xml version="1.0" encoding="UTF-8" standalone="no"?>
<!DOCTYPE svg PUBLIC "-//W3C//DTD SVG 1.1//EN"
 "http://www.w3.org/Graphics/SVG/1.1/DTD/svg11.dtd">
<!-- Generated by graphviz version 2.40.1 (20161225.0304)
 -->
<!-- Title: BcmsCore Pages: 1 -->
<svg width="584pt" height="344pt"
 viewBox="0.00 0.00 584.00 344.00" xmlns="http://www.w3.org/2000/svg" xmlns:xlink="http://www.w3.org/1999/xlink">
<g id="graph0" class="graph" transform="scale(1 1) rotate(0) translate(4 340)">
<title>BcmsCore</title>
<polygon fill="#ffffff" stroke="transparent" points="-4,4 -4,-340 580,-340 580,4 -4,4"/>
<!-- CrisisManagementSystem -->
<g id="node1" class="node">
<title>CrisisManagementSystem</title>
<g id="a_node1"><a xlink:href="javascript:Action.selectClass(&quot;CrisisManagementSystem&quot;);" xlink:title="class CrisisManagementSystem&#10;BcmsCore.ump&#13;&#13; Core Umple model file for the Crisis &#13; management system&#13; Source document: http://cserg0.site.uottawa.ca/cma2012/CaseStudy.pdf&#13;&#13; Author: Timothy C. Lethbridge&#13;&#13; To use this, a master file must be created&#13; with use statements that link in&#13; RoutesAndLocations.ump&#13; and CoordinationStateMachine.ump&#13; Plus provide multiplicities as described.&#13;* The singleton that will link to the various &#13; &#160;* system elements&#13; Note that variants with different &#13; multiplicities will associate this with &#13; crises and coordinators&#13;">
<text text-anchor="start" x="37.0068" y="-43.8" font-family="Times,serif" font-size="14.00" fill="#000000"> &#160;&#160;&#160;CrisisManagementSystem &#160;&#160;&#160;</text>
<polygon fill="none" stroke="#000000" points="26.5,-30 26.5,-66 222.5,-66 222.5,-30 26.5,-30"/>
</a>
</g>
</g>
<!-- Crisis -->
<g id="node2" class="node">
<title>Crisis</title>
<g id="a_node2"><a xlink:href="javascript:Action.selectClass(&quot;Crisis&quot;);" xlink:title="class Crisis&#10;* A crisis is what is being managed by the&#13; Crisis Management System&#13;&#13;">
<text text-anchor="start" x="296.1621" y="-79.8" font-family="Times,serif" font-size="14.00" fill="#000000"> &#160;&#160;&#160;Crisis &#160;&#160;&#160;</text>
<g id="a_node2_0"><a xlink:href="javascript:Action.selectClass(&quot;Crisis&quot;);" xlink:title="String identifier&#13;">
<text text-anchor="start" x="243.5" y="-59.8" font-family="Times,serif" font-size="14.00" fill="#000000"> &#160;identifier : String &#160;</text>
</a>
</g>
<g id="a_node2_1"><a xlink:href="javascript:Action.selectClass(&quot;Crisis&quot;);" xlink:title="Location gpsLocation&#13;">
<text text-anchor="start" x="243.5" y="-41.8" font-family="Times,serif" font-size="14.00" fill="#000000"> &#160;gpsLocation : Location &#160;</text>
</a>
</g>
<g id="a_node2_2"><a xlink:href="javascript:Action.selectClass(&quot;Crisis&quot;);" xlink:title="Time initialReportedTime&#13;">
<text text-anchor="start" x="243.1289" y="-23.8" font-family="Times,serif" font-size="14.00" fill="#000000"> &#160;initialReportedTime : Time &#160;</text>
</a>
</g>
<g id="a_node2_3"><a xlink:href="javascript:Action.selectClass(&quot;Crisis&quot;);" xlink:title="String description&#13;">
<text text-anchor="start" x="243.5" y="-5.8" font-family="Times,serif" font-size="14.00" fill="#000000"> &#160;description : String &#160;</text>
</a>
</g>
<polygon fill="#000000" stroke="#000000" points="240.5,-73 240.5,-73 412.5,-73 412.5,-73 240.5,-73"/>
<polygon fill="none" stroke="#000000" points="240.5,0 240.5,-96 412.5,-96 412.5,0 240.5,0"/>
</a>
</g>
</g>
<!-- Vehicle -->
<g id="node3" class="node">
<title>Vehicle</title>
<g id="a_node3"><a xlink:href="javascript:Action.selectClass(&quot;Vehicle&quot;);" xlink:title="class Vehicle&#10;Police or fire vehicle&#13;From Requirements section 8 Data Dictionary&#13;">
<text text-anchor="start" x="60.1333" y="-247.8" font-family="Times,serif" font-size="14.00" fill="#000000"> &#160;&#160;&#160;Vehicle &#160;&#160;&#160;</text>
<g id="a_node3_4"><a xlink:href="javascript:Action.selectClass(&quot;Vehicle&quot;);" xlink:title="String vehicleID&#13;">
<text text-anchor="start" x="3.5" y="-227.8" font-family="Times,serif" font-size="14.00" fill="#000000"> &#160;vehicleID : String &#160;</text>
</a>
</g>
<g id="a_node3_5"><a xlink:href="javascript:Action.selectClass(&quot;Vehicle&quot;);" xlink:title="Location currentLocation&#13;">
<text text-anchor="start" x="3.5" y="-209.8" font-family="Times,serif" font-size="14.00" fill="#000000"> &#160;currentLocation : Location &#160;</text>
</a>
</g>
<g id="a_node3_6"><a xlink:href="javascript:Action.selectClass(&quot;Vehicle&quot;);" xlink:title="Time eta&#13;">
<text text-anchor="start" x="3.5" y="-191.8" font-family="Times,serif" font-size="14.00" fill="#000000"> &#160;eta : Time &#160;</text>
</a>
</g>
<g id="a_node3_7"><a xlink:href="javascript:Action.selectClass(&quot;Vehicle&quot;);" xlink:title="Location intendedLocation&#13;">
<text text-anchor="start" x="3.5" y="-173.8" font-family="Times,serif" font-size="14.00" fill="#000000"> &#160;intendedLocation : Location &#160;</text>
</a>
</g>
<g id="a_node3_8"><a xlink:href="javascript:Action.selectClass(&quot;Vehicle&quot;);" xlink:title="Boolean brokenDown&#13;">
<text text-anchor="start" x="3.5" y="-155.8" font-family="Times,serif" font-size="14.00" fill="#000000"> &#160;brokenDown : Boolean &#160;</text>
</a>
</g>
<g id="a_node3_9"><a xlink:href="javascript:Action.selectClass(&quot;Vehicle&quot;);" xlink:title="Boolean inTrafficCongestion&#13;">
<text text-anchor="start" x="3.0908" y="-137.8" font-family="Times,serif" font-size="14.00" fill="#000000"> &#160;inTrafficCongestion : Boolean &#160;</text>
</a>
</g>
<polygon fill="#000000" stroke="#000000" points=".5,-241 .5,-241 189.5,-241 189.5,-241 .5,-241"/>
<polygon fill="none" stroke="#000000" points="0,-132 0,-264 189,-264 189,-132 0,-132"/>
</a>
</g>
</g>
<!-- Crisis&#45;&gt;Vehicle -->
<g id="edge1" class="edge">
<title>Crisis&#45;&gt;Vehicle</title>
<g id="a_edge1"><a xlink:title="Crisis 0..1 &#160;&#45;&gt; * assignedFireVehicles Vehicle">
<path fill="none" stroke="#000000" d="M245.7888,-96.0799C230.2453,-105.9311 213.7723,-116.4968 197.6343,-126.9595"/>
<polygon fill="#000000" stroke="#000000" points="189.2324,-132.4171 195.1672,-123.196 193.4255,-129.6934 197.6186,-126.9697 197.6186,-126.9697 197.6186,-126.9697 193.4255,-129.6934 200.0699,-130.7435 189.2324,-132.4171 189.2324,-132.4171"/>
</a>
</g>
<text text-anchor="middle" x="253.5791" y="-121.2171" font-family="Times,serif" font-size="14.00" fill="#000000">* assignedFireVehicles</text>
<text text-anchor="middle" x="233.5388" y="-98.8799" font-family="Times,serif" font-size="14.00" fill="#000000">0..1 </text>
</g>
<!-- Crisis&#45;&gt;Vehicle -->
<g id="edge2" class="edge">
<title>Crisis&#45;&gt;Vehicle</title>
<g id="a_edge2"><a xlink:title="Crisis 0..1 &#160;&#45;&gt; * assignedPoliceVehicles Vehicle">
<path fill="none" stroke="#000000" d="M258.4841,-96.0799C239.4225,-108.6575 218.2734,-122.3999 197.6682,-135.6054"/>
<polygon fill="#000000" stroke="#000000" points="189.1893,-141.0287 195.1887,-131.8495 193.4014,-138.3345 197.6135,-135.6404 197.6135,-135.6404 197.6135,-135.6404 193.4014,-138.3345 200.0382,-139.4313 189.1893,-141.0287 189.1893,-141.0287"/>
</a>
</g>
<text text-anchor="middle" x="259.7567" y="-143.8287" font-family="Times,serif" font-size="14.00" fill="#000000">* assignedPoliceVehicles</text>
<text text-anchor="middle" x="270.7341" y="-98.8799" font-family="Times,serif" font-size="14.00" fill="#000000">0..1 </text>
</g>
<!-- RoadSegment -->
<g id="node5" class="node">
<title>RoadSegment</title>
<g id="a_node5"><a xlink:href="javascript:Action.selectClass(&quot;RoadSegment&quot;);" xlink:title="class RoadSegment&#10;Classes defined elsewhere&#13;">
<text text-anchor="start" x="218.2275" y="-193.8" font-family="Times,serif" font-size="14.00" fill="#000000"> &#160;&#160;&#160;RoadSegment &#160;&#160;&#160;</text>
<polygon fill="none" stroke="#000000" points="207.5,-180 207.5,-216 335.5,-216 335.5,-180 207.5,-180"/>
</a>
</g>
</g>
<!-- Crisis&#45;&gt;RoadSegment -->
<g id="edge6" class="edge">
<title>Crisis&#45;&gt;RoadSegment</title>
<g id="a_edge6"><a xlink:title="Crisis 0..1 &#160;&#45;&gt; * blockedOrCongestedSegments RoadSegment">
<path fill="none" stroke="#000000" d="M308.7949,-96.2866C299.8353,-120.7219 289.28,-149.509 281.6897,-170.2098"/>
<polygon fill="#000000" stroke="#000000" points="278.2217,-179.668 277.4394,-168.7301 279.943,-174.9737 281.6643,-170.2793 281.6643,-170.2793 281.6643,-170.2793 279.943,-174.9737 285.8893,-171.8284 278.2217,-179.668 278.2217,-179.668"/>
</a>
</g>
<text text-anchor="middle" x="369.7891" y="-168.468" font-family="Times,serif" font-size="14.00" fill="#000000">* blockedOrCongestedSegments</text>
<text text-anchor="middle" x="296.5449" y="-99.0866" font-family="Times,serif" font-size="14.00" fill="#000000">0..1 </text>
</g>
<!-- Route -->
<g id="node6" class="node">
<title>Route</title>
<g id="a_node6"><a xlink:href="javascript:Action.selectClass(&quot;Route&quot;);" xlink:title="class Route&#10;">
<text text-anchor="start" x="351.2793" y="-313.8" font-family="Times,serif" font-size="14.00" fill="#000000"> &#160;&#160;&#160;Route &#160;&#160;&#160;</text>
<polygon fill="none" stroke="#000000" points="340,-300 340,-336 423,-336 423,-300 340,-300"/>
</a>
</g>
</g>
<!-- Crisis&#45;&gt;Route -->
<g id="edge3" class="edge">
<title>Crisis&#45;&gt;Route</title>
<g id="a_edge3"><a xlink:title="Crisis 0..1 &#160;&#45;&gt; 0..1 proposedFireRoute Route">
<path fill="none" stroke="#000000" d="M319.5258,-96.3911C321.4895,-108.0448 324.1162,-120.4613 326.5,-132 338.0992,-188.1452 351.0375,-253.9662 363.7912,-290.3241"/>
<polygon fill="#000000" stroke="#000000" points="367.3823,-299.7651 359.621,-292.0182 365.6047,-295.0917 363.827,-290.4184 363.827,-290.4184 363.827,-290.4184 365.6047,-295.0917 368.0331,-288.8185 367.3823,-299.7651 367.3823,-299.7651"/>
</a>
</g>
<text text-anchor="middle" x="301.4736" y="-288.5651" font-family="Times,serif" font-size="14.00" fill="#000000">0..1 proposedFireRoute</text>
<text text-anchor="middle" x="331.7758" y="-99.1911" font-family="Times,serif" font-size="14.00" fill="#000000">0..1 </text>
</g>
<!-- Crisis&#45;&gt;Route -->
<g id="edge4" class="edge">
<title>Crisis&#45;&gt;Route</title>
<g id="a_edge4"><a xlink:title="Crisis 0..1 &#160;&#45;&gt; 0..1 proposedPoliceRoute Route">
<path fill="none" stroke="#000000" d="M336.9968,-96.3911C339.4895,-108.0448 342.1162,-120.4613 344.5,-132 356.0497,-187.9053 368.9269,-253.4038 376.0355,-289.8564"/>
<polygon fill="#000000" stroke="#000000" points="377.9651,-299.7651 371.6365,-290.8097 377.0093,-294.8573 376.0535,-289.9495 376.0535,-289.9495 376.0535,-289.9495 377.0093,-294.8573 380.4706,-289.0892 377.9651,-299.7651 377.9651,-299.7651"/>
</a>
</g>
<text text-anchor="middle" x="450.0945" y="-288.5651" font-family="Times,serif" font-size="14.00" fill="#000000">0..1 proposedPoliceRoute</text>
<text text-anchor="middle" x="349.2468" y="-99.1911" font-family="Times,serif" font-size="14.00" fill="#000000">0..1 </text>
</g>
<!-- Crisis&#45;&gt;Route -->
<g id="edge5" class="edge">
<title>Crisis&#45;&gt;Route</title>
<g id="a_edge5"><a xlink:title="Crisis 0..1 &#160;&#45;&gt; * disagreedRoutes Route">
<path fill="none" stroke="#000000" d="M354.4678,-96.3911C357.4895,-108.0448 360.1162,-120.4613 362.5,-132 374.0001,-187.6653 386.8164,-252.8418 388.4231,-289.3854"/>
<polygon fill="#000000" stroke="#000000" points="388.548,-299.7651 383.9279,-289.82 388.4878,-294.7654 388.4276,-289.7658 388.4276,-289.7658 388.4276,-289.7658 388.4878,-294.7654 392.9273,-289.7116 388.548,-299.7651 388.548,-299.7651"/>
</a>
</g>
<text text-anchor="middle" x="440.0636" y="-302.5651" font-family="Times,serif" font-size="14.00" fill="#000000">* disagreedRoutes</text>
<text text-anchor="middle" x="366.7178" y="-99.1911" font-family="Times,serif" font-size="14.00" fill="#000000">0..1 </text>
</g>
<!-- Vehicle&#45;&gt;Route -->
<g id="edge7" class="edge">
<title>Vehicle&#45;&gt;Route</title>
<g id="a_edge7"><a xlink:title="Vehicle 0..1 &#160;&#45;&#45; 0..1 routePlan Route">
<path fill="none" stroke="#000000" d="M189.1175,-259.529C192.2523,-261.0899 195.3846,-262.5855 198.5,-264 245.0999,-285.1584 302.1065,-300.4464 339.9856,-309.2432"/>
</a>
</g>
<text text-anchor="middle" x="300.9079" y="-312.0432" font-family="Times,serif" font-size="14.00" fill="#000000">0..1 routePlan</text>
<text text-anchor="middle" x="201.3675" y="-248.329" font-family="Times,serif" font-size="14.00" fill="#000000">0..1 </text>
</g>
<!-- StationCoordinator -->
<g id="node4" class="node">
<title>StationCoordinator</title>
<g id="a_node4"><a xlink:href="javascript:Action.selectClass(&quot;StationCoordinator&quot;);" xlink:title="class StationCoordinator&#10;* The station coordinator is the automated&#13; agent of the Human coordinator in&#13; either the fire service (FSC) or police &#13; service (PSC).&#13; Any running version of this program will &#13; just have one of these active as the&#13; current coordinator and one or more active &#13; as remote coordinators to communicate with&#13;">
<text text-anchor="start" x="436.3379" y="-61.8" font-family="Times,serif" font-size="14.00" fill="#000000"> &#160;&#160;&#160;StationCoordinator &#160;&#160;&#160;</text>
<g id="a_node4_10"><a xlink:href="javascript:Action.selectClass(&quot;StationCoordinator&quot;);" xlink:title="String identification&#13;">
<text text-anchor="start" x="434.5" y="-41.8" font-family="Times,serif" font-size="14.00" fill="#000000"> &#160;identification : String &#160;</text>
</a>
</g>
<g id="a_node4_11"><a xlink:href="javascript:Action.selectClass(&quot;StationCoordinator&quot;);" xlink:title="Boolean police&#13;false for fire&#13;">
<text text-anchor="start" x="434.5" y="-23.8" font-family="Times,serif" font-size="14.00" fill="#000000"> &#160;police : Boolean &#160;</text>
</a>
</g>
<polygon fill="#000000" stroke="#000000" points="431.5,-55 431.5,-55 576.5,-55 576.5,-55 431.5,-55"/>
<polygon fill="none" stroke="#000000" points="431,-18 431,-78 576,-78 576,-18 431,-18"/>
</a>
</g>
</g>
</g>
</svg>
