<?xml version="1.0" encoding="UTF-8" standalone="no"?>
<!DOCTYPE svg PUBLIC "-//W3C//DTD SVG 1.1//EN"
 "http://www.w3.org/Graphics/SVG/1.1/DTD/svg11.dtd">
<!-- Generated by graphviz version 2.39.20140502.0445 (20140502.0445)
 -->
<!-- Title: BcmsCore Pages: 1 -->
<svg width="546pt" height="331pt"
 viewBox="0.00 0.00 546.00 331.00" xmlns="http://www.w3.org/2000/svg" xmlns:xlink="http://www.w3.org/1999/xlink">
<g id="graph0" class="graph" transform="scale(1 1) rotate(0) translate(4 327)">
<title>BcmsCore</title>
<polygon fill="white" stroke="none" points="-4,4 -4,-327 542,-327 542,4 -4,4"/>
<!-- CrisisManagementSystem -->
<g id="node1" class="node"><title>CrisisManagementSystem</title>
<g id="a_node1"><a xlink:href="javascript:Action.selectClass(&quot;CrisisManagementSystem&quot;);" xlink:title="class CrisisManagementSystem
BcmsCore.ump

 Core Umple model file for the Crisis 
 management system
 Source document: http://cserg0.site.uottawa.ca/cma2012/CaseStudy.pdf

 Author: Timothy C. Lethbridge

 To use this, a master file must be created
 with use statements that link in
 RoutesAndLocations.ump
 and CoordinationStateMachine.ump
 Plus provide multiplicities as described.
* The singleton that will link to the various 
 &#160;* system elements
 Note that variants with different 
 multiplicities will associate this with 
 crises and coordinators
">
<polygon fill="none" stroke="black" points="33,-28 33,-64 196,-64 196,-28 33,-28"/>
<text text-anchor="middle" x="114.5" y="-42.3" font-family="Times,serif" font-size="14.00">CrisisManagementSystem</text>
</a>
</g>
</g>
<!-- Crisis -->
<g id="node2" class="node"><title>Crisis</title>
<g id="a_node2"><a xlink:href="javascript:Action.selectClass(&quot;Crisis&quot;);" xlink:title="class Crisis
* A crisis is what is being managed by the
 Crisis Management System

">
<polygon fill="none" stroke="black" points="214.5,-0.5 214.5,-91.5 384.5,-91.5 384.5,-0.5 214.5,-0.5"/>
<text text-anchor="middle" x="299.5" y="-76.3" font-family="Times,serif" font-size="14.00">Crisis</text>
<polyline fill="none" stroke="black" points="214.5,-68.5 384.5,-68.5 "/>
<text text-anchor="start" x="222.5" y="-53.3" font-family="Times,serif" font-size="14.00">identifier : String</text>
<text text-anchor="start" x="222.5" y="-38.3" font-family="Times,serif" font-size="14.00">gpsLocation : Location</text>
<text text-anchor="start" x="222.5" y="-23.3" font-family="Times,serif" font-size="14.00">initialReportedTime : Time</text>
<text text-anchor="start" x="222.5" y="-8.3" font-family="Times,serif" font-size="14.00">description : String</text>
</a>
</g>
</g>
<!-- Vehicle -->
<g id="node3" class="node"><title>Vehicle</title>
<g id="a_node3"><a xlink:href="javascript:Action.selectClass(&quot;Vehicle&quot;);" xlink:title="class Vehicle
Police or fire vehicle
From Requirements section 8 Data Dictionary
">
<polygon fill="none" stroke="black" points="0,-128.5 0,-249.5 187,-249.5 187,-128.5 0,-128.5"/>
<text text-anchor="middle" x="93.5" y="-234.3" font-family="Times,serif" font-size="14.00">Vehicle</text>
<polyline fill="none" stroke="black" points="0,-226.5 187,-226.5 "/>
<text text-anchor="start" x="8" y="-211.3" font-family="Times,serif" font-size="14.00">vehicleID : String</text>
<text text-anchor="start" x="8" y="-196.3" font-family="Times,serif" font-size="14.00">currentLocation : Location</text>
<text text-anchor="start" x="8" y="-181.3" font-family="Times,serif" font-size="14.00">eta : Time</text>
<text text-anchor="start" x="8" y="-166.3" font-family="Times,serif" font-size="14.00">intendedLocation : Location</text>
<text text-anchor="start" x="8" y="-151.3" font-family="Times,serif" font-size="14.00">brokenDown : Boolean</text>
<text text-anchor="start" x="8" y="-136.3" font-family="Times,serif" font-size="14.00">inTrafficCongestion : Boolean</text>
</a>
</g>
</g>
<!-- Crisis&#45;&gt;Vehicle -->
<g id="edge1" class="edge"><title>Crisis&#45;&gt;Vehicle</title>
<g id="a_edge1"><a xlink:title="Crisis 0..1 &#160;&#45;&gt; * assignedFireVehicles Vehicle">
<path fill="none" stroke="black" d="M182.249,-122.645 197.53,-112.141 213.235,-101.484 227.992,-91.6133"/>
<polygon fill="black" stroke="black" points="173.812,-128.459 179.493,-119.079 177.93,-125.622 182.047,-122.785 182.047,-122.785 182.047,-122.785 177.93,-125.622 184.6,-126.49 173.812,-128.459 173.812,-128.459"/>
</a>
</g>
<text text-anchor="middle" x="239.312" y="-117.259" font-family="Times,serif" font-size="14.00">* assignedFireVehicles</text>
<text text-anchor="middle" x="215.492" y="-95.4133" font-family="Times,serif" font-size="14.00">0..1 </text>
</g>
<!-- Crisis&#45;&gt;Vehicle -->
<g id="edge2" class="edge"><title>Crisis&#45;&gt;Vehicle</title>
<g id="a_edge2"><a xlink:title="Crisis 0..1 &#160;&#45;&gt; * assignedPoliceVehicles Vehicle">
<path fill="none" stroke="black" d="M195.717,-122.645 211.129,-112.141 226.563,-101.484 240.648,-91.6133"/>
<polygon fill="black" stroke="black" points="187.166,-128.459 192.906,-119.115 191.301,-125.647 195.436,-122.836 195.436,-122.836 195.436,-122.836 191.301,-125.647 197.966,-126.558 187.166,-128.459 187.166,-128.459"/>
</a>
</g>
<text text-anchor="middle" x="258.666" y="-132.259" font-family="Times,serif" font-size="14.00">* assignedPoliceVehicles</text>
<text text-anchor="middle" x="253.148" y="-95.4133" font-family="Times,serif" font-size="14.00">0..1 </text>
</g>
<!-- RoadSegment -->
<g id="node5" class="node"><title>RoadSegment</title>
<g id="a_node5"><a xlink:href="javascript:Action.selectClass(&quot;RoadSegment&quot;);" xlink:title="class RoadSegment
Classes defined elsewhere
">
<polygon fill="none" stroke="black" points="205,-171 205,-207 300,-207 300,-171 205,-171"/>
<text text-anchor="middle" x="252.5" y="-185.3" font-family="Times,serif" font-size="14.00">RoadSegment</text>
</a>
</g>
</g>
<!-- Crisis&#45;&gt;RoadSegment -->
<g id="edge6" class="edge"><title>Crisis&#45;&gt;RoadSegment</title>
<g id="a_edge6"><a xlink:title="Crisis 0..1 &#160;&#45;&gt; * blockedOrCongestedSegments RoadSegment">
<path fill="none" stroke="black" d="M261.366,-161.401 267.914,-141.757 276.98,-114.561 284.629,-91.6133"/>
<polygon fill="black" stroke="black" points="258.193,-170.922 257.086,-160.012 259.774,-166.178 261.355,-161.435 261.355,-161.435 261.355,-161.435 259.774,-166.178 265.624,-162.858 258.193,-170.922 258.193,-170.922"/>
</a>
</g>
<text text-anchor="middle" x="350.193" y="-159.722" font-family="Times,serif" font-size="14.00">* blockedOrCongestedSegments</text>
<text text-anchor="middle" x="284.629" y="-95.4133" font-family="Times,serif" font-size="14.00">0..1 </text>
</g>
<!-- Route -->
<g id="node6" class="node"><title>Route</title>
<g id="a_node6"><a xlink:href="javascript:Action.selectClass(&quot;Route&quot;);" xlink:title="class Route
">
<polygon fill="none" stroke="black" points="319.5,-286.5 319.5,-322.5 373.5,-322.5 373.5,-286.5 319.5,-286.5"/>
<text text-anchor="middle" x="346.5" y="-300.8" font-family="Times,serif" font-size="14.00">Route</text>
</a>
</g>
</g>
<!-- Crisis&#45;&gt;Route -->
<g id="edge3" class="edge"><title>Crisis&#45;&gt;Route</title>
<g id="a_edge3"><a xlink:title="Crisis 0..1 &#160;&#45;&gt; 0..1 proposedFireRoute Route">
<path fill="none" stroke="black" d="M297.153,-91.6789C302.437,-145.097 319.128,-232.775 332.928,-276.683"/>
<polygon fill="black" stroke="black" points="336.184,-286.359 328.729,-278.317 334.589,-281.621 332.994,-276.882 332.994,-276.882 332.994,-276.882 334.589,-281.621 337.259,-275.447 336.184,-286.359 336.184,-286.359"/>
</a>
</g>
<text text-anchor="middle" x="270.184" y="-275.159" font-family="Times,serif" font-size="14.00">0..1 proposedFireRoute</text>
<text text-anchor="middle" x="309.653" y="-95.4789" font-family="Times,serif" font-size="14.00">0..1 </text>
</g>
<!-- Crisis&#45;&gt;Route -->
<g id="edge4" class="edge"><title>Crisis&#45;&gt;Route</title>
<g id="a_edge4"><a xlink:title="Crisis 0..1 &#160;&#45;&gt; 0..1 proposedPoliceRoute Route">
<path fill="none" stroke="black" d="M307.687,-91.6789C317.454,-144.984 333.473,-232.405 341.535,-276.405"/>
<polygon fill="black" stroke="black" points="343.359,-286.359 337.131,-277.334 342.458,-281.441 341.557,-276.523 341.557,-276.523 341.557,-276.523 342.458,-281.441 345.983,-275.712 343.359,-286.359 343.359,-286.359"/>
</a>
</g>
<text text-anchor="middle" x="415.859" y="-275.159" font-family="Times,serif" font-size="14.00">0..1 proposedPoliceRoute</text>
<text text-anchor="middle" x="320.187" y="-95.4789" font-family="Times,serif" font-size="14.00">0..1 </text>
</g>
<!-- Crisis&#45;&gt;Route -->
<g id="edge5" class="edge"><title>Crisis&#45;&gt;Route</title>
<g id="a_edge5"><a xlink:title="Crisis 0..1 &#160;&#45;&gt; * disagreedRoutes Route">
<path fill="none" stroke="black" d="M318.22,-91.6789C332.452,-144.871 347.823,-232.036 350.215,-276.125"/>
<polygon fill="black" stroke="black" points="350.535,-286.359 345.725,-276.505 350.379,-281.362 350.222,-276.364 350.222,-276.364 350.222,-276.364 350.379,-281.362 354.72,-276.224 350.535,-286.359 350.535,-286.359"/>
</a>
</g>
<text text-anchor="middle" x="402.535" y="-290.159" font-family="Times,serif" font-size="14.00">* disagreedRoutes</text>
<text text-anchor="middle" x="330.72" y="-95.4789" font-family="Times,serif" font-size="14.00">0..1 </text>
</g>
<!-- Vehicle&#45;&gt;Route -->
<g id="edge7" class="edge"><title>Vehicle&#45;&gt;Route</title>
<g id="a_edge7"><a xlink:title="Vehicle 0..1 &#160;&#45;&#45; 0..1 routePlan Route">
<path fill="none" stroke="black" d="M187.064,-245.945C189.891,-247.343 192.707,-248.698 195.5,-250 237.473,-269.561 288.722,-286.308 319.427,-295.628"/>
</a>
</g>
<text text-anchor="middle" x="279.927" y="-299.428" font-family="Times,serif" font-size="14.00">0..1 routePlan</text>
<text text-anchor="middle" x="199.564" y="-234.745" font-family="Times,serif" font-size="14.00">0..1 </text>
</g>
<!-- StationCoordinator -->
<g id="node4" class="node"><title>StationCoordinator</title>
<g id="a_node4"><a xlink:href="javascript:Action.selectClass(&quot;StationCoordinator&quot;);" xlink:title="class StationCoordinator
* The station coordinator is the automated
 agent of the Human coordinator in
 either the fire service (FSC) or police 
 service (PSC).
 Any running version of this program will 
 just have one of these active as the
 current coordinator and one or more active 
 as remote coordinators to communicate with
">
<polygon fill="none" stroke="black" points="403,-15.5 403,-76.5 538,-76.5 538,-15.5 403,-15.5"/>
<text text-anchor="middle" x="470.5" y="-61.3" font-family="Times,serif" font-size="14.00">StationCoordinator</text>
<polyline fill="none" stroke="black" points="403,-53.5 538,-53.5 "/>
<text text-anchor="start" x="411" y="-38.3" font-family="Times,serif" font-size="14.00">identification : String</text>
<text text-anchor="start" x="411" y="-23.3" font-family="Times,serif" font-size="14.00">police : Boolean</text>
</a>
</g>
</g>
</g>
</svg>
