<?xml version="1.0" encoding="UTF-8" standalone="no"?>
<!DOCTYPE svg PUBLIC "-//W3C//DTD SVG 1.1//EN"
 "http://www.w3.org/Graphics/SVG/1.1/DTD/svg11.dtd">
<!-- Generated by graphviz version 2.29.20121108.1600 (20121108.1600)
 -->
<!-- Title: Booking Pages: 1 -->
<svg width="260pt" height="366pt"
 viewBox="0.00 0.00 259.75 366.00" xmlns="http://www.w3.org/2000/svg" xmlns:xlink="http://www.w3.org/1999/xlink">
<g id="graph0" class="graph" transform="scale(1 1) rotate(0) translate(4 362)">
<title>Booking</title>
<polygon fill="white" stroke="white" points="-4,5 -4,-362 256.745,-362 256.745,5 -4,5"/>
<!-- start_Booking_state -->
<g id="node1" class="node"><title>start_Booking_state</title>
<ellipse fill="black" stroke="black" cx="189" cy="-351" rx="7.2" ry="7.2"/>
</g>
<!-- Booking_state_new -->
<g id="node2" class="node"><title>Booking_state_new</title>
<path fill="none" stroke="black" d="M213,-306C213,-306 165,-306 165,-306 159,-306 153,-300 153,-294 153,-294 153,-282 153,-282 153,-276 159,-270 165,-270 165,-270 213,-270 213,-270 219,-270 225,-276 225,-282 225,-282 225,-294 225,-294 225,-300 219,-306 213,-306"/>
<text text-anchor="middle" x="189" y="-282.4" font-family="Times,serif" font-size="14.00">new</text>
</g>
<!-- start_Booking_state&#45;&gt;Booking_state_new -->
<g id="edge1" class="edge"><title>start_Booking_state&#45;&gt;Booking_state_new</title>
<path fill="none" stroke="black" d="M189,-343.472C189,-336.902 189,-326.324 189,-316.229"/>
<polygon fill="black" stroke="black" points="192.5,-316.073 189,-306.073 185.5,-316.073 192.5,-316.073"/>
</g>
<!-- Booking_state_seatAssigned -->
<g id="node3" class="node"><title>Booking_state_seatAssigned</title>
<path fill="none" stroke="black" d="M184.408,-216C184.408,-216 119.592,-216 119.592,-216 113.592,-216 107.592,-210 107.592,-204 107.592,-204 107.592,-192 107.592,-192 107.592,-186 113.592,-180 119.592,-180 119.592,-180 184.408,-180 184.408,-180 190.408,-180 196.408,-186 196.408,-192 196.408,-192 196.408,-204 196.408,-204 196.408,-210 190.408,-216 184.408,-216"/>
<text text-anchor="middle" x="152" y="-192.4" font-family="Times,serif" font-size="14.00">seatAssigned</text>
</g>
<!-- Booking_state_new&#45;&gt;Booking_state_seatAssigned -->
<g id="edge2" class="edge"><title>Booking_state_new&#45;&gt;Booking_state_seatAssigned</title>
<path fill="none" stroke="black" d="M165.956,-269.944C160.702,-264.81 155.812,-258.728 152.896,-252 149.5,-244.163 148.449,-235.042 148.488,-226.598"/>
<polygon fill="black" stroke="black" points="151.994,-226.584 149.028,-216.413 145.004,-226.214 151.994,-226.584"/>
<text text-anchor="middle" x="182.552" y="-237.4" font-family="Times,serif" font-size="14.00">assignSeat</text>
</g>
<!-- Booking_state_cancelled -->
<g id="node5" class="node"><title>Booking_state_cancelled</title>
<path fill="none" stroke="black" d="M186,-36C186,-36 138,-36 138,-36 132,-36 126,-30 126,-24 126,-24 126,-12 126,-12 126,-6 132,-0 138,-0 138,-0 186,-0 186,-0 192,-0 198,-6 198,-12 198,-12 198,-24 198,-24 198,-30 192,-36 186,-36"/>
<text text-anchor="middle" x="162" y="-12.4" font-family="Times,serif" font-size="14.00">cancelled</text>
</g>
<!-- Booking_state_new&#45;&gt;Booking_state_cancelled -->
<g id="edge4" class="edge"><title>Booking_state_new&#45;&gt;Booking_state_cancelled</title>
<path fill="none" stroke="black" d="M203.105,-269.844C206.725,-264.456 210.124,-258.269 212,-252 222.643,-216.425 261.773,-314.5 197,-90 192.494,-74.381 184.679,-58.0371 177.576,-44.973"/>
<polygon fill="black" stroke="black" points="180.537,-43.0994 172.586,-36.0972 174.435,-46.5295 180.537,-43.0994"/>
<text text-anchor="middle" x="233.873" y="-147.4" font-family="Times,serif" font-size="14.00">cancel</text>
</g>
<!-- Booking_state_checkedIn -->
<g id="node4" class="node"><title>Booking_state_checkedIn</title>
<path fill="none" stroke="black" d="M113.142,-126C113.142,-126 64.8578,-126 64.8578,-126 58.8578,-126 52.8578,-120 52.8578,-114 52.8578,-114 52.8578,-102 52.8578,-102 52.8578,-96 58.8578,-90 64.8578,-90 64.8578,-90 113.142,-90 113.142,-90 119.142,-90 125.142,-96 125.142,-102 125.142,-102 125.142,-114 125.142,-114 125.142,-120 119.142,-126 113.142,-126"/>
<text text-anchor="middle" x="89" y="-102.4" font-family="Times,serif" font-size="14.00">checkedIn</text>
</g>
<!-- Booking_state_seatAssigned&#45;&gt;Booking_state_checkedIn -->
<g id="edge3" class="edge"><title>Booking_state_seatAssigned&#45;&gt;Booking_state_checkedIn</title>
<path fill="none" stroke="black" d="M121.853,-179.953C115.075,-174.923 108.482,-168.889 103.696,-162 98.4496,-154.447 95.0706,-145.075 92.8966,-136.323"/>
<polygon fill="black" stroke="black" points="96.3132,-135.561 90.8583,-126.478 89.4585,-136.98 96.3132,-135.561"/>
<text text-anchor="middle" x="126.152" y="-147.4" font-family="Times,serif" font-size="14.00">checkIn</text>
</g>
<!-- Booking_state_seatAssigned&#45;&gt;Booking_state_cancelled -->
<g id="edge5" class="edge"><title>Booking_state_seatAssigned&#45;&gt;Booking_state_cancelled</title>
<path fill="none" stroke="black" d="M152.959,-179.933C154.699,-148.966 158.388,-83.2989 160.476,-46.1292"/>
<polygon fill="black" stroke="black" points="163.978,-46.1963 161.044,-36.0157 156.989,-45.8036 163.978,-46.1963"/>
<text text-anchor="middle" x="175.873" y="-102.4" font-family="Times,serif" font-size="14.00">cancel</text>
</g>
<!-- Booking_state_checkedIn&#45;&gt;Booking_state_cancelled -->
<g id="edge6" class="edge"><title>Booking_state_checkedIn&#45;&gt;Booking_state_cancelled</title>
<path fill="none" stroke="black" d="M93.8357,-89.9539C97.5806,-78.8748 103.603,-64.5779 112.255,-54 115.723,-49.7598 119.828,-45.8009 124.17,-42.1834"/>
<polygon fill="black" stroke="black" points="126.353,-44.9196 132.154,-36.0536 122.09,-39.3673 126.353,-44.9196"/>
<text text-anchor="middle" x="130.873" y="-57.4" font-family="Times,serif" font-size="14.00">cancel</text>
</g>
<!-- Booking_state_completed -->
<g id="node6" class="node"><title>Booking_state_completed</title>
<path fill="none" stroke="black" d="M62.2332,-36C62.2332,-36 11.7668,-36 11.7668,-36 5.76676,-36 -0.233236,-30 -0.233236,-24 -0.233236,-24 -0.233236,-12 -0.233236,-12 -0.233236,-6 5.76676,-0 11.7668,-0 11.7668,-0 62.2332,-0 62.2332,-0 68.2332,-0 74.2332,-6 74.2332,-12 74.2332,-12 74.2332,-24 74.2332,-24 74.2332,-30 68.2332,-36 62.2332,-36"/>
<text text-anchor="middle" x="37" y="-12.4" font-family="Times,serif" font-size="14.00">completed</text>
</g>
<!-- Booking_state_checkedIn&#45;&gt;Booking_state_completed -->
<g id="edge7" class="edge"><title>Booking_state_checkedIn&#45;&gt;Booking_state_completed</title>
<path fill="none" stroke="black" d="M54.0567,-89.9385C47.5017,-85.0805 41.514,-79.1259 37.6895,-72 33.5437,-64.2757 32.388,-54.9608 32.5711,-46.3088"/>
<polygon fill="black" stroke="black" points="36.0686,-46.4748 33.3474,-36.2354 29.0893,-45.9369 36.0686,-46.4748"/>
<text text-anchor="middle" x="63.6553" y="-57.4" font-family="Times,serif" font-size="14.00">complete</text>
</g>
</g>
</svg>
