<?xml version="1.0" encoding="UTF-8" standalone="no"?>
<!DOCTYPE svg PUBLIC "-//W3C//DTD SVG 1.1//EN"
 "http://www.w3.org/Graphics/SVG/1.1/DTD/svg11.dtd">
<!-- Generated by graphviz version 2.40.1 (20161225.0304)
 -->
<!-- Title: CanalSystem Pages: 1 -->
<svg width="1114pt" height="242pt"
 viewBox="0.00 0.00 1114.00 242.00" xmlns="http://www.w3.org/2000/svg" xmlns:xlink="http://www.w3.org/1999/xlink">
<g id="graph0" class="graph" transform="scale(1 1) rotate(0) translate(4 238)">
<title>CanalSystem</title>
<polygon fill="#ffffff" stroke="transparent" points="-4,4 -4,-238 1110,-238 1110,4 -4,4"/>
<!-- CanalNetwork -->
<g id="node1" class="node">
<title>CanalNetwork</title>
<g id="a_node1"><a xlink:href="javascript:Action.selectClass(&quot;CanalNetwork&quot;);" xlink:title="class CanalNetwork&#10;UML class diagram that models a canal as a&#13;network of segments, with Locks. See the&#13;State Machine section for a state machine for&#13;each lock&#13;">
<text text-anchor="start" x="565.6792" y="-121.8" font-family="Times,serif" font-size="14.00" fill="#000000"> &#160;&#160;&#160;CanalNetwork &#160;&#160;&#160;</text>
<g id="a_node1_0"><a xlink:href="javascript:Action.selectClass(&quot;CanalNetwork&quot;);" xlink:title="String name&#13;">
<text text-anchor="start" x="564" y="-101.8" font-family="Times,serif" font-size="14.00" fill="#000000"> &#160;name : String &#160;</text>
</a>
</g>
<polygon fill="#000000" stroke="#000000" points="561,-115 561,-115 680,-115 680,-115 561,-115"/>
<polygon fill="none" stroke="#000000" points="560.5,-96 560.5,-138 679.5,-138 679.5,-96 560.5,-96"/>
</a>
</g>
</g>
<!-- CanalNetwork&#45;&gt;CanalNetwork -->
<g id="edge8" class="edge">
<title>CanalNetwork&#45;&gt;CanalNetwork</title>
<g id="a_edge8"><a xlink:title="CanalNetwork 0..1 &#160;&#45;&#45; * subNetwork CanalNetwork">
<path fill="none" stroke="#000000" d="M679.79,-101.8828C690.2344,-103.8984 697.5,-108.9375 697.5,-117 697.5,-125.0625 690.2344,-130.1016 679.79,-132.1172"/>
</a>
</g>
<text text-anchor="middle" x="719.2573" y="-134.9172" font-family="Times,serif" font-size="14.00" fill="#000000">* subNetwork</text>
<text text-anchor="middle" x="692.04" y="-90.6828" font-family="Times,serif" font-size="14.00" fill="#000000">0..1 </text>
</g>
<!-- SegEnd -->
<g id="node2" class="node">
<title>SegEnd</title>
<g id="a_node2"><a xlink:href="javascript:Action.selectClass(&quot;SegEnd&quot;);" xlink:title="class SegEnd&#10;">
<text text-anchor="start" x="442.2241" y="-217.8" font-family="Times,serif" font-size="14.00" fill="#000000"> &#160;&#160;&#160;SegEnd &#160;&#160;&#160;</text>
<g id="a_node2_1"><a xlink:href="javascript:Action.selectClass(&quot;SegEnd&quot;);" xlink:title="String name&#13;">
<text text-anchor="start" x="413" y="-197.8" font-family="Times,serif" font-size="14.00" fill="#000000"> &#160;name : String &#160;</text>
</a>
</g>
<g id="a_node2_2"><a xlink:href="javascript:Action.selectClass(&quot;SegEnd&quot;);" xlink:title="GPSCoord location&#13;">
<text text-anchor="start" x="412.6655" y="-179.8" font-family="Times,serif" font-size="14.00" fill="#000000"> &#160;location : GPSCoord &#160;</text>
</a>
</g>
<polygon fill="#000000" stroke="#000000" points="410,-211 410,-211 546,-211 546,-211 410,-211"/>
<polygon fill="none" stroke="#000000" points="410,-174 410,-234 546,-234 546,-174 410,-174"/>
</a>
</g>
</g>
<!-- CanalNetwork&#45;&gt;SegEnd -->
<g id="edge10" class="edge">
<title>CanalNetwork&#45;&gt;SegEnd</title>
<g id="a_edge10"><a xlink:title="CanalNetwork * &#160;&#45;&#45; * &#160;SegEnd">
<path fill="none" stroke="#000000" d="M585.6258,-138.0603C568.0605,-148.8221 546.3767,-162.1072 527.0858,-173.9263"/>
</a>
</g>
<text text-anchor="middle" x="521.8358" y="-162.7263" font-family="Times,serif" font-size="14.00" fill="#000000">* </text>
<text text-anchor="middle" x="580.3758" y="-140.8603" font-family="Times,serif" font-size="14.00" fill="#000000">* </text>
</g>
<!-- Craft -->
<g id="node11" class="node">
<title>Craft</title>
<g id="a_node11"><a xlink:href="javascript:Action.selectClass(&quot;Craft&quot;);" xlink:title="class Craft&#10;">
<text text-anchor="start" x="827.6172" y="-208.8" font-family="Times,serif" font-size="14.00" fill="#000000"> &#160;&#160;&#160;Craft &#160;&#160;&#160;</text>
<g id="a_node11_3"><a xlink:href="javascript:Action.selectClass(&quot;Craft&quot;);" xlink:title="GPSCoord location&#13;">
<text text-anchor="start" x="790.6655" y="-188.8" font-family="Times,serif" font-size="14.00" fill="#000000"> &#160;location : GPSCoord &#160;</text>
</a>
</g>
<polygon fill="#000000" stroke="#000000" points="788,-202 788,-202 924,-202 924,-202 788,-202"/>
<polygon fill="none" stroke="#000000" points="788,-183 788,-225 924,-225 924,-183 788,-183"/>
</a>
</g>
</g>
<!-- CanalNetwork&#45;&gt;Craft -->
<g id="edge9" class="edge">
<title>CanalNetwork&#45;&gt;Craft</title>
<g id="a_edge9"><a xlink:title="CanalNetwork 0..1 &#160;&#45;&#45; * activeVessels Craft">
<path fill="none" stroke="#000000" d="M677.129,-138.0603C714.0977,-151.6886 762.0432,-169.3634 798.9885,-182.9831"/>
</a>
</g>
<text text-anchor="middle" x="756.4177" y="-171.7831" font-family="Times,serif" font-size="14.00" fill="#000000">* activeVessels</text>
<text text-anchor="middle" x="664.879" y="-140.8603" font-family="Times,serif" font-size="14.00" fill="#000000">0..1 </text>
</g>
<!-- Segment -->
<g id="node3" class="node">
<title>Segment</title>
<g id="a_node3"><a xlink:href="javascript:Action.selectClass(&quot;Segment&quot;);" xlink:title="class Segment&#10;">
<text text-anchor="start" x="22.5034" y="-121.8" font-family="Times,serif" font-size="14.00" fill="#000000"> &#160;&#160;&#160;Segment &#160;&#160;&#160;</text>
<g id="a_node3_4"><a xlink:href="javascript:Action.selectClass(&quot;Segment&quot;);" xlink:title="Float waterLevel&#13;m above sea level&#13;">
<text text-anchor="start" x="2.686" y="-101.8" font-family="Times,serif" font-size="14.00" fill="#000000"> &#160;waterLevel : Float &#160;</text>
</a>
</g>
<polygon fill="#000000" stroke="#000000" points="0,-115 0,-115 122,-115 122,-115 0,-115"/>
<polygon fill="none" stroke="#000000" points="0,-96 0,-138 122,-138 122,-96 0,-96"/>
</a>
</g>
</g>
<!-- Segment&#45;&gt;SegEnd -->
<g id="edge11" class="edge">
<title>Segment&#45;&gt;SegEnd</title>
<g id="a_edge11"><a xlink:title="Segment 1..* &#160;&#45;&#45; 2 &#160;SegEnd">
<path fill="none" stroke="#000000" d="M122.3616,-135.8001C125.2748,-136.5693 128.1652,-137.3072 131,-138 226.9072,-161.4403 339.4276,-181.5016 409.7315,-193.1629"/>
</a>
</g>
<text text-anchor="middle" x="404.4815" y="-181.9629" font-family="Times,serif" font-size="14.00" fill="#000000">2 </text>
<text text-anchor="middle" x="134.6116" y="-138.6001" font-family="Times,serif" font-size="14.00" fill="#000000">1..* </text>
</g>
<!-- Lock -->
<g id="node4" class="node">
<title>Lock</title>
<g id="a_node4"><a xlink:href="javascript:Action.selectClass(&quot;Lock&quot;);" xlink:title="class Lock&#10;">
<text text-anchor="start" x="33.1172" y="-43.8" font-family="Times,serif" font-size="14.00" fill="#000000"> &#160;&#160;&#160;Lock &#160;&#160;&#160;</text>
<g id="a_node4_5"><a xlink:href="javascript:Action.selectClass(&quot;Lock&quot;);" xlink:title="Float maxLevel&#13;">
<text text-anchor="start" x="6.6792" y="-23.8" font-family="Times,serif" font-size="14.00" fill="#000000"> &#160;maxLevel : Float &#160;</text>
</a>
</g>
<g id="a_node4_6"><a xlink:href="javascript:Action.selectClass(&quot;Lock&quot;);" xlink:title="Float minLevel&#13;">
<text text-anchor="start" x="7" y="-5.8" font-family="Times,serif" font-size="14.00" fill="#000000"> &#160;minLevel : Float &#160;</text>
</a>
</g>
<polygon fill="#000000" stroke="#000000" points="4,-37 4,-37 119,-37 119,-37 4,-37"/>
<polygon fill="none" stroke="#000000" points="3.5,0 3.5,-60 118.5,-60 118.5,0 3.5,0"/>
</a>
</g>
</g>
<!-- Lock&#45;&gt;Segment -->
<g id="edge1" class="edge">
<title>Lock&#45;&gt;Segment</title>
<path fill="none" stroke="#000000" d="M61,-60.4284C61,-68.6283 61,-77.5114 61,-85.7551"/>
<polygon fill="none" stroke="#000000" points="57.5001,-85.7556 61,-95.7557 64.5001,-85.7557 57.5001,-85.7556"/>
</g>
<!-- Bend -->
<g id="node5" class="node">
<title>Bend</title>
<g id="a_node5"><a xlink:href="javascript:Action.selectClass(&quot;Bend&quot;);" xlink:title="class Bend&#10;">
<text text-anchor="start" x="151.7241" y="-112.8" font-family="Times,serif" font-size="14.00" fill="#000000"> &#160;&#160;&#160;Bend &#160;&#160;&#160;</text>
<polygon fill="none" stroke="#000000" points="140.5,-99 140.5,-135 219.5,-135 219.5,-99 140.5,-99"/>
</a>
</g>
</g>
<!-- Bend&#45;&gt;SegEnd -->
<g id="edge2" class="edge">
<title>Bend&#45;&gt;SegEnd</title>
<path fill="none" stroke="#000000" d="M219.5386,-134.9412C222.7061,-136.0719 225.8851,-137.1106 229,-138 314.2862,-162.3522 421.8993,-171.1471 454.9143,-173.3774"/>
<polygon fill="none" stroke="#000000" points="454.8033,-176.8771 465,-174 455.2347,-169.8904 454.8033,-176.8771"/>
</g>
<!-- EntryAndExitPoint -->
<g id="node6" class="node">
<title>EntryAndExitPoint</title>
<g id="a_node6"><a xlink:href="javascript:Action.selectClass(&quot;EntryAndExitPoint&quot;);" xlink:title="class EntryAndExitPoint&#10;">
<text text-anchor="start" x="248.9448" y="-112.8" font-family="Times,serif" font-size="14.00" fill="#000000"> &#160;&#160;&#160;EntryAndExitPoint &#160;&#160;&#160;</text>
<polygon fill="none" stroke="#000000" points="238,-99 238,-135 396,-135 396,-99 238,-99"/>
</a>
</g>
</g>
<!-- EntryAndExitPoint&#45;&gt;SegEnd -->
<g id="edge3" class="edge">
<title>EntryAndExitPoint&#45;&gt;SegEnd</title>
<path fill="none" stroke="#000000" d="M363.8281,-135.0352C396.517,-147.6248 437.4207,-163.3783 455.5733,-170.3694"/>
<polygon fill="none" stroke="#000000" points="454.4102,-173.6721 465,-174 456.9261,-167.1398 454.4102,-173.6721"/>
</g>
<!-- MooringPoint -->
<g id="node7" class="node">
<title>MooringPoint</title>
<g id="a_node7"><a xlink:href="javascript:Action.selectClass(&quot;MooringPoint&quot;);" xlink:title="class MooringPoint&#10;">
<text text-anchor="start" x="424.7173" y="-112.8" font-family="Times,serif" font-size="14.00" fill="#000000"> &#160;&#160;&#160;MooringPoint &#160;&#160;&#160;</text>
<polygon fill="none" stroke="#000000" points="414,-99 414,-135 542,-135 542,-99 414,-99"/>
</a>
</g>
</g>
<!-- MooringPoint&#45;&gt;SegEnd -->
<g id="edge4" class="edge">
<title>MooringPoint&#45;&gt;SegEnd</title>
<path fill="none" stroke="#000000" d="M473.8867,-135.0352C471.6849,-144.6894 469.0587,-156.2041 467.2348,-164.2014"/>
<polygon fill="none" stroke="#000000" points="463.8113,-163.4721 465,-174 470.6361,-165.0286 463.8113,-163.4721"/>
</g>
<!-- Obstacle -->
<g id="node8" class="node">
<title>Obstacle</title>
<g id="a_node8"><a xlink:href="javascript:Action.selectClass(&quot;Obstacle&quot;);" xlink:title="class Obstacle&#10;">
<text text-anchor="start" x="817.5103" y="-112.8" font-family="Times,serif" font-size="14.00" fill="#000000"> &#160;&#160;&#160;Obstacle &#160;&#160;&#160;</text>
<polygon fill="none" stroke="#000000" points="807,-99 807,-135 905,-135 905,-99 807,-99"/>
</a>
</g>
</g>
<!-- Obstacle&#45;&gt;SegEnd -->
<g id="edge5" class="edge">
<title>Obstacle&#45;&gt;SegEnd</title>
<path fill="none" stroke="#000000" d="M808.3005,-135.0317C804.5075,-136.1417 800.7095,-137.1511 797,-138 672.383,-166.5192 516.1321,-172.6175 475.1932,-173.7604"/>
<polygon fill="none" stroke="#000000" points="474.915,-170.2659 465,-174 475.0795,-177.264 474.915,-170.2659"/>
</g>
<!-- Obstacle&#45;&gt;Craft -->
<g id="edge12" class="edge">
<title>Obstacle&#45;&gt;Craft</title>
<g id="a_edge12"><a xlink:title="Obstacle 0..1 downstreamObstacle &#45;&#45; * upStreamQueue Craft">
<path fill="none" stroke="#000000" d="M850.4073,-135.0265C848.9664,-148.9624 848.871,-168.284 850.1212,-182.9328"/>
</a>
</g>
<text text-anchor="middle" x="900.4679" y="-171.7328" font-family="Times,serif" font-size="14.00" fill="#000000">* upStreamQueue</text>
<text text-anchor="middle" x="850.4073" y="-137.8265" font-family="Times,serif" font-size="14.00" fill="#000000">0..1 downstreamObstacle</text>
</g>
<!-- Obstacle&#45;&gt;Craft -->
<g id="edge13" class="edge">
<title>Obstacle&#45;&gt;Craft</title>
<g id="a_edge13"><a xlink:title="Obstacle 0..1 upstreamObstacle &#45;&#45; * downStreamQueue Craft">
<path fill="none" stroke="#000000" d="M861.5927,-135.0265C863.0336,-148.9624 863.129,-168.284 861.8788,-182.9328"/>
</a>
</g>
<text text-anchor="middle" x="920.7807" y="-185.7328" font-family="Times,serif" font-size="14.00" fill="#000000">* downStreamQueue</text>
<text text-anchor="middle" x="923.9912" y="-123.8265" font-family="Times,serif" font-size="14.00" fill="#000000">0..1 upstreamObstacle</text>
</g>
<!-- LowBridge -->
<g id="node9" class="node">
<title>LowBridge</title>
<g id="a_node9"><a xlink:href="javascript:Action.selectClass(&quot;LowBridge&quot;);" xlink:title="class LowBridge&#10;">
<text text-anchor="start" x="873.6172" y="-25.8" font-family="Times,serif" font-size="14.00" fill="#000000"> &#160;&#160;&#160;LowBridge &#160;&#160;&#160;</text>
<polygon fill="none" stroke="#000000" points="862.5,-12 862.5,-48 975.5,-48 975.5,-12 862.5,-12"/>
</a>
</g>
</g>
<!-- LowBridge&#45;&gt;Obstacle -->
<g id="edge6" class="edge">
<title>LowBridge&#45;&gt;Obstacle</title>
<path fill="none" stroke="#000000" d="M902.4475,-48.1289C889.6147,-62.1839 872.4733,-80.9578 863.0131,-91.3189"/>
<polygon fill="none" stroke="#000000" points="860.158,-89.2552 856,-99 865.3274,-93.9751 860.158,-89.2552"/>
</g>
<!-- LockGate -->
<g id="node10" class="node">
<title>LockGate</title>
<g id="a_node10"><a xlink:href="javascript:Action.selectClass(&quot;LockGate&quot;);" xlink:title="class LockGate&#10;">
<text text-anchor="start" x="750.9033" y="-25.8" font-family="Times,serif" font-size="14.00" fill="#000000"> &#160;&#160;&#160;LockGate &#160;&#160;&#160;</text>
<polygon fill="none" stroke="#000000" points="739.5,-12 739.5,-48 844.5,-48 844.5,-12 739.5,-12"/>
</a>
</g>
</g>
<!-- LockGate&#45;&gt;Obstacle -->
<g id="edge7" class="edge">
<title>LockGate&#45;&gt;Obstacle</title>
<path fill="none" stroke="#000000" d="M808.8152,-48.1289C821.8517,-62.1839 839.2652,-80.9578 848.8755,-91.3189"/>
<polygon fill="none" stroke="#000000" points="846.6334,-94.0484 856,-99 851.7656,-89.2881 846.6334,-94.0484"/>
</g>
<!-- Trip -->
<g id="node12" class="node">
<title>Trip</title>
<g id="a_node12"><a xlink:href="javascript:Action.selectClass(&quot;Trip&quot;);" xlink:title="class Trip&#10;">
<text text-anchor="start" x="726.814" y="-112.8" font-family="Times,serif" font-size="14.00" fill="#000000"> &#160;&#160;&#160;Trip &#160;&#160;&#160;</text>
<polygon fill="none" stroke="#000000" points="715.5,-99 715.5,-135 788.5,-135 788.5,-99 715.5,-99"/>
</a>
</g>
</g>
<!-- Trip&#45;&gt;SegEnd -->
<g id="edge14" class="edge">
<title>Trip&#45;&gt;SegEnd</title>
<g id="a_edge14"><a xlink:title="Trip 0..1 &#160;&#45;&gt; 1..* &#160;SegEnd">
<path fill="none" stroke="#000000" d="M715.2916,-134.3319C712.1718,-135.6295 709.0457,-136.8709 706,-138 656.9666,-156.1779 600.5195,-172.552 556.0579,-184.4438"/>
<polygon fill="#000000" stroke="#000000" points="546.184,-187.0639 554.6954,-180.1495 551.0168,-185.7814 555.8495,-184.499 555.8495,-184.499 555.8495,-184.499 551.0168,-185.7814 557.0037,-188.8485 546.184,-187.0639 546.184,-187.0639"/>
</a>
</g>
<text text-anchor="middle" x="558.434" y="-175.8639" font-family="Times,serif" font-size="14.00" fill="#000000">1..* </text>
<text text-anchor="middle" x="703.0416" y="-123.1319" font-family="Times,serif" font-size="14.00" fill="#000000">0..1 </text>
</g>
<!-- Trip&#45;&gt;Craft -->
<g id="edge15" class="edge">
<title>Trip&#45;&gt;Craft</title>
<g id="a_edge15"><a xlink:title="Trip 0..1 &#160;&#45;&#45; 1 &#160;Craft">
<path fill="none" stroke="#000000" d="M773.5489,-135.0265C790.2079,-148.9624 813.305,-168.284 830.8162,-182.9328"/>
</a>
</g>
<text text-anchor="middle" x="825.5662" y="-171.7328" font-family="Times,serif" font-size="14.00" fill="#000000">1 </text>
<text text-anchor="middle" x="767.4239" y="-137.8265" font-family="Times,serif" font-size="14.00" fill="#000000">0..1 </text>
</g>
<!-- Transponder -->
<g id="node13" class="node">
<title>Transponder</title>
<g id="a_node13"><a xlink:href="javascript:Action.selectClass(&quot;Transponder&quot;);" xlink:title="class Transponder&#10;">
<text text-anchor="start" x="927.9897" y="-121.8" font-family="Times,serif" font-size="14.00" fill="#000000"> &#160;&#160;&#160;Transponder &#160;&#160;&#160;</text>
<g id="a_node13_7"><a xlink:href="javascript:Action.selectClass(&quot;Transponder&quot;);" xlink:title="String id&#13;">
<text text-anchor="start" x="926" y="-101.8" font-family="Times,serif" font-size="14.00" fill="#000000"> &#160;id : String &#160;</text>
</a>
</g>
<polygon fill="#000000" stroke="#000000" points="923,-115 923,-115 1031,-115 1031,-115 923,-115"/>
<polygon fill="none" stroke="#000000" points="923,-96 923,-138 1031,-138 1031,-96 923,-96"/>
</a>
</g>
</g>
<!-- Transponder&#45;&gt;Craft -->
<g id="edge16" class="edge">
<title>Transponder&#45;&gt;Craft</title>
<g id="a_edge16"><a xlink:title="Transponder 0..1 &#160;&#45;&#45; 0..1 &#160;Craft">
<path fill="none" stroke="#000000" d="M947.7093,-138.0603C928.8249,-151.6383 904.3541,-169.233 885.4404,-182.8321"/>
</a>
</g>
<text text-anchor="middle" x="897.6904" y="-171.6321" font-family="Times,serif" font-size="14.00" fill="#000000">0..1 </text>
<text text-anchor="middle" x="935.4593" y="-140.8603" font-family="Times,serif" font-size="14.00" fill="#000000">0..1 </text>
</g>
<!-- GPSCoord -->
<g id="node14" class="node">
<title>GPSCoord</title>
<g id="a_node14"><a xlink:href="javascript:Action.selectClass(&quot;GPSCoord&quot;);" xlink:title="class GPSCoord&#10;">
<text text-anchor="start" x="1005.6587" y="-43.8" font-family="Times,serif" font-size="14.00" fill="#000000"> &#160;&#160;&#160;GPSCoord &#160;&#160;&#160;</text>
<g id="a_node14_8"><a xlink:href="javascript:Action.selectClass(&quot;GPSCoord&quot;);" xlink:title="Float lattitide&#13;">
<text text-anchor="start" x="997" y="-23.8" font-family="Times,serif" font-size="14.00" fill="#000000"> &#160;lattitide : Float &#160;</text>
</a>
</g>
<g id="a_node14_9"><a xlink:href="javascript:Action.selectClass(&quot;GPSCoord&quot;);" xlink:title="Float longitude&#13;">
<text text-anchor="start" x="996.7241" y="-5.8" font-family="Times,serif" font-size="14.00" fill="#000000"> &#160;longitude : Float &#160;</text>
</a>
</g>
<polygon fill="#000000" stroke="#000000" points="994,-37 994,-37 1106,-37 1106,-37 994,-37"/>
<polygon fill="none" stroke="#000000" points="994,0 994,-60 1106,-60 1106,0 994,0"/>
</a>
</g>
</g>
</g>
</svg>
