<?xml version="1.0" encoding="UTF-8" standalone="no"?>
<!DOCTYPE svg PUBLIC "-//W3C//DTD SVG 1.1//EN"
 "http://www.w3.org/Graphics/SVG/1.1/DTD/svg11.dtd">
<!-- Generated by graphviz version 2.29.20121108.1600 (20121108.1600)
 -->
<!-- Title: CanalSystem Pages: 1 -->
<svg width="845pt" height="268pt"
 viewBox="0.00 0.00 845.00 268.00" xmlns="http://www.w3.org/2000/svg" xmlns:xlink="http://www.w3.org/1999/xlink">
<g id="graph0" class="graph" transform="scale(1 1) rotate(0) translate(4 264)">
<title>CanalSystem</title>
<polygon fill="white" stroke="white" points="-4,5 -4,-264 842,-264 842,5 -4,5"/>
<!-- CanalNetwork -->
<g id="node1" class="node"><title>CanalNetwork</title>
<g id="a_node1"><a xlink:href="javascript:Action.selectClass(&quot;CanalNetwork&quot;);" xlink:title="class CanalNetwork
Models a canal as a network of segments, with Locks
See the State Machine section for a state machine for each lock
">
<polygon fill="none" stroke="black" points="259.179,-105.2 259.179,-154.8 356.821,-154.8 356.821,-105.2 259.179,-105.2"/>
<text text-anchor="middle" x="308" y="-136.8" font-family="Times,serif" font-size="14.00">CanalNetwork</text>
<polyline fill="none" stroke="black" points="259.179,-130 356.821,-130 "/>
<text text-anchor="start" x="267.179" y="-112" font-family="Times,serif" font-size="14.00">name : String</text>
</a>
</g>
</g>
<!-- CanalNetwork&#45;&gt;CanalNetwork -->
<g id="edge8" class="edge"><title>CanalNetwork&#45;&gt;CanalNetwork</title>
<path fill="none" stroke="black" d="M356.93,-112.687C366.877,-114.573 374,-120.344 374,-130 374,-139.656 366.877,-145.427 356.93,-147.313"/>
<text text-anchor="middle" x="396.398" y="-150.113" font-family="Times,serif" font-size="14.00">* subNetwork</text>
<text text-anchor="middle" x="369.18" y="-98.6866" font-family="Times,serif" font-size="14.00">0..1 </text>
</g>
<!-- Craft -->
<g id="node11" class="node"><title>Craft</title>
<g id="a_node11"><a xlink:href="javascript:Action.selectClass(&quot;Craft&quot;);" xlink:title="class Craft
">
<polygon fill="none" stroke="black" points="70.6655,-201.2 70.6655,-250.8 203.334,-250.8 203.334,-201.2 70.6655,-201.2"/>
<text text-anchor="middle" x="137" y="-232.8" font-family="Times,serif" font-size="14.00">Craft</text>
<polyline fill="none" stroke="black" points="70.6655,-226 203.334,-226 "/>
<text text-anchor="start" x="78.6655" y="-208" font-family="Times,serif" font-size="14.00">location : GPSCoord</text>
</a>
</g>
</g>
<!-- CanalNetwork&#45;&gt;Craft -->
<g id="edge9" class="edge"><title>CanalNetwork&#45;&gt;Craft</title>
<path fill="none" stroke="black" d="M264.407,-154.963C238.68,-169.106 206.227,-186.946 180.513,-201.08"/>
<text text-anchor="middle" x="223.084" y="-187.08" font-family="Times,serif" font-size="14.00">* activeVessels</text>
<text text-anchor="middle" x="252.157" y="-157.763" font-family="Times,serif" font-size="14.00">0..1 </text>
</g>
<!-- SegEnd -->
<g id="node2" class="node"><title>SegEnd</title>
<g id="a_node2"><a xlink:href="javascript:Action.selectClass(&quot;SegEnd&quot;);" xlink:title="class SegEnd
">
<polygon fill="none" stroke="black" points="385.666,-192.8 385.666,-259.2 518.334,-259.2 518.334,-192.8 385.666,-192.8"/>
<text text-anchor="middle" x="452" y="-241.2" font-family="Times,serif" font-size="14.00">SegEnd</text>
<polyline fill="none" stroke="black" points="385.666,-234.4 518.334,-234.4 "/>
<text text-anchor="start" x="393.666" y="-216.4" font-family="Times,serif" font-size="14.00">name : String</text>
<text text-anchor="start" x="393.666" y="-199.6" font-family="Times,serif" font-size="14.00">location : GPSCoord</text>
</a>
</g>
</g>
<!-- CanalNetwork&#45;&gt;SegEnd -->
<g id="edge10" class="edge"><title>CanalNetwork&#45;&gt;SegEnd</title>
<path fill="none" stroke="black" d="M344.71,-154.963C362.292,-166.441 383.604,-180.353 402.586,-192.744"/>
<text text-anchor="middle" x="397.336" y="-178.744" font-family="Times,serif" font-size="14.00">* </text>
<text text-anchor="middle" x="339.46" y="-157.763" font-family="Times,serif" font-size="14.00">* </text>
</g>
<!-- Segment -->
<g id="node3" class="node"><title>Segment</title>
<g id="a_node3"><a xlink:href="javascript:Action.selectClass(&quot;Segment&quot;);" xlink:title="class Segment
">
<polygon fill="none" stroke="black" points="392.686,-105.2 392.686,-154.8 511.314,-154.8 511.314,-105.2 392.686,-105.2"/>
<text text-anchor="middle" x="452" y="-136.8" font-family="Times,serif" font-size="14.00">Segment</text>
<polyline fill="none" stroke="black" points="392.686,-130 511.314,-130 "/>
<text text-anchor="start" x="400.686" y="-112" font-family="Times,serif" font-size="14.00">waterLevel : Float</text>
</a>
</g>
</g>
<!-- Segment&#45;&gt;SegEnd -->
<g id="edge11" class="edge"><title>Segment&#45;&gt;SegEnd</title>
<path fill="none" stroke="black" d="M452,-155.207C452,-166.631 452,-180.425 452,-192.722"/>
<text text-anchor="middle" x="446.75" y="-178.722" font-family="Times,serif" font-size="14.00">2 </text>
<text text-anchor="middle" x="464.25" y="-158.007" font-family="Times,serif" font-size="14.00">1..* </text>
</g>
<!-- Lock -->
<g id="node4" class="node"><title>Lock</title>
<g id="a_node4"><a xlink:href="javascript:Action.selectClass(&quot;Lock&quot;);" xlink:title="class Lock
">
<polygon fill="none" stroke="black" points="396.179,-0.8 396.179,-67.2 507.821,-67.2 507.821,-0.8 396.179,-0.8"/>
<text text-anchor="middle" x="452" y="-49.2" font-family="Times,serif" font-size="14.00">Lock</text>
<polyline fill="none" stroke="black" points="396.179,-42.4 507.821,-42.4 "/>
<text text-anchor="start" x="404.179" y="-24.4" font-family="Times,serif" font-size="14.00">maxLevel : Float</text>
<text text-anchor="start" x="404.179" y="-7.6" font-family="Times,serif" font-size="14.00">minLevel : Float</text>
</a>
</g>
</g>
<!-- Lock&#45;&gt;Segment -->
<g id="edge1" class="edge"><title>Lock&#45;&gt;Segment</title>
<path fill="none" stroke="black" d="M452,-67.3495C452,-76.2051 452,-85.8317 452,-94.7878"/>
<polygon fill="none" stroke="black" points="448.5,-94.9071 452,-104.907 455.5,-94.9071 448.5,-94.9071"/>
</g>
<!-- Bend -->
<g id="node5" class="node"><title>Bend</title>
<g id="a_node5"><a xlink:href="javascript:Action.selectClass(&quot;Bend&quot;);" xlink:title="class Bend
">
<polygon fill="none" stroke="black" points="529,-112 529,-148 583,-148 583,-112 529,-112"/>
<text text-anchor="middle" x="555.776" y="-124.5" font-family="Times,serif" font-size="14.00">Bend</text>
</a>
</g>
</g>
<!-- Bend&#45;&gt;SegEnd -->
<g id="edge2" class="edge"><title>Bend&#45;&gt;SegEnd</title>
<path fill="none" stroke="black" d="M536.223,-148.27C521.779,-160.883 502.985,-177.295 492.649,-186.321"/>
<polygon fill="none" stroke="black" points="490.23,-183.786 485,-193 494.835,-189.059 490.23,-183.786"/>
</g>
<!-- EntryAndExitPoint -->
<g id="node6" class="node"><title>EntryAndExitPoint</title>
<g id="a_node6"><a xlink:href="javascript:Action.selectClass(&quot;EntryAndExitPoint&quot;);" xlink:title="class EntryAndExitPoint
">
<polygon fill="none" stroke="black" points="600.945,-112 600.945,-148 725.055,-148 725.055,-112 600.945,-112"/>
<text text-anchor="middle" x="663" y="-124.5" font-family="Times,serif" font-size="14.00">EntryAndExitPoint</text>
</a>
</g>
</g>
<!-- EntryAndExitPoint&#45;&gt;SegEnd -->
<g id="edge3" class="edge"><title>EntryAndExitPoint&#45;&gt;SegEnd</title>
<path fill="none" stroke="black" d="M614.508,-148.116C606.975,-150.762 599.28,-153.46 592,-156 556.183,-168.498 513.555,-183.181 494.743,-189.651"/>
<polygon fill="none" stroke="black" points="493.319,-186.44 485,-193 495.595,-193.06 493.319,-186.44"/>
</g>
<!-- MooringPoint -->
<g id="node7" class="node"><title>MooringPoint</title>
<g id="a_node7"><a xlink:href="javascript:Action.selectClass(&quot;MooringPoint&quot;);" xlink:title="class MooringPoint
">
<polygon fill="none" stroke="black" points="742.717,-112 742.717,-148 837.283,-148 837.283,-112 742.717,-112"/>
<text text-anchor="middle" x="790" y="-124.5" font-family="Times,serif" font-size="14.00">MooringPoint</text>
</a>
</g>
</g>
<!-- MooringPoint&#45;&gt;SegEnd -->
<g id="edge4" class="edge"><title>MooringPoint&#45;&gt;SegEnd</title>
<path fill="none" stroke="black" d="M755.603,-148.111C748.584,-151.099 741.155,-153.914 734,-156 643.793,-182.301 529.476,-190.522 495.173,-192.481"/>
<polygon fill="none" stroke="black" points="494.809,-188.995 485,-193 495.165,-195.986 494.809,-188.995"/>
</g>
<!-- Obstacle -->
<g id="node8" class="node"><title>Obstacle</title>
<g id="a_node8"><a xlink:href="javascript:Action.selectClass(&quot;Obstacle&quot;);" xlink:title="class Obstacle
">
<polygon fill="none" stroke="black" points="104.51,-112 104.51,-148 169.49,-148 169.49,-112 104.51,-112"/>
<text text-anchor="middle" x="137" y="-124.5" font-family="Times,serif" font-size="14.00">Obstacle</text>
</a>
</g>
</g>
<!-- Obstacle&#45;&gt;SegEnd -->
<g id="edge5" class="edge"><title>Obstacle&#45;&gt;SegEnd</title>
<path fill="none" stroke="black" d="M161.305,-148.132C166.604,-151.196 172.329,-154.034 178,-156 289.335,-194.602 435.446,-194.209 474.847,-193.312"/>
<polygon fill="none" stroke="black" points="475.112,-196.806 485,-193 474.897,-189.809 475.112,-196.806"/>
</g>
<!-- Obstacle&#45;&gt;Craft -->
<g id="edge12" class="edge"><title>Obstacle&#45;&gt;Craft</title>
<path fill="none" stroke="black" d="M131.636,-148.241C130.016,-163.082 129.816,-184.647 131.037,-201.143"/>
<text text-anchor="middle" x="80.6908" y="-187.143" font-family="Times,serif" font-size="14.00">* upStreamQueue</text>
<text text-anchor="middle" x="167.113" y="-151.041" font-family="Times,serif" font-size="14.00">0..1 downstreamObstacle</text>
</g>
<!-- Obstacle&#45;&gt;Craft -->
<g id="edge13" class="edge"><title>Obstacle&#45;&gt;Craft</title>
<path fill="none" stroke="black" d="M142.364,-148.241C143.984,-163.082 144.184,-184.647 142.963,-201.143"/>
<text text-anchor="middle" x="201.864" y="-203.943" font-family="Times,serif" font-size="14.00">* downStreamQueue</text>
<text text-anchor="middle" x="79.9656" y="-151.041" font-family="Times,serif" font-size="14.00">0..1 upstreamObstacle</text>
</g>
<!-- LowBridge -->
<g id="node9" class="node"><title>LowBridge</title>
<g id="a_node9"><a xlink:href="javascript:Action.selectClass(&quot;LowBridge&quot;);" xlink:title="class LowBridge
">
<polygon fill="none" stroke="black" points="144.117,-16 144.117,-52 223.883,-52 223.883,-16 144.117,-16"/>
<text text-anchor="middle" x="184" y="-28.5" font-family="Times,serif" font-size="14.00">LowBridge</text>
</a>
</g>
</g>
<!-- LowBridge&#45;&gt;Obstacle -->
<g id="edge6" class="edge"><title>LowBridge&#45;&gt;Obstacle</title>
<path fill="none" stroke="black" d="M173.569,-52.0888C163.941,-67.8618 150.023,-90.6651 142.435,-103.097"/>
<polygon fill="none" stroke="black" points="139.223,-101.641 137,-112 145.198,-105.288 139.223,-101.641"/>
</g>
<!-- LockGate -->
<g id="node10" class="node"><title>LockGate</title>
<g id="a_node10"><a xlink:href="javascript:Action.selectClass(&quot;LockGate&quot;);" xlink:title="class LockGate
">
<polygon fill="none" stroke="black" points="55.4033,-16 55.4033,-52 126.597,-52 126.597,-16 55.4033,-16"/>
<text text-anchor="middle" x="91" y="-28.5" font-family="Times,serif" font-size="14.00">LockGate</text>
</a>
</g>
</g>
<!-- LockGate&#45;&gt;Obstacle -->
<g id="edge7" class="edge"><title>LockGate&#45;&gt;Obstacle</title>
<path fill="none" stroke="black" d="M101.209,-52.0888C110.632,-67.8618 124.254,-90.6651 131.681,-103.097"/>
<polygon fill="none" stroke="black" points="128.867,-105.21 137,-112 134.876,-101.62 128.867,-105.21"/>
</g>
<!-- Trip -->
<g id="node12" class="node"><title>Trip</title>
<g id="a_node12"><a xlink:href="javascript:Action.selectClass(&quot;Trip&quot;);" xlink:title="class Trip
">
<polygon fill="none" stroke="black" points="187,-112 187,-148 241,-148 241,-112 187,-112"/>
<text text-anchor="middle" x="213.809" y="-124.5" font-family="Times,serif" font-size="14.00">Trip</text>
</a>
</g>
</g>
<!-- Trip&#45;&gt;SegEnd -->
<g id="edge14" class="edge"><title>Trip&#45;&gt;SegEnd</title>
<path fill="none" stroke="black" d="M236.649,-148.127C240.954,-150.975 245.518,-153.734 250,-156 289.941,-176.192 337.151,-192.688 375.884,-204.482"/>
<polygon fill="black" stroke="black" points="385.539,-207.379 374.668,-208.815 380.75,-205.942 375.961,-204.505 375.961,-204.505 375.961,-204.505 380.75,-205.942 377.254,-200.195 385.539,-207.379 385.539,-207.379"/>
<text text-anchor="middle" x="373.289" y="-193.379" font-family="Times,serif" font-size="14.00">1..* </text>
<text text-anchor="middle" x="248.899" y="-134.127" font-family="Times,serif" font-size="14.00">0..1 </text>
</g>
<!-- Trip&#45;&gt;Craft -->
<g id="edge15" class="edge"><title>Trip&#45;&gt;Craft</title>
<path fill="none" stroke="black" d="M199.877,-148.241C187.72,-163.082 170.055,-184.647 156.542,-201.143"/>
<text text-anchor="middle" x="151.292" y="-187.143" font-family="Times,serif" font-size="14.00">1 </text>
<text text-anchor="middle" x="187.627" y="-134.241" font-family="Times,serif" font-size="14.00">0..1 </text>
</g>
<!-- Transponder -->
<g id="node13" class="node"><title>Transponder</title>
<g id="a_node13"><a xlink:href="javascript:Action.selectClass(&quot;Transponder&quot;);" xlink:title="class Transponder
">
<polygon fill="none" stroke="black" points="-0.133301,-105.2 -0.133301,-154.8 86.1333,-154.8 86.1333,-105.2 -0.133301,-105.2"/>
<text text-anchor="middle" x="43" y="-136.8" font-family="Times,serif" font-size="14.00">Transponder</text>
<polyline fill="none" stroke="black" points="-0.133301,-130 86.1333,-130 "/>
<text text-anchor="start" x="7.8667" y="-112" font-family="Times,serif" font-size="14.00">id : String</text>
</a>
</g>
</g>
<!-- Transponder&#45;&gt;Craft -->
<g id="edge16" class="edge"><title>Transponder&#45;&gt;Craft</title>
<path fill="none" stroke="black" d="M67.2073,-155.207C81.2419,-169.242 98.8541,-186.854 112.875,-200.875"/>
<text text-anchor="middle" x="125.125" y="-186.875" font-family="Times,serif" font-size="14.00">0..1 </text>
<text text-anchor="middle" x="79.4573" y="-158.007" font-family="Times,serif" font-size="14.00">0..1 </text>
</g>
<!-- GPSCoord -->
<g id="node14" class="node"><title>GPSCoord</title>
<g id="a_node14"><a xlink:href="javascript:Action.selectClass(&quot;GPSCoord&quot;);" xlink:title="class GPSCoord
">
<polygon fill="none" stroke="black" points="525.724,-0.8 525.724,-67.2 634.276,-67.2 634.276,-0.8 525.724,-0.8"/>
<text text-anchor="middle" x="580" y="-49.2" font-family="Times,serif" font-size="14.00">GPSCoord</text>
<polyline fill="none" stroke="black" points="525.724,-42.4 634.276,-42.4 "/>
<text text-anchor="start" x="533.724" y="-24.4" font-family="Times,serif" font-size="14.00">lattitide : Float</text>
<text text-anchor="start" x="533.724" y="-7.6" font-family="Times,serif" font-size="14.00">longitude : Float</text>
</a>
</g>
</g>
</g>
</svg>
