<?xml version="1.0" encoding="UTF-8" standalone="no"?>
<!DOCTYPE svg PUBLIC "-//W3C//DTD SVG 1.1//EN"
 "http://www.w3.org/Graphics/SVG/1.1/DTD/svg11.dtd">
<!-- Generated by graphviz version 2.39.20140502.0445 (20140502.0445)
 -->
<!-- Title: CanalSystem Pages: 1 -->
<svg width="928pt" height="251pt"
 viewBox="0.00 0.00 928.00 251.00" xmlns="http://www.w3.org/2000/svg" xmlns:xlink="http://www.w3.org/1999/xlink">
<g id="graph0" class="graph" transform="scale(1 1) rotate(0) translate(4 247)">
<title>CanalSystem</title>
<polygon fill="white" stroke="none" points="-4,4 -4,-247 924,-247 924,4 -4,4"/>
<!-- CanalNetwork -->
<g id="node1" class="node"><title>CanalNetwork</title>
<g id="a_node1"><a xlink:href="javascript:Action.selectClass(&quot;CanalNetwork&quot;);" xlink:title="class CanalNetwork
UML class diagram that models a canal as a network of segments, with Locks
See the State Machine section for a state machine for each lock
">
<polygon fill="none" stroke="black" points="466.5,-98.5 466.5,-144.5 564.5,-144.5 564.5,-98.5 466.5,-98.5"/>
<text text-anchor="middle" x="515.5" y="-129.3" font-family="Times,serif" font-size="14.00">CanalNetwork</text>
<polyline fill="none" stroke="black" points="466.5,-121.5 564.5,-121.5 "/>
<text text-anchor="start" x="474.5" y="-106.3" font-family="Times,serif" font-size="14.00">name : String</text>
</a>
</g>
</g>
<!-- CanalNetwork&#45;&gt;CanalNetwork -->
<g id="edge8" class="edge"><title>CanalNetwork&#45;&gt;CanalNetwork</title>
<g id="a_edge8"><a xlink:title="CanalNetwork 0..1 &#160;&#45;&#45; * subNetwork CanalNetwork">
<path fill="none" stroke="black" d="M564.58,-105.17C574.986,-106.828 582.5,-112.271 582.5,-121.5 582.5,-130.729 574.986,-136.172 564.58,-137.83"/>
</a>
</g>
<text text-anchor="middle" x="604.08" y="-141.63" font-family="Times,serif" font-size="14.00">* subNetwork</text>
<text text-anchor="middle" x="577.08" y="-93.9699" font-family="Times,serif" font-size="14.00">0..1 </text>
</g>
<!-- SegEnd -->
<g id="node2" class="node"><title>SegEnd</title>
<g id="a_node2"><a xlink:href="javascript:Action.selectClass(&quot;SegEnd&quot;);" xlink:title="class SegEnd
">
<polygon fill="none" stroke="black" points="334,-181.5 334,-242.5 467,-242.5 467,-181.5 334,-181.5"/>
<text text-anchor="middle" x="400.5" y="-227.3" font-family="Times,serif" font-size="14.00">SegEnd</text>
<polyline fill="none" stroke="black" points="334,-219.5 467,-219.5 "/>
<text text-anchor="start" x="342" y="-204.3" font-family="Times,serif" font-size="14.00">name : String</text>
<text text-anchor="start" x="342" y="-189.3" font-family="Times,serif" font-size="14.00">location : GPSCoord</text>
</a>
</g>
</g>
<!-- CanalNetwork&#45;&gt;SegEnd -->
<g id="edge10" class="edge"><title>CanalNetwork&#45;&gt;SegEnd</title>
<g id="a_edge10"><a xlink:title="CanalNetwork * &#160;&#45;&#45; * &#160;SegEnd">
<path fill="none" stroke="black" d="M439.258,-181.173 454.806,-169.208 472.407,-155.663 486.777,-144.604"/>
</a>
</g>
<text text-anchor="middle" x="433.758" y="-169.973" font-family="Times,serif" font-size="14.00">* </text>
<text text-anchor="middle" x="481.277" y="-148.404" font-family="Times,serif" font-size="14.00">* </text>
</g>
<!-- Craft -->
<g id="node11" class="node"><title>Craft</title>
<g id="a_node11"><a xlink:href="javascript:Action.selectClass(&quot;Craft&quot;);" xlink:title="class Craft
">
<polygon fill="none" stroke="black" points="639,-189 639,-235 772,-235 772,-189 639,-189"/>
<text text-anchor="middle" x="705.5" y="-219.8" font-family="Times,serif" font-size="14.00">Craft</text>
<polyline fill="none" stroke="black" points="639,-212 772,-212 "/>
<text text-anchor="start" x="647" y="-196.8" font-family="Times,serif" font-size="14.00">location : GPSCoord</text>
</a>
</g>
</g>
<!-- CanalNetwork&#45;&gt;Craft -->
<g id="edge9" class="edge"><title>CanalNetwork&#45;&gt;Craft</title>
<g id="a_edge9"><a xlink:title="CanalNetwork 0..1 &#160;&#45;&#45; * activeVessels Craft">
<path fill="none" stroke="black" d="M562.955,-144.604C591.973,-158.12 628.964,-175.35 657.992,-188.871"/>
</a>
</g>
<text text-anchor="middle" x="614.492" y="-177.671" font-family="Times,serif" font-size="14.00">* activeVessels</text>
<text text-anchor="middle" x="550.455" y="-148.404" font-family="Times,serif" font-size="14.00">0..1 </text>
</g>
<!-- Segment -->
<g id="node3" class="node"><title>Segment</title>
<g id="a_node3"><a xlink:href="javascript:Action.selectClass(&quot;Segment&quot;);" xlink:title="class Segment
">
<polygon fill="none" stroke="black" points="0,-98.5 0,-144.5 119,-144.5 119,-98.5 0,-98.5"/>
<text text-anchor="middle" x="59.5" y="-129.3" font-family="Times,serif" font-size="14.00">Segment</text>
<polyline fill="none" stroke="black" points="0,-121.5 119,-121.5 "/>
<text text-anchor="start" x="8" y="-106.3" font-family="Times,serif" font-size="14.00">waterLevel : Float</text>
</a>
</g>
</g>
<!-- Segment&#45;&gt;SegEnd -->
<g id="edge11" class="edge"><title>Segment&#45;&gt;SegEnd</title>
<g id="a_edge11"><a xlink:title="Segment 1..* &#160;&#45;&#45; 2 &#160;SegEnd">
<path fill="none" stroke="black" d="M119.253,-142.297C122.373,-143.233 125.47,-144.14 128.5,-145 198.033,-164.741 278.595,-183.824 333.893,-196.349"/>
</a>
</g>
<text text-anchor="middle" x="328.393" y="-185.149" font-family="Times,serif" font-size="14.00">2 </text>
<text text-anchor="middle" x="131.753" y="-146.097" font-family="Times,serif" font-size="14.00">1..* </text>
</g>
<!-- Lock -->
<g id="node4" class="node"><title>Lock</title>
<g id="a_node4"><a xlink:href="javascript:Action.selectClass(&quot;Lock&quot;);" xlink:title="class Lock
">
<polygon fill="none" stroke="black" points="3.5,-0.5 3.5,-61.5 115.5,-61.5 115.5,-0.5 3.5,-0.5"/>
<text text-anchor="middle" x="59.5" y="-46.3" font-family="Times,serif" font-size="14.00">Lock</text>
<polyline fill="none" stroke="black" points="3.5,-38.5 115.5,-38.5 "/>
<text text-anchor="start" x="11.5" y="-23.3" font-family="Times,serif" font-size="14.00">maxLevel : Float</text>
<text text-anchor="start" x="11.5" y="-8.3" font-family="Times,serif" font-size="14.00">minLevel : Float</text>
</a>
</g>
</g>
<!-- Lock&#45;&gt;Segment -->
<g id="edge1" class="edge"><title>Lock&#45;&gt;Segment</title>
<path fill="none" stroke="black" d="M59.5,-61.9621C59.5,-70.4469 59.5,-79.7168 59.5,-88.3262"/>
<polygon fill="none" stroke="black" points="56.0001,-88.4031 59.5,-98.4031 63.0001,-88.4032 56.0001,-88.4031"/>
</g>
<!-- Bend -->
<g id="node5" class="node"><title>Bend</title>
<g id="a_node5"><a xlink:href="javascript:Action.selectClass(&quot;Bend&quot;);" xlink:title="class Bend
">
<polygon fill="none" stroke="black" points="137.5,-103.5 137.5,-139.5 191.5,-139.5 191.5,-103.5 137.5,-103.5"/>
<text text-anchor="middle" x="164.5" y="-117.8" font-family="Times,serif" font-size="14.00">Bend</text>
</a>
</g>
</g>
<!-- Bend&#45;&gt;SegEnd -->
<g id="edge2" class="edge"><title>Bend&#45;&gt;SegEnd</title>
<path fill="none" stroke="black" d="M189.449,-139.707C193.05,-141.708 196.794,-143.548 200.5,-145 265.5,-170.467 350.339,-178.346 379.3,-180.38"/>
<polygon fill="none" stroke="black" points="379.306,-183.887 389.5,-181 379.731,-176.9 379.306,-183.887"/>
</g>
<!-- EntryAndExitPoint -->
<g id="node6" class="node"><title>EntryAndExitPoint</title>
<g id="a_node6"><a xlink:href="javascript:Action.selectClass(&quot;EntryAndExitPoint&quot;);" xlink:title="class EntryAndExitPoint
">
<polygon fill="none" stroke="black" points="210,-103.5 210,-139.5 335,-139.5 335,-103.5 210,-103.5"/>
<text text-anchor="middle" x="272.5" y="-117.8" font-family="Times,serif" font-size="14.00">EntryAndExitPoint</text>
</a>
</g>
</g>
<!-- EntryAndExitPoint&#45;&gt;SegEnd -->
<g id="edge3" class="edge"><title>EntryAndExitPoint&#45;&gt;SegEnd</title>
<path fill="none" stroke="black" d="M306.656,-139.578C332.017,-152.258 364.807,-168.654 380.438,-176.469"/>
<polygon fill="none" stroke="black" points="378.99,-179.658 389.5,-181 382.121,-173.397 378.99,-179.658"/>
</g>
<!-- MooringPoint -->
<g id="node7" class="node"><title>MooringPoint</title>
<g id="a_node7"><a xlink:href="javascript:Action.selectClass(&quot;MooringPoint&quot;);" xlink:title="class MooringPoint
">
<polygon fill="none" stroke="black" points="353,-103.5 353,-139.5 448,-139.5 448,-103.5 353,-103.5"/>
<text text-anchor="middle" x="400.5" y="-117.8" font-family="Times,serif" font-size="14.00">MooringPoint</text>
</a>
</g>
</g>
<!-- MooringPoint&#45;&gt;SegEnd -->
<g id="edge4" class="edge"><title>MooringPoint&#45;&gt;SegEnd</title>
<path fill="none" stroke="black" d="M391.411,-170.835 393.021,-162.276 395.358,-149.846 397.259,-139.736"/>
<polygon fill="none" stroke="black" points="387.908,-170.525 389.5,-181 394.788,-171.819 387.908,-170.525"/>
</g>
<!-- Obstacle -->
<g id="node8" class="node"><title>Obstacle</title>
<g id="a_node8"><a xlink:href="javascript:Action.selectClass(&quot;Obstacle&quot;);" xlink:title="class Obstacle
">
<polygon fill="none" stroke="black" points="673,-103.5 673,-139.5 738,-139.5 738,-103.5 673,-103.5"/>
<text text-anchor="middle" x="705.5" y="-117.8" font-family="Times,serif" font-size="14.00">Obstacle</text>
</a>
</g>
</g>
<!-- Obstacle&#45;&gt;SegEnd -->
<g id="edge5" class="edge"><title>Obstacle&#45;&gt;SegEnd</title>
<path fill="none" stroke="black" d="M399.739,-180.968 436.427,-180.581 564.389,-176.882 663.5,-145 667.91,-143.581 672.4,-141.707 676.725,-139.644"/>
<polygon fill="none" stroke="black" points="399.489,-177.469 389.5,-181 399.511,-184.468 399.489,-177.469"/>
</g>
<!-- Obstacle&#45;&gt;Craft -->
<g id="edge12" class="edge"><title>Obstacle&#45;&gt;Craft</title>
<g id="a_edge12"><a xlink:title="Obstacle 0..1 downstreamObstacle &#45;&#45; * upStreamQueue Craft">
<path fill="none" stroke="black" d="M699.57,-188.953 698.337,-173.674 698.494,-153.628 700.042,-139.564"/>
</a>
</g>
<text text-anchor="middle" x="750.07" y="-177.753" font-family="Times,serif" font-size="14.00">* upStreamQueue</text>
<text text-anchor="middle" x="735.542" y="-143.364" font-family="Times,serif" font-size="14.00">0..1 downstreamObstacle</text>
</g>
<!-- Obstacle&#45;&gt;Craft -->
<g id="edge13" class="edge"><title>Obstacle&#45;&gt;Craft</title>
<g id="a_edge13"><a xlink:title="Obstacle 0..1 upstreamObstacle &#45;&#45; * downStreamQueue Craft">
<path fill="none" stroke="black" d="M710.958,-139.564C712.506,-153.628 712.663,-173.674 711.43,-188.953"/>
</a>
</g>
<text text-anchor="middle" x="770.43" y="-192.753" font-family="Times,serif" font-size="14.00">* downStreamQueue</text>
<text text-anchor="middle" x="648.458" y="-143.364" font-family="Times,serif" font-size="14.00">0..1 upstreamObstacle</text>
</g>
<!-- LowBridge -->
<g id="node9" class="node"><title>LowBridge</title>
<g id="a_node9"><a xlink:href="javascript:Action.selectClass(&quot;LowBridge&quot;);" xlink:title="class LowBridge
">
<polygon fill="none" stroke="black" points="712.5,-13 712.5,-49 792.5,-49 792.5,-13 712.5,-13"/>
<text text-anchor="middle" x="752.5" y="-27.3" font-family="Times,serif" font-size="14.00">LowBridge</text>
</a>
</g>
</g>
<!-- LowBridge&#45;&gt;Obstacle -->
<g id="edge6" class="edge"><title>LowBridge&#45;&gt;Obstacle</title>
<path fill="none" stroke="black" d="M711.213,-94.8086 718.609,-83.5573 731.668,-63.6908 741.123,-49.3082"/>
<polygon fill="none" stroke="black" points="708.068,-93.2211 705.5,-103.5 713.918,-97.0662 708.068,-93.2211"/>
</g>
<!-- LockGate -->
<g id="node10" class="node"><title>LockGate</title>
<g id="a_node10"><a xlink:href="javascript:Action.selectClass(&quot;LockGate&quot;);" xlink:title="class LockGate
">
<polygon fill="none" stroke="black" points="622.5,-13 622.5,-49 694.5,-49 694.5,-13 622.5,-13"/>
<text text-anchor="middle" x="658.5" y="-27.3" font-family="Times,serif" font-size="14.00">LockGate</text>
</a>
</g>
</g>
<!-- LockGate&#45;&gt;Obstacle -->
<g id="edge7" class="edge"><title>LockGate&#45;&gt;Obstacle</title>
<path fill="none" stroke="black" d="M669.877,-49.3082C679.332,-63.6908 692.391,-83.5573 699.787,-94.8086"/>
<polygon fill="none" stroke="black" points="697.082,-97.0662 705.5,-103.5 702.932,-93.2211 697.082,-97.0662"/>
</g>
<!-- Trip -->
<g id="node12" class="node"><title>Trip</title>
<g id="a_node12"><a xlink:href="javascript:Action.selectClass(&quot;Trip&quot;);" xlink:title="class Trip
">
<polygon fill="none" stroke="black" points="600.5,-103.5 600.5,-139.5 654.5,-139.5 654.5,-103.5 600.5,-103.5"/>
<text text-anchor="middle" x="627.5" y="-117.8" font-family="Times,serif" font-size="14.00">Trip</text>
</a>
</g>
</g>
<!-- Trip&#45;&gt;SegEnd -->
<g id="edge14" class="edge"><title>Trip&#45;&gt;SegEnd</title>
<g id="a_edge14"><a xlink:title="Trip 0..1 &#160;&#45;&gt; 1..* &#160;SegEnd">
<path fill="none" stroke="black" d="M477.208,-188.868 512.727,-177.521 555.04,-162.417 591.5,-145 594.825,-143.412 598.225,-141.585 601.543,-139.675"/>
<polygon fill="black" stroke="black" points="467.38,-191.968 475.563,-184.668 472.149,-190.464 476.917,-188.96 476.917,-188.96 476.917,-188.96 472.149,-190.464 478.271,-193.251 467.38,-191.968 467.38,-191.968"/>
</a>
</g>
<text text-anchor="middle" x="479.88" y="-180.768" font-family="Times,serif" font-size="14.00">1..* </text>
<text text-anchor="middle" x="589.043" y="-128.475" font-family="Times,serif" font-size="14.00">0..1 </text>
</g>
<!-- Trip&#45;&gt;Craft -->
<g id="edge15" class="edge"><title>Trip&#45;&gt;Craft</title>
<g id="a_edge15"><a xlink:title="Trip 0..1 &#160;&#45;&#45; 1 &#160;Craft">
<path fill="none" stroke="black" d="M642.539,-139.564C654.935,-153.628 672.602,-173.674 686.069,-188.953"/>
</a>
</g>
<text text-anchor="middle" x="680.569" y="-177.753" font-family="Times,serif" font-size="14.00">1 </text>
<text text-anchor="middle" x="655.039" y="-128.364" font-family="Times,serif" font-size="14.00">0..1 </text>
</g>
<!-- Transponder -->
<g id="node13" class="node"><title>Transponder</title>
<g id="a_node13"><a xlink:href="javascript:Action.selectClass(&quot;Transponder&quot;);" xlink:title="class Transponder
">
<polygon fill="none" stroke="black" points="756,-98.5 756,-144.5 843,-144.5 843,-98.5 756,-98.5"/>
<text text-anchor="middle" x="799.5" y="-129.3" font-family="Times,serif" font-size="14.00">Transponder</text>
<polyline fill="none" stroke="black" points="756,-121.5 843,-121.5 "/>
<text text-anchor="start" x="764" y="-106.3" font-family="Times,serif" font-size="14.00">id : String</text>
</a>
</g>
</g>
<!-- Transponder&#45;&gt;Craft -->
<g id="edge16" class="edge"><title>Transponder&#45;&gt;Craft</title>
<g id="a_edge16"><a xlink:title="Transponder 0..1 &#160;&#45;&#45; 0..1 &#160;Craft">
<path fill="none" stroke="black" d="M728.887,-188.981 743.185,-175.52 761.421,-158.351 775.78,-144.832"/>
</a>
</g>
<text text-anchor="middle" x="741.387" y="-177.781" font-family="Times,serif" font-size="14.00">0..1 </text>
<text text-anchor="middle" x="763.28" y="-148.632" font-family="Times,serif" font-size="14.00">0..1 </text>
</g>
<!-- GPSCoord -->
<g id="node14" class="node"><title>GPSCoord</title>
<g id="a_node14"><a xlink:href="javascript:Action.selectClass(&quot;GPSCoord&quot;);" xlink:title="class GPSCoord
">
<polygon fill="none" stroke="black" points="811,-0.5 811,-61.5 920,-61.5 920,-0.5 811,-0.5"/>
<text text-anchor="middle" x="865.5" y="-46.3" font-family="Times,serif" font-size="14.00">GPSCoord</text>
<polyline fill="none" stroke="black" points="811,-38.5 920,-38.5 "/>
<text text-anchor="start" x="819" y="-23.3" font-family="Times,serif" font-size="14.00">lattitide : Float</text>
<text text-anchor="start" x="819" y="-8.3" font-family="Times,serif" font-size="14.00">longitude : Float</text>
</a>
</g>
</g>
</g>
</svg>
