<?xml version="1.0" encoding="UTF-8" standalone="no"?>
<!DOCTYPE svg PUBLIC "-//W3C//DTD SVG 1.1//EN"
 "http://www.w3.org/Graphics/SVG/1.1/DTD/svg11.dtd">
<!-- Generated by graphviz version 2.29.20121108.1600 (20121108.1600)
 -->
<!-- Title: Claim Pages: 1 -->
<svg width="172pt" height="230pt"
 viewBox="0.00 0.00 172.00 230.00" xmlns="http://www.w3.org/2000/svg" xmlns:xlink="http://www.w3.org/1999/xlink">
<g id="graph0" class="graph" transform="scale(1 1) rotate(0) translate(4 226)">
<title>Claim</title>
<polygon fill="white" stroke="white" points="-4,5 -4,-226 169,-226 169,5 -4,5"/>
<!-- Claim -->
<g id="node1" class="node"><title>Claim</title>
<g id="a_node1"><a xlink:href="javascript:Action.selectClass(&quot;Claim&quot;);" xlink:title="class Claim
Positioning
">
<polygon fill="none" stroke="black" points="-0.648438,-1 -0.648438,-101 164.648,-101 164.648,-1 -0.648438,-1"/>
<text text-anchor="middle" x="82" y="-83" font-family="Times,serif" font-size="14.00">Claim</text>
<polyline fill="none" stroke="black" points="-0.648438,-76.2 164.648,-76.2 "/>
<text text-anchor="start" x="7.35156" y="-58.2" font-family="Times,serif" font-size="14.00">sequenceNumber : String</text>
<text text-anchor="start" x="7.35156" y="-41.4" font-family="Times,serif" font-size="14.00">sequenceNumber2 : String</text>
<text text-anchor="start" x="7.35156" y="-24.6" font-family="Times,serif" font-size="14.00">description : String</text>
<text text-anchor="start" x="7.35156" y="-7.8" font-family="Times,serif" font-size="14.00">amountClaimed : String</text>
</a>
</g>
</g>
<!-- Clamor -->
<g id="node2" class="node"><title>Clamor</title>
<g id="a_node2"><a xlink:href="javascript:Action.selectClass(&quot;Clamor&quot;);" xlink:title="class Clamor
">
<polygon fill="none" stroke="black" points="20.3379,-138.4 20.3379,-221.6 143.662,-221.6 143.662,-138.4 20.3379,-138.4"/>
<text text-anchor="middle" x="82" y="-203.6" font-family="Times,serif" font-size="14.00">Clamor</text>
<polyline fill="none" stroke="black" points="20.3379,-196.8 143.662,-196.8 "/>
<text text-anchor="start" x="28.3379" y="-178.8" font-family="Times,serif" font-size="14.00">sequencia : String</text>
<text text-anchor="start" x="28.3379" y="-162" font-family="Times,serif" font-size="14.00">description : String</text>
<text text-anchor="start" x="28.3379" y="-145.2" font-family="Times,serif" font-size="14.00">plata : String</text>
</a>
</g>
</g>
<!-- Claim&#45;&gt;Clamor -->
<g id="edge1" class="edge"><title>Claim&#45;&gt;Clamor</title>
<path fill="none" stroke="black" d="M82,-101.102C82,-113.386 82,-126.43 82,-138.26"/>
<text text-anchor="middle" x="69.75" y="-124.26" font-family="Times,serif" font-size="14.00">0..1 </text>
<text text-anchor="middle" x="76.75" y="-103.902" font-family="Times,serif" font-size="14.00">1 </text>
</g>
</g>
</svg>
