<?xml version="1.0" encoding="UTF-8" standalone="no"?>
<!DOCTYPE svg PUBLIC "-//W3C//DTD SVG 1.1//EN"
 "http://www.w3.org/Graphics/SVG/1.1/DTD/svg11.dtd">
<!-- Generated by graphviz version 2.39.20140502.0445 (20140502.0445)
 -->
<!-- Title: Claim Pages: 1 -->
<svg width="174pt" height="213pt"
 viewBox="0.00 0.00 174.00 213.00" xmlns="http://www.w3.org/2000/svg" xmlns:xlink="http://www.w3.org/1999/xlink">
<g id="graph0" class="graph" transform="scale(1 1) rotate(0) translate(4 209)">
<title>Claim</title>
<polygon fill="white" stroke="none" points="-4,4 -4,-209 170,-209 170,4 -4,4"/>
<!-- Claim -->
<g id="node1" class="node"><title>Claim</title>
<g id="a_node1"><a xlink:href="javascript:Action.selectClass(&quot;Claim&quot;);" xlink:title="class Claim
Positioning
">
<polygon fill="none" stroke="black" points="0,-0.5 0,-91.5 166,-91.5 166,-0.5 0,-0.5"/>
<text text-anchor="middle" x="83" y="-76.3" font-family="Times,serif" font-size="14.00">Claim</text>
<polyline fill="none" stroke="black" points="0,-68.5 166,-68.5 "/>
<text text-anchor="start" x="8" y="-53.3" font-family="Times,serif" font-size="14.00">sequenceNumber : String</text>
<text text-anchor="start" x="8" y="-38.3" font-family="Times,serif" font-size="14.00">sequenceNumber2 : String</text>
<text text-anchor="start" x="8" y="-23.3" font-family="Times,serif" font-size="14.00">description : String</text>
<text text-anchor="start" x="8" y="-8.3" font-family="Times,serif" font-size="14.00">amountClaimed : String</text>
</a>
</g>
</g>
<!-- Clamor -->
<g id="node2" class="node"><title>Clamor</title>
<g id="a_node2"><a xlink:href="javascript:Action.selectClass(&quot;Clamor&quot;);" xlink:title="class Clamor
">
<polygon fill="none" stroke="black" points="21,-128.5 21,-204.5 145,-204.5 145,-128.5 21,-128.5"/>
<text text-anchor="middle" x="83" y="-189.3" font-family="Times,serif" font-size="14.00">Clamor</text>
<polyline fill="none" stroke="black" points="21,-181.5 145,-181.5 "/>
<text text-anchor="start" x="29" y="-166.3" font-family="Times,serif" font-size="14.00">sequencia : String</text>
<text text-anchor="start" x="29" y="-151.3" font-family="Times,serif" font-size="14.00">description : String</text>
<text text-anchor="start" x="29" y="-136.3" font-family="Times,serif" font-size="14.00">plata : String</text>
</a>
</g>
</g>
<!-- Claim&#45;&gt;Clamor -->
<g id="edge1" class="edge"><title>Claim&#45;&gt;Clamor</title>
<g id="a_edge1"><a xlink:title="Claim 1 &#160;&#45;&#45; 0..1 &#160;Clamor">
<path fill="none" stroke="black" d="M83,-91.7998C83,-103.859 83,-116.77 83,-128.361"/>
</a>
</g>
<text text-anchor="middle" x="70.5" y="-117.161" font-family="Times,serif" font-size="14.00">0..1 </text>
<text text-anchor="middle" x="77.5" y="-95.5998" font-family="Times,serif" font-size="14.00">1 </text>
</g>
</g>
</svg>
