<?xml version="1.0" encoding="UTF-8" standalone="no"?>
<!DOCTYPE svg PUBLIC "-//W3C//DTD SVG 1.1//EN"
 "http://www.w3.org/Graphics/SVG/1.1/DTD/svg11.dtd">
<!-- Generated by graphviz version 2.29.20121108.1600 (20121108.1600)
 -->
<!-- Title: CommunityAssociation Pages: 1 -->
<svg width="451pt" height="492pt"
 viewBox="0.00 0.00 451.00 492.00" xmlns="http://www.w3.org/2000/svg" xmlns:xlink="http://www.w3.org/1999/xlink">
<g id="graph0" class="graph" transform="scale(1 1) rotate(0) translate(4 488)">
<title>CommunityAssociation</title>
<polygon fill="white" stroke="white" points="-4,5 -4,-488 448,-488 448,5 -4,5"/>
<!-- Facility -->
<g id="node1" class="node"><title>Facility</title>
<g id="a_node1"><a xlink:href="javascript:Action.selectClass(&quot;Facility&quot;);" xlink:title="class Facility
">
<polygon fill="none" stroke="black" points="48.5586,-83.4 48.5586,-166.6 173.441,-166.6 173.441,-83.4 48.5586,-83.4"/>
<text text-anchor="middle" x="111" y="-148.6" font-family="Times,serif" font-size="14.00">Facility</text>
<polyline fill="none" stroke="black" points="48.5586,-141.8 173.441,-141.8 "/>
<text text-anchor="start" x="56.5586" y="-123.8" font-family="Times,serif" font-size="14.00">id : String</text>
<text text-anchor="start" x="56.5586" y="-107" font-family="Times,serif" font-size="14.00">type : String</text>
<text text-anchor="start" x="56.5586" y="-90.2" font-family="Times,serif" font-size="14.00">openPeriod : String</text>
</a>
</g>
</g>
<!-- Booking -->
<g id="node5" class="node"><title>Booking</title>
<g id="a_node5"><a xlink:href="javascript:Action.selectClass(&quot;Booking&quot;);" xlink:title="class Booking
">
<polygon fill="none" stroke="black" points="9.44141,-212.6 9.44141,-329.4 196.559,-329.4 196.559,-212.6 9.44141,-212.6"/>
<text text-anchor="middle" x="103" y="-311.4" font-family="Times,serif" font-size="14.00">Booking</text>
<polyline fill="none" stroke="black" points="9.44141,-304.6 196.559,-304.6 "/>
<text text-anchor="start" x="17.4414" y="-286.6" font-family="Times,serif" font-size="14.00">date : Date</text>
<text text-anchor="start" x="17.4414" y="-269.8" font-family="Times,serif" font-size="14.00">startTime : Time</text>
<text text-anchor="start" x="17.4414" y="-253" font-family="Times,serif" font-size="14.00">endTime : Time</text>
<text text-anchor="start" x="17.4414" y="-236.2" font-family="Times,serif" font-size="14.00">feePaid : Float</text>
<text text-anchor="start" x="17.4414" y="-219.4" font-family="Times,serif" font-size="14.00">isReservedForFCFS : Boolean</text>
</a>
</g>
</g>
<!-- Facility&#45;&gt;Booking -->
<g id="edge4" class="edge"><title>Facility&#45;&gt;Booking</title>
<path fill="none" stroke="black" d="M108.729,-166.879C107.944,-181.015 107.048,-197.132 106.202,-212.357"/>
<text text-anchor="middle" x="80.3455" y="-198.357" font-family="Times,serif" font-size="14.00">* booked</text>
<text text-anchor="middle" x="103.479" y="-169.679" font-family="Times,serif" font-size="14.00">1 </text>
</g>
<!-- Resident -->
<g id="node2" class="node"><title>Resident</title>
<g id="a_node2"><a xlink:href="javascript:Action.selectClass(&quot;Resident&quot;);" xlink:title="class Resident
">
<polygon fill="none" stroke="black" points="120.293,-366.6 120.293,-483.4 281.707,-483.4 281.707,-366.6 120.293,-366.6"/>
<text text-anchor="middle" x="201" y="-465.4" font-family="Times,serif" font-size="14.00">Resident</text>
<polyline fill="none" stroke="black" points="120.293,-458.6 281.707,-458.6 "/>
<text text-anchor="start" x="128.293" y="-440.6" font-family="Times,serif" font-size="14.00">name : String</text>
<text text-anchor="start" x="128.293" y="-423.8" font-family="Times,serif" font-size="14.00">under18 : Boolean</text>
<text text-anchor="start" x="128.293" y="-407" font-family="Times,serif" font-size="14.00">emailAddress : String</text>
<text text-anchor="start" x="128.293" y="-390.2" font-family="Times,serif" font-size="14.00">telephoneNumber : String</text>
<text text-anchor="start" x="128.293" y="-373.4" font-family="Times,serif" font-size="14.00">executivePosition : String</text>
</a>
</g>
</g>
<!-- CommunityResidence -->
<g id="node3" class="node"><title>CommunityResidence</title>
<g id="a_node3"><a xlink:href="javascript:Action.selectClass(&quot;CommunityResidence&quot;);" xlink:title="class CommunityResidence
">
<polygon fill="none" stroke="black" points="214.81,-229.4 214.81,-312.6 383.19,-312.6 383.19,-229.4 214.81,-229.4"/>
<text text-anchor="middle" x="299" y="-294.6" font-family="Times,serif" font-size="14.00">CommunityResidence</text>
<polyline fill="none" stroke="black" points="214.81,-287.8 383.19,-287.8 "/>
<text text-anchor="start" x="222.81" y="-269.8" font-family="Times,serif" font-size="14.00">streetAddress : String</text>
<text text-anchor="start" x="222.81" y="-253" font-family="Times,serif" font-size="14.00">apartmentNumber : Integer</text>
<text text-anchor="start" x="222.81" y="-236.2" font-family="Times,serif" font-size="14.00">feePaidToDate : String</text>
</a>
</g>
</g>
<!-- CommunityResidence&#45;&gt;Resident -->
<g id="edge5" class="edge"><title>CommunityResidence&#45;&gt;Resident</title>
<path fill="none" stroke="black" d="M272.738,-312.733C262.079,-329.266 249.575,-348.659 238.019,-366.583"/>
<text text-anchor="middle" x="232.769" y="-352.583" font-family="Times,serif" font-size="14.00">* </text>
<text text-anchor="middle" x="275.363" y="-315.533" font-family="Times,serif" font-size="14.00">1 </text>
</g>
<!-- Event -->
<g id="node4" class="node"><title>Event</title>
<g id="a_node4"><a xlink:href="javascript:Action.selectClass(&quot;Event&quot;);" xlink:title="class Event
">
<polygon fill="none" stroke="black" points="330.283,-75 330.283,-175 421.717,-175 421.717,-75 330.283,-75"/>
<text text-anchor="middle" x="376" y="-157" font-family="Times,serif" font-size="14.00">Event</text>
<polyline fill="none" stroke="black" points="330.283,-150.2 421.717,-150.2 "/>
<text text-anchor="start" x="338.283" y="-132.2" font-family="Times,serif" font-size="14.00">date : Date</text>
<text text-anchor="start" x="338.283" y="-115.4" font-family="Times,serif" font-size="14.00">time : Time</text>
<text text-anchor="start" x="338.283" y="-98.6" font-family="Times,serif" font-size="14.00">fee : Float</text>
<text text-anchor="start" x="338.283" y="-81.8" font-family="Times,serif" font-size="14.00">name : String</text>
</a>
</g>
</g>
<!-- Booking&#45;&gt;Resident -->
<g id="edge6" class="edge"><title>Booking&#45;&gt;Resident</title>
<path fill="none" stroke="black" d="M140.05,-329.465C147.855,-341.571 156.091,-354.345 163.898,-366.454"/>
<text text-anchor="middle" x="151.648" y="-352.454" font-family="Times,serif" font-size="14.00">0..1 </text>
<text text-anchor="middle" x="134.8" y="-332.265" font-family="Times,serif" font-size="14.00">* </text>
</g>
<!-- Under18Event -->
<g id="node6" class="node"><title>Under18Event</title>
<g id="a_node6"><a xlink:href="javascript:Action.selectClass(&quot;Under18Event&quot;);" xlink:title="class Under18Event
">
<polygon fill="none" stroke="black" points="346.179,-1 346.179,-37 443.821,-37 443.821,-1 346.179,-1"/>
<text text-anchor="middle" x="395" y="-13.5" font-family="Times,serif" font-size="14.00">Under18Event</text>
</a>
</g>
</g>
<!-- Under18Event&#45;&gt;Event -->
<g id="edge1" class="edge"><title>Under18Event&#45;&gt;Event</title>
<path fill="none" stroke="black" d="M391.863,-37.1735C390.425,-45.0432 388.627,-54.8825 386.764,-65.0833"/>
<polygon fill="none" stroke="black" points="383.32,-64.4555 384.966,-74.9217 390.206,-65.7136 383.32,-64.4555"/>
</g>
<!-- Rink -->
<g id="node7" class="node"><title>Rink</title>
<g id="a_node7"><a xlink:href="javascript:Action.selectClass(&quot;Rink&quot;);" xlink:title="class Rink
">
<polygon fill="none" stroke="black" points="0,-1 0,-37 54,-37 54,-1 0,-1"/>
<text text-anchor="middle" x="26.6138" y="-13.5" font-family="Times,serif" font-size="14.00">Rink</text>
</a>
</g>
</g>
<!-- Rink&#45;&gt;Facility -->
<g id="edge2" class="edge"><title>Rink&#45;&gt;Facility</title>
<path fill="none" stroke="black" d="M46.1278,-37.215C60.3767,-50.0391 79.0784,-66.8706 89.3755,-76.138"/>
<polygon fill="none" stroke="black" points="87.2256,-78.9119 97,-83 91.9084,-73.7088 87.2256,-78.9119"/>
</g>
<!-- TennisCourt -->
<g id="node8" class="node"><title>TennisCourt</title>
<g id="a_node8"><a xlink:href="javascript:Action.selectClass(&quot;TennisCourt&quot;);" xlink:title="class TennisCourt
">
<polygon fill="none" stroke="black" points="72.4922,-1 72.4922,-37 157.508,-37 157.508,-1 72.4922,-1"/>
<text text-anchor="middle" x="115" y="-13.5" font-family="Times,serif" font-size="14.00">TennisCourt</text>
</a>
</g>
</g>
<!-- TennisCourt&#45;&gt;Facility -->
<g id="edge3" class="edge"><title>TennisCourt&#45;&gt;Facility</title>
<path fill="none" stroke="black" d="M110.081,-37.215C106.792,-48.7275 102.58,-63.4697 99.8373,-73.0696"/>
<polygon fill="none" stroke="black" points="96.3819,-72.4232 97,-83 103.113,-74.3463 96.3819,-72.4232"/>
</g>
<!-- CommunityAssociation -->
<g id="node9" class="node"><title>CommunityAssociation</title>
<g id="a_node9"><a xlink:href="javascript:Action.selectClass(&quot;CommunityAssociation&quot;);" xlink:title="class CommunityAssociation
">
<polygon fill="none" stroke="black" points="179.5,-1 179.5,-37 328.5,-37 328.5,-1 179.5,-1"/>
<text text-anchor="middle" x="254" y="-13.5" font-family="Times,serif" font-size="14.00">CommunityAssociation</text>
</a>
</g>
</g>
<!-- CommunityAssociation&#45;&gt;CommunityResidence -->
<g id="edge7" class="edge"><title>CommunityAssociation&#45;&gt;CommunityResidence</title>
<path fill="none" stroke="black" d="M257.093,-37.1835C264.162,-76.4562 281.661,-173.673 291.668,-229.268"/>
<text text-anchor="middle" x="286.418" y="-215.268" font-family="Times,serif" font-size="14.00">* </text>
<text text-anchor="middle" x="251.843" y="-39.9835" font-family="Times,serif" font-size="14.00">1 </text>
</g>
<!-- CommunityAssociation&#45;&gt;Facility -->
<g id="edge8" class="edge"><title>CommunityAssociation&#45;&gt;Facility</title>
<path fill="none" stroke="black" d="M230.386,-37.1735C213.172,-49.6929 189.104,-67.1968 167.085,-83.2113"/>
<text text-anchor="middle" x="172.335" y="-69.2113" font-family="Times,serif" font-size="14.00">* </text>
<text text-anchor="middle" x="225.136" y="-39.9735" font-family="Times,serif" font-size="14.00">1 </text>
</g>
<!-- CommunityAssociation&#45;&gt;Event -->
<g id="edge9" class="edge"><title>CommunityAssociation&#45;&gt;Event</title>
<path fill="none" stroke="black" d="M274.146,-37.1735C289.373,-50.1545 310.887,-68.4942 330.222,-84.976"/>
<text text-anchor="middle" x="324.972" y="-70.976" font-family="Times,serif" font-size="14.00">* </text>
<text text-anchor="middle" x="268.896" y="-39.9735" font-family="Times,serif" font-size="14.00">1 </text>
</g>
</g>
</svg>
