<?xml version="1.0" encoding="UTF-8" standalone="no"?>
<!DOCTYPE svg PUBLIC "-//W3C//DTD SVG 1.1//EN"
 "http://www.w3.org/Graphics/SVG/1.1/DTD/svg11.dtd">
<!-- Generated by graphviz version 2.29.20121108.1600 (20121108.1600)
 -->
<!-- Title: ComplexStateMachine Pages: 1 -->
<svg width="454pt" height="386pt"
 viewBox="0.00 0.00 454.00 386.00" xmlns="http://www.w3.org/2000/svg" xmlns:xlink="http://www.w3.org/1999/xlink">
<g id="graph0" class="graph" transform="scale(1 1) rotate(0) translate(4 382)">
<title>ComplexStateMachine</title>
<polygon fill="white" stroke="white" points="-4,5 -4,-382 451,-382 451,5 -4,5"/>
<g id="clust1" class="cluster"><title>clusterBigStateMachineTest_sm_Zxab</title>
<path fill="none" stroke="black" d="M228,-8C228,-8 412,-8 412,-8 418,-8 424,-14 424,-20 424,-20 424,-358 424,-358 424,-364 418,-370 412,-370 412,-370 228,-370 228,-370 222,-370 216,-364 216,-358 216,-358 216,-20 216,-20 216,-14 222,-8 228,-8"/>
<text text-anchor="middle" x="320" y="-352" font-family="Times,serif" font-size="14.00">Zxab</text>
</g>
<g id="clust2" class="cluster"><title>clusterBigStateMachineTest_smZxab_Zx</title>
<path fill="none" stroke="black" d="M258,-98C258,-98 322,-98 322,-98 328,-98 334,-104 334,-110 334,-110 334,-326 334,-326 334,-332 328,-338 322,-338 322,-338 258,-338 258,-338 252,-338 246,-332 246,-326 246,-326 246,-110 246,-110 246,-104 252,-98 258,-98"/>
<text text-anchor="middle" x="290" y="-320" font-family="Times,serif" font-size="14.00">Zx</text>
</g>
<g id="clust3" class="cluster"><title>clusterBigStateMachineTest_sm_Ge</title>
<path fill="none" stroke="black" d="M20,-8C20,-8 116,-8 116,-8 122,-8 128,-14 128,-20 128,-20 128,-162 128,-162 128,-168 122,-174 116,-174 116,-174 20,-174 20,-174 14,-174 8,-168 8,-162 8,-162 8,-20 8,-20 8,-14 14,-8 20,-8"/>
<text text-anchor="middle" x="68" y="-156" font-family="Times,serif" font-size="14.00">Ge</text>
</g>
<!-- start_BigStateMachineTest_sm -->
<g id="node1" class="node"><title>start_BigStateMachineTest_sm</title>
<ellipse fill="black" stroke="black" cx="439" cy="-299" rx="7.2" ry="7.2"/>
</g>
<!-- BigStateMachineTest_smZxabZx_Z -->
<g id="node4" class="node"><title>BigStateMachineTest_smZxabZx_Z</title>
<path fill="none" stroke="black" d="M314,-254C314,-254 266,-254 266,-254 260,-254 254,-248 254,-242 254,-242 254,-230 254,-230 254,-224 260,-218 266,-218 266,-218 314,-218 314,-218 320,-218 326,-224 326,-230 326,-230 326,-242 326,-242 326,-248 320,-254 314,-254"/>
<text text-anchor="middle" x="290" y="-230.4" font-family="Times,serif" font-size="14.00">Z</text>
</g>
<!-- start_BigStateMachineTest_sm&#45;&gt;BigStateMachineTest_smZxabZx_Z -->
<g id="edge1" class="edge"><title>start_BigStateMachineTest_sm&#45;&gt;BigStateMachineTest_smZxabZx_Z</title>
<path fill="none" stroke="black" d="M432.598,-295.379C432.449,-295.318 432.297,-295.256 432.144,-295.193"/>
<polygon fill="black" stroke="black" points="434.348,-292.314 423.768,-291.764 431.696,-298.792 434.348,-292.314"/>
</g>
<!-- start_BigStateMachineTest_Zxab -->
<g id="node2" class="node"><title>start_BigStateMachineTest_Zxab</title>
<ellipse fill="black" stroke="black" cx="231" cy="-299" rx="7.2" ry="7.2"/>
</g>
<!-- start_BigStateMachineTest_Zxab&#45;&gt;BigStateMachineTest_smZxabZx_Z -->
<g id="edge2" class="edge"><title>start_BigStateMachineTest_Zxab&#45;&gt;BigStateMachineTest_smZxabZx_Z</title>
<path fill="none" stroke="black" d="M235.63,-293.213C236.635,-292.174 237.778,-290.992 239.035,-289.693"/>
<polygon fill="black" stroke="black" points="241.71,-291.962 246.146,-282.34 236.678,-287.095 241.71,-291.962"/>
</g>
<!-- start_BigStateMachineTest_Zx -->
<g id="node3" class="node"><title>start_BigStateMachineTest_Zx</title>
<ellipse fill="black" stroke="black" cx="290" cy="-299" rx="7.2" ry="7.2"/>
</g>
<!-- start_BigStateMachineTest_Zx&#45;&gt;BigStateMachineTest_smZxabZx_Z -->
<g id="edge3" class="edge"><title>start_BigStateMachineTest_Zx&#45;&gt;BigStateMachineTest_smZxabZx_Z</title>
<path fill="none" stroke="black" d="M290,-291.472C290,-284.902 290,-274.324 290,-264.229"/>
<polygon fill="black" stroke="black" points="293.5,-264.073 290,-254.073 286.5,-264.073 293.5,-264.073"/>
</g>
<!-- BigStateMachineTest_smZxabZx_X -->
<g id="node5" class="node"><title>BigStateMachineTest_smZxabZx_X</title>
<path fill="none" stroke="black" d="M314,-142C314,-142 266,-142 266,-142 260,-142 254,-136 254,-130 254,-130 254,-118 254,-118 254,-112 260,-106 266,-106 266,-106 314,-106 314,-106 320,-106 326,-112 326,-118 326,-118 326,-130 326,-130 326,-136 320,-142 314,-142"/>
<text text-anchor="middle" x="290" y="-118.4" font-family="Times,serif" font-size="14.00">X</text>
</g>
<!-- BigStateMachineTest_smZxabZx_Z&#45;&gt;BigStateMachineTest_smZxabZx_X -->
<g id="edge4" class="edge"><title>BigStateMachineTest_smZxabZx_Z&#45;&gt;BigStateMachineTest_smZxabZx_X</title>
<path fill="none" stroke="black" d="M288.117,-217.932C287.573,-212.237 287.054,-205.852 286.786,-200 286.064,-184.231 286.744,-166.594 287.662,-152.387"/>
<polygon fill="black" stroke="black" points="291.163,-152.505 288.391,-142.279 284.181,-152.001 291.163,-152.505"/>
<text text-anchor="middle" x="292.607" y="-185.4" font-family="Times,serif" font-size="14.00">e3</text>
</g>
<!-- BigStateMachineTest_smZxab_A -->
<g id="node6" class="node"><title>BigStateMachineTest_smZxab_A</title>
<path fill="none" stroke="black" d="M404,-142C404,-142 356,-142 356,-142 350,-142 344,-136 344,-130 344,-130 344,-118 344,-118 344,-112 350,-106 356,-106 356,-106 404,-106 404,-106 410,-106 416,-112 416,-118 416,-118 416,-130 416,-130 416,-136 410,-142 404,-142"/>
<text text-anchor="middle" x="380" y="-118.4" font-family="Times,serif" font-size="14.00">A</text>
</g>
<!-- BigStateMachineTest_smZxabZx_Z&#45;&gt;BigStateMachineTest_smZxab_A -->
<g id="edge6" class="edge"><title>BigStateMachineTest_smZxabZx_Z&#45;&gt;BigStateMachineTest_smZxab_A</title>
<path fill="none" stroke="black" d="M304.062,-217.812C318.989,-199.569 342.718,-170.567 359.677,-149.839"/>
<polygon fill="black" stroke="black" points="362.413,-152.023 366.036,-142.067 356.995,-147.59 362.413,-152.023"/>
<text text-anchor="middle" x="338.607" y="-185.4" font-family="Times,serif" font-size="14.00">e2</text>
</g>
<!-- BigStateMachineTest_smGe_G -->
<g id="node10" class="node"><title>BigStateMachineTest_smGe_G</title>
<path fill="none" stroke="black" d="M108,-52C108,-52 60,-52 60,-52 54,-52 48,-46 48,-40 48,-40 48,-28 48,-28 48,-22 54,-16 60,-16 60,-16 108,-16 108,-16 114,-16 120,-22 120,-28 120,-28 120,-40 120,-40 120,-46 114,-52 108,-52"/>
<text text-anchor="middle" x="84" y="-28.4" font-family="Times,serif" font-size="14.00">G</text>
</g>
<!-- BigStateMachineTest_smZxabZx_Z&#45;&gt;BigStateMachineTest_smGe_G -->
<g id="edge11" class="edge"><title>BigStateMachineTest_smZxabZx_Z&#45;&gt;BigStateMachineTest_smGe_G</title>
<path fill="none" stroke="black" d="M216.187,-148.888C201.802,-119.759 202.155,-97.6727 170,-70 158.484,-60.0897 143.791,-52.7326 129.821,-47.3919"/>
<polygon fill="black" stroke="black" points="138.082,-49.2666 128,-46.0101 133.851,-54.8431 138.082,-49.2666"/>
<text text-anchor="middle" x="238.607" y="-118.4" font-family="Times,serif" font-size="14.00">e4</text>
</g>
<!-- BigStateMachineTest_smZxabZx_Z&#45;&gt;BigStateMachineTest_smGe_G -->
<g id="edge13" class="edge"><title>BigStateMachineTest_smZxabZx_Z&#45;&gt;BigStateMachineTest_smGe_G</title>
<path fill="none" stroke="black" d="M246.05,-224.559C220.387,-217.77 191.117,-208.609 181,-200 142.246,-167.024 154.345,-142.123 129,-98 121.631,-85.1717 119.526,-82.0902 111,-70 108.791,-66.8681 106.417,-63.6262 104.026,-60.4365"/>
<polygon fill="black" stroke="black" points="106.608,-58.051 97.7579,-52.2262 101.044,-62.2986 106.608,-58.051"/>
<text text-anchor="middle" x="165.607" y="-118.4" font-family="Times,serif" font-size="14.00">e5</text>
</g>
<!-- BigStateMachineTest_smGe_E -->
<g id="node11" class="node"><title>BigStateMachineTest_smGe_E</title>
<path fill="none" stroke="black" d="M76,-142C76,-142 28,-142 28,-142 22,-142 16,-136 16,-130 16,-130 16,-118 16,-118 16,-112 22,-106 28,-106 28,-106 76,-106 76,-106 82,-106 88,-112 88,-118 88,-118 88,-130 88,-130 88,-136 82,-142 76,-142"/>
<text text-anchor="middle" x="52" y="-118.4" font-family="Times,serif" font-size="14.00">E</text>
</g>
<!-- BigStateMachineTest_smZxabZx_Z&#45;&gt;BigStateMachineTest_smGe_E -->
<g id="edge16" class="edge"><title>BigStateMachineTest_smZxabZx_Z&#45;&gt;BigStateMachineTest_smGe_E</title>
<path fill="none" stroke="black" d="M216.089,-217.803C177.703,-209.58 164.648,-217.034 128.786,-200 105.063,-188.732 84.1875,-167.139 70.2146,-150.005"/>
<polygon fill="black" stroke="black" points="72.8625,-147.71 63.9274,-142.016 67.3618,-152.039 72.8625,-147.71"/>
<text text-anchor="middle" x="135.607" y="-185.4" font-family="Times,serif" font-size="14.00">e1</text>
</g>
<!-- BigStateMachineTest_smZxab_B -->
<g id="node7" class="node"><title>BigStateMachineTest_smZxab_B</title>
<path fill="none" stroke="black" d="M404,-52C404,-52 356,-52 356,-52 350,-52 344,-46 344,-40 344,-40 344,-28 344,-28 344,-22 350,-16 356,-16 356,-16 404,-16 404,-16 410,-16 416,-22 416,-28 416,-28 416,-40 416,-40 416,-46 410,-52 404,-52"/>
<text text-anchor="middle" x="380" y="-28.4" font-family="Times,serif" font-size="14.00">B</text>
</g>
<!-- BigStateMachineTest_smZxab_A&#45;&gt;BigStateMachineTest_smZxab_B -->
<g id="edge7" class="edge"><title>BigStateMachineTest_smZxab_A&#45;&gt;BigStateMachineTest_smZxab_B</title>
<path fill="none" stroke="black" d="M380,-105.614C380,-93.2403 380,-76.3686 380,-62.2198"/>
<polygon fill="black" stroke="black" points="383.5,-62.0504 380,-52.0504 376.5,-62.0504 383.5,-62.0504"/>
<text text-anchor="middle" x="386.607" y="-73.4" font-family="Times,serif" font-size="14.00">e3</text>
</g>
<!-- BigStateMachineTest_sm_D -->
<g id="node8" class="node"><title>BigStateMachineTest_sm_D</title>
<path fill="none" stroke="black" d="M196,-254C196,-254 148,-254 148,-254 142,-254 136,-248 136,-242 136,-242 136,-230 136,-230 136,-224 142,-218 148,-218 148,-218 196,-218 196,-218 202,-218 208,-224 208,-230 208,-230 208,-242 208,-242 208,-248 202,-254 196,-254"/>
<text text-anchor="middle" x="172" y="-230.4" font-family="Times,serif" font-size="14.00">D</text>
</g>
<!-- BigStateMachineTest_smZxab_A&#45;&gt;BigStateMachineTest_sm_D -->
<g id="edge9" class="edge"><title>BigStateMachineTest_smZxab_A&#45;&gt;BigStateMachineTest_sm_D</title>
<path fill="none" stroke="black" d="M370.253,-142.192C362.928,-153.336 351.802,-167.03 338,-174 294.556,-195.94 273.383,-162.51 228.786,-182 221.009,-185.399 207.151,-198.269 195.072,-210.475"/>
<polygon fill="black" stroke="black" points="192.315,-208.289 187.851,-217.898 197.333,-213.17 192.315,-208.289"/>
<text text-anchor="middle" x="235.607" y="-185.4" font-family="Times,serif" font-size="14.00">e5</text>
</g>
<!-- BigStateMachineTest_smZxab_B&#45;&gt;BigStateMachineTest_smGe_G -->
<g id="edge10" class="edge"><title>BigStateMachineTest_smZxab_B&#45;&gt;BigStateMachineTest_smGe_G</title>
<path fill="none" stroke="black" d="M343.871,-34C290.23,-34 189.523,-34 130.464,-34"/>
<polygon fill="black" stroke="black" points="138,-30.5004 128,-34 138,-37.5004 138,-30.5004"/>
<text text-anchor="middle" x="232" y="-39.8" font-family="Times,serif" font-size="14.00">e3</text>
</g>
<!-- BigStateMachineTest_sm_D&#45;&gt;BigStateMachineTest_smZxabZx_X -->
<g id="edge5" class="edge"><title>BigStateMachineTest_sm_D&#45;&gt;BigStateMachineTest_smZxabZx_X</title>
<path fill="none" stroke="black" d="M176.339,-217.83C180.242,-205.954 187.19,-190.766 198.786,-182 213.671,-170.748 223.48,-182.674 240,-174 251.319,-168.057 261.778,-158.725 270.172,-149.792"/>
<polygon fill="black" stroke="black" points="272.95,-151.936 276.988,-142.141 267.723,-147.28 272.95,-151.936"/>
<text text-anchor="middle" x="205.607" y="-185.4" font-family="Times,serif" font-size="14.00">e5</text>
</g>
<!-- BigStateMachineTest_sm_D&#45;&gt;BigStateMachineTest_smGe_E -->
<g id="edge17" class="edge"><title>BigStateMachineTest_sm_D&#45;&gt;BigStateMachineTest_smGe_E</title>
<path fill="none" stroke="black" d="M135.815,-230.626C114.711,-226.246 89.1134,-217.491 72.7861,-200 60.8001,-187.16 55.6272,-168.02 53.4387,-152.29"/>
<polygon fill="black" stroke="black" points="56.8893,-151.638 52.3533,-142.063 49.9284,-152.377 56.8893,-151.638"/>
<text text-anchor="middle" x="79.6069" y="-185.4" font-family="Times,serif" font-size="14.00">e2</text>
</g>
<!-- start_BigStateMachineTest_Ge -->
<g id="node9" class="node"><title>start_BigStateMachineTest_Ge</title>
<ellipse fill="black" stroke="black" cx="113" cy="-124" rx="7.2" ry="7.2"/>
</g>
<!-- start_BigStateMachineTest_Ge&#45;&gt;BigStateMachineTest_smGe_G -->
<g id="edge12" class="edge"><title>start_BigStateMachineTest_Ge&#45;&gt;BigStateMachineTest_smGe_G</title>
<path fill="none" stroke="black" d="M112.443,-116.633C111.415,-106.51 108.777,-86.232 103,-70 101.967,-67.0973 100.718,-64.1446 99.3592,-61.2473"/>
<polygon fill="black" stroke="black" points="102.454,-59.6113 94.7763,-52.31 96.2248,-62.8053 102.454,-59.6113"/>
</g>
<!-- BigStateMachineTest_smGe_G&#45;&gt;BigStateMachineTest_smZxab_B -->
<g id="edge8" class="edge"><title>BigStateMachineTest_smGe_G&#45;&gt;BigStateMachineTest_smZxab_B</title>
<path fill="none" stroke="black" d="M120.295,-34C174.034,-34 274.746,-34 333.719,-34"/>
<polygon fill="black" stroke="black" points="333.871,-37.5001 343.871,-34 333.871,-30.5001 333.871,-37.5001"/>
<text text-anchor="middle" x="232" y="-39.8" font-family="Times,serif" font-size="14.00">e1</text>
</g>
<!-- BigStateMachineTest_smGe_E&#45;&gt;BigStateMachineTest_smGe_G -->
<g id="edge14" class="edge"><title>BigStateMachineTest_smGe_E&#45;&gt;BigStateMachineTest_smGe_G</title>
<path fill="none" stroke="black" d="M48.2528,-105.684C46.7476,-95.0226 46.2842,-81.2841 50.7861,-70 52.1714,-66.5279 54.0829,-63.2028 56.2951,-60.0789"/>
<polygon fill="black" stroke="black" points="59.0346,-62.2582 62.6986,-52.3171 53.6349,-57.8036 59.0346,-62.2582"/>
<text text-anchor="middle" x="57.6069" y="-73.4" font-family="Times,serif" font-size="14.00">e1</text>
</g>
<!-- BigStateMachineTest_smGe_E&#45;&gt;BigStateMachineTest_smGe_G -->
<g id="edge15" class="edge"><title>BigStateMachineTest_smGe_E&#45;&gt;BigStateMachineTest_smGe_G</title>
<path fill="none" stroke="black" d="M58.3222,-105.614C62.8658,-93.119 69.0773,-76.0374 74.2529,-61.8044"/>
<polygon fill="black" stroke="black" points="77.6716,-62.6445 77.7998,-52.0504 71.0931,-60.2522 77.6716,-62.6445"/>
<text text-anchor="middle" x="77.6069" y="-73.4" font-family="Times,serif" font-size="14.00">e2</text>
</g>
</g>
</svg>
