<?xml version="1.0" encoding="UTF-8" standalone="no"?>
<!DOCTYPE svg PUBLIC "-//W3C//DTD SVG 1.1//EN"
 "http://www.w3.org/Graphics/SVG/1.1/DTD/svg11.dtd">
<!-- Generated by graphviz version 2.36.0 (20140111.2315)
 -->
<!-- Title: model Pages: 1 -->
<svg width="195pt" height="313pt"
 viewBox="0.00 0.00 195.12 313.25" xmlns="http://www.w3.org/2000/svg" xmlns:xlink="http://www.w3.org/1999/xlink">
<g id="graph0" class="graph" transform="scale(0.875 0.875) rotate(0) translate(4 354)">
<title>model</title>
<polygon fill="white" stroke="none" points="-4,4 -4,-354 219,-354 219,4 -4,4"/>
<!-- Building -->
<g id="node1" class="node"><title>Building</title>
<g id="a_node1"><a xlink:href="javascript:Action.selectClass(&quot;Building&quot;);" xlink:title="class Building
Positioning&#13;">
<text text-anchor="start" x="11.5" y="-93.3" font-family="Times,serif" font-size="14.00"> &#160;&#160;&#160;Building &#160;&#160;&#160;</text>
<polygon fill="none" stroke="black" points="-0.5,-78 -0.5,-116 100.5,-116 100.5,-78 -0.5,-78"/>
</a>
</g>
</g>
<!-- Floor -->
<g id="node2" class="node"><title>Floor</title>
<g id="a_node2"><a xlink:href="javascript:Action.selectClass(&quot;Floor&quot;);" xlink:title="class Floor
deleting a building deletes all its floors&#13;also, deleting a floor delete all its rooms&#13;">
<text text-anchor="start" x="78.5" y="-15.3" font-family="Times,serif" font-size="14.00"> &#160;&#160;&#160;Floor &#160;&#160;&#160;</text>
<polygon fill="none" stroke="black" points="66.5,-0 66.5,-38 149.5,-38 149.5,-0 66.5,-0"/>
</a>
</g>
</g>
<!-- Floor&#45;&gt;Building -->
<g id="edge1" class="edge"><title>Floor&#45;&gt;Building</title>
<g id="a_edge1"><a xlink:title="Floor 4..10 &#160;&#45;&lt;@&gt; 1 b Building">
<path fill="none" stroke="black" d="M94.2548,-38.0109C87.3708,-47.0314 78.8836,-58.1526 71.1891,-68.235"/>
<polygon fill="black" stroke="black" points="71.1276,-68.3155 70.6674,-75.512 63.8475,-77.855 64.3078,-70.6585 71.1276,-68.3155"/>
</a>
</g>
<text text-anchor="middle" x="54.8475" y="-66.655" font-family="Times,serif" font-size="14.00">1 b</text>
<text text-anchor="middle" x="78.2548" y="-41.8109" font-family="Times,serif" font-size="14.00">4..10 </text>
</g>
<!-- Room -->
<g id="node3" class="node"><title>Room</title>
<g id="a_node3"><a xlink:href="javascript:Action.selectClass(&quot;Room&quot;);" xlink:title="class Room
">
<text text-anchor="start" x="135.5" y="-102.3" font-family="Times,serif" font-size="14.00"> &#160;&#160;&#160;Room &#160;&#160;&#160;</text>
</a>
</g>
<g id="a_node3_0"><a xlink:href="javascript:Action.selectClass(&quot;Room&quot;);" xlink:title="int windows">
<text text-anchor="start" x="122" y="-80.8" font-family="Times,serif" font-size="14.00"> &#160;windows : int &#160;</text>
</a>
</g>
<g><a xlink:href="javascript:Action.selectClass(&quot;Room&quot;);" xlink:title="class Room
">
<polygon fill="black" stroke="black" points="119,-94 119,-94 216,-94 216,-94 119,-94"/>
<polygon fill="none" stroke="black" points="118.5,-74.5 118.5,-119.5 215.5,-119.5 215.5,-74.5 118.5,-74.5"/>
</a>
</g>
</g>
<!-- Floor&#45;&gt;Room -->
<g id="edge2" class="edge"><title>Floor&#45;&gt;Room</title>
<g id="a_edge2"><a xlink:title="Floor 1 &#160;&lt;@&gt;&#45; 0..6 r Room">
<path fill="none" stroke="black" d="M129.36,-47.5143C136.211,-56.3395 143.698,-65.9834 150.177,-74.3295"/>
<polygon fill="black" stroke="black" points="129.341,-47.4899 122.502,-45.2033 121.982,-38.0109 128.821,-40.2975 129.341,-47.4899"/>
</a>
</g>
<text text-anchor="middle" x="135.177" y="-63.1295" font-family="Times,serif" font-size="14.00">0..6 r</text>
<text text-anchor="middle" x="116.482" y="-41.8109" font-family="Times,serif" font-size="14.00">1 </text>
</g>
<!-- Person -->
<g id="node4" class="node"><title>Person</title>
<g id="a_node4"><a xlink:href="javascript:Action.selectClass(&quot;Person&quot;);" xlink:title="class Person
">
<text text-anchor="start" x="134" y="-184.3" font-family="Times,serif" font-size="14.00"> &#160;&#160;&#160;Person &#160;&#160;&#160;</text>
</a>
</g>
<g id="a_node4_1"><a xlink:href="javascript:Action.selectClass(&quot;Person&quot;);" xlink:title="String name">
<text text-anchor="start" x="122" y="-162.8" font-family="Times,serif" font-size="14.00"> &#160;name : String &#160;</text>
</a>
</g>
<g><a xlink:href="javascript:Action.selectClass(&quot;Person&quot;);" xlink:title="class Person
">
<polygon fill="black" stroke="black" points="119,-176 119,-176 216,-176 216,-176 119,-176"/>
<polygon fill="none" stroke="black" points="118.5,-156.5 118.5,-201.5 215.5,-201.5 215.5,-156.5 118.5,-156.5"/>
</a>
</g>
</g>
<!-- Room&#45;&gt;Person -->
<g id="edge3" class="edge"><title>Room&#45;&gt;Person</title>
<g id="a_edge3"><a xlink:title="Room 1 r &#45;&#45; * p Person">
<path fill="none" stroke="black" d="M167,-119.86C167,-131.241 167,-145.107 167,-156.443"/>
</a>
</g>
<text text-anchor="middle" x="158" y="-145.243" font-family="Times,serif" font-size="14.00">* p</text>
<text text-anchor="middle" x="159" y="-123.66" font-family="Times,serif" font-size="14.00">1 r</text>
</g>
<!-- Vehicle -->
<g id="node5" class="node"><title>Vehicle</title>
<g id="a_node5"><a xlink:href="javascript:Action.selectClass(&quot;Vehicle&quot;);" xlink:title="class Vehicle
">
<text text-anchor="start" x="130.5" y="-253.3" font-family="Times,serif" font-size="14.00"> &#160;&#160;&#160;Vehicle &#160;&#160;&#160;</text>
<polygon fill="none" stroke="black" points="119,-238 119,-276 215,-276 215,-238 119,-238"/>
</a>
</g>
</g>
<!-- Person&#45;&gt;Vehicle -->
<g id="edge4" class="edge"><title>Person&#45;&gt;Vehicle</title>
<g id="a_edge4"><a xlink:title="Person 1 p &#45;&#45; 1..2 v Vehicle">
<path fill="none" stroke="black" d="M167,-201.575C167,-212.985 167,-226.842 167,-237.718"/>
</a>
</g>
<text text-anchor="middle" x="151" y="-226.518" font-family="Times,serif" font-size="14.00">1..2 v</text>
<text text-anchor="middle" x="158" y="-205.375" font-family="Times,serif" font-size="14.00">1 p</text>
</g>
<!-- Wheel -->
<g id="node6" class="node"><title>Wheel</title>
<g id="a_node6"><a xlink:href="javascript:Action.selectClass(&quot;Wheel&quot;);" xlink:title="class Wheel
">
<text text-anchor="start" x="133.5" y="-327.3" font-family="Times,serif" font-size="14.00"> &#160;&#160;&#160;Wheel &#160;&#160;&#160;</text>
<polygon fill="none" stroke="black" points="122,-312 122,-350 212,-350 212,-312 122,-312"/>
</a>
</g>
</g>
<!-- Vehicle&#45;&gt;Wheel -->
<g id="edge5" class="edge"><title>Vehicle&#45;&gt;Wheel</title>
<g id="a_edge5"><a xlink:title="Vehicle 0..1 v &#45;&lt;@&gt; 4 w Wheel">
<path fill="none" stroke="black" d="M167,-276.169C167,-283.192 167,-291.427 167,-299.314"/>
<polygon fill="black" stroke="black" points="167,-299.587 171,-305.587 167,-311.587 163,-305.587 167,-299.587"/>
</a>
</g>
<text text-anchor="middle" x="156.5" y="-300.387" font-family="Times,serif" font-size="14.00">4 w</text>
<text text-anchor="middle" x="151" y="-279.969" font-family="Times,serif" font-size="14.00">0..1 v</text>
</g>
</g>
</svg>
