<?xml version="1.0" encoding="UTF-8" standalone="no"?>
<!DOCTYPE svg PUBLIC "-//W3C//DTD SVG 1.1//EN"
 "http://www.w3.org/Graphics/SVG/1.1/DTD/svg11.dtd">
<!-- Generated by graphviz version 2.30.0 (20130114.0340)
 -->
<!-- Title: model Pages: 1 -->
<svg width="195pt" height="310pt"
 viewBox="0.00 0.00 223.00 354.00" xmlns="http://www.w3.org/2000/svg" xmlns:xlink="http://www.w3.org/1999/xlink">
<g id="graph0" class="graph" transform="scale(0.875 0.875) rotate(0) translate(4 350)">
<title>model</title>
<polygon fill="white" stroke="white" points="-4,5 -4,-350 220,-350 220,5 -4,5"/>
<!-- Building -->
<g id="node1" class="node"><title>Building</title>
<g id="a_node1"><a xlink:href="javascript:Action.selectClass(&quot;Building&quot;);" xlink:title="class Building
Positioning&#13;">
<text text-anchor="start" x="11.5" y="-90.9" font-family="Times,serif" font-size="14.00"> &#160;&#160;&#160;Building &#160;&#160;&#160;</text>
<polygon fill="none" stroke="black" points="0,-77.5 0,-114.5 100,-114.5 100,-77.5 0,-77.5"/>
</a>
</g>
</g>
<!-- Floor -->
<g id="node2" class="node"><title>Floor</title>
<g id="a_node2"><a xlink:href="javascript:Action.selectClass(&quot;Floor&quot;);" xlink:title="class Floor
deleting a building deletes all its floors&#13;also, deleting a floor delete all its rooms&#13;">
<text text-anchor="start" x="79.5" y="-13.9" font-family="Times,serif" font-size="14.00"> &#160;&#160;&#160;Floor &#160;&#160;&#160;</text>
<polygon fill="none" stroke="black" points="67.5,-0.5 67.5,-37.5 148.5,-37.5 148.5,-0.5 67.5,-0.5"/>
</a>
</g>
</g>
<!-- Floor&#45;&gt;Building -->
<g id="edge1" class="edge"><title>Floor&#45;&gt;Building</title>
<g id="a_edge1"><a xlink:title="Floor 4..10 &#160;&#45;&lt;@&gt; 1 b Building">
<path fill="none" stroke="black" d="M94.2548,-37.774C87.3206,-46.7407 78.7596,-57.8109 71.0207,-67.8181"/>
<polygon fill="black" stroke="black" points="70.9875,-67.861 70.4813,-75.0543 63.6465,-77.3536 64.1528,-70.1603 70.9875,-67.861"/>
</a>
</g>
<text text-anchor="middle" x="54.8965" y="-64.7536" font-family="Times,serif" font-size="14.00">1 b</text>
<text text-anchor="middle" x="78.5048" y="-41.974" font-family="Times,serif" font-size="14.00">4..10 </text>
</g>
<!-- Room -->
<g id="node3" class="node"><title>Room</title>
<g id="a_node3"><a xlink:href="javascript:Action.selectClass(&quot;Room&quot;);" xlink:title="class Room
">
<text text-anchor="start" x="136.5" y="-99.9" font-family="Times,serif" font-size="14.00"> &#160;&#160;&#160;Room &#160;&#160;&#160;</text>
</a>
</g>
<g id="a_node3_0"><a xlink:href="javascript:Action.selectClass(&quot;Room&quot;);" xlink:title="int windows">
<text text-anchor="start" x="122" y="-79.4" font-family="Times,serif" font-size="14.00"> &#160;windows : int &#160;</text>
</a>
</g>
<g><a xlink:href="javascript:Action.selectClass(&quot;Room&quot;);" xlink:title="class Room
">
<polygon fill="black" stroke="black" points="119,-93 119,-93 216,-93 216,-93 119,-93"/>
<polygon fill="none" stroke="black" points="118.5,-74.5 118.5,-117.5 215.5,-117.5 215.5,-74.5 118.5,-74.5"/>
</a>
</g>
</g>
<!-- Floor&#45;&gt;Room -->
<g id="edge2" class="edge"><title>Floor&#45;&gt;Room</title>
<g id="a_edge2"><a xlink:title="Floor 1 &#160;&lt;@&gt;&#45; 0..6 r Room">
<path fill="none" stroke="black" d="M129.547,-47.3903C136.576,-56.3251 144.255,-66.0873 150.821,-74.4331"/>
<polygon fill="black" stroke="black" points="129.402,-47.2054 122.548,-44.9628 121.982,-37.774 128.836,-40.0165 129.402,-47.2054"/>
</a>
</g>
<text text-anchor="middle" x="136.24" y="-61.8331" font-family="Times,serif" font-size="14.00">0..6 r</text>
<text text-anchor="middle" x="116.732" y="-41.974" font-family="Times,serif" font-size="14.00">1 </text>
</g>
<!-- Person -->
<g id="node4" class="node"><title>Person</title>
<g id="a_node4"><a xlink:href="javascript:Action.selectClass(&quot;Person&quot;);" xlink:title="class Person
">
<text text-anchor="start" x="134" y="-179.9" font-family="Times,serif" font-size="14.00"> &#160;&#160;&#160;Person &#160;&#160;&#160;</text>
</a>
</g>
<g id="a_node4_1"><a xlink:href="javascript:Action.selectClass(&quot;Person&quot;);" xlink:title="String name">
<text text-anchor="start" x="122" y="-159.4" font-family="Times,serif" font-size="14.00"> &#160;name : String &#160;</text>
</a>
</g>
<g><a xlink:href="javascript:Action.selectClass(&quot;Person&quot;);" xlink:title="class Person
">
<polygon fill="black" stroke="black" points="119,-173 119,-173 215,-173 215,-173 119,-173"/>
<polygon fill="none" stroke="black" points="119,-154.5 119,-197.5 215,-197.5 215,-154.5 119,-154.5"/>
</a>
</g>
</g>
<!-- Room&#45;&gt;Person -->
<g id="edge3" class="edge"><title>Room&#45;&gt;Person</title>
<g id="a_edge3"><a xlink:title="Room 1 r &#45;&#45; * p Person">
<path fill="none" stroke="black" d="M167,-117.903C167,-129.184 167,-143.062 167,-154.31"/>
</a>
</g>
<text text-anchor="middle" x="158.25" y="-141.71" font-family="Times,serif" font-size="14.00">* p</text>
<text text-anchor="middle" x="159.42" y="-122.103" font-family="Times,serif" font-size="14.00">1 r</text>
</g>
<!-- Vehicle -->
<g id="node5" class="node"><title>Vehicle</title>
<g id="a_node5"><a xlink:href="javascript:Action.selectClass(&quot;Vehicle&quot;);" xlink:title="class Vehicle
">
<text text-anchor="start" x="131.5" y="-247.9" font-family="Times,serif" font-size="14.00"> &#160;&#160;&#160;Vehicle &#160;&#160;&#160;</text>
<polygon fill="none" stroke="black" points="120,-234.5 120,-271.5 214,-271.5 214,-234.5 120,-234.5"/>
</a>
</g>
</g>
<!-- Person&#45;&gt;Vehicle -->
<g id="edge4" class="edge"><title>Person&#45;&gt;Vehicle</title>
<g id="a_edge4"><a xlink:title="Person 1 p &#45;&#45; 1..2 v Vehicle">
<path fill="none" stroke="black" d="M167,-197.892C167,-209.334 167,-223.363 167,-234.268"/>
</a>
</g>
<text text-anchor="middle" x="151.25" y="-221.668" font-family="Times,serif" font-size="14.00">1..2 v</text>
<text text-anchor="middle" x="158.25" y="-202.092" font-family="Times,serif" font-size="14.00">1 p</text>
</g>
<!-- Wheel -->
<g id="node6" class="node"><title>Wheel</title>
<g id="a_node6"><a xlink:href="javascript:Action.selectClass(&quot;Wheel&quot;);" xlink:title="class Wheel
">
<text text-anchor="start" x="135.5" y="-321.9" font-family="Times,serif" font-size="14.00"> &#160;&#160;&#160;Wheel &#160;&#160;&#160;</text>
<polygon fill="none" stroke="black" points="123.5,-308.5 123.5,-345.5 210.5,-345.5 210.5,-308.5 123.5,-308.5"/>
</a>
</g>
</g>
<!-- Vehicle&#45;&gt;Wheel -->
<g id="edge5" class="edge"><title>Vehicle&#45;&gt;Wheel</title>
<g id="a_edge5"><a xlink:title="Vehicle 0..1 v &lt;@&gt;&#45; 4 w Wheel">
<path fill="none" stroke="black" d="M167,-283.876C167,-292.223 167,-301.022 167,-308.407"/>
<polygon fill="black" stroke="black" points="167,-283.798 163,-277.798 167,-271.798 171,-277.798 167,-283.798"/>
</a>
</g>
<text text-anchor="middle" x="156.697" y="-295.807" font-family="Times,serif" font-size="14.00">4 w</text>
<text text-anchor="middle" x="151.25" y="-275.998" font-family="Times,serif" font-size="14.00">0..1 v</text>
</g>
</g>
</svg>
