<?xml version="1.0" encoding="UTF-8" standalone="no"?>
<!DOCTYPE svg PUBLIC "-//W3C//DTD SVG 1.1//EN"
 "http://www.w3.org/Graphics/SVG/1.1/DTD/svg11.dtd">
<!-- Generated by graphviz version 2.40.1 (20161225.0304)
 -->
<!-- Title: CoOpSystem Pages: 1 -->
<svg width="540pt" height="452pt"
 viewBox="0.00 0.00 539.89 452.00" xmlns="http://www.w3.org/2000/svg" xmlns:xlink="http://www.w3.org/1999/xlink">
<g id="graph0" class="graph" transform="scale(1 1) rotate(0) translate(4 448)">
<title>CoOpSystem</title>
<polygon fill="#ffffff" stroke="transparent" points="-4,4 -4,-448 535.8873,-448 535.8873,4 -4,4"/>
<!-- Program -->
<g id="node1" class="node">
<title>Program</title>
<g id="a_node1"><a xlink:href="javascript:Action.selectClass(&quot;Program&quot;);" xlink:title="class Program&#10;UML class diagram in Umple showing the data managed by&#13;a co&#45;operative education system that has to place students with employers&#13;">
<text text-anchor="start" x="264.2804" y="-235.8" font-family="Times,serif" font-size="14.00" fill="#000000"> &#160;&#160;&#160;Program &#160;&#160;&#160;</text>
<g id="a_node1_0"><a xlink:href="javascript:Action.selectClass(&quot;Program&quot;);" xlink:title="String name&#13;">
<text text-anchor="start" x="257.6701" y="-215.8" font-family="Times,serif" font-size="14.00" fill="#000000"> &#160;name : String &#160;</text>
</a>
</g>
<polygon fill="#000000" stroke="#000000" points="254.8873,-229 254.8873,-229 349.8873,-229 349.8873,-229 254.8873,-229"/>
<polygon fill="none" stroke="#000000" points="254.3873,-210 254.3873,-252 349.3873,-252 349.3873,-210 254.3873,-210"/>
</a>
</g>
</g>
<!-- Student -->
<g id="node7" class="node">
<title>Student</title>
<g id="a_node7"><a xlink:href="javascript:Action.selectClass(&quot;Student&quot;);" xlink:title="class Student&#10;">
<text text-anchor="start" x="239.9977" y="-313.8" font-family="Times,serif" font-size="14.00" fill="#000000"> &#160;&#160;&#160;Student &#160;&#160;&#160;</text>
<g id="a_node7_1"><a xlink:href="javascript:Action.selectClass(&quot;Student&quot;);" xlink:title="Integer stNum&#13;">
<text text-anchor="start" x="224.4528" y="-293.8" font-family="Times,serif" font-size="14.00" fill="#000000"> &#160;stNum : Integer &#160;</text>
</a>
</g>
<polygon fill="#000000" stroke="#000000" points="221.8873,-307 221.8873,-307 328.8873,-307 328.8873,-307 221.8873,-307"/>
<polygon fill="none" stroke="#000000" points="221.3873,-288 221.3873,-330 328.3873,-330 328.3873,-288 221.3873,-288"/>
</a>
</g>
</g>
<!-- Program&#45;&gt;Student -->
<g id="edge1" class="edge">
<title>Program&#45;&gt;Student</title>
<g id="a_edge1"><a xlink:title="Program 1..* &#160;&#45;&#45; * &#160;Student">
<path fill="none" stroke="#000000" d="M294.5095,-252.3138C290.6685,-263.41 285.9887,-276.9294 282.1628,-287.982"/>
</a>
</g>
<text text-anchor="middle" x="276.9128" y="-276.782" font-family="Times,serif" font-size="14.00" fill="#000000">* </text>
<text text-anchor="middle" x="282.2595" y="-255.1138" font-family="Times,serif" font-size="14.00" fill="#000000">1..* </text>
</g>
<!-- Application -->
<g id="node2" class="node">
<title>Application</title>
<g id="a_node2"><a xlink:href="javascript:Action.selectClass(&quot;Application&quot;);" xlink:title="class Application&#10;">
<text text-anchor="start" x="156.7218" y="-16.8" font-family="Times,serif" font-size="14.00" fill="#000000"> &#160;&#160;&#160;Application &#160;&#160;&#160;</text>
<polygon fill="none" stroke="#000000" points="145.3873,-3 145.3873,-39 260.3873,-39 260.3873,-3 145.3873,-3"/>
</a>
</g>
</g>
<!-- Job -->
<g id="node3" class="node">
<title>Job</title>
<g id="a_node3"><a xlink:href="javascript:Action.selectClass(&quot;Job&quot;);" xlink:title="class Job&#10;">
<text text-anchor="start" x="57.6632" y="-157.8" font-family="Times,serif" font-size="14.00" fill="#000000"> &#160;&#160;&#160;Job &#160;&#160;&#160;</text>
<g id="a_node3_2"><a xlink:href="javascript:Action.selectClass(&quot;Job&quot;);" xlink:title="String description&#13;">
<text text-anchor="start" x="20.7252" y="-137.8" font-family="Times,serif" font-size="14.00" fill="#000000"> &#160;description : String &#160;</text>
</a>
</g>
<g id="a_node3_3"><a xlink:href="javascript:Action.selectClass(&quot;Job&quot;);" xlink:title="String location&#13;">
<text text-anchor="start" x="20.8873" y="-119.8" font-family="Times,serif" font-size="14.00" fill="#000000"> &#160;location : String &#160;</text>
</a>
</g>
<g id="a_node3_4"><a xlink:href="javascript:Action.selectClass(&quot;Job&quot;);" xlink:title="Date startDate&#13;">
<text text-anchor="start" x="20.8873" y="-101.8" font-family="Times,serif" font-size="14.00" fill="#000000"> &#160;startDate : Date &#160;</text>
</a>
</g>
<g id="a_node3_5"><a xlink:href="javascript:Action.selectClass(&quot;Job&quot;);" xlink:title="Date endDate&#13;">
<text text-anchor="start" x="20.8873" y="-83.8" font-family="Times,serif" font-size="14.00" fill="#000000"> &#160;endDate : Date &#160;</text>
</a>
</g>
<polygon fill="#000000" stroke="#000000" points="17.8873,-151 17.8873,-151 144.8873,-151 144.8873,-151 17.8873,-151"/>
<polygon fill="none" stroke="#000000" points="17.3873,-78 17.3873,-174 144.3873,-174 144.3873,-78 17.3873,-78"/>
</a>
</g>
</g>
<!-- Application&#45;&gt;Job -->
<g id="edge3" class="edge">
<title>Application&#45;&gt;Job</title>
<g id="a_edge3"><a xlink:title="Application * &#160;&#45;&#45; 1 &#160;Job">
<path fill="none" stroke="#000000" d="M181.9148,-39.0501C169.3792,-49.839 152.8058,-64.1029 136.7158,-77.9509"/>
</a>
</g>
<text text-anchor="middle" x="131.4658" y="-66.7509" font-family="Times,serif" font-size="14.00" fill="#000000">1 </text>
<text text-anchor="middle" x="176.6648" y="-41.8501" font-family="Times,serif" font-size="14.00" fill="#000000">* </text>
</g>
<!-- Interview -->
<g id="node5" class="node">
<title>Interview</title>
<g id="a_node5"><a xlink:href="javascript:Action.selectClass(&quot;Interview&quot;);" xlink:title="class Interview&#10;">
<text text-anchor="start" x="81.0665" y="-313.8" font-family="Times,serif" font-size="14.00" fill="#000000"> &#160;&#160;&#160;Interview &#160;&#160;&#160;</text>
<g id="a_node5_6"><a xlink:href="javascript:Action.selectClass(&quot;Interview&quot;);" xlink:title="String location&#13;">
<text text-anchor="start" x="69.7804" y="-293.8" font-family="Times,serif" font-size="14.00" fill="#000000"> &#160;location : String &#160;</text>
</a>
</g>
<polygon fill="#000000" stroke="#000000" points="66.8873,-307 66.8873,-307 176.8873,-307 176.8873,-307 66.8873,-307"/>
<polygon fill="none" stroke="#000000" points="66.8873,-288 66.8873,-330 176.8873,-330 176.8873,-288 66.8873,-288"/>
</a>
</g>
</g>
<!-- Application&#45;&gt;Interview -->
<g id="edge4" class="edge">
<title>Application&#45;&gt;Interview</title>
<g id="a_edge4"><a xlink:title="Application 1..* &#160;&#45;&#45; 0..1 &#160;Interview">
<path fill="none" stroke="#000000" d="M196.919,-39.3815C187.5787,-68.121 168.9159,-125.4376 152.8873,-174 147.6012,-190.0156 145.1527,-193.6828 140.8873,-210 133.9383,-236.5836 128.3665,-267.796 125.0963,-287.9613"/>
</a>
</g>
<text text-anchor="middle" x="112.8463" y="-276.7613" font-family="Times,serif" font-size="14.00" fill="#000000">0..1 </text>
<text text-anchor="middle" x="209.169" y="-42.1815" font-family="Times,serif" font-size="14.00" fill="#000000">1..* </text>
</g>
<!-- Application&#45;&gt;Student -->
<g id="edge2" class="edge">
<title>Application&#45;&gt;Student</title>
<g id="a_edge2"><a xlink:title="Application * &#160;&#45;&#45; 1 &#160;Student">
<path fill="none" stroke="#000000" d="M225.791,-39.2082C262.2763,-69.8563 332.1945,-135.728 358.8873,-210 365.2007,-227.5666 367.6278,-235.5061 358.8873,-252 350.8827,-267.1053 336.8842,-278.9471 322.5833,-287.8299"/>
</a>
</g>
<text text-anchor="middle" x="317.3333" y="-276.6299" font-family="Times,serif" font-size="14.00" fill="#000000">1 </text>
<text text-anchor="middle" x="231.041" y="-42.0082" font-family="Times,serif" font-size="14.00" fill="#000000">* </text>
</g>
<!-- Offer -->
<g id="node10" class="node">
<title>Offer</title>
<g id="a_node10"><a xlink:href="javascript:Action.selectClass(&quot;Offer&quot;);" xlink:title="class Offer&#10;">
<text text-anchor="start" x="439.8551" y="-139.8" font-family="Times,serif" font-size="14.00" fill="#000000"> &#160;&#160;&#160;Offer &#160;&#160;&#160;</text>
<g id="a_node10_7"><a xlink:href="javascript:Action.selectClass(&quot;Offer&quot;);" xlink:title="String ranking&#13;">
<text text-anchor="start" x="408.8873" y="-119.8" font-family="Times,serif" font-size="14.00" fill="#000000"> &#160;ranking : String &#160;</text>
</a>
</g>
<g id="a_node10_8"><a xlink:href="javascript:Action.selectClass(&quot;Offer&quot;);" xlink:title="Boolean accepted&#13;">
<text text-anchor="start" x="408.6354" y="-101.8" font-family="Times,serif" font-size="14.00" fill="#000000"> &#160;accepted : Boolean &#160;</text>
</a>
</g>
<polygon fill="#000000" stroke="#000000" points="405.8873,-133 405.8873,-133 531.8873,-133 531.8873,-133 405.8873,-133"/>
<polygon fill="none" stroke="#000000" points="405.8873,-96 405.8873,-156 531.8873,-156 531.8873,-96 405.8873,-96"/>
</a>
</g>
</g>
<!-- Application&#45;&gt;Offer -->
<g id="edge5" class="edge">
<title>Application&#45;&gt;Offer</title>
<g id="a_edge5"><a xlink:title="Application 1 &#160;&#45;&#45; 0..1 &#160;Offer">
<path fill="none" stroke="#000000" d="M260.5504,-34.1584C298.7398,-43.889 349.4269,-58.7743 391.8873,-78 402.937,-83.0032 414.3058,-89.3392 424.802,-95.7536"/>
</a>
</g>
<text text-anchor="middle" x="412.552" y="-84.5536" font-family="Times,serif" font-size="14.00" fill="#000000">0..1 </text>
<text text-anchor="middle" x="265.8004" y="-22.9584" font-family="Times,serif" font-size="14.00" fill="#000000">1 </text>
</g>
<!-- Job&#45;&gt;Program -->
<g id="edge6" class="edge">
<title>Job&#45;&gt;Program</title>
<g id="a_edge6"><a xlink:title="Job * &#160;&#45;&#45; 1..* &#160;Program">
<path fill="none" stroke="#000000" d="M144.5132,-156.2295C180.7275,-173.4354 225.1872,-194.5587 257.6026,-209.9598"/>
</a>
</g>
<text text-anchor="middle" x="245.3526" y="-198.7598" font-family="Times,serif" font-size="14.00" fill="#000000">1..* </text>
<text text-anchor="middle" x="149.7632" y="-145.0295" font-family="Times,serif" font-size="14.00" fill="#000000">* </text>
</g>
<!-- Employer -->
<g id="node4" class="node">
<title>Employer</title>
<g id="a_node4"><a xlink:href="javascript:Action.selectClass(&quot;Employer&quot;);" xlink:title="class Employer&#10;">
<text text-anchor="start" x="8.7838" y="-25.8" font-family="Times,serif" font-size="14.00" fill="#000000"> &#160;&#160;&#160;Employer &#160;&#160;&#160;</text>
<g id="a_node4_9"><a xlink:href="javascript:Action.selectClass(&quot;Employer&quot;);" xlink:title="String name&#13;">
<text text-anchor="start" x="5.6701" y="-5.8" font-family="Times,serif" font-size="14.00" fill="#000000"> &#160;name : String &#160;</text>
</a>
</g>
<polygon fill="#000000" stroke="#000000" points="2.8873,-19 2.8873,-19 97.8873,-19 97.8873,-19 2.8873,-19"/>
<polygon fill="none" stroke="#000000" points="2.3873,0 2.3873,-42 97.3873,-42 97.3873,0 2.3873,0"/>
</a>
</g>
</g>
<!-- Employer&#45;&gt;Job -->
<g id="edge7" class="edge">
<title>Employer&#45;&gt;Job</title>
<g id="a_edge7"><a xlink:title="Employer 1 &#160;&#45;&#45; * &#160;Job">
<path fill="none" stroke="#000000" d="M56.1607,-42.2483C59.2037,-52.5553 62.9927,-65.389 66.683,-77.8886"/>
</a>
</g>
<text text-anchor="middle" x="61.433" y="-66.6886" font-family="Times,serif" font-size="14.00" fill="#000000">* </text>
<text text-anchor="middle" x="50.9107" y="-45.0483" font-family="Times,serif" font-size="14.00" fill="#000000">1 </text>
</g>
<!-- TimeSlot -->
<g id="node6" class="node">
<title>TimeSlot</title>
<g id="a_node6"><a xlink:href="javascript:Action.selectClass(&quot;TimeSlot&quot;);" xlink:title="class TimeSlot&#10;">
<text text-anchor="start" x="82.1979" y="-427.8" font-family="Times,serif" font-size="14.00" fill="#000000"> &#160;&#160;&#160;TimeSlot &#160;&#160;&#160;</text>
<g id="a_node6_10"><a xlink:href="javascript:Action.selectClass(&quot;TimeSlot&quot;);" xlink:title="String startTime&#13;">
<text text-anchor="start" x="65.7472" y="-407.8" font-family="Times,serif" font-size="14.00" fill="#000000"> &#160;startTime : String &#160;</text>
</a>
</g>
<g id="a_node6_11"><a xlink:href="javascript:Action.selectClass(&quot;TimeSlot&quot;);" xlink:title="String endTime&#13;">
<text text-anchor="start" x="65.8873" y="-389.8" font-family="Times,serif" font-size="14.00" fill="#000000"> &#160;endTime : String &#160;</text>
</a>
</g>
<g id="a_node6_12"><a xlink:href="javascript:Action.selectClass(&quot;TimeSlot&quot;);" xlink:title="String status&#13;">
<text text-anchor="start" x="65.8873" y="-371.8" font-family="Times,serif" font-size="14.00" fill="#000000"> &#160;status : String &#160;</text>
</a>
</g>
<polygon fill="#000000" stroke="#000000" points="62.8873,-421 62.8873,-421 180.8873,-421 180.8873,-421 62.8873,-421"/>
<polygon fill="none" stroke="#000000" points="62.8873,-366 62.8873,-444 180.8873,-444 180.8873,-366 62.8873,-366"/>
</a>
</g>
</g>
<!-- Employer&#45;&gt;TimeSlot -->
<g id="edge8" class="edge">
<title>Employer&#45;&gt;TimeSlot</title>
<g id="a_edge8"><a xlink:title="Employer 0..1 &#160;&#45;&gt; * &#160;TimeSlot">
<path fill="none" stroke="#000000" d="M29.2722,-42.1345C20.9153,-52.152 12.2239,-64.8042 7.8873,-78 -5.4334,-118.534 1.2969,-131.8454 7.8873,-174 19.1334,-245.9337 22.4526,-266.3972 57.8873,-330 63.2451,-339.6168 69.95,-349.135 76.9871,-357.9974"/>
<polygon fill="#000000" stroke="#000000" points="83.5141,-365.9359 73.6872,-361.0694 80.3386,-362.0737 77.1631,-358.2115 77.1631,-358.2115 77.1631,-358.2115 80.3386,-362.0737 80.6391,-355.3536 83.5141,-365.9359 83.5141,-365.9359"/>
</a>
</g>
<text text-anchor="middle" x="78.2641" y="-354.7359" font-family="Times,serif" font-size="14.00" fill="#000000">* </text>
<text text-anchor="middle" x="17.0222" y="-44.9345" font-family="Times,serif" font-size="14.00" fill="#000000">0..1 </text>
</g>
<!-- Interview&#45;&gt;TimeSlot -->
<g id="edge9" class="edge">
<title>Interview&#45;&gt;TimeSlot</title>
<g id="a_edge9"><a xlink:title="Interview 0..1 &#160;&#45;&gt; 0..1 &#160;TimeSlot">
<path fill="none" stroke="#000000" d="M121.8873,-330.3055C121.8873,-337.9311 121.8873,-346.8746 121.8873,-355.8711"/>
<polygon fill="#000000" stroke="#000000" points="121.8873,-365.9834 117.3874,-355.9834 121.8874,-360.9834 121.8874,-355.9834 121.8874,-355.9834 121.8874,-355.9834 121.8874,-360.9834 126.3874,-355.9834 121.8873,-365.9834 121.8873,-365.9834"/>
</a>
</g>
<text text-anchor="middle" x="109.6373" y="-354.7834" font-family="Times,serif" font-size="14.00" fill="#000000">0..1 </text>
<text text-anchor="middle" x="109.6373" y="-333.1055" font-family="Times,serif" font-size="14.00" fill="#000000">0..1 </text>
</g>
<!-- Student&#45;&gt;TimeSlot -->
<g id="edge11" class="edge">
<title>Student&#45;&gt;TimeSlot</title>
<g id="a_edge11"><a xlink:title="Student 0..1 &#160;&#45;&gt; * &#160;TimeSlot">
<path fill="none" stroke="#000000" d="M241.3108,-330.0676C226.1163,-339.6015 207.5814,-351.2312 189.6895,-362.4575"/>
<polygon fill="#000000" stroke="#000000" points="180.9753,-367.9252 187.0542,-358.7985 185.2106,-365.2677 189.4459,-362.6102 189.4459,-362.6102 189.4459,-362.6102 185.2106,-365.2677 191.8377,-366.422 180.9753,-367.9252 180.9753,-367.9252"/>
</a>
</g>
<text text-anchor="middle" x="186.2253" y="-356.7252" font-family="Times,serif" font-size="14.00" fill="#000000">* </text>
<text text-anchor="middle" x="229.0608" y="-332.8676" font-family="Times,serif" font-size="14.00" fill="#000000">0..1 </text>
</g>
<!-- Transcript -->
<g id="node9" class="node">
<title>Transcript</title>
<g id="a_node9"><a xlink:href="javascript:Action.selectClass(&quot;Transcript&quot;);" xlink:title="class Transcript&#10;">
<text text-anchor="start" x="232.4874" y="-409.8" font-family="Times,serif" font-size="14.00" fill="#000000"> &#160;&#160;&#160;Transcript &#160;&#160;&#160;</text>
<g id="a_node9_13"><a xlink:href="javascript:Action.selectClass(&quot;Transcript&quot;);" xlink:title="String text&#13;">
<text text-anchor="start" x="230.8873" y="-389.8" font-family="Times,serif" font-size="14.00" fill="#000000"> &#160;text : String &#160;</text>
</a>
</g>
<polygon fill="#000000" stroke="#000000" points="227.8873,-403 227.8873,-403 321.8873,-403 321.8873,-403 227.8873,-403"/>
<polygon fill="none" stroke="#000000" points="227.8873,-384 227.8873,-426 321.8873,-426 321.8873,-384 227.8873,-384"/>
</a>
</g>
</g>
<!-- Student&#45;&gt;Transcript -->
<g id="edge10" class="edge">
<title>Student&#45;&gt;Transcript</title>
<g id="a_edge10"><a xlink:title="Student 1 &#160;&#45;&#45; 1 &#160;Transcript">
<path fill="none" stroke="#000000" d="M274.8873,-330.3055C274.8873,-346.2143 274.8873,-367.8595 274.8873,-383.754"/>
</a>
</g>
<text text-anchor="middle" x="269.6373" y="-372.554" font-family="Times,serif" font-size="14.00" fill="#000000">1 </text>
<text text-anchor="middle" x="269.6373" y="-333.1055" font-family="Times,serif" font-size="14.00" fill="#000000">1 </text>
</g>
<!-- Resume -->
<g id="node8" class="node">
<title>Resume</title>
<g id="a_node8"><a xlink:href="javascript:Action.selectClass(&quot;Resume&quot;);" xlink:title="class Resume&#10;">
<text text-anchor="start" x="156.3356" y="-235.8" font-family="Times,serif" font-size="14.00" fill="#000000"> &#160;&#160;&#160;Resume &#160;&#160;&#160;</text>
<g id="a_node8_14"><a xlink:href="javascript:Action.selectClass(&quot;Resume&quot;);" xlink:title="String text&#13;">
<text text-anchor="start" x="152.8322" y="-215.8" font-family="Times,serif" font-size="14.00" fill="#000000"> &#160;text : String &#160;</text>
</a>
</g>
<polygon fill="#000000" stroke="#000000" points="149.8873,-229 149.8873,-229 235.8873,-229 235.8873,-229 149.8873,-229"/>
<polygon fill="none" stroke="#000000" points="149.8873,-210 149.8873,-252 235.8873,-252 235.8873,-210 149.8873,-210"/>
</a>
</g>
</g>
<!-- Resume&#45;&gt;Student -->
<g id="edge12" class="edge">
<title>Resume&#45;&gt;Student</title>
<g id="a_edge12"><a xlink:title="Resume 0..1 &#160;&#45;&#45; 1 &#160;Student">
<path fill="none" stroke="#000000" d="M215.2942,-252.3138C226.9593,-263.41 241.1721,-276.9294 252.7915,-287.982"/>
</a>
</g>
<text text-anchor="middle" x="247.5415" y="-276.782" font-family="Times,serif" font-size="14.00" fill="#000000">1 </text>
<text text-anchor="middle" x="203.0442" y="-255.1138" font-family="Times,serif" font-size="14.00" fill="#000000">0..1 </text>
</g>
</g>
</svg>
