<?xml version="1.0" encoding="UTF-8" standalone="no"?>
<!DOCTYPE svg PUBLIC "-//W3C//DTD SVG 1.1//EN"
 "http://www.w3.org/Graphics/SVG/1.1/DTD/svg11.dtd">
<!-- Generated by graphviz version 2.39.20140502.0445 (20140502.0445)
 -->
<!-- Title: CoOpSystem Pages: 1 -->
<svg width="529pt" height="462pt"
 viewBox="0.00 0.00 529.00 462.00" xmlns="http://www.w3.org/2000/svg" xmlns:xlink="http://www.w3.org/1999/xlink">
<g id="graph0" class="graph" transform="scale(1 1) rotate(0) translate(4 458)">
<title>CoOpSystem</title>
<polygon fill="white" stroke="none" points="-4,4 -4,-458 524.996,-458 524.996,4 -4,4"/>
<!-- Program -->
<g id="node1" class="node"><title>Program</title>
<g id="a_node1"><a xlink:href="javascript:Action.selectClass(&quot;Program&quot;);" xlink:title="class Program
UML class diagram in Umple showing the data managed by
a co&#45;operative education system that has to place students with employers
">
<polygon fill="none" stroke="black" points="249.496,-211.5 249.496,-257.5 341.496,-257.5 341.496,-211.5 249.496,-211.5"/>
<text text-anchor="middle" x="295.496" y="-242.3" font-family="Times,serif" font-size="14.00">Program</text>
<polyline fill="none" stroke="black" points="249.496,-234.5 341.496,-234.5 "/>
<text text-anchor="start" x="257.496" y="-219.3" font-family="Times,serif" font-size="14.00">name : String</text>
</a>
</g>
</g>
<!-- Student -->
<g id="node7" class="node"><title>Student</title>
<g id="a_node7"><a xlink:href="javascript:Action.selectClass(&quot;Student&quot;);" xlink:title="class Student
">
<polygon fill="none" stroke="black" points="217.496,-294.5 217.496,-340.5 321.496,-340.5 321.496,-294.5 217.496,-294.5"/>
<text text-anchor="middle" x="269.496" y="-325.3" font-family="Times,serif" font-size="14.00">Student</text>
<polyline fill="none" stroke="black" points="217.496,-317.5 321.496,-317.5 "/>
<text text-anchor="start" x="225.496" y="-302.3" font-family="Times,serif" font-size="14.00">stNum : Integer</text>
</a>
</g>
</g>
<!-- Program&#45;&gt;Student -->
<g id="edge1" class="edge"><title>Program&#45;&gt;Student</title>
<g id="a_edge1"><a xlink:title="Program 1..* &#160;&#45;&#45; * &#160;Student">
<path fill="none" stroke="black" d="M276.592,-294.393 280.259,-282.968 284.723,-269.063 288.391,-257.634"/>
</a>
</g>
<text text-anchor="middle" x="271.092" y="-283.193" font-family="Times,serif" font-size="14.00">* </text>
<text text-anchor="middle" x="275.891" y="-261.434" font-family="Times,serif" font-size="14.00">1..* </text>
</g>
<!-- Application -->
<g id="node2" class="node"><title>Application</title>
<g id="a_node2"><a xlink:href="javascript:Action.selectClass(&quot;Application&quot;);" xlink:title="class Application
">
<polygon fill="none" stroke="black" points="152.996,-5.5 152.996,-41.5 235.996,-41.5 235.996,-5.5 152.996,-5.5"/>
<text text-anchor="middle" x="194.496" y="-19.8" font-family="Times,serif" font-size="14.00">Application</text>
</a>
</g>
</g>
<!-- Job -->
<g id="node3" class="node"><title>Job</title>
<g id="a_node3"><a xlink:href="javascript:Action.selectClass(&quot;Job&quot;);" xlink:title="class Job
">
<polygon fill="none" stroke="black" points="16.4961,-83.5 16.4961,-174.5 140.496,-174.5 140.496,-83.5 16.4961,-83.5"/>
<text text-anchor="middle" x="78.4961" y="-159.3" font-family="Times,serif" font-size="14.00">Job</text>
<polyline fill="none" stroke="black" points="16.4961,-151.5 140.496,-151.5 "/>
<text text-anchor="start" x="24.4961" y="-136.3" font-family="Times,serif" font-size="14.00">description : String</text>
<text text-anchor="start" x="24.4961" y="-121.3" font-family="Times,serif" font-size="14.00">location : String</text>
<text text-anchor="start" x="24.4961" y="-106.3" font-family="Times,serif" font-size="14.00">startDate : Date</text>
<text text-anchor="start" x="24.4961" y="-91.3" font-family="Times,serif" font-size="14.00">endDate : Date</text>
</a>
</g>
</g>
<!-- Application&#45;&gt;Job -->
<g id="edge3" class="edge"><title>Application&#45;&gt;Job</title>
<g id="a_edge3"><a xlink:title="Application * &#160;&#45;&#45; 1 &#160;Job">
<path fill="none" stroke="black" d="M128.466,-83.4144 145.054,-68.6141 162.535,-53.0167 175.341,-41.5909"/>
</a>
</g>
<text text-anchor="middle" x="122.966" y="-72.2144" font-family="Times,serif" font-size="14.00">1 </text>
<text text-anchor="middle" x="169.841" y="-45.3909" font-family="Times,serif" font-size="14.00">* </text>
</g>
<!-- Interview -->
<g id="node5" class="node"><title>Interview</title>
<g id="a_node5"><a xlink:href="javascript:Action.selectClass(&quot;Interview&quot;);" xlink:title="class Interview
">
<polygon fill="none" stroke="black" points="65.9961,-294.5 65.9961,-340.5 172.996,-340.5 172.996,-294.5 65.9961,-294.5"/>
<text text-anchor="middle" x="119.496" y="-325.3" font-family="Times,serif" font-size="14.00">Interview</text>
<polyline fill="none" stroke="black" points="65.9961,-317.5 172.996,-317.5 "/>
<text text-anchor="start" x="73.9961" y="-302.3" font-family="Times,serif" font-size="14.00">location : String</text>
</a>
</g>
</g>
<!-- Application&#45;&gt;Interview -->
<g id="edge4" class="edge"><title>Application&#45;&gt;Interview</title>
<g id="a_edge4"><a xlink:title="Application 1..* &#160;&#45;&#45; 0..1 &#160;Interview">
<path fill="none" stroke="black" d="M122.74,-294.112 126.036,-272.645 131.626,-239.399 138.496,-211 142.43,-194.739 144.655,-191.015 149.496,-175 164.094,-126.706 181.094,-69.616 189.401,-41.6636"/>
</a>
</g>
<text text-anchor="middle" x="110.24" y="-282.912" font-family="Times,serif" font-size="14.00">0..1 </text>
<text text-anchor="middle" x="201.901" y="-45.4636" font-family="Times,serif" font-size="14.00">1..* </text>
</g>
<!-- Application&#45;&gt;Student -->
<g id="edge2" class="edge"><title>Application&#45;&gt;Student</title>
<g id="a_edge2"><a xlink:title="Application * &#160;&#45;&#45; 1 &#160;Student">
<path fill="none" stroke="black" d="M216.514,-41.6718C252.734,-71.4895 323.556,-136.803 350.496,-211 357.625,-230.635 360.006,-239.401 350.496,-258 342.757,-273.136 329.073,-285.256 315.13,-294.452"/>
</a>
</g>
<text text-anchor="middle" x="320.63" y="-283.252" font-family="Times,serif" font-size="14.00">1 </text>
<text text-anchor="middle" x="222.014" y="-45.4718" font-family="Times,serif" font-size="14.00">* </text>
</g>
<!-- Offer -->
<g id="node10" class="node"><title>Offer</title>
<g id="a_node10"><a xlink:href="javascript:Action.selectClass(&quot;Offer&quot;);" xlink:title="class Offer
">
<polygon fill="none" stroke="black" points="397.996,-98.5 397.996,-159.5 520.996,-159.5 520.996,-98.5 397.996,-98.5"/>
<text text-anchor="middle" x="459.496" y="-144.3" font-family="Times,serif" font-size="14.00">Offer</text>
<polyline fill="none" stroke="black" points="397.996,-136.5 520.996,-136.5 "/>
<text text-anchor="start" x="405.996" y="-121.3" font-family="Times,serif" font-size="14.00">ranking : String</text>
<text text-anchor="start" x="405.996" y="-106.3" font-family="Times,serif" font-size="14.00">accepted : Boolean</text>
</a>
</g>
</g>
<!-- Application&#45;&gt;Offer -->
<g id="edge5" class="edge"><title>Application&#45;&gt;Offer</title>
<g id="a_edge5"><a xlink:title="Application 1 &#160;&#45;&#45; 0..1 &#160;Offer">
<path fill="none" stroke="black" d="M236.06,-34.3623C275.045,-44.3071 334.513,-61.2789 383.496,-83 393.449,-87.4133 403.726,-92.84 413.384,-98.3784"/>
</a>
</g>
<text text-anchor="middle" x="400.884" y="-87.1784" font-family="Times,serif" font-size="14.00">0..1 </text>
<text text-anchor="middle" x="241.56" y="-23.1623" font-family="Times,serif" font-size="14.00">1 </text>
</g>
<!-- Job&#45;&gt;Program -->
<g id="edge6" class="edge"><title>Job&#45;&gt;Program</title>
<g id="a_edge6"><a xlink:title="Job * &#160;&#45;&#45; 1..* &#160;Program">
<path fill="none" stroke="black" d="M140.68,-159.659C175.246,-176.146 217.533,-196.315 249.173,-211.406"/>
</a>
</g>
<text text-anchor="middle" x="236.673" y="-200.206" font-family="Times,serif" font-size="14.00">1..* </text>
<text text-anchor="middle" x="146.18" y="-148.459" font-family="Times,serif" font-size="14.00">* </text>
</g>
<!-- Employer -->
<g id="node4" class="node"><title>Employer</title>
<g id="a_node4"><a xlink:href="javascript:Action.selectClass(&quot;Employer&quot;);" xlink:title="class Employer
">
<polygon fill="none" stroke="black" points="5.49607,-0.5 5.49607,-46.5 97.4961,-46.5 97.4961,-0.5 5.49607,-0.5"/>
<text text-anchor="middle" x="51.4961" y="-31.3" font-family="Times,serif" font-size="14.00">Employer</text>
<polyline fill="none" stroke="black" points="5.49607,-23.5 97.4961,-23.5 "/>
<text text-anchor="start" x="13.4961" y="-8.3" font-family="Times,serif" font-size="14.00">name : String</text>
</a>
</g>
</g>
<!-- Employer&#45;&gt;Job -->
<g id="edge7" class="edge"><title>Employer&#45;&gt;Job</title>
<g id="a_edge7"><a xlink:title="Employer 1 &#160;&#45;&#45; * &#160;Job">
<path fill="none" stroke="black" d="M57.2882,-46.7033C60.0774,-57.395 63.5266,-70.617 66.8271,-83.2688"/>
</a>
</g>
<text text-anchor="middle" x="61.3271" y="-72.0688" font-family="Times,serif" font-size="14.00">* </text>
<text text-anchor="middle" x="51.7882" y="-50.5033" font-family="Times,serif" font-size="14.00">1 </text>
</g>
<!-- TimeSlot -->
<g id="node6" class="node"><title>TimeSlot</title>
<g id="a_node6"><a xlink:href="javascript:Action.selectClass(&quot;TimeSlot&quot;);" xlink:title="class TimeSlot
">
<polygon fill="none" stroke="black" points="61.9961,-377.5 61.9961,-453.5 176.996,-453.5 176.996,-377.5 61.9961,-377.5"/>
<text text-anchor="middle" x="119.496" y="-438.3" font-family="Times,serif" font-size="14.00">TimeSlot</text>
<polyline fill="none" stroke="black" points="61.9961,-430.5 176.996,-430.5 "/>
<text text-anchor="start" x="69.9961" y="-415.3" font-family="Times,serif" font-size="14.00">startTime : String</text>
<text text-anchor="start" x="69.9961" y="-400.3" font-family="Times,serif" font-size="14.00">endTime : String</text>
<text text-anchor="start" x="69.9961" y="-385.3" font-family="Times,serif" font-size="14.00">status : String</text>
</a>
</g>
</g>
<!-- Employer&#45;&gt;TimeSlot -->
<g id="edge8" class="edge"><title>Employer&#45;&gt;TimeSlot</title>
<g id="a_edge8"><a xlink:title="Employer 0..1 &#160;&#45;&gt; * &#160;TimeSlot">
<path fill="none" stroke="black" d="M29.4411,-46.666C20.8318,-56.8455 11.966,-69.6207 7.49607,-83 -5.46063,-121.782 1.64803,-134.531 7.49607,-175 18.4981,-251.134 19.763,-273.412 56.4961,-341 61.8963,-350.936 68.8102,-360.727 76.0691,-369.763"/>
<polygon fill="black" stroke="black" points="82.5074,-377.493 72.6499,-372.689 79.3076,-373.651 76.1077,-369.809 76.1077,-369.809 76.1077,-369.809 79.3076,-373.651 79.5655,-366.929 82.5074,-377.493 82.5074,-377.493"/>
</a>
</g>
<text text-anchor="middle" x="77.0074" y="-366.293" font-family="Times,serif" font-size="14.00">* </text>
<text text-anchor="middle" x="16.9411" y="-50.466" font-family="Times,serif" font-size="14.00">0..1 </text>
</g>
<!-- Interview&#45;&gt;TimeSlot -->
<g id="edge9" class="edge"><title>Interview&#45;&gt;TimeSlot</title>
<g id="a_edge9"><a xlink:title="Interview 0..1 &#160;&#45;&gt; 0..1 &#160;TimeSlot">
<path fill="none" stroke="black" d="M119.496,-340.766C119.496,-348.653 119.496,-357.858 119.496,-367.036"/>
<polygon fill="black" stroke="black" points="119.496,-377.315 114.996,-367.315 119.496,-372.315 119.496,-367.315 119.496,-367.315 119.496,-367.315 119.496,-372.315 123.996,-367.315 119.496,-377.315 119.496,-377.315"/>
</a>
</g>
<text text-anchor="middle" x="106.996" y="-366.115" font-family="Times,serif" font-size="14.00">0..1 </text>
<text text-anchor="middle" x="106.996" y="-344.566" font-family="Times,serif" font-size="14.00">0..1 </text>
</g>
<!-- Student&#45;&gt;TimeSlot -->
<g id="edge11" class="edge"><title>Student&#45;&gt;TimeSlot</title>
<g id="a_edge11"><a xlink:title="Student 0..1 &#160;&#45;&gt; * &#160;TimeSlot">
<path fill="none" stroke="black" d="M186.053,-371.903 202.986,-361.067 220.499,-349.858 235.083,-340.524"/>
<polygon fill="black" stroke="black" points="177.27,-377.524 183.267,-368.344 181.482,-374.829 185.693,-372.134 185.693,-372.134 185.693,-372.134 181.482,-374.829 188.119,-375.924 177.27,-377.524 177.27,-377.524"/>
</a>
</g>
<text text-anchor="middle" x="182.77" y="-366.324" font-family="Times,serif" font-size="14.00">* </text>
<text text-anchor="middle" x="222.583" y="-344.324" font-family="Times,serif" font-size="14.00">0..1 </text>
</g>
<!-- Transcript -->
<g id="node9" class="node"><title>Transcript</title>
<g id="a_node9"><a xlink:href="javascript:Action.selectClass(&quot;Transcript&quot;);" xlink:title="class Transcript
">
<polygon fill="none" stroke="black" points="227.996,-392.5 227.996,-438.5 310.996,-438.5 310.996,-392.5 227.996,-392.5"/>
<text text-anchor="middle" x="269.496" y="-423.3" font-family="Times,serif" font-size="14.00">Transcript</text>
<polyline fill="none" stroke="black" points="227.996,-415.5 310.996,-415.5 "/>
<text text-anchor="start" x="235.996" y="-400.3" font-family="Times,serif" font-size="14.00">text : String</text>
</a>
</g>
</g>
<!-- Student&#45;&gt;Transcript -->
<g id="edge10" class="edge"><title>Student&#45;&gt;Transcript</title>
<g id="a_edge10"><a xlink:title="Student 1 &#160;&#45;&#45; 1 &#160;Transcript">
<path fill="none" stroke="black" d="M269.496,-340.766C269.496,-356.275 269.496,-376.873 269.496,-392.355"/>
</a>
</g>
<text text-anchor="middle" x="263.996" y="-381.155" font-family="Times,serif" font-size="14.00">1 </text>
<text text-anchor="middle" x="263.996" y="-344.566" font-family="Times,serif" font-size="14.00">1 </text>
</g>
<!-- Resume -->
<g id="node8" class="node"><title>Resume</title>
<g id="a_node8"><a xlink:href="javascript:Action.selectClass(&quot;Resume&quot;);" xlink:title="class Resume
">
<polygon fill="none" stroke="black" points="147.996,-211.5 147.996,-257.5 230.996,-257.5 230.996,-211.5 147.996,-211.5"/>
<text text-anchor="middle" x="189.496" y="-242.3" font-family="Times,serif" font-size="14.00">Resume</text>
<polyline fill="none" stroke="black" points="147.996,-234.5 230.996,-234.5 "/>
<text text-anchor="start" x="155.996" y="-219.3" font-family="Times,serif" font-size="14.00">text : String</text>
</a>
</g>
</g>
<!-- Resume&#45;&gt;Student -->
<g id="edge12" class="edge"><title>Resume&#45;&gt;Student</title>
<g id="a_edge12"><a xlink:title="Resume 0..1 &#160;&#45;&#45; 1 &#160;Student">
<path fill="none" stroke="black" d="M211.356,-257.634C222.645,-269.063 236.378,-282.968 247.662,-294.393"/>
</a>
</g>
<text text-anchor="middle" x="242.162" y="-283.193" font-family="Times,serif" font-size="14.00">1 </text>
<text text-anchor="middle" x="198.856" y="-261.434" font-family="Times,serif" font-size="14.00">0..1 </text>
</g>
</g>
</svg>
