<?xml version="1.0" encoding="UTF-8" standalone="no"?>
<!DOCTYPE svg PUBLIC "-//W3C//DTD SVG 1.1//EN"
 "http://www.w3.org/Graphics/SVG/1.1/DTD/svg11.dtd">
<!-- Generated by graphviz version 2.39.20140502.0445 (20140502.0445)
 -->
<!-- Title: Decisions Pages: 1 -->
<svg width="576pt" height="720pt"
 viewBox="0.00 0.00 575.89 720.00" xmlns="http://www.w3.org/2000/svg" xmlns:xlink="http://www.w3.org/1999/xlink">
<g id="graph0" class="graph" transform="scale(0.889988 0.889988) rotate(0) translate(4 805)">
<title>Decisions</title>
<polygon fill="white" stroke="none" points="-4,4 -4,-805 643.079,-805 643.079,4 -4,4"/>
<!-- Organization -->
<g id="node1" class="node"><title>Organization</title>
<g id="a_node1"><a xlink:href="javascript:Action.selectClass(&quot;Organization&quot;);" xlink:title="class Organization
Domain model for a generic system to manage decision making within an
organization. The requirements are at the bottom of the file.
View this using options / GVClassDiagram to get a nice layout.
UML Class diagram written in Umple
The organization
">
<polygon fill="none" stroke="black" points="518,-0.5 518,-46.5 610,-46.5 610,-0.5 518,-0.5"/>
<text text-anchor="middle" x="564" y="-31.3" font-family="Times,serif" font-size="14.00">Organization</text>
<polyline fill="none" stroke="black" points="518,-23.5 610,-23.5 "/>
<text text-anchor="start" x="526" y="-8.3" font-family="Times,serif" font-size="14.00">name : String</text>
</a>
</g>
</g>
<!-- DecisionMakingBody -->
<g id="node2" class="node"><title>DecisionMakingBody</title>
<g id="a_node2"><a xlink:href="javascript:Action.selectClass(&quot;DecisionMakingBody&quot;);" xlink:title="class DecisionMakingBody
A committee or individual decision maker
OK to just call this Committee
">
<polygon fill="none" stroke="black" points="249,-573.5 249,-619.5 389,-619.5 389,-573.5 249,-573.5"/>
<text text-anchor="middle" x="319" y="-604.3" font-family="Times,serif" font-size="14.00">DecisionMakingBody</text>
<polyline fill="none" stroke="black" points="249,-596.5 389,-596.5 "/>
<text text-anchor="start" x="257" y="-581.3" font-family="Times,serif" font-size="14.00">name : String</text>
</a>
</g>
</g>
<!-- Organization&#45;&gt;DecisionMakingBody -->
<g id="edge4" class="edge"><title>Organization&#45;&gt;DecisionMakingBody</title>
<g id="a_edge4"><a xlink:title="Organization 1 &#160;&#45;&#45; * &#160;DecisionMakingBody">
<path fill="none" stroke="black" d="M389.207,-576.892 461.604,-552.952 564,-503.682 564,-416.5 564,-211 564,-211 564,-211 564,-151.586 564,-81.524 564,-46.606"/>
</a>
</g>
<text text-anchor="middle" x="394.707" y="-565.692" font-family="Times,serif" font-size="14.00">* </text>
<text text-anchor="middle" x="558.5" y="-50.406" font-family="Times,serif" font-size="14.00">1 </text>
</g>
<!-- Decision -->
<g id="node4" class="node"><title>Decision</title>
<g id="a_node4"><a xlink:href="javascript:Action.selectClass(&quot;Decision&quot;);" xlink:title="class Decision
A formal decision that is proposed or made
">
<polygon fill="none" stroke="black" points="301.5,-83.5 301.5,-144.5 482.5,-144.5 482.5,-83.5 301.5,-83.5"/>
<text text-anchor="middle" x="392" y="-129.3" font-family="Times,serif" font-size="14.00">Decision</text>
<polyline fill="none" stroke="black" points="301.5,-121.5 482.5,-121.5 "/>
<text text-anchor="start" x="309.5" y="-106.3" font-family="Times,serif" font-size="14.00">id : String</text>
<text text-anchor="start" x="309.5" y="-91.3" font-family="Times,serif" font-size="14.00">isBeingConsidered : Boolean</text>
</a>
</g>
</g>
<!-- Organization&#45;&gt;Decision -->
<g id="edge3" class="edge"><title>Organization&#45;&gt;Decision</title>
<g id="a_edge3"><a xlink:title="Organization 1 &#160;&#45;&#45; * &#160;Decision">
<path fill="none" stroke="black" d="M449.646,-83.339 472.98,-71.3331 499.449,-57.7138 521.041,-46.604"/>
</a>
</g>
<text text-anchor="middle" x="455.146" y="-72.139" font-family="Times,serif" font-size="14.00">* </text>
<text text-anchor="middle" x="515.541" y="-50.404" font-family="Times,serif" font-size="14.00">1 </text>
</g>
<!-- Person -->
<g id="node14" class="node"><title>Person</title>
<g id="a_node14"><a xlink:href="javascript:Action.selectClass(&quot;Person&quot;);" xlink:title="class Person
">
<polygon fill="none" stroke="black" points="219,-754.5 219,-800.5 311,-800.5 311,-754.5 219,-754.5"/>
<text text-anchor="middle" x="265" y="-785.3" font-family="Times,serif" font-size="14.00">Person</text>
<polyline fill="none" stroke="black" points="219,-777.5 311,-777.5 "/>
<text text-anchor="start" x="227" y="-762.3" font-family="Times,serif" font-size="14.00">name : String</text>
</a>
</g>
</g>
<!-- Organization&#45;&gt;Person -->
<g id="edge5" class="edge"><title>Organization&#45;&gt;Person</title>
<g id="a_edge5"><a xlink:title="Organization 1 &#160;&#45;&#45; * users Person">
<path fill="none" stroke="black" d="M311.114,-775.961 365.726,-773.21 457.301,-761.749 521,-718 574.193,-681.467 602,-662.031 602,-597.5 602,-211 602,-211 602,-211 602,-150.53 582.582,-81.2114 571.508,-46.5952"/>
</a>
</g>
<text text-anchor="middle" x="331.114" y="-764.761" font-family="Times,serif" font-size="14.00">* users</text>
<text text-anchor="middle" x="577.008" y="-50.3952" font-family="Times,serif" font-size="14.00">1 </text>
</g>
<!-- DecisionMakingBody&#45;&gt;DecisionMakingBody -->
<g id="edge7" class="edge"><title>DecisionMakingBody&#45;&gt;DecisionMakingBody</title>
<g id="a_edge7"><a xlink:title="DecisionMakingBody * subordinateBodies &#45;&#45; 0..1 superiorBody DecisionMakingBody">
<path fill="none" stroke="black" d="M389.071,-581.112C399.749,-583.461 407,-588.59 407,-596.5 407,-604.41 399.749,-609.539 389.071,-611.888"/>
</a>
</g>
<text text-anchor="middle" x="439.571" y="-600.688" font-family="Times,serif" font-size="14.00">0..1 superiorBody</text>
<text text-anchor="middle" x="446.571" y="-584.912" font-family="Times,serif" font-size="14.00">* subordinateBodies</text>
</g>
<!-- Membership -->
<g id="node3" class="node"><title>Membership</title>
<g id="a_node3"><a xlink:href="javascript:Action.selectClass(&quot;Membership&quot;);" xlink:title="class Membership
">
<polygon fill="none" stroke="black" points="258,-656.5 258,-717.5 362,-717.5 362,-656.5 258,-656.5"/>
<text text-anchor="middle" x="310" y="-702.3" font-family="Times,serif" font-size="14.00">Membership</text>
<polyline fill="none" stroke="black" points="258,-694.5 362,-694.5 "/>
<text text-anchor="start" x="266" y="-679.3" font-family="Times,serif" font-size="14.00">startDate : Date</text>
<text text-anchor="start" x="266" y="-664.3" font-family="Times,serif" font-size="14.00">endDate : Date</text>
</a>
</g>
</g>
<!-- DecisionMakingBody&#45;&gt;Membership -->
<g id="edge8" class="edge"><title>DecisionMakingBody&#45;&gt;Membership</title>
<g id="a_edge8"><a xlink:title="DecisionMakingBody 1 &#160;&#45;&#45; * &#160;Membership">
<path fill="none" stroke="black" d="M313.019,-656.315 314.231,-644.397 315.604,-630.893 316.729,-619.832"/>
</a>
</g>
<text text-anchor="middle" x="307.519" y="-645.115" font-family="Times,serif" font-size="14.00">* </text>
<text text-anchor="middle" x="311.229" y="-623.632" font-family="Times,serif" font-size="14.00">1 </text>
</g>
<!-- ApprovalLevel -->
<g id="node13" class="node"><title>ApprovalLevel</title>
<g id="a_node13"><a xlink:href="javascript:Action.selectClass(&quot;ApprovalLevel&quot;);" xlink:title="class ApprovalLevel
Identifies a level of approval &#45;&#45; e.g. departmental, board level
It would be acceptable just to have string attributes instead of associations to this
Could also be called ImportanceLevel
">
<polygon fill="none" stroke="black" points="388,-664 388,-710 512,-710 512,-664 388,-664"/>
<text text-anchor="middle" x="450" y="-694.8" font-family="Times,serif" font-size="14.00">ApprovalLevel</text>
<polyline fill="none" stroke="black" points="388,-687 512,-687 "/>
<text text-anchor="start" x="396" y="-671.8" font-family="Times,serif" font-size="14.00">description : String</text>
</a>
</g>
</g>
<!-- DecisionMakingBody&#45;&gt;ApprovalLevel -->
<g id="edge6" class="edge"><title>DecisionMakingBody&#45;&gt;ApprovalLevel</title>
<g id="a_edge6"><a xlink:title="DecisionMakingBody * &#160;&#45;&#45; 1 &#160;ApprovalLevel">
<path fill="none" stroke="black" d="M351.719,-619.604C371.726,-633.12 397.231,-650.35 417.244,-663.871"/>
</a>
</g>
<text text-anchor="middle" x="411.744" y="-652.671" font-family="Times,serif" font-size="14.00">1 </text>
<text text-anchor="middle" x="346.219" y="-623.404" font-family="Times,serif" font-size="14.00">* </text>
</g>
<!-- Membership&#45;&gt;Person -->
<g id="edge9" class="edge"><title>Membership&#45;&gt;Person</title>
<g id="a_edge9"><a xlink:title="Membership * &#160;&#45;&#45; 1 &#160;Person">
<path fill="none" stroke="black" d="M276.236,-754.403 281.838,-743.385 288.697,-729.897 294.765,-717.962"/>
</a>
</g>
<text text-anchor="middle" x="270.736" y="-743.203" font-family="Times,serif" font-size="14.00">1 </text>
<text text-anchor="middle" x="289.265" y="-721.762" font-family="Times,serif" font-size="14.00">* </text>
</g>
<!-- Decision&#45;&gt;Decision -->
<g id="edge12" class="edge"><title>Decision&#45;&gt;Decision</title>
<g id="a_edge12"><a xlink:title="Decision * predecessors &#45;&#45; * successors Decision">
<path fill="none" stroke="black" d="M482.62,-99.498C493.436,-102.135 500.5,-106.969 500.5,-114 500.5,-121.031 493.436,-125.865 482.62,-128.502"/>
</a>
</g>
<text text-anchor="middle" x="517.62" y="-117.302" font-family="Times,serif" font-size="14.00">* successors</text>
<text text-anchor="middle" x="524.12" y="-88.298" font-family="Times,serif" font-size="14.00">* predecessors</text>
</g>
<!-- DecisionByBody -->
<g id="node5" class="node"><title>DecisionByBody</title>
<g id="a_node5"><a xlink:href="javascript:Action.selectClass(&quot;DecisionByBody&quot;);" xlink:title="class DecisionByBody
Tracks the progress of a decision as it is approved and changed
">
<polygon fill="none" stroke="black" points="286,-181.5 286,-242.5 428,-242.5 428,-181.5 286,-181.5"/>
<text text-anchor="middle" x="357" y="-227.3" font-family="Times,serif" font-size="14.00">DecisionByBody</text>
<polyline fill="none" stroke="black" points="286,-219.5 428,-219.5 "/>
<text text-anchor="start" x="294" y="-204.3" font-family="Times,serif" font-size="14.00">dateOfDecision : Date</text>
<text text-anchor="start" x="294" y="-189.3" font-family="Times,serif" font-size="14.00">accepted : Boolean</text>
</a>
</g>
</g>
<!-- Decision&#45;&gt;DecisionByBody -->
<g id="edge11" class="edge"><title>Decision&#45;&gt;DecisionByBody</title>
<g id="a_edge11"><a xlink:title="Decision 1 &#160;&#45;&#45; 0..1 currentStatus DecisionByBody">
<path fill="none" stroke="black" d="M361.52,-181.346 365.168,-169.66 370.052,-156.266 374.926,-144.586"/>
</a>
</g>
<text text-anchor="middle" x="411.02" y="-170.146" font-family="Times,serif" font-size="14.00">0..1 currentStatus</text>
<text text-anchor="middle" x="369.426" y="-148.386" font-family="Times,serif" font-size="14.00">1 </text>
</g>
<!-- DecisionType -->
<g id="node12" class="node"><title>DecisionType</title>
<g id="a_node12"><a xlink:href="javascript:Action.selectClass(&quot;DecisionType&quot;);" xlink:title="class DecisionType
Categorization of decisions
">
<polygon fill="none" stroke="black" points="401,-392.5 401,-438.5 525,-438.5 525,-392.5 401,-392.5"/>
<text text-anchor="middle" x="463" y="-423.3" font-family="Times,serif" font-size="14.00">DecisionType</text>
<polyline fill="none" stroke="black" points="401,-415.5 525,-415.5 "/>
<text text-anchor="start" x="409" y="-400.3" font-family="Times,serif" font-size="14.00">description : String</text>
</a>
</g>
</g>
<!-- Decision&#45;&gt;DecisionType -->
<g id="edge10" class="edge"><title>Decision&#45;&gt;DecisionType</title>
<g id="a_edge10"><a xlink:title="Decision * &#160;&#45;&#45; 1 &#160;DecisionType">
<path fill="none" stroke="black" d="M423.669,-144.673C434.324,-155.531 445.825,-168.282 455,-181 483.849,-220.987 495.092,-231.152 507,-279 515.265,-312.209 517.844,-323.541 507,-356 502.53,-369.379 493.664,-382.154 485.055,-392.334"/>
</a>
</g>
<text text-anchor="middle" x="479.555" y="-381.134" font-family="Times,serif" font-size="14.00">1 </text>
<text text-anchor="middle" x="418.169" y="-148.473" font-family="Times,serif" font-size="14.00">* </text>
</g>
<!-- DecisionByBody&#45;&gt;DecisionMakingBody -->
<g id="edge13" class="edge"><title>DecisionByBody&#45;&gt;DecisionMakingBody</title>
<g id="a_edge13"><a xlink:title="DecisionByBody * &#160;&#45;&#45; 1 decider DecisionMakingBody">
<path fill="none" stroke="black" d="M315.827,-573.183 309.124,-520.833 296.232,-386.445 323,-279 326.116,-266.493 331.986,-253.686 337.982,-242.722"/>
</a>
</g>
<text text-anchor="middle" x="289.827" y="-561.983" font-family="Times,serif" font-size="14.00">1 decider</text>
<text text-anchor="middle" x="332.482" y="-246.522" font-family="Times,serif" font-size="14.00">* </text>
</g>
<!-- DecisionByBody&#45;&gt;Decision -->
<g id="edge18" class="edge"><title>DecisionByBody&#45;&gt;Decision</title>
<g id="a_edge18"><a xlink:title="DecisionByBody * &#160;&#45;&#45; * onlyApprovedConditionalOnDecision Decision">
<path fill="none" stroke="black" d="M374.103,-181.346C378.976,-169.66 383.858,-156.266 387.501,-144.586"/>
</a>
</g>
<text text-anchor="middle" x="275.001" y="-148.386" font-family="Times,serif" font-size="14.00">* onlyApprovedConditionalOnDecision</text>
<text text-anchor="middle" x="368.603" y="-185.146" font-family="Times,serif" font-size="14.00">* </text>
</g>
<!-- DecisionByBody&#45;&gt;DecisionByBody -->
<g id="edge16" class="edge"><title>DecisionByBody&#45;&gt;DecisionByBody</title>
<g id="a_edge16"><a xlink:title="DecisionByBody 0..1 previous &#45;&#45; 0..1 next DecisionByBody">
<path fill="none" stroke="black" d="M428.226,-195.331C438.829,-197.926 446,-203.482 446,-212 446,-220.518 438.829,-226.074 428.226,-228.669"/>
</a>
</g>
<text text-anchor="middle" x="452.726" y="-217.469" font-family="Times,serif" font-size="14.00">0..1 next</text>
<text text-anchor="middle" x="464.726" y="-199.131" font-family="Times,serif" font-size="14.00">0..1 previous</text>
</g>
<!-- DecisionSummaryVersion -->
<g id="node6" class="node"><title>DecisionSummaryVersion</title>
<g id="a_node6"><a xlink:href="javascript:Action.selectClass(&quot;DecisionSummaryVersion&quot;);" xlink:title="class DecisionSummaryVersion
">
<polygon fill="none" stroke="black" points="332.5,-287 332.5,-348 497.5,-348 497.5,-287 332.5,-287"/>
<text text-anchor="middle" x="415" y="-332.8" font-family="Times,serif" font-size="14.00">DecisionSummaryVersion</text>
<polyline fill="none" stroke="black" points="332.5,-325 497.5,-325 "/>
<text text-anchor="start" x="340.5" y="-309.8" font-family="Times,serif" font-size="14.00">versionNumber : Integer</text>
<text text-anchor="start" x="340.5" y="-294.8" font-family="Times,serif" font-size="14.00">shortSummary : String</text>
</a>
</g>
</g>
<!-- DecisionByBody&#45;&gt;DecisionSummaryVersion -->
<g id="edge14" class="edge"><title>DecisionByBody&#45;&gt;DecisionSummaryVersion</title>
<g id="a_edge14"><a xlink:title="DecisionByBody * &#160;&#45;&#45; 1 &#160;DecisionSummaryVersion">
<path fill="none" stroke="black" d="M373.62,-242.659C381.387,-256.517 390.611,-272.978 398.377,-286.837"/>
</a>
</g>
<text text-anchor="middle" x="392.877" y="-275.637" font-family="Times,serif" font-size="14.00">1 </text>
<text text-anchor="middle" x="368.12" y="-246.459" font-family="Times,serif" font-size="14.00">* </text>
</g>
<!-- DocumentVersion -->
<g id="node8" class="node"><title>DocumentVersion</title>
<g id="a_node8"><a xlink:href="javascript:Action.selectClass(&quot;DocumentVersion&quot;);" xlink:title="class DocumentVersion
">
<polygon fill="none" stroke="black" points="0,-279.5 0,-355.5 154,-355.5 154,-279.5 0,-279.5"/>
<text text-anchor="middle" x="77" y="-340.3" font-family="Times,serif" font-size="14.00">DocumentVersion</text>
<polyline fill="none" stroke="black" points="0,-332.5 154,-332.5 "/>
<text text-anchor="start" x="8" y="-317.3" font-family="Times,serif" font-size="14.00">versionNumber : Integer</text>
<text text-anchor="start" x="8" y="-302.3" font-family="Times,serif" font-size="14.00">dateCreated : Date</text>
<text text-anchor="start" x="8" y="-287.3" font-family="Times,serif" font-size="14.00">filename : String</text>
</a>
</g>
</g>
<!-- DecisionByBody&#45;&gt;DocumentVersion -->
<g id="edge15" class="edge"><title>DecisionByBody&#45;&gt;DocumentVersion</title>
<g id="a_edge15"><a xlink:title="DecisionByBody * usedInDecision &#45;&#45; * documentsForDecision DocumentVersion">
<path fill="none" stroke="black" d="M154.229,-282.463 157.183,-281.276 160.114,-280.118 163,-279 203.307,-263.387 249.053,-247.727 285.996,-235.582"/>
</a>
</g>
<text text-anchor="middle" x="224.729" y="-271.263" font-family="Times,serif" font-size="14.00">* documentsForDecision</text>
<text text-anchor="middle" x="236.996" y="-224.382" font-family="Times,serif" font-size="14.00">* usedInDecision</text>
</g>
<!-- ChangeRequest -->
<g id="node10" class="node"><title>ChangeRequest</title>
<g id="a_node10"><a xlink:href="javascript:Action.selectClass(&quot;ChangeRequest&quot;);" xlink:title="class ChangeRequest
Requirements for the above

Many organization have decisions to make that are made by various committees in a hierarchical manner. Committees exist at various levels. For example, there might be a departmental committee that makes a decision, and passes the decision up to a division council for further approval, and that then passes the result to the board of directors for final approval.

Some committees might consist of a single individual, e.g. a department head or director.

The system you will model needs to be able to handle any kind of organization; the committees or individuals will have different names in each organization. In a university, for example, there might be many levels: Department curriculum committee, department council, faculty curriculum committee, faculty council, undergraduate council and Senate.

Decisions are of various types, with each type having an importance levels. Based on its importance, a decision only needs to be approved up to a certain level in the hierarchy. For example, the decision about which courses to offer in a given year might only need to be approved by the department curriculum committee, but a new program of studies might need to be approved by the Senate (and every level from department curriculum committee up to Senate). In a company, an expense less than $1000 might need approval by a department head. Expenses of over $1000000 might need approval by the Board of Directors.

Each decision has a &#39;short summary&#39; that describes the decision. Examples might be: &#39;Purchase Photocopier model AB309 from Xerox for $2570&#39; or &#39;Create course SEG2104 with title: &quot;Model driven development&quot;, and description: &#39;Model driven development using Umple&#39;, and prerequisites: &quot;SEG2105&quot;&#39;

Short summaries can have multiple versions (as changes are made).

Each decision has associated with it a set of documents. Each document has an id, a filename, a type (MS Word, Excel, Pdf etc.) and a set of versions.

When a committee approves a decision, it does so by approving the short summary, and possibly modifying the set of documents by adding new versions of existing documents or adding new documents.

A committee might turn down a decision based on one version of a document and request a list of change requests that are simple blocks of text. Users or other committees may add comments to the change requests and may create new versions of documents and an updated version of the short summary. A decision may therefore go up the hierarchy, be rejected, come back down for revisions, go back up again, back down again, and eventually be approved at the highest needed level, or rejected or dropped at any level.

It is also possible for a committee to split a decision into separate decisions, or merge two decisions together, or approve one decision conditional on approval of one or more other decisions.

Committees have members. Each member has a start and end date on the committee. Each document has a set of authors. Each version has a date and a set of authors.
">
<polygon fill="none" stroke="black" points="172,-299.5 172,-335.5 276,-335.5 276,-299.5 172,-299.5"/>
<text text-anchor="middle" x="224" y="-313.8" font-family="Times,serif" font-size="14.00">ChangeRequest</text>
</a>
</g>
</g>
<!-- DecisionByBody&#45;&gt;ChangeRequest -->
<g id="edge17" class="edge"><title>DecisionByBody&#45;&gt;ChangeRequest</title>
<g id="a_edge17"><a xlink:title="DecisionByBody 0..1 &#160;&#45;&gt; * &#160;ChangeRequest">
<path fill="none" stroke="black" d="M254.03,-293.131 273.227,-278.192 298.293,-258.686 318.888,-242.659"/>
<polygon fill="black" stroke="black" points="245.927,-299.436 251.056,-289.743 249.873,-296.366 253.819,-293.295 253.819,-293.295 253.819,-293.295 249.873,-296.366 256.583,-296.846 245.927,-299.436 245.927,-299.436"/>
</a>
</g>
<text text-anchor="middle" x="240.427" y="-288.236" font-family="Times,serif" font-size="14.00">* </text>
<text text-anchor="middle" x="306.388" y="-246.459" font-family="Times,serif" font-size="14.00">0..1 </text>
</g>
<!-- Document -->
<g id="node7" class="node"><title>Document</title>
<g id="a_node7"><a xlink:href="javascript:Action.selectClass(&quot;Document&quot;);" xlink:title="class Document
">
<polygon fill="none" stroke="black" points="21.5,-181.5 21.5,-242.5 132.5,-242.5 132.5,-181.5 21.5,-181.5"/>
<text text-anchor="middle" x="77" y="-227.3" font-family="Times,serif" font-size="14.00">Document</text>
<polyline fill="none" stroke="black" points="21.5,-219.5 132.5,-219.5 "/>
<text text-anchor="start" x="29.5" y="-204.3" font-family="Times,serif" font-size="14.00">id : String</text>
<text text-anchor="start" x="29.5" y="-189.3" font-family="Times,serif" font-size="14.00">docType : String</text>
</a>
</g>
</g>
<!-- Document&#45;&gt;DocumentVersion -->
<g id="edge19" class="edge"><title>Document&#45;&gt;DocumentVersion</title>
<g id="a_edge19"><a xlink:title="Document 1 &#160;&#45;&#45; * versions DocumentVersion">
<path fill="none" stroke="black" d="M77,-242.659C77,-254.128 77,-267.379 77,-279.463"/>
</a>
</g>
<text text-anchor="middle" x="48" y="-268.263" font-family="Times,serif" font-size="14.00">* versions</text>
<text text-anchor="middle" x="71.5" y="-246.459" font-family="Times,serif" font-size="14.00">1 </text>
</g>
<!-- DocumentVersion&#45;&gt;Person -->
<g id="edge20" class="edge"><title>DocumentVersion&#45;&gt;Person</title>
<g id="a_edge20"><a xlink:title="DocumentVersion * &#160;&#45;&#45; * authors Person">
<path fill="none" stroke="black" d="M89.7662,-355.507C101.473,-392.783 117,-452.182 117,-505 117,-505 117,-505 117,-597.5 117,-667.259 184.589,-724.48 228.416,-754.251"/>
</a>
</g>
<text text-anchor="middle" x="202.416" y="-743.051" font-family="Times,serif" font-size="14.00">* authors</text>
<text text-anchor="middle" x="84.2662" y="-359.307" font-family="Times,serif" font-size="14.00">* </text>
</g>
<!-- Annotation -->
<g id="node9" class="node"><title>Annotation</title>
<g id="a_node9"><a xlink:href="javascript:Action.selectClass(&quot;Annotation&quot;);" xlink:title="class Annotation
">
<polygon fill="none" stroke="black" points="166.5,-475.5 166.5,-536.5 275.5,-536.5 275.5,-475.5 166.5,-475.5"/>
<text text-anchor="middle" x="221" y="-521.3" font-family="Times,serif" font-size="14.00">Annotation</text>
<polyline fill="none" stroke="black" points="166.5,-513.5 275.5,-513.5 "/>
<text text-anchor="start" x="174.5" y="-498.3" font-family="Times,serif" font-size="14.00">text : String</text>
<text text-anchor="start" x="174.5" y="-483.3" font-family="Times,serif" font-size="14.00">dateMade : Date</text>
</a>
</g>
</g>
<!-- Annotation&#45;&gt;DecisionMakingBody -->
<g id="edge22" class="edge"><title>Annotation&#45;&gt;DecisionMakingBody</title>
<g id="a_edge22"><a xlink:title="Annotation * &#160;&#45;&gt; 0..1 madeByBody DecisionMakingBody">
<path fill="none" stroke="black" d="M253.905,-536.715C264.555,-546.332 276.345,-556.98 286.933,-566.541"/>
<polygon fill="black" stroke="black" points="294.396,-573.281 283.958,-569.919 290.685,-569.93 286.974,-566.579 286.974,-566.579 286.974,-566.579 290.685,-569.93 289.99,-563.239 294.396,-573.281 294.396,-573.281"/>
</a>
</g>
<text text-anchor="middle" x="345.396" y="-562.081" font-family="Times,serif" font-size="14.00">0..1 madeByBody</text>
<text text-anchor="middle" x="248.405" y="-540.515" font-family="Times,serif" font-size="14.00">* </text>
</g>
<!-- Annotation&#45;&gt;Person -->
<g id="edge21" class="edge"><title>Annotation&#45;&gt;Person</title>
<g id="a_edge21"><a xlink:title="Annotation * &#160;&#45;&gt; 0..1 madeByUser Person">
<path fill="none" stroke="black" d="M223.651,-536.563C227.617,-577.565 236.041,-653.89 249,-718 250.769,-726.753 253.122,-736.127 255.478,-744.75"/>
<polygon fill="black" stroke="black" points="258.21,-754.446 251.167,-746.041 256.854,-749.633 255.498,-744.821 255.498,-744.821 255.498,-744.821 256.854,-749.633 259.829,-743.6 258.21,-754.446 258.21,-754.446"/>
</a>
</g>
<text text-anchor="middle" x="307.21" y="-743.246" font-family="Times,serif" font-size="14.00">0..1 madeByUser</text>
<text text-anchor="middle" x="218.151" y="-540.363" font-family="Times,serif" font-size="14.00">* </text>
</g>
<!-- ChangeRequest&#45;&gt;Annotation -->
<g id="edge1" class="edge"><title>ChangeRequest&#45;&gt;Annotation</title>
<path fill="none" stroke="black" d="M222.064,-466.935 226.906,-459.957 233.31,-449.382 236,-439 245.334,-402.978 236.024,-359.163 229.39,-335.552"/>
<polygon fill="none" stroke="black" points="219.212,-464.904 216,-475 224.807,-469.11 219.212,-464.904"/>
</g>
<!-- Comment -->
<g id="node11" class="node"><title>Comment</title>
<g id="a_node11"><a xlink:href="javascript:Action.selectClass(&quot;Comment&quot;);" xlink:title="class Comment
A comment can just be applied to a ChangeRequest
">
<polygon fill="none" stroke="black" points="155,-397.5 155,-433.5 227,-433.5 227,-397.5 155,-397.5"/>
<text text-anchor="middle" x="191" y="-411.8" font-family="Times,serif" font-size="14.00">Comment</text>
</a>
</g>
</g>
<!-- ChangeRequest&#45;&gt;Comment -->
<g id="edge23" class="edge"><title>ChangeRequest&#45;&gt;Comment</title>
<g id="a_edge23"><a xlink:title="ChangeRequest 0..1 &#160;&#45;&gt; * &#160;Comment">
<path fill="none" stroke="black" d="M200.193,-387.757 205.923,-371.088 213.126,-350.133 218.1,-335.663"/>
<polygon fill="black" stroke="black" points="196.849,-397.486 195.844,-386.566 198.474,-392.757 200.1,-388.029 200.1,-388.029 200.1,-388.029 198.474,-392.757 204.355,-389.492 196.849,-397.486 196.849,-397.486"/>
</a>
</g>
<text text-anchor="middle" x="191.349" y="-386.286" font-family="Times,serif" font-size="14.00">* </text>
<text text-anchor="middle" x="205.6" y="-339.463" font-family="Times,serif" font-size="14.00">0..1 </text>
</g>
<!-- Comment&#45;&gt;Annotation -->
<g id="edge2" class="edge"><title>Comment&#45;&gt;Annotation</title>
<path fill="none" stroke="black" d="M198.366,-433.736C202.802,-444.116 208.282,-456.94 211.945,-465.512"/>
<polygon fill="none" stroke="black" points="208.852,-467.18 216,-475 215.289,-464.429 208.852,-467.18"/>
</g>
<!-- DecisionType&#45;&gt;ApprovalLevel -->
<g id="edge24" class="edge"><title>DecisionType&#45;&gt;ApprovalLevel</title>
<g id="a_edge24"><a xlink:title="DecisionType * &#160;&#45;&#45; 1 highestApprovalLevelRequired ApprovalLevel">
<path fill="none" stroke="black" d="M451.079,-663.641 453.53,-612.812 459.498,-489.09 461.936,-438.554"/>
</a>
</g>
<text text-anchor="middle" x="545.079" y="-652.441" font-family="Times,serif" font-size="14.00">1 highestApprovalLevelRequired</text>
<text text-anchor="middle" x="456.436" y="-442.354" font-family="Times,serif" font-size="14.00">* </text>
</g>
</g>
</svg>
