<?xml version="1.0" encoding="UTF-8" standalone="no"?>
<!DOCTYPE svg PUBLIC "-//W3C//DTD SVG 1.1//EN"
 "http://www.w3.org/Graphics/SVG/1.1/DTD/svg11.dtd">
<!-- Generated by graphviz version 2.29.20121108.1600 (20121108.1600)
 -->
<!-- Title: Decisions Pages: 1 -->
<svg width="599pt" height="720pt"
 viewBox="0.00 0.00 598.68 720.00" xmlns="http://www.w3.org/2000/svg" xmlns:xlink="http://www.w3.org/1999/xlink">
<g id="graph0" class="graph" transform="scale(0.837209 0.837209) rotate(0) translate(4 856)">
<title>Decisions</title>
<polygon fill="white" stroke="white" points="-4,5 -4,-856 712.088,-856 712.088,5 -4,5"/>
<!-- Organization -->
<g id="node1" class="node"><title>Organization</title>
<g id="a_node1"><a xlink:href="javascript:Action.selectClass(&quot;Organization&quot;);" xlink:title="class Organization
Domain model for a generic system to manage decision making within an
organization. The requirements are at the bottom of the file.
View this using options / GVClassDiagram to get a nice layout.
The organization
">
<polygon fill="none" stroke="black" points="565.283,-1.2 565.283,-50.8 656.717,-50.8 656.717,-1.2 565.283,-1.2"/>
<text text-anchor="middle" x="611" y="-32.8" font-family="Times,serif" font-size="14.00">Organization</text>
<polyline fill="none" stroke="black" points="565.283,-26 656.717,-26 "/>
<text text-anchor="start" x="573.283" y="-8" font-family="Times,serif" font-size="14.00">name : String</text>
</a>
</g>
</g>
<!-- Decision -->
<g id="node4" class="node"><title>Decision</title>
<g id="a_node4"><a xlink:href="javascript:Action.selectClass(&quot;Decision&quot;);" xlink:title="class Decision
A formal decision that is proposed or made
">
<polygon fill="none" stroke="black" points="349.955,-88.8 349.955,-155.2 530.045,-155.2 530.045,-88.8 349.955,-88.8"/>
<text text-anchor="middle" x="440" y="-137.2" font-family="Times,serif" font-size="14.00">Decision</text>
<polyline fill="none" stroke="black" points="349.955,-130.4 530.045,-130.4 "/>
<text text-anchor="start" x="357.955" y="-112.4" font-family="Times,serif" font-size="14.00">id : String</text>
<text text-anchor="start" x="357.955" y="-95.6" font-family="Times,serif" font-size="14.00">isBeingConsidered : Boolean</text>
</a>
</g>
</g>
<!-- Organization&#45;&gt;Decision -->
<g id="edge3" class="edge"><title>Organization&#45;&gt;Decision</title>
<path fill="none" stroke="black" d="M567.407,-50.9634C546.528,-62.4406 521.22,-76.3527 498.679,-88.7435"/>
<text text-anchor="middle" x="493.429" y="-74.7435" font-family="Times,serif" font-size="14.00">* </text>
<text text-anchor="middle" x="562.157" y="-53.7634" font-family="Times,serif" font-size="14.00">1 </text>
</g>
<!-- DecisionMakingBody -->
<g id="node2" class="node"><title>DecisionMakingBody</title>
<g id="a_node2"><a xlink:href="javascript:Action.selectClass(&quot;DecisionMakingBody&quot;);" xlink:title="class DecisionMakingBody
A committee or individual decision maker
OK to just call this Committee
">
<polygon fill="none" stroke="black" points="335.172,-609.2 335.172,-658.8 474.828,-658.8 474.828,-609.2 335.172,-609.2"/>
<text text-anchor="middle" x="405" y="-640.8" font-family="Times,serif" font-size="14.00">DecisionMakingBody</text>
<polyline fill="none" stroke="black" points="335.172,-634 474.828,-634 "/>
<text text-anchor="start" x="343.172" y="-616" font-family="Times,serif" font-size="14.00">name : String</text>
</a>
</g>
</g>
<!-- Organization&#45;&gt;DecisionMakingBody -->
<g id="edge4" class="edge"><title>Organization&#45;&gt;DecisionMakingBody</title>
<path fill="none" stroke="black" d="M611,-51.0785C611,-88.3506 611,-162.266 611,-225 611,-225 611,-225 611,-443 611,-523.886 524.122,-579.845 463.205,-609.141"/>
<text text-anchor="middle" x="468.455" y="-595.141" font-family="Times,serif" font-size="14.00">* </text>
<text text-anchor="middle" x="605.75" y="-53.8785" font-family="Times,serif" font-size="14.00">1 </text>
</g>
<!-- Person -->
<g id="node14" class="node"><title>Person</title>
<g id="a_node14"><a xlink:href="javascript:Action.selectClass(&quot;Person&quot;);" xlink:title="class Person
">
<polygon fill="none" stroke="black" points="301.283,-801.2 301.283,-850.8 392.717,-850.8 392.717,-801.2 301.283,-801.2"/>
<text text-anchor="middle" x="347" y="-832.8" font-family="Times,serif" font-size="14.00">Person</text>
<polyline fill="none" stroke="black" points="301.283,-826 392.717,-826 "/>
<text text-anchor="start" x="309.283" y="-808" font-family="Times,serif" font-size="14.00">name : String</text>
</a>
</g>
</g>
<!-- Organization&#45;&gt;Person -->
<g id="edge5" class="edge"><title>Organization&#45;&gt;Person</title>
<path fill="none" stroke="black" d="M618.69,-51.0994C629.794,-88.0954 649,-161.296 649,-225 649,-225 649,-225 649,-635 649,-698.045 638.467,-723.68 590,-764 533.656,-810.872 446.209,-822.469 393.012,-824.92"/>
<text text-anchor="middle" x="412.648" y="-810.92" font-family="Times,serif" font-size="14.00">* users</text>
<text text-anchor="middle" x="623.94" y="-53.8994" font-family="Times,serif" font-size="14.00">1 </text>
</g>
<!-- ApprovalLevel -->
<g id="node13" class="node"><title>ApprovalLevel</title>
<g id="a_node13"><a xlink:href="javascript:Action.selectClass(&quot;ApprovalLevel&quot;);" xlink:title="class ApprovalLevel
Identifies a level of approval &#45;&#45; e.g. departmental, board level
It would be acceptable just to have string attributes instead of associations to this
Could also be called ImportanceLevel
">
<polygon fill="none" stroke="black" points="458.338,-705.2 458.338,-754.8 581.662,-754.8 581.662,-705.2 458.338,-705.2"/>
<text text-anchor="middle" x="520" y="-736.8" font-family="Times,serif" font-size="14.00">ApprovalLevel</text>
<polyline fill="none" stroke="black" points="458.338,-730 581.662,-730 "/>
<text text-anchor="start" x="466.338" y="-712" font-family="Times,serif" font-size="14.00">description : String</text>
</a>
</g>
</g>
<!-- DecisionMakingBody&#45;&gt;ApprovalLevel -->
<g id="edge6" class="edge"><title>DecisionMakingBody&#45;&gt;ApprovalLevel</title>
<path fill="none" stroke="black" d="M434.317,-658.963C451.619,-673.106 473.444,-690.946 490.737,-705.08"/>
<text text-anchor="middle" x="485.487" y="-691.08" font-family="Times,serif" font-size="14.00">1 </text>
<text text-anchor="middle" x="439.567" y="-661.763" font-family="Times,serif" font-size="14.00">* </text>
</g>
<!-- DecisionMakingBody&#45;&gt;DecisionMakingBody -->
<g id="edge7" class="edge"><title>DecisionMakingBody&#45;&gt;DecisionMakingBody</title>
<path fill="none" stroke="black" d="M474.973,-617.758C485.146,-620.336 492,-625.75 492,-634 492,-642.25 485.146,-647.664 474.973,-650.242"/>
<text text-anchor="middle" x="525.33" y="-636.242" font-family="Times,serif" font-size="14.00">0..1 superiorBody</text>
<text text-anchor="middle" x="532.327" y="-603.758" font-family="Times,serif" font-size="14.00">* subordinateBodies</text>
</g>
<!-- Membership -->
<g id="node3" class="node"><title>Membership</title>
<g id="a_node3"><a xlink:href="javascript:Action.selectClass(&quot;Membership&quot;);" xlink:title="class Membership
">
<polygon fill="none" stroke="black" points="336.076,-696.8 336.076,-763.2 439.924,-763.2 439.924,-696.8 336.076,-696.8"/>
<text text-anchor="middle" x="388" y="-745.2" font-family="Times,serif" font-size="14.00">Membership</text>
<polyline fill="none" stroke="black" points="336.076,-738.4 439.924,-738.4 "/>
<text text-anchor="start" x="344.076" y="-720.4" font-family="Times,serif" font-size="14.00">startDate : Date</text>
<text text-anchor="start" x="344.076" y="-703.6" font-family="Times,serif" font-size="14.00">endDate : Date</text>
</a>
</g>
</g>
<!-- DecisionMakingBody&#45;&gt;Membership -->
<g id="edge8" class="edge"><title>DecisionMakingBody&#45;&gt;Membership</title>
<path fill="none" stroke="black" d="M400.622,-659.207C398.556,-670.631 396.062,-684.425 393.837,-696.722"/>
<text text-anchor="middle" x="388.587" y="-682.722" font-family="Times,serif" font-size="14.00">* </text>
<text text-anchor="middle" x="395.372" y="-662.007" font-family="Times,serif" font-size="14.00">1 </text>
</g>
<!-- Membership&#45;&gt;Person -->
<g id="edge9" class="edge"><title>Membership&#45;&gt;Person</title>
<path fill="none" stroke="black" d="M373.89,-763.349C368.516,-775.67 362.491,-789.484 357.509,-800.907"/>
<text text-anchor="middle" x="352.259" y="-786.907" font-family="Times,serif" font-size="14.00">1 </text>
<text text-anchor="middle" x="368.64" y="-766.149" font-family="Times,serif" font-size="14.00">* </text>
</g>
<!-- DecisionType -->
<g id="node12" class="node"><title>DecisionType</title>
<g id="a_node12"><a xlink:href="javascript:Action.selectClass(&quot;DecisionType&quot;);" xlink:title="class DecisionType
Categorization of decisions
">
<polygon fill="none" stroke="black" points="459.338,-417.2 459.338,-466.8 582.662,-466.8 582.662,-417.2 459.338,-417.2"/>
<text text-anchor="middle" x="521" y="-448.8" font-family="Times,serif" font-size="14.00">DecisionType</text>
<polyline fill="none" stroke="black" points="459.338,-442 582.662,-442 "/>
<text text-anchor="start" x="467.338" y="-424" font-family="Times,serif" font-size="14.00">description : String</text>
</a>
</g>
</g>
<!-- Decision&#45;&gt;DecisionType -->
<g id="edge10" class="edge"><title>Decision&#45;&gt;DecisionType</title>
<path fill="none" stroke="black" d="M465.922,-155.379C473.543,-166.421 481.133,-179.218 486,-192 515.904,-270.534 520.625,-371.753 521.128,-417.135"/>
<text text-anchor="middle" x="526.378" y="-403.135" font-family="Times,serif" font-size="14.00">1 </text>
<text text-anchor="middle" x="460.672" y="-158.179" font-family="Times,serif" font-size="14.00">* </text>
</g>
<!-- DecisionByBody -->
<g id="node5" class="node"><title>DecisionByBody</title>
<g id="a_node5"><a xlink:href="javascript:Action.selectClass(&quot;DecisionByBody&quot;);" xlink:title="class DecisionByBody
Tracks the progress of a decision as it is approved and changed
">
<polygon fill="none" stroke="black" points="318.414,-192.8 318.414,-259.2 459.586,-259.2 459.586,-192.8 318.414,-192.8"/>
<text text-anchor="middle" x="389" y="-241.2" font-family="Times,serif" font-size="14.00">DecisionByBody</text>
<polyline fill="none" stroke="black" points="318.414,-234.4 459.586,-234.4 "/>
<text text-anchor="start" x="326.414" y="-216.4" font-family="Times,serif" font-size="14.00">dateOfDecision : Date</text>
<text text-anchor="start" x="326.414" y="-199.6" font-family="Times,serif" font-size="14.00">accepted : Boolean</text>
</a>
</g>
</g>
<!-- Decision&#45;&gt;DecisionByBody -->
<g id="edge11" class="edge"><title>Decision&#45;&gt;DecisionByBody</title>
<path fill="none" stroke="black" d="M417.535,-155.273C411.022,-167.18 404.276,-180.668 398.872,-192.586"/>
<text text-anchor="middle" x="349.688" y="-178.586" font-family="Times,serif" font-size="14.00">0..1 currentStatus</text>
<text text-anchor="middle" x="412.285" y="-158.073" font-family="Times,serif" font-size="14.00">1 </text>
</g>
<!-- Decision&#45;&gt;Decision -->
<g id="edge12" class="edge"><title>Decision&#45;&gt;Decision</title>
<path fill="none" stroke="black" d="M530.202,-106.531C540.969,-109.344 548,-114.5 548,-122 548,-129.5 540.969,-134.656 530.202,-137.469"/>
<text text-anchor="middle" x="565" y="-123.469" font-family="Times,serif" font-size="14.00">* successors</text>
<text text-anchor="middle" x="571.214" y="-92.5313" font-family="Times,serif" font-size="14.00">* predecessors</text>
</g>
<!-- DecisionByBody&#45;&gt;DecisionMakingBody -->
<g id="edge13" class="edge"><title>DecisionByBody&#45;&gt;DecisionMakingBody</title>
<path fill="none" stroke="black" d="M436.206,-259.438C447.415,-269.708 457.886,-282.067 464,-296 479.002,-330.187 470.884,-343.307 464,-380 460.835,-396.873 454.871,-399.538 450,-416 429.641,-484.807 415.062,-568.53 408.647,-608.917"/>
<text text-anchor="middle" x="434.494" y="-594.917" font-family="Times,serif" font-size="14.00">1 decider</text>
<text text-anchor="middle" x="430.956" y="-262.238" font-family="Times,serif" font-size="14.00">* </text>
</g>
<!-- DecisionSummaryVersion -->
<g id="node6" class="node"><title>DecisionSummaryVersion</title>
<g id="a_node6"><a xlink:href="javascript:Action.selectClass(&quot;DecisionSummaryVersion&quot;);" xlink:title="class DecisionSummaryVersion
">
<polygon fill="none" stroke="black" points="292.51,-304.8 292.51,-371.2 455.49,-371.2 455.49,-304.8 292.51,-304.8"/>
<text text-anchor="middle" x="374" y="-353.2" font-family="Times,serif" font-size="14.00">DecisionSummaryVersion</text>
<polyline fill="none" stroke="black" points="292.51,-346.4 455.49,-346.4 "/>
<text text-anchor="start" x="300.51" y="-328.4" font-family="Times,serif" font-size="14.00">versionNumber : Integer</text>
<text text-anchor="start" x="300.51" y="-311.6" font-family="Times,serif" font-size="14.00">shortSummary : String</text>
</a>
</g>
</g>
<!-- DecisionByBody&#45;&gt;DecisionSummaryVersion -->
<g id="edge14" class="edge"><title>DecisionByBody&#45;&gt;DecisionSummaryVersion</title>
<path fill="none" stroke="black" d="M384.581,-259.409C382.645,-273.604 380.378,-290.23 378.44,-304.443"/>
<text text-anchor="middle" x="373.19" y="-290.443" font-family="Times,serif" font-size="14.00">1 </text>
<text text-anchor="middle" x="379.331" y="-262.209" font-family="Times,serif" font-size="14.00">* </text>
</g>
<!-- DocumentVersion -->
<g id="node8" class="node"><title>DocumentVersion</title>
<g id="a_node8"><a xlink:href="javascript:Action.selectClass(&quot;DocumentVersion&quot;);" xlink:title="class DocumentVersion
">
<polygon fill="none" stroke="black" points="-0.810547,-296.4 -0.810547,-379.6 152.811,-379.6 152.811,-296.4 -0.810547,-296.4"/>
<text text-anchor="middle" x="76" y="-361.6" font-family="Times,serif" font-size="14.00">DocumentVersion</text>
<polyline fill="none" stroke="black" points="-0.810547,-354.8 152.811,-354.8 "/>
<text text-anchor="start" x="7.18945" y="-336.8" font-family="Times,serif" font-size="14.00">versionNumber : Integer</text>
<text text-anchor="start" x="7.18945" y="-320" font-family="Times,serif" font-size="14.00">dateCreated : Date</text>
<text text-anchor="start" x="7.18945" y="-303.2" font-family="Times,serif" font-size="14.00">filename : String</text>
</a>
</g>
</g>
<!-- DecisionByBody&#45;&gt;DocumentVersion -->
<g id="edge15" class="edge"><title>DecisionByBody&#45;&gt;DocumentVersion</title>
<path fill="none" stroke="black" d="M318.282,-245.548C273.02,-258.139 213.364,-276.079 162,-296 159.07,-297.136 156.101,-298.33 153.115,-299.566"/>
<text text-anchor="middle" x="223.3" y="-285.566" font-family="Times,serif" font-size="14.00">* documentsForDecision</text>
<text text-anchor="middle" x="269.488" y="-231.548" font-family="Times,serif" font-size="14.00">* usedInDecision</text>
</g>
<!-- DecisionByBody&#45;&gt;DecisionByBody -->
<g id="edge16" class="edge"><title>DecisionByBody&#45;&gt;DecisionByBody</title>
<path fill="none" stroke="black" d="M459.778,-208.404C470.068,-211.197 477,-217.062 477,-226 477,-234.938 470.068,-240.803 459.778,-243.596"/>
<text text-anchor="middle" x="484.079" y="-229.596" font-family="Times,serif" font-size="14.00">0..1 next</text>
<text text-anchor="middle" x="496.135" y="-194.404" font-family="Times,serif" font-size="14.00">0..1 previous</text>
</g>
<!-- ChangeRequest -->
<g id="node10" class="node"><title>ChangeRequest</title>
<g id="a_node10"><a xlink:href="javascript:Action.selectClass(&quot;ChangeRequest&quot;);" xlink:title="class ChangeRequest
Requirements for the above

Many organization have decisions to make that are made by various committees in a hierarchical manner. Committees exist at various levels. For example, there might be a departmental committee that makes a decision, and passes the decision up to a division council for further approval, and that then passes the result to the board of directors for final approval.

Some committees might consist of a single individual, e.g. a department head or director.

The system you will model needs to be able to handle any kind of organization; the committees or individuals will have different names in each organization. In a university, for example, there might be many levels: Department curriculum committee, department council, faculty curriculum committee, faculty council, undergraduate council and Senate.

Decisions are of various types, with each type having an importance levels. Based on its importance, a decision only needs to be approved up to a certain level in the hierarchy. For example, the decision about which courses to offer in a given year might only need to be approved by the department curriculum committee, but a new program of studies might need to be approved by the Senate (and every level from department curriculum committee up to Senate). In a company, an expense less than $1000 might need approval by a department head. Expenses of over $1000000 might need approval by the Board of Directors.

Each decision has a &#39;short summary&#39; that describes the decision. Examples might be: &#39;Purchase Photocopier model AB309 from Xerox for $2570&#39; or &#39;Create course SEG2104 with title: &quot;Model driven development&quot;, and description: &#39;Model driven development using Umple&#39;, and prerequisites: &quot;SEG2105&quot;&#39;

Short summaries can have multiple versions (as changes are made).

Each decision has associated with it a set of documents. Each document has an id, a filename, a type (MS Word, Excel, Pdf etc.) and a set of versions.

When a committee approves a decision, it does so by approving the short summary, and possibly modifying the set of documents by adding new versions of existing documents or adding new documents.

A committee might turn down a decision based on one version of a document and request a list of change requests that are simple blocks of text. Users or other committees may add comments to the change requests and may create new versions of documents and an updated version of the short summary. A decision may therefore go up the hierarchy, be rejected, come back down for revisions, go back up again, back down again, and eventually be approved at the highest needed level, or rejected or dropped at any level.

It is also possible for a committee to split a decision into separate decisions, or merge two decisions together, or approve one decision conditional on approval of one or more other decisions.

Committees have members. Each member has a start and end date on the committee. Each document has a set of authors. Each version has a date and a set of authors.
">
<polygon fill="none" stroke="black" points="171.065,-320 171.065,-356 274.935,-356 274.935,-320 171.065,-320"/>
<text text-anchor="middle" x="223" y="-332.5" font-family="Times,serif" font-size="14.00">ChangeRequest</text>
</a>
</g>
</g>
<!-- DecisionByBody&#45;&gt;ChangeRequest -->
<g id="edge17" class="edge"><title>DecisionByBody&#45;&gt;ChangeRequest</title>
<path fill="none" stroke="black" d="M339.522,-259.363C321.962,-270.888 302.076,-283.987 284,-296 275.153,-301.88 265.609,-308.271 256.757,-314.22"/>
<polygon fill="black" stroke="black" points="248.187,-319.985 253.972,-310.67 252.336,-317.194 256.484,-314.403 256.484,-314.403 256.484,-314.403 252.336,-317.194 258.996,-318.137 248.187,-319.985 248.187,-319.985"/>
<text text-anchor="middle" x="242.937" y="-305.985" font-family="Times,serif" font-size="14.00">* </text>
<text text-anchor="middle" x="327.272" y="-262.163" font-family="Times,serif" font-size="14.00">0..1 </text>
</g>
<!-- DecisionByBody&#45;&gt;Decision -->
<g id="edge18" class="edge"><title>DecisionByBody&#45;&gt;Decision</title>
<path fill="none" stroke="black" d="M411.541,-192.586C418.057,-180.668 424.798,-167.18 430.191,-155.273"/>
<text text-anchor="middle" x="318.01" y="-158.073" font-family="Times,serif" font-size="14.00">* onlyApprovedConditionalOnDecision</text>
<text text-anchor="middle" x="406.291" y="-178.586" font-family="Times,serif" font-size="14.00">* </text>
</g>
<!-- Document -->
<g id="node7" class="node"><title>Document</title>
<g id="a_node7"><a xlink:href="javascript:Action.selectClass(&quot;Document&quot;);" xlink:title="class Document
">
<polygon fill="none" stroke="black" points="21.4404,-192.8 21.4404,-259.2 130.56,-259.2 130.56,-192.8 21.4404,-192.8"/>
<text text-anchor="middle" x="76" y="-241.2" font-family="Times,serif" font-size="14.00">Document</text>
<polyline fill="none" stroke="black" points="21.4404,-234.4 130.56,-234.4 "/>
<text text-anchor="start" x="29.4404" y="-216.4" font-family="Times,serif" font-size="14.00">id : String</text>
<text text-anchor="start" x="29.4404" y="-199.6" font-family="Times,serif" font-size="14.00">docType : String</text>
</a>
</g>
</g>
<!-- Document&#45;&gt;DocumentVersion -->
<g id="edge19" class="edge"><title>Document&#45;&gt;DocumentVersion</title>
<path fill="none" stroke="black" d="M76,-259.409C76,-270.943 76,-284.081 76,-296.226"/>
<text text-anchor="middle" x="47.4189" y="-282.226" font-family="Times,serif" font-size="14.00">* versions</text>
<text text-anchor="middle" x="70.75" y="-262.209" font-family="Times,serif" font-size="14.00">1 </text>
</g>
<!-- DocumentVersion&#45;&gt;Person -->
<g id="edge20" class="edge"><title>DocumentVersion&#45;&gt;Person</title>
<path fill="none" stroke="black" d="M95.9791,-379.631C113.433,-418.914 136,-480.608 136,-537 136,-537 136,-537 136,-635 136,-723.238 239.159,-780.973 301.216,-807.721"/>
<text text-anchor="middle" x="275.359" y="-793.721" font-family="Times,serif" font-size="14.00">* authors</text>
<text text-anchor="middle" x="90.7291" y="-382.431" font-family="Times,serif" font-size="14.00">* </text>
</g>
<!-- Annotation -->
<g id="node9" class="node"><title>Annotation</title>
<g id="a_node9"><a xlink:href="javascript:Action.selectClass(&quot;Annotation&quot;);" xlink:title="class Annotation
">
<polygon fill="none" stroke="black" points="249.745,-504.8 249.745,-571.2 358.255,-571.2 358.255,-504.8 249.745,-504.8"/>
<text text-anchor="middle" x="304" y="-553.2" font-family="Times,serif" font-size="14.00">Annotation</text>
<polyline fill="none" stroke="black" points="249.745,-546.4 358.255,-546.4 "/>
<text text-anchor="start" x="257.745" y="-528.4" font-family="Times,serif" font-size="14.00">text : String</text>
<text text-anchor="start" x="257.745" y="-511.6" font-family="Times,serif" font-size="14.00">dateMade : Date</text>
</a>
</g>
</g>
<!-- Annotation&#45;&gt;Person -->
<g id="edge21" class="edge"><title>Annotation&#45;&gt;Person</title>
<path fill="none" stroke="black" d="M305.127,-571.381C307.153,-615.403 312.638,-696.401 327,-764 328.918,-773.03 331.689,-782.602 334.56,-791.42"/>
<polygon fill="black" stroke="black" points="337.803,-800.987 330.331,-792.962 336.198,-796.252 334.592,-791.517 334.592,-791.517 334.592,-791.517 336.198,-796.252 338.854,-790.072 337.803,-800.987 337.803,-800.987"/>
<text text-anchor="middle" x="386.598" y="-786.987" font-family="Times,serif" font-size="14.00">0..1 madeByUser</text>
<text text-anchor="middle" x="299.877" y="-574.181" font-family="Times,serif" font-size="14.00">* </text>
</g>
<!-- Annotation&#45;&gt;DecisionMakingBody -->
<g id="edge22" class="edge"><title>Annotation&#45;&gt;DecisionMakingBody</title>
<path fill="none" stroke="black" d="M338.758,-571.349C349.411,-581.264 361.102,-592.145 371.658,-601.969"/>
<polygon fill="black" stroke="black" points="379.113,-608.907 368.727,-605.388 375.453,-605.501 371.793,-602.094 371.793,-602.094 371.793,-602.094 375.453,-605.501 374.859,-598.8 379.113,-608.907 379.113,-608.907"/>
<text text-anchor="middle" x="328.366" y="-594.907" font-family="Times,serif" font-size="14.00">0..1 madeByBody</text>
<text text-anchor="middle" x="333.508" y="-574.149" font-family="Times,serif" font-size="14.00">* </text>
</g>
<!-- ChangeRequest&#45;&gt;Annotation -->
<g id="edge1" class="edge"><title>ChangeRequest&#45;&gt;Annotation</title>
<path fill="none" stroke="black" d="M223.756,-356.162C225.607,-382.173 231.99,-432.322 254,-468 262.618,-481.969 278.443,-493.237 288.305,-499.333"/>
<polygon fill="none" stroke="black" points="286.581,-502.379 297,-504.3 290.053,-496.3 286.581,-502.379"/>
</g>
<!-- Comment -->
<g id="node11" class="node"><title>Comment</title>
<g id="a_node11"><a xlink:href="javascript:Action.selectClass(&quot;Comment&quot;);" xlink:title="class Comment
A comment can just be applied to a ChangeRequest
">
<polygon fill="none" stroke="black" points="263.39,-424 263.39,-460 334.61,-460 334.61,-424 263.39,-424"/>
<text text-anchor="middle" x="299" y="-436.5" font-family="Times,serif" font-size="14.00">Comment</text>
</a>
</g>
</g>
<!-- ChangeRequest&#45;&gt;Comment -->
<g id="edge23" class="edge"><title>ChangeRequest&#45;&gt;Comment</title>
<path fill="none" stroke="black" d="M235.892,-356.303C248.085,-372.667 266.52,-397.409 280.322,-415.932"/>
<polygon fill="black" stroke="black" points="286.298,-423.953 276.715,-418.622 283.311,-419.943 280.323,-415.934 280.323,-415.934 280.323,-415.934 283.311,-419.943 283.932,-413.245 286.298,-423.953 286.298,-423.953"/>
<text text-anchor="middle" x="281.048" y="-409.953" font-family="Times,serif" font-size="14.00">* </text>
<text text-anchor="middle" x="223.642" y="-359.103" font-family="Times,serif" font-size="14.00">0..1 </text>
</g>
<!-- Comment&#45;&gt;Annotation -->
<g id="edge2" class="edge"><title>Comment&#45;&gt;Annotation</title>
<path fill="none" stroke="black" d="M298.443,-460.075C298.087,-470.987 297.637,-484.774 297.335,-494.029"/>
<polygon fill="none" stroke="black" points="293.828,-494.191 297,-504.3 300.824,-494.419 293.828,-494.191"/>
</g>
<!-- DecisionType&#45;&gt;ApprovalLevel -->
<g id="edge24" class="edge"><title>DecisionType&#45;&gt;ApprovalLevel</title>
<path fill="none" stroke="black" d="M520.916,-466.892C520.728,-520.727 520.273,-651.014 520.084,-704.975"/>
<text text-anchor="middle" x="613.586" y="-690.975" font-family="Times,serif" font-size="14.00">1 highestApprovalLevelRequired</text>
<text text-anchor="middle" x="515.666" y="-469.692" font-family="Times,serif" font-size="14.00">* </text>
</g>
</g>
</svg>
