<?xml version="1.0" encoding="UTF-8" standalone="no"?>
<!DOCTYPE svg PUBLIC "-//W3C//DTD SVG 1.1//EN"
 "http://www.w3.org/Graphics/SVG/1.1/DTD/svg11.dtd">
<!-- Generated by graphviz version 2.39.20140502.0445 (20140502.0445)
 -->
<!-- Title: DMMExtensionCTF Pages: 1 -->
<svg width="1084pt" height="440pt"
 viewBox="0.00 0.00 1084.00 440.00" xmlns="http://www.w3.org/2000/svg" xmlns:xlink="http://www.w3.org/1999/xlink">
<g id="graph0" class="graph" transform="scale(1 1) rotate(0) translate(4 436)">
<title>DMMExtensionCTF</title>
<polygon fill="white" stroke="none" points="-4,4 -4,-436 1080,-436 1080,4 -4,4"/>
<!-- Scenario -->
<g id="node1" class="node"><title>Scenario</title>
<g id="a_node1"><a xlink:href="javascript:Action.selectClass(&quot;Scenario&quot;);" xlink:title="class Scenario
This example refers to figure 4 of &#39;A Metamodel
for Dynamic Information Generated from Object&#45;
Oriented Systems&#39;, ATEM 2003, First International
Workshop on Meta&#45;Models and Schemas for Reverse
Engineering, in conjunction with WCRE, Victoria,
B.C., revised version published in Electronic Notes
in Theoretical Computer Science, Elsevier, Vol.
94, pp 59&#45;69.
Authors: Hamou&#45;Lhadj, A., and Lethbridge, T.C., (2003)
To load the entire DMM example at once, copy and paste all
five DMM components (DMM*) into the editor. &#160;Please note that the
position attributes of classes and associations will need to be
re&#45;adjusted, as the example has been made to display the diagrams
as separate entities.
This is a UML class diagram written in Umple
">
<polygon fill="none" stroke="black" points="22,-385.5 22,-431.5 146,-431.5 146,-385.5 22,-385.5"/>
<text text-anchor="middle" x="84" y="-416.3" font-family="Times,serif" font-size="14.00">Scenario</text>
<polyline fill="none" stroke="black" points="22,-408.5 146,-408.5 "/>
<text text-anchor="start" x="30" y="-393.3" font-family="Times,serif" font-size="14.00">description : String</text>
</a>
</g>
</g>
<!-- Trace -->
<g id="node2" class="node"><title>Trace</title>
<g id="a_node2"><a xlink:href="javascript:Action.selectClass(&quot;Trace&quot;);" xlink:title="class Trace
">
<polygon fill="none" stroke="black" points="57,-312.5 57,-348.5 111,-348.5 111,-312.5 57,-312.5"/>
<text text-anchor="middle" x="84" y="-326.8" font-family="Times,serif" font-size="14.00">Trace</text>
</a>
</g>
</g>
<!-- Trace&#45;&gt;Scenario -->
<g id="edge8" class="edge"><title>Trace&#45;&gt;Scenario</title>
<g id="a_edge8"><a xlink:title="Trace * &#160;&#45;&#45; 0..1 &#160;Scenario">
<path fill="none" stroke="black" d="M84,-348.746C84,-359.607 84,-373.731 84,-385.409"/>
</a>
</g>
<text text-anchor="middle" x="71.5" y="-374.209" font-family="Times,serif" font-size="14.00">0..1 </text>
<text text-anchor="middle" x="78.5" y="-352.546" font-family="Times,serif" font-size="14.00">* </text>
</g>
<!-- RoutineCallTrace -->
<g id="node3" class="node"><title>RoutineCallTrace</title>
<g id="a_node3"><a xlink:href="javascript:Action.selectClass(&quot;RoutineCallTrace&quot;);" xlink:title="class RoutineCallTrace
">
<polygon fill="none" stroke="black" points="26,-234.5 26,-270.5 142,-270.5 142,-234.5 26,-234.5"/>
<text text-anchor="middle" x="84" y="-248.8" font-family="Times,serif" font-size="14.00">RoutineCallTrace</text>
</a>
</g>
</g>
<!-- RoutineCallTrace&#45;&gt;Trace -->
<g id="edge1" class="edge"><title>RoutineCallTrace&#45;&gt;Trace</title>
<path fill="none" stroke="black" d="M84,-270.746C84,-279.977 84,-291.565 84,-302.005"/>
<polygon fill="none" stroke="black" points="80.5001,-302.323 84,-312.323 87.5001,-302.323 80.5001,-302.323"/>
</g>
<!-- ComprehensionUnitInitiator -->
<g id="node7" class="node"><title>ComprehensionUnitInitiator</title>
<g id="a_node7"><a xlink:href="javascript:Action.selectClass(&quot;ComprehensionUnitInitiator&quot;);" xlink:title="class ComprehensionUnitInitiator
">
<polygon fill="none" stroke="black" points="477.5,-312.5 477.5,-348.5 652.5,-348.5 652.5,-312.5 477.5,-312.5"/>
<text text-anchor="middle" x="565" y="-326.8" font-family="Times,serif" font-size="14.00">ComprehensionUnitInitiator</text>
</a>
</g>
</g>
<!-- RoutineCallTrace&#45;&gt;ComprehensionUnitInitiator -->
<g id="edge9" class="edge"><title>RoutineCallTrace&#45;&gt;ComprehensionUnitInitiator</title>
<g id="a_edge9"><a xlink:title="RoutineCallTrace 0..1 &#160;&#45;&gt; 1 root ComprehensionUnitInitiator">
<path fill="none" stroke="black" d="M130.888,-270.531C137.58,-272.584 144.423,-274.486 151,-276 257.721,-300.566 382.697,-314.771 467.195,-322.288"/>
<polygon fill="black" stroke="black" points="477.295,-323.172 466.94,-326.783 472.314,-322.736 467.333,-322.3 467.333,-322.3 467.333,-322.3 472.314,-322.736 467.725,-317.817 477.295,-323.172 477.295,-323.172"/>
</a>
</g>
<text text-anchor="middle" x="460.295" y="-311.972" font-family="Times,serif" font-size="14.00">1 root</text>
<text text-anchor="middle" x="118.388" y="-274.331" font-family="Times,serif" font-size="14.00">0..1 </text>
</g>
<!-- MethodInvocationTrace -->
<g id="node4" class="node"><title>MethodInvocationTrace</title>
<g id="a_node4"><a xlink:href="javascript:Action.selectClass(&quot;MethodInvocationTrace&quot;);" xlink:title="class MethodInvocationTrace
">
<polygon fill="none" stroke="black" points="0,-156.5 0,-192.5 152,-192.5 152,-156.5 0,-156.5"/>
<text text-anchor="middle" x="76" y="-170.8" font-family="Times,serif" font-size="14.00">MethodInvocationTrace</text>
</a>
</g>
</g>
<!-- MethodInvocationTrace&#45;&gt;RoutineCallTrace -->
<g id="edge2" class="edge"><title>MethodInvocationTrace&#45;&gt;RoutineCallTrace</title>
<path fill="none" stroke="black" d="M77.8153,-192.746C78.7973,-202.074 80.0326,-213.809 81.1405,-224.335"/>
<polygon fill="none" stroke="black" points="77.6642,-224.744 82.1919,-234.323 84.6257,-224.011 77.6642,-224.744"/>
</g>
<!-- PatternOccurrence -->
<g id="node5" class="node"><title>PatternOccurrence</title>
<g id="a_node5"><a xlink:href="javascript:Action.selectClass(&quot;PatternOccurrence&quot;);" xlink:title="class PatternOccurrence
">
<polygon fill="none" stroke="black" points="170.5,-156.5 170.5,-192.5 291.5,-192.5 291.5,-156.5 170.5,-156.5"/>
<text text-anchor="middle" x="231" y="-170.8" font-family="Times,serif" font-size="14.00">PatternOccurrence</text>
</a>
</g>
</g>
<!-- PatternOccurrence&#45;&gt;RoutineCallTrace -->
<g id="edge10" class="edge"><title>PatternOccurrence&#45;&gt;RoutineCallTrace</title>
<g id="a_edge10"><a xlink:title="PatternOccurrence * &#160;&#45;&#45; 1 &#160;RoutineCallTrace">
<path fill="none" stroke="black" d="M117.134,-234.37 141.292,-221.88 173.885,-205.029 198.01,-192.556"/>
</a>
</g>
<text text-anchor="middle" x="111.634" y="-223.17" font-family="Times,serif" font-size="14.00">1 </text>
<text text-anchor="middle" x="192.51" y="-196.356" font-family="Times,serif" font-size="14.00">* </text>
</g>
<!-- TracePattern -->
<g id="node6" class="node"><title>TracePattern</title>
<g id="a_node6"><a xlink:href="javascript:Action.selectClass(&quot;TracePattern&quot;);" xlink:title="class TracePattern
">
<polygon fill="none" stroke="black" points="160,-229.5 160,-275.5 284,-275.5 284,-229.5 160,-229.5"/>
<text text-anchor="middle" x="222" y="-260.3" font-family="Times,serif" font-size="14.00">TracePattern</text>
<polyline fill="none" stroke="black" points="160,-252.5 284,-252.5 "/>
<text text-anchor="start" x="168" y="-237.3" font-family="Times,serif" font-size="14.00">description : String</text>
</a>
</g>
</g>
<!-- PatternOccurrence&#45;&gt;TracePattern -->
<g id="edge11" class="edge"><title>PatternOccurrence&#45;&gt;TracePattern</title>
<g id="a_edge11"><a xlink:title="PatternOccurrence * &#160;&#45;&gt; 1 &#160;TracePattern">
<path fill="none" stroke="black" d="M225.802,-219.398 226.885,-210.251 228.023,-200.637 228.958,-192.746"/>
<polygon fill="black" stroke="black" points="224.616,-229.409 221.323,-218.949 225.204,-224.444 225.792,-219.479 225.792,-219.479 225.792,-219.479 225.204,-224.444 230.261,-220.008 224.616,-229.409 224.616,-229.409"/>
</a>
</g>
<text text-anchor="middle" x="219.116" y="-218.209" font-family="Times,serif" font-size="14.00">1 </text>
<text text-anchor="middle" x="223.458" y="-196.546" font-family="Times,serif" font-size="14.00">* </text>
</g>
<!-- PatternOccurrence&#45;&gt;ComprehensionUnitInitiator -->
<g id="edge12" class="edge"><title>PatternOccurrence&#45;&gt;ComprehensionUnitInitiator</title>
<g id="a_edge12"><a xlink:title="PatternOccurrence 0..1 &#160;&#45;&gt; 1 initiator ComprehensionUnitInitiator">
<path fill="none" stroke="black" d="M252.794,-192.683C265.082,-202.762 280.439,-216.03 293,-229 311.688,-248.296 308.21,-261.781 331,-276 371.759,-301.431 423.261,-314.806 467.565,-321.828"/>
<polygon fill="black" stroke="black" points="477.486,-323.314 466.929,-326.283 472.541,-322.573 467.596,-321.832 467.596,-321.832 467.596,-321.832 472.541,-322.573 468.263,-317.382 477.486,-323.314 477.486,-323.314"/>
</a>
</g>
<text text-anchor="middle" x="449.986" y="-327.114" font-family="Times,serif" font-size="14.00">1 initiator</text>
<text text-anchor="middle" x="265.294" y="-196.483" font-family="Times,serif" font-size="14.00">0..1 </text>
</g>
<!-- TraceEdge -->
<g id="node8" class="node"><title>TraceEdge</title>
<g id="a_node8"><a xlink:href="javascript:Action.selectClass(&quot;TraceEdge&quot;);" xlink:title="class TraceEdge
">
<polygon fill="none" stroke="black" points="580,-229.5 580,-275.5 780,-275.5 780,-229.5 580,-229.5"/>
<text text-anchor="middle" x="680" y="-260.3" font-family="Times,serif" font-size="14.00">TraceEdge</text>
<polyline fill="none" stroke="black" points="580,-252.5 780,-252.5 "/>
<text text-anchor="start" x="588" y="-237.3" font-family="Times,serif" font-size="14.00">repetitionsDueToLoops : Integer</text>
</a>
</g>
</g>
<!-- TraceEdge&#45;&gt;ComprehensionUnitInitiator -->
<g id="edge13" class="edge"><title>TraceEdge&#45;&gt;ComprehensionUnitInitiator</title>
<g id="a_edge13"><a xlink:title="TraceEdge * trace &#45;&#45; 1 parent ComprehensionUnitInitiator">
<path fill="none" stroke="black" d="M585.012,-312.484 600.274,-301.622 621.596,-287.429 640.227,-275.687"/>
</a>
</g>
<text text-anchor="middle" x="562.012" y="-301.284" font-family="Times,serif" font-size="14.00">1 parent</text>
<text text-anchor="middle" x="621.227" y="-279.487" font-family="Times,serif" font-size="14.00">* trace</text>
</g>
<!-- TraceEdge&#45;&gt;ComprehensionUnitInitiator -->
<g id="edge14" class="edge"><title>TraceEdge&#45;&gt;ComprehensionUnitInitiator</title>
<g id="a_edge14"><a xlink:title="TraceEdge 1 &#160;&#45;&#45; 1 child ComprehensionUnitInitiator">
<path fill="none" stroke="black" d="M596.484,-312.484 614.093,-301.622 635.725,-287.429 652.629,-275.687"/>
</a>
</g>
<text text-anchor="middle" x="615.984" y="-301.284" font-family="Times,serif" font-size="14.00">1 child</text>
<text text-anchor="middle" x="647.129" y="-279.487" font-family="Times,serif" font-size="14.00">1 </text>
</g>
<!-- RoutineCallNode -->
<g id="node9" class="node"><title>RoutineCallNode</title>
<g id="a_node9"><a xlink:href="javascript:Action.selectClass(&quot;RoutineCallNode&quot;);" xlink:title="class RoutineCallNode
">
<polygon fill="none" stroke="black" points="917,-234.5 917,-270.5 1031,-270.5 1031,-234.5 917,-234.5"/>
<text text-anchor="middle" x="974" y="-248.8" font-family="Times,serif" font-size="14.00">RoutineCallNode</text>
</a>
</g>
</g>
<!-- RoutineCallNode&#45;&gt;ComprehensionUnitInitiator -->
<g id="edge3" class="edge"><title>RoutineCallNode&#45;&gt;ComprehensionUnitInitiator</title>
<path fill="none" stroke="black" d="M595.065,-311.939 634.174,-309.628 779.688,-299.826 897,-276 904.507,-274.475 912.342,-272.567 920.018,-270.511"/>
<polygon fill="none" stroke="black" points="594.79,-308.448 585,-312.5 595.179,-315.438 594.79,-308.448"/>
</g>
<!-- BehaviouralElement -->
<g id="node10" class="node"><title>BehaviouralElement</title>
<g id="a_node10"><a xlink:href="javascript:Action.selectClass(&quot;BehaviouralElement&quot;);" xlink:title="class BehaviouralElement
">
<polygon fill="none" stroke="black" points="908,-312.5 908,-348.5 1040,-348.5 1040,-312.5 908,-312.5"/>
<text text-anchor="middle" x="974" y="-326.8" font-family="Times,serif" font-size="14.00">BehaviouralElement</text>
</a>
</g>
</g>
<!-- RoutineCallNode&#45;&gt;BehaviouralElement -->
<g id="edge15" class="edge"><title>RoutineCallNode&#45;&gt;BehaviouralElement</title>
<g id="a_edge15"><a xlink:title="RoutineCallNode * &#160;&#45;&#45; 0..1 &#160;BehaviouralElement">
<path fill="none" stroke="black" d="M974,-270.746C974,-283.183 974,-299.901 974,-312.323"/>
</a>
</g>
<text text-anchor="middle" x="961.5" y="-301.123" font-family="Times,serif" font-size="14.00">0..1 </text>
<text text-anchor="middle" x="968.5" y="-274.546" font-family="Times,serif" font-size="14.00">* </text>
</g>
<!-- ControlNode -->
<g id="node11" class="node"><title>ControlNode</title>
<g id="a_node11"><a xlink:href="javascript:Action.selectClass(&quot;ControlNode&quot;);" xlink:title="class ControlNode
">
<polygon fill="none" stroke="black" points="798,-234.5 798,-270.5 888,-270.5 888,-234.5 798,-234.5"/>
<text text-anchor="middle" x="843" y="-248.8" font-family="Times,serif" font-size="14.00">ControlNode</text>
</a>
</g>
</g>
<!-- ControlNode&#45;&gt;ComprehensionUnitInitiator -->
<g id="edge4" class="edge"><title>ControlNode&#45;&gt;ComprehensionUnitInitiator</title>
<path fill="none" stroke="black" d="M595.371,-311.452 625.675,-308.22 716.511,-297.31 789,-276 794.262,-274.453 799.706,-272.558 805.023,-270.53"/>
<polygon fill="none" stroke="black" points="594.598,-308.012 585,-312.5 595.301,-314.977 594.598,-308.012"/>
</g>
<!-- RecursionOccurrence -->
<g id="node12" class="node"><title>RecursionOccurrence</title>
<g id="a_node12"><a xlink:href="javascript:Action.selectClass(&quot;RecursionOccurrence&quot;);" xlink:title="class RecursionOccurrence
Positioning
">
<polygon fill="none" stroke="black" points="340,-229.5 340,-275.5 562,-275.5 562,-229.5 340,-229.5"/>
<text text-anchor="middle" x="451" y="-260.3" font-family="Times,serif" font-size="14.00">RecursionOccurrence</text>
<polyline fill="none" stroke="black" points="340,-252.5 562,-252.5 "/>
<text text-anchor="start" x="348" y="-237.3" font-family="Times,serif" font-size="14.00">repetitionsDueToRecursion : Integer</text>
</a>
</g>
</g>
<!-- RecursionOccurrence&#45;&gt;ComprehensionUnitInitiator -->
<g id="edge5" class="edge"><title>RecursionOccurrence&#45;&gt;ComprehensionUnitInitiator</title>
<path fill="none" stroke="black" d="M494.718,-275.637C523.299,-288.52 558.243,-303.405 575.227,-309.581"/>
<polygon fill="none" stroke="black" points="574.417,-312.992 585,-312.5 576.42,-306.285 574.417,-312.992"/>
</g>
<!-- RecursionOccurrence&#45;&gt;ComprehensionUnitInitiator -->
<g id="edge16" class="edge"><title>RecursionOccurrence&#45;&gt;ComprehensionUnitInitiator</title>
<g id="a_edge16"><a xlink:title="RecursionOccurrence 0..1 repeatedUnit &#45;&gt; 1 &#160;ComprehensionUnitInitiator">
<path fill="none" stroke="black" d="M507.837,-275.637C534.044,-286.914 562.34,-299.724 576.415,-306.886"/>
<polygon fill="black" stroke="black" points="585.351,-312.442 574.483,-310.984 581.105,-309.802 576.859,-307.162 576.859,-307.162 576.859,-307.162 581.105,-309.802 579.235,-303.34 585.351,-312.442 585.351,-312.442"/>
</a>
</g>
<text text-anchor="middle" x="590.851" y="-301.242" font-family="Times,serif" font-size="14.00">1 </text>
<text text-anchor="middle" x="459.337" y="-279.437" font-family="Times,serif" font-size="14.00">0..1 repeatedUnit</text>
</g>
<!-- MethodInvocationNode -->
<g id="node13" class="node"><title>MethodInvocationNode</title>
<g id="a_node13"><a xlink:href="javascript:Action.selectClass(&quot;MethodInvocationNode&quot;);" xlink:title="class MethodInvocationNode
">
<polygon fill="none" stroke="black" points="921,-156.5 921,-192.5 1071,-192.5 1071,-156.5 921,-156.5"/>
<text text-anchor="middle" x="996" y="-170.8" font-family="Times,serif" font-size="14.00">MethodInvocationNode</text>
</a>
</g>
</g>
<!-- MethodInvocationNode&#45;&gt;RoutineCallNode -->
<g id="edge6" class="edge"><title>MethodInvocationNode&#45;&gt;RoutineCallNode</title>
<path fill="none" stroke="black" d="M981.769,-224.663 984.84,-214.054 988.279,-202.171 991.008,-192.746"/>
<polygon fill="none" stroke="black" points="978.391,-223.744 978.972,-234.323 985.115,-225.69 978.391,-223.744"/>
</g>
<!-- SequenceControlNode -->
<g id="node14" class="node"><title>SequenceControlNode</title>
<g id="a_node14"><a xlink:href="javascript:Action.selectClass(&quot;SequenceControlNode&quot;);" xlink:title="class SequenceControlNode
">
<polygon fill="none" stroke="black" points="759.5,-156.5 759.5,-192.5 902.5,-192.5 902.5,-156.5 759.5,-156.5"/>
<text text-anchor="middle" x="831" y="-170.8" font-family="Times,serif" font-size="14.00">SequenceControlNode</text>
</a>
</g>
</g>
<!-- SequenceControlNode&#45;&gt;ControlNode -->
<g id="edge7" class="edge"><title>SequenceControlNode&#45;&gt;ControlNode</title>
<path fill="none" stroke="black" d="M833.723,-192.746C835.196,-202.074 837.049,-213.809 838.711,-224.335"/>
<polygon fill="none" stroke="black" points="835.271,-224.991 840.288,-234.323 842.185,-223.899 835.271,-224.991"/>
</g>
<!-- CTFObject -->
<g id="node15" class="node"><title>CTFObject</title>
<g id="a_node15"><a xlink:href="javascript:Action.selectClass(&quot;CTFObject&quot;);" xlink:title="class CTFObject
">
<polygon fill="none" stroke="black" points="940.5,-73.5 940.5,-119.5 1051.5,-119.5 1051.5,-73.5 940.5,-73.5"/>
<text text-anchor="middle" x="996" y="-104.3" font-family="Times,serif" font-size="14.00">CTFObject</text>
<polyline fill="none" stroke="black" points="940.5,-96.5 1051.5,-96.5 "/>
<text text-anchor="start" x="948.5" y="-81.3" font-family="Times,serif" font-size="14.00">objectID : String</text>
</a>
</g>
</g>
<!-- CTFObject&#45;&gt;MethodInvocationNode -->
<g id="edge17" class="edge"><title>CTFObject&#45;&gt;MethodInvocationNode</title>
<g id="a_edge17"><a xlink:title="CTFObject 0..1 &#160;&#45;&#45; * invokes MethodInvocationNode">
<path fill="none" stroke="black" d="M996,-119.891C996,-131.451 996,-145.342 996,-156.088"/>
</a>
</g>
<text text-anchor="middle" x="968.5" y="-144.888" font-family="Times,serif" font-size="14.00">* invokes</text>
<text text-anchor="middle" x="983.5" y="-123.691" font-family="Times,serif" font-size="14.00">0..1 </text>
</g>
<!-- CTFClass -->
<g id="node16" class="node"><title>CTFClass</title>
<g id="a_node16"><a xlink:href="javascript:Action.selectClass(&quot;CTFClass&quot;);" xlink:title="class CTFClass
">
<polygon fill="none" stroke="black" points="959.5,-0.5 959.5,-36.5 1032.5,-36.5 1032.5,-0.5 959.5,-0.5"/>
<text text-anchor="middle" x="996" y="-14.8" font-family="Times,serif" font-size="14.00">CTFClass</text>
</a>
</g>
</g>
<!-- CTFClass&#45;&gt;CTFObject -->
<g id="edge18" class="edge"><title>CTFClass&#45;&gt;CTFObject</title>
<g id="a_edge18"><a xlink:title="CTFClass 0..1 instanceOf &#45;&#45; * instancedBy CTFObject">
<path fill="none" stroke="black" d="M996,-36.7456C996,-47.6068 996,-61.7311 996,-73.4092"/>
</a>
</g>
<text text-anchor="middle" x="1036" y="-62.2092" font-family="Times,serif" font-size="14.00">* instancedBy</text>
<text text-anchor="middle" x="953" y="-40.5456" font-family="Times,serif" font-size="14.00">0..1 instanceOf</text>
</g>
</g>
</svg>
