<?xml version="1.0" encoding="UTF-8" standalone="no"?>
<!DOCTYPE svg PUBLIC "-//W3C//DTD SVG 1.1//EN"
 "http://www.w3.org/Graphics/SVG/1.1/DTD/svg11.dtd">
<!-- Generated by graphviz version 2.29.20121108.1600 (20121108.1600)
 -->
<!-- Title: DMMExtensionCTF Pages: 1 -->
<svg width="1072pt" height="458pt"
 viewBox="0.00 0.00 1072.00 458.00" xmlns="http://www.w3.org/2000/svg" xmlns:xlink="http://www.w3.org/1999/xlink">
<g id="graph0" class="graph" transform="scale(1 1) rotate(0) translate(4 454)">
<title>DMMExtensionCTF</title>
<polygon fill="white" stroke="white" points="-4,5 -4,-454 1069,-454 1069,5 -4,5"/>
<!-- Scenario -->
<g id="node1" class="node"><title>Scenario</title>
<g id="a_node1"><a xlink:href="javascript:Action.selectClass(&quot;Scenario&quot;);" xlink:title="class Scenario
This example refers to figure 4 of &#39;A Metamodel
for Dynamic Information Generated from Object&#45;
Oriented Systems&#39;, ATEM 2003, First International
Workshop on Meta&#45;Models and Schemas for Reverse
Engineering, in conjunction with WCRE, Victoria,
B.C., revised version published in Electronic Notes
in Theoretical Computer Science, Elsevier, Vol.
94, pp 59&#45;69.
Authors: Hamou&#45;Lhadj, A., and Lethbridge, T.C., (2003)
To load the entire DMM example at once, copy and paste all
five DMM components (DMM*) into the editor. &#160;Please note that the
position attributes of classes and associations will need to be
re&#45;adjusted, as the example has been made to display the diagrams
as separate entities.
">
<polygon fill="none" stroke="black" points="21.3379,-399.2 21.3379,-448.8 144.662,-448.8 144.662,-399.2 21.3379,-399.2"/>
<text text-anchor="middle" x="83" y="-430.8" font-family="Times,serif" font-size="14.00">Scenario</text>
<polyline fill="none" stroke="black" points="21.3379,-424 144.662,-424 "/>
<text text-anchor="start" x="29.3379" y="-406" font-family="Times,serif" font-size="14.00">description : String</text>
</a>
</g>
</g>
<!-- Trace -->
<g id="node2" class="node"><title>Trace</title>
<g id="a_node2"><a xlink:href="javascript:Action.selectClass(&quot;Trace&quot;);" xlink:title="class Trace
">
<polygon fill="none" stroke="black" points="56,-325 56,-361 110,-361 110,-325 56,-325"/>
<text text-anchor="middle" x="82.6851" y="-337.5" font-family="Times,serif" font-size="14.00">Trace</text>
</a>
</g>
</g>
<!-- Trace&#45;&gt;Scenario -->
<g id="edge8" class="edge"><title>Trace&#45;&gt;Scenario</title>
<path fill="none" stroke="black" d="M83,-361.142C83,-372.215 83,-386.782 83,-398.999"/>
<text text-anchor="middle" x="70.75" y="-384.999" font-family="Times,serif" font-size="14.00">0..1 </text>
<text text-anchor="middle" x="77.75" y="-363.942" font-family="Times,serif" font-size="14.00">* </text>
</g>
<!-- RoutineCallTrace -->
<g id="node3" class="node"><title>RoutineCallTrace</title>
<g id="a_node3"><a xlink:href="javascript:Action.selectClass(&quot;RoutineCallTrace&quot;);" xlink:title="class RoutineCallTrace
">
<polygon fill="none" stroke="black" points="25.4839,-244 25.4839,-280 140.516,-280 140.516,-244 25.4839,-244"/>
<text text-anchor="middle" x="83" y="-256.5" font-family="Times,serif" font-size="14.00">RoutineCallTrace</text>
</a>
</g>
</g>
<!-- RoutineCallTrace&#45;&gt;Trace -->
<g id="edge1" class="edge"><title>RoutineCallTrace&#45;&gt;Trace</title>
<path fill="none" stroke="black" d="M83,-280.142C83,-290.287 83,-303.366 83,-314.883"/>
<polygon fill="none" stroke="black" points="79.5001,-314.892 83,-324.892 86.5001,-314.892 79.5001,-314.892"/>
</g>
<!-- ComprehensionUnitInitiator -->
<g id="node7" class="node"><title>ComprehensionUnitInitiator</title>
<g id="a_node7"><a xlink:href="javascript:Action.selectClass(&quot;ComprehensionUnitInitiator&quot;);" xlink:title="class ComprehensionUnitInitiator
">
<polygon fill="none" stroke="black" points="473.679,-325 473.679,-361 648.321,-361 648.321,-325 473.679,-325"/>
<text text-anchor="middle" x="561" y="-337.5" font-family="Times,serif" font-size="14.00">ComprehensionUnitInitiator</text>
</a>
</g>
</g>
<!-- RoutineCallTrace&#45;&gt;ComprehensionUnitInitiator -->
<g id="edge9" class="edge"><title>RoutineCallTrace&#45;&gt;ComprehensionUnitInitiator</title>
<path fill="none" stroke="black" d="M123.721,-280.104C131.978,-283.093 140.682,-285.91 149,-288 254.721,-314.568 379.181,-328.586 463.423,-335.613"/>
<polygon fill="black" stroke="black" points="473.494,-336.436 463.16,-340.106 468.51,-336.029 463.527,-335.621 463.527,-335.621 463.527,-335.621 468.51,-336.029 463.893,-331.136 473.494,-336.436 473.494,-336.436"/>
<text text-anchor="middle" x="456.968" y="-322.436" font-family="Times,serif" font-size="14.00">1 root</text>
<text text-anchor="middle" x="111.471" y="-282.904" font-family="Times,serif" font-size="14.00">0..1 </text>
</g>
<!-- MethodInvocationTrace -->
<g id="node4" class="node"><title>MethodInvocationTrace</title>
<g id="a_node4"><a xlink:href="javascript:Action.selectClass(&quot;MethodInvocationTrace&quot;);" xlink:title="class MethodInvocationTrace
">
<polygon fill="none" stroke="black" points="-0.395508,-163 -0.395508,-199 150.396,-199 150.396,-163 -0.395508,-163"/>
<text text-anchor="middle" x="75" y="-175.5" font-family="Times,serif" font-size="14.00">MethodInvocationTrace</text>
</a>
</g>
</g>
<!-- MethodInvocationTrace&#45;&gt;RoutineCallTrace -->
<g id="edge2" class="edge"><title>MethodInvocationTrace&#45;&gt;RoutineCallTrace</title>
<path fill="none" stroke="black" d="M76.7359,-199.142C77.7632,-209.287 79.0877,-222.366 80.254,-233.883"/>
<polygon fill="none" stroke="black" points="76.7777,-234.295 81.2675,-243.892 83.7421,-233.59 76.7777,-234.295"/>
</g>
<!-- PatternOccurrence -->
<g id="node5" class="node"><title>PatternOccurrence</title>
<g id="a_node5"><a xlink:href="javascript:Action.selectClass(&quot;PatternOccurrence&quot;);" xlink:title="class PatternOccurrence
">
<polygon fill="none" stroke="black" points="167.92,-163 167.92,-199 288.08,-199 288.08,-163 167.92,-163"/>
<text text-anchor="middle" x="228" y="-175.5" font-family="Times,serif" font-size="14.00">PatternOccurrence</text>
</a>
</g>
</g>
<!-- PatternOccurrence&#45;&gt;RoutineCallTrace -->
<g id="edge10" class="edge"><title>PatternOccurrence&#45;&gt;RoutineCallTrace</title>
<path fill="none" stroke="black" d="M196.537,-199.142C172.216,-212.393 138.707,-230.649 114.401,-243.892"/>
<text text-anchor="middle" x="109.151" y="-229.892" font-family="Times,serif" font-size="14.00">1 </text>
<text text-anchor="middle" x="191.287" y="-201.942" font-family="Times,serif" font-size="14.00">* </text>
</g>
<!-- TracePattern -->
<g id="node6" class="node"><title>TracePattern</title>
<g id="a_node6"><a xlink:href="javascript:Action.selectClass(&quot;TracePattern&quot;);" xlink:title="class TracePattern
">
<polygon fill="none" stroke="black" points="158.338,-237.2 158.338,-286.8 281.662,-286.8 281.662,-237.2 158.338,-237.2"/>
<text text-anchor="middle" x="220" y="-268.8" font-family="Times,serif" font-size="14.00">TracePattern</text>
<polyline fill="none" stroke="black" points="158.338,-262 281.662,-262 "/>
<text text-anchor="start" x="166.338" y="-244" font-family="Times,serif" font-size="14.00">description : String</text>
</a>
</g>
</g>
<!-- PatternOccurrence&#45;&gt;TracePattern -->
<g id="edge11" class="edge"><title>PatternOccurrence&#45;&gt;TracePattern</title>
<path fill="none" stroke="black" d="M226.264,-199.142C225.441,-207.273 224.426,-217.29 223.456,-226.876"/>
<polygon fill="black" stroke="black" points="222.43,-236.999 218.961,-226.597 222.934,-232.025 223.438,-227.05 223.438,-227.05 223.438,-227.05 222.934,-232.025 227.915,-227.503 222.43,-236.999 222.43,-236.999"/>
<text text-anchor="middle" x="217.18" y="-222.999" font-family="Times,serif" font-size="14.00">1 </text>
<text text-anchor="middle" x="221.014" y="-201.942" font-family="Times,serif" font-size="14.00">* </text>
</g>
<!-- PatternOccurrence&#45;&gt;ComprehensionUnitInitiator -->
<g id="edge12" class="edge"><title>PatternOccurrence&#45;&gt;ComprehensionUnitInitiator</title>
<path fill="none" stroke="black" d="M249.962,-199.202C262.303,-209.328 277.658,-222.722 290,-236 309.668,-257.16 304.804,-272.217 329,-288 368.766,-313.939 419.524,-327.473 463.418,-334.512"/>
<polygon fill="black" stroke="black" points="473.542,-336.041 462.982,-338.997 468.598,-335.294 463.655,-334.547 463.655,-334.547 463.655,-334.547 468.598,-335.294 464.327,-330.098 473.542,-336.041 473.542,-336.041"/>
<text text-anchor="middle" x="446.13" y="-338.841" font-family="Times,serif" font-size="14.00">1 initiator</text>
<text text-anchor="middle" x="262.212" y="-202.002" font-family="Times,serif" font-size="14.00">0..1 </text>
</g>
<!-- TraceEdge -->
<g id="node8" class="node"><title>TraceEdge</title>
<g id="a_node8"><a xlink:href="javascript:Action.selectClass(&quot;TraceEdge&quot;);" xlink:title="class TraceEdge
">
<polygon fill="none" stroke="black" points="575.737,-237.2 575.737,-286.8 774.263,-286.8 774.263,-237.2 575.737,-237.2"/>
<text text-anchor="middle" x="675" y="-268.8" font-family="Times,serif" font-size="14.00">TraceEdge</text>
<polyline fill="none" stroke="black" points="575.737,-262 774.263,-262 "/>
<text text-anchor="start" x="583.737" y="-244" font-family="Times,serif" font-size="14.00">repetitionsDueToLoops : Integer</text>
</a>
</g>
</g>
<!-- TraceEdge&#45;&gt;ComprehensionUnitInitiator -->
<g id="edge13" class="edge"><title>TraceEdge&#45;&gt;ComprehensionUnitInitiator</title>
<path fill="none" stroke="black" d="M634.227,-286.917C615.721,-299.179 594.781,-313.826 579.957,-324.933"/>
<text text-anchor="middle" x="557.218" y="-310.933" font-family="Times,serif" font-size="14.00">1 parent</text>
<text text-anchor="middle" x="653.074" y="-289.717" font-family="Times,serif" font-size="14.00">* trace</text>
</g>
<!-- TraceEdge&#45;&gt;ComprehensionUnitInitiator -->
<g id="edge14" class="edge"><title>TraceEdge&#45;&gt;ComprehensionUnitInitiator</title>
<path fill="none" stroke="black" d="M646.747,-286.917C629.864,-299.179 608.531,-313.826 591.298,-324.933"/>
<text text-anchor="middle" x="610.545" y="-310.933" font-family="Times,serif" font-size="14.00">1 child</text>
<text text-anchor="middle" x="641.497" y="-272.917" font-family="Times,serif" font-size="14.00">1 </text>
</g>
<!-- RoutineCallNode -->
<g id="node9" class="node"><title>RoutineCallNode</title>
<g id="a_node9"><a xlink:href="javascript:Action.selectClass(&quot;RoutineCallNode&quot;);" xlink:title="class RoutineCallNode
">
<polygon fill="none" stroke="black" points="911.007,-244 911.007,-280 1024.99,-280 1024.99,-244 911.007,-244"/>
<text text-anchor="middle" x="968" y="-256.5" font-family="Times,serif" font-size="14.00">RoutineCallNode</text>
</a>
</g>
</g>
<!-- RoutineCallNode&#45;&gt;ComprehensionUnitInitiator -->
<g id="edge3" class="edge"><title>RoutineCallNode&#45;&gt;ComprehensionUnitInitiator</title>
<path fill="none" stroke="black" d="M919.709,-280.059C909.965,-283.052 899.726,-285.881 890,-288 773.754,-313.322 628.948,-322.422 590.019,-324.502"/>
<polygon fill="none" stroke="black" points="589.814,-321.008 580,-325 590.161,-327.999 589.814,-321.008"/>
</g>
<!-- BehaviouralElement -->
<g id="node10" class="node"><title>BehaviouralElement</title>
<g id="a_node10"><a xlink:href="javascript:Action.selectClass(&quot;BehaviouralElement&quot;);" xlink:title="class BehaviouralElement
">
<polygon fill="none" stroke="black" points="902.465,-325 902.465,-361 1033.53,-361 1033.53,-325 902.465,-325"/>
<text text-anchor="middle" x="968" y="-337.5" font-family="Times,serif" font-size="14.00">BehaviouralElement</text>
</a>
</g>
</g>
<!-- RoutineCallNode&#45;&gt;BehaviouralElement -->
<g id="edge15" class="edge"><title>RoutineCallNode&#45;&gt;BehaviouralElement</title>
<path fill="none" stroke="black" d="M968,-280.142C968,-293.393 968,-311.649 968,-324.892"/>
<text text-anchor="middle" x="955.75" y="-310.892" font-family="Times,serif" font-size="14.00">0..1 </text>
<text text-anchor="middle" x="962.75" y="-282.942" font-family="Times,serif" font-size="14.00">* </text>
</g>
<!-- ControlNode -->
<g id="node11" class="node"><title>ControlNode</title>
<g id="a_node11"><a xlink:href="javascript:Action.selectClass(&quot;ControlNode&quot;);" xlink:title="class ControlNode
">
<polygon fill="none" stroke="black" points="792.448,-244 792.448,-280 881.552,-280 881.552,-244 792.448,-244"/>
<text text-anchor="middle" x="837" y="-256.5" font-family="Times,serif" font-size="14.00">ControlNode</text>
</a>
</g>
</g>
<!-- ControlNode&#45;&gt;ComprehensionUnitInitiator -->
<g id="edge4" class="edge"><title>ControlNode&#45;&gt;ComprehensionUnitInitiator</title>
<path fill="none" stroke="black" d="M803.532,-280.083C796.85,-283.037 789.795,-285.846 783,-288 711.286,-310.73 620.627,-321.066 590.361,-324.047"/>
<polygon fill="none" stroke="black" points="589.637,-320.599 580,-325 590.279,-327.569 589.637,-320.599"/>
</g>
<!-- RecursionOccurrence -->
<g id="node12" class="node"><title>RecursionOccurrence</title>
<g id="a_node12"><a xlink:href="javascript:Action.selectClass(&quot;RecursionOccurrence&quot;);" xlink:title="class RecursionOccurrence
Positioning
">
<polygon fill="none" stroke="black" points="337.854,-237.2 337.854,-286.8 558.146,-286.8 558.146,-237.2 337.854,-237.2"/>
<text text-anchor="middle" x="448" y="-268.8" font-family="Times,serif" font-size="14.00">RecursionOccurrence</text>
<polyline fill="none" stroke="black" points="337.854,-262 558.146,-262 "/>
<text text-anchor="start" x="345.854" y="-244" font-family="Times,serif" font-size="14.00">repetitionsDueToRecursion : Integer</text>
</a>
</g>
</g>
<!-- RecursionOccurrence&#45;&gt;ComprehensionUnitInitiator -->
<g id="edge5" class="edge"><title>RecursionOccurrence&#45;&gt;ComprehensionUnitInitiator</title>
<path fill="none" stroke="black" d="M492.441,-286.971C520.275,-300.329 553.774,-315.524 570.275,-321.913"/>
<polygon fill="none" stroke="black" points="569.41,-325.311 580,-325 571.527,-318.639 569.41,-325.311"/>
</g>
<!-- RecursionOccurrence&#45;&gt;ComprehensionUnitInitiator -->
<g id="edge16" class="edge"><title>RecursionOccurrence&#45;&gt;ComprehensionUnitInitiator</title>
<path fill="none" stroke="black" d="M505.628,-286.971C531.18,-298.723 558.406,-311.897 571.872,-319.246"/>
<polygon fill="black" stroke="black" points="580.351,-324.94 569.54,-323.1 576.2,-322.153 572.049,-319.365 572.049,-319.365 572.049,-319.365 576.2,-322.153 574.558,-315.629 580.351,-324.94 580.351,-324.94"/>
<text text-anchor="middle" x="585.601" y="-310.94" font-family="Times,serif" font-size="14.00">1 </text>
<text text-anchor="middle" x="505.628" y="-289.771" font-family="Times,serif" font-size="14.00">0..1 repeatedUnit</text>
</g>
<!-- MethodInvocationNode -->
<g id="node13" class="node"><title>MethodInvocationNode</title>
<g id="a_node13"><a xlink:href="javascript:Action.selectClass(&quot;MethodInvocationNode&quot;);" xlink:title="class MethodInvocationNode
">
<polygon fill="none" stroke="black" points="915.127,-163 915.127,-199 1064.87,-199 1064.87,-163 915.127,-163"/>
<text text-anchor="middle" x="990" y="-175.5" font-family="Times,serif" font-size="14.00">MethodInvocationNode</text>
</a>
</g>
</g>
<!-- MethodInvocationNode&#45;&gt;RoutineCallNode -->
<g id="edge6" class="edge"><title>MethodInvocationNode&#45;&gt;RoutineCallNode</title>
<path fill="none" stroke="black" d="M985.226,-199.142C982.372,-209.391 978.684,-222.634 975.453,-234.235"/>
<polygon fill="none" stroke="black" points="972.075,-233.319 972.764,-243.892 978.819,-235.197 972.075,-233.319"/>
</g>
<!-- SequenceControlNode -->
<g id="node14" class="node"><title>SequenceControlNode</title>
<g id="a_node14"><a xlink:href="javascript:Action.selectClass(&quot;SequenceControlNode&quot;);" xlink:title="class SequenceControlNode
">
<polygon fill="none" stroke="black" points="754.627,-163 754.627,-199 897.373,-199 897.373,-163 754.627,-163"/>
<text text-anchor="middle" x="826" y="-175.5" font-family="Times,serif" font-size="14.00">SequenceControlNode</text>
</a>
</g>
</g>
<!-- SequenceControlNode&#45;&gt;ControlNode -->
<g id="edge7" class="edge"><title>SequenceControlNode&#45;&gt;ControlNode</title>
<path fill="none" stroke="black" d="M828.387,-199.142C829.799,-209.287 831.621,-222.366 833.224,-233.883"/>
<polygon fill="none" stroke="black" points="829.772,-234.47 834.618,-243.892 836.705,-233.504 829.772,-234.47"/>
</g>
<!-- CTFObject -->
<g id="node15" class="node"><title>CTFObject</title>
<g id="a_node15"><a xlink:href="javascript:Action.selectClass(&quot;CTFObject&quot;);" xlink:title="class CTFObject
">
<polygon fill="none" stroke="black" points="934.952,-75.2 934.952,-124.8 1045.05,-124.8 1045.05,-75.2 934.952,-75.2"/>
<text text-anchor="middle" x="990" y="-106.8" font-family="Times,serif" font-size="14.00">CTFObject</text>
<polyline fill="none" stroke="black" points="934.952,-100 1045.05,-100 "/>
<text text-anchor="start" x="942.952" y="-82" font-family="Times,serif" font-size="14.00">objectID : String</text>
</a>
</g>
</g>
<!-- CTFObject&#45;&gt;MethodInvocationNode -->
<g id="edge17" class="edge"><title>CTFObject&#45;&gt;MethodInvocationNode</title>
<path fill="none" stroke="black" d="M990,-125.132C990,-137.293 990,-151.756 990,-162.779"/>
<text text-anchor="middle" x="962.974" y="-148.779" font-family="Times,serif" font-size="14.00">* invokes</text>
<text text-anchor="middle" x="977.75" y="-127.932" font-family="Times,serif" font-size="14.00">0..1 </text>
</g>
<!-- CTFClass -->
<g id="node16" class="node"><title>CTFClass</title>
<g id="a_node16"><a xlink:href="javascript:Action.selectClass(&quot;CTFClass&quot;);" xlink:title="class CTFClass
">
<polygon fill="none" stroke="black" points="953.993,-1 953.993,-37 1026.01,-37 1026.01,-1 953.993,-1"/>
<text text-anchor="middle" x="990" y="-13.5" font-family="Times,serif" font-size="14.00">CTFClass</text>
</a>
</g>
</g>
<!-- CTFClass&#45;&gt;CTFObject -->
<g id="edge18" class="edge"><title>CTFClass&#45;&gt;CTFObject</title>
<path fill="none" stroke="black" d="M990,-37.1418C990,-48.2145 990,-62.7823 990,-74.9991"/>
<text text-anchor="middle" x="950.146" y="-60.9991" font-family="Times,serif" font-size="14.00">* instancedBy</text>
<text text-anchor="middle" x="947.429" y="-39.9418" font-family="Times,serif" font-size="14.00">0..1 instanceOf</text>
</g>
</g>
</svg>
