<?xml version="1.0" encoding="UTF-8" standalone="no"?>
<!DOCTYPE svg PUBLIC "-//W3C//DTD SVG 1.1//EN"
 "http://www.w3.org/Graphics/SVG/1.1/DTD/svg11.dtd">
<!-- Generated by graphviz version 2.29.20121108.1600 (20121108.1600)
 -->
<!-- Title: DMMModelElementHierarchy Pages: 1 -->
<svg width="1455pt" height="538pt"
 viewBox="0.00 0.00 1454.83 538.00" xmlns="http://www.w3.org/2000/svg" xmlns:xlink="http://www.w3.org/1999/xlink">
<g id="graph0" class="graph" transform="scale(1 1) rotate(0) translate(4 534)">
<title>DMMModelElementHierarchy</title>
<polygon fill="white" stroke="white" points="-4,5 -4,-534 1451.83,-534 1451.83,5 -4,5"/>
<!-- ModelElement -->
<g id="node1" class="node"><title>ModelElement</title>
<g id="a_node1"><a xlink:href="javascript:Action.selectClass(&quot;ModelElement&quot;);" xlink:title="class ModelElement
This example refers to Figures 2, 4, 5 and 6 of &#39;The Dagstuhl Middle Metamodel:
A Schema for Reverse Engineering&#39;, ATEM 2003, First International
Workshop on Meta&#45;Models and Schemas for Reverse Engineering,
WCRE, Victoria, B.C., in Electronic Notes in Theoretical Computer
Science, Elsevier, Vol. 94, pp 7&#45;18,
Authors: Lethbridge, T.C., Sander Tichelaar, and Erhard Ploedereder (2003)
To load the entire DMM example at once, copy and paste all
five DMM components (DMM*) into the editor. &#160;Please note that the
position attributes of classes and associations will need to be
re&#45;adjusted, as the example has been made to display the diagrams
as separate entities.
">
<polygon fill="none" stroke="black" points="1180.55,-479.2 1180.55,-528.8 1291.45,-528.8 1291.45,-479.2 1180.55,-479.2"/>
<text text-anchor="middle" x="1236" y="-510.8" font-family="Times,serif" font-size="14.00">ModelElement</text>
<polyline fill="none" stroke="black" points="1180.55,-504 1291.45,-504 "/>
<text text-anchor="start" x="1188.55" y="-486" font-family="Times,serif" font-size="14.00">visibility : String</text>
</a>
</g>
</g>
<!-- StructuralElement -->
<g id="node2" class="node"><title>StructuralElement</title>
<g id="a_node2"><a xlink:href="javascript:Action.selectClass(&quot;StructuralElement&quot;);" xlink:title="class StructuralElement
">
<polygon fill="none" stroke="black" points="645.072,-405 645.072,-441 762.928,-441 762.928,-405 645.072,-405"/>
<text text-anchor="middle" x="704" y="-417.5" font-family="Times,serif" font-size="14.00">StructuralElement</text>
</a>
</g>
</g>
<!-- StructuralElement&#45;&gt;ModelElement -->
<g id="edge1" class="edge"><title>StructuralElement&#45;&gt;ModelElement</title>
<path fill="none" stroke="black" d="M763.169,-430.282C884.749,-443.191 1155.96,-471.989 1211.82,-477.919"/>
<polygon fill="none" stroke="black" points="1211.69,-481.425 1222,-479 1212.43,-474.464 1211.69,-481.425"/>
</g>
<!-- BehaviouralElement -->
<g id="node3" class="node"><title>BehaviouralElement</title>
<g id="a_node3"><a xlink:href="javascript:Action.selectClass(&quot;BehaviouralElement&quot;);" xlink:title="class BehaviouralElement
">
<polygon fill="none" stroke="black" points="1108.47,-405 1108.47,-441 1239.53,-441 1239.53,-405 1108.47,-405"/>
<text text-anchor="middle" x="1174" y="-417.5" font-family="Times,serif" font-size="14.00">BehaviouralElement</text>
</a>
</g>
</g>
<!-- BehaviouralElement&#45;&gt;ModelElement -->
<g id="edge2" class="edge"><title>BehaviouralElement&#45;&gt;ModelElement</title>
<path fill="none" stroke="black" d="M1188.92,-441.101C1197.73,-451.192 1208.45,-463.473 1215.25,-471.266"/>
<polygon fill="none" stroke="black" points="1212.79,-473.767 1222,-479 1218.06,-469.164 1212.79,-473.767"/>
</g>
<!-- Invokes -->
<g id="node4" class="node"><title>Invokes</title>
<g id="a_node4"><a xlink:href="javascript:Action.selectClass(&quot;Invokes&quot;);" xlink:title="class Invokes
">
<polygon fill="none" stroke="black" points="1210.84,-291 1210.84,-327 1271.16,-327 1271.16,-291 1210.84,-291"/>
<text text-anchor="middle" x="1241" y="-303.5" font-family="Times,serif" font-size="14.00">Invokes</text>
</a>
</g>
</g>
<!-- Invokes&#45;&gt;BehaviouralElement -->
<g id="edge19" class="edge"><title>Invokes&#45;&gt;BehaviouralElement</title>
<path fill="none" stroke="black" d="M1225.81,-327.01C1210.91,-348.061 1189.58,-383.705 1179.24,-404.83"/>
<text text-anchor="middle" x="1152.22" y="-390.83" font-family="Times,serif" font-size="14.00">1 invokes</text>
<text text-anchor="middle" x="1198.01" y="-329.81" font-family="Times,serif" font-size="14.00">* invoked</text>
</g>
<!-- Invokes&#45;&gt;BehaviouralElement -->
<g id="edge20" class="edge"><title>Invokes&#45;&gt;BehaviouralElement</title>
<path fill="none" stroke="black" d="M1235.83,-327.01C1225.56,-348.061 1204.24,-383.705 1189.3,-404.83"/>
<text text-anchor="middle" x="1217.1" y="-390.83" font-family="Times,serif" font-size="14.00">1 invoked</text>
<text text-anchor="middle" x="1262.86" y="-329.81" font-family="Times,serif" font-size="14.00">* invokes</text>
</g>
<!-- Accesses -->
<g id="node5" class="node"><title>Accesses</title>
<g id="a_node5"><a xlink:href="javascript:Action.selectClass(&quot;Accesses&quot;);" xlink:title="class Accesses
Association classes
">
<polygon fill="none" stroke="black" points="709.345,-291 709.345,-327 776.655,-327 776.655,-291 709.345,-291"/>
<text text-anchor="middle" x="743" y="-303.5" font-family="Times,serif" font-size="14.00">Accesses</text>
</a>
</g>
</g>
<!-- Accesses&#45;&gt;BehaviouralElement -->
<g id="edge21" class="edge"><title>Accesses&#45;&gt;BehaviouralElement</title>
<path fill="none" stroke="black" d="M750.983,-327.203C758.167,-340.627 770.046,-358.533 786,-368 839.151,-399.54 1012.4,-413.514 1108.43,-418.967"/>
<text text-anchor="middle" x="1103.18" y="-404.967" font-family="Times,serif" font-size="14.00">1 </text>
<text text-anchor="middle" x="745.733" y="-330.003" font-family="Times,serif" font-size="14.00">* </text>
</g>
<!-- Accesses&#45;&gt;StructuralElement -->
<g id="edge22" class="edge"><title>Accesses&#45;&gt;StructuralElement</title>
<path fill="none" stroke="black" d="M737.077,-327.01C729.746,-348.061 717.335,-383.705 709.979,-404.83"/>
<text text-anchor="middle" x="704.729" y="-390.83" font-family="Times,serif" font-size="14.00">1 </text>
<text text-anchor="middle" x="731.827" y="-329.81" font-family="Times,serif" font-size="14.00">* </text>
</g>
<!-- Package -->
<g id="node6" class="node"><title>Package</title>
<g id="a_node6"><a xlink:href="javascript:Action.selectClass(&quot;Package&quot;);" xlink:title="class Package
">
<polygon fill="none" stroke="black" points="1267.68,-405 1267.68,-441 1330.32,-441 1330.32,-405 1267.68,-405"/>
<text text-anchor="middle" x="1299" y="-417.5" font-family="Times,serif" font-size="14.00">Package</text>
</a>
</g>
</g>
<!-- Package&#45;&gt;ModelElement -->
<g id="edge3" class="edge"><title>Package&#45;&gt;ModelElement</title>
<path fill="none" stroke="black" d="M1275.06,-441.101C1259.87,-451.949 1241.14,-465.328 1230.48,-472.94"/>
<polygon fill="none" stroke="black" points="1228.1,-470.34 1222,-479 1232.17,-476.036 1228.1,-470.34"/>
</g>
<!-- Package&#45;&gt;Package -->
<g id="edge23" class="edge"><title>Package&#45;&gt;Package</title>
<path fill="none" stroke="black" d="M1330.58,-408.015C1340.34,-408.317 1348,-413.312 1348,-423 1348,-432.688 1340.34,-437.683 1330.58,-437.985"/>
<text text-anchor="middle" x="1388.7" y="-423.985" font-family="Times,serif" font-size="14.00">0..1 isSubpackageOf</text>
<text text-anchor="middle" x="1335.83" y="-394.015" font-family="Times,serif" font-size="14.00">* </text>
</g>
<!-- Contains -->
<g id="node7" class="node"><title>Contains</title>
<g id="a_node7"><a xlink:href="javascript:Action.selectClass(&quot;Contains&quot;);" xlink:title="class Contains
">
<polygon fill="none" stroke="black" points="1365.11,-291 1365.11,-327 1430.89,-327 1430.89,-291 1365.11,-291"/>
<text text-anchor="middle" x="1398" y="-303.5" font-family="Times,serif" font-size="14.00">Contains</text>
</a>
</g>
</g>
<!-- Contains&#45;&gt;Package -->
<g id="edge24" class="edge"><title>Contains&#45;&gt;Package</title>
<path fill="none" stroke="black" d="M1384.8,-327.066C1375.58,-338.791 1362.84,-354.598 1351,-368 1339.8,-380.678 1326.56,-394.405 1316.25,-404.846"/>
<text text-anchor="middle" x="1292.73" y="-390.846" font-family="Times,serif" font-size="14.00">1 partOf</text>
<text text-anchor="middle" x="1358.94" y="-329.866" font-family="Times,serif" font-size="14.00">* contain</text>
</g>
<!-- Contains&#45;&gt;ModelElement -->
<g id="edge25" class="edge"><title>Contains&#45;&gt;ModelElement</title>
<path fill="none" stroke="black" d="M1396.91,-327.009C1394.32,-354.271 1385.68,-408.117 1357,-442 1339.98,-462.11 1314.69,-476.299 1291.62,-485.9"/>
<text text-anchor="middle" x="1296.87" y="-471.9" font-family="Times,serif" font-size="14.00">1 </text>
<text text-anchor="middle" x="1409.16" y="-329.809" font-family="Times,serif" font-size="14.00">0..1 </text>
</g>
<!-- Type -->
<g id="node8" class="node"><title>Type</title>
<g id="a_node8"><a xlink:href="javascript:Action.selectClass(&quot;Type&quot;);" xlink:title="class Type
">
<polygon fill="none" stroke="black" points="303,-291 303,-327 357,-327 357,-291 303,-291"/>
<text text-anchor="middle" x="329.894" y="-303.5" font-family="Times,serif" font-size="14.00">Type</text>
</a>
</g>
</g>
<!-- Type&#45;&gt;StructuralElement -->
<g id="edge4" class="edge"><title>Type&#45;&gt;StructuralElement</title>
<path fill="none" stroke="black" d="M357.267,-317.297C430.491,-336.892 629.007,-390.016 675.271,-402.396"/>
<polygon fill="none" stroke="black" points="674.435,-405.796 685,-405 676.245,-399.034 674.435,-405.796"/>
</g>
<!-- IsDefinedInTermsOf -->
<g id="node9" class="node"><title>IsDefinedInTermsOf</title>
<g id="a_node9"><a xlink:href="javascript:Action.selectClass(&quot;IsDefinedInTermsOf&quot;);" xlink:title="class IsDefinedInTermsOf
">
<polygon fill="none" stroke="black" points="-0.828613,-170 -0.828613,-206 130.829,-206 130.829,-170 -0.828613,-170"/>
<text text-anchor="middle" x="65" y="-182.5" font-family="Times,serif" font-size="14.00">IsDefinedInTermsOf</text>
</a>
</g>
</g>
<!-- IsDefinedInTermsOf&#45;&gt;Type -->
<g id="edge26" class="edge"><title>IsDefinedInTermsOf&#45;&gt;Type</title>
<path fill="none" stroke="black" d="M98.0674,-206.05C151.149,-231.114 253.957,-277.147 302.968,-297.662"/>
<text text-anchor="middle" x="268.942" y="-300.462" font-family="Times,serif" font-size="14.00">1 definedBy</text>
<text text-anchor="middle" x="64.8174" y="-208.85" font-family="Times,serif" font-size="14.00">* definesBy</text>
</g>
<!-- IsDefinedInTermsOf&#45;&gt;Type -->
<g id="edge27" class="edge"><title>IsDefinedInTermsOf&#45;&gt;Type</title>
<path fill="none" stroke="black" d="M107.869,-206.05C162.964,-229.636 256.728,-271.791 302.893,-293.776"/>
<text text-anchor="middle" x="269.643" y="-279.776" font-family="Times,serif" font-size="14.00">1 definesBy</text>
<text text-anchor="middle" x="141.895" y="-208.85" font-family="Times,serif" font-size="14.00">* definedBy</text>
</g>
<!-- Value -->
<g id="node10" class="node"><title>Value</title>
<g id="a_node10"><a xlink:href="javascript:Action.selectClass(&quot;Value&quot;);" xlink:title="class Value
">
<polygon fill="none" stroke="black" points="637,-291 637,-327 691,-327 691,-291 637,-291"/>
<text text-anchor="middle" x="663.938" y="-303.5" font-family="Times,serif" font-size="14.00">Value</text>
</a>
</g>
</g>
<!-- Value&#45;&gt;StructuralElement -->
<g id="edge5" class="edge"><title>Value&#45;&gt;StructuralElement</title>
<path fill="none" stroke="black" d="M667.852,-327.424C672.233,-347.244 679.237,-378.93 682.786,-394.982"/>
<polygon fill="none" stroke="black" points="679.424,-395.991 685,-405 686.259,-394.48 679.424,-395.991"/>
</g>
<!-- IsOfType -->
<g id="node11" class="node"><title>IsOfType</title>
<g id="a_node11"><a xlink:href="javascript:Action.selectClass(&quot;IsOfType&quot;);" xlink:title="class IsOfType
">
<polygon fill="none" stroke="black" points="518.665,-170 518.665,-206 587.335,-206 587.335,-170 518.665,-170"/>
<text text-anchor="middle" x="553" y="-182.5" font-family="Times,serif" font-size="14.00">IsOfType</text>
</a>
</g>
</g>
<!-- IsOfType&#45;&gt;Value -->
<g id="edge28" class="edge"><title>IsOfType&#45;&gt;Value</title>
<path fill="none" stroke="black" d="M568.904,-206.05C590.005,-228.672 627.04,-268.376 648.126,-290.982"/>
<text text-anchor="middle" x="642.876" y="-276.982" font-family="Times,serif" font-size="14.00">1 </text>
<text text-anchor="middle" x="556.654" y="-208.85" font-family="Times,serif" font-size="14.00">0..1 </text>
</g>
<!-- IsOfType&#45;&gt;Type -->
<g id="edge29" class="edge"><title>IsOfType&#45;&gt;Type</title>
<path fill="none" stroke="black" d="M523.958,-206.124C519.309,-208.796 514.537,-211.498 510,-214 456.283,-243.622 392.432,-276.402 357.039,-294.363"/>
<text text-anchor="middle" x="362.289" y="-280.363" font-family="Times,serif" font-size="14.00">1 </text>
<text text-anchor="middle" x="518.708" y="-208.924" font-family="Times,serif" font-size="14.00">* </text>
</g>
<!-- EnumerationLiteral -->
<g id="node12" class="node"><title>EnumerationLiteral</title>
<g id="a_node12"><a xlink:href="javascript:Action.selectClass(&quot;EnumerationLiteral&quot;);" xlink:title="class EnumerationLiteral
">
<polygon fill="none" stroke="black" points="605.189,-170 605.189,-206 730.811,-206 730.811,-170 605.189,-170"/>
<text text-anchor="middle" x="668" y="-182.5" font-family="Times,serif" font-size="14.00">EnumerationLiteral</text>
</a>
</g>
</g>
<!-- EnumerationLiteral&#45;&gt;Value -->
<g id="edge6" class="edge"><title>EnumerationLiteral&#45;&gt;Value</title>
<path fill="none" stroke="black" d="M668.679,-206.303C669.517,-227.674 670.915,-263.334 671.599,-280.771"/>
<polygon fill="none" stroke="black" points="668.111,-281.145 672,-291 675.105,-280.87 668.111,-281.145"/>
</g>
<!-- IsEnumerationLiteralOf -->
<g id="node13" class="node"><title>IsEnumerationLiteralOf</title>
<g id="a_node13"><a xlink:href="javascript:Action.selectClass(&quot;IsEnumerationLiteralOf&quot;);" xlink:title="class IsEnumerationLiteralOf
">
<polygon fill="none" stroke="black" points="354.748,-82 354.748,-118 505.252,-118 505.252,-82 354.748,-82"/>
<text text-anchor="middle" x="430" y="-94.5" font-family="Times,serif" font-size="14.00">IsEnumerationLiteralOf</text>
</a>
</g>
</g>
<!-- IsEnumerationLiteralOf&#45;&gt;EnumerationLiteral -->
<g id="edge30" class="edge"><title>IsEnumerationLiteralOf&#45;&gt;EnumerationLiteral</title>
<path fill="none" stroke="black" d="M477.306,-118.094C518.923,-133.132 579.193,-154.91 620.784,-169.939"/>
<text text-anchor="middle" x="615.534" y="-155.939" font-family="Times,serif" font-size="14.00">1 </text>
<text text-anchor="middle" x="465.056" y="-120.894" font-family="Times,serif" font-size="14.00">1..* </text>
</g>
<!-- EnumeratedType -->
<g id="node18" class="node"><title>EnumeratedType</title>
<g id="a_node18"><a xlink:href="javascript:Action.selectClass(&quot;EnumeratedType&quot;);" xlink:title="class EnumeratedType
">
<polygon fill="none" stroke="black" points="149.289,-170 149.289,-206 260.711,-206 260.711,-170 149.289,-170"/>
<text text-anchor="middle" x="205" y="-182.5" font-family="Times,serif" font-size="14.00">EnumeratedType</text>
</a>
</g>
</g>
<!-- IsEnumerationLiteralOf&#45;&gt;EnumeratedType -->
<g id="edge31" class="edge"><title>IsEnumerationLiteralOf&#45;&gt;EnumeratedType</title>
<path fill="none" stroke="black" d="M385.158,-118.056C353.075,-130.268 308.867,-147.117 270,-162 263.338,-164.551 256.295,-167.254 249.399,-169.904"/>
<text text-anchor="middle" x="244.149" y="-155.904" font-family="Times,serif" font-size="14.00">1 </text>
<text text-anchor="middle" x="379.908" y="-120.856" font-family="Times,serif" font-size="14.00">* </text>
</g>
<!-- Variable -->
<g id="node14" class="node"><title>Variable</title>
<g id="a_node14"><a xlink:href="javascript:Action.selectClass(&quot;Variable&quot;);" xlink:title="class Variable
">
<polygon fill="none" stroke="black" points="748.679,-170 748.679,-206 811.321,-206 811.321,-170 748.679,-170"/>
<text text-anchor="middle" x="780" y="-182.5" font-family="Times,serif" font-size="14.00">Variable</text>
</a>
</g>
</g>
<!-- Variable&#45;&gt;Value -->
<g id="edge7" class="edge"><title>Variable&#45;&gt;Value</title>
<path fill="none" stroke="black" d="M748.449,-204.299C730.18,-215.683 707.832,-232.264 691,-250 681.981,-259.503 673.801,-272.176 670.527,-280.903"/>
<polygon fill="none" stroke="black" points="667.093,-281.61 672,-291 674.02,-280.599 667.093,-281.61"/>
</g>
<!-- Variable&#45;&gt;Value -->
<g id="edge32" class="edge"><title>Variable&#45;&gt;Value</title>
<path fill="none" stroke="black" d="M761.155,-206.045C745.959,-217.344 724.991,-233.151 709,-250 694.047,-265.755 681.401,-290.221 672.425,-290.982"/>
<text text-anchor="middle" x="709.944" y="-276.982" font-family="Times,serif" font-size="14.00">0..1 hasValue</text>
<text text-anchor="middle" x="748.905" y="-208.845" font-family="Times,serif" font-size="14.00">0..1 </text>
</g>
<!-- Property -->
<g id="node15" class="node"><title>Property</title>
<g id="a_node15"><a xlink:href="javascript:Action.selectClass(&quot;Property&quot;);" xlink:title="class Property
">
<polygon fill="none" stroke="black" points="886.893,-82 886.893,-118 951.107,-118 951.107,-82 886.893,-82"/>
<text text-anchor="middle" x="919" y="-94.5" font-family="Times,serif" font-size="14.00">Property</text>
</a>
</g>
</g>
<!-- Property&#45;&gt;Variable -->
<g id="edge8" class="edge"><title>Property&#45;&gt;Variable</title>
<path fill="none" stroke="black" d="M891.215,-118.083C886.517,-120.814 881.654,-123.546 877,-126 846.292,-142.195 808.524,-158.717 791.324,-166.063"/>
<polygon fill="none" stroke="black" points="789.851,-162.886 782,-170 792.574,-169.334 789.851,-162.886"/>
</g>
<!-- MethodInProperty -->
<g id="node17" class="node"><title>MethodInProperty</title>
<g id="a_node17"><a xlink:href="javascript:Action.selectClass(&quot;MethodInProperty&quot;);" xlink:title="class MethodInProperty
">
<polygon fill="none" stroke="black" points="831.286,-170 831.286,-206 950.714,-206 950.714,-170 831.286,-170"/>
<text text-anchor="middle" x="891" y="-182.5" font-family="Times,serif" font-size="14.00">MethodInProperty</text>
</a>
</g>
</g>
<!-- Property&#45;&gt;MethodInProperty -->
<g id="edge33" class="edge"><title>Property&#45;&gt;MethodInProperty</title>
<path fill="none" stroke="black" d="M913.334,-118.403C908.444,-133.422 901.422,-154.991 896.562,-169.916"/>
<text text-anchor="middle" x="891.312" y="-155.916" font-family="Times,serif" font-size="14.00">1 </text>
<text text-anchor="middle" x="908.084" y="-121.203" font-family="Times,serif" font-size="14.00">1 </text>
</g>
<!-- Method -->
<g id="node16" class="node"><title>Method</title>
<g id="a_node16"><a xlink:href="javascript:Action.selectClass(&quot;Method&quot;);" xlink:title="class Method
Positioning
">
<polygon fill="none" stroke="black" points="794.734,-250.6 794.734,-367.4 987.266,-367.4 987.266,-250.6 794.734,-250.6"/>
<text text-anchor="middle" x="891" y="-349.4" font-family="Times,serif" font-size="14.00">Method</text>
<polyline fill="none" stroke="black" points="794.734,-342.6 987.266,-342.6 "/>
<text text-anchor="start" x="802.734" y="-324.6" font-family="Times,serif" font-size="14.00">isConstructor : Boolean</text>
<text text-anchor="start" x="802.734" y="-307.8" font-family="Times,serif" font-size="14.00">isDestructor : Boolean</text>
<text text-anchor="start" x="802.734" y="-291" font-family="Times,serif" font-size="14.00">isAbstract : Boolean</text>
<text text-anchor="start" x="802.734" y="-274.2" font-family="Times,serif" font-size="14.00">isDynamicallyBound : Boolean</text>
<text text-anchor="start" x="802.734" y="-257.4" font-family="Times,serif" font-size="14.00">isOverideable : Boolean</text>
</a>
</g>
</g>
<!-- Method&#45;&gt;BehaviouralElement -->
<g id="edge9" class="edge"><title>Method&#45;&gt;BehaviouralElement</title>
<path fill="none" stroke="black" d="M987.494,-364.593C990.339,-365.786 993.178,-366.925 996,-368 1051.59,-389.175 1122.67,-400.163 1148.79,-403.701"/>
<polygon fill="none" stroke="black" points="1148.64,-407.21 1159,-405 1149.52,-400.266 1148.64,-407.21"/>
</g>
<!-- MethodInProperty&#45;&gt;Method -->
<g id="edge10" class="edge"><title>MethodInProperty&#45;&gt;Method</title>
<path fill="none" stroke="black" d="M891,-206.05C891,-215.33 891,-227.484 891,-240.154"/>
<polygon fill="none" stroke="black" points="887.5,-240.38 891,-250.38 894.5,-240.38 887.5,-240.38"/>
</g>
<!-- EnumeratedType&#45;&gt;Type -->
<g id="edge11" class="edge"><title>EnumeratedType&#45;&gt;Type</title>
<path fill="none" stroke="black" d="M225.922,-206.073C254.14,-229.098 303.05,-269.009 322.093,-284.548"/>
<polygon fill="none" stroke="black" points="320.039,-287.389 330,-291 324.465,-281.966 320.039,-287.389"/>
</g>
<!-- CollectionType -->
<g id="node19" class="node"><title>CollectionType</title>
<g id="a_node19"><a xlink:href="javascript:Action.selectClass(&quot;CollectionType&quot;);" xlink:title="class CollectionType
">
<polygon fill="none" stroke="black" points="398.944,-163.2 398.944,-212.8 501.056,-212.8 501.056,-163.2 398.944,-163.2"/>
<text text-anchor="middle" x="450" y="-194.8" font-family="Times,serif" font-size="14.00">CollectionType</text>
<polyline fill="none" stroke="black" points="398.944,-188 501.056,-188 "/>
<text text-anchor="start" x="406.944" y="-170" font-family="Times,serif" font-size="14.00">size : String</text>
</a>
</g>
</g>
<!-- CollectionType&#45;&gt;Type -->
<g id="edge12" class="edge"><title>CollectionType&#45;&gt;Type</title>
<path fill="none" stroke="black" d="M421.865,-212.914C394.433,-236.232 354.481,-270.191 337.785,-284.382"/>
<polygon fill="none" stroke="black" points="335.353,-281.857 330,-291 339.886,-287.19 335.353,-281.857"/>
</g>
<!-- StructuredType -->
<g id="node20" class="node"><title>StructuredType</title>
<g id="a_node20"><a xlink:href="javascript:Action.selectClass(&quot;StructuredType&quot;);" xlink:title="class StructuredType
">
<polygon fill="none" stroke="black" points="278.947,-170 278.947,-206 381.053,-206 381.053,-170 278.947,-170"/>
<text text-anchor="middle" x="330" y="-182.5" font-family="Times,serif" font-size="14.00">StructuredType</text>
</a>
</g>
</g>
<!-- StructuredType&#45;&gt;Type -->
<g id="edge13" class="edge"><title>StructuredType&#45;&gt;Type</title>
<path fill="none" stroke="black" d="M330,-206.303C330,-227.674 330,-263.334 330,-280.771"/>
<polygon fill="none" stroke="black" points="326.5,-281 330,-291 333.5,-281 326.5,-281"/>
</g>
<!-- Field -->
<g id="node21" class="node"><title>Field</title>
<g id="a_node21"><a xlink:href="javascript:Action.selectClass(&quot;Field&quot;);" xlink:title="class Field
">
<polygon fill="none" stroke="black" points="523,-82 523,-118 577,-118 577,-82 523,-82"/>
<text text-anchor="middle" x="549.89" y="-94.5" font-family="Times,serif" font-size="14.00">Field</text>
</a>
</g>
</g>
<!-- Field&#45;&gt;Variable -->
<g id="edge14" class="edge"><title>Field&#45;&gt;Variable</title>
<path fill="none" stroke="black" d="M571.674,-118.022C576.222,-121.018 581.123,-123.858 586,-126 603.482,-133.679 734.491,-160.42 771.996,-167.99"/>
<polygon fill="none" stroke="black" points="771.506,-171.461 782,-170 772.886,-164.598 771.506,-171.461"/>
</g>
<!-- IsFieldOf -->
<g id="node22" class="node"><title>IsFieldOf</title>
<g id="a_node22"><a xlink:href="javascript:Action.selectClass(&quot;IsFieldOf&quot;);" xlink:title="class IsFieldOf
">
<polygon fill="none" stroke="black" points="404.169,-1 404.169,-37 473.831,-37 473.831,-1 404.169,-1"/>
<text text-anchor="middle" x="439" y="-13.5" font-family="Times,serif" font-size="14.00">IsFieldOf</text>
</a>
</g>
</g>
<!-- IsFieldOf&#45;&gt;Field -->
<g id="edge34" class="edge"><title>IsFieldOf&#45;&gt;Field</title>
<path fill="none" stroke="black" d="M463.085,-37.1418C481.704,-50.3928 507.355,-68.6491 525.962,-81.8916"/>
<text text-anchor="middle" x="520.712" y="-67.8916" font-family="Times,serif" font-size="14.00">1 </text>
<text text-anchor="middle" x="457.835" y="-39.9418" font-family="Times,serif" font-size="14.00">1 </text>
</g>
<!-- IsFieldOf&#45;&gt;StructuredType -->
<g id="edge35" class="edge"><title>IsFieldOf&#45;&gt;StructuredType</title>
<path fill="none" stroke="black" d="M403.906,-31.541C383.695,-40.0488 359.662,-53.7136 346,-74 326.41,-103.089 326.26,-145.972 328.034,-169.669"/>
<text text-anchor="middle" x="322.784" y="-155.669" font-family="Times,serif" font-size="14.00">1 </text>
<text text-anchor="middle" x="398.656" y="-17.541" font-family="Times,serif" font-size="14.00">* </text>
</g>
<!-- FormalParameter -->
<g id="node23" class="node"><title>FormalParameter</title>
<g id="a_node23"><a xlink:href="javascript:Action.selectClass(&quot;FormalParameter&quot;);" xlink:title="class FormalParameter
">
<polygon fill="none" stroke="black" points="755.407,-75.2 755.407,-124.8 868.593,-124.8 868.593,-75.2 755.407,-75.2"/>
<text text-anchor="middle" x="812" y="-106.8" font-family="Times,serif" font-size="14.00">FormalParameter</text>
<polyline fill="none" stroke="black" points="755.407,-100 868.593,-100 "/>
<text text-anchor="start" x="763.407" y="-82" font-family="Times,serif" font-size="14.00">pos : String</text>
</a>
</g>
</g>
<!-- FormalParameter&#45;&gt;Variable -->
<g id="edge15" class="edge"><title>FormalParameter&#45;&gt;Variable</title>
<path fill="none" stroke="black" d="M801.507,-125.133C796.168,-137.413 789.989,-151.626 786.04,-160.708"/>
<polygon fill="none" stroke="black" points="782.778,-159.434 782,-170 789.197,-162.225 782.778,-159.434"/>
</g>
<!-- IsParameterOf -->
<g id="node24" class="node"><title>IsParameterOf</title>
<g id="a_node24"><a xlink:href="javascript:Action.selectClass(&quot;IsParameterOf&quot;);" xlink:title="class IsParameterOf
">
<polygon fill="none" stroke="black" points="1219.19,-1 1219.19,-37 1316.81,-37 1316.81,-1 1219.19,-1"/>
<text text-anchor="middle" x="1268" y="-13.5" font-family="Times,serif" font-size="14.00">IsParameterOf</text>
</a>
</g>
</g>
<!-- IsParameterOf&#45;&gt;FormalParameter -->
<g id="edge36" class="edge"><title>IsParameterOf&#45;&gt;FormalParameter</title>
<path fill="none" stroke="black" d="M1219.08,-26.9169C1195.22,-30.2796 1166.12,-34.3694 1140,-38 1023.58,-54.1839 991.904,-44.9981 878,-74 874.913,-74.7861 871.772,-75.6703 868.62,-76.6247"/>
<text text-anchor="middle" x="873.87" y="-62.6247" font-family="Times,serif" font-size="14.00">1 </text>
<text text-anchor="middle" x="1213.83" y="-12.9169" font-family="Times,serif" font-size="14.00">1 </text>
</g>
<!-- IsParameterOf&#45;&gt;BehaviouralElement -->
<g id="edge37" class="edge"><title>IsParameterOf&#45;&gt;BehaviouralElement</title>
<path fill="none" stroke="black" d="M1287.91,-37.3904C1297.47,-47.0807 1307.93,-60.001 1313,-74 1341.4,-152.448 1366.28,-246.523 1280,-368 1268.1,-384.754 1249.44,-396.642 1231.07,-404.915"/>
<text text-anchor="middle" x="1236.32" y="-407.715" font-family="Times,serif" font-size="14.00">1 </text>
<text text-anchor="middle" x="1282.66" y="-40.1904" font-family="Times,serif" font-size="14.00">* </text>
</g>
<!-- Class -->
<g id="node25" class="node"><title>Class</title>
<g id="a_node25"><a xlink:href="javascript:Action.selectClass(&quot;Class&quot;);" xlink:title="class Class
">
<polygon fill="none" stroke="black" points="594.614,-75.2 594.614,-124.8 737.386,-124.8 737.386,-75.2 594.614,-75.2"/>
<text text-anchor="middle" x="666" y="-106.8" font-family="Times,serif" font-size="14.00">Class</text>
<polyline fill="none" stroke="black" points="594.614,-100 737.386,-100 "/>
<text text-anchor="start" x="602.614" y="-82" font-family="Times,serif" font-size="14.00">isSubclassable : String</text>
</a>
</g>
</g>
<!-- Class&#45;&gt;StructuredType -->
<g id="edge16" class="edge"><title>Class&#45;&gt;StructuredType</title>
<path fill="none" stroke="black" d="M594.592,-123.786C591.697,-124.56 588.825,-125.302 586,-126 500.018,-147.248 474.915,-136.825 390,-162 385.747,-163.261 381.385,-164.724 377.048,-166.298"/>
<polygon fill="none" stroke="black" points="375.742,-163.05 367.646,-169.884 378.236,-169.591 375.742,-163.05"/>
</g>
<!-- InheritsFrom -->
<g id="node26" class="node"><title>InheritsFrom</title>
<g id="a_node26"><a xlink:href="javascript:Action.selectClass(&quot;InheritsFrom&quot;);" xlink:title="class InheritsFrom
">
<polygon fill="none" stroke="black" points="621.448,-1 621.448,-37 710.552,-37 710.552,-1 621.448,-1"/>
<text text-anchor="middle" x="666" y="-13.5" font-family="Times,serif" font-size="14.00">InheritsFrom</text>
</a>
</g>
</g>
<!-- InheritsFrom&#45;&gt;Class -->
<g id="edge38" class="edge"><title>InheritsFrom&#45;&gt;Class</title>
<path fill="none" stroke="black" d="M660.322,-37.1418C659.127,-48.2145 658.931,-62.7823 659.735,-74.9991"/>
<text text-anchor="middle" x="633.488" y="-60.9991" font-family="Times,serif" font-size="14.00">* inherits</text>
<text text-anchor="middle" x="629.406" y="-39.9418" font-family="Times,serif" font-size="14.00">1 transmits</text>
</g>
<!-- InheritsFrom&#45;&gt;Class -->
<g id="edge39" class="edge"><title>InheritsFrom&#45;&gt;Class</title>
<path fill="none" stroke="black" d="M671.678,-37.1418C672.873,-48.2145 673.069,-62.7823 672.265,-74.9991"/>
<text text-anchor="middle" x="703.181" y="-60.9991" font-family="Times,serif" font-size="14.00">* transmits</text>
<text text-anchor="middle" x="697.925" y="-39.9418" font-family="Times,serif" font-size="14.00">1 inherits</text>
</g>
<!-- Imports -->
<g id="node27" class="node"><title>Imports</title>
<g id="a_node27"><a xlink:href="javascript:Action.selectClass(&quot;Imports&quot;);" xlink:title="class Imports
">
<polygon fill="none" stroke="black" points="1072.22,-1 1072.22,-37 1131.78,-37 1131.78,-1 1072.22,-1"/>
<text text-anchor="middle" x="1102" y="-13.5" font-family="Times,serif" font-size="14.00">Imports</text>
</a>
</g>
</g>
<!-- Imports&#45;&gt;Package -->
<g id="edge40" class="edge"><title>Imports&#45;&gt;Package</title>
<path fill="none" stroke="black" d="M1120.92,-37.1327C1158.7,-72.6121 1242.99,-158.489 1280,-250 1301.57,-303.335 1301.5,-373.123 1300.1,-404.903"/>
<text text-anchor="middle" x="1305.35" y="-390.903" font-family="Times,serif" font-size="14.00">1 </text>
<text text-anchor="middle" x="1115.67" y="-39.9327" font-family="Times,serif" font-size="14.00">* </text>
</g>
<!-- Imports&#45;&gt;Class -->
<g id="edge41" class="edge"><title>Imports&#45;&gt;Class</title>
<path fill="none" stroke="black" d="M1072.17,-22.97C1010.64,-29.4366 865.389,-46.4596 746,-74 743.306,-74.6214 740.571,-75.2883 737.817,-75.9906"/>
<text text-anchor="middle" x="743.067" y="-61.9906" font-family="Times,serif" font-size="14.00">1 </text>
<text text-anchor="middle" x="1066.92" y="-8.96996" font-family="Times,serif" font-size="14.00">* </text>
</g>
<!-- ExecutableValue -->
<g id="node28" class="node"><title>ExecutableValue</title>
<g id="a_node28"><a xlink:href="javascript:Action.selectClass(&quot;ExecutableValue&quot;);" xlink:title="class ExecutableValue
">
<polygon fill="none" stroke="black" points="1004.97,-291 1004.97,-327 1115.03,-327 1115.03,-291 1004.97,-291"/>
<text text-anchor="middle" x="1060" y="-303.5" font-family="Times,serif" font-size="14.00">ExecutableValue</text>
</a>
</g>
</g>
<!-- ExecutableValue&#45;&gt;BehaviouralElement -->
<g id="edge17" class="edge"><title>ExecutableValue&#45;&gt;BehaviouralElement</title>
<path fill="none" stroke="black" d="M1078.16,-327.424C1100.04,-348.422 1135.8,-382.741 1151.37,-397.674"/>
<polygon fill="none" stroke="black" points="1149.36,-400.602 1159,-405 1154.21,-395.551 1149.36,-400.602"/>
</g>
<!-- IsMethodOf -->
<g id="node29" class="node"><title>IsMethodOf</title>
<g id="a_node29"><a xlink:href="javascript:Action.selectClass(&quot;IsMethodOf&quot;);" xlink:title="class IsMethodOf
">
<polygon fill="none" stroke="black" points="832.783,-1 832.783,-37 917.217,-37 917.217,-1 832.783,-1"/>
<text text-anchor="middle" x="875" y="-13.5" font-family="Times,serif" font-size="14.00">IsMethodOf</text>
</a>
</g>
</g>
<!-- IsMethodOf&#45;&gt;Class -->
<g id="edge42" class="edge"><title>IsMethodOf&#45;&gt;Class</title>
<path fill="none" stroke="black" d="M832.706,-35.9868C803.005,-47.2132 762.765,-62.4238 729.261,-75.088"/>
<text text-anchor="middle" x="762.894" y="-61.088" font-family="Times,serif" font-size="14.00">1 methodOf</text>
<text text-anchor="middle" x="827.456" y="-21.9868" font-family="Times,serif" font-size="14.00">* </text>
</g>
<!-- IsMethodOf&#45;&gt;Method -->
<g id="edge43" class="edge"><title>IsMethodOf&#45;&gt;Method</title>
<path fill="none" stroke="black" d="M917.369,-36.2114C933.743,-44.8049 950.739,-57.1452 960,-74 965.84,-84.6283 967.287,-188.893 959,-214 954.833,-226.624 948.295,-238.986 940.886,-250.383"/>
<text text-anchor="middle" x="904.529" y="-236.383" font-family="Times,serif" font-size="14.00">1 hasMethod</text>
<text text-anchor="middle" x="929.619" y="-22.2114" font-family="Times,serif" font-size="14.00">0..1 </text>
</g>
<!-- Routine -->
<g id="node30" class="node"><title>Routine</title>
<g id="a_node30"><a xlink:href="javascript:Action.selectClass(&quot;Routine&quot;);" xlink:title="class Routine
">
<polygon fill="none" stroke="black" points="1132.83,-291 1132.83,-327 1193.17,-327 1193.17,-291 1132.83,-291"/>
<text text-anchor="middle" x="1163" y="-303.5" font-family="Times,serif" font-size="14.00">Routine</text>
</a>
</g>
</g>
<!-- Routine&#45;&gt;BehaviouralElement -->
<g id="edge18" class="edge"><title>Routine&#45;&gt;BehaviouralElement</title>
<path fill="none" stroke="black" d="M1162.27,-327.424C1161.43,-347.244 1160.1,-378.93 1159.42,-394.982"/>
<polygon fill="none" stroke="black" points="1155.92,-394.862 1159,-405 1162.92,-395.156 1155.92,-394.862"/>
</g>
</g>
</svg>
