<?xml version="1.0" encoding="UTF-8" standalone="no"?>
<!DOCTYPE svg PUBLIC "-//W3C//DTD SVG 1.1//EN"
 "http://www.w3.org/Graphics/SVG/1.1/DTD/svg11.dtd">
<!-- Generated by graphviz version 2.40.1 (20161225.0304)
 -->
<!-- Title: DMMModelElementHierarchy Pages: 1 -->
<svg width="1820pt" height="500pt"
 viewBox="0.00 0.00 1819.56 500.00" xmlns="http://www.w3.org/2000/svg" xmlns:xlink="http://www.w3.org/1999/xlink">
<g id="graph0" class="graph" transform="scale(1 1) rotate(0) translate(4 496)">
<title>DMMModelElementHierarchy</title>
<polygon fill="#ffffff" stroke="transparent" points="-4,4 -4,-496 1815.5594,-496 1815.5594,4 -4,4"/>
<!-- ModelElement -->
<g id="node1" class="node">
<title>ModelElement</title>
<g id="a_node1"><a xlink:href="javascript:Action.selectClass(&quot;ModelElement&quot;);" xlink:title="class ModelElement&#10;This example refers to Figures 2, 4, 5 and 6 of &#39;The Dagstuhl Middle Metamodel:&#13;A Schema for Reverse Engineering&#39;, ATEM 2003, First International&#13;Workshop on Meta&#45;Models and Schemas for Reverse Engineering,&#13;WCRE, Victoria, B.C., in Electronic Notes in Theoretical Computer&#13;Science, Elsevier, Vol. 94, pp 7&#45;18,&#13;Authors: Lethbridge, T.C., Sander Tichelaar, and Erhard Ploedereder (2003)&#13;To load the entire DMM example at once, copy and paste all&#13;five DMM components (DMM*) into the editor. &#160;Please note that the&#13;position attributes of classes and associations will need to be&#13;re&#45;adjusted, as the example has been made to display the diagrams&#13;as separate entities.&#13;This is a UML class diagram written in Umple&#13;">
<text text-anchor="start" x="1490.3999" y="-475.8" font-family="Times,serif" font-size="14.00" fill="#000000"> &#160;&#160;&#160;ModelElement &#160;&#160;&#160;</text>
<g id="a_node1_0"><a xlink:href="javascript:Action.selectClass(&quot;ModelElement&quot;);" xlink:title="String visibility&#13;">
<text text-anchor="start" x="1488.5" y="-455.8" font-family="Times,serif" font-size="14.00" fill="#000000"> &#160;visibility : String &#160;</text>
</a>
</g>
<polygon fill="#000000" stroke="#000000" points="1485.5,-469 1485.5,-469 1606.5,-469 1606.5,-469 1485.5,-469"/>
<polygon fill="none" stroke="#000000" points="1485,-450 1485,-492 1606,-492 1606,-450 1485,-450"/>
</a>
</g>
</g>
<!-- StructuralElement -->
<g id="node2" class="node">
<title>StructuralElement</title>
<g id="a_node2"><a xlink:href="javascript:Action.selectClass(&quot;StructuralElement&quot;);" xlink:title="class StructuralElement&#10;">
<text text-anchor="start" x="833.0723" y="-391.8" font-family="Times,serif" font-size="14.00" fill="#000000"> &#160;&#160;&#160;StructuralElement &#160;&#160;&#160;</text>
<polygon fill="none" stroke="#000000" points="822,-378 822,-414 973,-414 973,-378 822,-378"/>
</a>
</g>
</g>
<!-- StructuralElement&#45;&gt;ModelElement -->
<g id="edge1" class="edge">
<title>StructuralElement&#45;&gt;ModelElement</title>
<path fill="none" stroke="#000000" d="M973.2258,-402.46C1125.1645,-415.4216 1458.0204,-443.8169 1520.3394,-449.1332"/>
<polygon fill="none" stroke="#000000" points="1520.2387,-452.6373 1530.5,-450 1520.8337,-445.6626 1520.2387,-452.6373"/>
</g>
<!-- BehaviouralElement -->
<g id="node3" class="node">
<title>BehaviouralElement</title>
<g id="a_node3"><a xlink:href="javascript:Action.selectClass(&quot;BehaviouralElement&quot;);" xlink:title="class BehaviouralElement&#10;">
<text text-anchor="start" x="1381.4653" y="-391.8" font-family="Times,serif" font-size="14.00" fill="#000000"> &#160;&#160;&#160;BehaviouralElement &#160;&#160;&#160;</text>
<polygon fill="none" stroke="#000000" points="1370,-378 1370,-414 1535,-414 1535,-378 1370,-378"/>
</a>
</g>
</g>
<!-- BehaviouralElement&#45;&gt;ModelElement -->
<g id="edge2" class="edge">
<title>BehaviouralElement&#45;&gt;ModelElement</title>
<path fill="none" stroke="#000000" d="M1478.9072,-414.2819C1493.9339,-424.685 1511.7546,-437.0224 1522.0321,-444.1376"/>
<polygon fill="none" stroke="#000000" points="1520.2858,-447.1855 1530.5,-450 1524.2703,-441.4302 1520.2858,-447.1855"/>
</g>
<!-- Invokes -->
<g id="node4" class="node">
<title>Invokes</title>
<g id="a_node4"><a xlink:href="javascript:Action.selectClass(&quot;Invokes&quot;);" xlink:title="class Invokes&#10;">
<text text-anchor="start" x="1518.3379" y="-280.8" font-family="Times,serif" font-size="14.00" fill="#000000"> &#160;&#160;&#160;Invokes &#160;&#160;&#160;</text>
<polygon fill="none" stroke="#000000" points="1507.5,-267 1507.5,-303 1601.5,-303 1601.5,-267 1507.5,-267"/>
</a>
</g>
</g>
<!-- Invokes&#45;&gt;BehaviouralElement -->
<g id="edge19" class="edge">
<title>Invokes&#45;&gt;BehaviouralElement</title>
<g id="a_edge19"><a xlink:title="Invokes * invoked &#45;&#45; 1 invokes BehaviouralElement">
<path fill="none" stroke="#000000" d="M1532.7443,-303.0811C1511.6307,-323.7222 1480.7861,-357.2887 1463.9681,-377.9266"/>
</a>
</g>
<text text-anchor="middle" x="1436.9422" y="-366.7266" font-family="Times,serif" font-size="14.00" fill="#000000">1 invokes</text>
<text text-anchor="middle" x="1504.9425" y="-305.8811" font-family="Times,serif" font-size="14.00" fill="#000000">* invoked</text>
</g>
<!-- Invokes&#45;&gt;BehaviouralElement -->
<g id="edge20" class="edge">
<title>Invokes&#45;&gt;BehaviouralElement</title>
<g id="a_edge20"><a xlink:title="Invokes * invokes &#45;&#45; 1 invoked BehaviouralElement">
<path fill="none" stroke="#000000" d="M1542.8231,-303.3294C1526.0348,-323.8959 1495.5553,-357.0657 1474.5374,-377.6434"/>
</a>
</g>
<text text-anchor="middle" x="1502.3391" y="-366.4434" font-family="Times,serif" font-size="14.00" fill="#000000">1 invoked</text>
<text text-anchor="middle" x="1569.849" y="-306.1294" font-family="Times,serif" font-size="14.00" fill="#000000">* invokes</text>
</g>
<!-- Accesses -->
<g id="node5" class="node">
<title>Accesses</title>
<g id="a_node5"><a xlink:href="javascript:Action.selectClass(&quot;Accesses&quot;);" xlink:title="class Accesses&#10;Association classes&#13;">
<text text-anchor="start" x="912.2275" y="-280.8" font-family="Times,serif" font-size="14.00" fill="#000000"> &#160;&#160;&#160;Accesses &#160;&#160;&#160;</text>
<polygon fill="none" stroke="#000000" points="901.5,-267 901.5,-303 1001.5,-303 1001.5,-267 901.5,-267"/>
</a>
</g>
</g>
<!-- Accesses&#45;&gt;StructuralElement -->
<g id="edge22" class="edge">
<title>Accesses&#45;&gt;StructuralElement</title>
<g id="a_edge22"><a xlink:title="Accesses * &#160;&#45;&#45; 1 &#160;StructuralElement">
<path fill="none" stroke="#000000" d="M942.583,-303.3294C932.5777,-323.8959 916.441,-357.0657 906.4302,-377.6434"/>
</a>
</g>
<text text-anchor="middle" x="901.1802" y="-366.4434" font-family="Times,serif" font-size="14.00" fill="#000000">1 </text>
<text text-anchor="middle" x="937.333" y="-306.1294" font-family="Times,serif" font-size="14.00" fill="#000000">* </text>
</g>
<!-- Accesses&#45;&gt;BehaviouralElement -->
<g id="edge21" class="edge">
<title>Accesses&#45;&gt;BehaviouralElement</title>
<g id="a_edge21"><a xlink:title="Accesses * &#160;&#45;&#45; 1 &#160;BehaviouralElement">
<path fill="none" stroke="#000000" d="M964.8671,-303.1161C975.6332,-316.2423 991.987,-333.1742 1010.5,-342 1072.2574,-371.442 1259.9107,-385.9855 1369.8468,-392.1579"/>
</a>
</g>
<text text-anchor="middle" x="1364.5968" y="-380.9579" font-family="Times,serif" font-size="14.00" fill="#000000">1 </text>
<text text-anchor="middle" x="959.6171" y="-305.9161" font-family="Times,serif" font-size="14.00" fill="#000000">* </text>
</g>
<!-- DMMPackage -->
<g id="node6" class="node">
<title>DMMPackage</title>
<g id="a_node6"><a xlink:href="javascript:Action.selectClass(&quot;DMMPackage&quot;);" xlink:title="class DMMPackage&#10;">
<text text-anchor="start" x="1575.1758" y="-391.8" font-family="Times,serif" font-size="14.00" fill="#000000"> &#160;&#160;&#160;DMMPackage &#160;&#160;&#160;</text>
<polygon fill="none" stroke="#000000" points="1564,-378 1564,-414 1695,-414 1695,-378 1564,-378"/>
</a>
</g>
</g>
<!-- DMMPackage&#45;&gt;ModelElement -->
<g id="edge3" class="edge">
<title>DMMPackage&#45;&gt;ModelElement</title>
<path fill="none" stroke="#000000" d="M1596.259,-414.1314C1576.2615,-425.0392 1552.2812,-438.1194 1539.5247,-445.0775"/>
<polygon fill="none" stroke="#000000" points="1537.603,-442.1388 1530.5,-450 1540.955,-448.2841 1537.603,-442.1388"/>
</g>
<!-- DMMPackage&#45;&gt;DMMPackage -->
<g id="edge23" class="edge">
<title>DMMPackage&#45;&gt;DMMPackage</title>
<g id="a_edge23"><a xlink:title="DMMPackage * &#160;&#45;&#45; 0..1 isSubpackageOf DMMPackage">
<path fill="none" stroke="#000000" d="M1695.3074,-383.2225C1705.8106,-385.0924 1713,-389.3516 1713,-396 1713,-402.6484 1705.8106,-406.9076 1695.3074,-408.7775"/>
</a>
</g>
<text text-anchor="middle" x="1753.4334" y="-397.5775" font-family="Times,serif" font-size="14.00" fill="#000000">0..1 isSubpackageOf</text>
<text text-anchor="middle" x="1700.5574" y="-372.0225" font-family="Times,serif" font-size="14.00" fill="#000000">* </text>
</g>
<!-- Contains -->
<g id="node7" class="node">
<title>Contains</title>
<g id="a_node7"><a xlink:href="javascript:Action.selectClass(&quot;Contains&quot;);" xlink:title="class Contains&#10;">
<text text-anchor="start" x="1707.1104" y="-280.8" font-family="Times,serif" font-size="14.00" fill="#000000"> &#160;&#160;&#160;Contains &#160;&#160;&#160;</text>
<polygon fill="none" stroke="#000000" points="1696,-267 1696,-303 1795,-303 1795,-267 1696,-267"/>
</a>
</g>
</g>
<!-- Contains&#45;&gt;ModelElement -->
<g id="edge25" class="edge">
<title>Contains&#45;&gt;ModelElement</title>
<g id="a_edge25"><a xlink:title="Contains 0..1 &#160;&#45;&#45; 1 &#160;ModelElement">
<path fill="none" stroke="#000000" d="M1747.6723,-303.2877C1749.8693,-330.7699 1749.7335,-382.8141 1722.5,-414 1706.9456,-431.8119 1651.2283,-447.9043 1606.4097,-458.4121"/>
</a>
</g>
<text text-anchor="middle" x="1611.6597" y="-447.2121" font-family="Times,serif" font-size="14.00" fill="#000000">1 </text>
<text text-anchor="middle" x="1735.4223" y="-306.0877" font-family="Times,serif" font-size="14.00" fill="#000000">0..1 </text>
</g>
<!-- Contains&#45;&gt;DMMPackage -->
<g id="edge24" class="edge">
<title>Contains&#45;&gt;DMMPackage</title>
<g id="a_edge24"><a xlink:title="Contains * contain &#45;&#45; 1 partOf DMMPackage">
<path fill="none" stroke="#000000" d="M1726.6044,-303.0811C1705.0335,-323.7222 1669.955,-357.2887 1648.3875,-377.9266"/>
</a>
</g>
<text text-anchor="middle" x="1624.8684" y="-366.7266" font-family="Times,serif" font-size="14.00" fill="#000000">1 partOf</text>
<text text-anchor="middle" x="1700.7509" y="-305.8811" font-family="Times,serif" font-size="14.00" fill="#000000">* contain</text>
</g>
<!-- Type -->
<g id="node8" class="node">
<title>Type</title>
<g id="a_node8"><a xlink:href="javascript:Action.selectClass(&quot;Type&quot;);" xlink:title="class Type&#10;">
<text text-anchor="start" x="387.229" y="-280.8" font-family="Times,serif" font-size="14.00" fill="#000000"> &#160;&#160;&#160;Type &#160;&#160;&#160;</text>
<polygon fill="none" stroke="#000000" points="376,-267 376,-303 453,-303 453,-267 376,-267"/>
</a>
</g>
</g>
<!-- Type&#45;&gt;StructuralElement -->
<g id="edge4" class="edge">
<title>Type&#45;&gt;StructuralElement</title>
<path fill="none" stroke="#000000" d="M453.3229,-292.849C552.3097,-312.8615 810.1396,-364.988 864.3905,-375.9561"/>
<polygon fill="none" stroke="#000000" points="864.0047,-379.4489 874.5,-378 865.3919,-372.5877 864.0047,-379.4489"/>
</g>
<!-- IsDefinedInTermsOf -->
<g id="node9" class="node">
<title>IsDefinedInTermsOf</title>
<g id="a_node9"><a xlink:href="javascript:Action.selectClass(&quot;IsDefinedInTermsOf&quot;);" xlink:title="class IsDefinedInTermsOf&#10;">
<text text-anchor="start" x="11.1714" y="-166.8" font-family="Times,serif" font-size="14.00" fill="#000000"> &#160;&#160;&#160;IsDefinedInTermsOf &#160;&#160;&#160;</text>
<polygon fill="none" stroke="#000000" points="0,-153 0,-189 165,-189 165,-153 0,-153"/>
</a>
</g>
</g>
<!-- IsDefinedInTermsOf&#45;&gt;Type -->
<g id="edge26" class="edge">
<title>IsDefinedInTermsOf&#45;&gt;Type</title>
<g id="a_edge26"><a xlink:title="IsDefinedInTermsOf * definesBy &#45;&#45; 1 definedBy Type">
<path fill="none" stroke="#000000" d="M130.0176,-189.0636C196.1371,-212.6073 314.3985,-253.1274 375.5981,-273.1264"/>
</a>
</g>
<text text-anchor="middle" x="341.5722" y="-261.9264" font-family="Times,serif" font-size="14.00" fill="#000000">1 definedBy</text>
<text text-anchor="middle" x="96.7676" y="-191.8636" font-family="Times,serif" font-size="14.00" fill="#000000">* definesBy</text>
</g>
<!-- IsDefinedInTermsOf&#45;&gt;Type -->
<g id="edge27" class="edge">
<title>IsDefinedInTermsOf&#45;&gt;Type</title>
<g id="a_edge27"><a xlink:title="IsDefinedInTermsOf * definedBy &#45;&#45; 1 definesBy Type">
<path fill="none" stroke="#000000" d="M140.1952,-189.0636C207.7985,-211.4772 317.7614,-249.2766 375.8625,-270.1088"/>
</a>
</g>
<text text-anchor="middle" x="342.6125" y="-272.9088" font-family="Times,serif" font-size="14.00" fill="#000000">1 definesBy</text>
<text text-anchor="middle" x="174.221" y="-191.8636" font-family="Times,serif" font-size="14.00" fill="#000000">* definedBy</text>
</g>
<!-- Value -->
<g id="node10" class="node">
<title>Value</title>
<g id="a_node10"><a xlink:href="javascript:Action.selectClass(&quot;Value&quot;);" xlink:title="class Value&#10;">
<text text-anchor="start" x="813.1851" y="-280.8" font-family="Times,serif" font-size="14.00" fill="#000000"> &#160;&#160;&#160;Value &#160;&#160;&#160;</text>
<polygon fill="none" stroke="#000000" points="802,-267 802,-303 883,-303 883,-267 802,-267"/>
</a>
</g>
</g>
<!-- Value&#45;&gt;StructuralElement -->
<g id="edge5" class="edge">
<title>Value&#45;&gt;StructuralElement</title>
<path fill="none" stroke="#000000" d="M848.8222,-303.3738C855.5251,-322.8541 865.8578,-352.8835 871.1397,-368.2341"/>
<polygon fill="none" stroke="#000000" points="867.9367,-369.6829 874.5,-378 874.5559,-367.4053 867.9367,-369.6829"/>
</g>
<!-- IsOfType -->
<g id="node11" class="node">
<title>IsOfType</title>
<g id="a_node11"><a xlink:href="javascript:Action.selectClass(&quot;IsOfType&quot;);" xlink:title="class IsOfType&#10;">
<text text-anchor="start" x="653.1646" y="-166.8" font-family="Times,serif" font-size="14.00" fill="#000000"> &#160;&#160;&#160;IsOfType &#160;&#160;&#160;</text>
<polygon fill="none" stroke="#000000" points="642.5,-153 642.5,-189 744.5,-189 744.5,-153 642.5,-153"/>
</a>
</g>
</g>
<!-- IsOfType&#45;&gt;Type -->
<g id="edge29" class="edge">
<title>IsOfType&#45;&gt;Type</title>
<g id="a_edge29"><a xlink:title="IsOfType * &#160;&#45;&#45; 1 &#160;Type">
<path fill="none" stroke="#000000" d="M649.2916,-189.0636C595.2057,-211.1633 504.5122,-248.2208 453.1106,-269.2236"/>
</a>
</g>
<text text-anchor="middle" x="458.3606" y="-258.0236" font-family="Times,serif" font-size="14.00" fill="#000000">1 </text>
<text text-anchor="middle" x="644.0416" y="-191.8636" font-family="Times,serif" font-size="14.00" fill="#000000">* </text>
</g>
<!-- IsOfType&#45;&gt;Value -->
<g id="edge28" class="edge">
<title>IsOfType&#45;&gt;Value</title>
<g id="a_edge28"><a xlink:title="IsOfType 0..1 &#160;&#45;&#45; 1 &#160;Value">
<path fill="none" stroke="#000000" d="M717.1095,-189.0636C744.8453,-210.2843 790.6071,-245.2967 818.5076,-266.6434"/>
</a>
</g>
<text text-anchor="middle" x="813.2576" y="-255.4434" font-family="Times,serif" font-size="14.00" fill="#000000">1 </text>
<text text-anchor="middle" x="704.8595" y="-191.8636" font-family="Times,serif" font-size="14.00" fill="#000000">0..1 </text>
</g>
<!-- EnumerationLiteral -->
<g id="node12" class="node">
<title>EnumerationLiteral</title>
<g id="a_node12"><a xlink:href="javascript:Action.selectClass(&quot;EnumerationLiteral&quot;);" xlink:title="class EnumerationLiteral&#10;">
<text text-anchor="start" x="774.1895" y="-166.8" font-family="Times,serif" font-size="14.00" fill="#000000"> &#160;&#160;&#160;EnumerationLiteral &#160;&#160;&#160;</text>
<polygon fill="none" stroke="#000000" points="763,-153 763,-189 922,-189 922,-153 763,-153"/>
</a>
</g>
</g>
<!-- EnumerationLiteral&#45;&gt;Value -->
<g id="edge6" class="edge">
<title>EnumerationLiteral&#45;&gt;Value</title>
<path fill="none" stroke="#000000" d="M844.1928,-189.0569C846.0769,-209.1531 849.0539,-240.9084 850.5603,-256.9769"/>
<polygon fill="none" stroke="#000000" points="847.0818,-257.3704 851.5,-267 854.0512,-256.7169 847.0818,-257.3704"/>
</g>
<!-- IsEnumerationLiteralOf -->
<g id="node13" class="node">
<title>IsEnumerationLiteralOf</title>
<g id="a_node13"><a xlink:href="javascript:Action.selectClass(&quot;IsEnumerationLiteralOf&quot;);" xlink:title="class IsEnumerationLiteralOf&#10;">
<text text-anchor="start" x="471.248" y="-88.8" font-family="Times,serif" font-size="14.00" fill="#000000"> &#160;&#160;&#160;IsEnumerationLiteralOf &#160;&#160;&#160;</text>
<polygon fill="none" stroke="#000000" points="460.5,-75 460.5,-111 644.5,-111 644.5,-75 460.5,-75"/>
</a>
</g>
</g>
<!-- IsEnumerationLiteralOf&#45;&gt;EnumerationLiteral -->
<g id="edge30" class="edge">
<title>IsEnumerationLiteralOf&#45;&gt;EnumerationLiteral</title>
<g id="a_edge30"><a xlink:title="IsEnumerationLiteralOf 1..* &#160;&#45;&#45; 1 &#160;EnumerationLiteral">
<path fill="none" stroke="#000000" d="M619.7607,-111.0908C666.5273,-123.6694 728.6117,-140.368 775.3533,-152.9399"/>
</a>
</g>
<text text-anchor="middle" x="770.1033" y="-141.7399" font-family="Times,serif" font-size="14.00" fill="#000000">1 </text>
<text text-anchor="middle" x="607.5107" y="-113.8908" font-family="Times,serif" font-size="14.00" fill="#000000">1..* </text>
</g>
<!-- EnumeratedType -->
<g id="node18" class="node">
<title>EnumeratedType</title>
<g id="a_node18"><a xlink:href="javascript:Action.selectClass(&quot;EnumeratedType&quot;);" xlink:title="class EnumeratedType&#10;">
<text text-anchor="start" x="194.2886" y="-166.8" font-family="Times,serif" font-size="14.00" fill="#000000"> &#160;&#160;&#160;EnumeratedType &#160;&#160;&#160;</text>
<polygon fill="none" stroke="#000000" points="183,-153 183,-189 328,-189 328,-153 183,-153"/>
</a>
</g>
</g>
<!-- IsEnumerationLiteralOf&#45;&gt;EnumeratedType -->
<g id="edge31" class="edge">
<title>IsEnumerationLiteralOf&#45;&gt;EnumeratedType</title>
<g id="a_edge31"><a xlink:title="IsEnumerationLiteralOf * &#160;&#45;&#45; 1 &#160;EnumeratedType">
<path fill="none" stroke="#000000" d="M483.6157,-111.0908C435.7203,-123.6694 372.1373,-140.368 324.2675,-152.9399"/>
</a>
</g>
<text text-anchor="middle" x="319.0175" y="-141.7399" font-family="Times,serif" font-size="14.00" fill="#000000">1 </text>
<text text-anchor="middle" x="478.3657" y="-113.8908" font-family="Times,serif" font-size="14.00" fill="#000000">* </text>
</g>
<!-- Variable -->
<g id="node14" class="node">
<title>Variable</title>
<g id="a_node14"><a xlink:href="javascript:Action.selectClass(&quot;Variable&quot;);" xlink:title="class Variable&#10;">
<text text-anchor="start" x="951.3022" y="-166.8" font-family="Times,serif" font-size="14.00" fill="#000000"> &#160;&#160;&#160;Variable &#160;&#160;&#160;</text>
<polygon fill="none" stroke="#000000" points="940.5,-153 940.5,-189 1036.5,-189 1036.5,-153 940.5,-153"/>
</a>
</g>
</g>
<!-- Variable&#45;&gt;Value -->
<g id="edge7" class="edge">
<title>Variable&#45;&gt;Value</title>
<path fill="none" stroke="#000000" d="M946.0345,-189.0117C926.1569,-199.4409 902.816,-213.3735 883.5,-228 871.7521,-236.8958 859.695,-248.7564 853.5349,-257.0533"/>
<polygon fill="none" stroke="#000000" points="850.0754,-256.5014 851.5,-267 856.9334,-257.9045 850.0754,-256.5014"/>
</g>
<!-- Variable&#45;&gt;Value -->
<g id="edge32" class="edge">
<title>Variable&#45;&gt;Value</title>
<g id="a_edge32"><a xlink:title="Variable 0..1 &#160;&#45;&#45; 0..1 hasValue Value">
<path fill="none" stroke="#000000" d="M961.9391,-189.0117C944.1569,-199.4409 920.816,-213.3735 901.5,-228 881.7635,-242.945 861.1545,-266.2578 851.9306,-266.9827"/>
</a>
</g>
<text text-anchor="middle" x="889.4496" y="-255.7827" font-family="Times,serif" font-size="14.00" fill="#000000">0..1 hasValue</text>
<text text-anchor="middle" x="949.6891" y="-191.8117" font-family="Times,serif" font-size="14.00" fill="#000000">0..1 </text>
</g>
<!-- Property -->
<g id="node15" class="node">
<title>Property</title>
<g id="a_node15"><a xlink:href="javascript:Action.selectClass(&quot;Property&quot;);" xlink:title="class Property&#10;">
<text text-anchor="start" x="1093.3931" y="-88.8" font-family="Times,serif" font-size="14.00" fill="#000000"> &#160;&#160;&#160;Property &#160;&#160;&#160;</text>
<polygon fill="none" stroke="#000000" points="1082.5,-75 1082.5,-111 1180.5,-111 1180.5,-75 1082.5,-75"/>
</a>
</g>
</g>
<!-- Property&#45;&gt;Variable -->
<g id="edge8" class="edge">
<title>Property&#45;&gt;Variable</title>
<path fill="none" stroke="#000000" d="M1088.5953,-111.002C1056.8396,-124.326 1016.0739,-141.4305 997.9327,-149.0422"/>
<polygon fill="none" stroke="#000000" points="996.367,-145.9035 988.5,-153 999.0754,-152.3583 996.367,-145.9035"/>
</g>
<!-- MethodInProperty -->
<g id="node17" class="node">
<title>MethodInProperty</title>
<g id="a_node17"><a xlink:href="javascript:Action.selectClass(&quot;MethodInProperty&quot;);" xlink:title="class MethodInProperty&#10;">
<text text-anchor="start" x="1066.2861" y="-166.8" font-family="Times,serif" font-size="14.00" fill="#000000"> &#160;&#160;&#160;MethodInProperty &#160;&#160;&#160;</text>
<polygon fill="none" stroke="#000000" points="1055,-153 1055,-189 1208,-189 1208,-153 1055,-153"/>
</a>
</g>
</g>
<!-- Property&#45;&gt;MethodInProperty -->
<g id="edge33" class="edge">
<title>Property&#45;&gt;MethodInProperty</title>
<g id="a_edge33"><a xlink:title="Property 1 &#160;&#45;&#45; 1 &#160;MethodInProperty">
<path fill="none" stroke="#000000" d="M1131.5,-111.0908C1131.5,-123.6019 1131.5,-140.1889 1131.5,-152.7371"/>
</a>
</g>
<text text-anchor="middle" x="1126.25" y="-141.5371" font-family="Times,serif" font-size="14.00" fill="#000000">1 </text>
<text text-anchor="middle" x="1126.25" y="-113.8908" font-family="Times,serif" font-size="14.00" fill="#000000">1 </text>
</g>
<!-- Method -->
<g id="node16" class="node">
<title>Method</title>
<g id="a_node16"><a xlink:href="javascript:Action.selectClass(&quot;Method&quot;);" xlink:title="class Method&#10;Positioning&#13;">
<text text-anchor="start" x="1081.7241" y="-325.8" font-family="Times,serif" font-size="14.00" fill="#000000"> &#160;&#160;&#160;Method &#160;&#160;&#160;</text>
<g id="a_node16_1"><a xlink:href="javascript:Action.selectClass(&quot;Method&quot;);" xlink:title="Boolean isConstructor&#13;">
<text text-anchor="start" x="1022.5" y="-305.8" font-family="Times,serif" font-size="14.00" fill="#000000"> &#160;isConstructor : Boolean &#160;</text>
</a>
</g>
<g id="a_node16_2"><a xlink:href="javascript:Action.selectClass(&quot;Method&quot;);" xlink:title="Boolean isDestructor&#13;">
<text text-anchor="start" x="1022.5" y="-287.8" font-family="Times,serif" font-size="14.00" fill="#000000"> &#160;isDestructor : Boolean &#160;</text>
</a>
</g>
<g id="a_node16_3"><a xlink:href="javascript:Action.selectClass(&quot;Method&quot;);" xlink:title="Boolean isAbstract&#13;">
<text text-anchor="start" x="1022.5" y="-269.8" font-family="Times,serif" font-size="14.00" fill="#000000"> &#160;isAbstract : Boolean &#160;</text>
</a>
</g>
<g id="a_node16_4"><a xlink:href="javascript:Action.selectClass(&quot;Method&quot;);" xlink:title="Boolean isDynamicallyBound&#13;">
<text text-anchor="start" x="1022.2344" y="-251.8" font-family="Times,serif" font-size="14.00" fill="#000000"> &#160;isDynamicallyBound : Boolean &#160;</text>
</a>
</g>
<g id="a_node16_5"><a xlink:href="javascript:Action.selectClass(&quot;Method&quot;);" xlink:title="Boolean isOverideable&#13;">
<text text-anchor="start" x="1022.5" y="-233.8" font-family="Times,serif" font-size="14.00" fill="#000000"> &#160;isOverideable : Boolean &#160;</text>
</a>
</g>
<polygon fill="#000000" stroke="#000000" points="1019.5,-319 1019.5,-319 1215.5,-319 1215.5,-319 1019.5,-319"/>
<polygon fill="none" stroke="#000000" points="1019.5,-228 1019.5,-342 1215.5,-342 1215.5,-228 1019.5,-228"/>
</a>
</g>
</g>
<!-- Method&#45;&gt;BehaviouralElement -->
<g id="edge9" class="edge">
<title>Method&#45;&gt;BehaviouralElement</title>
<path fill="none" stroke="#000000" d="M1215.7987,-338.8378C1218.7079,-339.9554 1221.612,-341.0133 1224.5,-342 1298.699,-367.3512 1393.9256,-375.3687 1425.111,-377.404"/>
<polygon fill="none" stroke="#000000" points="1425.3159,-380.9214 1435.5,-378 1425.7169,-373.9329 1425.3159,-380.9214"/>
</g>
<!-- MethodInProperty&#45;&gt;Method -->
<g id="edge10" class="edge">
<title>MethodInProperty&#45;&gt;Method</title>
<path fill="none" stroke="#000000" d="M1129.2817,-189.0636C1128.3001,-197.0567 1127.0782,-207.0065 1125.7961,-217.4457"/>
<polygon fill="none" stroke="#000000" points="1122.2996,-217.2043 1124.5545,-227.5564 1129.2474,-218.0576 1122.2996,-217.2043"/>
</g>
<!-- EnumeratedType&#45;&gt;Type -->
<g id="edge11" class="edge">
<title>EnumeratedType&#45;&gt;Type</title>
<path fill="none" stroke="#000000" d="M285.4067,-189.0569C322.4693,-211.4343 383.475,-248.2679 405.8916,-261.8025"/>
<polygon fill="none" stroke="#000000" points="404.1303,-264.8275 414.5,-267 407.7484,-258.835 404.1303,-264.8275"/>
</g>
<!-- CollectionType -->
<g id="node19" class="node">
<title>CollectionType</title>
<g id="a_node19"><a xlink:href="javascript:Action.selectClass(&quot;CollectionType&quot;);" xlink:title="class CollectionType&#10;">
<text text-anchor="start" x="505.4438" y="-175.8" font-family="Times,serif" font-size="14.00" fill="#000000"> &#160;&#160;&#160;CollectionType &#160;&#160;&#160;</text>
<g id="a_node19_6"><a xlink:href="javascript:Action.selectClass(&quot;CollectionType&quot;);" xlink:title="String size&#13;">
<text text-anchor="start" x="503.5" y="-155.8" font-family="Times,serif" font-size="14.00" fill="#000000"> &#160;size : String &#160;</text>
</a>
</g>
<polygon fill="#000000" stroke="#000000" points="500.5,-169 500.5,-169 624.5,-169 624.5,-169 500.5,-169"/>
<polygon fill="none" stroke="#000000" points="500.5,-150 500.5,-192 624.5,-192 624.5,-150 500.5,-150"/>
</a>
</g>
</g>
<!-- CollectionType&#45;&gt;Type -->
<g id="edge12" class="edge">
<title>CollectionType&#45;&gt;Type</title>
<path fill="none" stroke="#000000" d="M530.0208,-192.0676C495.6443,-214.3659 443.5927,-248.1291 423.163,-261.3808"/>
<polygon fill="none" stroke="#000000" points="420.9849,-258.6217 414.5,-267 424.7943,-264.4944 420.9849,-258.6217"/>
</g>
<!-- StructuredType -->
<g id="node20" class="node">
<title>StructuredType</title>
<g id="a_node20"><a xlink:href="javascript:Action.selectClass(&quot;StructuredType&quot;);" xlink:title="class StructuredType&#10;">
<text text-anchor="start" x="357.4473" y="-166.8" font-family="Times,serif" font-size="14.00" fill="#000000"> &#160;&#160;&#160;StructuredType &#160;&#160;&#160;</text>
<polygon fill="none" stroke="#000000" points="346.5,-153 346.5,-189 482.5,-189 482.5,-153 346.5,-153"/>
</a>
</g>
</g>
<!-- StructuredType&#45;&gt;Type -->
<g id="edge13" class="edge">
<title>StructuredType&#45;&gt;Type</title>
<path fill="none" stroke="#000000" d="M414.5,-189.0569C414.5,-209.1531 414.5,-240.9084 414.5,-256.9769"/>
<polygon fill="none" stroke="#000000" points="411.0001,-257 414.5,-267 418.0001,-257 411.0001,-257"/>
</g>
<!-- Field -->
<g id="node21" class="node">
<title>Field</title>
<g id="a_node21"><a xlink:href="javascript:Action.selectClass(&quot;Field&quot;);" xlink:title="class Field&#10;">
<text text-anchor="start" x="679.1104" y="-88.8" font-family="Times,serif" font-size="14.00" fill="#000000"> &#160;&#160;&#160;Field &#160;&#160;&#160;</text>
<polygon fill="none" stroke="#000000" points="668.5,-75 668.5,-111 746.5,-111 746.5,-75 668.5,-75"/>
</a>
</g>
</g>
<!-- Field&#45;&gt;Variable -->
<g id="edge14" class="edge">
<title>Field&#45;&gt;Variable</title>
<path fill="none" stroke="#000000" d="M746.7634,-111.0949C749.69,-112.16 752.6229,-113.1442 755.5,-114 839.234,-138.9078 944.9297,-149.3662 978.0744,-152.1769"/>
<polygon fill="none" stroke="#000000" points="978.2555,-155.702 988.5,-153 978.8065,-148.7237 978.2555,-155.702"/>
</g>
<!-- IsFieldOf -->
<g id="node22" class="node">
<title>IsFieldOf</title>
<g id="a_node22"><a xlink:href="javascript:Action.selectClass(&quot;IsFieldOf&quot;);" xlink:title="class IsFieldOf&#10;">
<text text-anchor="start" x="523.1689" y="-13.8" font-family="Times,serif" font-size="14.00" fill="#000000"> &#160;&#160;&#160;IsFieldOf &#160;&#160;&#160;</text>
<polygon fill="none" stroke="#000000" points="512,0 512,-36 615,-36 615,0 512,0"/>
</a>
</g>
</g>
<!-- IsFieldOf&#45;&gt;StructuredType -->
<g id="edge35" class="edge">
<title>IsFieldOf&#45;&gt;StructuredType</title>
<g id="a_edge35"><a xlink:title="IsFieldOf * &#160;&#45;&#45; 1 &#160;StructuredType">
<path fill="none" stroke="#000000" d="M511.9524,-33.3111C490.8508,-41.796 467.6495,-54.2991 451.5,-72 430.4764,-95.0432 421.0585,-131.1391 417.1035,-152.7905"/>
</a>
</g>
<text text-anchor="middle" x="411.8535" y="-141.5905" font-family="Times,serif" font-size="14.00" fill="#000000">1 </text>
<text text-anchor="middle" x="506.7024" y="-22.1111" font-family="Times,serif" font-size="14.00" fill="#000000">* </text>
</g>
<!-- IsFieldOf&#45;&gt;Field -->
<g id="edge34" class="edge">
<title>IsFieldOf&#45;&gt;Field</title>
<g id="a_edge34"><a xlink:title="IsFieldOf 1 &#160;&#45;&#45; 1 &#160;Field">
<path fill="none" stroke="#000000" d="M598.3584,-36.1554C620.9155,-47.9039 650.1704,-63.1408 672.7134,-74.882"/>
</a>
</g>
<text text-anchor="middle" x="667.4634" y="-63.682" font-family="Times,serif" font-size="14.00" fill="#000000">1 </text>
<text text-anchor="middle" x="593.1084" y="-38.9554" font-family="Times,serif" font-size="14.00" fill="#000000">1 </text>
</g>
<!-- FormalParameter -->
<g id="node23" class="node">
<title>FormalParameter</title>
<g id="a_node23"><a xlink:href="javascript:Action.selectClass(&quot;FormalParameter&quot;);" xlink:title="class FormalParameter&#10;">
<text text-anchor="start" x="934.4067" y="-97.8" font-family="Times,serif" font-size="14.00" fill="#000000"> &#160;&#160;&#160;FormalParameter &#160;&#160;&#160;</text>
<g id="a_node23_7"><a xlink:href="javascript:Action.selectClass(&quot;FormalParameter&quot;);" xlink:title="String pos&#13;">
<text text-anchor="start" x="932.5" y="-77.8" font-family="Times,serif" font-size="14.00" fill="#000000"> &#160;pos : String &#160;</text>
</a>
</g>
<polygon fill="#000000" stroke="#000000" points="929.5,-91 929.5,-91 1064.5,-91 1064.5,-91 929.5,-91"/>
<polygon fill="none" stroke="#000000" points="929,-72 929,-114 1064,-114 1064,-72 929,-72"/>
</a>
</g>
</g>
<!-- FormalParameter&#45;&gt;Variable -->
<g id="edge15" class="edge">
<title>FormalParameter&#45;&gt;Variable</title>
<path fill="none" stroke="#000000" d="M993.657,-114.3227C992.3635,-124.0234 990.8935,-135.0486 989.8548,-142.8388"/>
<polygon fill="none" stroke="#000000" points="986.3524,-142.6251 988.5,-153 993.291,-143.5503 986.3524,-142.6251"/>
</g>
<!-- IsParameterOf -->
<g id="node24" class="node">
<title>IsParameterOf</title>
<g id="a_node24"><a xlink:href="javascript:Action.selectClass(&quot;IsParameterOf&quot;);" xlink:title="class IsParameterOf&#10;">
<text text-anchor="start" x="1536.186" y="-13.8" font-family="Times,serif" font-size="14.00" fill="#000000"> &#160;&#160;&#160;IsParameterOf &#160;&#160;&#160;</text>
<polygon fill="none" stroke="#000000" points="1525,0 1525,-36 1656,-36 1656,0 1525,0"/>
</a>
</g>
</g>
<!-- IsParameterOf&#45;&gt;BehaviouralElement -->
<g id="edge37" class="edge">
<title>IsParameterOf&#45;&gt;BehaviouralElement</title>
<g id="a_edge37"><a xlink:title="IsParameterOf * &#160;&#45;&#45; 1 &#160;BehaviouralElement">
<path fill="none" stroke="#000000" d="M1615.5428,-36.1305C1626.312,-45.4852 1637.7346,-57.895 1643.5,-72 1673.583,-145.5975 1728.8353,-199.38 1610.5,-342 1599.3475,-355.4412 1563.6873,-368.1931 1529.0621,-377.9265"/>
</a>
</g>
<text text-anchor="middle" x="1534.3121" y="-366.7265" font-family="Times,serif" font-size="14.00" fill="#000000">1 </text>
<text text-anchor="middle" x="1610.2928" y="-38.9305" font-family="Times,serif" font-size="14.00" fill="#000000">* </text>
</g>
<!-- IsParameterOf&#45;&gt;FormalParameter -->
<g id="edge36" class="edge">
<title>IsParameterOf&#45;&gt;FormalParameter</title>
<g id="a_edge36"><a xlink:title="IsParameterOf 1 &#160;&#45;&#45; 1 &#160;FormalParameter">
<path fill="none" stroke="#000000" d="M1524.6924,-26.0776C1497.9592,-29.2847 1466.7675,-32.9326 1438.5,-36 1276.442,-53.5857 1233.8087,-42.4506 1073.5,-72 1070.5021,-72.5526 1067.4508,-73.1653 1064.3775,-73.8237"/>
</a>
</g>
<text text-anchor="middle" x="1069.6275" y="-62.6237" font-family="Times,serif" font-size="14.00" fill="#000000">1 </text>
<text text-anchor="middle" x="1519.4424" y="-14.8776" font-family="Times,serif" font-size="14.00" fill="#000000">1 </text>
</g>
<!-- DMMClass -->
<g id="node25" class="node">
<title>DMMClass</title>
<g id="a_node25"><a xlink:href="javascript:Action.selectClass(&quot;DMMClass&quot;);" xlink:title="class DMMClass&#10;">
<text text-anchor="start" x="790.8276" y="-97.8" font-family="Times,serif" font-size="14.00" fill="#000000"> &#160;&#160;&#160;DMMClass &#160;&#160;&#160;</text>
<g id="a_node25_8"><a xlink:href="javascript:Action.selectClass(&quot;DMMClass&quot;);" xlink:title="String isSubclassable&#13;">
<text text-anchor="start" x="767.1138" y="-77.8" font-family="Times,serif" font-size="14.00" fill="#000000"> &#160;isSubclassable : String &#160;</text>
</a>
</g>
<polygon fill="#000000" stroke="#000000" points="764.5,-91 764.5,-91 910.5,-91 910.5,-91 764.5,-91"/>
<polygon fill="none" stroke="#000000" points="764.5,-72 764.5,-114 910.5,-114 910.5,-72 764.5,-72"/>
</a>
</g>
</g>
<!-- DMMClass&#45;&gt;StructuredType -->
<g id="edge16" class="edge">
<title>DMMClass&#45;&gt;StructuredType</title>
<path fill="none" stroke="#000000" d="M764.2774,-112.1974C761.3187,-112.8318 758.3845,-113.4359 755.5,-114 639.2821,-136.7271 607.5377,-126.3705 491.5,-150 490.4138,-150.2212 489.3203,-150.4491 488.221,-150.683"/>
<polygon fill="none" stroke="#000000" points="487.1999,-147.3251 478.2118,-152.9345 488.7362,-154.1545 487.1999,-147.3251"/>
</g>
<!-- InheritsFrom -->
<g id="node26" class="node">
<title>InheritsFrom</title>
<g id="a_node26"><a xlink:href="javascript:Action.selectClass(&quot;InheritsFrom&quot;);" xlink:title="class InheritsFrom&#10;">
<text text-anchor="start" x="787.4482" y="-13.8" font-family="Times,serif" font-size="14.00" fill="#000000"> &#160;&#160;&#160;InheritsFrom &#160;&#160;&#160;</text>
<polygon fill="none" stroke="#000000" points="776,0 776,-36 899,-36 899,0 776,0"/>
</a>
</g>
</g>
<!-- InheritsFrom&#45;&gt;DMMClass -->
<g id="edge38" class="edge">
<title>InheritsFrom&#45;&gt;DMMClass</title>
<g id="a_edge38"><a xlink:title="InheritsFrom 1 transmits &#45;&#45; * inherits DMMClass">
<path fill="none" stroke="#000000" d="M831.6218,-36.1554C830.5569,-46.9068 830.4676,-60.5796 831.3537,-71.8212"/>
</a>
</g>
<text text-anchor="middle" x="805.1072" y="-60.6212" font-family="Times,serif" font-size="14.00" fill="#000000">* inherits</text>
<text text-anchor="middle" x="800.7062" y="-38.9554" font-family="Times,serif" font-size="14.00" fill="#000000">1 transmits</text>
</g>
<!-- InheritsFrom&#45;&gt;DMMClass -->
<g id="edge39" class="edge">
<title>InheritsFrom&#45;&gt;DMMClass</title>
<g id="a_edge39"><a xlink:title="InheritsFrom 1 inherits &#45;&#45; * transmits DMMClass">
<path fill="none" stroke="#000000" d="M843.3782,-36.1554C844.4431,-46.9068 844.5324,-60.5796 843.6463,-71.8212"/>
</a>
</g>
<text text-anchor="middle" x="874.5618" y="-60.6212" font-family="Times,serif" font-size="14.00" fill="#000000">* transmits</text>
<text text-anchor="middle" x="869.6248" y="-38.9554" font-family="Times,serif" font-size="14.00" fill="#000000">1 inherits</text>
</g>
<!-- Imports -->
<g id="node27" class="node">
<title>Imports</title>
<g id="a_node27"><a xlink:href="javascript:Action.selectClass(&quot;Imports&quot;);" xlink:title="class Imports&#10;">
<text text-anchor="start" x="1348.2241" y="-13.8" font-family="Times,serif" font-size="14.00" fill="#000000"> &#160;&#160;&#160;Imports &#160;&#160;&#160;</text>
<polygon fill="none" stroke="#000000" points="1337,0 1337,-36 1430,-36 1430,0 1337,0"/>
</a>
</g>
</g>
<!-- Imports&#45;&gt;DMMPackage -->
<g id="edge40" class="edge">
<title>Imports&#45;&gt;DMMPackage</title>
<g id="a_edge40"><a xlink:title="Imports * &#160;&#45;&#45; 1 &#160;DMMPackage">
<path fill="none" stroke="#000000" d="M1414.204,-36.0207C1464.9413,-67.6581 1565.1712,-138.4202 1610.5,-228 1635.614,-277.6309 1633.9585,-345.8399 1631.4038,-377.9276"/>
</a>
</g>
<text text-anchor="middle" x="1626.1538" y="-366.7276" font-family="Times,serif" font-size="14.00" fill="#000000">1 </text>
<text text-anchor="middle" x="1408.954" y="-38.8207" font-family="Times,serif" font-size="14.00" fill="#000000">* </text>
</g>
<!-- Imports&#45;&gt;DMMClass -->
<g id="edge41" class="edge">
<title>Imports&#45;&gt;DMMClass</title>
<g id="a_edge41"><a xlink:title="Imports * &#160;&#45;&#45; 1 &#160;DMMClass">
<path fill="none" stroke="#000000" d="M1336.7591,-21.3425C1252.7325,-27.8162 1070.8083,-43.9529 919.5,-72 916.6101,-72.5357 913.6713,-73.1158 910.7088,-73.7302"/>
</a>
</g>
<text text-anchor="middle" x="915.9588" y="-76.5302" font-family="Times,serif" font-size="14.00" fill="#000000">1 </text>
<text text-anchor="middle" x="1331.5091" y="-10.1425" font-family="Times,serif" font-size="14.00" fill="#000000">* </text>
</g>
<!-- ExecutableValue -->
<g id="node28" class="node">
<title>ExecutableValue</title>
<g id="a_node28"><a xlink:href="javascript:Action.selectClass(&quot;ExecutableValue&quot;);" xlink:title="class ExecutableValue&#10;">
<text text-anchor="start" x="1244.4688" y="-280.8" font-family="Times,serif" font-size="14.00" fill="#000000"> &#160;&#160;&#160;ExecutableValue &#160;&#160;&#160;</text>
<polygon fill="none" stroke="#000000" points="1233.5,-267 1233.5,-303 1377.5,-303 1377.5,-267 1233.5,-267"/>
</a>
</g>
</g>
<!-- ExecutableValue&#45;&gt;BehaviouralElement -->
<g id="edge17" class="edge">
<title>ExecutableValue&#45;&gt;BehaviouralElement</title>
<path fill="none" stroke="#000000" d="M1330.8739,-303.1521C1360.5782,-324.4021 1408.1364,-358.4245 1427.2004,-372.0626"/>
<polygon fill="none" stroke="#000000" points="1425.3305,-375.0283 1435.5,-378 1429.4033,-369.3351 1425.3305,-375.0283"/>
</g>
<!-- IsMethodOf -->
<g id="node29" class="node">
<title>IsMethodOf</title>
<g id="a_node29"><a xlink:href="javascript:Action.selectClass(&quot;IsMethodOf&quot;);" xlink:title="class IsMethodOf&#10;">
<text text-anchor="start" x="1058.2827" y="-13.8" font-family="Times,serif" font-size="14.00" fill="#000000"> &#160;&#160;&#160;IsMethodOf &#160;&#160;&#160;</text>
<polygon fill="none" stroke="#000000" points="1047.5,0 1047.5,-36 1165.5,-36 1165.5,0 1047.5,0"/>
</a>
</g>
</g>
<!-- IsMethodOf&#45;&gt;Method -->
<g id="edge43" class="edge">
<title>IsMethodOf&#45;&gt;Method</title>
<g id="a_edge43"><a xlink:title="IsMethodOf 0..1 &#160;&#45;&#45; 1 hasMethod Method">
<path fill="none" stroke="#000000" d="M1145.3303,-36.122C1160.8895,-45.0383 1177.8519,-57.1032 1189.5,-72 1212.0969,-100.8991 1210.4157,-113.8232 1216.5,-150 1219.5959,-168.4081 1223.9119,-174.8679 1216.5,-192 1210.8819,-204.9858 1202.459,-216.9932 1192.8548,-227.7674"/>
</a>
</g>
<text text-anchor="middle" x="1156.4978" y="-216.5674" font-family="Times,serif" font-size="14.00" fill="#000000">1 hasMethod</text>
<text text-anchor="middle" x="1133.0803" y="-38.922" font-family="Times,serif" font-size="14.00" fill="#000000">0..1 </text>
</g>
<!-- IsMethodOf&#45;&gt;DMMClass -->
<g id="edge42" class="edge">
<title>IsMethodOf&#45;&gt;DMMClass</title>
<g id="a_edge42"><a xlink:title="IsMethodOf * &#160;&#45;&#45; 1 methodOf DMMClass">
<path fill="none" stroke="#000000" d="M1047.4668,-34.4591C1007.2559,-45.6703 953.7393,-60.5913 910.8,-72.5632"/>
</a>
</g>
<text text-anchor="middle" x="944.4328" y="-61.3632" font-family="Times,serif" font-size="14.00" fill="#000000">1 methodOf</text>
<text text-anchor="middle" x="1042.2168" y="-23.2591" font-family="Times,serif" font-size="14.00" fill="#000000">* </text>
</g>
<!-- Routine -->
<g id="node30" class="node">
<title>Routine</title>
<g id="a_node30"><a xlink:href="javascript:Action.selectClass(&quot;Routine&quot;);" xlink:title="class Routine&#10;">
<text text-anchor="start" x="1406.3345" y="-280.8" font-family="Times,serif" font-size="14.00" fill="#000000"> &#160;&#160;&#160;Routine &#160;&#160;&#160;</text>
<polygon fill="none" stroke="#000000" points="1395.5,-267 1395.5,-303 1489.5,-303 1489.5,-267 1395.5,-267"/>
</a>
</g>
</g>
<!-- Routine&#45;&gt;BehaviouralElement -->
<g id="edge18" class="edge">
<title>Routine&#45;&gt;BehaviouralElement</title>
<path fill="none" stroke="#000000" d="M1441.117,-303.3738C1439.6587,-322.7482 1437.415,-352.5574 1436.254,-367.9825"/>
<polygon fill="none" stroke="#000000" points="1432.7605,-367.7655 1435.5,-378 1439.7408,-368.2909 1432.7605,-367.7655"/>
</g>
</g>
</svg>
