<?xml version="1.0" encoding="UTF-8" standalone="no"?>
<!DOCTYPE svg PUBLIC "-//W3C//DTD SVG 1.1//EN"
 "http://www.w3.org/Graphics/SVG/1.1/DTD/svg11.dtd">
<!-- Generated by graphviz version 2.39.20140502.0445 (20140502.0445)
 -->
<!-- Title: DMMModelElementHierarchy Pages: 1 -->
<svg width="1492pt" height="510pt"
 viewBox="0.00 0.00 1491.58 510.00" xmlns="http://www.w3.org/2000/svg" xmlns:xlink="http://www.w3.org/1999/xlink">
<g id="graph0" class="graph" transform="scale(1 1) rotate(0) translate(4 506)">
<title>DMMModelElementHierarchy</title>
<polygon fill="white" stroke="none" points="-4,4 -4,-506 1487.58,-506 1487.58,4 -4,4"/>
<!-- ModelElement -->
<g id="node1" class="node"><title>ModelElement</title>
<g id="a_node1"><a xlink:href="javascript:Action.selectClass(&quot;ModelElement&quot;);" xlink:title="class ModelElement
This example refers to Figures 2, 4, 5 and 6 of &#39;The Dagstuhl Middle Metamodel:
A Schema for Reverse Engineering&#39;, ATEM 2003, First International
Workshop on Meta&#45;Models and Schemas for Reverse Engineering,
WCRE, Victoria, B.C., in Electronic Notes in Theoretical Computer
Science, Elsevier, Vol. 94, pp 7&#45;18,
Authors: Lethbridge, T.C., Sander Tichelaar, and Erhard Ploedereder (2003)
To load the entire DMM example at once, copy and paste all
five DMM components (DMM*) into the editor. &#160;Please note that the
position attributes of classes and associations will need to be
re&#45;adjusted, as the example has been made to display the diagrams
as separate entities.
This is a UML class diagram written in Umple
">
<polygon fill="none" stroke="black" points="1194,-455.5 1194,-501.5 1305,-501.5 1305,-455.5 1194,-455.5"/>
<text text-anchor="middle" x="1249.5" y="-486.3" font-family="Times,serif" font-size="14.00">ModelElement</text>
<polyline fill="none" stroke="black" points="1194,-478.5 1305,-478.5 "/>
<text text-anchor="start" x="1202" y="-463.3" font-family="Times,serif" font-size="14.00">visibility : String</text>
</a>
</g>
</g>
<!-- StructuralElement -->
<g id="node2" class="node"><title>StructuralElement</title>
<g id="a_node2"><a xlink:href="javascript:Action.selectClass(&quot;StructuralElement&quot;);" xlink:title="class StructuralElement
">
<polygon fill="none" stroke="black" points="656.5,-382.5 656.5,-418.5 774.5,-418.5 774.5,-382.5 656.5,-382.5"/>
<text text-anchor="middle" x="715.5" y="-396.8" font-family="Times,serif" font-size="14.00">StructuralElement</text>
</a>
</g>
</g>
<!-- StructuralElement&#45;&gt;ModelElement -->
<g id="edge1" class="edge"><title>StructuralElement&#45;&gt;ModelElement</title>
<path fill="none" stroke="black" d="M774.644,-407.642C896.561,-420.303 1169.13,-448.608 1225.27,-454.438"/>
<polygon fill="none" stroke="black" points="1225.19,-457.948 1235.5,-455.5 1225.92,-450.986 1225.19,-457.948"/>
</g>
<!-- BehaviouralElement -->
<g id="node3" class="node"><title>BehaviouralElement</title>
<g id="a_node3"><a xlink:href="javascript:Action.selectClass(&quot;BehaviouralElement&quot;);" xlink:title="class BehaviouralElement
">
<polygon fill="none" stroke="black" points="1116.5,-382.5 1116.5,-418.5 1248.5,-418.5 1248.5,-382.5 1116.5,-382.5"/>
<text text-anchor="middle" x="1182.5" y="-396.8" font-family="Times,serif" font-size="14.00">BehaviouralElement</text>
</a>
</g>
</g>
<!-- BehaviouralElement&#45;&gt;ModelElement -->
<g id="edge2" class="edge"><title>BehaviouralElement&#45;&gt;ModelElement</title>
<path fill="none" stroke="black" d="M1199.27,-418.586C1209.1,-428.597 1220.99,-440.72 1228.41,-448.273"/>
<polygon fill="none" stroke="black" points="1226,-450.815 1235.5,-455.5 1230.99,-445.911 1226,-450.815"/>
</g>
<!-- Invokes -->
<g id="node4" class="node"><title>Invokes</title>
<g id="a_node4"><a xlink:href="javascript:Action.selectClass(&quot;Invokes&quot;);" xlink:title="class Invokes
">
<polygon fill="none" stroke="black" points="1228,-274.5 1228,-310.5 1289,-310.5 1289,-274.5 1228,-274.5"/>
<text text-anchor="middle" x="1258.5" y="-288.8" font-family="Times,serif" font-size="14.00">Invokes</text>
</a>
</g>
</g>
<!-- Invokes&#45;&gt;BehaviouralElement -->
<g id="edge19" class="edge"><title>Invokes&#45;&gt;BehaviouralElement</title>
<g id="a_edge19"><a xlink:title="Invokes * invoked &#45;&#45; 1 invokes BehaviouralElement">
<path fill="none" stroke="black" d="M1189.78,-382.159 1201.83,-362.365 1224.91,-330.194 1241.17,-310.531"/>
</a>
</g>
<text text-anchor="middle" x="1162.28" y="-370.959" font-family="Times,serif" font-size="14.00">1 invokes</text>
<text text-anchor="middle" x="1213.17" y="-314.331" font-family="Times,serif" font-size="14.00">* invoked</text>
</g>
<!-- Invokes&#45;&gt;BehaviouralElement -->
<g id="edge20" class="edge"><title>Invokes&#45;&gt;BehaviouralElement</title>
<g id="a_edge20"><a xlink:title="Invokes * invokes &#45;&#45; 1 invoked BehaviouralElement">
<path fill="none" stroke="black" d="M1200.08,-382.159 1216.42,-362.365 1239.47,-330.194 1251.4,-310.531"/>
</a>
</g>
<text text-anchor="middle" x="1228.08" y="-370.959" font-family="Times,serif" font-size="14.00">1 invoked</text>
<text text-anchor="middle" x="1278.9" y="-314.331" font-family="Times,serif" font-size="14.00">* invokes</text>
</g>
<!-- Accesses -->
<g id="node5" class="node"><title>Accesses</title>
<g id="a_node5"><a xlink:href="javascript:Action.selectClass(&quot;Accesses&quot;);" xlink:title="class Accesses
Association classes
">
<polygon fill="none" stroke="black" points="720.5,-274.5 720.5,-310.5 788.5,-310.5 788.5,-274.5 720.5,-274.5"/>
<text text-anchor="middle" x="754.5" y="-288.8" font-family="Times,serif" font-size="14.00">Accesses</text>
</a>
</g>
</g>
<!-- Accesses&#45;&gt;StructuralElement -->
<g id="edge22" class="edge"><title>Accesses&#45;&gt;StructuralElement</title>
<g id="a_edge22"><a xlink:title="Accesses * &#160;&#45;&#45; 1 &#160;StructuralElement">
<path fill="none" stroke="black" d="M721.88,-382.159 729.163,-362.365 740.999,-330.194 748.234,-310.531"/>
</a>
</g>
<text text-anchor="middle" x="716.38" y="-370.959" font-family="Times,serif" font-size="14.00">1 </text>
<text text-anchor="middle" x="742.734" y="-314.331" font-family="Times,serif" font-size="14.00">* </text>
</g>
<!-- Accesses&#45;&gt;BehaviouralElement -->
<g id="edge21" class="edge"><title>Accesses&#45;&gt;BehaviouralElement</title>
<g id="a_edge21"><a xlink:title="Accesses * &#160;&#45;&#45; 1 &#160;BehaviouralElement">
<path fill="none" stroke="black" d="M763.807,-310.59C771.275,-322.556 782.91,-337.814 797.5,-346 850.761,-375.884 1021.17,-390.254 1116.44,-396.11"/>
</a>
</g>
<text text-anchor="middle" x="1110.94" y="-384.91" font-family="Times,serif" font-size="14.00">1 </text>
<text text-anchor="middle" x="758.307" y="-314.39" font-family="Times,serif" font-size="14.00">* </text>
</g>
<!-- DMMPackage -->
<g id="node6" class="node"><title>DMMPackage</title>
<g id="a_node6"><a xlink:href="javascript:Action.selectClass(&quot;DMMPackage&quot;);" xlink:title="class DMMPackage
">
<polygon fill="none" stroke="black" points="1268.5,-382.5 1268.5,-418.5 1366.5,-418.5 1366.5,-382.5 1268.5,-382.5"/>
<text text-anchor="middle" x="1317.5" y="-396.8" font-family="Times,serif" font-size="14.00">DMMPackage</text>
</a>
</g>
</g>
<!-- DMMPackage&#45;&gt;ModelElement -->
<g id="edge3" class="edge"><title>DMMPackage&#45;&gt;ModelElement</title>
<path fill="none" stroke="black" d="M1244.04,-449.874 1255.2,-442.528 1275.23,-429.339 1291.55,-418.586"/>
<polygon fill="none" stroke="black" points="1241.93,-447.077 1235.5,-455.5 1245.78,-452.923 1241.93,-447.077"/>
</g>
<!-- DMMPackage&#45;&gt;DMMPackage -->
<g id="edge23" class="edge"><title>DMMPackage&#45;&gt;DMMPackage</title>
<g id="a_edge23"><a xlink:title="DMMPackage * &#160;&#45;&#45; 0..1 isSubpackageOf DMMPackage">
<path fill="none" stroke="black" d="M1366.58,-386.347C1376.99,-387.784 1384.5,-392.502 1384.5,-400.5 1384.5,-408.498 1376.99,-413.216 1366.58,-414.653"/>
</a>
</g>
<text text-anchor="middle" x="1425.08" y="-403.453" font-family="Times,serif" font-size="14.00">0..1 isSubpackageOf</text>
<text text-anchor="middle" x="1372.08" y="-375.147" font-family="Times,serif" font-size="14.00">* </text>
</g>
<!-- Contains -->
<g id="node7" class="node"><title>Contains</title>
<g id="a_node7"><a xlink:href="javascript:Action.selectClass(&quot;Contains&quot;);" xlink:title="class Contains
">
<polygon fill="none" stroke="black" points="1383.5,-274.5 1383.5,-310.5 1449.5,-310.5 1449.5,-274.5 1383.5,-274.5"/>
<text text-anchor="middle" x="1416.5" y="-288.8" font-family="Times,serif" font-size="14.00">Contains</text>
</a>
</g>
</g>
<!-- Contains&#45;&gt;ModelElement -->
<g id="edge25" class="edge"><title>Contains&#45;&gt;ModelElement</title>
<g id="a_edge25"><a xlink:title="Contains 0..1 &#160;&#45;&#45; 1 &#160;ModelElement">
<path fill="none" stroke="black" d="M1305.15,-468.343 1335.7,-460.415 1371.7,-445.79 1393.5,-419 1419.09,-387.559 1419.85,-336.938 1418.2,-310.625"/>
</a>
</g>
<text text-anchor="middle" x="1310.65" y="-457.143" font-family="Times,serif" font-size="14.00">1 </text>
<text text-anchor="middle" x="1430.7" y="-314.425" font-family="Times,serif" font-size="14.00">0..1 </text>
</g>
<!-- Contains&#45;&gt;DMMPackage -->
<g id="edge24" class="edge"><title>Contains&#45;&gt;DMMPackage</title>
<g id="a_edge24"><a xlink:title="Contains * contain &#45;&#45; 1 partOf DMMPackage">
<path fill="none" stroke="black" d="M1334.54,-382.325 1344.78,-371.917 1358.01,-358.313 1369.5,-346 1380.35,-334.371 1392.3,-321.014 1401.43,-310.683"/>
</a>
</g>
<text text-anchor="middle" x="1310.54" y="-371.125" font-family="Times,serif" font-size="14.00">1 partOf</text>
<text text-anchor="middle" x="1375.43" y="-314.483" font-family="Times,serif" font-size="14.00">* contain</text>
</g>
<!-- Type -->
<g id="node8" class="node"><title>Type</title>
<g id="a_node8"><a xlink:href="javascript:Action.selectClass(&quot;Type&quot;);" xlink:title="class Type
">
<polygon fill="none" stroke="black" points="307.5,-274.5 307.5,-310.5 361.5,-310.5 361.5,-274.5 307.5,-274.5"/>
<text text-anchor="middle" x="334.5" y="-288.8" font-family="Times,serif" font-size="14.00">Type</text>
</a>
</g>
</g>
<!-- Type&#45;&gt;StructuralElement -->
<g id="edge4" class="edge"><title>Type&#45;&gt;StructuralElement</title>
<path fill="none" stroke="black" d="M361.634,-300.189C435.586,-318.421 638.306,-368.4 685.561,-380.05"/>
<polygon fill="none" stroke="black" points="684.953,-383.504 695.5,-382.5 686.629,-376.708 684.953,-383.504"/>
</g>
<!-- IsDefinedInTermsOf -->
<g id="node9" class="node"><title>IsDefinedInTermsOf</title>
<g id="a_node9"><a xlink:href="javascript:Action.selectClass(&quot;IsDefinedInTermsOf&quot;);" xlink:title="class IsDefinedInTermsOf
">
<polygon fill="none" stroke="black" points="0,-161.5 0,-197.5 133,-197.5 133,-161.5 0,-161.5"/>
<text text-anchor="middle" x="66.5" y="-175.8" font-family="Times,serif" font-size="14.00">IsDefinedInTermsOf</text>
</a>
</g>
</g>
<!-- IsDefinedInTermsOf&#45;&gt;Type -->
<g id="edge26" class="edge"><title>IsDefinedInTermsOf&#45;&gt;Type</title>
<g id="a_edge26"><a xlink:title="IsDefinedInTermsOf * definesBy &#45;&#45; 1 definedBy Type">
<path fill="none" stroke="black" d="M102.752,-197.6C157.277,-221.257 258.818,-263.17 307.427,-281.942"/>
</a>
</g>
<text text-anchor="middle" x="272.927" y="-285.742" font-family="Times,serif" font-size="14.00">1 definedBy</text>
<text text-anchor="middle" x="69.2516" y="-201.4" font-family="Times,serif" font-size="14.00">* definesBy</text>
</g>
<!-- IsDefinedInTermsOf&#45;&gt;Type -->
<g id="edge27" class="edge"><title>IsDefinedInTermsOf&#45;&gt;Type</title>
<g id="a_edge27"><a xlink:title="IsDefinedInTermsOf * definedBy &#45;&#45; 1 definesBy Type">
<path fill="none" stroke="black" d="M112.824,-197.6C169.001,-219.858 261.597,-258.277 307.366,-278.378"/>
</a>
</g>
<text text-anchor="middle" x="273.866" y="-267.178" font-family="Times,serif" font-size="14.00">1 definesBy</text>
<text text-anchor="middle" x="147.324" y="-201.4" font-family="Times,serif" font-size="14.00">* definedBy</text>
</g>
<!-- Value -->
<g id="node10" class="node"><title>Value</title>
<g id="a_node10"><a xlink:href="javascript:Action.selectClass(&quot;Value&quot;);" xlink:title="class Value
">
<polygon fill="none" stroke="black" points="648.5,-274.5 648.5,-310.5 702.5,-310.5 702.5,-274.5 648.5,-274.5"/>
<text text-anchor="middle" x="675.5" y="-288.8" font-family="Times,serif" font-size="14.00">Value</text>
</a>
</g>
</g>
<!-- Value&#45;&gt;StructuralElement -->
<g id="edge5" class="edge"><title>Value&#45;&gt;StructuralElement</title>
<path fill="none" stroke="black" d="M679.356,-310.66C683.488,-329.047 689.904,-357.6 693.269,-372.571"/>
<polygon fill="none" stroke="black" points="689.893,-373.511 695.5,-382.5 696.722,-371.976 689.893,-373.511"/>
</g>
<!-- IsOfType -->
<g id="node11" class="node"><title>IsOfType</title>
<g id="a_node11"><a xlink:href="javascript:Action.selectClass(&quot;IsOfType&quot;);" xlink:title="class IsOfType
">
<polygon fill="none" stroke="black" points="526.5,-161.5 526.5,-197.5 596.5,-197.5 596.5,-161.5 526.5,-161.5"/>
<text text-anchor="middle" x="561.5" y="-175.8" font-family="Times,serif" font-size="14.00">IsOfType</text>
</a>
</g>
</g>
<!-- IsOfType&#45;&gt;Type -->
<g id="edge29" class="edge"><title>IsOfType&#45;&gt;Type</title>
<g id="a_edge29"><a xlink:title="IsOfType * &#160;&#45;&#45; 1 &#160;Type">
<path fill="none" stroke="black" d="M361.568,-278.641 397.364,-261.583 462.362,-230.426 517.5,-203 521.034,-201.242 524.718,-199.39 528.385,-197.533"/>
</a>
</g>
<text text-anchor="middle" x="367.068" y="-267.441" font-family="Times,serif" font-size="14.00">1 </text>
<text text-anchor="middle" x="522.885" y="-201.333" font-family="Times,serif" font-size="14.00">* </text>
</g>
<!-- IsOfType&#45;&gt;Value -->
<g id="edge28" class="edge"><title>IsOfType&#45;&gt;Value</title>
<g id="a_edge28"><a xlink:title="IsOfType 0..1 &#160;&#45;&#45; 1 &#160;Value">
<path fill="none" stroke="black" d="M579.312,-197.844C600.729,-218.697 636.452,-253.479 657.813,-274.278"/>
</a>
</g>
<text text-anchor="middle" x="652.313" y="-263.078" font-family="Times,serif" font-size="14.00">1 </text>
<text text-anchor="middle" x="566.812" y="-201.644" font-family="Times,serif" font-size="14.00">0..1 </text>
</g>
<!-- EnumerationLiteral -->
<g id="node12" class="node"><title>EnumerationLiteral</title>
<g id="a_node12"><a xlink:href="javascript:Action.selectClass(&quot;EnumerationLiteral&quot;);" xlink:title="class EnumerationLiteral
">
<polygon fill="none" stroke="black" points="614.5,-161.5 614.5,-197.5 740.5,-197.5 740.5,-161.5 614.5,-161.5"/>
<text text-anchor="middle" x="677.5" y="-175.8" font-family="Times,serif" font-size="14.00">EnumerationLiteral</text>
</a>
</g>
</g>
<!-- EnumerationLiteral&#45;&gt;Value -->
<g id="edge6" class="edge"><title>EnumerationLiteral&#45;&gt;Value</title>
<path fill="none" stroke="black" d="M678.6,-197.741C679.845,-217.246 681.832,-248.366 682.851,-264.329"/>
<polygon fill="none" stroke="black" points="679.37,-264.743 683.5,-274.5 686.356,-264.297 679.37,-264.743"/>
</g>
<!-- IsEnumerationLiteralOf -->
<g id="node13" class="node"><title>IsEnumerationLiteralOf</title>
<g id="a_node13"><a xlink:href="javascript:Action.selectClass(&quot;IsEnumerationLiteralOf&quot;);" xlink:title="class IsEnumerationLiteralOf
">
<polygon fill="none" stroke="black" points="362,-78.5 362,-114.5 513,-114.5 513,-78.5 362,-78.5"/>
<text text-anchor="middle" x="437.5" y="-92.8" font-family="Times,serif" font-size="14.00">IsEnumerationLiteralOf</text>
</a>
</g>
</g>
<!-- IsEnumerationLiteralOf&#45;&gt;EnumerationLiteral -->
<g id="edge30" class="edge"><title>IsEnumerationLiteralOf&#45;&gt;EnumerationLiteral</title>
<g id="a_edge30"><a xlink:title="IsEnumerationLiteralOf 1..* &#160;&#45;&#45; 1 &#160;EnumerationLiteral">
<path fill="none" stroke="black" d="M488.105,-114.579C528.95,-128.364 586.138,-147.665 626.965,-161.444"/>
</a>
</g>
<text text-anchor="middle" x="621.465" y="-150.244" font-family="Times,serif" font-size="14.00">1 </text>
<text text-anchor="middle" x="475.605" y="-118.379" font-family="Times,serif" font-size="14.00">1..* </text>
</g>
<!-- EnumeratedType -->
<g id="node18" class="node"><title>EnumeratedType</title>
<g id="a_node18"><a xlink:href="javascript:Action.selectClass(&quot;EnumeratedType&quot;);" xlink:title="class EnumeratedType
">
<polygon fill="none" stroke="black" points="151,-161.5 151,-197.5 264,-197.5 264,-161.5 151,-161.5"/>
<text text-anchor="middle" x="207.5" y="-175.8" font-family="Times,serif" font-size="14.00">EnumeratedType</text>
</a>
</g>
</g>
<!-- IsEnumerationLiteralOf&#45;&gt;EnumeratedType -->
<g id="edge31" class="edge"><title>IsEnumerationLiteralOf&#45;&gt;EnumeratedType</title>
<g id="a_edge31"><a xlink:title="IsEnumerationLiteralOf * &#160;&#45;&#45; 1 &#160;EnumeratedType">
<path fill="none" stroke="black" d="M255.93,-161.444 295.055,-147.665 349.861,-128.364 389.004,-114.579"/>
</a>
</g>
<text text-anchor="middle" x="261.43" y="-150.244" font-family="Times,serif" font-size="14.00">1 </text>
<text text-anchor="middle" x="383.504" y="-118.379" font-family="Times,serif" font-size="14.00">* </text>
</g>
<!-- Variable -->
<g id="node14" class="node"><title>Variable</title>
<g id="a_node14"><a xlink:href="javascript:Action.selectClass(&quot;Variable&quot;);" xlink:title="class Variable
">
<polygon fill="none" stroke="black" points="759,-161.5 759,-197.5 824,-197.5 824,-161.5 759,-161.5"/>
<text text-anchor="middle" x="791.5" y="-175.8" font-family="Times,serif" font-size="14.00">Variable</text>
</a>
</g>
</g>
<!-- Variable&#45;&gt;Value -->
<g id="edge7" class="edge"><title>Variable&#45;&gt;Value</title>
<path fill="none" stroke="black" d="M682.975,-264.253 686.739,-256.813 694.476,-246.737 702.5,-239 719.345,-222.758 740.871,-207.263 758.699,-196.305"/>
<polygon fill="none" stroke="black" points="679.493,-264.692 683.5,-274.5 686.483,-264.334 679.493,-264.692"/>
</g>
<!-- Variable&#45;&gt;Value -->
<g id="edge32" class="edge"><title>Variable&#45;&gt;Value</title>
<g id="a_edge32"><a xlink:title="Variable 0..1 &#160;&#45;&#45; 0..1 hasValue Value">
<path fill="none" stroke="black" d="M683.925,-274.484 692.923,-273.828 706.26,-252.73 720.5,-239 736.726,-223.355 757.294,-208.403 772.306,-197.532"/>
</a>
</g>
<text text-anchor="middle" x="722.425" y="-263.284" font-family="Times,serif" font-size="14.00">0..1 hasValue</text>
<text text-anchor="middle" x="759.806" y="-201.332" font-family="Times,serif" font-size="14.00">0..1 </text>
</g>
<!-- Property -->
<g id="node15" class="node"><title>Property</title>
<g id="a_node15"><a xlink:href="javascript:Action.selectClass(&quot;Property&quot;);" xlink:title="class Property
">
<polygon fill="none" stroke="black" points="898,-78.5 898,-114.5 963,-114.5 963,-78.5 898,-78.5"/>
<text text-anchor="middle" x="930.5" y="-92.8" font-family="Times,serif" font-size="14.00">Property</text>
</a>
</g>
</g>
<!-- Property&#45;&gt;Variable -->
<g id="edge8" class="edge"><title>Property&#45;&gt;Variable</title>
<path fill="none" stroke="black" d="M803.948,-157.61 821.013,-150.521 858.036,-134.858 888.5,-120 891.92,-118.332 895.467,-116.537 898.985,-114.714"/>
<polygon fill="none" stroke="black" points="802.414,-154.456 794.5,-161.5 805.079,-160.929 802.414,-154.456"/>
</g>
<!-- MethodInProperty -->
<g id="node17" class="node"><title>MethodInProperty</title>
<g id="a_node17"><a xlink:href="javascript:Action.selectClass(&quot;MethodInProperty&quot;);" xlink:title="class MethodInProperty
">
<polygon fill="none" stroke="black" points="843.5,-161.5 843.5,-197.5 963.5,-197.5 963.5,-161.5 843.5,-161.5"/>
<text text-anchor="middle" x="903.5" y="-175.8" font-family="Times,serif" font-size="14.00">MethodInProperty</text>
</a>
</g>
</g>
<!-- Property&#45;&gt;MethodInProperty -->
<g id="edge33" class="edge"><title>Property&#45;&gt;MethodInProperty</title>
<g id="a_edge33"><a xlink:title="Property 1 &#160;&#45;&#45; 1 &#160;MethodInProperty">
<path fill="none" stroke="black" d="M909.218,-161.347 913.798,-147.607 920.192,-128.424 924.774,-114.678"/>
</a>
</g>
<text text-anchor="middle" x="903.718" y="-150.147" font-family="Times,serif" font-size="14.00">1 </text>
<text text-anchor="middle" x="919.274" y="-118.478" font-family="Times,serif" font-size="14.00">1 </text>
</g>
<!-- Method -->
<g id="node16" class="node"><title>Method</title>
<g id="a_node16"><a xlink:href="javascript:Action.selectClass(&quot;Method&quot;);" xlink:title="class Method
Positioning
">
<polygon fill="none" stroke="black" points="807,-239.5 807,-345.5 1000,-345.5 1000,-239.5 807,-239.5"/>
<text text-anchor="middle" x="903.5" y="-330.3" font-family="Times,serif" font-size="14.00">Method</text>
<polyline fill="none" stroke="black" points="807,-322.5 1000,-322.5 "/>
<text text-anchor="start" x="815" y="-307.3" font-family="Times,serif" font-size="14.00">isConstructor : Boolean</text>
<text text-anchor="start" x="815" y="-292.3" font-family="Times,serif" font-size="14.00">isDestructor : Boolean</text>
<text text-anchor="start" x="815" y="-277.3" font-family="Times,serif" font-size="14.00">isAbstract : Boolean</text>
<text text-anchor="start" x="815" y="-262.3" font-family="Times,serif" font-size="14.00">isDynamicallyBound : Boolean</text>
<text text-anchor="start" x="815" y="-247.3" font-family="Times,serif" font-size="14.00">isOverideable : Boolean</text>
</a>
</g>
</g>
<!-- Method&#45;&gt;BehaviouralElement -->
<g id="edge9" class="edge"><title>Method&#45;&gt;BehaviouralElement</title>
<path fill="none" stroke="black" d="M1000.15,-342.493C1003.28,-343.72 1006.41,-344.894 1009.5,-346 1063.58,-365.339 1131.8,-377.035 1157.28,-380.988"/>
<polygon fill="none" stroke="black" points="1157.1,-384.498 1167.5,-382.5 1158.12,-377.573 1157.1,-384.498"/>
</g>
<!-- MethodInProperty&#45;&gt;Method -->
<g id="edge10" class="edge"><title>MethodInProperty&#45;&gt;Method</title>
<path fill="none" stroke="black" d="M903.5,-197.844C903.5,-206.521 903.5,-217.61 903.5,-229.1"/>
<polygon fill="none" stroke="black" points="900,-229.25 903.5,-239.25 907,-229.25 900,-229.25"/>
</g>
<!-- EnumeratedType&#45;&gt;Type -->
<g id="edge11" class="edge"><title>EnumeratedType&#45;&gt;Type</title>
<path fill="none" stroke="black" d="M230.499,-197.523C259.377,-218.897 307.435,-254.468 326.424,-268.523"/>
<polygon fill="none" stroke="black" points="324.38,-271.364 334.5,-274.5 328.544,-265.737 324.38,-271.364"/>
</g>
<!-- CollectionType -->
<g id="node19" class="node"><title>CollectionType</title>
<g id="a_node19"><a xlink:href="javascript:Action.selectClass(&quot;CollectionType&quot;);" xlink:title="class CollectionType
">
<polygon fill="none" stroke="black" points="404.5,-156.5 404.5,-202.5 508.5,-202.5 508.5,-156.5 404.5,-156.5"/>
<text text-anchor="middle" x="456.5" y="-187.3" font-family="Times,serif" font-size="14.00">CollectionType</text>
<polyline fill="none" stroke="black" points="404.5,-179.5 508.5,-179.5 "/>
<text text-anchor="start" x="412.5" y="-164.3" font-family="Times,serif" font-size="14.00">size : String</text>
</a>
</g>
</g>
<!-- CollectionType&#45;&gt;Type -->
<g id="edge12" class="edge"><title>CollectionType&#45;&gt;Type</title>
<path fill="none" stroke="black" d="M342.674,-268.202 359.799,-255.008 400.147,-223.919 427.896,-202.539"/>
<polygon fill="none" stroke="black" points="340.285,-265.624 334.5,-274.5 344.558,-271.169 340.285,-265.624"/>
</g>
<!-- StructuredType -->
<g id="node20" class="node"><title>StructuredType</title>
<g id="a_node20"><a xlink:href="javascript:Action.selectClass(&quot;StructuredType&quot;);" xlink:title="class StructuredType
">
<polygon fill="none" stroke="black" points="282.5,-161.5 282.5,-197.5 386.5,-197.5 386.5,-161.5 282.5,-161.5"/>
<text text-anchor="middle" x="334.5" y="-175.8" font-family="Times,serif" font-size="14.00">StructuredType</text>
</a>
</g>
</g>
<!-- StructuredType&#45;&gt;Type -->
<g id="edge13" class="edge"><title>StructuredType&#45;&gt;Type</title>
<path fill="none" stroke="black" d="M334.5,-197.741C334.5,-217.246 334.5,-248.366 334.5,-264.329"/>
<polygon fill="none" stroke="black" points="331,-264.5 334.5,-274.5 338,-264.5 331,-264.5"/>
</g>
<!-- Field -->
<g id="node21" class="node"><title>Field</title>
<g id="a_node21"><a xlink:href="javascript:Action.selectClass(&quot;Field&quot;);" xlink:title="class Field
">
<polygon fill="none" stroke="black" points="531.5,-78.5 531.5,-114.5 585.5,-114.5 585.5,-78.5 531.5,-78.5"/>
<text text-anchor="middle" x="558.5" y="-92.8" font-family="Times,serif" font-size="14.00">Field</text>
</a>
</g>
</g>
<!-- Field&#45;&gt;Variable -->
<g id="edge14" class="edge"><title>Field&#45;&gt;Variable</title>
<path fill="none" stroke="black" d="M583.471,-114.651C587.069,-116.66 590.806,-118.518 594.5,-120 630.209,-134.329 749.084,-154.184 784.475,-159.902"/>
<polygon fill="none" stroke="black" points="784.074,-163.382 794.5,-161.5 785.176,-156.469 784.074,-163.382"/>
</g>
<!-- IsFieldOf -->
<g id="node22" class="node"><title>IsFieldOf</title>
<g id="a_node22"><a xlink:href="javascript:Action.selectClass(&quot;IsFieldOf&quot;);" xlink:title="class IsFieldOf
">
<polygon fill="none" stroke="black" points="411.5,-0.5 411.5,-36.5 481.5,-36.5 481.5,-0.5 411.5,-0.5"/>
<text text-anchor="middle" x="446.5" y="-14.8" font-family="Times,serif" font-size="14.00">IsFieldOf</text>
</a>
</g>
</g>
<!-- IsFieldOf&#45;&gt;StructuredType -->
<g id="edge35" class="edge"><title>IsFieldOf&#45;&gt;StructuredType</title>
<g id="a_edge35"><a xlink:title="IsFieldOf * &#160;&#45;&#45; 1 &#160;StructuredType">
<path fill="none" stroke="black" d="M333.162,-161.496 332.281,-139.152 333.841,-99.6298 352.5,-73 366.615,-52.8545 390.899,-39.3174 411.248,-30.9006"/>
</a>
</g>
<text text-anchor="middle" x="327.662" y="-150.296" font-family="Times,serif" font-size="14.00">1 </text>
<text text-anchor="middle" x="405.748" y="-19.7006" font-family="Times,serif" font-size="14.00">* </text>
</g>
<!-- IsFieldOf&#45;&gt;Field -->
<g id="edge34" class="edge"><title>IsFieldOf&#45;&gt;Field</title>
<g id="a_edge34"><a xlink:title="IsFieldOf 1 &#160;&#45;&#45; 1 &#160;Field">
<path fill="none" stroke="black" d="M471.635,-36.5559C489.952,-48.9849 514.675,-65.7613 533.061,-78.2381"/>
</a>
</g>
<text text-anchor="middle" x="527.561" y="-67.0381" font-family="Times,serif" font-size="14.00">1 </text>
<text text-anchor="middle" x="466.135" y="-40.3559" font-family="Times,serif" font-size="14.00">1 </text>
</g>
<!-- FormalParameter -->
<g id="node23" class="node"><title>FormalParameter</title>
<g id="a_node23"><a xlink:href="javascript:Action.selectClass(&quot;FormalParameter&quot;);" xlink:title="class FormalParameter
">
<polygon fill="none" stroke="black" points="765.5,-73.5 765.5,-119.5 879.5,-119.5 879.5,-73.5 765.5,-73.5"/>
<text text-anchor="middle" x="822.5" y="-104.3" font-family="Times,serif" font-size="14.00">FormalParameter</text>
<polyline fill="none" stroke="black" points="765.5,-96.5 879.5,-96.5 "/>
<text text-anchor="start" x="773.5" y="-81.3" font-family="Times,serif" font-size="14.00">pos : String</text>
</a>
</g>
</g>
<!-- FormalParameter&#45;&gt;Variable -->
<g id="edge15" class="edge"><title>FormalParameter&#45;&gt;Variable</title>
<path fill="none" stroke="black" d="M798.602,-152.123 802.336,-143.589 807.992,-130.662 812.864,-119.525"/>
<polygon fill="none" stroke="black" points="795.302,-150.936 794.5,-161.5 801.715,-153.741 795.302,-150.936"/>
</g>
<!-- IsParameterOf -->
<g id="node24" class="node"><title>IsParameterOf</title>
<g id="a_node24"><a xlink:href="javascript:Action.selectClass(&quot;IsParameterOf&quot;);" xlink:title="class IsParameterOf
">
<polygon fill="none" stroke="black" points="1235.5,-0.5 1235.5,-36.5 1333.5,-36.5 1333.5,-0.5 1235.5,-0.5"/>
<text text-anchor="middle" x="1284.5" y="-14.8" font-family="Times,serif" font-size="14.00">IsParameterOf</text>
</a>
</g>
</g>
<!-- IsParameterOf&#45;&gt;BehaviouralElement -->
<g id="edge37" class="edge"><title>IsParameterOf&#45;&gt;BehaviouralElement</title>
<g id="a_edge37"><a xlink:title="IsParameterOf * &#160;&#45;&#45; 1 &#160;BehaviouralElement">
<path fill="none" stroke="black" d="M1247.17,-382.381 1266.1,-374.312 1285.03,-362.662 1297.5,-346 1384.75,-229.389 1359.4,-147.043 1331.5,-73 1326.18,-58.8858 1315.26,-46.0737 1305.28,-36.5282"/>
</a>
</g>
<text text-anchor="middle" x="1252.67" y="-386.181" font-family="Times,serif" font-size="14.00">1 </text>
<text text-anchor="middle" x="1299.78" y="-40.3282" font-family="Times,serif" font-size="14.00">* </text>
</g>
<!-- IsParameterOf&#45;&gt;FormalParameter -->
<g id="edge36" class="edge"><title>IsParameterOf&#45;&gt;FormalParameter</title>
<g id="a_edge36"><a xlink:title="IsParameterOf 1 &#160;&#45;&#45; 1 &#160;FormalParameter">
<path fill="none" stroke="black" d="M879.538,-75.2947 882.554,-74.4653 885.554,-73.693 888.5,-73 1005.49,-45.4796 1037.41,-53.1398 1156.5,-37 1182.5,-33.4758 1211.48,-29.5176 1235.27,-26.2582"/>
</a>
</g>
<text text-anchor="middle" x="885.038" y="-64.0947" font-family="Times,serif" font-size="14.00">1 </text>
<text text-anchor="middle" x="1229.77" y="-15.0582" font-family="Times,serif" font-size="14.00">1 </text>
</g>
<!-- DMMClass -->
<g id="node25" class="node"><title>DMMClass</title>
<g id="a_node25"><a xlink:href="javascript:Action.selectClass(&quot;DMMClass&quot;);" xlink:title="class DMMClass
">
<polygon fill="none" stroke="black" points="604,-73.5 604,-119.5 747,-119.5 747,-73.5 604,-73.5"/>
<text text-anchor="middle" x="675.5" y="-104.3" font-family="Times,serif" font-size="14.00">DMMClass</text>
<polyline fill="none" stroke="black" points="604,-96.5 747,-96.5 "/>
<text text-anchor="start" x="612" y="-81.3" font-family="Times,serif" font-size="14.00">isSubclassable : String</text>
</a>
</g>
</g>
<!-- DMMClass&#45;&gt;StructuredType -->
<g id="edge16" class="edge"><title>DMMClass&#45;&gt;StructuredType</title>
<path fill="none" stroke="black" d="M387.547,-158.314 390.223,-157.49 392.885,-156.713 395.5,-156 482.215,-132.358 506.885,-140.049 594.5,-120 597.488,-119.316 600.53,-118.593 603.599,-117.842"/>
<polygon fill="none" stroke="black" points="386.281,-155.045 377.851,-161.462 388.443,-161.702 386.281,-155.045"/>
</g>
<!-- InheritsFrom -->
<g id="node26" class="node"><title>InheritsFrom</title>
<g id="a_node26"><a xlink:href="javascript:Action.selectClass(&quot;InheritsFrom&quot;);" xlink:title="class InheritsFrom
">
<polygon fill="none" stroke="black" points="630.5,-0.5 630.5,-36.5 720.5,-36.5 720.5,-0.5 630.5,-0.5"/>
<text text-anchor="middle" x="675.5" y="-14.8" font-family="Times,serif" font-size="14.00">InheritsFrom</text>
</a>
</g>
</g>
<!-- InheritsFrom&#45;&gt;DMMClass -->
<g id="edge38" class="edge"><title>InheritsFrom&#45;&gt;DMMClass</title>
<g id="a_edge38"><a xlink:title="InheritsFrom 1 transmits &#45;&#45; * inherits DMMClass">
<path fill="none" stroke="black" d="M669.306,-73.4092 668.441,-61.7311 668.585,-47.6068 669.739,-36.7456"/>
</a>
</g>
<text text-anchor="middle" x="642.806" y="-62.2092" font-family="Times,serif" font-size="14.00">* inherits</text>
<text text-anchor="middle" x="638.739" y="-40.5456" font-family="Times,serif" font-size="14.00">1 transmits</text>
</g>
<!-- InheritsFrom&#45;&gt;DMMClass -->
<g id="edge39" class="edge"><title>InheritsFrom&#45;&gt;DMMClass</title>
<g id="a_edge39"><a xlink:title="InheritsFrom 1 inherits &#45;&#45; * transmits DMMClass">
<path fill="none" stroke="black" d="M681.261,-36.7456C682.415,-47.6068 682.559,-61.7311 681.694,-73.4092"/>
</a>
</g>
<text text-anchor="middle" x="712.694" y="-62.2092" font-family="Times,serif" font-size="14.00">* transmits</text>
<text text-anchor="middle" x="707.761" y="-40.5456" font-family="Times,serif" font-size="14.00">1 inherits</text>
</g>
<!-- Imports -->
<g id="node27" class="node"><title>Imports</title>
<g id="a_node27"><a xlink:href="javascript:Action.selectClass(&quot;Imports&quot;);" xlink:title="class Imports
">
<polygon fill="none" stroke="black" points="1087.5,-0.5 1087.5,-36.5 1147.5,-36.5 1147.5,-0.5 1087.5,-0.5"/>
<text text-anchor="middle" x="1117.5" y="-14.8" font-family="Times,serif" font-size="14.00">Imports</text>
</a>
</g>
</g>
<!-- Imports&#45;&gt;DMMPackage -->
<g id="edge40" class="edge"><title>Imports&#45;&gt;DMMPackage</title>
<g id="a_edge40"><a xlink:title="Imports * &#160;&#45;&#45; 1 &#160;DMMPackage">
<path fill="none" stroke="black" d="M1137.72,-36.6916C1176.3,-70.8057 1259.89,-151.368 1297.5,-239 1318.43,-287.769 1319.36,-352.01 1318.41,-382.295"/>
</a>
</g>
<text text-anchor="middle" x="1312.91" y="-386.095" font-family="Times,serif" font-size="14.00">1 </text>
<text text-anchor="middle" x="1132.22" y="-40.4916" font-family="Times,serif" font-size="14.00">* </text>
</g>
<!-- Imports&#45;&gt;DMMClass -->
<g id="edge41" class="edge"><title>Imports&#45;&gt;DMMClass</title>
<g id="a_edge41"><a xlink:title="Imports * &#160;&#45;&#45; 1 &#160;DMMClass">
<path fill="none" stroke="black" d="M747.375,-75.0373 750.45,-74.3191 753.502,-73.636 756.5,-73 877.979,-47.2299 1025.05,-29.5596 1087.32,-22.6922"/>
</a>
</g>
<text text-anchor="middle" x="752.875" y="-63.8373" font-family="Times,serif" font-size="14.00">1 </text>
<text text-anchor="middle" x="1081.82" y="-11.4922" font-family="Times,serif" font-size="14.00">* </text>
</g>
<!-- ExecutableValue -->
<g id="node28" class="node"><title>ExecutableValue</title>
<g id="a_node28"><a xlink:href="javascript:Action.selectClass(&quot;ExecutableValue&quot;);" xlink:title="class ExecutableValue
">
<polygon fill="none" stroke="black" points="1018.5,-274.5 1018.5,-310.5 1130.5,-310.5 1130.5,-274.5 1018.5,-274.5"/>
<text text-anchor="middle" x="1074.5" y="-288.8" font-family="Times,serif" font-size="14.00">ExecutableValue</text>
</a>
</g>
</g>
<!-- ExecutableValue&#45;&gt;BehaviouralElement -->
<g id="edge17" class="edge"><title>ExecutableValue&#45;&gt;BehaviouralElement</title>
<path fill="none" stroke="black" d="M1092.43,-310.66C1112.91,-330.259 1145.46,-361.409 1160.03,-375.348"/>
<polygon fill="none" stroke="black" points="1157.86,-378.115 1167.5,-382.5 1162.7,-373.057 1157.86,-378.115"/>
</g>
<!-- IsMethodOf -->
<g id="node29" class="node"><title>IsMethodOf</title>
<g id="a_node29"><a xlink:href="javascript:Action.selectClass(&quot;IsMethodOf&quot;);" xlink:title="class IsMethodOf
">
<polygon fill="none" stroke="black" points="844,-0.5 844,-36.5 929,-36.5 929,-0.5 844,-0.5"/>
<text text-anchor="middle" x="886.5" y="-14.8" font-family="Times,serif" font-size="14.00">IsMethodOf</text>
</a>
</g>
</g>
<!-- IsMethodOf&#45;&gt;Method -->
<g id="edge43" class="edge"><title>IsMethodOf&#45;&gt;Method</title>
<g id="a_edge43"><a xlink:title="IsMethodOf 0..1 &#160;&#45;&#45; 1 hasMethod Method">
<path fill="none" stroke="black" d="M929.207,-35.7593C945.425,-44.2572 962.213,-56.4176 971.5,-73 999.734,-123.412 991.284,-148.359 972.5,-203 968.13,-215.713 961.103,-228.002 953.169,-239.172"/>
</a>
</g>
<text text-anchor="middle" x="989.669" y="-227.972" font-family="Times,serif" font-size="14.00">1 hasMethod</text>
<text text-anchor="middle" x="941.707" y="-24.5593" font-family="Times,serif" font-size="14.00">0..1 </text>
</g>
<!-- IsMethodOf&#45;&gt;DMMClass -->
<g id="edge42" class="edge"><title>IsMethodOf&#45;&gt;DMMClass</title>
<g id="a_edge42"><a xlink:title="IsMethodOf * &#160;&#45;&#45; 1 methodOf DMMClass">
<path fill="none" stroke="black" d="M736.933,-73.3725 771.227,-61.0202 813.094,-45.9401 843.801,-34.8797"/>
</a>
</g>
<text text-anchor="middle" x="770.933" y="-62.1725" font-family="Times,serif" font-size="14.00">1 methodOf</text>
<text text-anchor="middle" x="838.301" y="-23.6797" font-family="Times,serif" font-size="14.00">* </text>
</g>
<!-- Routine -->
<g id="node30" class="node"><title>Routine</title>
<g id="a_node30"><a xlink:href="javascript:Action.selectClass(&quot;Routine&quot;);" xlink:title="class Routine
">
<polygon fill="none" stroke="black" points="1149,-274.5 1149,-310.5 1210,-310.5 1210,-274.5 1149,-274.5"/>
<text text-anchor="middle" x="1179.5" y="-288.8" font-family="Times,serif" font-size="14.00">Routine</text>
</a>
</g>
</g>
<!-- Routine&#45;&gt;BehaviouralElement -->
<g id="edge18" class="edge"><title>Routine&#45;&gt;BehaviouralElement</title>
<path fill="none" stroke="black" d="M1168.84,-372.571 1170.86,-357.6 1174.71,-329.047 1177.19,-310.66"/>
<polygon fill="none" stroke="black" points="1165.37,-372.122 1167.5,-382.5 1172.3,-373.057 1165.37,-372.122"/>
</g>
</g>
</svg>
