<?xml version="1.0" encoding="UTF-8" standalone="no"?>
<!DOCTYPE svg PUBLIC "-//W3C//DTD SVG 1.1//EN"
 "http://www.w3.org/Graphics/SVG/1.1/DTD/svg11.dtd">
<!-- Generated by graphviz version 2.39.20140502.0445 (20140502.0445)
 -->
<!-- Title: DMMOverview Pages: 1 -->
<svg width="612pt" height="274pt"
 viewBox="0.00 0.00 611.50 274.00" xmlns="http://www.w3.org/2000/svg" xmlns:xlink="http://www.w3.org/1999/xlink">
<g id="graph0" class="graph" transform="scale(1 1) rotate(0) translate(4 270)">
<title>DMMOverview</title>
<polygon fill="white" stroke="none" points="-4,4 -4,-270 607.5,-270 607.5,4 -4,4"/>
<!-- SourceObject -->
<g id="node1" class="node"><title>SourceObject</title>
<g id="a_node1"><a xlink:href="javascript:Action.selectClass(&quot;SourceObject&quot;);" xlink:title="class SourceObject
This example refers to Figures 1, 4 and 5 of &#39;The Dagstuhl Middle Metamodel:
A Schema for Reverse Engineering&#39;, ATEM 2003, First International
Workshop on Meta&#45;Models and Schemas for Reverse Engineering,
WCRE, Victoria, B.C., in Electronic Notes in Theoretical Computer
Science, Elsevier, Vol. 94, pp 7&#45;18,
Authors: Lethbridge, T.C., Sander Tichelaar, and Erhard Ploedereder (2003)
To load the entire DMM example at once, copy and paste all
five DMM components (DMM*) into the editor. &#160;Please note that the
position attributes of classes and associations will need to be
re&#45;adjusted, as the example has been made to display the diagrams
as separate entities.
This is a UML class diagram written in Umple
Abstract
">
<polygon fill="none" stroke="black" points="18,-224.5 18,-260.5 111,-260.5 111,-224.5 18,-224.5"/>
<text text-anchor="middle" x="64.5" y="-238.8" font-family="Times,serif" font-size="14.00">SourceObject</text>
</a>
</g>
</g>
<!-- Defines -->
<g id="node2" class="node"><title>Defines</title>
<g id="a_node2"><a xlink:href="javascript:Action.selectClass(&quot;Defines&quot;);" xlink:title="class Defines
">
<polygon fill="none" stroke="black" points="0,-146.5 0,-182.5 59,-182.5 59,-146.5 0,-146.5"/>
<text text-anchor="middle" x="29.5" y="-160.8" font-family="Times,serif" font-size="14.00">Defines</text>
</a>
</g>
</g>
<!-- Defines&#45;&gt;SourceObject -->
<g id="edge6" class="edge"><title>Defines&#45;&gt;SourceObject</title>
<g id="a_edge6"><a xlink:title="Defines 0..1 &#160;&#45;&#45; 1 &#160;SourceObject">
<path fill="none" stroke="black" d="M37.442,-182.746C43.17,-195.183 50.8687,-211.901 56.5894,-224.323"/>
</a>
</g>
<text text-anchor="middle" x="51.0894" y="-213.123" font-family="Times,serif" font-size="14.00">1 </text>
<text text-anchor="middle" x="24.942" y="-186.546" font-family="Times,serif" font-size="14.00">0..1 </text>
</g>
<!-- ModelObject -->
<g id="node4" class="node"><title>ModelObject</title>
<g id="a_node4"><a xlink:href="javascript:Action.selectClass(&quot;ModelObject&quot;);" xlink:title="class ModelObject
Abstract
">
<polygon fill="none" stroke="black" points="146.5,-219.5 146.5,-265.5 238.5,-265.5 238.5,-219.5 146.5,-219.5"/>
<text text-anchor="middle" x="192.5" y="-250.3" font-family="Times,serif" font-size="14.00">ModelObject</text>
<polyline fill="none" stroke="black" points="146.5,-242.5 238.5,-242.5 "/>
<text text-anchor="start" x="154.5" y="-227.3" font-family="Times,serif" font-size="14.00">name : String</text>
</a>
</g>
</g>
<!-- Defines&#45;&gt;ModelObject -->
<g id="edge7" class="edge"><title>Defines&#45;&gt;ModelObject</title>
<g id="a_edge7"><a xlink:title="Defines 0..1 &#160;&#45;&#45; 1 &#160;ModelObject">
<path fill="none" stroke="black" d="M59.0181,-179.263C83.3298,-190.599 118.233,-206.873 146.251,-219.936"/>
</a>
</g>
<text text-anchor="middle" x="140.751" y="-208.736" font-family="Times,serif" font-size="14.00">1 </text>
<text text-anchor="middle" x="71.5181" y="-183.063" font-family="Times,serif" font-size="14.00">0..1 </text>
</g>
<!-- Declares -->
<g id="node3" class="node"><title>Declares</title>
<g id="a_node3"><a xlink:href="javascript:Action.selectClass(&quot;Declares&quot;);" xlink:title="class Declares
">
<polygon fill="none" stroke="black" points="77,-146.5 77,-182.5 142,-182.5 142,-146.5 77,-146.5"/>
<text text-anchor="middle" x="109.5" y="-160.8" font-family="Times,serif" font-size="14.00">Declares</text>
</a>
</g>
</g>
<!-- Declares&#45;&gt;SourceObject -->
<g id="edge8" class="edge"><title>Declares&#45;&gt;SourceObject</title>
<g id="a_edge8"><a xlink:title="Declares 0..1 &#160;&#45;&#45; 1 &#160;SourceObject">
<path fill="none" stroke="black" d="M74.6708,-224.323 82.026,-211.901 91.9243,-195.183 99.2888,-182.746"/>
</a>
</g>
<text text-anchor="middle" x="69.1708" y="-213.123" font-family="Times,serif" font-size="14.00">1 </text>
<text text-anchor="middle" x="111.789" y="-186.546" font-family="Times,serif" font-size="14.00">0..1 </text>
</g>
<!-- Declares&#45;&gt;ModelObject -->
<g id="edge9" class="edge"><title>Declares&#45;&gt;ModelObject</title>
<g id="a_edge9"><a xlink:title="Declares * &#160;&#45;&#45; 1 &#160;ModelObject">
<path fill="none" stroke="black" d="M128.334,-182.746C140.196,-193.607 155.621,-207.731 168.374,-219.409"/>
</a>
</g>
<text text-anchor="middle" x="162.874" y="-208.209" font-family="Times,serif" font-size="14.00">1 </text>
<text text-anchor="middle" x="133.834" y="-186.546" font-family="Times,serif" font-size="14.00">* </text>
</g>
<!-- Relationship -->
<g id="node5" class="node"><title>Relationship</title>
<g id="a_node5"><a xlink:href="javascript:Action.selectClass(&quot;Relationship&quot;);" xlink:title="class Relationship
Abstract
">
<polygon fill="none" stroke="black" points="334,-73.5 334,-109.5 421,-109.5 421,-73.5 334,-73.5"/>
<text text-anchor="middle" x="377.5" y="-87.8" font-family="Times,serif" font-size="14.00">Relationship</text>
</a>
</g>
</g>
<!-- SourceRelationship -->
<g id="node6" class="node"><title>SourceRelationship</title>
<g id="a_node6"><a xlink:href="javascript:Action.selectClass(&quot;SourceRelationship&quot;);" xlink:title="class SourceRelationship
">
<polygon fill="none" stroke="black" points="477.5,-0.5 477.5,-36.5 603.5,-36.5 603.5,-0.5 477.5,-0.5"/>
<text text-anchor="middle" x="540.5" y="-14.8" font-family="Times,serif" font-size="14.00">SourceRelationship</text>
</a>
</g>
</g>
<!-- SourceRelationship&#45;&gt;Relationship -->
<g id="edge1" class="edge"><title>SourceRelationship&#45;&gt;Relationship</title>
<path fill="none" stroke="black" d="M387.269,-70.2637 406.94,-63.7469 452.551,-48.6366 488.926,-36.5859"/>
<polygon fill="none" stroke="black" points="385.892,-67.0327 377.5,-73.5 388.093,-73.6776 385.892,-67.0327"/>
</g>
<!-- ModelElement -->
<g id="node7" class="node"><title>ModelElement</title>
<g id="a_node7"><a xlink:href="javascript:Action.selectClass(&quot;ModelElement&quot;);" xlink:title="class ModelElement
">
<polygon fill="none" stroke="black" points="160.5,-146.5 160.5,-182.5 260.5,-182.5 260.5,-146.5 160.5,-146.5"/>
<text text-anchor="middle" x="210.5" y="-160.8" font-family="Times,serif" font-size="14.00">ModelElement</text>
</a>
</g>
</g>
<!-- ModelElement&#45;&gt;ModelObject -->
<g id="edge2" class="edge"><title>ModelElement&#45;&gt;ModelObject</title>
<path fill="none" stroke="black" d="M199.068,-209.596 201.023,-202.052 203.763,-191.485 206.07,-182.586"/>
<polygon fill="none" stroke="black" points="195.622,-208.942 196.5,-219.5 202.398,-210.698 195.622,-208.942"/>
</g>
<!-- ModelRelationship -->
<g id="node8" class="node"><title>ModelRelationship</title>
<g id="a_node8"><a xlink:href="javascript:Action.selectClass(&quot;ModelRelationship&quot;);" xlink:title="class ModelRelationship
">
<polygon fill="none" stroke="black" points="148.5,-73.5 148.5,-109.5 272.5,-109.5 272.5,-73.5 148.5,-73.5"/>
<text text-anchor="middle" x="210.5" y="-87.8" font-family="Times,serif" font-size="14.00">ModelRelationship</text>
</a>
</g>
</g>
<!-- ModelRelationship&#45;&gt;ModelObject -->
<g id="edge3" class="edge"><title>ModelRelationship&#45;&gt;ModelObject</title>
<path fill="none" stroke="black" d="M206.515,-217.887 223.039,-214.626 255.57,-205.54 269.5,-183 278.145,-169.012 276.162,-161.034 269.5,-146 262.946,-131.209 250.059,-118.763 237.997,-109.608"/>
<polygon fill="none" stroke="black" points="205.816,-214.454 196.5,-219.5 206.929,-221.365 205.816,-214.454"/>
</g>
<!-- ModelRelationship&#45;&gt;ModelElement -->
<g id="edge10" class="edge"><title>ModelRelationship&#45;&gt;ModelElement</title>
<g id="a_edge10"><a xlink:title="ModelRelationship * toModelRel1 &#45;&#45; 1 toModelElem1 ModelElement">
<path fill="none" stroke="black" d="M204.622,-109.687C203.454,-120.85 203.459,-135.34 204.638,-146.471"/>
</a>
</g>
<text text-anchor="middle" x="252.138" y="-135.271" font-family="Times,serif" font-size="14.00">1 toModelElem1</text>
<text text-anchor="middle" x="162.122" y="-113.487" font-family="Times,serif" font-size="14.00">* toModelRel1</text>
</g>
<!-- ModelRelationship&#45;&gt;ModelElement -->
<g id="edge11" class="edge"><title>ModelRelationship&#45;&gt;ModelElement</title>
<g id="a_edge11"><a xlink:title="ModelRelationship * toModelRel2 &#45;&#45; 1 toModelElem2 ModelElement">
<path fill="none" stroke="black" d="M216.362,-146.471 217.541,-135.34 217.546,-120.85 216.378,-109.687"/>
</a>
</g>
<text text-anchor="middle" x="168.862" y="-135.271" font-family="Times,serif" font-size="14.00">1 toModelElem2</text>
<text text-anchor="middle" x="258.878" y="-113.487" font-family="Times,serif" font-size="14.00">* toModelRel2</text>
</g>
<!-- RelationshipInModel -->
<g id="node9" class="node"><title>RelationshipInModel</title>
<g id="a_node9"><a xlink:href="javascript:Action.selectClass(&quot;RelationshipInModel&quot;);" xlink:title="class RelationshipInModel
">
<polygon fill="none" stroke="black" points="143,-0.5 143,-36.5 278,-36.5 278,-0.5 143,-0.5"/>
<text text-anchor="middle" x="210.5" y="-14.8" font-family="Times,serif" font-size="14.00">RelationshipInModel</text>
</a>
</g>
</g>
<!-- RelationshipInModel&#45;&gt;Relationship -->
<g id="edge4" class="edge"><title>RelationshipInModel&#45;&gt;Relationship</title>
<path fill="none" stroke="black" d="M263.34,-36.5859C300.799,-48.6984 347.817,-63.902 367.8,-70.3633"/>
<polygon fill="none" stroke="black" points="366.908,-73.7535 377.5,-73.5 369.062,-67.093 366.908,-73.7535"/>
</g>
<!-- RelationshipInModel&#45;&gt;ModelRelationship -->
<g id="edge12" class="edge"><title>RelationshipInModel&#45;&gt;ModelRelationship</title>
<g id="a_edge12"><a xlink:title="RelationshipInModel 1 &#160;&#45;&#45; 1 &#160;ModelRelationship">
<path fill="none" stroke="black" d="M210.5,-36.6871C210.5,-47.8501 210.5,-62.3398 210.5,-73.4712"/>
</a>
</g>
<text text-anchor="middle" x="205" y="-62.2712" font-family="Times,serif" font-size="14.00">1 </text>
<text text-anchor="middle" x="205" y="-40.4871" font-family="Times,serif" font-size="14.00">1 </text>
</g>
<!-- SourceModelRelationship -->
<g id="node10" class="node"><title>SourceModelRelationship</title>
<g id="a_node10"><a xlink:href="javascript:Action.selectClass(&quot;SourceModelRelationship&quot;);" xlink:title="class SourceModelRelationship
Positioning
">
<polygon fill="none" stroke="black" points="296,-0.5 296,-36.5 459,-36.5 459,-0.5 296,-0.5"/>
<text text-anchor="middle" x="377.5" y="-14.8" font-family="Times,serif" font-size="14.00">SourceModelRelationship</text>
</a>
</g>
</g>
<!-- SourceModelRelationship&#45;&gt;Relationship -->
<g id="edge5" class="edge"><title>SourceModelRelationship&#45;&gt;Relationship</title>
<path fill="none" stroke="black" d="M377.5,-36.5859C377.5,-45.3613 377.5,-55.7591 377.5,-63.2795"/>
<polygon fill="none" stroke="black" points="374,-63.5 377.5,-73.5 381,-63.5 374,-63.5"/>
</g>
</g>
</svg>
