<?xml version="1.0" encoding="UTF-8" standalone="no"?>
<!DOCTYPE svg PUBLIC "-//W3C//DTD SVG 1.1//EN"
 "http://www.w3.org/Graphics/SVG/1.1/DTD/svg11.dtd">
<!-- Generated by graphviz version 2.39.20140502.0445 (20140502.0445)
 -->
<!-- Title: DMMRelationshipHierarchy Pages: 1 -->
<svg width="1497pt" height="264pt"
 viewBox="0.00 0.00 1497.00 264.00" xmlns="http://www.w3.org/2000/svg" xmlns:xlink="http://www.w3.org/1999/xlink">
<g id="graph0" class="graph" transform="scale(1 1) rotate(0) translate(4 260)">
<title>DMMRelationshipHierarchy</title>
<polygon fill="white" stroke="none" points="-4,4 -4,-260 1493,-260 1493,4 -4,4"/>
<!-- ModelRelationship -->
<g id="node1" class="node"><title>ModelRelationship</title>
<g id="a_node1"><a xlink:href="javascript:Action.selectClass(&quot;ModelRelationship&quot;);" xlink:title="class ModelRelationship
This example refers to Figures 4 and 5 of &#39;The Dagstuhl Middle Metamodel:
A Schema for Reverse Engineering&#39;, ATEM 2003, First International
Workshop on Meta&#45;Models and Schemas for Reverse Engineering,
WCRE, Victoria, B.C., in Electronic Notes in Theoretical Computer
Science, Elsevier, Vol. 94, pp 7&#45;18,
Authors: Lethbridge, T.C., Sander Tichelaar, and Erhard Ploedereder (2003)
To load the entire DMM example at once, copy and paste all
five DMM components (DMM*) into the editor. &#160;Please note that the
position attributes of classes and associations will need to be
re&#45;adjusted, as the example has been made to display the diagrams
as separate entities.
This is a UML class diagram written in Umple
">
<polygon fill="none" stroke="black" points="367.5,-219.5 367.5,-255.5 491.5,-255.5 491.5,-219.5 367.5,-219.5"/>
<text text-anchor="middle" x="429.5" y="-233.8" font-family="Times,serif" font-size="14.00">ModelRelationship</text>
</a>
</g>
</g>
<!-- SourceRelationship -->
<g id="node2" class="node"><title>SourceRelationship</title>
<g id="a_node2"><a xlink:href="javascript:Action.selectClass(&quot;SourceRelationship&quot;);" xlink:title="class SourceRelationship
">
<polygon fill="none" stroke="black" points="1097.5,-73.5 1097.5,-109.5 1223.5,-109.5 1223.5,-73.5 1097.5,-73.5"/>
<text text-anchor="middle" x="1160.5" y="-87.8" font-family="Times,serif" font-size="14.00">SourceRelationship</text>
</a>
</g>
</g>
<!-- SourceModelRelationship -->
<g id="node3" class="node"><title>SourceModelRelationship</title>
<g id="a_node3"><a xlink:href="javascript:Action.selectClass(&quot;SourceModelRelationship&quot;);" xlink:title="class SourceModelRelationship
">
<polygon fill="none" stroke="black" points="1326,-73.5 1326,-109.5 1489,-109.5 1489,-73.5 1326,-73.5"/>
<text text-anchor="middle" x="1407.5" y="-87.8" font-family="Times,serif" font-size="14.00">SourceModelRelationship</text>
</a>
</g>
</g>
<!-- IsExpansionOf -->
<g id="node4" class="node"><title>IsExpansionOf</title>
<g id="a_node4"><a xlink:href="javascript:Action.selectClass(&quot;IsExpansionOf&quot;);" xlink:title="class IsExpansionOf
">
<polygon fill="none" stroke="black" points="963.5,-0.5 963.5,-36.5 1063.5,-36.5 1063.5,-0.5 963.5,-0.5"/>
<text text-anchor="middle" x="1013.5" y="-14.8" font-family="Times,serif" font-size="14.00">IsExpansionOf</text>
</a>
</g>
</g>
<!-- IsExpansionOf&#45;&gt;SourceRelationship -->
<g id="edge1" class="edge"><title>IsExpansionOf&#45;&gt;SourceRelationship</title>
<path fill="none" stroke="black" d="M1060.01,-36.5859C1092.31,-48.4512 1132.69,-63.2827 1150.85,-69.9569"/>
<polygon fill="none" stroke="black" points="1149.91,-73.3371 1160.5,-73.5 1152.32,-66.7664 1149.91,-73.3371"/>
</g>
<!-- Describes -->
<g id="node5" class="node"><title>Describes</title>
<g id="a_node5"><a xlink:href="javascript:Action.selectClass(&quot;Describes&quot;);" xlink:title="class Describes
">
<polygon fill="none" stroke="black" points="1081.5,-0.5 1081.5,-36.5 1153.5,-36.5 1153.5,-0.5 1081.5,-0.5"/>
<text text-anchor="middle" x="1117.5" y="-14.8" font-family="Times,serif" font-size="14.00">Describes</text>
</a>
</g>
</g>
<!-- Describes&#45;&gt;SourceRelationship -->
<g id="edge2" class="edge"><title>Describes&#45;&gt;SourceRelationship</title>
<path fill="none" stroke="black" d="M1131.11,-36.5859C1138.78,-46.2264 1148.02,-57.8252 1154.06,-65.4157"/>
<polygon fill="none" stroke="black" points="1151.53,-67.8574 1160.5,-73.5 1157.01,-63.4969 1151.53,-67.8574"/>
</g>
<!-- Includes -->
<g id="node6" class="node"><title>Includes</title>
<g id="a_node6"><a xlink:href="javascript:Action.selectClass(&quot;Includes&quot;);" xlink:title="class Includes
">
<polygon fill="none" stroke="black" points="1171.5,-0.5 1171.5,-36.5 1235.5,-36.5 1235.5,-0.5 1171.5,-0.5"/>
<text text-anchor="middle" x="1203.5" y="-14.8" font-family="Times,serif" font-size="14.00">Includes</text>
</a>
</g>
</g>
<!-- Includes&#45;&gt;SourceRelationship -->
<g id="edge3" class="edge"><title>Includes&#45;&gt;SourceRelationship</title>
<path fill="none" stroke="black" d="M1166.94,-65.4157 1172.98,-57.8252 1182.22,-46.2264 1189.89,-36.5859"/>
<polygon fill="none" stroke="black" points="1163.99,-63.4969 1160.5,-73.5 1169.47,-67.8574 1163.99,-63.4969"/>
</g>
<!-- Contains -->
<g id="node7" class="node"><title>Contains</title>
<g id="a_node7"><a xlink:href="javascript:Action.selectClass(&quot;Contains&quot;);" xlink:title="class Contains
">
<polygon fill="none" stroke="black" points="1253.5,-0.5 1253.5,-36.5 1319.5,-36.5 1319.5,-0.5 1253.5,-0.5"/>
<text text-anchor="middle" x="1286.5" y="-14.8" font-family="Times,serif" font-size="14.00">Contains</text>
</a>
</g>
</g>
<!-- Contains&#45;&gt;SourceRelationship -->
<g id="edge4" class="edge"><title>Contains&#45;&gt;SourceRelationship</title>
<path fill="none" stroke="black" d="M1169.77,-69.5293 1187.14,-62.0819 1225.4,-45.6873 1253.39,-33.6879"/>
<polygon fill="none" stroke="black" points="1168.31,-66.3437 1160.5,-73.5 1171.07,-72.7778 1168.31,-66.3437"/>
</g>
<!-- Defines -->
<g id="node8" class="node"><title>Defines</title>
<g id="a_node8"><a xlink:href="javascript:Action.selectClass(&quot;Defines&quot;);" xlink:title="class Defines
">
<polygon fill="none" stroke="black" points="1338,-0.5 1338,-36.5 1397,-36.5 1397,-0.5 1338,-0.5"/>
<text text-anchor="middle" x="1367.5" y="-14.8" font-family="Times,serif" font-size="14.00">Defines</text>
</a>
</g>
</g>
<!-- Defines&#45;&gt;SourceModelRelationship -->
<g id="edge5" class="edge"><title>Defines&#45;&gt;SourceModelRelationship</title>
<path fill="none" stroke="black" d="M1380.16,-36.5859C1387.3,-46.2264 1395.89,-57.8252 1401.51,-65.4157"/>
<polygon fill="none" stroke="black" points="1398.74,-67.5477 1407.5,-73.5 1404.36,-63.3811 1398.74,-67.5477"/>
</g>
<!-- Declares -->
<g id="node9" class="node"><title>Declares</title>
<g id="a_node9"><a xlink:href="javascript:Action.selectClass(&quot;Declares&quot;);" xlink:title="class Declares
">
<polygon fill="none" stroke="black" points="1415,-0.5 1415,-36.5 1480,-36.5 1480,-0.5 1415,-0.5"/>
<text text-anchor="middle" x="1447.5" y="-14.8" font-family="Times,serif" font-size="14.00">Declares</text>
</a>
</g>
</g>
<!-- Declares&#45;&gt;SourceModelRelationship -->
<g id="edge6" class="edge"><title>Declares&#45;&gt;SourceModelRelationship</title>
<path fill="none" stroke="black" d="M1413.49,-65.4157 1419.11,-57.8252 1427.7,-46.2264 1434.84,-36.5859"/>
<polygon fill="none" stroke="black" points="1410.64,-63.3811 1407.5,-73.5 1416.26,-67.5477 1410.64,-63.3811"/>
</g>
<!-- InheritsFrom -->
<g id="node10" class="node"><title>InheritsFrom</title>
<g id="a_node10"><a xlink:href="javascript:Action.selectClass(&quot;InheritsFrom&quot;);" xlink:title="class InheritsFrom
">
<polygon fill="none" stroke="black" points="81.5,-146.5 81.5,-182.5 171.5,-182.5 171.5,-146.5 81.5,-146.5"/>
<text text-anchor="middle" x="126.5" y="-160.8" font-family="Times,serif" font-size="14.00">InheritsFrom</text>
</a>
</g>
</g>
<!-- InheritsFrom&#45;&gt;ModelRelationship -->
<g id="edge7" class="edge"><title>InheritsFrom&#45;&gt;ModelRelationship</title>
<path fill="none" stroke="black" d="M171.717,-180.765C174.675,-181.574 177.621,-182.328 180.5,-183 272.339,-204.425 386.252,-215.607 420.384,-218.64"/>
<polygon fill="none" stroke="black" points="420.239,-222.14 430.5,-219.5 420.833,-215.165 420.239,-222.14"/>
</g>
<!-- IsPartOf -->
<g id="node11" class="node"><title>IsPartOf</title>
<g id="a_node11"><a xlink:href="javascript:Action.selectClass(&quot;IsPartOf&quot;);" xlink:title="class IsPartOf
">
<polygon fill="none" stroke="black" points="189.5,-146.5 189.5,-182.5 253.5,-182.5 253.5,-146.5 189.5,-146.5"/>
<text text-anchor="middle" x="221.5" y="-160.8" font-family="Times,serif" font-size="14.00">IsPartOf</text>
</a>
</g>
</g>
<!-- IsPartOf&#45;&gt;ModelRelationship -->
<g id="edge8" class="edge"><title>IsPartOf&#45;&gt;ModelRelationship</title>
<path fill="none" stroke="black" d="M253.511,-179.843C256.522,-180.986 259.551,-182.06 262.5,-183 321.079,-201.679 394.166,-213.931 420.481,-218.004"/>
<polygon fill="none" stroke="black" points="420.093,-221.485 430.5,-219.5 421.126,-214.562 420.093,-221.485"/>
</g>
<!-- Invokes -->
<g id="node12" class="node"><title>Invokes</title>
<g id="a_node12"><a xlink:href="javascript:Action.selectClass(&quot;Invokes&quot;);" xlink:title="class Invokes
">
<polygon fill="none" stroke="black" points="272,-146.5 272,-182.5 333,-182.5 333,-146.5 272,-146.5"/>
<text text-anchor="middle" x="302.5" y="-160.8" font-family="Times,serif" font-size="14.00">Invokes</text>
</a>
</g>
</g>
<!-- Invokes&#45;&gt;ModelRelationship -->
<g id="edge9" class="edge"><title>Invokes&#45;&gt;ModelRelationship</title>
<path fill="none" stroke="black" d="M333.049,-178.937C336.237,-180.318 339.432,-181.693 342.5,-183 371.106,-195.189 405.156,-209.16 421.227,-215.722"/>
<polygon fill="none" stroke="black" points="419.918,-218.969 430.5,-219.5 422.559,-212.486 419.918,-218.969"/>
</g>
<!-- IsOfType -->
<g id="node13" class="node"><title>IsOfType</title>
<g id="a_node13"><a xlink:href="javascript:Action.selectClass(&quot;IsOfType&quot;);" xlink:title="class IsOfType
">
<polygon fill="none" stroke="black" points="351.5,-146.5 351.5,-182.5 421.5,-182.5 421.5,-146.5 351.5,-146.5"/>
<text text-anchor="middle" x="386.5" y="-160.8" font-family="Times,serif" font-size="14.00">IsOfType</text>
</a>
</g>
</g>
<!-- IsOfType&#45;&gt;ModelRelationship -->
<g id="edge10" class="edge"><title>IsOfType&#45;&gt;ModelRelationship</title>
<path fill="none" stroke="black" d="M400.422,-182.586C408.378,-192.35 417.971,-204.123 424.149,-211.706"/>
<polygon fill="none" stroke="black" points="421.47,-213.958 430.5,-219.5 426.897,-209.537 421.47,-213.958"/>
</g>
<!-- Accesses -->
<g id="node14" class="node"><title>Accesses</title>
<g id="a_node14"><a xlink:href="javascript:Action.selectClass(&quot;Accesses&quot;);" xlink:title="class Accesses
">
<polygon fill="none" stroke="black" points="439.5,-146.5 439.5,-182.5 507.5,-182.5 507.5,-146.5 439.5,-146.5"/>
<text text-anchor="middle" x="473.5" y="-160.8" font-family="Times,serif" font-size="14.00">Accesses</text>
</a>
</g>
</g>
<!-- Accesses&#45;&gt;ModelRelationship -->
<g id="edge11" class="edge"><title>Accesses&#45;&gt;ModelRelationship</title>
<path fill="none" stroke="black" d="M436.938,-211.416 442.982,-203.825 452.218,-192.226 459.895,-182.586"/>
<polygon fill="none" stroke="black" points="433.991,-209.497 430.5,-219.5 439.467,-213.857 433.991,-209.497"/>
</g>
<!-- IsDefinedInTermsOf -->
<g id="node15" class="node"><title>IsDefinedInTermsOf</title>
<g id="a_node15"><a xlink:href="javascript:Action.selectClass(&quot;IsDefinedInTermsOf&quot;);" xlink:title="class IsDefinedInTermsOf
">
<polygon fill="none" stroke="black" points="526,-146.5 526,-182.5 659,-182.5 659,-146.5 526,-146.5"/>
<text text-anchor="middle" x="592.5" y="-160.8" font-family="Times,serif" font-size="14.00">IsDefinedInTermsOf</text>
</a>
</g>
</g>
<!-- IsDefinedInTermsOf&#45;&gt;ModelRelationship -->
<g id="edge12" class="edge"><title>IsDefinedInTermsOf&#45;&gt;ModelRelationship</title>
<path fill="none" stroke="black" d="M440.209,-216.264 459.759,-209.747 505.09,-194.637 541.242,-182.586"/>
<polygon fill="none" stroke="black" points="438.88,-213.017 430.5,-219.5 441.094,-219.658 438.88,-213.017"/>
</g>
<!-- IsPartOfSignatureOf -->
<g id="node16" class="node"><title>IsPartOfSignatureOf</title>
<g id="a_node16"><a xlink:href="javascript:Action.selectClass(&quot;IsPartOfSignatureOf&quot;);" xlink:title="class IsPartOfSignatureOf
">
<polygon fill="none" stroke="black" points="677.5,-146.5 677.5,-182.5 809.5,-182.5 809.5,-146.5 677.5,-146.5"/>
<text text-anchor="middle" x="743.5" y="-160.8" font-family="Times,serif" font-size="14.00">IsPartOfSignatureOf</text>
</a>
</g>
</g>
<!-- IsPartOfSignatureOf&#45;&gt;ModelRelationship -->
<g id="edge13" class="edge"><title>IsPartOfSignatureOf&#45;&gt;ModelRelationship</title>
<path fill="none" stroke="black" d="M440.479,-218.231 473.177,-214.014 580.006,-199.787 667.5,-183 670.691,-182.388 673.952,-181.736 677.242,-181.059"/>
<polygon fill="none" stroke="black" points="439.978,-214.766 430.5,-219.5 440.862,-221.71 439.978,-214.766"/>
</g>
<!-- IsActualParameterOf -->
<g id="node17" class="node"><title>IsActualParameterOf</title>
<g id="a_node17"><a xlink:href="javascript:Action.selectClass(&quot;IsActualParameterOf&quot;);" xlink:title="class IsActualParameterOf
">
<polygon fill="none" stroke="black" points="828,-146.5 828,-182.5 963,-182.5 963,-146.5 828,-146.5"/>
<text text-anchor="middle" x="895.5" y="-160.8" font-family="Times,serif" font-size="14.00">IsActualParameterOf</text>
</a>
</g>
</g>
<!-- IsActualParameterOf&#45;&gt;ModelRelationship -->
<g id="edge14" class="edge"><title>IsActualParameterOf&#45;&gt;ModelRelationship</title>
<path fill="none" stroke="black" d="M440.753,-219.025 485.674,-216.841 669.516,-206.835 818.5,-183 821.613,-182.502 824.789,-181.952 827.99,-181.364"/>
<polygon fill="none" stroke="black" points="440.327,-215.541 430.5,-219.5 440.651,-222.533 440.327,-215.541"/>
</g>
<!-- IsEnumerationLiteralOf -->
<g id="node18" class="node"><title>IsEnumerationLiteralOf</title>
<g id="a_node18"><a xlink:href="javascript:Action.selectClass(&quot;IsEnumerationLiteralOf&quot;);" xlink:title="class IsEnumerationLiteralOf
">
<polygon fill="none" stroke="black" points="0,-73.5 0,-109.5 151,-109.5 151,-73.5 0,-73.5"/>
<text text-anchor="middle" x="75.5" y="-87.8" font-family="Times,serif" font-size="14.00">IsEnumerationLiteralOf</text>
</a>
</g>
</g>
<!-- IsEnumerationLiteralOf&#45;&gt;IsPartOf -->
<g id="edge15" class="edge"><title>IsEnumerationLiteralOf&#45;&gt;IsPartOf</title>
<path fill="none" stroke="black" d="M121.062,-109.586C152.703,-121.451 192.254,-136.283 210.052,-142.957"/>
<polygon fill="none" stroke="black" points="208.908,-146.266 219.5,-146.5 211.366,-139.712 208.908,-146.266"/>
</g>
<!-- IsMethodOf -->
<g id="node19" class="node"><title>IsMethodOf</title>
<g id="a_node19"><a xlink:href="javascript:Action.selectClass(&quot;IsMethodOf&quot;);" xlink:title="class IsMethodOf
">
<polygon fill="none" stroke="black" points="169,-73.5 169,-109.5 254,-109.5 254,-73.5 169,-73.5"/>
<text text-anchor="middle" x="211.5" y="-87.8" font-family="Times,serif" font-size="14.00">IsMethodOf</text>
</a>
</g>
</g>
<!-- IsMethodOf&#45;&gt;IsPartOf -->
<g id="edge16" class="edge"><title>IsMethodOf&#45;&gt;IsPartOf</title>
<path fill="none" stroke="black" d="M214.031,-109.586C215.35,-118.485 216.915,-129.052 218.033,-136.596"/>
<polygon fill="none" stroke="black" points="214.572,-137.121 219.5,-146.5 221.497,-136.095 214.572,-137.121"/>
</g>
<!-- IsFieldOf -->
<g id="node20" class="node"><title>IsFieldOf</title>
<g id="a_node20"><a xlink:href="javascript:Action.selectClass(&quot;IsFieldOf&quot;);" xlink:title="class IsFieldOf
">
<polygon fill="none" stroke="black" points="272.5,-73.5 272.5,-109.5 342.5,-109.5 342.5,-73.5 272.5,-73.5"/>
<text text-anchor="middle" x="307.5" y="-87.8" font-family="Times,serif" font-size="14.00">IsFieldOf</text>
</a>
</g>
</g>
<!-- IsFieldOf&#45;&gt;IsPartOf -->
<g id="edge17" class="edge"><title>IsFieldOf&#45;&gt;IsPartOf</title>
<path fill="none" stroke="black" d="M228.259,-141.125 240.145,-133.831 261.932,-120.462 279.656,-109.586"/>
<polygon fill="none" stroke="black" points="226.193,-138.287 219.5,-146.5 229.854,-144.253 226.193,-138.287"/>
</g>
<!-- IsParameterOf -->
<g id="node21" class="node"><title>IsParameterOf</title>
<g id="a_node21"><a xlink:href="javascript:Action.selectClass(&quot;IsParameterOf&quot;);" xlink:title="class IsParameterOf
">
<polygon fill="none" stroke="black" points="694.5,-73.5 694.5,-109.5 792.5,-109.5 792.5,-73.5 694.5,-73.5"/>
<text text-anchor="middle" x="743.5" y="-87.8" font-family="Times,serif" font-size="14.00">IsParameterOf</text>
</a>
</g>
</g>
<!-- IsParameterOf&#45;&gt;IsPartOfSignatureOf -->
<g id="edge18" class="edge"><title>IsParameterOf&#45;&gt;IsPartOfSignatureOf</title>
<path fill="none" stroke="black" d="M746.664,-109.586C748.312,-118.485 750.269,-129.052 751.666,-136.596"/>
<polygon fill="none" stroke="black" points="748.238,-137.305 753.5,-146.5 755.121,-136.03 748.238,-137.305"/>
</g>
<!-- IsReturnTypeOf -->
<g id="node22" class="node"><title>IsReturnTypeOf</title>
<g id="a_node22"><a xlink:href="javascript:Action.selectClass(&quot;IsReturnTypeOf&quot;);" xlink:title="class IsReturnTypeOf
">
<polygon fill="none" stroke="black" points="810.5,-73.5 810.5,-109.5 918.5,-109.5 918.5,-73.5 810.5,-73.5"/>
<text text-anchor="middle" x="864.5" y="-87.8" font-family="Times,serif" font-size="14.00">IsReturnTypeOf</text>
</a>
</g>
</g>
<!-- IsReturnTypeOf&#45;&gt;IsPartOfSignatureOf -->
<g id="edge19" class="edge"><title>IsReturnTypeOf&#45;&gt;IsPartOfSignatureOf</title>
<path fill="none" stroke="black" d="M762.584,-142.081 777.032,-135.052 806.005,-120.957 829.379,-109.586"/>
<polygon fill="none" stroke="black" points="760.961,-138.978 753.5,-146.5 764.024,-145.273 760.961,-138.978"/>
</g>
<!-- Sets -->
<g id="node23" class="node"><title>Sets</title>
<g id="a_node23"><a xlink:href="javascript:Action.selectClass(&quot;Sets&quot;);" xlink:title="class Sets
">
<polygon fill="none" stroke="black" points="360.5,-73.5 360.5,-109.5 414.5,-109.5 414.5,-73.5 360.5,-73.5"/>
<text text-anchor="middle" x="387.5" y="-87.8" font-family="Times,serif" font-size="14.00">Sets</text>
</a>
</g>
</g>
<!-- Sets&#45;&gt;Accesses -->
<g id="edge20" class="edge"><title>Sets&#45;&gt;Accesses</title>
<path fill="none" stroke="black" d="M414.55,-109.29C432.109,-120.188 453.86,-133.689 465.74,-141.063"/>
<polygon fill="none" stroke="black" points="464.158,-144.2 474.5,-146.5 467.849,-138.253 464.158,-144.2"/>
</g>
<!-- Uses -->
<g id="node24" class="node"><title>Uses</title>
<g id="a_node24"><a xlink:href="javascript:Action.selectClass(&quot;Uses&quot;);" xlink:title="class Uses
">
<polygon fill="none" stroke="black" points="446.5,-73.5 446.5,-109.5 500.5,-109.5 500.5,-73.5 446.5,-73.5"/>
<text text-anchor="middle" x="473.5" y="-87.8" font-family="Times,serif" font-size="14.00">Uses</text>
</a>
</g>
</g>
<!-- Uses&#45;&gt;Accesses -->
<g id="edge21" class="edge"><title>Uses&#45;&gt;Accesses</title>
<path fill="none" stroke="black" d="M473.816,-109.586C473.979,-118.361 474.171,-128.759 474.311,-136.28"/>
<polygon fill="none" stroke="black" points="470.815,-136.567 474.5,-146.5 477.814,-136.437 470.815,-136.567"/>
</g>
<!-- TakesAddressOf -->
<g id="node25" class="node"><title>TakesAddressOf</title>
<g id="a_node25"><a xlink:href="javascript:Action.selectClass(&quot;TakesAddressOf&quot;);" xlink:title="class TakesAddressOf
">
<polygon fill="none" stroke="black" points="565,-73.5 565,-109.5 676,-109.5 676,-73.5 565,-73.5"/>
<text text-anchor="middle" x="620.5" y="-87.8" font-family="Times,serif" font-size="14.00">TakesAddressOf</text>
</a>
</g>
</g>
<!-- TakesAddressOf&#45;&gt;Accesses -->
<g id="edge22" class="edge"><title>TakesAddressOf&#45;&gt;Accesses</title>
<path fill="none" stroke="black" d="M484.079,-142.957 502.125,-136.283 542.225,-121.451 574.305,-109.586"/>
<polygon fill="none" stroke="black" points="482.665,-139.748 474.5,-146.5 485.093,-146.314 482.665,-139.748"/>
</g>
<!-- SetsComponent -->
<g id="node26" class="node"><title>SetsComponent</title>
<g id="a_node26"><a xlink:href="javascript:Action.selectClass(&quot;SetsComponent&quot;);" xlink:title="class SetsComponent
">
<polygon fill="none" stroke="black" points="159,-0.5 159,-36.5 264,-36.5 264,-0.5 159,-0.5"/>
<text text-anchor="middle" x="211.5" y="-14.8" font-family="Times,serif" font-size="14.00">SetsComponent</text>
</a>
</g>
</g>
<!-- SetsComponent&#45;&gt;Sets -->
<g id="edge23" class="edge"><title>SetsComponent&#45;&gt;Sets</title>
<path fill="none" stroke="black" d="M263.804,-36.5762C289.943,-45.4941 322.178,-57.0661 352.247,-69.586"/>
<polygon fill="none" stroke="black" points="350.927,-72.8277 361.5,-73.5 353.654,-66.3807 350.927,-72.8277"/>
</g>
<!-- SetsObject -->
<g id="node27" class="node"><title>SetsObject</title>
<g id="a_node27"><a xlink:href="javascript:Action.selectClass(&quot;SetsObject&quot;);" xlink:title="class SetsObject
">
<polygon fill="none" stroke="black" points="282,-0.5 282,-36.5 359,-36.5 359,-0.5 282,-0.5"/>
<text text-anchor="middle" x="320.5" y="-14.8" font-family="Times,serif" font-size="14.00">SetsObject</text>
</a>
</g>
</g>
<!-- SetsObject&#45;&gt;Sets -->
<g id="edge24" class="edge"><title>SetsObject&#45;&gt;Sets</title>
<path fill="none" stroke="black" d="M333.473,-36.5859C340.792,-46.2264 349.599,-57.8252 355.362,-65.4157"/>
<polygon fill="none" stroke="black" points="352.665,-67.652 361.5,-73.5 358.24,-63.419 352.665,-67.652"/>
</g>
<!-- UsesObject -->
<g id="node28" class="node"><title>UsesObject</title>
<g id="a_node28"><a xlink:href="javascript:Action.selectClass(&quot;UsesObject&quot;);" xlink:title="class UsesObject
">
<polygon fill="none" stroke="black" points="377,-0.5 377,-36.5 458,-36.5 458,-0.5 377,-0.5"/>
<text text-anchor="middle" x="417.5" y="-14.8" font-family="Times,serif" font-size="14.00">UsesObject</text>
</a>
</g>
</g>
<!-- UsesObject&#45;&gt;Uses -->
<g id="edge25" class="edge"><title>UsesObject&#45;&gt;Uses</title>
<path fill="none" stroke="black" d="M435.219,-36.5859C445.729,-46.7208 458.484,-59.0199 466.294,-66.551"/>
<polygon fill="none" stroke="black" points="463.872,-69.0781 473.5,-73.5 468.731,-64.0391 463.872,-69.0781"/>
</g>
<!-- UsesComponent -->
<g id="node29" class="node"><title>UsesComponent</title>
<g id="a_node29"><a xlink:href="javascript:Action.selectClass(&quot;UsesComponent&quot;);" xlink:title="class UsesComponent
">
<polygon fill="none" stroke="black" points="476,-0.5 476,-36.5 585,-36.5 585,-0.5 476,-0.5"/>
<text text-anchor="middle" x="530.5" y="-14.8" font-family="Times,serif" font-size="14.00">UsesComponent</text>
</a>
</g>
</g>
<!-- UsesComponent&#45;&gt;Uses -->
<g id="edge26" class="edge"><title>UsesComponent&#45;&gt;Uses</title>
<path fill="none" stroke="black" d="M480.835,-66.551 488.785,-59.0199 501.767,-46.7208 512.465,-36.5859"/>
<polygon fill="none" stroke="black" points="478.352,-64.0817 473.5,-73.5 483.167,-69.1634 478.352,-64.0817"/>
</g>
<!-- TakesAddressOfObject -->
<g id="node30" class="node"><title>TakesAddressOfObject</title>
<g id="a_node30"><a xlink:href="javascript:Action.selectClass(&quot;TakesAddressOfObject&quot;);" xlink:title="class TakesAddressOfObject
">
<polygon fill="none" stroke="black" points="603.5,-0.5 603.5,-36.5 751.5,-36.5 751.5,-0.5 603.5,-0.5"/>
<text text-anchor="middle" x="677.5" y="-14.8" font-family="Times,serif" font-size="14.00">TakesAddressOfObject</text>
</a>
</g>
</g>
<!-- TakesAddressOfObject&#45;&gt;TakesAddressOf -->
<g id="edge27" class="edge"><title>TakesAddressOfObject&#45;&gt;TakesAddressOf</title>
<path fill="none" stroke="black" d="M651.481,-64.824 655.839,-57.2317 662.299,-45.9792 667.691,-36.5859"/>
<polygon fill="none" stroke="black" points="648.443,-63.0849 646.5,-73.5 654.514,-66.57 648.443,-63.0849"/>
</g>
<!-- TakesAddressOfComponent -->
<g id="node31" class="node"><title>TakesAddressOfComponent</title>
<g id="a_node31"><a xlink:href="javascript:Action.selectClass(&quot;TakesAddressOfComponent&quot;);" xlink:title="class TakesAddressOfComponent
Postioning
Postioning
">
<polygon fill="none" stroke="black" points="769.5,-0.5 769.5,-36.5 945.5,-36.5 945.5,-0.5 769.5,-0.5"/>
<text text-anchor="middle" x="857.5" y="-14.8" font-family="Times,serif" font-size="14.00">TakesAddressOfComponent</text>
</a>
</g>
</g>
<!-- TakesAddressOfComponent&#45;&gt;TakesAddressOf -->
<g id="edge28" class="edge"><title>TakesAddressOfComponent&#45;&gt;TakesAddressOf</title>
<path fill="none" stroke="black" d="M656.213,-71.0142 679.842,-64.9671 741.984,-49.0633 791.028,-36.5118"/>
<polygon fill="none" stroke="black" points="655.32,-67.6299 646.5,-73.5 657.056,-74.4113 655.32,-67.6299"/>
</g>
</g>
</svg>
