<?xml version="1.0" encoding="UTF-8" standalone="no"?>
<!DOCTYPE svg PUBLIC "-//W3C//DTD SVG 1.1//EN"
 "http://www.w3.org/Graphics/SVG/1.1/DTD/svg11.dtd">
<!-- Generated by graphviz version 2.40.1 (20161225.0304)
 -->
<!-- Title: DMMRelationshipHierarchy Pages: 1 -->
<svg width="1959pt" height="260pt"
 viewBox="0.00 0.00 1959.00 260.00" xmlns="http://www.w3.org/2000/svg" xmlns:xlink="http://www.w3.org/1999/xlink">
<g id="graph0" class="graph" transform="scale(1 1) rotate(0) translate(4 256)">
<title>DMMRelationshipHierarchy</title>
<polygon fill="#ffffff" stroke="transparent" points="-4,4 -4,-256 1955,-256 1955,4 -4,4"/>
<!-- ModelRelationship -->
<g id="node1" class="node">
<title>ModelRelationship</title>
<g id="a_node1"><a xlink:href="javascript:Action.selectClass(&quot;ModelRelationship&quot;);" xlink:title="class ModelRelationship&#10;This example refers to Figures 4 and 5 of &#39;The Dagstuhl Middle Metamodel:&#13;A Schema for Reverse Engineering&#39;, ATEM 2003, First International&#13;Workshop on Meta&#45;Models and Schemas for Reverse Engineering,&#13;WCRE, Victoria, B.C., in Electronic Notes in Theoretical Computer&#13;Science, Elsevier, Vol. 94, pp 7&#45;18,&#13;Authors: Lethbridge, T.C., Sander Tichelaar, and Erhard Ploedereder (2003)&#13;To load the entire DMM example at once, copy and paste all&#13;five DMM components (DMM*) into the editor. &#160;Please note that the&#13;position attributes of classes and associations will need to be&#13;re&#45;adjusted, as the example has been made to display the diagrams&#13;as separate entities.&#13;This is a UML class diagram written in Umple&#13;">
<text text-anchor="start" x="546.8379" y="-229.8" font-family="Times,serif" font-size="14.00" fill="#000000"> &#160;&#160;&#160;ModelRelationship &#160;&#160;&#160;</text>
<polygon fill="none" stroke="#000000" points="535.5,-216 535.5,-252 692.5,-252 692.5,-216 535.5,-216"/>
</a>
</g>
</g>
<!-- SourceRelationship -->
<g id="node2" class="node">
<title>SourceRelationship</title>
<g id="a_node2"><a xlink:href="javascript:Action.selectClass(&quot;SourceRelationship&quot;);" xlink:title="class SourceRelationship&#10;">
<text text-anchor="start" x="1431.6758" y="-85.8" font-family="Times,serif" font-size="14.00" fill="#000000"> &#160;&#160;&#160;SourceRelationship &#160;&#160;&#160;</text>
<polygon fill="none" stroke="#000000" points="1420.5,-72 1420.5,-108 1579.5,-108 1579.5,-72 1420.5,-72"/>
</a>
</g>
</g>
<!-- SourceModelRelationship -->
<g id="node3" class="node">
<title>SourceModelRelationship</title>
<g id="a_node3"><a xlink:href="javascript:Action.selectClass(&quot;SourceModelRelationship&quot;);" xlink:title="class SourceModelRelationship&#10;">
<text text-anchor="start" x="1758.8999" y="-85.8" font-family="Times,serif" font-size="14.00" fill="#000000"> &#160;&#160;&#160;SourceModelRelationship &#160;&#160;&#160;</text>
<polygon fill="none" stroke="#000000" points="1748,-72 1748,-108 1944,-108 1944,-72 1748,-72"/>
</a>
</g>
</g>
<!-- IsExpansionOf -->
<g id="node4" class="node">
<title>IsExpansionOf</title>
<g id="a_node4"><a xlink:href="javascript:Action.selectClass(&quot;IsExpansionOf&quot;);" xlink:title="class IsExpansionOf&#10;">
<text text-anchor="start" x="1247.5068" y="-13.8" font-family="Times,serif" font-size="14.00" fill="#000000"> &#160;&#160;&#160;IsExpansionOf &#160;&#160;&#160;</text>
<polygon fill="none" stroke="#000000" points="1236.5,0 1236.5,-36 1369.5,-36 1369.5,0 1236.5,0"/>
</a>
</g>
</g>
<!-- IsExpansionOf&#45;&gt;SourceRelationship -->
<g id="edge1" class="edge">
<title>IsExpansionOf&#45;&gt;SourceRelationship</title>
<path fill="none" stroke="#000000" d="M1368.872,-36.0563C1413.6137,-48.3205 1468.4807,-63.3602 1490.344,-69.3532"/>
<polygon fill="none" stroke="#000000" points="1489.4305,-72.7318 1500,-72 1491.281,-65.9808 1489.4305,-72.7318"/>
</g>
<!-- Describes -->
<g id="node5" class="node">
<title>Describes</title>
<g id="a_node5"><a xlink:href="javascript:Action.selectClass(&quot;Describes&quot;);" xlink:title="class Describes&#10;">
<text text-anchor="start" x="1398.8999" y="-13.8" font-family="Times,serif" font-size="14.00" fill="#000000"> &#160;&#160;&#160;Describes &#160;&#160;&#160;</text>
<polygon fill="none" stroke="#000000" points="1387.5,0 1387.5,-36 1492.5,-36 1492.5,0 1387.5,0"/>
</a>
</g>
</g>
<!-- Describes&#45;&gt;SourceRelationship -->
<g id="edge2" class="edge">
<title>Describes&#45;&gt;SourceRelationship</title>
<path fill="none" stroke="#000000" d="M1460.3133,-36.2819C1471.3283,-46.1955 1484.295,-57.8655 1492.3324,-65.0991"/>
<polygon fill="none" stroke="#000000" points="1490.2256,-67.9119 1500,-72 1494.9084,-62.7088 1490.2256,-67.9119"/>
</g>
<!-- Includes -->
<g id="node6" class="node">
<title>Includes</title>
<g id="a_node6"><a xlink:href="javascript:Action.selectClass(&quot;Includes&quot;);" xlink:title="class Includes&#10;">
<text text-anchor="start" x="1521.7861" y="-13.8" font-family="Times,serif" font-size="14.00" fill="#000000"> &#160;&#160;&#160;Includes &#160;&#160;&#160;</text>
<polygon fill="none" stroke="#000000" points="1510.5,0 1510.5,-36 1607.5,-36 1607.5,0 1510.5,0"/>
</a>
</g>
</g>
<!-- Includes&#45;&gt;SourceRelationship -->
<g id="edge3" class="edge">
<title>Includes&#45;&gt;SourceRelationship</title>
<path fill="none" stroke="#000000" d="M1539.0253,-36.2819C1528.1938,-46.1955 1515.4432,-57.8655 1507.5398,-65.0991"/>
<polygon fill="none" stroke="#000000" points="1505.0137,-62.6665 1500,-72 1509.7398,-67.8302 1505.0137,-62.6665"/>
</g>
<!-- Contains -->
<g id="node7" class="node">
<title>Contains</title>
<g id="a_node7"><a xlink:href="javascript:Action.selectClass(&quot;Contains&quot;);" xlink:title="class Contains&#10;">
<text text-anchor="start" x="1636.6104" y="-13.8" font-family="Times,serif" font-size="14.00" fill="#000000"> &#160;&#160;&#160;Contains &#160;&#160;&#160;</text>
<polygon fill="none" stroke="#000000" points="1625.5,0 1625.5,-36 1724.5,-36 1724.5,0 1625.5,0"/>
</a>
</g>
</g>
<!-- Contains&#45;&gt;SourceRelationship -->
<g id="edge4" class="edge">
<title>Contains&#45;&gt;SourceRelationship</title>
<path fill="none" stroke="#000000" d="M1625.3201,-33.3298C1584.9001,-45.8023 1531.147,-62.3889 1509.5642,-69.0488"/>
<polygon fill="none" stroke="#000000" points="1508.5234,-65.707 1500,-72 1510.5874,-72.3958 1508.5234,-65.707"/>
</g>
<!-- Defines -->
<g id="node8" class="node">
<title>Defines</title>
<g id="a_node8"><a xlink:href="javascript:Action.selectClass(&quot;Defines&quot;);" xlink:title="class Defines&#10;">
<text text-anchor="start" x="1753.6138" y="-13.8" font-family="Times,serif" font-size="14.00" fill="#000000"> &#160;&#160;&#160;Defines &#160;&#160;&#160;</text>
<polygon fill="none" stroke="#000000" points="1743,0 1743,-36 1835,-36 1835,0 1743,0"/>
</a>
</g>
</g>
<!-- Defines&#45;&gt;SourceModelRelationship -->
<g id="edge5" class="edge">
<title>Defines&#45;&gt;SourceModelRelationship</title>
<path fill="none" stroke="#000000" d="M1808.2976,-36.2819C1818.7619,-46.1955 1831.0803,-57.8655 1838.7158,-65.0991"/>
<polygon fill="none" stroke="#000000" points="1836.3333,-67.6634 1846,-72 1841.1476,-62.5817 1836.3333,-67.6634"/>
</g>
<!-- Declares -->
<g id="node9" class="node">
<title>Declares</title>
<g id="a_node9"><a xlink:href="javascript:Action.selectClass(&quot;Declares&quot;);" xlink:title="class Declares&#10;">
<text text-anchor="start" x="1863.5171" y="-13.8" font-family="Times,serif" font-size="14.00" fill="#000000"> &#160;&#160;&#160;Declares &#160;&#160;&#160;</text>
<polygon fill="none" stroke="#000000" points="1853,0 1853,-36 1951,-36 1951,0 1853,0"/>
</a>
</g>
</g>
<!-- Declares&#45;&gt;SourceModelRelationship -->
<g id="edge6" class="edge">
<title>Declares&#45;&gt;SourceModelRelationship</title>
<path fill="none" stroke="#000000" d="M1883.041,-36.2819C1872.8872,-46.0731 1860.9565,-57.5777 1853.4364,-64.8292"/>
<polygon fill="none" stroke="#000000" points="1850.769,-62.5392 1846,-72 1855.628,-67.5781 1850.769,-62.5392"/>
</g>
<!-- InheritsFrom -->
<g id="node10" class="node">
<title>InheritsFrom</title>
<g id="a_node10"><a xlink:href="javascript:Action.selectClass(&quot;InheritsFrom&quot;);" xlink:title="class InheritsFrom&#10;">
<text text-anchor="start" x="146.9482" y="-157.8" font-family="Times,serif" font-size="14.00" fill="#000000"> &#160;&#160;&#160;InheritsFrom &#160;&#160;&#160;</text>
<polygon fill="none" stroke="#000000" points="135.5,-144 135.5,-180 258.5,-180 258.5,-144 135.5,-144"/>
</a>
</g>
</g>
<!-- InheritsFrom&#45;&gt;ModelRelationship -->
<g id="edge7" class="edge">
<title>InheritsFrom&#45;&gt;ModelRelationship</title>
<path fill="none" stroke="#000000" d="M258.7272,-178.402C261.5157,-178.9758 264.2828,-179.5125 267,-180 399.046,-203.692 562.3653,-213.3364 603.9868,-215.5056"/>
<polygon fill="none" stroke="#000000" points="603.8395,-219.0025 614,-216 604.1848,-212.011 603.8395,-219.0025"/>
</g>
<!-- IsPartOf -->
<g id="node11" class="node">
<title>IsPartOf</title>
<g id="a_node11"><a xlink:href="javascript:Action.selectClass(&quot;IsPartOf&quot;);" xlink:title="class IsPartOf&#10;">
<text text-anchor="start" x="287.7827" y="-157.8" font-family="Times,serif" font-size="14.00" fill="#000000"> &#160;&#160;&#160;IsPartOf &#160;&#160;&#160;</text>
<polygon fill="none" stroke="#000000" points="276.5,-144 276.5,-180 373.5,-180 373.5,-144 276.5,-144"/>
</a>
</g>
</g>
<!-- IsPartOf&#45;&gt;ModelRelationship -->
<g id="edge8" class="edge">
<title>IsPartOf&#45;&gt;ModelRelationship</title>
<path fill="none" stroke="#000000" d="M373.5929,-177.6465C376.7631,-178.4918 379.9187,-179.2858 383,-180 467.2203,-199.5208 571.2085,-211.4797 603.7659,-214.9464"/>
<polygon fill="none" stroke="#000000" points="603.6941,-218.4574 614,-216 604.411,-211.4942 603.6941,-218.4574"/>
</g>
<!-- Invokes -->
<g id="node12" class="node">
<title>Invokes</title>
<g id="a_node12"><a xlink:href="javascript:Action.selectClass(&quot;Invokes&quot;);" xlink:title="class Invokes&#10;">
<text text-anchor="start" x="402.8379" y="-157.8" font-family="Times,serif" font-size="14.00" fill="#000000"> &#160;&#160;&#160;Invokes &#160;&#160;&#160;</text>
<polygon fill="none" stroke="#000000" points="392,-144 392,-180 486,-180 486,-144 392,-144"/>
</a>
</g>
</g>
<!-- Invokes&#45;&gt;ModelRelationship -->
<g id="edge9" class="edge">
<title>Invokes&#45;&gt;ModelRelationship</title>
<path fill="none" stroke="#000000" d="M486.0351,-177.1832C489.0671,-178.142 492.0754,-179.0877 495,-180 535.386,-192.5984 583.6866,-207.008 604.109,-213.0705"/>
<polygon fill="none" stroke="#000000" points="603.4177,-216.516 614,-216 605.4057,-209.8042 603.4177,-216.516"/>
</g>
<!-- IsOfType -->
<g id="node13" class="node">
<title>IsOfType</title>
<g id="a_node13"><a xlink:href="javascript:Action.selectClass(&quot;IsOfType&quot;);" xlink:title="class IsOfType&#10;">
<text text-anchor="start" x="514.6646" y="-157.8" font-family="Times,serif" font-size="14.00" fill="#000000"> &#160;&#160;&#160;IsOfType &#160;&#160;&#160;</text>
<polygon fill="none" stroke="#000000" points="504,-144 504,-180 606,-180 606,-144 504,-144"/>
</a>
</g>
</g>
<!-- IsOfType&#45;&gt;ModelRelationship -->
<g id="edge10" class="edge">
<title>IsOfType&#45;&gt;ModelRelationship</title>
<path fill="none" stroke="#000000" d="M574.9747,-180.2819C585.8062,-190.1955 598.5568,-201.8655 606.4602,-209.0991"/>
<polygon fill="none" stroke="#000000" points="604.2602,-211.8302 614,-216 608.9863,-206.6665 604.2602,-211.8302"/>
</g>
<!-- Accesses -->
<g id="node14" class="node">
<title>Accesses</title>
<g id="a_node14"><a xlink:href="javascript:Action.selectClass(&quot;Accesses&quot;);" xlink:title="class Accesses&#10;">
<text text-anchor="start" x="634.7275" y="-157.8" font-family="Times,serif" font-size="14.00" fill="#000000"> &#160;&#160;&#160;Accesses &#160;&#160;&#160;</text>
<polygon fill="none" stroke="#000000" points="624,-144 624,-180 724,-180 724,-144 624,-144"/>
</a>
</g>
</g>
<!-- Accesses&#45;&gt;ModelRelationship -->
<g id="edge11" class="edge">
<title>Accesses&#45;&gt;ModelRelationship</title>
<path fill="none" stroke="#000000" d="M653.6867,-180.2819C642.6717,-190.1955 629.705,-201.8655 621.6676,-209.0991"/>
<polygon fill="none" stroke="#000000" points="619.0916,-206.7088 614,-216 623.7744,-211.9119 619.0916,-206.7088"/>
</g>
<!-- IsDefinedInTermsOf -->
<g id="node15" class="node">
<title>IsDefinedInTermsOf</title>
<g id="a_node15"><a xlink:href="javascript:Action.selectClass(&quot;IsDefinedInTermsOf&quot;);" xlink:title="class IsDefinedInTermsOf&#10;">
<text text-anchor="start" x="753.6714" y="-157.8" font-family="Times,serif" font-size="14.00" fill="#000000"> &#160;&#160;&#160;IsDefinedInTermsOf &#160;&#160;&#160;</text>
<polygon fill="none" stroke="#000000" points="742.5,-144 742.5,-180 907.5,-180 907.5,-144 742.5,-144"/>
</a>
</g>
</g>
<!-- IsDefinedInTermsOf&#45;&gt;ModelRelationship -->
<g id="edge12" class="edge">
<title>IsDefinedInTermsOf&#45;&gt;ModelRelationship</title>
<path fill="none" stroke="#000000" d="M754.4467,-180.0563C706.2858,-192.3818 647.1714,-207.5106 623.9936,-213.4424"/>
<polygon fill="none" stroke="#000000" points="622.82,-210.1299 614,-216 624.5556,-216.9113 622.82,-210.1299"/>
</g>
<!-- IsPartOfSignatureOf -->
<g id="node16" class="node">
<title>IsPartOfSignatureOf</title>
<g id="a_node16"><a xlink:href="javascript:Action.selectClass(&quot;IsPartOfSignatureOf&quot;);" xlink:title="class IsPartOfSignatureOf&#10;">
<text text-anchor="start" x="936.5688" y="-157.8" font-family="Times,serif" font-size="14.00" fill="#000000"> &#160;&#160;&#160;IsPartOfSignatureOf &#160;&#160;&#160;</text>
<polygon fill="none" stroke="#000000" points="925.5,-144 925.5,-180 1090.5,-180 1090.5,-144 925.5,-144"/>
</a>
</g>
</g>
<!-- IsPartOfSignatureOf&#45;&gt;ModelRelationship -->
<g id="edge13" class="edge">
<title>IsPartOfSignatureOf&#45;&gt;ModelRelationship</title>
<path fill="none" stroke="#000000" d="M925.2995,-178.4825C922.1628,-179.0117 919.0547,-179.5198 916,-180 802.0279,-197.9169 662.6061,-211.4747 624.2054,-215.0623"/>
<polygon fill="none" stroke="#000000" points="623.6378,-211.5996 614,-216 624.2783,-218.5702 623.6378,-211.5996"/>
</g>
<!-- IsActualParameterOf -->
<g id="node17" class="node">
<title>IsActualParameterOf</title>
<g id="a_node17"><a xlink:href="javascript:Action.selectClass(&quot;IsActualParameterOf&quot;);" xlink:title="class IsActualParameterOf&#10;">
<text text-anchor="start" x="1119.5273" y="-157.8" font-family="Times,serif" font-size="14.00" fill="#000000"> &#160;&#160;&#160;IsActualParameterOf &#160;&#160;&#160;</text>
<polygon fill="none" stroke="#000000" points="1109,-144 1109,-180 1277,-180 1277,-144 1109,-144"/>
</a>
</g>
</g>
<!-- IsActualParameterOf&#45;&gt;ModelRelationship -->
<g id="edge14" class="edge">
<title>IsActualParameterOf&#45;&gt;ModelRelationship</title>
<path fill="none" stroke="#000000" d="M1108.7772,-178.6136C1105.4802,-179.1097 1102.2121,-179.5747 1099,-180 909.4139,-205.1032 675.6434,-213.9667 624.2841,-215.6761"/>
<polygon fill="none" stroke="#000000" points="623.8848,-212.1868 614,-216 624.1053,-219.1834 623.8848,-212.1868"/>
</g>
<!-- IsEnumerationLiteralOf -->
<g id="node18" class="node">
<title>IsEnumerationLiteralOf</title>
<g id="a_node18"><a xlink:href="javascript:Action.selectClass(&quot;IsEnumerationLiteralOf&quot;);" xlink:title="class IsEnumerationLiteralOf&#10;">
<text text-anchor="start" x="10.748" y="-85.8" font-family="Times,serif" font-size="14.00" fill="#000000"> &#160;&#160;&#160;IsEnumerationLiteralOf &#160;&#160;&#160;</text>
<polygon fill="none" stroke="#000000" points="0,-72 0,-108 184,-108 184,-72 0,-72"/>
</a>
</g>
</g>
<!-- IsEnumerationLiteralOf&#45;&gt;IsPartOf -->
<g id="edge15" class="edge">
<title>IsEnumerationLiteralOf&#45;&gt;IsPartOf</title>
<path fill="none" stroke="#000000" d="M166.5658,-108.0563C217.9721,-120.5045 281.1866,-135.812 305.1579,-141.6167"/>
<polygon fill="none" stroke="#000000" points="304.4571,-145.0481 315,-144 306.1046,-138.2447 304.4571,-145.0481"/>
</g>
<!-- IsMethodOf -->
<g id="node19" class="node">
<title>IsMethodOf</title>
<g id="a_node19"><a xlink:href="javascript:Action.selectClass(&quot;IsMethodOf&quot;);" xlink:title="class IsMethodOf&#10;">
<text text-anchor="start" x="212.7827" y="-85.8" font-family="Times,serif" font-size="14.00" fill="#000000"> &#160;&#160;&#160;IsMethodOf &#160;&#160;&#160;</text>
<polygon fill="none" stroke="#000000" points="202,-72 202,-108 320,-108 320,-72 202,-72"/>
</a>
</g>
</g>
<!-- IsMethodOf&#45;&gt;IsPartOf -->
<g id="edge16" class="edge">
<title>IsMethodOf&#45;&gt;IsPartOf</title>
<path fill="none" stroke="#000000" d="M279.2819,-108.2819C289.0731,-118.0731 300.5777,-129.5777 307.8292,-136.8292"/>
<polygon fill="none" stroke="#000000" points="305.454,-139.4038 315,-144 310.4038,-134.454 305.454,-139.4038"/>
</g>
<!-- IsFieldOf -->
<g id="node20" class="node">
<title>IsFieldOf</title>
<g id="a_node20"><a xlink:href="javascript:Action.selectClass(&quot;IsFieldOf&quot;);" xlink:title="class IsFieldOf&#10;">
<text text-anchor="start" x="349.6689" y="-85.8" font-family="Times,serif" font-size="14.00" fill="#000000"> &#160;&#160;&#160;IsFieldOf &#160;&#160;&#160;</text>
<polygon fill="none" stroke="#000000" points="338.5,-72 338.5,-108 441.5,-108 441.5,-72 338.5,-72"/>
</a>
</g>
</g>
<!-- IsFieldOf&#45;&gt;IsPartOf -->
<g id="edge17" class="edge">
<title>IsFieldOf&#45;&gt;IsPartOf</title>
<path fill="none" stroke="#000000" d="M364.6084,-108.2819C350.1597,-118.685 333.0244,-131.0224 323.1422,-138.1376"/>
<polygon fill="none" stroke="#000000" points="321.0703,-135.3165 315,-144 325.1604,-140.9973 321.0703,-135.3165"/>
</g>
<!-- IsParameterOf -->
<g id="node21" class="node">
<title>IsParameterOf</title>
<g id="a_node21"><a xlink:href="javascript:Action.selectClass(&quot;IsParameterOf&quot;);" xlink:title="class IsParameterOf&#10;">
<text text-anchor="start" x="953.686" y="-85.8" font-family="Times,serif" font-size="14.00" fill="#000000"> &#160;&#160;&#160;IsParameterOf &#160;&#160;&#160;</text>
<polygon fill="none" stroke="#000000" points="942.5,-72 942.5,-108 1073.5,-108 1073.5,-72 942.5,-72"/>
</a>
</g>
</g>
<!-- IsParameterOf&#45;&gt;IsPartOfSignatureOf -->
<g id="edge18" class="edge">
<title>IsParameterOf&#45;&gt;IsPartOfSignatureOf</title>
<path fill="none" stroke="#000000" d="M1012.0627,-108.2819C1013.9937,-116.9716 1016.2246,-127.0108 1017.8286,-134.2288"/>
<polygon fill="none" stroke="#000000" points="1014.414,-134.9974 1020,-144 1021.2473,-133.4788 1014.414,-134.9974"/>
</g>
<!-- IsReturnTypeOf -->
<g id="node22" class="node">
<title>IsReturnTypeOf</title>
<g id="a_node22"><a xlink:href="javascript:Action.selectClass(&quot;IsReturnTypeOf&quot;);" xlink:title="class IsReturnTypeOf&#10;">
<text text-anchor="start" x="1102.6128" y="-85.8" font-family="Times,serif" font-size="14.00" fill="#000000"> &#160;&#160;&#160;IsReturnTypeOf &#160;&#160;&#160;</text>
<polygon fill="none" stroke="#000000" points="1092,-72 1092,-108 1232,-108 1232,-72 1092,-72"/>
</a>
</g>
</g>
<!-- IsReturnTypeOf&#45;&gt;IsPartOfSignatureOf -->
<g id="edge19" class="edge">
<title>IsReturnTypeOf&#45;&gt;IsPartOfSignatureOf</title>
<path fill="none" stroke="#000000" d="M1114.321,-108.1314C1083.7039,-119.7746 1046.5781,-133.8928 1029.4701,-140.3987"/>
<polygon fill="none" stroke="#000000" points="1028.1029,-137.174 1020,-144 1030.5911,-143.7169 1028.1029,-137.174"/>
</g>
<!-- Sets -->
<g id="node23" class="node">
<title>Sets</title>
<g id="a_node23"><a xlink:href="javascript:Action.selectClass(&quot;Sets&quot;);" xlink:title="class Sets&#10;">
<text text-anchor="start" x="470.8311" y="-85.8" font-family="Times,serif" font-size="14.00" fill="#000000"> &#160;&#160;&#160;Sets &#160;&#160;&#160;</text>
<polygon fill="none" stroke="#000000" points="459.5,-72 459.5,-108 532.5,-108 532.5,-72 459.5,-72"/>
</a>
</g>
</g>
<!-- Sets&#45;&gt;Accesses -->
<g id="edge20" class="edge">
<title>Sets&#45;&gt;Accesses</title>
<path fill="none" stroke="#000000" d="M532.8817,-101.1888C574.6323,-113.8547 640.0089,-133.6881 664.4004,-141.0878"/>
<polygon fill="none" stroke="#000000" points="663.4146,-144.4461 674,-144 665.4468,-137.7476 663.4146,-144.4461"/>
</g>
<!-- Uses -->
<g id="node24" class="node">
<title>Uses</title>
<g id="a_node24"><a xlink:href="javascript:Action.selectClass(&quot;Uses&quot;);" xlink:title="class Uses&#10;">
<text text-anchor="start" x="646.8896" y="-85.8" font-family="Times,serif" font-size="14.00" fill="#000000"> &#160;&#160;&#160;Uses &#160;&#160;&#160;</text>
<polygon fill="none" stroke="#000000" points="635.5,-72 635.5,-108 712.5,-108 712.5,-72 635.5,-72"/>
</a>
</g>
</g>
<!-- Uses&#45;&gt;Accesses -->
<g id="edge21" class="edge">
<title>Uses&#45;&gt;Accesses</title>
<path fill="none" stroke="#000000" d="M674,-108.2819C674,-116.8492 674,-126.7283 674,-133.9222"/>
<polygon fill="none" stroke="#000000" points="670.5001,-134 674,-144 677.5001,-134 670.5001,-134"/>
</g>
<!-- TakesAddressOf -->
<g id="node25" class="node">
<title>TakesAddressOf</title>
<g id="a_node25"><a xlink:href="javascript:Action.selectClass(&quot;TakesAddressOf&quot;);" xlink:title="class TakesAddressOf&#10;">
<text text-anchor="start" x="792.5703" y="-85.8" font-family="Times,serif" font-size="14.00" fill="#000000"> &#160;&#160;&#160;TakesAddressOf &#160;&#160;&#160;</text>
<polygon fill="none" stroke="#000000" points="782,-72 782,-108 924,-108 924,-72 782,-72"/>
</a>
</g>
</g>
<!-- TakesAddressOf&#45;&gt;Accesses -->
<g id="edge22" class="edge">
<title>TakesAddressOf&#45;&gt;Accesses</title>
<path fill="none" stroke="#000000" d="M792.8976,-108.1314C752.8809,-120.2035 704.0438,-134.9365 683.6585,-141.0863"/>
<polygon fill="none" stroke="#000000" points="682.5629,-137.7609 674,-144 684.5847,-144.4626 682.5629,-137.7609"/>
</g>
<!-- SetsComponent -->
<g id="node26" class="node">
<title>SetsComponent</title>
<g id="a_node26"><a xlink:href="javascript:Action.selectClass(&quot;SetsComponent&quot;);" xlink:title="class SetsComponent&#10;">
<text text-anchor="start" x="246.6655" y="-13.8" font-family="Times,serif" font-size="14.00" fill="#000000"> &#160;&#160;&#160;SetsComponent &#160;&#160;&#160;</text>
<polygon fill="none" stroke="#000000" points="236,0 236,-36 374,-36 374,0 236,0"/>
</a>
</g>
</g>
<!-- SetsComponent&#45;&gt;Sets -->
<g id="edge23" class="edge">
<title>SetsComponent&#45;&gt;Sets</title>
<path fill="none" stroke="#000000" d="M361.4089,-36.1314C398.5852,-48.081 443.8726,-62.6376 463.3441,-68.8963"/>
<polygon fill="none" stroke="#000000" points="462.4087,-72.2719 473,-72 464.5508,-65.6077 462.4087,-72.2719"/>
</g>
<!-- SetsObject -->
<g id="node27" class="node">
<title>SetsObject</title>
<g id="a_node27"><a xlink:href="javascript:Action.selectClass(&quot;SetsObject&quot;);" xlink:title="class SetsObject&#10;">
<text text-anchor="start" x="402.6724" y="-13.8" font-family="Times,serif" font-size="14.00" fill="#000000"> &#160;&#160;&#160;SetsObject &#160;&#160;&#160;</text>
<polygon fill="none" stroke="#000000" points="392,0 392,-36 502,-36 502,0 392,0"/>
</a>
</g>
</g>
<!-- SetsObject&#45;&gt;Sets -->
<g id="edge24" class="edge">
<title>SetsObject&#45;&gt;Sets</title>
<path fill="none" stroke="#000000" d="M455.8024,-36.2819C460.1042,-45.2163 465.0929,-55.5775 468.5858,-62.832"/>
<polygon fill="none" stroke="#000000" points="465.5083,-64.5083 473,-72 471.8153,-61.4716 465.5083,-64.5083"/>
</g>
<!-- UsesObject -->
<g id="node28" class="node">
<title>UsesObject</title>
<g id="a_node28"><a xlink:href="javascript:Action.selectClass(&quot;UsesObject&quot;);" xlink:title="class UsesObject&#10;">
<text text-anchor="start" x="530.731" y="-13.8" font-family="Times,serif" font-size="14.00" fill="#000000"> &#160;&#160;&#160;UsesObject &#160;&#160;&#160;</text>
<polygon fill="none" stroke="#000000" points="520,0 520,-36 634,-36 634,0 520,0"/>
</a>
</g>
</g>
<!-- UsesObject&#45;&gt;Uses -->
<g id="edge25" class="edge">
<title>UsesObject&#45;&gt;Uses</title>
<path fill="none" stroke="#000000" d="M608.5621,-36.1314C627.3364,-46.9166 649.8077,-59.8257 662.0188,-66.8406"/>
<polygon fill="none" stroke="#000000" points="660.5855,-70.0536 671,-72 664.0724,-63.9838 660.5855,-70.0536"/>
</g>
<!-- UsesComponent -->
<g id="node29" class="node">
<title>UsesComponent</title>
<g id="a_node29"><a xlink:href="javascript:Action.selectClass(&quot;UsesComponent&quot;);" xlink:title="class UsesComponent&#10;">
<text text-anchor="start" x="662.7241" y="-13.8" font-family="Times,serif" font-size="14.00" fill="#000000"> &#160;&#160;&#160;UsesComponent &#160;&#160;&#160;</text>
<polygon fill="none" stroke="#000000" points="652,0 652,-36 794,-36 794,0 652,0"/>
</a>
</g>
</g>
<!-- UsesComponent&#45;&gt;Uses -->
<g id="edge26" class="edge">
<title>UsesComponent&#45;&gt;Uses</title>
<path fill="none" stroke="#000000" d="M705.3952,-36.2819C696.0845,-45.9507 685.1649,-57.2903 678.169,-64.5553"/>
<polygon fill="none" stroke="#000000" points="675.4153,-62.369 671,-72 680.4576,-67.2245 675.4153,-62.369"/>
</g>
<!-- TakesAddressOfObject -->
<g id="node30" class="node">
<title>TakesAddressOfObject</title>
<g id="a_node30"><a xlink:href="javascript:Action.selectClass(&quot;TakesAddressOfObject&quot;);" xlink:title="class TakesAddressOfObject&#10;">
<text text-anchor="start" x="822.9116" y="-13.8" font-family="Times,serif" font-size="14.00" fill="#000000"> &#160;&#160;&#160;TakesAddressOfObject &#160;&#160;&#160;</text>
<polygon fill="none" stroke="#000000" points="812,0 812,-36 992,-36 992,0 812,0"/>
</a>
</g>
</g>
<!-- TakesAddressOfObject&#45;&gt;TakesAddressOf -->
<g id="edge27" class="edge">
<title>TakesAddressOfObject&#45;&gt;TakesAddressOf</title>
<path fill="none" stroke="#000000" d="M893.8747,-36.2819C889.9038,-45.2163 885.2989,-55.5775 882.0747,-62.832"/>
<polygon fill="none" stroke="#000000" points="878.8631,-61.4404 878,-72 885.2598,-64.2834 878.8631,-61.4404"/>
</g>
<!-- TakesAddressOfComponent -->
<g id="node31" class="node">
<title>TakesAddressOfComponent</title>
<g id="a_node31"><a xlink:href="javascript:Action.selectClass(&quot;TakesAddressOfComponent&quot;);" xlink:title="class TakesAddressOfComponent&#10;Postioning&#13;Postioning&#13;">
<text text-anchor="start" x="1020.9048" y="-13.8" font-family="Times,serif" font-size="14.00" fill="#000000"> &#160;&#160;&#160;TakesAddressOfComponent &#160;&#160;&#160;</text>
<polygon fill="none" stroke="#000000" points="1010,0 1010,-36 1218,-36 1218,0 1010,0"/>
</a>
</g>
</g>
<!-- TakesAddressOfComponent&#45;&gt;TakesAddressOf -->
<g id="edge28" class="edge">
<title>TakesAddressOfComponent&#45;&gt;TakesAddressOf</title>
<path fill="none" stroke="#000000" d="M1035.0873,-36.0563C980.4162,-48.5658 913.1252,-63.9629 888.0439,-69.7018"/>
<polygon fill="none" stroke="#000000" points="886.9674,-66.3576 878,-72 888.5288,-73.1813 886.9674,-66.3576"/>
</g>
</g>
</svg>
