<?xml version="1.0" encoding="UTF-8" standalone="no"?>
<!DOCTYPE svg PUBLIC "-//W3C//DTD SVG 1.1//EN"
 "http://www.w3.org/Graphics/SVG/1.1/DTD/svg11.dtd">
<!-- Generated by graphviz version 2.29.20121108.1600 (20121108.1600)
 -->
<!-- Title: DMMRelationshipHierarchy Pages: 1 -->
<svg width="1486pt" height="268pt"
 viewBox="0.00 0.00 1486.00 268.00" xmlns="http://www.w3.org/2000/svg" xmlns:xlink="http://www.w3.org/1999/xlink">
<g id="graph0" class="graph" transform="scale(1 1) rotate(0) translate(4 264)">
<title>DMMRelationshipHierarchy</title>
<polygon fill="white" stroke="white" points="-4,5 -4,-264 1483,-264 1483,5 -4,5"/>
<!-- ModelRelationship -->
<g id="node1" class="node"><title>ModelRelationship</title>
<g id="a_node1"><a xlink:href="javascript:Action.selectClass(&quot;ModelRelationship&quot;);" xlink:title="class ModelRelationship
This example refers to Figures 4 and 5 of &#39;The Dagstuhl Middle Metamodel:
A Schema for Reverse Engineering&#39;, ATEM 2003, First International
Workshop on Meta&#45;Models and Schemas for Reverse Engineering,
WCRE, Victoria, B.C., in Electronic Notes in Theoretical Computer
Science, Elsevier, Vol. 94, pp 7&#45;18,
Authors: Lethbridge, T.C., Sander Tichelaar, and Erhard Ploedereder (2003)
To load the entire DMM example at once, copy and paste all
five DMM components (DMM*) into the editor. &#160;Please note that the
position attributes of classes and associations will need to be
re&#45;adjusted, as the example has been made to display the diagrams
as separate entities.
">
<polygon fill="none" stroke="black" points="365.338,-223 365.338,-259 488.662,-259 488.662,-223 365.338,-223"/>
<text text-anchor="middle" x="427" y="-235.5" font-family="Times,serif" font-size="14.00">ModelRelationship</text>
</a>
</g>
</g>
<!-- SourceRelationship -->
<g id="node2" class="node"><title>SourceRelationship</title>
<g id="a_node2"><a xlink:href="javascript:Action.selectClass(&quot;SourceRelationship&quot;);" xlink:title="class SourceRelationship
">
<polygon fill="none" stroke="black" points="1088.18,-75 1088.18,-111 1213.82,-111 1213.82,-75 1088.18,-75"/>
<text text-anchor="middle" x="1151" y="-87.5" font-family="Times,serif" font-size="14.00">SourceRelationship</text>
</a>
</g>
</g>
<!-- SourceModelRelationship -->
<g id="node3" class="node"><title>SourceModelRelationship</title>
<g id="a_node3"><a xlink:href="javascript:Action.selectClass(&quot;SourceModelRelationship&quot;);" xlink:title="class SourceModelRelationship
">
<polygon fill="none" stroke="black" points="1315.9,-75 1315.9,-111 1478.1,-111 1478.1,-75 1315.9,-75"/>
<text text-anchor="middle" x="1397" y="-87.5" font-family="Times,serif" font-size="14.00">SourceModelRelationship</text>
</a>
</g>
</g>
<!-- IsExpansionOf -->
<g id="node4" class="node"><title>IsExpansionOf</title>
<g id="a_node4"><a xlink:href="javascript:Action.selectClass(&quot;IsExpansionOf&quot;);" xlink:title="class IsExpansionOf
">
<polygon fill="none" stroke="black" points="955.007,-1 955.007,-37 1054.99,-37 1054.99,-1 955.007,-1"/>
<text text-anchor="middle" x="1005" y="-13.5" font-family="Times,serif" font-size="14.00">IsExpansionOf</text>
</a>
</g>
</g>
<!-- IsExpansionOf&#45;&gt;SourceRelationship -->
<g id="edge1" class="edge"><title>IsExpansionOf&#45;&gt;SourceRelationship</title>
<path fill="none" stroke="black" d="M1050.39,-37.1009C1082.71,-49.273 1123.48,-64.6327 1141.59,-71.4554"/>
<polygon fill="none" stroke="black" points="1140.41,-74.75 1151,-75 1142.88,-68.1993 1140.41,-74.75"/>
</g>
<!-- Describes -->
<g id="node5" class="node"><title>Describes</title>
<g id="a_node5"><a xlink:href="javascript:Action.selectClass(&quot;Describes&quot;);" xlink:title="class Describes
">
<polygon fill="none" stroke="black" points="1073.4,-1 1073.4,-37 1144.6,-37 1144.6,-1 1073.4,-1"/>
<text text-anchor="middle" x="1109" y="-13.5" font-family="Times,serif" font-size="14.00">Describes</text>
</a>
</g>
</g>
<!-- Describes&#45;&gt;SourceRelationship -->
<g id="edge2" class="edge"><title>Describes&#45;&gt;SourceRelationship</title>
<path fill="none" stroke="black" d="M1122.06,-37.1009C1129.67,-47.0656 1138.91,-59.1667 1144.87,-66.9713"/>
<polygon fill="none" stroke="black" points="1142.15,-69.1765 1151,-75 1147.71,-64.9281 1142.15,-69.1765"/>
</g>
<!-- Includes -->
<g id="node6" class="node"><title>Includes</title>
<g id="a_node6"><a xlink:href="javascript:Action.selectClass(&quot;Includes&quot;);" xlink:title="class Includes
">
<polygon fill="none" stroke="black" points="1162.29,-1 1162.29,-37 1225.71,-37 1225.71,-1 1162.29,-1"/>
<text text-anchor="middle" x="1194" y="-13.5" font-family="Times,serif" font-size="14.00">Includes</text>
</a>
</g>
</g>
<!-- Includes&#45;&gt;SourceRelationship -->
<g id="edge3" class="edge"><title>Includes&#45;&gt;SourceRelationship</title>
<path fill="none" stroke="black" d="M1180.63,-37.1009C1172.84,-47.0656 1163.38,-59.1667 1157.28,-66.9713"/>
<polygon fill="none" stroke="black" points="1154.4,-64.9662 1151,-75 1159.92,-69.2776 1154.4,-64.9662"/>
</g>
<!-- Contains -->
<g id="node7" class="node"><title>Contains</title>
<g id="a_node7"><a xlink:href="javascript:Action.selectClass(&quot;Contains&quot;);" xlink:title="class Contains
">
<polygon fill="none" stroke="black" points="1244.11,-1 1244.11,-37 1309.89,-37 1309.89,-1 1244.11,-1"/>
<text text-anchor="middle" x="1277" y="-13.5" font-family="Times,serif" font-size="14.00">Contains</text>
</a>
</g>
</g>
<!-- Contains&#45;&gt;SourceRelationship -->
<g id="edge4" class="edge"><title>Contains&#45;&gt;SourceRelationship</title>
<path fill="none" stroke="black" d="M1243.89,-34.4506C1215.9,-46.6723 1177.64,-63.3705 1160.27,-70.9557"/>
<polygon fill="none" stroke="black" points="1158.76,-67.7917 1151,-75 1161.57,-74.2071 1158.76,-67.7917"/>
</g>
<!-- Defines -->
<g id="node8" class="node"><title>Defines</title>
<g id="a_node8"><a xlink:href="javascript:Action.selectClass(&quot;Defines&quot;);" xlink:title="class Defines
">
<polygon fill="none" stroke="black" points="1327.61,-1 1327.61,-37 1386.39,-37 1386.39,-1 1327.61,-1"/>
<text text-anchor="middle" x="1357" y="-13.5" font-family="Times,serif" font-size="14.00">Defines</text>
</a>
</g>
</g>
<!-- Defines&#45;&gt;SourceModelRelationship -->
<g id="edge5" class="edge"><title>Defines&#45;&gt;SourceModelRelationship</title>
<path fill="none" stroke="black" d="M1369.44,-37.1009C1376.59,-46.9394 1385.26,-58.8606 1390.94,-66.6728"/>
<polygon fill="none" stroke="black" points="1388.29,-68.9712 1397,-75 1393.95,-64.854 1388.29,-68.9712"/>
</g>
<!-- Declares -->
<g id="node9" class="node"><title>Declares</title>
<g id="a_node9"><a xlink:href="javascript:Action.selectClass(&quot;Declares&quot;);" xlink:title="class Declares
">
<polygon fill="none" stroke="black" points="1404.52,-1 1404.52,-37 1469.48,-37 1469.48,-1 1404.52,-1"/>
<text text-anchor="middle" x="1437" y="-13.5" font-family="Times,serif" font-size="14.00">Declares</text>
</a>
</g>
</g>
<!-- Declares&#45;&gt;SourceModelRelationship -->
<g id="edge6" class="edge"><title>Declares&#45;&gt;SourceModelRelationship</title>
<path fill="none" stroke="black" d="M1424.56,-37.1009C1417.41,-46.9394 1408.74,-58.8606 1403.06,-66.6728"/>
<polygon fill="none" stroke="black" points="1400.05,-64.854 1397,-75 1405.71,-68.9712 1400.05,-64.854"/>
</g>
<!-- InheritsFrom -->
<g id="node10" class="node"><title>InheritsFrom</title>
<g id="a_node10"><a xlink:href="javascript:Action.selectClass(&quot;InheritsFrom&quot;);" xlink:title="class InheritsFrom
">
<polygon fill="none" stroke="black" points="83.4482,-149 83.4482,-185 172.552,-185 172.552,-149 83.4482,-149"/>
<text text-anchor="middle" x="128" y="-161.5" font-family="Times,serif" font-size="14.00">InheritsFrom</text>
</a>
</g>
</g>
<!-- InheritsFrom&#45;&gt;ModelRelationship -->
<g id="edge7" class="edge"><title>InheritsFrom&#45;&gt;ModelRelationship</title>
<path fill="none" stroke="black" d="M172.654,-183.79C175.463,-184.589 178.262,-185.335 181,-186 271.231,-207.923 383.415,-219.12 417.035,-222.144"/>
<polygon fill="none" stroke="black" points="416.737,-225.631 427,-223 417.336,-218.657 416.737,-225.631"/>
</g>
<!-- IsPartOf -->
<g id="node11" class="node"><title>IsPartOf</title>
<g id="a_node11"><a xlink:href="javascript:Action.selectClass(&quot;IsPartOf&quot;);" xlink:title="class IsPartOf
">
<polygon fill="none" stroke="black" points="190.283,-149 190.283,-185 253.717,-185 253.717,-149 190.283,-149"/>
<text text-anchor="middle" x="222" y="-161.5" font-family="Times,serif" font-size="14.00">IsPartOf</text>
</a>
</g>
</g>
<!-- IsPartOf&#45;&gt;ModelRelationship -->
<g id="edge8" class="edge"><title>IsPartOf&#45;&gt;ModelRelationship</title>
<path fill="none" stroke="black" d="M254.001,-182.744C257.014,-183.921 260.046,-185.028 263,-186 319.839,-204.697 390.812,-217.176 416.834,-221.406"/>
<polygon fill="none" stroke="black" points="416.578,-224.908 427,-223 417.663,-217.993 416.578,-224.908"/>
</g>
<!-- Invokes -->
<g id="node12" class="node"><title>Invokes</title>
<g id="a_node12"><a xlink:href="javascript:Action.selectClass(&quot;Invokes&quot;);" xlink:title="class Invokes
">
<polygon fill="none" stroke="black" points="271.838,-149 271.838,-185 332.162,-185 332.162,-149 271.838,-149"/>
<text text-anchor="middle" x="302" y="-161.5" font-family="Times,serif" font-size="14.00">Invokes</text>
</a>
</g>
</g>
<!-- Invokes&#45;&gt;ModelRelationship -->
<g id="edge9" class="edge"><title>Invokes&#45;&gt;ModelRelationship</title>
<path fill="none" stroke="black" d="M332.198,-182.032C335.168,-183.383 338.139,-184.725 341,-186 368.761,-198.376 401.853,-212.414 417.675,-219.082"/>
<polygon fill="none" stroke="black" points="416.425,-222.353 427,-223 419.136,-215.9 416.425,-222.353"/>
</g>
<!-- IsOfType -->
<g id="node13" class="node"><title>IsOfType</title>
<g id="a_node13"><a xlink:href="javascript:Action.selectClass(&quot;IsOfType&quot;);" xlink:title="class IsOfType
">
<polygon fill="none" stroke="black" points="349.665,-149 349.665,-185 418.335,-185 418.335,-149 349.665,-149"/>
<text text-anchor="middle" x="384" y="-161.5" font-family="Times,serif" font-size="14.00">IsOfType</text>
</a>
</g>
</g>
<!-- IsOfType&#45;&gt;ModelRelationship -->
<g id="edge10" class="edge"><title>IsOfType&#45;&gt;ModelRelationship</title>
<path fill="none" stroke="black" d="M397.37,-185.101C405.16,-195.066 414.621,-207.167 420.723,-214.971"/>
<polygon fill="none" stroke="black" points="418.083,-217.278 427,-223 423.598,-212.966 418.083,-217.278"/>
</g>
<!-- Accesses -->
<g id="node14" class="node"><title>Accesses</title>
<g id="a_node14"><a xlink:href="javascript:Action.selectClass(&quot;Accesses&quot;);" xlink:title="class Accesses
">
<polygon fill="none" stroke="black" points="436.345,-149 436.345,-185 503.655,-185 503.655,-149 436.345,-149"/>
<text text-anchor="middle" x="470" y="-161.5" font-family="Times,serif" font-size="14.00">Accesses</text>
</a>
</g>
</g>
<!-- Accesses&#45;&gt;ModelRelationship -->
<g id="edge11" class="edge"><title>Accesses&#45;&gt;ModelRelationship</title>
<path fill="none" stroke="black" d="M456.63,-185.101C448.84,-195.066 439.379,-207.167 433.277,-214.971"/>
<polygon fill="none" stroke="black" points="430.402,-212.966 427,-223 435.917,-217.278 430.402,-212.966"/>
</g>
<!-- IsDefinedInTermsOf -->
<g id="node15" class="node"><title>IsDefinedInTermsOf</title>
<g id="a_node15"><a xlink:href="javascript:Action.selectClass(&quot;IsDefinedInTermsOf&quot;);" xlink:title="class IsDefinedInTermsOf
">
<polygon fill="none" stroke="black" points="521.171,-149 521.171,-185 652.829,-185 652.829,-149 521.171,-149"/>
<text text-anchor="middle" x="587" y="-161.5" font-family="Times,serif" font-size="14.00">IsDefinedInTermsOf</text>
</a>
</g>
</g>
<!-- IsDefinedInTermsOf&#45;&gt;ModelRelationship -->
<g id="edge12" class="edge"><title>IsDefinedInTermsOf&#45;&gt;ModelRelationship</title>
<path fill="none" stroke="black" d="M537.252,-185.101C501.475,-197.399 456.232,-212.951 436.702,-219.665"/>
<polygon fill="none" stroke="black" points="435.319,-216.439 427,-223 437.595,-223.059 435.319,-216.439"/>
</g>
<!-- IsPartOfSignatureOf -->
<g id="node16" class="node"><title>IsPartOfSignatureOf</title>
<g id="a_node16"><a xlink:href="javascript:Action.selectClass(&quot;IsPartOfSignatureOf&quot;);" xlink:title="class IsPartOfSignatureOf
">
<polygon fill="none" stroke="black" points="671.069,-149 671.069,-185 802.931,-185 802.931,-149 671.069,-149"/>
<text text-anchor="middle" x="737" y="-161.5" font-family="Times,serif" font-size="14.00">IsPartOfSignatureOf</text>
</a>
</g>
</g>
<!-- IsPartOfSignatureOf&#45;&gt;ModelRelationship -->
<g id="edge13" class="edge"><title>IsPartOfSignatureOf&#45;&gt;ModelRelationship</title>
<path fill="none" stroke="black" d="M670.745,-184.004C667.455,-184.701 664.193,-185.37 661,-186 575.049,-202.948 470.133,-217.308 437.313,-221.654"/>
<polygon fill="none" stroke="black" points="436.463,-218.235 427,-223 437.369,-225.176 436.463,-218.235"/>
</g>
<!-- IsActualParameterOf -->
<g id="node17" class="node"><title>IsActualParameterOf</title>
<g id="a_node17"><a xlink:href="javascript:Action.selectClass(&quot;IsActualParameterOf&quot;);" xlink:title="class IsActualParameterOf
">
<polygon fill="none" stroke="black" points="820.527,-149 820.527,-185 955.473,-185 955.473,-149 820.527,-149"/>
<text text-anchor="middle" x="888" y="-161.5" font-family="Times,serif" font-size="14.00">IsActualParameterOf</text>
</a>
</g>
</g>
<!-- IsActualParameterOf&#45;&gt;ModelRelationship -->
<g id="edge14" class="edge"><title>IsActualParameterOf&#45;&gt;ModelRelationship</title>
<path fill="none" stroke="black" d="M820.496,-184.318C817.293,-184.923 814.116,-185.488 811,-186 663.621,-210.215 481.623,-220.319 437.151,-222.521"/>
<polygon fill="none" stroke="black" points="436.824,-219.033 427,-223 437.154,-226.025 436.824,-219.033"/>
</g>
<!-- IsEnumerationLiteralOf -->
<g id="node18" class="node"><title>IsEnumerationLiteralOf</title>
<g id="a_node18"><a xlink:href="javascript:Action.selectClass(&quot;IsEnumerationLiteralOf&quot;);" xlink:title="class IsEnumerationLiteralOf
">
<polygon fill="none" stroke="black" points="-0.251953,-75 -0.251953,-111 150.252,-111 150.252,-75 -0.251953,-75"/>
<text text-anchor="middle" x="75" y="-87.5" font-family="Times,serif" font-size="14.00">IsEnumerationLiteralOf</text>
</a>
</g>
</g>
<!-- IsEnumerationLiteralOf&#45;&gt;IsPartOf -->
<g id="edge15" class="edge"><title>IsEnumerationLiteralOf&#45;&gt;IsPartOf</title>
<path fill="none" stroke="black" d="M119.773,-111.101C151.477,-123.21 191.44,-138.474 209.44,-145.349"/>
<polygon fill="none" stroke="black" points="208.409,-148.702 219,-149 210.907,-142.162 208.409,-148.702"/>
</g>
<!-- IsMethodOf -->
<g id="node19" class="node"><title>IsMethodOf</title>
<g id="a_node19"><a xlink:href="javascript:Action.selectClass(&quot;IsMethodOf&quot;);" xlink:title="class IsMethodOf
">
<polygon fill="none" stroke="black" points="167.783,-75 167.783,-111 252.217,-111 252.217,-75 167.783,-75"/>
<text text-anchor="middle" x="210" y="-87.5" font-family="Times,serif" font-size="14.00">IsMethodOf</text>
</a>
</g>
</g>
<!-- IsMethodOf&#45;&gt;IsPartOf -->
<g id="edge16" class="edge"><title>IsMethodOf&#45;&gt;IsPartOf</title>
<path fill="none" stroke="black" d="M212.798,-111.101C214.305,-120.309 216.11,-131.341 217.384,-139.121"/>
<polygon fill="none" stroke="black" points="213.931,-139.696 219,-149 220.839,-138.566 213.931,-139.696"/>
</g>
<!-- IsFieldOf -->
<g id="node20" class="node"><title>IsFieldOf</title>
<g id="a_node20"><a xlink:href="javascript:Action.selectClass(&quot;IsFieldOf&quot;);" xlink:title="class IsFieldOf
">
<polygon fill="none" stroke="black" points="270.169,-75 270.169,-111 339.831,-111 339.831,-75 270.169,-75"/>
<text text-anchor="middle" x="305" y="-87.5" font-family="Times,serif" font-size="14.00">IsFieldOf</text>
</a>
</g>
</g>
<!-- IsFieldOf&#45;&gt;IsPartOf -->
<g id="edge17" class="edge"><title>IsFieldOf&#45;&gt;IsPartOf</title>
<path fill="none" stroke="black" d="M278.26,-111.101C260.904,-122.201 239.403,-135.952 227.66,-143.462"/>
<polygon fill="none" stroke="black" points="225.539,-140.664 219,-149 229.31,-146.561 225.539,-140.664"/>
</g>
<!-- IsParameterOf -->
<g id="node21" class="node"><title>IsParameterOf</title>
<g id="a_node21"><a xlink:href="javascript:Action.selectClass(&quot;IsParameterOf&quot;);" xlink:title="class IsParameterOf
">
<polygon fill="none" stroke="black" points="688.186,-75 688.186,-111 785.814,-111 785.814,-75 688.186,-75"/>
<text text-anchor="middle" x="737" y="-87.5" font-family="Times,serif" font-size="14.00">IsParameterOf</text>
</a>
</g>
</g>
<!-- IsParameterOf&#45;&gt;IsPartOfSignatureOf -->
<g id="edge18" class="edge"><title>IsParameterOf&#45;&gt;IsPartOfSignatureOf</title>
<path fill="none" stroke="black" d="M740.109,-111.101C741.783,-120.309 743.789,-131.341 745.204,-139.121"/>
<polygon fill="none" stroke="black" points="741.768,-139.787 747,-149 748.655,-138.535 741.768,-139.787"/>
</g>
<!-- IsReturnTypeOf -->
<g id="node22" class="node"><title>IsReturnTypeOf</title>
<g id="a_node22"><a xlink:href="javascript:Action.selectClass(&quot;IsReturnTypeOf&quot;);" xlink:title="class IsReturnTypeOf
">
<polygon fill="none" stroke="black" points="803.613,-75 803.613,-111 910.387,-111 910.387,-75 803.613,-75"/>
<text text-anchor="middle" x="857" y="-87.5" font-family="Times,serif" font-size="14.00">IsReturnTypeOf</text>
</a>
</g>
</g>
<!-- IsReturnTypeOf&#45;&gt;IsPartOfSignatureOf -->
<g id="edge19" class="edge"><title>IsReturnTypeOf&#45;&gt;IsPartOfSignatureOf</title>
<path fill="none" stroke="black" d="M822.798,-111.101C799.589,-122.705 770.586,-137.207 756.107,-144.446"/>
<polygon fill="none" stroke="black" points="754.379,-141.397 747,-149 757.51,-147.658 754.379,-141.397"/>
</g>
<!-- Sets -->
<g id="node23" class="node"><title>Sets</title>
<g id="a_node23"><a xlink:href="javascript:Action.selectClass(&quot;Sets&quot;);" xlink:title="class Sets
">
<polygon fill="none" stroke="black" points="358,-75 358,-111 412,-111 412,-75 358,-75"/>
<text text-anchor="middle" x="384.669" y="-87.5" font-family="Times,serif" font-size="14.00">Sets</text>
</a>
</g>
</g>
<!-- Sets&#45;&gt;Accesses -->
<g id="edge20" class="edge"><title>Sets&#45;&gt;Accesses</title>
<path fill="none" stroke="black" d="M411.74,-111.101C429.096,-122.201 450.597,-135.952 462.34,-143.462"/>
<polygon fill="none" stroke="black" points="460.69,-146.561 471,-149 464.461,-140.664 460.69,-146.561"/>
</g>
<!-- Uses -->
<g id="node24" class="node"><title>Uses</title>
<g id="a_node24"><a xlink:href="javascript:Action.selectClass(&quot;Uses&quot;);" xlink:title="class Uses
">
<polygon fill="none" stroke="black" points="443,-75 443,-111 497,-111 497,-75 443,-75"/>
<text text-anchor="middle" x="469.61" y="-87.5" font-family="Times,serif" font-size="14.00">Uses</text>
</a>
</g>
</g>
<!-- Uses&#45;&gt;Accesses -->
<g id="edge21" class="edge"><title>Uses&#45;&gt;Accesses</title>
<path fill="none" stroke="black" d="M470.311,-111.101C470.476,-120.183 470.673,-131.039 470.815,-138.8"/>
<polygon fill="none" stroke="black" points="467.319,-139.065 471,-149 474.318,-138.938 467.319,-139.065"/>
</g>
<!-- TakesAddressOf -->
<g id="node25" class="node"><title>TakesAddressOf</title>
<g id="a_node25"><a xlink:href="javascript:Action.selectClass(&quot;TakesAddressOf&quot;);" xlink:title="class TakesAddressOf
">
<polygon fill="none" stroke="black" points="561.447,-75 561.447,-111 670.553,-111 670.553,-75 561.447,-75"/>
<text text-anchor="middle" x="616" y="-87.5" font-family="Times,serif" font-size="14.00">TakesAddressOf</text>
</a>
</g>
</g>
<!-- TakesAddressOf&#45;&gt;Accesses -->
<g id="edge22" class="edge"><title>TakesAddressOf&#45;&gt;Accesses</title>
<path fill="none" stroke="black" d="M570.916,-111.101C538.992,-123.21 498.751,-138.474 480.626,-145.349"/>
<polygon fill="none" stroke="black" points="479.109,-142.181 471,-149 481.591,-148.726 479.109,-142.181"/>
</g>
<!-- SetsComponent -->
<g id="node26" class="node"><title>SetsComponent</title>
<g id="a_node26"><a xlink:href="javascript:Action.selectClass(&quot;SetsComponent&quot;);" xlink:title="class SetsComponent
">
<polygon fill="none" stroke="black" points="155.666,-1 155.666,-37 260.334,-37 260.334,-1 155.666,-1"/>
<text text-anchor="middle" x="208" y="-13.5" font-family="Times,serif" font-size="14.00">SetsComponent</text>
</a>
</g>
</g>
<!-- SetsComponent&#45;&gt;Sets -->
<g id="edge23" class="edge"><title>SetsComponent&#45;&gt;Sets</title>
<path fill="none" stroke="black" d="M259.599,-37.1005C286.06,-46.2399 318.931,-58.1593 349.572,-70.9906"/>
<polygon fill="none" stroke="black" points="348.428,-74.3074 359,-75 351.167,-67.8657 348.428,-74.3074"/>
</g>
<!-- SetsObject -->
<g id="node27" class="node"><title>SetsObject</title>
<g id="a_node27"><a xlink:href="javascript:Action.selectClass(&quot;SetsObject&quot;);" xlink:title="class SetsObject
">
<polygon fill="none" stroke="black" points="278.672,-1 278.672,-37 355.328,-37 355.328,-1 278.672,-1"/>
<text text-anchor="middle" x="317" y="-13.5" font-family="Times,serif" font-size="14.00">SetsObject</text>
</a>
</g>
</g>
<!-- SetsObject&#45;&gt;Sets -->
<g id="edge24" class="edge"><title>SetsObject&#45;&gt;Sets</title>
<path fill="none" stroke="black" d="M330.059,-37.1009C337.668,-47.0656 346.909,-59.1667 352.869,-66.9713"/>
<polygon fill="none" stroke="black" points="350.149,-69.1765 359,-75 355.713,-64.9281 350.149,-69.1765"/>
</g>
<!-- UsesObject -->
<g id="node28" class="node"><title>UsesObject</title>
<g id="a_node28"><a xlink:href="javascript:Action.selectClass(&quot;UsesObject&quot;);" xlink:title="class UsesObject
">
<polygon fill="none" stroke="black" points="373.731,-1 373.731,-37 454.269,-37 454.269,-1 373.731,-1"/>
<text text-anchor="middle" x="414" y="-13.5" font-family="Times,serif" font-size="14.00">UsesObject</text>
</a>
</g>
</g>
<!-- UsesObject&#45;&gt;Uses -->
<g id="edge25" class="edge"><title>UsesObject&#45;&gt;Uses</title>
<path fill="none" stroke="black" d="M431.412,-37.1009C441.943,-47.444 454.818,-60.0888 462.711,-67.8414"/>
<polygon fill="none" stroke="black" points="460.413,-70.49 470,-75 465.318,-65.4958 460.413,-70.49"/>
</g>
<!-- UsesComponent -->
<g id="node29" class="node"><title>UsesComponent</title>
<g id="a_node29"><a xlink:href="javascript:Action.selectClass(&quot;UsesComponent&quot;);" xlink:title="class UsesComponent
">
<polygon fill="none" stroke="black" points="472.724,-1 472.724,-37 581.276,-37 581.276,-1 472.724,-1"/>
<text text-anchor="middle" x="527" y="-13.5" font-family="Times,serif" font-size="14.00">UsesComponent</text>
</a>
</g>
</g>
<!-- UsesComponent&#45;&gt;Uses -->
<g id="edge26" class="edge"><title>UsesComponent&#45;&gt;Uses</title>
<path fill="none" stroke="black" d="M509.277,-37.1009C498.558,-47.444 485.453,-60.0888 477.419,-67.8414"/>
<polygon fill="none" stroke="black" points="474.766,-65.5376 470,-75 479.627,-70.575 474.766,-65.5376"/>
</g>
<!-- TakesAddressOfObject -->
<g id="node30" class="node"><title>TakesAddressOfObject</title>
<g id="a_node30"><a xlink:href="javascript:Action.selectClass(&quot;TakesAddressOfObject&quot;);" xlink:title="class TakesAddressOfObject
">
<polygon fill="none" stroke="black" points="598.789,-1 598.789,-37 745.211,-37 745.211,-1 598.789,-1"/>
<text text-anchor="middle" x="672" y="-13.5" font-family="Times,serif" font-size="14.00">TakesAddressOfObject</text>
</a>
</g>
</g>
<!-- TakesAddressOfObject&#45;&gt;TakesAddressOf -->
<g id="edge27" class="edge"><title>TakesAddressOfObject&#45;&gt;TakesAddressOf</title>
<path fill="none" stroke="black" d="M662.672,-37.1009C657.443,-46.6872 651.136,-58.2507 646.874,-66.0639"/>
<polygon fill="none" stroke="black" points="643.716,-64.545 642,-75 649.861,-67.897 643.716,-64.545"/>
</g>
<!-- TakesAddressOfComponent -->
<g id="node31" class="node"><title>TakesAddressOfComponent</title>
<g id="a_node31"><a xlink:href="javascript:Action.selectClass(&quot;TakesAddressOfComponent&quot;);" xlink:title="class TakesAddressOfComponent
Postioning
Postioning
">
<polygon fill="none" stroke="black" points="762.782,-1 762.782,-37 937.218,-37 937.218,-1 762.782,-1"/>
<text text-anchor="middle" x="850" y="-13.5" font-family="Times,serif" font-size="14.00">TakesAddressOfComponent</text>
</a>
</g>
</g>
<!-- TakesAddressOfComponent&#45;&gt;TakesAddressOf -->
<g id="edge28" class="edge"><title>TakesAddressOfComponent&#45;&gt;TakesAddressOf</title>
<path fill="none" stroke="black" d="M785.612,-37.0257C737.172,-49.8345 675.251,-66.2075 651.689,-72.438"/>
<polygon fill="none" stroke="black" points="650.773,-69.0598 642,-75 652.562,-75.8273 650.773,-69.0598"/>
</g>
</g>
</svg>
