<?xml version="1.0" encoding="UTF-8" standalone="no"?>
<!DOCTYPE svg PUBLIC "-//W3C//DTD SVG 1.1//EN"
 "http://www.w3.org/Graphics/SVG/1.1/DTD/svg11.dtd">
<!-- Generated by graphviz version 2.39.20140502.0445 (20140502.0445)
 -->
<!-- Title: DMMSourceObjectHierarchy Pages: 1 -->
<svg width="699pt" height="412pt"
 viewBox="0.00 0.00 699.09 412.00" xmlns="http://www.w3.org/2000/svg" xmlns:xlink="http://www.w3.org/1999/xlink">
<g id="graph0" class="graph" transform="scale(1 1) rotate(0) translate(4 408)">
<title>DMMSourceObjectHierarchy</title>
<polygon fill="white" stroke="none" points="-4,4 -4,-408 695.087,-408 695.087,4 -4,4"/>
<!-- SourceObject -->
<g id="node1" class="node"><title>SourceObject</title>
<g id="a_node1"><a xlink:href="javascript:Action.selectClass(&quot;SourceObject&quot;);" xlink:title="class SourceObject
This example refers to Figures 3, 4, and 5 of &#39;The Dagstuhl Middle Metamodel:
A Schema for Reverse Engineering&#39;, ATEM 2003, First International
Workshop on Meta&#45;Models and Schemas for Reverse Engineering,
WCRE, Victoria, B.C., in Electronic Notes in Theoretical Computer
Science, Elsevier, Vol. 94, pp 7&#45;18,
Authors: Lethbridge, T.C., Sander Tichelaar, and Erhard Ploedereder (2003)
To load the entire DMM example at once, copy and paste all
five DMM components (DMM*) into the editor. &#160;Please note that the
position attributes of classes and associations will need to be
re&#45;adjusted, as the example has been made to display the diagrams
as separate entities.
This is a UML class diagram written in Umple
">
<polygon fill="none" stroke="black" points="363.5,-367.5 363.5,-403.5 456.5,-403.5 456.5,-367.5 363.5,-367.5"/>
<text text-anchor="middle" x="410" y="-381.8" font-family="Times,serif" font-size="14.00">SourceObject</text>
</a>
</g>
</g>
<!-- SourcePart -->
<g id="node2" class="node"><title>SourcePart</title>
<g id="a_node2"><a xlink:href="javascript:Action.selectClass(&quot;SourcePart&quot;);" xlink:title="class SourcePart
Positioning
">
<polygon fill="none" stroke="black" points="212.5,-239.5 212.5,-330.5 325.5,-330.5 325.5,-239.5 212.5,-239.5"/>
<text text-anchor="middle" x="269" y="-315.3" font-family="Times,serif" font-size="14.00">SourcePart</text>
<polyline fill="none" stroke="black" points="212.5,-307.5 325.5,-307.5 "/>
<text text-anchor="start" x="220.5" y="-292.3" font-family="Times,serif" font-size="14.00">startLine : String</text>
<text text-anchor="start" x="220.5" y="-277.3" font-family="Times,serif" font-size="14.00">startChar : String</text>
<text text-anchor="start" x="220.5" y="-262.3" font-family="Times,serif" font-size="14.00">endLine : String</text>
<text text-anchor="start" x="220.5" y="-247.3" font-family="Times,serif" font-size="14.00">endChar : String</text>
</a>
</g>
</g>
<!-- SourcePart&#45;&gt;SourceObject -->
<g id="edge1" class="edge"><title>SourcePart&#45;&gt;SourceObject</title>
<path fill="none" stroke="black" d="M325.517,-318.211C354.871,-334.94 387.752,-353.68 403.149,-362.456"/>
<polygon fill="none" stroke="black" points="401.579,-365.589 412,-367.5 405.045,-359.508 401.579,-365.589"/>
</g>
<!-- Contains -->
<g id="node3" class="node"><title>Contains</title>
<g id="a_node3"><a xlink:href="javascript:Action.selectClass(&quot;Contains&quot;);" xlink:title="class Contains
">
<polygon fill="none" stroke="black" points="0,-161.5 0,-197.5 66,-197.5 66,-161.5 0,-161.5"/>
<text text-anchor="middle" x="33" y="-175.8" font-family="Times,serif" font-size="14.00">Contains</text>
</a>
</g>
</g>
<!-- Contains&#45;&gt;SourceObject -->
<g id="edge13" class="edge"><title>Contains&#45;&gt;SourceObject</title>
<g id="a_edge13"><a xlink:title="Contains * &#160;&#45;&#45; 1 &#160;SourceObject">
<path fill="none" stroke="black" d="M47.4573,-197.843C74.6129,-229.272 136.527,-295.649 203,-331 254.125,-358.189 319.808,-372.108 363.322,-378.833"/>
</a>
</g>
<text text-anchor="middle" x="357.822" y="-367.633" font-family="Times,serif" font-size="14.00">1 </text>
<text text-anchor="middle" x="41.9573" y="-201.643" font-family="Times,serif" font-size="14.00">* </text>
</g>
<!-- Contains&#45;&gt;SourcePart -->
<g id="edge12" class="edge"><title>Contains&#45;&gt;SourcePart</title>
<g id="a_edge12"><a xlink:title="Contains 0..1 containedBy &#45;&#45; 0..1 &#160;SourcePart">
<path fill="none" stroke="black" d="M66.0432,-196.531C70.7146,-198.735 75.4684,-200.945 80,-203 124.218,-223.049 174.795,-244.656 212.495,-260.508"/>
</a>
</g>
<text text-anchor="middle" x="199.995" y="-249.308" font-family="Times,serif" font-size="14.00">0..1 </text>
<text text-anchor="middle" x="114.043" y="-200.331" font-family="Times,serif" font-size="14.00">0..1 containedBy</text>
</g>
<!-- SourceUnit -->
<g id="node4" class="node"><title>SourceUnit</title>
<g id="a_node4"><a xlink:href="javascript:Action.selectClass(&quot;SourceUnit&quot;);" xlink:title="class SourceUnit
">
<polygon fill="none" stroke="black" points="580,-262 580,-308 672,-308 672,-262 580,-262"/>
<text text-anchor="middle" x="626" y="-292.8" font-family="Times,serif" font-size="14.00">SourceUnit</text>
<polyline fill="none" stroke="black" points="580,-285 672,-285 "/>
<text text-anchor="start" x="588" y="-269.8" font-family="Times,serif" font-size="14.00">name : String</text>
</a>
</g>
</g>
<!-- SourceUnit&#45;&gt;SourceObject -->
<g id="edge2" class="edge"><title>SourceUnit&#45;&gt;SourceObject</title>
<path fill="none" stroke="black" d="M422.198,-366.537 447.588,-363.838 515.241,-354.779 566,-331 578.499,-325.145 590.934,-316.423 601.215,-308.213"/>
<polygon fill="none" stroke="black" points="421.627,-363.075 412,-367.5 422.285,-370.044 421.627,-363.075"/>
</g>
<!-- SourceFile -->
<g id="node5" class="node"><title>SourceFile</title>
<g id="a_node5"><a xlink:href="javascript:Action.selectClass(&quot;SourceFile&quot;);" xlink:title="class SourceFile
">
<polygon fill="none" stroke="black" points="583,-156.5 583,-202.5 669,-202.5 669,-156.5 583,-156.5"/>
<text text-anchor="middle" x="626" y="-187.3" font-family="Times,serif" font-size="14.00">SourceFile</text>
<polyline fill="none" stroke="black" points="583,-179.5 669,-179.5 "/>
<text text-anchor="start" x="591" y="-164.3" font-family="Times,serif" font-size="14.00">path : String</text>
</a>
</g>
</g>
<!-- SourceFile&#45;&gt;SourceUnit -->
<g id="edge3" class="edge"><title>SourceFile&#45;&gt;SourceUnit</title>
<path fill="none" stroke="black" d="M626,-202.703C626,-216.892 626,-235.537 626,-251.392"/>
<polygon fill="none" stroke="black" points="622.5,-251.833 626,-261.833 629.5,-251.833 622.5,-251.833"/>
</g>
<!-- Includes -->
<g id="node6" class="node"><title>Includes</title>
<g id="a_node6"><a xlink:href="javascript:Action.selectClass(&quot;Includes&quot;);" xlink:title="class Includes
">
<polygon fill="none" stroke="black" points="594,-78.5 594,-114.5 658,-114.5 658,-78.5 594,-78.5"/>
<text text-anchor="middle" x="626" y="-92.8" font-family="Times,serif" font-size="14.00">Includes</text>
</a>
</g>
</g>
<!-- Includes&#45;&gt;SourceFile -->
<g id="edge14" class="edge"><title>Includes&#45;&gt;SourceFile</title>
<g id="a_edge14"><a xlink:title="Includes * included &#45;&#45; 1 includes SourceFile">
<path fill="none" stroke="black" d="M619.913,-156.413 618.898,-143.272 619.048,-126.845 620.364,-114.678"/>
</a>
</g>
<text text-anchor="middle" x="590.913" y="-145.213" font-family="Times,serif" font-size="14.00">1 includes</text>
<text text-anchor="middle" x="590.864" y="-118.478" font-family="Times,serif" font-size="14.00">* included</text>
</g>
<!-- Includes&#45;&gt;SourceFile -->
<g id="edge15" class="edge"><title>Includes&#45;&gt;SourceFile</title>
<g id="a_edge15"><a xlink:title="Includes * includes &#45;&#45; 1 included SourceFile">
<path fill="none" stroke="black" d="M631.636,-114.678C632.952,-126.845 633.102,-143.272 632.087,-156.413"/>
</a>
</g>
<text text-anchor="middle" x="661.587" y="-145.213" font-family="Times,serif" font-size="14.00">1 included</text>
<text text-anchor="middle" x="660.636" y="-118.478" font-family="Times,serif" font-size="14.00">* includes</text>
</g>
<!-- MacroExpansion -->
<g id="node7" class="node"><title>MacroExpansion</title>
<g id="a_node7"><a xlink:href="javascript:Action.selectClass(&quot;MacroExpansion&quot;);" xlink:title="class MacroExpansion
">
<polygon fill="none" stroke="black" points="14,-78.5 14,-114.5 126,-114.5 126,-78.5 14,-78.5"/>
<text text-anchor="middle" x="70" y="-92.8" font-family="Times,serif" font-size="14.00">MacroExpansion</text>
</a>
</g>
</g>
<!-- MacroExpansion&#45;&gt;SourcePart -->
<g id="edge4" class="edge"><title>MacroExpansion&#45;&gt;SourcePart</title>
<path fill="none" stroke="black" d="M72.0641,-114.573C75.8469,-138.121 86.1457,-180.233 113,-203 157.688,-240.887 234.065,-241.041 261.666,-239.712"/>
<polygon fill="none" stroke="black" points="262.264,-243.179 272,-239 261.783,-236.196 262.264,-243.179"/>
</g>
<!-- IsExpansionOf -->
<g id="node8" class="node"><title>IsExpansionOf</title>
<g id="a_node8"><a xlink:href="javascript:Action.selectClass(&quot;IsExpansionOf&quot;);" xlink:title="class IsExpansionOf
">
<polygon fill="none" stroke="black" points="84,-0.5 84,-36.5 184,-36.5 184,-0.5 84,-0.5"/>
<text text-anchor="middle" x="134" y="-14.8" font-family="Times,serif" font-size="14.00">IsExpansionOf</text>
</a>
</g>
</g>
<!-- IsExpansionOf&#45;&gt;MacroExpansion -->
<g id="edge17" class="edge"><title>IsExpansionOf&#45;&gt;MacroExpansion</title>
<g id="a_edge17"><a xlink:title="IsExpansionOf 1 &#160;&#45;&#45; 1 &#160;MacroExpansion">
<path fill="none" stroke="black" d="M84.4651,-78.3227 94.9259,-65.9005 109.003,-49.1834 119.477,-36.7456"/>
</a>
</g>
<text text-anchor="middle" x="78.9651" y="-67.1227" font-family="Times,serif" font-size="14.00">1 </text>
<text text-anchor="middle" x="113.977" y="-40.5456" font-family="Times,serif" font-size="14.00">1 </text>
</g>
<!-- MacroDefinition -->
<g id="node14" class="node"><title>MacroDefinition</title>
<g id="a_node14"><a xlink:href="javascript:Action.selectClass(&quot;MacroDefinition&quot;);" xlink:title="class MacroDefinition
">
<polygon fill="none" stroke="black" points="144,-73.5 144,-119.5 254,-119.5 254,-73.5 144,-73.5"/>
<text text-anchor="middle" x="199" y="-104.3" font-family="Times,serif" font-size="14.00">MacroDefinition</text>
<polyline fill="none" stroke="black" points="144,-96.5 254,-96.5 "/>
<text text-anchor="start" x="152" y="-81.3" font-family="Times,serif" font-size="14.00">name : String</text>
</a>
</g>
</g>
<!-- IsExpansionOf&#45;&gt;MacroDefinition -->
<g id="edge16" class="edge"><title>IsExpansionOf&#45;&gt;MacroDefinition</title>
<g id="a_edge16"><a xlink:title="IsExpansionOf * &#160;&#45;&#45; 1 &#160;MacroDefinition">
<path fill="none" stroke="black" d="M148.75,-36.7456C158.039,-47.6068 170.119,-61.7311 180.107,-73.4092"/>
</a>
</g>
<text text-anchor="middle" x="174.607" y="-62.2092" font-family="Times,serif" font-size="14.00">1 </text>
<text text-anchor="middle" x="143.25" y="-40.5456" font-family="Times,serif" font-size="14.00">* </text>
</g>
<!-- MacroArgument -->
<g id="node9" class="node"><title>MacroArgument</title>
<g id="a_node9"><a xlink:href="javascript:Action.selectClass(&quot;MacroArgument&quot;);" xlink:title="class MacroArgument
">
<polygon fill="none" stroke="black" points="214,-156.5 214,-202.5 324,-202.5 324,-156.5 214,-156.5"/>
<text text-anchor="middle" x="269" y="-187.3" font-family="Times,serif" font-size="14.00">MacroArgument</text>
<polyline fill="none" stroke="black" points="214,-179.5 324,-179.5 "/>
<text text-anchor="start" x="222" y="-164.3" font-family="Times,serif" font-size="14.00">name : String</text>
</a>
</g>
</g>
<!-- MacroArgument&#45;&gt;SourcePart -->
<g id="edge5" class="edge"><title>MacroArgument&#45;&gt;SourcePart</title>
<path fill="none" stroke="black" d="M270.134,-202.616C270.599,-211.676 271.113,-221.708 271.484,-228.939"/>
<polygon fill="none" stroke="black" points="267.992,-229.192 272,-239 274.983,-228.834 267.992,-229.192"/>
</g>
<!-- Definition -->
<g id="node10" class="node"><title>Definition</title>
<g id="a_node10"><a xlink:href="javascript:Action.selectClass(&quot;Definition&quot;);" xlink:title="class Definition
">
<polygon fill="none" stroke="black" points="122.5,-161.5 122.5,-197.5 195.5,-197.5 195.5,-161.5 122.5,-161.5"/>
<text text-anchor="middle" x="159" y="-175.8" font-family="Times,serif" font-size="14.00">Definition</text>
</a>
</g>
</g>
<!-- Definition&#45;&gt;SourcePart -->
<g id="edge6" class="edge"><title>Definition&#45;&gt;SourcePart</title>
<path fill="none" stroke="black" d="M191.988,-197.578C216.221,-210.123 247.478,-226.305 262.76,-234.217"/>
<polygon fill="none" stroke="black" points="261.51,-237.511 272,-239 264.729,-231.294 261.51,-237.511"/>
</g>
<!-- Resolvable -->
<g id="node11" class="node"><title>Resolvable</title>
<g id="a_node11"><a xlink:href="javascript:Action.selectClass(&quot;Resolvable&quot;);" xlink:title="class Resolvable
abstract
">
<polygon fill="none" stroke="black" points="342,-156.5 342,-202.5 434,-202.5 434,-156.5 342,-156.5"/>
<text text-anchor="middle" x="388" y="-187.3" font-family="Times,serif" font-size="14.00">Resolvable</text>
<polyline fill="none" stroke="black" points="342,-179.5 434,-179.5 "/>
<text text-anchor="start" x="350" y="-164.3" font-family="Times,serif" font-size="14.00">name : String</text>
</a>
</g>
</g>
<!-- Resolvable&#45;&gt;SourcePart -->
<g id="edge7" class="edge"><title>Resolvable&#45;&gt;SourcePart</title>
<path fill="none" stroke="black" d="M281.193,-234.364 294.764,-227.52 321.048,-214.264 344.145,-202.616"/>
<polygon fill="none" stroke="black" points="279.353,-231.372 272,-239 282.505,-237.622 279.353,-231.372"/>
</g>
<!-- Comment -->
<g id="node12" class="node"><title>Comment</title>
<g id="a_node12"><a xlink:href="javascript:Action.selectClass(&quot;Comment&quot;);" xlink:title="class Comment
">
<polygon fill="none" stroke="black" points="452,-161.5 452,-197.5 524,-197.5 524,-161.5 452,-161.5"/>
<text text-anchor="middle" x="488" y="-175.8" font-family="Times,serif" font-size="14.00">Comment</text>
</a>
</g>
</g>
<!-- Comment&#45;&gt;SourcePart -->
<g id="edge8" class="edge"><title>Comment&#45;&gt;SourcePart</title>
<path fill="none" stroke="black" d="M282.268,-237.772 309.223,-234.35 383.989,-223.581 443,-203 447.454,-201.447 452.031,-199.548 456.481,-197.518"/>
<polygon fill="none" stroke="black" points="281.514,-234.337 272,-239 282.345,-241.288 281.514,-234.337"/>
</g>
<!-- Describes -->
<g id="node13" class="node"><title>Describes</title>
<g id="a_node13"><a xlink:href="javascript:Action.selectClass(&quot;Describes&quot;);" xlink:title="class Describes
">
<polygon fill="none" stroke="black" points="476,-78.5 476,-114.5 548,-114.5 548,-78.5 476,-78.5"/>
<text text-anchor="middle" x="512" y="-92.8" font-family="Times,serif" font-size="14.00">Describes</text>
</a>
</g>
</g>
<!-- Describes&#45;&gt;SourceObject -->
<g id="edge18" class="edge"><title>Describes&#45;&gt;SourceObject</title>
<g id="a_edge18"><a xlink:title="Describes * &#160;&#45;&#45; 1 &#160;SourceObject">
<path fill="none" stroke="black" d="M426.981,-367.366 455.511,-337.228 512.003,-271.412 533,-203 542.37,-172.471 529.853,-135.654 520.507,-114.572"/>
</a>
</g>
<text text-anchor="middle" x="421.481" y="-356.166" font-family="Times,serif" font-size="14.00">1 </text>
<text text-anchor="middle" x="515.007" y="-118.372" font-family="Times,serif" font-size="14.00">* </text>
</g>
<!-- Describes&#45;&gt;Comment -->
<g id="edge19" class="edge"><title>Describes&#45;&gt;Comment</title>
<g id="a_edge19"><a xlink:title="Describes 0..1 foundIn &#45;&#45; 0..1 &#160;Comment">
<path fill="none" stroke="black" d="M493.082,-161.347 497.153,-147.607 502.837,-128.424 506.91,-114.678"/>
</a>
</g>
<text text-anchor="middle" x="480.582" y="-150.147" font-family="Times,serif" font-size="14.00">0..1 </text>
<text text-anchor="middle" x="472.41" y="-118.478" font-family="Times,serif" font-size="14.00">0..1 foundIn</text>
</g>
<!-- MacroDefinition&#45;&gt;Definition -->
<g id="edge9" class="edge"><title>MacroDefinition&#45;&gt;Definition</title>
<path fill="none" stroke="black" d="M172.022,-152.131 177.208,-141.628 183.111,-129.675 188.07,-119.634"/>
<polygon fill="none" stroke="black" points="168.797,-150.756 167.507,-161.272 175.074,-153.856 168.797,-150.756"/>
</g>
<!-- Declaration -->
<g id="node15" class="node"><title>Declaration</title>
<g id="a_node15"><a xlink:href="javascript:Action.selectClass(&quot;Declaration&quot;);" xlink:title="class Declaration
">
<polygon fill="none" stroke="black" points="276,-78.5 276,-114.5 358,-114.5 358,-78.5 276,-78.5"/>
<text text-anchor="middle" x="317" y="-92.8" font-family="Times,serif" font-size="14.00">Declaration</text>
</a>
</g>
</g>
<!-- Declaration&#45;&gt;Resolvable -->
<g id="edge10" class="edge"><title>Declaration&#45;&gt;Resolvable</title>
<path fill="none" stroke="black" d="M336.09,-114.565C349.186,-126.273 365.86,-141.178 375.393,-149.7"/>
<polygon fill="none" stroke="black" points="373.212,-152.445 383,-156.5 377.877,-147.226 373.212,-152.445"/>
</g>
<!-- Reference -->
<g id="node16" class="node"><title>Reference</title>
<g id="a_node16"><a xlink:href="javascript:Action.selectClass(&quot;Reference&quot;);" xlink:title="class Reference
">
<polygon fill="none" stroke="black" points="376.5,-78.5 376.5,-114.5 449.5,-114.5 449.5,-78.5 376.5,-78.5"/>
<text text-anchor="middle" x="413" y="-92.8" font-family="Times,serif" font-size="14.00">Reference</text>
</a>
</g>
</g>
<!-- Reference&#45;&gt;Resolvable -->
<g id="edge11" class="edge"><title>Reference&#45;&gt;Resolvable</title>
<path fill="none" stroke="black" d="M387.578,-147.497 392.014,-138.773 398.854,-125.32 404.323,-114.565"/>
<polygon fill="none" stroke="black" points="384.413,-146 383,-156.5 390.652,-149.173 384.413,-146"/>
</g>
</g>
</svg>
