<?xml version="1.0" encoding="UTF-8" standalone="no"?>
<!DOCTYPE svg PUBLIC "-//W3C//DTD SVG 1.1//EN"
 "http://www.w3.org/Graphics/SVG/1.1/DTD/svg11.dtd">
<!-- Generated by graphviz version 2.29.20121108.1600 (20121108.1600)
 -->
<!-- Title: DMMSourceObjectHierarchy Pages: 1 -->
<svg width="761pt" height="434pt"
 viewBox="0.00 0.00 760.83 434.00" xmlns="http://www.w3.org/2000/svg" xmlns:xlink="http://www.w3.org/1999/xlink">
<g id="graph0" class="graph" transform="scale(1 1) rotate(0) translate(4 430)">
<title>DMMSourceObjectHierarchy</title>
<polygon fill="white" stroke="white" points="-4,5 -4,-430 757.826,-430 757.826,5 -4,5"/>
<!-- SourceObject -->
<g id="node1" class="node"><title>SourceObject</title>
<g id="a_node1"><a xlink:href="javascript:Action.selectClass(&quot;SourceObject&quot;);" xlink:title="class SourceObject
This example refers to Figures 3, 4, and 5 of &#39;The Dagstuhl Middle Metamodel:
A Schema for Reverse Engineering&#39;, ATEM 2003, First International
Workshop on Meta&#45;Models and Schemas for Reverse Engineering,
WCRE, Victoria, B.C., in Electronic Notes in Theoretical Computer
Science, Elsevier, Vol. 94, pp 7&#45;18,
Authors: Lethbridge, T.C., Sander Tichelaar, and Erhard Ploedereder (2003)
To load the entire DMM example at once, copy and paste all
five DMM components (DMM*) into the editor. &#160;Please note that the
position attributes of classes and associations will need to be
re&#45;adjusted, as the example has been made to display the diagrams
as separate entities.
">
<polygon fill="none" stroke="black" points="542.903,-389 542.903,-425 635.097,-425 635.097,-389 542.903,-389"/>
<text text-anchor="middle" x="589" y="-401.5" font-family="Times,serif" font-size="14.00">SourceObject</text>
</a>
</g>
</g>
<!-- SourcePart -->
<g id="node2" class="node"><title>SourcePart</title>
<g id="a_node2"><a xlink:href="javascript:Action.selectClass(&quot;SourcePart&quot;);" xlink:title="class SourcePart
Positioning
">
<polygon fill="none" stroke="black" points="310.783,-251 310.783,-351 423.217,-351 423.217,-251 310.783,-251"/>
<text text-anchor="middle" x="367" y="-333" font-family="Times,serif" font-size="14.00">SourcePart</text>
<polyline fill="none" stroke="black" points="310.783,-326.2 423.217,-326.2 "/>
<text text-anchor="start" x="318.783" y="-308.2" font-family="Times,serif" font-size="14.00">startLine : String</text>
<text text-anchor="start" x="318.783" y="-291.4" font-family="Times,serif" font-size="14.00">startChar : String</text>
<text text-anchor="start" x="318.783" y="-274.6" font-family="Times,serif" font-size="14.00">endLine : String</text>
<text text-anchor="start" x="318.783" y="-257.8" font-family="Times,serif" font-size="14.00">endChar : String</text>
</a>
</g>
</g>
<!-- SourcePart&#45;&gt;SourceObject -->
<g id="edge1" class="edge"><title>SourcePart&#45;&gt;SourceObject</title>
<path fill="none" stroke="black" d="M423.398,-324.405C476.12,-345.349 550.511,-374.902 576.555,-385.248"/>
<polygon fill="none" stroke="black" points="575.414,-388.561 586,-389 577.999,-382.055 575.414,-388.561"/>
</g>
<!-- Contains -->
<g id="node3" class="node"><title>Contains</title>
<g id="a_node3"><a xlink:href="javascript:Action.selectClass(&quot;Contains&quot;);" xlink:title="class Contains
">
<polygon fill="none" stroke="black" points="520.11,-170 520.11,-206 585.89,-206 585.89,-170 520.11,-170"/>
<text text-anchor="middle" x="553" y="-182.5" font-family="Times,serif" font-size="14.00">Contains</text>
</a>
</g>
</g>
<!-- Contains&#45;&gt;SourcePart -->
<g id="edge12" class="edge"><title>Contains&#45;&gt;SourcePart</title>
<path fill="none" stroke="black" d="M524.345,-206.1C497.545,-222.094 456.76,-246.433 423.43,-266.324"/>
<text text-anchor="middle" x="428.68" y="-252.324" font-family="Times,serif" font-size="14.00">1 </text>
<text text-anchor="middle" x="519.095" y="-208.9" font-family="Times,serif" font-size="14.00">1 </text>
</g>
<!-- Contains&#45;&gt;SourceObject -->
<g id="edge13" class="edge"><title>Contains&#45;&gt;SourceObject</title>
<path fill="none" stroke="black" d="M555.825,-206.028C562.538,-246.493 579.389,-348.065 586.138,-388.751"/>
<text text-anchor="middle" x="580.888" y="-374.751" font-family="Times,serif" font-size="14.00">1 </text>
<text text-anchor="middle" x="550.575" y="-208.828" font-family="Times,serif" font-size="14.00">* </text>
</g>
<!-- SourceUnit -->
<g id="node4" class="node"><title>SourceUnit</title>
<g id="a_node4"><a xlink:href="javascript:Action.selectClass(&quot;SourceUnit&quot;);" xlink:title="class SourceUnit
">
<polygon fill="none" stroke="black" points="642.283,-276.2 642.283,-325.8 733.717,-325.8 733.717,-276.2 642.283,-276.2"/>
<text text-anchor="middle" x="688" y="-307.8" font-family="Times,serif" font-size="14.00">SourceUnit</text>
<polyline fill="none" stroke="black" points="642.283,-301 733.717,-301 "/>
<text text-anchor="start" x="650.283" y="-283" font-family="Times,serif" font-size="14.00">name : String</text>
</a>
</g>
</g>
<!-- SourceUnit&#45;&gt;SourceObject -->
<g id="edge2" class="edge"><title>SourceUnit&#45;&gt;SourceObject</title>
<path fill="none" stroke="black" d="M659.858,-326.003C637.45,-345.116 607.62,-370.559 593.728,-382.408"/>
<polygon fill="none" stroke="black" points="591.337,-379.848 586,-389 595.88,-385.173 591.337,-379.848"/>
</g>
<!-- SourceFile -->
<g id="node5" class="node"><title>SourceFile</title>
<g id="a_node5"><a xlink:href="javascript:Action.selectClass(&quot;SourceFile&quot;);" xlink:title="class SourceFile
">
<polygon fill="none" stroke="black" points="645.39,-163.2 645.39,-212.8 730.61,-212.8 730.61,-163.2 645.39,-163.2"/>
<text text-anchor="middle" x="688" y="-194.8" font-family="Times,serif" font-size="14.00">SourceFile</text>
<polyline fill="none" stroke="black" points="645.39,-188 730.61,-188 "/>
<text text-anchor="start" x="653.39" y="-170" font-family="Times,serif" font-size="14.00">path : String</text>
</a>
</g>
</g>
<!-- SourceFile&#45;&gt;SourceUnit -->
<g id="edge3" class="edge"><title>SourceFile&#45;&gt;SourceUnit</title>
<path fill="none" stroke="black" d="M688,-212.812C688,-228.216 688,-248.518 688,-265.655"/>
<polygon fill="none" stroke="black" points="684.5,-265.844 688,-275.844 691.5,-265.844 684.5,-265.844"/>
</g>
<!-- Includes -->
<g id="node6" class="node"><title>Includes</title>
<g id="a_node6"><a xlink:href="javascript:Action.selectClass(&quot;Includes&quot;);" xlink:title="class Includes
">
<polygon fill="none" stroke="black" points="656.286,-82 656.286,-118 719.714,-118 719.714,-82 656.286,-82"/>
<text text-anchor="middle" x="688" y="-94.5" font-family="Times,serif" font-size="14.00">Includes</text>
</a>
</g>
</g>
<!-- Includes&#45;&gt;SourceFile -->
<g id="edge14" class="edge"><title>Includes&#45;&gt;SourceFile</title>
<path fill="none" stroke="black" d="M682.451,-118.403C681.07,-131.263 680.88,-148.924 681.881,-163.105"/>
<text text-anchor="middle" x="653.303" y="-149.105" font-family="Times,serif" font-size="14.00">1 includes</text>
<text text-anchor="middle" x="653.098" y="-121.203" font-family="Times,serif" font-size="14.00">* included</text>
</g>
<!-- Includes&#45;&gt;SourceFile -->
<g id="edge15" class="edge"><title>Includes&#45;&gt;SourceFile</title>
<path fill="none" stroke="black" d="M693.549,-118.403C694.93,-131.263 695.12,-148.924 694.119,-163.105"/>
<text text-anchor="middle" x="723.473" y="-149.105" font-family="Times,serif" font-size="14.00">1 included</text>
<text text-anchor="middle" x="722.126" y="-121.203" font-family="Times,serif" font-size="14.00">* includes</text>
</g>
<!-- MacroExpansion -->
<g id="node7" class="node"><title>MacroExpansion</title>
<g id="a_node7"><a xlink:href="javascript:Action.selectClass(&quot;MacroExpansion&quot;);" xlink:title="class MacroExpansion
">
<polygon fill="none" stroke="black" points="126.179,-82 126.179,-118 237.821,-118 237.821,-82 126.179,-82"/>
<text text-anchor="middle" x="182" y="-94.5" font-family="Times,serif" font-size="14.00">MacroExpansion</text>
</a>
</g>
</g>
<!-- MacroExpansion&#45;&gt;SourcePart -->
<g id="edge4" class="edge"><title>MacroExpansion&#45;&gt;SourcePart</title>
<path fill="none" stroke="black" d="M176.629,-118.128C170.186,-142.37 162.812,-186.766 185,-214 203.951,-237.261 300.746,-247.428 332.728,-250.188"/>
<polygon fill="none" stroke="black" points="332.755,-253.701 343,-251 333.307,-246.723 332.755,-253.701"/>
</g>
<!-- IsExpansionOf -->
<g id="node8" class="node"><title>IsExpansionOf</title>
<g id="a_node8"><a xlink:href="javascript:Action.selectClass(&quot;IsExpansionOf&quot;);" xlink:title="class IsExpansionOf
">
<polygon fill="none" stroke="black" points="68.0068,-1 68.0068,-37 167.993,-37 167.993,-1 68.0068,-1"/>
<text text-anchor="middle" x="118" y="-13.5" font-family="Times,serif" font-size="14.00">IsExpansionOf</text>
</a>
</g>
</g>
<!-- MacroDefinition -->
<g id="node14" class="node"><title>MacroDefinition</title>
<g id="a_node14"><a xlink:href="javascript:Action.selectClass(&quot;MacroDefinition&quot;);" xlink:title="class MacroDefinition
">
<polygon fill="none" stroke="black" points="-0.658691,-75.2 -0.658691,-124.8 108.659,-124.8 108.659,-75.2 -0.658691,-75.2"/>
<text text-anchor="middle" x="54" y="-106.8" font-family="Times,serif" font-size="14.00">MacroDefinition</text>
<polyline fill="none" stroke="black" points="-0.658691,-100 108.659,-100 "/>
<text text-anchor="start" x="7.34131" y="-82" font-family="Times,serif" font-size="14.00">name : String</text>
</a>
</g>
</g>
<!-- IsExpansionOf&#45;&gt;MacroDefinition -->
<g id="edge16" class="edge"><title>IsExpansionOf&#45;&gt;MacroDefinition</title>
<path fill="none" stroke="black" d="M104.113,-37.1418C95.1427,-48.2145 83.3409,-62.7823 73.4437,-74.9991"/>
<text text-anchor="middle" x="68.1937" y="-60.9991" font-family="Times,serif" font-size="14.00">1 </text>
<text text-anchor="middle" x="98.863" y="-39.9418" font-family="Times,serif" font-size="14.00">* </text>
</g>
<!-- IsExpansionOf&#45;&gt;MacroExpansion -->
<g id="edge17" class="edge"><title>IsExpansionOf&#45;&gt;MacroExpansion</title>
<path fill="none" stroke="black" d="M131.887,-37.1418C142.622,-50.3928 157.412,-68.6491 168.14,-81.8916"/>
<text text-anchor="middle" x="162.89" y="-67.8916" font-family="Times,serif" font-size="14.00">1 </text>
<text text-anchor="middle" x="126.637" y="-39.9418" font-family="Times,serif" font-size="14.00">1 </text>
</g>
<!-- MacroArgument -->
<g id="node9" class="node"><title>MacroArgument</title>
<g id="a_node9"><a xlink:href="javascript:Action.selectClass(&quot;MacroArgument&quot;);" xlink:title="class MacroArgument
">
<polygon fill="none" stroke="black" points="194.471,-163.2 194.471,-212.8 303.529,-212.8 303.529,-163.2 194.471,-163.2"/>
<text text-anchor="middle" x="249" y="-194.8" font-family="Times,serif" font-size="14.00">MacroArgument</text>
<polyline fill="none" stroke="black" points="194.471,-188 303.529,-188 "/>
<text text-anchor="start" x="202.471" y="-170" font-family="Times,serif" font-size="14.00">name : String</text>
</a>
</g>
</g>
<!-- MacroArgument&#45;&gt;SourcePart -->
<g id="edge5" class="edge"><title>MacroArgument&#45;&gt;SourcePart</title>
<path fill="none" stroke="black" d="M285.343,-212.971C303.322,-224.829 323.497,-238.136 334.577,-245.444"/>
<polygon fill="none" stroke="black" points="332.725,-248.416 343,-251 336.579,-242.572 332.725,-248.416"/>
</g>
<!-- Definition -->
<g id="node10" class="node"><title>Definition</title>
<g id="a_node10"><a xlink:href="javascript:Action.selectClass(&quot;Definition&quot;);" xlink:title="class Definition
">
<polygon fill="none" stroke="black" points="49.6104,-170 49.6104,-206 122.39,-206 122.39,-170 49.6104,-170"/>
<text text-anchor="middle" x="86" y="-182.5" font-family="Times,serif" font-size="14.00">Definition</text>
</a>
</g>
</g>
<!-- Definition&#45;&gt;SourcePart -->
<g id="edge6" class="edge"><title>Definition&#45;&gt;SourcePart</title>
<path fill="none" stroke="black" d="M122.628,-204.144C132.09,-207.704 142.335,-211.255 152,-214 219.907,-233.286 304.24,-245.743 332.917,-249.667"/>
<polygon fill="none" stroke="black" points="332.627,-253.159 343,-251 333.545,-246.219 332.627,-253.159"/>
</g>
<!-- Resolvable -->
<g id="node11" class="node"><title>Resolvable</title>
<g id="a_node11"><a xlink:href="javascript:Action.selectClass(&quot;Resolvable&quot;);" xlink:title="class Resolvable
abstract
">
<polygon fill="none" stroke="black" points="321.283,-163.2 321.283,-212.8 412.717,-212.8 412.717,-163.2 321.283,-163.2"/>
<text text-anchor="middle" x="367" y="-194.8" font-family="Times,serif" font-size="14.00">Resolvable</text>
<polyline fill="none" stroke="black" points="321.283,-188 412.717,-188 "/>
<text text-anchor="start" x="329.283" y="-170" font-family="Times,serif" font-size="14.00">name : String</text>
</a>
</g>
</g>
<!-- Resolvable&#45;&gt;SourcePart -->
<g id="edge7" class="edge"><title>Resolvable&#45;&gt;SourcePart</title>
<path fill="none" stroke="black" d="M357.652,-213.148C353.809,-223.077 349.584,-233.992 346.662,-241.539"/>
<polygon fill="none" stroke="black" points="343.346,-240.411 343,-251 349.874,-242.938 343.346,-240.411"/>
</g>
<!-- Comment -->
<g id="node12" class="node"><title>Comment</title>
<g id="a_node12"><a xlink:href="javascript:Action.selectClass(&quot;Comment&quot;);" xlink:title="class Comment
">
<polygon fill="none" stroke="black" points="430.39,-170 430.39,-206 501.61,-206 501.61,-170 430.39,-170"/>
<text text-anchor="middle" x="466" y="-182.5" font-family="Times,serif" font-size="14.00">Comment</text>
</a>
</g>
</g>
<!-- Comment&#45;&gt;SourcePart -->
<g id="edge8" class="edge"><title>Comment&#45;&gt;SourcePart</title>
<path fill="none" stroke="black" d="M435.643,-206.211C430.774,-208.871 425.769,-211.548 421,-214 396.475,-226.613 366.91,-240.209 352.219,-246.859"/>
<polygon fill="none" stroke="black" points="350.688,-243.71 343,-251 353.556,-250.095 350.688,-243.71"/>
</g>
<!-- Describes -->
<g id="node13" class="node"><title>Describes</title>
<g id="a_node13"><a xlink:href="javascript:Action.selectClass(&quot;Describes&quot;);" xlink:title="class Describes
">
<polygon fill="none" stroke="black" points="493.4,-82 493.4,-118 564.6,-118 564.6,-82 493.4,-82"/>
<text text-anchor="middle" x="529" y="-94.5" font-family="Times,serif" font-size="14.00">Describes</text>
</a>
</g>
</g>
<!-- Describes&#45;&gt;SourceObject -->
<g id="edge18" class="edge"><title>Describes&#45;&gt;SourceObject</title>
<path fill="none" stroke="black" d="M555.933,-118.118C570.133,-128.81 586.191,-143.964 594,-162 628.088,-240.737 605.119,-347.582 594.03,-388.801"/>
<text text-anchor="middle" x="599.28" y="-374.801" font-family="Times,serif" font-size="14.00">1 </text>
<text text-anchor="middle" x="550.683" y="-120.918" font-family="Times,serif" font-size="14.00">* </text>
</g>
<!-- Describes&#45;&gt;Comment -->
<g id="edge19" class="edge"><title>Describes&#45;&gt;Comment</title>
<path fill="none" stroke="black" d="M516.251,-118.403C505.249,-133.422 489.448,-154.991 478.515,-169.916"/>
<text text-anchor="middle" x="473.265" y="-155.916" font-family="Times,serif" font-size="14.00">1 </text>
<text text-anchor="middle" x="511.001" y="-121.203" font-family="Times,serif" font-size="14.00">1 </text>
</g>
<!-- MacroDefinition&#45;&gt;Definition -->
<g id="edge9" class="edge"><title>MacroDefinition&#45;&gt;Definition</title>
<path fill="none" stroke="black" d="M62.9138,-124.956C67.0332,-136.027 71.9379,-149.208 76.1649,-160.568"/>
<polygon fill="none" stroke="black" points="72.9006,-161.832 79.6683,-169.983 79.4611,-159.391 72.9006,-161.832"/>
</g>
<!-- Declaration -->
<g id="node15" class="node"><title>Declaration</title>
<g id="a_node15"><a xlink:href="javascript:Action.selectClass(&quot;Declaration&quot;);" xlink:title="class Declaration
">
<polygon fill="none" stroke="black" points="266.352,-82 266.352,-118 347.648,-118 347.648,-82 266.352,-82"/>
<text text-anchor="middle" x="307" y="-94.5" font-family="Times,serif" font-size="14.00">Declaration</text>
</a>
</g>
</g>
<!-- Declaration&#45;&gt;Resolvable -->
<g id="edge10" class="edge"><title>Declaration&#45;&gt;Resolvable</title>
<path fill="none" stroke="black" d="M322.878,-118.27C334.078,-130.453 348.537,-146.18 356.987,-155.372"/>
<polygon fill="none" stroke="black" points="354.655,-158.007 364,-163 359.809,-153.269 354.655,-158.007"/>
</g>
<!-- Reference -->
<g id="node16" class="node"><title>Reference</title>
<g id="a_node16"><a xlink:href="javascript:Action.selectClass(&quot;Reference&quot;);" xlink:title="class Reference
">
<polygon fill="none" stroke="black" points="365.634,-82 365.634,-118 438.366,-118 438.366,-82 365.634,-82"/>
<text text-anchor="middle" x="402" y="-94.5" font-family="Times,serif" font-size="14.00">Reference</text>
</a>
</g>
</g>
<!-- Reference&#45;&gt;Resolvable -->
<g id="edge11" class="edge"><title>Reference&#45;&gt;Resolvable</title>
<path fill="none" stroke="black" d="M391.415,-118.27C384.212,-130.023 374.987,-145.075 369.286,-154.375"/>
<polygon fill="none" stroke="black" points="366.242,-152.645 364,-163 372.21,-156.303 366.242,-152.645"/>
</g>
</g>
</svg>
