<?xml version="1.0" encoding="UTF-8" standalone="no"?>
<!DOCTYPE svg PUBLIC "-//W3C//DTD SVG 1.1//EN"
 "http://www.w3.org/Graphics/SVG/1.1/DTD/svg11.dtd">
<!-- Generated by graphviz version 2.39.20140502.0445 (20140502.0445)
 -->
<!-- Title: ElectionSystem Pages: 1 -->
<svg width="645pt" height="349pt"
 viewBox="0.00 0.00 644.50 349.07" xmlns="http://www.w3.org/2000/svg" xmlns:xlink="http://www.w3.org/1999/xlink">
<g id="graph0" class="graph" transform="scale(1 1) rotate(0) translate(4 345.068)">
<title>ElectionSystem</title>
<polygon fill="white" stroke="none" points="-4,4 -4,-345.068 640.5,-345.068 640.5,4 -4,4"/>
<!-- PollingStation -->
<g id="node1" class="node"><title>PollingStation</title>
<g id="a_node1"><a xlink:href="javascript:Action.selectClass(&quot;PollingStation&quot;);" xlink:title="class PollingStation
association should be &#45;&gt;
">
<polygon fill="none" stroke="black" points="383,-0.567505 383,-61.5675 493,-61.5675 493,-0.567505 383,-0.567505"/>
<text text-anchor="middle" x="438" y="-46.3675" font-family="Times,serif" font-size="14.00">PollingStation</text>
<polyline fill="none" stroke="black" points="383,-38.5675 493,-38.5675 "/>
<text text-anchor="start" x="391" y="-23.3675" font-family="Times,serif" font-size="14.00">number : Integer</text>
<text text-anchor="start" x="391" y="-8.3675" font-family="Times,serif" font-size="14.00">address : String</text>
</a>
</g>
</g>
<!-- PollInElection -->
<g id="node8" class="node"><title>PollInElection</title>
<g id="a_node8"><a xlink:href="javascript:Action.selectClass(&quot;PollInElection&quot;);" xlink:title="class PollInElection
">
<polygon fill="none" stroke="black" points="387,-98.5675 387,-144.568 497,-144.568 497,-98.5675 387,-98.5675"/>
<text text-anchor="middle" x="442" y="-129.368" font-family="Times,serif" font-size="14.00">PollInElection</text>
<polyline fill="none" stroke="black" points="387,-121.568 497,-121.568 "/>
<text text-anchor="start" x="395" y="-106.368" font-family="Times,serif" font-size="14.00">number : Integer</text>
</a>
</g>
</g>
<!-- PollingStation&#45;&gt;PollInElection -->
<g id="edge1" class="edge"><title>PollingStation&#45;&gt;PollInElection</title>
<g id="a_edge1"><a xlink:title="PollingStation 1 &#160;&#45;&#45; * &#160;PollInElection">
<path fill="none" stroke="black" d="M439.354,-62.0296C439.894,-73.9642 440.503,-87.4522 441.001,-98.4706"/>
</a>
</g>
<text text-anchor="middle" x="435.501" y="-87.2706" font-family="Times,serif" font-size="14.00">* </text>
<text text-anchor="middle" x="433.854" y="-65.8296" font-family="Times,serif" font-size="14.00">1 </text>
</g>
<!-- ElectedBody -->
<g id="node2" class="node"><title>ElectedBody</title>
<g id="a_node2"><a xlink:href="javascript:Action.selectClass(&quot;ElectedBody&quot;);" xlink:title="class ElectedBody
">
<polygon fill="none" stroke="black" points="0,-8.0675 0,-54.0675 124,-54.0675 124,-8.0675 0,-8.0675"/>
<text text-anchor="middle" x="62" y="-38.8675" font-family="Times,serif" font-size="14.00">ElectedBody</text>
<polyline fill="none" stroke="black" points="0,-31.0675 124,-31.0675 "/>
<text text-anchor="start" x="8" y="-15.8675" font-family="Times,serif" font-size="14.00">description : String</text>
</a>
</g>
</g>
<!-- Position -->
<g id="node5" class="node"><title>Position</title>
<g id="a_node5"><a xlink:href="javascript:Action.selectClass(&quot;Position&quot;);" xlink:title="class Position
Eg. Mayor, Councilor. AKA seats
A position can have different elections for it at different times, eg. once every four years.
">
<polygon fill="none" stroke="black" points="94,-98.5675 94,-144.568 218,-144.568 218,-98.5675 94,-98.5675"/>
<text text-anchor="middle" x="156" y="-129.368" font-family="Times,serif" font-size="14.00">Position</text>
<polyline fill="none" stroke="black" points="94,-121.568 218,-121.568 "/>
<text text-anchor="start" x="102" y="-106.368" font-family="Times,serif" font-size="14.00">description : String</text>
</a>
</g>
</g>
<!-- ElectedBody&#45;&gt;Position -->
<g id="edge2" class="edge"><title>ElectedBody&#45;&gt;Position</title>
<g id="a_edge2"><a xlink:title="ElectedBody 1 &#160;&#45;&#45; * &#160;Position">
<path fill="none" stroke="black" d="M85.7202,-54.3998C100.079,-67.9181 118.315,-85.0876 132.613,-98.5489"/>
</a>
</g>
<text text-anchor="middle" x="127.113" y="-87.3489" font-family="Times,serif" font-size="14.00">* </text>
<text text-anchor="middle" x="80.2202" y="-58.1998" font-family="Times,serif" font-size="14.00">1 </text>
</g>
<!-- Election -->
<g id="node3" class="node"><title>Election</title>
<g id="a_node3"><a xlink:href="javascript:Action.selectClass(&quot;Election&quot;);" xlink:title="class Election
Different elections may have different sets of polls
">
<polygon fill="none" stroke="black" points="287.5,-8.0675 287.5,-54.0675 364.5,-54.0675 364.5,-8.0675 287.5,-8.0675"/>
<text text-anchor="middle" x="326" y="-38.8675" font-family="Times,serif" font-size="14.00">Election</text>
<polyline fill="none" stroke="black" points="287.5,-31.0675 364.5,-31.0675 "/>
<text text-anchor="start" x="295.5" y="-15.8675" font-family="Times,serif" font-size="14.00">date : Date</text>
</a>
</g>
</g>
<!-- ElectionForPosition -->
<g id="node4" class="node"><title>ElectionForPosition</title>
<g id="a_node4"><a xlink:href="javascript:Action.selectClass(&quot;ElectionForPosition&quot;);" xlink:title="class ElectionForPosition
">
<polygon fill="none" stroke="black" points="91.5,-201.568 91.5,-237.568 220.5,-237.568 220.5,-201.568 91.5,-201.568"/>
<text text-anchor="middle" x="156" y="-215.868" font-family="Times,serif" font-size="14.00">ElectionForPosition</text>
</a>
</g>
</g>
<!-- Election&#45;&gt;ElectionForPosition -->
<g id="edge4" class="edge"><title>Election&#45;&gt;ElectionForPosition</title>
<g id="a_edge4"><a xlink:title="Election 1 &#160;&#45;&#45; * &#160;ElectionForPosition">
<path fill="none" stroke="black" d="M172.88,-201.566 187.419,-186.812 208.861,-164.783 227,-145.068 255.432,-114.165 287.259,-77.4377 306.965,-54.4351"/>
</a>
</g>
<text text-anchor="middle" x="167.38" y="-190.366" font-family="Times,serif" font-size="14.00">* </text>
<text text-anchor="middle" x="301.465" y="-58.2351" font-family="Times,serif" font-size="14.00">1 </text>
</g>
<!-- Election&#45;&gt;PollInElection -->
<g id="edge3" class="edge"><title>Election&#45;&gt;PollInElection</title>
<g id="a_edge3"><a xlink:title="Election 1 &#160;&#45;&#45; * &#160;PollInElection">
<path fill="none" stroke="black" d="M354.972,-54.1715C372.689,-67.6876 395.273,-84.9179 412.995,-98.4386"/>
</a>
</g>
<text text-anchor="middle" x="407.495" y="-87.2386" font-family="Times,serif" font-size="14.00">* </text>
<text text-anchor="middle" x="349.472" y="-57.9715" font-family="Times,serif" font-size="14.00">1 </text>
</g>
<!-- Candidature -->
<g id="node6" class="node"><title>Candidature</title>
<g id="a_node6"><a xlink:href="javascript:Action.selectClass(&quot;Candidature&quot;);" xlink:title="class Candidature
We need candidature class since a candidate can run for different
positions and for the smae positions at subsequent elections
">
<polygon fill="none" stroke="black" points="312.5,-294.568 312.5,-340.568 455.5,-340.568 455.5,-294.568 312.5,-294.568"/>
<text text-anchor="middle" x="384" y="-325.368" font-family="Times,serif" font-size="14.00">Candidature</text>
<polyline fill="none" stroke="black" points="312.5,-317.568 455.5,-317.568 "/>
<text text-anchor="start" x="320.5" y="-302.368" font-family="Times,serif" font-size="14.00">isIncumbent : Boolean</text>
</a>
</g>
</g>
<!-- ElectionForPosition&#45;&gt;Candidature -->
<g id="edge5" class="edge"><title>ElectionForPosition&#45;&gt;Candidature</title>
<g id="a_edge5"><a xlink:title="ElectionForPosition 1 &#160;&#45;&#45; * &#160;Candidature">
<path fill="none" stroke="black" d="M187.24,-237.605C200.026,-244.317 215.065,-251.883 229,-258.068 258.707,-271.253 292.388,-284.196 320.748,-294.542"/>
</a>
</g>
<text text-anchor="middle" x="315.248" y="-283.342" font-family="Times,serif" font-size="14.00">* </text>
<text text-anchor="middle" x="181.74" y="-241.405" font-family="Times,serif" font-size="14.00">1 </text>
</g>
<!-- Position&#45;&gt;ElectionForPosition -->
<g id="edge6" class="edge"><title>Position&#45;&gt;ElectionForPosition</title>
<g id="a_edge6"><a xlink:title="Position 1 &#160;&#45;&#45; * &#160;ElectionForPosition">
<path fill="none" stroke="black" d="M156,-144.833C156,-162.115 156,-185.715 156,-201.515"/>
</a>
</g>
<text text-anchor="middle" x="150.5" y="-190.315" font-family="Times,serif" font-size="14.00">* </text>
<text text-anchor="middle" x="150.5" y="-148.633" font-family="Times,serif" font-size="14.00">1 </text>
</g>
<!-- Candidate -->
<g id="node7" class="node"><title>Candidate</title>
<g id="a_node7"><a xlink:href="javascript:Action.selectClass(&quot;Candidate&quot;);" xlink:title="class Candidate
Positioning
Positioning
">
<polygon fill="none" stroke="black" points="238.5,-181.568 238.5,-257.568 385.5,-257.568 385.5,-181.568 238.5,-181.568"/>
<text text-anchor="middle" x="312" y="-242.368" font-family="Times,serif" font-size="14.00">Candidate</text>
<polyline fill="none" stroke="black" points="238.5,-234.568 385.5,-234.568 "/>
<text text-anchor="start" x="246.5" y="-219.368" font-family="Times,serif" font-size="14.00">name : String</text>
<text text-anchor="start" x="246.5" y="-204.368" font-family="Times,serif" font-size="14.00">phoneNumber : Integer</text>
<text text-anchor="start" x="246.5" y="-189.368" font-family="Times,serif" font-size="14.00">address : String</text>
</a>
</g>
</g>
<!-- Candidate&#45;&gt;Candidature -->
<g id="edge7" class="edge"><title>Candidate&#45;&gt;Candidature</title>
<g id="a_edge7"><a xlink:title="Candidate 1 &#160;&#45;&#45; * &#160;Candidature">
<path fill="none" stroke="black" d="M339.837,-257.684C349.176,-270.136 359.289,-283.619 367.478,-294.538"/>
</a>
</g>
<text text-anchor="middle" x="361.978" y="-283.338" font-family="Times,serif" font-size="14.00">* </text>
<text text-anchor="middle" x="334.337" y="-261.484" font-family="Times,serif" font-size="14.00">1 </text>
</g>
<!-- Voter -->
<g id="node10" class="node"><title>Voter</title>
<g id="a_node10"><a xlink:href="javascript:Action.selectClass(&quot;Voter&quot;);" xlink:title="class Voter
">
<polygon fill="none" stroke="black" points="404,-189.068 404,-250.068 508,-250.068 508,-189.068 404,-189.068"/>
<text text-anchor="middle" x="456" y="-234.868" font-family="Times,serif" font-size="14.00">Voter</text>
<polyline fill="none" stroke="black" points="404,-227.068 508,-227.068 "/>
<text text-anchor="start" x="412" y="-211.868" font-family="Times,serif" font-size="14.00">name : String</text>
<text text-anchor="start" x="412" y="-196.868" font-family="Times,serif" font-size="14.00">address : String</text>
</a>
</g>
</g>
<!-- PollInElection&#45;&gt;Voter -->
<g id="edge8" class="edge"><title>PollInElection&#45;&gt;Voter</title>
<g id="a_edge8"><a xlink:title="PollInElection 1 &#160;&#45;&#45; * &#160;Voter">
<path fill="none" stroke="black" d="M445.247,-144.833C447.153,-157.905 449.587,-174.592 451.657,-188.784"/>
</a>
</g>
<text text-anchor="middle" x="446.157" y="-177.584" font-family="Times,serif" font-size="14.00">* </text>
<text text-anchor="middle" x="439.747" y="-148.633" font-family="Times,serif" font-size="14.00">1 </text>
</g>
<!-- VotesInPoll -->
<g id="node9" class="node"><title>VotesInPoll</title>
<g id="a_node9"><a xlink:href="javascript:Action.selectClass(&quot;VotesInPoll&quot;);" xlink:title="class VotesInPoll
">
<polygon fill="none" stroke="black" points="511.5,-8.0675 511.5,-54.0675 636.5,-54.0675 636.5,-8.0675 511.5,-8.0675"/>
<text text-anchor="middle" x="574" y="-38.8675" font-family="Times,serif" font-size="14.00">VotesInPoll</text>
<polyline fill="none" stroke="black" points="511.5,-31.0675 636.5,-31.0675 "/>
<text text-anchor="start" x="519.5" y="-15.8675" font-family="Times,serif" font-size="14.00">numVotes : Integer</text>
</a>
</g>
</g>
<!-- VotesInPoll&#45;&gt;Candidature -->
<g id="edge9" class="edge"><title>VotesInPoll&#45;&gt;Candidature</title>
<g id="a_edge9"><a xlink:title="VotesInPoll * &#160;&#45;&#45; 1 &#160;Candidature">
<path fill="none" stroke="black" d="M455.56,-298.662 478.048,-289.812 501.123,-276.851 517,-258.068 567.938,-197.805 574.347,-98.22 574.51,-54.1831"/>
</a>
</g>
<text text-anchor="middle" x="461.06" y="-287.462" font-family="Times,serif" font-size="14.00">1 </text>
<text text-anchor="middle" x="569.01" y="-57.9831" font-family="Times,serif" font-size="14.00">* </text>
</g>
<!-- VotesInPoll&#45;&gt;PollInElection -->
<g id="edge10" class="edge"><title>VotesInPoll&#45;&gt;PollInElection</title>
<g id="a_edge10"><a xlink:title="VotesInPoll * &#160;&#45;&#45; 1 &#160;PollInElection">
<path fill="none" stroke="black" d="M475.006,-98.4386 495.172,-84.9179 520.872,-67.6876 541.031,-54.1715"/>
</a>
</g>
<text text-anchor="middle" x="469.506" y="-87.2386" font-family="Times,serif" font-size="14.00">1 </text>
<text text-anchor="middle" x="535.531" y="-57.9715" font-family="Times,serif" font-size="14.00">* </text>
</g>
<!-- Voter&#45;&gt;Candidature -->
<g id="edge11" class="edge"><title>Voter&#45;&gt;Candidature</title>
<g id="a_edge11"><a xlink:title="Voter * &#160;&#45;&#45; * &#160;Candidature">
<path fill="none" stroke="black" d="M400.514,-294.549 410.39,-281.38 423.067,-264.478 433.81,-250.154"/>
</a>
</g>
<text text-anchor="middle" x="395.014" y="-283.349" font-family="Times,serif" font-size="14.00">* </text>
<text text-anchor="middle" x="428.31" y="-253.954" font-family="Times,serif" font-size="14.00">* </text>
</g>
<!-- ElectoralDistrict -->
<g id="node11" class="node"><title>ElectoralDistrict</title>
<g id="a_node11"><a xlink:href="javascript:Action.selectClass(&quot;ElectoralDistrict&quot;);" xlink:title="class ElectoralDistrict
">
<polygon fill="none" stroke="black" points="142.5,-13.0675 142.5,-49.0675 251.5,-49.0675 251.5,-13.0675 142.5,-13.0675"/>
<text text-anchor="middle" x="197" y="-27.3675" font-family="Times,serif" font-size="14.00">ElectoralDistrict</text>
</a>
</g>
</g>
<!-- ElectoralDistrict&#45;&gt;Position -->
<g id="edge13" class="edge"><title>ElectoralDistrict&#45;&gt;Position</title>
<g id="a_edge13"><a xlink:title="ElectoralDistrict 0..1 &#160;&#45;&#45; * &#160;Position">
<path fill="none" stroke="black" d="M166.214,-98.5205 173.292,-83.2413 182.579,-63.1952 189.095,-49.1312"/>
</a>
</g>
<text text-anchor="middle" x="160.714" y="-87.3205" font-family="Times,serif" font-size="14.00">* </text>
<text text-anchor="middle" x="176.595" y="-52.9312" font-family="Times,serif" font-size="14.00">0..1 </text>
</g>
<!-- ElectoralDistrict&#45;&gt;Voter -->
<g id="edge12" class="edge"><title>ElectoralDistrict&#45;&gt;Voter</title>
<g id="a_edge12"><a xlink:title="ElectoralDistrict 1 &#160;&#45;&#45; * &#160;Voter">
<path fill="none" stroke="black" d="M220.902,-49.2787C265.108,-81.1105 360.111,-149.52 414.853,-188.939"/>
</a>
</g>
<text text-anchor="middle" x="409.353" y="-177.739" font-family="Times,serif" font-size="14.00">* </text>
<text text-anchor="middle" x="215.402" y="-53.0787" font-family="Times,serif" font-size="14.00">1 </text>
</g>
<!-- ElectoralDistrict&#45;&gt;ElectoralDistrict -->
<g id="edge14" class="edge"><title>ElectoralDistrict&#45;&gt;ElectoralDistrict</title>
<g id="a_edge14"><a xlink:title="ElectoralDistrict 0..1 &#160;&#45;&#45; * subDistrict ElectoralDistrict">
<path fill="none" stroke="black" d="M251.696,-15C262.125,-16.9226 269.5,-22.2784 269.5,-31.0675 269.5,-39.8566 262.125,-45.2124 251.696,-47.135"/>
</a>
</g>
<text text-anchor="middle" x="251.696" y="-50.935" font-family="Times,serif" font-size="14.00">* subDistrict</text>
<text text-anchor="middle" x="264.196" y="-3.8" font-family="Times,serif" font-size="14.00">0..1 </text>
</g>
</g>
</svg>
