<?xml version="1.0" encoding="UTF-8" standalone="no"?>
<!DOCTYPE svg PUBLIC "-//W3C//DTD SVG 1.1//EN"
 "http://www.w3.org/Graphics/SVG/1.1/DTD/svg11.dtd">
<!-- Generated by graphviz version 2.39.20140502.0445 (20140502.0445)
 -->
<!-- Title: ElevatorSystemA Pages: 1 -->
<svg width="270pt" height="349pt"
 viewBox="0.00 0.00 270.10 349.00" xmlns="http://www.w3.org/2000/svg" xmlns:xlink="http://www.w3.org/1999/xlink">
<g id="graph0" class="graph" transform="scale(1 1) rotate(0) translate(4 345)">
<title>ElevatorSystemA</title>
<polygon fill="white" stroke="none" points="-4,4 -4,-345 266.096,-345 266.096,4 -4,4"/>
<!-- Building -->
<g id="node1" class="node"><title>Building</title>
<g id="a_node1"><a xlink:href="javascript:Action.selectClass(&quot;Building&quot;);" xlink:title="class Building
">
<polygon fill="none" stroke="black" points="114.5,-0.5 114.5,-46.5 206.5,-46.5 206.5,-0.5 114.5,-0.5"/>
<text text-anchor="middle" x="160.5" y="-31.3" font-family="Times,serif" font-size="14.00">Building</text>
<polyline fill="none" stroke="black" points="114.5,-23.5 206.5,-23.5 "/>
<text text-anchor="start" x="122.5" y="-8.3" font-family="Times,serif" font-size="14.00">name : String</text>
</a>
</g>
</g>
<!-- Bank -->
<g id="node2" class="node"><title>Bank</title>
<g id="a_node2"><a xlink:href="javascript:Action.selectClass(&quot;Bank&quot;);" xlink:title="class Bank
">
<polygon fill="none" stroke="black" points="69,-83.5 69,-129.5 142,-129.5 142,-83.5 69,-83.5"/>
<text text-anchor="middle" x="105.5" y="-114.3" font-family="Times,serif" font-size="14.00">Bank</text>
<polyline fill="none" stroke="black" points="69,-106.5 142,-106.5 "/>
<text text-anchor="start" x="77" y="-91.3" font-family="Times,serif" font-size="14.00">id : String</text>
</a>
</g>
</g>
<!-- Building&#45;&gt;Bank -->
<g id="edge2" class="edge"><title>Building&#45;&gt;Bank</title>
<g id="a_edge2"><a xlink:title="Building 1 &#160;&#45;&#45; 1..* &#160;Bank">
<path fill="none" stroke="black" d="M120.511,-83.3932 128.269,-71.9678 137.71,-58.0628 145.471,-46.6336"/>
</a>
</g>
<text text-anchor="middle" x="133.011" y="-72.1932" font-family="Times,serif" font-size="14.00">1..* </text>
<text text-anchor="middle" x="139.971" y="-50.4336" font-family="Times,serif" font-size="14.00">1 </text>
</g>
<!-- Floor -->
<g id="node3" class="node"><title>Floor</title>
<g id="a_node3"><a xlink:href="javascript:Action.selectClass(&quot;Floor&quot;);" xlink:title="class Floor
">
<polygon fill="none" stroke="black" points="16,-279.5 16,-340.5 149,-340.5 149,-279.5 16,-279.5"/>
<text text-anchor="middle" x="82.5" y="-325.3" font-family="Times,serif" font-size="14.00">Floor</text>
<polyline fill="none" stroke="black" points="16,-317.5 149,-317.5 "/>
<text text-anchor="start" x="24" y="-302.3" font-family="Times,serif" font-size="14.00">id : String</text>
<text text-anchor="start" x="24" y="-287.3" font-family="Times,serif" font-size="14.00">doorToOpen : String</text>
</a>
</g>
</g>
<!-- Building&#45;&gt;Floor -->
<g id="edge1" class="edge"><title>Building&#45;&gt;Floor</title>
<g id="a_edge1"><a xlink:title="Building 1 &#160;&#45;&#45; 2..* &#160;Floor">
<path fill="none" stroke="black" d="M140.449,-279.432 153.693,-269.73 166.051,-257.604 173.5,-243 206.565,-178.173 182.887,-88.0665 168.857,-46.7763"/>
</a>
</g>
<text text-anchor="middle" x="152.949" y="-268.232" font-family="Times,serif" font-size="14.00">2..* </text>
<text text-anchor="middle" x="163.357" y="-50.5763" font-family="Times,serif" font-size="14.00">1 </text>
</g>
<!-- Elevator -->
<g id="node4" class="node"><title>Elevator</title>
<g id="a_node4"><a xlink:href="javascript:Action.selectClass(&quot;Elevator&quot;);" xlink:title="class Elevator
Temporarely taken out because of lack of Association Class implementations in Umple 2.0
ordered
association BankOnFloor{ 
 Boolean upCall;
 Boolean downCall;
 0..* Bank; 
 2..* Floor;
}
Positioning
">
<polygon fill="none" stroke="black" points="0,-166.5 0,-242.5 165,-242.5 165,-166.5 0,-166.5"/>
<text text-anchor="middle" x="82.5" y="-227.3" font-family="Times,serif" font-size="14.00">Elevator</text>
<polyline fill="none" stroke="black" points="0,-219.5 165,-219.5 "/>
<text text-anchor="start" x="8" y="-204.3" font-family="Times,serif" font-size="14.00">id : String</text>
<text text-anchor="start" x="8" y="-189.3" font-family="Times,serif" font-size="14.00">direction : String</text>
<text text-anchor="start" x="8" y="-174.3" font-family="Times,serif" font-size="14.00">movingOrStopped : String</text>
</a>
</g>
</g>
<!-- Bank&#45;&gt;Elevator -->
<g id="edge3" class="edge"><title>Bank&#45;&gt;Elevator</title>
<g id="a_edge3"><a xlink:title="Bank 1 &#160;&#45;&#45; 1..* &#160;Elevator">
<path fill="none" stroke="black" d="M91.4089,-166.315 94.3661,-153.972 97.5645,-140.622 100.166,-129.766"/>
</a>
</g>
<text text-anchor="middle" x="78.9089" y="-155.115" font-family="Times,serif" font-size="14.00">1..* </text>
<text text-anchor="middle" x="94.6655" y="-133.566" font-family="Times,serif" font-size="14.00">1 </text>
</g>
<!-- Floor&#45;&gt;Floor -->
<g id="edge4" class="edge"><title>Floor&#45;&gt;Floor</title>
<g id="a_edge4"><a xlink:title="Floor 0..1 &#160;&#45;&#45; 0..1 onSamelevelAs Floor">
<path fill="none" stroke="black" d="M149.096,-292.042C159.725,-294.67 167,-300.656 167,-310 167,-319.344 159.725,-325.33 149.096,-327.958"/>
</a>
</g>
<text text-anchor="middle" x="205.596" y="-316.758" font-family="Times,serif" font-size="14.00">0..1 onSamelevelAs</text>
<text text-anchor="middle" x="161.596" y="-295.842" font-family="Times,serif" font-size="14.00">0..1 </text>
</g>
<!-- Floor&#45;&gt;Elevator -->
<g id="edge5" class="edge"><title>Floor&#45;&gt;Elevator</title>
<g id="a_edge5"><a xlink:title="Floor 1 &#160;&#45;&#45; * onFloor Elevator">
<path fill="none" stroke="black" d="M88.6721,-279.315C89.3094,-267.864 89.4196,-254.638 89.0027,-242.574"/>
</a>
</g>
<text text-anchor="middle" x="61.5027" y="-246.374" font-family="Times,serif" font-size="14.00">* onFloor</text>
<text text-anchor="middle" x="83.1721" y="-268.115" font-family="Times,serif" font-size="14.00">1 </text>
</g>
<!-- Elevator&#45;&gt;Floor -->
<g id="edge6" class="edge"><title>Elevator&#45;&gt;Floor</title>
<g id="a_edge6"><a xlink:title="Elevator * &#160;&#45;&#45; * hasAccess Floor">
<path fill="none" stroke="black" d="M75.9973,-242.574C75.5804,-254.638 75.6906,-267.864 76.3279,-279.315"/>
</a>
</g>
<text text-anchor="middle" x="41.8279" y="-268.115" font-family="Times,serif" font-size="14.00">* hasAccess</text>
<text text-anchor="middle" x="70.4973" y="-231.374" font-family="Times,serif" font-size="14.00">* </text>
</g>
</g>
</svg>
