<?xml version="1.0" encoding="UTF-8" standalone="no"?>
<!DOCTYPE svg PUBLIC "-//W3C//DTD SVG 1.1//EN"
 "http://www.w3.org/Graphics/SVG/1.1/DTD/svg11.dtd">
<!-- Generated by graphviz version 2.39.20140502.0445 (20140502.0445)
 -->
<!-- Title: ElevatorSystemB Pages: 1 -->
<svg width="620pt" height="387pt"
 viewBox="0.00 0.00 619.50 387.00" xmlns="http://www.w3.org/2000/svg" xmlns:xlink="http://www.w3.org/1999/xlink">
<g id="graph0" class="graph" transform="scale(1 1) rotate(0) translate(4 383)">
<title>ElevatorSystemB</title>
<polygon fill="white" stroke="none" points="-4,4 -4,-383 615.5,-383 615.5,4 -4,4"/>
<!-- Elevator -->
<g id="node1" class="node"><title>Elevator</title>
<g id="a_node1"><a xlink:href="javascript:Action.selectClass(&quot;Elevator&quot;);" xlink:title="class Elevator
Positioning
">
<polygon fill="none" stroke="black" points="200,-146.5 200,-222.5 387,-222.5 387,-146.5 200,-146.5"/>
<text text-anchor="middle" x="293.5" y="-207.3" font-family="Times,serif" font-size="14.00">Elevator</text>
<polyline fill="none" stroke="black" points="200,-199.5 387,-199.5 "/>
<text text-anchor="start" x="208" y="-184.3" font-family="Times,serif" font-size="14.00">identifier : String</text>
<text text-anchor="start" x="208" y="-169.3" font-family="Times,serif" font-size="14.00">state : String</text>
<text text-anchor="start" x="208" y="-154.3" font-family="Times,serif" font-size="14.00">directionOfMovement : String</text>
</a>
</g>
</g>
<!-- UpCallButton -->
<g id="node8" class="node"><title>UpCallButton</title>
<g id="a_node8"><a xlink:href="javascript:Action.selectClass(&quot;UpCallButton&quot;);" xlink:title="class UpCallButton
">
<polygon fill="none" stroke="black" points="124,-259.5 124,-295.5 219,-295.5 219,-259.5 124,-259.5"/>
<text text-anchor="middle" x="171.5" y="-273.8" font-family="Times,serif" font-size="14.00">UpCallButton</text>
</a>
</g>
</g>
<!-- Elevator&#45;&gt;UpCallButton -->
<g id="edge9" class="edge"><title>Elevator&#45;&gt;UpCallButton</title>
<g id="a_edge9"><a xlink:title="Elevator 1..* &#160;&#45;&#45; * &#160;UpCallButton">
<path fill="none" stroke="black" d="M194.376,-259.437 208.33,-249.029 226.726,-235.307 243.878,-222.513"/>
</a>
</g>
<text text-anchor="middle" x="188.876" y="-248.237" font-family="Times,serif" font-size="14.00">* </text>
<text text-anchor="middle" x="231.378" y="-226.313" font-family="Times,serif" font-size="14.00">1..* </text>
</g>
<!-- DownCallButton -->
<g id="node9" class="node"><title>DownCallButton</title>
<g id="a_node9"><a xlink:href="javascript:Action.selectClass(&quot;DownCallButton&quot;);" xlink:title="class DownCallButton
">
<polygon fill="none" stroke="black" points="237.5,-259.5 237.5,-295.5 349.5,-295.5 349.5,-259.5 237.5,-259.5"/>
<text text-anchor="middle" x="293.5" y="-273.8" font-family="Times,serif" font-size="14.00">DownCallButton</text>
</a>
</g>
</g>
<!-- Elevator&#45;&gt;DownCallButton -->
<g id="edge8" class="edge"><title>Elevator&#45;&gt;DownCallButton</title>
<g id="a_edge8"><a xlink:title="Elevator 1..* &#160;&#45;&#45; * &#160;DownCallButton">
<path fill="none" stroke="black" d="M293.5,-222.513C293.5,-235.307 293.5,-249.029 293.5,-259.437"/>
</a>
</g>
<text text-anchor="middle" x="288" y="-248.237" font-family="Times,serif" font-size="14.00">* </text>
<text text-anchor="middle" x="281" y="-226.313" font-family="Times,serif" font-size="14.00">1..* </text>
</g>
<!-- ConsoleCallButton -->
<g id="node11" class="node"><title>ConsoleCallButton</title>
<g id="a_node11"><a xlink:href="javascript:Action.selectClass(&quot;ConsoleCallButton&quot;);" xlink:title="class ConsoleCallButton
">
<polygon fill="none" stroke="black" points="487.5,-259.5 487.5,-295.5 611.5,-295.5 611.5,-259.5 487.5,-259.5"/>
<text text-anchor="middle" x="549.5" y="-273.8" font-family="Times,serif" font-size="14.00">ConsoleCallButton</text>
</a>
</g>
</g>
<!-- Elevator&#45;&gt;ConsoleCallButton -->
<g id="edge7" class="edge"><title>Elevator&#45;&gt;ConsoleCallButton</title>
<g id="a_edge7"><a xlink:title="Elevator 1 &#160;&#45;&#45; * &#160;ConsoleCallButton">
<path fill="none" stroke="black" d="M387.009,-218.739C425.859,-232.549 469.29,-247.988 501.47,-259.427"/>
</a>
</g>
<text text-anchor="middle" x="495.97" y="-248.227" font-family="Times,serif" font-size="14.00">* </text>
<text text-anchor="middle" x="392.509" y="-207.539" font-family="Times,serif" font-size="14.00">1 </text>
</g>
<!-- Floor -->
<g id="node2" class="node"><title>Floor</title>
<g id="a_node2"><a xlink:href="javascript:Action.selectClass(&quot;Floor&quot;);" xlink:title="class Floor
">
<polygon fill="none" stroke="black" points="409.5,-73.5 409.5,-109.5 463.5,-109.5 463.5,-73.5 409.5,-73.5"/>
<text text-anchor="middle" x="436.5" y="-87.8" font-family="Times,serif" font-size="14.00">Floor</text>
</a>
</g>
</g>
<!-- Floor&#45;&gt;Elevator -->
<g id="edge11" class="edge"><title>Floor&#45;&gt;Elevator</title>
<g id="a_edge11"><a xlink:title="Floor * &#160;&#45;&#45; * &#160;Elevator">
<path fill="none" stroke="black" d="M351.673,-146.481 371.741,-133.711 393.26,-120.016 409.603,-109.616"/>
</a>
</g>
<text text-anchor="middle" x="346.173" y="-135.281" font-family="Times,serif" font-size="14.00">* </text>
<text text-anchor="middle" x="404.103" y="-113.416" font-family="Times,serif" font-size="14.00">* </text>
</g>
<!-- Floor&#45;&gt;ConsoleCallButton -->
<g id="edge10" class="edge"><title>Floor&#45;&gt;ConsoleCallButton</title>
<g id="a_edge10"><a xlink:title="Floor 1 &#160;&#45;&#45; * &#160;ConsoleCallButton">
<path fill="none" stroke="black" d="M447.131,-109.81C468.723,-144.969 517.481,-224.363 538.98,-259.37"/>
</a>
</g>
<text text-anchor="middle" x="533.48" y="-248.17" font-family="Times,serif" font-size="14.00">* </text>
<text text-anchor="middle" x="441.631" y="-113.61" font-family="Times,serif" font-size="14.00">1 </text>
</g>
<!-- FullSystem -->
<g id="node3" class="node"><title>FullSystem</title>
<g id="a_node3"><a xlink:href="javascript:Action.selectClass(&quot;FullSystem&quot;);" xlink:title="class FullSystem
">
<polygon fill="none" stroke="black" points="265.5,-73.5 265.5,-109.5 345.5,-109.5 345.5,-73.5 265.5,-73.5"/>
<text text-anchor="middle" x="305.5" y="-87.8" font-family="Times,serif" font-size="14.00">FullSystem</text>
</a>
</g>
</g>
<!-- FullSystem&#45;&gt;Elevator -->
<g id="edge12" class="edge"><title>FullSystem&#45;&gt;Elevator</title>
<g id="a_edge12"><a xlink:title="FullSystem 1 &#160;&#45;&#45; * &#160;Elevator">
<path fill="none" stroke="black" d="M298.382,-146.481 300.066,-133.711 301.871,-120.016 303.243,-109.616"/>
</a>
</g>
<text text-anchor="middle" x="292.882" y="-135.281" font-family="Times,serif" font-size="14.00">* </text>
<text text-anchor="middle" x="297.743" y="-113.416" font-family="Times,serif" font-size="14.00">1 </text>
</g>
<!-- FloorNumberDisplay -->
<g id="node4" class="node"><title>FloorNumberDisplay</title>
<g id="a_node4"><a xlink:href="javascript:Action.selectClass(&quot;FloorNumberDisplay&quot;);" xlink:title="class FloorNumberDisplay
">
<polygon fill="none" stroke="black" points="368.5,-0.5 368.5,-36.5 504.5,-36.5 504.5,-0.5 368.5,-0.5"/>
<text text-anchor="middle" x="436.5" y="-14.8" font-family="Times,serif" font-size="14.00">FloorNumberDisplay</text>
</a>
</g>
</g>
<!-- FloorNumberDisplay&#45;&gt;Floor -->
<g id="edge13" class="edge"><title>FloorNumberDisplay&#45;&gt;Floor</title>
<g id="a_edge13"><a xlink:title="FloorNumberDisplay 0..1 &#160;&#45;&#45; 1 &#160;Floor">
<path fill="none" stroke="black" d="M436.5,-36.6871C436.5,-47.8501 436.5,-62.3398 436.5,-73.4712"/>
</a>
</g>
<text text-anchor="middle" x="431" y="-62.2712" font-family="Times,serif" font-size="14.00">1 </text>
<text text-anchor="middle" x="424" y="-40.4871" font-family="Times,serif" font-size="14.00">0..1 </text>
</g>
<!-- Button -->
<g id="node5" class="node"><title>Button</title>
<g id="a_node5"><a xlink:href="javascript:Action.selectClass(&quot;Button&quot;);" xlink:title="class Button
">
<polygon fill="none" stroke="black" points="174,-332.5 174,-378.5 291,-378.5 291,-332.5 174,-332.5"/>
<text text-anchor="middle" x="232.5" y="-363.3" font-family="Times,serif" font-size="14.00">Button</text>
<polyline fill="none" stroke="black" points="174,-355.5 291,-355.5 "/>
<text text-anchor="start" x="182" y="-340.3" font-family="Times,serif" font-size="14.00">lightOn : Boolean</text>
</a>
</g>
</g>
<!-- CloseDoorButton -->
<g id="node6" class="node"><title>CloseDoorButton</title>
<g id="a_node6"><a xlink:href="javascript:Action.selectClass(&quot;CloseDoorButton&quot;);" xlink:title="class CloseDoorButton
">
<polygon fill="none" stroke="black" points="0,-73.5 0,-109.5 115,-109.5 115,-73.5 0,-73.5"/>
<text text-anchor="middle" x="57.5" y="-87.8" font-family="Times,serif" font-size="14.00">CloseDoorButton</text>
</a>
</g>
</g>
<!-- CloseDoorButton&#45;&gt;Elevator -->
<g id="edge14" class="edge"><title>CloseDoorButton&#45;&gt;Elevator</title>
<g id="a_edge14"><a xlink:title="CloseDoorButton 1 &#160;&#45;&#45; 1 &#160;Elevator">
<path fill="none" stroke="black" d="M101.613,-109.51C129.229,-120.158 165.88,-134.291 199.747,-147.349"/>
</a>
</g>
<text text-anchor="middle" x="194.247" y="-136.149" font-family="Times,serif" font-size="14.00">1 </text>
<text text-anchor="middle" x="96.1129" y="-113.31" font-family="Times,serif" font-size="14.00">1 </text>
</g>
<!-- CloseDoorButton&#45;&gt;Button -->
<g id="edge1" class="edge"><title>CloseDoorButton&#45;&gt;Button</title>
<path fill="none" stroke="black" d="M55.2341,-109.641C51.1433,-148.399 47.067,-243.479 96.5,-296 132.676,-334.435 203.227,-334.648 229.406,-333.265"/>
<polygon fill="none" stroke="black" points="229.793,-336.746 239.5,-332.5 229.264,-329.766 229.793,-336.746"/>
</g>
<!-- OpenDoorButton -->
<g id="node7" class="node"><title>OpenDoorButton</title>
<g id="a_node7"><a xlink:href="javascript:Action.selectClass(&quot;OpenDoorButton&quot;);" xlink:title="class OpenDoorButton
">
<polygon fill="none" stroke="black" points="133.5,-73.5 133.5,-109.5 247.5,-109.5 247.5,-73.5 133.5,-73.5"/>
<text text-anchor="middle" x="190.5" y="-87.8" font-family="Times,serif" font-size="14.00">OpenDoorButton</text>
</a>
</g>
</g>
<!-- OpenDoorButton&#45;&gt;Elevator -->
<g id="edge15" class="edge"><title>OpenDoorButton&#45;&gt;Elevator</title>
<g id="a_edge15"><a xlink:title="OpenDoorButton 1 &#160;&#45;&#45; 1 &#160;Elevator">
<path fill="none" stroke="black" d="M209.874,-109.616C221.645,-120.016 237.145,-133.711 251.599,-146.481"/>
</a>
</g>
<text text-anchor="middle" x="246.099" y="-135.281" font-family="Times,serif" font-size="14.00">1 </text>
<text text-anchor="middle" x="204.374" y="-113.416" font-family="Times,serif" font-size="14.00">1 </text>
</g>
<!-- OpenDoorButton&#45;&gt;Button -->
<g id="edge2" class="edge"><title>OpenDoorButton&#45;&gt;Button</title>
<path fill="none" stroke="black" d="M173.923,-109.622C140.02,-146.743 69.5927,-236.104 114.5,-296 142.03,-332.719 204.499,-334.155 229.185,-333.176"/>
<polygon fill="none" stroke="black" points="229.75,-336.647 239.5,-332.5 229.292,-329.662 229.75,-336.647"/>
</g>
<!-- UpCallButton&#45;&gt;Button -->
<g id="edge3" class="edge"><title>UpCallButton&#45;&gt;Button</title>
<path fill="none" stroke="black" d="M193.016,-295.586C206.089,-305.968 222.023,-318.621 231.432,-326.093"/>
<polygon fill="none" stroke="black" points="229.492,-329.022 239.5,-332.5 233.845,-323.54 229.492,-329.022"/>
</g>
<!-- DownCallButton&#45;&gt;Button -->
<g id="edge4" class="edge"><title>DownCallButton&#45;&gt;Button</title>
<path fill="none" stroke="black" d="M246.727,-325.273 254.28,-317.72 266.403,-305.597 276.414,-295.586"/>
<polygon fill="none" stroke="black" points="244.096,-322.954 239.5,-332.5 249.046,-327.904 244.096,-322.954"/>
</g>
<!-- StopCallbutton -->
<g id="node10" class="node"><title>StopCallbutton</title>
<g id="a_node10"><a xlink:href="javascript:Action.selectClass(&quot;StopCallbutton&quot;);" xlink:title="class StopCallbutton
">
<polygon fill="none" stroke="black" points="368,-259.5 368,-295.5 469,-295.5 469,-259.5 368,-259.5"/>
<text text-anchor="middle" x="418.5" y="-273.8" font-family="Times,serif" font-size="14.00">StopCallbutton</text>
</a>
</g>
</g>
<!-- StopCallbutton&#45;&gt;Button -->
<g id="edge5" class="edge"><title>StopCallbutton&#45;&gt;Button</title>
<path fill="none" stroke="black" d="M249.283,-329.549 271.359,-322.889 326.341,-306.302 367.685,-293.83"/>
<polygon fill="none" stroke="black" points="248.063,-326.261 239.5,-332.5 250.085,-332.963 248.063,-326.261"/>
</g>
<!-- ConsoleCallButton&#45;&gt;Button -->
<g id="edge6" class="edge"><title>ConsoleCallButton&#45;&gt;Button</title>
<path fill="none" stroke="black" d="M249.575,-331.292 282.583,-327.263 390.406,-313.546 478.5,-296 481.364,-295.43 484.286,-294.82 487.233,-294.184"/>
<polygon fill="none" stroke="black" points="249.012,-327.834 239.5,-332.5 249.846,-334.784 249.012,-327.834"/>
</g>
</g>
</svg>
