<?xml version="1.0" encoding="UTF-8" standalone="no"?>
<!DOCTYPE svg PUBLIC "-//W3C//DTD SVG 1.1//EN"
 "http://www.w3.org/Graphics/SVG/1.1/DTD/svg11.dtd">
<!-- Generated by graphviz version 2.29.20121108.1600 (20121108.1600)
 -->
<!-- Title: ElevatorSystemA Pages: 1 -->
<svg width="268pt" height="284pt"
 viewBox="0.00 0.00 268.46 284.00" xmlns="http://www.w3.org/2000/svg" xmlns:xlink="http://www.w3.org/1999/xlink">
<g id="graph0" class="graph" transform="scale(1 1) rotate(0) translate(4 280)">
<title>ElevatorSystemA</title>
<polygon fill="white" stroke="white" points="-4,5 -4,-280 265.459,-280 265.459,5 -4,5"/>
<!-- Building -->
<g id="node1" class="node"><title>Building</title>
<g id="a_node1"><a xlink:href="javascript:Action.selectClass(&quot;Building&quot;);" xlink:title="class Building
">
<polygon fill="none" stroke="black" points="105.283,-1.2 105.283,-50.8 196.717,-50.8 196.717,-1.2 105.283,-1.2"/>
<text text-anchor="middle" x="151" y="-32.8" font-family="Times,serif" font-size="14.00">Building</text>
<polyline fill="none" stroke="black" points="105.283,-26 196.717,-26 "/>
<text text-anchor="start" x="113.283" y="-8" font-family="Times,serif" font-size="14.00">name : String</text>
</a>
</g>
</g>
<!-- Floor -->
<g id="node3" class="node"><title>Floor</title>
<g id="a_node3"><a xlink:href="javascript:Action.selectClass(&quot;Floor&quot;);" xlink:title="class Floor
">
<polygon fill="none" stroke="black" points="16.1611,-88.8 16.1611,-155.2 147.839,-155.2 147.839,-88.8 16.1611,-88.8"/>
<text text-anchor="middle" x="82" y="-137.2" font-family="Times,serif" font-size="14.00">Floor</text>
<polyline fill="none" stroke="black" points="16.1611,-130.4 147.839,-130.4 "/>
<text text-anchor="start" x="24.1611" y="-112.4" font-family="Times,serif" font-size="14.00">id : String</text>
<text text-anchor="start" x="24.1611" y="-95.6" font-family="Times,serif" font-size="14.00">doorToOpen : String</text>
</a>
</g>
</g>
<!-- Building&#45;&gt;Floor -->
<g id="edge1" class="edge"><title>Building&#45;&gt;Floor</title>
<path fill="none" stroke="black" d="M133.231,-51.2073C124.845,-62.6308 114.72,-76.4246 105.693,-88.7225"/>
<text text-anchor="middle" x="93.4431" y="-74.7225" font-family="Times,serif" font-size="14.00">2..* </text>
<text text-anchor="middle" x="127.981" y="-54.0073" font-family="Times,serif" font-size="14.00">1 </text>
</g>
<!-- Bank -->
<g id="node2" class="node"><title>Bank</title>
<g id="a_node2"><a xlink:href="javascript:Action.selectClass(&quot;Bank&quot;);" xlink:title="class Bank
">
<polygon fill="none" stroke="black" points="183.997,-97.2 183.997,-146.8 256.003,-146.8 256.003,-97.2 183.997,-97.2"/>
<text text-anchor="middle" x="220" y="-128.8" font-family="Times,serif" font-size="14.00">Bank</text>
<polyline fill="none" stroke="black" points="183.997,-122 256.003,-122 "/>
<text text-anchor="start" x="191.997" y="-104" font-family="Times,serif" font-size="14.00">id : String</text>
</a>
</g>
</g>
<!-- Building&#45;&gt;Bank -->
<g id="edge2" class="edge"><title>Building&#45;&gt;Bank</title>
<path fill="none" stroke="black" d="M168.769,-51.2073C179.071,-65.2419 191.999,-82.8541 202.291,-96.8747"/>
<text text-anchor="middle" x="190.041" y="-82.8747" font-family="Times,serif" font-size="14.00">1..* </text>
<text text-anchor="middle" x="163.519" y="-54.0073" font-family="Times,serif" font-size="14.00">1 </text>
</g>
<!-- Elevator -->
<g id="node4" class="node"><title>Elevator</title>
<g id="a_node4"><a xlink:href="javascript:Action.selectClass(&quot;Elevator&quot;);" xlink:title="class Elevator
Temporarely taken out because of lack of Association Class implementations in Umple 2.0
ordered
association BankOnFloor{ 
 Boolean upCall;
 Boolean downCall;
 0..* Bank; 
 2..* Floor;
}
Positioning
">
<polygon fill="none" stroke="black" points="-0.279297,-192.4 -0.279297,-275.6 164.279,-275.6 164.279,-192.4 -0.279297,-192.4"/>
<text text-anchor="middle" x="82" y="-257.6" font-family="Times,serif" font-size="14.00">Elevator</text>
<polyline fill="none" stroke="black" points="-0.279297,-250.8 164.279,-250.8 "/>
<text text-anchor="start" x="7.7207" y="-232.8" font-family="Times,serif" font-size="14.00">id : String</text>
<text text-anchor="start" x="7.7207" y="-216" font-family="Times,serif" font-size="14.00">direction : String</text>
<text text-anchor="start" x="7.7207" y="-199.2" font-family="Times,serif" font-size="14.00">movingOrStopped : String</text>
</a>
</g>
</g>
<!-- Bank&#45;&gt;Elevator -->
<g id="edge3" class="edge"><title>Bank&#45;&gt;Elevator</title>
<path fill="none" stroke="black" d="M190.056,-146.868C173.409,-160.138 152.24,-177.012 133.058,-192.301"/>
<text text-anchor="middle" x="145.308" y="-178.301" font-family="Times,serif" font-size="14.00">1..* </text>
<text text-anchor="middle" x="184.806" y="-149.668" font-family="Times,serif" font-size="14.00">1 </text>
</g>
<!-- Floor&#45;&gt;Floor -->
<g id="edge4" class="edge"><title>Floor&#45;&gt;Floor</title>
<path fill="none" stroke="black" d="M148.09,-105.586C158.161,-108.091 165,-113.562 165,-122 165,-130.438 158.161,-135.909 148.09,-138.414"/>
<text text-anchor="middle" x="204.274" y="-124.414" font-family="Times,serif" font-size="14.00">0..1 onSamelevelAs</text>
<text text-anchor="middle" x="160.34" y="-91.5864" font-family="Times,serif" font-size="14.00">0..1 </text>
</g>
<!-- Floor&#45;&gt;Elevator -->
<g id="edge5" class="edge"><title>Floor&#45;&gt;Elevator</title>
<path fill="none" stroke="black" d="M75.7839,-155.409C75.2075,-166.943 75.0978,-180.081 75.4548,-192.226"/>
<text text-anchor="middle" x="102.874" y="-178.226" font-family="Times,serif" font-size="14.00">* onFloor</text>
<text text-anchor="middle" x="70.5339" y="-158.209" font-family="Times,serif" font-size="14.00">1 </text>
</g>
<!-- Elevator&#45;&gt;Floor -->
<g id="edge6" class="edge"><title>Elevator&#45;&gt;Floor</title>
<path fill="none" stroke="black" d="M88.5452,-192.226C88.9022,-180.081 88.7925,-166.943 88.2161,-155.409"/>
<text text-anchor="middle" x="122.621" y="-158.209" font-family="Times,serif" font-size="14.00">* hasAccess</text>
<text text-anchor="middle" x="83.2952" y="-195.026" font-family="Times,serif" font-size="14.00">* </text>
</g>
</g>
</svg>
