<?xml version="1.0" encoding="UTF-8" standalone="no"?>
<!DOCTYPE svg PUBLIC "-//W3C//DTD SVG 1.1//EN"
 "http://www.w3.org/Graphics/SVG/1.1/DTD/svg11.dtd">
<!-- Generated by graphviz version 2.40.1 (20161225.0304)
 -->
<!-- Title: ElevatorSystemB Pages: 1 -->
<svg width="768pt" height="380pt"
 viewBox="0.00 0.00 767.50 380.00" xmlns="http://www.w3.org/2000/svg" xmlns:xlink="http://www.w3.org/1999/xlink">
<g id="graph0" class="graph" transform="scale(1 1) rotate(0) translate(4 376)">
<title>ElevatorSystemB</title>
<polygon fill="#ffffff" stroke="transparent" points="-4,4 -4,-376 763.5,-376 763.5,4 -4,4"/>
<!-- Elevator -->
<g id="node1" class="node">
<title>Elevator</title>
<g id="a_node1"><a xlink:href="javascript:Action.selectClass(&quot;Elevator&quot;);" xlink:title="class Elevator&#10;">
<text text-anchor="start" x="321.2896" y="-205.8" font-family="Times,serif" font-size="14.00" fill="#000000"> &#160;&#160;&#160;Elevator &#160;&#160;&#160;</text>
<g id="a_node1_0"><a xlink:href="javascript:Action.selectClass(&quot;Elevator&quot;);" xlink:title="String identifier&#13;">
<text text-anchor="start" x="267" y="-185.8" font-family="Times,serif" font-size="14.00" fill="#000000"> &#160;identifier : String &#160;</text>
</a>
</g>
<g id="a_node1_1"><a xlink:href="javascript:Action.selectClass(&quot;Elevator&quot;);" xlink:title="String state&#13;">
<text text-anchor="start" x="267" y="-167.8" font-family="Times,serif" font-size="14.00" fill="#000000"> &#160;state : String &#160;</text>
</a>
</g>
<g id="a_node1_2"><a xlink:href="javascript:Action.selectClass(&quot;Elevator&quot;);" xlink:title="String directionOfMovement&#13;">
<text text-anchor="start" x="266.8481" y="-149.8" font-family="Times,serif" font-size="14.00" fill="#000000"> &#160;directionOfMovement : String &#160;</text>
</a>
</g>
<polygon fill="#000000" stroke="#000000" points="264,-199 264,-199 454,-199 454,-199 264,-199"/>
<polygon fill="none" stroke="#000000" points="264,-144 264,-222 454,-222 454,-144 264,-144"/>
</a>
</g>
</g>
<!-- UpCallButton -->
<g id="node8" class="node">
<title>UpCallButton</title>
<g id="a_node8"><a xlink:href="javascript:Action.selectClass(&quot;UpCallButton&quot;);" xlink:title="class UpCallButton&#10;">
<text text-anchor="start" x="150.7207" y="-271.8" font-family="Times,serif" font-size="14.00" fill="#000000"> &#160;&#160;&#160;UpCallButton &#160;&#160;&#160;</text>
<polygon fill="none" stroke="#000000" points="140,-258 140,-294 268,-294 268,-258 140,-258"/>
</a>
</g>
</g>
<!-- Elevator&#45;&gt;UpCallButton -->
<g id="edge9" class="edge">
<title>Elevator&#45;&gt;UpCallButton</title>
<g id="a_edge9"><a xlink:title="Elevator 1..* &#160;&#45;&#45; * &#160;UpCallButton">
<path fill="none" stroke="#000000" d="M293.7153,-222.1708C273.0315,-234.5811 251.1569,-247.7058 234.1858,-257.8885"/>
</a>
</g>
<text text-anchor="middle" x="228.9358" y="-246.6885" font-family="Times,serif" font-size="14.00" fill="#000000">* </text>
<text text-anchor="middle" x="281.4653" y="-224.9708" font-family="Times,serif" font-size="14.00" fill="#000000">1..* </text>
</g>
<!-- DownCallButton -->
<g id="node9" class="node">
<title>DownCallButton</title>
<g id="a_node9"><a xlink:href="javascript:Action.selectClass(&quot;DownCallButton&quot;);" xlink:title="class DownCallButton&#10;">
<text text-anchor="start" x="297.6655" y="-271.8" font-family="Times,serif" font-size="14.00" fill="#000000"> &#160;&#160;&#160;DownCallButton &#160;&#160;&#160;</text>
<polygon fill="none" stroke="#000000" points="286.5,-258 286.5,-294 431.5,-294 431.5,-258 286.5,-258"/>
</a>
</g>
</g>
<!-- Elevator&#45;&gt;DownCallButton -->
<g id="edge8" class="edge">
<title>Elevator&#45;&gt;DownCallButton</title>
<g id="a_edge8"><a xlink:title="Elevator 1..* &#160;&#45;&#45; * &#160;DownCallButton">
<path fill="none" stroke="#000000" d="M359,-222.1708C359,-234.4818 359,-247.4959 359,-257.6435"/>
</a>
</g>
<text text-anchor="middle" x="353.75" y="-246.4435" font-family="Times,serif" font-size="14.00" fill="#000000">* </text>
<text text-anchor="middle" x="346.75" y="-224.9708" font-family="Times,serif" font-size="14.00" fill="#000000">1..* </text>
</g>
<!-- ConsoleCallButton -->
<g id="node11" class="node">
<title>ConsoleCallButton</title>
<g id="a_node11"><a xlink:href="javascript:Action.selectClass(&quot;ConsoleCallButton&quot;);" xlink:title="class ConsoleCallButton&#10;">
<text text-anchor="start" x="613.8311" y="-271.8" font-family="Times,serif" font-size="14.00" fill="#000000"> &#160;&#160;&#160;ConsoleCallButton &#160;&#160;&#160;</text>
<polygon fill="none" stroke="#000000" points="602.5,-258 602.5,-294 759.5,-294 759.5,-258 602.5,-258"/>
</a>
</g>
</g>
<!-- Elevator&#45;&gt;ConsoleCallButton -->
<g id="edge7" class="edge">
<title>Elevator&#45;&gt;ConsoleCallButton</title>
<g id="a_edge7"><a xlink:title="Elevator 1 &#160;&#45;&#45; * &#160;ConsoleCallButton">
<path fill="none" stroke="#000000" d="M454.3037,-210.5256C507.3421,-225.8442 571.8621,-244.4788 618.4871,-257.945"/>
</a>
</g>
<text text-anchor="middle" x="613.2371" y="-246.745" font-family="Times,serif" font-size="14.00" fill="#000000">* </text>
<text text-anchor="middle" x="459.5537" y="-199.3256" font-family="Times,serif" font-size="14.00" fill="#000000">1 </text>
</g>
<!-- Floor -->
<g id="node2" class="node">
<title>Floor</title>
<g id="a_node2"><a xlink:href="javascript:Action.selectClass(&quot;Floor&quot;);" xlink:title="class Floor&#10;">
<text text-anchor="start" x="562.8311" y="-85.8" font-family="Times,serif" font-size="14.00" fill="#000000"> &#160;&#160;&#160;Floor &#160;&#160;&#160;</text>
<polygon fill="none" stroke="#000000" points="552,-72 552,-108 632,-108 632,-72 552,-72"/>
</a>
</g>
</g>
<!-- Floor&#45;&gt;Elevator -->
<g id="edge11" class="edge">
<title>Floor&#45;&gt;Elevator</title>
<g id="a_edge11"><a xlink:title="Floor * &#160;&#45;&#45; * &#160;Elevator">
<path fill="none" stroke="#000000" d="M551.9459,-105.9873C525.0124,-116.7376 488.319,-131.3834 454.1599,-145.0177"/>
</a>
</g>
<text text-anchor="middle" x="459.4099" y="-133.8177" font-family="Times,serif" font-size="14.00" fill="#000000">* </text>
<text text-anchor="middle" x="546.6959" y="-94.7873" font-family="Times,serif" font-size="14.00" fill="#000000">* </text>
</g>
<!-- Floor&#45;&gt;ConsoleCallButton -->
<g id="edge10" class="edge">
<title>Floor&#45;&gt;ConsoleCallButton</title>
<g id="a_edge10"><a xlink:title="Floor 1 &#160;&#45;&#45; * &#160;ConsoleCallButton">
<path fill="none" stroke="#000000" d="M600.6957,-108.1731C617.7105,-143.732 655.2259,-222.1351 672.269,-257.7531"/>
</a>
</g>
<text text-anchor="middle" x="667.019" y="-246.5531" font-family="Times,serif" font-size="14.00" fill="#000000">* </text>
<text text-anchor="middle" x="595.4457" y="-110.9731" font-family="Times,serif" font-size="14.00" fill="#000000">1 </text>
</g>
<!-- FullSystem -->
<g id="node3" class="node">
<title>FullSystem</title>
<g id="a_node3"><a xlink:href="javascript:Action.selectClass(&quot;FullSystem&quot;);" xlink:title="class FullSystem&#10;">
<text text-anchor="start" x="342.6035" y="-85.8" font-family="Times,serif" font-size="14.00" fill="#000000"> &#160;&#160;&#160;FullSystem &#160;&#160;&#160;</text>
<polygon fill="none" stroke="#000000" points="331.5,-72 331.5,-108 444.5,-108 444.5,-72 331.5,-72"/>
</a>
</g>
</g>
<!-- FullSystem&#45;&gt;Elevator -->
<g id="edge12" class="edge">
<title>FullSystem&#45;&gt;Elevator</title>
<g id="a_edge12"><a xlink:title="FullSystem 1 &#160;&#45;&#45; * &#160;Elevator">
<path fill="none" stroke="#000000" d="M382.2705,-108.3738C379.1012,-118.5374 375.0365,-131.5727 371.1936,-143.8965"/>
</a>
</g>
<text text-anchor="middle" x="365.9436" y="-132.6965" font-family="Times,serif" font-size="14.00" fill="#000000">* </text>
<text text-anchor="middle" x="377.0205" y="-111.1738" font-family="Times,serif" font-size="14.00" fill="#000000">1 </text>
</g>
<!-- FloorNumberDisplay -->
<g id="node4" class="node">
<title>FloorNumberDisplay</title>
<g id="a_node4"><a xlink:href="javascript:Action.selectClass(&quot;FloorNumberDisplay&quot;);" xlink:title="class FloorNumberDisplay&#10;">
<text text-anchor="start" x="518.6172" y="-13.8" font-family="Times,serif" font-size="14.00" fill="#000000"> &#160;&#160;&#160;FloorNumberDisplay &#160;&#160;&#160;</text>
<polygon fill="none" stroke="#000000" points="507.5,0 507.5,-36 676.5,-36 676.5,0 507.5,0"/>
</a>
</g>
</g>
<!-- FloorNumberDisplay&#45;&gt;Floor -->
<g id="edge13" class="edge">
<title>FloorNumberDisplay&#45;&gt;Floor</title>
<g id="a_edge13"><a xlink:title="FloorNumberDisplay 0..1 &#160;&#45;&#45; 1 &#160;Floor">
<path fill="none" stroke="#000000" d="M592,-36.1686C592,-47 592,-60.7124 592,-71.5867"/>
</a>
</g>
<text text-anchor="middle" x="586.75" y="-60.3867" font-family="Times,serif" font-size="14.00" fill="#000000">1 </text>
<text text-anchor="middle" x="579.75" y="-38.9686" font-family="Times,serif" font-size="14.00" fill="#000000">0..1 </text>
</g>
<!-- Button -->
<g id="node5" class="node">
<title>Button</title>
<g id="a_node5"><a xlink:href="javascript:Action.selectClass(&quot;Button&quot;);" xlink:title="class Button&#10;">
<text text-anchor="start" x="247.9414" y="-355.8" font-family="Times,serif" font-size="14.00" fill="#000000"> &#160;&#160;&#160;Button &#160;&#160;&#160;</text>
<g id="a_node5_3"><a xlink:href="javascript:Action.selectClass(&quot;Button&quot;);" xlink:title="Boolean lightOn&#13;">
<text text-anchor="start" x="223.8379" y="-335.8" font-family="Times,serif" font-size="14.00" fill="#000000"> &#160;lightOn : Boolean &#160;</text>
</a>
</g>
<polygon fill="#000000" stroke="#000000" points="221,-349 221,-349 341,-349 341,-349 221,-349"/>
<polygon fill="none" stroke="#000000" points="221,-330 221,-372 341,-372 341,-330 221,-330"/>
</a>
</g>
</g>
<!-- CloseDoorButton -->
<g id="node6" class="node">
<title>CloseDoorButton</title>
<g id="a_node6"><a xlink:href="javascript:Action.selectClass(&quot;CloseDoorButton&quot;);" xlink:title="class CloseDoorButton&#10;">
<text text-anchor="start" x="10.6104" y="-85.8" font-family="Times,serif" font-size="14.00" fill="#000000"> &#160;&#160;&#160;CloseDoorButton &#160;&#160;&#160;</text>
<polygon fill="none" stroke="#000000" points="0,-72 0,-108 148,-108 148,-72 0,-72"/>
</a>
</g>
</g>
<!-- CloseDoorButton&#45;&gt;Elevator -->
<g id="edge14" class="edge">
<title>CloseDoorButton&#45;&gt;Elevator</title>
<g id="a_edge14"><a xlink:title="CloseDoorButton 1 &#160;&#45;&#45; 1 &#160;Elevator">
<path fill="none" stroke="#000000" d="M129.2888,-108.0416C167.4102,-120.4812 219.0615,-137.3359 263.7312,-151.9123"/>
</a>
</g>
<text text-anchor="middle" x="258.4812" y="-140.7123" font-family="Times,serif" font-size="14.00" fill="#000000">1 </text>
<text text-anchor="middle" x="124.0388" y="-110.8416" font-family="Times,serif" font-size="14.00" fill="#000000">1 </text>
</g>
<!-- CloseDoorButton&#45;&gt;Button -->
<g id="edge1" class="edge">
<title>CloseDoorButton&#45;&gt;Button</title>
<path fill="none" stroke="#000000" d="M71.5522,-108.2444C67.332,-147.9977 63.4794,-242.9514 114,-294 137.3267,-317.5704 244.2006,-326.9421 277.8353,-329.3393"/>
<polygon fill="none" stroke="#000000" points="277.794,-332.8439 288,-330 278.2481,-325.8587 277.794,-332.8439"/>
</g>
<!-- OpenDoorButton -->
<g id="node7" class="node">
<title>OpenDoorButton</title>
<g id="a_node7"><a xlink:href="javascript:Action.selectClass(&quot;OpenDoorButton&quot;);" xlink:title="class OpenDoorButton&#10;">
<text text-anchor="start" x="177.8931" y="-85.8" font-family="Times,serif" font-size="14.00" fill="#000000"> &#160;&#160;&#160;OpenDoorButton &#160;&#160;&#160;</text>
<polygon fill="none" stroke="#000000" points="166.5,-72 166.5,-108 313.5,-108 313.5,-72 166.5,-72"/>
</a>
</g>
</g>
<!-- OpenDoorButton&#45;&gt;Elevator -->
<g id="edge15" class="edge">
<title>OpenDoorButton&#45;&gt;Elevator</title>
<g id="a_edge15"><a xlink:title="OpenDoorButton 1 &#160;&#45;&#45; 1 &#160;Elevator">
<path fill="none" stroke="#000000" d="M263.2269,-108.1521C276.2136,-118.3014 292.9283,-131.3642 308.7489,-143.7281"/>
</a>
</g>
<text text-anchor="middle" x="303.4989" y="-132.5281" font-family="Times,serif" font-size="14.00" fill="#000000">1 </text>
<text text-anchor="middle" x="257.9769" y="-110.9521" font-family="Times,serif" font-size="14.00" fill="#000000">1 </text>
</g>
<!-- OpenDoorButton&#45;&gt;Button -->
<g id="edge2" class="edge">
<title>OpenDoorButton&#45;&gt;Button</title>
<path fill="none" stroke="#000000" d="M216.7624,-108.2209C171.9061,-145.5636 81.9596,-232.4419 131,-294 149.5571,-317.2938 245.9214,-326.7472 277.7702,-329.2657"/>
<polygon fill="none" stroke="#000000" points="277.7751,-332.775 288,-330 278.2763,-325.793 277.7751,-332.775"/>
</g>
<!-- UpCallButton&#45;&gt;Button -->
<g id="edge3" class="edge">
<title>UpCallButton&#45;&gt;Button</title>
<path fill="none" stroke="#000000" d="M232.4386,-294.2819C248.8115,-304.8074 268.2646,-317.313 279.2679,-324.3865"/>
<polygon fill="none" stroke="#000000" points="277.6955,-327.5365 288,-330 281.4809,-321.6482 277.6955,-327.5365"/>
</g>
<!-- DownCallButton&#45;&gt;Button -->
<g id="edge4" class="edge">
<title>DownCallButton&#45;&gt;Button</title>
<path fill="none" stroke="#000000" d="M334.9626,-294.2819C321.4454,-304.5626 305.4444,-316.7324 296.041,-323.8843"/>
<polygon fill="none" stroke="#000000" points="293.8407,-321.1605 288,-330 298.0783,-326.7321 293.8407,-321.1605"/>
</g>
<!-- StopCallbutton -->
<g id="node10" class="node">
<title>StopCallbutton</title>
<g id="a_node10"><a xlink:href="javascript:Action.selectClass(&quot;StopCallbutton&quot;);" xlink:title="class StopCallbutton&#10;">
<text text-anchor="start" x="460.6069" y="-271.8" font-family="Times,serif" font-size="14.00" fill="#000000"> &#160;&#160;&#160;StopCallbutton &#160;&#160;&#160;</text>
<polygon fill="none" stroke="#000000" points="450,-258 450,-294 584,-294 584,-258 450,-258"/>
</a>
</g>
</g>
<!-- StopCallbutton&#45;&gt;Button -->
<g id="edge5" class="edge">
<title>StopCallbutton&#45;&gt;Button</title>
<path fill="none" stroke="#000000" d="M449.8398,-291.8369C395.466,-304.6587 323.8052,-321.5569 297.8869,-327.6686"/>
<polygon fill="none" stroke="#000000" points="296.9297,-324.2982 288,-330 298.5364,-331.1114 296.9297,-324.2982"/>
</g>
<!-- ConsoleCallButton&#45;&gt;Button -->
<g id="edge6" class="edge">
<title>ConsoleCallButton&#45;&gt;Button</title>
<path fill="none" stroke="#000000" d="M602.3779,-292.4237C599.2143,-292.9761 596.0792,-293.5043 593,-294 477.716,-312.5602 336.4685,-325.7108 298.0474,-329.1245"/>
<polygon fill="none" stroke="#000000" points="297.6584,-325.645 288,-330 298.2661,-332.6186 297.6584,-325.645"/>
</g>
</g>
</svg>
