<?xml version="1.0" encoding="UTF-8" standalone="no"?>
<!DOCTYPE svg PUBLIC "-//W3C//DTD SVG 1.1//EN"
 "http://www.w3.org/Graphics/SVG/1.1/DTD/svg11.dtd">
<!-- Generated by graphviz version 2.29.20121108.1600 (20121108.1600)
 -->
<!-- Title: ElevatorSystemB Pages: 1 -->
<svg width="614pt" height="402pt"
 viewBox="0.00 0.00 614.00 402.00" xmlns="http://www.w3.org/2000/svg" xmlns:xlink="http://www.w3.org/1999/xlink">
<g id="graph0" class="graph" transform="scale(1 1) rotate(0) translate(4 398)">
<title>ElevatorSystemB</title>
<polygon fill="white" stroke="white" points="-4,5 -4,-398 611,-398 611,5 -4,5"/>
<!-- Elevator -->
<g id="node1" class="node"><title>Elevator</title>
<g id="a_node1"><a xlink:href="javascript:Action.selectClass(&quot;Elevator&quot;);" xlink:title="class Elevator
Positioning
">
<polygon fill="none" stroke="black" points="197.848,-148.4 197.848,-231.6 384.152,-231.6 384.152,-148.4 197.848,-148.4"/>
<text text-anchor="middle" x="291" y="-213.6" font-family="Times,serif" font-size="14.00">Elevator</text>
<polyline fill="none" stroke="black" points="197.848,-206.8 384.152,-206.8 "/>
<text text-anchor="start" x="205.848" y="-188.8" font-family="Times,serif" font-size="14.00">identifier : String</text>
<text text-anchor="start" x="205.848" y="-172" font-family="Times,serif" font-size="14.00">state : String</text>
<text text-anchor="start" x="205.848" y="-155.2" font-family="Times,serif" font-size="14.00">directionOfMovement : String</text>
</a>
</g>
</g>
<!-- ConsoleCallButton -->
<g id="node11" class="node"><title>ConsoleCallButton</title>
<g id="a_node11"><a xlink:href="javascript:Action.selectClass(&quot;ConsoleCallButton&quot;);" xlink:title="class ConsoleCallButton
">
<polygon fill="none" stroke="black" points="483.331,-269 483.331,-305 606.669,-305 606.669,-269 483.331,-269"/>
<text text-anchor="middle" x="545" y="-281.5" font-family="Times,serif" font-size="14.00">ConsoleCallButton</text>
</a>
</g>
</g>
<!-- Elevator&#45;&gt;ConsoleCallButton -->
<g id="edge7" class="edge"><title>Elevator&#45;&gt;ConsoleCallButton</title>
<path fill="none" stroke="black" d="M384.498,-225.97C423.68,-240.625 467.445,-256.993 499.365,-268.932"/>
<text text-anchor="middle" x="494.115" y="-254.932" font-family="Times,serif" font-size="14.00">* </text>
<text text-anchor="middle" x="389.748" y="-211.97" font-family="Times,serif" font-size="14.00">1 </text>
</g>
<!-- DownCallButton -->
<g id="node9" class="node"><title>DownCallButton</title>
<g id="a_node9"><a xlink:href="javascript:Action.selectClass(&quot;DownCallButton&quot;);" xlink:title="class DownCallButton
">
<polygon fill="none" stroke="black" points="235.166,-269 235.166,-305 346.834,-305 346.834,-269 235.166,-269"/>
<text text-anchor="middle" x="291" y="-281.5" font-family="Times,serif" font-size="14.00">DownCallButton</text>
</a>
</g>
</g>
<!-- Elevator&#45;&gt;DownCallButton -->
<g id="edge8" class="edge"><title>Elevator&#45;&gt;DownCallButton</title>
<path fill="none" stroke="black" d="M291,-231.84C291,-244.714 291,-258.254 291,-268.576"/>
<text text-anchor="middle" x="285.75" y="-254.576" font-family="Times,serif" font-size="14.00">* </text>
<text text-anchor="middle" x="278.75" y="-234.64" font-family="Times,serif" font-size="14.00">1..* </text>
</g>
<!-- UpCallButton -->
<g id="node8" class="node"><title>UpCallButton</title>
<g id="a_node8"><a xlink:href="javascript:Action.selectClass(&quot;UpCallButton&quot;);" xlink:title="class UpCallButton
">
<polygon fill="none" stroke="black" points="122.721,-269 122.721,-305 217.279,-305 217.279,-269 122.721,-269"/>
<text text-anchor="middle" x="170" y="-281.5" font-family="Times,serif" font-size="14.00">UpCallButton</text>
</a>
</g>
</g>
<!-- Elevator&#45;&gt;UpCallButton -->
<g id="edge9" class="edge"><title>Elevator&#45;&gt;UpCallButton</title>
<path fill="none" stroke="black" d="M238.983,-231.84C222.457,-244.815 205.07,-258.466 191.886,-268.817"/>
<text text-anchor="middle" x="186.636" y="-254.817" font-family="Times,serif" font-size="14.00">* </text>
<text text-anchor="middle" x="226.733" y="-234.64" font-family="Times,serif" font-size="14.00">1..* </text>
</g>
<!-- Floor -->
<g id="node2" class="node"><title>Floor</title>
<g id="a_node2"><a xlink:href="javascript:Action.selectClass(&quot;Floor&quot;);" xlink:title="class Floor
">
<polygon fill="none" stroke="black" points="406,-75 406,-111 460,-111 460,-75 406,-75"/>
<text text-anchor="middle" x="432.669" y="-87.5" font-family="Times,serif" font-size="14.00">Floor</text>
</a>
</g>
</g>
<!-- Floor&#45;&gt;ConsoleCallButton -->
<g id="edge10" class="edge"><title>Floor&#45;&gt;ConsoleCallButton</title>
<path fill="none" stroke="black" d="M442.939,-111.039C464.193,-147.474 513.849,-232.598 535.083,-268.999"/>
<text text-anchor="middle" x="529.833" y="-254.999" font-family="Times,serif" font-size="14.00">* </text>
<text text-anchor="middle" x="437.689" y="-113.839" font-family="Times,serif" font-size="14.00">1 </text>
</g>
<!-- Floor&#45;&gt;Elevator -->
<g id="edge11" class="edge"><title>Floor&#45;&gt;Elevator</title>
<path fill="none" stroke="black" d="M407.285,-111.204C391.78,-121.577 371.33,-135.258 351.908,-148.252"/>
<text text-anchor="middle" x="346.658" y="-134.252" font-family="Times,serif" font-size="14.00">* </text>
<text text-anchor="middle" x="402.035" y="-114.004" font-family="Times,serif" font-size="14.00">* </text>
</g>
<!-- FullSystem -->
<g id="node3" class="node"><title>FullSystem</title>
<g id="a_node3"><a xlink:href="javascript:Action.selectClass(&quot;FullSystem&quot;);" xlink:title="class FullSystem
">
<polygon fill="none" stroke="black" points="264.104,-75 264.104,-111 343.896,-111 343.896,-75 264.104,-75"/>
<text text-anchor="middle" x="304" y="-87.5" font-family="Times,serif" font-size="14.00">FullSystem</text>
</a>
</g>
</g>
<!-- FullSystem&#45;&gt;Elevator -->
<g id="edge12" class="edge"><title>FullSystem&#45;&gt;Elevator</title>
<path fill="none" stroke="black" d="M301.616,-111.424C300.208,-121.709 298.364,-135.189 296.607,-148.022"/>
<text text-anchor="middle" x="291.357" y="-134.022" font-family="Times,serif" font-size="14.00">* </text>
<text text-anchor="middle" x="296.366" y="-114.224" font-family="Times,serif" font-size="14.00">1 </text>
</g>
<!-- FloorNumberDisplay -->
<g id="node4" class="node"><title>FloorNumberDisplay</title>
<g id="a_node4"><a xlink:href="javascript:Action.selectClass(&quot;FloorNumberDisplay&quot;);" xlink:title="class FloorNumberDisplay
">
<polygon fill="none" stroke="black" points="365.117,-1 365.117,-37 500.883,-37 500.883,-1 365.117,-1"/>
<text text-anchor="middle" x="433" y="-13.5" font-family="Times,serif" font-size="14.00">FloorNumberDisplay</text>
</a>
</g>
</g>
<!-- FloorNumberDisplay&#45;&gt;Floor -->
<g id="edge13" class="edge"><title>FloorNumberDisplay&#45;&gt;Floor</title>
<path fill="none" stroke="black" d="M433,-37.063C433,-48.374 433,-63.1718 433,-74.5593"/>
<text text-anchor="middle" x="427.75" y="-60.5593" font-family="Times,serif" font-size="14.00">1 </text>
<text text-anchor="middle" x="420.75" y="-39.863" font-family="Times,serif" font-size="14.00">0..1 </text>
</g>
<!-- Button -->
<g id="node5" class="node"><title>Button</title>
<g id="a_node5"><a xlink:href="javascript:Action.selectClass(&quot;Button&quot;);" xlink:title="class Button
">
<polygon fill="none" stroke="black" points="171.838,-343.2 171.838,-392.8 288.162,-392.8 288.162,-343.2 171.838,-343.2"/>
<text text-anchor="middle" x="230" y="-374.8" font-family="Times,serif" font-size="14.00">Button</text>
<polyline fill="none" stroke="black" points="171.838,-368 288.162,-368 "/>
<text text-anchor="start" x="179.838" y="-350" font-family="Times,serif" font-size="14.00">lightOn : Boolean</text>
</a>
</g>
</g>
<!-- CloseDoorButton -->
<g id="node6" class="node"><title>CloseDoorButton</title>
<g id="a_node6"><a xlink:href="javascript:Action.selectClass(&quot;CloseDoorButton&quot;);" xlink:title="class CloseDoorButton
">
<polygon fill="none" stroke="black" points="-0.389648,-75 -0.389648,-111 114.39,-111 114.39,-75 -0.389648,-75"/>
<text text-anchor="middle" x="57" y="-87.5" font-family="Times,serif" font-size="14.00">CloseDoorButton</text>
</a>
</g>
</g>
<!-- CloseDoorButton&#45;&gt;Button -->
<g id="edge1" class="edge"><title>CloseDoorButton&#45;&gt;Button</title>
<path fill="none" stroke="black" d="M54.5759,-111.218C49.9983,-151.122 44.7069,-250.725 96,-306 131.462,-344.215 201.153,-344.886 227.023,-343.69"/>
<polygon fill="none" stroke="black" points="227.266,-347.182 237,-343 226.782,-340.199 227.266,-347.182"/>
</g>
<!-- CloseDoorButton&#45;&gt;Elevator -->
<g id="edge14" class="edge"><title>CloseDoorButton&#45;&gt;Elevator</title>
<path fill="none" stroke="black" d="M99.1048,-111.094C126.605,-122.259 163.63,-137.29 197.82,-151.171"/>
<text text-anchor="middle" x="192.57" y="-137.171" font-family="Times,serif" font-size="14.00">1 </text>
<text text-anchor="middle" x="93.8548" y="-113.894" font-family="Times,serif" font-size="14.00">1 </text>
</g>
<!-- OpenDoorButton -->
<g id="node7" class="node"><title>OpenDoorButton</title>
<g id="a_node7"><a xlink:href="javascript:Action.selectClass(&quot;OpenDoorButton&quot;);" xlink:title="class OpenDoorButton
">
<polygon fill="none" stroke="black" points="132.393,-75 132.393,-111 245.607,-111 245.607,-75 132.393,-75"/>
<text text-anchor="middle" x="189" y="-87.5" font-family="Times,serif" font-size="14.00">OpenDoorButton</text>
</a>
</g>
</g>
<!-- OpenDoorButton&#45;&gt;Button -->
<g id="edge2" class="edge"><title>OpenDoorButton&#45;&gt;Button</title>
<path fill="none" stroke="black" d="M172.862,-111.287C139.036,-149.661 67.5304,-243.495 114,-306 141.008,-342.328 202.525,-344.308 226.84,-343.57"/>
<polygon fill="none" stroke="black" points="227.212,-347.055 237,-343 226.82,-340.066 227.212,-347.055"/>
</g>
<!-- OpenDoorButton&#45;&gt;Elevator -->
<g id="edge15" class="edge"><title>OpenDoorButton&#45;&gt;Elevator</title>
<path fill="none" stroke="black" d="M207.708,-111.424C218.751,-121.709 233.224,-135.189 247.003,-148.022"/>
<text text-anchor="middle" x="252.253" y="-134.022" font-family="Times,serif" font-size="14.00">1 </text>
<text text-anchor="middle" x="202.458" y="-114.224" font-family="Times,serif" font-size="14.00">1 </text>
</g>
<!-- UpCallButton&#45;&gt;Button -->
<g id="edge3" class="edge"><title>UpCallButton&#45;&gt;Button</title>
<path fill="none" stroke="black" d="M190.832,-305.101C203.739,-315.696 219.589,-328.707 228.96,-336.4"/>
<polygon fill="none" stroke="black" points="227.05,-339.36 237,-343 231.491,-333.95 227.05,-339.36"/>
</g>
<!-- DownCallButton&#45;&gt;Button -->
<g id="edge4" class="edge"><title>DownCallButton&#45;&gt;Button</title>
<path fill="none" stroke="black" d="M274.21,-305.101C264.055,-315.444 251.64,-328.089 244.028,-335.841"/>
<polygon fill="none" stroke="black" points="241.508,-333.412 237,-343 246.503,-338.316 241.508,-333.412"/>
</g>
<!-- StopCallbutton -->
<g id="node10" class="node"><title>StopCallbutton</title>
<g id="a_node10"><a xlink:href="javascript:Action.selectClass(&quot;StopCallbutton&quot;);" xlink:title="class StopCallbutton
">
<polygon fill="none" stroke="black" points="364.607,-269 364.607,-305 465.393,-305 465.393,-269 364.607,-269"/>
<text text-anchor="middle" x="415" y="-281.5" font-family="Times,serif" font-size="14.00">StopCallbutton</text>
</a>
</g>
</g>
<!-- StopCallbutton&#45;&gt;Button -->
<g id="edge5" class="edge"><title>StopCallbutton&#45;&gt;Button</title>
<path fill="none" stroke="black" d="M364.468,-303.614C323.356,-316.317 268.681,-333.211 246.728,-339.994"/>
<polygon fill="none" stroke="black" points="245.521,-336.704 237,-343 247.588,-343.392 245.521,-336.704"/>
</g>
<!-- ConsoleCallButton&#45;&gt;Button -->
<g id="edge6" class="edge"><title>ConsoleCallButton&#45;&gt;Button</title>
<path fill="none" stroke="black" d="M483.122,-304.05C480.044,-304.734 476.99,-305.389 474,-306 386.686,-323.843 279.736,-337.71 246.994,-341.78"/>
<polygon fill="none" stroke="black" points="246.502,-338.314 237,-343 247.35,-345.262 246.502,-338.314"/>
</g>
</g>
</svg>
