<?xml version="1.0" encoding="UTF-8" standalone="no"?>
<!DOCTYPE svg PUBLIC "-//W3C//DTD SVG 1.1//EN"
 "http://www.w3.org/Graphics/SVG/1.1/DTD/svg11.dtd">
<!-- Generated by graphviz version 2.29.20121108.1600 (20121108.1600)
 -->
<!-- Title: GarageDoor Pages: 1 -->
<svg width="347pt" height="456pt"
 viewBox="0.00 0.00 346.88 456.00" xmlns="http://www.w3.org/2000/svg" xmlns:xlink="http://www.w3.org/1999/xlink">
<g id="graph0" class="graph" transform="scale(1 1) rotate(0) translate(4 452)">
<title>GarageDoor</title>
<polygon fill="white" stroke="white" points="-4,5 -4,-452 343.878,-452 343.878,5 -4,5"/>
<!-- start_GarageDoor_status -->
<g id="node1" class="node"><title>start_GarageDoor_status</title>
<ellipse fill="black" stroke="black" cx="211" cy="-441" rx="7.2" ry="7.2"/>
</g>
<!-- GarageDoor_status_Open -->
<g id="node2" class="node"><title>GarageDoor_status_Open</title>
<path fill="none" stroke="black" d="M235,-396C235,-396 187,-396 187,-396 181,-396 175,-390 175,-384 175,-384 175,-372 175,-372 175,-366 181,-360 187,-360 187,-360 235,-360 235,-360 241,-360 247,-366 247,-372 247,-372 247,-384 247,-384 247,-390 241,-396 235,-396"/>
<text text-anchor="middle" x="211" y="-372.4" font-family="Times,serif" font-size="14.00">Open</text>
</g>
<!-- start_GarageDoor_status&#45;&gt;GarageDoor_status_Open -->
<g id="edge1" class="edge"><title>start_GarageDoor_status&#45;&gt;GarageDoor_status_Open</title>
<path fill="none" stroke="black" d="M211,-433.472C211,-426.902 211,-416.324 211,-406.229"/>
<polygon fill="black" stroke="black" points="214.5,-406.073 211,-396.073 207.5,-406.073 214.5,-406.073"/>
</g>
<!-- GarageDoor_status_Closing -->
<g id="node3" class="node"><title>GarageDoor_status_Closing</title>
<path fill="none" stroke="black" d="M168,-306C168,-306 120,-306 120,-306 114,-306 108,-300 108,-294 108,-294 108,-282 108,-282 108,-276 114,-270 120,-270 120,-270 168,-270 168,-270 174,-270 180,-276 180,-282 180,-282 180,-294 180,-294 180,-300 174,-306 168,-306"/>
<text text-anchor="middle" x="144" y="-282.4" font-family="Times,serif" font-size="14.00">Closing</text>
</g>
<!-- GarageDoor_status_Open&#45;&gt;GarageDoor_status_Closing -->
<g id="edge3" class="edge"><title>GarageDoor_status_Open&#45;&gt;GarageDoor_status_Closing</title>
<path fill="none" stroke="black" d="M177.379,-359.823C170.298,-354.891 163.469,-348.933 158.469,-342 153.015,-334.438 149.617,-324.923 147.499,-316.05"/>
<polygon fill="black" stroke="black" points="150.905,-315.228 145.556,-306.083 144.035,-316.569 150.905,-315.228"/>
<text text-anchor="middle" x="208.766" y="-327.4" font-family="Times,serif" font-size="14.00">buttonOrObstacle</text>
</g>
<!-- GarageDoor_status_Closed -->
<g id="node4" class="node"><title>GarageDoor_status_Closed</title>
<path fill="none" stroke="black" d="M60,-216C60,-216 12,-216 12,-216 6,-216 0,-210 0,-204 0,-204 0,-192 0,-192 0,-186 6,-180 12,-180 12,-180 60,-180 60,-180 66,-180 72,-186 72,-192 72,-192 72,-204 72,-204 72,-210 66,-216 60,-216"/>
<text text-anchor="middle" x="36" y="-192.4" font-family="Times,serif" font-size="14.00">Closed</text>
</g>
<!-- GarageDoor_status_Closing&#45;&gt;GarageDoor_status_Closed -->
<g id="edge4" class="edge"><title>GarageDoor_status_Closing&#45;&gt;GarageDoor_status_Closed</title>
<path fill="none" stroke="black" d="M107.578,-279.196C90.5962,-273.959 71.2027,-265.47 57.6895,-252 50.5535,-244.887 45.6684,-235.1 42.3702,-225.87"/>
<polygon fill="black" stroke="black" points="45.6854,-224.743 39.3829,-216.227 38.9989,-226.815 45.6854,-224.743"/>
<text text-anchor="middle" x="94.1553" y="-237.4" font-family="Times,serif" font-size="14.00">reachBottom</text>
</g>
<!-- GarageDoor_status_Opening -->
<g id="node5" class="node"><title>GarageDoor_status_Opening</title>
<path fill="none" stroke="black" d="M168,-126C168,-126 120,-126 120,-126 114,-126 108,-120 108,-114 108,-114 108,-102 108,-102 108,-96 114,-90 120,-90 120,-90 168,-90 168,-90 174,-90 180,-96 180,-102 180,-102 180,-114 180,-114 180,-120 174,-126 168,-126"/>
<text text-anchor="middle" x="144" y="-102.4" font-family="Times,serif" font-size="14.00">Opening</text>
</g>
<!-- GarageDoor_status_Closing&#45;&gt;GarageDoor_status_Opening -->
<g id="edge5" class="edge"><title>GarageDoor_status_Closing&#45;&gt;GarageDoor_status_Opening</title>
<path fill="none" stroke="black" d="M144,-269.933C144,-238.966 144,-173.299 144,-136.129"/>
<polygon fill="black" stroke="black" points="147.5,-136.016 144,-126.016 140.5,-136.016 147.5,-136.016"/>
<text text-anchor="middle" x="193.766" y="-192.4" font-family="Times,serif" font-size="14.00">buttonOrObstacle</text>
</g>
<!-- GarageDoor_status_Closed&#45;&gt;GarageDoor_status_Opening -->
<g id="edge6" class="edge"><title>GarageDoor_status_Closed&#45;&gt;GarageDoor_status_Opening</title>
<path fill="none" stroke="black" d="M28.5678,-179.654C25.0247,-168.448 22.9966,-154.123 30.4688,-144 45.9028,-123.091 73.6467,-114.286 97.8441,-110.735"/>
<polygon fill="black" stroke="black" points="98.4427,-114.188 107.951,-109.514 97.6037,-107.238 98.4427,-114.188"/>
<text text-anchor="middle" x="80.7656" y="-147.4" font-family="Times,serif" font-size="14.00">buttonOrObstacle</text>
</g>
<!-- GarageDoor_status_Opening&#45;&gt;GarageDoor_status_Open -->
<g id="edge2" class="edge"><title>GarageDoor_status_Opening&#45;&gt;GarageDoor_status_Open</title>
<path fill="none" stroke="black" d="M180.21,-123.913C203.507,-135.549 232.116,-154.11 247,-180 374.89,-402.456 275.844,-306.464 258,-342 256.048,-345.887 253.438,-349.451 250.443,-352.693"/>
<polygon fill="black" stroke="black" points="247.859,-350.315 242.886,-359.671 252.608,-355.458 247.859,-350.315"/>
<text text-anchor="middle" x="312.939" y="-237.4" font-family="Times,serif" font-size="14.00">reachTop</text>
</g>
<!-- GarageDoor_status_HalfOpen -->
<g id="node6" class="node"><title>GarageDoor_status_HalfOpen</title>
<path fill="none" stroke="black" d="M168,-36C168,-36 120,-36 120,-36 114,-36 108,-30 108,-24 108,-24 108,-12 108,-12 108,-6 114,-0 120,-0 120,-0 168,-0 168,-0 174,-0 180,-6 180,-12 180,-12 180,-24 180,-24 180,-30 174,-36 168,-36"/>
<text text-anchor="middle" x="144" y="-12.4" font-family="Times,serif" font-size="14.00">HalfOpen</text>
</g>
<!-- GarageDoor_status_Opening&#45;&gt;GarageDoor_status_HalfOpen -->
<g id="edge8" class="edge"><title>GarageDoor_status_Opening&#45;&gt;GarageDoor_status_HalfOpen</title>
<path fill="none" stroke="black" d="M107.796,-93.6527C88.5439,-84.316 70.6783,-70.5715 80.4688,-54 84.8885,-46.5191 91.5411,-40.5282 98.9018,-35.7675"/>
<polygon fill="black" stroke="black" points="100.809,-38.7097 107.777,-30.7286 97.3523,-32.6225 100.809,-38.7097"/>
<text text-anchor="middle" x="130.766" y="-57.4" font-family="Times,serif" font-size="14.00">buttonOrObstacle</text>
</g>
<!-- GarageDoor_status_HalfOpen&#45;&gt;GarageDoor_status_Opening -->
<g id="edge7" class="edge"><title>GarageDoor_status_HalfOpen&#45;&gt;GarageDoor_status_Opening</title>
<path fill="none" stroke="black" d="M170.397,-36.3503C175.899,-41.3388 180.95,-47.2777 184,-54 187.306,-61.2851 187.306,-64.7149 184,-72 182.332,-75.6763 180.066,-79.1182 177.454,-82.2986"/>
<polygon fill="black" stroke="black" points="174.798,-80.012 170.397,-89.6497 179.848,-84.8597 174.798,-80.012"/>
<text text-anchor="middle" x="236.766" y="-57.4" font-family="Times,serif" font-size="14.00">buttonOrObstacle</text>
</g>
</g>
</svg>
