<?xml version="1.0" encoding="UTF-8" standalone="no"?>
<!DOCTYPE svg PUBLIC "-//W3C//DTD SVG 1.1//EN"
 "http://www.w3.org/Graphics/SVG/1.1/DTD/svg11.dtd">
<!-- Generated by graphviz version 2.39.20140502.0445 (20140502.0445)
 -->
<!-- Title: GenealogyA Pages: 1 -->
<svg width="165pt" height="243pt"
 viewBox="0.00 0.00 165.00 243.00" xmlns="http://www.w3.org/2000/svg" xmlns:xlink="http://www.w3.org/1999/xlink">
<g id="graph0" class="graph" transform="scale(1 1) rotate(0) translate(4 239)">
<title>GenealogyA</title>
<polygon fill="white" stroke="none" points="-4,4 -4,-239 161,-239 161,4 -4,4"/>
<!-- Person -->
<g id="node1" class="node"><title>Person</title>
<g id="a_node1"><a xlink:href="javascript:Action.selectClass(&quot;Person&quot;);" xlink:title="class Person
Positioning
">
<polygon fill="none" stroke="black" points="9,-0.5 9,-121.5 148,-121.5 148,-0.5 9,-0.5"/>
<text text-anchor="middle" x="78.5" y="-106.3" font-family="Times,serif" font-size="14.00">Person</text>
<polyline fill="none" stroke="black" points="9,-98.5 148,-98.5 "/>
<text text-anchor="start" x="17" y="-83.3" font-family="Times,serif" font-size="14.00">name : String</text>
<text text-anchor="start" x="17" y="-68.3" font-family="Times,serif" font-size="14.00">sex : String</text>
<text text-anchor="start" x="17" y="-53.3" font-family="Times,serif" font-size="14.00">placeOfBirth : String</text>
<text text-anchor="start" x="17" y="-38.3" font-family="Times,serif" font-size="14.00">dateOfBirth : String</text>
<text text-anchor="start" x="17" y="-23.3" font-family="Times,serif" font-size="14.00">placeOfDeath : String</text>
<text text-anchor="start" x="17" y="-8.3" font-family="Times,serif" font-size="14.00">dateOfDeath : String</text>
</a>
</g>
</g>
<!-- Union -->
<g id="node2" class="node"><title>Union</title>
<g id="a_node2"><a xlink:href="javascript:Action.selectClass(&quot;Union&quot;);" xlink:title="class Union
">
<polygon fill="none" stroke="black" points="0,-158.5 0,-234.5 157,-234.5 157,-158.5 0,-158.5"/>
<text text-anchor="middle" x="78.5" y="-219.3" font-family="Times,serif" font-size="14.00">Union</text>
<polyline fill="none" stroke="black" points="0,-211.5 157,-211.5 "/>
<text text-anchor="start" x="8" y="-196.3" font-family="Times,serif" font-size="14.00">placeOfMarriage : String</text>
<text text-anchor="start" x="8" y="-181.3" font-family="Times,serif" font-size="14.00">dateOfMarriage : String</text>
<text text-anchor="start" x="8" y="-166.3" font-family="Times,serif" font-size="14.00">dateOfDivorce : String</text>
</a>
</g>
</g>
<!-- Person&#45;&gt;Union -->
<g id="edge1" class="edge"><title>Person&#45;&gt;Union</title>
<g id="a_edge1"><a xlink:title="Person * child &#45;&#45; 0..1 parents Union">
<path fill="none" stroke="black" d="M71.7834,-121.722C71.6643,-134.218 71.8638,-147.046 72.3819,-158.429"/>
</a>
</g>
<text text-anchor="middle" x="104.882" y="-147.229" font-family="Times,serif" font-size="14.00">0..1 parents</text>
<text text-anchor="middle" x="52.2834" y="-125.522" font-family="Times,serif" font-size="14.00">* child</text>
</g>
<!-- Union&#45;&gt;Person -->
<g id="edge2" class="edge"><title>Union&#45;&gt;Person</title>
<g id="a_edge2"><a xlink:title="Union * &#160;&#45;&#45; 0..2 partner Person">
<path fill="none" stroke="black" d="M84.6181,-158.429C85.1362,-147.046 85.3357,-134.218 85.2166,-121.722"/>
</a>
</g>
<text text-anchor="middle" x="117.717" y="-125.522" font-family="Times,serif" font-size="14.00">0..2 partner</text>
<text text-anchor="middle" x="79.1181" y="-162.229" font-family="Times,serif" font-size="14.00">* </text>
</g>
</g>
</svg>
