<?xml version="1.0" encoding="UTF-8" standalone="no"?>
<!DOCTYPE svg PUBLIC "-//W3C//DTD SVG 1.1//EN"
 "http://www.w3.org/Graphics/SVG/1.1/DTD/svg11.dtd">
<!-- Generated by graphviz version 2.29.20121108.1600 (20121108.1600)
 -->
<!-- Title: GenealogyC Pages: 1 -->
<svg width="253pt" height="352pt"
 viewBox="0.00 0.00 253.11 352.00" xmlns="http://www.w3.org/2000/svg" xmlns:xlink="http://www.w3.org/1999/xlink">
<g id="graph0" class="graph" transform="scale(1 1) rotate(0) translate(4 348)">
<title>GenealogyC</title>
<polygon fill="white" stroke="white" points="-4,5 -4,-348 250.107,-348 250.107,5 -4,5"/>
<!-- Person -->
<g id="node1" class="node"><title>Person</title>
<g id="a_node1"><a xlink:href="javascript:Action.selectClass(&quot;Person&quot;);" xlink:title="class Person
Positioning
">
<polygon fill="none" stroke="black" points="97.6828,-89.2 97.6828,-222.8 236.531,-222.8 236.531,-89.2 97.6828,-89.2"/>
<text text-anchor="middle" x="167.107" y="-204.8" font-family="Times,serif" font-size="14.00">Person</text>
<polyline fill="none" stroke="black" points="97.6828,-198 236.531,-198 "/>
<text text-anchor="start" x="105.683" y="-180" font-family="Times,serif" font-size="14.00">name : String</text>
<text text-anchor="start" x="105.683" y="-163.2" font-family="Times,serif" font-size="14.00">sex : String</text>
<text text-anchor="start" x="105.683" y="-146.4" font-family="Times,serif" font-size="14.00">placeOfBirth : String</text>
<text text-anchor="start" x="105.683" y="-129.6" font-family="Times,serif" font-size="14.00">dateOfBirth : String</text>
<text text-anchor="start" x="105.683" y="-112.8" font-family="Times,serif" font-size="14.00">placeOfDeath : String</text>
<text text-anchor="start" x="105.683" y="-96" font-family="Times,serif" font-size="14.00">dateOfDeath : String</text>
</a>
</g>
</g>
<!-- Union -->
<g id="node2" class="node"><title>Union</title>
<g id="a_node2"><a xlink:href="javascript:Action.selectClass(&quot;Union&quot;);" xlink:title="class Union
">
<polygon fill="none" stroke="black" points="88.7448,-260.4 88.7448,-343.6 245.469,-343.6 245.469,-260.4 88.7448,-260.4"/>
<text text-anchor="middle" x="167.107" y="-325.6" font-family="Times,serif" font-size="14.00">Union</text>
<polyline fill="none" stroke="black" points="88.7448,-318.8 245.469,-318.8 "/>
<text text-anchor="start" x="96.7448" y="-300.8" font-family="Times,serif" font-size="14.00">placeOfMarriage : String</text>
<text text-anchor="start" x="96.7448" y="-284" font-family="Times,serif" font-size="14.00">dateOfMarriage : String</text>
<text text-anchor="start" x="96.7448" y="-267.2" font-family="Times,serif" font-size="14.00">dateOfDivorce : String</text>
</a>
</g>
</g>
<!-- Person&#45;&gt;Union -->
<g id="edge1" class="edge"><title>Person&#45;&gt;Union</title>
<path fill="none" stroke="black" d="M160.377,-223.1C160.29,-235.817 160.485,-248.781 160.963,-260.391"/>
<text text-anchor="middle" x="128.499" y="-246.391" font-family="Times,serif" font-size="14.00">0..1 parents</text>
<text text-anchor="middle" x="141.131" y="-225.9" font-family="Times,serif" font-size="14.00">* child</text>
</g>
<!-- Union&#45;&gt;Person -->
<g id="edge2" class="edge"><title>Union&#45;&gt;Person</title>
<path fill="none" stroke="black" d="M173.251,-260.391C173.729,-248.781 173.924,-235.817 173.837,-223.1"/>
<text text-anchor="middle" x="203.577" y="-225.9" font-family="Times,serif" font-size="14.00">0..2 parent</text>
<text text-anchor="middle" x="178.501" y="-246.391" font-family="Times,serif" font-size="14.00">* </text>
</g>
<!-- Adoption -->
<g id="node3" class="node"><title>Adoption</title>
<g id="a_node3"><a xlink:href="javascript:Action.selectClass(&quot;Adoption&quot;);" xlink:title="class Adoption
">
<polygon fill="none" stroke="black" points="42.0588,-1.2 42.0588,-50.8 194.155,-50.8 194.155,-1.2 42.0588,-1.2"/>
<text text-anchor="middle" x="118.107" y="-32.8" font-family="Times,serif" font-size="14.00">Adoption</text>
<polyline fill="none" stroke="black" points="42.0588,-26 194.155,-26 "/>
<text text-anchor="start" x="50.0588" y="-8" font-family="Times,serif" font-size="14.00">dateOfAdoption : String</text>
</a>
</g>
</g>
<!-- Adoption&#45;&gt;Union -->
<g id="edge3" class="edge"><title>Adoption&#45;&gt;Union</title>
<path fill="none" stroke="black" d="M103.646,-51.0282C97.9095,-61.9115 91.9974,-75.1887 89.1071,-88 75.8048,-146.963 65.796,-168.232 89.1071,-224 94.6844,-237.343 103.825,-249.55 113.921,-260.119"/>
<text text-anchor="middle" x="56.9604" y="-262.919" font-family="Times,serif" font-size="14.00">0..1 adoptiveParents</text>
<text text-anchor="middle" x="98.3961" y="-53.8282" font-family="Times,serif" font-size="14.00">* </text>
</g>
<!-- Adoption&#45;&gt;Person -->
<g id="edge4" class="edge"><title>Adoption&#45;&gt;Person</title>
<path fill="none" stroke="black" d="M127.324,-51.0758C131.51,-62.0111 136.687,-75.5354 141.907,-89.1706"/>
<text text-anchor="middle" x="91.9395" y="-75.1706" font-family="Times,serif" font-size="14.00">0..1 adoptedChild</text>
<text text-anchor="middle" x="122.074" y="-53.8758" font-family="Times,serif" font-size="14.00">* </text>
</g>
</g>
</svg>
