<?xml version="1.0" encoding="UTF-8" standalone="no"?>
<!DOCTYPE svg PUBLIC "-//W3C//DTD SVG 1.1//EN"
 "http://www.w3.org/Graphics/SVG/1.1/DTD/svg11.dtd">
<!-- Generated by graphviz version 2.29.20121108.1600 (20121108.1600)
 -->
<!-- Title: GenealogyA Pages: 1 -->
<svg width="164pt" height="264pt"
 viewBox="0.00 0.00 164.00 264.00" xmlns="http://www.w3.org/2000/svg" xmlns:xlink="http://www.w3.org/1999/xlink">
<g id="graph0" class="graph" transform="scale(1 1) rotate(0) translate(4 260)">
<title>GenealogyA</title>
<polygon fill="white" stroke="white" points="-4,5 -4,-260 161,-260 161,5 -4,5"/>
<!-- Person -->
<g id="node1" class="node"><title>Person</title>
<g id="a_node1"><a xlink:href="javascript:Action.selectClass(&quot;Person&quot;);" xlink:title="class Person
Positioning
">
<polygon fill="none" stroke="black" points="8.57568,-1.2 8.57568,-134.8 147.424,-134.8 147.424,-1.2 8.57568,-1.2"/>
<text text-anchor="middle" x="78" y="-116.8" font-family="Times,serif" font-size="14.00">Person</text>
<polyline fill="none" stroke="black" points="8.57568,-110 147.424,-110 "/>
<text text-anchor="start" x="16.5757" y="-92" font-family="Times,serif" font-size="14.00">name : String</text>
<text text-anchor="start" x="16.5757" y="-75.2" font-family="Times,serif" font-size="14.00">sex : String</text>
<text text-anchor="start" x="16.5757" y="-58.4" font-family="Times,serif" font-size="14.00">placeOfBirth : String</text>
<text text-anchor="start" x="16.5757" y="-41.6" font-family="Times,serif" font-size="14.00">dateOfBirth : String</text>
<text text-anchor="start" x="16.5757" y="-24.8" font-family="Times,serif" font-size="14.00">placeOfDeath : String</text>
<text text-anchor="start" x="16.5757" y="-8" font-family="Times,serif" font-size="14.00">dateOfDeath : String</text>
</a>
</g>
</g>
<!-- Union -->
<g id="node2" class="node"><title>Union</title>
<g id="a_node2"><a xlink:href="javascript:Action.selectClass(&quot;Union&quot;);" xlink:title="class Union
">
<polygon fill="none" stroke="black" points="-0.362305,-172.4 -0.362305,-255.6 156.362,-255.6 156.362,-172.4 -0.362305,-172.4"/>
<text text-anchor="middle" x="78" y="-237.6" font-family="Times,serif" font-size="14.00">Union</text>
<polyline fill="none" stroke="black" points="-0.362305,-230.8 156.362,-230.8 "/>
<text text-anchor="start" x="7.6377" y="-212.8" font-family="Times,serif" font-size="14.00">placeOfMarriage : String</text>
<text text-anchor="start" x="7.6377" y="-196" font-family="Times,serif" font-size="14.00">dateOfMarriage : String</text>
<text text-anchor="start" x="7.6377" y="-179.2" font-family="Times,serif" font-size="14.00">dateOfDivorce : String</text>
</a>
</g>
</g>
<!-- Person&#45;&gt;Union -->
<g id="edge1" class="edge"><title>Person&#45;&gt;Union</title>
<path fill="none" stroke="black" d="M71.2702,-135.1C71.183,-147.817 71.3783,-160.781 71.856,-172.391"/>
<text text-anchor="middle" x="104.32" y="-158.391" font-family="Times,serif" font-size="14.00">0..1 parents</text>
<text text-anchor="middle" x="52.0236" y="-137.9" font-family="Times,serif" font-size="14.00">* child</text>
</g>
<!-- Union&#45;&gt;Person -->
<g id="edge2" class="edge"><title>Union&#45;&gt;Person</title>
<path fill="none" stroke="black" d="M84.144,-172.391C84.6217,-160.781 84.817,-147.817 84.7298,-135.1"/>
<text text-anchor="middle" x="116.801" y="-137.9" font-family="Times,serif" font-size="14.00">0..2 partner</text>
<text text-anchor="middle" x="81.519" y="-175.191" font-family="Times,serif" font-size="14.00">* </text>
</g>
</g>
</svg>
