<?xml version="1.0" encoding="UTF-8" standalone="no"?>
<!DOCTYPE svg PUBLIC "-//W3C//DTD SVG 1.1//EN"
 "http://www.w3.org/Graphics/SVG/1.1/DTD/svg11.dtd">
<!-- Generated by graphviz version 2.39.20140502.0445 (20140502.0445)
 -->
<!-- Title: GenealogyB Pages: 1 -->
<svg width="270pt" height="228pt"
 viewBox="0.00 0.00 270.17 228.00" xmlns="http://www.w3.org/2000/svg" xmlns:xlink="http://www.w3.org/1999/xlink">
<g id="graph0" class="graph" transform="scale(1 1) rotate(0) translate(4 224)">
<title>GenealogyB</title>
<polygon fill="white" stroke="none" points="-4,4 -4,-224 266.173,-224 266.173,4 -4,4"/>
<!-- Person -->
<g id="node1" class="node"><title>Person</title>
<g id="a_node1"><a xlink:href="javascript:Action.selectClass(&quot;Person&quot;);" xlink:title="class Person
Positioning
">
<polygon fill="none" stroke="black" points="9,-0.5 9,-121.5 148,-121.5 148,-0.5 9,-0.5"/>
<text text-anchor="middle" x="78.5" y="-106.3" font-family="Times,serif" font-size="14.00">Person</text>
<polyline fill="none" stroke="black" points="9,-98.5 148,-98.5 "/>
<text text-anchor="start" x="17" y="-83.3" font-family="Times,serif" font-size="14.00">name : String</text>
<text text-anchor="start" x="17" y="-68.3" font-family="Times,serif" font-size="14.00">sex : String</text>
<text text-anchor="start" x="17" y="-53.3" font-family="Times,serif" font-size="14.00">placeOfBirth : String</text>
<text text-anchor="start" x="17" y="-38.3" font-family="Times,serif" font-size="14.00">dateOfBirth : String</text>
<text text-anchor="start" x="17" y="-23.3" font-family="Times,serif" font-size="14.00">placeOfDeath : String</text>
<text text-anchor="start" x="17" y="-8.3" font-family="Times,serif" font-size="14.00">dateOfDeath : String</text>
</a>
</g>
</g>
<!-- Person&#45;&gt;Person -->
<g id="edge2" class="edge"><title>Person&#45;&gt;Person</title>
<g id="a_edge2"><a xlink:title="Person 0..2 adoptiveParents &#45;&#45; * adoptedChild Person">
<path fill="none" stroke="black" d="M148.173,-39.1152C158.79,-42.4551 166,-49.75 166,-61 166,-72.25 158.79,-79.5449 148.173,-82.8848"/>
</a>
</g>
<text text-anchor="middle" x="191.173" y="-71.6848" font-family="Times,serif" font-size="14.00">* adoptedChild</text>
<text text-anchor="middle" x="205.173" y="-27.9152" font-family="Times,serif" font-size="14.00">0..2 adoptiveParents</text>
</g>
<!-- Union -->
<g id="node2" class="node"><title>Union</title>
<g id="a_node2"><a xlink:href="javascript:Action.selectClass(&quot;Union&quot;);" xlink:title="class Union
">
<polygon fill="none" stroke="black" points="0,-158.5 0,-219.5 157,-219.5 157,-158.5 0,-158.5"/>
<text text-anchor="middle" x="78.5" y="-204.3" font-family="Times,serif" font-size="14.00">Union</text>
<polyline fill="none" stroke="black" points="0,-196.5 157,-196.5 "/>
<text text-anchor="start" x="8" y="-181.3" font-family="Times,serif" font-size="14.00">placeOfMarriage : String</text>
<text text-anchor="start" x="8" y="-166.3" font-family="Times,serif" font-size="14.00">dateOfMarriage : String</text>
</a>
</g>
</g>
<!-- Person&#45;&gt;Union -->
<g id="edge1" class="edge"><title>Person&#45;&gt;Union</title>
<g id="a_edge1"><a xlink:title="Person * child &#45;&#45; 0..1 parents Union">
<path fill="none" stroke="black" d="M71.7583,-121.679C71.6944,-134.401 71.9983,-147.303 72.6701,-158.304"/>
</a>
</g>
<text text-anchor="middle" x="105.17" y="-147.104" font-family="Times,serif" font-size="14.00">0..1 parents</text>
<text text-anchor="middle" x="52.2583" y="-125.479" font-family="Times,serif" font-size="14.00">* child</text>
</g>
<!-- Union&#45;&gt;Person -->
<g id="edge3" class="edge"><title>Union&#45;&gt;Person</title>
<g id="a_edge3"><a xlink:title="Union * &#160;&#45;&#45; 0..2 partner Person">
<path fill="none" stroke="black" d="M84.3299,-158.304C85.0017,-147.303 85.3056,-134.401 85.2417,-121.679"/>
</a>
</g>
<text text-anchor="middle" x="117.742" y="-125.479" font-family="Times,serif" font-size="14.00">0..2 partner</text>
<text text-anchor="middle" x="78.8299" y="-162.104" font-family="Times,serif" font-size="14.00">* </text>
</g>
</g>
</svg>
