<?xml version="1.0" encoding="UTF-8" standalone="no"?>
<!DOCTYPE svg PUBLIC "-//W3C//DTD SVG 1.1//EN"
 "http://www.w3.org/Graphics/SVG/1.1/DTD/svg11.dtd">
<!-- Generated by graphviz version 2.29.20121108.1600 (20121108.1600)
 -->
<!-- Title: GenealogyB Pages: 1 -->
<svg width="270pt" height="248pt"
 viewBox="0.00 0.00 269.55 248.00" xmlns="http://www.w3.org/2000/svg" xmlns:xlink="http://www.w3.org/1999/xlink">
<g id="graph0" class="graph" transform="scale(1 1) rotate(0) translate(4 244)">
<title>GenealogyB</title>
<polygon fill="white" stroke="white" points="-4,5 -4,-244 266.546,-244 266.546,5 -4,5"/>
<!-- Person -->
<g id="node1" class="node"><title>Person</title>
<g id="a_node1"><a xlink:href="javascript:Action.selectClass(&quot;Person&quot;);" xlink:title="class Person
Positioning
">
<polygon fill="none" stroke="black" points="8.57568,-1.2 8.57568,-134.8 147.424,-134.8 147.424,-1.2 8.57568,-1.2"/>
<text text-anchor="middle" x="78" y="-116.8" font-family="Times,serif" font-size="14.00">Person</text>
<polyline fill="none" stroke="black" points="8.57568,-110 147.424,-110 "/>
<text text-anchor="start" x="16.5757" y="-92" font-family="Times,serif" font-size="14.00">name : String</text>
<text text-anchor="start" x="16.5757" y="-75.2" font-family="Times,serif" font-size="14.00">sex : String</text>
<text text-anchor="start" x="16.5757" y="-58.4" font-family="Times,serif" font-size="14.00">placeOfBirth : String</text>
<text text-anchor="start" x="16.5757" y="-41.6" font-family="Times,serif" font-size="14.00">dateOfBirth : String</text>
<text text-anchor="start" x="16.5757" y="-24.8" font-family="Times,serif" font-size="14.00">placeOfDeath : String</text>
<text text-anchor="start" x="16.5757" y="-8" font-family="Times,serif" font-size="14.00">dateOfDeath : String</text>
</a>
</g>
</g>
<!-- Union -->
<g id="node2" class="node"><title>Union</title>
<g id="a_node2"><a xlink:href="javascript:Action.selectClass(&quot;Union&quot;);" xlink:title="class Union
">
<polygon fill="none" stroke="black" points="-0.362305,-172.8 -0.362305,-239.2 156.362,-239.2 156.362,-172.8 -0.362305,-172.8"/>
<text text-anchor="middle" x="78" y="-221.2" font-family="Times,serif" font-size="14.00">Union</text>
<polyline fill="none" stroke="black" points="-0.362305,-214.4 156.362,-214.4 "/>
<text text-anchor="start" x="7.6377" y="-196.4" font-family="Times,serif" font-size="14.00">placeOfMarriage : String</text>
<text text-anchor="start" x="7.6377" y="-179.6" font-family="Times,serif" font-size="14.00">dateOfMarriage : String</text>
</a>
</g>
</g>
<!-- Person&#45;&gt;Union -->
<g id="edge1" class="edge"><title>Person&#45;&gt;Union</title>
<path fill="none" stroke="black" d="M71.2526,-135.008C71.2186,-148.137 71.5204,-161.366 72.158,-172.734"/>
<text text-anchor="middle" x="39.6942" y="-158.734" font-family="Times,serif" font-size="14.00">0..1 parents</text>
<text text-anchor="middle" x="52.006" y="-137.808" font-family="Times,serif" font-size="14.00">* child</text>
</g>
<!-- Person&#45;&gt;Person -->
<g id="edge2" class="edge"><title>Person&#45;&gt;Person</title>
<path fill="none" stroke="black" d="M147.625,-44.5271C157.99,-48.1816 165,-56.0059 165,-68 165,-79.9941 157.99,-87.8184 147.625,-91.4729"/>
<text text-anchor="middle" x="190.592" y="-77.4729" font-family="Times,serif" font-size="14.00">* adoptedChild</text>
<text text-anchor="middle" x="204.586" y="-30.5271" font-family="Times,serif" font-size="14.00">0..2 adoptiveParents</text>
</g>
<!-- Union&#45;&gt;Person -->
<g id="edge3" class="edge"><title>Union&#45;&gt;Person</title>
<path fill="none" stroke="black" d="M83.842,-172.734C84.4796,-161.366 84.7814,-148.137 84.7474,-135.008"/>
<text text-anchor="middle" x="116.818" y="-137.808" font-family="Times,serif" font-size="14.00">0..2 partner</text>
<text text-anchor="middle" x="78.592" y="-158.734" font-family="Times,serif" font-size="14.00">* </text>
</g>
</g>
</svg>
