<?xml version="1.0" encoding="UTF-8" standalone="no"?>
<!DOCTYPE svg PUBLIC "-//W3C//DTD SVG 1.1//EN"
 "http://www.w3.org/Graphics/SVG/1.1/DTD/svg11.dtd">
<!-- Generated by graphviz version 2.40.1 (20161225.0304)
 -->
<!-- Title: GeometricSystem Pages: 1 -->
<svg width="1587pt" height="618pt"
 viewBox="0.00 0.00 1587.00 618.00" xmlns="http://www.w3.org/2000/svg" xmlns:xlink="http://www.w3.org/1999/xlink">
<g id="graph0" class="graph" transform="scale(1 1) rotate(0) translate(4 614)">
<title>GeometricSystem</title>
<polygon fill="#ffffff" stroke="transparent" points="-4,4 -4,-614 1583,-614 1583,4 -4,4"/>
<!-- RootClass -->
<g id="node1" class="node">
<title>RootClass</title>
<g id="a_node1"><a xlink:href="javascript:Action.selectClass(&quot;RootClass&quot;);" xlink:title="class RootClass&#10;In order to see the class diagram with traits, please select option &quot;GraphViz Class&quot; in the menu &quot;OPTIONS&quot; and then checkout traits in the section &quot;SHOW VIEW&quot;.&#13;developed by Vahdat Abdelzad, in August 2015.&#13;A root class for all elements (classes) in the system.&#13;">
<text text-anchor="start" x="663.2173" y="-593.8" font-family="Times,serif" font-size="14.00" fill="#000000"> &#160;&#160;&#160;RootClass &#160;&#160;&#160;</text>
<text text-anchor="start" x="677.2344" y="-571.8" font-family="Times,serif" font-size="14.00" fill="#000000">«abstract»</text>
<g id="a_node1_0"><a xlink:href="javascript:Action.selectClass(&quot;RootClass&quot;);" xlink:title="Integer id&#13;">
<text text-anchor="start" x="661.5" y="-551.8" font-family="Times,serif" font-size="14.00" fill="#000000"> &#160;id : Integer &#160;</text>
</a>
</g>
<polygon fill="#000000" stroke="#000000" points="658.5,-565 658.5,-565 753.5,-565 753.5,-565 658.5,-565"/>
<polygon fill="none" stroke="#000000" points="658,-546 658,-610 753,-610 753,-546 658,-546"/>
</a>
</g>
</g>
<!-- Color -->
<g id="node2" class="node">
<title>Color</title>
<g id="a_node2"><a xlink:href="javascript:Action.selectClass(&quot;Color&quot;);" xlink:title="class Color&#10;A class which represent basic features of color.&#13;">
<text text-anchor="start" x="676.0552" y="-493.8" font-family="Times,serif" font-size="14.00" fill="#000000"> &#160;&#160;&#160;Color &#160;&#160;&#160;</text>
<g id="a_node2_1"><a xlink:href="javascript:Action.selectClass(&quot;Color&quot;);" xlink:title="String rgb&#13;">
<text text-anchor="start" x="667.2334" y="-473.8" font-family="Times,serif" font-size="14.00" fill="#000000"> &#160;rgb : String &#160;</text>
</a>
</g>
<polygon fill="#000000" stroke="#000000" points="664.5,-487 664.5,-487 747.5,-487 747.5,-487 664.5,-487"/>
<polygon fill="none" stroke="#000000" points="664,-468 664,-510 747,-510 747,-468 664,-468"/>
</a>
</g>
</g>
<!-- Color&#45;&gt;RootClass -->
<g id="edge1" class="edge">
<title>Color&#45;&gt;RootClass</title>
<path fill="none" stroke="#000000" d="M708.8513,-510.2247C710.2506,-519.0873 711.8088,-528.9558 712.9336,-536.0795"/>
<polygon fill="none" stroke="#000000" points="709.4831,-536.6683 714.5,-546 716.3975,-535.5765 709.4831,-536.6683"/>
</g>
<!-- Canvas -->
<g id="node3" class="node">
<title>Canvas</title>
<g id="a_node3"><a xlink:href="javascript:Action.selectClass(&quot;Canvas&quot;);" xlink:title="class Canvas&#10;used to draw geometric objects.&#13;">
<text text-anchor="start" x="776.3931" y="-484.8" font-family="Times,serif" font-size="14.00" fill="#000000"> &#160;&#160;&#160;Canvas &#160;&#160;&#160;</text>
<polygon fill="none" stroke="#000000" points="765,-471 765,-507 856,-507 856,-471 765,-471"/>
</a>
</g>
</g>
<!-- Canvas&#45;&gt;RootClass -->
<g id="edge2" class="edge">
<title>Canvas&#45;&gt;RootClass</title>
<path fill="none" stroke="#000000" d="M780.125,-507.0352C760.3496,-518.7768 735.9394,-533.2704 723.1887,-540.8411"/>
<polygon fill="none" stroke="#000000" points="721.3117,-537.8851 714.5,-546 724.8855,-543.9041 721.3117,-537.8851"/>
</g>
<!-- GeometricObject -->
<g id="node4" class="node">
<title>GeometricObject</title>
<g id="a_node4"><a xlink:href="javascript:Action.selectClass(&quot;GeometricObject&quot;);" xlink:title="class GeometricObject&#10;a root abstract class for geometric objects.&#13;">
<text text-anchor="start" x="643.2998" y="-415.8" font-family="Times,serif" font-size="14.00" fill="#000000"> &#160;&#160;&#160;GeometricObject &#160;&#160;&#160;</text>
<text text-anchor="start" x="676.7344" y="-393.8" font-family="Times,serif" font-size="14.00" fill="#000000">«abstract»</text>
<polygon fill="none" stroke="#000000" points="638.5,-386 638.5,-432 772.5,-432 772.5,-386 638.5,-386"/>
</a>
</g>
</g>
<!-- GeometricObject&#45;&gt;RootClass -->
<g id="edge3" class="edge">
<title>GeometricObject&#45;&gt;RootClass</title>
<path fill="none" stroke="#000000" d="M678.648,-432.1776C669.1119,-442.1229 659.5074,-454.5501 654.5,-468 647.9872,-485.4936 645.303,-493.7563 654.5,-510 665.2734,-529.0279 690.5598,-539.0956 704.6241,-543.3964"/>
<polygon fill="none" stroke="#000000" points="703.9381,-546.8351 714.5,-546 705.7226,-540.0663 703.9381,-546.8351"/>
</g>
<!-- GeometricObject&#45;&gt;Color -->
<g id="edge24" class="edge">
<title>GeometricObject&#45;&gt;Color</title>
<g id="a_edge24"><a xlink:title="GeometricObject 0..1 geometricObject &#45;&gt; * color Color">
<path fill="none" stroke="#000000" d="M705.5,-432.1393C705.5,-440.1443 705.5,-449.252 705.5,-457.7964"/>
<polygon fill="#000000" stroke="#000000" points="705.5,-467.8272 701.0001,-457.8271 705.5,-462.8272 705.5001,-457.8272 705.5001,-457.8272 705.5001,-457.8272 705.5,-462.8272 710.0001,-457.8272 705.5,-467.8272 705.5,-467.8272"/>
</a>
</g>
<text text-anchor="middle" x="685.8672" y="-456.6272" font-family="Times,serif" font-size="14.00" fill="#000000">* color</text>
<text text-anchor="middle" x="646.605" y="-434.9393" font-family="Times,serif" font-size="14.00" fill="#000000">0..1 geometricObject</text>
</g>
<!-- GeometricObject&#45;&gt;Canvas -->
<g id="edge25" class="edge">
<title>GeometricObject&#45;&gt;Canvas</title>
<g id="a_edge25"><a xlink:title="GeometricObject 0..1 geometricObject &#45;&gt; * canvas Canvas">
<path fill="none" stroke="#000000" d="M735.8704,-432.1393C749.3125,-442.381 765.1238,-454.4277 778.7246,-464.7902"/>
<polygon fill="#000000" stroke="#000000" points="786.8664,-470.9935 776.1849,-468.5124 782.8893,-467.9632 778.9121,-464.933 778.9121,-464.933 778.9121,-464.933 782.8893,-467.9632 781.6393,-461.3535 786.8664,-470.9935 786.8664,-470.9935"/>
</a>
</g>
<text text-anchor="middle" x="811.1613" y="-459.7935" font-family="Times,serif" font-size="14.00" fill="#000000">* canvas</text>
<text text-anchor="middle" x="794.7654" y="-434.9393" font-family="Times,serif" font-size="14.00" fill="#000000">0..1 geometricObject</text>
</g>
<!-- Shape2D -->
<g id="node5" class="node">
<title>Shape2D</title>
<g id="a_node5"><a xlink:href="javascript:Action.selectClass(&quot;Shape2D&quot;);" xlink:title="class Shape2D&#10;&#45;&#45;&#45;&#45;&#45;&#45;&#45;&#45;&#45;&#45;&#45;&#45;&#45;&#45;&#45;&#45;&#45;&#45;&#45;&#45;&#45;&#45;&#45;&#45;&#45;&#45;&#45;&#45;&#45;&#45;&#45;&#45;&#45;&#45;&#45;&#45;&#45;&#45;&#45;&#45;&#45;&#45;&#45;&#45;&#45;&#45;&#45;&#45;&#45;&#45;&#45;&#45;&#45;&#45;&#45;&#45;&#45;&#45;&#45;&#45;&#45;&#45;&#45;&#45;&#45;&#45;&#45;&#45;&#45;&#45;&#45;&#45;&#45;&#45;&#45;&#45;&#45;&#45;&#45;&#45;&#13;&#45;&#45;&#45;&#45;&#45;&#45;&#45;&#45;&#45;&#45;&#45;&#45;&#45;&#45;&#45;&#45;&#45;&#45;&#45;&#45;&#45;&#45;&#45;&#45;&#45;&#45;&#45;&#45;&#45;&#45;&#45;&#45;&#45;&#45;&#45;&#45;&#45;&#45;&#45;&#45;&#45;&#45;&#45;&#45;&#45;&#45;&#45;&#45;&#45;&#45;&#45;&#45;&#45;&#45;&#45;&#45;&#45;&#45;&#45;&#45;&#45;&#45;&#45;&#45;&#45;&#45;&#45;&#45;&#45;&#45;&#45;&#45;&#45;&#45;&#45;&#45;&#45;&#45;&#45;&#45;&#13;an abstract class for two&#45;dimensional objects such as circles and rectangles.&#13;">
<text text-anchor="start" x="449.8379" y="-333.8" font-family="Times,serif" font-size="14.00" fill="#000000"> &#160;&#160;&#160;Shape2D &#160;&#160;&#160;</text>
<text text-anchor="start" x="460.7344" y="-311.8" font-family="Times,serif" font-size="14.00" fill="#000000">«abstract»</text>
<g id="a_node5_2"><a xlink:href="javascript:Action.selectClass(&quot;Shape2D&quot;);" xlink:title="Point center&#13;">
<text text-anchor="start" x="445.1758" y="-291.8" font-family="Times,serif" font-size="14.00" fill="#000000"> &#160;center : Point &#160;</text>
</a>
</g>
<polygon fill="#000000" stroke="#000000" points="442.5,-305 442.5,-305 536.5,-305 536.5,-305 442.5,-305"/>
<polygon fill="none" stroke="#000000" points="442.5,-286 442.5,-350 536.5,-350 536.5,-286 442.5,-286"/>
</a>
</g>
</g>
<!-- Shape2D&#45;&gt;GeometricObject -->
<g id="edge4" class="edge">
<title>Shape2D&#45;&gt;GeometricObject</title>
<path fill="none" stroke="#000000" d="M536.6352,-332.8389C588.5225,-349.1737 668.2392,-374.2697 695.7612,-382.9341"/>
<polygon fill="none" stroke="#000000" points="694.9105,-386.3355 705.5,-386 697.0125,-379.6586 694.9105,-386.3355"/>
</g>
<!-- Shape3D -->
<g id="node6" class="node">
<title>Shape3D</title>
<g id="a_node6"><a xlink:href="javascript:Action.selectClass(&quot;Shape3D&quot;);" xlink:title="class Shape3D&#10;an abstract class for three&#45;dimensional objects such as cubes, prisms, cylinders and spheres.&#13;">
<text text-anchor="start" x="720.8379" y="-333.8" font-family="Times,serif" font-size="14.00" fill="#000000"> &#160;&#160;&#160;Shape3D &#160;&#160;&#160;</text>
<text text-anchor="start" x="731.7344" y="-311.8" font-family="Times,serif" font-size="14.00" fill="#000000">«abstract»</text>
<g id="a_node6_3"><a xlink:href="javascript:Action.selectClass(&quot;Shape3D&quot;);" xlink:title="Point center&#13;">
<text text-anchor="start" x="716.1758" y="-291.8" font-family="Times,serif" font-size="14.00" fill="#000000"> &#160;center : Point &#160;</text>
</a>
</g>
<polygon fill="#000000" stroke="#000000" points="713.5,-305 713.5,-305 807.5,-305 807.5,-305 713.5,-305"/>
<polygon fill="none" stroke="#000000" points="713.5,-286 713.5,-350 807.5,-350 807.5,-286 713.5,-286"/>
</a>
</g>
</g>
<!-- Shape3D&#45;&gt;GeometricObject -->
<g id="edge5" class="edge">
<title>Shape3D&#45;&gt;GeometricObject</title>
<path fill="none" stroke="#000000" d="M734.6105,-350.0088C726.1405,-360.4809 717.466,-371.2056 711.8159,-378.1912"/>
<polygon fill="none" stroke="#000000" points="709.0674,-376.0238 705.5,-386 714.51,-380.4259 709.0674,-376.0238"/>
</g>
<!-- Point -->
<g id="node7" class="node">
<title>Point</title>
<g id="a_node7"><a xlink:href="javascript:Action.selectClass(&quot;Point&quot;);" xlink:title="class Point&#10;a class for points. A point doesn&#39;t have a dimension.&#13;">
<text text-anchor="start" x="622.2173" y="-331.8" font-family="Times,serif" font-size="14.00" fill="#000000"> &#160;&#160;&#160;Point &#160;&#160;&#160;</text>
<g id="a_node7_4"><a xlink:href="javascript:Action.selectClass(&quot;Point&quot;);" xlink:title="Double pX&#13;">
<text text-anchor="start" x="609.3931" y="-311.8" font-family="Times,serif" font-size="14.00" fill="#000000"> &#160;pX : Double &#160;</text>
</a>
</g>
<g id="a_node7_5"><a xlink:href="javascript:Action.selectClass(&quot;Point&quot;);" xlink:title="Double pY&#13;">
<text text-anchor="start" x="609.5" y="-293.8" font-family="Times,serif" font-size="14.00" fill="#000000"> &#160;pY : Double &#160;</text>
</a>
</g>
<polygon fill="#000000" stroke="#000000" points="606.5,-325 606.5,-325 695.5,-325 695.5,-325 606.5,-325"/>
<polygon fill="none" stroke="#000000" points="606,-288 606,-348 695,-348 695,-288 606,-288"/>
</a>
</g>
</g>
<!-- Point&#45;&gt;GeometricObject -->
<g id="edge6" class="edge">
<title>Point&#45;&gt;GeometricObject</title>
<path fill="none" stroke="#000000" d="M674.7839,-348.0237C683.7623,-359.1243 693.2043,-370.7981 699.2109,-378.2244"/>
<polygon fill="none" stroke="#000000" points="696.49,-380.4259 705.5,-386 701.9326,-376.0238 696.49,-380.4259"/>
</g>
<!-- Line -->
<g id="node8" class="node">
<title>Line</title>
<g id="a_node8"><a xlink:href="javascript:Action.selectClass(&quot;Line&quot;);" xlink:title="class Line&#10;a class for lines. A line doesn&#39;t have an end.&#13;">
<text text-anchor="start" x="836.6724" y="-331.8" font-family="Times,serif" font-size="14.00" fill="#000000"> &#160;&#160;&#160;Line &#160;&#160;&#160;</text>
<g id="a_node8_6"><a xlink:href="javascript:Action.selectClass(&quot;Line&quot;);" xlink:title="Point pA&#13;">
<text text-anchor="start" x="828.1001" y="-311.8" font-family="Times,serif" font-size="14.00" fill="#000000"> &#160;pA : Point &#160;</text>
</a>
</g>
<g id="a_node8_7"><a xlink:href="javascript:Action.selectClass(&quot;Line&quot;);" xlink:title="Point pB&#13;">
<text text-anchor="start" x="828.1035" y="-293.8" font-family="Times,serif" font-size="14.00" fill="#000000"> &#160;pB : Point &#160;</text>
</a>
</g>
<polygon fill="#000000" stroke="#000000" points="825.5,-325 825.5,-325 901.5,-325 901.5,-325 825.5,-325"/>
<polygon fill="none" stroke="#000000" points="825.5,-288 825.5,-348 901.5,-348 901.5,-288 825.5,-288"/>
</a>
</g>
</g>
<!-- Line&#45;&gt;GeometricObject -->
<g id="edge7" class="edge">
<title>Line&#45;&gt;GeometricObject</title>
<path fill="none" stroke="#000000" d="M825.3005,-345.2784C822.3772,-346.9707 819.4252,-348.5664 816.5,-350 781.0261,-367.3855 735.1906,-379.173 715.3612,-383.8034"/>
<polygon fill="none" stroke="#000000" points="714.4998,-380.4094 705.5,-386 716.0218,-387.242 714.4998,-380.4094"/>
</g>
<!-- CurvedShape -->
<g id="node9" class="node">
<title>CurvedShape</title>
<g id="a_node9"><a xlink:href="javascript:Action.selectClass(&quot;CurvedShape&quot;);" xlink:title="class CurvedShape&#10;&#45;&#45;&#45;&#45;&#45;&#45;&#45;&#45;&#45;&#45;&#45;&#45;&#45;&#45;&#45;&#45;&#45;&#45;&#45;&#45;&#45;&#45;&#45;&#45;&#45;&#45;&#45;&#45;&#45;&#45;&#45;&#45;&#45;&#45;&#45;&#45;&#45;&#45;&#45;&#45;&#45;&#45;&#45;&#45;&#45;&#45;&#45;&#45;&#45;&#45;&#45;&#45;&#45;&#45;&#45;&#45;&#45;&#45;&#45;&#45;&#45;&#45;&#45;&#45;&#45;&#45;&#45;&#45;&#45;&#45;&#45;&#45;&#45;&#45;&#45;&#45;&#45;&#45;&#45;&#45;&#13;&#45;&#45;&#45;&#45;&#45;&#45;&#45;&#45;&#45;&#45;&#45;&#45;&#45;&#45;&#45;&#45;&#45;&#45;&#45;&#45;&#45;&#45;&#45;&#45;&#45;&#45;&#45;&#45;&#45;&#45;&#45;&#45;&#45;&#45;&#45;&#45;&#45;&#45;&#45;&#45;&#45;&#45;&#45;&#45;&#45;&#45;&#45;&#45;&#45;&#45;&#45;&#45;&#45;&#45;&#45;&#45;&#45;&#45;&#45;&#45;&#45;&#45;&#45;&#45;&#45;&#45;&#45;&#45;&#45;&#45;&#45;&#45;&#45;&#45;&#45;&#45;&#45;&#45;&#45;&#45;&#13;an abstract class for curved two&#45;dimensional shapes.&#13;Trait TComparable applied here because we wanted to have type&#45;checking through parameters. For example, curved shapes can only be accepted in the related methods.&#13;">
<text text-anchor="start" x="151.2861" y="-233.8" font-family="Times,serif" font-size="14.00" fill="#000000"> &#160;&#160;&#160;CurvedShape &#160;&#160;&#160;</text>
<text text-anchor="start" x="174.2344" y="-211.8" font-family="Times,serif" font-size="14.00" fill="#000000">«abstract»</text>
<polygon fill="none" stroke="#000000" points="146,-204 146,-250 259,-250 259,-204 146,-204"/>
</a>
</g>
</g>
<!-- CurvedShape&#45;&gt;Shape2D -->
<g id="edge8" class="edge">
<title>CurvedShape&#45;&gt;Shape2D</title>
<path fill="none" stroke="#000000" d="M259.2433,-239.7295C323.5716,-254.1606 423.6402,-276.6094 455.442,-283.7436"/>
<polygon fill="none" stroke="#000000" points="454.9764,-287.2261 465.5,-286 456.5087,-280.3959 454.9764,-287.2261"/>
</g>
<!-- Polygon -->
<g id="node10" class="node">
<title>Polygon</title>
<g id="a_node10"><a xlink:href="javascript:Action.selectClass(&quot;Polygon&quot;);" xlink:title="class Polygon&#10;an abstract class for polygon.&#13;Trait TComparable applied here because we wanted to have type&#45;checking through parameters. For example, polygon shapes can only be accepted in the related methods.&#13;">
<text text-anchor="start" x="452.1621" y="-233.8" font-family="Times,serif" font-size="14.00" fill="#000000"> &#160;&#160;&#160;Polygon &#160;&#160;&#160;</text>
<text text-anchor="start" x="460.7344" y="-211.8" font-family="Times,serif" font-size="14.00" fill="#000000">«abstract»</text>
<polygon fill="none" stroke="#000000" points="447.5,-204 447.5,-250 531.5,-250 531.5,-204 447.5,-204"/>
</a>
</g>
</g>
<!-- Polygon&#45;&gt;Shape2D -->
<g id="edge9" class="edge">
<title>Polygon&#45;&gt;Shape2D</title>
<path fill="none" stroke="#000000" d="M480.0146,-250.3184C476.2935,-259.466 472.2347,-269.4439 469.3577,-276.5165"/>
<polygon fill="none" stroke="#000000" points="466.026,-275.4182 465.5,-286 472.5101,-278.0559 466.026,-275.4182"/>
</g>
<!-- Polygon&#45;&gt;Point -->
<g id="edge26" class="edge">
<title>Polygon&#45;&gt;Point</title>
<g id="a_edge26"><a xlink:title="Polygon 0..1 &#160;&#45;&gt; 3..* vertices Point">
<path fill="none" stroke="#000000" d="M530.5437,-250.1986C550.7688,-261.6302 575.4085,-275.557 597.0831,-287.8078"/>
<polygon fill="#000000" stroke="#000000" points="605.8538,-292.7652 594.9339,-291.7621 601.501,-290.3049 597.1482,-287.8446 597.1482,-287.8446 597.1482,-287.8446 601.501,-290.3049 599.3624,-283.927 605.8538,-292.7652 605.8538,-292.7652"/>
</a>
</g>
<text text-anchor="middle" x="571.8382" y="-281.5652" font-family="Times,serif" font-size="14.00" fill="#000000">3..* vertices</text>
<text text-anchor="middle" x="518.2937" y="-252.9986" font-family="Times,serif" font-size="14.00" fill="#000000">0..1 </text>
</g>
<!-- Polyhedra -->
<g id="node11" class="node">
<title>Polyhedra</title>
<g id="a_node11"><a xlink:href="javascript:Action.selectClass(&quot;Polyhedra&quot;);" xlink:title="class Polyhedra&#10;three&#45;dimensional shapes that must have flat faces.&#13;an abstract class for Polyhedra.&#13;Trait TComparable applied here because we wanted to have type&#45;checking through parameters. For example, polyhedra shapes can only be accepted in the related methods.&#13;">
<text text-anchor="start" x="718.1172" y="-233.8" font-family="Times,serif" font-size="14.00" fill="#000000"> &#160;&#160;&#160;Polyhedra &#160;&#160;&#160;</text>
<text text-anchor="start" x="731.7344" y="-211.8" font-family="Times,serif" font-size="14.00" fill="#000000">«abstract»</text>
<polygon fill="none" stroke="#000000" points="713.5,-204 713.5,-250 807.5,-250 807.5,-204 713.5,-204"/>
</a>
</g>
</g>
<!-- Polyhedra&#45;&gt;Shape3D -->
<g id="edge10" class="edge">
<title>Polyhedra&#45;&gt;Shape3D</title>
<path fill="none" stroke="#000000" d="M771.1711,-250.3184C775.4163,-259.5948 780.0522,-269.7252 783.2961,-276.8136"/>
<polygon fill="none" stroke="#000000" points="780.1561,-278.3634 787.5,-286 786.5213,-275.4505 780.1561,-278.3634"/>
</g>
<!-- Polyhedra&#45;&gt;Point -->
<g id="edge27" class="edge">
<title>Polyhedra&#45;&gt;Point</title>
<g id="a_edge27"><a xlink:title="Polyhedra 0..1 &#160;&#45;&gt; * vertices Point">
<path fill="none" stroke="#000000" d="M732.4577,-250.1986C720.9664,-259.7051 707.3892,-270.9371 694.6258,-281.4959"/>
<polygon fill="#000000" stroke="#000000" points="686.8099,-287.9618 691.6466,-278.1202 690.6624,-284.7747 694.515,-281.5876 694.515,-281.5876 694.515,-281.5876 690.6624,-284.7747 697.3834,-285.0549 686.8099,-287.9618 686.8099,-287.9618"/>
</a>
</g>
<text text-anchor="middle" x="659.7942" y="-276.7618" font-family="Times,serif" font-size="14.00" fill="#000000">* vertices</text>
<text text-anchor="middle" x="720.2077" y="-252.9986" font-family="Times,serif" font-size="14.00" fill="#000000">0..1 </text>
</g>
<!-- NonPolyhedra -->
<g id="node12" class="node">
<title>NonPolyhedra</title>
<g id="a_node12"><a xlink:href="javascript:Action.selectClass(&quot;NonPolyhedra&quot;);" xlink:title="class NonPolyhedra&#10;three&#45;dimensional shapes that don&#39;t have any flat surface&#13;an abstract class for non&#45;polyhedra shapes.&#13;Trait TComparable applied here because we wanted to have type&#45;checking through parameters. For example, non&#45;polyhedra shapes can only be accepted in related methods.&#13;">
<text text-anchor="start" x="1206.062" y="-233.8" font-family="Times,serif" font-size="14.00" fill="#000000"> &#160;&#160;&#160;NonPolyhedra &#160;&#160;&#160;</text>
<text text-anchor="start" x="1231.7344" y="-211.8" font-family="Times,serif" font-size="14.00" fill="#000000">«abstract»</text>
<polygon fill="none" stroke="#000000" points="1201.5,-204 1201.5,-250 1319.5,-250 1319.5,-204 1201.5,-204"/>
</a>
</g>
</g>
<!-- NonPolyhedra&#45;&gt;Shape3D -->
<g id="edge11" class="edge">
<title>NonPolyhedra&#45;&gt;Shape3D</title>
<path fill="none" stroke="#000000" d="M1201.0732,-234.4127C1088.178,-248.4947 849.322,-278.2886 797.5385,-284.7478"/>
<polygon fill="none" stroke="#000000" points="796.9899,-281.2891 787.5,-286 797.8564,-288.2352 796.9899,-281.2891"/>
</g>
<!-- Circle -->
<g id="node13" class="node">
<title>Circle</title>
<g id="a_node13"><a xlink:href="javascript:Action.selectClass(&quot;Circle&quot;);" xlink:title="class Circle&#10;&#45;&#45;&#45;&#45;&#45;&#45;&#45;&#45;&#45;&#45;&#45;&#45;&#45;&#45;&#45;&#45;&#45;&#45;&#45;&#45;&#45;&#45;&#45;&#45;&#45;&#45;&#45;&#45;&#45;&#45;&#45;&#45;&#45;&#45;&#45;&#45;&#45;&#45;&#45;&#45;&#45;&#45;&#45;&#45;&#45;&#45;&#45;&#45;&#45;&#45;&#45;&#45;&#45;&#45;&#45;&#45;&#45;&#45;&#45;&#45;&#45;&#45;&#45;&#45;&#45;&#45;&#45;&#45;&#45;&#45;&#45;&#45;&#45;&#45;&#45;&#45;&#45;&#45;&#45;&#45;&#13;&#45;&#45;&#45;&#45;&#45;&#45;&#45;&#45;&#45;&#45;&#45;&#45;&#45;&#45;&#45;&#45;&#45;&#45;&#45;&#45;&#45;&#45;&#45;&#45;&#45;&#45;&#45;&#45;&#45;&#45;&#45;&#45;&#45;&#45;&#45;&#45;&#45;&#45;&#45;&#45;&#45;&#45;&#45;&#45;&#45;&#45;&#45;&#45;&#45;&#45;&#45;&#45;&#45;&#45;&#45;&#45;&#45;&#45;&#45;&#45;&#45;&#45;&#45;&#45;&#45;&#45;&#45;&#45;&#45;&#45;&#45;&#45;&#45;&#45;&#45;&#45;&#45;&#45;&#45;&#45;&#13;">
<text text-anchor="start" x="171.3965" y="-124.8" font-family="Times,serif" font-size="14.00" fill="#000000"> &#160;&#160;&#160;Circle &#160;&#160;&#160;</text>
<g id="a_node13_8"><a xlink:href="javascript:Action.selectClass(&quot;Circle&quot;);" xlink:title="Double radius&#13;">
<text text-anchor="start" x="152.3413" y="-104.8" font-family="Times,serif" font-size="14.00" fill="#000000"> &#160;radius : Double &#160;</text>
</a>
</g>
<polygon fill="#000000" stroke="#000000" points="149.5,-118 149.5,-118 255.5,-118 255.5,-118 149.5,-118"/>
<polygon fill="none" stroke="#000000" points="149.5,-99 149.5,-141 255.5,-141 255.5,-99 149.5,-99"/>
</a>
</g>
</g>
<!-- Circle&#45;&gt;CurvedShape -->
<g id="edge12" class="edge">
<title>Circle&#45;&gt;CurvedShape</title>
<path fill="none" stroke="#000000" d="M199.7242,-141.1967C197.5094,-158.1103 194.5059,-181.0455 192.8091,-194.0031"/>
<polygon fill="none" stroke="#000000" points="189.3282,-193.6302 191.5,-204 196.2689,-194.5391 189.3282,-193.6302"/>
</g>
<!-- Ellipse -->
<g id="node14" class="node">
<title>Ellipse</title>
<g id="a_node14"><a xlink:href="javascript:Action.selectClass(&quot;Ellipse&quot;);" xlink:title="class Ellipse&#10;">
<text text-anchor="start" x="32.5586" y="-151.8" font-family="Times,serif" font-size="14.00" fill="#000000"> &#160;&#160;&#160;Ellipse &#160;&#160;&#160;</text>
<g id="a_node14_9"><a xlink:href="javascript:Action.selectClass(&quot;Ellipse&quot;);" xlink:title="Double majorAxis&#13;">
<text text-anchor="start" x="3.3965" y="-131.8" font-family="Times,serif" font-size="14.00" fill="#000000"> &#160;majorAxis : Double &#160;</text>
</a>
</g>
<g id="a_node14_10"><a xlink:href="javascript:Action.selectClass(&quot;Ellipse&quot;);" xlink:title="Double minorAxis&#13;">
<text text-anchor="start" x="3.0034" y="-113.8" font-family="Times,serif" font-size="14.00" fill="#000000"> &#160;minorAxis : Double &#160;</text>
</a>
</g>
<g id="a_node14_11"><a xlink:href="javascript:Action.selectClass(&quot;Ellipse&quot;);" xlink:title="Point fFocus&#13;">
<text text-anchor="start" x="3.5" y="-95.8" font-family="Times,serif" font-size="14.00" fill="#000000"> &#160;fFocus : Point &#160;</text>
</a>
</g>
<g id="a_node14_12"><a xlink:href="javascript:Action.selectClass(&quot;Ellipse&quot;);" xlink:title="Point gFocus&#13;">
<text text-anchor="start" x="3.5" y="-77.8" font-family="Times,serif" font-size="14.00" fill="#000000"> &#160;gFocus : Point &#160;</text>
</a>
</g>
<polygon fill="#000000" stroke="#000000" points=".5,-145 .5,-145 131.5,-145 131.5,-145 .5,-145"/>
<polygon fill="none" stroke="#000000" points="0,-72 0,-168 131,-168 131,-72 0,-72"/>
</a>
</g>
</g>
<!-- Ellipse&#45;&gt;CurvedShape -->
<g id="edge13" class="edge">
<title>Ellipse&#45;&gt;CurvedShape</title>
<path fill="none" stroke="#000000" d="M131.0833,-163.7222C151.6533,-177.4355 171.8554,-190.9036 182.8984,-198.2656"/>
<polygon fill="none" stroke="#000000" points="181.238,-201.3651 191.5,-204 185.1209,-195.5408 181.238,-201.3651"/>
</g>
<!-- Quadrilateral -->
<g id="node15" class="node">
<title>Quadrilateral</title>
<g id="a_node15"><a xlink:href="javascript:Action.selectClass(&quot;Quadrilateral&quot;);" xlink:title="class Quadrilateral&#10;">
<text text-anchor="start" x="285.0757" y="-115.8" font-family="Times,serif" font-size="14.00" fill="#000000"> &#160;&#160;&#160;Quadrilateral &#160;&#160;&#160;</text>
<polygon fill="none" stroke="#000000" points="274,-102 274,-138 397,-138 397,-102 274,-102"/>
</a>
</g>
</g>
<!-- Quadrilateral&#45;&gt;Polygon -->
<g id="edge14" class="edge">
<title>Quadrilateral&#45;&gt;Polygon</title>
<path fill="none" stroke="#000000" d="M360.6349,-138.1194C373.9969,-147.4612 390.8552,-158.7941 406.5,-168 427.9402,-180.6161 454.3314,-193.2887 468.1116,-199.7011"/>
<polygon fill="none" stroke="#000000" points="466.9507,-203.0189 477.5,-204 469.865,-196.6544 466.9507,-203.0189"/>
</g>
<!-- Rectangle -->
<g id="node16" class="node">
<title>Rectangle</title>
<g id="a_node16"><a xlink:href="javascript:Action.selectClass(&quot;Rectangle&quot;);" xlink:title="class Rectangle&#10;">
<text text-anchor="start" x="294.0137" y="-13.8" font-family="Times,serif" font-size="14.00" fill="#000000"> &#160;&#160;&#160;Rectangle &#160;&#160;&#160;</text>
<polygon fill="none" stroke="#000000" points="283,0 283,-36 388,-36 388,0 283,0"/>
</a>
</g>
</g>
<!-- Rectangle&#45;&gt;Quadrilateral -->
<g id="edge15" class="edge">
<title>Rectangle&#45;&gt;Quadrilateral</title>
<path fill="none" stroke="#000000" d="M335.5,-36.2356C335.5,-51.683 335.5,-74.0851 335.5,-91.836"/>
<polygon fill="none" stroke="#000000" points="332.0001,-91.9223 335.5,-101.9223 339.0001,-91.9224 332.0001,-91.9223"/>
</g>
<!-- ArbitraryPolygon -->
<g id="node17" class="node">
<title>ArbitraryPolygon</title>
<g id="a_node17"><a xlink:href="javascript:Action.selectClass(&quot;ArbitraryPolygon&quot;);" xlink:title="class ArbitraryPolygon&#10;">
<text text-anchor="start" x="426.5" y="-115.8" font-family="Times,serif" font-size="14.00" fill="#000000"> &#160;&#160;&#160;ArbitraryPolygon &#160;&#160;&#160;</text>
<polygon fill="none" stroke="#000000" points="415.5,-102 415.5,-138 563.5,-138 563.5,-102 415.5,-102"/>
</a>
</g>
</g>
<!-- ArbitraryPolygon&#45;&gt;Polygon -->
<g id="edge16" class="edge">
<title>ArbitraryPolygon&#45;&gt;Polygon</title>
<path fill="none" stroke="#000000" d="M486.8962,-138.2267C484.4698,-155.2115 480.9385,-179.9303 478.9684,-193.721"/>
<polygon fill="none" stroke="#000000" points="475.4495,-193.6055 477.5,-204 482.3791,-194.5955 475.4495,-193.6055"/>
</g>
<!-- Sphere -->
<g id="node18" class="node">
<title>Sphere</title>
<g id="a_node18"><a xlink:href="javascript:Action.selectClass(&quot;Sphere&quot;);" xlink:title="class Sphere&#10;">
<text text-anchor="start" x="1227.062" y="-124.8" font-family="Times,serif" font-size="14.00" fill="#000000"> &#160;&#160;&#160;Sphere &#160;&#160;&#160;</text>
<g id="a_node18_13"><a xlink:href="javascript:Action.selectClass(&quot;Sphere&quot;);" xlink:title="Double radius&#13;">
<text text-anchor="start" x="1210.3413" y="-104.8" font-family="Times,serif" font-size="14.00" fill="#000000"> &#160;radius : Double &#160;</text>
</a>
</g>
<polygon fill="#000000" stroke="#000000" points="1207.5,-118 1207.5,-118 1313.5,-118 1313.5,-118 1207.5,-118"/>
<polygon fill="none" stroke="#000000" points="1207.5,-99 1207.5,-141 1313.5,-141 1313.5,-99 1207.5,-99"/>
</a>
</g>
</g>
<!-- Sphere&#45;&gt;NonPolyhedra -->
<g id="edge17" class="edge">
<title>Sphere&#45;&gt;NonPolyhedra</title>
<path fill="none" stroke="#000000" d="M1262.5187,-141.1967C1264.1296,-158.1103 1266.3139,-181.0455 1267.5479,-194.0031"/>
<polygon fill="none" stroke="#000000" points="1264.0676,-194.3769 1268.5,-204 1271.0361,-193.7132 1264.0676,-194.3769"/>
</g>
<!-- Torus -->
<g id="node19" class="node">
<title>Torus</title>
<g id="a_node19"><a xlink:href="javascript:Action.selectClass(&quot;Torus&quot;);" xlink:title="class Torus&#10;">
<text text-anchor="start" x="1362.7808" y="-151.8" font-family="Times,serif" font-size="14.00" fill="#000000"> &#160;&#160;&#160;Torus &#160;&#160;&#160;</text>
<g id="a_node19_14"><a xlink:href="javascript:Action.selectClass(&quot;Torus&quot;);" xlink:title="Double radius_r&#13;">
<text text-anchor="start" x="1334.5" y="-131.8" font-family="Times,serif" font-size="14.00" fill="#000000"> &#160;radius_r : Double &#160;</text>
</a>
</g>
<g id="a_node19_15"><a xlink:href="javascript:Action.selectClass(&quot;Torus&quot;);" xlink:title="Double radius_R&#13;">
<text text-anchor="start" x="1334.1724" y="-113.8" font-family="Times,serif" font-size="14.00" fill="#000000"> &#160;radius_R : Double &#160;</text>
</a>
</g>
<g id="a_node19_16"><a xlink:href="javascript:Action.selectClass(&quot;Torus&quot;);" xlink:title="Double theta&#13;">
<text text-anchor="start" x="1334.5" y="-95.8" font-family="Times,serif" font-size="14.00" fill="#000000"> &#160;theta : Double &#160;</text>
</a>
</g>
<g id="a_node19_17"><a xlink:href="javascript:Action.selectClass(&quot;Torus&quot;);" xlink:title="Double phi&#13;">
<text text-anchor="start" x="1334.5" y="-77.8" font-family="Times,serif" font-size="14.00" fill="#000000"> &#160;phi : Double &#160;</text>
</a>
</g>
<polygon fill="#000000" stroke="#000000" points="1331.5,-145 1331.5,-145 1453.5,-145 1453.5,-145 1331.5,-145"/>
<polygon fill="none" stroke="#000000" points="1331.5,-72 1331.5,-168 1453.5,-168 1453.5,-72 1331.5,-72"/>
</a>
</g>
</g>
<!-- Torus&#45;&gt;NonPolyhedra -->
<g id="edge18" class="edge">
<title>Torus&#45;&gt;NonPolyhedra</title>
<path fill="none" stroke="#000000" d="M1331.4487,-161.9328C1328.4253,-163.9878 1325.4297,-166.0191 1322.5,-168 1306.4456,-178.8552 1287.5878,-191.3747 1276.9409,-198.4219"/>
<polygon fill="none" stroke="#000000" points="1274.9132,-195.5666 1268.5,-204 1278.7726,-201.4067 1274.9132,-195.5666"/>
</g>
<!-- Cylinder -->
<g id="node20" class="node">
<title>Cylinder</title>
<g id="a_node20"><a xlink:href="javascript:Action.selectClass(&quot;Cylinder&quot;);" xlink:title="class Cylinder&#10;">
<text text-anchor="start" x="1487.5034" y="-133.8" font-family="Times,serif" font-size="14.00" fill="#000000"> &#160;&#160;&#160;Cylinder &#160;&#160;&#160;</text>
<g id="a_node20_18"><a xlink:href="javascript:Action.selectClass(&quot;Cylinder&quot;);" xlink:title="Double radius&#13;">
<text text-anchor="start" x="1475.5" y="-113.8" font-family="Times,serif" font-size="14.00" fill="#000000"> &#160;radius : Double &#160;</text>
</a>
</g>
<g id="a_node20_19"><a xlink:href="javascript:Action.selectClass(&quot;Cylinder&quot;);" xlink:title="Double height&#13;">
<text text-anchor="start" x="1475.4517" y="-95.8" font-family="Times,serif" font-size="14.00" fill="#000000"> &#160;height : Double &#160;</text>
</a>
</g>
<polygon fill="#000000" stroke="#000000" points="1472.5,-127 1472.5,-127 1579.5,-127 1579.5,-127 1472.5,-127"/>
<polygon fill="none" stroke="#000000" points="1472,-90 1472,-150 1579,-150 1579,-90 1472,-90"/>
</a>
</g>
</g>
<!-- Cylinder&#45;&gt;NonPolyhedra -->
<g id="edge19" class="edge">
<title>Cylinder&#45;&gt;NonPolyhedra</title>
<path fill="none" stroke="#000000" d="M1492.0365,-150.0474C1482.976,-156.8634 1472.8078,-163.4304 1462.5,-168 1396.7359,-197.154 1308.321,-202.7021 1278.6702,-203.7546"/>
<polygon fill="none" stroke="#000000" points="1278.4126,-200.2597 1268.5,-204 1278.5816,-207.2577 1278.4126,-200.2597"/>
</g>
<!-- Cone -->
<g id="node21" class="node">
<title>Cone</title>
<g id="a_node21"><a xlink:href="javascript:Action.selectClass(&quot;Cone&quot;);" xlink:title="class Cone&#10;">
<text text-anchor="start" x="1093.7241" y="-142.8" font-family="Times,serif" font-size="14.00" fill="#000000"> &#160;&#160;&#160;Cone &#160;&#160;&#160;</text>
<g id="a_node21_20"><a xlink:href="javascript:Action.selectClass(&quot;Cone&quot;);" xlink:title="Double radius&#13;">
<text text-anchor="start" x="1058.5" y="-122.8" font-family="Times,serif" font-size="14.00" fill="#000000"> &#160;radius : Double &#160;</text>
</a>
</g>
<g id="a_node21_21"><a xlink:href="javascript:Action.selectClass(&quot;Cone&quot;);" xlink:title="Double height&#13;">
<text text-anchor="start" x="1058.5" y="-104.8" font-family="Times,serif" font-size="14.00" fill="#000000"> &#160;height : Double &#160;</text>
</a>
</g>
<g id="a_node21_22"><a xlink:href="javascript:Action.selectClass(&quot;Cone&quot;);" xlink:title="Double sideLength&#13;">
<text text-anchor="start" x="1058.3447" y="-86.8" font-family="Times,serif" font-size="14.00" fill="#000000"> &#160;sideLength : Double &#160;</text>
</a>
</g>
<polygon fill="#000000" stroke="#000000" points="1055.5,-136 1055.5,-136 1189.5,-136 1189.5,-136 1055.5,-136"/>
<polygon fill="none" stroke="#000000" points="1055.5,-81 1055.5,-159 1189.5,-159 1189.5,-81 1055.5,-81"/>
</a>
</g>
</g>
<!-- Cone&#45;&gt;NonPolyhedra -->
<g id="edge20" class="edge">
<title>Cone&#45;&gt;NonPolyhedra</title>
<path fill="none" stroke="#000000" d="M1183.6068,-159.2436C1188.6134,-162.2599 1193.6222,-165.2126 1198.5,-168 1219.8571,-180.2046 1245.7877,-193.0443 1259.3017,-199.5923"/>
<polygon fill="none" stroke="#000000" points="1257.9694,-202.8349 1268.5,-204 1260.9944,-196.5222 1257.9694,-202.8349"/>
</g>
<!-- Cube -->
<g id="node22" class="node">
<title>Cube</title>
<g id="a_node22"><a xlink:href="javascript:Action.selectClass(&quot;Cube&quot;);" xlink:title="class Cube&#10;">
<text text-anchor="start" x="783.7241" y="-124.8" font-family="Times,serif" font-size="14.00" fill="#000000"> &#160;&#160;&#160;Cube &#160;&#160;&#160;</text>
<g id="a_node22_23"><a xlink:href="javascript:Action.selectClass(&quot;Cube&quot;);" xlink:title="Double edgeLength&#13;">
<text text-anchor="start" x="746.4067" y="-104.8" font-family="Times,serif" font-size="14.00" fill="#000000"> &#160;edgeLength : Double &#160;</text>
</a>
</g>
<polygon fill="#000000" stroke="#000000" points="743.5,-118 743.5,-118 881.5,-118 881.5,-118 743.5,-118"/>
<polygon fill="none" stroke="#000000" points="743.5,-99 743.5,-141 881.5,-141 881.5,-99 743.5,-99"/>
</a>
</g>
</g>
<!-- Cube&#45;&gt;Polyhedra -->
<g id="edge21" class="edge">
<title>Cube&#45;&gt;Polyhedra</title>
<path fill="none" stroke="#000000" d="M801.1446,-141.1967C791.8755,-158.4991 779.2304,-182.1032 772.3853,-194.8807"/>
<polygon fill="none" stroke="#000000" points="769.1371,-193.5324 767.5,-204 775.3074,-196.838 769.1371,-193.5324"/>
</g>
<!-- RectangularPrism -->
<g id="node23" class="node">
<title>RectangularPrism</title>
<g id="a_node23"><a xlink:href="javascript:Action.selectClass(&quot;RectangularPrism&quot;);" xlink:title="class RectangularPrism&#10;">
<text text-anchor="start" x="904.3447" y="-142.8" font-family="Times,serif" font-size="14.00" fill="#000000"> &#160;&#160;&#160;RectangularPrism &#160;&#160;&#160;</text>
<g id="a_node23_24"><a xlink:href="javascript:Action.selectClass(&quot;RectangularPrism&quot;);" xlink:title="Double length&#13;">
<text text-anchor="start" x="902.5" y="-122.8" font-family="Times,serif" font-size="14.00" fill="#000000"> &#160;length : Double &#160;</text>
</a>
</g>
<g id="a_node23_25"><a xlink:href="javascript:Action.selectClass(&quot;RectangularPrism&quot;);" xlink:title="Double width&#13;">
<text text-anchor="start" x="902.5" y="-104.8" font-family="Times,serif" font-size="14.00" fill="#000000"> &#160;width : Double &#160;</text>
</a>
</g>
<g id="a_node23_26"><a xlink:href="javascript:Action.selectClass(&quot;RectangularPrism&quot;);" xlink:title="Double height&#13;">
<text text-anchor="start" x="902.5" y="-86.8" font-family="Times,serif" font-size="14.00" fill="#000000"> &#160;height : Double &#160;</text>
</a>
</g>
<polygon fill="#000000" stroke="#000000" points="899.5,-136 899.5,-136 1037.5,-136 1037.5,-136 899.5,-136"/>
<polygon fill="none" stroke="#000000" points="899.5,-81 899.5,-159 1037.5,-159 1037.5,-81 899.5,-81"/>
</a>
</g>
</g>
<!-- RectangularPrism&#45;&gt;Polyhedra -->
<g id="edge22" class="edge">
<title>RectangularPrism&#45;&gt;Polyhedra</title>
<path fill="none" stroke="#000000" d="M908.4671,-159.0987C902.5072,-162.3218 896.4574,-165.3525 890.5,-168 850.2414,-185.8912 798.6786,-197.6423 777.3806,-202.0487"/>
<polygon fill="none" stroke="#000000" points="776.6324,-198.6288 767.5,-204 777.9887,-205.4962 776.6324,-198.6288"/>
</g>
<!-- TriangularPyramid -->
<g id="node24" class="node">
<title>TriangularPyramid</title>
<g id="a_node24"><a xlink:href="javascript:Action.selectClass(&quot;TriangularPyramid&quot;);" xlink:title="class TriangularPyramid&#10;">
<text text-anchor="start" x="587.1035" y="-133.8" font-family="Times,serif" font-size="14.00" fill="#000000"> &#160;&#160;&#160;TriangularPyramid &#160;&#160;&#160;</text>
<g id="a_node24_27"><a xlink:href="javascript:Action.selectClass(&quot;TriangularPyramid&quot;);" xlink:title="Double slideLength&#13;">
<text text-anchor="start" x="585.5" y="-113.8" font-family="Times,serif" font-size="14.00" fill="#000000"> &#160;slideLength : Double &#160;</text>
</a>
</g>
<g id="a_node24_28"><a xlink:href="javascript:Action.selectClass(&quot;TriangularPyramid&quot;);" xlink:title="Double height&#13;">
<text text-anchor="start" x="585.5" y="-95.8" font-family="Times,serif" font-size="14.00" fill="#000000"> &#160;height : Double &#160;</text>
</a>
</g>
<polygon fill="#000000" stroke="#000000" points="582.5,-127 582.5,-127 725.5,-127 725.5,-127 582.5,-127"/>
<polygon fill="none" stroke="#000000" points="582,-90 582,-150 725,-150 725,-90 582,-90"/>
</a>
</g>
</g>
<!-- TriangularPyramid&#45;&gt;Polyhedra -->
<g id="edge23" class="edge">
<title>TriangularPyramid&#45;&gt;Polyhedra</title>
<path fill="none" stroke="#000000" d="M694.3346,-150.0887C718.1013,-167.6009 745.9555,-188.1251 759.4113,-198.0399"/>
<polygon fill="none" stroke="#000000" points="757.3732,-200.8857 767.5,-204 761.5256,-195.2503 757.3732,-200.8857"/>
</g>
</g>
</svg>
