<?xml version="1.0" encoding="UTF-8" standalone="no"?>
<!DOCTYPE svg PUBLIC "-//W3C//DTD SVG 1.1//EN"
 "http://www.w3.org/Graphics/SVG/1.1/DTD/svg11.dtd">
<!-- Generated by graphviz version 2.29.20121108.1600 (20121108.1600)
 -->
<!-- Title: Hotel Pages: 1 -->
<svg width="626pt" height="560pt"
 viewBox="0.00 0.00 626.26 560.00" xmlns="http://www.w3.org/2000/svg" xmlns:xlink="http://www.w3.org/1999/xlink">
<g id="graph0" class="graph" transform="scale(1 1) rotate(0) translate(4 556)">
<title>Hotel</title>
<polygon fill="white" stroke="white" points="-4,5 -4,-556 623.256,-556 623.256,5 -4,5"/>
<!-- HotelCompany -->
<g id="node1" class="node"><title>HotelCompany</title>
<g id="a_node1"><a xlink:href="javascript:Action.selectClass(&quot;HotelCompany&quot;);" xlink:title="class HotelCompany
">
<polygon fill="none" stroke="black" points="0.227539,-1.2 0.227539,-50.8 101.772,-50.8 101.772,-1.2 0.227539,-1.2"/>
<text text-anchor="middle" x="51" y="-32.8" font-family="Times,serif" font-size="14.00">HotelCompany</text>
<polyline fill="none" stroke="black" points="0.227539,-26 101.772,-26 "/>
<text text-anchor="start" x="8.22754" y="-8" font-family="Times,serif" font-size="14.00">name : String</text>
</a>
</g>
</g>
<!-- Hotel -->
<g id="node2" class="node"><title>Hotel</title>
<g id="a_node2"><a xlink:href="javascript:Action.selectClass(&quot;Hotel&quot;);" xlink:title="class Hotel
">
<polygon fill="none" stroke="black" points="-0.551758,-96.8 -0.551758,-163.2 102.552,-163.2 102.552,-96.8 -0.551758,-96.8"/>
<text text-anchor="middle" x="51" y="-145.2" font-family="Times,serif" font-size="14.00">Hotel</text>
<polyline fill="none" stroke="black" points="-0.551758,-138.4 102.552,-138.4 "/>
<text text-anchor="start" x="7.44824" y="-120.4" font-family="Times,serif" font-size="14.00">name : String</text>
<text text-anchor="start" x="7.44824" y="-103.6" font-family="Times,serif" font-size="14.00">address : String</text>
</a>
</g>
</g>
<!-- HotelCompany&#45;&gt;Hotel -->
<g id="edge4" class="edge"><title>HotelCompany&#45;&gt;Hotel</title>
<path fill="none" stroke="black" d="M51,-50.9145C51,-64.5753 51,-81.8887 51,-96.7397"/>
<text text-anchor="middle" x="30.9707" y="-82.7397" font-family="Times,serif" font-size="14.00">* owns</text>
<text text-anchor="middle" x="45.75" y="-53.7145" font-family="Times,serif" font-size="14.00">1 </text>
</g>
<!-- RentableSpace -->
<g id="node5" class="node"><title>RentableSpace</title>
<g id="a_node5"><a xlink:href="javascript:Action.selectClass(&quot;RentableSpace&quot;);" xlink:title="class RentableSpace
">
<polygon fill="none" stroke="black" points="213.172,-208.8 213.172,-275.2 338.828,-275.2 338.828,-208.8 213.172,-208.8"/>
<text text-anchor="middle" x="276" y="-257.2" font-family="Times,serif" font-size="14.00">RentableSpace</text>
<polyline fill="none" stroke="black" points="213.172,-250.4 338.828,-250.4 "/>
<text text-anchor="start" x="221.172" y="-232.4" font-family="Times,serif" font-size="14.00">costPerDay : String</text>
<text text-anchor="start" x="221.172" y="-215.6" font-family="Times,serif" font-size="14.00">floorArea : String</text>
</a>
</g>
</g>
<!-- Hotel&#45;&gt;RentableSpace -->
<g id="edge5" class="edge"><title>Hotel&#45;&gt;RentableSpace</title>
<path fill="none" stroke="black" d="M97.049,-163.296C102.015,-166.371 107.059,-169.333 112,-172 144.346,-189.462 182.058,-205.599 213.157,-217.87"/>
<text text-anchor="middle" x="207.907" y="-203.87" font-family="Times,serif" font-size="14.00">* </text>
<text text-anchor="middle" x="91.799" y="-166.096" font-family="Times,serif" font-size="14.00">1 </text>
</g>
<!-- ItemOnBill -->
<g id="node3" class="node"><title>ItemOnBill</title>
<g id="a_node3"><a xlink:href="javascript:Action.selectClass(&quot;ItemOnBill&quot;);" xlink:title="class ItemOnBill
">
<polygon fill="none" stroke="black" points="356.338,-484.8 356.338,-551.2 479.662,-551.2 479.662,-484.8 356.338,-484.8"/>
<text text-anchor="middle" x="418" y="-533.2" font-family="Times,serif" font-size="14.00">ItemOnBill</text>
<polyline fill="none" stroke="black" points="356.338,-526.4 479.662,-526.4 "/>
<text text-anchor="start" x="364.338" y="-508.4" font-family="Times,serif" font-size="14.00">description : String</text>
<text text-anchor="start" x="364.338" y="-491.6" font-family="Times,serif" font-size="14.00">charge : String</text>
</a>
</g>
</g>
<!-- Booking -->
<g id="node4" class="node"><title>Booking</title>
<g id="a_node4"><a xlink:href="javascript:Action.selectClass(&quot;Booking&quot;);" xlink:title="class Booking
">
<polygon fill="none" stroke="black" points="334.176,-313.2 334.176,-446.8 501.824,-446.8 501.824,-313.2 334.176,-313.2"/>
<text text-anchor="middle" x="418" y="-428.8" font-family="Times,serif" font-size="14.00">Booking</text>
<polyline fill="none" stroke="black" points="334.176,-422 501.824,-422 "/>
<text text-anchor="start" x="342.176" y="-404" font-family="Times,serif" font-size="14.00">startDate : String</text>
<text text-anchor="start" x="342.176" y="-387.2" font-family="Times,serif" font-size="14.00">endDate : String</text>
<text text-anchor="start" x="342.176" y="-370.4" font-family="Times,serif" font-size="14.00">startTime : String</text>
<text text-anchor="start" x="342.176" y="-353.6" font-family="Times,serif" font-size="14.00">endTime : String</text>
<text text-anchor="start" x="342.176" y="-336.8" font-family="Times,serif" font-size="14.00">bedroomsRequired : String</text>
<text text-anchor="start" x="342.176" y="-320" font-family="Times,serif" font-size="14.00">creditCardToBill : String</text>
</a>
</g>
</g>
<!-- Booking&#45;&gt;ItemOnBill -->
<g id="edge6" class="edge"><title>Booking&#45;&gt;ItemOnBill</title>
<path fill="none" stroke="black" d="M418,-447.008C418,-460.137 418,-473.366 418,-484.734"/>
<text text-anchor="middle" x="412.75" y="-470.734" font-family="Times,serif" font-size="14.00">* </text>
<text text-anchor="middle" x="412.75" y="-449.808" font-family="Times,serif" font-size="14.00">1 </text>
</g>
<!-- Booking&#45;&gt;Booking -->
<g id="edge7" class="edge"><title>Booking&#45;&gt;Booking</title>
<path fill="none" stroke="black" d="M501.977,-357.614C512.259,-361.622 519,-369.084 519,-380 519,-390.916 512.259,-398.378 501.977,-402.386"/>
<text text-anchor="middle" x="560.116" y="-388.386" font-family="Times,serif" font-size="14.00">* subsidiaryBooking</text>
<text text-anchor="middle" x="514.227" y="-343.614" font-family="Times,serif" font-size="14.00">0..1 </text>
</g>
<!-- RentableSpace&#45;&gt;Booking -->
<g id="edge8" class="edge"><title>RentableSpace&#45;&gt;Booking</title>
<path fill="none" stroke="black" d="M309.652,-275.23C321.544,-286.62 335.39,-299.881 349.13,-313.04"/>
<text text-anchor="middle" x="354.38" y="-299.04" font-family="Times,serif" font-size="14.00">* </text>
<text text-anchor="middle" x="304.402" y="-278.03" font-family="Times,serif" font-size="14.00">* </text>
</g>
<!-- HotelBedroom -->
<g id="node6" class="node"><title>HotelBedroom</title>
<g id="a_node6"><a xlink:href="javascript:Action.selectClass(&quot;HotelBedroom&quot;);" xlink:title="class HotelBedroom
">
<polygon fill="none" stroke="black" points="120.728,-88.4 120.728,-171.6 257.272,-171.6 257.272,-88.4 120.728,-88.4"/>
<text text-anchor="middle" x="189" y="-153.6" font-family="Times,serif" font-size="14.00">HotelBedroom</text>
<polyline fill="none" stroke="black" points="120.728,-146.8 257.272,-146.8 "/>
<text text-anchor="start" x="128.728" y="-128.8" font-family="Times,serif" font-size="14.00">roomNumber : String</text>
<text text-anchor="start" x="128.728" y="-112" font-family="Times,serif" font-size="14.00">qualityLevel : String</text>
<text text-anchor="start" x="128.728" y="-95.2" font-family="Times,serif" font-size="14.00">isSmoking : String</text>
</a>
</g>
</g>
<!-- HotelBedroom&#45;&gt;RentableSpace -->
<g id="edge1" class="edge"><title>HotelBedroom&#45;&gt;RentableSpace</title>
<path fill="none" stroke="black" d="M234.538,-171.828C247.694,-183.623 260.601,-195.194 268.432,-202.214"/>
<polygon fill="none" stroke="black" points="266.218,-204.931 276,-209 270.891,-199.719 266.218,-204.931"/>
</g>
<!-- MeetingRoom -->
<g id="node7" class="node"><title>MeetingRoom</title>
<g id="a_node7"><a xlink:href="javascript:Action.selectClass(&quot;MeetingRoom&quot;);" xlink:title="class MeetingRoom
Positioning
">
<polygon fill="none" stroke="black" points="275.514,-96.8 275.514,-163.2 452.486,-163.2 452.486,-96.8 275.514,-96.8"/>
<text text-anchor="middle" x="364" y="-145.2" font-family="Times,serif" font-size="14.00">MeetingRoom</text>
<polyline fill="none" stroke="black" points="275.514,-138.4 452.486,-138.4 "/>
<text text-anchor="start" x="283.514" y="-120.4" font-family="Times,serif" font-size="14.00">name : String</text>
<text text-anchor="start" x="283.514" y="-103.6" font-family="Times,serif" font-size="14.00">maxSeatingCapacity : String</text>
</a>
</g>
</g>
<!-- MeetingRoom&#45;&gt;RentableSpace -->
<g id="edge2" class="edge"><title>MeetingRoom&#45;&gt;RentableSpace</title>
<path fill="none" stroke="black" d="M327.445,-163.401C311.2,-177.8 293.561,-193.434 283.735,-202.144"/>
<polygon fill="none" stroke="black" points="281.162,-199.748 276,-209 285.805,-204.986 281.162,-199.748"/>
</g>
<!-- Suite -->
<g id="node8" class="node"><title>Suite</title>
<g id="a_node8"><a xlink:href="javascript:Action.selectClass(&quot;Suite&quot;);" xlink:title="class Suite
">
<polygon fill="none" stroke="black" points="470,-112 470,-148 524,-148 524,-112 470,-112"/>
<text text-anchor="middle" x="496.89" y="-124.5" font-family="Times,serif" font-size="14.00">Suite</text>
</a>
</g>
</g>
<!-- Suite&#45;&gt;RentableSpace -->
<g id="edge9" class="edge"><title>Suite&#45;&gt;RentableSpace</title>
<path fill="none" stroke="black" d="M485.375,-148.161C479.025,-156.392 470.52,-165.789 461,-172 416.5,-201.032 396.528,-188.762 347,-208 344.339,-209.034 341.637,-210.12 338.919,-211.242"/>
<text text-anchor="middle" x="344.169" y="-197.242" font-family="Times,serif" font-size="14.00">* </text>
<text text-anchor="middle" x="480.125" y="-150.961" font-family="Times,serif" font-size="14.00">1 </text>
</g>
<!-- Event -->
<g id="node9" class="node"><title>Event</title>
<g id="a_node9"><a xlink:href="javascript:Action.selectClass(&quot;Event&quot;);" xlink:title="class Event
">
<polygon fill="none" stroke="black" points="356.338,-217.2 356.338,-266.8 479.662,-266.8 479.662,-217.2 356.338,-217.2"/>
<text text-anchor="middle" x="418" y="-248.8" font-family="Times,serif" font-size="14.00">Event</text>
<polyline fill="none" stroke="black" points="356.338,-242 479.662,-242 "/>
<text text-anchor="start" x="364.338" y="-224" font-family="Times,serif" font-size="14.00">description : String</text>
</a>
</g>
</g>
<!-- Event&#45;&gt;Booking -->
<g id="edge3" class="edge"><title>Event&#45;&gt;Booking</title>
<path fill="none" stroke="black" d="M418,-267.001C418,-277.331 418,-290.036 418,-303.135"/>
<polygon fill="none" stroke="black" points="414.5,-303.196 418,-313.196 421.5,-303.196 414.5,-303.196"/>
</g>
<!-- Person -->
<g id="node10" class="node"><title>Person</title>
<g id="a_node10"><a xlink:href="javascript:Action.selectClass(&quot;Person&quot;);" xlink:title="class Person
">
<polygon fill="none" stroke="black" points="497.448,-208.8 497.448,-275.2 600.552,-275.2 600.552,-208.8 497.448,-208.8"/>
<text text-anchor="middle" x="549" y="-257.2" font-family="Times,serif" font-size="14.00">Person</text>
<polyline fill="none" stroke="black" points="497.448,-250.4 600.552,-250.4 "/>
<text text-anchor="start" x="505.448" y="-232.4" font-family="Times,serif" font-size="14.00">name : String</text>
<text text-anchor="start" x="505.448" y="-215.6" font-family="Times,serif" font-size="14.00">address : String</text>
</a>
</g>
</g>
<!-- Person&#45;&gt;Booking -->
<g id="edge10" class="edge"><title>Person&#45;&gt;Booking</title>
<path fill="none" stroke="black" d="M517.955,-275.23C506.984,-286.62 494.21,-299.881 481.535,-313.04"/>
<text text-anchor="middle" x="476.285" y="-299.04" font-family="Times,serif" font-size="14.00">* </text>
<text text-anchor="middle" x="512.705" y="-278.03" font-family="Times,serif" font-size="14.00">1 </text>
</g>
</g>
</svg>
