<?xml version="1.0" encoding="UTF-8" standalone="no"?>
<!DOCTYPE svg PUBLIC "-//W3C//DTD SVG 1.1//EN"
 "http://www.w3.org/Graphics/SVG/1.1/DTD/svg11.dtd">
<!-- Generated by graphviz version 2.39.20140502.0445 (20140502.0445)
 -->
<!-- Title: Hotel Pages: 1 -->
<svg width="630pt" height="522pt"
 viewBox="0.00 0.00 630.03 522.00" xmlns="http://www.w3.org/2000/svg" xmlns:xlink="http://www.w3.org/1999/xlink">
<g id="graph0" class="graph" transform="scale(1 1) rotate(0) translate(4 518)">
<title>Hotel</title>
<polygon fill="white" stroke="none" points="-4,4 -4,-518 626.032,-518 626.032,4 -4,4"/>
<!-- HotelCompany -->
<g id="node1" class="node"><title>HotelCompany</title>
<g id="a_node1"><a xlink:href="javascript:Action.selectClass(&quot;HotelCompany&quot;);" xlink:title="class HotelCompany
">
<polygon fill="none" stroke="black" points="1,-0.5 1,-46.5 103,-46.5 103,-0.5 1,-0.5"/>
<text text-anchor="middle" x="52" y="-31.3" font-family="Times,serif" font-size="14.00">HotelCompany</text>
<polyline fill="none" stroke="black" points="1,-23.5 103,-23.5 "/>
<text text-anchor="start" x="9" y="-8.3" font-family="Times,serif" font-size="14.00">name : String</text>
</a>
</g>
</g>
<!-- Hotel -->
<g id="node2" class="node"><title>Hotel</title>
<g id="a_node2"><a xlink:href="javascript:Action.selectClass(&quot;Hotel&quot;);" xlink:title="class Hotel
">
<polygon fill="none" stroke="black" points="0,-91 0,-152 104,-152 104,-91 0,-91"/>
<text text-anchor="middle" x="52" y="-136.8" font-family="Times,serif" font-size="14.00">Hotel</text>
<polyline fill="none" stroke="black" points="0,-129 104,-129 "/>
<text text-anchor="start" x="8" y="-113.8" font-family="Times,serif" font-size="14.00">name : String</text>
<text text-anchor="start" x="8" y="-98.8" font-family="Times,serif" font-size="14.00">address : String</text>
</a>
</g>
</g>
<!-- HotelCompany&#45;&gt;Hotel -->
<g id="edge4" class="edge"><title>HotelCompany&#45;&gt;Hotel</title>
<g id="a_edge4"><a xlink:title="HotelCompany 1 &#160;&#45;&#45; * owns Hotel">
<path fill="none" stroke="black" d="M52,-46.7656C52,-59.8375 52,-76.5246 52,-90.7169"/>
</a>
</g>
<text text-anchor="middle" x="31.5" y="-79.5169" font-family="Times,serif" font-size="14.00">* owns</text>
<text text-anchor="middle" x="46.5" y="-50.5656" font-family="Times,serif" font-size="14.00">1 </text>
</g>
<!-- RentableSpace -->
<g id="node5" class="node"><title>RentableSpace</title>
<g id="a_node5"><a xlink:href="javascript:Action.selectClass(&quot;RentableSpace&quot;);" xlink:title="class RentableSpace
">
<polygon fill="none" stroke="black" points="215,-196.5 215,-257.5 341,-257.5 341,-196.5 215,-196.5"/>
<text text-anchor="middle" x="278" y="-242.3" font-family="Times,serif" font-size="14.00">RentableSpace</text>
<polyline fill="none" stroke="black" points="215,-234.5 341,-234.5 "/>
<text text-anchor="start" x="223" y="-219.3" font-family="Times,serif" font-size="14.00">costPerDay : String</text>
<text text-anchor="start" x="223" y="-204.3" font-family="Times,serif" font-size="14.00">floorArea : String</text>
</a>
</g>
</g>
<!-- Hotel&#45;&gt;RentableSpace -->
<g id="edge5" class="edge"><title>Hotel&#45;&gt;RentableSpace</title>
<g id="a_edge5"><a xlink:title="Hotel 1 &#160;&#45;&#45; * &#160;RentableSpace">
<path fill="none" stroke="black" d="M98.1592,-152.003C103.104,-154.823 108.113,-157.543 113,-160 145.802,-176.492 183.762,-191.912 214.996,-203.694"/>
</a>
</g>
<text text-anchor="middle" x="209.496" y="-192.494" font-family="Times,serif" font-size="14.00">* </text>
<text text-anchor="middle" x="92.6592" y="-155.803" font-family="Times,serif" font-size="14.00">1 </text>
</g>
<!-- ItemOnBill -->
<g id="node3" class="node"><title>ItemOnBill</title>
<g id="a_node3"><a xlink:href="javascript:Action.selectClass(&quot;ItemOnBill&quot;);" xlink:title="class ItemOnBill
">
<polygon fill="none" stroke="black" points="359,-452.5 359,-513.5 483,-513.5 483,-452.5 359,-452.5"/>
<text text-anchor="middle" x="421" y="-498.3" font-family="Times,serif" font-size="14.00">ItemOnBill</text>
<polyline fill="none" stroke="black" points="359,-490.5 483,-490.5 "/>
<text text-anchor="start" x="367" y="-475.3" font-family="Times,serif" font-size="14.00">description : String</text>
<text text-anchor="start" x="367" y="-460.3" font-family="Times,serif" font-size="14.00">charge : String</text>
</a>
</g>
</g>
<!-- Booking -->
<g id="node4" class="node"><title>Booking</title>
<g id="a_node4"><a xlink:href="javascript:Action.selectClass(&quot;Booking&quot;);" xlink:title="class Booking
">
<polygon fill="none" stroke="black" points="337,-294.5 337,-415.5 505,-415.5 505,-294.5 337,-294.5"/>
<text text-anchor="middle" x="421" y="-400.3" font-family="Times,serif" font-size="14.00">Booking</text>
<polyline fill="none" stroke="black" points="337,-392.5 505,-392.5 "/>
<text text-anchor="start" x="345" y="-377.3" font-family="Times,serif" font-size="14.00">startDate : String</text>
<text text-anchor="start" x="345" y="-362.3" font-family="Times,serif" font-size="14.00">endDate : String</text>
<text text-anchor="start" x="345" y="-347.3" font-family="Times,serif" font-size="14.00">startTime : String</text>
<text text-anchor="start" x="345" y="-332.3" font-family="Times,serif" font-size="14.00">endTime : String</text>
<text text-anchor="start" x="345" y="-317.3" font-family="Times,serif" font-size="14.00">bedroomsRequired : String</text>
<text text-anchor="start" x="345" y="-302.3" font-family="Times,serif" font-size="14.00">creditCardToBill : String</text>
</a>
</g>
</g>
<!-- Booking&#45;&gt;ItemOnBill -->
<g id="edge6" class="edge"><title>Booking&#45;&gt;ItemOnBill</title>
<g id="a_edge6"><a xlink:title="Booking 1 &#160;&#45;&#45; * &#160;ItemOnBill">
<path fill="none" stroke="black" d="M421,-415.679C421,-428.401 421,-441.303 421,-452.304"/>
</a>
</g>
<text text-anchor="middle" x="415.5" y="-441.104" font-family="Times,serif" font-size="14.00">* </text>
<text text-anchor="middle" x="415.5" y="-419.479" font-family="Times,serif" font-size="14.00">1 </text>
</g>
<!-- Booking&#45;&gt;Booking -->
<g id="edge7" class="edge"><title>Booking&#45;&gt;Booking</title>
<g id="a_edge7"><a xlink:title="Booking 0..1 &#160;&#45;&#45; * subsidiaryBooking Booking">
<path fill="none" stroke="black" d="M505.032,-333.966C515.852,-337.614 523,-344.625 523,-355 523,-365.375 515.852,-372.386 505.032,-376.034"/>
</a>
</g>
<text text-anchor="middle" x="563.532" y="-364.834" font-family="Times,serif" font-size="14.00">* subsidiaryBooking</text>
<text text-anchor="middle" x="517.532" y="-322.766" font-family="Times,serif" font-size="14.00">0..1 </text>
</g>
<!-- RentableSpace&#45;&gt;Booking -->
<g id="edge8" class="edge"><title>RentableSpace&#45;&gt;Booking</title>
<g id="a_edge8"><a xlink:title="RentableSpace * &#160;&#45;&#45; * &#160;Booking">
<path fill="none" stroke="black" d="M311.527,-257.541C324.075,-268.598 338.821,-281.59 353.354,-294.396"/>
</a>
</g>
<text text-anchor="middle" x="347.854" y="-283.196" font-family="Times,serif" font-size="14.00">* </text>
<text text-anchor="middle" x="306.027" y="-261.341" font-family="Times,serif" font-size="14.00">* </text>
</g>
<!-- HotelBedroom -->
<g id="node6" class="node"><title>HotelBedroom</title>
<g id="a_node6"><a xlink:href="javascript:Action.selectClass(&quot;HotelBedroom&quot;);" xlink:title="class HotelBedroom
">
<polygon fill="none" stroke="black" points="122.5,-83.5 122.5,-159.5 259.5,-159.5 259.5,-83.5 122.5,-83.5"/>
<text text-anchor="middle" x="191" y="-144.3" font-family="Times,serif" font-size="14.00">HotelBedroom</text>
<polyline fill="none" stroke="black" points="122.5,-136.5 259.5,-136.5 "/>
<text text-anchor="start" x="130.5" y="-121.3" font-family="Times,serif" font-size="14.00">roomNumber : String</text>
<text text-anchor="start" x="130.5" y="-106.3" font-family="Times,serif" font-size="14.00">qualityLevel : String</text>
<text text-anchor="start" x="130.5" y="-91.3" font-family="Times,serif" font-size="14.00">isSmoking : String</text>
</a>
</g>
</g>
<!-- HotelBedroom&#45;&gt;RentableSpace -->
<g id="edge1" class="edge"><title>HotelBedroom&#45;&gt;RentableSpace</title>
<path fill="none" stroke="black" d="M235.01,-159.681C248.496,-171.075 261.918,-182.413 270.087,-189.315"/>
<polygon fill="none" stroke="black" points="268.102,-192.22 278,-196 272.62,-186.873 268.102,-192.22"/>
</g>
<!-- MeetingRoom -->
<g id="node7" class="node"><title>MeetingRoom</title>
<g id="a_node7"><a xlink:href="javascript:Action.selectClass(&quot;MeetingRoom&quot;);" xlink:title="class MeetingRoom
Positioning
">
<polygon fill="none" stroke="black" points="277.5,-91 277.5,-152 454.5,-152 454.5,-91 277.5,-91"/>
<text text-anchor="middle" x="366" y="-136.8" font-family="Times,serif" font-size="14.00">MeetingRoom</text>
<polyline fill="none" stroke="black" points="277.5,-129 454.5,-129 "/>
<text text-anchor="start" x="285.5" y="-113.8" font-family="Times,serif" font-size="14.00">name : String</text>
<text text-anchor="start" x="285.5" y="-98.8" font-family="Times,serif" font-size="14.00">maxSeatingCapacity : String</text>
</a>
</g>
</g>
<!-- MeetingRoom&#45;&gt;RentableSpace -->
<g id="edge2" class="edge"><title>MeetingRoom&#45;&gt;RentableSpace</title>
<path fill="none" stroke="black" d="M285.938,-189.37 296.01,-180.957 314.051,-165.889 330.461,-152.183"/>
<polygon fill="none" stroke="black" points="283.431,-186.903 278,-196 287.919,-192.276 283.431,-186.903"/>
</g>
<!-- Suite -->
<g id="node8" class="node"><title>Suite</title>
<g id="a_node8"><a xlink:href="javascript:Action.selectClass(&quot;Suite&quot;);" xlink:title="class Suite
">
<polygon fill="none" stroke="black" points="473,-103.5 473,-139.5 527,-139.5 527,-103.5 473,-103.5"/>
<text text-anchor="middle" x="500" y="-117.8" font-family="Times,serif" font-size="14.00">Suite</text>
</a>
</g>
</g>
<!-- Suite&#45;&gt;RentableSpace -->
<g id="edge9" class="edge"><title>Suite&#45;&gt;RentableSpace</title>
<g id="a_edge9"><a xlink:title="Suite 1 &#160;&#45;&#45; * &#160;RentableSpace">
<path fill="none" stroke="black" d="M341.091,-199.339 344.094,-198.188 347.075,-197.069 350,-196 399.906,-177.764 418.866,-188.036 464,-160 472.586,-154.667 480.55,-146.822 486.793,-139.685"/>
</a>
</g>
<text text-anchor="middle" x="346.591" y="-188.139" font-family="Times,serif" font-size="14.00">* </text>
<text text-anchor="middle" x="481.293" y="-143.485" font-family="Times,serif" font-size="14.00">1 </text>
</g>
<!-- Event -->
<g id="node9" class="node"><title>Event</title>
<g id="a_node9"><a xlink:href="javascript:Action.selectClass(&quot;Event&quot;);" xlink:title="class Event
">
<polygon fill="none" stroke="black" points="359,-204 359,-250 483,-250 483,-204 359,-204"/>
<text text-anchor="middle" x="421" y="-234.8" font-family="Times,serif" font-size="14.00">Event</text>
<polyline fill="none" stroke="black" points="359,-227 483,-227 "/>
<text text-anchor="start" x="367" y="-211.8" font-family="Times,serif" font-size="14.00">description : String</text>
</a>
</g>
</g>
<!-- Event&#45;&gt;Booking -->
<g id="edge3" class="edge"><title>Event&#45;&gt;Booking</title>
<path fill="none" stroke="black" d="M421,-250.236C421,-259.895 421,-271.795 421,-284.049"/>
<polygon fill="none" stroke="black" points="417.5,-284.385 421,-294.385 424.5,-284.385 417.5,-284.385"/>
</g>
<!-- Person -->
<g id="node10" class="node"><title>Person</title>
<g id="a_node10"><a xlink:href="javascript:Action.selectClass(&quot;Person&quot;);" xlink:title="class Person
">
<polygon fill="none" stroke="black" points="501,-196.5 501,-257.5 605,-257.5 605,-196.5 501,-196.5"/>
<text text-anchor="middle" x="553" y="-242.3" font-family="Times,serif" font-size="14.00">Person</text>
<polyline fill="none" stroke="black" points="501,-234.5 605,-234.5 "/>
<text text-anchor="start" x="509" y="-219.3" font-family="Times,serif" font-size="14.00">name : String</text>
<text text-anchor="start" x="509" y="-204.3" font-family="Times,serif" font-size="14.00">address : String</text>
</a>
</g>
</g>
<!-- Person&#45;&gt;Booking -->
<g id="edge10" class="edge"><title>Person&#45;&gt;Booking</title>
<g id="a_edge10"><a xlink:title="Person 1 &#160;&#45;&#45; * &#160;Booking">
<path fill="none" stroke="black" d="M483.443,-294.396 496.858,-281.59 510.469,-268.598 522.052,-257.541"/>
</a>
</g>
<text text-anchor="middle" x="477.943" y="-283.196" font-family="Times,serif" font-size="14.00">* </text>
<text text-anchor="middle" x="516.552" y="-261.341" font-family="Times,serif" font-size="14.00">1 </text>
</g>
</g>
</svg>
