<?xml version="1.0" encoding="UTF-8" standalone="no"?>
<!DOCTYPE svg PUBLIC "-//W3C//DTD SVG 1.1//EN"
 "http://www.w3.org/Graphics/SVG/1.1/DTD/svg11.dtd">
<!-- Generated by graphviz version 2.40.1 (20161225.0304)
 -->
<!-- Title: HtmlGeneration Pages: 1 -->
<svg width="449pt" height="212pt"
 viewBox="0.00 0.00 448.50 212.00" xmlns="http://www.w3.org/2000/svg" xmlns:xlink="http://www.w3.org/1999/xlink">
<g id="graph0" class="graph" transform="scale(1 1) rotate(0) translate(4 208)">
<title>HtmlGeneration</title>
<polygon fill="#ffffff" stroke="transparent" points="-4,4 -4,-208 444.5,-208 444.5,4 -4,4"/>
<!-- HtmlNode -->
<g id="node1" class="node">
<title>HtmlNode</title>
<g id="a_node1"><a xlink:href="javascript:Action.selectClass(&quot;HtmlNode&quot;);" xlink:title="class HtmlNode&#10;Umple library for generating html&#13;Currently it supports h1, h2 ... as well as p, and table tags.&#13;This will be extended to support more of html later&#13;It serves as an illustration of Umple&#39;s generation templates&#13;Class representing either a top level html node or a collection of subnodes&#13;">
<text text-anchor="start" x="166.4482" y="-181.8" font-family="Times,serif" font-size="14.00" fill="#000000"> &#160;&#160;&#160;HtmlNode &#160;&#160;&#160;</text>
<polygon fill="none" stroke="#000000" points="155,-168 155,-204 264,-204 264,-168 155,-168"/>
</a>
</g>
</g>
<!-- HtmlTextNode -->
<g id="node2" class="node">
<title>HtmlTextNode</title>
<g id="a_node2"><a xlink:href="javascript:Action.selectClass(&quot;HtmlTextNode&quot;);" xlink:title="class HtmlTextNode&#10;Simple text to be output between tags &#45; these are leaves&#13;">
<text text-anchor="start" x="5.1094" y="-106.8" font-family="Times,serif" font-size="14.00" fill="#000000"> &#160;&#160;&#160;HtmlTextNode &#160;&#160;&#160;</text>
<g id="a_node2_0"><a xlink:href="javascript:Action.selectClass(&quot;HtmlTextNode&quot;);" xlink:title="String content&#13;">
<text text-anchor="start" x="3.5" y="-86.8" font-family="Times,serif" font-size="14.00" fill="#000000"> &#160;content : String &#160;</text>
</a>
</g>
<polygon fill="#000000" stroke="#000000" points=".5,-100 .5,-100 121.5,-100 121.5,-100 .5,-100"/>
<polygon fill="none" stroke="#000000" points="0,-81 0,-123 121,-123 121,-81 0,-81"/>
</a>
</g>
</g>
<!-- HtmlTextNode&#45;&gt;HtmlNode -->
<g id="edge1" class="edge">
<title>HtmlTextNode&#45;&gt;HtmlNode</title>
<path fill="none" stroke="#000000" d="M104.5435,-123.0643C134.6757,-137.4753 172.1465,-155.3961 189.232,-163.5675"/>
<polygon fill="none" stroke="#000000" points="187.9685,-166.8429 198.5,-168 190.9888,-160.5279 187.9685,-166.8429"/>
</g>
<!-- HtmlRegularNode -->
<g id="node3" class="node">
<title>HtmlRegularNode</title>
<g id="a_node3"><a xlink:href="javascript:Action.selectClass(&quot;HtmlRegularNode&quot;);" xlink:title="class HtmlRegularNode&#10;Non&#45;leaf nodes in the html tree&#13;">
<text text-anchor="start" x="144.2896" y="-115.8" font-family="Times,serif" font-size="14.00" fill="#000000"> &#160;&#160;&#160;HtmlRegularNode &#160;&#160;&#160;</text>
<g id="a_node3_1"><a xlink:href="javascript:Action.selectClass(&quot;HtmlRegularNode&quot;);" xlink:title="String tag&#13;Arguments for the constructor&#13;e.g. p, h1, a&#13;">
<text text-anchor="start" x="142.5" y="-95.8" font-family="Times,serif" font-size="14.00" fill="#000000"> &#160;tag : String &#160;</text>
</a>
</g>
<g id="a_node3_2"><a xlink:href="javascript:Action.selectClass(&quot;HtmlRegularNode&quot;);" xlink:title="String arguments&#13;e.g. href&#13;">
<text text-anchor="start" x="142.5" y="-77.8" font-family="Times,serif" font-size="14.00" fill="#000000"> &#160;arguments : String &#160;</text>
</a>
</g>
<polygon fill="#000000" stroke="#000000" points="139.5,-109 139.5,-109 280.5,-109 280.5,-109 139.5,-109"/>
<polygon fill="none" stroke="#000000" points="139,-72 139,-132 280,-132 280,-72 139,-72"/>
</a>
</g>
</g>
<!-- HtmlRegularNode&#45;&gt;HtmlNode -->
<g id="edge2" class="edge">
<title>HtmlRegularNode&#45;&gt;HtmlNode</title>
<path fill="none" stroke="#000000" d="M197.7209,-132.2957C195.9976,-141.7841 194.9727,-151.5727 195.174,-158.4955"/>
<polygon fill="none" stroke="#000000" points="191.8934,-159.7173 198.5,-168 198.5005,-157.4052 191.8934,-159.7173"/>
</g>
<!-- HtmlRegularNode&#45;&gt;HtmlNode -->
<g id="edge6" class="edge">
<title>HtmlRegularNode&#45;&gt;HtmlNode</title>
<g id="a_edge6"><a xlink:title="HtmlRegularNode 0..1 &#160;&#45;&gt; * subnodes HtmlNode">
<path fill="none" stroke="#000000" d="M211.1805,-132.2957C209.6665,-142.2755 207.2691,-152.5874 204.6023,-159.5475"/>
<polygon fill="#000000" stroke="#000000" points="198.9465,-167.9468 200.7993,-157.1386 201.7392,-163.7994 204.5319,-159.652 204.5319,-159.652 204.5319,-159.652 201.7392,-163.7994 208.2646,-162.1655 198.9465,-167.9468 198.9465,-167.9468"/>
</a>
</g>
<text text-anchor="middle" x="167.6413" y="-156.7468" font-family="Times,serif" font-size="14.00" fill="#000000">* subnodes</text>
<text text-anchor="middle" x="198.9305" y="-135.0957" font-family="Times,serif" font-size="14.00" fill="#000000">0..1 </text>
</g>
<!-- HtmlTable -->
<g id="node4" class="node">
<title>HtmlTable</title>
<g id="a_node4"><a xlink:href="javascript:Action.selectClass(&quot;HtmlTable&quot;);" xlink:title="class HtmlTable&#10;">
<text text-anchor="start" x="41.1646" y="-13.8" font-family="Times,serif" font-size="14.00" fill="#000000"> &#160;&#160;&#160;HtmlTable &#160;&#160;&#160;</text>
<polygon fill="none" stroke="#000000" points="30,0 30,-36 139,-36 139,0 30,0"/>
</a>
</g>
</g>
<!-- HtmlTable&#45;&gt;HtmlRegularNode -->
<g id="edge3" class="edge">
<title>HtmlTable&#45;&gt;HtmlRegularNode</title>
<path fill="none" stroke="#000000" d="M126.4709,-36.1314C152.8552,-47.5294 184.7303,-61.2995 200.1893,-67.9778"/>
<polygon fill="none" stroke="#000000" points="198.9319,-71.2472 209.5,-72 201.708,-64.8212 198.9319,-71.2472"/>
</g>
<!-- HtmlRow -->
<g id="node5" class="node">
<title>HtmlRow</title>
<g id="a_node5"><a xlink:href="javascript:Action.selectClass(&quot;HtmlRow&quot;);" xlink:title="class HtmlRow&#10;">
<text text-anchor="start" x="168.3862" y="-13.8" font-family="Times,serif" font-size="14.00" fill="#000000"> &#160;&#160;&#160;HtmlRow &#160;&#160;&#160;</text>
<polygon fill="none" stroke="#000000" points="157,0 157,-36 262,-36 262,0 157,0"/>
</a>
</g>
</g>
<!-- HtmlRow&#45;&gt;HtmlRegularNode -->
<g id="edge4" class="edge">
<title>HtmlRow&#45;&gt;HtmlRegularNode</title>
<path fill="none" stroke="#000000" d="M209.5,-36.2819C209.5,-44.8492 209.5,-54.7283 209.5,-61.9222"/>
<polygon fill="none" stroke="#000000" points="206.0001,-62 209.5,-72 213.0001,-62 206.0001,-62"/>
</g>
<!-- HtmlCell -->
<g id="node6" class="node">
<title>HtmlCell</title>
<g id="a_node6"><a xlink:href="javascript:Action.selectClass(&quot;HtmlCell&quot;);" xlink:title="class HtmlCell&#10;">
<text text-anchor="start" x="291.4448" y="-13.8" font-family="Times,serif" font-size="14.00" fill="#000000"> &#160;&#160;&#160;HtmlCell &#160;&#160;&#160;</text>
<polygon fill="none" stroke="#000000" points="280.5,0 280.5,-36 382.5,-36 382.5,0 280.5,0"/>
</a>
</g>
</g>
<!-- HtmlCell&#45;&gt;HtmlRegularNode -->
<g id="edge5" class="edge">
<title>HtmlCell&#45;&gt;HtmlRegularNode</title>
<path fill="none" stroke="#000000" d="M290.5364,-36.1314C265.0622,-47.4069 234.3437,-61.0036 219.0795,-67.7599"/>
<polygon fill="none" stroke="#000000" points="217.2277,-64.752 209.5,-72 220.0609,-71.153 217.2277,-64.752"/>
</g>
<!-- HtmlGen -->
<g id="node7" class="node">
<title>HtmlGen</title>
<g id="a_node7"><a xlink:href="javascript:Action.selectClass(&quot;HtmlGen&quot;);" xlink:title="class HtmlGen&#10;">
<text text-anchor="start" x="329.4482" y="-106.8" font-family="Times,serif" font-size="14.00" fill="#000000"> &#160;&#160;&#160;HtmlGen &#160;&#160;&#160;</text>
<g id="a_node7_3"><a xlink:href="javascript:Action.selectClass(&quot;HtmlGen&quot;);" xlink:title="HtmlNode firstNode&#13;">
<text text-anchor="start" x="301.4482" y="-86.8" font-family="Times,serif" font-size="14.00" fill="#000000"> &#160;firstNode : HtmlNode &#160;</text>
</a>
</g>
<polygon fill="#000000" stroke="#000000" points="298.5,-100 298.5,-100 440.5,-100 440.5,-100 298.5,-100"/>
<polygon fill="none" stroke="#000000" points="298.5,-81 298.5,-123 440.5,-123 440.5,-81 298.5,-81"/>
</a>
</g>
</g>
<!-- HtmlGen&#45;&gt;HtmlNode -->
<g id="edge7" class="edge">
<title>HtmlGen&#45;&gt;HtmlNode</title>
<g id="a_edge7"><a xlink:title="HtmlGen 0..1 &#160;&#45;&gt; * headerNodes HtmlNode">
<path fill="none" stroke="#000000" d="M323.1729,-123.1967C299.0518,-135.3283 269.9953,-150.5579 247.2493,-162.9814"/>
<polygon fill="#000000" stroke="#000000" points="238.2364,-167.9412 244.8279,-159.1775 242.6169,-165.5306 246.9975,-163.1199 246.9975,-163.1199 246.9975,-163.1199 242.6169,-165.5306 249.167,-167.0624 238.2364,-167.9412 238.2364,-167.9412"/>
</a>
</g>
<text text-anchor="middle" x="280.0245" y="-156.7412" font-family="Times,serif" font-size="14.00" fill="#000000">* headerNodes</text>
<text text-anchor="middle" x="310.9229" y="-125.9967" font-family="Times,serif" font-size="14.00" fill="#000000">0..1 </text>
</g>
<!-- HtmlGen&#45;&gt;HtmlNode -->
<g id="edge8" class="edge">
<title>HtmlGen&#45;&gt;HtmlNode</title>
<g id="a_edge8"><a xlink:title="HtmlGen 0..1 &#160;&#45;&gt; * bodyNodes HtmlNode">
<path fill="none" stroke="#000000" d="M335.0776,-123.1967C312.7869,-135.4361 283.507,-150.8288 258.7862,-163.312"/>
<polygon fill="#000000" stroke="#000000" points="249.559,-167.9412 256.4793,-159.4347 254.0281,-165.6991 258.4972,-163.4569 258.4972,-163.4569 258.4972,-163.4569 254.0281,-165.6991 260.5151,-167.4791 249.559,-167.9412 249.559,-167.9412"/>
</a>
</g>
<text text-anchor="middle" x="286.6952" y="-170.7412" font-family="Times,serif" font-size="14.00" fill="#000000">* bodyNodes</text>
<text text-anchor="middle" x="347.3276" y="-125.9967" font-family="Times,serif" font-size="14.00" fill="#000000">0..1 </text>
</g>
</g>
</svg>
