<?xml version="1.0" encoding="UTF-8" standalone="no"?>
<!DOCTYPE svg PUBLIC "-//W3C//DTD SVG 1.1//EN"
 "http://www.w3.org/Graphics/SVG/1.1/DTD/svg11.dtd">
<!-- Generated by graphviz version 2.39.20140502.0445 (20140502.0445)
 -->
<!-- Title: Insurance Pages: 1 -->
<svg width="491pt" height="497pt"
 viewBox="0.00 0.00 491.00 497.00" xmlns="http://www.w3.org/2000/svg" xmlns:xlink="http://www.w3.org/1999/xlink">
<g id="graph0" class="graph" transform="scale(1 1) rotate(0) translate(4 493)">
<title>Insurance</title>
<polygon fill="white" stroke="none" points="-4,4 -4,-493 487,-493 487,4 -4,4"/>
<!-- InsurancePolicy -->
<g id="node1" class="node"><title>InsurancePolicy</title>
<g id="a_node1"><a xlink:href="javascript:Action.selectClass(&quot;InsurancePolicy&quot;);" xlink:title="class InsurancePolicy
Positioning
">
<polygon fill="none" stroke="black" points="104.5,-269.5 104.5,-375.5 264.5,-375.5 264.5,-269.5 104.5,-269.5"/>
<text text-anchor="middle" x="184.5" y="-360.3" font-family="Times,serif" font-size="14.00">InsurancePolicy</text>
<polyline fill="none" stroke="black" points="104.5,-352.5 264.5,-352.5 "/>
<text text-anchor="start" x="112.5" y="-337.3" font-family="Times,serif" font-size="14.00">policyNumber : String</text>
<text text-anchor="start" x="112.5" y="-322.3" font-family="Times,serif" font-size="14.00">monthlyPremium : String</text>
<text text-anchor="start" x="112.5" y="-307.3" font-family="Times,serif" font-size="14.00">starDate : String</text>
<text text-anchor="start" x="112.5" y="-292.3" font-family="Times,serif" font-size="14.00">endDate : String</text>
<text text-anchor="start" x="112.5" y="-277.3" font-family="Times,serif" font-size="14.00">insuradValue : String</text>
</a>
</g>
</g>
<!-- Transaction -->
<g id="node2" class="node"><title>Transaction</title>
<g id="a_node2"><a xlink:href="javascript:Action.selectClass(&quot;Transaction&quot;);" xlink:title="class Transaction
">
<polygon fill="none" stroke="black" points="73,-427.5 73,-473.5 158,-473.5 158,-427.5 73,-427.5"/>
<text text-anchor="middle" x="115.5" y="-458.3" font-family="Times,serif" font-size="14.00">Transaction</text>
<polyline fill="none" stroke="black" points="73,-450.5 158,-450.5 "/>
<text text-anchor="start" x="81" y="-435.3" font-family="Times,serif" font-size="14.00">date : String</text>
</a>
</g>
</g>
<!-- InsurancePolicy&#45;&gt;Transaction -->
<g id="edge6" class="edge"><title>InsurancePolicy&#45;&gt;Transaction</title>
<g id="a_edge6"><a xlink:title="InsurancePolicy 1 &#160;&#45;&#45; * &#160;Transaction">
<path fill="none" stroke="black" d="M127.666,-427.283 135.485,-413.005 145.988,-393.826 155.837,-375.841"/>
</a>
</g>
<text text-anchor="middle" x="122.166" y="-416.083" font-family="Times,serif" font-size="14.00">* </text>
<text text-anchor="middle" x="150.337" y="-379.641" font-family="Times,serif" font-size="14.00">1 </text>
</g>
<!-- Person -->
<g id="node5" class="node"><title>Person</title>
<g id="a_node5"><a xlink:href="javascript:Action.selectClass(&quot;Person&quot;);" xlink:title="class Person
">
<polygon fill="none" stroke="black" points="237.5,-412.5 237.5,-488.5 365.5,-488.5 365.5,-412.5 237.5,-412.5"/>
<text text-anchor="middle" x="301.5" y="-473.3" font-family="Times,serif" font-size="14.00">Person</text>
<polyline fill="none" stroke="black" points="237.5,-465.5 365.5,-465.5 "/>
<text text-anchor="start" x="245.5" y="-450.3" font-family="Times,serif" font-size="14.00">name : String</text>
<text text-anchor="start" x="245.5" y="-435.3" font-family="Times,serif" font-size="14.00">address : String</text>
<text text-anchor="start" x="245.5" y="-420.3" font-family="Times,serif" font-size="14.00">dateOfBirth : String</text>
</a>
</g>
</g>
<!-- InsurancePolicy&#45;&gt;Person -->
<g id="edge7" class="edge"><title>InsurancePolicy&#45;&gt;Person</title>
<g id="a_edge7"><a xlink:title="InsurancePolicy * &#160;&#45;&#45; 1 holder Person">
<path fill="none" stroke="black" d="M233.102,-375.841C244.529,-388.146 256.475,-401.011 267.126,-412.482"/>
</a>
</g>
<text text-anchor="middle" x="243.626" y="-401.282" font-family="Times,serif" font-size="14.00">1 holder</text>
<text text-anchor="middle" x="227.602" y="-379.641" font-family="Times,serif" font-size="14.00">* </text>
</g>
<!-- Renewal -->
<g id="node3" class="node"><title>Renewal</title>
<g id="a_node3"><a xlink:href="javascript:Action.selectClass(&quot;Renewal&quot;);" xlink:title="class Renewal
">
<polygon fill="none" stroke="black" points="21,-304.5 21,-340.5 86,-340.5 86,-304.5 21,-304.5"/>
<text text-anchor="middle" x="53.5" y="-318.8" font-family="Times,serif" font-size="14.00">Renewal</text>
</a>
</g>
</g>
<!-- Renewal&#45;&gt;Transaction -->
<g id="edge1" class="edge"><title>Renewal&#45;&gt;Transaction</title>
<path fill="none" stroke="black" d="M61.9908,-340.756C71.7697,-360.629 88.0321,-393.678 100.067,-418.136"/>
<polygon fill="none" stroke="black" points="97.0556,-419.944 104.611,-427.371 103.336,-416.853 97.0556,-419.944"/>
</g>
<!-- Claim -->
<g id="node4" class="node"><title>Claim</title>
<g id="a_node4"><a xlink:href="javascript:Action.selectClass(&quot;Claim&quot;);" xlink:title="class Claim
">
<polygon fill="none" stroke="black" points="332,-8 332,-69 483,-69 483,-8 332,-8"/>
<text text-anchor="middle" x="407.5" y="-53.8" font-family="Times,serif" font-size="14.00">Claim</text>
<polyline fill="none" stroke="black" points="332,-46 483,-46 "/>
<text text-anchor="start" x="340" y="-30.8" font-family="Times,serif" font-size="14.00">description : String</text>
<text text-anchor="start" x="340" y="-15.8" font-family="Times,serif" font-size="14.00">amountClaimed : String</text>
</a>
</g>
</g>
<!-- LifeInsurancePolicy -->
<g id="node6" class="node"><title>LifeInsurancePolicy</title>
<g id="a_node6"><a xlink:href="javascript:Action.selectClass(&quot;LifeInsurancePolicy&quot;);" xlink:title="class LifeInsurancePolicy
">
<polygon fill="none" stroke="black" points="236.5,-196.5 236.5,-232.5 366.5,-232.5 366.5,-196.5 236.5,-196.5"/>
<text text-anchor="middle" x="301.5" y="-210.8" font-family="Times,serif" font-size="14.00">LifeInsurancePolicy</text>
</a>
</g>
</g>
<!-- LifeInsurancePolicy&#45;&gt;InsurancePolicy -->
<g id="edge2" class="edge"><title>LifeInsurancePolicy&#45;&gt;InsurancePolicy</title>
<path fill="none" stroke="black" d="M205.543,-264.849 219.355,-257.746 246.408,-243.833 268.277,-232.586"/>
<polygon fill="none" stroke="black" points="203.792,-261.814 196.5,-269.5 206.994,-268.039 203.792,-261.814"/>
</g>
<!-- LifeInsurancePolicy&#45;&gt;Person -->
<g id="edge8" class="edge"><title>LifeInsurancePolicy&#45;&gt;Person</title>
<g id="a_edge8"><a xlink:title="LifeInsurancePolicy * policy &#45;&#45; 1 insuredLife Person">
<path fill="none" stroke="black" d="M296.404,-412.284 293.813,-360.921 294.266,-270.386 297.762,-232.707"/>
</a>
</g>
<text text-anchor="middle" x="334.404" y="-401.084" font-family="Times,serif" font-size="14.00">1 insuredLife</text>
<text text-anchor="middle" x="274.762" y="-236.507" font-family="Times,serif" font-size="14.00">* policy</text>
</g>
<!-- LifeInsurancePolicy&#45;&gt;Person -->
<g id="edge9" class="edge"><title>LifeInsurancePolicy&#45;&gt;Person</title>
<g id="a_edge9"><a xlink:title="LifeInsurancePolicy * &#160;&#45;&#45; * beneficiary Person">
<path fill="none" stroke="black" d="M305.238,-232.707C308.734,-270.386 309.187,-360.921 306.596,-412.284"/>
</a>
</g>
<text text-anchor="middle" x="343.096" y="-416.084" font-family="Times,serif" font-size="14.00">* beneficiary</text>
<text text-anchor="middle" x="310.738" y="-236.507" font-family="Times,serif" font-size="14.00">* </text>
</g>
<!-- PropertyInsurancePolicy -->
<g id="node7" class="node"><title>PropertyInsurancePolicy</title>
<g id="a_node7"><a xlink:href="javascript:Action.selectClass(&quot;PropertyInsurancePolicy&quot;);" xlink:title="class PropertyInsurancePolicy
">
<polygon fill="none" stroke="black" points="63,-196.5 63,-232.5 218,-232.5 218,-196.5 63,-196.5"/>
<text text-anchor="middle" x="140.5" y="-210.8" font-family="Times,serif" font-size="14.00">PropertyInsurancePolicy</text>
</a>
</g>
</g>
<!-- PropertyInsurancePolicy&#45;&gt;InsurancePolicy -->
<g id="edge3" class="edge"><title>PropertyInsurancePolicy&#45;&gt;InsurancePolicy</title>
<path fill="none" stroke="black" d="M158.219,-232.586C168.729,-242.721 181.484,-255.02 189.294,-262.551"/>
<polygon fill="none" stroke="black" points="186.872,-265.078 196.5,-269.5 191.731,-260.039 186.872,-265.078"/>
</g>
<!-- InsuredProperty -->
<g id="node8" class="node"><title>InsuredProperty</title>
<g id="a_node8"><a xlink:href="javascript:Action.selectClass(&quot;InsuredProperty&quot;);" xlink:title="class InsuredProperty
">
<polygon fill="none" stroke="black" points="83.5,-113.5 83.5,-159.5 197.5,-159.5 197.5,-113.5 83.5,-113.5"/>
<text text-anchor="middle" x="140.5" y="-144.3" font-family="Times,serif" font-size="14.00">InsuredProperty</text>
<polyline fill="none" stroke="black" points="83.5,-136.5 197.5,-136.5 "/>
<text text-anchor="start" x="91.5" y="-121.3" font-family="Times,serif" font-size="14.00">yearBuilt : String</text>
</a>
</g>
</g>
<!-- InsuredProperty&#45;&gt;PropertyInsurancePolicy -->
<g id="edge10" class="edge"><title>InsuredProperty&#45;&gt;PropertyInsurancePolicy</title>
<g id="a_edge10"><a xlink:title="InsuredProperty 1 &#160;&#45;&#45; 1 &#160;PropertyInsurancePolicy">
<path fill="none" stroke="black" d="M140.5,-159.891C140.5,-171.451 140.5,-185.342 140.5,-196.088"/>
</a>
</g>
<text text-anchor="middle" x="135" y="-184.888" font-family="Times,serif" font-size="14.00">1 </text>
<text text-anchor="middle" x="135" y="-163.691" font-family="Times,serif" font-size="14.00">1 </text>
</g>
<!-- Building -->
<g id="node9" class="node"><title>Building</title>
<g id="a_node9"><a xlink:href="javascript:Action.selectClass(&quot;Building&quot;);" xlink:title="class Building
">
<polygon fill="none" stroke="black" points="0,-8 0,-69 115,-69 115,-8 0,-8"/>
<text text-anchor="middle" x="57.5" y="-53.8" font-family="Times,serif" font-size="14.00">Building</text>
<polyline fill="none" stroke="black" points="0,-46 115,-46 "/>
<text text-anchor="start" x="8" y="-30.8" font-family="Times,serif" font-size="14.00">address : String</text>
<text text-anchor="start" x="8" y="-15.8" font-family="Times,serif" font-size="14.00">floorArea : String</text>
</a>
</g>
</g>
<!-- Building&#45;&gt;InsuredProperty -->
<g id="edge4" class="edge"><title>Building&#45;&gt;InsuredProperty</title>
<path fill="none" stroke="black" d="M90.781,-69.1722C106.295,-83.0044 123.406,-98.2598 132.965,-106.782"/>
<polygon fill="none" stroke="black" points="130.707,-109.458 140.5,-113.5 135.365,-104.233 130.707,-109.458"/>
</g>
<!-- Vehicle -->
<g id="node10" class="node"><title>Vehicle</title>
<g id="a_node10"><a xlink:href="javascript:Action.selectClass(&quot;Vehicle&quot;);" xlink:title="class Vehicle
">
<polygon fill="none" stroke="black" points="133,-0.5 133,-76.5 314,-76.5 314,-0.5 133,-0.5"/>
<text text-anchor="middle" x="223.5" y="-61.3" font-family="Times,serif" font-size="14.00">Vehicle</text>
<polyline fill="none" stroke="black" points="133,-53.5 314,-53.5 "/>
<text text-anchor="start" x="141" y="-38.3" font-family="Times,serif" font-size="14.00">identificationNumber : String</text>
<text text-anchor="start" x="141" y="-23.3" font-family="Times,serif" font-size="14.00">manufacturer : String</text>
<text text-anchor="start" x="141" y="-8.3" font-family="Times,serif" font-size="14.00">model : String</text>
</a>
</g>
</g>
<!-- Vehicle&#45;&gt;InsuredProperty -->
<g id="edge5" class="edge"><title>Vehicle&#45;&gt;InsuredProperty</title>
<path fill="none" stroke="black" d="M148.049,-106.77 155.843,-99.8209 168.647,-88.4051 181.514,-76.9336"/>
<polygon fill="none" stroke="black" points="145.635,-104.233 140.5,-113.5 150.293,-109.458 145.635,-104.233"/>
</g>
</g>
</svg>
