<?xml version="1.0" encoding="UTF-8" standalone="no"?>
<!DOCTYPE svg PUBLIC "-//W3C//DTD SVG 1.1//EN"
 "http://www.w3.org/Graphics/SVG/1.1/DTD/svg11.dtd">
<!-- Generated by graphviz version 2.29.20121108.1600 (20121108.1600)
 -->
<!-- Title: InventoryManagement Pages: 1 -->
<svg width="452pt" height="456pt"
 viewBox="0.00 0.00 452.00 456.00" xmlns="http://www.w3.org/2000/svg" xmlns:xlink="http://www.w3.org/1999/xlink">
<g id="graph0" class="graph" transform="scale(1 1) rotate(0) translate(4 452)">
<title>InventoryManagement</title>
<polygon fill="white" stroke="white" points="-4,5 -4,-452 449,-452 449,5 -4,5"/>
<!-- ProductSource -->
<g id="node1" class="node"><title>ProductSource</title>
<g id="a_node1"><a xlink:href="javascript:Action.selectClass(&quot;ProductSource&quot;);" xlink:title="class ProductSource
">
<polygon fill="none" stroke="black" points="-0.937988,-181.2 -0.937988,-230.8 186.938,-230.8 186.938,-181.2 -0.937988,-181.2"/>
<text text-anchor="middle" x="93" y="-212.8" font-family="Times,serif" font-size="14.00">ProductSource</text>
<polyline fill="none" stroke="black" points="-0.937988,-206 186.938,-206 "/>
<text text-anchor="start" x="7.06201" y="-188" font-family="Times,serif" font-size="14.00">advertisedCostPerUnit : String</text>
</a>
</g>
</g>
<!-- SupplierOrderLineItem -->
<g id="node5" class="node"><title>SupplierOrderLineItem</title>
<g id="a_node5"><a xlink:href="javascript:Action.selectClass(&quot;SupplierOrderLineItem&quot;);" xlink:title="class SupplierOrderLineItem
">
<polygon fill="none" stroke="black" points="113.127,-276.8 113.127,-343.2 262.873,-343.2 262.873,-276.8 113.127,-276.8"/>
<text text-anchor="middle" x="188" y="-325.2" font-family="Times,serif" font-size="14.00">SupplierOrderLineItem</text>
<polyline fill="none" stroke="black" points="113.127,-318.4 262.873,-318.4 "/>
<text text-anchor="start" x="121.127" y="-300.4" font-family="Times,serif" font-size="14.00">numberOrdered : String</text>
<text text-anchor="start" x="121.127" y="-283.6" font-family="Times,serif" font-size="14.00">dateExpected : String</text>
</a>
</g>
</g>
<!-- ProductSource&#45;&gt;SupplierOrderLineItem -->
<g id="edge1" class="edge"><title>ProductSource&#45;&gt;SupplierOrderLineItem</title>
<path fill="none" stroke="black" d="M115.273,-230.914C127.997,-244.575 144.122,-261.889 157.954,-276.74"/>
<text text-anchor="middle" x="152.704" y="-262.74" font-family="Times,serif" font-size="14.00">* </text>
<text text-anchor="middle" x="120.523" y="-233.714" font-family="Times,serif" font-size="14.00">1 </text>
</g>
<!-- Product -->
<g id="node2" class="node"><title>Product</title>
<g id="a_node2"><a xlink:href="javascript:Action.selectClass(&quot;Product&quot;);" xlink:title="class Product
Positioning
">
<polygon fill="none" stroke="black" points="7.61719,-1.2 7.61719,-134.8 178.383,-134.8 178.383,-1.2 7.61719,-1.2"/>
<text text-anchor="middle" x="93" y="-116.8" font-family="Times,serif" font-size="14.00">Product</text>
<polyline fill="none" stroke="black" points="7.61719,-110 178.383,-110 "/>
<text text-anchor="start" x="15.6172" y="-92" font-family="Times,serif" font-size="14.00">ourCode : String</text>
<text text-anchor="start" x="15.6172" y="-75.2" font-family="Times,serif" font-size="14.00">description : String</text>
<text text-anchor="start" x="15.6172" y="-58.4" font-family="Times,serif" font-size="14.00">picture : String</text>
<text text-anchor="start" x="15.6172" y="-41.6" font-family="Times,serif" font-size="14.00">ourListPricePerunit : String</text>
<text text-anchor="start" x="15.6172" y="-24.8" font-family="Times,serif" font-size="14.00">numberInInventory : String</text>
<text text-anchor="start" x="15.6172" y="-8" font-family="Times,serif" font-size="14.00">numberToKeepInv : String</text>
</a>
</g>
</g>
<!-- Product&#45;&gt;ProductSource -->
<g id="edge2" class="edge"><title>Product&#45;&gt;ProductSource</title>
<path fill="none" stroke="black" d="M93,-135.008C93,-151.521 93,-168.191 93,-181.118"/>
<text text-anchor="middle" x="87.75" y="-167.118" font-family="Times,serif" font-size="14.00">* </text>
<text text-anchor="middle" x="87.75" y="-137.808" font-family="Times,serif" font-size="14.00">1 </text>
</g>
<!-- Supplier -->
<g id="node3" class="node"><title>Supplier</title>
<g id="a_node3"><a xlink:href="javascript:Action.selectClass(&quot;Supplier&quot;);" xlink:title="class Supplier
">
<polygon fill="none" stroke="black" points="218.448,-26.4 218.448,-109.6 321.552,-109.6 321.552,-26.4 218.448,-26.4"/>
<text text-anchor="middle" x="270" y="-91.6" font-family="Times,serif" font-size="14.00">Supplier</text>
<polyline fill="none" stroke="black" points="218.448,-84.8 321.552,-84.8 "/>
<text text-anchor="start" x="226.448" y="-66.8" font-family="Times,serif" font-size="14.00">id : String</text>
<text text-anchor="start" x="226.448" y="-50" font-family="Times,serif" font-size="14.00">name : String</text>
<text text-anchor="start" x="226.448" y="-33.2" font-family="Times,serif" font-size="14.00">address : String</text>
</a>
</g>
</g>
<!-- Supplier&#45;&gt;ProductSource -->
<g id="edge3" class="edge"><title>Supplier&#45;&gt;ProductSource</title>
<path fill="none" stroke="black" d="M220.26,-109.764C209.374,-118.514 197.858,-127.639 187,-136 167.11,-151.315 144.435,-167.982 126.338,-181.099"/>
<text text-anchor="middle" x="131.588" y="-167.099" font-family="Times,serif" font-size="14.00">* </text>
<text text-anchor="middle" x="215.01" y="-112.564" font-family="Times,serif" font-size="14.00">1 </text>
</g>
<!-- OrderToSupplier -->
<g id="node6" class="node"><title>OrderToSupplier</title>
<g id="a_node6"><a xlink:href="javascript:Action.selectClass(&quot;OrderToSupplier&quot;);" xlink:title="class OrderToSupplier
">
<polygon fill="none" stroke="black" points="204.852,-172.8 204.852,-239.2 335.148,-239.2 335.148,-172.8 204.852,-172.8"/>
<text text-anchor="middle" x="270" y="-221.2" font-family="Times,serif" font-size="14.00">OrderToSupplier</text>
<polyline fill="none" stroke="black" points="204.852,-214.4 335.148,-214.4 "/>
<text text-anchor="start" x="212.852" y="-196.4" font-family="Times,serif" font-size="14.00">poNumber : String</text>
<text text-anchor="start" x="212.852" y="-179.6" font-family="Times,serif" font-size="14.00">dateOrdered : String</text>
</a>
</g>
</g>
<!-- Supplier&#45;&gt;OrderToSupplier -->
<g id="edge4" class="edge"><title>Supplier&#45;&gt;OrderToSupplier</title>
<path fill="none" stroke="black" d="M270,-109.804C270,-129.834 270,-153.633 270,-172.425"/>
<text text-anchor="middle" x="264.75" y="-158.425" font-family="Times,serif" font-size="14.00">* </text>
<text text-anchor="middle" x="267.375" y="-112.604" font-family="Times,serif" font-size="14.00">1 </text>
</g>
<!-- ReceivedDelivery -->
<g id="node4" class="node"><title>ReceivedDelivery</title>
<g id="a_node4"><a xlink:href="javascript:Action.selectClass(&quot;ReceivedDelivery&quot;);" xlink:title="class ReceivedDelivery
">
<polygon fill="none" stroke="black" points="281.117,-276.8 281.117,-343.2 444.883,-343.2 444.883,-276.8 281.117,-276.8"/>
<text text-anchor="middle" x="363" y="-325.2" font-family="Times,serif" font-size="14.00">ReceivedDelivery</text>
<polyline fill="none" stroke="black" points="281.117,-318.4 444.883,-318.4 "/>
<text text-anchor="start" x="289.117" y="-300.4" font-family="Times,serif" font-size="14.00">numberReceived : String</text>
<text text-anchor="start" x="289.117" y="-283.6" font-family="Times,serif" font-size="14.00">actualCostPerUnit : String</text>
</a>
</g>
</g>
<!-- Supplier&#45;&gt;ReceivedDelivery -->
<g id="edge5" class="edge"><title>Supplier&#45;&gt;ReceivedDelivery</title>
<path fill="none" stroke="black" d="M306.363,-109.839C320.351,-127.735 335.089,-149.715 344,-172 357.596,-206.001 361.736,-248.109 362.861,-276.6"/>
<text text-anchor="middle" x="357.611" y="-262.6" font-family="Times,serif" font-size="14.00">* </text>
<text text-anchor="middle" x="311.613" y="-112.639" font-family="Times,serif" font-size="14.00">1 </text>
</g>
<!-- ReceivedLineItem -->
<g id="node7" class="node"><title>ReceivedLineItem</title>
<g id="a_node7"><a xlink:href="javascript:Action.selectClass(&quot;ReceivedLineItem&quot;);" xlink:title="class ReceivedLineItem
">
<polygon fill="none" stroke="black" points="193.117,-380.8 193.117,-447.2 356.883,-447.2 356.883,-380.8 193.117,-380.8"/>
<text text-anchor="middle" x="275" y="-429.2" font-family="Times,serif" font-size="14.00">ReceivedLineItem</text>
<polyline fill="none" stroke="black" points="193.117,-422.4 356.883,-422.4 "/>
<text text-anchor="start" x="201.117" y="-404.4" font-family="Times,serif" font-size="14.00">numberReceived : String</text>
<text text-anchor="start" x="201.117" y="-387.6" font-family="Times,serif" font-size="14.00">actualCostPerUnit : String</text>
</a>
</g>
</g>
<!-- ReceivedDelivery&#45;&gt;ReceivedLineItem -->
<g id="edge6" class="edge"><title>ReceivedDelivery&#45;&gt;ReceivedLineItem</title>
<path fill="none" stroke="black" d="M335.156,-343.273C324.884,-355.18 313.248,-368.668 302.965,-380.586"/>
<text text-anchor="middle" x="297.715" y="-366.586" font-family="Times,serif" font-size="14.00">* </text>
<text text-anchor="middle" x="329.906" y="-346.073" font-family="Times,serif" font-size="14.00">1 </text>
</g>
<!-- SupplierOrderLineItem&#45;&gt;ReceivedLineItem -->
<g id="edge7" class="edge"><title>SupplierOrderLineItem&#45;&gt;ReceivedLineItem</title>
<path fill="none" stroke="black" d="M215.527,-343.273C225.683,-355.18 237.187,-368.668 247.353,-380.586"/>
<text text-anchor="middle" x="242.103" y="-366.586" font-family="Times,serif" font-size="14.00">* </text>
<text text-anchor="middle" x="210.277" y="-346.073" font-family="Times,serif" font-size="14.00">1 </text>
</g>
<!-- OrderToSupplier&#45;&gt;SupplierOrderLineItem -->
<g id="edge8" class="edge"><title>OrderToSupplier&#45;&gt;SupplierOrderLineItem</title>
<path fill="none" stroke="black" d="M244.055,-239.273C234.483,-251.18 223.64,-264.668 214.058,-276.586"/>
<text text-anchor="middle" x="208.808" y="-262.586" font-family="Times,serif" font-size="14.00">* </text>
<text text-anchor="middle" x="238.805" y="-242.073" font-family="Times,serif" font-size="14.00">1 </text>
</g>
</g>
</svg>
