<?xml version="1.0" encoding="UTF-8" standalone="no"?>
<!DOCTYPE svg PUBLIC "-//W3C//DTD SVG 1.1//EN"
 "http://www.w3.org/Graphics/SVG/1.1/DTD/svg11.dtd">
<!-- Generated by graphviz version 2.39.20140502.0445 (20140502.0445)
 -->
<!-- Title: InventoryManagement Pages: 1 -->
<svg width="456pt" height="424pt"
 viewBox="0.00 0.00 456.00 424.00" xmlns="http://www.w3.org/2000/svg" xmlns:xlink="http://www.w3.org/1999/xlink">
<g id="graph0" class="graph" transform="scale(1 1) rotate(0) translate(4 420)">
<title>InventoryManagement</title>
<polygon fill="white" stroke="none" points="-4,4 -4,-420 452,-420 452,4 -4,4"/>
<!-- ProductSource -->
<g id="node1" class="node"><title>ProductSource</title>
<g id="a_node1"><a xlink:href="javascript:Action.selectClass(&quot;ProductSource&quot;);" xlink:title="class ProductSource
">
<polygon fill="none" stroke="black" points="0,-166 0,-212 188,-212 188,-166 0,-166"/>
<text text-anchor="middle" x="94" y="-196.8" font-family="Times,serif" font-size="14.00">ProductSource</text>
<polyline fill="none" stroke="black" points="0,-189 188,-189 "/>
<text text-anchor="start" x="8" y="-173.8" font-family="Times,serif" font-size="14.00">advertisedCostPerUnit : String</text>
</a>
</g>
</g>
<!-- SupplierOrderLineItem -->
<g id="node5" class="node"><title>SupplierOrderLineItem</title>
<g id="a_node5"><a xlink:href="javascript:Action.selectClass(&quot;SupplierOrderLineItem&quot;);" xlink:title="class SupplierOrderLineItem
">
<polygon fill="none" stroke="black" points="116,-256.5 116,-317.5 266,-317.5 266,-256.5 116,-256.5"/>
<text text-anchor="middle" x="191" y="-302.3" font-family="Times,serif" font-size="14.00">SupplierOrderLineItem</text>
<polyline fill="none" stroke="black" points="116,-294.5 266,-294.5 "/>
<text text-anchor="start" x="124" y="-279.3" font-family="Times,serif" font-size="14.00">numberOrdered : String</text>
<text text-anchor="start" x="124" y="-264.3" font-family="Times,serif" font-size="14.00">dateExpected : String</text>
</a>
</g>
</g>
<!-- ProductSource&#45;&gt;SupplierOrderLineItem -->
<g id="edge1" class="edge"><title>ProductSource&#45;&gt;SupplierOrderLineItem</title>
<g id="a_edge1"><a xlink:title="ProductSource 1 &#160;&#45;&#45; * &#160;SupplierOrderLineItem">
<path fill="none" stroke="black" d="M116.498,-212.266C129.706,-225.338 146.567,-242.025 160.907,-256.217"/>
</a>
</g>
<text text-anchor="middle" x="155.407" y="-245.017" font-family="Times,serif" font-size="14.00">* </text>
<text text-anchor="middle" x="110.998" y="-216.066" font-family="Times,serif" font-size="14.00">1 </text>
</g>
<!-- Product -->
<g id="node2" class="node"><title>Product</title>
<g id="a_node2"><a xlink:href="javascript:Action.selectClass(&quot;Product&quot;);" xlink:title="class Product
Positioning
">
<polygon fill="none" stroke="black" points="8.5,-0.5 8.5,-121.5 179.5,-121.5 179.5,-0.5 8.5,-0.5"/>
<text text-anchor="middle" x="94" y="-106.3" font-family="Times,serif" font-size="14.00">Product</text>
<polyline fill="none" stroke="black" points="8.5,-98.5 179.5,-98.5 "/>
<text text-anchor="start" x="16.5" y="-83.3" font-family="Times,serif" font-size="14.00">ourCode : String</text>
<text text-anchor="start" x="16.5" y="-68.3" font-family="Times,serif" font-size="14.00">description : String</text>
<text text-anchor="start" x="16.5" y="-53.3" font-family="Times,serif" font-size="14.00">picture : String</text>
<text text-anchor="start" x="16.5" y="-38.3" font-family="Times,serif" font-size="14.00">ourListPricePerunit : String</text>
<text text-anchor="start" x="16.5" y="-23.3" font-family="Times,serif" font-size="14.00">numberInInventory : String</text>
<text text-anchor="start" x="16.5" y="-8.3" font-family="Times,serif" font-size="14.00">numberToKeepInv : String</text>
</a>
</g>
</g>
<!-- Product&#45;&gt;ProductSource -->
<g id="edge2" class="edge"><title>Product&#45;&gt;ProductSource</title>
<g id="a_edge2"><a xlink:title="Product 1 &#160;&#45;&#45; * &#160;ProductSource">
<path fill="none" stroke="black" d="M94,-121.679C94,-137.454 94,-153.507 94,-165.868"/>
</a>
</g>
<text text-anchor="middle" x="88.5" y="-154.668" font-family="Times,serif" font-size="14.00">* </text>
<text text-anchor="middle" x="88.5" y="-125.479" font-family="Times,serif" font-size="14.00">1 </text>
</g>
<!-- Supplier -->
<g id="node3" class="node"><title>Supplier</title>
<g id="a_node3"><a xlink:href="javascript:Action.selectClass(&quot;Supplier&quot;);" xlink:title="class Supplier
">
<polygon fill="none" stroke="black" points="220,-23 220,-99 324,-99 324,-23 220,-23"/>
<text text-anchor="middle" x="272" y="-83.8" font-family="Times,serif" font-size="14.00">Supplier</text>
<polyline fill="none" stroke="black" points="220,-76 324,-76 "/>
<text text-anchor="start" x="228" y="-60.8" font-family="Times,serif" font-size="14.00">id : String</text>
<text text-anchor="start" x="228" y="-45.8" font-family="Times,serif" font-size="14.00">name : String</text>
<text text-anchor="start" x="228" y="-30.8" font-family="Times,serif" font-size="14.00">address : String</text>
</a>
</g>
</g>
<!-- Supplier&#45;&gt;ProductSource -->
<g id="edge3" class="edge"><title>Supplier&#45;&gt;ProductSource</title>
<g id="a_edge3"><a xlink:title="Supplier 1 &#160;&#45;&#45; * &#160;ProductSource">
<path fill="none" stroke="black" d="M125.808,-165.762 144.038,-152.993 167.333,-136.636 188,-122 198.384,-114.646 209.469,-106.756 220.068,-99.1932"/>
</a>
</g>
<text text-anchor="middle" x="120.308" y="-154.562" font-family="Times,serif" font-size="14.00">* </text>
<text text-anchor="middle" x="214.568" y="-102.993" font-family="Times,serif" font-size="14.00">1 </text>
</g>
<!-- ReceivedDelivery -->
<g id="node4" class="node"><title>ReceivedDelivery</title>
<g id="a_node4"><a xlink:href="javascript:Action.selectClass(&quot;ReceivedDelivery&quot;);" xlink:title="class ReceivedDelivery
">
<polygon fill="none" stroke="black" points="284,-256.5 284,-317.5 448,-317.5 448,-256.5 284,-256.5"/>
<text text-anchor="middle" x="366" y="-302.3" font-family="Times,serif" font-size="14.00">ReceivedDelivery</text>
<polyline fill="none" stroke="black" points="284,-294.5 448,-294.5 "/>
<text text-anchor="start" x="292" y="-279.3" font-family="Times,serif" font-size="14.00">numberReceived : String</text>
<text text-anchor="start" x="292" y="-264.3" font-family="Times,serif" font-size="14.00">actualCostPerUnit : String</text>
</a>
</g>
</g>
<!-- Supplier&#45;&gt;ReceivedDelivery -->
<g id="edge5" class="edge"><title>Supplier&#45;&gt;ReceivedDelivery</title>
<g id="a_edge5"><a xlink:title="Supplier 1 &#160;&#45;&#45; * &#160;ReceivedDelivery">
<path fill="none" stroke="black" d="M308.407,-99.1961C322.69,-115.889 337.827,-136.62 347,-158 360.641,-189.795 364.746,-229.657 365.851,-256.374"/>
</a>
</g>
<text text-anchor="middle" x="360.351" y="-245.174" font-family="Times,serif" font-size="14.00">* </text>
<text text-anchor="middle" x="302.907" y="-102.996" font-family="Times,serif" font-size="14.00">1 </text>
</g>
<!-- OrderToSupplier -->
<g id="node6" class="node"><title>OrderToSupplier</title>
<g id="a_node6"><a xlink:href="javascript:Action.selectClass(&quot;OrderToSupplier&quot;);" xlink:title="class OrderToSupplier
">
<polygon fill="none" stroke="black" points="206.5,-158.5 206.5,-219.5 337.5,-219.5 337.5,-158.5 206.5,-158.5"/>
<text text-anchor="middle" x="272" y="-204.3" font-family="Times,serif" font-size="14.00">OrderToSupplier</text>
<polyline fill="none" stroke="black" points="206.5,-196.5 337.5,-196.5 "/>
<text text-anchor="start" x="214.5" y="-181.3" font-family="Times,serif" font-size="14.00">poNumber : String</text>
<text text-anchor="start" x="214.5" y="-166.3" font-family="Times,serif" font-size="14.00">dateOrdered : String</text>
</a>
</g>
</g>
<!-- Supplier&#45;&gt;OrderToSupplier -->
<g id="edge4" class="edge"><title>Supplier&#45;&gt;OrderToSupplier</title>
<g id="a_edge4"><a xlink:title="Supplier 1 &#160;&#45;&#45; * &#160;OrderToSupplier">
<path fill="none" stroke="black" d="M272,-99.1227C272,-117.996 272,-140.621 272,-158.319"/>
</a>
</g>
<text text-anchor="middle" x="266.5" y="-147.119" font-family="Times,serif" font-size="14.00">* </text>
<text text-anchor="middle" x="266.5" y="-102.923" font-family="Times,serif" font-size="14.00">1 </text>
</g>
<!-- ReceivedLineItem -->
<g id="node7" class="node"><title>ReceivedLineItem</title>
<g id="a_node7"><a xlink:href="javascript:Action.selectClass(&quot;ReceivedLineItem&quot;);" xlink:title="class ReceivedLineItem
">
<polygon fill="none" stroke="black" points="196,-354.5 196,-415.5 360,-415.5 360,-354.5 196,-354.5"/>
<text text-anchor="middle" x="278" y="-400.3" font-family="Times,serif" font-size="14.00">ReceivedLineItem</text>
<polyline fill="none" stroke="black" points="196,-392.5 360,-392.5 "/>
<text text-anchor="start" x="204" y="-377.3" font-family="Times,serif" font-size="14.00">numberReceived : String</text>
<text text-anchor="start" x="204" y="-362.3" font-family="Times,serif" font-size="14.00">actualCostPerUnit : String</text>
</a>
</g>
</g>
<!-- ReceivedDelivery&#45;&gt;ReceivedLineItem -->
<g id="edge6" class="edge"><title>ReceivedDelivery&#45;&gt;ReceivedLineItem</title>
<g id="a_edge6"><a xlink:title="ReceivedDelivery 1 &#160;&#45;&#45; * &#160;ReceivedLineItem">
<path fill="none" stroke="black" d="M305.183,-354.346 315.895,-342.66 328.173,-329.266 338.879,-317.586"/>
</a>
</g>
<text text-anchor="middle" x="299.683" y="-343.146" font-family="Times,serif" font-size="14.00">* </text>
<text text-anchor="middle" x="333.379" y="-321.386" font-family="Times,serif" font-size="14.00">1 </text>
</g>
<!-- SupplierOrderLineItem&#45;&gt;ReceivedLineItem -->
<g id="edge7" class="edge"><title>SupplierOrderLineItem&#45;&gt;ReceivedLineItem</title>
<g id="a_edge7"><a xlink:title="SupplierOrderLineItem 1 &#160;&#45;&#45; * &#160;ReceivedLineItem">
<path fill="none" stroke="black" d="M217.813,-317.586C228.397,-329.266 240.535,-342.66 251.126,-354.346"/>
</a>
</g>
<text text-anchor="middle" x="245.626" y="-343.146" font-family="Times,serif" font-size="14.00">* </text>
<text text-anchor="middle" x="212.313" y="-321.386" font-family="Times,serif" font-size="14.00">1 </text>
</g>
<!-- OrderToSupplier&#45;&gt;SupplierOrderLineItem -->
<g id="edge8" class="edge"><title>OrderToSupplier&#45;&gt;SupplierOrderLineItem</title>
<g id="a_edge8"><a xlink:title="OrderToSupplier 1 &#160;&#45;&#45; * &#160;SupplierOrderLineItem">
<path fill="none" stroke="black" d="M216.021,-256.346 225.881,-244.66 237.182,-231.266 247.036,-219.586"/>
</a>
</g>
<text text-anchor="middle" x="210.521" y="-245.146" font-family="Times,serif" font-size="14.00">* </text>
<text text-anchor="middle" x="241.536" y="-223.386" font-family="Times,serif" font-size="14.00">1 </text>
</g>
</g>
</svg>
