<?xml version="1.0" encoding="UTF-8" standalone="no"?>
<!DOCTYPE svg PUBLIC "-//W3C//DTD SVG 1.1//EN"
 "http://www.w3.org/Graphics/SVG/1.1/DTD/svg11.dtd">
<!-- Generated by graphviz version 2.40.1 (20161225.0304)
 -->
<!-- Title: Library Pages: 1 -->
<svg width="698pt" height="356pt"
 viewBox="0.00 0.00 697.50 356.41" xmlns="http://www.w3.org/2000/svg" xmlns:xlink="http://www.w3.org/1999/xlink">
<g id="graph0" class="graph" transform="scale(1 1) rotate(0) translate(4 352.4136)">
<title>Library</title>
<polygon fill="#ffffff" stroke="transparent" points="-4,4 -4,-352.4136 693.5,-352.4136 693.5,4 -4,4"/>
<!-- PartOfPublication -->
<g id="node1" class="node">
<title>PartOfPublication</title>
<g id="a_node1"><a xlink:href="javascript:Action.selectClass(&quot;PartOfPublication&quot;);" xlink:title="class PartOfPublication&#10;">
<text text-anchor="start" x="136.4517" y="-331.8" font-family="Times,serif" font-size="14.00" fill="#000000"> &#160;&#160;&#160;PartOfPublication &#160;&#160;&#160;</text>
<g id="a_node1_0"><a xlink:href="javascript:Action.selectClass(&quot;PartOfPublication&quot;);" xlink:title="String title&#13;">
<text text-anchor="start" x="134.5" y="-311.8" font-family="Times,serif" font-size="14.00" fill="#000000"> &#160;title : String &#160;</text>
</a>
</g>
<g id="a_node1_1"><a xlink:href="javascript:Action.selectClass(&quot;PartOfPublication&quot;);" xlink:title="String pageNumber&#13;">
<text text-anchor="start" x="134.5" y="-293.8" font-family="Times,serif" font-size="14.00" fill="#000000"> &#160;pageNumber : String &#160;</text>
</a>
</g>
<polygon fill="#000000" stroke="#000000" points="131.5,-325 131.5,-325 270.5,-325 270.5,-325 131.5,-325"/>
<polygon fill="none" stroke="#000000" points="131,-288 131,-348 270,-348 270,-288 131,-288"/>
</a>
</g>
</g>
<!-- PartOfPublication&#45;&gt;PartOfPublication -->
<g id="edge5" class="edge">
<title>PartOfPublication&#45;&gt;PartOfPublication</title>
<g id="a_edge5"><a xlink:title="PartOfPublication 0..1 &#160;&#45;&#45; * subparts PartOfPublication">
<path fill="none" stroke="#000000" d="M270.1727,-301.5864C280.7902,-304.0913 288,-309.5625 288,-318 288,-326.4375 280.7902,-331.9087 270.1727,-334.4136"/>
</a>
</g>
<text text-anchor="middle" x="298.7538" y="-337.2136" font-family="Times,serif" font-size="14.00" fill="#000000">* subparts</text>
<text text-anchor="middle" x="282.4227" y="-290.3864" font-family="Times,serif" font-size="14.00" fill="#000000">0..1 </text>
</g>
<!-- Copy -->
<g id="node2" class="node">
<title>Copy</title>
<g id="a_node2"><a xlink:href="javascript:Action.selectClass(&quot;Copy&quot;);" xlink:title="class Copy&#10;">
<text text-anchor="start" x="356.3311" y="-322.8" font-family="Times,serif" font-size="14.00" fill="#000000"> &#160;&#160;&#160;Copy &#160;&#160;&#160;</text>
<g id="a_node2_2"><a xlink:href="javascript:Action.selectClass(&quot;Copy&quot;);" xlink:title="String barCodeNumber&#13;">
<text text-anchor="start" x="309.2896" y="-302.8" font-family="Times,serif" font-size="14.00" fill="#000000"> &#160;barCodeNumber : String &#160;</text>
</a>
</g>
<polygon fill="#000000" stroke="#000000" points="306.5,-316 306.5,-316 464.5,-316 464.5,-316 306.5,-316"/>
<polygon fill="none" stroke="#000000" points="306.5,-297 306.5,-339 464.5,-339 464.5,-297 306.5,-297"/>
</a>
</g>
</g>
<!-- EditionOrIssue -->
<g id="node3" class="node">
<title>EditionOrIssue</title>
<g id="a_node3"><a xlink:href="javascript:Action.selectClass(&quot;EditionOrIssue&quot;);" xlink:title="class EditionOrIssue&#10;">
<text text-anchor="start" x="236.6172" y="-235.8" font-family="Times,serif" font-size="14.00" fill="#000000"> &#160;&#160;&#160;EditionOrIssue &#160;&#160;&#160;</text>
<g id="a_node3_3"><a xlink:href="javascript:Action.selectClass(&quot;EditionOrIssue&quot;);" xlink:title="String issueNumber&#13;">
<text text-anchor="start" x="223.5" y="-215.8" font-family="Times,serif" font-size="14.00" fill="#000000"> &#160;issueNumber : String &#160;</text>
</a>
</g>
<g id="a_node3_4"><a xlink:href="javascript:Action.selectClass(&quot;EditionOrIssue&quot;);" xlink:title="String publishedDate&#13;">
<text text-anchor="start" x="223.0068" y="-197.8" font-family="Times,serif" font-size="14.00" fill="#000000"> &#160;publishedDate : String &#160;</text>
</a>
</g>
<polygon fill="#000000" stroke="#000000" points="220.5,-229 220.5,-229 365.5,-229 365.5,-229 220.5,-229"/>
<polygon fill="none" stroke="#000000" points="220,-192 220,-252 365,-252 365,-192 220,-192"/>
</a>
</g>
</g>
<!-- EditionOrIssue&#45;&gt;PartOfPublication -->
<g id="edge6" class="edge">
<title>EditionOrIssue&#45;&gt;PartOfPublication</title>
<g id="a_edge6"><a xlink:title="EditionOrIssue 1 &#160;&#45;&#45; * tableOfContents PartOfPublication">
<path fill="none" stroke="#000000" d="M263.643,-252.1116C252.6822,-263.549 240.206,-276.5677 229.2546,-287.9952"/>
</a>
</g>
<text text-anchor="middle" x="178.1252" y="-276.7952" font-family="Times,serif" font-size="14.00" fill="#000000">* tableOfContents</text>
<text text-anchor="middle" x="258.393" y="-254.9116" font-family="Times,serif" font-size="14.00" fill="#000000">1 </text>
</g>
<!-- EditionOrIssue&#45;&gt;Copy -->
<g id="edge7" class="edge">
<title>EditionOrIssue&#45;&gt;Copy</title>
<g id="a_edge7"><a xlink:title="EditionOrIssue 1 &#160;&#45;&#45; * &#160;Copy">
<path fill="none" stroke="#000000" d="M321.6706,-252.1116C335.7337,-266.6283 352.2645,-283.6924 364.9792,-296.8173"/>
</a>
</g>
<text text-anchor="middle" x="359.7292" y="-285.6173" font-family="Times,serif" font-size="14.00" fill="#000000">* </text>
<text text-anchor="middle" x="316.4206" y="-254.9116" font-family="Times,serif" font-size="14.00" fill="#000000">1 </text>
</g>
<!-- Publisher -->
<g id="node4" class="node">
<title>Publisher</title>
<g id="a_node4"><a xlink:href="javascript:Action.selectClass(&quot;Publisher&quot;);" xlink:title="class Publisher&#10;">
<text text-anchor="start" x="7.5552" y="-130.8" font-family="Times,serif" font-size="14.00" fill="#000000"> &#160;&#160;&#160;Publisher &#160;&#160;&#160;</text>
<g id="a_node4_5"><a xlink:href="javascript:Action.selectClass(&quot;Publisher&quot;);" xlink:title="String name&#13;">
<text text-anchor="start" x="3.2827" y="-110.8" font-family="Times,serif" font-size="14.00" fill="#000000"> &#160;name : String &#160;</text>
</a>
</g>
<polygon fill="#000000" stroke="#000000" points=".5,-124 .5,-124 95.5,-124 95.5,-124 .5,-124"/>
<polygon fill="none" stroke="#000000" points="0,-105 0,-147 95,-147 95,-105 0,-105"/>
</a>
</g>
</g>
<!-- Publisher&#45;&gt;EditionOrIssue -->
<g id="edge8" class="edge">
<title>Publisher&#45;&gt;EditionOrIssue</title>
<g id="a_edge8"><a xlink:title="Publisher 1 &#160;&#45;&#45; * &#160;EditionOrIssue">
<path fill="none" stroke="#000000" d="M85.758,-147.114C91.9506,-150.2468 98.3492,-153.319 104.5,-156 141.7596,-172.2407 184.4214,-187.477 219.677,-199.2095"/>
</a>
</g>
<text text-anchor="middle" x="214.427" y="-188.0095" font-family="Times,serif" font-size="14.00" fill="#000000">* </text>
<text text-anchor="middle" x="80.508" y="-149.914" font-family="Times,serif" font-size="14.00" fill="#000000">1 </text>
</g>
<!-- Author -->
<g id="node5" class="node">
<title>Author</title>
<g id="a_node5"><a xlink:href="javascript:Action.selectClass(&quot;Author&quot;);" xlink:title="class Author&#10;">
<text text-anchor="start" x="124.0518" y="-121.8" font-family="Times,serif" font-size="14.00" fill="#000000"> &#160;&#160;&#160;Author &#160;&#160;&#160;</text>
<polygon fill="none" stroke="#000000" points="113.5,-108 113.5,-144 201.5,-144 201.5,-108 113.5,-108"/>
</a>
</g>
</g>
<!-- Author&#45;&gt;EditionOrIssue -->
<g id="edge9" class="edge">
<title>Author&#45;&gt;EditionOrIssue</title>
<g id="a_edge9"><a xlink:title="Author * &#160;&#45;&#45; * &#160;EditionOrIssue">
<path fill="none" stroke="#000000" d="M182.8925,-144.0569C201.8345,-157.5268 228.1425,-176.2347 250.2365,-191.9459"/>
</a>
</g>
<text text-anchor="middle" x="244.9865" y="-180.7459" font-family="Times,serif" font-size="14.00" fill="#000000">* </text>
<text text-anchor="middle" x="177.6425" y="-146.8569" font-family="Times,serif" font-size="14.00" fill="#000000">* </text>
</g>
<!-- EditionOfBook -->
<g id="node6" class="node">
<title>EditionOfBook</title>
<g id="a_node6"><a xlink:href="javascript:Action.selectClass(&quot;EditionOfBook&quot;);" xlink:title="class EditionOfBook&#10;Positioning&#13;">
<text text-anchor="start" x="235.3345" y="-139.8" font-family="Times,serif" font-size="14.00" fill="#000000"> &#160;&#160;&#160;EditionOfBook &#160;&#160;&#160;</text>
<g id="a_node6_6"><a xlink:href="javascript:Action.selectClass(&quot;EditionOfBook&quot;);" xlink:title="String isbn&#13;">
<text text-anchor="start" x="222.5" y="-119.8" font-family="Times,serif" font-size="14.00" fill="#000000"> &#160;isbn : String &#160;</text>
</a>
</g>
<g id="a_node6_7"><a xlink:href="javascript:Action.selectClass(&quot;EditionOfBook&quot;);" xlink:title="String libOfCongress&#13;">
<text text-anchor="start" x="222.1104" y="-101.8" font-family="Times,serif" font-size="14.00" fill="#000000"> &#160;libOfCongress : String &#160;</text>
</a>
</g>
<polygon fill="#000000" stroke="#000000" points="219.5,-133 219.5,-133 365.5,-133 365.5,-133 219.5,-133"/>
<polygon fill="none" stroke="#000000" points="219.5,-96 219.5,-156 365.5,-156 365.5,-96 219.5,-96"/>
</a>
</g>
</g>
<!-- EditionOfBook&#45;&gt;EditionOrIssue -->
<g id="edge1" class="edge">
<title>EditionOfBook&#45;&gt;EditionOrIssue</title>
<path fill="none" stroke="#000000" d="M300.3034,-156.2957C302.7125,-165.6486 305.1967,-175.2931 306.975,-182.1971"/>
<polygon fill="none" stroke="#000000" points="303.6162,-183.1891 309.5,-192 310.395,-181.443 303.6162,-183.1891"/>
</g>
<!-- IssueOfPeriodical -->
<g id="node7" class="node">
<title>IssueOfPeriodical</title>
<g id="a_node7"><a xlink:href="javascript:Action.selectClass(&quot;IssueOfPeriodical&quot;);" xlink:title="class IssueOfPeriodical&#10;">
<text text-anchor="start" x="388.3481" y="-130.8" font-family="Times,serif" font-size="14.00" fill="#000000"> &#160;&#160;&#160;IssueOfPeriodical &#160;&#160;&#160;</text>
<g id="a_node7_8"><a xlink:href="javascript:Action.selectClass(&quot;IssueOfPeriodical&quot;);" xlink:title="String volume&#13;">
<text text-anchor="start" x="386.5" y="-110.8" font-family="Times,serif" font-size="14.00" fill="#000000"> &#160;volume : String &#160;</text>
</a>
</g>
<polygon fill="#000000" stroke="#000000" points="383.5,-124 383.5,-124 521.5,-124 521.5,-124 383.5,-124"/>
<polygon fill="none" stroke="#000000" points="383.5,-105 383.5,-147 521.5,-147 521.5,-105 383.5,-105"/>
</a>
</g>
</g>
<!-- IssueOfPeriodical&#45;&gt;EditionOrIssue -->
<g id="edge2" class="edge">
<title>IssueOfPeriodical&#45;&gt;EditionOrIssue</title>
<path fill="none" stroke="#000000" d="M406.8607,-147.0643C375.4733,-161.5508 336.4016,-179.5839 318.8275,-187.695"/>
<polygon fill="none" stroke="#000000" points="317.1129,-184.6315 309.5,-192 320.0463,-190.9872 317.1129,-184.6315"/>
</g>
<!-- Publication -->
<g id="node8" class="node">
<title>Publication</title>
<g id="a_node8"><a xlink:href="javascript:Action.selectClass(&quot;Publication&quot;);" xlink:title="class Publication&#10;">
<text text-anchor="start" x="545.1138" y="-130.8" font-family="Times,serif" font-size="14.00" fill="#000000"> &#160;&#160;&#160;Publication &#160;&#160;&#160;</text>
<g id="a_node8_9"><a xlink:href="javascript:Action.selectClass(&quot;Publication&quot;);" xlink:title="String name&#13;">
<text text-anchor="start" x="543.5" y="-110.8" font-family="Times,serif" font-size="14.00" fill="#000000"> &#160;name : String &#160;</text>
</a>
</g>
<polygon fill="#000000" stroke="#000000" points="540.5,-124 540.5,-124 641.5,-124 641.5,-124 540.5,-124"/>
<polygon fill="none" stroke="#000000" points="540,-105 540,-147 641,-147 641,-105 540,-105"/>
</a>
</g>
</g>
<!-- Publication&#45;&gt;EditionOrIssue -->
<g id="edge10" class="edge">
<title>Publication&#45;&gt;EditionOrIssue</title>
<g id="a_edge10"><a xlink:title="Publication 1 &#160;&#45;&#45; * &#160;EditionOrIssue">
<path fill="none" stroke="#000000" d="M550.9644,-147.1088C544.234,-150.3127 537.2396,-153.4086 530.5,-156 476.27,-176.8519 412.7706,-194.1203 365.0071,-205.757"/>
</a>
</g>
<text text-anchor="middle" x="370.2571" y="-194.557" font-family="Times,serif" font-size="14.00" fill="#000000">* </text>
<text text-anchor="middle" x="545.7144" y="-149.9088" font-family="Times,serif" font-size="14.00" fill="#000000">1 </text>
</g>
<!-- Periodical -->
<g id="node9" class="node">
<title>Periodical</title>
<g id="a_node9"><a xlink:href="javascript:Action.selectClass(&quot;Periodical&quot;);" xlink:title="class Periodical&#10;">
<text text-anchor="start" x="488.6206" y="-43.8" font-family="Times,serif" font-size="14.00" fill="#000000"> &#160;&#160;&#160;Periodical &#160;&#160;&#160;</text>
<g id="a_node9_10"><a xlink:href="javascript:Action.selectClass(&quot;Periodical&quot;);" xlink:title="String issn&#13;">
<text text-anchor="start" x="473.5" y="-23.8" font-family="Times,serif" font-size="14.00" fill="#000000"> &#160;issn : String &#160;</text>
</a>
</g>
<g id="a_node9_11"><a xlink:href="javascript:Action.selectClass(&quot;Periodical&quot;);" xlink:title="String frequency&#13;">
<text text-anchor="start" x="473.4585" y="-5.8" font-family="Times,serif" font-size="14.00" fill="#000000"> &#160;frequency : String &#160;</text>
</a>
</g>
<polygon fill="#000000" stroke="#000000" points="470.5,-37 470.5,-37 591.5,-37 591.5,-37 470.5,-37"/>
<polygon fill="none" stroke="#000000" points="470,0 470,-60 591,-60 591,0 470,0"/>
</a>
</g>
</g>
<!-- Periodical&#45;&gt;Publication -->
<g id="edge3" class="edge">
<title>Periodical&#45;&gt;Publication</title>
<path fill="none" stroke="#000000" d="M554.5586,-60.0732C565.2522,-73.4402 576.995,-88.1187 584.054,-96.9425"/>
<polygon fill="none" stroke="#000000" points="581.52,-99.3777 590.5,-105 586.9861,-95.0048 581.52,-99.3777"/>
</g>
<!-- Book -->
<g id="node10" class="node">
<title>Book</title>
<g id="a_node10"><a xlink:href="javascript:Action.selectClass(&quot;Book&quot;);" xlink:title="class Book&#10;">
<text text-anchor="start" x="620.3311" y="-25.8" font-family="Times,serif" font-size="14.00" fill="#000000"> &#160;&#160;&#160;Book &#160;&#160;&#160;</text>
<polygon fill="none" stroke="#000000" points="609.5,-12 609.5,-48 689.5,-48 689.5,-12 609.5,-12"/>
</a>
</g>
</g>
<!-- Book&#45;&gt;Publication -->
<g id="edge4" class="edge">
<title>Book&#45;&gt;Publication</title>
<path fill="none" stroke="#000000" d="M635.2177,-48.1554C622.9403,-63.7623 605.8203,-85.5251 596.7373,-97.0713"/>
<polygon fill="none" stroke="#000000" points="593.932,-94.9764 590.5,-105 599.4337,-99.3044 593.932,-94.9764"/>
</g>
</g>
</svg>
