<?xml version="1.0" encoding="UTF-8" standalone="no"?>
<!DOCTYPE svg PUBLIC "-//W3C//DTD SVG 1.1//EN"
 "http://www.w3.org/Graphics/SVG/1.1/DTD/svg11.dtd">
<!-- Generated by graphviz version 2.29.20121108.1600 (20121108.1600)
 -->
<!-- Title: Library Pages: 1 -->
<svg width="611pt" height="389pt"
 viewBox="0.00 0.00 611.00 388.58" xmlns="http://www.w3.org/2000/svg" xmlns:xlink="http://www.w3.org/1999/xlink">
<g id="graph0" class="graph" transform="scale(1 1) rotate(0) translate(4 384.581)">
<title>Library</title>
<polygon fill="white" stroke="white" points="-4,5 -4,-384.581 608,-384.581 608,5 -4,5"/>
<!-- PartOfPublication -->
<g id="node1" class="node"><title>PartOfPublication</title>
<g id="a_node1"><a xlink:href="javascript:Action.selectClass(&quot;PartOfPublication&quot;);" xlink:title="class PartOfPublication
">
<polygon fill="none" stroke="black" points="97.2896,-312.8 97.2896,-379.2 230.71,-379.2 230.71,-312.8 97.2896,-312.8"/>
<text text-anchor="middle" x="164" y="-361.2" font-family="Times,serif" font-size="14.00">PartOfPublication</text>
<polyline fill="none" stroke="black" points="97.2896,-354.4 230.71,-354.4 "/>
<text text-anchor="start" x="105.29" y="-336.4" font-family="Times,serif" font-size="14.00">title : String</text>
<text text-anchor="start" x="105.29" y="-319.6" font-family="Times,serif" font-size="14.00">pageNumber : String</text>
</a>
</g>
</g>
<!-- PartOfPublication&#45;&gt;PartOfPublication -->
<g id="edge5" class="edge"><title>PartOfPublication&#45;&gt;PartOfPublication</title>
<path fill="none" stroke="black" d="M230.886,-328.219C241.079,-330.932 248,-336.859 248,-346 248,-355.141 241.079,-361.068 230.886,-363.781"/>
<text text-anchor="middle" x="259.467" y="-366.581" font-family="Times,serif" font-size="14.00">* subparts</text>
<text text-anchor="middle" x="243.136" y="-314.219" font-family="Times,serif" font-size="14.00">0..1 </text>
</g>
<!-- Copy -->
<g id="node2" class="node"><title>Copy</title>
<g id="a_node2"><a xlink:href="javascript:Action.selectClass(&quot;Copy&quot;);" xlink:title="class Copy
">
<polygon fill="none" stroke="black" points="266.79,-321.2 266.79,-370.8 421.21,-370.8 421.21,-321.2 266.79,-321.2"/>
<text text-anchor="middle" x="344" y="-352.8" font-family="Times,serif" font-size="14.00">Copy</text>
<polyline fill="none" stroke="black" points="266.79,-346 421.21,-346 "/>
<text text-anchor="start" x="274.79" y="-328" font-family="Times,serif" font-size="14.00">barCodeNumber : String</text>
</a>
</g>
</g>
<!-- EditionOrIssue -->
<g id="node3" class="node"><title>EditionOrIssue</title>
<g id="a_node3"><a xlink:href="javascript:Action.selectClass(&quot;EditionOrIssue&quot;);" xlink:title="class EditionOrIssue
">
<polygon fill="none" stroke="black" points="183.007,-208.8 183.007,-275.2 324.993,-275.2 324.993,-208.8 183.007,-208.8"/>
<text text-anchor="middle" x="254" y="-257.2" font-family="Times,serif" font-size="14.00">EditionOrIssue</text>
<polyline fill="none" stroke="black" points="183.007,-250.4 324.993,-250.4 "/>
<text text-anchor="start" x="191.007" y="-232.4" font-family="Times,serif" font-size="14.00">issueNumber : String</text>
<text text-anchor="start" x="191.007" y="-215.6" font-family="Times,serif" font-size="14.00">publishedDate : String</text>
</a>
</g>
</g>
<!-- EditionOrIssue&#45;&gt;PartOfPublication -->
<g id="edge6" class="edge"><title>EditionOrIssue&#45;&gt;PartOfPublication</title>
<path fill="none" stroke="black" d="M225.523,-275.273C215.018,-287.18 203.117,-300.668 192.6,-312.586"/>
<text text-anchor="middle" x="141.471" y="-298.586" font-family="Times,serif" font-size="14.00">* tableOfContents</text>
<text text-anchor="middle" x="220.273" y="-278.073" font-family="Times,serif" font-size="14.00">1 </text>
</g>
<!-- EditionOrIssue&#45;&gt;Copy -->
<g id="edge7" class="edge"><title>EditionOrIssue&#45;&gt;Copy</title>
<path fill="none" stroke="black" d="M282.477,-275.273C295.557,-290.098 310.801,-307.374 322.842,-321.021"/>
<text text-anchor="middle" x="317.592" y="-307.021" font-family="Times,serif" font-size="14.00">* </text>
<text text-anchor="middle" x="277.227" y="-278.073" font-family="Times,serif" font-size="14.00">1 </text>
</g>
<!-- Publisher -->
<g id="node4" class="node"><title>Publisher</title>
<g id="a_node4"><a xlink:href="javascript:Action.selectClass(&quot;Publisher&quot;);" xlink:title="class Publisher
">
<polygon fill="none" stroke="black" points="-0.717285,-113.2 -0.717285,-162.8 90.7173,-162.8 90.7173,-113.2 -0.717285,-113.2"/>
<text text-anchor="middle" x="45" y="-144.8" font-family="Times,serif" font-size="14.00">Publisher</text>
<polyline fill="none" stroke="black" points="-0.717285,-138 90.7173,-138 "/>
<text text-anchor="start" x="7.28271" y="-120" font-family="Times,serif" font-size="14.00">name : String</text>
</a>
</g>
</g>
<!-- Publisher&#45;&gt;EditionOrIssue -->
<g id="edge8" class="edge"><title>Publisher&#45;&gt;EditionOrIssue</title>
<path fill="none" stroke="black" d="M83.4323,-162.846C88.9344,-166.029 94.5699,-169.167 100,-172 126.495,-185.821 156.324,-199.583 182.625,-211.138"/>
<text text-anchor="middle" x="177.375" y="-197.138" font-family="Times,serif" font-size="14.00">* </text>
<text text-anchor="middle" x="88.6823" y="-165.646" font-family="Times,serif" font-size="14.00">1 </text>
</g>
<!-- Author -->
<g id="node5" class="node"><title>Author</title>
<g id="a_node5"><a xlink:href="javascript:Action.selectClass(&quot;Author&quot;);" xlink:title="class Author
">
<polygon fill="none" stroke="black" points="109.169,-120 109.169,-156 164.831,-156 164.831,-120 109.169,-120"/>
<text text-anchor="middle" x="137" y="-132.5" font-family="Times,serif" font-size="14.00">Author</text>
</a>
</g>
</g>
<!-- Author&#45;&gt;EditionOrIssue -->
<g id="edge9" class="edge"><title>Author&#45;&gt;EditionOrIssue</title>
<path fill="none" stroke="black" d="M156.15,-156.188C161.874,-161.297 168.176,-166.892 174,-172 187.651,-183.973 202.708,-197.005 216.042,-208.486"/>
<text text-anchor="middle" x="210.792" y="-194.486" font-family="Times,serif" font-size="14.00">* </text>
<text text-anchor="middle" x="150.9" y="-158.988" font-family="Times,serif" font-size="14.00">* </text>
</g>
<!-- EditionOfBook -->
<g id="node6" class="node"><title>EditionOfBook</title>
<g id="a_node6"><a xlink:href="javascript:Action.selectClass(&quot;EditionOfBook&quot;);" xlink:title="class EditionOfBook
Positioning
">
<polygon fill="none" stroke="black" points="182.61,-104.8 182.61,-171.2 325.39,-171.2 325.39,-104.8 182.61,-104.8"/>
<text text-anchor="middle" x="254" y="-153.2" font-family="Times,serif" font-size="14.00">EditionOfBook</text>
<polyline fill="none" stroke="black" points="182.61,-146.4 325.39,-146.4 "/>
<text text-anchor="start" x="190.61" y="-128.4" font-family="Times,serif" font-size="14.00">isbn : String</text>
<text text-anchor="start" x="190.61" y="-111.6" font-family="Times,serif" font-size="14.00">libOfCongress : String</text>
</a>
</g>
</g>
<!-- EditionOfBook&#45;&gt;EditionOrIssue -->
<g id="edge1" class="edge"><title>EditionOfBook&#45;&gt;EditionOrIssue</title>
<path fill="none" stroke="black" d="M261.903,-171.541C264.331,-181.538 266.824,-191.804 268.585,-199.054"/>
<polygon fill="none" stroke="black" points="265.239,-200.108 271,-209 272.041,-198.456 265.239,-200.108"/>
</g>
<!-- IssueOfPeriodical -->
<g id="node7" class="node"><title>IssueOfPeriodical</title>
<g id="a_node7"><a xlink:href="javascript:Action.selectClass(&quot;IssueOfPeriodical&quot;);" xlink:title="class IssueOfPeriodical
">
<polygon fill="none" stroke="black" points="343.848,-113.2 343.848,-162.8 460.152,-162.8 460.152,-113.2 343.848,-113.2"/>
<text text-anchor="middle" x="402" y="-144.8" font-family="Times,serif" font-size="14.00">IssueOfPeriodical</text>
<polyline fill="none" stroke="black" points="343.848,-138 460.152,-138 "/>
<text text-anchor="start" x="351.848" y="-120" font-family="Times,serif" font-size="14.00">volume : String</text>
</a>
</g>
</g>
<!-- IssueOfPeriodical&#45;&gt;EditionOrIssue -->
<g id="edge2" class="edge"><title>IssueOfPeriodical&#45;&gt;EditionOrIssue</title>
<path fill="none" stroke="black" d="M357.284,-162.894C329.414,-177.786 295.945,-195.671 280.13,-204.121"/>
<polygon fill="none" stroke="black" points="278.17,-201.2 271,-209 281.469,-207.374 278.17,-201.2"/>
</g>
<!-- Publication -->
<g id="node8" class="node"><title>Publication</title>
<g id="a_node8"><a xlink:href="javascript:Action.selectClass(&quot;Publication&quot;);" xlink:title="class Publication
">
<polygon fill="none" stroke="black" points="478.283,-113.2 478.283,-162.8 569.717,-162.8 569.717,-113.2 478.283,-113.2"/>
<text text-anchor="middle" x="524" y="-144.8" font-family="Times,serif" font-size="14.00">Publication</text>
<polyline fill="none" stroke="black" points="478.283,-138 569.717,-138 "/>
<text text-anchor="start" x="486.283" y="-120" font-family="Times,serif" font-size="14.00">name : String</text>
</a>
</g>
</g>
<!-- Publication&#45;&gt;EditionOrIssue -->
<g id="edge10" class="edge"><title>Publication&#45;&gt;EditionOrIssue</title>
<path fill="none" stroke="black" d="M486.748,-162.902C480.923,-166.182 474.883,-169.334 469,-172 422.582,-193.035 367.864,-210.5 325.246,-222.596"/>
<text text-anchor="middle" x="330.496" y="-208.596" font-family="Times,serif" font-size="14.00">* </text>
<text text-anchor="middle" x="481.498" y="-165.702" font-family="Times,serif" font-size="14.00">1 </text>
</g>
<!-- Periodical -->
<g id="node9" class="node"><title>Periodical</title>
<g id="a_node9"><a xlink:href="javascript:Action.selectClass(&quot;Periodical&quot;);" xlink:title="class Periodical
">
<polygon fill="none" stroke="black" points="413.458,-0.8 413.458,-67.2 530.542,-67.2 530.542,-0.8 413.458,-0.8"/>
<text text-anchor="middle" x="472" y="-49.2" font-family="Times,serif" font-size="14.00">Periodical</text>
<polyline fill="none" stroke="black" points="413.458,-42.4 530.542,-42.4 "/>
<text text-anchor="start" x="421.458" y="-24.4" font-family="Times,serif" font-size="14.00">issn : String</text>
<text text-anchor="start" x="421.458" y="-7.6" font-family="Times,serif" font-size="14.00">frequency : String</text>
</a>
</g>
</g>
<!-- Periodical&#45;&gt;Publication -->
<g id="edge3" class="edge"><title>Periodical&#45;&gt;Publication</title>
<path fill="none" stroke="black" d="M493.751,-67.6271C502.769,-81.1528 512.486,-95.7297 518.407,-104.611"/>
<polygon fill="none" stroke="black" points="515.541,-106.621 524,-113 521.365,-102.738 515.541,-106.621"/>
</g>
<!-- Book -->
<g id="node10" class="node"><title>Book</title>
<g id="a_node10"><a xlink:href="javascript:Action.selectClass(&quot;Book&quot;);" xlink:title="class Book
">
<polygon fill="none" stroke="black" points="549,-16 549,-52 603,-52 603,-16 549,-16"/>
<text text-anchor="middle" x="575.669" y="-28.5" font-family="Times,serif" font-size="14.00">Book</text>
</a>
</g>
</g>
<!-- Book&#45;&gt;Publication -->
<g id="edge4" class="edge"><title>Book&#45;&gt;Publication</title>
<path fill="none" stroke="black" d="M564.46,-52.3107C553.688,-68.4681 538.061,-91.908 529.732,-104.401"/>
<polygon fill="none" stroke="black" points="526.635,-102.738 524,-113 532.459,-106.621 526.635,-102.738"/>
</g>
</g>
</svg>
