<?xml version="1.0" encoding="UTF-8" standalone="no"?>
<!DOCTYPE svg PUBLIC "-//W3C//DTD SVG 1.1//EN"
 "http://www.w3.org/Graphics/SVG/1.1/DTD/svg11.dtd">
<!-- Generated by graphviz version 2.39.20140502.0445 (20140502.0445)
 -->
<!-- Title: Library Pages: 1 -->
<svg width="614pt" height="365pt"
 viewBox="0.00 0.00 614.00 364.84" xmlns="http://www.w3.org/2000/svg" xmlns:xlink="http://www.w3.org/1999/xlink">
<g id="graph0" class="graph" transform="scale(1 1) rotate(0) translate(4 360.84)">
<title>Library</title>
<polygon fill="white" stroke="none" points="-4,4 -4,-360.84 610,-360.84 610,4 -4,4"/>
<!-- PartOfPublication -->
<g id="node1" class="node"><title>PartOfPublication</title>
<g id="a_node1"><a xlink:href="javascript:Action.selectClass(&quot;PartOfPublication&quot;);" xlink:title="class PartOfPublication
">
<polygon fill="none" stroke="black" points="99,-294.5 99,-355.5 233,-355.5 233,-294.5 99,-294.5"/>
<text text-anchor="middle" x="166" y="-340.3" font-family="Times,serif" font-size="14.00">PartOfPublication</text>
<polyline fill="none" stroke="black" points="99,-332.5 233,-332.5 "/>
<text text-anchor="start" x="107" y="-317.3" font-family="Times,serif" font-size="14.00">title : String</text>
<text text-anchor="start" x="107" y="-302.3" font-family="Times,serif" font-size="14.00">pageNumber : String</text>
</a>
</g>
</g>
<!-- PartOfPublication&#45;&gt;PartOfPublication -->
<g id="edge5" class="edge"><title>PartOfPublication&#45;&gt;PartOfPublication</title>
<g id="a_edge5"><a xlink:title="PartOfPublication 0..1 &#160;&#45;&#45; * subparts PartOfPublication">
<path fill="none" stroke="black" d="M233.337,-308.16C243.84,-310.678 251,-316.291 251,-325 251,-333.709 243.84,-339.322 233.337,-341.84"/>
</a>
</g>
<text text-anchor="middle" x="262.337" y="-345.64" font-family="Times,serif" font-size="14.00">* subparts</text>
<text text-anchor="middle" x="245.837" y="-296.96" font-family="Times,serif" font-size="14.00">0..1 </text>
</g>
<!-- Copy -->
<g id="node2" class="node"><title>Copy</title>
<g id="a_node2"><a xlink:href="javascript:Action.selectClass(&quot;Copy&quot;);" xlink:title="class Copy
">
<polygon fill="none" stroke="black" points="269.5,-302 269.5,-348 424.5,-348 424.5,-302 269.5,-302"/>
<text text-anchor="middle" x="347" y="-332.8" font-family="Times,serif" font-size="14.00">Copy</text>
<polyline fill="none" stroke="black" points="269.5,-325 424.5,-325 "/>
<text text-anchor="start" x="277.5" y="-309.8" font-family="Times,serif" font-size="14.00">barCodeNumber : String</text>
</a>
</g>
</g>
<!-- EditionOrIssue -->
<g id="node3" class="node"><title>EditionOrIssue</title>
<g id="a_node3"><a xlink:href="javascript:Action.selectClass(&quot;EditionOrIssue&quot;);" xlink:title="class EditionOrIssue
">
<polygon fill="none" stroke="black" points="185,-196.5 185,-257.5 327,-257.5 327,-196.5 185,-196.5"/>
<text text-anchor="middle" x="256" y="-242.3" font-family="Times,serif" font-size="14.00">EditionOrIssue</text>
<polyline fill="none" stroke="black" points="185,-234.5 327,-234.5 "/>
<text text-anchor="start" x="193" y="-219.3" font-family="Times,serif" font-size="14.00">issueNumber : String</text>
<text text-anchor="start" x="193" y="-204.3" font-family="Times,serif" font-size="14.00">publishedDate : String</text>
</a>
</g>
</g>
<!-- EditionOrIssue&#45;&gt;PartOfPublication -->
<g id="edge6" class="edge"><title>EditionOrIssue&#45;&gt;PartOfPublication</title>
<g id="a_edge6"><a xlink:title="EditionOrIssue 1 &#160;&#45;&#45; * tableOfContents PartOfPublication">
<path fill="none" stroke="black" d="M193.801,-294.346 204.756,-282.66 217.313,-269.266 228.263,-257.586"/>
</a>
</g>
<text text-anchor="middle" x="245.301" y="-283.146" font-family="Times,serif" font-size="14.00">* tableOfContents</text>
<text text-anchor="middle" x="222.763" y="-261.386" font-family="Times,serif" font-size="14.00">1 </text>
</g>
<!-- EditionOrIssue&#45;&gt;Copy -->
<g id="edge7" class="edge"><title>EditionOrIssue&#45;&gt;Copy</title>
<g id="a_edge7"><a xlink:title="EditionOrIssue 1 &#160;&#45;&#45; * &#160;Copy">
<path fill="none" stroke="black" d="M284.046,-257.586C297.623,-271.91 313.646,-288.813 326.128,-301.981"/>
</a>
</g>
<text text-anchor="middle" x="320.628" y="-290.781" font-family="Times,serif" font-size="14.00">* </text>
<text text-anchor="middle" x="278.546" y="-261.386" font-family="Times,serif" font-size="14.00">1 </text>
</g>
<!-- Publisher -->
<g id="node4" class="node"><title>Publisher</title>
<g id="a_node4"><a xlink:href="javascript:Action.selectClass(&quot;Publisher&quot;);" xlink:title="class Publisher
">
<polygon fill="none" stroke="black" points="0,-106 0,-152 92,-152 92,-106 0,-106"/>
<text text-anchor="middle" x="46" y="-136.8" font-family="Times,serif" font-size="14.00">Publisher</text>
<polyline fill="none" stroke="black" points="0,-129 92,-129 "/>
<text text-anchor="start" x="8" y="-113.8" font-family="Times,serif" font-size="14.00">name : String</text>
</a>
</g>
</g>
<!-- Publisher&#45;&gt;EditionOrIssue -->
<g id="edge8" class="edge"><title>Publisher&#45;&gt;EditionOrIssue</title>
<g id="a_edge8"><a xlink:title="Publisher 1 &#160;&#45;&#45; * &#160;EditionOrIssue">
<path fill="none" stroke="black" d="M85.4165,-152.094C90.6177,-154.834 95.9095,-157.535 101,-160 127.982,-173.065 158.206,-186.249 184.75,-197.361"/>
</a>
</g>
<text text-anchor="middle" x="179.25" y="-186.161" font-family="Times,serif" font-size="14.00">* </text>
<text text-anchor="middle" x="79.9165" y="-155.894" font-family="Times,serif" font-size="14.00">1 </text>
</g>
<!-- Author -->
<g id="node5" class="node"><title>Author</title>
<g id="a_node5"><a xlink:href="javascript:Action.selectClass(&quot;Author&quot;);" xlink:title="class Author
">
<polygon fill="none" stroke="black" points="110,-111 110,-147 166,-147 166,-111 110,-111"/>
<text text-anchor="middle" x="138" y="-125.3" font-family="Times,serif" font-size="14.00">Author</text>
</a>
</g>
</g>
<!-- Author&#45;&gt;EditionOrIssue -->
<g id="edge9" class="edge"><title>Author&#45;&gt;EditionOrIssue</title>
<g id="a_edge9"><a xlink:title="Author * &#160;&#45;&#45; * &#160;EditionOrIssue">
<path fill="none" stroke="black" d="M159.096,-147.163C175.801,-160.754 199.537,-180.064 219.336,-196.172"/>
</a>
</g>
<text text-anchor="middle" x="213.836" y="-184.972" font-family="Times,serif" font-size="14.00">* </text>
<text text-anchor="middle" x="153.596" y="-150.963" font-family="Times,serif" font-size="14.00">* </text>
</g>
<!-- EditionOfBook -->
<g id="node6" class="node"><title>EditionOfBook</title>
<g id="a_node6"><a xlink:href="javascript:Action.selectClass(&quot;EditionOfBook&quot;);" xlink:title="class EditionOfBook
Positioning
">
<polygon fill="none" stroke="black" points="184.5,-98.5 184.5,-159.5 327.5,-159.5 327.5,-98.5 184.5,-98.5"/>
<text text-anchor="middle" x="256" y="-144.3" font-family="Times,serif" font-size="14.00">EditionOfBook</text>
<polyline fill="none" stroke="black" points="184.5,-136.5 327.5,-136.5 "/>
<text text-anchor="start" x="192.5" y="-121.3" font-family="Times,serif" font-size="14.00">isbn : String</text>
<text text-anchor="start" x="192.5" y="-106.3" font-family="Times,serif" font-size="14.00">libOfCongress : String</text>
</a>
</g>
</g>
<!-- EditionOfBook&#45;&gt;EditionOrIssue -->
<g id="edge1" class="edge"><title>EditionOfBook&#45;&gt;EditionOrIssue</title>
<path fill="none" stroke="black" d="M263.605,-159.525C266.08,-169.135 268.658,-179.143 270.486,-186.239"/>
<polygon fill="none" stroke="black" points="267.116,-187.189 273,-196 273.895,-185.443 267.116,-187.189"/>
</g>
<!-- IssueOfPeriodical -->
<g id="node7" class="node"><title>IssueOfPeriodical</title>
<g id="a_node7"><a xlink:href="javascript:Action.selectClass(&quot;IssueOfPeriodical&quot;);" xlink:title="class IssueOfPeriodical
">
<polygon fill="none" stroke="black" points="345.5,-106 345.5,-152 462.5,-152 462.5,-106 345.5,-106"/>
<text text-anchor="middle" x="404" y="-136.8" font-family="Times,serif" font-size="14.00">IssueOfPeriodical</text>
<polyline fill="none" stroke="black" points="345.5,-129 462.5,-129 "/>
<text text-anchor="start" x="353.5" y="-113.8" font-family="Times,serif" font-size="14.00">volume : String</text>
</a>
</g>
</g>
<!-- IssueOfPeriodical&#45;&gt;EditionOrIssue -->
<g id="edge2" class="edge"><title>IssueOfPeriodical&#45;&gt;EditionOrIssue</title>
<path fill="none" stroke="black" d="M281.987,-191.472 297.88,-183.465 331.918,-166.316 360.014,-152.161"/>
<polygon fill="none" stroke="black" points="280.356,-188.375 273,-196 283.505,-194.626 280.356,-188.375"/>
</g>
<!-- Publication -->
<g id="node8" class="node"><title>Publication</title>
<g id="a_node8"><a xlink:href="javascript:Action.selectClass(&quot;Publication&quot;);" xlink:title="class Publication
">
<polygon fill="none" stroke="black" points="481,-106 481,-152 573,-152 573,-106 481,-106"/>
<text text-anchor="middle" x="527" y="-136.8" font-family="Times,serif" font-size="14.00">Publication</text>
<polyline fill="none" stroke="black" points="481,-129 573,-129 "/>
<text text-anchor="start" x="489" y="-113.8" font-family="Times,serif" font-size="14.00">name : String</text>
</a>
</g>
</g>
<!-- Publication&#45;&gt;EditionOrIssue -->
<g id="edge10" class="edge"><title>Publication&#45;&gt;EditionOrIssue</title>
<g id="a_edge10"><a xlink:title="Publication 1 &#160;&#45;&#45; * &#160;EditionOrIssue">
<path fill="none" stroke="black" d="M327.318,-208.13 370.042,-196.465 425.008,-179.754 472,-160 477.515,-157.682 483.199,-154.975 488.724,-152.153"/>
</a>
</g>
<text text-anchor="middle" x="332.818" y="-196.93" font-family="Times,serif" font-size="14.00">* </text>
<text text-anchor="middle" x="483.224" y="-155.953" font-family="Times,serif" font-size="14.00">1 </text>
</g>
<!-- Periodical -->
<g id="node9" class="node"><title>Periodical</title>
<g id="a_node9"><a xlink:href="javascript:Action.selectClass(&quot;Periodical&quot;);" xlink:title="class Periodical
">
<polygon fill="none" stroke="black" points="416,-0.5 416,-61.5 534,-61.5 534,-0.5 416,-0.5"/>
<text text-anchor="middle" x="475" y="-46.3" font-family="Times,serif" font-size="14.00">Periodical</text>
<polyline fill="none" stroke="black" points="416,-38.5 534,-38.5 "/>
<text text-anchor="start" x="424" y="-23.3" font-family="Times,serif" font-size="14.00">issn : String</text>
<text text-anchor="start" x="424" y="-8.3" font-family="Times,serif" font-size="14.00">frequency : String</text>
</a>
</g>
</g>
<!-- Periodical&#45;&gt;Publication -->
<g id="edge3" class="edge"><title>Periodical&#45;&gt;Publication</title>
<path fill="none" stroke="black" d="M495.851,-61.6722C505.006,-74.7002 515.048,-88.9908 521.188,-97.7289"/>
<polygon fill="none" stroke="black" points="518.387,-99.8304 527,-106 524.114,-95.8057 518.387,-99.8304"/>
</g>
<!-- Book -->
<g id="node10" class="node"><title>Book</title>
<g id="a_node10"><a xlink:href="javascript:Action.selectClass(&quot;Book&quot;);" xlink:title="class Book
">
<polygon fill="none" stroke="black" points="552,-13 552,-49 606,-49 606,-13 552,-13"/>
<text text-anchor="middle" x="579" y="-27.3" font-family="Times,serif" font-size="14.00">Book</text>
</a>
</g>
</g>
<!-- Book&#45;&gt;Publication -->
<g id="edge4" class="edge"><title>Book&#45;&gt;Publication</title>
<path fill="none" stroke="black" d="M532.889,-97.6192 541.122,-85.9038 556.259,-64.3629 566.939,-49.1631"/>
<polygon fill="none" stroke="black" points="529.886,-95.8057 527,-106 535.613,-99.8304 529.886,-95.8057"/>
</g>
</g>
</svg>
