<?xml version="1.0" encoding="UTF-8" standalone="no"?>
<!DOCTYPE svg PUBLIC "-//W3C//DTD SVG 1.1//EN"
 "http://www.w3.org/Graphics/SVG/1.1/DTD/svg11.dtd">
<!-- Generated by graphviz version 2.29.20121108.1600 (20121108.1600)
 -->
<!-- Title: MailOrderSystem Pages: 1 -->
<svg width="850pt" height="610pt"
 viewBox="0.00 0.00 850.00 610.00" xmlns="http://www.w3.org/2000/svg" xmlns:xlink="http://www.w3.org/1999/xlink">
<g id="graph0" class="graph" transform="scale(1 1) rotate(0) translate(4 606)">
<title>MailOrderSystem</title>
<polygon fill="white" stroke="white" points="-4,5 -4,-606 847,-606 847,5 -4,5"/>
<!-- Client -->
<g id="node1" class="node"><title>Client</title>
<g id="a_node1"><a xlink:href="javascript:Action.selectClass(&quot;Client&quot;);" xlink:title="class Client
">
<polygon fill="none" stroke="black" points="65.9517,-0.6 65.9517,-117.4 190.048,-117.4 190.048,-0.6 65.9517,-0.6"/>
<text text-anchor="middle" x="128" y="-99.4" font-family="Times,serif" font-size="14.00">Client</text>
<polyline fill="none" stroke="black" points="65.9517,-92.6 190.048,-92.6 "/>
<text text-anchor="start" x="73.9517" y="-74.6" font-family="Times,serif" font-size="14.00">number : String</text>
<text text-anchor="start" x="73.9517" y="-57.8" font-family="Times,serif" font-size="14.00">name : String</text>
<text text-anchor="start" x="73.9517" y="-41" font-family="Times,serif" font-size="14.00">address : String</text>
<text text-anchor="start" x="73.9517" y="-24.2" font-family="Times,serif" font-size="14.00">phone : String</text>
<text text-anchor="start" x="73.9517" y="-7.4" font-family="Times,serif" font-size="14.00">creditLimit : String</text>
</a>
</g>
</g>
<!-- OrderFromClient -->
<g id="node2" class="node"><title>OrderFromClient</title>
<g id="a_node2"><a xlink:href="javascript:Action.selectClass(&quot;OrderFromClient&quot;);" xlink:title="class OrderFromClient
">
<polygon fill="none" stroke="black" points="200.576,-172 200.576,-272 381.424,-272 381.424,-172 200.576,-172"/>
<text text-anchor="middle" x="291" y="-254" font-family="Times,serif" font-size="14.00">OrderFromClient</text>
<polyline fill="none" stroke="black" points="200.576,-247.2 381.424,-247.2 "/>
<text text-anchor="start" x="208.576" y="-229.2" font-family="Times,serif" font-size="14.00">ourOrderNumber : String</text>
<text text-anchor="start" x="208.576" y="-212.4" font-family="Times,serif" font-size="14.00">datePlaced : String</text>
<text text-anchor="start" x="208.576" y="-195.6" font-family="Times,serif" font-size="14.00">clientsPurchaseOrder : String</text>
<text text-anchor="start" x="208.576" y="-178.8" font-family="Times,serif" font-size="14.00">creditCardToCharge : String</text>
</a>
</g>
</g>
<!-- Client&#45;&gt;OrderFromClient -->
<g id="edge1" class="edge"><title>Client&#45;&gt;OrderFromClient</title>
<path fill="none" stroke="black" d="M186.386,-117.67C204.382,-135.445 224.017,-154.839 241.366,-171.975"/>
<text text-anchor="middle" x="236.116" y="-157.975" font-family="Times,serif" font-size="14.00">* </text>
<text text-anchor="middle" x="181.136" y="-120.47" font-family="Times,serif" font-size="14.00">1 </text>
</g>
<!-- ShipmentToClient -->
<g id="node5" class="node"><title>ShipmentToClient</title>
<g id="a_node5"><a xlink:href="javascript:Action.selectClass(&quot;ShipmentToClient&quot;);" xlink:title="class ShipmentToClient
">
<polygon fill="none" stroke="black" points="-0.603516,-172 -0.603516,-272 182.604,-272 182.604,-172 -0.603516,-172"/>
<text text-anchor="middle" x="91" y="-254" font-family="Times,serif" font-size="14.00">ShipmentToClient</text>
<polyline fill="none" stroke="black" points="-0.603516,-247.2 182.604,-247.2 "/>
<text text-anchor="start" x="7.39648" y="-229.2" font-family="Times,serif" font-size="14.00">dateShipped : String</text>
<text text-anchor="start" x="7.39648" y="-212.4" font-family="Times,serif" font-size="14.00">invoiceNumber : String</text>
<text text-anchor="start" x="7.39648" y="-195.6" font-family="Times,serif" font-size="14.00">totalPriceOfShipment : String</text>
<text text-anchor="start" x="7.39648" y="-178.8" font-family="Times,serif" font-size="14.00">amountPaid : String</text>
</a>
</g>
</g>
<!-- Client&#45;&gt;ShipmentToClient -->
<g id="edge2" class="edge"><title>Client&#45;&gt;ShipmentToClient</title>
<path fill="none" stroke="black" d="M114.747,-117.67C110.662,-135.445 106.205,-154.839 102.267,-171.975"/>
<text text-anchor="middle" x="97.0167" y="-157.975" font-family="Times,serif" font-size="14.00">* </text>
<text text-anchor="middle" x="109.497" y="-120.47" font-family="Times,serif" font-size="14.00">1 </text>
</g>
<!-- ClientOrderLineItem -->
<g id="node4" class="node"><title>ClientOrderLineItem</title>
<g id="a_node4"><a xlink:href="javascript:Action.selectClass(&quot;ClientOrderLineItem&quot;);" xlink:title="class ClientOrderLineItem
">
<polygon fill="none" stroke="black" points="199.085,-326.8 199.085,-393.2 378.915,-393.2 378.915,-326.8 199.085,-326.8"/>
<text text-anchor="middle" x="289" y="-375.2" font-family="Times,serif" font-size="14.00">ClientOrderLineItem</text>
<polyline fill="none" stroke="black" points="199.085,-368.4 378.915,-368.4 "/>
<text text-anchor="start" x="207.085" y="-350.4" font-family="Times,serif" font-size="14.00">numberOrdered : String</text>
<text text-anchor="start" x="207.085" y="-333.6" font-family="Times,serif" font-size="14.00">pricePerUnitCharged : String</text>
</a>
</g>
</g>
<!-- OrderFromClient&#45;&gt;ClientOrderLineItem -->
<g id="edge3" class="edge"><title>OrderFromClient&#45;&gt;ClientOrderLineItem</title>
<path fill="none" stroke="black" d="M290.278,-272.099C290.012,-290.207 289.717,-310.258 289.477,-326.533"/>
<text text-anchor="middle" x="284.227" y="-312.533" font-family="Times,serif" font-size="14.00">* </text>
<text text-anchor="middle" x="285.028" y="-274.899" font-family="Times,serif" font-size="14.00">1 </text>
</g>
<!-- SalesPerson -->
<g id="node3" class="node"><title>SalesPerson</title>
<g id="a_node3"><a xlink:href="javascript:Action.selectClass(&quot;SalesPerson&quot;);" xlink:title="class SalesPerson
">
<polygon fill="none" stroke="black" points="245.283,-34.2 245.283,-83.8 336.717,-83.8 336.717,-34.2 245.283,-34.2"/>
<text text-anchor="middle" x="291" y="-65.8" font-family="Times,serif" font-size="14.00">SalesPerson</text>
<polyline fill="none" stroke="black" points="245.283,-59 336.717,-59 "/>
<text text-anchor="start" x="253.283" y="-41" font-family="Times,serif" font-size="14.00">name : String</text>
</a>
</g>
</g>
<!-- SalesPerson&#45;&gt;OrderFromClient -->
<g id="edge4" class="edge"><title>SalesPerson&#45;&gt;OrderFromClient</title>
<path fill="none" stroke="black" d="M291,-84.1033C291,-107.174 291,-142.665 291,-171.728"/>
<text text-anchor="middle" x="285.75" y="-157.728" font-family="Times,serif" font-size="14.00">* </text>
<text text-anchor="middle" x="278.75" y="-86.9033" font-family="Times,serif" font-size="14.00">0..1 </text>
</g>
<!-- ShipmentLineItem -->
<g id="node6" class="node"><title>ShipmentLineItem</title>
<g id="a_node6"><a xlink:href="javascript:Action.selectClass(&quot;ShipmentLineItem&quot;);" xlink:title="class ShipmentLineItem
">
<polygon fill="none" stroke="black" points="145.052,-439.2 145.052,-488.8 276.948,-488.8 276.948,-439.2 145.052,-439.2"/>
<text text-anchor="middle" x="211" y="-470.8" font-family="Times,serif" font-size="14.00">ShipmentLineItem</text>
<polyline fill="none" stroke="black" points="145.052,-464 276.948,-464 "/>
<text text-anchor="start" x="153.052" y="-446" font-family="Times,serif" font-size="14.00">numShipped : String</text>
</a>
</g>
</g>
<!-- ClientOrderLineItem&#45;&gt;ShipmentLineItem -->
<g id="edge5" class="edge"><title>ClientOrderLineItem&#45;&gt;ShipmentLineItem</title>
<path fill="none" stroke="black" d="M264.32,-393.273C252.984,-408.098 239.773,-425.374 229.337,-439.021"/>
<text text-anchor="middle" x="234.587" y="-425.021" font-family="Times,serif" font-size="14.00">* </text>
<text text-anchor="middle" x="259.07" y="-396.073" font-family="Times,serif" font-size="14.00">1 </text>
</g>
<!-- ShipmentToClient&#45;&gt;ShipmentLineItem -->
<g id="edge6" class="edge"><title>ShipmentToClient&#45;&gt;ShipmentLineItem</title>
<path fill="none" stroke="black" d="M115.573,-272.147C141.013,-323.025 179.689,-400.379 199.063,-439.125"/>
<text text-anchor="middle" x="204.313" y="-425.125" font-family="Times,serif" font-size="14.00">* </text>
<text text-anchor="middle" x="110.323" y="-274.947" font-family="Times,serif" font-size="14.00">1 </text>
</g>
<!-- ProductCategory -->
<g id="node7" class="node"><title>ProductCategory</title>
<g id="a_node7"><a xlink:href="javascript:Action.selectClass(&quot;ProductCategory&quot;);" xlink:title="class ProductCategory
">
<polygon fill="none" stroke="black" points="433.565,-34.2 433.565,-83.8 544.435,-83.8 544.435,-34.2 433.565,-34.2"/>
<text text-anchor="middle" x="489" y="-65.8" font-family="Times,serif" font-size="14.00">ProductCategory</text>
<polyline fill="none" stroke="black" points="433.565,-59 544.435,-59 "/>
<text text-anchor="start" x="441.565" y="-41" font-family="Times,serif" font-size="14.00">name : String</text>
</a>
</g>
</g>
<!-- Product -->
<g id="node9" class="node"><title>Product</title>
<g id="a_node9"><a xlink:href="javascript:Action.selectClass(&quot;Product&quot;);" xlink:title="class Product
">
<polygon fill="none" stroke="black" points="403.617,-155.2 403.617,-288.8 574.383,-288.8 574.383,-155.2 403.617,-155.2"/>
<text text-anchor="middle" x="489" y="-270.8" font-family="Times,serif" font-size="14.00">Product</text>
<polyline fill="none" stroke="black" points="403.617,-264 574.383,-264 "/>
<text text-anchor="start" x="411.617" y="-246" font-family="Times,serif" font-size="14.00">ourCode : String</text>
<text text-anchor="start" x="411.617" y="-229.2" font-family="Times,serif" font-size="14.00">description : String</text>
<text text-anchor="start" x="411.617" y="-212.4" font-family="Times,serif" font-size="14.00">picture : String</text>
<text text-anchor="start" x="411.617" y="-195.6" font-family="Times,serif" font-size="14.00">ourListPricePerunit : String</text>
<text text-anchor="start" x="411.617" y="-178.8" font-family="Times,serif" font-size="14.00">numberInInventory : String</text>
<text text-anchor="start" x="411.617" y="-162" font-family="Times,serif" font-size="14.00">numberToKeepInv : String</text>
</a>
</g>
</g>
<!-- ProductCategory&#45;&gt;Product -->
<g id="edge7" class="edge"><title>ProductCategory&#45;&gt;Product</title>
<path fill="none" stroke="black" d="M489,-84.1033C489,-102.876 489,-129.871 489,-154.936"/>
<text text-anchor="middle" x="483.75" y="-140.936" font-family="Times,serif" font-size="14.00">* </text>
<text text-anchor="middle" x="483.75" y="-86.9033" font-family="Times,serif" font-size="14.00">1 </text>
</g>
<!-- ProductSource -->
<g id="node8" class="node"><title>ProductSource</title>
<g id="a_node8"><a xlink:href="javascript:Action.selectClass(&quot;ProductSource&quot;);" xlink:title="class ProductSource
">
<polygon fill="none" stroke="black" points="397.062,-326.8 397.062,-393.2 584.938,-393.2 584.938,-326.8 397.062,-326.8"/>
<text text-anchor="middle" x="491" y="-375.2" font-family="Times,serif" font-size="14.00">ProductSource</text>
<polyline fill="none" stroke="black" points="397.062,-368.4 584.938,-368.4 "/>
<text text-anchor="start" x="405.062" y="-350.4" font-family="Times,serif" font-size="14.00">supplierCode : String</text>
<text text-anchor="start" x="405.062" y="-333.6" font-family="Times,serif" font-size="14.00">advertisedCostPerUnit : String</text>
</a>
</g>
</g>
<!-- SupplierOrderLineItem -->
<g id="node12" class="node"><title>SupplierOrderLineItem</title>
<g id="a_node12"><a xlink:href="javascript:Action.selectClass(&quot;SupplierOrderLineItem&quot;);" xlink:title="class SupplierOrderLineItem
">
<polygon fill="none" stroke="black" points="511.127,-430.8 511.127,-497.2 660.873,-497.2 660.873,-430.8 511.127,-430.8"/>
<text text-anchor="middle" x="586" y="-479.2" font-family="Times,serif" font-size="14.00">SupplierOrderLineItem</text>
<polyline fill="none" stroke="black" points="511.127,-472.4 660.873,-472.4 "/>
<text text-anchor="start" x="519.127" y="-454.4" font-family="Times,serif" font-size="14.00">numberOrdered : String</text>
<text text-anchor="start" x="519.127" y="-437.6" font-family="Times,serif" font-size="14.00">dateExpected : String</text>
</a>
</g>
</g>
<!-- ProductSource&#45;&gt;SupplierOrderLineItem -->
<g id="edge8" class="edge"><title>ProductSource&#45;&gt;SupplierOrderLineItem</title>
<path fill="none" stroke="black" d="M521.059,-393.273C532.148,-405.18 544.71,-418.668 555.811,-430.586"/>
<text text-anchor="middle" x="550.561" y="-416.586" font-family="Times,serif" font-size="14.00">* </text>
<text text-anchor="middle" x="515.809" y="-396.073" font-family="Times,serif" font-size="14.00">1 </text>
</g>
<!-- Product&#45;&gt;ClientOrderLineItem -->
<g id="edge9" class="edge"><title>Product&#45;&gt;ClientOrderLineItem</title>
<path fill="none" stroke="black" d="M403.602,-281.071C380.669,-296.665 356.689,-312.971 336.627,-326.614"/>
<text text-anchor="middle" x="331.377" y="-312.614" font-family="Times,serif" font-size="14.00">* </text>
<text text-anchor="middle" x="398.352" y="-267.071" font-family="Times,serif" font-size="14.00">1 </text>
</g>
<!-- Product&#45;&gt;ProductSource -->
<g id="edge10" class="edge"><title>Product&#45;&gt;ProductSource</title>
<path fill="none" stroke="black" d="M489.971,-289.008C490.164,-302.137 490.358,-315.366 490.525,-326.734"/>
<text text-anchor="middle" x="485.275" y="-312.734" font-family="Times,serif" font-size="14.00">* </text>
<text text-anchor="middle" x="484.721" y="-291.808" font-family="Times,serif" font-size="14.00">1 </text>
</g>
<!-- Supplier -->
<g id="node10" class="node"><title>Supplier</title>
<g id="a_node10"><a xlink:href="javascript:Action.selectClass(&quot;Supplier&quot;);" xlink:title="class Supplier
">
<polygon fill="none" stroke="black" points="616.448,-180.4 616.448,-263.6 719.552,-263.6 719.552,-180.4 616.448,-180.4"/>
<text text-anchor="middle" x="668" y="-245.6" font-family="Times,serif" font-size="14.00">Supplier</text>
<polyline fill="none" stroke="black" points="616.448,-238.8 719.552,-238.8 "/>
<text text-anchor="start" x="624.448" y="-220.8" font-family="Times,serif" font-size="14.00">id : String</text>
<text text-anchor="start" x="624.448" y="-204" font-family="Times,serif" font-size="14.00">name : String</text>
<text text-anchor="start" x="624.448" y="-187.2" font-family="Times,serif" font-size="14.00">address : String</text>
</a>
</g>
</g>
<!-- Supplier&#45;&gt;ProductSource -->
<g id="edge11" class="edge"><title>Supplier&#45;&gt;ProductSource</title>
<path fill="none" stroke="black" d="M616.463,-263.945C605.458,-272.598 593.874,-281.639 583,-290 567.331,-302.048 550.022,-315.097 534.685,-326.571"/>
<text text-anchor="middle" x="529.435" y="-312.571" font-family="Times,serif" font-size="14.00">* </text>
<text text-anchor="middle" x="611.213" y="-249.945" font-family="Times,serif" font-size="14.00">1 </text>
</g>
<!-- OrderToSupplier -->
<g id="node13" class="node"><title>OrderToSupplier</title>
<g id="a_node13"><a xlink:href="javascript:Action.selectClass(&quot;OrderToSupplier&quot;);" xlink:title="class OrderToSupplier
">
<polygon fill="none" stroke="black" points="602.852,-326.8 602.852,-393.2 733.148,-393.2 733.148,-326.8 602.852,-326.8"/>
<text text-anchor="middle" x="668" y="-375.2" font-family="Times,serif" font-size="14.00">OrderToSupplier</text>
<polyline fill="none" stroke="black" points="602.852,-368.4 733.148,-368.4 "/>
<text text-anchor="start" x="610.852" y="-350.4" font-family="Times,serif" font-size="14.00">poNumber : String</text>
<text text-anchor="start" x="610.852" y="-333.6" font-family="Times,serif" font-size="14.00">dateOrdered : String</text>
</a>
</g>
</g>
<!-- Supplier&#45;&gt;OrderToSupplier -->
<g id="edge12" class="edge"><title>Supplier&#45;&gt;OrderToSupplier</title>
<path fill="none" stroke="black" d="M668,-263.804C668,-283.834 668,-307.633 668,-326.425"/>
<text text-anchor="middle" x="662.75" y="-312.425" font-family="Times,serif" font-size="14.00">* </text>
<text text-anchor="middle" x="662.75" y="-266.604" font-family="Times,serif" font-size="14.00">1 </text>
</g>
<!-- ReceivedDelivery -->
<g id="node11" class="node"><title>ReceivedDelivery</title>
<g id="a_node11"><a xlink:href="javascript:Action.selectClass(&quot;ReceivedDelivery&quot;);" xlink:title="class ReceivedDelivery
">
<polygon fill="none" stroke="black" points="679.117,-430.8 679.117,-497.2 842.883,-497.2 842.883,-430.8 679.117,-430.8"/>
<text text-anchor="middle" x="761" y="-479.2" font-family="Times,serif" font-size="14.00">ReceivedDelivery</text>
<polyline fill="none" stroke="black" points="679.117,-472.4 842.883,-472.4 "/>
<text text-anchor="start" x="687.117" y="-454.4" font-family="Times,serif" font-size="14.00">numberReceived : String</text>
<text text-anchor="start" x="687.117" y="-437.6" font-family="Times,serif" font-size="14.00">actualCostPerUnit : String</text>
</a>
</g>
</g>
<!-- Supplier&#45;&gt;ReceivedDelivery -->
<g id="edge13" class="edge"><title>Supplier&#45;&gt;ReceivedDelivery</title>
<path fill="none" stroke="black" d="M704.363,-263.839C718.351,-281.735 733.089,-303.715 742,-326 755.596,-360.001 759.736,-402.109 760.861,-430.6"/>
<text text-anchor="middle" x="755.611" y="-416.6" font-family="Times,serif" font-size="14.00">* </text>
<text text-anchor="middle" x="709.613" y="-266.639" font-family="Times,serif" font-size="14.00">1 </text>
</g>
<!-- ReceivedLineItem -->
<g id="node14" class="node"><title>ReceivedLineItem</title>
<g id="a_node14"><a xlink:href="javascript:Action.selectClass(&quot;ReceivedLineItem&quot;);" xlink:title="class ReceivedLineItem
">
<polygon fill="none" stroke="black" points="591.117,-534.8 591.117,-601.2 754.883,-601.2 754.883,-534.8 591.117,-534.8"/>
<text text-anchor="middle" x="673" y="-583.2" font-family="Times,serif" font-size="14.00">ReceivedLineItem</text>
<polyline fill="none" stroke="black" points="591.117,-576.4 754.883,-576.4 "/>
<text text-anchor="start" x="599.117" y="-558.4" font-family="Times,serif" font-size="14.00">numberReceived : String</text>
<text text-anchor="start" x="599.117" y="-541.6" font-family="Times,serif" font-size="14.00">actualCostPerUnit : String</text>
</a>
</g>
</g>
<!-- ReceivedDelivery&#45;&gt;ReceivedLineItem -->
<g id="edge14" class="edge"><title>ReceivedDelivery&#45;&gt;ReceivedLineItem</title>
<path fill="none" stroke="black" d="M733.156,-497.273C722.884,-509.18 711.248,-522.668 700.965,-534.586"/>
<text text-anchor="middle" x="695.715" y="-520.586" font-family="Times,serif" font-size="14.00">* </text>
<text text-anchor="middle" x="727.906" y="-500.073" font-family="Times,serif" font-size="14.00">1 </text>
</g>
<!-- SupplierOrderLineItem&#45;&gt;ReceivedLineItem -->
<g id="edge15" class="edge"><title>SupplierOrderLineItem&#45;&gt;ReceivedLineItem</title>
<path fill="none" stroke="black" d="M613.527,-497.273C623.683,-509.18 635.187,-522.668 645.353,-534.586"/>
<text text-anchor="middle" x="640.103" y="-520.586" font-family="Times,serif" font-size="14.00">* </text>
<text text-anchor="middle" x="608.277" y="-500.073" font-family="Times,serif" font-size="14.00">1 </text>
</g>
<!-- OrderToSupplier&#45;&gt;SupplierOrderLineItem -->
<g id="edge16" class="edge"><title>OrderToSupplier&#45;&gt;SupplierOrderLineItem</title>
<path fill="none" stroke="black" d="M642.055,-393.273C632.483,-405.18 621.64,-418.668 612.058,-430.586"/>
<text text-anchor="middle" x="606.808" y="-416.586" font-family="Times,serif" font-size="14.00">* </text>
<text text-anchor="middle" x="636.805" y="-396.073" font-family="Times,serif" font-size="14.00">1 </text>
</g>
</g>
</svg>
