<?xml version="1.0" encoding="UTF-8" standalone="no"?>
<!DOCTYPE svg PUBLIC "-//W3C//DTD SVG 1.1//EN"
 "http://www.w3.org/Graphics/SVG/1.1/DTD/svg11.dtd">
<!-- Generated by graphviz version 2.29.20121108.1600 (20121108.1600)
 -->
<!-- Title: MailOrderSystemClientOrder Pages: 1 -->
<svg width="500pt" height="524pt"
 viewBox="0.00 0.00 500.00 524.00" xmlns="http://www.w3.org/2000/svg" xmlns:xlink="http://www.w3.org/1999/xlink">
<g id="graph0" class="graph" transform="scale(1 1) rotate(0) translate(4 520)">
<title>MailOrderSystemClientOrder</title>
<polygon fill="white" stroke="white" points="-4,5 -4,-520 497,-520 497,5 -4,5"/>
<!-- Client -->
<g id="node1" class="node"><title>Client</title>
<g id="a_node1"><a xlink:href="javascript:Action.selectClass(&quot;Client&quot;);" xlink:title="class Client
">
<polygon fill="none" stroke="black" points="28.9517,-0.6 28.9517,-117.4 153.048,-117.4 153.048,-0.6 28.9517,-0.6"/>
<text text-anchor="middle" x="91" y="-99.4" font-family="Times,serif" font-size="14.00">Client</text>
<polyline fill="none" stroke="black" points="28.9517,-92.6 153.048,-92.6 "/>
<text text-anchor="start" x="36.9517" y="-74.6" font-family="Times,serif" font-size="14.00">number : String</text>
<text text-anchor="start" x="36.9517" y="-57.8" font-family="Times,serif" font-size="14.00">name : String</text>
<text text-anchor="start" x="36.9517" y="-41" font-family="Times,serif" font-size="14.00">address : String</text>
<text text-anchor="start" x="36.9517" y="-24.2" font-family="Times,serif" font-size="14.00">phone : String</text>
<text text-anchor="start" x="36.9517" y="-7.4" font-family="Times,serif" font-size="14.00">creditLimit : String</text>
</a>
</g>
</g>
<!-- OrderFromClient -->
<g id="node2" class="node"><title>OrderFromClient</title>
<g id="a_node2"><a xlink:href="javascript:Action.selectClass(&quot;OrderFromClient&quot;);" xlink:title="class OrderFromClient
">
<polygon fill="none" stroke="black" points="122.576,-172 122.576,-272 303.424,-272 303.424,-172 122.576,-172"/>
<text text-anchor="middle" x="213" y="-254" font-family="Times,serif" font-size="14.00">OrderFromClient</text>
<polyline fill="none" stroke="black" points="122.576,-247.2 303.424,-247.2 "/>
<text text-anchor="start" x="130.576" y="-229.2" font-family="Times,serif" font-size="14.00">ourOrderNumber : String</text>
<text text-anchor="start" x="130.576" y="-212.4" font-family="Times,serif" font-size="14.00">datePlaced : String</text>
<text text-anchor="start" x="130.576" y="-195.6" font-family="Times,serif" font-size="14.00">clientsPurchaseOrder : String</text>
<text text-anchor="start" x="130.576" y="-178.8" font-family="Times,serif" font-size="14.00">creditCardToCharge : String</text>
</a>
</g>
</g>
<!-- Client&#45;&gt;OrderFromClient -->
<g id="edge1" class="edge"><title>Client&#45;&gt;OrderFromClient</title>
<path fill="none" stroke="black" d="M134.7,-117.67C148.17,-135.445 162.866,-154.839 175.85,-171.975"/>
<text text-anchor="middle" x="170.6" y="-157.975" font-family="Times,serif" font-size="14.00">* </text>
<text text-anchor="middle" x="129.45" y="-120.47" font-family="Times,serif" font-size="14.00">1 </text>
</g>
<!-- ShipmentToClient -->
<g id="node5" class="node"><title>ShipmentToClient</title>
<g id="a_node5"><a xlink:href="javascript:Action.selectClass(&quot;ShipmentToClient&quot;);" xlink:title="class ShipmentToClient
">
<polygon fill="none" stroke="black" points="-0.603516,-327 -0.603516,-427 182.604,-427 182.604,-327 -0.603516,-327"/>
<text text-anchor="middle" x="91" y="-409" font-family="Times,serif" font-size="14.00">ShipmentToClient</text>
<polyline fill="none" stroke="black" points="-0.603516,-402.2 182.604,-402.2 "/>
<text text-anchor="start" x="7.39648" y="-384.2" font-family="Times,serif" font-size="14.00">dateShipped : String</text>
<text text-anchor="start" x="7.39648" y="-367.4" font-family="Times,serif" font-size="14.00">invoiceNumber : String</text>
<text text-anchor="start" x="7.39648" y="-350.6" font-family="Times,serif" font-size="14.00">totalPriceOfShipment : String</text>
<text text-anchor="start" x="7.39648" y="-333.8" font-family="Times,serif" font-size="14.00">amountPaid : String</text>
</a>
</g>
</g>
<!-- Client&#45;&gt;ShipmentToClient -->
<g id="edge2" class="edge"><title>Client&#45;&gt;ShipmentToClient</title>
<path fill="none" stroke="black" d="M91,-117.592C91,-177.495 91,-270.277 91,-326.845"/>
<text text-anchor="middle" x="85.75" y="-312.845" font-family="Times,serif" font-size="14.00">* </text>
<text text-anchor="middle" x="85.75" y="-120.392" font-family="Times,serif" font-size="14.00">1 </text>
</g>
<!-- ClientOrderLineItem -->
<g id="node4" class="node"><title>ClientOrderLineItem</title>
<g id="a_node4"><a xlink:href="javascript:Action.selectClass(&quot;ClientOrderLineItem&quot;);" xlink:title="class ClientOrderLineItem
">
<polygon fill="none" stroke="black" points="201.085,-343.8 201.085,-410.2 380.915,-410.2 380.915,-343.8 201.085,-343.8"/>
<text text-anchor="middle" x="291" y="-392.2" font-family="Times,serif" font-size="14.00">ClientOrderLineItem</text>
<polyline fill="none" stroke="black" points="201.085,-385.4 380.915,-385.4 "/>
<text text-anchor="start" x="209.085" y="-367.4" font-family="Times,serif" font-size="14.00">numberOrdered : String</text>
<text text-anchor="start" x="209.085" y="-350.6" font-family="Times,serif" font-size="14.00">pricePerUnitCharged : String</text>
</a>
</g>
</g>
<!-- OrderFromClient&#45;&gt;ClientOrderLineItem -->
<g id="edge3" class="edge"><title>OrderFromClient&#45;&gt;ClientOrderLineItem</title>
<path fill="none" stroke="black" d="M238.109,-272.252C250.044,-295.664 263.976,-322.992 274.545,-343.722"/>
<text text-anchor="middle" x="269.295" y="-329.722" font-family="Times,serif" font-size="14.00">* </text>
<text text-anchor="middle" x="232.859" y="-275.052" font-family="Times,serif" font-size="14.00">1 </text>
</g>
<!-- SalesPerson -->
<g id="node3" class="node"><title>SalesPerson</title>
<g id="a_node3"><a xlink:href="javascript:Action.selectClass(&quot;SalesPerson&quot;);" xlink:title="class SalesPerson
">
<polygon fill="none" stroke="black" points="171.283,-34.2 171.283,-83.8 262.717,-83.8 262.717,-34.2 171.283,-34.2"/>
<text text-anchor="middle" x="217" y="-65.8" font-family="Times,serif" font-size="14.00">SalesPerson</text>
<polyline fill="none" stroke="black" points="171.283,-59 262.717,-59 "/>
<text text-anchor="start" x="179.283" y="-41" font-family="Times,serif" font-size="14.00">name : String</text>
</a>
</g>
</g>
<!-- SalesPerson&#45;&gt;OrderFromClient -->
<g id="edge4" class="edge"><title>SalesPerson&#45;&gt;OrderFromClient</title>
<path fill="none" stroke="black" d="M216.401,-84.1033C215.828,-107.174 214.946,-142.665 214.224,-171.728"/>
<text text-anchor="middle" x="208.974" y="-157.728" font-family="Times,serif" font-size="14.00">* </text>
<text text-anchor="middle" x="204.151" y="-86.9033" font-family="Times,serif" font-size="14.00">0..1 </text>
</g>
<!-- ShipmentLineItem -->
<g id="node6" class="node"><title>ShipmentLineItem</title>
<g id="a_node6"><a xlink:href="javascript:Action.selectClass(&quot;ShipmentLineItem&quot;);" xlink:title="class ShipmentLineItem
">
<polygon fill="none" stroke="black" points="125.052,-465.2 125.052,-514.8 256.948,-514.8 256.948,-465.2 125.052,-465.2"/>
<text text-anchor="middle" x="191" y="-496.8" font-family="Times,serif" font-size="14.00">ShipmentLineItem</text>
<polyline fill="none" stroke="black" points="125.052,-490 256.948,-490 "/>
<text text-anchor="start" x="133.052" y="-472" font-family="Times,serif" font-size="14.00">numShipped : String</text>
</a>
</g>
</g>
<!-- ClientOrderLineItem&#45;&gt;ShipmentLineItem -->
<g id="edge5" class="edge"><title>ClientOrderLineItem&#45;&gt;ShipmentLineItem</title>
<path fill="none" stroke="black" d="M261.807,-410.404C246.126,-427.81 227.123,-448.904 212.752,-464.855"/>
<text text-anchor="middle" x="207.502" y="-450.855" font-family="Times,serif" font-size="14.00">* </text>
<text text-anchor="middle" x="256.557" y="-413.204" font-family="Times,serif" font-size="14.00">1 </text>
</g>
<!-- ShipmentToClient&#45;&gt;ShipmentLineItem -->
<g id="edge6" class="edge"><title>ShipmentToClient&#45;&gt;ShipmentLineItem</title>
<path fill="none" stroke="black" d="M135.153,-427.009C147.082,-440.251 159.461,-453.992 169.524,-465.162"/>
<text text-anchor="middle" x="164.274" y="-451.162" font-family="Times,serif" font-size="14.00">* </text>
<text text-anchor="middle" x="129.903" y="-429.809" font-family="Times,serif" font-size="14.00">1 </text>
</g>
<!-- Product -->
<g id="node7" class="node"><title>Product</title>
<g id="a_node7"><a xlink:href="javascript:Action.selectClass(&quot;Product&quot;);" xlink:title="class Product
Positioning
">
<polygon fill="none" stroke="black" points="321.617,-155.2 321.617,-288.8 492.383,-288.8 492.383,-155.2 321.617,-155.2"/>
<text text-anchor="middle" x="407" y="-270.8" font-family="Times,serif" font-size="14.00">Product</text>
<polyline fill="none" stroke="black" points="321.617,-264 492.383,-264 "/>
<text text-anchor="start" x="329.617" y="-246" font-family="Times,serif" font-size="14.00">ourCode : String</text>
<text text-anchor="start" x="329.617" y="-229.2" font-family="Times,serif" font-size="14.00">description : String</text>
<text text-anchor="start" x="329.617" y="-212.4" font-family="Times,serif" font-size="14.00">picture : String</text>
<text text-anchor="start" x="329.617" y="-195.6" font-family="Times,serif" font-size="14.00">ourListPricePerunit : String</text>
<text text-anchor="start" x="329.617" y="-178.8" font-family="Times,serif" font-size="14.00">numberInInventory : String</text>
<text text-anchor="start" x="329.617" y="-162" font-family="Times,serif" font-size="14.00">numberToKeepInv : String</text>
</a>
</g>
</g>
<!-- Product&#45;&gt;ClientOrderLineItem -->
<g id="edge7" class="edge"><title>Product&#45;&gt;ClientOrderLineItem</title>
<path fill="none" stroke="black" d="M356.795,-289.218C342.467,-308.116 327.493,-327.867 315.456,-343.744"/>
<text text-anchor="middle" x="310.206" y="-329.744" font-family="Times,serif" font-size="14.00">* </text>
<text text-anchor="middle" x="351.545" y="-292.018" font-family="Times,serif" font-size="14.00">1 </text>
</g>
<!-- ProductCategory -->
<g id="node8" class="node"><title>ProductCategory</title>
<g id="a_node8"><a xlink:href="javascript:Action.selectClass(&quot;ProductCategory&quot;);" xlink:title="class ProductCategory
">
<polygon fill="none" stroke="black" points="351.565,-34.2 351.565,-83.8 462.435,-83.8 462.435,-34.2 351.565,-34.2"/>
<text text-anchor="middle" x="407" y="-65.8" font-family="Times,serif" font-size="14.00">ProductCategory</text>
<polyline fill="none" stroke="black" points="351.565,-59 462.435,-59 "/>
<text text-anchor="start" x="359.565" y="-41" font-family="Times,serif" font-size="14.00">name : String</text>
</a>
</g>
</g>
<!-- ProductCategory&#45;&gt;Product -->
<g id="edge8" class="edge"><title>ProductCategory&#45;&gt;Product</title>
<path fill="none" stroke="black" d="M407,-84.1033C407,-102.876 407,-129.871 407,-154.936"/>
<text text-anchor="middle" x="401.75" y="-140.936" font-family="Times,serif" font-size="14.00">* </text>
<text text-anchor="middle" x="401.75" y="-86.9033" font-family="Times,serif" font-size="14.00">1 </text>
</g>
</g>
</svg>
