<?xml version="1.0" encoding="UTF-8" standalone="no"?>
<!DOCTYPE svg PUBLIC "-//W3C//DTD SVG 1.1//EN"
 "http://www.w3.org/Graphics/SVG/1.1/DTD/svg11.dtd">
<!-- Generated by graphviz version 2.29.20121108.1600 (20121108.1600)
 -->
<!-- Title: ManufactoringPlantController Pages: 1 -->
<svg width="671pt" height="252pt"
 viewBox="0.00 0.00 671.00 252.00" xmlns="http://www.w3.org/2000/svg" xmlns:xlink="http://www.w3.org/1999/xlink">
<g id="graph0" class="graph" transform="scale(1 1) rotate(0) translate(4 248)">
<title>ManufactoringPlantController</title>
<polygon fill="white" stroke="white" points="-4,5 -4,-248 668,-248 668,5 -4,5"/>
<!-- BillOfMaterialsLineItem -->
<g id="node1" class="node"><title>BillOfMaterialsLineItem</title>
<g id="a_node1"><a xlink:href="javascript:Action.selectClass(&quot;BillOfMaterialsLineItem&quot;);" xlink:title="class BillOfMaterialsLineItem
">
<polygon fill="none" stroke="black" points="138.021,-9.2 138.021,-58.8 293.979,-58.8 293.979,-9.2 138.021,-9.2"/>
<text text-anchor="middle" x="216" y="-40.8" font-family="Times,serif" font-size="14.00">BillOfMaterialsLineItem</text>
<polyline fill="none" stroke="black" points="138.021,-34 293.979,-34 "/>
<text text-anchor="start" x="146.021" y="-16" font-family="Times,serif" font-size="14.00">numberRequired : String</text>
</a>
</g>
</g>
<!-- BillOfMaterialsLineItem&#45;&gt;BillOfMaterialsLineItem -->
<g id="edge1" class="edge"><title>BillOfMaterialsLineItem&#45;&gt;BillOfMaterialsLineItem</title>
<path fill="none" stroke="black" d="M294.265,-18.2247C304.343,-20.9603 311,-26.2188 311,-34 311,-41.7812 304.343,-47.0397 294.265,-49.7753"/>
<text text-anchor="middle" x="308.85" y="-35.7753" font-family="Times,serif" font-size="14.00">* bill</text>
<text text-anchor="middle" x="306.515" y="-4.22473" font-family="Times,serif" font-size="14.00">0..1 </text>
</g>
<!-- ProductType -->
<g id="node8" class="node"><title>ProductType</title>
<g id="a_node8"><a xlink:href="javascript:Action.selectClass(&quot;ProductType&quot;);" xlink:title="class ProductType
">
<polygon fill="none" stroke="black" points="224.338,-105.2 224.338,-154.8 347.662,-154.8 347.662,-105.2 224.338,-105.2"/>
<text text-anchor="middle" x="286" y="-136.8" font-family="Times,serif" font-size="14.00">ProductType</text>
<polyline fill="none" stroke="black" points="224.338,-130 347.662,-130 "/>
<text text-anchor="start" x="232.338" y="-112" font-family="Times,serif" font-size="14.00">description : String</text>
</a>
</g>
</g>
<!-- BillOfMaterialsLineItem&#45;&gt;ProductType -->
<g id="edge2" class="edge"><title>BillOfMaterialsLineItem&#45;&gt;ProductType</title>
<path fill="none" stroke="black" d="M228.039,-59.2073C237.472,-73.2419 250.59,-90.8541 262.052,-104.875"/>
<text text-anchor="middle" x="256.802" y="-90.8747" font-family="Times,serif" font-size="14.00">1 </text>
<text text-anchor="middle" x="213.454" y="-62.0073" font-family="Times,serif" font-size="14.00">* bill</text>
</g>
<!-- BillOfMaterialsLineItem&#45;&gt;ProductType -->
<g id="edge3" class="edge"><title>BillOfMaterialsLineItem&#45;&gt;ProductType</title>
<path fill="none" stroke="black" d="M240.015,-59.2073C251.484,-73.2419 264.597,-90.8541 274.017,-104.875"/>
<text text-anchor="middle" x="308.822" y="-90.8747" font-family="Times,serif" font-size="14.00">1 consistsOf</text>
<text text-anchor="middle" x="234.765" y="-62.0073" font-family="Times,serif" font-size="14.00">* </text>
</g>
<!-- Bin -->
<g id="node2" class="node"><title>Bin</title>
<g id="a_node2"><a xlink:href="javascript:Action.selectClass(&quot;Bin&quot;);" xlink:title="class Bin
">
<polygon fill="none" stroke="black" points="263.059,-193.2 263.059,-242.8 366.941,-242.8 366.941,-193.2 263.059,-193.2"/>
<text text-anchor="middle" x="315" y="-224.8" font-family="Times,serif" font-size="14.00">Bin</text>
<polyline fill="none" stroke="black" points="263.059,-218 366.941,-218 "/>
<text text-anchor="start" x="271.059" y="-200" font-family="Times,serif" font-size="14.00">number : String</text>
</a>
</g>
</g>
<!-- Supplier -->
<g id="node3" class="node"><title>Supplier</title>
<g id="a_node3"><a xlink:href="javascript:Action.selectClass(&quot;Supplier&quot;);" xlink:title="class Supplier
">
<polygon fill="none" stroke="black" points="330.283,-9.2 330.283,-58.8 421.717,-58.8 421.717,-9.2 330.283,-9.2"/>
<text text-anchor="middle" x="376" y="-40.8" font-family="Times,serif" font-size="14.00">Supplier</text>
<polyline fill="none" stroke="black" points="330.283,-34 421.717,-34 "/>
<text text-anchor="start" x="338.283" y="-16" font-family="Times,serif" font-size="14.00">name : String</text>
</a>
</g>
</g>
<!-- Supplier&#45;&gt;ProductType -->
<g id="edge4" class="edge"><title>Supplier&#45;&gt;ProductType</title>
<path fill="none" stroke="black" d="M352.823,-59.2073C339.385,-73.2419 322.523,-90.8541 309.099,-104.875"/>
<text text-anchor="middle" x="314.349" y="-90.8747" font-family="Times,serif" font-size="14.00">* </text>
<text text-anchor="middle" x="347.573" y="-62.0073" font-family="Times,serif" font-size="14.00">* </text>
</g>
<!-- Product -->
<g id="node4" class="node"><title>Product</title>
<g id="a_node4"><a xlink:href="javascript:Action.selectClass(&quot;Product&quot;);" xlink:title="class Product
">
<polygon fill="none" stroke="black" points="385.345,-193.2 385.345,-242.8 522.655,-242.8 522.655,-193.2 385.345,-193.2"/>
<text text-anchor="middle" x="454" y="-224.8" font-family="Times,serif" font-size="14.00">Product</text>
<polyline fill="none" stroke="black" points="385.345,-218 522.655,-218 "/>
<text text-anchor="start" x="393.345" y="-200" font-family="Times,serif" font-size="14.00">serialNumber : String</text>
</a>
</g>
</g>
<!-- Supplier&#45;&gt;Product -->
<g id="edge5" class="edge"><title>Supplier&#45;&gt;Product</title>
<path fill="none" stroke="black" d="M375.581,-59.0212C376.067,-84.4049 379.543,-124.977 395,-156 401.965,-169.978 413.277,-182.839 424.143,-193.112"/>
<text text-anchor="middle" x="429.393" y="-179.112" font-family="Times,serif" font-size="14.00">* </text>
<text text-anchor="middle" x="387.831" y="-61.8212" font-family="Times,serif" font-size="14.00">0..1 </text>
</g>
<!-- Product&#45;&gt;Product -->
<g id="edge6" class="edge"><title>Product&#45;&gt;Product</title>
<path fill="none" stroke="black" d="M522.825,-203.032C533.07,-205.362 540,-210.352 540,-218 540,-225.648 533.07,-230.638 522.825,-232.968"/>
<text text-anchor="middle" x="568.222" y="-218.968" font-family="Times,serif" font-size="14.00">* packagedWith</text>
<text text-anchor="middle" x="535.075" y="-189.032" font-family="Times,serif" font-size="14.00">0..1 </text>
</g>
<!-- AssemblyStep -->
<g id="node5" class="node"><title>AssemblyStep</title>
<g id="a_node5"><a xlink:href="javascript:Action.selectClass(&quot;AssemblyStep&quot;);" xlink:title="class AssemblyStep
">
<polygon fill="none" stroke="black" points="121.338,-193.2 121.338,-242.8 244.662,-242.8 244.662,-193.2 121.338,-193.2"/>
<text text-anchor="middle" x="183" y="-224.8" font-family="Times,serif" font-size="14.00">AssemblyStep</text>
<polyline fill="none" stroke="black" points="121.338,-218 244.662,-218 "/>
<text text-anchor="start" x="129.338" y="-200" font-family="Times,serif" font-size="14.00">description : String</text>
</a>
</g>
</g>
<!-- AssemblyStep&#45;&gt;BillOfMaterialsLineItem -->
<g id="edge7" class="edge"><title>AssemblyStep&#45;&gt;BillOfMaterialsLineItem</title>
<path fill="none" stroke="black" d="M187.348,-193.022C193.658,-158.221 205.289,-94.0749 211.618,-59.1682"/>
<text text-anchor="middle" x="206.368" y="-61.9682" font-family="Times,serif" font-size="14.00">* </text>
<text text-anchor="middle" x="192.598" y="-179.022" font-family="Times,serif" font-size="14.00">1 </text>
</g>
<!-- Robot -->
<g id="node6" class="node"><title>Robot</title>
<g id="a_node6"><a xlink:href="javascript:Action.selectClass(&quot;Robot&quot;);" xlink:title="class Robot
">
<polygon fill="none" stroke="black" points="-0.941406,-193.2 -0.941406,-242.8 102.941,-242.8 102.941,-193.2 -0.941406,-193.2"/>
<text text-anchor="middle" x="51" y="-224.8" font-family="Times,serif" font-size="14.00">Robot</text>
<polyline fill="none" stroke="black" points="-0.941406,-218 102.941,-218 "/>
<text text-anchor="start" x="7.05859" y="-200" font-family="Times,serif" font-size="14.00">number : String</text>
</a>
</g>
</g>
<!-- RobotAllocation -->
<g id="node7" class="node"><title>RobotAllocation</title>
<g id="a_node7"><a xlink:href="javascript:Action.selectClass(&quot;RobotAllocation&quot;);" xlink:title="class RobotAllocation
">
<polygon fill="none" stroke="black" points="10.7241,-105.2 10.7241,-154.8 133.276,-154.8 133.276,-105.2 10.7241,-105.2"/>
<text text-anchor="middle" x="72" y="-136.8" font-family="Times,serif" font-size="14.00">RobotAllocation</text>
<polyline fill="none" stroke="black" points="10.7241,-130 133.276,-130 "/>
<text text-anchor="start" x="18.7241" y="-112" font-family="Times,serif" font-size="14.00">timePeriod : String</text>
</a>
</g>
</g>
<!-- RobotAllocation&#45;&gt;AssemblyStep -->
<g id="edge8" class="edge"><title>RobotAllocation&#45;&gt;AssemblyStep</title>
<path fill="none" stroke="black" d="M102.92,-154.956C118.315,-166.884 136.873,-181.262 152.246,-193.173"/>
<text text-anchor="middle" x="157.496" y="-179.173" font-family="Times,serif" font-size="14.00">1 </text>
<text text-anchor="middle" x="97.6697" y="-157.756" font-family="Times,serif" font-size="14.00">* </text>
</g>
<!-- RobotAllocation&#45;&gt;Robot -->
<g id="edge9" class="edge"><title>RobotAllocation&#45;&gt;Robot</title>
<path fill="none" stroke="black" d="M66.1503,-154.956C63.2376,-166.884 59.7267,-181.262 56.8183,-193.173"/>
<text text-anchor="middle" x="51.5683" y="-179.173" font-family="Times,serif" font-size="14.00">1 </text>
<text text-anchor="middle" x="71.4003" y="-157.756" font-family="Times,serif" font-size="14.00">* </text>
</g>
<!-- ProductType&#45;&gt;AssemblyStep -->
<g id="edge10" class="edge"><title>ProductType&#45;&gt;AssemblyStep</title>
<path fill="none" stroke="black" d="M257.309,-154.956C243.023,-166.884 225.802,-181.262 211.537,-193.173"/>
<text text-anchor="middle" x="206.287" y="-179.173" font-family="Times,serif" font-size="14.00">* </text>
<text text-anchor="middle" x="262.559" y="-157.756" font-family="Times,serif" font-size="14.00">1 </text>
</g>
<!-- ProductType&#45;&gt;Bin -->
<g id="edge11" class="edge"><title>ProductType&#45;&gt;Bin</title>
<path fill="none" stroke="black" d="M294.078,-154.956C298.1,-166.884 302.949,-181.262 306.965,-193.173"/>
<text text-anchor="middle" x="283.832" y="-179.173" font-family="Times,serif" font-size="14.00">* keptIn</text>
<text text-anchor="middle" x="299.328" y="-157.756" font-family="Times,serif" font-size="14.00">1 </text>
</g>
<!-- ProductType&#45;&gt;Product -->
<g id="edge12" class="edge"><title>ProductType&#45;&gt;Product</title>
<path fill="none" stroke="black" d="M332.797,-154.956C356.099,-166.884 384.187,-181.262 407.454,-193.173"/>
<text text-anchor="middle" x="412.704" y="-179.173" font-family="Times,serif" font-size="14.00">* </text>
<text text-anchor="middle" x="327.547" y="-157.756" font-family="Times,serif" font-size="14.00">1 </text>
</g>
<!-- AssemblyLine -->
<g id="node9" class="node"><title>AssemblyLine</title>
<g id="a_node9"><a xlink:href="javascript:Action.selectClass(&quot;AssemblyLine&quot;);" xlink:title="class AssemblyLine
">
<polygon fill="none" stroke="black" points="560.059,-105.2 560.059,-154.8 663.941,-154.8 663.941,-105.2 560.059,-105.2"/>
<text text-anchor="middle" x="612" y="-136.8" font-family="Times,serif" font-size="14.00">AssemblyLine</text>
<polyline fill="none" stroke="black" points="560.059,-130 663.941,-130 "/>
<text text-anchor="start" x="568.059" y="-112" font-family="Times,serif" font-size="14.00">number : String</text>
</a>
</g>
</g>
<!-- ProductRun -->
<g id="node10" class="node"><title>ProductRun</title>
<g id="a_node10"><a xlink:href="javascript:Action.selectClass(&quot;ProductRun&quot;);" xlink:title="class ProductRun
Associations classes taken out and substituted with basic classes and associations on May 26, 2008
because of lack of implementations for associations classes in current Umple 2.0
association ProductRun{
 timePeriod;
 numUnits;
 ProductType;
 AssemblyLine;
}
association BillOfMaterialsLineItem{ 
 numberRequired; 
 reflexive;
 ProductType;
 ProductType consistsOf;
}
association RobotAllocation {
 timePeriod;
 AssemblyStep;
 Robot;
}
">
<polygon fill="none" stroke="black" points="470.724,-0.8 470.724,-67.2 593.276,-67.2 593.276,-0.8 470.724,-0.8"/>
<text text-anchor="middle" x="532" y="-49.2" font-family="Times,serif" font-size="14.00">ProductRun</text>
<polyline fill="none" stroke="black" points="470.724,-42.4 593.276,-42.4 "/>
<text text-anchor="start" x="478.724" y="-24.4" font-family="Times,serif" font-size="14.00">timePeriod : String</text>
<text text-anchor="start" x="478.724" y="-7.6" font-family="Times,serif" font-size="14.00">numUnits : String</text>
</a>
</g>
</g>
<!-- ProductRun&#45;&gt;ProductType -->
<g id="edge13" class="edge"><title>ProductRun&#45;&gt;ProductType</title>
<path fill="none" stroke="black" d="M470.558,-58.4777C433.13,-72.7794 385.457,-90.9963 347.938,-105.332"/>
<text text-anchor="middle" x="353.188" y="-91.3325" font-family="Times,serif" font-size="14.00">1 </text>
<text text-anchor="middle" x="465.308" y="-44.4777" font-family="Times,serif" font-size="14.00">* </text>
</g>
<!-- ProductRun&#45;&gt;AssemblyLine -->
<g id="edge14" class="edge"><title>ProductRun&#45;&gt;AssemblyLine</title>
<path fill="none" stroke="black" d="M559.531,-67.3495C570.017,-79.6703 581.773,-93.4836 591.495,-104.907"/>
<text text-anchor="middle" x="586.245" y="-90.9071" font-family="Times,serif" font-size="14.00">1 </text>
<text text-anchor="middle" x="554.281" y="-70.1495" font-family="Times,serif" font-size="14.00">* </text>
</g>
<!-- ProductRun&#45;&gt;Product -->
<g id="edge15" class="edge"><title>ProductRun&#45;&gt;Product</title>
<path fill="none" stroke="black" d="M531.77,-67.409C530.413,-92.7299 525.856,-128.173 512,-156 505.095,-169.866 493.965,-182.708 483.291,-192.996"/>
<text text-anchor="middle" x="478.041" y="-178.996" font-family="Times,serif" font-size="14.00">* </text>
<text text-anchor="middle" x="519.52" y="-70.209" font-family="Times,serif" font-size="14.00">0..1 </text>
</g>
<!-- OrderLineItem -->
<g id="node11" class="node"><title>OrderLineItem</title>
<g id="a_node11"><a xlink:href="javascript:Action.selectClass(&quot;OrderLineItem&quot;);" xlink:title="class OrderLineItem
">
<polygon fill="none" stroke="black" points="404.021,-112 404.021,-148 503.979,-148 503.979,-112 404.021,-112"/>
<text text-anchor="middle" x="454" y="-124.5" font-family="Times,serif" font-size="14.00">OrderLineItem</text>
</a>
</g>
</g>
<!-- OrderLineItem&#45;&gt;Product -->
<g id="edge16" class="edge"><title>OrderLineItem&#45;&gt;Product</title>
<path fill="none" stroke="black" d="M454,-148.403C454,-161.263 454,-178.924 454,-193.105"/>
<text text-anchor="middle" x="448.75" y="-179.105" font-family="Times,serif" font-size="14.00">* </text>
<text text-anchor="middle" x="448.75" y="-151.203" font-family="Times,serif" font-size="14.00">1 </text>
</g>
</g>
</svg>
