<?xml version="1.0" encoding="UTF-8" standalone="no"?>
<!DOCTYPE svg PUBLIC "-//W3C//DTD SVG 1.1//EN"
 "http://www.w3.org/Graphics/SVG/1.1/DTD/svg11.dtd">
<!-- Generated by graphviz version 2.39.20140502.0445 (20140502.0445)
 -->
<!-- Title: ManufactoringPlantController Pages: 1 -->
<svg width="673pt" height="236pt"
 viewBox="0.00 0.00 673.00 236.00" xmlns="http://www.w3.org/2000/svg" xmlns:xlink="http://www.w3.org/1999/xlink">
<g id="graph0" class="graph" transform="scale(1 1) rotate(0) translate(4 232)">
<title>ManufactoringPlantController</title>
<polygon fill="white" stroke="none" points="-4,4 -4,-232 669,-232 669,4 -4,4"/>
<!-- BillOfMaterialsLineItem -->
<g id="node1" class="node"><title>BillOfMaterialsLineItem</title>
<g id="a_node1"><a xlink:href="javascript:Action.selectClass(&quot;BillOfMaterialsLineItem&quot;);" xlink:title="class BillOfMaterialsLineItem
">
<polygon fill="lightgreen" stroke="black" points="139,-8 139,-54 295,-54 295,-8 139,-8"/>
<text text-anchor="middle" x="217" y="-38.8" font-family="Times,serif" font-size="14.00">BillOfMaterialsLineItem</text>
<polyline fill="none" stroke="black" points="139,-31 295,-31 "/>
<text text-anchor="start" x="147" y="-15.8" font-family="Times,serif" font-size="14.00">numberRequired : String</text>
</a>
</g>
</g>
<!-- BillOfMaterialsLineItem&#45;&gt;BillOfMaterialsLineItem -->
<g id="edge1" class="edge"><title>BillOfMaterialsLineItem&#45;&gt;BillOfMaterialsLineItem</title>
<g id="a_edge1"><a xlink:title="BillOfMaterialsLineItem 0..1 &#160;&#45;&#45; * bill BillOfMaterialsLineItem">
<path fill="none" stroke="black" d="M295.347,-16.0294C305.944,-18.5391 313,-23.5293 313,-31 313,-38.4707 305.944,-43.4609 295.347,-45.9706"/>
</a>
</g>
<text text-anchor="middle" x="310.347" y="-34.7706" font-family="Times,serif" font-size="14.00">* bill</text>
<text text-anchor="middle" x="307.847" y="-4.82941" font-family="Times,serif" font-size="14.00">0..1 </text>
</g>
<!-- ProductType -->
<g id="node8" class="node"><title>ProductType</title>
<g id="a_node8"><a xlink:href="javascript:Action.selectClass(&quot;ProductType&quot;);" xlink:title="class ProductType
">
<polygon fill="lightgrey" stroke="black" points="225,-98.5 225,-144.5 349,-144.5 349,-98.5 225,-98.5"/>
<text text-anchor="middle" x="287" y="-129.3" font-family="Times,serif" font-size="14.00">ProductType</text>
<polyline fill="none" stroke="black" points="225,-121.5 349,-121.5 "/>
<text text-anchor="start" x="233" y="-106.3" font-family="Times,serif" font-size="14.00">description : String</text>
</a>
</g>
</g>
<!-- BillOfMaterialsLineItem&#45;&gt;ProductType -->
<g id="edge2" class="edge"><title>BillOfMaterialsLineItem&#45;&gt;ProductType</title>
<g id="a_edge2"><a xlink:title="BillOfMaterialsLineItem * bill &#45;&#45; 1 &#160;ProductType">
<path fill="none" stroke="black" d="M228.712,-54.3323C238.332,-67.8506 251.921,-85.0201 263.657,-98.4814"/>
</a>
</g>
<text text-anchor="middle" x="258.157" y="-87.2814" font-family="Times,serif" font-size="14.00">1 </text>
<text text-anchor="middle" x="213.712" y="-58.1323" font-family="Times,serif" font-size="14.00">* bill</text>
</g>
<!-- BillOfMaterialsLineItem&#45;&gt;ProductType -->
<g id="edge3" class="edge"><title>BillOfMaterialsLineItem&#45;&gt;ProductType</title>
<g id="a_edge3"><a xlink:title="BillOfMaterialsLineItem * &#160;&#45;&#45; 1 consistsOf ProductType">
<path fill="none" stroke="black" d="M240.616,-54.3323C252.381,-67.8506 265.953,-85.0201 275.511,-98.4814"/>
</a>
</g>
<text text-anchor="middle" x="310.511" y="-87.2814" font-family="Times,serif" font-size="14.00">1 consistsOf</text>
<text text-anchor="middle" x="235.116" y="-58.1323" font-family="Times,serif" font-size="14.00">* </text>
</g>
<!-- Bin -->
<g id="node2" class="node"><title>Bin</title>
<g id="a_node2"><a xlink:href="javascript:Action.selectClass(&quot;Bin&quot;);" xlink:title="class Bin
">
<polygon fill="lightgreen" stroke="black" points="264,-181.5 264,-227.5 368,-227.5 368,-181.5 264,-181.5"/>
<text text-anchor="middle" x="316" y="-212.3" font-family="Times,serif" font-size="14.00">Bin</text>
<polyline fill="none" stroke="black" points="264,-204.5 368,-204.5 "/>
<text text-anchor="start" x="272" y="-189.3" font-family="Times,serif" font-size="14.00">number : String</text>
</a>
</g>
</g>
<!-- Supplier -->
<g id="node3" class="node"><title>Supplier</title>
<g id="a_node3"><a xlink:href="javascript:Action.selectClass(&quot;Supplier&quot;);" xlink:title="class Supplier
">
<polygon fill="lightgreen" stroke="black" points="331,-8 331,-54 423,-54 423,-8 331,-8"/>
<text text-anchor="middle" x="377" y="-38.8" font-family="Times,serif" font-size="14.00">Supplier</text>
<polyline fill="none" stroke="black" points="331,-31 423,-31 "/>
<text text-anchor="start" x="339" y="-15.8" font-family="Times,serif" font-size="14.00">name : String</text>
</a>
</g>
</g>
<!-- Product -->
<g id="node4" class="node"><title>Product</title>
<g id="a_node4"><a xlink:href="javascript:Action.selectClass(&quot;Product&quot;);" xlink:title="class Product
">
<polygon fill="lightgreen" stroke="black" points="386,-181.5 386,-227.5 524,-227.5 524,-181.5 386,-181.5"/>
<text text-anchor="middle" x="455" y="-212.3" font-family="Times,serif" font-size="14.00">Product</text>
<polyline fill="none" stroke="black" points="386,-204.5 524,-204.5 "/>
<text text-anchor="start" x="394" y="-189.3" font-family="Times,serif" font-size="14.00">serialNumber : String</text>
</a>
</g>
</g>
<!-- Supplier&#45;&gt;Product -->
<g id="edge5" class="edge"><title>Supplier&#45;&gt;Product</title>
<g id="a_edge5"><a xlink:title="Supplier 0..1 &#160;&#45;&#45; * &#160;Product">
<path fill="none" stroke="black" d="M376.782,-54.0694C377.413,-77.8049 380.989,-116.033 396,-145 403.168,-158.832 414.789,-171.405 425.829,-181.319"/>
</a>
</g>
<text text-anchor="middle" x="420.329" y="-170.119" font-family="Times,serif" font-size="14.00">* </text>
<text text-anchor="middle" x="389.282" y="-57.8694" font-family="Times,serif" font-size="14.00">0..1 </text>
</g>
<!-- Supplier&#45;&gt;ProductType -->
<g id="edge4" class="edge"><title>Supplier&#45;&gt;ProductType</title>
<g id="a_edge4"><a xlink:title="Supplier * &#160;&#45;&#45; * &#160;ProductType">
<path fill="none" stroke="black" d="M309.392,-98.4814 323.081,-85.0201 340.542,-67.8506 354.289,-54.3323"/>
</a>
</g>
<text text-anchor="middle" x="303.892" y="-102.281" font-family="Times,serif" font-size="14.00">* </text>
<text text-anchor="middle" x="348.789" y="-58.1323" font-family="Times,serif" font-size="14.00">* </text>
</g>
<!-- Product&#45;&gt;Product -->
<g id="edge6" class="edge"><title>Product&#45;&gt;Product</title>
<g id="a_edge6"><a xlink:title="Product 0..1 &#160;&#45;&#45; * packagedWith Product">
<path fill="none" stroke="black" d="M524.275,-190.48C534.831,-192.62 542,-197.293 542,-204.5 542,-211.707 534.831,-216.38 524.275,-218.52"/>
</a>
</g>
<text text-anchor="middle" x="570.275" y="-207.32" font-family="Times,serif" font-size="14.00">* packagedWith</text>
<text text-anchor="middle" x="536.775" y="-179.28" font-family="Times,serif" font-size="14.00">0..1 </text>
</g>
<!-- AssemblyStep -->
<g id="node5" class="node"><title>AssemblyStep</title>
<g id="a_node5"><a xlink:href="javascript:Action.selectClass(&quot;AssemblyStep&quot;);" xlink:title="class AssemblyStep
">
<polygon fill="pink" stroke="black" points="122,-181.5 122,-227.5 246,-227.5 246,-181.5 122,-181.5"/>
<text text-anchor="middle" x="184" y="-212.3" font-family="Times,serif" font-size="14.00">AssemblyStep</text>
<polyline fill="none" stroke="black" points="122,-204.5 246,-204.5 "/>
<text text-anchor="start" x="130" y="-189.3" font-family="Times,serif" font-size="14.00">description : String</text>
</a>
</g>
</g>
<!-- AssemblyStep&#45;&gt;BillOfMaterialsLineItem -->
<g id="edge7" class="edge"><title>AssemblyStep&#45;&gt;BillOfMaterialsLineItem</title>
<g id="a_edge7"><a xlink:title="AssemblyStep 1 &#160;&#45;&#45; * &#160;BillOfMaterialsLineItem">
<path fill="none" stroke="black" d="M188.283,-181.244C194.622,-148.296 206.434,-86.9093 212.753,-54.0695"/>
</a>
</g>
<text text-anchor="middle" x="207.253" y="-42.8695" font-family="Times,serif" font-size="14.00">* </text>
<text text-anchor="middle" x="182.783" y="-170.044" font-family="Times,serif" font-size="14.00">1 </text>
</g>
<!-- Robot -->
<g id="node6" class="node"><title>Robot</title>
<g id="a_node6"><a xlink:href="javascript:Action.selectClass(&quot;Robot&quot;);" xlink:title="class Robot
">
<polygon fill="pink" stroke="black" points="0,-181.5 0,-227.5 104,-227.5 104,-181.5 0,-181.5"/>
<text text-anchor="middle" x="52" y="-212.3" font-family="Times,serif" font-size="14.00">Robot</text>
<polyline fill="none" stroke="black" points="0,-204.5 104,-204.5 "/>
<text text-anchor="start" x="8" y="-189.3" font-family="Times,serif" font-size="14.00">number : String</text>
</a>
</g>
</g>
<!-- RobotAllocation -->
<g id="node7" class="node"><title>RobotAllocation</title>
<g id="a_node7"><a xlink:href="javascript:Action.selectClass(&quot;RobotAllocation&quot;);" xlink:title="class RobotAllocation
">
<polygon fill="pink" stroke="black" points="17.5,-98.5 17.5,-144.5 140.5,-144.5 140.5,-98.5 17.5,-98.5"/>
<text text-anchor="middle" x="79" y="-129.3" font-family="Times,serif" font-size="14.00">RobotAllocation</text>
<polyline fill="none" stroke="black" points="17.5,-121.5 140.5,-121.5 "/>
<text text-anchor="start" x="25.5" y="-106.3" font-family="Times,serif" font-size="14.00">timePeriod : String</text>
</a>
</g>
</g>
<!-- RobotAllocation&#45;&gt;AssemblyStep -->
<g id="edge8" class="edge"><title>RobotAllocation&#45;&gt;AssemblyStep</title>
<g id="a_edge8"><a xlink:title="RobotAllocation * &#160;&#45;&#45; 1 &#160;AssemblyStep">
<path fill="none" stroke="black" d="M107.692,-144.634C122.507,-156.063 140.532,-169.968 155.343,-181.393"/>
</a>
</g>
<text text-anchor="middle" x="149.843" y="-170.193" font-family="Times,serif" font-size="14.00">1 </text>
<text text-anchor="middle" x="102.192" y="-148.434" font-family="Times,serif" font-size="14.00">* </text>
</g>
<!-- RobotAllocation&#45;&gt;Robot -->
<g id="edge9" class="edge"><title>RobotAllocation&#45;&gt;Robot</title>
<g id="a_edge9"><a xlink:title="RobotAllocation * &#160;&#45;&#45; 1 &#160;Robot">
<path fill="none" stroke="black" d="M59.3689,-181.393 63.1774,-169.968 67.8124,-156.063 71.6221,-144.634"/>
</a>
</g>
<text text-anchor="middle" x="53.8689" y="-170.193" font-family="Times,serif" font-size="14.00">1 </text>
<text text-anchor="middle" x="66.1221" y="-148.434" font-family="Times,serif" font-size="14.00">* </text>
</g>
<!-- ProductType&#45;&gt;Bin -->
<g id="edge11" class="edge"><title>ProductType&#45;&gt;Bin</title>
<g id="a_edge11"><a xlink:title="ProductType 1 &#160;&#45;&#45; * keptIn Bin">
<path fill="none" stroke="black" d="M294.924,-144.634C299.016,-156.063 303.995,-169.968 308.085,-181.393"/>
</a>
</g>
<text text-anchor="middle" x="284.585" y="-170.193" font-family="Times,serif" font-size="14.00">* keptIn</text>
<text text-anchor="middle" x="289.424" y="-148.434" font-family="Times,serif" font-size="14.00">1 </text>
</g>
<!-- ProductType&#45;&gt;Product -->
<g id="edge12" class="edge"><title>ProductType&#45;&gt;Product</title>
<g id="a_edge12"><a xlink:title="ProductType 1 &#160;&#45;&#45; * &#160;Product">
<path fill="none" stroke="black" d="M332.907,-144.634C356.612,-156.063 385.452,-169.968 409.149,-181.393"/>
</a>
</g>
<text text-anchor="middle" x="403.649" y="-170.193" font-family="Times,serif" font-size="14.00">* </text>
<text text-anchor="middle" x="327.407" y="-148.434" font-family="Times,serif" font-size="14.00">1 </text>
</g>
<!-- ProductType&#45;&gt;AssemblyStep -->
<g id="edge10" class="edge"><title>ProductType&#45;&gt;AssemblyStep</title>
<g id="a_edge10"><a xlink:title="ProductType 1 &#160;&#45;&#45; * &#160;AssemblyStep">
<path fill="none" stroke="black" d="M212.111,-181.393 226.64,-169.968 244.321,-156.063 258.855,-144.634"/>
</a>
</g>
<text text-anchor="middle" x="206.611" y="-170.193" font-family="Times,serif" font-size="14.00">* </text>
<text text-anchor="middle" x="253.355" y="-148.434" font-family="Times,serif" font-size="14.00">1 </text>
</g>
<!-- AssemblyLine -->
<g id="node9" class="node"><title>AssemblyLine</title>
<g id="a_node9"><a xlink:href="javascript:Action.selectClass(&quot;AssemblyLine&quot;);" xlink:title="class AssemblyLine
">
<polygon fill="lightgrey" stroke="black" points="561,-98.5 561,-144.5 665,-144.5 665,-98.5 561,-98.5"/>
<text text-anchor="middle" x="613" y="-129.3" font-family="Times,serif" font-size="14.00">AssemblyLine</text>
<polyline fill="none" stroke="black" points="561,-121.5 665,-121.5 "/>
<text text-anchor="start" x="569" y="-106.3" font-family="Times,serif" font-size="14.00">number : String</text>
</a>
</g>
</g>
<!-- ProductRun -->
<g id="node10" class="node"><title>ProductRun</title>
<g id="a_node10"><a xlink:href="javascript:Action.selectClass(&quot;ProductRun&quot;);" xlink:title="class ProductRun
Associations classes taken out and substituted with basic classes and associations on May 26, 2008
because of lack of implementations for associations classes in current Umple 2.0
association ProductRun{
 timePeriod;
 numUnits;
 ProductType;
 AssemblyLine;
}
association BillOfMaterialsLineItem{ 
 numberRequired; 
 reflexive;
 ProductType;
 ProductType consistsOf;
}
association RobotAllocation {
 timePeriod;
 AssemblyStep;
 Robot;
}
">
<polygon fill="lightgrey" stroke="black" points="471.5,-0.5 471.5,-61.5 594.5,-61.5 594.5,-0.5 471.5,-0.5"/>
<text text-anchor="middle" x="533" y="-46.3" font-family="Times,serif" font-size="14.00">ProductRun</text>
<polyline fill="none" stroke="black" points="471.5,-38.5 594.5,-38.5 "/>
<text text-anchor="start" x="479.5" y="-23.3" font-family="Times,serif" font-size="14.00">timePeriod : String</text>
<text text-anchor="start" x="479.5" y="-8.3" font-family="Times,serif" font-size="14.00">numUnits : String</text>
</a>
</g>
</g>
<!-- ProductRun&#45;&gt;Product -->
<g id="edge15" class="edge"><title>ProductRun&#45;&gt;Product</title>
<g id="a_edge15"><a xlink:title="ProductRun 0..1 &#160;&#45;&#45; * &#160;Product">
<path fill="none" stroke="black" d="M484.171,-181.319 495.211,-171.405 506.832,-158.832 514,-145 527.455,-119.036 531.723,-85.6308 532.918,-61.8913"/>
</a>
</g>
<text text-anchor="middle" x="478.671" y="-170.119" font-family="Times,serif" font-size="14.00">* </text>
<text text-anchor="middle" x="520.418" y="-65.6913" font-family="Times,serif" font-size="14.00">0..1 </text>
</g>
<!-- ProductRun&#45;&gt;ProductType -->
<g id="edge13" class="edge"><title>ProductRun&#45;&gt;ProductType</title>
<g id="a_edge13"><a xlink:title="ProductRun * &#160;&#45;&#45; 1 &#160;ProductType">
<path fill="none" stroke="black" d="M348.357,-98.4263 385.858,-84.9353 433.668,-67.7354 471.241,-54.2181"/>
</a>
</g>
<text text-anchor="middle" x="353.857" y="-87.2263" font-family="Times,serif" font-size="14.00">1 </text>
<text text-anchor="middle" x="465.741" y="-43.0181" font-family="Times,serif" font-size="14.00">* </text>
</g>
<!-- ProductRun&#45;&gt;AssemblyLine -->
<g id="edge14" class="edge"><title>ProductRun&#45;&gt;AssemblyLine</title>
<g id="a_edge14"><a xlink:title="ProductRun * &#160;&#45;&#45; 1 &#160;AssemblyLine">
<path fill="none" stroke="black" d="M560.084,-61.9621C570.873,-73.8967 583.065,-87.3847 593.025,-98.4031"/>
</a>
</g>
<text text-anchor="middle" x="587.525" y="-87.2031" font-family="Times,serif" font-size="14.00">1 </text>
<text text-anchor="middle" x="554.584" y="-65.7621" font-family="Times,serif" font-size="14.00">* </text>
</g>
<!-- OrderLineItem -->
<g id="node11" class="node"><title>OrderLineItem</title>
<g id="a_node11"><a xlink:href="javascript:Action.selectClass(&quot;OrderLineItem&quot;);" xlink:title="class OrderLineItem
">
<polygon fill="lightblue" stroke="black" points="405,-103.5 405,-139.5 505,-139.5 505,-103.5 405,-103.5"/>
<text text-anchor="middle" x="455" y="-117.8" font-family="Times,serif" font-size="14.00">OrderLineItem</text>
</a>
</g>
</g>
<!-- OrderLineItem&#45;&gt;Product -->
<g id="edge16" class="edge"><title>OrderLineItem&#45;&gt;Product</title>
<g id="a_edge16"><a xlink:title="OrderLineItem 1 &#160;&#45;&#45; * &#160;Product">
<path fill="none" stroke="black" d="M455,-139.678C455,-151.845 455,-168.272 455,-181.413"/>
</a>
</g>
<text text-anchor="middle" x="449.5" y="-170.213" font-family="Times,serif" font-size="14.00">* </text>
<text text-anchor="middle" x="449.5" y="-143.478" font-family="Times,serif" font-size="14.00">1 </text>
</g>
</g>
</svg>
