<?xml version="1.0" encoding="UTF-8" standalone="no"?>
<!DOCTYPE svg PUBLIC "-//W3C//DTD SVG 1.1//EN"
 "http://www.w3.org/Graphics/SVG/1.1/DTD/svg11.dtd">
<!-- Generated by graphviz version 2.39.20140502.0445 (20140502.0445)
 -->
<!-- Title: OhHellWhist Pages: 1 -->
<svg width="379pt" height="510pt"
 viewBox="0.00 0.00 378.74 510.00" xmlns="http://www.w3.org/2000/svg" xmlns:xlink="http://www.w3.org/1999/xlink">
<g id="graph0" class="graph" transform="scale(1 1) rotate(0) translate(4 506)">
<title>OhHellWhist</title>
<polygon fill="white" stroke="none" points="-4,4 -4,-506 374.735,-506 374.735,4 -4,4"/>
<!-- Card -->
<g id="node1" class="node"><title>Card</title>
<g id="a_node1"><a xlink:href="javascript:Action.selectClass(&quot;Card&quot;);" xlink:title="class Card
Umple class diagram representing card games in the Oh Hell and Whist family
">
<polygon fill="none" stroke="black" points="158.5,-425.5 158.5,-501.5 272.5,-501.5 272.5,-425.5 158.5,-425.5"/>
<text text-anchor="middle" x="215.5" y="-486.3" font-family="Times,serif" font-size="14.00">Card</text>
<polyline fill="none" stroke="black" points="158.5,-478.5 272.5,-478.5 "/>
<text text-anchor="start" x="166.5" y="-463.3" font-family="Times,serif" font-size="14.00">suit : String</text>
<text text-anchor="start" x="166.5" y="-448.3" font-family="Times,serif" font-size="14.00">rank : String</text>
<text text-anchor="start" x="166.5" y="-433.3" font-family="Times,serif" font-size="14.00">isJoker : Boolean</text>
</a>
</g>
</g>
<!-- CardSet -->
<g id="node2" class="node"><title>CardSet</title>
<g id="a_node2"><a xlink:href="javascript:Action.selectClass(&quot;CardSet&quot;);" xlink:title="class CardSet
">
<polygon fill="none" stroke="black" points="125.5,-352.5 125.5,-388.5 187.5,-388.5 187.5,-352.5 125.5,-352.5"/>
<text text-anchor="middle" x="156.5" y="-366.8" font-family="Times,serif" font-size="14.00">CardSet</text>
</a>
</g>
</g>
<!-- CardSet&#45;&gt;Card -->
<g id="edge3" class="edge"><title>CardSet&#45;&gt;Card</title>
<g id="a_edge3"><a xlink:title="CardSet 1 &#160;&#45;&#45; * &#160;Card">
<path fill="none" stroke="black" d="M167.597,-388.616C174.34,-399.016 183.219,-412.711 191.498,-425.481"/>
</a>
</g>
<text text-anchor="middle" x="185.998" y="-414.281" font-family="Times,serif" font-size="14.00">* </text>
<text text-anchor="middle" x="162.097" y="-392.416" font-family="Times,serif" font-size="14.00">1 </text>
</g>
<!-- NotDealtCardSet -->
<g id="node3" class="node"><title>NotDealtCardSet</title>
<g id="a_node3"><a xlink:href="javascript:Action.selectClass(&quot;NotDealtCardSet&quot;);" xlink:title="class NotDealtCardSet
">
<polygon fill="none" stroke="black" points="0,-279.5 0,-315.5 113,-315.5 113,-279.5 0,-279.5"/>
<text text-anchor="middle" x="56.5" y="-293.8" font-family="Times,serif" font-size="14.00">NotDealtCardSet</text>
</a>
</g>
</g>
<!-- NotDealtCardSet&#45;&gt;CardSet -->
<g id="edge1" class="edge"><title>NotDealtCardSet&#45;&gt;CardSet</title>
<path fill="none" stroke="black" d="M85.293,-315.586C103.83,-326.586 126.664,-340.136 138.857,-347.371"/>
<polygon fill="none" stroke="black" points="137.114,-350.407 147.5,-352.5 140.686,-344.387 137.114,-350.407"/>
</g>
<!-- Trick -->
<g id="node4" class="node"><title>Trick</title>
<g id="a_node4"><a xlink:href="javascript:Action.selectClass(&quot;Trick&quot;);" xlink:title="class Trick
">
<polygon fill="none" stroke="black" points="131.5,-279.5 131.5,-315.5 185.5,-315.5 185.5,-279.5 131.5,-279.5"/>
<text text-anchor="middle" x="158.5" y="-293.8" font-family="Times,serif" font-size="14.00">Trick</text>
</a>
</g>
</g>
<!-- Trick&#45;&gt;CardSet -->
<g id="edge2" class="edge"><title>Trick&#45;&gt;CardSet</title>
<path fill="none" stroke="black" d="M149.518,-342.596 151.054,-335.052 153.207,-324.485 155.02,-315.586"/>
<polygon fill="none" stroke="black" points="146.067,-342.003 147.5,-352.5 152.926,-343.4 146.067,-342.003"/>
</g>
<!-- Player -->
<g id="node5" class="node"><title>Player</title>
<g id="a_node5"><a xlink:href="javascript:Action.selectClass(&quot;Player&quot;);" xlink:title="class Player
">
<polygon fill="none" stroke="black" points="77,-181.5 77,-242.5 240,-242.5 240,-181.5 77,-181.5"/>
<text text-anchor="middle" x="158.5" y="-227.3" font-family="Times,serif" font-size="14.00">Player</text>
<polyline fill="none" stroke="black" points="77,-219.5 240,-219.5 "/>
<text text-anchor="start" x="85" y="-204.3" font-family="Times,serif" font-size="14.00">name : String</text>
<text text-anchor="start" x="85" y="-189.3" font-family="Times,serif" font-size="14.00">currentTricksBid : Integer</text>
</a>
</g>
</g>
<!-- Player&#45;&gt;Card -->
<g id="edge4" class="edge"><title>Player&#45;&gt;Card</title>
<g id="a_edge4"><a xlink:title="Player 0..1 &#160;&#45;&#45; * hand Card">
<path fill="none" stroke="black" d="M177.923,-242.794C184.205,-253.764 190.56,-266.557 194.5,-279 210.035,-328.064 214.345,-387.735 215.399,-425.427"/>
</a>
</g>
<text text-anchor="middle" x="234.399" y="-414.227" font-family="Times,serif" font-size="14.00">* hand</text>
<text text-anchor="middle" x="165.423" y="-246.594" font-family="Times,serif" font-size="14.00">0..1 </text>
</g>
<!-- Player&#45;&gt;Trick -->
<g id="edge5" class="edge"><title>Player&#45;&gt;Trick</title>
<g id="a_edge5"><a xlink:title="Player 1 &#160;&#45;&#45; * &#160;Trick">
<path fill="none" stroke="black" d="M158.5,-242.674C158.5,-254.862 158.5,-268.552 158.5,-279.075"/>
</a>
</g>
<text text-anchor="middle" x="153" y="-267.875" font-family="Times,serif" font-size="14.00">* </text>
<text text-anchor="middle" x="153" y="-246.474" font-family="Times,serif" font-size="14.00">1 </text>
</g>
<!-- ScoringTeam -->
<g id="node6" class="node"><title>ScoringTeam</title>
<g id="a_node6"><a xlink:href="javascript:Action.selectClass(&quot;ScoringTeam&quot;);" xlink:title="class ScoringTeam
">
<polygon fill="none" stroke="black" points="48,-98.5 48,-144.5 145,-144.5 145,-98.5 48,-98.5"/>
<text text-anchor="middle" x="96.5" y="-129.3" font-family="Times,serif" font-size="14.00">ScoringTeam</text>
<polyline fill="none" stroke="black" points="48,-121.5 145,-121.5 "/>
<text text-anchor="start" x="56" y="-106.3" font-family="Times,serif" font-size="14.00">score : Integer</text>
</a>
</g>
</g>
<!-- ScoringTeam&#45;&gt;Player -->
<g id="edge6" class="edge"><title>ScoringTeam&#45;&gt;Player</title>
<g id="a_edge6"><a xlink:title="ScoringTeam 1 &#160;&#45;&#45; 1..2 &#160;Player">
<path fill="none" stroke="black" d="M112.145,-144.832C119.894,-155.893 129.355,-169.397 137.704,-181.315"/>
</a>
</g>
<text text-anchor="middle" x="125.204" y="-170.115" font-family="Times,serif" font-size="14.00">1..2 </text>
<text text-anchor="middle" x="106.645" y="-148.632" font-family="Times,serif" font-size="14.00">1 </text>
</g>
<!-- Match -->
<g id="node7" class="node"><title>Match</title>
<g id="a_node7"><a xlink:href="javascript:Action.selectClass(&quot;Match&quot;);" xlink:title="class Match
">
<polygon fill="none" stroke="black" points="86.5,-0.5 86.5,-61.5 222.5,-61.5 222.5,-0.5 86.5,-0.5"/>
<text text-anchor="middle" x="154.5" y="-46.3" font-family="Times,serif" font-size="14.00">Match</text>
<polyline fill="none" stroke="black" points="86.5,-38.5 222.5,-38.5 "/>
<text text-anchor="start" x="94.5" y="-23.3" font-family="Times,serif" font-size="14.00">isWhist : Boolean</text>
<text text-anchor="start" x="94.5" y="-8.3" font-family="Times,serif" font-size="14.00">scoreToWin : Integer</text>
</a>
</g>
</g>
<!-- Match&#45;&gt;ScoringTeam -->
<g id="edge7" class="edge"><title>Match&#45;&gt;ScoringTeam</title>
<g id="a_edge7"><a xlink:title="Match * &#160;&#45;&#45; 2..* &#160;ScoringTeam">
<path fill="none" stroke="black" d="M110.982,-98.4031 118.203,-87.3847 127.042,-73.8967 134.864,-61.9621"/>
</a>
</g>
<text text-anchor="middle" x="98.4816" y="-87.2031" font-family="Times,serif" font-size="14.00">2..* </text>
<text text-anchor="middle" x="129.364" y="-65.7621" font-family="Times,serif" font-size="14.00">* </text>
</g>
<!-- Game -->
<g id="node8" class="node"><title>Game</title>
<g id="a_node8"><a xlink:href="javascript:Action.selectClass(&quot;Game&quot;);" xlink:title="class Game
">
<polygon fill="none" stroke="black" points="163,-98.5 163,-144.5 264,-144.5 264,-98.5 163,-98.5"/>
<text text-anchor="middle" x="213.5" y="-129.3" font-family="Times,serif" font-size="14.00">Game</text>
<polyline fill="none" stroke="black" points="163,-121.5 264,-121.5 "/>
<text text-anchor="start" x="171" y="-106.3" font-family="Times,serif" font-size="14.00">trumps : String</text>
</a>
</g>
</g>
<!-- Match&#45;&gt;Game -->
<g id="edge8" class="edge"><title>Match&#45;&gt;Game</title>
<g id="a_edge8"><a xlink:title="Match 1 &#160;&#45;&#45; * games Game">
<path fill="none" stroke="black" d="M174.475,-61.9621C182.431,-73.8967 191.423,-87.3847 198.769,-98.4031"/>
</a>
</g>
<text text-anchor="middle" x="175.269" y="-87.2031" font-family="Times,serif" font-size="14.00">* games</text>
<text text-anchor="middle" x="168.975" y="-65.7621" font-family="Times,serif" font-size="14.00">1 </text>
</g>
<!-- Game&#45;&gt;Card -->
<g id="edge10" class="edge"><title>Game&#45;&gt;Card</title>
<g id="a_edge10"><a xlink:title="Game 0..1 &#160;&#45;&#45; * currentTrickBeingBuilt Card">
<path fill="none" stroke="black" d="M228.735,-425.374 246.191,-370.859 272.089,-266.372 248.5,-181 244.907,-167.995 237.573,-154.972 230.543,-144.526"/>
</a>
</g>
<text text-anchor="middle" x="299.735" y="-414.174" font-family="Times,serif" font-size="14.00">* currentTrickBeingBuilt</text>
<text text-anchor="middle" x="243.043" y="-148.326" font-family="Times,serif" font-size="14.00">0..1 </text>
</g>
<!-- Game&#45;&gt;Player -->
<g id="edge9" class="edge"><title>Game&#45;&gt;Player</title>
<g id="a_edge9"><a xlink:title="Game * &#160;&#45;&#45; 1 dealer Player">
<path fill="none" stroke="black" d="M170.534,-181.315 177.372,-169.397 185.918,-155.893 193.669,-144.832"/>
</a>
</g>
<text text-anchor="middle" x="193.034" y="-170.115" font-family="Times,serif" font-size="14.00">1 dealer</text>
<text text-anchor="middle" x="188.169" y="-148.632" font-family="Times,serif" font-size="14.00">* </text>
</g>
<!-- Game&#45;&gt;Player -->
<g id="edge11" class="edge"><title>Game&#45;&gt;Player</title>
<g id="a_edge11"><a xlink:title="Game * gameLed &#45;&#45; 0..1 currentLead Player">
<path fill="none" stroke="black" d="M183.362,-181.315 191.338,-169.397 199.577,-155.893 205.574,-144.832"/>
</a>
</g>
<text text-anchor="middle" x="136.862" y="-170.115" font-family="Times,serif" font-size="14.00">0..1 currentLead</text>
<text text-anchor="middle" x="174.074" y="-148.632" font-family="Times,serif" font-size="14.00">* gameLed</text>
</g>
</g>
</svg>
