<?xml version="1.0" encoding="UTF-8" standalone="no"?>
<!DOCTYPE svg PUBLIC "-//W3C//DTD SVG 1.1//EN"
 "http://www.w3.org/Graphics/SVG/1.1/DTD/svg11.dtd">
<!-- Generated by graphviz version 2.29.20121108.1600 (20121108.1600)
 -->
<!-- Title: OhHellWhist Pages: 1 -->
<svg width="279pt" height="536pt"
 viewBox="0.00 0.00 279.00 536.00" xmlns="http://www.w3.org/2000/svg" xmlns:xlink="http://www.w3.org/1999/xlink">
<g id="graph0" class="graph" transform="scale(1 1) rotate(0) translate(4 532)">
<title>OhHellWhist</title>
<polygon fill="white" stroke="white" points="-4,5 -4,-532 276,-532 276,5 -4,5"/>
<!-- Card -->
<g id="node1" class="node"><title>Card</title>
<g id="a_node1"><a xlink:href="javascript:Action.selectClass(&quot;Card&quot;);" xlink:title="class Card
">
<polygon fill="none" stroke="black" points="157.396,-444.4 157.396,-527.6 270.604,-527.6 270.604,-444.4 157.396,-444.4"/>
<text text-anchor="middle" x="214" y="-509.6" font-family="Times,serif" font-size="14.00">Card</text>
<polyline fill="none" stroke="black" points="157.396,-502.8 270.604,-502.8 "/>
<text text-anchor="start" x="165.396" y="-484.8" font-family="Times,serif" font-size="14.00">suit : String</text>
<text text-anchor="start" x="165.396" y="-468" font-family="Times,serif" font-size="14.00">rank : String</text>
<text text-anchor="start" x="165.396" y="-451.2" font-family="Times,serif" font-size="14.00">isJoker : Boolean</text>
</a>
</g>
</g>
<!-- CardSet -->
<g id="node2" class="node"><title>CardSet</title>
<g id="a_node2"><a xlink:href="javascript:Action.selectClass(&quot;CardSet&quot;);" xlink:title="class CardSet
">
<polygon fill="none" stroke="black" points="124.448,-371 124.448,-407 185.552,-407 185.552,-371 124.448,-371"/>
<text text-anchor="middle" x="155" y="-383.5" font-family="Times,serif" font-size="14.00">CardSet</text>
</a>
</g>
</g>
<!-- CardSet&#45;&gt;Card -->
<g id="edge3" class="edge"><title>CardSet&#45;&gt;Card</title>
<path fill="none" stroke="black" d="M165.822,-407.424C172.209,-417.709 180.581,-431.189 188.551,-444.022"/>
<text text-anchor="middle" x="183.301" y="-430.022" font-family="Times,serif" font-size="14.00">* </text>
<text text-anchor="middle" x="160.572" y="-410.224" font-family="Times,serif" font-size="14.00">1 </text>
</g>
<!-- NotDealtCardSet -->
<g id="node3" class="node"><title>NotDealtCardSet</title>
<g id="a_node3"><a xlink:href="javascript:Action.selectClass(&quot;NotDealtCardSet&quot;);" xlink:title="class NotDealtCardSet
">
<polygon fill="none" stroke="black" points="-0.210449,-297 -0.210449,-333 112.21,-333 112.21,-297 -0.210449,-297"/>
<text text-anchor="middle" x="56" y="-309.5" font-family="Times,serif" font-size="14.00">NotDealtCardSet</text>
</a>
</g>
</g>
<!-- NotDealtCardSet&#45;&gt;CardSet -->
<g id="edge1" class="edge"><title>NotDealtCardSet&#45;&gt;CardSet</title>
<path fill="none" stroke="black" d="M83.9832,-333.101C102.353,-344.327 125.16,-358.264 137.353,-365.715"/>
<polygon fill="none" stroke="black" points="135.642,-368.772 146,-371 139.292,-362.799 135.642,-368.772"/>
</g>
<!-- Trick -->
<g id="node4" class="node"><title>Trick</title>
<g id="a_node4"><a xlink:href="javascript:Action.selectClass(&quot;Trick&quot;);" xlink:title="class Trick
">
<polygon fill="none" stroke="black" points="130,-297 130,-333 184,-333 184,-297 130,-297"/>
<text text-anchor="middle" x="156.916" y="-309.5" font-family="Times,serif" font-size="14.00">Trick</text>
</a>
</g>
</g>
<!-- Trick&#45;&gt;CardSet -->
<g id="edge2" class="edge"><title>Trick&#45;&gt;CardSet</title>
<path fill="none" stroke="black" d="M153.58,-333.101C151.738,-342.309 149.532,-353.341 147.976,-361.121"/>
<polygon fill="none" stroke="black" points="144.529,-360.508 146,-371 151.393,-361.881 144.529,-360.508"/>
</g>
<!-- Player -->
<g id="node5" class="node"><title>Player</title>
<g id="a_node5"><a xlink:href="javascript:Action.selectClass(&quot;Player&quot;);" xlink:title="class Player
">
<polygon fill="none" stroke="black" points="76.1597,-192.8 76.1597,-259.2 237.84,-259.2 237.84,-192.8 76.1597,-192.8"/>
<text text-anchor="middle" x="157" y="-241.2" font-family="Times,serif" font-size="14.00">Player</text>
<polyline fill="none" stroke="black" points="76.1597,-234.4 237.84,-234.4 "/>
<text text-anchor="start" x="84.1597" y="-216.4" font-family="Times,serif" font-size="14.00">name : String</text>
<text text-anchor="start" x="84.1597" y="-199.6" font-family="Times,serif" font-size="14.00">currentTricksBid : Integer</text>
</a>
</g>
</g>
<!-- Player&#45;&gt;Card -->
<g id="edge4" class="edge"><title>Player&#45;&gt;Card</title>
<path fill="none" stroke="black" d="M176.99,-259.279C183.086,-270.52 189.18,-283.463 193,-296 208.108,-345.582 212.584,-405.434 213.786,-444.311"/>
<text text-anchor="middle" x="232.643" y="-430.311" font-family="Times,serif" font-size="14.00">* hand</text>
<text text-anchor="middle" x="189.24" y="-262.079" font-family="Times,serif" font-size="14.00">0..1 </text>
</g>
<!-- Player&#45;&gt;Trick -->
<g id="edge5" class="edge"><title>Player&#45;&gt;Trick</title>
<path fill="none" stroke="black" d="M157,-259.396C157,-272.15 157,-286.269 157,-296.954"/>
<text text-anchor="middle" x="151.75" y="-282.954" font-family="Times,serif" font-size="14.00">* </text>
<text text-anchor="middle" x="151.75" y="-262.196" font-family="Times,serif" font-size="14.00">1 </text>
</g>
<!-- ScoringTeam -->
<g id="node6" class="node"><title>ScoringTeam</title>
<g id="a_node6"><a xlink:href="javascript:Action.selectClass(&quot;ScoringTeam&quot;);" xlink:title="class ScoringTeam
">
<polygon fill="none" stroke="black" points="47.9653,-105.2 47.9653,-154.8 144.035,-154.8 144.035,-105.2 47.9653,-105.2"/>
<text text-anchor="middle" x="96" y="-136.8" font-family="Times,serif" font-size="14.00">ScoringTeam</text>
<polyline fill="none" stroke="black" points="47.9653,-130 144.035,-130 "/>
<text text-anchor="start" x="55.9653" y="-112" font-family="Times,serif" font-size="14.00">score : Integer</text>
</a>
</g>
</g>
<!-- ScoringTeam&#45;&gt;Player -->
<g id="edge6" class="edge"><title>ScoringTeam&#45;&gt;Player</title>
<path fill="none" stroke="black" d="M111.709,-155.207C119.122,-166.631 128.073,-180.425 136.054,-192.722"/>
<text text-anchor="middle" x="123.804" y="-178.722" font-family="Times,serif" font-size="14.00">1..2 </text>
<text text-anchor="middle" x="106.459" y="-158.007" font-family="Times,serif" font-size="14.00">1 </text>
</g>
<!-- Match -->
<g id="node7" class="node"><title>Match</title>
<g id="a_node7"><a xlink:href="javascript:Action.selectClass(&quot;Match&quot;);" xlink:title="class Match
">
<polygon fill="none" stroke="black" points="86.9033,-0.8 86.9033,-67.2 221.097,-67.2 221.097,-0.8 86.9033,-0.8"/>
<text text-anchor="middle" x="154" y="-49.2" font-family="Times,serif" font-size="14.00">Match</text>
<polyline fill="none" stroke="black" points="86.9033,-42.4 221.097,-42.4 "/>
<text text-anchor="start" x="94.9033" y="-24.4" font-family="Times,serif" font-size="14.00">isWhist : Boolean</text>
<text text-anchor="start" x="94.9033" y="-7.6" font-family="Times,serif" font-size="14.00">scoreToWin : Integer</text>
</a>
</g>
</g>
<!-- Match&#45;&gt;ScoringTeam -->
<g id="edge7" class="edge"><title>Match&#45;&gt;ScoringTeam</title>
<path fill="none" stroke="black" d="M134.04,-67.3495C126.437,-79.6703 117.914,-93.4836 110.866,-104.907"/>
<text text-anchor="middle" x="98.6158" y="-90.9071" font-family="Times,serif" font-size="14.00">2..* </text>
<text text-anchor="middle" x="128.79" y="-70.1495" font-family="Times,serif" font-size="14.00">* </text>
</g>
<!-- Game -->
<g id="node8" class="node"><title>Game</title>
<g id="a_node8"><a xlink:href="javascript:Action.selectClass(&quot;Game&quot;);" xlink:title="class Game
">
<polygon fill="none" stroke="black" points="161.997,-105.2 161.997,-154.8 262.003,-154.8 262.003,-105.2 161.997,-105.2"/>
<text text-anchor="middle" x="212" y="-136.8" font-family="Times,serif" font-size="14.00">Game</text>
<polyline fill="none" stroke="black" points="161.997,-130 262.003,-130 "/>
<text text-anchor="start" x="169.997" y="-112" font-family="Times,serif" font-size="14.00">trumps : String</text>
</a>
</g>
</g>
<!-- Match&#45;&gt;Game -->
<g id="edge8" class="edge"><title>Match&#45;&gt;Game</title>
<path fill="none" stroke="black" d="M173.96,-67.3495C181.563,-79.6703 190.086,-93.4836 197.134,-104.907"/>
<text text-anchor="middle" x="174.001" y="-90.9071" font-family="Times,serif" font-size="14.00">* games</text>
<text text-anchor="middle" x="168.71" y="-70.1495" font-family="Times,serif" font-size="14.00">1 </text>
</g>
<!-- Game&#45;&gt;Player -->
<g id="edge9" class="edge"><title>Game&#45;&gt;Player</title>
<path fill="none" stroke="black" d="M197.836,-155.207C191.152,-166.631 183.081,-180.425 175.886,-192.722"/>
<text text-anchor="middle" x="198.232" y="-178.722" font-family="Times,serif" font-size="14.00">1 dealer</text>
<text text-anchor="middle" x="192.586" y="-158.007" font-family="Times,serif" font-size="14.00">* </text>
</g>
<!-- Game&#45;&gt;Card -->
<g id="edge10" class="edge"><title>Game&#45;&gt;Card</title>
<path fill="none" stroke="black" d="M229.109,-155.004C235.773,-165.777 242.615,-178.975 246,-192 268.844,-279.908 244.626,-386.771 227.626,-444.043"/>
<text text-anchor="middle" x="156.915" y="-430.043" font-family="Times,serif" font-size="14.00">* currentTrickBeingBuilt</text>
<text text-anchor="middle" x="216.859" y="-157.804" font-family="Times,serif" font-size="14.00">0..1 </text>
</g>
<!-- Game&#45;&gt;Player -->
<g id="edge11" class="edge"><title>Game&#45;&gt;Player</title>
<path fill="none" stroke="black" d="M197.836,-155.207C191.152,-166.631 183.081,-180.425 175.886,-192.722"/>
<text text-anchor="middle" x="129.825" y="-178.722" font-family="Times,serif" font-size="14.00">0..1 currentLead</text>
<text text-anchor="middle" x="166.545" y="-158.007" font-family="Times,serif" font-size="14.00">* gameLed</text>
</g>
</g>
</svg>
