<?xml version="1.0" encoding="UTF-8" standalone="no"?>
<!DOCTYPE svg PUBLIC "-//W3C//DTD SVG 1.1//EN"
 "http://www.w3.org/Graphics/SVG/1.1/DTD/svg11.dtd">
<!-- Generated by graphviz version 2.39.20140502.0445 (20140502.0445)
 -->
<!-- Title: Pizza Pages: 1 -->
<svg width="587pt" height="386pt"
 viewBox="0.00 0.00 587.00 386.00" xmlns="http://www.w3.org/2000/svg" xmlns:xlink="http://www.w3.org/1999/xlink">
<g id="graph0" class="graph" transform="scale(1 1) rotate(0) translate(4 382)">
<title>Pizza</title>
<polygon fill="white" stroke="none" points="-4,4 -4,-382 583,-382 583,4 -4,4"/>
<!-- Account -->
<g id="node1" class="node"><title>Account</title>
<g id="a_node1"><a xlink:href="javascript:Action.selectClass(&quot;Account&quot;);" xlink:title="class Account
UML Class diagram representing a system for taking online orders for Pizza
">
<polygon fill="none" stroke="black" points="0,-0.5 0,-136.5 183,-136.5 183,-0.5 0,-0.5"/>
<text text-anchor="middle" x="91.5" y="-121.3" font-family="Times,serif" font-size="14.00">Account</text>
<polyline fill="none" stroke="black" points="0,-113.5 183,-113.5 "/>
<text text-anchor="start" x="8" y="-98.3" font-family="Times,serif" font-size="14.00">emailAddress : String</text>
<text text-anchor="start" x="8" y="-83.3" font-family="Times,serif" font-size="14.00">contactPhoneNumber : String</text>
<text text-anchor="start" x="8" y="-68.3" font-family="Times,serif" font-size="14.00">password : String</text>
<text text-anchor="start" x="8" y="-53.3" font-family="Times,serif" font-size="14.00">name : String</text>
<text text-anchor="start" x="8" y="-38.3" font-family="Times,serif" font-size="14.00">address : String</text>
<text text-anchor="start" x="8" y="-23.3" font-family="Times,serif" font-size="14.00">preferredCredCard : String</text>
<text text-anchor="start" x="8" y="-8.3" font-family="Times,serif" font-size="14.00">ExpiryDate : String</text>
</a>
</g>
</g>
<!-- Order -->
<g id="node2" class="node"><title>Order</title>
<g id="a_node2"><a xlink:href="javascript:Action.selectClass(&quot;Order&quot;);" xlink:title="class Order
">
<polygon fill="none" stroke="black" points="0,-173.5 0,-279.5 183,-279.5 183,-173.5 0,-173.5"/>
<text text-anchor="middle" x="91.5" y="-264.3" font-family="Times,serif" font-size="14.00">Order</text>
<polyline fill="none" stroke="black" points="0,-256.5 183,-256.5 "/>
<text text-anchor="start" x="8" y="-241.3" font-family="Times,serif" font-size="14.00">timePlaced : String</text>
<text text-anchor="start" x="8" y="-226.3" font-family="Times,serif" font-size="14.00">contactPhoneNumber : String</text>
<text text-anchor="start" x="8" y="-211.3" font-family="Times,serif" font-size="14.00">totalPrice : Float</text>
<text text-anchor="start" x="8" y="-196.3" font-family="Times,serif" font-size="14.00">creditCardCharged : String</text>
<text text-anchor="start" x="8" y="-181.3" font-family="Times,serif" font-size="14.00">expiryDate : String</text>
</a>
</g>
</g>
<!-- Account&#45;&gt;Order -->
<g id="edge3" class="edge"><title>Account&#45;&gt;Order</title>
<g id="a_edge3"><a xlink:title="Account 0..1 &#160;&#45;&#45; * &#160;Order">
<path fill="none" stroke="black" d="M91.5,-136.563C91.5,-148.785 91.5,-161.373 91.5,-173.093"/>
</a>
</g>
<text text-anchor="middle" x="86" y="-161.893" font-family="Times,serif" font-size="14.00">* </text>
<text text-anchor="middle" x="79" y="-140.363" font-family="Times,serif" font-size="14.00">0..1 </text>
</g>
<!-- OrderItem -->
<g id="node3" class="node"><title>OrderItem</title>
<g id="a_node3"><a xlink:href="javascript:Action.selectClass(&quot;OrderItem&quot;);" xlink:title="class OrderItem
">
<polygon fill="none" stroke="black" points="187.5,-316.5 187.5,-377.5 297.5,-377.5 297.5,-316.5 187.5,-316.5"/>
<text text-anchor="middle" x="242.5" y="-362.3" font-family="Times,serif" font-size="14.00">OrderItem</text>
<polyline fill="none" stroke="black" points="187.5,-354.5 297.5,-354.5 "/>
<text text-anchor="start" x="195.5" y="-339.3" font-family="Times,serif" font-size="14.00">number : Integer</text>
<text text-anchor="start" x="195.5" y="-324.3" font-family="Times,serif" font-size="14.00">totalPrice : Float</text>
</a>
</g>
</g>
<!-- Order&#45;&gt;OrderItem -->
<g id="edge4" class="edge"><title>Order&#45;&gt;OrderItem</title>
<g id="a_edge4"><a xlink:title="Order 1 &#160;&#45;&#45; * &#160;OrderItem">
<path fill="none" stroke="black" d="M158.17,-279.821C174.129,-292.345 190.622,-305.288 204.743,-316.37"/>
</a>
</g>
<text text-anchor="middle" x="199.243" y="-305.17" font-family="Times,serif" font-size="14.00">* </text>
<text text-anchor="middle" x="152.67" y="-283.621" font-family="Times,serif" font-size="14.00">1 </text>
</g>
<!-- PizzaOrder -->
<g id="node4" class="node"><title>PizzaOrder</title>
<g id="a_node4"><a xlink:href="javascript:Action.selectClass(&quot;PizzaOrder&quot;);" xlink:title="class PizzaOrder
">
<polygon fill="none" stroke="black" points="334,-203.5 334,-249.5 421,-249.5 421,-203.5 334,-203.5"/>
<text text-anchor="middle" x="377.5" y="-234.3" font-family="Times,serif" font-size="14.00">PizzaOrder</text>
<polyline fill="none" stroke="black" points="334,-226.5 421,-226.5 "/>
<text text-anchor="start" x="342" y="-211.3" font-family="Times,serif" font-size="14.00">kind : String</text>
</a>
</g>
</g>
<!-- PizzaOrder&#45;&gt;OrderItem -->
<g id="edge1" class="edge"><title>PizzaOrder&#45;&gt;OrderItem</title>
<path fill="none" stroke="black" d="M267.958,-311.875 281.236,-305.859 305.865,-293.874 324.5,-280 336.447,-271.105 348.355,-259.607 357.849,-249.64"/>
<polygon fill="none" stroke="black" points="266.267,-308.794 258.5,-316 269.065,-315.21 266.267,-308.794"/>
</g>
<!-- ToppingType -->
<g id="node5" class="node"><title>ToppingType</title>
<g id="a_node5"><a xlink:href="javascript:Action.selectClass(&quot;ToppingType&quot;);" xlink:title="class ToppingType
">
<polygon fill="none" stroke="black" points="315.5,-324 315.5,-370 439.5,-370 439.5,-324 315.5,-324"/>
<text text-anchor="middle" x="377.5" y="-354.8" font-family="Times,serif" font-size="14.00">ToppingType</text>
<polyline fill="none" stroke="black" points="315.5,-347 439.5,-347 "/>
<text text-anchor="start" x="323.5" y="-331.8" font-family="Times,serif" font-size="14.00">description : String</text>
</a>
</g>
</g>
<!-- PizzaOrder&#45;&gt;ToppingType -->
<g id="edge5" class="edge"><title>PizzaOrder&#45;&gt;ToppingType</title>
<g id="a_edge5"><a xlink:title="PizzaOrder * &#160;&#45;&gt; * toppings ToppingType">
<path fill="none" stroke="black" d="M377.5,-249.511C377.5,-267.522 377.5,-293.254 377.5,-313.616"/>
<polygon fill="black" stroke="black" points="377.5,-323.705 373,-313.704 377.5,-318.705 377.5,-313.705 377.5,-313.705 377.5,-313.705 377.5,-318.705 382,-313.705 377.5,-323.705 377.5,-323.705"/>
</a>
</g>
<text text-anchor="middle" x="348" y="-312.505" font-family="Times,serif" font-size="14.00">* toppings</text>
<text text-anchor="middle" x="372" y="-253.311" font-family="Times,serif" font-size="14.00">* </text>
</g>
<!-- StandardPizzaSize -->
<g id="node6" class="node"><title>StandardPizzaSize</title>
<g id="a_node6"><a xlink:href="javascript:Action.selectClass(&quot;StandardPizzaSize&quot;);" xlink:title="class StandardPizzaSize
">
<polygon fill="none" stroke="black" points="458,-324 458,-370 579,-370 579,-324 458,-324"/>
<text text-anchor="middle" x="518.5" y="-354.8" font-family="Times,serif" font-size="14.00">StandardPizzaSize</text>
<polyline fill="none" stroke="black" points="458,-347 579,-347 "/>
<text text-anchor="start" x="466" y="-331.8" font-family="Times,serif" font-size="14.00">sizeLabel : String</text>
</a>
</g>
</g>
<!-- PizzaOrder&#45;&gt;StandardPizzaSize -->
<g id="edge6" class="edge"><title>PizzaOrder&#45;&gt;StandardPizzaSize</title>
<g id="a_edge6"><a xlink:title="PizzaOrder * &#160;&#45;&gt; 1 &#160;StandardPizzaSize">
<path fill="none" stroke="black" d="M398.52,-249.649C408.002,-259.288 419.519,-270.522 430.5,-280 445.625,-293.055 463.086,-306.463 478.447,-317.755"/>
<polygon fill="black" stroke="black" points="486.736,-323.795 476.004,-321.543 482.695,-320.851 478.654,-317.906 478.654,-317.906 478.654,-317.906 482.695,-320.851 481.304,-314.269 486.736,-323.795 486.736,-323.795"/>
</a>
</g>
<text text-anchor="middle" x="481.236" y="-312.595" font-family="Times,serif" font-size="14.00">1 </text>
<text text-anchor="middle" x="393.02" y="-253.449" font-family="Times,serif" font-size="14.00">* </text>
</g>
<!-- DrinkOrder -->
<g id="node7" class="node"><title>DrinkOrder</title>
<g id="a_node7"><a xlink:href="javascript:Action.selectClass(&quot;DrinkOrder&quot;);" xlink:title="class DrinkOrder
">
<polygon fill="none" stroke="black" points="201,-196 201,-257 316,-257 316,-196 201,-196"/>
<text text-anchor="middle" x="258.5" y="-241.8" font-family="Times,serif" font-size="14.00">DrinkOrder</text>
<polyline fill="none" stroke="black" points="201,-234 316,-234 "/>
<text text-anchor="start" x="209" y="-218.8" font-family="Times,serif" font-size="14.00">drinkSize : String</text>
<text text-anchor="start" x="209" y="-203.8" font-family="Times,serif" font-size="14.00">size : String</text>
</a>
</g>
</g>
<!-- DrinkOrder&#45;&gt;OrderItem -->
<g id="edge2" class="edge"><title>DrinkOrder&#45;&gt;OrderItem</title>
<path fill="none" stroke="black" d="M258.5,-257.462C258.5,-274.311 258.5,-294.256 258.5,-305.977"/>
<polygon fill="none" stroke="black" points="255,-306 258.5,-316 262,-306 255,-306"/>
</g>
<!-- Delivery -->
<g id="node8" class="node"><title>Delivery</title>
<g id="a_node8"><a xlink:href="javascript:Action.selectClass(&quot;Delivery&quot;);" xlink:title="class Delivery
">
<polygon fill="none" stroke="black" points="307.5,-38 307.5,-99 449.5,-99 449.5,-38 307.5,-38"/>
<text text-anchor="middle" x="378.5" y="-83.8" font-family="Times,serif" font-size="14.00">Delivery</text>
<polyline fill="none" stroke="black" points="307.5,-76 449.5,-76 "/>
<text text-anchor="start" x="315.5" y="-60.8" font-family="Times,serif" font-size="14.00">timePickedUp : Time</text>
<text text-anchor="start" x="315.5" y="-45.8" font-family="Times,serif" font-size="14.00">TimeDelivered : Time</text>
</a>
</g>
</g>
<!-- Delivery&#45;&gt;Order -->
<g id="edge8" class="edge"><title>Delivery&#45;&gt;Order</title>
<g id="a_edge8"><a xlink:title="Delivery 0..1 &#160;&#45;&#45; 1..* &#160;Order">
<path fill="none" stroke="black" d="M183.137,-175.691 229.601,-150.435 284.447,-120.623 324.18,-99.0258"/>
</a>
</g>
<text text-anchor="middle" x="195.637" y="-164.491" font-family="Times,serif" font-size="14.00">1..* </text>
<text text-anchor="middle" x="311.68" y="-102.826" font-family="Times,serif" font-size="14.00">0..1 </text>
</g>
<!-- Driver -->
<g id="node9" class="node"><title>Driver</title>
<g id="a_node9"><a xlink:href="javascript:Action.selectClass(&quot;Driver&quot;);" xlink:title="class Driver
">
<polygon fill="none" stroke="black" points="439.5,-203.5 439.5,-249.5 531.5,-249.5 531.5,-203.5 439.5,-203.5"/>
<text text-anchor="middle" x="485.5" y="-234.3" font-family="Times,serif" font-size="14.00">Driver</text>
<polyline fill="none" stroke="black" points="439.5,-226.5 531.5,-226.5 "/>
<text text-anchor="start" x="447.5" y="-211.3" font-family="Times,serif" font-size="14.00">name : String</text>
</a>
</g>
</g>
<!-- Delivery&#45;&gt;Driver -->
<g id="edge7" class="edge"><title>Delivery&#45;&gt;Driver</title>
<g id="a_edge7"><a xlink:title="Delivery * &#160;&#45;&#45; 0..1 &#160;Driver">
<path fill="none" stroke="black" d="M398.878,-99.2096C419.736,-129.62 451.669,-176.176 470.379,-203.454"/>
</a>
</g>
<text text-anchor="middle" x="482.879" y="-192.254" font-family="Times,serif" font-size="14.00">0..1 </text>
<text text-anchor="middle" x="393.378" y="-103.01" font-family="Times,serif" font-size="14.00">* </text>
</g>
</g>
</svg>
