<?xml version="1.0" encoding="UTF-8" standalone="no"?>
<!DOCTYPE svg PUBLIC "-//W3C//DTD SVG 1.1//EN"
 "http://www.w3.org/Graphics/SVG/1.1/DTD/svg11.dtd">
<!-- Generated by graphviz version 2.40.1 (20161225.0304)
 -->
<!-- Title: Pizza Pages: 1 -->
<svg width="622pt" height="404pt"
 viewBox="0.00 0.00 622.00 404.00" xmlns="http://www.w3.org/2000/svg" xmlns:xlink="http://www.w3.org/1999/xlink">
<g id="graph0" class="graph" transform="scale(1 1) rotate(0) translate(4 400)">
<title>Pizza</title>
<polygon fill="#ffffff" stroke="transparent" points="-4,4 -4,-400 618,-400 618,4 -4,4"/>
<!-- Account -->
<g id="node1" class="node">
<title>Account</title>
<g id="a_node1"><a xlink:href="javascript:Action.selectClass(&quot;Account&quot;);" xlink:title="class Account&#10;UML Class diagram representing a system for taking online orders for Pizza&#13;">
<text text-anchor="start" x="55.6689" y="-133.8" font-family="Times,serif" font-size="14.00" fill="#000000"> &#160;&#160;&#160;Account &#160;&#160;&#160;</text>
<g id="a_node1_0"><a xlink:href="javascript:Action.selectClass(&quot;Account&quot;);" xlink:title="String emailAddress&#13;">
<text text-anchor="start" x="3" y="-113.8" font-family="Times,serif" font-size="14.00" fill="#000000"> &#160;emailAddress : String &#160;</text>
</a>
</g>
<g id="a_node1_1"><a xlink:href="javascript:Action.selectClass(&quot;Account&quot;);" xlink:title="String contactPhoneNumber&#13;">
<text text-anchor="start" x="2.793" y="-95.8" font-family="Times,serif" font-size="14.00" fill="#000000"> &#160;contactPhoneNumber : String &#160;</text>
</a>
</g>
<g id="a_node1_2"><a xlink:href="javascript:Action.selectClass(&quot;Account&quot;);" xlink:title="String password&#13;">
<text text-anchor="start" x="3" y="-77.8" font-family="Times,serif" font-size="14.00" fill="#000000"> &#160;password : String &#160;</text>
</a>
</g>
<g id="a_node1_3"><a xlink:href="javascript:Action.selectClass(&quot;Account&quot;);" xlink:title="String name&#13;">
<text text-anchor="start" x="3" y="-59.8" font-family="Times,serif" font-size="14.00" fill="#000000"> &#160;name : String &#160;</text>
</a>
</g>
<g id="a_node1_4"><a xlink:href="javascript:Action.selectClass(&quot;Account&quot;);" xlink:title="String address&#13;">
<text text-anchor="start" x="3" y="-41.8" font-family="Times,serif" font-size="14.00" fill="#000000"> &#160;address : String &#160;</text>
</a>
</g>
<g id="a_node1_5"><a xlink:href="javascript:Action.selectClass(&quot;Account&quot;);" xlink:title="String preferredCredCard&#13;">
<text text-anchor="start" x="3" y="-23.8" font-family="Times,serif" font-size="14.00" fill="#000000"> &#160;preferredCredCard : String &#160;</text>
</a>
</g>
<g id="a_node1_6"><a xlink:href="javascript:Action.selectClass(&quot;Account&quot;);" xlink:title="String expiryDate&#13;">
<text text-anchor="start" x="3" y="-5.8" font-family="Times,serif" font-size="14.00" fill="#000000"> &#160;expiryDate : String &#160;</text>
</a>
</g>
<polygon fill="#000000" stroke="#000000" points="0,-127 0,-127 186,-127 186,-127 0,-127"/>
<polygon fill="none" stroke="#000000" points="0,0 0,-150 186,-150 186,0 0,0"/>
</a>
</g>
</g>
<!-- Order -->
<g id="node2" class="node">
<title>Order</title>
<g id="a_node2"><a xlink:href="javascript:Action.selectClass(&quot;Order&quot;);" xlink:title="class Order&#10;">
<text text-anchor="start" x="62.6758" y="-283.8" font-family="Times,serif" font-size="14.00" fill="#000000"> &#160;&#160;&#160;Order &#160;&#160;&#160;</text>
<g id="a_node2_7"><a xlink:href="javascript:Action.selectClass(&quot;Order&quot;);" xlink:title="String timePlaced&#13;">
<text text-anchor="start" x="3" y="-263.8" font-family="Times,serif" font-size="14.00" fill="#000000"> &#160;timePlaced : String &#160;</text>
</a>
</g>
<g id="a_node2_8"><a xlink:href="javascript:Action.selectClass(&quot;Order&quot;);" xlink:title="String contactPhoneNumber&#13;">
<text text-anchor="start" x="2.793" y="-245.8" font-family="Times,serif" font-size="14.00" fill="#000000"> &#160;contactPhoneNumber : String &#160;</text>
</a>
</g>
<g id="a_node2_9"><a xlink:href="javascript:Action.selectClass(&quot;Order&quot;);" xlink:title="Float totalPrice&#13;">
<text text-anchor="start" x="3" y="-227.8" font-family="Times,serif" font-size="14.00" fill="#000000"> &#160;totalPrice : Float &#160;</text>
</a>
</g>
<g id="a_node2_10"><a xlink:href="javascript:Action.selectClass(&quot;Order&quot;);" xlink:title="String creditCardCharged&#13;">
<text text-anchor="start" x="3" y="-209.8" font-family="Times,serif" font-size="14.00" fill="#000000"> &#160;creditCardCharged : String &#160;</text>
</a>
</g>
<g id="a_node2_11"><a xlink:href="javascript:Action.selectClass(&quot;Order&quot;);" xlink:title="String expiryDate&#13;">
<text text-anchor="start" x="3" y="-191.8" font-family="Times,serif" font-size="14.00" fill="#000000"> &#160;expiryDate : String &#160;</text>
</a>
</g>
<polygon fill="#000000" stroke="#000000" points="0,-277 0,-277 186,-277 186,-277 0,-277"/>
<polygon fill="none" stroke="#000000" points="0,-186 0,-300 186,-300 186,-186 0,-186"/>
</a>
</g>
</g>
<!-- Account&#45;&gt;Order -->
<g id="edge3" class="edge">
<title>Account&#45;&gt;Order</title>
<g id="a_edge3"><a xlink:title="Account 0..1 &#160;&#45;&#45; * &#160;Order">
<path fill="none" stroke="#000000" d="M93,-150.1552C93,-162.1242 93,-174.3355 93,-185.8023"/>
</a>
</g>
<text text-anchor="middle" x="87.75" y="-174.6023" font-family="Times,serif" font-size="14.00" fill="#000000">* </text>
<text text-anchor="middle" x="80.75" y="-152.9552" font-family="Times,serif" font-size="14.00" fill="#000000">0..1 </text>
</g>
<!-- OrderItem -->
<g id="node3" class="node">
<title>OrderItem</title>
<g id="a_node3"><a xlink:href="javascript:Action.selectClass(&quot;OrderItem&quot;);" xlink:title="class OrderItem&#10;">
<text text-anchor="start" x="209.3481" y="-379.8" font-family="Times,serif" font-size="14.00" fill="#000000"> &#160;&#160;&#160;OrderItem &#160;&#160;&#160;</text>
<g id="a_node3_12"><a xlink:href="javascript:Action.selectClass(&quot;OrderItem&quot;);" xlink:title="Integer number&#13;">
<text text-anchor="start" x="198.8516" y="-359.8" font-family="Times,serif" font-size="14.00" fill="#000000"> &#160;number : Integer &#160;</text>
</a>
</g>
<g id="a_node3_13"><a xlink:href="javascript:Action.selectClass(&quot;OrderItem&quot;);" xlink:title="Float totalPrice&#13;">
<text text-anchor="start" x="198.8413" y="-341.8" font-family="Times,serif" font-size="14.00" fill="#000000"> &#160;totalPrice : Float &#160;</text>
</a>
</g>
<polygon fill="#000000" stroke="#000000" points="196,-373 196,-373 309,-373 309,-373 196,-373"/>
<polygon fill="none" stroke="#000000" points="195.5,-336 195.5,-396 308.5,-396 308.5,-336 195.5,-336"/>
</a>
</g>
</g>
<!-- Order&#45;&gt;OrderItem -->
<g id="edge4" class="edge">
<title>Order&#45;&gt;OrderItem</title>
<g id="a_edge4"><a xlink:title="Order 1 &#160;&#45;&#45; * &#160;OrderItem">
<path fill="none" stroke="#000000" d="M166.9143,-300.1789C182.8093,-312.4751 199.0037,-325.0028 212.9388,-335.7828"/>
</a>
</g>
<text text-anchor="middle" x="207.6888" y="-324.5828" font-family="Times,serif" font-size="14.00" fill="#000000">* </text>
<text text-anchor="middle" x="161.6643" y="-302.9789" font-family="Times,serif" font-size="14.00" fill="#000000">1 </text>
</g>
<!-- PizzaOrder -->
<g id="node4" class="node">
<title>PizzaOrder</title>
<g id="a_node4"><a xlink:href="javascript:Action.selectClass(&quot;PizzaOrder&quot;);" xlink:title="class PizzaOrder&#10;">
<text text-anchor="start" x="344.5171" y="-247.8" font-family="Times,serif" font-size="14.00" fill="#000000"> &#160;&#160;&#160;PizzaOrder &#160;&#160;&#160;</text>
<g id="a_node4_14"><a xlink:href="javascript:Action.selectClass(&quot;PizzaOrder&quot;);" xlink:title="String kind&#13;">
<text text-anchor="start" x="343" y="-227.8" font-family="Times,serif" font-size="14.00" fill="#000000"> &#160;kind : String &#160;</text>
</a>
</g>
<polygon fill="#000000" stroke="#000000" points="340,-241 340,-241 440,-241 440,-241 340,-241"/>
<polygon fill="none" stroke="#000000" points="340,-222 340,-264 440,-264 440,-222 340,-222"/>
</a>
</g>
</g>
<!-- PizzaOrder&#45;&gt;OrderItem -->
<g id="edge1" class="edge">
<title>PizzaOrder&#45;&gt;OrderItem</title>
<path fill="none" stroke="#000000" d="M370.6785,-264.1466C359.6782,-275.525 345.2769,-289.3642 331,-300 312.8026,-313.5565 288.9695,-325.6656 276.1356,-331.786"/>
<polygon fill="none" stroke="#000000" points="274.6145,-328.6332 267,-336 277.5465,-334.9895 274.6145,-328.6332"/>
</g>
<!-- ToppingType -->
<g id="node5" class="node">
<title>ToppingType</title>
<g id="a_node5"><a xlink:href="javascript:Action.selectClass(&quot;ToppingType&quot;);" xlink:title="class ToppingType&#10;">
<text text-anchor="start" x="339.4971" y="-370.8" font-family="Times,serif" font-size="14.00" fill="#000000"> &#160;&#160;&#160;ToppingType &#160;&#160;&#160;</text>
<g id="a_node5_15"><a xlink:href="javascript:Action.selectClass(&quot;ToppingType&quot;);" xlink:title="String description&#13;">
<text text-anchor="start" x="329.8379" y="-350.8" font-family="Times,serif" font-size="14.00" fill="#000000"> &#160;description : String &#160;</text>
</a>
</g>
<polygon fill="#000000" stroke="#000000" points="327,-364 327,-364 454,-364 454,-364 327,-364"/>
<polygon fill="none" stroke="#000000" points="326.5,-345 326.5,-387 453.5,-387 453.5,-345 326.5,-345"/>
</a>
</g>
</g>
<!-- PizzaOrder&#45;&gt;ToppingType -->
<g id="edge5" class="edge">
<title>PizzaOrder&#45;&gt;ToppingType</title>
<g id="a_edge5"><a xlink:title="PizzaOrder * &#160;&#45;&gt; * toppings ToppingType">
<path fill="none" stroke="#000000" d="M390,-264.1445C390,-283.5055 390,-312.4201 390,-334.5009"/>
<polygon fill="#000000" stroke="#000000" points="390,-344.7198 385.5001,-334.7198 390,-339.7198 390.0001,-334.7198 390.0001,-334.7198 390.0001,-334.7198 390,-339.7198 394.5001,-334.7199 390,-344.7198 390,-344.7198"/>
</a>
</g>
<text text-anchor="middle" x="360.6362" y="-333.5198" font-family="Times,serif" font-size="14.00" fill="#000000">* toppings</text>
<text text-anchor="middle" x="384.75" y="-266.9445" font-family="Times,serif" font-size="14.00" fill="#000000">* </text>
</g>
<!-- StandardPizzaSize -->
<g id="node6" class="node">
<title>StandardPizzaSize</title>
<g id="a_node6"><a xlink:href="javascript:Action.selectClass(&quot;StandardPizzaSize&quot;);" xlink:title="class StandardPizzaSize&#10;">
<text text-anchor="start" x="476.9067" y="-370.8" font-family="Times,serif" font-size="14.00" fill="#000000"> &#160;&#160;&#160;StandardPizzaSize &#160;&#160;&#160;</text>
<g id="a_node6_16"><a xlink:href="javascript:Action.selectClass(&quot;StandardPizzaSize&quot;);" xlink:title="String sizeLabel&#13;">
<text text-anchor="start" x="475" y="-350.8" font-family="Times,serif" font-size="14.00" fill="#000000"> &#160;sizeLabel : String &#160;</text>
</a>
</g>
<polygon fill="#000000" stroke="#000000" points="472,-364 472,-364 614,-364 614,-364 472,-364"/>
<polygon fill="none" stroke="#000000" points="472,-345 472,-387 614,-387 614,-345 472,-345"/>
</a>
</g>
</g>
<!-- PizzaOrder&#45;&gt;StandardPizzaSize -->
<g id="edge6" class="edge">
<title>PizzaOrder&#45;&gt;StandardPizzaSize</title>
<g id="a_edge6"><a xlink:title="PizzaOrder * &#160;&#45;&gt; 1 &#160;StandardPizzaSize">
<path fill="none" stroke="#000000" d="M410.7065,-264.077C421.969,-275.1745 436.3531,-288.7716 450,-300 466.5345,-313.6042 485.6964,-327.493 502.3148,-338.998"/>
<polygon fill="#000000" stroke="#000000" points="510.746,-344.7829 499.9544,-342.8358 506.6232,-341.9541 502.5003,-339.1252 502.5003,-339.1252 502.5003,-339.1252 506.6232,-341.9541 505.0463,-335.4147 510.746,-344.7829 510.746,-344.7829"/>
</a>
</g>
<text text-anchor="middle" x="505.496" y="-333.5829" font-family="Times,serif" font-size="14.00" fill="#000000">1 </text>
<text text-anchor="middle" x="405.4565" y="-266.877" font-family="Times,serif" font-size="14.00" fill="#000000">* </text>
</g>
<!-- DrinkOrder -->
<g id="node7" class="node">
<title>DrinkOrder</title>
<g id="a_node7"><a xlink:href="javascript:Action.selectClass(&quot;DrinkOrder&quot;);" xlink:title="class DrinkOrder&#10;">
<text text-anchor="start" x="216.3447" y="-256.8" font-family="Times,serif" font-size="14.00" fill="#000000"> &#160;&#160;&#160;DrinkOrder &#160;&#160;&#160;</text>
<g id="a_node7_17"><a xlink:href="javascript:Action.selectClass(&quot;DrinkOrder&quot;);" xlink:title="String drinkSize&#13;">
<text text-anchor="start" x="206.6138" y="-236.8" font-family="Times,serif" font-size="14.00" fill="#000000"> &#160;drinkSize : String &#160;</text>
</a>
</g>
<g id="a_node7_18"><a xlink:href="javascript:Action.selectClass(&quot;DrinkOrder&quot;);" xlink:title="String size&#13;">
<text text-anchor="start" x="207" y="-218.8" font-family="Times,serif" font-size="14.00" fill="#000000"> &#160;size : String &#160;</text>
</a>
</g>
<polygon fill="#000000" stroke="#000000" points="204,-250 204,-250 322,-250 322,-250 204,-250"/>
<polygon fill="none" stroke="#000000" points="204,-213 204,-273 322,-273 322,-213 204,-213"/>
</a>
</g>
</g>
<!-- DrinkOrder&#45;&gt;OrderItem -->
<g id="edge2" class="edge">
<title>DrinkOrder&#45;&gt;OrderItem</title>
<path fill="none" stroke="#000000" d="M264.2987,-273.1944C265.0743,-291.2273 266.011,-313.0062 266.5529,-325.6038"/>
<polygon fill="none" stroke="#000000" points="263.0734,-326.1597 267,-336 270.067,-325.8588 263.0734,-326.1597"/>
</g>
<!-- Delivery -->
<g id="node8" class="node">
<title>Delivery</title>
<g id="a_node8"><a xlink:href="javascript:Action.selectClass(&quot;Delivery&quot;);" xlink:title="class Delivery&#10;">
<text text-anchor="start" x="352.0103" y="-88.8" font-family="Times,serif" font-size="14.00" fill="#000000"> &#160;&#160;&#160;Delivery &#160;&#160;&#160;</text>
<g id="a_node8_19"><a xlink:href="javascript:Action.selectClass(&quot;Delivery&quot;);" xlink:title="Time timePickedUp&#13;">
<text text-anchor="start" x="323.6001" y="-68.8" font-family="Times,serif" font-size="14.00" fill="#000000"> &#160;timePickedUp : Time &#160;</text>
</a>
</g>
<g id="a_node8_20"><a xlink:href="javascript:Action.selectClass(&quot;Delivery&quot;);" xlink:title="Time timeDelivered&#13;">
<text text-anchor="start" x="323.6104" y="-50.8" font-family="Times,serif" font-size="14.00" fill="#000000"> &#160;timeDelivered : Time &#160;</text>
</a>
</g>
<polygon fill="#000000" stroke="#000000" points="321,-82 321,-82 460,-82 460,-82 321,-82"/>
<polygon fill="none" stroke="#000000" points="320.5,-45 320.5,-105 459.5,-105 459.5,-45 320.5,-45"/>
</a>
</g>
</g>
<!-- Delivery&#45;&gt;Order -->
<g id="edge8" class="edge">
<title>Delivery&#45;&gt;Order</title>
<g id="a_edge8"><a xlink:title="Delivery 0..1 &#160;&#45;&#45; 1..* &#160;Order">
<path fill="none" stroke="#000000" d="M336.9024,-105.035C295.1062,-128.6773 235.8245,-162.2104 186.1721,-190.2966"/>
</a>
</g>
<text text-anchor="middle" x="198.4221" y="-179.0966" font-family="Times,serif" font-size="14.00" fill="#000000">1..* </text>
<text text-anchor="middle" x="324.6524" y="-107.835" font-family="Times,serif" font-size="14.00" fill="#000000">0..1 </text>
</g>
<!-- Driver -->
<g id="node9" class="node">
<title>Driver</title>
<g id="a_node9"><a xlink:href="javascript:Action.selectClass(&quot;Driver&quot;);" xlink:title="class Driver&#10;">
<text text-anchor="start" x="474.231" y="-247.8" font-family="Times,serif" font-size="14.00" fill="#000000"> &#160;&#160;&#160;Driver &#160;&#160;&#160;</text>
<g id="a_node9_21"><a xlink:href="javascript:Action.selectClass(&quot;Driver&quot;);" xlink:title="String name&#13;">
<text text-anchor="start" x="461.7827" y="-227.8" font-family="Times,serif" font-size="14.00" fill="#000000"> &#160;name : String &#160;</text>
</a>
</g>
<polygon fill="#000000" stroke="#000000" points="459,-241 459,-241 554,-241 554,-241 459,-241"/>
<polygon fill="none" stroke="#000000" points="458.5,-222 458.5,-264 553.5,-264 553.5,-222 458.5,-222"/>
</a>
</g>
</g>
<!-- Delivery&#45;&gt;Driver -->
<g id="edge7" class="edge">
<title>Delivery&#45;&gt;Driver</title>
<g id="a_edge7"><a xlink:title="Delivery * &#160;&#45;&#45; 0..1 &#160;Driver">
<path fill="none" stroke="#000000" d="M410.7385,-105.035C433.9381,-138.6344 470.9308,-192.2101 491.3195,-221.7387"/>
</a>
</g>
<text text-anchor="middle" x="479.0695" y="-210.5387" font-family="Times,serif" font-size="14.00" fill="#000000">0..1 </text>
<text text-anchor="middle" x="405.4885" y="-107.835" font-family="Times,serif" font-size="14.00" fill="#000000">* </text>
</g>
</g>
</svg>
