<?xml version="1.0" encoding="UTF-8" standalone="no"?>
<!DOCTYPE svg PUBLIC "-//W3C//DTD SVG 1.1//EN"
 "http://www.w3.org/Graphics/SVG/1.1/DTD/svg11.dtd">
<!-- Generated by graphviz version 2.29.20121108.1600 (20121108.1600)
 -->
<!-- Title: Pizza Pages: 1 -->
<svg width="584pt" height="418pt"
 viewBox="0.00 0.00 584.00 418.00" xmlns="http://www.w3.org/2000/svg" xmlns:xlink="http://www.w3.org/1999/xlink">
<g id="graph0" class="graph" transform="scale(1 1) rotate(0) translate(4 414)">
<title>Pizza</title>
<polygon fill="white" stroke="white" points="-4,5 -4,-414 581,-414 581,5 -4,5"/>
<!-- Account -->
<g id="node1" class="node"><title>Account</title>
<g id="a_node1"><a xlink:href="javascript:Action.selectClass(&quot;Account&quot;);" xlink:title="class Account
">
<polygon fill="none" stroke="black" points="-0.207031,-0.8 -0.207031,-151.2 182.207,-151.2 182.207,-0.8 -0.207031,-0.8"/>
<text text-anchor="middle" x="91" y="-133.2" font-family="Times,serif" font-size="14.00">Account</text>
<polyline fill="none" stroke="black" points="-0.207031,-126.4 182.207,-126.4 "/>
<text text-anchor="start" x="7.79297" y="-108.4" font-family="Times,serif" font-size="14.00">emailAddress : String</text>
<text text-anchor="start" x="7.79297" y="-91.6" font-family="Times,serif" font-size="14.00">contactPhoneNumber : String</text>
<text text-anchor="start" x="7.79297" y="-74.8" font-family="Times,serif" font-size="14.00">password : String</text>
<text text-anchor="start" x="7.79297" y="-58" font-family="Times,serif" font-size="14.00">name : String</text>
<text text-anchor="start" x="7.79297" y="-41.2" font-family="Times,serif" font-size="14.00">address : String</text>
<text text-anchor="start" x="7.79297" y="-24.4" font-family="Times,serif" font-size="14.00">preferredCredCard : String</text>
<text text-anchor="start" x="7.79297" y="-7.6" font-family="Times,serif" font-size="14.00">ExpiryDate : String</text>
</a>
</g>
</g>
<!-- Order -->
<g id="node2" class="node"><title>Order</title>
<g id="a_node2"><a xlink:href="javascript:Action.selectClass(&quot;Order&quot;);" xlink:title="class Order
">
<polygon fill="none" stroke="black" points="-0.207031,-188.6 -0.207031,-305.4 182.207,-305.4 182.207,-188.6 -0.207031,-188.6"/>
<text text-anchor="middle" x="91" y="-287.4" font-family="Times,serif" font-size="14.00">Order</text>
<polyline fill="none" stroke="black" points="-0.207031,-280.6 182.207,-280.6 "/>
<text text-anchor="start" x="7.79297" y="-262.6" font-family="Times,serif" font-size="14.00">timePlaced : String</text>
<text text-anchor="start" x="7.79297" y="-245.8" font-family="Times,serif" font-size="14.00">contactPhoneNumber : String</text>
<text text-anchor="start" x="7.79297" y="-229" font-family="Times,serif" font-size="14.00">totalPrice : Float</text>
<text text-anchor="start" x="7.79297" y="-212.2" font-family="Times,serif" font-size="14.00">creditCardCharged : String</text>
<text text-anchor="start" x="7.79297" y="-195.4" font-family="Times,serif" font-size="14.00">expiryDate : String</text>
</a>
</g>
</g>
<!-- Account&#45;&gt;Order -->
<g id="edge3" class="edge"><title>Account&#45;&gt;Order</title>
<path fill="none" stroke="black" d="M91,-151.618C91,-163.997 91,-176.663 91,-188.534"/>
<text text-anchor="middle" x="85.75" y="-174.534" font-family="Times,serif" font-size="14.00">* </text>
<text text-anchor="middle" x="78.75" y="-154.418" font-family="Times,serif" font-size="14.00">0..1 </text>
</g>
<!-- OrderItem -->
<g id="node3" class="node"><title>OrderItem</title>
<g id="a_node3"><a xlink:href="javascript:Action.selectClass(&quot;OrderItem&quot;);" xlink:title="class OrderItem
">
<polygon fill="none" stroke="black" points="187.341,-342.8 187.341,-409.2 296.659,-409.2 296.659,-342.8 187.341,-342.8"/>
<text text-anchor="middle" x="242" y="-391.2" font-family="Times,serif" font-size="14.00">OrderItem</text>
<polyline fill="none" stroke="black" points="187.341,-384.4 296.659,-384.4 "/>
<text text-anchor="start" x="195.341" y="-366.4" font-family="Times,serif" font-size="14.00">number : Integer</text>
<text text-anchor="start" x="195.341" y="-349.6" font-family="Times,serif" font-size="14.00">totalPrice : Float</text>
</a>
</g>
</g>
<!-- Order&#45;&gt;OrderItem -->
<g id="edge4" class="edge"><title>Order&#45;&gt;OrderItem</title>
<path fill="none" stroke="black" d="M159.431,-305.555C174.569,-318.287 190.09,-331.341 203.53,-342.645"/>
<text text-anchor="middle" x="198.28" y="-328.645" font-family="Times,serif" font-size="14.00">* </text>
<text text-anchor="middle" x="154.181" y="-308.355" font-family="Times,serif" font-size="14.00">1 </text>
</g>
<!-- PizzaOrder -->
<g id="node4" class="node"><title>PizzaOrder</title>
<g id="a_node4"><a xlink:href="javascript:Action.selectClass(&quot;PizzaOrder&quot;);" xlink:title="class PizzaOrder
">
<polygon fill="none" stroke="black" points="332.997,-222.2 332.997,-271.8 419.003,-271.8 419.003,-222.2 332.997,-222.2"/>
<text text-anchor="middle" x="376" y="-253.8" font-family="Times,serif" font-size="14.00">PizzaOrder</text>
<polyline fill="none" stroke="black" points="332.997,-247 419.003,-247 "/>
<text text-anchor="start" x="340.997" y="-229" font-family="Times,serif" font-size="14.00">kind : String</text>
</a>
</g>
</g>
<!-- PizzaOrder&#45;&gt;OrderItem -->
<g id="edge1" class="edge"><title>PizzaOrder&#45;&gt;OrderItem</title>
<path fill="none" stroke="black" d="M357.55,-271.944C348.237,-283.098 336.316,-296.067 324,-306 306.009,-320.51 281.612,-332.73 268.415,-338.83"/>
<polygon fill="none" stroke="black" points="266.726,-335.75 259,-343 269.561,-342.15 266.726,-335.75"/>
</g>
<!-- ToppingType -->
<g id="node5" class="node"><title>ToppingType</title>
<g id="a_node5"><a xlink:href="javascript:Action.selectClass(&quot;ToppingType&quot;);" xlink:title="class ToppingType
">
<polygon fill="none" stroke="black" points="314.338,-351.2 314.338,-400.8 437.662,-400.8 437.662,-351.2 314.338,-351.2"/>
<text text-anchor="middle" x="376" y="-382.8" font-family="Times,serif" font-size="14.00">ToppingType</text>
<polyline fill="none" stroke="black" points="314.338,-376 437.662,-376 "/>
<text text-anchor="start" x="322.338" y="-358" font-family="Times,serif" font-size="14.00">description : String</text>
</a>
</g>
</g>
<!-- PizzaOrder&#45;&gt;ToppingType -->
<g id="edge5" class="edge"><title>PizzaOrder&#45;&gt;ToppingType</title>
<path fill="none" stroke="black" d="M376,-271.888C376,-291.277 376,-318.87 376,-340.633"/>
<polygon fill="black" stroke="black" points="376,-350.788 371.5,-340.788 376,-345.788 376,-340.788 376,-340.788 376,-340.788 376,-345.788 380.5,-340.788 376,-350.788 376,-350.788"/>
<text text-anchor="middle" x="346.636" y="-336.788" font-family="Times,serif" font-size="14.00">* toppings</text>
<text text-anchor="middle" x="381.25" y="-274.688" font-family="Times,serif" font-size="14.00">* </text>
</g>
<!-- StandardPizzaSize -->
<g id="node6" class="node"><title>StandardPizzaSize</title>
<g id="a_node6"><a xlink:href="javascript:Action.selectClass(&quot;StandardPizzaSize&quot;);" xlink:title="class StandardPizzaSize
">
<polygon fill="none" stroke="black" points="455.907,-351.2 455.907,-400.8 576.093,-400.8 576.093,-351.2 455.907,-351.2"/>
<text text-anchor="middle" x="516" y="-382.8" font-family="Times,serif" font-size="14.00">StandardPizzaSize</text>
<polyline fill="none" stroke="black" points="455.907,-376 576.093,-376 "/>
<text text-anchor="start" x="463.907" y="-358" font-family="Times,serif" font-size="14.00">sizeLabel : String</text>
</a>
</g>
</g>
<!-- PizzaOrder&#45;&gt;StandardPizzaSize -->
<g id="edge6" class="edge"><title>PizzaOrder&#45;&gt;StandardPizzaSize</title>
<path fill="none" stroke="black" d="M395.86,-272.013C405.202,-282.81 416.745,-295.464 428,-306 442.47,-319.546 459.394,-333.261 474.514,-344.857"/>
<polygon fill="black" stroke="black" points="482.701,-351.066 472.014,-348.609 478.718,-348.045 474.734,-345.023 474.734,-345.023 474.734,-345.023 478.718,-348.045 477.453,-341.438 482.701,-351.066 482.701,-351.066"/>
<text text-anchor="middle" x="477.451" y="-337.066" font-family="Times,serif" font-size="14.00">1 </text>
<text text-anchor="middle" x="401.11" y="-274.813" font-family="Times,serif" font-size="14.00">* </text>
</g>
<!-- DrinkOrder -->
<g id="node7" class="node"><title>DrinkOrder</title>
<g id="a_node7"><a xlink:href="javascript:Action.selectClass(&quot;DrinkOrder&quot;);" xlink:title="class DrinkOrder
">
<polygon fill="none" stroke="black" points="200.614,-213.8 200.614,-280.2 315.386,-280.2 315.386,-213.8 200.614,-213.8"/>
<text text-anchor="middle" x="258" y="-262.2" font-family="Times,serif" font-size="14.00">DrinkOrder</text>
<polyline fill="none" stroke="black" points="200.614,-255.4 315.386,-255.4 "/>
<text text-anchor="start" x="208.614" y="-237.4" font-family="Times,serif" font-size="14.00">drinkSize : String</text>
<text text-anchor="start" x="208.614" y="-220.6" font-family="Times,serif" font-size="14.00">size : String</text>
</a>
</g>
</g>
<!-- DrinkOrder&#45;&gt;OrderItem -->
<g id="edge2" class="edge"><title>DrinkOrder&#45;&gt;OrderItem</title>
<path fill="none" stroke="black" d="M258.341,-280.428C258.534,-298.703 258.761,-320.3 258.892,-332.747"/>
<polygon fill="none" stroke="black" points="255.395,-333.037 259,-343 262.394,-332.964 255.395,-333.037"/>
</g>
<!-- Delivery -->
<g id="node8" class="node"><title>Delivery</title>
<g id="a_node8"><a xlink:href="javascript:Action.selectClass(&quot;Delivery&quot;);" xlink:title="class Delivery
">
<polygon fill="none" stroke="black" points="306.022,-42.8 306.022,-109.2 445.978,-109.2 445.978,-42.8 306.022,-42.8"/>
<text text-anchor="middle" x="376" y="-91.2" font-family="Times,serif" font-size="14.00">Delivery</text>
<polyline fill="none" stroke="black" points="306.022,-84.4 445.978,-84.4 "/>
<text text-anchor="start" x="314.022" y="-66.4" font-family="Times,serif" font-size="14.00">timePickedUp : Time</text>
<text text-anchor="start" x="314.022" y="-49.6" font-family="Times,serif" font-size="14.00">TimeDelivered : Time</text>
</a>
</g>
</g>
<!-- Driver -->
<g id="node9" class="node"><title>Driver</title>
<g id="a_node9"><a xlink:href="javascript:Action.selectClass(&quot;Driver&quot;);" xlink:title="class Driver
">
<polygon fill="none" stroke="black" points="437.283,-222.2 437.283,-271.8 528.717,-271.8 528.717,-222.2 437.283,-222.2"/>
<text text-anchor="middle" x="483" y="-253.8" font-family="Times,serif" font-size="14.00">Driver</text>
<polyline fill="none" stroke="black" points="437.283,-247 528.717,-247 "/>
<text text-anchor="start" x="445.283" y="-229" font-family="Times,serif" font-size="14.00">name : String</text>
</a>
</g>
</g>
<!-- Delivery&#45;&gt;Driver -->
<g id="edge7" class="edge"><title>Delivery&#45;&gt;Driver</title>
<path fill="none" stroke="black" d="M396.631,-109.585C417.461,-142.484 449.144,-192.526 467.79,-221.977"/>
<text text-anchor="middle" x="455.54" y="-207.977" font-family="Times,serif" font-size="14.00">0..1 </text>
<text text-anchor="middle" x="391.381" y="-112.385" font-family="Times,serif" font-size="14.00">* </text>
</g>
<!-- Delivery&#45;&gt;Order -->
<g id="edge8" class="edge"><title>Delivery&#45;&gt;Order</title>
<path fill="none" stroke="black" d="M321.386,-109.385C282.11,-132.675 228.22,-164.631 182.435,-191.78"/>
<text text-anchor="middle" x="194.685" y="-177.78" font-family="Times,serif" font-size="14.00">1..* </text>
<text text-anchor="middle" x="309.136" y="-112.185" font-family="Times,serif" font-size="14.00">0..1 </text>
</g>
</g>
</svg>
