<?xml version="1.0" encoding="UTF-8" standalone="no"?>
<!DOCTYPE svg PUBLIC "-//W3C//DTD SVG 1.1//EN"
 "http://www.w3.org/Graphics/SVG/1.1/DTD/svg11.dtd">
<!-- Generated by graphviz version 2.39.20140502.0445 (20140502.0445)
 -->
<!-- Title: PoliceSystem Pages: 1 -->
<svg width="722pt" height="544pt"
 viewBox="0.00 0.00 721.99 544.00" xmlns="http://www.w3.org/2000/svg" xmlns:xlink="http://www.w3.org/1999/xlink">
<g id="graph0" class="graph" transform="scale(1 1) rotate(0) translate(4 540)">
<title>PoliceSystem</title>
<polygon fill="white" stroke="none" points="-4,4 -4,-540 717.985,-540 717.985,4 -4,4"/>
<!-- ChargeOccurrence -->
<g id="node1" class="node"><title>ChargeOccurrence</title>
<g id="a_node1"><a xlink:href="javascript:Action.selectClass(&quot;ChargeOccurrence&quot;);" xlink:title="class ChargeOccurrence
">
<polygon fill="none" stroke="black" points="277.485,-316.5 277.485,-392.5 405.485,-392.5 405.485,-316.5 277.485,-316.5"/>
<text text-anchor="middle" x="341.485" y="-377.3" font-family="Times,serif" font-size="14.00">ChargeOccurrence</text>
<polyline fill="none" stroke="black" points="277.485,-369.5 405.485,-369.5 "/>
<text text-anchor="start" x="285.485" y="-354.3" font-family="Times,serif" font-size="14.00">dateEntered : String</text>
<text text-anchor="start" x="285.485" y="-339.3" font-family="Times,serif" font-size="14.00">disposition : String</text>
<text text-anchor="start" x="285.485" y="-324.3" font-family="Times,serif" font-size="14.00">penalty : String</text>
</a>
</g>
</g>
<!-- OffenseType -->
<g id="node2" class="node"><title>OffenseType</title>
<g id="a_node2"><a xlink:href="javascript:Action.selectClass(&quot;OffenseType&quot;);" xlink:title="class OffenseType
">
<polygon fill="none" stroke="black" points="280.485,-173.5 280.485,-279.5 408.485,-279.5 408.485,-173.5 280.485,-173.5"/>
<text text-anchor="middle" x="344.485" y="-264.3" font-family="Times,serif" font-size="14.00">OffenseType</text>
<polyline fill="none" stroke="black" points="280.485,-256.5 408.485,-256.5 "/>
<text text-anchor="start" x="288.485" y="-241.3" font-family="Times,serif" font-size="14.00">name : String</text>
<text text-anchor="start" x="288.485" y="-226.3" font-family="Times,serif" font-size="14.00">description : String</text>
<text text-anchor="start" x="288.485" y="-211.3" font-family="Times,serif" font-size="14.00">act : String</text>
<text text-anchor="start" x="288.485" y="-196.3" font-family="Times,serif" font-size="14.00">section : String</text>
<text text-anchor="start" x="288.485" y="-181.3" font-family="Times,serif" font-size="14.00">maxPenalty : String</text>
</a>
</g>
</g>
<!-- OffenseType&#45;&gt;ChargeOccurrence -->
<g id="edge5" class="edge"><title>OffenseType&#45;&gt;ChargeOccurrence</title>
<g id="a_edge5"><a xlink:title="OffenseType 1 &#160;&#45;&#45; * &#160;ChargeOccurrence">
<path fill="none" stroke="black" d="M342.366,-316.482 342.64,-305.011 342.946,-292.146 343.239,-279.841"/>
</a>
</g>
<text text-anchor="middle" x="336.866" y="-305.282" font-family="Times,serif" font-size="14.00">* </text>
<text text-anchor="middle" x="337.739" y="-283.641" font-family="Times,serif" font-size="14.00">1 </text>
</g>
<!-- CrimeOccurrence -->
<g id="node3" class="node"><title>CrimeOccurrence</title>
<g id="a_node3"><a xlink:href="javascript:Action.selectClass(&quot;CrimeOccurrence&quot;);" xlink:title="class CrimeOccurrence
">
<polygon fill="none" stroke="black" points="414.485,-23 414.485,-114 538.485,-114 538.485,-23 414.485,-23"/>
<text text-anchor="middle" x="476.485" y="-98.8" font-family="Times,serif" font-size="14.00">CrimeOccurrence</text>
<polyline fill="none" stroke="black" points="414.485,-91 538.485,-91 "/>
<text text-anchor="start" x="422.485" y="-75.8" font-family="Times,serif" font-size="14.00">location : String</text>
<text text-anchor="start" x="422.485" y="-60.8" font-family="Times,serif" font-size="14.00">date : String</text>
<text text-anchor="start" x="422.485" y="-45.8" font-family="Times,serif" font-size="14.00">time : String</text>
<text text-anchor="start" x="422.485" y="-30.8" font-family="Times,serif" font-size="14.00">description : String</text>
</a>
</g>
</g>
<!-- CrimeOccurrence&#45;&gt;ChargeOccurrence -->
<g id="edge6" class="edge"><title>CrimeOccurrence&#45;&gt;ChargeOccurrence</title>
<g id="a_edge6"><a xlink:title="CrimeOccurrence * &#160;&#45;&#45; * &#160;ChargeOccurrence">
<path fill="none" stroke="black" d="M387.613,-316.481 398.691,-305.709 409.588,-293.243 417.485,-280 434.153,-252.047 454.968,-167.075 466.892,-114.026"/>
</a>
</g>
<text text-anchor="middle" x="382.113" y="-305.281" font-family="Times,serif" font-size="14.00">* </text>
<text text-anchor="middle" x="461.392" y="-117.826" font-family="Times,serif" font-size="14.00">* </text>
</g>
<!-- Suspect -->
<g id="node5" class="node"><title>Suspect</title>
<g id="a_node5"><a xlink:href="javascript:Action.selectClass(&quot;Suspect&quot;);" xlink:title="class Suspect
">
<polygon fill="none" stroke="black" points="146.985,-203.5 146.985,-249.5 261.985,-249.5 261.985,-203.5 146.985,-203.5"/>
<text text-anchor="middle" x="204.485" y="-234.3" font-family="Times,serif" font-size="14.00">Suspect</text>
<polyline fill="none" stroke="black" points="146.985,-226.5 261.985,-226.5 "/>
<text text-anchor="start" x="154.985" y="-211.3" font-family="Times,serif" font-size="14.00">statement : String</text>
</a>
</g>
</g>
<!-- CrimeOccurrence&#45;&gt;Suspect -->
<g id="edge7" class="edge"><title>CrimeOccurrence&#45;&gt;Suspect</title>
<g id="a_edge7"><a xlink:title="CrimeOccurrence * &#160;&#45;&#45; * &#160;Suspect">
<path fill="none" stroke="black" d="M230.335,-203.301 242.425,-193.435 257.267,-182.035 271.485,-173 317.417,-143.812 372.649,-116.324 414.205,-97.0224"/>
</a>
</g>
<text text-anchor="middle" x="224.835" y="-192.101" font-family="Times,serif" font-size="14.00">* </text>
<text text-anchor="middle" x="408.705" y="-85.8224" font-family="Times,serif" font-size="14.00">* </text>
</g>
<!-- Witness -->
<g id="node6" class="node"><title>Witness</title>
<g id="a_node6"><a xlink:href="javascript:Action.selectClass(&quot;Witness&quot;);" xlink:title="class Witness
">
<polygon fill="none" stroke="black" points="13.985,-203.5 13.985,-249.5 128.985,-249.5 128.985,-203.5 13.985,-203.5"/>
<text text-anchor="middle" x="71.485" y="-234.3" font-family="Times,serif" font-size="14.00">Witness</text>
<polyline fill="none" stroke="black" points="13.985,-226.5 128.985,-226.5 "/>
<text text-anchor="start" x="21.985" y="-211.3" font-family="Times,serif" font-size="14.00">statement : String</text>
</a>
</g>
</g>
<!-- CrimeOccurrence&#45;&gt;Witness -->
<g id="edge8" class="edge"><title>CrimeOccurrence&#45;&gt;Witness</title>
<g id="a_edge8"><a xlink:title="CrimeOccurrence * &#160;&#45;&#45; * &#160;Witness">
<path fill="none" stroke="black" d="M94.7105,-203.454 106.719,-193.024 122.064,-181.11 137.485,-173 162.3,-159.95 323.595,-113.025 414.47,-87.0711"/>
</a>
</g>
<text text-anchor="middle" x="89.2105" y="-192.254" font-family="Times,serif" font-size="14.00">* </text>
<text text-anchor="middle" x="408.97" y="-75.8711" font-family="Times,serif" font-size="14.00">* </text>
</g>
<!-- Victim -->
<g id="node7" class="node"><title>Victim</title>
<g id="a_node7"><a xlink:href="javascript:Action.selectClass(&quot;Victim&quot;);" xlink:title="class Victim
">
<polygon fill="none" stroke="black" points="570.985,-331.5 570.985,-377.5 713.985,-377.5 713.985,-331.5 570.985,-331.5"/>
<text text-anchor="middle" x="642.485" y="-362.3" font-family="Times,serif" font-size="14.00">Victim</text>
<polyline fill="none" stroke="black" points="570.985,-354.5 713.985,-354.5 "/>
<text text-anchor="start" x="578.985" y="-339.3" font-family="Times,serif" font-size="14.00">injurySuffered : String</text>
</a>
</g>
</g>
<!-- CrimeOccurrence&#45;&gt;Victim -->
<g id="edge9" class="edge"><title>CrimeOccurrence&#45;&gt;Victim</title>
<g id="a_edge9"><a xlink:title="CrimeOccurrence * &#160;&#45;&#45; * &#160;Victim">
<path fill="none" stroke="black" d="M538.648,-109.26C560.871,-126.372 584.177,-148.176 599.485,-173 630.765,-223.726 639.292,-295.4 641.615,-331.255"/>
</a>
</g>
<text text-anchor="middle" x="636.115" y="-320.055" font-family="Times,serif" font-size="14.00">* </text>
<text text-anchor="middle" x="544.148" y="-98.0596" font-family="Times,serif" font-size="14.00">* </text>
</g>
<!-- Jurisdiction -->
<g id="node9" class="node"><title>Jurisdiction</title>
<g id="a_node9"><a xlink:href="javascript:Action.selectClass(&quot;Jurisdiction&quot;);" xlink:title="class Jurisdiction
">
<polygon fill="none" stroke="black" points="464.485,-188.5 464.485,-264.5 568.485,-264.5 568.485,-188.5 464.485,-188.5"/>
<text text-anchor="middle" x="516.485" y="-249.3" font-family="Times,serif" font-size="14.00">Jurisdiction</text>
<polyline fill="none" stroke="black" points="464.485,-241.5 568.485,-241.5 "/>
<text text-anchor="start" x="472.485" y="-226.3" font-family="Times,serif" font-size="14.00">name : String</text>
<text text-anchor="start" x="472.485" y="-211.3" font-family="Times,serif" font-size="14.00">phone : String</text>
<text text-anchor="start" x="472.485" y="-196.3" font-family="Times,serif" font-size="14.00">address : String</text>
</a>
</g>
</g>
<!-- CrimeOccurrence&#45;&gt;Jurisdiction -->
<g id="edge11" class="edge"><title>CrimeOccurrence&#45;&gt;Jurisdiction</title>
<g id="a_edge11"><a xlink:title="CrimeOccurrence * &#160;&#45;&#45; * &#160;Jurisdiction">
<path fill="none" stroke="black" d="M487.947,-114.203C493.973,-137.702 501.271,-166.165 506.978,-188.424"/>
</a>
</g>
<text text-anchor="middle" x="501.478" y="-177.224" font-family="Times,serif" font-size="14.00">* </text>
<text text-anchor="middle" x="482.447" y="-118.003" font-family="Times,serif" font-size="14.00">* </text>
</g>
<!-- InvestigatingOfficer -->
<g id="node10" class="node"><title>InvestigatingOfficer</title>
<g id="a_node10"><a xlink:href="javascript:Action.selectClass(&quot;InvestigatingOfficer&quot;);" xlink:title="class InvestigatingOfficer
">
<polygon fill="none" stroke="black" points="423.985,-336.5 423.985,-372.5 552.985,-372.5 552.985,-336.5 423.985,-336.5"/>
<text text-anchor="middle" x="488.485" y="-350.8" font-family="Times,serif" font-size="14.00">InvestigatingOfficer</text>
</a>
</g>
</g>
<!-- CrimeOccurrence&#45;&gt;InvestigatingOfficer -->
<g id="edge10" class="edge"><title>CrimeOccurrence&#45;&gt;InvestigatingOfficer</title>
<g id="a_edge10"><a xlink:title="CrimeOccurrence * &#160;&#45;&#45; * &#160;InvestigatingOfficer">
<path fill="none" stroke="black" d="M521.163,-336.443 541.478,-323.857 565.871,-304.655 577.485,-280 597.751,-236.979 595.415,-217.046 577.485,-173 568.398,-150.676 551.923,-130.541 534.879,-114.091"/>
</a>
</g>
<text text-anchor="middle" x="515.663" y="-325.243" font-family="Times,serif" font-size="14.00">* </text>
<text text-anchor="middle" x="529.379" y="-117.891" font-family="Times,serif" font-size="14.00">* </text>
</g>
<!-- Person -->
<g id="node4" class="node"><title>Person</title>
<g id="a_node4"><a xlink:href="javascript:Action.selectClass(&quot;Person&quot;);" xlink:title="class Person
">
<polygon fill="none" stroke="black" points="314.485,-429.5 314.485,-535.5 418.485,-535.5 418.485,-429.5 314.485,-429.5"/>
<text text-anchor="middle" x="366.485" y="-520.3" font-family="Times,serif" font-size="14.00">Person</text>
<polyline fill="none" stroke="black" points="314.485,-512.5 418.485,-512.5 "/>
<text text-anchor="start" x="322.485" y="-497.3" font-family="Times,serif" font-size="14.00">name : String</text>
<text text-anchor="start" x="322.485" y="-482.3" font-family="Times,serif" font-size="14.00">phone : String</text>
<text text-anchor="start" x="322.485" y="-467.3" font-family="Times,serif" font-size="14.00">sex : String</text>
<text text-anchor="start" x="322.485" y="-452.3" font-family="Times,serif" font-size="14.00">address : String</text>
<text text-anchor="start" x="322.485" y="-437.3" font-family="Times,serif" font-size="14.00">age : String</text>
</a>
</g>
</g>
<!-- Suspect&#45;&gt;ChargeOccurrence -->
<g id="edge12" class="edge"><title>Suspect&#45;&gt;ChargeOccurrence</title>
<g id="a_edge12"><a xlink:title="Suspect 1 &#160;&#45;&#45; * &#160;ChargeOccurrence">
<path fill="none" stroke="black" d="M228.662,-249.736C248.712,-268.176 277.638,-294.78 301.181,-316.432"/>
</a>
</g>
<text text-anchor="middle" x="295.681" y="-305.232" font-family="Times,serif" font-size="14.00">* </text>
<text text-anchor="middle" x="223.162" y="-253.536" font-family="Times,serif" font-size="14.00">1 </text>
</g>
<!-- Suspect&#45;&gt;Person -->
<g id="edge1" class="edge"><title>Suspect&#45;&gt;Person</title>
<path fill="none" stroke="black" d="M207.121,-249.763C212.442,-284.943 227.668,-353.447 268.485,-393 295.419,-419.1 342.073,-426.63 362.463,-428.726"/>
<polygon fill="none" stroke="black" points="362.245,-432.219 372.485,-429.5 362.784,-425.24 362.245,-432.219"/>
</g>
<!-- Witness&#45;&gt;Person -->
<g id="edge2" class="edge"><title>Witness&#45;&gt;Person</title>
<path fill="none" stroke="black" d="M85.0864,-249.595C108.385,-285.495 159.467,-356.175 221.485,-393 268.793,-421.09 336.59,-427.59 362.181,-429.071"/>
<polygon fill="none" stroke="black" points="362.348,-432.581 372.485,-429.5 362.639,-425.587 362.348,-432.581"/>
</g>
<!-- Victim&#45;&gt;Person -->
<g id="edge3" class="edge"><title>Victim&#45;&gt;Person</title>
<path fill="none" stroke="black" d="M382.536,-428.43 411.106,-425.205 495.016,-414.452 561.485,-393 574.315,-388.859 587.78,-383.202 599.966,-377.537"/>
<polygon fill="none" stroke="black" points="382.058,-424.961 372.485,-429.5 382.799,-431.922 382.058,-424.961"/>
</g>
<!-- SuspectDescription -->
<g id="node8" class="node"><title>SuspectDescription</title>
<g id="a_node8"><a xlink:href="javascript:Action.selectClass(&quot;SuspectDescription&quot;);" xlink:title="class SuspectDescription
Positioning
">
<polygon fill="none" stroke="black" points="50.485,-0.5 50.485,-136.5 226.485,-136.5 226.485,-0.5 50.485,-0.5"/>
<text text-anchor="middle" x="138.485" y="-121.3" font-family="Times,serif" font-size="14.00">SuspectDescription</text>
<polyline fill="none" stroke="black" points="50.485,-113.5 226.485,-113.5 "/>
<text text-anchor="start" x="58.485" y="-98.3" font-family="Times,serif" font-size="14.00">height : String</text>
<text text-anchor="start" x="58.485" y="-83.3" font-family="Times,serif" font-size="14.00">weight : String</text>
<text text-anchor="start" x="58.485" y="-68.3" font-family="Times,serif" font-size="14.00">build : String</text>
<text text-anchor="start" x="58.485" y="-53.3" font-family="Times,serif" font-size="14.00">colour : String</text>
<text text-anchor="start" x="58.485" y="-38.3" font-family="Times,serif" font-size="14.00">hairCharacteristics : String</text>
<text text-anchor="start" x="58.485" y="-23.3" font-family="Times,serif" font-size="14.00">facialCharacteristics : String</text>
<text text-anchor="start" x="58.485" y="-8.3" font-family="Times,serif" font-size="14.00">otherDetails : String</text>
</a>
</g>
</g>
<!-- SuspectDescription&#45;&gt;Suspect -->
<g id="edge13" class="edge"><title>SuspectDescription&#45;&gt;Suspect</title>
<g id="a_edge13"><a xlink:title="SuspectDescription * &#160;&#45;&#45; * matches Suspect">
<path fill="none" stroke="black" d="M166.858,-136.563C176.99,-160.512 187.716,-185.863 195.112,-203.346"/>
</a>
</g>
<text text-anchor="middle" x="166.612" y="-192.146" font-family="Times,serif" font-size="14.00">* matches</text>
<text text-anchor="middle" x="161.358" y="-140.363" font-family="Times,serif" font-size="14.00">* </text>
</g>
<!-- SuspectDescription&#45;&gt;Witness -->
<g id="edge14" class="edge"><title>SuspectDescription&#45;&gt;Witness</title>
<g id="a_edge14"><a xlink:title="SuspectDescription * &#160;&#45;&#45; 1 describedBy Witness">
<path fill="none" stroke="black" d="M81,-203.346 88.5084,-185.863 99.3966,-160.512 109.682,-136.563"/>
</a>
</g>
<text text-anchor="middle" x="40.5" y="-192.146" font-family="Times,serif" font-size="14.00">1 describedBy</text>
<text text-anchor="middle" x="104.182" y="-140.363" font-family="Times,serif" font-size="14.00">* </text>
</g>
<!-- Jurisdiction&#45;&gt;InvestigatingOfficer -->
<g id="edge15" class="edge"><title>Jurisdiction&#45;&gt;InvestigatingOfficer</title>
<g id="a_edge15"><a xlink:title="Jurisdiction 1 &#160;&#45;&#45; * &#160;InvestigatingOfficer">
<path fill="none" stroke="black" d="M492.329,-336.203 496.408,-317.848 502.977,-288.288 508.236,-264.623"/>
</a>
</g>
<text text-anchor="middle" x="486.829" y="-325.003" font-family="Times,serif" font-size="14.00">* </text>
<text text-anchor="middle" x="502.736" y="-268.423" font-family="Times,serif" font-size="14.00">1 </text>
</g>
<!-- InvestigatingOfficer&#45;&gt;Person -->
<g id="edge4" class="edge"><title>InvestigatingOfficer&#45;&gt;Person</title>
<path fill="none" stroke="black" d="M381.062,-424.029 397.836,-413.328 435.612,-389.229 461.581,-372.663"/>
<polygon fill="none" stroke="black" points="379.033,-421.171 372.485,-429.5 382.798,-427.073 379.033,-421.171"/>
</g>
</g>
</svg>
