<?xml version="1.0" encoding="UTF-8" standalone="no"?>
<!DOCTYPE svg PUBLIC "-//W3C//DTD SVG 1.1//EN"
 "http://www.w3.org/Graphics/SVG/1.1/DTD/svg11.dtd">
<!-- Generated by graphviz version 2.29.20121108.1600 (20121108.1600)
 -->
<!-- Title: PoliceSystem Pages: 1 -->
<svg width="719pt" height="588pt"
 viewBox="0.00 0.00 718.90 588.00" xmlns="http://www.w3.org/2000/svg" xmlns:xlink="http://www.w3.org/1999/xlink">
<g id="graph0" class="graph" transform="scale(1 1) rotate(0) translate(4 584)">
<title>PoliceSystem</title>
<polygon fill="white" stroke="white" points="-4,5 -4,-584 715.905,-584 715.905,5 -4,5"/>
<!-- ChargeOccurrence -->
<g id="node1" class="node"><title>ChargeOccurrence</title>
<g id="a_node1"><a xlink:href="javascript:Action.selectClass(&quot;ChargeOccurrence&quot;);" xlink:title="class ChargeOccurrence
">
<polygon fill="none" stroke="black" points="275.922,-342.4 275.922,-425.6 403.887,-425.6 403.887,-342.4 275.922,-342.4"/>
<text text-anchor="middle" x="339.905" y="-407.6" font-family="Times,serif" font-size="14.00">ChargeOccurrence</text>
<polyline fill="none" stroke="black" points="275.922,-400.8 403.887,-400.8 "/>
<text text-anchor="start" x="283.922" y="-382.8" font-family="Times,serif" font-size="14.00">dateEntered : String</text>
<text text-anchor="start" x="283.922" y="-366" font-family="Times,serif" font-size="14.00">disposition : String</text>
<text text-anchor="start" x="283.922" y="-349.2" font-family="Times,serif" font-size="14.00">penalty : String</text>
</a>
</g>
</g>
<!-- OffenseType -->
<g id="node2" class="node"><title>OffenseType</title>
<g id="a_node2"><a xlink:href="javascript:Action.selectClass(&quot;OffenseType&quot;);" xlink:title="class OffenseType
">
<polygon fill="none" stroke="black" points="279.298,-188.6 279.298,-305.4 406.511,-305.4 406.511,-188.6 279.298,-188.6"/>
<text text-anchor="middle" x="342.905" y="-287.4" font-family="Times,serif" font-size="14.00">OffenseType</text>
<polyline fill="none" stroke="black" points="279.298,-280.6 406.511,-280.6 "/>
<text text-anchor="start" x="287.298" y="-262.6" font-family="Times,serif" font-size="14.00">name : String</text>
<text text-anchor="start" x="287.298" y="-245.8" font-family="Times,serif" font-size="14.00">description : String</text>
<text text-anchor="start" x="287.298" y="-229" font-family="Times,serif" font-size="14.00">act : String</text>
<text text-anchor="start" x="287.298" y="-212.2" font-family="Times,serif" font-size="14.00">section : String</text>
<text text-anchor="start" x="287.298" y="-195.4" font-family="Times,serif" font-size="14.00">maxPenalty : String</text>
</a>
</g>
</g>
<!-- OffenseType&#45;&gt;ChargeOccurrence -->
<g id="edge5" class="edge"><title>OffenseType&#45;&gt;ChargeOccurrence</title>
<path fill="none" stroke="black" d="M341.624,-305.644C341.35,-317.97 341.066,-330.745 340.81,-342.275"/>
<text text-anchor="middle" x="335.56" y="-328.275" font-family="Times,serif" font-size="14.00">* </text>
<text text-anchor="middle" x="336.374" y="-308.444" font-family="Times,serif" font-size="14.00">1 </text>
</g>
<!-- CrimeOccurrence -->
<g id="node3" class="node"><title>CrimeOccurrence</title>
<g id="a_node3"><a xlink:href="javascript:Action.selectClass(&quot;CrimeOccurrence&quot;);" xlink:title="class CrimeOccurrence
">
<polygon fill="none" stroke="black" points="413.242,-26 413.242,-126 536.567,-126 536.567,-26 413.242,-26"/>
<text text-anchor="middle" x="474.905" y="-108" font-family="Times,serif" font-size="14.00">CrimeOccurrence</text>
<polyline fill="none" stroke="black" points="413.242,-101.2 536.567,-101.2 "/>
<text text-anchor="start" x="421.242" y="-83.2" font-family="Times,serif" font-size="14.00">location : String</text>
<text text-anchor="start" x="421.242" y="-66.4" font-family="Times,serif" font-size="14.00">date : String</text>
<text text-anchor="start" x="421.242" y="-49.6" font-family="Times,serif" font-size="14.00">time : String</text>
<text text-anchor="start" x="421.242" y="-32.8" font-family="Times,serif" font-size="14.00">description : String</text>
</a>
</g>
</g>
<!-- CrimeOccurrence&#45;&gt;ChargeOccurrence -->
<g id="edge6" class="edge"><title>CrimeOccurrence&#45;&gt;ChargeOccurrence</title>
<path fill="none" stroke="black" d="M465.117,-126.108C453.092,-183.776 432.164,-275.45 414.905,-306 407.561,-318.998 397.483,-331.392 387.097,-342.29"/>
<text text-anchor="middle" x="392.347" y="-328.29" font-family="Times,serif" font-size="14.00">* </text>
<text text-anchor="middle" x="459.867" y="-128.908" font-family="Times,serif" font-size="14.00">* </text>
</g>
<!-- Suspect -->
<g id="node5" class="node"><title>Suspect</title>
<g id="a_node5"><a xlink:href="javascript:Action.selectClass(&quot;Suspect&quot;);" xlink:title="class Suspect
">
<polygon fill="none" stroke="black" points="146.522,-222.2 146.522,-271.8 261.287,-271.8 261.287,-222.2 146.522,-222.2"/>
<text text-anchor="middle" x="203.905" y="-253.8" font-family="Times,serif" font-size="14.00">Suspect</text>
<polyline fill="none" stroke="black" points="146.522,-247 261.287,-247 "/>
<text text-anchor="start" x="154.522" y="-229" font-family="Times,serif" font-size="14.00">statement : String</text>
</a>
</g>
</g>
<!-- CrimeOccurrence&#45;&gt;Suspect -->
<g id="edge7" class="edge"><title>CrimeOccurrence&#45;&gt;Suspect</title>
<path fill="none" stroke="black" d="M413.143,-105.881C371.313,-126.522 315.562,-156.183 269.905,-188 255.387,-198.117 240.475,-210.974 228.506,-222.011"/>
<text text-anchor="middle" x="223.256" y="-208.011" font-family="Times,serif" font-size="14.00">* </text>
<text text-anchor="middle" x="407.893" y="-91.8806" font-family="Times,serif" font-size="14.00">* </text>
</g>
<!-- Witness -->
<g id="node6" class="node"><title>Witness</title>
<g id="a_node6"><a xlink:href="javascript:Action.selectClass(&quot;Witness&quot;);" xlink:title="class Witness
">
<polygon fill="none" stroke="black" points="13.5217,-222.2 13.5217,-271.8 128.287,-271.8 128.287,-222.2 13.5217,-222.2"/>
<text text-anchor="middle" x="70.9045" y="-253.8" font-family="Times,serif" font-size="14.00">Witness</text>
<polyline fill="none" stroke="black" points="13.5217,-247 128.287,-247 "/>
<text text-anchor="start" x="21.5217" y="-229" font-family="Times,serif" font-size="14.00">statement : String</text>
</a>
</g>
</g>
<!-- CrimeOccurrence&#45;&gt;Witness -->
<g id="edge8" class="edge"><title>CrimeOccurrence&#45;&gt;Witness</title>
<path fill="none" stroke="black" d="M413.191,-95.882C322.77,-123.766 162.318,-174.156 137.905,-188 121.845,-197.107 106.12,-210.42 93.9438,-221.995"/>
<text text-anchor="middle" x="88.6938" y="-207.995" font-family="Times,serif" font-size="14.00">* </text>
<text text-anchor="middle" x="407.941" y="-81.882" font-family="Times,serif" font-size="14.00">* </text>
</g>
<!-- Victim -->
<g id="node7" class="node"><title>Victim</title>
<g id="a_node7"><a xlink:href="javascript:Action.selectClass(&quot;Victim&quot;);" xlink:title="class Victim
">
<polygon fill="none" stroke="black" points="568.648,-359.2 568.648,-408.8 711.161,-408.8 711.161,-359.2 568.648,-359.2"/>
<text text-anchor="middle" x="639.905" y="-390.8" font-family="Times,serif" font-size="14.00">Victim</text>
<polyline fill="none" stroke="black" points="568.648,-384 711.161,-384 "/>
<text text-anchor="start" x="576.648" y="-366" font-family="Times,serif" font-size="14.00">injurySuffered : String</text>
</a>
</g>
</g>
<!-- CrimeOccurrence&#45;&gt;Victim -->
<g id="edge9" class="edge"><title>CrimeOccurrence&#45;&gt;Victim</title>
<path fill="none" stroke="black" d="M536.762,-120.403C558.83,-138.853 581.911,-162.103 596.905,-188 629.039,-243.504 637.185,-320.622 639.232,-359.13"/>
<text text-anchor="middle" x="633.982" y="-345.13" font-family="Times,serif" font-size="14.00">* </text>
<text text-anchor="middle" x="542.012" y="-106.403" font-family="Times,serif" font-size="14.00">* </text>
</g>
<!-- InvestigatingOfficer -->
<g id="node10" class="node"><title>InvestigatingOfficer</title>
<g id="a_node10"><a xlink:href="javascript:Action.selectClass(&quot;InvestigatingOfficer&quot;);" xlink:title="class InvestigatingOfficer
">
<polygon fill="none" stroke="black" points="421.532,-366 421.532,-402 550.277,-402 550.277,-366 421.532,-366"/>
<text text-anchor="middle" x="485.905" y="-378.5" font-family="Times,serif" font-size="14.00">InvestigatingOfficer</text>
</a>
</g>
</g>
<!-- CrimeOccurrence&#45;&gt;InvestigatingOfficer -->
<g id="edge10" class="edge"><title>CrimeOccurrence&#45;&gt;InvestigatingOfficer</title>
<path fill="none" stroke="black" d="M533.33,-126.193C550.022,-143.781 566.071,-164.997 574.905,-188 593.706,-236.959 596.709,-258.303 574.905,-306 563.012,-332.015 537.509,-352.604 516.84,-365.922"/>
<text text-anchor="middle" x="511.59" y="-351.922" font-family="Times,serif" font-size="14.00">* </text>
<text text-anchor="middle" x="528.08" y="-128.993" font-family="Times,serif" font-size="14.00">* </text>
</g>
<!-- Jurisdiction -->
<g id="node9" class="node"><title>Jurisdiction</title>
<g id="a_node9"><a xlink:href="javascript:Action.selectClass(&quot;Jurisdiction&quot;);" xlink:title="class Jurisdiction
">
<polygon fill="none" stroke="black" points="463.353,-205.4 463.353,-288.6 566.456,-288.6 566.456,-205.4 463.353,-205.4"/>
<text text-anchor="middle" x="514.905" y="-270.6" font-family="Times,serif" font-size="14.00">Jurisdiction</text>
<polyline fill="none" stroke="black" points="463.353,-263.8 566.456,-263.8 "/>
<text text-anchor="start" x="471.353" y="-245.8" font-family="Times,serif" font-size="14.00">name : String</text>
<text text-anchor="start" x="471.353" y="-229" font-family="Times,serif" font-size="14.00">phone : String</text>
<text text-anchor="start" x="471.353" y="-212.2" font-family="Times,serif" font-size="14.00">address : String</text>
</a>
</g>
</g>
<!-- CrimeOccurrence&#45;&gt;Jurisdiction -->
<g id="edge11" class="edge"><title>CrimeOccurrence&#45;&gt;Jurisdiction</title>
<path fill="none" stroke="black" d="M486.582,-126.336C492.508,-151.375 499.621,-181.427 505.236,-205.151"/>
<text text-anchor="middle" x="510.486" y="-191.151" font-family="Times,serif" font-size="14.00">* </text>
<text text-anchor="middle" x="481.332" y="-129.136" font-family="Times,serif" font-size="14.00">* </text>
</g>
<!-- Person -->
<g id="node4" class="node"><title>Person</title>
<g id="a_node4"><a xlink:href="javascript:Action.selectClass(&quot;Person&quot;);" xlink:title="class Person
">
<polygon fill="none" stroke="black" points="314.353,-462.6 314.353,-579.4 417.456,-579.4 417.456,-462.6 314.353,-462.6"/>
<text text-anchor="middle" x="365.905" y="-561.4" font-family="Times,serif" font-size="14.00">Person</text>
<polyline fill="none" stroke="black" points="314.353,-554.6 417.456,-554.6 "/>
<text text-anchor="start" x="322.353" y="-536.6" font-family="Times,serif" font-size="14.00">name : String</text>
<text text-anchor="start" x="322.353" y="-519.8" font-family="Times,serif" font-size="14.00">phone : String</text>
<text text-anchor="start" x="322.353" y="-503" font-family="Times,serif" font-size="14.00">sex : String</text>
<text text-anchor="start" x="322.353" y="-486.2" font-family="Times,serif" font-size="14.00">address : String</text>
<text text-anchor="start" x="322.353" y="-469.4" font-family="Times,serif" font-size="14.00">age : String</text>
</a>
</g>
</g>
<!-- Suspect&#45;&gt;Person -->
<g id="edge1" class="edge"><title>Suspect&#45;&gt;Person</title>
<path fill="none" stroke="black" d="M205.873,-271.913C210.24,-309.707 224.045,-383.326 266.905,-426 293.977,-452.955 341.73,-460.324 362.627,-462.297"/>
<polygon fill="none" stroke="black" points="362.689,-465.81 372.905,-463 363.167,-458.826 362.689,-465.81"/>
</g>
<!-- Suspect&#45;&gt;ChargeOccurrence -->
<g id="edge12" class="edge"><title>Suspect&#45;&gt;ChargeOccurrence</title>
<path fill="none" stroke="black" d="M227.906,-271.825C247.503,-291.278 275.646,-319.214 298.817,-342.214"/>
<text text-anchor="middle" x="293.567" y="-328.214" font-family="Times,serif" font-size="14.00">* </text>
<text text-anchor="middle" x="233.156" y="-274.625" font-family="Times,serif" font-size="14.00">1 </text>
</g>
<!-- Witness&#45;&gt;Person -->
<g id="edge2" class="edge"><title>Witness&#45;&gt;Person</title>
<path fill="none" stroke="black" d="M83.6766,-271.803C105.708,-310.469 154.642,-386.566 217.905,-426 266.034,-456.002 336.475,-461.68 362.631,-462.752"/>
<polygon fill="none" stroke="black" points="362.823,-466.257 372.905,-463 362.992,-459.259 362.823,-466.257"/>
</g>
<!-- Victim&#45;&gt;Person -->
<g id="edge3" class="edge"><title>Victim&#45;&gt;Person</title>
<path fill="none" stroke="black" d="M597.977,-408.948C585.683,-415.214 572.015,-421.473 558.905,-426 494.172,-448.351 411.841,-458.807 383.242,-461.943"/>
<polygon fill="none" stroke="black" points="382.497,-458.501 372.905,-463 383.209,-465.464 382.497,-458.501"/>
</g>
<!-- SuspectDescription -->
<g id="node8" class="node"><title>SuspectDescription</title>
<g id="a_node8"><a xlink:href="javascript:Action.selectClass(&quot;SuspectDescription&quot;);" xlink:title="class SuspectDescription
Positioning
">
<polygon fill="none" stroke="black" points="50.2111,-0.8 50.2111,-151.2 225.598,-151.2 225.598,-0.8 50.2111,-0.8"/>
<text text-anchor="middle" x="137.905" y="-133.2" font-family="Times,serif" font-size="14.00">SuspectDescription</text>
<polyline fill="none" stroke="black" points="50.2111,-126.4 225.598,-126.4 "/>
<text text-anchor="start" x="58.2111" y="-108.4" font-family="Times,serif" font-size="14.00">height : String</text>
<text text-anchor="start" x="58.2111" y="-91.6" font-family="Times,serif" font-size="14.00">weight : String</text>
<text text-anchor="start" x="58.2111" y="-74.8" font-family="Times,serif" font-size="14.00">build : String</text>
<text text-anchor="start" x="58.2111" y="-58" font-family="Times,serif" font-size="14.00">colour : String</text>
<text text-anchor="start" x="58.2111" y="-41.2" font-family="Times,serif" font-size="14.00">hairCharacteristics : String</text>
<text text-anchor="start" x="58.2111" y="-24.4" font-family="Times,serif" font-size="14.00">facialCharacteristics : String</text>
<text text-anchor="start" x="58.2111" y="-7.6" font-family="Times,serif" font-size="14.00">otherDetails : String</text>
</a>
</g>
</g>
<!-- SuspectDescription&#45;&gt;Suspect -->
<g id="edge13" class="edge"><title>SuspectDescription&#45;&gt;Suspect</title>
<path fill="none" stroke="black" d="M167.045,-151.618C176.921,-176.907 187.265,-203.393 194.472,-221.848"/>
<text text-anchor="middle" x="166.288" y="-207.848" font-family="Times,serif" font-size="14.00">* matches</text>
<text text-anchor="middle" x="161.795" y="-154.418" font-family="Times,serif" font-size="14.00">* </text>
</g>
<!-- SuspectDescription&#45;&gt;Witness -->
<g id="edge14" class="edge"><title>SuspectDescription&#45;&gt;Witness</title>
<path fill="none" stroke="black" d="M108.322,-151.618C98.2965,-176.907 87.796,-203.393 80.4795,-221.848"/>
<text text-anchor="middle" x="40.2397" y="-207.848" font-family="Times,serif" font-size="14.00">1 describedBy</text>
<text text-anchor="middle" x="103.072" y="-154.418" font-family="Times,serif" font-size="14.00">* </text>
</g>
<!-- Jurisdiction&#45;&gt;InvestigatingOfficer -->
<g id="edge15" class="edge"><title>Jurisdiction&#45;&gt;InvestigatingOfficer</title>
<path fill="none" stroke="black" d="M506.125,-288.871C500.59,-314.636 493.731,-346.565 489.593,-365.832"/>
<text text-anchor="middle" x="484.343" y="-351.832" font-family="Times,serif" font-size="14.00">* </text>
<text text-anchor="middle" x="511.375" y="-291.671" font-family="Times,serif" font-size="14.00">1 </text>
</g>
<!-- InvestigatingOfficer&#45;&gt;Person -->
<g id="edge4" class="edge"><title>InvestigatingOfficer&#45;&gt;Person</title>
<path fill="none" stroke="black" d="M461.106,-402.117C435.769,-419.607 397.855,-445.777 381.226,-457.256"/>
<polygon fill="none" stroke="black" points="379.146,-454.439 372.905,-463 383.123,-460.2 379.146,-454.439"/>
</g>
</g>
</svg>
