<?xml version="1.0" encoding="UTF-8" standalone="no"?>
<!DOCTYPE svg PUBLIC "-//W3C//DTD SVG 1.1//EN"
 "http://www.w3.org/Graphics/SVG/1.1/DTD/svg11.dtd">
<!-- Generated by graphviz version 2.40.1 (20161225.0304)
 -->
<!-- Title: PoliticalEntities Pages: 1 -->
<svg width="436pt" height="266pt"
 viewBox="0.00 0.00 435.50 266.00" xmlns="http://www.w3.org/2000/svg" xmlns:xlink="http://www.w3.org/1999/xlink">
<g id="graph0" class="graph" transform="scale(1 1) rotate(0) translate(4 262)">
<title>PoliticalEntities</title>
<polygon fill="#ffffff" stroke="transparent" points="-4,4 -4,-262 431.5,-262 431.5,4 -4,4"/>
<!-- PoliticalEntity -->
<g id="node1" class="node">
<title>PoliticalEntity</title>
<g id="a_node1"><a xlink:href="javascript:Action.selectClass(&quot;PoliticalEntity&quot;);" xlink:title="class PoliticalEntity&#10;Positioning&#13;">
<text text-anchor="start" x="139.0586" y="-241.8" font-family="Times,serif" font-size="14.00" fill="#000000"> &#160;&#160;&#160;PoliticalEntity &#160;&#160;&#160;</text>
<g id="a_node1_0"><a xlink:href="javascript:Action.selectClass(&quot;PoliticalEntity&quot;);" xlink:title="String name&#13;">
<text text-anchor="start" x="137.5" y="-221.8" font-family="Times,serif" font-size="14.00" fill="#000000"> &#160;name : String &#160;</text>
</a>
</g>
<polygon fill="#000000" stroke="#000000" points="134.5,-235 134.5,-235 252.5,-235 252.5,-235 134.5,-235"/>
<polygon fill="none" stroke="#000000" points="134.5,-216 134.5,-258 252.5,-258 252.5,-216 134.5,-216"/>
</a>
</g>
</g>
<!-- Territory -->
<g id="node2" class="node">
<title>Territory</title>
<g id="a_node2"><a xlink:href="javascript:Action.selectClass(&quot;Territory&quot;);" xlink:title="class Territory&#10;">
<text text-anchor="start" x="202.3462" y="-157.8" font-family="Times,serif" font-size="14.00" fill="#000000"> &#160;&#160;&#160;Territory &#160;&#160;&#160;</text>
<polygon fill="none" stroke="#000000" points="191,-144 191,-180 290,-180 290,-144 191,-144"/>
</a>
</g>
</g>
<!-- Territory&#45;&gt;PoliticalEntity -->
<g id="edge1" class="edge">
<title>Territory&#45;&gt;PoliticalEntity</title>
<path fill="none" stroke="#000000" d="M224.9265,-180.2819C216.7944,-189.8283 207.2748,-201.0035 201.0785,-208.2775"/>
<polygon fill="none" stroke="#000000" points="198.3203,-206.1179 194.5,-216 203.6491,-210.6572 198.3203,-206.1179"/>
</g>
<!-- Territory&#45;&gt;Territory -->
<g id="edge5" class="edge">
<title>Territory&#45;&gt;Territory</title>
<g id="a_edge5"><a xlink:title="Territory * &#160;&#45;&#45; * borders Territory">
<path fill="none" stroke="#000000" d="M299.2863,-151.2719C304.6354,-153.5021 308,-157.0781 308,-162 308,-166.9219 304.6354,-170.4979 299.2863,-172.7281"/>
</a>
</g>
<text text-anchor="middle" x="325.5295" y="-161.5281" font-family="Times,serif" font-size="14.00" fill="#000000">* borders</text>
<text text-anchor="middle" x="304.5363" y="-140.0719" font-family="Times,serif" font-size="14.00" fill="#000000">* </text>
</g>
<!-- InterGovernmentalOrganization -->
<g id="node3" class="node">
<title>InterGovernmentalOrganization</title>
<g id="a_node3"><a xlink:href="javascript:Action.selectClass(&quot;InterGovernmentalOrganization&quot;);" xlink:title="class InterGovernmentalOrganization&#10;">
<text text-anchor="start" x="11.3262" y="-85.8" font-family="Times,serif" font-size="14.00" fill="#000000"> &#160;&#160;&#160;InterGovernmentalOrganization &#160;&#160;&#160;</text>
<polygon fill="none" stroke="#000000" points="0,-72 0,-108 229,-108 229,-72 0,-72"/>
</a>
</g>
</g>
<!-- InterGovernmentalOrganization&#45;&gt;PoliticalEntity -->
<g id="edge2" class="edge">
<title>InterGovernmentalOrganization&#45;&gt;PoliticalEntity</title>
<path fill="none" stroke="#000000" d="M125.962,-108.0527C143.4167,-135.5438 175.9988,-186.8606 188.9677,-207.2867"/>
<polygon fill="none" stroke="#000000" points="186.1851,-209.4339 194.5,-216 192.0946,-205.6818 186.1851,-209.4339"/>
</g>
<!-- InterGovernmentalOrganization&#45;&gt;Territory -->
<g id="edge6" class="edge">
<title>InterGovernmentalOrganization&#45;&gt;Territory</title>
<g id="a_edge6"><a xlink:title="InterGovernmentalOrganization * &#160;&#45;&#45; * &#160;Territory">
<path fill="none" stroke="#000000" d="M146.2951,-108.1686C165.3958,-119.0833 189.6162,-132.9236 208.7151,-143.8372"/>
</a>
</g>
<text text-anchor="middle" x="203.4651" y="-132.6372" font-family="Times,serif" font-size="14.00" fill="#000000">* </text>
<text text-anchor="middle" x="141.0451" y="-110.9686" font-family="Times,serif" font-size="14.00" fill="#000000">* </text>
</g>
<!-- Country -->
<g id="node4" class="node">
<title>Country</title>
<g id="a_node4"><a xlink:href="javascript:Action.selectClass(&quot;Country&quot;);" xlink:title="class Country&#10;">
<text text-anchor="start" x="270.0552" y="-13.8" font-family="Times,serif" font-size="14.00" fill="#000000"> &#160;&#160;&#160;Country &#160;&#160;&#160;</text>
<polygon fill="none" stroke="#000000" points="259,0 259,-36 354,-36 354,0 259,0"/>
</a>
</g>
</g>
<!-- Country&#45;&gt;Territory -->
<g id="edge3" class="edge">
<title>Country&#45;&gt;Territory</title>
<path fill="none" stroke="#000000" d="M294.8202,-36.4508C288.7401,-46.6412 281.5439,-59.6951 276.5,-72 267.7414,-93.367 261.4935,-119.8296 258.4993,-133.9716"/>
<polygon fill="none" stroke="#000000" points="255.0228,-133.5087 256.5,-144 261.8877,-134.8774 255.0228,-133.5087"/>
</g>
<!-- StateOrProvince -->
<g id="node5" class="node">
<title>StateOrProvince</title>
<g id="a_node5"><a xlink:href="javascript:Action.selectClass(&quot;StateOrProvince&quot;);" xlink:title="class StateOrProvince&#10;">
<text text-anchor="start" x="296.2344" y="-85.8" font-family="Times,serif" font-size="14.00" fill="#000000"> &#160;&#160;&#160;StateOrProvince &#160;&#160;&#160;</text>
<polygon fill="none" stroke="#000000" points="285.5,-72 285.5,-108 427.5,-108 427.5,-72 285.5,-72"/>
</a>
</g>
</g>
<!-- Country&#45;&gt;StateOrProvince -->
<g id="edge7" class="edge">
<title>Country&#45;&gt;StateOrProvince</title>
<g id="a_edge7"><a xlink:title="Country 1 &#160;&#45;&#45; * &#160;StateOrProvince">
<path fill="none" stroke="#000000" d="M319.1171,-36.1686C326.6389,-47 336.1614,-60.7124 343.713,-71.5867"/>
</a>
</g>
<text text-anchor="middle" x="338.463" y="-60.3867" font-family="Times,serif" font-size="14.00" fill="#000000">* </text>
<text text-anchor="middle" x="313.8671" y="-38.9686" font-family="Times,serif" font-size="14.00" fill="#000000">1 </text>
</g>
<!-- StateOrProvince&#45;&gt;Territory -->
<g id="edge4" class="edge">
<title>StateOrProvince&#45;&gt;Territory</title>
<path fill="none" stroke="#000000" d="M322.9233,-108.1314C302.7237,-119.0392 278.5012,-132.1194 265.6158,-139.0775"/>
<polygon fill="none" stroke="#000000" points="263.636,-136.1688 256.5,-144 266.9621,-142.3281 263.636,-136.1688"/>
</g>
</g>
</svg>
