<?xml version="1.0" encoding="UTF-8" standalone="no"?>
<!DOCTYPE svg PUBLIC "-//W3C//DTD SVG 1.1//EN"
 "http://www.w3.org/Graphics/SVG/1.1/DTD/svg11.dtd">
<!-- Generated by graphviz version 2.39.20140502.0445 (20140502.0445)
 -->
<!-- Title: PoliticalEntities Pages: 1 -->
<svg width="370pt" height="274pt"
 viewBox="0.00 0.00 369.50 274.00" xmlns="http://www.w3.org/2000/svg" xmlns:xlink="http://www.w3.org/1999/xlink">
<g id="graph0" class="graph" transform="scale(1 1) rotate(0) translate(4 270)">
<title>PoliticalEntities</title>
<polygon fill="white" stroke="none" points="-4,4 -4,-270 365.5,-270 365.5,4 -4,4"/>
<!-- PoliticalEntity -->
<g id="node1" class="node"><title>PoliticalEntity</title>
<g id="a_node1"><a xlink:href="javascript:Action.selectClass(&quot;PoliticalEntity&quot;);" xlink:title="class PoliticalEntity
Positioning
">
<polygon fill="none" stroke="black" points="112.5,-219.5 112.5,-265.5 209.5,-265.5 209.5,-219.5 112.5,-219.5"/>
<text text-anchor="middle" x="161" y="-250.3" font-family="Times,serif" font-size="14.00">PoliticalEntity</text>
<polyline fill="none" stroke="black" points="112.5,-242.5 209.5,-242.5 "/>
<text text-anchor="start" x="120.5" y="-227.3" font-family="Times,serif" font-size="14.00">name : String</text>
</a>
</g>
</g>
<!-- Territory -->
<g id="node2" class="node"><title>Territory</title>
<g id="a_node2"><a xlink:href="javascript:Action.selectClass(&quot;Territory&quot;);" xlink:title="class Territory
">
<polygon fill="none" stroke="black" points="174.5,-146.5 174.5,-182.5 241.5,-182.5 241.5,-146.5 174.5,-146.5"/>
<text text-anchor="middle" x="208" y="-160.8" font-family="Times,serif" font-size="14.00">Territory</text>
</a>
</g>
</g>
<!-- Territory&#45;&gt;PoliticalEntity -->
<g id="edge1" class="edge"><title>Territory&#45;&gt;PoliticalEntity</title>
<path fill="none" stroke="black" d="M169.495,-211.706 175.814,-204.123 185.625,-192.35 193.762,-182.586"/>
<polygon fill="none" stroke="black" points="166.713,-209.577 163,-219.5 172.091,-214.058 166.713,-209.577"/>
</g>
<!-- Territory&#45;&gt;Territory -->
<g id="edge5" class="edge"><title>Territory&#45;&gt;Territory</title>
<g id="a_edge5"><a xlink:title="Territory * &#160;&#45;&#45; * borders Territory">
<path fill="none" stroke="black" d="M241.681,-151.03C251.702,-151.432 259.5,-155.922 259.5,-164.5 259.5,-173.078 251.702,-177.568 241.681,-177.97"/>
</a>
</g>
<text text-anchor="middle" x="268.181" y="-166.77" font-family="Times,serif" font-size="14.00">* borders</text>
<text text-anchor="middle" x="247.181" y="-139.83" font-family="Times,serif" font-size="14.00">* </text>
</g>
<!-- InterGovernmentalOrganization -->
<g id="node3" class="node"><title>InterGovernmentalOrganization</title>
<g id="a_node3"><a xlink:href="javascript:Action.selectClass(&quot;InterGovernmentalOrganization&quot;);" xlink:title="class InterGovernmentalOrganization
">
<polygon fill="none" stroke="black" points="0,-73.5 0,-109.5 196,-109.5 196,-73.5 0,-73.5"/>
<text text-anchor="middle" x="98" y="-87.8" font-family="Times,serif" font-size="14.00">InterGovernmentalOrganization</text>
</a>
</g>
</g>
<!-- InterGovernmentalOrganization&#45;&gt;PoliticalEntity -->
<g id="edge2" class="edge"><title>InterGovernmentalOrganization&#45;&gt;PoliticalEntity</title>
<path fill="none" stroke="black" d="M106.766,-109.628C120.766,-136.981 147.685,-189.576 158.418,-210.547"/>
<polygon fill="none" stroke="black" points="155.328,-212.193 163,-219.5 161.56,-209.004 155.328,-212.193"/>
</g>
<!-- InterGovernmentalOrganization&#45;&gt;Territory -->
<g id="edge6" class="edge"><title>InterGovernmentalOrganization&#45;&gt;Territory</title>
<g id="a_edge6"><a xlink:title="InterGovernmentalOrganization * &#160;&#45;&#45; * &#160;Territory">
<path fill="none" stroke="black" d="M124.348,-109.506C141.636,-120.665 164.164,-135.206 181.486,-146.386"/>
</a>
</g>
<text text-anchor="middle" x="175.986" y="-135.186" font-family="Times,serif" font-size="14.00">* </text>
<text text-anchor="middle" x="118.848" y="-113.306" font-family="Times,serif" font-size="14.00">* </text>
</g>
<!-- Country -->
<g id="node4" class="node"><title>Country</title>
<g id="a_node4"><a xlink:href="javascript:Action.selectClass(&quot;Country&quot;);" xlink:title="class Country
">
<polygon fill="none" stroke="black" points="234,-0.5 234,-36.5 296,-36.5 296,-0.5 234,-0.5"/>
<text text-anchor="middle" x="265" y="-14.8" font-family="Times,serif" font-size="14.00">Country</text>
</a>
</g>
</g>
<!-- Country&#45;&gt;Territory -->
<g id="edge3" class="edge"><title>Country&#45;&gt;Territory</title>
<path fill="none" stroke="black" d="M224.728,-136.43 228.649,-122.191 236.263,-95.4111 244,-73 248.233,-60.7387 253.582,-47.134 257.823,-36.7122"/>
<polygon fill="none" stroke="black" points="221.236,-135.933 222,-146.5 227.993,-137.763 221.236,-135.933"/>
</g>
<!-- StateOrProvince -->
<g id="node5" class="node"><title>StateOrProvince</title>
<g id="a_node5"><a xlink:href="javascript:Action.selectClass(&quot;StateOrProvince&quot;);" xlink:title="class StateOrProvince
">
<polygon fill="none" stroke="black" points="252.5,-73.5 252.5,-109.5 361.5,-109.5 361.5,-73.5 252.5,-73.5"/>
<text text-anchor="middle" x="307" y="-87.8" font-family="Times,serif" font-size="14.00">StateOrProvince</text>
</a>
</g>
</g>
<!-- Country&#45;&gt;StateOrProvince -->
<g id="edge7" class="edge"><title>Country&#45;&gt;StateOrProvince</title>
<g id="a_edge7"><a xlink:title="Country 1 &#160;&#45;&#45; * &#160;StateOrProvince">
<path fill="none" stroke="black" d="M275.167,-36.6871C281.77,-47.8501 290.342,-62.3398 296.927,-73.4712"/>
</a>
</g>
<text text-anchor="middle" x="291.427" y="-62.2712" font-family="Times,serif" font-size="14.00">* </text>
<text text-anchor="middle" x="269.667" y="-40.4871" font-family="Times,serif" font-size="14.00">1 </text>
</g>
<!-- StateOrProvince&#45;&gt;Territory -->
<g id="edge4" class="edge"><title>StateOrProvince&#45;&gt;Territory</title>
<path fill="none" stroke="black" d="M230.461,-141.125 241.941,-133.831 262.985,-120.462 280.105,-109.586"/>
<polygon fill="none" stroke="black" points="228.564,-138.183 222,-146.5 232.318,-144.092 228.564,-138.183"/>
</g>
</g>
</svg>
