<?xml version="1.0" encoding="UTF-8" standalone="no"?>
<!DOCTYPE svg PUBLIC "-//W3C//DTD SVG 1.1//EN"
 "http://www.w3.org/Graphics/SVG/1.1/DTD/svg11.dtd">
<!-- Generated by graphviz version 2.39.20140502.0445 (20140502.0445)
 -->
<!-- Title: realestate Pages: 1 -->
<svg width="587pt" height="642pt"
 viewBox="0.00 0.00 586.50 642.00" xmlns="http://www.w3.org/2000/svg" xmlns:xlink="http://www.w3.org/1999/xlink">
<g id="graph0" class="graph" transform="scale(1 1) rotate(0) translate(4 638)">
<title>realestate</title>
<polygon fill="white" stroke="none" points="-4,4 -4,-638 582.5,-638 582.5,4 -4,4"/>
<!-- Address -->
<g id="node1" class="node"><title>Address</title>
<g id="a_node1"><a xlink:href="javascript:Action.selectClass(&quot;Address&quot;);" xlink:title="class Address
">
<polygon fill="none" stroke="black" points="0,-0.5 0,-106.5 163,-106.5 163,-0.5 0,-0.5"/>
<text text-anchor="middle" x="81.5" y="-91.3" font-family="Times,serif" font-size="14.00">Address</text>
<polyline fill="none" stroke="black" points="0,-83.5 163,-83.5 "/>
<text text-anchor="start" x="8" y="-68.3" font-family="Times,serif" font-size="14.00">numberOnStreet : Integer</text>
<text text-anchor="start" x="8" y="-53.3" font-family="Times,serif" font-size="14.00">apartmentOrUnit : Integer</text>
<text text-anchor="start" x="8" y="-38.3" font-family="Times,serif" font-size="14.00">street : String</text>
<text text-anchor="start" x="8" y="-23.3" font-family="Times,serif" font-size="14.00">city : String</text>
<text text-anchor="start" x="8" y="-8.3" font-family="Times,serif" font-size="14.00">postalCode : String</text>
</a>
</g>
</g>
<!-- GPSCoord -->
<g id="node2" class="node"><title>GPSCoord</title>
<g id="a_node2"><a xlink:href="javascript:Action.selectClass(&quot;GPSCoord&quot;);" xlink:title="class GPSCoord
">
<polygon fill="none" stroke="black" points="181,-23 181,-84 302,-84 302,-23 181,-23"/>
<text text-anchor="middle" x="241.5" y="-68.8" font-family="Times,serif" font-size="14.00">GPSCoord</text>
<polyline fill="none" stroke="black" points="181,-61 302,-61 "/>
<text text-anchor="start" x="189" y="-45.8" font-family="Times,serif" font-size="14.00">lattitude : Double</text>
<text text-anchor="start" x="189" y="-30.8" font-family="Times,serif" font-size="14.00">longitude : Double</text>
</a>
</g>
</g>
<!-- Property -->
<g id="node3" class="node"><title>Property</title>
<g id="a_node3"><a xlink:href="javascript:Action.selectClass(&quot;Property&quot;);" xlink:title="class Property
">
<polygon fill="none" stroke="black" points="347,-414.5 347,-535.5 518,-535.5 518,-414.5 347,-414.5"/>
<text text-anchor="middle" x="432.5" y="-520.3" font-family="Times,serif" font-size="14.00">Property</text>
<polyline fill="none" stroke="black" points="347,-512.5 518,-512.5 "/>
<text text-anchor="start" x="355" y="-497.3" font-family="Times,serif" font-size="14.00">propertyAddress : Address</text>
<text text-anchor="start" x="355" y="-482.3" font-family="Times,serif" font-size="14.00">numberBedrooms : Integer</text>
<text text-anchor="start" x="355" y="-467.3" font-family="Times,serif" font-size="14.00">numberBathrooms : Integer</text>
<text text-anchor="start" x="355" y="-452.3" font-family="Times,serif" font-size="14.00">squareFeet : Integer</text>
<text text-anchor="start" x="355" y="-437.3" font-family="Times,serif" font-size="14.00">numFloors : Integer</text>
<text text-anchor="start" x="355" y="-422.3" font-family="Times,serif" font-size="14.00">gpsCoord : GPSCoord</text>
</a>
</g>
</g>
<!-- Neighbourhood -->
<g id="node4" class="node"><title>Neighbourhood</title>
<g id="a_node4"><a xlink:href="javascript:Action.selectClass(&quot;Neighbourhood&quot;);" xlink:title="class Neighbourhood
">
<polygon fill="none" stroke="black" points="261,-572.5 261,-633.5 488,-633.5 488,-572.5 261,-572.5"/>
<text text-anchor="middle" x="374.5" y="-618.3" font-family="Times,serif" font-size="14.00">Neighbourhood</text>
<polyline fill="none" stroke="black" points="261,-610.5 488,-610.5 "/>
<text text-anchor="start" x="269" y="-595.3" font-family="Times,serif" font-size="14.00">description : String</text>
<text text-anchor="start" x="269" y="-580.3" font-family="Times,serif" font-size="14.00">gpsCoordsOfBoundary : GPSCoord[]</text>
</a>
</g>
</g>
<!-- Property&#45;&gt;Neighbourhood -->
<g id="edge1" class="edge"><title>Property&#45;&gt;Neighbourhood</title>
<g id="a_edge1"><a xlink:title="Property * &#160;&#45;&#45; 1 &#160;Neighbourhood">
<path fill="none" stroke="black" d="M388.169,-572.304 393.233,-561.303 399.173,-548.401 405.029,-535.679"/>
</a>
</g>
<text text-anchor="middle" x="382.669" y="-561.104" font-family="Times,serif" font-size="14.00">1 </text>
<text text-anchor="middle" x="399.529" y="-539.479" font-family="Times,serif" font-size="14.00">* </text>
</g>
<!-- PropertySale -->
<g id="node5" class="node"><title>PropertySale</title>
<g id="a_node5"><a xlink:href="javascript:Action.selectClass(&quot;PropertySale&quot;);" xlink:title="class PropertySale
">
<polygon fill="none" stroke="black" points="460.5,-279 460.5,-355 578.5,-355 578.5,-279 460.5,-279"/>
<text text-anchor="middle" x="519.5" y="-339.8" font-family="Times,serif" font-size="14.00">PropertySale</text>
<polyline fill="none" stroke="black" points="460.5,-332 578.5,-332 "/>
<text text-anchor="start" x="468.5" y="-316.8" font-family="Times,serif" font-size="14.00">salePrice : Integer</text>
<text text-anchor="start" x="468.5" y="-301.8" font-family="Times,serif" font-size="14.00">seller : String</text>
<text text-anchor="start" x="468.5" y="-286.8" font-family="Times,serif" font-size="14.00">buyer : String</text>
</a>
</g>
</g>
<!-- PropertySale&#45;&gt;Property -->
<g id="edge2" class="edge"><title>PropertySale&#45;&gt;Property</title>
<g id="a_edge2"><a xlink:title="PropertySale * &#160;&#45;&#45; 1 &#160;Property">
<path fill="none" stroke="black" d="M465.738,-414.401 476.804,-394.559 488.808,-373.033 498.661,-355.366"/>
</a>
</g>
<text text-anchor="middle" x="460.238" y="-403.201" font-family="Times,serif" font-size="14.00">1 </text>
<text text-anchor="middle" x="493.161" y="-359.166" font-family="Times,serif" font-size="14.00">* </text>
</g>
<!-- OpenHouse -->
<g id="node6" class="node"><title>OpenHouse</title>
<g id="a_node6"><a xlink:href="javascript:Action.selectClass(&quot;OpenHouse&quot;);" xlink:title="class OpenHouse
">
<polygon fill="none" stroke="black" points="320,-15.5 320,-91.5 431,-91.5 431,-15.5 320,-15.5"/>
<text text-anchor="middle" x="375.5" y="-76.3" font-family="Times,serif" font-size="14.00">OpenHouse</text>
<polyline fill="none" stroke="black" points="320,-68.5 431,-68.5 "/>
<text text-anchor="start" x="328" y="-53.3" font-family="Times,serif" font-size="14.00">date : Date</text>
<text text-anchor="start" x="328" y="-38.3" font-family="Times,serif" font-size="14.00">startTime : Time</text>
<text text-anchor="start" x="328" y="-23.3" font-family="Times,serif" font-size="14.00">endTime : Time</text>
</a>
</g>
</g>
<!-- Agent -->
<g id="node7" class="node"><title>Agent</title>
<g id="a_node7"><a xlink:href="javascript:Action.selectClass(&quot;Agent&quot;);" xlink:title="class Agent
Positioning
">
<polygon fill="none" stroke="black" points="230.5,-256.5 230.5,-377.5 404.5,-377.5 404.5,-256.5 230.5,-256.5"/>
<text text-anchor="middle" x="317.5" y="-362.3" font-family="Times,serif" font-size="14.00">Agent</text>
<polyline fill="none" stroke="black" points="230.5,-354.5 404.5,-354.5 "/>
<text text-anchor="start" x="238.5" y="-339.3" font-family="Times,serif" font-size="14.00">name : String</text>
<text text-anchor="start" x="238.5" y="-324.3" font-family="Times,serif" font-size="14.00">licenseNumber : String</text>
<text text-anchor="start" x="238.5" y="-309.3" font-family="Times,serif" font-size="14.00">emailAddress : String</text>
<text text-anchor="start" x="238.5" y="-294.3" font-family="Times,serif" font-size="14.00">officePhoneNumber : String</text>
<text text-anchor="start" x="238.5" y="-279.3" font-family="Times,serif" font-size="14.00">cellPhoneNumber : String</text>
<text text-anchor="start" x="238.5" y="-264.3" font-family="Times,serif" font-size="14.00">officeAddress : Address</text>
</a>
</g>
</g>
<!-- OpenHouse&#45;&gt;Agent -->
<g id="edge4" class="edge"><title>OpenHouse&#45;&gt;Agent</title>
<g id="a_edge4"><a xlink:title="OpenHouse * &#160;&#45;&#45; 0..1 agentInCharge Agent">
<path fill="none" stroke="black" d="M322.968,-256.132 326.828,-222.534 333.032,-180.046 342.5,-143 346.885,-125.842 353.444,-107.41 359.561,-91.8323"/>
</a>
</g>
<text text-anchor="middle" x="376.468" y="-244.932" font-family="Times,serif" font-size="14.00">0..1 agentInCharge</text>
<text text-anchor="middle" x="354.061" y="-95.6323" font-family="Times,serif" font-size="14.00">* </text>
</g>
<!-- PropertyForSale -->
<g id="node8" class="node"><title>PropertyForSale</title>
<g id="a_node8"><a xlink:href="javascript:Action.selectClass(&quot;PropertyForSale&quot;);" xlink:title="class PropertyForSale
">
<polygon fill="none" stroke="black" points="351.5,-143.5 351.5,-219.5 507.5,-219.5 507.5,-143.5 351.5,-143.5"/>
<text text-anchor="middle" x="429.5" y="-204.3" font-family="Times,serif" font-size="14.00">PropertyForSale</text>
<polyline fill="none" stroke="black" points="351.5,-196.5 507.5,-196.5 "/>
<text text-anchor="start" x="359.5" y="-181.3" font-family="Times,serif" font-size="14.00">listingNumber : Integer</text>
<text text-anchor="start" x="359.5" y="-166.3" font-family="Times,serif" font-size="14.00">askingPrice : Integer</text>
<text text-anchor="start" x="359.5" y="-151.3" font-family="Times,serif" font-size="14.00">dateListedForSale : Date</text>
</a>
</g>
</g>
<!-- OpenHouse&#45;&gt;PropertyForSale -->
<g id="edge3" class="edge"><title>OpenHouse&#45;&gt;PropertyForSale</title>
<g id="a_edge3"><a xlink:title="OpenHouse * &#160;&#45;&#45; 1 &#160;PropertyForSale">
<path fill="none" stroke="black" d="M391.41,-91.6227C398.379,-107.883 406.54,-126.927 413.517,-143.207"/>
</a>
</g>
<text text-anchor="middle" x="408.017" y="-132.007" font-family="Times,serif" font-size="14.00">1 </text>
<text text-anchor="middle" x="385.91" y="-95.4227" font-family="Times,serif" font-size="14.00">* </text>
</g>
<!-- Agent&#45;&gt;Neighbourhood -->
<g id="edge5" class="edge"><title>Agent&#45;&gt;Neighbourhood</title>
<g id="a_edge5"><a xlink:title="Agent * &#160;&#45;&#45; * specializingNeighbourhoods Neighbourhood">
<path fill="none" stroke="black" d="M316.841,-377.544C317.868,-422.089 322.552,-484.019 338.5,-536 342.328,-548.478 348.659,-561.278 354.953,-572.245"/>
</a>
</g>
<text text-anchor="middle" x="269.453" y="-561.045" font-family="Times,serif" font-size="14.00">* specializingNeighbourhoods</text>
<text text-anchor="middle" x="311.341" y="-381.344" font-family="Times,serif" font-size="14.00">* </text>
</g>
<!-- PropertyForSale&#45;&gt;Property -->
<g id="edge6" class="edge"><title>PropertyForSale&#45;&gt;Property</title>
<g id="a_edge6"><a xlink:title="PropertyForSale * &#160;&#45;&#45; 1 listedProperty Property">
<path fill="none" stroke="black" d="M429.883,-219.715C430.388,-268.83 431.284,-355.882 431.885,-414.263"/>
</a>
</g>
<text text-anchor="middle" x="386.885" y="-403.063" font-family="Times,serif" font-size="14.00">1 listedProperty</text>
<text text-anchor="middle" x="424.383" y="-223.515" font-family="Times,serif" font-size="14.00">* </text>
</g>
<!-- PropertyForSale&#45;&gt;PropertySale -->
<g id="edge8" class="edge"><title>PropertyForSale&#45;&gt;PropertySale</title>
<g id="a_edge8"><a xlink:title="PropertyForSale 0..1 &#160;&#45;&#45; 0..1 &#160;PropertySale">
<path fill="none" stroke="black" d="M454.57,-219.687C466.949,-238.049 481.849,-260.152 494.252,-278.549"/>
</a>
</g>
<text text-anchor="middle" x="481.752" y="-267.349" font-family="Times,serif" font-size="14.00">0..1 </text>
<text text-anchor="middle" x="467.07" y="-223.487" font-family="Times,serif" font-size="14.00">0..1 </text>
</g>
<!-- PropertyForSale&#45;&gt;Agent -->
<g id="edge7" class="edge"><title>PropertyForSale&#45;&gt;Agent</title>
<g id="a_edge7"><a xlink:title="PropertyForSale * &#160;&#45;&#45; 0..1 listingAgent Agent">
<path fill="none" stroke="black" d="M367.425,-256.491 377.929,-243.97 388.722,-231.106 398.302,-219.687"/>
</a>
</g>
<text text-anchor="middle" x="414.425" y="-260.291" font-family="Times,serif" font-size="14.00">0..1 listingAgent</text>
<text text-anchor="middle" x="392.802" y="-223.487" font-family="Times,serif" font-size="14.00">* </text>
</g>
</g>
</svg>
