<?xml version="1.0" encoding="UTF-8" standalone="no"?>
<!DOCTYPE svg PUBLIC "-//W3C//DTD SVG 1.1//EN"
 "http://www.w3.org/Graphics/SVG/1.1/DTD/svg11.dtd">
<!-- Generated by graphviz version 2.29.20121108.1600 (20121108.1600)
 -->
<!-- Title: realestate Pages: 1 -->
<svg width="553pt" height="694pt"
 viewBox="0.00 0.00 552.96 694.00" xmlns="http://www.w3.org/2000/svg" xmlns:xlink="http://www.w3.org/1999/xlink">
<g id="graph0" class="graph" transform="scale(1 1) rotate(0) translate(4 690)">
<title>realestate</title>
<polygon fill="white" stroke="white" points="-4,5 -4,-690 549.961,-690 549.961,5 -4,5"/>
<!-- Address -->
<g id="node1" class="node"><title>Address</title>
<g id="a_node1"><a xlink:href="javascript:Action.selectClass(&quot;Address&quot;);" xlink:title="class Address
">
<polygon fill="none" stroke="black" points="-0.0830078,-0.6 -0.0830078,-117.4 162.083,-117.4 162.083,-0.6 -0.0830078,-0.6"/>
<text text-anchor="middle" x="81" y="-99.4" font-family="Times,serif" font-size="14.00">Address</text>
<polyline fill="none" stroke="black" points="-0.0830078,-92.6 162.083,-92.6 "/>
<text text-anchor="start" x="7.91699" y="-74.6" font-family="Times,serif" font-size="14.00">numberOnStreet : Integer</text>
<text text-anchor="start" x="7.91699" y="-57.8" font-family="Times,serif" font-size="14.00">apartmentOrUnit : Integer</text>
<text text-anchor="start" x="7.91699" y="-41" font-family="Times,serif" font-size="14.00">street : String</text>
<text text-anchor="start" x="7.91699" y="-24.2" font-family="Times,serif" font-size="14.00">city : String</text>
<text text-anchor="start" x="7.91699" y="-7.4" font-family="Times,serif" font-size="14.00">postalCode : String</text>
</a>
</g>
</g>
<!-- GPSCoord -->
<g id="node2" class="node"><title>GPSCoord</title>
<g id="a_node2"><a xlink:href="javascript:Action.selectClass(&quot;GPSCoord&quot;);" xlink:title="class GPSCoord
">
<polygon fill="none" stroke="black" points="180.507,-25.8 180.507,-92.2 301.493,-92.2 301.493,-25.8 180.507,-25.8"/>
<text text-anchor="middle" x="241" y="-74.2" font-family="Times,serif" font-size="14.00">GPSCoord</text>
<polyline fill="none" stroke="black" points="180.507,-67.4 301.493,-67.4 "/>
<text text-anchor="start" x="188.507" y="-49.4" font-family="Times,serif" font-size="14.00">lattitude : Double</text>
<text text-anchor="start" x="188.507" y="-32.6" font-family="Times,serif" font-size="14.00">longitude : Double</text>
</a>
</g>
</g>
<!-- Property -->
<g id="node3" class="node"><title>Property</title>
<g id="a_node3"><a xlink:href="javascript:Action.selectClass(&quot;Property&quot;);" xlink:title="class Property
">
<polygon fill="none" stroke="black" points="207.631,-447.2 207.631,-580.8 378.369,-580.8 378.369,-447.2 207.631,-447.2"/>
<text text-anchor="middle" x="293" y="-562.8" font-family="Times,serif" font-size="14.00">Property</text>
<polyline fill="none" stroke="black" points="207.631,-556 378.369,-556 "/>
<text text-anchor="start" x="215.631" y="-538" font-family="Times,serif" font-size="14.00">propertyAddress : Address</text>
<text text-anchor="start" x="215.631" y="-521.2" font-family="Times,serif" font-size="14.00">numberBedrooms : Integer</text>
<text text-anchor="start" x="215.631" y="-504.4" font-family="Times,serif" font-size="14.00">numberBathrooms : Integer</text>
<text text-anchor="start" x="215.631" y="-487.6" font-family="Times,serif" font-size="14.00">squareFeet : Integer</text>
<text text-anchor="start" x="215.631" y="-470.8" font-family="Times,serif" font-size="14.00">numFloors : Integer</text>
<text text-anchor="start" x="215.631" y="-454" font-family="Times,serif" font-size="14.00">gpsCoord : GPSCoord</text>
</a>
</g>
</g>
<!-- Neighbourhood -->
<g id="node4" class="node"><title>Neighbourhood</title>
<g id="a_node4"><a xlink:href="javascript:Action.selectClass(&quot;Neighbourhood&quot;);" xlink:title="class Neighbourhood
">
<polygon fill="none" stroke="black" points="253.272,-618.8 253.272,-685.2 470.728,-685.2 470.728,-618.8 253.272,-618.8"/>
<text text-anchor="middle" x="362" y="-667.2" font-family="Times,serif" font-size="14.00">Neighbourhood</text>
<polyline fill="none" stroke="black" points="253.272,-660.4 470.728,-660.4 "/>
<text text-anchor="start" x="261.272" y="-642.4" font-family="Times,serif" font-size="14.00">description : String</text>
<text text-anchor="start" x="261.272" y="-625.6" font-family="Times,serif" font-size="14.00">gpsCoordsOfBoundary : GPSCoord</text>
</a>
</g>
</g>
<!-- Property&#45;&gt;Neighbourhood -->
<g id="edge1" class="edge"><title>Property&#45;&gt;Neighbourhood</title>
<path fill="none" stroke="black" d="M326.489,-581.008C333.151,-594.137 339.862,-607.366 345.63,-618.734"/>
<text text-anchor="middle" x="340.38" y="-604.734" font-family="Times,serif" font-size="14.00">1 </text>
<text text-anchor="middle" x="321.239" y="-583.808" font-family="Times,serif" font-size="14.00">* </text>
</g>
<!-- PropertySale -->
<g id="node5" class="node"><title>PropertySale</title>
<g id="a_node5"><a xlink:href="javascript:Action.selectClass(&quot;PropertySale&quot;);" xlink:title="class PropertySale
">
<polygon fill="none" stroke="black" points="234.469,-300.4 234.469,-383.6 351.531,-383.6 351.531,-300.4 234.469,-300.4"/>
<text text-anchor="middle" x="293" y="-365.6" font-family="Times,serif" font-size="14.00">PropertySale</text>
<polyline fill="none" stroke="black" points="234.469,-358.8 351.531,-358.8 "/>
<text text-anchor="start" x="242.469" y="-340.8" font-family="Times,serif" font-size="14.00">salePrice : Integer</text>
<text text-anchor="start" x="242.469" y="-324" font-family="Times,serif" font-size="14.00">seller : String</text>
<text text-anchor="start" x="242.469" y="-307.2" font-family="Times,serif" font-size="14.00">buyer : String</text>
</a>
</g>
</g>
<!-- PropertySale&#45;&gt;Property -->
<g id="edge2" class="edge"><title>PropertySale&#45;&gt;Property</title>
<path fill="none" stroke="black" d="M293,-383.719C293,-402.677 293,-425.713 293,-447.058"/>
<text text-anchor="middle" x="298.25" y="-433.058" font-family="Times,serif" font-size="14.00">1 </text>
<text text-anchor="middle" x="298.25" y="-386.519" font-family="Times,serif" font-size="14.00">* </text>
</g>
<!-- OpenHouse -->
<g id="node6" class="node"><title>OpenHouse</title>
<g id="a_node6"><a xlink:href="javascript:Action.selectClass(&quot;OpenHouse&quot;);" xlink:title="class OpenHouse
">
<polygon fill="none" stroke="black" points="319.567,-17.4 319.567,-100.6 428.433,-100.6 428.433,-17.4 319.567,-17.4"/>
<text text-anchor="middle" x="374" y="-82.6" font-family="Times,serif" font-size="14.00">OpenHouse</text>
<polyline fill="none" stroke="black" points="319.567,-75.8 428.433,-75.8 "/>
<text text-anchor="start" x="327.567" y="-57.8" font-family="Times,serif" font-size="14.00">date : Date</text>
<text text-anchor="start" x="327.567" y="-41" font-family="Times,serif" font-size="14.00">startTime : Time</text>
<text text-anchor="start" x="327.567" y="-24.2" font-family="Times,serif" font-size="14.00">endTime : Time</text>
</a>
</g>
</g>
<!-- PropertyForSale -->
<g id="node8" class="node"><title>PropertyForSale</title>
<g id="a_node8"><a xlink:href="javascript:Action.selectClass(&quot;PropertyForSale&quot;);" xlink:title="class PropertyForSale
">
<polygon fill="none" stroke="black" points="229.41,-154.4 229.41,-237.6 384.59,-237.6 384.59,-154.4 229.41,-154.4"/>
<text text-anchor="middle" x="307" y="-219.6" font-family="Times,serif" font-size="14.00">PropertyForSale</text>
<polyline fill="none" stroke="black" points="229.41,-212.8 384.59,-212.8 "/>
<text text-anchor="start" x="237.41" y="-194.8" font-family="Times,serif" font-size="14.00">listingNumber : Integer</text>
<text text-anchor="start" x="237.41" y="-178" font-family="Times,serif" font-size="14.00">askingPrice : Integer</text>
<text text-anchor="start" x="237.41" y="-161.2" font-family="Times,serif" font-size="14.00">dateListedForSale : Date</text>
</a>
</g>
</g>
<!-- OpenHouse&#45;&gt;PropertyForSale -->
<g id="edge3" class="edge"><title>OpenHouse&#45;&gt;PropertyForSale</title>
<path fill="none" stroke="black" d="M353.716,-100.871C345.32,-117.789 335.604,-137.365 327.215,-154.268"/>
<text text-anchor="middle" x="332.465" y="-140.268" font-family="Times,serif" font-size="14.00">1 </text>
<text text-anchor="middle" x="348.466" y="-103.671" font-family="Times,serif" font-size="14.00">* </text>
</g>
<!-- Agent -->
<g id="node7" class="node"><title>Agent</title>
<g id="a_node7"><a xlink:href="javascript:Action.selectClass(&quot;Agent&quot;);" xlink:title="class Agent
Positioning
">
<polygon fill="none" stroke="black" points="369.065,-275.2 369.065,-408.8 542.935,-408.8 542.935,-275.2 369.065,-275.2"/>
<text text-anchor="middle" x="456" y="-390.8" font-family="Times,serif" font-size="14.00">Agent</text>
<polyline fill="none" stroke="black" points="369.065,-384 542.935,-384 "/>
<text text-anchor="start" x="377.065" y="-366" font-family="Times,serif" font-size="14.00">name : String</text>
<text text-anchor="start" x="377.065" y="-349.2" font-family="Times,serif" font-size="14.00">licenseNumber : String</text>
<text text-anchor="start" x="377.065" y="-332.4" font-family="Times,serif" font-size="14.00">emailAddress : String</text>
<text text-anchor="start" x="377.065" y="-315.6" font-family="Times,serif" font-size="14.00">officePhoneNumber : String</text>
<text text-anchor="start" x="377.065" y="-298.8" font-family="Times,serif" font-size="14.00">cellPhoneNumber : String</text>
<text text-anchor="start" x="377.065" y="-282" font-family="Times,serif" font-size="14.00">officeAddress : Address</text>
</a>
</g>
</g>
<!-- OpenHouse&#45;&gt;Agent -->
<g id="edge4" class="edge"><title>OpenHouse&#45;&gt;Agent</title>
<path fill="none" stroke="black" d="M385.924,-100.86C399.249,-146.525 421.018,-221.122 436.76,-275.068"/>
<text text-anchor="middle" x="383.43" y="-261.068" font-family="Times,serif" font-size="14.00">0..1 agentInCharge</text>
<text text-anchor="middle" x="380.674" y="-103.66" font-family="Times,serif" font-size="14.00">* </text>
</g>
<!-- Agent&#45;&gt;Neighbourhood -->
<g id="edge5" class="edge"><title>Agent&#45;&gt;Neighbourhood</title>
<path fill="none" stroke="black" d="M438.206,-409.043C424.915,-457.231 405.861,-523.986 387,-582 383.1,-593.996 378.478,-607.033 374.275,-618.511"/>
<text text-anchor="middle" x="459.618" y="-604.511" font-family="Times,serif" font-size="14.00">* specializingNeighbourhoods</text>
<text text-anchor="middle" x="432.956" y="-411.843" font-family="Times,serif" font-size="14.00">* </text>
</g>
<!-- PropertyForSale&#45;&gt;Property -->
<g id="edge6" class="edge"><title>PropertyForSale&#45;&gt;Property</title>
<path fill="none" stroke="black" d="M250.714,-237.887C240.264,-248.383 230.817,-260.558 225,-274 200.994,-329.473 207.614,-352.11 225,-410 228.821,-422.724 234.78,-435.326 241.617,-447.119"/>
<text text-anchor="middle" x="197.094" y="-433.119" font-family="Times,serif" font-size="14.00">1 listedProperty</text>
<text text-anchor="middle" x="245.464" y="-240.687" font-family="Times,serif" font-size="14.00">* </text>
</g>
<!-- PropertyForSale&#45;&gt;Agent -->
<g id="edge7" class="edge"><title>PropertyForSale&#45;&gt;Agent</title>
<path fill="none" stroke="black" d="M349.299,-237.879C361.258,-249.437 374.588,-262.32 387.663,-274.956"/>
<text text-anchor="middle" x="340.803" y="-277.756" font-family="Times,serif" font-size="14.00">0..1 listingAgent</text>
<text text-anchor="middle" x="354.549" y="-240.679" font-family="Times,serif" font-size="14.00">* </text>
</g>
<!-- PropertyForSale&#45;&gt;PropertySale -->
<g id="edge8" class="edge"><title>PropertyForSale&#45;&gt;PropertySale</title>
<path fill="none" stroke="black" d="M303.026,-237.879C301.134,-257.336 298.877,-280.548 296.984,-300.018"/>
<text text-anchor="middle" x="284.734" y="-286.018" font-family="Times,serif" font-size="14.00">0..1 </text>
<text text-anchor="middle" x="315.276" y="-240.679" font-family="Times,serif" font-size="14.00">0..1 </text>
</g>
</g>
</svg>
