<?xml version="1.0" encoding="UTF-8" standalone="no"?>
<!DOCTYPE svg PUBLIC "-//W3C//DTD SVG 1.1//EN"
 "http://www.w3.org/Graphics/SVG/1.1/DTD/svg11.dtd">
<!-- Generated by graphviz version 2.29.20121108.1600 (20121108.1600)
 -->
<!-- Title: RoutesAndLocations Pages: 1 -->
<svg width="729pt" height="304pt"
 viewBox="0.00 0.00 728.89 304.00" xmlns="http://www.w3.org/2000/svg" xmlns:xlink="http://www.w3.org/1999/xlink">
<g id="graph0" class="graph" transform="scale(1 1) rotate(0) translate(4 300)">
<title>RoutesAndLocations</title>
<polygon fill="white" stroke="white" points="-4,5 -4,-300 725.893,-300 725.893,5 -4,5"/>
<!-- CityMap -->
<g id="node1" class="node"><title>CityMap</title>
<g id="a_node1"><a xlink:href="javascript:Action.selectClass(&quot;CityMap&quot;);" xlink:title="class CityMap
This file describes reusable model elements that are used in the 
bCMS Crisis Management System. It is necessary to have a rudimentary
Graphical Information System such as described in this submodel as part
of bCMS in order to plan routes and to track where crises are. This file
has the necessary classes.
* A CityMap contains the precompiled streets and landmarks
 This must be read in from the database on system initialization
">
<polygon fill="none" stroke="black" points="28.1104,-1 28.1104,-37 93.8896,-37 93.8896,-1 28.1104,-1"/>
<text text-anchor="middle" x="61" y="-13.5" font-family="Times,serif" font-size="14.00">CityMap</text>
</a>
</g>
</g>
<!-- Landmark -->
<g id="node3" class="node"><title>Landmark</title>
<g id="a_node3"><a xlink:href="javascript:Action.selectClass(&quot;Landmark&quot;);" xlink:title="class Landmark
">
<polygon fill="none" stroke="black" points="-0.662109,-83.2 -0.662109,-132.8 122.662,-132.8 122.662,-83.2 -0.662109,-83.2"/>
<text text-anchor="middle" x="61" y="-114.8" font-family="Times,serif" font-size="14.00">Landmark</text>
<polyline fill="none" stroke="black" points="-0.662109,-108 122.662,-108 "/>
<text text-anchor="start" x="7.33789" y="-90" font-family="Times,serif" font-size="14.00">description : String</text>
</a>
</g>
</g>
<!-- CityMap&#45;&gt;Landmark -->
<g id="edge3" class="edge"><title>CityMap&#45;&gt;Landmark</title>
<path fill="none" stroke="black" d="M49.9925,-37.1884C47.7653,-47.402 47.0307,-60.7154 47.7887,-72.9739"/>
<polygon fill="black" stroke="black" points="48.7765,-82.9317 43.3112,-73.4248 48.2829,-77.9561 47.7893,-72.9805 47.7893,-72.9805 47.7893,-72.9805 48.2829,-77.9561 52.2673,-72.5363 48.7765,-82.9317 48.7765,-82.9317"/>
<text text-anchor="middle" x="24.8575" y="-68.9317" font-family="Times,serif" font-size="14.00">* fireStn</text>
<text text-anchor="middle" x="37.7425" y="-39.9884" font-family="Times,serif" font-size="14.00">0..1 </text>
</g>
<!-- CityMap&#45;&gt;Landmark -->
<g id="edge4" class="edge"><title>CityMap&#45;&gt;Landmark</title>
<path fill="none" stroke="black" d="M61,-37.1884C61,-47.2999 61,-60.4495 61,-72.6058"/>
<polygon fill="black" stroke="black" points="61,-82.9317 56.5001,-72.9316 61,-77.9317 61.0001,-72.9317 61.0001,-72.9317 61.0001,-72.9317 61,-77.9317 65.5001,-72.9317 61,-82.9317 61,-82.9317"/>
<text text-anchor="middle" x="92.6914" y="-68.9317" font-family="Times,serif" font-size="14.00">* policeStn</text>
<text text-anchor="middle" x="73.25" y="-39.9884" font-family="Times,serif" font-size="14.00">0..1 </text>
</g>
<!-- CityMap&#45;&gt;Landmark -->
<g id="edge5" class="edge"><title>CityMap&#45;&gt;Landmark</title>
<path fill="none" stroke="black" d="M72.0075,-37.1884C74.2347,-47.402 74.9693,-60.7154 74.2113,-72.9739"/>
<polygon fill="black" stroke="black" points="73.2235,-82.9317 69.7327,-72.5363 73.7171,-77.9561 74.2107,-72.9805 74.2107,-72.9805 74.2107,-72.9805 73.7171,-77.9561 78.6888,-73.4248 73.2235,-82.9317 73.2235,-82.9317"/>
<text text-anchor="middle" x="43.87" y="-68.9317" font-family="Times,serif" font-size="14.00">* otherLm</text>
<text text-anchor="middle" x="84.2575" y="-39.9884" font-family="Times,serif" font-size="14.00">0..1 </text>
</g>
<!-- NamedRoad -->
<g id="node7" class="node"><title>NamedRoad</title>
<g id="a_node7"><a xlink:href="javascript:Action.selectClass(&quot;NamedRoad&quot;);" xlink:title="class NamedRoad
* A named road might have the name of a street, the number of
 a highway, etc. A RoadSegment can have several names because
 for example, sometimes several numbered highways share a segment
">
<polygon fill="none" stroke="black" points="140.562,-74.8 140.562,-141.2 251.438,-141.2 251.438,-74.8 140.562,-74.8"/>
<text text-anchor="middle" x="196" y="-123.2" font-family="Times,serif" font-size="14.00">NamedRoad</text>
<polyline fill="none" stroke="black" points="140.562,-116.4 251.438,-116.4 "/>
<text text-anchor="start" x="148.562" y="-98.4" font-family="Times,serif" font-size="14.00">name : String</text>
<text text-anchor="start" x="148.562" y="-81.6" font-family="Times,serif" font-size="14.00">direction : String</text>
</a>
</g>
</g>
<!-- CityMap&#45;&gt;NamedRoad -->
<g id="edge6" class="edge"><title>CityMap&#45;&gt;NamedRoad</title>
<path fill="none" stroke="black" d="M87.6717,-37.1884C101.935,-46.3806 120.095,-58.0837 137.452,-69.2689"/>
<polygon fill="black" stroke="black" points="145.887,-74.7049 135.043,-73.0704 141.684,-71.9963 137.481,-69.2878 137.481,-69.2878 137.481,-69.2878 141.684,-71.9963 139.919,-65.5052 145.887,-74.7049 145.887,-74.7049"/>
<text text-anchor="middle" x="140.637" y="-60.7049" font-family="Times,serif" font-size="14.00">* </text>
<text text-anchor="middle" x="99.9217" y="-23.1884" font-family="Times,serif" font-size="14.00">0..1 </text>
</g>
<!-- Location -->
<g id="node2" class="node"><title>Location</title>
<g id="a_node2"><a xlink:href="javascript:Action.selectClass(&quot;Location&quot;);" xlink:title="class Location
* A Location describes a place such as an intersection, landmark, bend in a road, etc.
">
<polygon fill="none" stroke="black" points="46.7241,-203.8 46.7241,-270.2 155.276,-270.2 155.276,-203.8 46.7241,-203.8"/>
<text text-anchor="middle" x="101" y="-252.2" font-family="Times,serif" font-size="14.00">Location</text>
<polyline fill="none" stroke="black" points="46.7241,-245.4 155.276,-245.4 "/>
<text text-anchor="start" x="54.7241" y="-227.4" font-family="Times,serif" font-size="14.00">lattitude : Float</text>
<text text-anchor="start" x="54.7241" y="-210.6" font-family="Times,serif" font-size="14.00">longitude : Float</text>
</a>
</g>
</g>
<!-- Landmark&#45;&gt;Location -->
<g id="edge1" class="edge"><title>Landmark&#45;&gt;Location</title>
<path fill="none" stroke="black" d="M68.5237,-132.888C73.9304,-150.054 81.3624,-173.651 87.7525,-193.939"/>
<polygon fill="none" stroke="black" points="84.4498,-195.104 90.7923,-203.591 91.1264,-193.001 84.4498,-195.104"/>
</g>
<!-- RoadNode -->
<g id="node4" class="node"><title>RoadNode</title>
<g id="a_node4"><a xlink:href="javascript:Action.selectClass(&quot;RoadNode&quot;);" xlink:title="class RoadNode
* RoadNodes are places where RoadSegments connect. A node with just one incoming
 and one outgoing is used to handle changes in direction, e.g. as a road turns
 a corner, changes in speed limit, changes in number of lanes, and other factors.
 When there is more than one outgoing or incoming, the node represents points
 where traffic flow can split and join.
 A crossroads is one type. Entry into a roundabout would be another,
 Highway merges and exits are other kinds as are parking lots and entries
 into or out of fire stations..

 RoadSegments leaving the city lead to no RoadNode
 RoadSegments entering the city come from no RoadNode
">
<polygon fill="none" stroke="black" points="269.29,-83.2 269.29,-132.8 346.71,-132.8 346.71,-83.2 269.29,-83.2"/>
<text text-anchor="middle" x="308" y="-114.8" font-family="Times,serif" font-size="14.00">RoadNode</text>
<polyline fill="none" stroke="black" points="269.29,-108 346.71,-108 "/>
<text text-anchor="start" x="277.29" y="-90" font-family="Times,serif" font-size="14.00">id : Integer</text>
</a>
</g>
</g>
<!-- RoadNode&#45;&gt;Location -->
<g id="edge7" class="edge"><title>RoadNode&#45;&gt;Location</title>
<path fill="none" stroke="black" d="M273.843,-132.902C269.222,-136.012 264.518,-139.116 260,-142 228.89,-161.858 193.615,-182.86 164.208,-199.963"/>
<polygon fill="black" stroke="black" points="155.281,-205.141 161.674,-196.231 159.607,-202.632 163.932,-200.124 163.932,-200.124 163.932,-200.124 159.607,-202.632 166.19,-204.016 155.281,-205.141 155.281,-205.141"/>
<text text-anchor="middle" x="111.545" y="-191.141" font-family="Times,serif" font-size="14.00">1 nodeLocation</text>
<text text-anchor="middle" x="267.718" y="-135.702" font-family="Times,serif" font-size="14.00">0..1 </text>
</g>
<!-- RoadSegment -->
<g id="node8" class="node"><title>RoadSegment</title>
<g id="a_node8"><a xlink:href="javascript:Action.selectClass(&quot;RoadSegment&quot;);" xlink:title="class RoadSegment
* A RoadSegment represents a section of road on which a vehicle can drive.
 The ends of each segment have been modeled using RoadNodes.
 Note that distance can be calculated from the speed limit, and locations
">
<polygon fill="none" stroke="black" points="212.148,-178.6 212.148,-295.4 403.852,-295.4 403.852,-178.6 212.148,-178.6"/>
<text text-anchor="middle" x="308" y="-277.4" font-family="Times,serif" font-size="14.00">RoadSegment</text>
<polyline fill="none" stroke="black" points="212.148,-270.6 403.852,-270.6 "/>
<text text-anchor="start" x="220.148" y="-252.6" font-family="Times,serif" font-size="14.00">speedLimit : Integer</text>
<text text-anchor="start" x="220.148" y="-235.8" font-family="Times,serif" font-size="14.00">currentReportedSpeed : Integer</text>
<text text-anchor="start" x="220.148" y="-219" font-family="Times,serif" font-size="14.00">lanes : Integer</text>
<text text-anchor="start" x="220.148" y="-202.2" font-family="Times,serif" font-size="14.00">streetNumberAtStart : Integer</text>
<text text-anchor="start" x="220.148" y="-185.4" font-family="Times,serif" font-size="14.00">streetNumberAtEnd : Integer</text>
</a>
</g>
</g>
<!-- RoadNode&#45;&gt;RoadSegment -->
<g id="edge8" class="edge"><title>RoadNode&#45;&gt;RoadSegment</title>
<path fill="none" stroke="black" d="M302.589,-132.888C301.57,-145.821 301.133,-162.405 301.277,-178.474"/>
<text text-anchor="middle" x="252.085" y="-164.474" font-family="Times,serif" font-size="14.00">* incomingRoads</text>
<text text-anchor="middle" x="324.945" y="-135.688" font-family="Times,serif" font-size="14.00">0..1 end</text>
</g>
<!-- RoadNode&#45;&gt;RoadSegment -->
<g id="edge9" class="edge"><title>RoadNode&#45;&gt;RoadSegment</title>
<path fill="none" stroke="black" d="M313.411,-132.888C314.43,-145.821 314.867,-162.405 314.723,-178.474"/>
<text text-anchor="middle" x="362.363" y="-164.474" font-family="Times,serif" font-size="14.00">* outgoingRoads</text>
<text text-anchor="middle" x="337.713" y="-118.888" font-family="Times,serif" font-size="14.00">0..1 start</text>
</g>
<!-- Intersection -->
<g id="node5" class="node"><title>Intersection</title>
<g id="a_node5"><a xlink:href="javascript:Action.selectClass(&quot;Intersection&quot;);" xlink:title="class Intersection
">
<polygon fill="none" stroke="black" points="569.958,-1 569.958,-37 652.042,-37 652.042,-1 569.958,-1"/>
<text text-anchor="middle" x="611" y="-13.5" font-family="Times,serif" font-size="14.00">Intersection</text>
</a>
</g>
</g>
<!-- Intersection&#45;&gt;RoadNode -->
<g id="edge2" class="edge"><title>Intersection&#45;&gt;RoadNode</title>
<path fill="none" stroke="black" d="M569.543,-23.5672C517.583,-29.1856 426.651,-42.8565 355,-74 352.343,-75.1551 349.683,-76.4732 347.055,-77.9024"/>
<polygon fill="none" stroke="black" points="345.101,-74.9925 338.298,-83.1146 348.681,-81.0078 345.101,-74.9925"/>
</g>
<!-- Turn -->
<g id="node6" class="node"><title>Turn</title>
<g id="a_node6"><a xlink:href="javascript:Action.selectClass(&quot;Turn&quot;);" xlink:title="class Turn
* Turns are used to model illegal turns, e.g. turning left
 when there is &#39;no left turn&#39; allowed, or &#39;no U turn&#39; allowed.
">
<polygon fill="none" stroke="black" points="531.838,-74.8 531.838,-141.2 690.162,-141.2 690.162,-74.8 531.838,-74.8"/>
<text text-anchor="middle" x="611" y="-123.2" font-family="Times,serif" font-size="14.00">Turn</text>
<polyline fill="none" stroke="black" points="531.838,-116.4 690.162,-116.4 "/>
<text text-anchor="start" x="539.838" y="-98.4" font-family="Times,serif" font-size="14.00">turnFrom : RoadSegment</text>
<text text-anchor="start" x="539.838" y="-81.6" font-family="Times,serif" font-size="14.00">turnTo : RoadSegment</text>
</a>
</g>
</g>
<!-- Intersection&#45;&gt;Turn -->
<g id="edge10" class="edge"><title>Intersection&#45;&gt;Turn</title>
<path fill="none" stroke="black" d="M605.496,-37.1884C604.631,-45.1271 604.216,-54.9387 604.252,-64.6719"/>
<polygon fill="black" stroke="black" points="604.453,-74.7049 599.754,-64.797 604.353,-69.7059 604.253,-64.7069 604.253,-64.7069 604.253,-64.7069 604.353,-69.7059 608.752,-64.6167 604.453,-74.7049 604.453,-74.7049"/>
<text text-anchor="middle" x="565.622" y="-60.7049" font-family="Times,serif" font-size="14.00">* illegalTurns</text>
<text text-anchor="middle" x="593.246" y="-39.9884" font-family="Times,serif" font-size="14.00">0..1 </text>
</g>
<!-- Intersection&#45;&gt;Turn -->
<g id="edge11" class="edge"><title>Intersection&#45;&gt;Turn</title>
<path fill="none" stroke="black" d="M616.504,-37.1884C617.369,-45.1271 617.784,-54.9387 617.748,-64.6719"/>
<polygon fill="black" stroke="black" points="617.547,-74.7049 613.248,-64.6167 617.647,-69.7059 617.747,-64.7069 617.747,-64.7069 617.747,-64.7069 617.647,-69.7059 622.246,-64.797 617.547,-74.7049 617.547,-74.7049"/>
<text text-anchor="middle" x="669.22" y="-60.7049" font-family="Times,serif" font-size="14.00">* impossibleTurns</text>
<text text-anchor="middle" x="628.754" y="-39.9884" font-family="Times,serif" font-size="14.00">0..1 </text>
</g>
<!-- NamedRoad&#45;&gt;RoadSegment -->
<g id="edge12" class="edge"><title>NamedRoad&#45;&gt;RoadSegment</title>
<path fill="none" stroke="black" d="M224.552,-141.376C234.533,-152.694 246.059,-165.763 257.298,-178.508"/>
<text text-anchor="middle" x="218.996" y="-181.308" font-family="Times,serif" font-size="14.00">1..* segments</text>
<text text-anchor="middle" x="219.302" y="-144.176" font-family="Times,serif" font-size="14.00">* </text>
</g>
<!-- RoadSegment&#45;&gt;RoadSegment -->
<g id="edge13" class="edge"><title>RoadSegment&#45;&gt;RoadSegment</title>
<path fill="none" stroke="black" d="M404.038,-216.961C414.361,-220.82 421,-227.5 421,-237 421,-243.383 418.003,-248.492 412.905,-252.329"/>
<polygon fill="black" stroke="black" points="404.038,-257.039 410.759,-248.374 408.454,-254.693 412.87,-252.348 412.87,-252.348 412.87,-252.348 408.454,-254.693 414.981,-256.322 404.038,-257.039 404.038,-257.039"/>
<text text-anchor="middle" x="456.723" y="-243.039" font-family="Times,serif" font-size="14.00">* inverseSegments</text>
<text text-anchor="middle" x="409.288" y="-202.961" font-family="Times,serif" font-size="14.00">* </text>
</g>
<!-- Route -->
<g id="node9" class="node"><title>Route</title>
<g id="a_node9"><a xlink:href="javascript:Action.selectClass(&quot;Route&quot;);" xlink:title="class Route
* A route is a plan to get from one location to another
 It is built by algorithms that traverse the nodes and arcs of the map
 taking into account speed, congestion, etc.
">
<polygon fill="none" stroke="black" points="364.38,-83.2 364.38,-132.8 513.62,-132.8 513.62,-83.2 364.38,-83.2"/>
<text text-anchor="middle" x="439" y="-114.8" font-family="Times,serif" font-size="14.00">Route</text>
<polyline fill="none" stroke="black" points="364.38,-108 513.62,-108 "/>
<text text-anchor="start" x="372.38" y="-90" font-family="Times,serif" font-size="14.00">estimatedTime : Integer</text>
</a>
</g>
</g>
<!-- Route&#45;&gt;RoadSegment -->
<g id="edge14" class="edge"><title>Route&#45;&gt;RoadSegment</title>
<path fill="none" stroke="black" d="M414.36,-132.888C402.999,-143.901 388.908,-157.562 374.74,-171.298"/>
<polygon fill="black" stroke="black" points="367.338,-178.474 371.385,-168.283 370.927,-174.994 374.517,-171.514 374.517,-171.514 374.517,-171.514 370.927,-174.994 377.65,-174.745 367.338,-178.474 367.338,-178.474"/>
<text text-anchor="middle" x="379.588" y="-164.474" font-family="Times,serif" font-size="14.00">1..* </text>
<text text-anchor="middle" x="426.61" y="-135.688" font-family="Times,serif" font-size="14.00">0..1 </text>
</g>
</g>
</svg>
