<?xml version="1.0" encoding="UTF-8" standalone="no"?>
<!DOCTYPE svg PUBLIC "-//W3C//DTD SVG 1.1//EN"
 "http://www.w3.org/Graphics/SVG/1.1/DTD/svg11.dtd">
<!-- Generated by graphviz version 2.39.20140502.0445 (20140502.0445)
 -->
<!-- Title: RoutesAndLocations Pages: 1 -->
<svg width="734pt" height="286pt"
 viewBox="0.00 0.00 734.50 286.00" xmlns="http://www.w3.org/2000/svg" xmlns:xlink="http://www.w3.org/1999/xlink">
<g id="graph0" class="graph" transform="scale(1 1) rotate(0) translate(4 282)">
<title>RoutesAndLocations</title>
<polygon fill="white" stroke="none" points="-4,4 -4,-282 730.497,-282 730.497,4 -4,4"/>
<!-- CityMap -->
<g id="node1" class="node"><title>CityMap</title>
<g id="a_node1"><a xlink:href="javascript:Action.selectClass(&quot;CityMap&quot;);" xlink:title="class CityMap
This file describes reusable model elements that are used in the 
bCMS Crisis Management System. It is necessary to have a rudimentary
Graphical Information System such as described in this submodel as part
of bCMS in order to plan routes and to track where crises are. This file
has the necessary classes.
* A CityMap contains the precompiled streets and landmarks
 This must be read in from the database on system initialization
">
<polygon fill="none" stroke="black" points="29,-0.5 29,-36.5 95,-36.5 95,-0.5 29,-0.5"/>
<text text-anchor="middle" x="62" y="-14.8" font-family="Times,serif" font-size="14.00">CityMap</text>
</a>
</g>
</g>
<!-- Landmark -->
<g id="node3" class="node"><title>Landmark</title>
<g id="a_node3"><a xlink:href="javascript:Action.selectClass(&quot;Landmark&quot;);" xlink:title="class Landmark
">
<polygon fill="none" stroke="black" points="0,-81 0,-127 124,-127 124,-81 0,-81"/>
<text text-anchor="middle" x="62" y="-111.8" font-family="Times,serif" font-size="14.00">Landmark</text>
<polyline fill="none" stroke="black" points="0,-104 124,-104 "/>
<text text-anchor="start" x="8" y="-88.8" font-family="Times,serif" font-size="14.00">description : String</text>
</a>
</g>
</g>
<!-- CityMap&#45;&gt;Landmark -->
<g id="edge3" class="edge"><title>CityMap&#45;&gt;Landmark</title>
<g id="a_edge3"><a xlink:title="CityMap 0..1 &#160;&#45;&gt; * fireStn Landmark">
<path fill="none" stroke="black" d="M48.8145,-70.7344 48.036,-59.1802 48.7027,-46.6028 50.8145,-36.8013"/>
<polygon fill="black" stroke="black" points="49.9357,-80.9487 44.3714,-71.4995 49.3901,-75.9786 48.8445,-71.0084 48.8445,-71.0084 48.8445,-71.0084 49.3901,-75.9786 53.3176,-70.5174 49.9357,-80.9487 49.9357,-80.9487"/>
</a>
</g>
<text text-anchor="middle" x="25.9357" y="-69.7487" font-family="Times,serif" font-size="14.00">* fireStn</text>
<text text-anchor="middle" x="38.3145" y="-40.6013" font-family="Times,serif" font-size="14.00">0..1 </text>
</g>
<!-- CityMap&#45;&gt;Landmark -->
<g id="edge4" class="edge"><title>CityMap&#45;&gt;Landmark</title>
<g id="a_edge4"><a xlink:title="CityMap 0..1 &#160;&#45;&gt; * policeStn Landmark">
<path fill="none" stroke="black" d="M62,-36.8013C62,-46.6028 62,-59.1802 62,-70.7344"/>
<polygon fill="black" stroke="black" points="62,-80.9487 57.5001,-70.9487 62,-75.9487 62.0001,-70.9487 62.0001,-70.9487 62.0001,-70.9487 62,-75.9487 66.5001,-70.9488 62,-80.9487 62,-80.9487"/>
</a>
</g>
<text text-anchor="middle" x="94" y="-69.7487" font-family="Times,serif" font-size="14.00">* policeStn</text>
<text text-anchor="middle" x="74.5" y="-40.6013" font-family="Times,serif" font-size="14.00">0..1 </text>
</g>
<!-- CityMap&#45;&gt;Landmark -->
<g id="edge5" class="edge"><title>CityMap&#45;&gt;Landmark</title>
<g id="a_edge5"><a xlink:title="CityMap 0..1 &#160;&#45;&gt; * otherLm Landmark">
<path fill="none" stroke="black" d="M73.1855,-36.8013C75.2973,-46.6028 75.964,-59.1802 75.1855,-70.7344"/>
<polygon fill="black" stroke="black" points="74.0643,-80.9487 70.6824,-70.5174 74.6099,-75.9786 75.1555,-71.0084 75.1555,-71.0084 75.1555,-71.0084 74.6099,-75.9786 79.6286,-71.4995 74.0643,-80.9487 74.0643,-80.9487"/>
</a>
</g>
<text text-anchor="middle" x="103.564" y="-84.7487" font-family="Times,serif" font-size="14.00">* otherLm</text>
<text text-anchor="middle" x="85.6855" y="-40.6013" font-family="Times,serif" font-size="14.00">0..1 </text>
</g>
<!-- NamedRoad -->
<g id="node7" class="node"><title>NamedRoad</title>
<g id="a_node7"><a xlink:href="javascript:Action.selectClass(&quot;NamedRoad&quot;);" xlink:title="class NamedRoad
* A named road might have the name of a street, the number of
 a highway, etc. A RoadSegment can have several names because
 for example, sometimes several numbered highways share a segment
">
<polygon fill="none" stroke="black" points="142.5,-73.5 142.5,-134.5 253.5,-134.5 253.5,-73.5 142.5,-73.5"/>
<text text-anchor="middle" x="198" y="-119.3" font-family="Times,serif" font-size="14.00">NamedRoad</text>
<polyline fill="none" stroke="black" points="142.5,-111.5 253.5,-111.5 "/>
<text text-anchor="start" x="150.5" y="-96.3" font-family="Times,serif" font-size="14.00">name : String</text>
<text text-anchor="start" x="150.5" y="-81.3" font-family="Times,serif" font-size="14.00">direction : String</text>
</a>
</g>
</g>
<!-- CityMap&#45;&gt;NamedRoad -->
<g id="edge6" class="edge"><title>CityMap&#45;&gt;NamedRoad</title>
<g id="a_edge6"><a xlink:title="CityMap 0..1 &#160;&#45;&gt; * &#160;NamedRoad">
<path fill="none" stroke="black" d="M89.8498,-36.599C104.676,-45.7017 123.469,-57.2402 141.214,-68.1354"/>
<polygon fill="black" stroke="black" points="149.82,-73.4187 138.943,-72.0213 145.559,-70.8026 141.298,-68.1864 141.298,-68.1864 141.298,-68.1864 145.559,-70.8026 143.652,-64.3516 149.82,-73.4187 149.82,-73.4187"/>
</a>
</g>
<text text-anchor="middle" x="144.32" y="-62.2187" font-family="Times,serif" font-size="14.00">* </text>
<text text-anchor="middle" x="102.35" y="-25.399" font-family="Times,serif" font-size="14.00">0..1 </text>
</g>
<!-- Location -->
<g id="node2" class="node"><title>Location</title>
<g id="a_node2"><a xlink:href="javascript:Action.selectClass(&quot;Location&quot;);" xlink:title="class Location
* A Location describes a place such as an intersection, landmark, bend in a road, etc.
">
<polygon fill="none" stroke="black" points="47.5,-194 47.5,-255 156.5,-255 156.5,-194 47.5,-194"/>
<text text-anchor="middle" x="102" y="-239.8" font-family="Times,serif" font-size="14.00">Location</text>
<polyline fill="none" stroke="black" points="47.5,-232 156.5,-232 "/>
<text text-anchor="start" x="55.5" y="-216.8" font-family="Times,serif" font-size="14.00">lattitude : Float</text>
<text text-anchor="start" x="55.5" y="-201.8" font-family="Times,serif" font-size="14.00">longitude : Float</text>
</a>
</g>
</g>
<!-- Landmark&#45;&gt;Location -->
<g id="edge1" class="edge"><title>Landmark&#45;&gt;Location</title>
<path fill="none" stroke="black" d="M69.4299,-127.011C74.817,-142.97 82.2502,-164.991 88.6555,-183.967"/>
<polygon fill="none" stroke="black" points="85.3805,-185.209 91.895,-193.564 92.0129,-182.97 85.3805,-185.209"/>
</g>
<!-- RoadNode -->
<g id="node4" class="node"><title>RoadNode</title>
<g id="a_node4"><a xlink:href="javascript:Action.selectClass(&quot;RoadNode&quot;);" xlink:title="class RoadNode
* RoadNodes are places where RoadSegments connect. A node with just one incoming
 and one outgoing is used to handle changes in direction, e.g. as a road turns
 a corner, changes in speed limit, changes in number of lanes, and other factors.
 When there is more than one outgoing or incoming, the node represents points
 where traffic flow can split and join.
 A crossroads is one type. Entry into a roundabout would be another,
 Highway merges and exits are other kinds as are parking lots and entries
 into or out of fire stations..

 RoadSegments leaving the city lead to no RoadNode
 RoadSegments entering the city come from no RoadNode
">
<polygon fill="none" stroke="black" points="272,-81 272,-127 350,-127 350,-81 272,-81"/>
<text text-anchor="middle" x="311" y="-111.8" font-family="Times,serif" font-size="14.00">RoadNode</text>
<polyline fill="none" stroke="black" points="272,-104 350,-104 "/>
<text text-anchor="start" x="280" y="-88.8" font-family="Times,serif" font-size="14.00">id : Integer</text>
</a>
</g>
</g>
<!-- RoadNode&#45;&gt;Location -->
<g id="edge7" class="edge"><title>RoadNode&#45;&gt;Location</title>
<g id="a_edge7"><a xlink:title="RoadNode 0..1 &#160;&#45;&gt; 1 nodeLocation Location">
<path fill="none" stroke="black" d="M165.712,-189.098 195.183,-172.971 230.552,-153.312 262,-135 266.31,-132.49 270.805,-129.817 275.25,-127.139"/>
<polygon fill="black" stroke="black" points="156.767,-193.985 163.386,-185.242 161.155,-191.588 165.543,-189.191 165.543,-189.191 165.543,-189.191 161.155,-191.588 167.7,-193.14 156.767,-193.985 156.767,-193.985"/>
</a>
</g>
<text text-anchor="middle" x="112.767" y="-182.785" font-family="Times,serif" font-size="14.00">1 nodeLocation</text>
<text text-anchor="middle" x="287.75" y="-130.939" font-family="Times,serif" font-size="14.00">0..1 </text>
</g>
<!-- RoadSegment -->
<g id="node8" class="node"><title>RoadSegment</title>
<g id="a_node8"><a xlink:href="javascript:Action.selectClass(&quot;RoadSegment&quot;);" xlink:title="class RoadSegment
* A RoadSegment represents a section of road on which a vehicle can drive.
 The ends of each segment have been modeled using RoadNodes.
 Note that distance can be calculated from the speed limit, and locations
">
<polygon fill="none" stroke="black" points="215,-171.5 215,-277.5 407,-277.5 407,-171.5 215,-171.5"/>
<text text-anchor="middle" x="311" y="-262.3" font-family="Times,serif" font-size="14.00">RoadSegment</text>
<polyline fill="none" stroke="black" points="215,-254.5 407,-254.5 "/>
<text text-anchor="start" x="223" y="-239.3" font-family="Times,serif" font-size="14.00">speedLimit : Integer</text>
<text text-anchor="start" x="223" y="-224.3" font-family="Times,serif" font-size="14.00">currentReportedSpeed : Integer</text>
<text text-anchor="start" x="223" y="-209.3" font-family="Times,serif" font-size="14.00">lanes : Integer</text>
<text text-anchor="start" x="223" y="-194.3" font-family="Times,serif" font-size="14.00">streetNumberAtStart : Integer</text>
<text text-anchor="start" x="223" y="-179.3" font-family="Times,serif" font-size="14.00">streetNumberAtEnd : Integer</text>
</a>
</g>
</g>
<!-- RoadNode&#45;&gt;RoadSegment -->
<g id="edge8" class="edge"><title>RoadNode&#45;&gt;RoadSegment</title>
<g id="a_edge8"><a xlink:title="RoadNode 0..1 end &#45;&#45; * incomingRoads RoadSegment">
<path fill="none" stroke="black" d="M304.29,-171.102 304.107,-155.599 304.548,-139.461 305.612,-127.011"/>
</a>
</g>
<text text-anchor="middle" x="254.79" y="-159.902" font-family="Times,serif" font-size="14.00">* incomingRoads</text>
<text text-anchor="middle" x="328.112" y="-130.811" font-family="Times,serif" font-size="14.00">0..1 end</text>
</g>
<!-- RoadNode&#45;&gt;RoadSegment -->
<g id="edge9" class="edge"><title>RoadNode&#45;&gt;RoadSegment</title>
<g id="a_edge9"><a xlink:title="RoadNode 0..1 start &#45;&#45; * outgoingRoads RoadSegment">
<path fill="none" stroke="black" d="M316.388,-127.011C317.452,-139.461 317.893,-155.599 317.71,-171.102"/>
</a>
</g>
<text text-anchor="middle" x="365.71" y="-159.902" font-family="Times,serif" font-size="14.00">* outgoingRoads</text>
<text text-anchor="middle" x="340.888" y="-115.811" font-family="Times,serif" font-size="14.00">0..1 start</text>
</g>
<!-- Intersection -->
<g id="node5" class="node"><title>Intersection</title>
<g id="a_node5"><a xlink:href="javascript:Action.selectClass(&quot;Intersection&quot;);" xlink:title="class Intersection
">
<polygon fill="none" stroke="black" points="574.5,-0.5 574.5,-36.5 657.5,-36.5 657.5,-0.5 574.5,-0.5"/>
<text text-anchor="middle" x="616" y="-14.8" font-family="Times,serif" font-size="14.00">Intersection</text>
</a>
</g>
</g>
<!-- Intersection&#45;&gt;RoadNode -->
<g id="edge2" class="edge"><title>Intersection&#45;&gt;RoadNode</title>
<path fill="none" stroke="black" d="M351.925,-76.1466 354.279,-75.0052 356.646,-73.9454 359,-73 431.529,-43.8694 522.221,-29.7587 574.19,-23.6173"/>
<polygon fill="none" stroke="black" points="350.171,-73.1149 342.968,-80.8849 353.444,-79.3024 350.171,-73.1149"/>
</g>
<!-- Turn -->
<g id="node6" class="node"><title>Turn</title>
<g id="a_node6"><a xlink:href="javascript:Action.selectClass(&quot;Turn&quot;);" xlink:title="class Turn
* Turns are used to model illegal turns, e.g. turning left
 when there is &#39;no left turn&#39; allowed, or &#39;no U turn&#39; allowed.
">
<polygon fill="none" stroke="black" points="536.5,-73.5 536.5,-134.5 695.5,-134.5 695.5,-73.5 536.5,-73.5"/>
<text text-anchor="middle" x="616" y="-119.3" font-family="Times,serif" font-size="14.00">Turn</text>
<polyline fill="none" stroke="black" points="536.5,-111.5 695.5,-111.5 "/>
<text text-anchor="start" x="544.5" y="-96.3" font-family="Times,serif" font-size="14.00">turnFrom : RoadSegment</text>
<text text-anchor="start" x="544.5" y="-81.3" font-family="Times,serif" font-size="14.00">turnTo : RoadSegment</text>
</a>
</g>
</g>
<!-- Intersection&#45;&gt;Turn -->
<g id="edge10" class="edge"><title>Intersection&#45;&gt;Turn</title>
<g id="a_edge10"><a xlink:title="Intersection 0..1 &#160;&#45;&gt; * illegalTurns Turn">
<path fill="none" stroke="black" d="M609.255,-62.9655 609.201,-53.7569 609.585,-44.4368 610.407,-36.8013"/>
<polygon fill="black" stroke="black" points="609.503,-73.2193 604.762,-63.3309 609.382,-68.2207 609.261,-63.2222 609.261,-63.2222 609.261,-63.2222 609.382,-68.2207 613.76,-63.1134 609.503,-73.2193 609.503,-73.2193"/>
</a>
</g>
<text text-anchor="middle" x="570.003" y="-62.0193" font-family="Times,serif" font-size="14.00">* illegalTurns</text>
<text text-anchor="middle" x="597.907" y="-40.6013" font-family="Times,serif" font-size="14.00">0..1 </text>
</g>
<!-- Intersection&#45;&gt;Turn -->
<g id="edge11" class="edge"><title>Intersection&#45;&gt;Turn</title>
<g id="a_edge11"><a xlink:title="Intersection 0..1 &#160;&#45;&gt; * impossibleTurns Turn">
<path fill="none" stroke="black" d="M621.593,-36.8013C622.415,-44.4368 622.799,-53.7569 622.745,-62.9655"/>
<polygon fill="black" stroke="black" points="622.497,-73.2193 618.24,-63.1134 622.618,-68.2207 622.739,-63.2222 622.739,-63.2222 622.739,-63.2222 622.618,-68.2207 627.238,-63.3309 622.497,-73.2193 622.497,-73.2193"/>
</a>
</g>
<text text-anchor="middle" x="674.497" y="-62.0193" font-family="Times,serif" font-size="14.00">* impossibleTurns</text>
<text text-anchor="middle" x="634.093" y="-40.6013" font-family="Times,serif" font-size="14.00">0..1 </text>
</g>
<!-- NamedRoad&#45;&gt;RoadSegment -->
<g id="edge12" class="edge"><title>NamedRoad&#45;&gt;RoadSegment</title>
<g id="a_edge12"><a xlink:title="NamedRoad * &#160;&#45;&#45; 1..* segments RoadSegment">
<path fill="none" stroke="black" d="M226.223,-134.597C236.813,-145.702 249.189,-158.681 261.16,-171.234"/>
</a>
</g>
<text text-anchor="middle" x="222.66" y="-175.034" font-family="Times,serif" font-size="14.00">1..* segments</text>
<text text-anchor="middle" x="220.723" y="-138.397" font-family="Times,serif" font-size="14.00">* </text>
</g>
<!-- RoadSegment&#45;&gt;RoadSegment -->
<g id="edge13" class="edge"><title>RoadSegment&#45;&gt;RoadSegment</title>
<g id="a_edge13"><a xlink:title="RoadSegment * &#160;&#45;&gt; * inverseSegments RoadSegment">
<path fill="none" stroke="black" d="M407.058,-205.433C417.945,-209.004 425,-215.359 425,-224.5 425,-230.641 421.815,-235.526 416.423,-239.152"/>
<polygon fill="black" stroke="black" points="407.058,-243.567 414.185,-235.233 411.581,-241.435 416.104,-239.303 416.104,-239.303 416.104,-239.303 411.581,-241.435 418.022,-243.373 407.058,-243.567 407.058,-243.567"/>
</a>
</g>
<text text-anchor="middle" x="460.058" y="-232.367" font-family="Times,serif" font-size="14.00">* inverseSegments</text>
<text text-anchor="middle" x="412.558" y="-194.233" font-family="Times,serif" font-size="14.00">* </text>
</g>
<!-- Route -->
<g id="node9" class="node"><title>Route</title>
<g id="a_node9"><a xlink:href="javascript:Action.selectClass(&quot;Route&quot;);" xlink:title="class Route
* A route is a plan to get from one location to another
 It is built by algorithms that traverse the nodes and arcs of the map
 taking into account speed, congestion, etc.
">
<polygon fill="none" stroke="black" points="368,-81 368,-127 518,-127 518,-81 368,-81"/>
<text text-anchor="middle" x="443" y="-111.8" font-family="Times,serif" font-size="14.00">Route</text>
<polyline fill="none" stroke="black" points="368,-104 518,-104 "/>
<text text-anchor="start" x="376" y="-88.8" font-family="Times,serif" font-size="14.00">estimatedTime : Integer</text>
</a>
</g>
</g>
<!-- Route&#45;&gt;RoadSegment -->
<g id="edge14" class="edge"><title>Route&#45;&gt;RoadSegment</title>
<g id="a_edge14"><a xlink:title="Route 0..1 &#160;&#45;&gt; 1..* &#160;RoadSegment">
<path fill="none" stroke="black" d="M376.85,-164.385 391.724,-151.032 406.608,-137.67 418.481,-127.011"/>
<polygon fill="black" stroke="black" points="369.088,-171.352 373.524,-161.323 372.809,-168.012 376.53,-164.672 376.53,-164.672 376.53,-164.672 372.809,-168.012 379.536,-168.021 369.088,-171.352 369.088,-171.352"/>
</a>
</g>
<text text-anchor="middle" x="356.588" y="-175.152" font-family="Times,serif" font-size="14.00">1..* </text>
<text text-anchor="middle" x="405.981" y="-130.811" font-family="Times,serif" font-size="14.00">0..1 </text>
</g>
</g>
</svg>
