<?xml version="1.0" encoding="UTF-8" standalone="no"?>
<!DOCTYPE svg PUBLIC "-//W3C//DTD SVG 1.1//EN"
 "http://www.w3.org/Graphics/SVG/1.1/DTD/svg11.dtd">
<!-- Generated by graphviz version 2.40.1 (20161225.0304)
 -->
<!-- Title: RoutesAndLocations Pages: 1 -->
<svg width="763pt" height="290pt"
 viewBox="0.00 0.00 763.35 290.00" xmlns="http://www.w3.org/2000/svg" xmlns:xlink="http://www.w3.org/1999/xlink">
<g id="graph0" class="graph" transform="scale(1 1) rotate(0) translate(4 286)">
<title>RoutesAndLocations</title>
<polygon fill="#ffffff" stroke="transparent" points="-4,4 -4,-286 759.3481,-286 759.3481,4 -4,4"/>
<!-- CityMap -->
<g id="node1" class="node">
<title>CityMap</title>
<g id="a_node1"><a xlink:href="javascript:Action.selectClass(&quot;CityMap&quot;);" xlink:title="class CityMap&#10;This file describes reusable model elements that are used in the &#13;bCMS Crisis Management System. It is necessary to have a rudimentary&#13;Graphical Information System such as described in this submodel as part&#13;of bCMS in order to plan routes and to track where crises are. This file&#13;has the necessary classes.&#13;* A CityMap contains the precompiled streets and landmarks&#13; This must be read in from the database on system initialization&#13;">
<text text-anchor="start" x="25.1104" y="-13.8" font-family="Times,serif" font-size="14.00" fill="#000000"> &#160;&#160;&#160;CityMap &#160;&#160;&#160;</text>
<polygon fill="none" stroke="#000000" points="14,0 14,-36 113,-36 113,0 14,0"/>
</a>
</g>
</g>
<!-- Landmark -->
<g id="node3" class="node">
<title>Landmark</title>
<g id="a_node3"><a xlink:href="javascript:Action.selectClass(&quot;Landmark&quot;);" xlink:title="class Landmark&#10;">
<text text-anchor="start" x="21.2344" y="-106.8" font-family="Times,serif" font-size="14.00" fill="#000000"> &#160;&#160;&#160;Landmark &#160;&#160;&#160;</text>
<g id="a_node3_0"><a xlink:href="javascript:Action.selectClass(&quot;Landmark&quot;);" xlink:title="String description&#13;Name of landmark (name of fire station, business, address)&#13;">
<text text-anchor="start" x="3.3379" y="-86.8" font-family="Times,serif" font-size="14.00" fill="#000000"> &#160;description : String &#160;</text>
</a>
</g>
<polygon fill="#000000" stroke="#000000" points=".5,-100 .5,-100 127.5,-100 127.5,-100 .5,-100"/>
<polygon fill="none" stroke="#000000" points="0,-81 0,-123 127,-123 127,-81 0,-81"/>
</a>
</g>
</g>
<!-- CityMap&#45;&gt;Landmark -->
<g id="edge3" class="edge">
<title>CityMap&#45;&gt;Landmark</title>
<g id="a_edge3"><a xlink:title="CityMap 0..1 &#160;&#45;&gt; * fireStn Landmark">
<path fill="none" stroke="#000000" d="M52.1432,-36.2267C50.1035,-46.2752 49.5197,-59.0308 50.3918,-70.6289"/>
<polygon fill="#000000" stroke="#000000" points="51.602,-80.8439 45.9567,-71.4428 51.0137,-75.8787 50.4254,-70.9134 50.4254,-70.9134 50.4254,-70.9134 51.0137,-75.8787 54.8942,-70.3839 51.602,-80.8439 51.602,-80.8439"/>
</a>
</g>
<text text-anchor="middle" x="27.6831" y="-69.6439" font-family="Times,serif" font-size="14.00" fill="#000000">* fireStn</text>
<text text-anchor="middle" x="39.8932" y="-39.0267" font-family="Times,serif" font-size="14.00" fill="#000000">0..1 </text>
</g>
<!-- CityMap&#45;&gt;Landmark -->
<g id="edge4" class="edge">
<title>CityMap&#45;&gt;Landmark</title>
<g id="a_edge4"><a xlink:title="CityMap 0..1 &#160;&#45;&gt; * policeStn Landmark">
<path fill="none" stroke="#000000" d="M63.5,-36.2267C63.5,-46.2752 63.5,-59.0308 63.5,-70.6289"/>
<polygon fill="#000000" stroke="#000000" points="63.5,-80.8439 59.0001,-70.8439 63.5,-75.8439 63.5001,-70.8439 63.5001,-70.8439 63.5001,-70.8439 63.5,-75.8439 68.0001,-70.844 63.5,-80.8439 63.5,-80.8439"/>
</a>
</g>
<text text-anchor="middle" x="95.1914" y="-69.6439" font-family="Times,serif" font-size="14.00" fill="#000000">* policeStn</text>
<text text-anchor="middle" x="75.75" y="-39.0267" font-family="Times,serif" font-size="14.00" fill="#000000">0..1 </text>
</g>
<!-- CityMap&#45;&gt;Landmark -->
<g id="edge5" class="edge">
<title>CityMap&#45;&gt;Landmark</title>
<g id="a_edge5"><a xlink:title="CityMap 0..1 &#160;&#45;&gt; * otherLm Landmark">
<path fill="none" stroke="#000000" d="M74.8568,-36.2267C76.8965,-46.2752 77.4803,-59.0308 76.6082,-70.6289"/>
<polygon fill="#000000" stroke="#000000" points="75.398,-80.8439 72.1058,-70.3839 75.9863,-75.8787 76.5746,-70.9134 76.5746,-70.9134 76.5746,-70.9134 75.9863,-75.8787 81.0433,-71.4428 75.398,-80.8439 75.398,-80.8439"/>
</a>
</g>
<text text-anchor="middle" x="46.0445" y="-69.6439" font-family="Times,serif" font-size="14.00" fill="#000000">* otherLm</text>
<text text-anchor="middle" x="87.1068" y="-39.0267" font-family="Times,serif" font-size="14.00" fill="#000000">0..1 </text>
</g>
<!-- NamedRoad -->
<g id="node7" class="node">
<title>NamedRoad</title>
<g id="a_node7"><a xlink:href="javascript:Action.selectClass(&quot;NamedRoad&quot;);" xlink:title="class NamedRoad&#10;* A named road might have the name of a street, the number of&#13; a highway, etc. A RoadSegment can have several names because&#13; for example, sometimes several numbered highways share a segment&#13;">
<text text-anchor="start" x="153.5103" y="-115.8" font-family="Times,serif" font-size="14.00" fill="#000000"> &#160;&#160;&#160;NamedRoad &#160;&#160;&#160;</text>
<g id="a_node7_1"><a xlink:href="javascript:Action.selectClass(&quot;NamedRoad&quot;);" xlink:title="String name&#13;">
<text text-anchor="start" x="148.5" y="-95.8" font-family="Times,serif" font-size="14.00" fill="#000000"> &#160;name : String &#160;</text>
</a>
</g>
<g id="a_node7_2"><a xlink:href="javascript:Action.selectClass(&quot;NamedRoad&quot;);" xlink:title="String direction&#13;Most roads have two directions, e.g. North and South&#13;">
<text text-anchor="start" x="148.062" y="-77.8" font-family="Times,serif" font-size="14.00" fill="#000000"> &#160;direction : String &#160;</text>
</a>
</g>
<polygon fill="#000000" stroke="#000000" points="145.5,-109 145.5,-109 259.5,-109 259.5,-109 145.5,-109"/>
<polygon fill="none" stroke="#000000" points="145.5,-72 145.5,-132 259.5,-132 259.5,-72 145.5,-72"/>
</a>
</g>
</g>
<!-- CityMap&#45;&gt;NamedRoad -->
<g id="edge6" class="edge">
<title>CityMap&#45;&gt;NamedRoad</title>
<g id="a_edge6"><a xlink:title="CityMap 0..1 &#160;&#45;&gt; * &#160;NamedRoad">
<path fill="none" stroke="#000000" d="M93.319,-36.0201C108.0598,-44.9282 126.3822,-56.0007 143.7807,-66.515"/>
<polygon fill="#000000" stroke="#000000" points="152.7709,-71.9479 141.8849,-70.6271 148.4916,-69.3618 144.2123,-66.7758 144.2123,-66.7758 144.2123,-66.7758 148.4916,-69.3618 146.5398,-62.9244 152.7709,-71.9479 152.7709,-71.9479"/>
</a>
</g>
<text text-anchor="middle" x="147.5209" y="-60.7479" font-family="Times,serif" font-size="14.00" fill="#000000">* </text>
<text text-anchor="middle" x="105.569" y="-38.8201" font-family="Times,serif" font-size="14.00" fill="#000000">0..1 </text>
</g>
<!-- Location -->
<g id="node2" class="node">
<title>Location</title>
<g id="a_node2"><a xlink:href="javascript:Action.selectClass(&quot;Location&quot;);" xlink:title="class Location&#10;* A Location describes a place such as an intersection, landmark, bend in a road, etc.&#13;">
<text text-anchor="start" x="70.6206" y="-238.8" font-family="Times,serif" font-size="14.00" fill="#000000"> &#160;&#160;&#160;Location &#160;&#160;&#160;</text>
<g id="a_node2_3"><a xlink:href="javascript:Action.selectClass(&quot;Location&quot;);" xlink:title="Float lattitude&#13;">
<text text-anchor="start" x="56.5" y="-218.8" font-family="Times,serif" font-size="14.00" fill="#000000"> &#160;lattitude : Float &#160;</text>
</a>
</g>
<g id="a_node2_4"><a xlink:href="javascript:Action.selectClass(&quot;Location&quot;);" xlink:title="Float longitude&#13;">
<text text-anchor="start" x="56.2241" y="-200.8" font-family="Times,serif" font-size="14.00" fill="#000000"> &#160;longitude : Float &#160;</text>
</a>
</g>
<polygon fill="#000000" stroke="#000000" points="53.5,-232 53.5,-232 165.5,-232 165.5,-232 53.5,-232"/>
<polygon fill="none" stroke="#000000" points="53.5,-195 53.5,-255 165.5,-255 165.5,-195 53.5,-195"/>
</a>
</g>
</g>
<!-- Landmark&#45;&gt;Location -->
<g id="edge1" class="edge">
<title>Landmark&#45;&gt;Location</title>
<path fill="none" stroke="#000000" d="M71.4077,-123.1445C77.7943,-140.2216 86.9606,-164.7315 94.7009,-185.4286"/>
<polygon fill="none" stroke="#000000" points="91.4733,-186.7901 98.2545,-194.9305 98.0298,-184.338 91.4733,-186.7901"/>
</g>
<!-- RoadNode -->
<g id="node4" class="node">
<title>RoadNode</title>
<g id="a_node4"><a xlink:href="javascript:Action.selectClass(&quot;RoadNode&quot;);" xlink:title="class RoadNode&#10;* RoadNodes are places where RoadSegments connect. A node with just one incoming&#13; and one outgoing is used to handle changes in direction, e.g. as a road turns&#13; a corner, changes in speed limit, changes in number of lanes, and other factors.&#13; When there is more than one outgoing or incoming, the node represents points&#13; where traffic flow can split and join.&#13; A crossroads is one type. Entry into a roundabout would be another,&#13; Highway merges and exits are other kinds as are parking lots and entries&#13; into or out of fire stations..&#13;&#13; RoadSegments leaving the city lead to no RoadNode&#13; RoadSegments entering the city come from no RoadNode&#13;">
<text text-anchor="start" x="283.062" y="-106.8" font-family="Times,serif" font-size="14.00" fill="#000000"> &#160;&#160;&#160;RoadNode &#160;&#160;&#160;</text>
<g id="a_node4_5"><a xlink:href="javascript:Action.selectClass(&quot;RoadNode&quot;);" xlink:title="Integer id&#13;">
<text text-anchor="start" x="281.5" y="-86.8" font-family="Times,serif" font-size="14.00" fill="#000000"> &#160;id : Integer &#160;</text>
</a>
</g>
<polygon fill="#000000" stroke="#000000" points="278.5,-100 278.5,-100 375.5,-100 375.5,-100 278.5,-100"/>
<polygon fill="none" stroke="#000000" points="278,-81 278,-123 375,-123 375,-81 278,-81"/>
</a>
</g>
</g>
<!-- RoadNode&#45;&gt;Location -->
<g id="edge7" class="edge">
<title>RoadNode&#45;&gt;Location</title>
<g id="a_edge7"><a xlink:title="RoadNode 0..1 &#160;&#45;&gt; 1 nodeLocation Location">
<path fill="none" stroke="#000000" d="M289.1964,-123.1445C256.8871,-141.458 209.4975,-168.3194 171.4956,-189.8597"/>
<polygon fill="#000000" stroke="#000000" points="162.5495,-194.9305 169.0301,-186.0845 166.8993,-192.4649 171.2491,-189.9993 171.2491,-189.9993 171.2491,-189.9993 166.8993,-192.4649 173.4682,-193.9142 162.5495,-194.9305 162.5495,-194.9305"/>
</a>
</g>
<text text-anchor="middle" x="118.8131" y="-183.7305" font-family="Times,serif" font-size="14.00" fill="#000000">1 nodeLocation</text>
<text text-anchor="middle" x="276.9464" y="-125.9445" font-family="Times,serif" font-size="14.00" fill="#000000">0..1 </text>
</g>
<!-- RoadSegment -->
<g id="node8" class="node">
<title>RoadSegment</title>
<g id="a_node8"><a xlink:href="javascript:Action.selectClass(&quot;RoadSegment&quot;);" xlink:title="class RoadSegment&#10;* A RoadSegment represents a section of road on which a vehicle can drive.&#13; The ends of each segment have been modeled using RoadNodes.&#13; Note that distance can be calculated from the speed limit, and locations&#13;">
<text text-anchor="start" x="273.7275" y="-265.8" font-family="Times,serif" font-size="14.00" fill="#000000"> &#160;&#160;&#160;RoadSegment &#160;&#160;&#160;</text>
<g id="a_node8_6"><a xlink:href="javascript:Action.selectClass(&quot;RoadSegment&quot;);" xlink:title="Integer speedLimit&#13;">
<text text-anchor="start" x="232.5" y="-245.8" font-family="Times,serif" font-size="14.00" fill="#000000"> &#160;speedLimit : Integer &#160;</text>
</a>
</g>
<g id="a_node8_7"><a xlink:href="javascript:Action.selectClass(&quot;RoadSegment&quot;);" xlink:title="Integer currentReportedSpeed&#13;Indicator of real&#45;time congestion; 0=blocked&#13;">
<text text-anchor="start" x="232.1479" y="-227.8" font-family="Times,serif" font-size="14.00" fill="#000000"> &#160;currentReportedSpeed : Integer &#160;</text>
</a>
</g>
<g id="a_node8_8"><a xlink:href="javascript:Action.selectClass(&quot;RoadSegment&quot;);" xlink:title="Integer lanes&#13;">
<text text-anchor="start" x="232.5" y="-209.8" font-family="Times,serif" font-size="14.00" fill="#000000"> &#160;lanes : Integer &#160;</text>
</a>
</g>
<g id="a_node8_9"><a xlink:href="javascript:Action.selectClass(&quot;RoadSegment&quot;);" xlink:title="Integer streetNumberAtStart&#13;The following are used to determine addresses&#13;">
<text text-anchor="start" x="232.5" y="-191.8" font-family="Times,serif" font-size="14.00" fill="#000000"> &#160;streetNumberAtStart : Integer &#160;</text>
</a>
</g>
<g id="a_node8_10"><a xlink:href="javascript:Action.selectClass(&quot;RoadSegment&quot;);" xlink:title="Integer streetNumberAtEnd&#13;">
<text text-anchor="start" x="232.5" y="-173.8" font-family="Times,serif" font-size="14.00" fill="#000000"> &#160;streetNumberAtEnd : Integer &#160;</text>
</a>
</g>
<polygon fill="#000000" stroke="#000000" points="229.5,-259 229.5,-259 424.5,-259 424.5,-259 229.5,-259"/>
<polygon fill="none" stroke="#000000" points="229,-168 229,-282 424,-282 424,-168 229,-168"/>
</a>
</g>
</g>
<!-- RoadNode&#45;&gt;RoadSegment -->
<g id="edge8" class="edge">
<title>RoadNode&#45;&gt;RoadSegment</title>
<g id="a_edge8"><a xlink:title="RoadNode 0..1 end &#45;&#45; * incomingRoads RoadSegment">
<path fill="none" stroke="#000000" d="M321.258,-123.1445C320.1507,-135.5767 319.6532,-151.9482 319.7655,-167.9201"/>
</a>
</g>
<text text-anchor="middle" x="368.9569" y="-156.7201" font-family="Times,serif" font-size="14.00" fill="#000000">* incomingRoads</text>
<text text-anchor="middle" x="343.6149" y="-125.9445" font-family="Times,serif" font-size="14.00" fill="#000000">0..1 end</text>
</g>
<!-- RoadNode&#45;&gt;RoadSegment -->
<g id="edge9" class="edge">
<title>RoadNode&#45;&gt;RoadSegment</title>
<g id="a_edge9"><a xlink:title="RoadNode 0..1 start &#45;&#45; * outgoingRoads RoadSegment">
<path fill="none" stroke="#000000" d="M331.742,-123.1445C332.8493,-135.5767 333.3468,-151.9482 333.2345,-167.9201"/>
</a>
</g>
<text text-anchor="middle" x="285.5948" y="-156.7201" font-family="Times,serif" font-size="14.00" fill="#000000">* outgoingRoads</text>
<text text-anchor="middle" x="307.4403" y="-125.9445" font-family="Times,serif" font-size="14.00" fill="#000000">0..1 start</text>
</g>
<!-- Intersection -->
<g id="node5" class="node">
<title>Intersection</title>
<g id="a_node5"><a xlink:href="javascript:Action.selectClass(&quot;Intersection&quot;);" xlink:title="class Intersection&#10;">
<text text-anchor="start" x="598.4585" y="-13.8" font-family="Times,serif" font-size="14.00" fill="#000000"> &#160;&#160;&#160;Intersection &#160;&#160;&#160;</text>
<polygon fill="none" stroke="#000000" points="587.5,0 587.5,-36 703.5,-36 703.5,0 587.5,0"/>
</a>
</g>
</g>
<!-- Intersection&#45;&gt;RoadNode -->
<g id="edge2" class="edge">
<title>Intersection&#45;&gt;RoadNode</title>
<path fill="none" stroke="#000000" d="M587.2421,-25.2134C533.2867,-33.0072 451.3805,-47.6923 383.5,-72 379.7576,-73.3401 375.9555,-74.8865 372.1824,-76.5561"/>
<polygon fill="none" stroke="#000000" points="370.4753,-73.491 362.9139,-80.9124 373.453,-79.8262 370.4753,-73.491"/>
</g>
<!-- Turn -->
<g id="node6" class="node">
<title>Turn</title>
<g id="a_node6"><a xlink:href="javascript:Action.selectClass(&quot;Turn&quot;);" xlink:title="class Turn&#10;* Turns are used to model illegal turns, e.g. turning left&#13; when there is &#39;no left turn&#39; allowed, or &#39;no U turn&#39; allowed.&#13;">
<text text-anchor="start" x="618.2588" y="-115.8" font-family="Times,serif" font-size="14.00" fill="#000000"> &#160;&#160;&#160;Turn &#160;&#160;&#160;</text>
<g id="a_node6_11"><a xlink:href="javascript:Action.selectClass(&quot;Turn&quot;);" xlink:title="RoadSegment turnFrom&#13;">
<text text-anchor="start" x="567.3379" y="-95.8" font-family="Times,serif" font-size="14.00" fill="#000000"> &#160;turnFrom : RoadSegment &#160;</text>
</a>
</g>
<g id="a_node6_12"><a xlink:href="javascript:Action.selectClass(&quot;Turn&quot;);" xlink:title="RoadSegment turnTo&#13;">
<text text-anchor="start" x="567.5" y="-77.8" font-family="Times,serif" font-size="14.00" fill="#000000"> &#160;turnTo : RoadSegment &#160;</text>
</a>
</g>
<polygon fill="#000000" stroke="#000000" points="564.5,-109 564.5,-109 726.5,-109 726.5,-109 564.5,-109"/>
<polygon fill="none" stroke="#000000" points="564.5,-72 564.5,-132 726.5,-132 726.5,-72 564.5,-72"/>
</a>
</g>
</g>
<!-- Intersection&#45;&gt;Turn -->
<g id="edge10" class="edge">
<title>Intersection&#45;&gt;Turn</title>
<g id="a_edge10"><a xlink:title="Intersection 0..1 &#160;&#45;&gt; * illegalTurns Turn">
<path fill="none" stroke="#000000" d="M639.8216,-36.2267C639.053,-43.7993 638.6979,-52.9092 638.7562,-61.9026"/>
<polygon fill="#000000" stroke="#000000" points="638.9976,-71.9187 634.2578,-62.0301 638.8771,-66.9202 638.7565,-61.9216 638.7565,-61.9216 638.7565,-61.9216 638.8771,-66.9202 643.2552,-61.8132 638.9976,-71.9187 638.9976,-71.9187"/>
</a>
</g>
<text text-anchor="middle" x="600.1661" y="-60.7187" font-family="Times,serif" font-size="14.00" fill="#000000">* illegalTurns</text>
<text text-anchor="middle" x="627.5716" y="-39.0267" font-family="Times,serif" font-size="14.00" fill="#000000">0..1 </text>
</g>
<!-- Intersection&#45;&gt;Turn -->
<g id="edge11" class="edge">
<title>Intersection&#45;&gt;Turn</title>
<g id="a_edge11"><a xlink:title="Intersection 0..1 &#160;&#45;&gt; * impossibleTurns Turn">
<path fill="none" stroke="#000000" d="M651.1784,-36.2267C651.947,-43.7993 652.3021,-52.9092 652.2438,-61.9026"/>
<polygon fill="#000000" stroke="#000000" points="652.0024,-71.9187 647.7448,-61.8132 652.1229,-66.9202 652.2435,-61.9216 652.2435,-61.9216 652.2435,-61.9216 652.1229,-66.9202 656.7422,-62.0301 652.0024,-71.9187 652.0024,-71.9187"/>
</a>
</g>
<text text-anchor="middle" x="703.6752" y="-60.7187" font-family="Times,serif" font-size="14.00" fill="#000000">* impossibleTurns</text>
<text text-anchor="middle" x="663.4284" y="-39.0267" font-family="Times,serif" font-size="14.00" fill="#000000">0..1 </text>
</g>
<!-- NamedRoad&#45;&gt;RoadSegment -->
<g id="edge12" class="edge">
<title>NamedRoad&#45;&gt;RoadSegment</title>
<g id="a_edge12"><a xlink:title="NamedRoad * &#160;&#45;&#45; 1..* segments RoadSegment">
<path fill="none" stroke="#000000" d="M232.8338,-132.0892C243.7321,-142.8996 256.4148,-155.48 268.8618,-167.8267"/>
</a>
</g>
<text text-anchor="middle" x="230.5601" y="-156.6267" font-family="Times,serif" font-size="14.00" fill="#000000">1..* segments</text>
<text text-anchor="middle" x="227.5838" y="-134.8892" font-family="Times,serif" font-size="14.00" fill="#000000">* </text>
</g>
<!-- RoadSegment&#45;&gt;RoadSegment -->
<g id="edge13" class="edge">
<title>RoadSegment&#45;&gt;RoadSegment</title>
<g id="a_edge13"><a xlink:title="RoadSegment * &#160;&#45;&gt; * inverseSegments RoadSegment">
<path fill="none" stroke="#000000" d="M424.2445,-205.7565C435.0339,-209.4117 442,-215.8262 442,-225 442,-231.1637 438.8554,-236.0817 433.5194,-239.7542"/>
<polygon fill="#000000" stroke="#000000" points="424.2445,-244.2435 431.2849,-235.8362 428.745,-242.0651 433.2455,-239.8867 433.2455,-239.8867 433.2455,-239.8867 428.745,-242.0651 435.2061,-243.9372 424.2445,-244.2435 424.2445,-244.2435"/>
</a>
</g>
<text text-anchor="middle" x="476.9291" y="-233.0435" font-family="Times,serif" font-size="14.00" fill="#000000">* inverseSegments</text>
<text text-anchor="middle" x="429.4945" y="-194.5565" font-family="Times,serif" font-size="14.00" fill="#000000">* </text>
</g>
<!-- Route -->
<g id="node9" class="node">
<title>Route</title>
<g id="a_node9"><a xlink:href="javascript:Action.selectClass(&quot;Route&quot;);" xlink:title="class Route&#10;* A route is a plan to get from one location to another&#13; It is built by algorithms that traverse the nodes and arcs of the map&#13; taking into account speed, congestion, etc.&#13;">
<text text-anchor="start" x="439.2793" y="-106.8" font-family="Times,serif" font-size="14.00" fill="#000000"> &#160;&#160;&#160;Route &#160;&#160;&#160;</text>
<g id="a_node9_13"><a xlink:href="javascript:Action.selectClass(&quot;Route&quot;);" xlink:title="Integer estimatedTime&#13;Time seconds at current flow speeds&#13;">
<text text-anchor="start" x="396.3804" y="-86.8" font-family="Times,serif" font-size="14.00" fill="#000000"> &#160;estimatedTime : Integer &#160;</text>
</a>
</g>
<polygon fill="#000000" stroke="#000000" points="393.5,-100 393.5,-100 546.5,-100 546.5,-100 393.5,-100"/>
<polygon fill="none" stroke="#000000" points="393,-81 393,-123 546,-123 546,-81 393,-81"/>
</a>
</g>
</g>
<!-- Route&#45;&gt;RoadSegment -->
<g id="edge14" class="edge">
<title>Route&#45;&gt;RoadSegment</title>
<g id="a_edge14"><a xlink:title="Route 0..1 &#160;&#45;&gt; 1..* &#160;RoadSegment">
<path fill="none" stroke="#000000" d="M444.9174,-123.1445C432.4962,-133.8284 416.6927,-147.4216 400.7085,-161.1703"/>
<polygon fill="#000000" stroke="#000000" points="392.8612,-167.9201 397.5081,-157.9874 396.6519,-164.6595 400.4426,-161.399 400.4426,-161.399 400.4426,-161.399 396.6519,-164.6595 403.377,-164.8106 392.8612,-167.9201 392.8612,-167.9201"/>
</a>
</g>
<text text-anchor="middle" x="405.1112" y="-156.7201" font-family="Times,serif" font-size="14.00" fill="#000000">1..* </text>
<text text-anchor="middle" x="432.6674" y="-125.9445" font-family="Times,serif" font-size="14.00" fill="#000000">0..1 </text>
</g>
</g>
</svg>
