<?xml version="1.0" encoding="UTF-8" standalone="no"?>
<!DOCTYPE svg PUBLIC "-//W3C//DTD SVG 1.1//EN"
 "http://www.w3.org/Graphics/SVG/1.1/DTD/svg11.dtd">
<!-- Generated by graphviz version 2.39.20140502.0445 (20140502.0445)
 -->
<!-- Title: School Pages: 1 -->
<svg width="132pt" height="183pt"
 viewBox="0.00 0.00 132.00 183.00" xmlns="http://www.w3.org/2000/svg" xmlns:xlink="http://www.w3.org/1999/xlink">
<g id="graph0" class="graph" transform="scale(1 1) rotate(0) translate(4 179)">
<title>School</title>
<polygon fill="white" stroke="none" points="-4,4 -4,-179 128,-179 128,4 -4,4"/>
<!-- School -->
<g id="node1" class="node"><title>School</title>
<g id="a_node1"><a xlink:href="javascript:Action.selectClass(&quot;School&quot;);" xlink:title="class School
Positioning
">
<polygon fill="none" stroke="black" points="0,-0.5 0,-76.5 124,-76.5 124,-0.5 0,-0.5"/>
<text text-anchor="middle" x="62" y="-61.3" font-family="Times,serif" font-size="14.00">School</text>
<polyline fill="none" stroke="black" points="0,-53.5 124,-53.5 "/>
<text text-anchor="start" x="8" y="-38.3" font-family="Times,serif" font-size="14.00">name : String</text>
<text text-anchor="start" x="8" y="-23.3" font-family="Times,serif" font-size="14.00">address : String</text>
<text text-anchor="start" x="8" y="-8.3" font-family="Times,serif" font-size="14.00">description : String</text>
</a>
</g>
</g>
<!-- Person -->
<g id="node2" class="node"><title>Person</title>
<g id="a_node2"><a xlink:href="javascript:Action.selectClass(&quot;Person&quot;);" xlink:title="class Person
">
<polygon fill="none" stroke="black" points="0,-113.5 0,-174.5 124,-174.5 124,-113.5 0,-113.5"/>
<text text-anchor="middle" x="62" y="-159.3" font-family="Times,serif" font-size="14.00">Person</text>
<polyline fill="none" stroke="black" points="0,-151.5 124,-151.5 "/>
<text text-anchor="start" x="8" y="-136.3" font-family="Times,serif" font-size="14.00">name : String</text>
<text text-anchor="start" x="8" y="-121.3" font-family="Times,serif" font-size="14.00">idNumber : Integer</text>
</a>
</g>
</g>
<!-- School&#45;&gt;Person -->
<g id="edge1" class="edge"><title>School&#45;&gt;Person</title>
<g id="a_edge1"><a xlink:title="School 0..1 &#160;&#45;&#45; * student Person">
<path fill="none" stroke="black" d="M62,-76.5735C62,-88.6384 62,-101.864 62,-113.315"/>
</a>
</g>
<text text-anchor="middle" x="36.5" y="-102.115" font-family="Times,serif" font-size="14.00">* student</text>
<text text-anchor="middle" x="49.5" y="-80.3735" font-family="Times,serif" font-size="14.00">0..1 </text>
</g>
</g>
</svg>
