<?xml version="1.0" encoding="UTF-8" standalone="no"?>
<!DOCTYPE svg PUBLIC "-//W3C//DTD SVG 1.1//EN"
 "http://www.w3.org/Graphics/SVG/1.1/DTD/svg11.dtd">
<!-- Generated by graphviz version 2.29.20121108.1600 (20121108.1600)
 -->
<!-- Title: SpecificFlightFlat Pages: 1 -->
<svg width="627pt" height="636pt"
 viewBox="0.00 0.00 627.25 636.00" xmlns="http://www.w3.org/2000/svg" xmlns:xlink="http://www.w3.org/1999/xlink">
<g id="graph0" class="graph" transform="scale(1 1) rotate(0) translate(4 632)">
<title>SpecificFlightFlat</title>
<polygon fill="white" stroke="white" points="-4,5 -4,-632 624.245,-632 624.245,5 -4,5"/>
<!-- start_SpecificFlight_state -->
<g id="node1" class="node"><title>start_SpecificFlight_state</title>
<ellipse fill="black" stroke="black" cx="418" cy="-621" rx="7.2" ry="7.2"/>
</g>
<!-- SpecificFlight_state_planned -->
<g id="node2" class="node"><title>SpecificFlight_state_planned</title>
<path fill="none" stroke="black" d="M442,-576C442,-576 394,-576 394,-576 388,-576 382,-570 382,-564 382,-564 382,-552 382,-552 382,-546 388,-540 394,-540 394,-540 442,-540 442,-540 448,-540 454,-546 454,-552 454,-552 454,-564 454,-564 454,-570 448,-576 442,-576"/>
<text text-anchor="middle" x="418" y="-552.4" font-family="Times,serif" font-size="14.00">planned</text>
</g>
<!-- start_SpecificFlight_state&#45;&gt;SpecificFlight_state_planned -->
<g id="edge1" class="edge"><title>start_SpecificFlight_state&#45;&gt;SpecificFlight_state_planned</title>
<path fill="none" stroke="black" d="M418,-613.472C418,-606.902 418,-596.324 418,-586.229"/>
<polygon fill="black" stroke="black" points="421.5,-586.073 418,-576.073 414.5,-586.073 421.5,-586.073"/>
</g>
<!-- SpecificFlight_state_planeAssigned -->
<g id="node3" class="node"><title>SpecificFlight_state_planeAssigned</title>
<path fill="none" stroke="black" d="M455.321,-486C455.321,-486 380.679,-486 380.679,-486 374.679,-486 368.679,-480 368.679,-474 368.679,-474 368.679,-462 368.679,-462 368.679,-456 374.679,-450 380.679,-450 380.679,-450 455.321,-450 455.321,-450 461.321,-450 467.321,-456 467.321,-462 467.321,-462 467.321,-474 467.321,-474 467.321,-480 461.321,-486 455.321,-486"/>
<text text-anchor="middle" x="418" y="-462.4" font-family="Times,serif" font-size="14.00">planeAssigned</text>
</g>
<!-- SpecificFlight_state_planned&#45;&gt;SpecificFlight_state_planeAssigned -->
<g id="edge3" class="edge"><title>SpecificFlight_state_planned&#45;&gt;SpecificFlight_state_planeAssigned</title>
<path fill="none" stroke="black" d="M381.897,-545.792C359.316,-536.718 336.501,-522.427 347.896,-504 351.105,-498.812 355.341,-494.367 360.145,-490.565"/>
<polygon fill="black" stroke="black" points="362.387,-493.273 368.687,-484.755 358.45,-487.485 362.387,-493.273"/>
<text text-anchor="middle" x="381.052" y="-507.4" font-family="Times,serif" font-size="14.00">assignPlane</text>
</g>
<!-- SpecificFlight_state_cancelled -->
<g id="node10" class="node"><title>SpecificFlight_state_cancelled</title>
<path fill="none" stroke="black" d="M517,-396C517,-396 469,-396 469,-396 463,-396 457,-390 457,-384 457,-384 457,-372 457,-372 457,-366 463,-360 469,-360 469,-360 517,-360 517,-360 523,-360 529,-366 529,-372 529,-372 529,-384 529,-384 529,-390 523,-396 517,-396"/>
<text text-anchor="middle" x="493" y="-372.4" font-family="Times,serif" font-size="14.00">cancelled</text>
</g>
<!-- SpecificFlight_state_planned&#45;&gt;SpecificFlight_state_cancelled -->
<g id="edge17" class="edge"><title>SpecificFlight_state_planned&#45;&gt;SpecificFlight_state_cancelled</title>
<path fill="none" stroke="black" d="M454.251,-548.106C467.825,-542.845 481.904,-534.64 490,-522 512.403,-487.021 506.809,-436.698 500.241,-406.019"/>
<polygon fill="black" stroke="black" points="503.596,-404.991 497.922,-396.043 496.778,-406.576 503.596,-404.991"/>
<text text-anchor="middle" x="524.873" y="-462.4" font-family="Times,serif" font-size="14.00">cancel</text>
</g>
<!-- SpecificFlight_state_planeAssigned&#45;&gt;SpecificFlight_state_planned -->
<g id="edge2" class="edge"><title>SpecificFlight_state_planeAssigned&#45;&gt;SpecificFlight_state_planned</title>
<path fill="none" stroke="black" d="M418,-486.05C418,-498.342 418,-515.197 418,-529.395"/>
<polygon fill="black" stroke="black" points="414.5,-529.614 418,-539.614 421.5,-529.614 414.5,-529.614"/>
<text text-anchor="middle" x="453.373" y="-507.4" font-family="Times,serif" font-size="14.00">changePlane</text>
</g>
<!-- SpecificFlight_state_boarding -->
<g id="node5" class="node"><title>SpecificFlight_state_boarding</title>
<path fill="none" stroke="black" d="M217,-396C217,-396 169,-396 169,-396 163,-396 157,-390 157,-384 157,-384 157,-372 157,-372 157,-366 163,-360 169,-360 169,-360 217,-360 217,-360 223,-360 229,-366 229,-372 229,-372 229,-384 229,-384 229,-390 223,-396 217,-396"/>
<text text-anchor="middle" x="193" y="-372.4" font-family="Times,serif" font-size="14.00">boarding</text>
</g>
<!-- SpecificFlight_state_planeAssigned&#45;&gt;SpecificFlight_state_boarding -->
<g id="edge6" class="edge"><title>SpecificFlight_state_planeAssigned&#45;&gt;SpecificFlight_state_boarding</title>
<path fill="none" stroke="black" d="M368.829,-455.825C345.474,-449.864 317.402,-441.74 293.027,-432 271.639,-423.453 248.869,-411.624 230.466,-401.309"/>
<polygon fill="black" stroke="black" points="231.963,-398.134 221.54,-396.233 228.503,-404.219 231.963,-398.134"/>
<text text-anchor="middle" x="349.986" y="-417.4" font-family="Times,serif" font-size="14.00">readyForPassengers</text>
</g>
<!-- SpecificFlight_state_planeAssigned&#45;&gt;SpecificFlight_state_cancelled -->
<g id="edge18" class="edge"><title>SpecificFlight_state_planeAssigned&#45;&gt;SpecificFlight_state_cancelled</title>
<path fill="none" stroke="black" d="M428.464,-449.542C435.237,-438.827 444.573,-425.082 454.255,-414 457.442,-410.352 460.986,-406.702 464.601,-403.21"/>
<polygon fill="black" stroke="black" points="467.08,-405.684 472.025,-396.314 462.316,-400.555 467.08,-405.684"/>
<text text-anchor="middle" x="472.873" y="-417.4" font-family="Times,serif" font-size="14.00">cancel</text>
</g>
<!-- SpecificFlight_state_waitingForNextLeg -->
<g id="node4" class="node"><title>SpecificFlight_state_waitingForNextLeg</title>
<path fill="none" stroke="black" d="M114.316,-36C114.316,-36 11.684,-36 11.684,-36 5.68397,-36 -0.316025,-30 -0.316025,-24 -0.316025,-24 -0.316025,-12 -0.316025,-12 -0.316025,-6 5.68397,-0 11.684,-0 11.684,-0 114.316,-0 114.316,-0 120.316,-0 126.316,-6 126.316,-12 126.316,-12 126.316,-24 126.316,-24 126.316,-30 120.316,-36 114.316,-36"/>
<text text-anchor="middle" x="63" y="-12.4" font-family="Times,serif" font-size="14.00">waitingForNextLeg</text>
</g>
<!-- SpecificFlight_state_waitingForNextLeg&#45;&gt;SpecificFlight_state_boarding -->
<g id="edge7" class="edge"><title>SpecificFlight_state_waitingForNextLeg&#45;&gt;SpecificFlight_state_boarding</title>
<path fill="none" stroke="black" d="M50.8848,-36.3023C40.0941,-53.4305 26,-80.8142 26,-107 26,-289 26,-289 26,-289 26,-343.766 97.1637,-364.531 146.582,-372.348"/>
<polygon fill="black" stroke="black" points="146.364,-375.853 156.763,-373.827 147.371,-368.925 146.364,-375.853"/>
<text text-anchor="middle" x="81.9863" y="-192.4" font-family="Times,serif" font-size="14.00">readyForPassengers</text>
</g>
<!-- SpecificFlight_state_disembarking -->
<g id="node8" class="node"><title>SpecificFlight_state_disembarking</title>
<path fill="none" stroke="black" d="M262.155,-126C262.155,-126 193.845,-126 193.845,-126 187.845,-126 181.845,-120 181.845,-114 181.845,-114 181.845,-102 181.845,-102 181.845,-96 187.845,-90 193.845,-90 193.845,-90 262.155,-90 262.155,-90 268.155,-90 274.155,-96 274.155,-102 274.155,-102 274.155,-114 274.155,-114 274.155,-120 268.155,-126 262.155,-126"/>
<text text-anchor="middle" x="228" y="-102.4" font-family="Times,serif" font-size="14.00">disembarking</text>
</g>
<!-- SpecificFlight_state_waitingForNextLeg&#45;&gt;SpecificFlight_state_disembarking -->
<g id="edge10" class="edge"><title>SpecificFlight_state_waitingForNextLeg&#45;&gt;SpecificFlight_state_disembarking</title>
<path fill="none" stroke="black" d="M126.42,-24.8031C150.746,-29.6035 177.546,-38.2983 198,-54 206.806,-60.7601 213.436,-70.8909 218.192,-80.4902"/>
<polygon fill="black" stroke="black" points="215.062,-82.0643 222.336,-89.7677 221.453,-79.2096 215.062,-82.0643"/>
<text text-anchor="middle" x="238.479" y="-57.4" font-family="Times,serif" font-size="14.00">evacuate</text>
</g>
<!-- SpecificFlight_state_closedAtGate -->
<g id="node6" class="node"><title>SpecificFlight_state_closedAtGate</title>
<path fill="none" stroke="black" d="M274.145,-306C274.145,-306 205.855,-306 205.855,-306 199.855,-306 193.855,-300 193.855,-294 193.855,-294 193.855,-282 193.855,-282 193.855,-276 199.855,-270 205.855,-270 205.855,-270 274.145,-270 274.145,-270 280.145,-270 286.145,-276 286.145,-282 286.145,-282 286.145,-294 286.145,-294 286.145,-300 280.145,-306 274.145,-306"/>
<text text-anchor="middle" x="240" y="-282.4" font-family="Times,serif" font-size="14.00">closedAtGate</text>
</g>
<!-- SpecificFlight_state_boarding&#45;&gt;SpecificFlight_state_closedAtGate -->
<g id="edge8" class="edge"><title>SpecificFlight_state_boarding&#45;&gt;SpecificFlight_state_closedAtGate</title>
<path fill="none" stroke="black" d="M202.286,-359.614C209.089,-346.876 218.438,-329.372 226.125,-314.979"/>
<polygon fill="black" stroke="black" points="229.27,-316.52 230.894,-306.05 223.095,-313.222 229.27,-316.52"/>
<text text-anchor="middle" x="273.1" y="-327.4" font-family="Times,serif" font-size="14.00">boardingComplete</text>
</g>
<!-- SpecificFlight_state_boarding&#45;&gt;SpecificFlight_state_disembarking -->
<g id="edge11" class="edge"><title>SpecificFlight_state_boarding&#45;&gt;SpecificFlight_state_disembarking</title>
<path fill="none" stroke="black" d="M190.605,-359.824C188.713,-345.47 186.2,-324.444 185,-306 182.922,-274.065 178.656,-265.546 184.041,-234 190.029,-198.923 204.831,-160.597 215.608,-135.755"/>
<polygon fill="black" stroke="black" points="218.947,-136.86 219.8,-126.299 212.548,-134.023 218.947,-136.86"/>
<text text-anchor="middle" x="209.479" y="-237.4" font-family="Times,serif" font-size="14.00">evacuate</text>
</g>
<!-- SpecificFlight_state_underway -->
<g id="node7" class="node"><title>SpecificFlight_state_underway</title>
<path fill="none" stroke="black" d="M353,-216C353,-216 305,-216 305,-216 299,-216 293,-210 293,-204 293,-204 293,-192 293,-192 293,-186 299,-180 305,-180 305,-180 353,-180 353,-180 359,-180 365,-186 365,-192 365,-192 365,-204 365,-204 365,-210 359,-216 353,-216"/>
<text text-anchor="middle" x="329" y="-192.4" font-family="Times,serif" font-size="14.00">underway</text>
</g>
<!-- SpecificFlight_state_closedAtGate&#45;&gt;SpecificFlight_state_underway -->
<g id="edge9" class="edge"><title>SpecificFlight_state_closedAtGate&#45;&gt;SpecificFlight_state_underway</title>
<path fill="none" stroke="black" d="M256.235,-269.548C266.099,-259.082 279.039,-245.596 290.895,-234 294.573,-230.402 298.513,-226.662 302.414,-223.024"/>
<polygon fill="black" stroke="black" points="304.814,-225.571 309.786,-216.216 300.065,-220.428 304.814,-225.571"/>
<text text-anchor="middle" x="348.053" y="-237.4" font-family="Times,serif" font-size="14.00">permissionToDepart</text>
</g>
<!-- SpecificFlight_state_closedAtGate&#45;&gt;SpecificFlight_state_disembarking -->
<g id="edge12" class="edge"><title>SpecificFlight_state_closedAtGate&#45;&gt;SpecificFlight_state_disembarking</title>
<path fill="none" stroke="black" d="M238.778,-269.785C237.762,-255.407 236.287,-234.369 235.041,-216 233.198,-188.829 231.162,-157.772 229.756,-136.142"/>
<polygon fill="black" stroke="black" points="233.241,-135.803 229.101,-126.051 226.256,-136.256 233.241,-135.803"/>
<text text-anchor="middle" x="260.479" y="-192.4" font-family="Times,serif" font-size="14.00">evacuate</text>
</g>
<!-- SpecificFlight_state_underway&#45;&gt;SpecificFlight_state_disembarking -->
<g id="edge13" class="edge"><title>SpecificFlight_state_underway&#45;&gt;SpecificFlight_state_disembarking</title>
<path fill="none" stroke="black" d="M292.928,-183.352C281.545,-177.884 269.486,-170.77 260.041,-162 252.004,-154.538 245.285,-144.608 240.11,-135.362"/>
<polygon fill="black" stroke="black" points="243.191,-133.701 235.457,-126.46 236.987,-136.944 243.191,-133.701"/>
<text text-anchor="middle" x="285.479" y="-147.4" font-family="Times,serif" font-size="14.00">evacuate</text>
</g>
<!-- SpecificFlight_state_underway&#45;&gt;SpecificFlight_state_disembarking -->
<g id="edge14" class="edge"><title>SpecificFlight_state_underway&#45;&gt;SpecificFlight_state_disembarking</title>
<path fill="none" stroke="black" d="M326.141,-179.858C323.448,-168.454 318.368,-153.82 309,-144 301.941,-136.601 293.057,-130.682 283.779,-125.972"/>
<polygon fill="black" stroke="black" points="284.968,-122.667 274.422,-121.657 282.037,-129.023 284.968,-122.667"/>
<text text-anchor="middle" x="356.535" y="-147.4" font-family="Times,serif" font-size="14.00">arriveAtGate</text>
</g>
<!-- SpecificFlight_state_disembarking&#45;&gt;SpecificFlight_state_planeAssigned -->
<g id="edge4" class="edge"><title>SpecificFlight_state_disembarking&#45;&gt;SpecificFlight_state_planeAssigned</title>
<path fill="none" stroke="black" d="M274.086,-113.68C317.511,-118.935 378.583,-128.775 397,-144 416.657,-160.25 419,-171.496 419,-197 419,-379 419,-379 419,-379 419,-399.371 418.729,-422.393 418.469,-439.778"/>
<polygon fill="black" stroke="black" points="414.969,-439.747 418.311,-449.801 421.968,-439.858 414.969,-439.747"/>
<text text-anchor="middle" x="519.123" y="-282.4" font-family="Times,serif" font-size="14.00">passengersOut [!finished&amp;&amp;empty]</text>
</g>
<!-- SpecificFlight_state_disembarking&#45;&gt;SpecificFlight_state_waitingForNextLeg -->
<g id="edge5" class="edge"><title>SpecificFlight_state_disembarking&#45;&gt;SpecificFlight_state_waitingForNextLeg</title>
<path fill="none" stroke="black" d="M181.911,-103.478C138.716,-99.1125 78.6366,-89.9412 63.8721,-72 58.0719,-64.9519 56.6354,-55.4091 57.0518,-46.3628"/>
<polygon fill="black" stroke="black" points="60.5608,-46.4884 58.2414,-36.1506 53.6078,-45.6784 60.5608,-46.4884"/>
<text text-anchor="middle" x="131.064" y="-57.4" font-family="Times,serif" font-size="14.00">passengersOut [!empty]</text>
</g>
<!-- SpecificFlight_state_disembarking&#45;&gt;SpecificFlight_state_disembarking -->
<g id="edge15" class="edge"><title>SpecificFlight_state_disembarking&#45;&gt;SpecificFlight_state_disembarking</title>
<path fill="none" stroke="black" d="M274.312,-116.028C284.546,-115.274 292,-112.598 292,-108 292,-105.126 289.088,-103.004 284.406,-101.631"/>
<polygon fill="black" stroke="black" points="284.747,-98.1405 274.312,-99.9721 283.612,-105.048 284.747,-98.1405"/>
<text text-anchor="middle" x="316.479" y="-102.4" font-family="Times,serif" font-size="14.00">evacuate</text>
</g>
<!-- SpecificFlight_state_completed -->
<g id="node9" class="node"><title>SpecificFlight_state_completed</title>
<path fill="none" stroke="black" d="M317.233,-36C317.233,-36 266.767,-36 266.767,-36 260.767,-36 254.767,-30 254.767,-24 254.767,-24 254.767,-12 254.767,-12 254.767,-6 260.767,-0 266.767,-0 266.767,-0 317.233,-0 317.233,-0 323.233,-0 329.233,-6 329.233,-12 329.233,-12 329.233,-24 329.233,-24 329.233,-30 323.233,-36 317.233,-36"/>
<text text-anchor="middle" x="292" y="-12.4" font-family="Times,serif" font-size="14.00">completed</text>
</g>
<!-- SpecificFlight_state_disembarking&#45;&gt;SpecificFlight_state_completed -->
<g id="edge16" class="edge"><title>SpecificFlight_state_disembarking&#45;&gt;SpecificFlight_state_completed</title>
<path fill="none" stroke="black" d="M252.561,-89.8913C258.832,-84.6794 265.16,-78.5728 270,-72 275.752,-64.1898 280.31,-54.6545 283.752,-45.8358"/>
<polygon fill="black" stroke="black" points="287.085,-46.9085 287.166,-36.314 280.496,-44.5456 287.085,-46.9085"/>
<text text-anchor="middle" x="378.792" y="-57.4" font-family="Times,serif" font-size="14.00">passengersOut [finished&amp;&amp;empty]</text>
</g>
</g>
</svg>
