<?xml version="1.0" encoding="UTF-8" standalone="no"?>
<!DOCTYPE svg PUBLIC "-//W3C//DTD SVG 1.1//EN"
 "http://www.w3.org/Graphics/SVG/1.1/DTD/svg11.dtd">
<!-- Generated by graphviz version 2.39.20140502.0445 (20140502.0445)
 -->
<!-- Title: TelephoneSystem Pages: 1 -->
<svg width="540pt" height="177pt"
 viewBox="0.00 0.00 539.50 176.73" xmlns="http://www.w3.org/2000/svg" xmlns:xlink="http://www.w3.org/1999/xlink">
<g id="graph0" class="graph" transform="scale(1 1) rotate(0) translate(4 172.727)">
<title>TelephoneSystem</title>
<polygon fill="white" stroke="none" points="-4,4 -4,-172.727 535.5,-172.727 535.5,4 -4,4"/>
<!-- PhoneCall -->
<g id="node1" class="node"><title>PhoneCall</title>
<g id="a_node1"><a xlink:href="javascript:Action.selectClass(&quot;PhoneCall&quot;);" xlink:title="class PhoneCall
Positioning
">
<polygon fill="none" stroke="black" points="0,-0.5 0,-76.5 116,-76.5 116,-0.5 0,-0.5"/>
<text text-anchor="middle" x="58" y="-61.3" font-family="Times,serif" font-size="14.00">PhoneCall</text>
<polyline fill="none" stroke="black" points="0,-53.5 116,-53.5 "/>
<text text-anchor="start" x="8" y="-38.3" font-family="Times,serif" font-size="14.00">isOnHold : String</text>
<text text-anchor="start" x="8" y="-23.3" font-family="Times,serif" font-size="14.00">startTime : String</text>
<text text-anchor="start" x="8" y="-8.3" font-family="Times,serif" font-size="14.00">duration : String</text>
</a>
</g>
</g>
<!-- TelephoneNumber -->
<g id="node2" class="node"><title>TelephoneNumber</title>
<g id="a_node2"><a xlink:href="javascript:Action.selectClass(&quot;TelephoneNumber&quot;);" xlink:title="class TelephoneNumber
">
<polygon fill="none" stroke="black" points="95.5,-113.5 95.5,-159.5 216.5,-159.5 216.5,-113.5 95.5,-113.5"/>
<text text-anchor="middle" x="156" y="-144.3" font-family="Times,serif" font-size="14.00">TelephoneNumber</text>
<polyline fill="none" stroke="black" points="95.5,-136.5 216.5,-136.5 "/>
<text text-anchor="start" x="103.5" y="-121.3" font-family="Times,serif" font-size="14.00">digits : String</text>
</a>
</g>
</g>
<!-- PhoneCall&#45;&gt;TelephoneNumber -->
<g id="edge1" class="edge"><title>PhoneCall&#45;&gt;TelephoneNumber</title>
<g id="a_edge1"><a xlink:title="PhoneCall * call &#45;&#45; 1 originator TelephoneNumber">
<path fill="none" stroke="black" d="M89.296,-76.6161C101.643,-89.0681 115.678,-102.552 127.73,-113.47"/>
</a>
</g>
<text text-anchor="middle" x="94.7297" y="-102.27" font-family="Times,serif" font-size="14.00">1 originator</text>
<text text-anchor="middle" x="73.796" y="-80.4161" font-family="Times,serif" font-size="14.00">* call</text>
</g>
<!-- PhoneCall&#45;&gt;TelephoneNumber -->
<g id="edge2" class="edge"><title>PhoneCall&#45;&gt;TelephoneNumber</title>
<g id="a_edge2"><a xlink:title="PhoneCall * &#160;&#45;&#45; * parties TelephoneNumber">
<path fill="none" stroke="black" d="M102.483,-76.6161C115.558,-89.0681 129.052,-102.552 139.292,-113.47"/>
</a>
</g>
<text text-anchor="middle" x="163.292" y="-102.27" font-family="Times,serif" font-size="14.00">* parties</text>
<text text-anchor="middle" x="96.9827" y="-80.4161" font-family="Times,serif" font-size="14.00">* </text>
</g>
<!-- TelephoneNumber&#45;&gt;TelephoneNumber -->
<g id="edge3" class="edge"><title>TelephoneNumber&#45;&gt;TelephoneNumber</title>
<g id="a_edge3"><a xlink:title="TelephoneNumber 0..1 number &#45;&#45; * voicemail TelephoneNumber">
<path fill="none" stroke="black" d="M216.562,-119.273C227.141,-121.57 234.5,-127.312 234.5,-136.5 234.5,-145.688 227.141,-151.43 216.562,-153.727"/>
</a>
</g>
<text text-anchor="middle" x="249.562" y="-157.527" font-family="Times,serif" font-size="14.00">* voicemail</text>
<text text-anchor="middle" x="250.562" y="-108.073" font-family="Times,serif" font-size="14.00">0..1 number</text>
</g>
<!-- VoiceMailBox -->
<g id="node3" class="node"><title>VoiceMailBox</title>
<g id="a_node3"><a xlink:href="javascript:Action.selectClass(&quot;VoiceMailBox&quot;);" xlink:title="class VoiceMailBox
">
<polygon fill="none" stroke="black" points="276,-20.5 276,-56.5 376,-56.5 376,-20.5 276,-20.5"/>
<text text-anchor="middle" x="326" y="-34.8" font-family="Times,serif" font-size="14.00">VoiceMailBox</text>
</a>
</g>
</g>
<!-- VoiceMailBox&#45;&gt;TelephoneNumber -->
<g id="edge5" class="edge"><title>VoiceMailBox&#45;&gt;TelephoneNumber</title>
<g id="a_edge5"><a xlink:title="VoiceMailBox 1 &#160;&#45;&#45; * &#160;TelephoneNumber">
<path fill="none" stroke="black" d="M199.938,-113.386 220.516,-102.764 245.236,-89.6236 267,-77 278.024,-70.6059 289.93,-63.1485 300.14,-56.5755"/>
</a>
</g>
<text text-anchor="middle" x="194.438" y="-102.186" font-family="Times,serif" font-size="14.00">* </text>
<text text-anchor="middle" x="294.64" y="-60.3755" font-family="Times,serif" font-size="14.00">1 </text>
</g>
<!-- VoiceMailMessage -->
<g id="node4" class="node"><title>VoiceMailMessage</title>
<g id="a_node4"><a xlink:href="javascript:Action.selectClass(&quot;VoiceMailMessage&quot;);" xlink:title="class VoiceMailMessage
">
<polygon fill="none" stroke="black" points="253,-113.5 253,-159.5 399,-159.5 399,-113.5 253,-113.5"/>
<text text-anchor="middle" x="326" y="-144.3" font-family="Times,serif" font-size="14.00">VoiceMailMessage</text>
<polyline fill="none" stroke="black" points="253,-136.5 399,-136.5 "/>
<text text-anchor="start" x="261" y="-121.3" font-family="Times,serif" font-size="14.00">digitizedSound : String</text>
</a>
</g>
</g>
<!-- VoiceMailBox&#45;&gt;VoiceMailMessage -->
<g id="edge4" class="edge"><title>VoiceMailBox&#45;&gt;VoiceMailMessage</title>
<g id="a_edge4"><a xlink:title="VoiceMailBox 1 &#160;&#45;&#45; * &#160;VoiceMailMessage">
<path fill="none" stroke="black" d="M326,-56.6629C326,-72.5188 326,-96.1599 326,-113.417"/>
</a>
</g>
<text text-anchor="middle" x="320.5" y="-102.217" font-family="Times,serif" font-size="14.00">* </text>
<text text-anchor="middle" x="320.5" y="-60.4629" font-family="Times,serif" font-size="14.00">1 </text>
</g>
<!-- Feature -->
<g id="node5" class="node"><title>Feature</title>
<g id="a_node5"><a xlink:href="javascript:Action.selectClass(&quot;Feature&quot;);" xlink:title="class Feature
">
<polygon fill="none" stroke="black" points="134,-15.5 134,-61.5 258,-61.5 258,-15.5 134,-15.5"/>
<text text-anchor="middle" x="196" y="-46.3" font-family="Times,serif" font-size="14.00">Feature</text>
<polyline fill="none" stroke="black" points="134,-38.5 258,-38.5 "/>
<text text-anchor="start" x="142" y="-23.3" font-family="Times,serif" font-size="14.00">description : String</text>
</a>
</g>
</g>
<!-- Feature&#45;&gt;TelephoneNumber -->
<g id="edge6" class="edge"><title>Feature&#45;&gt;TelephoneNumber</title>
<g id="a_edge6"><a xlink:title="Feature * &#160;&#45;&#45; * &#160;TelephoneNumber">
<path fill="none" stroke="black" d="M165.227,-113.355 171.678,-97.8726 180.261,-77.2747 186.723,-61.7656"/>
</a>
</g>
<text text-anchor="middle" x="159.727" y="-117.155" font-family="Times,serif" font-size="14.00">* </text>
<text text-anchor="middle" x="181.223" y="-65.5656" font-family="Times,serif" font-size="14.00">* </text>
</g>
<!-- Telephone -->
<g id="node6" class="node"><title>Telephone</title>
<g id="a_node6"><a xlink:href="javascript:Action.selectClass(&quot;Telephone&quot;);" xlink:title="class Telephone
">
<polygon fill="none" stroke="black" points="417.5,-113.5 417.5,-159.5 514.5,-159.5 514.5,-113.5 417.5,-113.5"/>
<text text-anchor="middle" x="466" y="-144.3" font-family="Times,serif" font-size="14.00">Telephone</text>
<polyline fill="none" stroke="black" points="417.5,-136.5 514.5,-136.5 "/>
<text text-anchor="start" x="425.5" y="-121.3" font-family="Times,serif" font-size="14.00">model : String</text>
</a>
</g>
</g>
<!-- PhoneLine -->
<g id="node7" class="node"><title>PhoneLine</title>
<g id="a_node7"><a xlink:href="javascript:Action.selectClass(&quot;PhoneLine&quot;);" xlink:title="class PhoneLine
">
<polygon fill="none" stroke="black" points="396.5,-8 396.5,-69 531.5,-69 531.5,-8 396.5,-8"/>
<text text-anchor="middle" x="464" y="-53.8" font-family="Times,serif" font-size="14.00">PhoneLine</text>
<polyline fill="none" stroke="black" points="396.5,-46 531.5,-46 "/>
<text text-anchor="start" x="404.5" y="-30.8" font-family="Times,serif" font-size="14.00">location : String</text>
<text text-anchor="start" x="404.5" y="-15.8" font-family="Times,serif" font-size="14.00">digOrAnalog : String</text>
</a>
</g>
</g>
<!-- PhoneLine&#45;&gt;TelephoneNumber -->
<g id="edge7" class="edge"><title>PhoneLine&#45;&gt;TelephoneNumber</title>
<g id="a_edge7"><a xlink:title="PhoneLine * &#160;&#45;&#45; * &#160;TelephoneNumber">
<path fill="none" stroke="black" d="M216.593,-120.005 225.775,-117.657 235.139,-115.264 244,-113 306.664,-96.9893 324.169,-98.9699 385,-77 391.568,-74.6277 398.327,-71.8972 404.996,-69.0137"/>
</a>
</g>
<text text-anchor="middle" x="222.093" y="-123.805" font-family="Times,serif" font-size="14.00">* </text>
<text text-anchor="middle" x="399.496" y="-72.8137" font-family="Times,serif" font-size="14.00">* </text>
</g>
<!-- PhoneLine&#45;&gt;Telephone -->
<g id="edge8" class="edge"><title>PhoneLine&#45;&gt;Telephone</title>
<g id="a_edge8"><a xlink:title="PhoneLine 1 &#160;&#45;&#45; 0..1 &#160;Telephone">
<path fill="none" stroke="black" d="M464.616,-69.0865C464.915,-83.4104 465.267,-100.313 465.541,-113.481"/>
</a>
</g>
<text text-anchor="middle" x="453.041" y="-102.281" font-family="Times,serif" font-size="14.00">0..1 </text>
<text text-anchor="middle" x="459.116" y="-72.8865" font-family="Times,serif" font-size="14.00">1 </text>
</g>
</g>
</svg>
