<?xml version="1.0" encoding="UTF-8" standalone="no"?>
<!DOCTYPE svg PUBLIC "-//W3C//DTD SVG 1.1//EN"
 "http://www.w3.org/Graphics/SVG/1.1/DTD/svg11.dtd">
<!-- Generated by graphviz version 2.29.20121108.1600 (20121108.1600)
 -->
<!-- Title: TelephoneSystem Pages: 1 -->
<svg width="533pt" height="189pt"
 viewBox="0.00 0.00 533.00 188.92" xmlns="http://www.w3.org/2000/svg" xmlns:xlink="http://www.w3.org/1999/xlink">
<g id="graph0" class="graph" transform="scale(1 1) rotate(0) translate(4 184.924)">
<title>TelephoneSystem</title>
<polygon fill="white" stroke="white" points="-4,5 -4,-184.924 530,-184.924 530,5 -4,5"/>
<!-- PhoneCall -->
<g id="node1" class="node"><title>PhoneCall</title>
<g id="a_node1"><a xlink:href="javascript:Action.selectClass(&quot;PhoneCall&quot;);" xlink:title="class PhoneCall
Positioning
">
<polygon fill="none" stroke="black" points="-0.782715,-0.4 -0.782715,-83.6 114.783,-83.6 114.783,-0.4 -0.782715,-0.4"/>
<text text-anchor="middle" x="57" y="-65.6" font-family="Times,serif" font-size="14.00">PhoneCall</text>
<polyline fill="none" stroke="black" points="-0.782715,-58.8 114.783,-58.8 "/>
<text text-anchor="start" x="7.21729" y="-40.8" font-family="Times,serif" font-size="14.00">isOnHold : String</text>
<text text-anchor="start" x="7.21729" y="-24" font-family="Times,serif" font-size="14.00">startTime : String</text>
<text text-anchor="start" x="7.21729" y="-7.2" font-family="Times,serif" font-size="14.00">duration : String</text>
</a>
</g>
</g>
<!-- TelephoneNumber -->
<g id="node2" class="node"><title>TelephoneNumber</title>
<g id="a_node2"><a xlink:href="javascript:Action.selectClass(&quot;TelephoneNumber&quot;);" xlink:title="class TelephoneNumber
">
<polygon fill="none" stroke="black" points="93.0093,-121.2 93.0093,-170.8 212.991,-170.8 212.991,-121.2 93.0093,-121.2"/>
<text text-anchor="middle" x="153" y="-152.8" font-family="Times,serif" font-size="14.00">TelephoneNumber</text>
<polyline fill="none" stroke="black" points="93.0093,-146 212.991,-146 "/>
<text text-anchor="start" x="101.009" y="-128" font-family="Times,serif" font-size="14.00">digits : String</text>
</a>
</g>
</g>
<!-- PhoneCall&#45;&gt;TelephoneNumber -->
<g id="edge1" class="edge"><title>PhoneCall&#45;&gt;TelephoneNumber</title>
<path fill="none" stroke="black" d="M88.5938,-83.6062C100.204,-96.2729 113.231,-109.833 124.563,-120.979"/>
<text text-anchor="middle" x="91.7097" y="-106.979" font-family="Times,serif" font-size="14.00">1 originator</text>
<text text-anchor="middle" x="103.947" y="-86.4062" font-family="Times,serif" font-size="14.00">* call</text>
</g>
<!-- PhoneCall&#45;&gt;TelephoneNumber -->
<g id="edge2" class="edge"><title>PhoneCall&#45;&gt;TelephoneNumber</title>
<path fill="none" stroke="black" d="M101.841,-83.6062C114.074,-96.2729 126.572,-109.833 136.22,-120.979"/>
<text text-anchor="middle" x="160.129" y="-106.979" font-family="Times,serif" font-size="14.00">* parties</text>
<text text-anchor="middle" x="96.5914" y="-69.6062" font-family="Times,serif" font-size="14.00">* </text>
</g>
<!-- TelephoneNumber&#45;&gt;TelephoneNumber -->
<g id="edge3" class="edge"><title>TelephoneNumber&#45;&gt;TelephoneNumber</title>
<path fill="none" stroke="black" d="M213.049,-127.876C223.079,-130.412 230,-136.453 230,-146 230,-155.547 223.079,-161.588 213.049,-164.124"/>
<text text-anchor="middle" x="245.899" y="-166.924" font-family="Times,serif" font-size="14.00">* voicemail</text>
<text text-anchor="middle" x="246.682" y="-113.876" font-family="Times,serif" font-size="14.00">0..1 number</text>
</g>
<!-- VoiceMailBox -->
<g id="node3" class="node"><title>VoiceMailBox</title>
<g id="a_node3"><a xlink:href="javascript:Action.selectClass(&quot;VoiceMailBox&quot;);" xlink:title="class VoiceMailBox
">
<polygon fill="none" stroke="black" points="273.299,-24 273.299,-60 370.701,-60 370.701,-24 273.299,-24"/>
<text text-anchor="middle" x="322" y="-36.5" font-family="Times,serif" font-size="14.00">VoiceMailBox</text>
</a>
</g>
</g>
<!-- VoiceMailMessage -->
<g id="node4" class="node"><title>VoiceMailMessage</title>
<g id="a_node4"><a xlink:href="javascript:Action.selectClass(&quot;VoiceMailMessage&quot;);" xlink:title="class VoiceMailMessage
">
<polygon fill="none" stroke="black" points="249.055,-121.2 249.055,-170.8 394.945,-170.8 394.945,-121.2 249.055,-121.2"/>
<text text-anchor="middle" x="322" y="-152.8" font-family="Times,serif" font-size="14.00">VoiceMailMessage</text>
<polyline fill="none" stroke="black" points="249.055,-146 394.945,-146 "/>
<text text-anchor="start" x="257.055" y="-128" font-family="Times,serif" font-size="14.00">digitizedSound : String</text>
</a>
</g>
</g>
<!-- VoiceMailBox&#45;&gt;VoiceMailMessage -->
<g id="edge4" class="edge"><title>VoiceMailBox&#45;&gt;VoiceMailMessage</title>
<path fill="none" stroke="black" d="M322,-60.3029C322,-77.0133 322,-102.46 322,-121.1"/>
<text text-anchor="middle" x="316.75" y="-107.1" font-family="Times,serif" font-size="14.00">* </text>
<text text-anchor="middle" x="316.75" y="-63.1029" font-family="Times,serif" font-size="14.00">1 </text>
</g>
<!-- VoiceMailBox&#45;&gt;TelephoneNumber -->
<g id="edge5" class="edge"><title>VoiceMailBox&#45;&gt;TelephoneNumber</title>
<path fill="none" stroke="black" d="M298.984,-60.1704C288.499,-67.7567 275.814,-76.611 264,-84 243.213,-97.001 219.477,-110.249 199.303,-121.062"/>
<text text-anchor="middle" x="204.553" y="-107.062" font-family="Times,serif" font-size="14.00">* </text>
<text text-anchor="middle" x="293.734" y="-62.9704" font-family="Times,serif" font-size="14.00">1 </text>
</g>
<!-- Feature -->
<g id="node5" class="node"><title>Feature</title>
<g id="a_node5"><a xlink:href="javascript:Action.selectClass(&quot;Feature&quot;);" xlink:title="class Feature
">
<polygon fill="none" stroke="black" points="132.338,-17.2 132.338,-66.8 255.662,-66.8 255.662,-17.2 132.338,-17.2"/>
<text text-anchor="middle" x="194" y="-48.8" font-family="Times,serif" font-size="14.00">Feature</text>
<polyline fill="none" stroke="black" points="132.338,-42 255.662,-42 "/>
<text text-anchor="start" x="140.338" y="-24" font-family="Times,serif" font-size="14.00">description : String</text>
</a>
</g>
</g>
<!-- Feature&#45;&gt;TelephoneNumber -->
<g id="edge6" class="edge"><title>Feature&#45;&gt;TelephoneNumber</title>
<path fill="none" stroke="black" d="M184.387,-66.9145C177.855,-83.1662 169.244,-104.587 162.695,-120.882"/>
<text text-anchor="middle" x="157.445" y="-106.882" font-family="Times,serif" font-size="14.00">* </text>
<text text-anchor="middle" x="189.637" y="-69.7145" font-family="Times,serif" font-size="14.00">* </text>
</g>
<!-- Telephone -->
<g id="node6" class="node"><title>Telephone</title>
<g id="a_node6"><a xlink:href="javascript:Action.selectClass(&quot;Telephone&quot;);" xlink:title="class Telephone
">
<polygon fill="none" stroke="black" points="412.945,-121.2 412.945,-170.8 509.055,-170.8 509.055,-121.2 412.945,-121.2"/>
<text text-anchor="middle" x="461" y="-152.8" font-family="Times,serif" font-size="14.00">Telephone</text>
<polyline fill="none" stroke="black" points="412.945,-146 509.055,-146 "/>
<text text-anchor="start" x="420.945" y="-128" font-family="Times,serif" font-size="14.00">model : String</text>
</a>
</g>
</g>
<!-- PhoneLine -->
<g id="node7" class="node"><title>PhoneLine</title>
<g id="a_node7"><a xlink:href="javascript:Action.selectClass(&quot;PhoneLine&quot;);" xlink:title="class PhoneLine
">
<polygon fill="none" stroke="black" points="390.503,-8.8 390.503,-75.2 525.497,-75.2 525.497,-8.8 390.503,-8.8"/>
<text text-anchor="middle" x="458" y="-57.2" font-family="Times,serif" font-size="14.00">PhoneLine</text>
<polyline fill="none" stroke="black" points="390.503,-50.4 525.497,-50.4 "/>
<text text-anchor="start" x="398.503" y="-32.4" font-family="Times,serif" font-size="14.00">location : String</text>
<text text-anchor="start" x="398.503" y="-15.6" font-family="Times,serif" font-size="14.00">digOrAnalog : String</text>
</a>
</g>
</g>
<!-- PhoneLine&#45;&gt;TelephoneNumber -->
<g id="edge7" class="edge"><title>PhoneLine&#45;&gt;TelephoneNumber</title>
<path fill="none" stroke="black" d="M399.134,-75.368C392.44,-78.5019 385.637,-81.4556 379,-84 319.412,-106.843 301.561,-103.186 240,-120 231.359,-122.36 222.252,-124.909 213.317,-127.445"/>
<text text-anchor="middle" x="218.567" y="-130.245" font-family="Times,serif" font-size="14.00">* </text>
<text text-anchor="middle" x="393.884" y="-78.168" font-family="Times,serif" font-size="14.00">* </text>
</g>
<!-- PhoneLine&#45;&gt;Telephone -->
<g id="edge8" class="edge"><title>PhoneLine&#45;&gt;Telephone</title>
<path fill="none" stroke="black" d="M458.949,-75.2734C459.385,-90.0981 459.893,-107.374 460.295,-121.021"/>
<text text-anchor="middle" x="448.045" y="-107.021" font-family="Times,serif" font-size="14.00">0..1 </text>
<text text-anchor="middle" x="453.699" y="-78.0734" font-family="Times,serif" font-size="14.00">1 </text>
</g>
</g>
</svg>
