<?xml version="1.0" encoding="UTF-8" standalone="no"?>
<!DOCTYPE svg PUBLIC "-//W3C//DTD SVG 1.1//EN"
 "http://www.w3.org/Graphics/SVG/1.1/DTD/svg11.dtd">
<!-- Generated by graphviz version 2.29.20121108.1600 (20121108.1600)
 -->
<!-- Title: UniversitySystem Pages: 1 -->
<svg width="393pt" height="120pt"
 viewBox="0.00 0.00 392.56 120.00" xmlns="http://www.w3.org/2000/svg" xmlns:xlink="http://www.w3.org/1999/xlink">
<g id="graph0" class="graph" transform="scale(1 1) rotate(0) translate(4 116)">
<title>UniversitySystem</title>
<polygon fill="white" stroke="white" points="-4,5 -4,-116 389.562,-116 389.562,5 -4,5"/>
<!-- Course -->
<g id="node1" class="node"><title>Course</title>
<g id="a_node1"><a xlink:href="javascript:Action.selectClass(&quot;Course&quot;);" xlink:title="class Course
">
<polygon fill="none" stroke="black" points="97.702,-75 97.702,-111 153.364,-111 153.364,-75 97.702,-75"/>
<text text-anchor="middle" x="125.533" y="-87.5" font-family="Times,serif" font-size="14.00">Course</text>
</a>
</g>
</g>
<!-- Topic -->
<g id="node2" class="node"><title>Topic</title>
<g id="a_node2"><a xlink:href="javascript:Action.selectClass(&quot;Topic&quot;);" xlink:title="class Topic
">
<polygon fill="none" stroke="black" points="213.533,-75 213.533,-111 267.533,-111 267.533,-75 213.533,-75"/>
<text text-anchor="middle" x="240.372" y="-87.5" font-family="Times,serif" font-size="14.00">Topic</text>
</a>
</g>
</g>
<!-- PrerequisiteReason -->
<g id="node3" class="node"><title>PrerequisiteReason</title>
<g id="a_node3"><a xlink:href="javascript:Action.selectClass(&quot;PrerequisiteReason&quot;);" xlink:title="class PrerequisiteReason
association PrerequisiteReason { 
 Course successor;
 Course prerequisite;
}
">
<polygon fill="none" stroke="black" points="42.4916,-1 42.4916,-37 166.575,-37 166.575,-1 42.4916,-1"/>
<text text-anchor="middle" x="104.533" y="-13.5" font-family="Times,serif" font-size="14.00">PrerequisiteReason</text>
</a>
</g>
</g>
<!-- PrerequisiteReason&#45;&gt;Course -->
<g id="edge1" class="edge"><title>PrerequisiteReason&#45;&gt;Course</title>
<path fill="none" stroke="black" d="M103.67,-37.063C105.769,-48.374 110.072,-63.1718 114.567,-74.5593"/>
<text text-anchor="middle" x="82.4926" y="-60.5593" font-family="Times,serif" font-size="14.00">1 successor</text>
<text text-anchor="middle" x="68.4819" y="-39.863" font-family="Times,serif" font-size="14.00">* sucReason</text>
</g>
<!-- PrerequisiteReason&#45;&gt;Course -->
<g id="edge2" class="edge"><title>PrerequisiteReason&#45;&gt;Course</title>
<path fill="none" stroke="black" d="M115.35,-37.063C119.849,-48.374 124.178,-63.1718 126.326,-74.5593"/>
<text text-anchor="middle" x="164.617" y="-60.5593" font-family="Times,serif" font-size="14.00">1 prerequisite</text>
<text text-anchor="middle" x="150.145" y="-39.863" font-family="Times,serif" font-size="14.00">* preReason</text>
</g>
<!-- PrerequisiteReason&#45;&gt;Topic -->
<g id="edge3" class="edge"><title>PrerequisiteReason&#45;&gt;Topic</title>
<path fill="none" stroke="black" d="M136.763,-37.063C160.014,-49.3721 191.064,-65.8103 213.124,-77.4893"/>
<text text-anchor="middle" x="298.843" y="-63.4893" font-family="Times,serif" font-size="14.00">* materialNeededBySuccessor</text>
<text text-anchor="middle" x="142.013" y="-39.863" font-family="Times,serif" font-size="14.00">* </text>
</g>
<!-- MutualExclusionReason -->
<g id="node4" class="node"><title>MutualExclusionReason</title>
<g id="a_node4"><a xlink:href="javascript:Action.selectClass(&quot;MutualExclusionReason&quot;);" xlink:title="class MutualExclusionReason
association MutualExclusionReason { 
 Course;
 Course isMutualyExclusiveWith;
}
Positioning
">
<polygon fill="none" stroke="black" points="184.709,-1 184.709,-37 338.357,-37 338.357,-1 184.709,-1"/>
<text text-anchor="middle" x="261.533" y="-13.5" font-family="Times,serif" font-size="14.00">MutualExclusionReason</text>
</a>
</g>
</g>
<!-- MutualExclusionReason&#45;&gt;Course -->
<g id="edge4" class="edge"><title>MutualExclusionReason&#45;&gt;Course</title>
<path fill="none" stroke="black" d="M223.463,-37.063C200.732,-48.4572 172.522,-63.3896 152.15,-74.81"/>
<text text-anchor="middle" x="157.4" y="-77.61" font-family="Times,serif" font-size="14.00">1 </text>
<text text-anchor="middle" x="246.21" y="-39.863" font-family="Times,serif" font-size="14.00">* mutex</text>
</g>
<!-- MutualExclusionReason&#45;&gt;Course -->
<g id="edge5" class="edge"><title>MutualExclusionReason&#45;&gt;Course</title>
<path fill="none" stroke="black" d="M235.143,-37.063C211.716,-50.2038 177.797,-68.0505 153.815,-79.7887"/>
<text text-anchor="middle" x="76.9077" y="-82.5887" font-family="Times,serif" font-size="14.00">1 isMutuallyExclusiveWith</text>
<text text-anchor="middle" x="235.143" y="-39.863" font-family="Times,serif" font-size="14.00">* </text>
</g>
<!-- MutualExclusionReason&#45;&gt;Topic -->
<g id="edge6" class="edge"><title>MutualExclusionReason&#45;&gt;Topic</title>
<path fill="none" stroke="black" d="M256.556,-37.063C253.257,-48.374 248.941,-63.1718 245.62,-74.5593"/>
<text text-anchor="middle" x="308.015" y="-77.3593" font-family="Times,serif" font-size="14.00">* overlappingMaterial</text>
<text text-anchor="middle" x="261.806" y="-39.863" font-family="Times,serif" font-size="14.00">* </text>
</g>
</g>
</svg>
