<?xml version="1.0" encoding="UTF-8" standalone="no"?>
<!DOCTYPE svg PUBLIC "-//W3C//DTD SVG 1.1//EN"
 "http://www.w3.org/Graphics/SVG/1.1/DTD/svg11.dtd">
<!-- Generated by graphviz version 2.29.20121108.1600 (20121108.1600)
 -->
<!-- Title: VendingMachine Pages: 1 -->
<svg width="482pt" height="366pt"
 viewBox="0.00 0.00 482.00 366.00" xmlns="http://www.w3.org/2000/svg" xmlns:xlink="http://www.w3.org/1999/xlink">
<g id="graph0" class="graph" transform="scale(1 1) rotate(0) translate(4 362)">
<title>VendingMachine</title>
<polygon fill="white" stroke="white" points="-4,5 -4,-362 479,-362 479,5 -4,5"/>
<!-- start_VendingMachine_controlUnit -->
<g id="node1" class="node"><title>start_VendingMachine_controlUnit</title>
<ellipse fill="black" stroke="black" cx="247" cy="-351" rx="7.2" ry="7.2"/>
</g>
<!-- VendingMachine_controlUnit_ReceivingMoney -->
<g id="node2" class="node"><title>VendingMachine_controlUnit_ReceivingMoney</title>
<path fill="none" stroke="black" d="M291.316,-306C291.316,-306 202.684,-306 202.684,-306 196.684,-306 190.684,-300 190.684,-294 190.684,-294 190.684,-282 190.684,-282 190.684,-276 196.684,-270 202.684,-270 202.684,-270 291.316,-270 291.316,-270 297.316,-270 303.316,-276 303.316,-282 303.316,-282 303.316,-294 303.316,-294 303.316,-300 297.316,-306 291.316,-306"/>
<text text-anchor="middle" x="247" y="-282.4" font-family="Times,serif" font-size="14.00">ReceivingMoney</text>
</g>
<!-- start_VendingMachine_controlUnit&#45;&gt;VendingMachine_controlUnit_ReceivingMoney -->
<g id="edge1" class="edge"><title>start_VendingMachine_controlUnit&#45;&gt;VendingMachine_controlUnit_ReceivingMoney</title>
<path fill="none" stroke="black" d="M247,-343.472C247,-336.902 247,-326.324 247,-316.229"/>
<polygon fill="black" stroke="black" points="250.5,-316.073 247,-306.073 243.5,-316.073 250.5,-316.073"/>
</g>
<!-- VendingMachine_controlUnit_ReceivingMoney&#45;&gt;VendingMachine_controlUnit_ReceivingMoney -->
<g id="edge2" class="edge"><title>VendingMachine_controlUnit_ReceivingMoney&#45;&gt;VendingMachine_controlUnit_ReceivingMoney</title>
<path fill="none" stroke="black" d="M303.146,-291.202C313.622,-290.807 321,-289.74 321,-288 321,-286.912 318.118,-286.088 313.399,-285.526"/>
<polygon fill="black" stroke="black" points="313.369,-282.015 303.146,-284.798 312.873,-288.997 313.369,-282.015"/>
<text text-anchor="middle" x="361.435" y="-282.4" font-family="Times,serif" font-size="14.00">pressSelection</text>
</g>
<!-- VendingMachine_controlUnit_ReceivingMoney&#45;&gt;VendingMachine_controlUnit_ReceivingMoney -->
<g id="edge3" class="edge"><title>VendingMachine_controlUnit_ReceivingMoney&#45;&gt;VendingMachine_controlUnit_ReceivingMoney</title>
<path fill="none" stroke="black" d="M303.344,-294.107C348.698,-295.924 401.869,-293.889 401.869,-288 401.869,-282.548 356.297,-280.399 313.547,-281.552"/>
<polygon fill="black" stroke="black" points="313.222,-278.061 303.344,-281.893 313.456,-285.057 313.222,-278.061"/>
<text text-anchor="middle" x="429.473" y="-282.4" font-family="Times,serif" font-size="14.00">enterCoin</text>
</g>
<!-- VendingMachine_controlUnit_DeliveringItem -->
<g id="node3" class="node"><title>VendingMachine_controlUnit_DeliveringItem</title>
<path fill="none" stroke="black" d="M213.146,-216C213.146,-216 136.854,-216 136.854,-216 130.854,-216 124.854,-210 124.854,-204 124.854,-204 124.854,-192 124.854,-192 124.854,-186 130.854,-180 136.854,-180 136.854,-180 213.146,-180 213.146,-180 219.146,-180 225.146,-186 225.146,-192 225.146,-192 225.146,-204 225.146,-204 225.146,-210 219.146,-216 213.146,-216"/>
<text text-anchor="middle" x="175" y="-192.4" font-family="Times,serif" font-size="14.00">DeliveringItem</text>
</g>
<!-- VendingMachine_controlUnit_ReceivingMoney&#45;&gt;VendingMachine_controlUnit_DeliveringItem -->
<g id="edge5" class="edge"><title>VendingMachine_controlUnit_ReceivingMoney&#45;&gt;VendingMachine_controlUnit_DeliveringItem</title>
<path fill="none" stroke="black" d="M225.792,-269.833C219.748,-264.445 213.385,-258.26 208.131,-252 201.193,-243.733 194.646,-233.891 189.232,-224.944"/>
<polygon fill="black" stroke="black" points="192.101,-222.916 184.033,-216.049 186.058,-226.449 192.101,-222.916"/>
<text text-anchor="middle" x="249.435" y="-237.4" font-family="Times,serif" font-size="14.00">pressSelection</text>
</g>
<!-- VendingMachine_controlUnit_ReturningMoney -->
<g id="node4" class="node"><title>VendingMachine_controlUnit_ReturningMoney</title>
<path fill="none" stroke="black" d="M98.2433,-126C98.2433,-126 11.7567,-126 11.7567,-126 5.75674,-126 -0.243259,-120 -0.243259,-114 -0.243259,-114 -0.243259,-102 -0.243259,-102 -0.243259,-96 5.75674,-90 11.7567,-90 11.7567,-90 98.2433,-90 98.2433,-90 104.243,-90 110.243,-96 110.243,-102 110.243,-102 110.243,-114 110.243,-114 110.243,-120 104.243,-126 98.2433,-126"/>
<text text-anchor="middle" x="55" y="-102.4" font-family="Times,serif" font-size="14.00">ReturningMoney</text>
</g>
<!-- VendingMachine_controlUnit_DeliveringItem&#45;&gt;VendingMachine_controlUnit_ReturningMoney -->
<g id="edge6" class="edge"><title>VendingMachine_controlUnit_DeliveringItem&#45;&gt;VendingMachine_controlUnit_ReturningMoney</title>
<path fill="none" stroke="black" d="M124.76,-193.914C101.795,-189.793 76.2916,-180.882 60.6963,-162 54.8508,-154.923 52.6799,-145.373 52.2136,-136.33"/>
<polygon fill="black" stroke="black" points="55.7157,-136.164 52.3313,-126.125 48.7161,-136.084 55.7157,-136.164"/>
<text text-anchor="middle" x="111.152" y="-147.4" font-family="Times,serif" font-size="14.00">deliveryComplete</text>
</g>
<!-- VendingMachine_controlUnit_Waiting -->
<g id="node5" class="node"><title>VendingMachine_controlUnit_Waiting</title>
<path fill="none" stroke="black" d="M199,-36C199,-36 151,-36 151,-36 145,-36 139,-30 139,-24 139,-24 139,-12 139,-12 139,-6 145,-0 151,-0 151,-0 199,-0 199,-0 205,-0 211,-6 211,-12 211,-12 211,-24 211,-24 211,-30 205,-36 199,-36"/>
<text text-anchor="middle" x="175" y="-12.4" font-family="Times,serif" font-size="14.00">Waiting</text>
</g>
<!-- VendingMachine_controlUnit_DeliveringItem&#45;&gt;VendingMachine_controlUnit_Waiting -->
<g id="edge7" class="edge"><title>VendingMachine_controlUnit_DeliveringItem&#45;&gt;VendingMachine_controlUnit_Waiting</title>
<path fill="none" stroke="black" d="M175,-179.933C175,-148.966 175,-83.2989 175,-46.1292"/>
<polygon fill="black" stroke="black" points="178.5,-46.0157 175,-36.0157 171.5,-46.0158 178.5,-46.0157"/>
<text text-anchor="middle" x="225.152" y="-102.4" font-family="Times,serif" font-size="14.00">deliveryComplete</text>
</g>
<!-- VendingMachine_controlUnit_ReturningMoney&#45;&gt;VendingMachine_controlUnit_Waiting -->
<g id="edge8" class="edge"><title>VendingMachine_controlUnit_ReturningMoney&#45;&gt;VendingMachine_controlUnit_Waiting</title>
<path fill="none" stroke="black" d="M50.1494,-89.5701C48.1196,-78.329 47.719,-63.9957 55.248,-54 72.1598,-31.5476 102.699,-22.8646 128.703,-19.7604"/>
<polygon fill="black" stroke="black" points="129.154,-23.2334 138.777,-18.8 128.489,-16.265 129.154,-23.2334"/>
<text text-anchor="middle" x="108.876" y="-57.4" font-family="Times,serif" font-size="14.00">retunringComplete</text>
</g>
<!-- VendingMachine_controlUnit_Waiting&#45;&gt;VendingMachine_controlUnit_ReceivingMoney -->
<g id="edge4" class="edge"><title>VendingMachine_controlUnit_Waiting&#45;&gt;VendingMachine_controlUnit_ReceivingMoney</title>
<path fill="none" stroke="black" d="M211.098,-33.5402C234.735,-45.1052 263.94,-63.7319 279,-90 402.037,-304.611 306.074,-215.545 289,-252 287.188,-255.868 284.716,-259.458 281.871,-262.747"/>
<polygon fill="black" stroke="black" points="279.327,-260.341 274.692,-269.868 284.256,-265.311 279.327,-260.341"/>
<text text-anchor="middle" x="344.604" y="-147.4" font-family="Times,serif" font-size="14.00">enterCoin</text>
</g>
</g>
</svg>
