<?xml version="1.0" encoding="UTF-8" standalone="no"?>
<!DOCTYPE svg PUBLIC "-//W3C//DTD SVG 1.1//EN"
 "http://www.w3.org/Graphics/SVG/1.1/DTD/svg11.dtd">
<!-- Generated by graphviz version 2.29.20121108.1600 (20121108.1600)
 -->
<!-- Title: WarehouseSystem Pages: 1 -->
<svg width="695pt" height="634pt"
 viewBox="0.00 0.00 695.00 634.00" xmlns="http://www.w3.org/2000/svg" xmlns:xlink="http://www.w3.org/1999/xlink">
<g id="graph0" class="graph" transform="scale(1 1) rotate(0) translate(4 630)">
<title>WarehouseSystem</title>
<polygon fill="white" stroke="white" points="-4,5 -4,-630 692,-630 692,5 -4,5"/>
<!-- MovementLocation -->
<g id="node1" class="node"><title>MovementLocation</title>
<g id="a_node1"><a xlink:href="javascript:Action.selectClass(&quot;MovementLocation&quot;);" xlink:title="class MovementLocation
">
<polygon fill="none" stroke="black" points="363.793,-589 363.793,-625 490.207,-625 490.207,-589 363.793,-589"/>
<text text-anchor="middle" x="427" y="-601.5" font-family="Times,serif" font-size="14.00">MovementLocation</text>
</a>
</g>
</g>
<!-- SlotSet -->
<g id="node2" class="node"><title>SlotSet</title>
<g id="a_node2"><a xlink:href="javascript:Action.selectClass(&quot;SlotSet&quot;);" xlink:title="class SlotSet
">
<polygon fill="none" stroke="black" points="126.772,-120 126.772,-156 183.228,-156 183.228,-120 126.772,-120"/>
<text text-anchor="middle" x="155" y="-132.5" font-family="Times,serif" font-size="14.00">SlotSet</text>
</a>
</g>
</g>
<!-- SlotSet&#45;&gt;MovementLocation -->
<g id="edge1" class="edge"><title>SlotSet&#45;&gt;MovementLocation</title>
<path fill="none" stroke="black" d="M150.587,-156.064C134.787,-221.586 88.5352,-458.059 217,-552 246.445,-573.532 362.177,-585.07 397.625,-588.149"/>
<polygon fill="none" stroke="black" points="397.747,-591.671 408,-589 398.319,-584.695 397.747,-591.671"/>
</g>
<!-- BoxOrPallet -->
<g id="node12" class="node"><title>BoxOrPallet</title>
<g id="a_node12"><a xlink:href="javascript:Action.selectClass(&quot;BoxOrPallet&quot;);" xlink:title="class BoxOrPallet
">
<polygon fill="none" stroke="black" points="375.678,-209.2 375.678,-342.8 528.322,-342.8 528.322,-209.2 375.678,-209.2"/>
<text text-anchor="middle" x="452" y="-324.8" font-family="Times,serif" font-size="14.00">BoxOrPallet</text>
<polyline fill="none" stroke="black" points="375.678,-318 528.322,-318 "/>
<text text-anchor="start" x="383.678" y="-300" font-family="Times,serif" font-size="14.00">rfidTagNumber : Integer</text>
<text text-anchor="start" x="383.678" y="-283.2" font-family="Times,serif" font-size="14.00">lengthINmm : Double</text>
<text text-anchor="start" x="383.678" y="-266.4" font-family="Times,serif" font-size="14.00">widthINmm : Double</text>
<text text-anchor="start" x="383.678" y="-249.6" font-family="Times,serif" font-size="14.00">heightINmm : Double</text>
<text text-anchor="start" x="383.678" y="-232.8" font-family="Times,serif" font-size="14.00">weightINkg : Double</text>
<text text-anchor="start" x="383.678" y="-216" font-family="Times,serif" font-size="14.00">contentType : String</text>
</a>
</g>
</g>
<!-- SlotSet&#45;&gt;BoxOrPallet -->
<g id="edge3" class="edge"><title>SlotSet&#45;&gt;BoxOrPallet</title>
<path fill="none" stroke="black" d="M183.29,-145.813C223.501,-156.111 298.865,-177.705 358,-208 363.797,-210.97 369.637,-214.265 375.415,-217.756"/>
<text text-anchor="middle" x="363.165" y="-203.756" font-family="Times,serif" font-size="14.00">0..1 </text>
<text text-anchor="middle" x="195.54" y="-131.813" font-family="Times,serif" font-size="14.00">0..1 </text>
</g>
<!-- Slot -->
<g id="node3" class="node"><title>Slot</title>
<g id="a_node3"><a xlink:href="javascript:Action.selectClass(&quot;Slot&quot;);" xlink:title="class Slot
">
<polygon fill="none" stroke="black" points="8.35156,-242.8 8.35156,-309.2 117.648,-309.2 117.648,-242.8 8.35156,-242.8"/>
<text text-anchor="middle" x="63" y="-291.2" font-family="Times,serif" font-size="14.00">Slot</text>
<polyline fill="none" stroke="black" points="8.35156,-284.4 117.648,-284.4 "/>
<text text-anchor="start" x="16.3516" y="-266.4" font-family="Times,serif" font-size="14.00">number : Integer</text>
<text text-anchor="start" x="16.3516" y="-249.6" font-family="Times,serif" font-size="14.00">width : Double</text>
</a>
</g>
</g>
<!-- SlotSet&#45;&gt;Slot -->
<g id="edge4" class="edge"><title>SlotSet&#45;&gt;Slot</title>
<path fill="none" stroke="black" d="M143.348,-156.224C128.698,-177.882 103.248,-215.504 84.9112,-242.61"/>
<text text-anchor="middle" x="79.6612" y="-228.61" font-family="Times,serif" font-size="14.00">* </text>
<text text-anchor="middle" x="138.098" y="-159.024" font-family="Times,serif" font-size="14.00">1 </text>
</g>
<!-- Level -->
<g id="node4" class="node"><title>Level</title>
<g id="a_node4"><a xlink:href="javascript:Action.selectClass(&quot;Level&quot;);" xlink:title="class Level
">
<polygon fill="none" stroke="black" points="-0.648438,-104.8 -0.648438,-171.2 108.648,-171.2 108.648,-104.8 -0.648438,-104.8"/>
<text text-anchor="middle" x="54" y="-153.2" font-family="Times,serif" font-size="14.00">Level</text>
<polyline fill="none" stroke="black" points="-0.648438,-146.4 108.648,-146.4 "/>
<text text-anchor="start" x="7.35156" y="-128.4" font-family="Times,serif" font-size="14.00">height : Integer</text>
<text text-anchor="start" x="7.35156" y="-111.6" font-family="Times,serif" font-size="14.00">number : Integer</text>
</a>
</g>
</g>
<!-- Level&#45;&gt;Slot -->
<g id="edge5" class="edge"><title>Level&#45;&gt;Slot</title>
<path fill="none" stroke="black" d="M56.1329,-171.23C57.5572,-192.753 59.4237,-220.958 60.8512,-242.53"/>
<text text-anchor="middle" x="55.6012" y="-228.53" font-family="Times,serif" font-size="14.00">* </text>
<text text-anchor="middle" x="50.8829" y="-174.03" font-family="Times,serif" font-size="14.00">1 </text>
</g>
<!-- LoadingGate -->
<g id="node5" class="node"><title>LoadingGate</title>
<g id="a_node5"><a xlink:href="javascript:Action.selectClass(&quot;LoadingGate&quot;);" xlink:title="class LoadingGate
">
<polygon fill="none" stroke="black" points="226.352,-501.2 226.352,-550.8 335.648,-550.8 335.648,-501.2 226.352,-501.2"/>
<text text-anchor="middle" x="281" y="-532.8" font-family="Times,serif" font-size="14.00">LoadingGate</text>
<polyline fill="none" stroke="black" points="226.352,-526 335.648,-526 "/>
<text text-anchor="start" x="234.352" y="-508" font-family="Times,serif" font-size="14.00">number : Integer</text>
</a>
</g>
</g>
<!-- LoadingGate&#45;&gt;MovementLocation -->
<g id="edge2" class="edge"><title>LoadingGate&#45;&gt;MovementLocation</title>
<path fill="none" stroke="black" d="M330.102,-550.971C355.509,-563.374 384.163,-577.363 398.605,-584.413"/>
<polygon fill="none" stroke="black" points="397.478,-587.758 408,-589 400.549,-581.468 397.478,-587.758"/>
</g>
<!-- Truck -->
<g id="node6" class="node"><title>Truck</title>
<g id="a_node6"><a xlink:href="javascript:Action.selectClass(&quot;Truck&quot;);" xlink:title="class Truck
">
<polygon fill="none" stroke="black" points="212.745,-242.8 212.745,-309.2 349.255,-309.2 349.255,-242.8 212.745,-242.8"/>
<text text-anchor="middle" x="281" y="-291.2" font-family="Times,serif" font-size="14.00">Truck</text>
<polyline fill="none" stroke="black" points="212.745,-284.4 349.255,-284.4 "/>
<text text-anchor="start" x="220.745" y="-266.4" font-family="Times,serif" font-size="14.00">registerNum : Integer</text>
<text text-anchor="start" x="220.745" y="-249.6" font-family="Times,serif" font-size="14.00">isWaiting : Boolean</text>
</a>
</g>
</g>
<!-- DeliverOrShipmentBom -->
<g id="node11" class="node"><title>DeliverOrShipmentBom</title>
<g id="a_node11"><a xlink:href="javascript:Action.selectClass(&quot;DeliverOrShipmentBom&quot;);" xlink:title="class DeliverOrShipmentBom
Both associations should be &#45;&gt;
Positioning
">
<polygon fill="none" stroke="black" points="177.991,-388.8 177.991,-455.2 384.009,-455.2 384.009,-388.8 177.991,-388.8"/>
<text text-anchor="middle" x="281" y="-437.2" font-family="Times,serif" font-size="14.00">DeliverOrShipmentBom</text>
<polyline fill="none" stroke="black" points="177.991,-430.4 384.009,-430.4 "/>
<text text-anchor="start" x="185.991" y="-412.4" font-family="Times,serif" font-size="14.00">startTimeLoadOrUnload : Double</text>
<text text-anchor="start" x="185.991" y="-395.6" font-family="Times,serif" font-size="14.00">endTimeExpected : Double</text>
</a>
</g>
</g>
<!-- Truck&#45;&gt;DeliverOrShipmentBom -->
<g id="edge6" class="edge"><title>Truck&#45;&gt;DeliverOrShipmentBom</title>
<path fill="none" stroke="black" d="M281,-309.316C281,-333.032 281,-365.101 281,-388.791"/>
<text text-anchor="middle" x="275.75" y="-374.791" font-family="Times,serif" font-size="14.00">* </text>
<text text-anchor="middle" x="275.75" y="-312.116" font-family="Times,serif" font-size="14.00">1 </text>
</g>
<!-- Rwbm -->
<g id="node7" class="node"><title>Rwbm</title>
<g id="a_node7"><a xlink:href="javascript:Action.selectClass(&quot;Rwbm&quot;);" xlink:title="class Rwbm
">
<polygon fill="none" stroke="black" points="610.29,-251.2 610.29,-300.8 687.71,-300.8 687.71,-251.2 610.29,-251.2"/>
<text text-anchor="middle" x="649" y="-282.8" font-family="Times,serif" font-size="14.00">Rwbm</text>
<polyline fill="none" stroke="black" points="610.29,-276 687.71,-276 "/>
<text text-anchor="start" x="618.29" y="-258" font-family="Times,serif" font-size="14.00">id : Integer</text>
</a>
</g>
</g>
<!-- Item -->
<g id="node8" class="node"><title>Item</title>
<g id="a_node8"><a xlink:href="javascript:Action.selectClass(&quot;Item&quot;);" xlink:title="class Item
">
<polygon fill="none" stroke="black" points="402.303,-380.4 402.303,-463.6 535.697,-463.6 535.697,-380.4 402.303,-380.4"/>
<text text-anchor="middle" x="469" y="-445.6" font-family="Times,serif" font-size="14.00">Item</text>
<polyline fill="none" stroke="black" points="402.303,-438.8 535.697,-438.8 "/>
<text text-anchor="start" x="410.303" y="-420.8" font-family="Times,serif" font-size="14.00">value : Double</text>
<text text-anchor="start" x="410.303" y="-404" font-family="Times,serif" font-size="14.00">hazardID : Integer</text>
<text text-anchor="start" x="410.303" y="-387.2" font-family="Times,serif" font-size="14.00">breakability : Integer</text>
</a>
</g>
</g>
<!-- Row -->
<g id="node9" class="node"><title>Row</title>
<g id="a_node9"><a xlink:href="javascript:Action.selectClass(&quot;Row&quot;);" xlink:title="class Row
">
<polygon fill="none" stroke="black" points="-0.648438,-0.8 -0.648438,-67.2 108.648,-67.2 108.648,-0.8 -0.648438,-0.8"/>
<text text-anchor="middle" x="54" y="-49.2" font-family="Times,serif" font-size="14.00">Row</text>
<polyline fill="none" stroke="black" points="-0.648438,-42.4 108.648,-42.4 "/>
<text text-anchor="start" x="7.35156" y="-24.4" font-family="Times,serif" font-size="14.00">depth : Integer</text>
<text text-anchor="start" x="7.35156" y="-7.6" font-family="Times,serif" font-size="14.00">number : Integer</text>
</a>
</g>
</g>
<!-- Row&#45;&gt;Level -->
<g id="edge7" class="edge"><title>Row&#45;&gt;Level</title>
<path fill="none" stroke="black" d="M54,-67.2734C54,-79.1799 54,-92.6676 54,-104.586"/>
<text text-anchor="middle" x="48.75" y="-90.5864" font-family="Times,serif" font-size="14.00">* </text>
<text text-anchor="middle" x="48.75" y="-70.0734" font-family="Times,serif" font-size="14.00">1 </text>
</g>
<!-- RwbmMovement -->
<g id="node10" class="node"><title>RwbmMovement</title>
<g id="a_node10"><a xlink:href="javascript:Action.selectClass(&quot;RwbmMovement&quot;);" xlink:title="class RwbmMovement
Note that here we have the choice to use
Time or Double, if the customer requires Double due to
some interoperability issues with a legacy syste, we can easily
accomodate them and use Double instead of Time.
">
<polygon fill="none" stroke="black" points="512.367,-104.8 512.367,-171.2 633.633,-171.2 633.633,-104.8 512.367,-104.8"/>
<text text-anchor="middle" x="573" y="-153.2" font-family="Times,serif" font-size="14.00">RwbmMovement</text>
<polyline fill="none" stroke="black" points="512.367,-146.4 633.633,-146.4 "/>
<text text-anchor="start" x="520.367" y="-128.4" font-family="Times,serif" font-size="14.00">startTime : Double</text>
<text text-anchor="start" x="520.367" y="-111.6" font-family="Times,serif" font-size="14.00">endTime : Double</text>
</a>
</g>
</g>
<!-- RwbmMovement&#45;&gt;MovementLocation -->
<g id="edge8" class="edge"><title>RwbmMovement&#45;&gt;MovementLocation</title>
<path fill="none" stroke="black" d="M571.009,-171.382C571.964,-231.56 576.151,-363.628 535,-464 513.552,-516.313 465.832,-564.169 441.396,-588.723"/>
<text text-anchor="middle" x="430.702" y="-574.723" font-family="Times,serif" font-size="14.00">1 to</text>
<text text-anchor="middle" x="529.987" y="-174.182" font-family="Times,serif" font-size="14.00">* toMovement</text>
</g>
<!-- RwbmMovement&#45;&gt;MovementLocation -->
<g id="edge9" class="edge"><title>RwbmMovement&#45;&gt;MovementLocation</title>
<path fill="none" stroke="black" d="M581.474,-171.382C589.964,-231.56 594.151,-363.628 553,-464 531.492,-516.461 483.562,-564.439 453.19,-588.931"/>
<text text-anchor="middle" x="472.047" y="-574.931" font-family="Times,serif" font-size="14.00">1 from</text>
<text text-anchor="middle" x="630.659" y="-174.182" font-family="Times,serif" font-size="14.00">* fromMovement</text>
</g>
<!-- RwbmMovement&#45;&gt;BoxOrPallet -->
<g id="edge10" class="edge"><title>RwbmMovement&#45;&gt;BoxOrPallet</title>
<path fill="none" stroke="black" d="M544.325,-171.23C534.191,-182.62 522.393,-195.881 510.685,-209.04"/>
<text text-anchor="middle" x="546.656" y="-195.04" font-family="Times,serif" font-size="14.00">1 movedBox</text>
<text text-anchor="middle" x="549.575" y="-157.23" font-family="Times,serif" font-size="14.00">* </text>
</g>
<!-- RwbmMovement&#45;&gt;Rwbm -->
<g id="edge11" class="edge"><title>RwbmMovement&#45;&gt;Rwbm</title>
<path fill="none" stroke="black" d="M591.011,-171.23C604.706,-195.737 623.244,-228.91 635.637,-251.087"/>
<text text-anchor="middle" x="630.387" y="-237.087" font-family="Times,serif" font-size="14.00">* </text>
<text text-anchor="middle" x="585.761" y="-174.03" font-family="Times,serif" font-size="14.00">1 </text>
</g>
<!-- DeliverOrShipmentBom&#45;&gt;LoadingGate -->
<g id="edge12" class="edge"><title>DeliverOrShipmentBom&#45;&gt;LoadingGate</title>
<path fill="none" stroke="black" d="M274.672,-455.273C273.974,-470.098 274.142,-487.374 275.175,-501.021"/>
<text text-anchor="middle" x="227.542" y="-487.021" font-family="Times,serif" font-size="14.00">0..1 sentThrough</text>
<text text-anchor="middle" x="246.487" y="-458.073" font-family="Times,serif" font-size="14.00">* delivery</text>
</g>
<!-- DeliverOrShipmentBom&#45;&gt;LoadingGate -->
<g id="edge13" class="edge"><title>DeliverOrShipmentBom&#45;&gt;LoadingGate</title>
<path fill="none" stroke="black" d="M287.328,-455.273C288.026,-470.098 287.858,-487.374 286.825,-501.021"/>
<text text-anchor="middle" x="322.396" y="-487.021" font-family="Times,serif" font-size="14.00">0..1 arriveAt</text>
<text text-anchor="middle" x="310.844" y="-458.073" font-family="Times,serif" font-size="14.00">* arrival</text>
</g>
<!-- BoxOrPallet&#45;&gt;DeliverOrShipmentBom -->
<g id="edge14" class="edge"><title>BoxOrPallet&#45;&gt;DeliverOrShipmentBom</title>
<path fill="none" stroke="black" d="M375.503,-341.419C356.117,-357.744 336.107,-374.594 319.519,-388.563"/>
<text text-anchor="middle" x="314.269" y="-374.563" font-family="Times,serif" font-size="14.00">* </text>
<text text-anchor="middle" x="370.253" y="-327.419" font-family="Times,serif" font-size="14.00">* </text>
</g>
<!-- BoxOrPallet&#45;&gt;Item -->
<g id="edge15" class="edge"><title>BoxOrPallet&#45;&gt;Item</title>
<path fill="none" stroke="black" d="M459.803,-343.1C461.305,-355.817 462.835,-368.781 464.206,-380.391"/>
<text text-anchor="middle" x="469.456" y="-366.391" font-family="Times,serif" font-size="14.00">* </text>
<text text-anchor="middle" x="454.553" y="-345.9" font-family="Times,serif" font-size="14.00">1 </text>
</g>
</g>
</svg>
