<?xml version="1.0" encoding="UTF-8" standalone="no"?>
<!DOCTYPE svg PUBLIC "-//W3C//DTD SVG 1.1//EN"
 "http://www.w3.org/Graphics/SVG/1.1/DTD/svg11.dtd">
<!-- Generated by graphviz version 2.39.20140502.0445 (20140502.0445)
 -->
<!-- Title: WarehouseSystem Pages: 1 -->
<svg width="700pt" height="595pt"
 viewBox="0.00 0.00 700.00 595.00" xmlns="http://www.w3.org/2000/svg" xmlns:xlink="http://www.w3.org/1999/xlink">
<g id="graph0" class="graph" transform="scale(1 1) rotate(0) translate(4 591)">
<title>WarehouseSystem</title>
<polygon fill="white" stroke="none" points="-4,4 -4,-591 696,-591 696,4 -4,4"/>
<!-- MovementLocation -->
<g id="node1" class="node"><title>MovementLocation</title>
<g id="a_node1"><a xlink:href="javascript:Action.selectClass(&quot;MovementLocation&quot;);" xlink:title="class MovementLocation
">
<polygon fill="none" stroke="black" points="442.5,-550.5 442.5,-586.5 569.5,-586.5 569.5,-550.5 442.5,-550.5"/>
<text text-anchor="middle" x="506" y="-564.8" font-family="Times,serif" font-size="14.00">MovementLocation</text>
</a>
</g>
</g>
<!-- SlotSet -->
<g id="node2" class="node"><title>SlotSet</title>
<g id="a_node2"><a xlink:href="javascript:Action.selectClass(&quot;SlotSet&quot;);" xlink:title="class SlotSet
">
<polygon fill="none" stroke="black" points="128.5,-111 128.5,-147 185.5,-147 185.5,-111 128.5,-111"/>
<text text-anchor="middle" x="157" y="-125.3" font-family="Times,serif" font-size="14.00">SlotSet</text>
</a>
</g>
</g>
<!-- SlotSet&#45;&gt;MovementLocation -->
<g id="edge1" class="edge"><title>SlotSet&#45;&gt;MovementLocation</title>
<path fill="none" stroke="black" d="M151.978,-147.311C138.723,-196.848 107.961,-341.348 171,-431 247.407,-539.665 435.102,-549.658 480.832,-550.459"/>
<polygon fill="none" stroke="black" points="480.986,-553.959 491,-550.5 481.014,-546.96 480.986,-553.959"/>
</g>
<!-- Slot -->
<g id="node3" class="node"><title>Slot</title>
<g id="a_node3"><a xlink:href="javascript:Action.selectClass(&quot;Slot&quot;);" xlink:title="class Slot
">
<polygon fill="none" stroke="black" points="5,-226.5 5,-287.5 115,-287.5 115,-226.5 5,-226.5"/>
<text text-anchor="middle" x="60" y="-272.3" font-family="Times,serif" font-size="14.00">Slot</text>
<polyline fill="none" stroke="black" points="5,-264.5 115,-264.5 "/>
<text text-anchor="start" x="13" y="-249.3" font-family="Times,serif" font-size="14.00">number : Integer</text>
<text text-anchor="start" x="13" y="-234.3" font-family="Times,serif" font-size="14.00">width : Double</text>
</a>
</g>
</g>
<!-- SlotSet&#45;&gt;Slot -->
<g id="edge4" class="edge"><title>SlotSet&#45;&gt;Slot</title>
<g id="a_edge4"><a xlink:title="SlotSet 1 &#160;&#45;&#45; * &#160;Slot">
<path fill="none" stroke="black" d="M82.7891,-226.398 101.736,-201.786 128.046,-167.61 143.716,-147.256"/>
</a>
</g>
<text text-anchor="middle" x="77.2891" y="-215.198" font-family="Times,serif" font-size="14.00">* </text>
<text text-anchor="middle" x="138.216" y="-151.056" font-family="Times,serif" font-size="14.00">1 </text>
</g>
<!-- BoxOrPallet -->
<g id="node12" class="node"><title>BoxOrPallet</title>
<g id="a_node12"><a xlink:href="javascript:Action.selectClass(&quot;BoxOrPallet&quot;);" xlink:title="class BoxOrPallet
">
<polygon fill="none" stroke="black" points="187,-196.5 187,-317.5 341,-317.5 341,-196.5 187,-196.5"/>
<text text-anchor="middle" x="264" y="-302.3" font-family="Times,serif" font-size="14.00">BoxOrPallet</text>
<polyline fill="none" stroke="black" points="187,-294.5 341,-294.5 "/>
<text text-anchor="start" x="195" y="-279.3" font-family="Times,serif" font-size="14.00">rfidTagNumber : Integer</text>
<text text-anchor="start" x="195" y="-264.3" font-family="Times,serif" font-size="14.00">lengthINmm : Double</text>
<text text-anchor="start" x="195" y="-249.3" font-family="Times,serif" font-size="14.00">widthINmm : Double</text>
<text text-anchor="start" x="195" y="-234.3" font-family="Times,serif" font-size="14.00">heightINmm : Double</text>
<text text-anchor="start" x="195" y="-219.3" font-family="Times,serif" font-size="14.00">weightINkg : Double</text>
<text text-anchor="start" x="195" y="-204.3" font-family="Times,serif" font-size="14.00">contentType : String</text>
</a>
</g>
</g>
<!-- SlotSet&#45;&gt;BoxOrPallet -->
<g id="edge3" class="edge"><title>SlotSet&#45;&gt;BoxOrPallet</title>
<g id="a_edge3"><a xlink:title="SlotSet 0..1 &#160;&#45;&#45; 0..1 &#160;BoxOrPallet">
<path fill="none" stroke="black" d="M171.654,-147.256C182.528,-160.061 198.049,-178.338 213.27,-196.262"/>
</a>
</g>
<text text-anchor="middle" x="200.77" y="-185.062" font-family="Times,serif" font-size="14.00">0..1 </text>
<text text-anchor="middle" x="159.154" y="-151.056" font-family="Times,serif" font-size="14.00">0..1 </text>
</g>
<!-- Level -->
<g id="node4" class="node"><title>Level</title>
<g id="a_node4"><a xlink:href="javascript:Action.selectClass(&quot;Level&quot;);" xlink:title="class Level
">
<polygon fill="none" stroke="black" points="0,-98.5 0,-159.5 110,-159.5 110,-98.5 0,-98.5"/>
<text text-anchor="middle" x="55" y="-144.3" font-family="Times,serif" font-size="14.00">Level</text>
<polyline fill="none" stroke="black" points="0,-136.5 110,-136.5 "/>
<text text-anchor="start" x="8" y="-121.3" font-family="Times,serif" font-size="14.00">height : Integer</text>
<text text-anchor="start" x="8" y="-106.3" font-family="Times,serif" font-size="14.00">number : Integer</text>
</a>
</g>
</g>
<!-- Level&#45;&gt;Slot -->
<g id="edge5" class="edge"><title>Level&#45;&gt;Slot</title>
<g id="a_edge5"><a xlink:title="Level 1 &#160;&#45;&#45; * &#160;Slot">
<path fill="none" stroke="black" d="M56.1723,-159.541C56.9689,-179.617 58.019,-206.078 58.8177,-226.207"/>
</a>
</g>
<text text-anchor="middle" x="53.3177" y="-215.007" font-family="Times,serif" font-size="14.00">* </text>
<text text-anchor="middle" x="50.6723" y="-163.341" font-family="Times,serif" font-size="14.00">1 </text>
</g>
<!-- LoadingGate -->
<g id="node5" class="node"><title>LoadingGate</title>
<g id="a_node5"><a xlink:href="javascript:Action.selectClass(&quot;LoadingGate&quot;);" xlink:title="class LoadingGate
">
<polygon fill="none" stroke="black" points="381,-467.5 381,-513.5 491,-513.5 491,-467.5 381,-467.5"/>
<text text-anchor="middle" x="436" y="-498.3" font-family="Times,serif" font-size="14.00">LoadingGate</text>
<polyline fill="none" stroke="black" points="381,-490.5 491,-490.5 "/>
<text text-anchor="start" x="389" y="-475.3" font-family="Times,serif" font-size="14.00">number : Integer</text>
</a>
</g>
</g>
<!-- LoadingGate&#45;&gt;MovementLocation -->
<g id="edge2" class="edge"><title>LoadingGate&#45;&gt;MovementLocation</title>
<path fill="none" stroke="black" d="M456.793,-513.805C466.406,-524.117 477.183,-535.678 484.025,-543.018"/>
<polygon fill="none" stroke="black" points="481.621,-545.572 491,-550.5 486.741,-540.799 481.621,-545.572"/>
</g>
<!-- Truck -->
<g id="node6" class="node"><title>Truck</title>
<g id="a_node6"><a xlink:href="javascript:Action.selectClass(&quot;Truck&quot;);" xlink:title="class Truck
">
<polygon fill="none" stroke="black" points="367.5,-226.5 367.5,-287.5 504.5,-287.5 504.5,-226.5 367.5,-226.5"/>
<text text-anchor="middle" x="436" y="-272.3" font-family="Times,serif" font-size="14.00">Truck</text>
<polyline fill="none" stroke="black" points="367.5,-264.5 504.5,-264.5 "/>
<text text-anchor="start" x="375.5" y="-249.3" font-family="Times,serif" font-size="14.00">registerNum : Integer</text>
<text text-anchor="start" x="375.5" y="-234.3" font-family="Times,serif" font-size="14.00">isWaiting : Boolean</text>
</a>
</g>
</g>
<!-- DeliverOrShipmentBom -->
<g id="node11" class="node"><title>DeliverOrShipmentBom</title>
<g id="a_node11"><a xlink:href="javascript:Action.selectClass(&quot;DeliverOrShipmentBom&quot;);" xlink:title="class DeliverOrShipmentBom
Both associations should be &#45;&gt;
Positioning
">
<polygon fill="none" stroke="black" points="332.5,-362 332.5,-423 539.5,-423 539.5,-362 332.5,-362"/>
<text text-anchor="middle" x="436" y="-407.8" font-family="Times,serif" font-size="14.00">DeliverOrShipmentBom</text>
<polyline fill="none" stroke="black" points="332.5,-400 539.5,-400 "/>
<text text-anchor="start" x="340.5" y="-384.8" font-family="Times,serif" font-size="14.00">startTimeLoadOrUnload : Double</text>
<text text-anchor="start" x="340.5" y="-369.8" font-family="Times,serif" font-size="14.00">endTimeExpected : Double</text>
</a>
</g>
</g>
<!-- Truck&#45;&gt;DeliverOrShipmentBom -->
<g id="edge6" class="edge"><title>Truck&#45;&gt;DeliverOrShipmentBom</title>
<g id="a_edge6"><a xlink:title="Truck 1 &#160;&#45;&#45; * &#160;DeliverOrShipmentBom">
<path fill="none" stroke="black" d="M436,-287.628C436,-309.751 436,-339.852 436,-361.955"/>
</a>
</g>
<text text-anchor="middle" x="430.5" y="-350.755" font-family="Times,serif" font-size="14.00">* </text>
<text text-anchor="middle" x="430.5" y="-291.428" font-family="Times,serif" font-size="14.00">1 </text>
</g>
<!-- Rwbm -->
<g id="node7" class="node"><title>Rwbm</title>
<g id="a_node7"><a xlink:href="javascript:Action.selectClass(&quot;Rwbm&quot;);" xlink:title="class Rwbm
">
<polygon fill="none" stroke="black" points="614,-234 614,-280 692,-280 692,-234 614,-234"/>
<text text-anchor="middle" x="653" y="-264.8" font-family="Times,serif" font-size="14.00">Rwbm</text>
<polyline fill="none" stroke="black" points="614,-257 692,-257 "/>
<text text-anchor="start" x="622" y="-241.8" font-family="Times,serif" font-size="14.00">id : Integer</text>
</a>
</g>
</g>
<!-- Item -->
<g id="node8" class="node"><title>Item</title>
<g id="a_node8"><a xlink:href="javascript:Action.selectClass(&quot;Item&quot;);" xlink:title="class Item
">
<polygon fill="none" stroke="black" points="180,-354.5 180,-430.5 314,-430.5 314,-354.5 180,-354.5"/>
<text text-anchor="middle" x="247" y="-415.3" font-family="Times,serif" font-size="14.00">Item</text>
<polyline fill="none" stroke="black" points="180,-407.5 314,-407.5 "/>
<text text-anchor="start" x="188" y="-392.3" font-family="Times,serif" font-size="14.00">value : Double</text>
<text text-anchor="start" x="188" y="-377.3" font-family="Times,serif" font-size="14.00">hazardID : Integer</text>
<text text-anchor="start" x="188" y="-362.3" font-family="Times,serif" font-size="14.00">breakability : Integer</text>
</a>
</g>
</g>
<!-- Row -->
<g id="node9" class="node"><title>Row</title>
<g id="a_node9"><a xlink:href="javascript:Action.selectClass(&quot;Row&quot;);" xlink:title="class Row
">
<polygon fill="none" stroke="black" points="0,-0.5 0,-61.5 110,-61.5 110,-0.5 0,-0.5"/>
<text text-anchor="middle" x="55" y="-46.3" font-family="Times,serif" font-size="14.00">Row</text>
<polyline fill="none" stroke="black" points="0,-38.5 110,-38.5 "/>
<text text-anchor="start" x="8" y="-23.3" font-family="Times,serif" font-size="14.00">depth : Integer</text>
<text text-anchor="start" x="8" y="-8.3" font-family="Times,serif" font-size="14.00">number : Integer</text>
</a>
</g>
</g>
<!-- Row&#45;&gt;Level -->
<g id="edge7" class="edge"><title>Row&#45;&gt;Level</title>
<g id="a_edge7"><a xlink:title="Row 1 &#160;&#45;&#45; * &#160;Level">
<path fill="none" stroke="black" d="M55,-61.5865C55,-73.266 55,-86.6599 55,-98.3459"/>
</a>
</g>
<text text-anchor="middle" x="49.5" y="-87.1459" font-family="Times,serif" font-size="14.00">* </text>
<text text-anchor="middle" x="49.5" y="-65.3865" font-family="Times,serif" font-size="14.00">1 </text>
</g>
<!-- RwbmMovement -->
<g id="node10" class="node"><title>RwbmMovement</title>
<g id="a_node10"><a xlink:href="javascript:Action.selectClass(&quot;RwbmMovement&quot;);" xlink:title="class RwbmMovement
Note that here we have the choice to use
Time or Double, if the customer requires Double due to
some interoperability issues with a legacy syste, we can easily
accomodate them and use Double instead of Time.
">
<polygon fill="none" stroke="black" points="516,-98.5 516,-159.5 638,-159.5 638,-98.5 516,-98.5"/>
<text text-anchor="middle" x="577" y="-144.3" font-family="Times,serif" font-size="14.00">RwbmMovement</text>
<polyline fill="none" stroke="black" points="516,-136.5 638,-136.5 "/>
<text text-anchor="start" x="524" y="-121.3" font-family="Times,serif" font-size="14.00">startTime : Double</text>
<text text-anchor="start" x="524" y="-106.3" font-family="Times,serif" font-size="14.00">endTime : Double</text>
</a>
</g>
</g>
<!-- RwbmMovement&#45;&gt;MovementLocation -->
<g id="edge8" class="edge"><title>RwbmMovement&#45;&gt;MovementLocation</title>
<g id="a_edge8"><a xlink:title="RwbmMovement * toMovement &#45;&#45; 1 to MovementLocation">
<path fill="none" stroke="black" d="M506.723,-550.123 513.042,-524.469 530.253,-474.764 539,-431 558.602,-332.929 565.089,-214.138 570.834,-159.77"/>
</a>
</g>
<text text-anchor="middle" x="495.723" y="-538.923" font-family="Times,serif" font-size="14.00">1 to</text>
<text text-anchor="middle" x="529.334" y="-163.57" font-family="Times,serif" font-size="14.00">* toMovement</text>
</g>
<!-- RwbmMovement&#45;&gt;MovementLocation -->
<g id="edge9" class="edge"><title>RwbmMovement&#45;&gt;MovementLocation</title>
<g id="a_edge9"><a xlink:title="RwbmMovement * fromMovement &#45;&#45; 1 from MovementLocation">
<path fill="none" stroke="black" d="M518.466,-550.123 531.042,-524.469 548.253,-474.764 557,-431 576.602,-332.929 583.089,-214.138 581.417,-159.77"/>
</a>
</g>
<text text-anchor="middle" x="537.466" y="-538.923" font-family="Times,serif" font-size="14.00">1 from</text>
<text text-anchor="middle" x="630.917" y="-163.57" font-family="Times,serif" font-size="14.00">* fromMovement</text>
</g>
<!-- RwbmMovement&#45;&gt;Rwbm -->
<g id="edge11" class="edge"><title>RwbmMovement&#45;&gt;Rwbm</title>
<g id="a_edge11"><a xlink:title="RwbmMovement 1 &#160;&#45;&#45; * &#160;Rwbm">
<path fill="none" stroke="black" d="M594.819,-159.541C608.507,-182.236 627.118,-213.09 639.569,-233.732"/>
</a>
</g>
<text text-anchor="middle" x="634.069" y="-222.532" font-family="Times,serif" font-size="14.00">* </text>
<text text-anchor="middle" x="589.319" y="-148.341" font-family="Times,serif" font-size="14.00">1 </text>
</g>
<!-- RwbmMovement&#45;&gt;BoxOrPallet -->
<g id="edge10" class="edge"><title>RwbmMovement&#45;&gt;BoxOrPallet</title>
<g id="a_edge10"><a xlink:title="RwbmMovement * &#160;&#45;&#45; 1 movedBox BoxOrPallet">
<path fill="none" stroke="black" d="M341.029,-204.515 346.678,-201.461 352.37,-198.585 358,-196 409.245,-172.473 471.022,-154.739 515.879,-143.611"/>
</a>
</g>
<text text-anchor="middle" x="377.029" y="-193.315" font-family="Times,serif" font-size="14.00">1 movedBox</text>
<text text-anchor="middle" x="510.379" y="-132.411" font-family="Times,serif" font-size="14.00">* </text>
</g>
<!-- DeliverOrShipmentBom&#45;&gt;LoadingGate -->
<g id="edge12" class="edge"><title>DeliverOrShipmentBom&#45;&gt;LoadingGate</title>
<g id="a_edge12"><a xlink:title="DeliverOrShipmentBom * delivery &#45;&#45; 0..1 sentThrough LoadingGate">
<path fill="none" stroke="black" d="M429.712,-423.086C428.958,-437.41 429.127,-454.313 430.22,-467.481"/>
</a>
</g>
<text text-anchor="middle" x="382.22" y="-456.281" font-family="Times,serif" font-size="14.00">0..1 sentThrough</text>
<text text-anchor="middle" x="401.212" y="-426.886" font-family="Times,serif" font-size="14.00">* delivery</text>
</g>
<!-- DeliverOrShipmentBom&#45;&gt;LoadingGate -->
<g id="edge13" class="edge"><title>DeliverOrShipmentBom&#45;&gt;LoadingGate</title>
<g id="a_edge13"><a xlink:title="DeliverOrShipmentBom * arrival &#45;&#45; 0..1 arriveAt LoadingGate">
<path fill="none" stroke="black" d="M441.78,-467.481 442.873,-454.313 443.042,-437.41 442.288,-423.086"/>
</a>
</g>
<text text-anchor="middle" x="477.78" y="-456.281" font-family="Times,serif" font-size="14.00">0..1 arriveAt</text>
<text text-anchor="middle" x="466.288" y="-426.886" font-family="Times,serif" font-size="14.00">* arrival</text>
</g>
<!-- BoxOrPallet&#45;&gt;Item -->
<g id="edge15" class="edge"><title>BoxOrPallet&#45;&gt;Item</title>
<g id="a_edge15"><a xlink:title="BoxOrPallet 1 &#160;&#45;&#45; * &#160;Item">
<path fill="none" stroke="black" d="M251.721,-354.429 253.17,-343.046 254.804,-330.218 256.395,-317.722"/>
</a>
</g>
<text text-anchor="middle" x="246.221" y="-343.229" font-family="Times,serif" font-size="14.00">* </text>
<text text-anchor="middle" x="250.895" y="-321.522" font-family="Times,serif" font-size="14.00">1 </text>
</g>
<!-- BoxOrPallet&#45;&gt;DeliverOrShipmentBom -->
<g id="edge14" class="edge"><title>BoxOrPallet&#45;&gt;DeliverOrShipmentBom</title>
<g id="a_edge14"><a xlink:title="BoxOrPallet * &#160;&#45;&#45; * &#160;DeliverOrShipmentBom">
<path fill="none" stroke="black" d="M340.694,-317.527C360.402,-332.824 380.77,-348.633 397.592,-361.689"/>
</a>
</g>
<text text-anchor="middle" x="392.092" y="-350.489" font-family="Times,serif" font-size="14.00">* </text>
<text text-anchor="middle" x="335.194" y="-321.327" font-family="Times,serif" font-size="14.00">* </text>
</g>
</g>
</svg>
