<?xml version="1.0" encoding="UTF-8" standalone="no"?>
<!DOCTYPE svg PUBLIC "-//W3C//DTD SVG 1.1//EN"
 "http://www.w3.org/Graphics/SVG/1.1/DTD/svg11.dtd">
<!-- Generated by graphviz version 2.29.20121108.1600 (20121108.1600)
 -->
<!-- Title: Master Pages: 1 -->
<svg width="849pt" height="172pt"
 viewBox="0.00 0.00 849.00 172.00" xmlns="http://www.w3.org/2000/svg" xmlns:xlink="http://www.w3.org/1999/xlink">
<g id="graph0" class="graph" transform="scale(1 1) rotate(0) translate(4 168)">
<title>Master</title>
<polygon fill="white" stroke="white" points="-4,5 -4,-168 846,-168 846,5 -4,5"/>
<g id="clust1" class="cluster"><title>clusterRulePart_type</title>
<polygon fill="none" stroke="black" stroke-width="0.5" points="8,-8 8,-156 218,-156 218,-8 8,-8"/>
<text text-anchor="middle" x="113" y="-138" font-family="Times,serif" font-size="14.00">sm RulePart type</text>
</g>
<g id="clust2" class="cluster"><title>clusterCoordinate_status</title>
<polygon fill="none" stroke="black" stroke-width="0.5" points="226,-8 226,-156 438,-156 438,-8 226,-8"/>
<text text-anchor="middle" x="332" y="-138" font-family="Times,serif" font-size="14.00">sm Coordinate status</text>
</g>
<g id="clust3" class="cluster"><title>clusterUmpleInternalParser_strictness</title>
<polygon fill="none" stroke="black" stroke-width="0.5" points="446,-8 446,-156 681,-156 681,-8 446,-8"/>
<text text-anchor="middle" x="563.5" y="-138" font-family="Times,serif" font-size="14.00">sm UmpleInternalParser strictness</text>
</g>
<g id="clust4" class="cluster"><title>clusterVariationPoint_kind</title>
<polygon fill="none" stroke="black" stroke-width="0.5" points="689,-8 689,-156 833,-156 833,-8 689,-8"/>
<text text-anchor="middle" x="761" y="-138" font-family="Times,serif" font-size="14.00">sm VariationPoint kind</text>
</g>
<!-- start_RulePart_type -->
<g id="node1" class="node"><title>start_RulePart_type</title>
<ellipse fill="black" stroke="black" cx="203" cy="-106" rx="7.2" ry="7.2"/>
</g>
<!-- RulePart_type_Static -->
<g id="node2" class="node"><title>RulePart_type_Static</title>
<path fill="none" stroke="black" d="M198,-52C198,-52 150,-52 150,-52 144,-52 138,-46 138,-40 138,-40 138,-28 138,-28 138,-22 144,-16 150,-16 150,-16 198,-16 198,-16 204,-16 210,-22 210,-28 210,-28 210,-40 210,-40 210,-46 204,-52 198,-52"/>
<text text-anchor="middle" x="174" y="-28.4" font-family="Times,serif" font-size="14.00">Static</text>
</g>
<!-- start_RulePart_type&#45;&gt;RulePart_type_Static -->
<g id="edge1" class="edge"><title>start_RulePart_type&#45;&gt;RulePart_type_Static</title>
<path fill="none" stroke="black" d="M200.527,-99.0318C197.111,-90.7843 190.726,-75.3737 185.077,-61.7377"/>
<polygon fill="black" stroke="black" points="188.207,-60.149 181.146,-52.25 181.74,-62.8282 188.207,-60.149"/>
</g>
<!-- RulePart_type_Variable -->
<g id="node3" class="node"><title>RulePart_type_Variable</title>
<path fill="none" stroke="black" d="M166,-124C166,-124 118,-124 118,-124 112,-124 106,-118 106,-112 106,-112 106,-100 106,-100 106,-94 112,-88 118,-88 118,-88 166,-88 166,-88 172,-88 178,-94 178,-100 178,-100 178,-112 178,-112 178,-118 172,-124 166,-124"/>
<text text-anchor="middle" x="142" y="-100.4" font-family="Times,serif" font-size="14.00">Variable</text>
</g>
<!-- RulePart_type_Rule -->
<g id="node4" class="node"><title>RulePart_type_Rule</title>
<path fill="none" stroke="black" d="M76,-124C76,-124 28,-124 28,-124 22,-124 16,-118 16,-112 16,-112 16,-100 16,-100 16,-94 22,-88 28,-88 28,-88 76,-88 76,-88 82,-88 88,-94 88,-100 88,-100 88,-112 88,-112 88,-118 82,-124 76,-124"/>
<text text-anchor="middle" x="52" y="-100.4" font-family="Times,serif" font-size="14.00">Rule</text>
</g>
<!-- start_Coordinate_status -->
<g id="node5" class="node"><title>start_Coordinate_status</title>
<ellipse fill="black" stroke="black" cx="423" cy="-106" rx="7.2" ry="7.2"/>
</g>
<!-- Coordinate_status_Explicit -->
<g id="node6" class="node"><title>Coordinate_status_Explicit</title>
<path fill="none" stroke="black" d="M418,-52C418,-52 370,-52 370,-52 364,-52 358,-46 358,-40 358,-40 358,-28 358,-28 358,-22 364,-16 370,-16 370,-16 418,-16 418,-16 424,-16 430,-22 430,-28 430,-28 430,-40 430,-40 430,-46 424,-52 418,-52"/>
<text text-anchor="middle" x="394" y="-28.4" font-family="Times,serif" font-size="14.00">Explicit</text>
</g>
<!-- start_Coordinate_status&#45;&gt;Coordinate_status_Explicit -->
<g id="edge2" class="edge"><title>start_Coordinate_status&#45;&gt;Coordinate_status_Explicit</title>
<path fill="none" stroke="black" d="M420.527,-99.0318C417.111,-90.7843 410.726,-75.3737 405.077,-61.7377"/>
<polygon fill="black" stroke="black" points="408.207,-60.149 401.146,-52.25 401.74,-62.8282 408.207,-60.149"/>
</g>
<!-- Coordinate_status_Undefined -->
<g id="node7" class="node"><title>Coordinate_status_Undefined</title>
<path fill="none" stroke="black" d="M386.244,-124C386.244,-124 335.756,-124 335.756,-124 329.756,-124 323.756,-118 323.756,-112 323.756,-112 323.756,-100 323.756,-100 323.756,-94 329.756,-88 335.756,-88 335.756,-88 386.244,-88 386.244,-88 392.244,-88 398.244,-94 398.244,-100 398.244,-100 398.244,-112 398.244,-112 398.244,-118 392.244,-124 386.244,-124"/>
<text text-anchor="middle" x="361" y="-100.4" font-family="Times,serif" font-size="14.00">Undefined</text>
</g>
<!-- Coordinate_status_Defaulted -->
<g id="node8" class="node"><title>Coordinate_status_Defaulted</title>
<path fill="none" stroke="black" d="M294,-124C294,-124 246,-124 246,-124 240,-124 234,-118 234,-112 234,-112 234,-100 234,-100 234,-94 240,-88 246,-88 246,-88 294,-88 294,-88 300,-88 306,-94 306,-100 306,-100 306,-112 306,-112 306,-118 300,-124 294,-124"/>
<text text-anchor="middle" x="270" y="-100.4" font-family="Times,serif" font-size="14.00">Defaulted</text>
</g>
<!-- start_UmpleInternalParser_strictness -->
<g id="node9" class="node"><title>start_UmpleInternalParser_strictness</title>
<ellipse fill="black" stroke="black" cx="666" cy="-106" rx="7.2" ry="7.2"/>
</g>
<!-- UmpleInternalParser_strictness_none -->
<g id="node10" class="node"><title>UmpleInternalParser_strictness_none</title>
<path fill="none" stroke="black" d="M661,-52C661,-52 613,-52 613,-52 607,-52 601,-46 601,-40 601,-40 601,-28 601,-28 601,-22 607,-16 613,-16 613,-16 661,-16 661,-16 667,-16 673,-22 673,-28 673,-28 673,-40 673,-40 673,-46 667,-52 661,-52"/>
<text text-anchor="middle" x="637" y="-28.4" font-family="Times,serif" font-size="14.00">none</text>
</g>
<!-- start_UmpleInternalParser_strictness&#45;&gt;UmpleInternalParser_strictness_none -->
<g id="edge3" class="edge"><title>start_UmpleInternalParser_strictness&#45;&gt;UmpleInternalParser_strictness_none</title>
<path fill="none" stroke="black" d="M663.527,-99.0318C660.111,-90.7843 653.726,-75.3737 648.077,-61.7377"/>
<polygon fill="black" stroke="black" points="651.207,-60.149 644.146,-52.25 644.74,-62.8282 651.207,-60.149"/>
</g>
<!-- UmpleInternalParser_strictness_modelOnly -->
<g id="node11" class="node"><title>UmpleInternalParser_strictness_modelOnly</title>
<path fill="none" stroke="black" d="M628.245,-124C628.245,-124 573.755,-124 573.755,-124 567.755,-124 561.755,-118 561.755,-112 561.755,-112 561.755,-100 561.755,-100 561.755,-94 567.755,-88 573.755,-88 573.755,-88 628.245,-88 628.245,-88 634.245,-88 640.245,-94 640.245,-100 640.245,-100 640.245,-112 640.245,-112 640.245,-118 634.245,-124 628.245,-124"/>
<text text-anchor="middle" x="601" y="-100.4" font-family="Times,serif" font-size="14.00">modelOnly</text>
</g>
<!-- UmpleInternalParser_strictness_noExtraCode -->
<g id="node12" class="node"><title>UmpleInternalParser_strictness_noExtraCode</title>
<path fill="none" stroke="black" d="M531.403,-124C531.403,-124 466.597,-124 466.597,-124 460.597,-124 454.597,-118 454.597,-112 454.597,-112 454.597,-100 454.597,-100 454.597,-94 460.597,-88 466.597,-88 466.597,-88 531.403,-88 531.403,-88 537.403,-88 543.403,-94 543.403,-100 543.403,-100 543.403,-112 543.403,-112 543.403,-118 537.403,-124 531.403,-124"/>
<text text-anchor="middle" x="499" y="-100.4" font-family="Times,serif" font-size="14.00">noExtraCode</text>
</g>
<!-- start_VariationPoint_kind -->
<g id="node13" class="node"><title>start_VariationPoint_kind</title>
<ellipse fill="black" stroke="black" cx="801" cy="-106" rx="7.2" ry="7.2"/>
</g>
<!-- VariationPoint_kind_Optional -->
<g id="node14" class="node"><title>VariationPoint_kind_Optional</title>
<path fill="none" stroke="black" d="M813,-52C813,-52 765,-52 765,-52 759,-52 753,-46 753,-40 753,-40 753,-28 753,-28 753,-22 759,-16 765,-16 765,-16 813,-16 813,-16 819,-16 825,-22 825,-28 825,-28 825,-40 825,-40 825,-46 819,-52 813,-52"/>
<text text-anchor="middle" x="789" y="-28.4" font-family="Times,serif" font-size="14.00">Optional</text>
</g>
<!-- start_VariationPoint_kind&#45;&gt;VariationPoint_kind_Optional -->
<g id="edge4" class="edge"><title>start_VariationPoint_kind&#45;&gt;VariationPoint_kind_Optional</title>
<path fill="none" stroke="black" d="M799.893,-98.54C798.482,-90.3144 795.957,-75.5814 793.692,-62.372"/>
<polygon fill="black" stroke="black" points="797.098,-61.5233 791.959,-52.2585 790.199,-62.7061 797.098,-61.5233"/>
</g>
<!-- VariationPoint_kind_Alternative -->
<g id="node15" class="node"><title>VariationPoint_kind_Alternative</title>
<path fill="none" stroke="black" d="M763.23,-124C763.23,-124 708.77,-124 708.77,-124 702.77,-124 696.77,-118 696.77,-112 696.77,-112 696.77,-100 696.77,-100 696.77,-94 702.77,-88 708.77,-88 708.77,-88 763.23,-88 763.23,-88 769.23,-88 775.23,-94 775.23,-100 775.23,-100 775.23,-112 775.23,-112 775.23,-118 769.23,-124 763.23,-124"/>
<text text-anchor="middle" x="736" y="-100.4" font-family="Times,serif" font-size="14.00">Alternative</text>
</g>
</g>
</svg>
