<?xml version="1.0" encoding="UTF-8" standalone="no"?>
<!DOCTYPE svg PUBLIC "-//W3C//DTD SVG 1.1//EN"
 "http://www.w3.org/Graphics/SVG/1.1/DTD/svg11.dtd">
<!-- Generated by graphviz version 2.39.20140502.0445 (20140502.0445)
 -->
<!-- Title: CarSystem1 Pages: 1 -->
<svg width="1521pt" height="1022pt"
 viewBox="0.00 0.00 1521.50 1022.00" xmlns="http://www.w3.org/2000/svg" xmlns:xlink="http://www.w3.org/1999/xlink">
<defs><marker id="Triangle" viewBox="0 0 20 20" refX="20" refY="10" markerUnits="strokeWidth" markerWidth="8" markerHeight="6" orient="auto"><path d="M 0 0 L 20 10 L 0 20 z"></path></marker></defs><g style="fill: rgb(255,255,255); font-family:'sans-serif';" transform="translate(50,20)"><rect style="stroke:#000000;" fill="#FFFFFF" height="40" width="256.2109375"></rect><rect style="stroke:#000000;" fill="#FFFFFF" height="20" width="256.2109375"></rect><rect style="fill:#e6e6e6;" x="1" y="1" width="191.2109375" height="18"></rect><polygon style="stroke:black;stroke-width:1;" points="192.2109375,2 192.2109375,18"></polygon><text style="fill: #000000;  font-family:tahoma; font-size: 10; font-weight:bold" y="15" x="15">MotorRotationSpeed</text></g><g transform="translate(46,31)"><rect style="stroke:#000000;" height="10" width="10" fill="#000000"><title>Relay port</title></rect><rect fill="#FFFFCC" height="4" width="4" x="3" y="3" style="stroke: #FFFFCC;"><title>Relay port</title></rect></g><text style="fill: #000000;  font-family:tahoma; font-size: 10;  font-weight:bold;" x="7.3125" y="37.5">speed</text><g style="fill: rgb(255,255,255); font-family:'sans-serif';" transform="translate(50,84)"><rect style="stroke:#000000;" fill="#FFFFFF" height="40" width="229.3203125"></rect><rect style="stroke:#000000;" fill="#FFFFFF" height="20" width="229.3203125"></rect><rect style="fill:#e6e6e6;" x="1" y="1" width="164.3203125" height="18"></rect><polygon style="stroke:black;stroke-width:1;" points="165.3203125,2 165.3203125,18"></polygon><text style="fill: #000000;  font-family:tahoma; font-size: 10; font-weight:bold" y="15" x="15">MotorOilQuantity</text></g><g transform="translate(46,95)"><rect style="stroke:#000000;" height="10" width="10" fill="#000000"><title>Relay port</title></rect><rect fill="#FFFFCC" height="4" width="4" x="3" y="3" style="stroke: #FFFFCC;"><title>Relay port</title></rect></g><text style="fill: #000000;  font-family:tahoma; font-size: 10;  font-weight:bold;" x="-39.14453125" y="101.5">motorOilQuantity</text><g style="fill: rgb(255,255,255); font-family:'sans-serif';" transform="translate(50,148)"><rect style="stroke:#000000;" fill="#FFFFFF" height="40" width="230.6953125"></rect><rect style="stroke:#000000;" fill="#FFFFFF" height="20" width="230.6953125"></rect><rect style="fill:#e6e6e6;" x="1" y="1" width="165.6953125" height="18"></rect><polygon style="stroke:black;stroke-width:1;" points="166.6953125,2 166.6953125,18"></polygon><text style="fill: #000000;  font-family:tahoma; font-size: 10; font-weight:bold" y="15" x="15">MotorOilViscosity</text></g><g transform="translate(46,159)"><rect style="stroke:#000000;" height="10" width="10" fill="#000000"><title>Relay port</title></rect><rect fill="#FFFFCC" height="4" width="4" x="3" y="3" style="stroke: #FFFFCC;"><title>Relay port</title></rect></g><text style="fill: #000000;  font-family:tahoma; font-size: 10;  font-weight:bold;" x="-39.83203125" y="165.5">motorOilViscosity</text><g style="fill: rgb(255,255,255); font-family:'sans-serif';" transform="translate(50,212)"><rect style="stroke:#000000;" fill="#FFFFFF" height="40" width="213.5625"></rect><rect style="stroke:#000000;" fill="#FFFFFF" height="20" width="213.5625"></rect><rect style="fill:#e6e6e6;" x="1" y="1" width="148.5625" height="18"></rect><polygon style="stroke:black;stroke-width:1;" points="149.5625,2 149.5625,18"></polygon><text style="fill: #000000;  font-family:tahoma; font-size: 10; font-weight:bold" y="15" x="15">ThrottleControl</text></g><g transform="translate(46,223)"><rect style="stroke:#000000;" height="10" width="10" fill="#000000"><title>Relay port</title></rect><rect fill="#FFFFCC" height="4" width="4" x="3" y="3" style="stroke: #FFFFCC;"><title>Relay port</title></rect></g><text style="fill: #000000;  font-family:tahoma; font-size: 10;  font-weight:bold;" x="-52.58984375" y="229.5">motorRotationSpeed</text><g transform="translate(46,238)"><rect style="stroke:#000000;" height="10" width="10" fill="#000000"><title>Relay port</title></rect><rect fill="#FFFFCC" height="4" width="4" x="3" y="3" style="stroke: #FFFFCC;"><title>Relay port</title></rect></g><text style="fill: #000000;  font-family:tahoma; font-size: 10;  font-weight:bold;" x="-22.13671875" y="244.5">throttleValue</text><g style="fill: rgb(255,255,255); font-family:'sans-serif';" transform="translate(50,276)"><rect style="stroke:#000000;" fill="#FFFFFF" height="40" width="196.9921875"></rect><rect style="stroke:#000000;" fill="#FFFFFF" height="20" width="196.9921875"></rect><rect style="fill:#e6e6e6;" x="1" y="1" width="131.9921875" height="18"></rect><polygon style="stroke:black;stroke-width:1;" points="132.9921875,2 132.9921875,18"></polygon><text style="fill: #000000;  font-family:tahoma; font-size: 10; font-weight:bold" y="15" x="15">Speedometer</text></g><g transform="translate(46,287)"><rect style="stroke:#000000;" height="10" width="10" fill="#000000"><title>Relay port</title></rect><rect fill="#FFFFCC" height="4" width="4" x="3" y="3" style="stroke: #FFFFCC;"><title>Relay port</title></rect></g><text style="fill: #000000;  font-family:tahoma; font-size: 10;  font-weight:bold;" x="7.3125" y="293.5">speed</text><g style="fill: rgb(255,255,255); font-family:'sans-serif';" transform="translate(50,340)"><rect style="stroke:#000000;" fill="#FFFFFF" height="40" width="208.1015625"></rect><rect style="stroke:#000000;" fill="#FFFFFF" height="20" width="208.1015625"></rect><rect style="fill:#e6e6e6;" x="1" y="1" width="143.1015625" height="18"></rect><polygon style="stroke:black;stroke-width:1;" points="144.1015625,2 144.1015625,18"></polygon><text style="fill: #000000;  font-family:tahoma; font-size: 10; font-weight:bold" y="15" x="15">MotorOilCheck</text></g><g transform="translate(46,351)"><rect style="stroke:#000000;" height="10" width="10" fill="#000000"><title>Relay port</title></rect><rect fill="#FFFFCC" height="4" width="4" x="3" y="3" style="stroke: #FFFFCC;"><title>Relay port</title></rect></g><text style="fill: #000000;  font-family:tahoma; font-size: 10;  font-weight:bold;" x="-52.58984375" y="357.5">motorRotationSpeed</text><g transform="translate(46,366)"><rect style="stroke:#000000;" height="10" width="10" fill="#000000"><title>Relay port</title></rect><rect fill="#FFFFCC" height="4" width="4" x="3" y="3" style="stroke: #FFFFCC;"><title>Relay port</title></rect></g><text style="fill: #000000;  font-family:tahoma; font-size: 10;  font-weight:bold;" x="-39.83203125" y="372.5">motorOilViscosity</text><g transform="translate(98.025390625,336)"><rect style="stroke:#000000;" height="10" width="10" fill="#000000"><title>Relay port</title></rect><rect fill="#FFFFCC" height="4" width="4" x="3" y="3" style="stroke: #FFFFCC;"><title>Relay port</title></rect></g><text style="fill: #000000;  font-family:tahoma; font-size: 10;  font-weight:bold;" x="32.490234375" y="332">motorOilRenewal</text><g style="fill: rgb(255,255,255); font-family:'sans-serif';" transform="translate(50,404)"><rect style="stroke:#000000;" fill="#FFFFFF" height="40" width="279.546875"></rect><rect style="stroke:#000000;" fill="#FFFFFF" height="20" width="279.546875"></rect><rect style="fill:#e6e6e6;" x="1" y="1" width="214.546875" height="18"></rect><polygon style="stroke:black;stroke-width:1;" points="215.546875,2 215.546875,18"></polygon><text style="fill: #000000;  font-family:tahoma; font-size: 10; font-weight:bold" y="15" x="15">ConditionCheckAdapter</text></g><g transform="translate(46,415)"><rect style="stroke:#000000;" height="10" width="10" fill="#000000"><title>Relay port</title></rect><rect fill="#FFFFCC" height="4" width="4" x="3" y="3" style="stroke: #FFFFCC;"><title>Relay port</title></rect></g><text style="fill: #000000;  font-family:tahoma; font-size: 10;  font-weight:bold;" x="0.21875" y="421.5">ignition</text><g transform="translate(46,430)"><rect style="stroke:#000000;" height="10" width="10" fill="#000000"><title>Relay port</title></rect><rect fill="#FFFFCC" height="4" width="4" x="3" y="3" style="stroke: #FFFFCC;"><title>Relay port</title></rect></g><text style="fill: #000000;  font-family:tahoma; font-size: 10;  font-weight:bold;" x="-38.47265625" y="436.5">wheelsclientData</text><g transform="translate(115.88671875,400)"><rect style="stroke:#000000;" height="10" width="10" fill="#000000"><title>Relay port</title></rect><rect fill="#FFFFCC" height="4" width="4" x="3" y="3" style="stroke: #FFFFCC;"><title>Relay port</title></rect></g><text style="fill: #000000;  font-family:tahoma; font-size: 10;  font-weight:bold;" x="43.8984375" y="396">motorOilclientData</text><g transform="translate(185.7734375,400)"><rect style="stroke:#000000;" height="10" width="10" fill="#000000"><title>Relay port</title></rect><rect fill="#FFFFCC" height="4" width="4" x="3" y="3" style="stroke: #FFFFCC;"><title>Relay port</title></rect></g><text style="fill: #000000;  font-family:tahoma; font-size: 10;  font-weight:bold;" x="97.63671875" y="396">particleFilterclientData</text><g transform="translate(255.66015625,400)"><rect style="stroke:#000000;" height="10" width="10" fill="#000000"><title>Relay port</title></rect><rect fill="#FFFFCC" height="4" width="4" x="3" y="3" style="stroke: #FFFFCC;"><title>Relay port</title></rect></g><text style="fill: #000000;  font-family:tahoma; font-size: 10;  font-weight:bold;" x="178.8984375" y="396">sparkPlugclientData</text><g transform="translate(325.546875,410)"><rect style="stroke:#000000;" height="10" width="10" fill="#000000"><title>Relay port</title></rect><rect fill="#FFFFCC" height="4" width="4" x="3" y="3" style="stroke: #FFFFCC;"><title>Relay port</title></rect></g><text style="fill: #000000;  font-family:tahoma; font-size: 10;  font-weight:bold;" x="337.546875" y="415.5">driverInterface</text><g style="fill: rgb(255,255,255); font-family:'sans-serif';" transform="translate(50,468)"><rect style="stroke:#000000;" fill="#FFFFFF" height="40" width="217.8203125"></rect><rect style="stroke:#000000;" fill="#FFFFFF" height="20" width="217.8203125"></rect><rect style="fill:#e6e6e6;" x="1" y="1" width="152.8203125" height="18"></rect><polygon style="stroke:black;stroke-width:1;" points="153.8203125,2 153.8203125,18"></polygon><text style="fill: #000000;  font-family:tahoma; font-size: 10; font-weight:bold" y="15" x="15">ClientAdaptive1</text></g><g transform="translate(46,479)"><rect style="stroke:#000000;" height="10" width="10" fill="#000000"><title>Relay port</title></rect><rect fill="#FFFFCC" height="4" width="4" x="3" y="3" style="stroke: #FFFFCC;"><title>Relay port</title></rect></g><text style="fill: #000000;  font-family:tahoma; font-size: 10;  font-weight:bold;" x="0.21875" y="485.5">ignition</text><g transform="translate(46,494)"><rect style="stroke:#000000;" height="10" width="10" fill="#000000"><title>Relay port</title></rect><rect fill="#FFFFCC" height="4" width="4" x="3" y="3" style="stroke: #FFFFCC;"><title>Relay port</title></rect></g><text style="fill: #000000;  font-family:tahoma; font-size: 10;  font-weight:bold;" x="-14.47265625" y="500.5">sensorData</text><g transform="translate(100.455078125,464)"><rect style="stroke:#000000;" height="10" width="10" fill="#000000"><title>Relay port</title></rect><rect fill="#FFFFCC" height="4" width="4" x="3" y="3" style="stroke: #FFFFCC;"><title>Relay port</title></rect></g><text style="fill: #000000;  font-family:tahoma; font-size: 10;  font-weight:bold;" x="62.708984375" y="460">boardData</text><g transform="translate(154.91015625,464)"><rect style="stroke:#000000;" height="10" width="10" fill="#000000"><title>Relay port</title></rect><rect fill="#FFFFCC" height="4" width="4" x="3" y="3" style="stroke: #FFFFCC;"><title>Relay port</title></rect></g><text style="fill: #000000;  font-family:tahoma; font-size: 10;  font-weight:bold;" x="118.20703125" y="460">clientData</text><g style="fill: rgb(255,255,255); font-family:'sans-serif';" transform="translate(50,532)"><rect style="stroke:#000000;" fill="#FFFFFF" height="372" width="667.3671875"></rect><rect style="stroke:#000000;" fill="#FFFFFF" height="20" width="667.3671875"></rect><rect style="fill:#e6e6e6;" x="1" y="1" width="111.1796875" height="18"></rect><polygon style="stroke:black;stroke-width:1;" points="112.1796875,2 112.1796875,18"></polygon><text style="fill: #000000;  font-family:tahoma; font-size: 10; font-weight:bold" y="15" x="15">CarSystem</text></g><g style="fill: rgb(255,255,255); font-family:'sans-serif';" transform="translate(100,572)"><rect style="stroke:#000000;" fill="#FFFFFF" height="40" width="217.8203125"></rect><rect style="stroke:#000000;" fill="#5DBCD2" height="20" width="217.8203125"></rect><text style="fill: #000000;  font-family:tahoma; font-size: 10; font-weight:bold" y="15" x="37.5">ClientAdaptive1</text><rect style="stroke:#000000;" height="10" width="12" fill="none" x="192.8203125" y="6"></rect><rect style="stroke:#000000;" height="2" width="6" y="8" x="189.8203125" fill="#5DBCD2"></rect><rect style="stroke:#000000;" height="2" width="6" y="12" x="189.8203125" fill="#5DBCD2"></rect></g><g transform="translate(204.91015625,568)"><rect style="stroke:#000000;" height="10" width="10" fill="#000000"><title>Relay port</title></rect><rect fill="#FFFFCC" height="4" width="4" x="3" y="3" style="stroke: #FFFFCC;"><title>Relay port</title></rect></g><text style="fill: #000000;  font-family:tahoma; font-size: 10;  font-weight:bold;" x="50.21875" y="589.5">ignition</text><text style="fill: #000000;  font-family:tahoma; font-size: 10;  font-weight:bold;" x="35.52734375" y="604.5">sensorData</text><text style="fill: #000000;  font-family:tahoma; font-size: 10;  font-weight:bold;" x="112.708984375" y="564">boardData</text><text style="fill: #000000;  font-family:tahoma; font-size: 10;  font-weight:bold;" x="168.20703125" y="564">clientData</text><g style="fill: rgb(255,255,255); font-family:'sans-serif';" transform="translate(397.8203125,572)"><rect style="stroke:#000000;" fill="#FFFFFF" height="40" width="279.546875"></rect><rect style="stroke:#000000;" fill="#5DBCD2" height="20" width="279.546875"></rect><text style="fill: #000000;  font-family:tahoma; font-size: 10; font-weight:bold" y="15" x="37.5">ConditionCheckAdapter</text><rect style="stroke:#000000;" height="10" width="12" fill="none" x="254.546875" y="6"></rect><rect style="stroke:#000000;" height="2" width="6" y="8" x="251.546875" fill="#5DBCD2"></rect><rect style="stroke:#000000;" height="2" width="6" y="12" x="251.546875" fill="#5DBCD2"></rect></g><g transform="translate(393.8203125,583)"><rect style="stroke:#000000;" height="10" width="10" fill="#000000"><title>Relay port</title></rect><rect fill="#FFFFCC" height="4" width="4" x="3" y="3" style="stroke: #FFFFCC;"><title>Relay port</title></rect></g><g transform="translate(393.8203125,598)"><rect style="stroke:#000000;" height="10" width="10" fill="#000000"><title>Relay port</title></rect><rect fill="#FFFFCC" height="4" width="4" x="3" y="3" style="stroke: #FFFFCC;"><title>Relay port</title></rect></g><g transform="translate(463.70703125,568)"><rect style="stroke:#000000;" height="10" width="10" fill="#000000"><title>Relay port</title></rect><rect fill="#FFFFCC" height="4" width="4" x="3" y="3" style="stroke: #FFFFCC;"><title>Relay port</title></rect></g><g transform="translate(533.59375,568)"><rect style="stroke:#000000;" height="10" width="10" fill="#000000"><title>Relay port</title></rect><rect fill="#FFFFCC" height="4" width="4" x="3" y="3" style="stroke: #FFFFCC;"><title>Relay port</title></rect></g><g transform="translate(603.48046875,568)"><rect style="stroke:#000000;" height="10" width="10" fill="#000000"><title>Relay port</title></rect><rect fill="#FFFFCC" height="4" width="4" x="3" y="3" style="stroke: #FFFFCC;"><title>Relay port</title></rect></g><g transform="translate(673.3671875,578)"><rect style="stroke:#000000;" height="10" width="10" fill="#000000"><title>Relay port</title></rect><rect fill="#FFFFCC" height="4" width="4" x="3" y="3" style="stroke: #FFFFCC;"><title>Relay port</title></rect></g><text style="fill: #000000;  font-family:tahoma; font-size: 10;  font-weight:bold;" x="348.0390625" y="589.5">ignition</text><text style="fill: #000000;  font-family:tahoma; font-size: 10;  font-weight:bold;" x="309.34765625" y="604.5">wheelsclientData</text><text style="fill: #000000;  font-family:tahoma; font-size: 10;  font-weight:bold;" x="391.71875" y="564">motorOilclientData</text><text style="fill: #000000;  font-family:tahoma; font-size: 10;  font-weight:bold;" x="445.45703125" y="564">particleFilterclientData</text><text style="fill: #000000;  font-family:tahoma; font-size: 10;  font-weight:bold;" x="526.71875" y="564">sparkPlugclientData</text><text style="fill: #000000;  font-family:tahoma; font-size: 10;  font-weight:bold;" x="685.3671875" y="583.5">driverInterface</text><g style="fill: rgb(255,255,255); font-family:'sans-serif';" transform="translate(100,656)"><rect style="stroke:#000000;" fill="#FFFFFF" height="40" width="256.2109375"></rect><rect style="stroke:#000000;" fill="#5DBCD2" height="20" width="256.2109375"></rect><text style="fill: #000000;  font-family:tahoma; font-size: 10; font-weight:bold" y="15" x="37.5">MotorRotationSpeed</text><rect style="stroke:#000000;" height="10" width="12" fill="none" x="231.2109375" y="6"></rect><rect style="stroke:#000000;" height="2" width="6" y="8" x="228.2109375" fill="#5DBCD2"></rect><rect style="stroke:#000000;" height="2" width="6" y="12" x="228.2109375" fill="#5DBCD2"></rect></g><g transform="translate(96,667)"><rect style="stroke:#000000;" height="10" width="10" fill="#000000"><title>Relay port</title></rect><rect fill="#FFFFCC" height="4" width="4" x="3" y="3" style="stroke: #FFFFCC;"><title>Relay port</title></rect></g><text style="fill: #000000;  font-family:tahoma; font-size: 10;  font-weight:bold;" x="57.3125" y="673.5">speed</text><g style="fill: rgb(255,255,255); font-family:'sans-serif';" transform="translate(436.2109375,656)"><rect style="stroke:#000000;" fill="#FFFFFF" height="40" width="229.3203125"></rect><rect style="stroke:#000000;" fill="#5DBCD2" height="20" width="229.3203125"></rect><text style="fill: #000000;  font-family:tahoma; font-size: 10; font-weight:bold" y="15" x="37.5">MotorOilQuantity</text><rect style="stroke:#000000;" height="10" width="12" fill="none" x="204.3203125" y="6"></rect><rect style="stroke:#000000;" height="2" width="6" y="8" x="201.3203125" fill="#5DBCD2"></rect><rect style="stroke:#000000;" height="2" width="6" y="12" x="201.3203125" fill="#5DBCD2"></rect></g><g transform="translate(432.2109375,667)"><rect style="stroke:#000000;" height="10" width="10" fill="#000000"><title>Relay port</title></rect><rect fill="#FFFFCC" height="4" width="4" x="3" y="3" style="stroke: #FFFFCC;"><title>Relay port</title></rect></g><text style="fill: #000000;  font-family:tahoma; font-size: 10;  font-weight:bold;" x="347.06640625" y="673.5">motorOilQuantity</text><g style="fill: rgb(255,255,255); font-family:'sans-serif';" transform="translate(100,740)"><rect style="stroke:#000000;" fill="#FFFFFF" height="40" width="230.6953125"></rect><rect style="stroke:#000000;" fill="#5DBCD2" height="20" width="230.6953125"></rect><text style="fill: #000000;  font-family:tahoma; font-size: 10; font-weight:bold" y="15" x="37.5">MotorOilViscosity</text><rect style="stroke:#000000;" height="10" width="12" fill="none" x="205.6953125" y="6"></rect><rect style="stroke:#000000;" height="2" width="6" y="8" x="202.6953125" fill="#5DBCD2"></rect><rect style="stroke:#000000;" height="2" width="6" y="12" x="202.6953125" fill="#5DBCD2"></rect></g><text style="fill: #000000;  font-family:tahoma; font-size: 10;  font-weight:bold;" x="10.16796875" y="757.5">motorOilViscosity</text><g style="fill: rgb(255,255,255); font-family:'sans-serif';" transform="translate(410.6953125,740)"><rect style="stroke:#000000;" fill="#FFFFFF" height="40" width="213.5625"></rect><rect style="stroke:#000000;" fill="#5DBCD2" height="20" width="213.5625"></rect><text style="fill: #000000;  font-family:tahoma; font-size: 10; font-weight:bold" y="15" x="37.5">ThrottleControl</text><rect style="stroke:#000000;" height="10" width="12" fill="none" x="188.5625" y="6"></rect><rect style="stroke:#000000;" height="2" width="6" y="8" x="185.5625" fill="#5DBCD2"></rect><rect style="stroke:#000000;" height="2" width="6" y="12" x="185.5625" fill="#5DBCD2"></rect></g><g transform="translate(406.6953125,751)"><rect style="stroke:#000000;" height="10" width="10" fill="#000000"><title>Relay port</title></rect><rect fill="#FFFFCC" height="4" width="4" x="3" y="3" style="stroke: #FFFFCC;"><title>Relay port</title></rect></g><text style="fill: #000000;  font-family:tahoma; font-size: 10;  font-weight:bold;" x="308.10546875" y="757.5">motorRotationSpeed</text><text style="fill: #000000;  font-family:tahoma; font-size: 10;  font-weight:bold;" x="338.55859375" y="772.5">throttleValue</text><g style="fill: rgb(255,255,255); font-family:'sans-serif';" transform="translate(100,824)"><rect style="stroke:#000000;" fill="#FFFFFF" height="40" width="208.1015625"></rect><rect style="stroke:#000000;" fill="#5DBCD2" height="20" width="208.1015625"></rect><text style="fill: #000000;  font-family:tahoma; font-size: 10; font-weight:bold" y="15" x="37.5">MotorOilCheck</text><rect style="stroke:#000000;" height="10" width="12" fill="none" x="183.1015625" y="6"></rect><rect style="stroke:#000000;" height="2" width="6" y="8" x="180.1015625" fill="#5DBCD2"></rect><rect style="stroke:#000000;" height="2" width="6" y="12" x="180.1015625" fill="#5DBCD2"></rect></g><g transform="translate(96,835)"><rect style="stroke:#000000;" height="10" width="10" fill="#000000"><title>Relay port</title></rect><rect fill="#FFFFCC" height="4" width="4" x="3" y="3" style="stroke: #FFFFCC;"><title>Relay port</title></rect></g><text style="fill: #000000;  font-family:tahoma; font-size: 10;  font-weight:bold;" x="-2.58984375" y="841.5">motorRotationSpeed</text><text style="fill: #000000;  font-family:tahoma; font-size: 10;  font-weight:bold;" x="10.16796875" y="856.5">motorOilViscosity</text><text style="fill: #000000;  font-family:tahoma; font-size: 10;  font-weight:bold;" x="82.490234375" y="816">motorOilRenewal</text><text style="fill: #000000;  font-family:tahoma; font-size: 10;  font-weight:bold;" x="0.21875" y="632.5">ignition</text><text style="fill: #000000;  font-family:tahoma; font-size: 10;  font-weight:bold;" x="-11.24609375" y="813.5">boardData</text><text style="fill: #000000;  font-family:tahoma; font-size: 10;  font-weight:bold;" x="170.111328125" y="524">wheelsData</text><text style="fill: #000000;  font-family:tahoma; font-size: 10;  font-weight:bold;" x="329.9375" y="524">motorOilData</text><g transform="translate(546.525390625,528)"><rect style="stroke:#000000;" height="10" width="10" fill="#000000"><title>Relay port</title></rect><rect fill="#FFFFCC" height="4" width="4" x="3" y="3" style="stroke: #FFFFCC;"><title>Relay port</title></rect></g><text style="fill: #000000;  font-family:tahoma; font-size: 10;  font-weight:bold;" x="480.630859375" y="524">particleFilterData</text><g transform="translate(713.3671875,621)"><rect style="stroke:#000000;" height="10" width="10" fill="#000000"><title>Relay port</title></rect><rect fill="#FFFFCC" height="4" width="4" x="3" y="3" style="stroke: #FFFFCC;"><title>Relay port</title></rect></g><text style="fill: #000000;  font-family:tahoma; font-size: 10;  font-weight:bold;" x="725.3671875" y="626.5">sparkPlugData</text><text style="fill: #000000;  font-family:tahoma; font-size: 10;  font-weight:bold;" x="725.3671875" y="812.5">driverInterface</text><text style="fill: #000000;  font-family:tahoma; font-size: 10;  font-weight:bold;" x="160.935546875" y="917">throttleStatus</text><text style="fill: #000000;  font-family:tahoma; font-size: 10;  font-weight:bold;" x="334.53515625" y="917">motorOilLed</text><polyline style="fill:none;stroke:black;stroke-width:1px;" points="56,631 66,631 86,631 86,588 96,588"></polyline><polyline style="fill:none;stroke:black;stroke-width:1px;" points="96,603 86,603 86,548 217.841796875,548 217.841796875,538"></polyline><g transform="translate(212.841796875,528)"><rect style="stroke:#000000;" height="10" width="10" fill="#000000"><title>Relay port</title></rect><rect fill="#FFFFCC" height="4" width="4" x="3" y="3" style="stroke: #FFFFCC;"><title>Relay port</title></rect></g><polyline style="fill:none;stroke:black;stroke-width:1px;" points="56,812 66,812 89.5,812 89.5,558 155.455078125,558 155.455078125,568"></polyline><polyline style="fill:none;stroke:black;stroke-width:1px;" points="56,631 66,631 86,631 86,588 96,588"></polyline><polyline style="fill:none;stroke:undefined;stroke-width:1px;" points="96,603 86,603 86,548 384.68359375,548 384.68359375,538"></polyline><g transform="translate(96,598)"><rect style="stroke:#000000;" height="10" width="10" fill="#000000"><title>Relay port</title></rect><rect fill="#FFFFCC" height="4" width="4" x="3" y="3" style="stroke: #FFFFCC;"><title>Relay port</title></rect></g><g transform="translate(379.68359375,528)"><rect style="stroke:#000000;" height="10" width="10" fill="#000000"><title>Relay port</title></rect><rect fill="#FFFFCC" height="4" width="4" x="3" y="3" style="stroke: #FFFFCC;"><title>Relay port</title></rect></g><polyline style="fill:none;stroke:black;stroke-width:1px;" points="56,812 66,812 89.5,812 89.5,558 155.455078125,558 155.455078125,568"></polyline><polyline style="fill:none;stroke:black;stroke-width:1px;" points="56,631 66,631 86,631 86,588 96,588"></polyline><g transform="translate(96,583)"><rect style="stroke:#000000;" height="10" width="10" fill="#000000"><title>Relay port</title></rect><rect fill="#FFFFCC" height="4" width="4" x="3" y="3" style="stroke: #FFFFCC;"><title>Relay port</title></rect></g><polyline style="fill:none;stroke:black;stroke-width:1px;" points="56,812 66,812 89.5,812 89.5,558 155.455078125,558 155.455078125,568"></polyline><g transform="translate(150.455078125,568)"><rect style="stroke:#000000;" height="10" width="10" fill="#000000"><title>Relay port</title></rect><rect fill="#FFFFCC" height="4" width="4" x="3" y="3" style="stroke: #FFFFCC;"><title>Relay port</title></rect></g><polyline style="fill:none;stroke:black;stroke-width:1px;" points="46,631 36,631 36,631 36,631 46,631"></polyline><polyline style="fill:none;stroke:black;stroke-width:1px;" points="46,812 36,812 36,812 36,812 46,812"></polyline><g transform="translate(46,807)"><rect style="stroke:#000000;" height="10" width="10" fill="#000000"><title>Relay port</title></rect><rect fill="#FFFFCC" height="4" width="4" x="3" y="3" style="stroke: #FFFFCC;"><title>Relay port</title></rect></g><polyline style="fill:none;stroke:black;stroke-width:1px;" points="46,631 36,631 36,631 36,631 46,631"></polyline><g transform="translate(46,626)"><rect style="stroke:#000000;" height="10" width="10" fill="#000000"><title>Relay port</title></rect><rect fill="#FFFFCC" height="4" width="4" x="3" y="3" style="stroke: #FFFFCC;"><title>Relay port</title></rect></g><polyline style="fill:none;stroke:undefined;stroke-width:1px;" points="723.3671875,812 733.3671875,812 733.3671875,812 733.3671875,812 723.3671875,812"></polyline><g transform="translate(713.3671875,807)"><rect style="stroke:#000000;" height="10" width="10" fill="#000000"><title>Relay port</title></rect><rect fill="#FFFFCC" height="4" width="4" x="3" y="3" style="stroke: #FFFFCC;"><title>Relay port</title></rect></g><polyline style="fill:none;stroke:undefined;stroke-width:1px;" points="217.841796875,900 217.841796875,890 396.6953125,890 396.6953125,771 406.6953125,771"></polyline><g transform="translate(212.841796875,900)"><rect style="stroke:#000000;" height="10" width="10" fill="#000000"><title>Relay port</title></rect><rect fill="#FFFFCC" height="4" width="4" x="3" y="3" style="stroke: #FFFFCC;"><title>Relay port</title></rect></g><g transform="translate(406.6953125,766)"><rect style="stroke:#000000;" height="10" width="10" fill="#000000"><title>Relay port</title></rect><rect fill="#FFFFCC" height="4" width="4" x="3" y="3" style="stroke: #FFFFCC;"><title>Relay port</title></rect></g><polyline style="fill:none;stroke:undefined;stroke-width:1px;" points="153.025390625,820 153.025390625,810 384.68359375,810 384.68359375,890 384.68359375,900"></polyline><g transform="translate(148.025390625,820)"><rect style="stroke:#000000;" height="10" width="10" fill="#000000"><title>Relay port</title></rect><rect fill="#FFFFCC" height="4" width="4" x="3" y="3" style="stroke: #FFFFCC;"><title>Relay port</title></rect></g><g transform="translate(379.68359375,900)"><rect style="stroke:#000000;" height="10" width="10" fill="#000000"><title>Relay port</title></rect><rect fill="#FFFFCC" height="4" width="4" x="3" y="3" style="stroke: #FFFFCC;"><title>Relay port</title></rect></g><polyline style="fill:none;stroke:undefined;stroke-width:1px;" points="96,756 86,756 86,756 86,855 96,855"></polyline><g transform="translate(96,751)"><rect style="stroke:#000000;" height="10" width="10" fill="#000000"><title>Relay port</title></rect><rect fill="#FFFFCC" height="4" width="4" x="3" y="3" style="stroke: #FFFFCC;"><title>Relay port</title></rect></g><g transform="translate(96,850)"><rect style="stroke:#000000;" height="10" width="10" fill="#000000"><title>Relay port</title></rect><rect fill="#FFFFCC" height="4" width="4" x="3" y="3" style="stroke: #FFFFCC;"><title>Relay port</title></rect></g></svg>