<?xml version="1.0" encoding="UTF-8" standalone="no"?>
<!DOCTYPE svg PUBLIC "-//W3C//DTD SVG 1.1//EN"
 "http://www.w3.org/Graphics/SVG/1.1/DTD/svg11.dtd">
<!-- Generated by graphviz version 2.39.20140502.0445 (20140502.0445)
 -->
<!-- Title: CarSystem2 Pages: 1 -->
<svg width="1531pt" height="341pt"
 viewBox="0.00 0.00 1531.50 341.00" xmlns="http://www.w3.org/2000/svg" xmlns:xlink="http://www.w3.org/1999/xlink">
<defs><marker id="Triangle" viewBox="0 0 20 20" refX="20" refY="10" markerUnits="strokeWidth" markerWidth="8" markerHeight="6" orient="auto"><path d="M 0 0 L 20 10 L 0 20 z"></path></marker></defs><g style="fill: rgb(255,255,255); font-family:'sans-serif';" transform="translate(50,20)"><rect style="stroke:#000000;" fill="#FFFFFF" height="40" width="279.546875"></rect><rect style="stroke:#000000;" fill="#FFFFFF" height="20" width="279.546875"></rect><rect style="fill:#e6e6e6;" x="1" y="1" width="214.546875" height="18"></rect><polygon style="stroke:black;stroke-width:1;" points="215.546875,2 215.546875,18"></polygon><text style="fill: #000000;  font-family:tahoma; font-size: 10; font-weight:bold" y="15" x="15">ConditionCheckAdapter</text></g><g transform="translate(45,30)"><rect style="stroke:#000000;" height="10" width="10" fill="#000000"><title>Relay port</title></rect><rect fill="#FFFFCC" height="4" width="4" x="3" y="3" style="stroke: #FFFFCC;"><title>Relay port</title></rect></g><text style="fill: #000000;  font-family:tahoma; font-size: 10;  font-weight:bold;" x="-0.78125" y="36.5">ignition</text><g transform="translate(45,45)"><rect style="stroke:#000000;" height="10" width="10" fill="#000000"><title>Relay port</title></rect><rect fill="#FFFFCC" height="4" width="4" x="3" y="3" style="stroke: #FFFFCC;"><title>Relay port</title></rect></g><text style="fill: #000000;  font-family:tahoma; font-size: 10;  font-weight:bold;" x="-39.47265625" y="51.5">wheelsclientData</text><g transform="translate(114.88671875,15)"><rect style="stroke:#000000;" height="10" width="10" fill="#000000"><title>Relay port</title></rect><rect fill="#FFFFCC" height="4" width="4" x="3" y="3" style="stroke: #FFFFCC;"><title>Relay port</title></rect></g><text style="fill: #000000;  font-family:tahoma; font-size: 10;  font-weight:bold;" x="42.8984375" y="11">motorOilclientData</text><g transform="translate(184.7734375,15)"><rect style="stroke:#000000;" height="10" width="10" fill="#000000"><title>Relay port</title></rect><rect fill="#FFFFCC" height="4" width="4" x="3" y="3" style="stroke: #FFFFCC;"><title>Relay port</title></rect></g><text style="fill: #000000;  font-family:tahoma; font-size: 10;  font-weight:bold;" x="96.63671875" y="11">particleFilterclientData</text><g transform="translate(254.66015625,15)"><rect style="stroke:#000000;" height="10" width="10" fill="#000000"><title>Relay port</title></rect><rect fill="#FFFFCC" height="4" width="4" x="3" y="3" style="stroke: #FFFFCC;"><title>Relay port</title></rect></g><text style="fill: #000000;  font-family:tahoma; font-size: 10;  font-weight:bold;" x="177.8984375" y="11">sparkPlugclientData</text><g transform="translate(324.546875,25)"><rect style="stroke:#000000;" height="10" width="10" fill="#000000"><title>Relay port</title></rect><rect fill="#FFFFCC" height="4" width="4" x="3" y="3" style="stroke: #FFFFCC;"><title>Relay port</title></rect></g><text style="fill: #000000;  font-family:tahoma; font-size: 10;  font-weight:bold;" x="336.546875" y="30.5">driverInterface</text><g style="fill: rgb(255,255,255); font-family:'sans-serif';" transform="translate(50,83)"><rect style="stroke:#000000;" fill="#FFFFFF" height="40" width="217.8203125"></rect><rect style="stroke:#000000;" fill="#FFFFFF" height="20" width="217.8203125"></rect><rect style="fill:#e6e6e6;" x="1" y="1" width="152.8203125" height="18"></rect><polygon style="stroke:black;stroke-width:1;" points="153.8203125,2 153.8203125,18"></polygon><text style="fill: #000000;  font-family:tahoma; font-size: 10; font-weight:bold" y="15" x="15">ClientAdaptive1</text></g><g transform="translate(45,93)"><rect style="stroke:#000000;" height="10" width="10" fill="#000000"><title>Relay port</title></rect><rect fill="#FFFFCC" height="4" width="4" x="3" y="3" style="stroke: #FFFFCC;"><title>Relay port</title></rect></g><text style="fill: #000000;  font-family:tahoma; font-size: 10;  font-weight:bold;" x="-0.78125" y="99.5">ignition</text><g transform="translate(45,108)"><rect style="stroke:#000000;" height="10" width="10" fill="#000000"><title>Relay port</title></rect><rect fill="#FFFFCC" height="4" width="4" x="3" y="3" style="stroke: #FFFFCC;"><title>Relay port</title></rect></g><text style="fill: #000000;  font-family:tahoma; font-size: 10;  font-weight:bold;" x="-15.47265625" y="114.5">sensorData</text><g transform="translate(99.455078125,78)"><rect style="stroke:#000000;" height="10" width="10" fill="#000000"><title>Relay port</title></rect><rect fill="#FFFFCC" height="4" width="4" x="3" y="3" style="stroke: #FFFFCC;"><title>Relay port</title></rect></g><text style="fill: #000000;  font-family:tahoma; font-size: 10;  font-weight:bold;" x="61.708984375" y="74">boardData</text><g transform="translate(153.91015625,78)"><rect style="stroke:#000000;" height="10" width="10" fill="#000000"><title>Relay port</title></rect><rect fill="#FFFFCC" height="4" width="4" x="3" y="3" style="stroke: #FFFFCC;"><title>Relay port</title></rect></g><text style="fill: #000000;  font-family:tahoma; font-size: 10;  font-weight:bold;" x="117.20703125" y="74">clientData</text><g style="fill: rgb(255,255,255); font-family:'sans-serif';" transform="translate(50,146)"><rect style="stroke:#000000;" fill="#FFFFFF" height="120" width="667.3671875"></rect><rect style="stroke:#000000;" fill="#FFFFFF" height="20" width="667.3671875"></rect><rect style="fill:#e6e6e6;" x="1" y="1" width="209.7734375" height="18"></rect><polygon style="stroke:black;stroke-width:1;" points="210.7734375,2 210.7734375,18"></polygon><text style="fill: #000000;  font-family:tahoma; font-size: 10; font-weight:bold" y="15" x="15">ConditionCheckSystem</text></g><g style="fill: rgb(255,255,255); font-family:'sans-serif';" transform="translate(100,186)"><rect style="stroke:#000000;" fill="#FFFFFF" height="40" width="217.8203125"></rect><rect style="stroke:#000000;" fill="#5DBCD2" height="20" width="217.8203125"></rect><text style="fill: #000000;  font-family:tahoma; font-size: 10; font-weight:bold" y="15" x="37.5">ClientAdaptive1</text><rect style="stroke:#000000;" height="10" width="12" fill="none" x="192.8203125" y="6"></rect><rect style="stroke:#000000;" height="2" width="6" y="8" x="189.8203125" fill="#5DBCD2"></rect><rect style="stroke:#000000;" height="2" width="6" y="12" x="189.8203125" fill="#5DBCD2"></rect></g><g transform="translate(203.91015625,181)"><rect style="stroke:#000000;" height="10" width="10" fill="#000000"><title>Relay port</title></rect><rect fill="#FFFFCC" height="4" width="4" x="3" y="3" style="stroke: #FFFFCC;"><title>Relay port</title></rect></g><text style="fill: #000000;  font-family:tahoma; font-size: 10;  font-weight:bold;" x="49.21875" y="202.5">ignition</text><text style="fill: #000000;  font-family:tahoma; font-size: 10;  font-weight:bold;" x="34.52734375" y="217.5">sensorData</text><text style="fill: #000000;  font-family:tahoma; font-size: 10;  font-weight:bold;" x="111.708984375" y="177">boardData</text><text style="fill: #000000;  font-family:tahoma; font-size: 10;  font-weight:bold;" x="167.20703125" y="177">clientData</text><g style="fill: rgb(255,255,255); font-family:'sans-serif';" transform="translate(397.8203125,186)"><rect style="stroke:#000000;" fill="#FFFFFF" height="40" width="279.546875"></rect><rect style="stroke:#000000;" fill="#5DBCD2" height="20" width="279.546875"></rect><text style="fill: #000000;  font-family:tahoma; font-size: 10; font-weight:bold" y="15" x="37.5">ConditionCheckAdapter</text><rect style="stroke:#000000;" height="10" width="12" fill="none" x="254.546875" y="6"></rect><rect style="stroke:#000000;" height="2" width="6" y="8" x="251.546875" fill="#5DBCD2"></rect><rect style="stroke:#000000;" height="2" width="6" y="12" x="251.546875" fill="#5DBCD2"></rect></g><g transform="translate(392.8203125,196)"><rect style="stroke:#000000;" height="10" width="10" fill="#000000"><title>Relay port</title></rect><rect fill="#FFFFCC" height="4" width="4" x="3" y="3" style="stroke: #FFFFCC;"><title>Relay port</title></rect></g><g transform="translate(392.8203125,211)"><rect style="stroke:#000000;" height="10" width="10" fill="#000000"><title>Relay port</title></rect><rect fill="#FFFFCC" height="4" width="4" x="3" y="3" style="stroke: #FFFFCC;"><title>Relay port</title></rect></g><g transform="translate(462.70703125,181)"><rect style="stroke:#000000;" height="10" width="10" fill="#000000"><title>Relay port</title></rect><rect fill="#FFFFCC" height="4" width="4" x="3" y="3" style="stroke: #FFFFCC;"><title>Relay port</title></rect></g><g transform="translate(532.59375,181)"><rect style="stroke:#000000;" height="10" width="10" fill="#000000"><title>Relay port</title></rect><rect fill="#FFFFCC" height="4" width="4" x="3" y="3" style="stroke: #FFFFCC;"><title>Relay port</title></rect></g><g transform="translate(602.48046875,181)"><rect style="stroke:#000000;" height="10" width="10" fill="#000000"><title>Relay port</title></rect><rect fill="#FFFFCC" height="4" width="4" x="3" y="3" style="stroke: #FFFFCC;"><title>Relay port</title></rect></g><g transform="translate(672.3671875,191)"><rect style="stroke:#000000;" height="10" width="10" fill="#000000"><title>Relay port</title></rect><rect fill="#FFFFCC" height="4" width="4" x="3" y="3" style="stroke: #FFFFCC;"><title>Relay port</title></rect></g><text style="fill: #000000;  font-family:tahoma; font-size: 10;  font-weight:bold;" x="347.0390625" y="202.5">ignition</text><text style="fill: #000000;  font-family:tahoma; font-size: 10;  font-weight:bold;" x="308.34765625" y="217.5">wheelsclientData</text><text style="fill: #000000;  font-family:tahoma; font-size: 10;  font-weight:bold;" x="390.71875" y="177">motorOilclientData</text><text style="fill: #000000;  font-family:tahoma; font-size: 10;  font-weight:bold;" x="444.45703125" y="177">particleFilterclientData</text><text style="fill: #000000;  font-family:tahoma; font-size: 10;  font-weight:bold;" x="525.71875" y="177">sparkPlugclientData</text><text style="fill: #000000;  font-family:tahoma; font-size: 10;  font-weight:bold;" x="684.3671875" y="196.5">driverInterface</text><text style="fill: #000000;  font-family:tahoma; font-size: 10;  font-weight:bold;" x="-0.78125" y="182.5">ignition</text><text style="fill: #000000;  font-family:tahoma; font-size: 10;  font-weight:bold;" x="-31.11328125" y="237.5">driverInterface</text><text style="fill: #000000;  font-family:tahoma; font-size: 10;  font-weight:bold;" x="174.095703125" y="137">boardData</text><text style="fill: #000000;  font-family:tahoma; font-size: 10;  font-weight:bold;" x="335.953125" y="137">wheelsData</text><text style="fill: #000000;  font-family:tahoma; font-size: 10;  font-weight:bold;" x="495.779296875" y="137">motorOilData</text><g transform="translate(712.3671875,171)"><rect style="stroke:#000000;" height="10" width="10" fill="#000000"><title>Relay port</title></rect><rect fill="#FFFFCC" height="4" width="4" x="3" y="3" style="stroke: #FFFFCC;"><title>Relay port</title></rect></g><text style="fill: #000000;  font-family:tahoma; font-size: 10;  font-weight:bold;" x="724.3671875" y="176.5">particleFilterData</text><g transform="translate(712.3671875,231)"><rect style="stroke:#000000;" height="10" width="10" fill="#000000"><title>Relay port</title></rect><rect fill="#FFFFCC" height="4" width="4" x="3" y="3" style="stroke: #FFFFCC;"><title>Relay port</title></rect></g><text style="fill: #000000;  font-family:tahoma; font-size: 10;  font-weight:bold;" x="724.3671875" y="236.5">sparkPlugData</text><polyline style="fill:none;stroke:black;stroke-width:1px;" points="55,181 65,181 85,181 85,201 95,201"></polyline><polyline style="fill:none;stroke:black;stroke-width:1px;" points="95,216 85,216 85,161 383.68359375,161 383.68359375,151"></polyline><g transform="translate(378.68359375,141)"><rect style="stroke:#000000;" height="10" width="10" fill="#000000"><title>Relay port</title></rect><rect fill="#FFFFCC" height="4" width="4" x="3" y="3" style="stroke: #FFFFCC;"><title>Relay port</title></rect></g><polyline style="fill:none;stroke:black;stroke-width:1px;" points="154.455078125,181 154.455078125,171 216.841796875,171 216.841796875,161 216.841796875,151"></polyline><polyline style="fill:none;stroke:black;stroke-width:1px;" points="55,181 65,181 85,181 85,201 95,201"></polyline><polyline style="fill:none;stroke:black;stroke-width:1px;" points="95,216 85,216 85,161 550.525390625,161 550.525390625,151"></polyline><g transform="translate(95,211)"><rect style="stroke:#000000;" height="10" width="10" fill="#000000"><title>Relay port</title></rect><rect fill="#FFFFCC" height="4" width="4" x="3" y="3" style="stroke: #FFFFCC;"><title>Relay port</title></rect></g><g transform="translate(545.525390625,141)"><rect style="stroke:#000000;" height="10" width="10" fill="#000000"><title>Relay port</title></rect><rect fill="#FFFFCC" height="4" width="4" x="3" y="3" style="stroke: #FFFFCC;"><title>Relay port</title></rect></g><polyline style="fill:none;stroke:black;stroke-width:1px;" points="154.455078125,181 154.455078125,171 216.841796875,171 216.841796875,161 216.841796875,151"></polyline><polyline style="fill:none;stroke:black;stroke-width:1px;" points="55,181 65,181 85,181 85,201 95,201"></polyline><g transform="translate(95,196)"><rect style="stroke:#000000;" height="10" width="10" fill="#000000"><title>Relay port</title></rect><rect fill="#FFFFCC" height="4" width="4" x="3" y="3" style="stroke: #FFFFCC;"><title>Relay port</title></rect></g><polyline style="fill:none;stroke:black;stroke-width:1px;" points="154.455078125,181 154.455078125,171 216.841796875,171 216.841796875,161 216.841796875,151"></polyline><g transform="translate(149.455078125,181)"><rect style="stroke:#000000;" height="10" width="10" fill="#000000"><title>Relay port</title></rect><rect fill="#FFFFCC" height="4" width="4" x="3" y="3" style="stroke: #FFFFCC;"><title>Relay port</title></rect></g><polyline style="fill:none;stroke:black;stroke-width:1px;" points="45,181 35,181 35,181 35,181 45,181"></polyline><polyline style="fill:none;stroke:black;stroke-width:1px;" points="216.841796875,141 216.841796875,131 216.841796875,131 216.841796875,131 216.841796875,141"></polyline><g transform="translate(211.841796875,141)"><rect style="stroke:#000000;" height="10" width="10" fill="#000000"><title>Relay port</title></rect><rect fill="#FFFFCC" height="4" width="4" x="3" y="3" style="stroke: #FFFFCC;"><title>Relay port</title></rect></g><polyline style="fill:none;stroke:black;stroke-width:1px;" points="45,181 35,181 35,181 35,181 45,181"></polyline><g transform="translate(45,176)"><rect style="stroke:#000000;" height="10" width="10" fill="#000000"><title>Relay port</title></rect><rect fill="#FFFFCC" height="4" width="4" x="3" y="3" style="stroke: #FFFFCC;"><title>Relay port</title></rect></g><polyline style="fill:none;stroke:black;stroke-width:1px;" points="45,236 35,236 35,236 35,236 45,236"></polyline><g transform="translate(45,231)"><rect style="stroke:#000000;" height="10" width="10" fill="#000000"><title>Relay port</title></rect><rect fill="#FFFFCC" height="4" width="4" x="3" y="3" style="stroke: #FFFFCC;"><title>Relay port</title></rect></g></svg>