<svg xmlns="http://www.w3.org/2000/svg"  id="generatedSVGCanvas" style="width: 623.15625px; height: 959px;"><defs><marker id="Triangle" viewBox="0 0 20 20" refX="20" refY="10" markerUnits="strokeWidth" markerWidth="8" markerHeight="6" orient="auto"><path d="M 0 0 L 20 10 L 0 20 z"></path></marker></defs><g style="fill: rgb(255,255,255); font-family:'sans-serif';" transform="translate(50,20)"><rect style="stroke:#000000;" fill="#FFFFFF" height="40" width="192.578125"></rect><rect style="stroke:#000000;" fill="#FFFFFF" height="20" width="192.578125"></rect><rect style="fill:#e6e6e6;" x="1" y="1" width="127.578125" height="18"></rect><polygon style="stroke:black;stroke-width:1;" points="128.578125,2 128.578125,18"></polygon><text style="fill: #000000;  font-family:tahoma; font-size: 10; font-weight:bold" y="15" x="15">Component1</text></g><text style="fill: #000000;  font-family:tahoma; font-size: 10;  font-weight:bold;" x="10.8828125" y="36.5">pIn1</text><text style="fill: #000000;  font-family:tahoma; font-size: 10;  font-weight:bold;" x="5.265625" y="51.5">pOut1</text><g style="fill: rgb(255,255,255); font-family:'sans-serif';" transform="translate(50,83)"><rect style="stroke:#000000;" fill="#FFFFFF" height="40" width="192.578125"></rect><rect style="stroke:#000000;" fill="#FFFFFF" height="20" width="192.578125"></rect><rect style="fill:#e6e6e6;" x="1" y="1" width="127.578125" height="18"></rect><polygon style="stroke:black;stroke-width:1;" points="128.578125,2 128.578125,18"></polygon><text style="fill: #000000;  font-family:tahoma; font-size: 10; font-weight:bold" y="15" x="15">Component2</text></g><text style="fill: #000000;  font-family:tahoma; font-size: 10;  font-weight:bold;" x="10.8828125" y="99.5">pIn2</text><text style="fill: #000000;  font-family:tahoma; font-size: 10;  font-weight:bold;" x="5.265625" y="114.5">pOut2</text><g style="fill: rgb(255,255,255); font-family:'sans-serif';" transform="translate(50,146)"><rect style="stroke:#000000;" fill="#FFFFFF" height="120" width="555.15625"></rect><rect style="stroke:#000000;" fill="#FFFFFF" height="20" width="555.15625"></rect><rect style="fill:#e6e6e6;" x="1" y="1" width="81" height="18"></rect><polygon style="stroke:black;stroke-width:1;" points="82,2 82,18"></polygon><text style="fill: #000000;  font-family:tahoma; font-size: 10; font-weight:bold" y="15" x="15">Atomic</text></g><g style="fill: rgb(255,255,255); font-family:'sans-serif';" transform="translate(100,186)"><rect style="stroke:#000000;" fill="#FFFFFF" height="40" width="192.578125"></rect><rect style="stroke:#000000;" fill="#5DBCD2" height="20" width="192.578125"></rect><text style="fill: #000000;  font-family:tahoma; font-size: 10; font-weight:bold" y="15" x="37.5">Component1</text><rect style="stroke:#000000;" height="10" width="12" fill="none" x="167.578125" y="6"></rect><rect style="stroke:#000000;" height="2" width="6" y="8" x="164.578125" fill="#5DBCD2"></rect><rect style="stroke:#000000;" height="2" width="6" y="12" x="164.578125" fill="#5DBCD2"></rect></g><text style="fill: #000000;  font-family:tahoma; font-size: 10;  font-weight:bold;" x="60.8828125" y="202.5">pIn1</text><text style="fill: #000000;  font-family:tahoma; font-size: 10;  font-weight:bold;" x="55.265625" y="217.5">pOut1</text><g style="fill: rgb(255,255,255); font-family:'sans-serif';" transform="translate(372.578125,186)"><rect style="stroke:#000000;" fill="#FFFFFF" height="40" width="192.578125"></rect><rect style="stroke:#000000;" fill="#5DBCD2" height="20" width="192.578125"></rect><text style="fill: #000000;  font-family:tahoma; font-size: 10; font-weight:bold" y="15" x="37.5">Component2</text><rect style="stroke:#000000;" height="10" width="12" fill="none" x="167.578125" y="6"></rect><rect style="stroke:#000000;" height="2" width="6" y="8" x="164.578125" fill="#5DBCD2"></rect><rect style="stroke:#000000;" height="2" width="6" y="12" x="164.578125" fill="#5DBCD2"></rect></g><text style="fill: #000000;  font-family:tahoma; font-size: 10;  font-weight:bold;" x="333.4609375" y="202.5">pIn2</text><text style="fill: #000000;  font-family:tahoma; font-size: 10;  font-weight:bold;" x="327.84375" y="217.5">pOut2</text><polyline style="fill:none;stroke:undefined;stroke-width:1px;" points="45,35 35,35 35,35 35,50 45,50"></polyline><g transform="translate(45,30)"><rect style="stroke:#000000;" height="10" width="10" fill="#000000"><title>Relay port</title></rect><rect fill="#FFFFCC" height="4" width="4" x="3" y="3" style="stroke: #FFFFCC;"><title>Relay port</title></rect></g><g transform="translate(45,45)"><rect style="stroke:#000000;" height="10" width="10" fill="#000000"><title>Relay port</title></rect><rect fill="#FFFFCC" height="4" width="4" x="3" y="3" style="stroke: #FFFFCC;"><title>Relay port</title></rect></g><polyline style="fill:none;stroke:undefined;stroke-width:1px;" points="45,98 35,98 35,98 35,113 45,113"></polyline><g transform="translate(45,93)"><rect style="stroke:#000000;" height="10" width="10" fill="#000000"><title>Relay port</title></rect><rect fill="#FFFFCC" height="4" width="4" x="3" y="3" style="stroke: #FFFFCC;"><title>Relay port</title></rect></g><g transform="translate(45,108)"><rect style="stroke:#000000;" height="10" width="10" fill="#000000"><title>Relay port</title></rect><rect fill="#FFFFCC" height="4" width="4" x="3" y="3" style="stroke: #FFFFCC;"><title>Relay port</title></rect></g><polyline style="fill:none;stroke:undefined;stroke-width:1px;" points="95,201 85,201 85,201 85,216 95,216"></polyline><polyline style="fill:none;stroke:undefined;stroke-width:1px;" points="367.578125,201 357.578125,201 357.578125,201 357.578125,216 367.578125,216"></polyline><polyline style="fill:none;stroke:undefined;stroke-width:1px;" points="95,216 85,216 85,201 357.578125,201 357.578125,201 367.578125,201"></polyline><g transform="translate(95,211)"><rect style="stroke:#000000;" height="10" width="10" fill="#000000"><title>Relay port</title></rect><rect fill="#FFFFCC" height="4" width="4" x="3" y="3" style="stroke: #FFFFCC;"><title>Relay port</title></rect></g><g transform="translate(367.578125,196)"><rect style="stroke:#000000;" height="10" width="10" fill="#000000"><title>Relay port</title></rect><rect fill="#FFFFCC" height="4" width="4" x="3" y="3" style="stroke: #FFFFCC;"><title>Relay port</title></rect></g><polyline style="fill:none;stroke:undefined;stroke-width:1px;" points="95,201 85,201 85,216 357.578125,216 357.578125,216 367.578125,216"></polyline><g transform="translate(95,196)"><rect style="stroke:#000000;" height="10" width="10" fill="#000000"><title>Relay port</title></rect><rect fill="#FFFFCC" height="4" width="4" x="3" y="3" style="stroke: #FFFFCC;"><title>Relay port</title></rect></g><g transform="translate(367.578125,211)"><rect style="stroke:#000000;" height="10" width="10" fill="#000000"><title>Relay port</title></rect><rect fill="#FFFFCC" height="4" width="4" x="3" y="3" style="stroke: #FFFFCC;"><title>Relay port</title></rect></g></svg>