<?xml version="1.0" encoding="UTF-8" standalone="no"?>
<!DOCTYPE svg PUBLIC "-//W3C//DTD SVG 1.1//EN"
 "http://www.w3.org/Graphics/SVG/1.1/DTD/svg11.dtd">
<!-- Generated by graphviz version 2.36.0 (20140111.2315)
 -->
<!-- Title: ApplicationProcessing Pages: 1 -->
<svg width="735pt" height="720pt"
 viewBox="0.00 0.00 735.30 720.00" xmlns="http://www.w3.org/2000/svg" xmlns:xlink="http://www.w3.org/1999/xlink">
<g id="graph0" class="graph" transform="scale(0.9 0.9) rotate(0) translate(4 796)">
<title>ApplicationProcessing</title>
<polygon fill="white" stroke="none" points="-4,4 -4,-796 813,-796 813,4 -4,4"/>
<!-- start_GrantApplication_status -->
<g id="node1" class="node"><title>start_GrantApplication_status</title>
<ellipse fill="black" stroke="black" cx="114" cy="-785" rx="7.2" ry="7.2"/>
</g>
<!-- GrantApplication_status_Planned -->
<g id="node2" class="node"><title>GrantApplication_status_Planned</title>
<path fill="none" stroke="black" d="M138,-740C138,-740 90,-740 90,-740 84,-740 78,-734 78,-728 78,-728 78,-716 78,-716 78,-710 84,-704 90,-704 90,-704 138,-704 138,-704 144,-704 150,-710 150,-716 150,-716 150,-728 150,-728 150,-734 144,-740 138,-740"/>
<text text-anchor="middle" x="114" y="-718.3" font-family="Times,serif" font-size="14.00">Planned</text>
</g>
<!-- start_GrantApplication_status&#45;&gt;GrantApplication_status_Planned -->
<g id="edge1" class="edge"><title>start_GrantApplication_status&#45;&gt;GrantApplication_status_Planned</title>
<path fill="none" stroke="black" d="M114,-777.472C114,-770.902 114,-760.324 114,-750.229"/>
<polygon fill="black" stroke="black" points="117.5,-750.073 114,-740.073 110.5,-750.073 117.5,-750.073"/>
</g>
<!-- GrantApplication_status_InProgress -->
<g id="node3" class="node"><title>GrantApplication_status_InProgress</title>
<path fill="none" stroke="black" d="M140,-652C140,-652 88,-652 88,-652 82,-652 76,-646 76,-640 76,-640 76,-628 76,-628 76,-622 82,-616 88,-616 88,-616 140,-616 140,-616 146,-616 152,-622 152,-628 152,-628 152,-640 152,-640 152,-646 146,-652 140,-652"/>
<text text-anchor="middle" x="114" y="-630.3" font-family="Times,serif" font-size="14.00">InProgress</text>
</g>
<!-- GrantApplication_status_Planned&#45;&gt;GrantApplication_status_InProgress -->
<g id="edge2" class="edge"><title>GrantApplication_status_Planned&#45;&gt;GrantApplication_status_InProgress</title>
<path fill="none" stroke="black" d="M114,-703.597C114,-691.746 114,-675.817 114,-662.292"/>
<polygon fill="black" stroke="black" points="117.5,-662.084 114,-652.084 110.5,-662.084 117.5,-662.084"/>
<text text-anchor="middle" x="164" y="-674.3" font-family="Times,serif" font-size="14.00">createApplication</text>
</g>
<!-- GrantApplication_status_InProgress&#45;&gt;GrantApplication_status_InProgress -->
<g id="edge3" class="edge"><title>GrantApplication_status_InProgress&#45;&gt;GrantApplication_status_InProgress</title>
<path fill="none" stroke="black" d="M152.214,-642.177C162.335,-641.71 170,-638.984 170,-634 170,-630.885 167.006,-628.652 162.289,-627.301"/>
<polygon fill="black" stroke="black" points="162.616,-623.812 152.214,-625.823 161.6,-630.737 162.616,-623.812"/>
<text text-anchor="middle" x="220" y="-630.3" font-family="Times,serif" font-size="14.00">editByResearcher</text>
</g>
<!-- GrantApplication_status_EvaluationByInstitution -->
<g id="node4" class="node"><title>GrantApplication_status_EvaluationByInstitution</title>
<path fill="none" stroke="black" d="M414.25,-564C414.25,-564 287.75,-564 287.75,-564 281.75,-564 275.75,-558 275.75,-552 275.75,-552 275.75,-540 275.75,-540 275.75,-534 281.75,-528 287.75,-528 287.75,-528 414.25,-528 414.25,-528 420.25,-528 426.25,-534 426.25,-540 426.25,-540 426.25,-552 426.25,-552 426.25,-558 420.25,-564 414.25,-564"/>
<text text-anchor="middle" x="351" y="-542.3" font-family="Times,serif" font-size="14.00">EvaluationByInstitution</text>
</g>
<!-- GrantApplication_status_InProgress&#45;&gt;GrantApplication_status_EvaluationByInstitution -->
<g id="edge7" class="edge"><title>GrantApplication_status_InProgress&#45;&gt;GrantApplication_status_EvaluationByInstitution</title>
<path fill="none" stroke="black" d="M152.211,-631.739C190.461,-629.118 250.073,-621.262 296,-598 308.65,-591.593 320.489,-581.409 329.919,-571.821"/>
<polygon fill="black" stroke="black" points="332.645,-574.03 336.934,-564.342 327.54,-569.241 332.645,-574.03"/>
<text text-anchor="middle" x="398.5" y="-586.3" font-family="Times,serif" font-size="14.00">researcherDeclaresComplete</text>
</g>
<!-- GrantApplication_status_EvaluationByInstitution&#45;&gt;GrantApplication_status_InProgress -->
<g id="edge4" class="edge"><title>GrantApplication_status_EvaluationByInstitution&#45;&gt;GrantApplication_status_InProgress</title>
<path fill="none" stroke="black" d="M275.74,-555.835C246.259,-561.058 212.695,-569.25 184,-582 168.593,-588.846 153.254,-599.478 140.879,-609.267"/>
<polygon fill="black" stroke="black" points="138.349,-606.814 132.82,-615.852 142.778,-612.235 138.349,-606.814"/>
<text text-anchor="middle" x="240" y="-586.3" font-family="Times,serif" font-size="14.00">returnToResearcher</text>
</g>
<!-- GrantApplication_status_EvaluationByInstitution&#45;&gt;GrantApplication_status_EvaluationByInstitution -->
<g id="edge8" class="edge"><title>GrantApplication_status_EvaluationByInstitution&#45;&gt;GrantApplication_status_EvaluationByInstitution</title>
<path fill="none" stroke="black" d="M426.535,-553.362C437.003,-552.149 444,-549.695 444,-546 444,-543.69 441.267,-541.866 436.661,-540.526"/>
<polygon fill="black" stroke="black" points="437.007,-537.03 426.535,-538.638 435.724,-543.912 437.007,-537.03"/>
<text text-anchor="middle" x="491.5" y="-542.3" font-family="Times,serif" font-size="14.00">editByInstitution</text>
</g>
<!-- GrantApplication_status_VerifiedByInstitution -->
<g id="node5" class="node"><title>GrantApplication_status_VerifiedByInstitution</title>
<path fill="none" stroke="black" d="M473,-476C473,-476 361,-476 361,-476 355,-476 349,-470 349,-464 349,-464 349,-452 349,-452 349,-446 355,-440 361,-440 361,-440 473,-440 473,-440 479,-440 485,-446 485,-452 485,-452 485,-464 485,-464 485,-470 479,-476 473,-476"/>
<text text-anchor="middle" x="417" y="-454.3" font-family="Times,serif" font-size="14.00">VerifiedByInstitution</text>
</g>
<!-- GrantApplication_status_EvaluationByInstitution&#45;&gt;GrantApplication_status_VerifiedByInstitution -->
<g id="edge13" class="edge"><title>GrantApplication_status_EvaluationByInstitution&#45;&gt;GrantApplication_status_VerifiedByInstitution</title>
<path fill="none" stroke="black" d="M345.258,-527.717C342.863,-517.224 341.874,-503.977 348,-494 350.741,-489.536 354.249,-485.62 358.225,-482.188"/>
<polygon fill="black" stroke="black" points="360.409,-484.926 366.372,-476.169 356.249,-479.296 360.409,-484.926"/>
<text text-anchor="middle" x="369.5" y="-498.3" font-family="Times,serif" font-size="14.00">verified</text>
</g>
<!-- GrantApplication_status_VerifiedByInstitution&#45;&gt;GrantApplication_status_EvaluationByInstitution -->
<g id="edge9" class="edge"><title>GrantApplication_status_VerifiedByInstitution&#45;&gt;GrantApplication_status_EvaluationByInstitution</title>
<path fill="none" stroke="black" d="M411.959,-476.189C408.341,-486.647 402.734,-499.891 395,-510 392.042,-513.867 388.567,-517.555 384.887,-520.988"/>
<polygon fill="black" stroke="black" points="382.444,-518.473 377.15,-527.651 387.012,-523.778 382.444,-518.473"/>
<text text-anchor="middle" x="426" y="-498.3" font-family="Times,serif" font-size="14.00">reOpen</text>
</g>
<!-- GrantApplication_status_SubmittedByInstitution -->
<g id="node6" class="node"><title>GrantApplication_status_SubmittedByInstitution</title>
<path fill="none" stroke="black" d="M269,-388C269,-388 145,-388 145,-388 139,-388 133,-382 133,-376 133,-376 133,-364 133,-364 133,-358 139,-352 145,-352 145,-352 269,-352 269,-352 275,-352 281,-358 281,-364 281,-364 281,-376 281,-376 281,-382 275,-388 269,-388"/>
<text text-anchor="middle" x="207" y="-366.3" font-family="Times,serif" font-size="14.00">SubmittedByInstitution</text>
</g>
<!-- GrantApplication_status_VerifiedByInstitution&#45;&gt;GrantApplication_status_SubmittedByInstitution -->
<g id="edge14" class="edge"><title>GrantApplication_status_VerifiedByInstitution&#45;&gt;GrantApplication_status_SubmittedByInstitution</title>
<path fill="none" stroke="black" d="M375.26,-439.906C341.551,-426.102 293.973,-406.618 258.007,-391.889"/>
<polygon fill="black" stroke="black" points="259.242,-388.612 248.661,-388.061 256.589,-395.09 259.242,-388.612"/>
<text text-anchor="middle" x="350.5" y="-410.3" font-family="Times,serif" font-size="14.00">submit</text>
</g>
<!-- GrantApplication_status_SubmittedByInstitution&#45;&gt;GrantApplication_status_EvaluationByInstitution -->
<g id="edge10" class="edge"><title>GrantApplication_status_SubmittedByInstitution&#45;&gt;GrantApplication_status_EvaluationByInstitution</title>
<path fill="none" stroke="black" d="M180.833,-388.129C152.091,-409.096 112.773,-445.566 135,-476 164.743,-516.724 218.804,-533.97 265.399,-541.036"/>
<polygon fill="black" stroke="black" points="265.138,-544.533 275.523,-542.432 266.095,-537.599 265.138,-544.533"/>
<text text-anchor="middle" x="237.5" y="-454.3" font-family="Times,serif" font-size="14.00">submissionCheck [!adminCheckOk]</text>
</g>
<!-- GrantApplication_status_SubmittedByInstitution&#45;&gt;GrantApplication_status_SubmittedByInstitution -->
<g id="edge15" class="edge"><title>GrantApplication_status_SubmittedByInstitution&#45;&gt;GrantApplication_status_SubmittedByInstitution</title>
<path fill="none" stroke="black" d="M281.36,-377.404C291.916,-376.206 299,-373.738 299,-370 299,-367.605 296.093,-365.732 291.228,-364.38"/>
<polygon fill="black" stroke="black" points="291.823,-360.931 281.36,-362.596 290.578,-367.819 291.823,-360.931"/>
<text text-anchor="middle" x="399" y="-366.3" font-family="Times,serif" font-size="14.00">submissionCheck [adminCheckOk]</text>
</g>
<!-- GrantApplication_status_UnderAdministrativeReview -->
<g id="node7" class="node"><title>GrantApplication_status_UnderAdministrativeReview</title>
<path fill="none" stroke="black" d="M334,-300C334,-300 180,-300 180,-300 174,-300 168,-294 168,-288 168,-288 168,-276 168,-276 168,-270 174,-264 180,-264 180,-264 334,-264 334,-264 340,-264 346,-270 346,-276 346,-276 346,-288 346,-288 346,-294 340,-300 334,-300"/>
<text text-anchor="middle" x="257" y="-278.3" font-family="Times,serif" font-size="14.00">UnderAdministrativeReview</text>
</g>
<!-- GrantApplication_status_SubmittedByInstitution&#45;&gt;GrantApplication_status_UnderAdministrativeReview -->
<g id="edge16" class="edge"><title>GrantApplication_status_SubmittedByInstitution&#45;&gt;GrantApplication_status_UnderAdministrativeReview</title>
<path fill="none" stroke="black" d="M217.118,-351.597C224.213,-339.394 233.822,-322.867 241.83,-309.093"/>
<polygon fill="black" stroke="black" points="245.067,-310.488 247.067,-300.084 239.015,-306.97 245.067,-310.488"/>
<text text-anchor="middle" x="286" y="-322.3" font-family="Times,serif" font-size="14.00">acceptForReview</text>
</g>
<!-- GrantApplication_status_Withdrawn -->
<g id="node12" class="node"><title>GrantApplication_status_Withdrawn</title>
<path fill="none" stroke="black" d="M148.25,-124C148.25,-124 93.75,-124 93.75,-124 87.75,-124 81.75,-118 81.75,-112 81.75,-112 81.75,-100 81.75,-100 81.75,-94 87.75,-88 93.75,-88 93.75,-88 148.25,-88 148.25,-88 154.25,-88 160.25,-94 160.25,-100 160.25,-100 160.25,-112 160.25,-112 160.25,-118 154.25,-124 148.25,-124"/>
<text text-anchor="middle" x="121" y="-102.3" font-family="Times,serif" font-size="14.00">Withdrawn</text>
</g>
<!-- GrantApplication_status_SubmittedByInstitution&#45;&gt;GrantApplication_status_Withdrawn -->
<g id="edge22" class="edge"><title>GrantApplication_status_SubmittedByInstitution&#45;&gt;GrantApplication_status_Withdrawn</title>
<path fill="none" stroke="black" d="M189.251,-351.851C167.78,-329.744 132.799,-289.002 119,-246 107.034,-208.71 111.041,-162.846 115.58,-134.259"/>
<polygon fill="black" stroke="black" points="119.064,-134.652 117.313,-124.203 112.165,-133.463 119.064,-134.652"/>
<text text-anchor="middle" x="145.5" y="-234.3" font-family="Times,serif" font-size="14.00">withdraw</text>
</g>
<!-- GrantApplication_status_UnderAdministrativeReview&#45;&gt;GrantApplication_status_EvaluationByInstitution -->
<g id="edge11" class="edge"><title>GrantApplication_status_UnderAdministrativeReview&#45;&gt;GrantApplication_status_EvaluationByInstitution</title>
<path fill="none" stroke="black" d="M346.113,-295.912C409.983,-307.202 488.104,-325.897 508,-352 541.62,-396.109 522.026,-428.141 494,-476 480.842,-498.469 457.925,-513.751 434.241,-524.091"/>
<polygon fill="black" stroke="black" points="432.724,-520.93 424.791,-527.952 435.372,-527.41 432.724,-520.93"/>
<text text-anchor="middle" x="577" y="-410.3" font-family="Times,serif" font-size="14.00">returnToInstitition</text>
</g>
<!-- GrantApplication_status_UnderExpertReview -->
<g id="node8" class="node"><title>GrantApplication_status_UnderExpertReview</title>
<path fill="none" stroke="black" d="M340,-212C340,-212 232,-212 232,-212 226,-212 220,-206 220,-200 220,-200 220,-188 220,-188 220,-182 226,-176 232,-176 232,-176 340,-176 340,-176 346,-176 352,-182 352,-188 352,-188 352,-200 352,-200 352,-206 346,-212 340,-212"/>
<text text-anchor="middle" x="286" y="-190.3" font-family="Times,serif" font-size="14.00">UnderExpertReview</text>
</g>
<!-- GrantApplication_status_UnderAdministrativeReview&#45;&gt;GrantApplication_status_UnderExpertReview -->
<g id="edge17" class="edge"><title>GrantApplication_status_UnderAdministrativeReview&#45;&gt;GrantApplication_status_UnderExpertReview</title>
<path fill="none" stroke="black" d="M254.642,-263.965C253.886,-253.808 254.083,-240.826 258,-230 259.201,-226.68 260.856,-223.437 262.767,-220.348"/>
<polygon fill="black" stroke="black" points="265.685,-222.285 268.661,-212.117 259.994,-218.209 265.685,-222.285"/>
<text text-anchor="middle" x="326" y="-234.3" font-family="Times,serif" font-size="14.00">acceptForExpertReview</text>
</g>
<!-- GrantApplication_status_AwaitingFinalDecision -->
<g id="node9" class="node"><title>GrantApplication_status_AwaitingFinalDecision</title>
<path fill="none" stroke="black" d="M330.25,-124C330.25,-124 207.75,-124 207.75,-124 201.75,-124 195.75,-118 195.75,-112 195.75,-112 195.75,-100 195.75,-100 195.75,-94 201.75,-88 207.75,-88 207.75,-88 330.25,-88 330.25,-88 336.25,-88 342.25,-94 342.25,-100 342.25,-100 342.25,-112 342.25,-112 342.25,-118 336.25,-124 330.25,-124"/>
<text text-anchor="middle" x="269" y="-102.3" font-family="Times,serif" font-size="14.00">AwaitingFinalDecision</text>
</g>
<!-- GrantApplication_status_UnderAdministrativeReview&#45;&gt;GrantApplication_status_AwaitingFinalDecision -->
<g id="edge18" class="edge"><title>GrantApplication_status_UnderAdministrativeReview&#45;&gt;GrantApplication_status_AwaitingFinalDecision</title>
<path fill="none" stroke="black" d="M346.198,-267.03C368.069,-261.717 387.186,-254.773 394,-246 422.352,-209.494 421.932,-178.828 394,-142 388.029,-134.128 371.484,-127.542 352.308,-122.285"/>
<polygon fill="black" stroke="black" points="352.958,-118.839 342.402,-119.735 351.213,-125.618 352.958,-118.839"/>
<text text-anchor="middle" x="536.5" y="-190.3" font-family="Times,serif" font-size="14.00">bypassExpertReviewDueToMinorChanges</text>
</g>
<!-- GrantApplication_status_UnderAdministrativeReview&#45;&gt;GrantApplication_status_Withdrawn -->
<g id="edge23" class="edge"><title>GrantApplication_status_UnderAdministrativeReview&#45;&gt;GrantApplication_status_Withdrawn</title>
<path fill="none" stroke="black" d="M222.084,-263.877C200.935,-251.932 174.873,-234.174 158,-212 140.419,-188.896 130.731,-156.754 125.727,-134.136"/>
<polygon fill="black" stroke="black" points="129.123,-133.275 123.688,-124.18 122.265,-134.679 129.123,-133.275"/>
<text text-anchor="middle" x="184.5" y="-190.3" font-family="Times,serif" font-size="14.00">withdraw</text>
</g>
<!-- GrantApplication_status_UnderExpertReview&#45;&gt;GrantApplication_status_AwaitingFinalDecision -->
<g id="edge19" class="edge"><title>GrantApplication_status_UnderExpertReview&#45;&gt;GrantApplication_status_AwaitingFinalDecision</title>
<path fill="none" stroke="black" d="M269.193,-175.823C265.05,-170.525 261.179,-164.392 259,-158 256.409,-150.399 256.828,-141.919 258.478,-134.09"/>
<polygon fill="black" stroke="black" points="261.893,-134.874 261.205,-124.301 255.149,-132.995 261.893,-134.874"/>
<text text-anchor="middle" x="326.5" y="-146.3" font-family="Times,serif" font-size="14.00">expertReviewsReturned</text>
</g>
<!-- GrantApplication_status_UnderExpertReview&#45;&gt;GrantApplication_status_Withdrawn -->
<g id="edge24" class="edge"><title>GrantApplication_status_UnderExpertReview&#45;&gt;GrantApplication_status_Withdrawn</title>
<path fill="none" stroke="black" d="M240.329,-175.928C227.402,-170.632 213.463,-164.474 201,-158 184.901,-149.638 167.846,-139.031 153.639,-129.658"/>
<polygon fill="black" stroke="black" points="155.453,-126.661 145.194,-124.013 151.562,-132.48 155.453,-126.661"/>
<text text-anchor="middle" x="227.5" y="-146.3" font-family="Times,serif" font-size="14.00">withdraw</text>
</g>
<!-- GrantApplication_status_AwaitingFinalDecision&#45;&gt;GrantApplication_status_EvaluationByInstitution -->
<g id="edge12" class="edge"><title>GrantApplication_status_AwaitingFinalDecision&#45;&gt;GrantApplication_status_EvaluationByInstitution</title>
<path fill="none" stroke="black" d="M342.413,-107.636C459.879,-110.665 677,-125.406 677,-193 677,-459 677,-459 677,-459 677,-508.749 533.267,-530.348 436.679,-539.247"/>
<polygon fill="black" stroke="black" points="436.26,-535.77 426.61,-540.144 436.882,-542.742 436.26,-535.77"/>
<text text-anchor="middle" x="743" y="-322.3" font-family="Times,serif" font-size="14.00">minorRevisionsNeeded</text>
</g>
<!-- GrantApplication_status_Accepted -->
<g id="node10" class="node"><title>GrantApplication_status_Accepted</title>
<path fill="none" stroke="black" d="M293,-36C293,-36 245,-36 245,-36 239,-36 233,-30 233,-24 233,-24 233,-12 233,-12 233,-6 239,-0 245,-0 245,-0 293,-0 293,-0 299,-0 305,-6 305,-12 305,-12 305,-24 305,-24 305,-30 299,-36 293,-36"/>
<text text-anchor="middle" x="269" y="-14.3" font-family="Times,serif" font-size="14.00">Accepted</text>
</g>
<!-- GrantApplication_status_AwaitingFinalDecision&#45;&gt;GrantApplication_status_Accepted -->
<g id="edge20" class="edge"><title>GrantApplication_status_AwaitingFinalDecision&#45;&gt;GrantApplication_status_Accepted</title>
<path fill="none" stroke="black" d="M269,-87.5966C269,-75.7459 269,-59.8169 269,-46.2917"/>
<polygon fill="black" stroke="black" points="272.5,-46.084 269,-36.084 265.5,-46.084 272.5,-46.084"/>
<text text-anchor="middle" x="301.5" y="-58.3" font-family="Times,serif" font-size="14.00">finalAccept</text>
</g>
<!-- GrantApplication_status_Rejected -->
<g id="node11" class="node"><title>GrantApplication_status_Rejected</title>
<path fill="none" stroke="black" d="M114,-36C114,-36 66,-36 66,-36 60,-36 54,-30 54,-24 54,-24 54,-12 54,-12 54,-6 60,-0 66,-0 66,-0 114,-0 114,-0 120,-0 126,-6 126,-12 126,-12 126,-24 126,-24 126,-30 120,-36 114,-36"/>
<text text-anchor="middle" x="90" y="-14.3" font-family="Times,serif" font-size="14.00">Rejected</text>
</g>
<!-- GrantApplication_status_AwaitingFinalDecision&#45;&gt;GrantApplication_status_Rejected -->
<g id="edge21" class="edge"><title>GrantApplication_status_AwaitingFinalDecision&#45;&gt;GrantApplication_status_Rejected</title>
<path fill="none" stroke="black" d="M233.207,-87.8033C204.822,-74.1657 164.999,-55.0332 134.551,-40.4044"/>
<polygon fill="black" stroke="black" points="135.955,-37.196 125.426,-36.0201 132.924,-43.5056 135.955,-37.196"/>
<text text-anchor="middle" x="212" y="-58.3" font-family="Times,serif" font-size="14.00">reject</text>
</g>
<!-- GrantApplication_status_Rejected&#45;&gt;GrantApplication_status_InProgress -->
<g id="edge5" class="edge"><title>GrantApplication_status_Rejected&#45;&gt;GrantApplication_status_InProgress</title>
<path fill="none" stroke="black" d="M53.9121,-35.8096C28.8734,-50.2349 0,-73.6632 0,-105 0,-547 0,-547 0,-547 0,-582.162 34.9905,-604.759 66.2008,-617.922"/>
<polygon fill="black" stroke="black" points="65.1369,-621.266 75.7225,-621.708 67.723,-614.761 65.1369,-621.266"/>
<text text-anchor="middle" x="25" y="-322.3" font-family="Times,serif" font-size="14.00">tryAgain</text>
</g>
<!-- GrantApplication_status_Withdrawn&#45;&gt;GrantApplication_status_InProgress -->
<g id="edge6" class="edge"><title>GrantApplication_status_Withdrawn&#45;&gt;GrantApplication_status_InProgress</title>
<path fill="none" stroke="black" d="M101.414,-124.011C85.2651,-140.014 65,-165.562 65,-193 65,-547 65,-547 65,-547 65,-569.682 78.026,-591.836 90.6458,-607.978"/>
<polygon fill="black" stroke="black" points="88.0718,-610.357 97.137,-615.841 93.4703,-605.901 88.0718,-610.357"/>
<text text-anchor="middle" x="90" y="-366.3" font-family="Times,serif" font-size="14.00">tryAgain</text>
</g>
</g>
</svg>
