<?xml version="1.0" encoding="UTF-8" standalone="no"?>
<!DOCTYPE svg PUBLIC "-//W3C//DTD SVG 1.1//EN"
 "http://www.w3.org/Graphics/SVG/1.1/DTD/svg11.dtd">
<!-- Generated by graphviz version 2.39.20140502.0445 (20140502.0445)
 -->
<!-- Title: ApplicationProcessing Pages: 1 -->
<svg width="743pt" height="720pt"
 viewBox="0.00 0.00 743.29 720.00" xmlns="http://www.w3.org/2000/svg" xmlns:xlink="http://www.w3.org/1999/xlink">
<g id="graph0" class="graph" transform="scale(0.90978 0.90978) rotate(0) translate(4 787.4)">
<title>ApplicationProcessing</title>
<polygon fill="white" stroke="none" points="-4,4 -4,-787.4 813,-787.4 813,4 -4,4"/>
<!-- start_GrantApplication_status -->
<g id="node1" class="node"><title>start_GrantApplication_status</title>
<ellipse fill="black" stroke="black" cx="114" cy="-776.2" rx="7.2" ry="7.2"/>
</g>
<!-- GrantApplication_status_Planned -->
<g id="node2" class="node"><title>GrantApplication_status_Planned</title>
<path fill="none" stroke="black" d="M138,-732C138,-732 90,-732 90,-732 84,-732 78,-726 78,-720 78,-720 78,-708 78,-708 78,-702 84,-696 90,-696 90,-696 138,-696 138,-696 144,-696 150,-702 150,-708 150,-708 150,-720 150,-720 150,-726 144,-732 138,-732"/>
<text text-anchor="middle" x="114" y="-710.3" font-family="Times,serif" font-size="14.00">Planned</text>
</g>
<!-- start_GrantApplication_status&#45;&gt;GrantApplication_status_Planned -->
<g id="edge1" class="edge"><title>start_GrantApplication_status&#45;&gt;GrantApplication_status_Planned</title>
<g id="a_edge1"><a xlink:title="start &#160;&#45;&gt; Planned">
<path fill="none" stroke="black" d="M114,-768.758C114,-762.387 114,-752.197 114,-742.393"/>
<polygon fill="black" stroke="black" points="117.5,-742.105 114,-732.105 110.5,-742.105 117.5,-742.105"/>
</a>
</g>
</g>
<!-- GrantApplication_status_InProgress -->
<g id="node3" class="node"><title>GrantApplication_status_InProgress</title>
<path fill="none" stroke="black" d="M140,-645C140,-645 88,-645 88,-645 82,-645 76,-639 76,-633 76,-633 76,-621 76,-621 76,-615 82,-609 88,-609 88,-609 140,-609 140,-609 146,-609 152,-615 152,-621 152,-621 152,-633 152,-633 152,-639 146,-645 140,-645"/>
<text text-anchor="middle" x="114" y="-623.3" font-family="Times,serif" font-size="14.00">InProgress</text>
</g>
<!-- GrantApplication_status_Planned&#45;&gt;GrantApplication_status_InProgress -->
<g id="edge2" class="edge"><title>GrantApplication_status_Planned&#45;&gt;GrantApplication_status_InProgress</title>
<g id="a_edge2"><a xlink:title="Planned createApplication &#45;&gt; InProgress">
<path fill="none" stroke="black" d="M114,-695.799C114,-684.163 114,-668.548 114,-655.237"/>
<polygon fill="black" stroke="black" points="117.5,-655.175 114,-645.175 110.5,-655.175 117.5,-655.175"/>
</a>
</g>
<text text-anchor="middle" x="164" y="-666.8" font-family="Times,serif" font-size="14.00">createApplication</text>
</g>
<!-- GrantApplication_status_InProgress&#45;&gt;GrantApplication_status_InProgress -->
<g id="edge3" class="edge"><title>GrantApplication_status_InProgress&#45;&gt;GrantApplication_status_InProgress</title>
<g id="a_edge3"><a xlink:title="InProgress editByResearcher &#45;&gt; InProgress">
<path fill="none" stroke="black" d="M152.214,-634.806C162.335,-634.36 170,-631.758 170,-627 170,-624.026 167.006,-621.895 162.289,-620.606"/>
<polygon fill="black" stroke="black" points="162.603,-617.115 152.214,-619.194 161.632,-624.048 162.603,-617.115"/>
</a>
</g>
<text text-anchor="middle" x="220" y="-623.3" font-family="Times,serif" font-size="14.00">editByResearcher</text>
</g>
<!-- GrantApplication_status_EvaluationByInstitution -->
<g id="node4" class="node"><title>GrantApplication_status_EvaluationByInstitution</title>
<path fill="none" stroke="black" d="M414.5,-558C414.5,-558 287.5,-558 287.5,-558 281.5,-558 275.5,-552 275.5,-546 275.5,-546 275.5,-534 275.5,-534 275.5,-528 281.5,-522 287.5,-522 287.5,-522 414.5,-522 414.5,-522 420.5,-522 426.5,-528 426.5,-534 426.5,-534 426.5,-546 426.5,-546 426.5,-552 420.5,-558 414.5,-558"/>
<text text-anchor="middle" x="351" y="-536.3" font-family="Times,serif" font-size="14.00">EvaluationByInstitution</text>
</g>
<!-- GrantApplication_status_InProgress&#45;&gt;GrantApplication_status_EvaluationByInstitution -->
<g id="edge7" class="edge"><title>GrantApplication_status_InProgress&#45;&gt;GrantApplication_status_EvaluationByInstitution</title>
<g id="a_edge7"><a xlink:title="InProgress researcherDeclaresComplete &#45;&gt; EvaluationByInstitution">
<path fill="none" stroke="black" d="M152.162,-624.644C190.376,-621.948 249.959,-614.035 296,-591 308.385,-584.804 320.051,-575.016 329.425,-565.737"/>
<polygon fill="black" stroke="black" points="331.998,-568.111 336.421,-558.483 326.96,-563.251 331.998,-568.111"/>
</a>
</g>
<text text-anchor="middle" x="398.5" y="-579.8" font-family="Times,serif" font-size="14.00">researcherDeclaresComplete</text>
</g>
<!-- GrantApplication_status_EvaluationByInstitution&#45;&gt;GrantApplication_status_InProgress -->
<g id="edge4" class="edge"><title>GrantApplication_status_EvaluationByInstitution&#45;&gt;GrantApplication_status_InProgress</title>
<g id="a_edge4"><a xlink:title="EvaluationByInstitution returnToResearcher &#45;&gt; InProgress">
<path fill="none" stroke="black" d="M141.217,-602.539 153.557,-593.002 168.776,-582.679 184,-576 212.619,-563.445 246.012,-555.293 275.384,-550.049"/>
<polygon fill="black" stroke="black" points="138.802,-599.988 133.169,-608.961 143.168,-605.459 138.802,-599.988"/>
</a>
</g>
<text text-anchor="middle" x="240" y="-579.8" font-family="Times,serif" font-size="14.00">returnToResearcher</text>
</g>
<!-- GrantApplication_status_EvaluationByInstitution&#45;&gt;GrantApplication_status_EvaluationByInstitution -->
<g id="edge8" class="edge"><title>GrantApplication_status_EvaluationByInstitution&#45;&gt;GrantApplication_status_EvaluationByInstitution</title>
<g id="a_edge8"><a xlink:title="EvaluationByInstitution editByInstitution &#45;&gt; EvaluationByInstitution">
<path fill="none" stroke="black" d="M426.573,-547.067C437.301,-545.924 444.5,-543.568 444.5,-540 444.5,-537.714 441.545,-535.926 436.601,-534.635"/>
<polygon fill="black" stroke="black" points="437.017,-531.156 426.573,-532.933 435.846,-538.057 437.017,-531.156"/>
</a>
</g>
<text text-anchor="middle" x="492" y="-536.3" font-family="Times,serif" font-size="14.00">editByInstitution</text>
</g>
<!-- GrantApplication_status_VerifiedByInstitution -->
<g id="node5" class="node"><title>GrantApplication_status_VerifiedByInstitution</title>
<path fill="none" stroke="black" d="M473,-471C473,-471 361,-471 361,-471 355,-471 349,-465 349,-459 349,-459 349,-447 349,-447 349,-441 355,-435 361,-435 361,-435 473,-435 473,-435 479,-435 485,-441 485,-447 485,-447 485,-459 485,-459 485,-465 479,-471 473,-471"/>
<text text-anchor="middle" x="417" y="-449.3" font-family="Times,serif" font-size="14.00">VerifiedByInstitution</text>
</g>
<!-- GrantApplication_status_EvaluationByInstitution&#45;&gt;GrantApplication_status_VerifiedByInstitution -->
<g id="edge13" class="edge"><title>GrantApplication_status_EvaluationByInstitution&#45;&gt;GrantApplication_status_VerifiedByInstitution</title>
<g id="a_edge13"><a xlink:title="EvaluationByInstitution verified &#45;&gt; VerifiedByInstitution">
<path fill="none" stroke="black" d="M345.236,-521.587C342.95,-511.377 342.084,-498.634 348,-489 350.741,-484.536 354.249,-480.62 358.225,-477.188"/>
<polygon fill="black" stroke="black" points="360.409,-479.926 366.372,-471.169 356.249,-474.296 360.409,-479.926"/>
</a>
</g>
<text text-anchor="middle" x="369.5" y="-492.8" font-family="Times,serif" font-size="14.00">verified</text>
</g>
<!-- GrantApplication_status_VerifiedByInstitution&#45;&gt;GrantApplication_status_EvaluationByInstitution -->
<g id="edge9" class="edge"><title>GrantApplication_status_VerifiedByInstitution&#45;&gt;GrantApplication_status_EvaluationByInstitution</title>
<g id="a_edge9"><a xlink:title="VerifiedByInstitution reOpen &#45;&gt; EvaluationByInstitution">
<path fill="none" stroke="black" d="M384.298,-515.487 388.189,-511.911 391.877,-508.051 395,-504 402.527,-494.235 408.082,-481.494 411.728,-471.318"/>
<polygon fill="black" stroke="black" points="382.004,-512.843 376.66,-521.992 386.543,-518.173 382.004,-512.843"/>
</a>
</g>
<text text-anchor="middle" x="425" y="-492.8" font-family="Times,serif" font-size="14.00">reOpen</text>
</g>
<!-- GrantApplication_status_SubmittedByInstitution -->
<g id="node6" class="node"><title>GrantApplication_status_SubmittedByInstitution</title>
<path fill="none" stroke="black" d="M269,-384C269,-384 145,-384 145,-384 139,-384 133,-378 133,-372 133,-372 133,-360 133,-360 133,-354 139,-348 145,-348 145,-348 269,-348 269,-348 275,-348 281,-354 281,-360 281,-360 281,-372 281,-372 281,-378 275,-384 269,-384"/>
<text text-anchor="middle" x="207" y="-362.3" font-family="Times,serif" font-size="14.00">SubmittedByInstitution</text>
</g>
<!-- GrantApplication_status_VerifiedByInstitution&#45;&gt;GrantApplication_status_SubmittedByInstitution -->
<g id="edge14" class="edge"><title>GrantApplication_status_VerifiedByInstitution&#45;&gt;GrantApplication_status_SubmittedByInstitution</title>
<g id="a_edge14"><a xlink:title="VerifiedByInstitution submit &#45;&gt; SubmittedByInstitution">
<path fill="none" stroke="black" d="M258.467,-387.832 294.199,-402.295 341.222,-421.328 374.756,-434.901"/>
<polygon fill="black" stroke="black" points="259.759,-384.579 249.177,-384.071 257.133,-391.068 259.759,-384.579"/>
</a>
</g>
<text text-anchor="middle" x="344.5" y="-405.8" font-family="Times,serif" font-size="14.00">submit</text>
</g>
<!-- GrantApplication_status_SubmittedByInstitution&#45;&gt;GrantApplication_status_EvaluationByInstitution -->
<g id="edge10" class="edge"><title>GrantApplication_status_SubmittedByInstitution&#45;&gt;GrantApplication_status_EvaluationByInstitution</title>
<g id="a_edge10"><a xlink:title="SubmittedByInstitution submissionCheck [!adminCheckOk] &#45;&gt; EvaluationByInstitution">
<path fill="none" stroke="black" d="M180.607,-384.133C151.914,-404.914 112.918,-440.898 135,-471 164.734,-511.534 218.653,-528.541 265.179,-535.41"/>
<polygon fill="black" stroke="black" points="264.913,-538.906 275.289,-536.764 265.842,-531.968 264.913,-538.906"/>
</a>
</g>
<text text-anchor="middle" x="237.5" y="-449.3" font-family="Times,serif" font-size="14.00">submissionCheck [!adminCheckOk]</text>
</g>
<!-- GrantApplication_status_SubmittedByInstitution&#45;&gt;GrantApplication_status_SubmittedByInstitution -->
<g id="edge15" class="edge"><title>GrantApplication_status_SubmittedByInstitution&#45;&gt;GrantApplication_status_SubmittedByInstitution</title>
<g id="a_edge15"><a xlink:title="SubmittedByInstitution submissionCheck [adminCheckOk] &#45;&gt; SubmittedByInstitution">
<path fill="none" stroke="black" d="M281.36,-373.067C291.916,-371.924 299,-369.568 299,-366 299,-363.714 296.093,-361.926 291.228,-360.635"/>
<polygon fill="black" stroke="black" points="291.81,-357.184 281.36,-358.933 290.62,-364.082 291.81,-357.184"/>
</a>
</g>
<text text-anchor="middle" x="399" y="-362.3" font-family="Times,serif" font-size="14.00">submissionCheck [adminCheckOk]</text>
</g>
<!-- GrantApplication_status_UnderAdministrativeReview -->
<g id="node7" class="node"><title>GrantApplication_status_UnderAdministrativeReview</title>
<path fill="none" stroke="black" d="M334,-297C334,-297 180,-297 180,-297 174,-297 168,-291 168,-285 168,-285 168,-273 168,-273 168,-267 174,-261 180,-261 180,-261 334,-261 334,-261 340,-261 346,-267 346,-273 346,-273 346,-285 346,-285 346,-291 340,-297 334,-297"/>
<text text-anchor="middle" x="257" y="-275.3" font-family="Times,serif" font-size="14.00">UnderAdministrativeReview</text>
</g>
<!-- GrantApplication_status_SubmittedByInstitution&#45;&gt;GrantApplication_status_UnderAdministrativeReview -->
<g id="edge16" class="edge"><title>GrantApplication_status_SubmittedByInstitution&#45;&gt;GrantApplication_status_UnderAdministrativeReview</title>
<g id="a_edge16"><a xlink:title="SubmittedByInstitution acceptForReview &#45;&gt; UnderAdministrativeReview">
<path fill="none" stroke="black" d="M217.118,-347.799C224.167,-335.817 233.696,-319.617 241.672,-306.057"/>
<polygon fill="black" stroke="black" points="244.843,-307.569 246.897,-297.175 238.81,-304.02 244.843,-307.569"/>
</a>
</g>
<text text-anchor="middle" x="284" y="-318.8" font-family="Times,serif" font-size="14.00">acceptForReview</text>
</g>
<!-- GrantApplication_status_Withdrawn -->
<g id="node12" class="node"><title>GrantApplication_status_Withdrawn</title>
<path fill="none" stroke="black" d="M148.5,-123C148.5,-123 93.5,-123 93.5,-123 87.5,-123 81.5,-117 81.5,-111 81.5,-111 81.5,-99 81.5,-99 81.5,-93 87.5,-87 93.5,-87 93.5,-87 148.5,-87 148.5,-87 154.5,-87 160.5,-93 160.5,-99 160.5,-99 160.5,-111 160.5,-111 160.5,-117 154.5,-123 148.5,-123"/>
<text text-anchor="middle" x="121" y="-101.3" font-family="Times,serif" font-size="14.00">Withdrawn</text>
</g>
<!-- GrantApplication_status_SubmittedByInstitution&#45;&gt;GrantApplication_status_Withdrawn -->
<g id="edge22" class="edge"><title>GrantApplication_status_SubmittedByInstitution&#45;&gt;GrantApplication_status_Withdrawn</title>
<g id="a_edge22"><a xlink:title="SubmittedByInstitution withdraw &#45;&gt; Withdrawn">
<path fill="none" stroke="black" d="M115.547,-133.34 111.072,-161.553 107.2,-206.47 119,-243 132.727,-285.496 167.38,-325.654 188.878,-347.637"/>
<polygon fill="black" stroke="black" points="119.011,-133.846 117.259,-123.397 112.112,-132.658 119.011,-133.846"/>
</a>
</g>
<text text-anchor="middle" x="145.5" y="-231.8" font-family="Times,serif" font-size="14.00">withdraw</text>
</g>
<!-- GrantApplication_status_UnderAdministrativeReview&#45;&gt;GrantApplication_status_EvaluationByInstitution -->
<g id="edge11" class="edge"><title>GrantApplication_status_UnderAdministrativeReview&#45;&gt;GrantApplication_status_EvaluationByInstitution</title>
<g id="a_edge11"><a xlink:title="UnderAdministrativeReview returnToInstitition &#45;&gt; EvaluationByInstitution">
<path fill="none" stroke="black" d="M346.097,-292.548C409.958,-303.578 488.076,-321.96 508,-348 541.433,-391.696 522.449,-423.906 494,-471 480.761,-492.915 458.228,-507.885 434.915,-518.062"/>
<polygon fill="black" stroke="black" points="433.541,-514.842 425.61,-521.867 436.19,-521.322 433.541,-514.842"/>
</a>
</g>
<text text-anchor="middle" x="577" y="-405.8" font-family="Times,serif" font-size="14.00">returnToInstitition</text>
</g>
<!-- GrantApplication_status_UnderExpertReview -->
<g id="node8" class="node"><title>GrantApplication_status_UnderExpertReview</title>
<path fill="none" stroke="black" d="M340,-210C340,-210 232,-210 232,-210 226,-210 220,-204 220,-198 220,-198 220,-186 220,-186 220,-180 226,-174 232,-174 232,-174 340,-174 340,-174 346,-174 352,-180 352,-186 352,-186 352,-198 352,-198 352,-204 346,-210 340,-210"/>
<text text-anchor="middle" x="286" y="-188.3" font-family="Times,serif" font-size="14.00">UnderExpertReview</text>
</g>
<!-- GrantApplication_status_UnderAdministrativeReview&#45;&gt;GrantApplication_status_UnderExpertReview -->
<g id="edge17" class="edge"><title>GrantApplication_status_UnderAdministrativeReview&#45;&gt;GrantApplication_status_UnderExpertReview</title>
<g id="a_edge17"><a xlink:title="UnderAdministrativeReview acceptForExpertReview &#45;&gt; UnderExpertReview">
<path fill="none" stroke="black" d="M254.663,-260.837C253.967,-250.95 254.217,-238.45 258,-228 259.202,-224.68 260.858,-221.437 262.768,-218.349"/>
<polygon fill="black" stroke="black" points="265.686,-220.285 268.663,-210.117 259.995,-216.21 265.686,-220.285"/>
</a>
</g>
<text text-anchor="middle" x="326" y="-231.8" font-family="Times,serif" font-size="14.00">acceptForExpertReview</text>
</g>
<!-- GrantApplication_status_AwaitingFinalDecision -->
<g id="node9" class="node"><title>GrantApplication_status_AwaitingFinalDecision</title>
<path fill="none" stroke="black" d="M330.5,-123C330.5,-123 207.5,-123 207.5,-123 201.5,-123 195.5,-117 195.5,-111 195.5,-111 195.5,-99 195.5,-99 195.5,-93 201.5,-87 207.5,-87 207.5,-87 330.5,-87 330.5,-87 336.5,-87 342.5,-93 342.5,-99 342.5,-99 342.5,-111 342.5,-111 342.5,-117 336.5,-123 330.5,-123"/>
<text text-anchor="middle" x="269" y="-101.3" font-family="Times,serif" font-size="14.00">AwaitingFinalDecision</text>
</g>
<!-- GrantApplication_status_UnderAdministrativeReview&#45;&gt;GrantApplication_status_AwaitingFinalDecision -->
<g id="edge18" class="edge"><title>GrantApplication_status_UnderAdministrativeReview&#45;&gt;GrantApplication_status_AwaitingFinalDecision</title>
<g id="a_edge18"><a xlink:title="UnderAdministrativeReview bypassExpertReviewDueToMinorChanges &#45;&gt; AwaitingFinalDecision">
<path fill="none" stroke="black" d="M346.198,-264.03C368.069,-258.717 387.186,-251.773 394,-243 421.807,-207.196 421.395,-177.119 394,-141 388.058,-133.166 371.645,-126.606 352.588,-121.362"/>
<polygon fill="black" stroke="black" points="353.298,-117.931 342.741,-118.817 351.547,-124.708 353.298,-117.931"/>
</a>
</g>
<text text-anchor="middle" x="535.5" y="-188.3" font-family="Times,serif" font-size="14.00">bypassExpertReviewDueToMinorChanges</text>
</g>
<!-- GrantApplication_status_UnderAdministrativeReview&#45;&gt;GrantApplication_status_Withdrawn -->
<g id="edge23" class="edge"><title>GrantApplication_status_UnderAdministrativeReview&#45;&gt;GrantApplication_status_Withdrawn</title>
<g id="a_edge23"><a xlink:title="UnderAdministrativeReview withdraw &#45;&gt; Withdrawn">
<path fill="none" stroke="black" d="M125.745,-132.909 130.761,-155.331 140.456,-187.177 158,-210 174.775,-231.822 200.571,-249.219 221.626,-260.952"/>
<polygon fill="black" stroke="black" points="129.156,-132.121 123.701,-123.038 122.302,-133.54 129.156,-132.121"/>
</a>
</g>
<text text-anchor="middle" x="184.5" y="-188.3" font-family="Times,serif" font-size="14.00">withdraw</text>
</g>
<!-- GrantApplication_status_UnderExpertReview&#45;&gt;GrantApplication_status_AwaitingFinalDecision -->
<g id="edge19" class="edge"><title>GrantApplication_status_UnderExpertReview&#45;&gt;GrantApplication_status_AwaitingFinalDecision</title>
<g id="a_edge19"><a xlink:title="UnderExpertReview expertReviewsReturned &#45;&gt; AwaitingFinalDecision">
<path fill="none" stroke="black" d="M258.411,-133.168 256.871,-140.67 256.526,-148.742 259,-156 261.179,-162.392 265.05,-168.525 269.193,-173.823"/>
<polygon fill="black" stroke="black" points="261.815,-133.989 261.099,-123.418 255.067,-132.128 261.815,-133.989"/>
</a>
</g>
<text text-anchor="middle" x="326.5" y="-144.8" font-family="Times,serif" font-size="14.00">expertReviewsReturned</text>
</g>
<!-- GrantApplication_status_UnderExpertReview&#45;&gt;GrantApplication_status_Withdrawn -->
<g id="edge24" class="edge"><title>GrantApplication_status_UnderExpertReview&#45;&gt;GrantApplication_status_Withdrawn</title>
<g id="a_edge24"><a xlink:title="UnderExpertReview withdraw &#45;&gt; Withdrawn">
<path fill="none" stroke="black" d="M154.334,-128.585 168.42,-137.663 185.196,-147.88 201,-156 213.492,-162.418 227.439,-168.559 240.366,-173.856"/>
<polygon fill="black" stroke="black" points="156.231,-125.643 145.944,-123.108 152.405,-131.505 156.231,-125.643"/>
</a>
</g>
<text text-anchor="middle" x="227.5" y="-144.8" font-family="Times,serif" font-size="14.00">withdraw</text>
</g>
<!-- GrantApplication_status_AwaitingFinalDecision&#45;&gt;GrantApplication_status_EvaluationByInstitution -->
<g id="edge12" class="edge"><title>GrantApplication_status_AwaitingFinalDecision&#45;&gt;GrantApplication_status_EvaluationByInstitution</title>
<g id="a_edge12"><a xlink:title="AwaitingFinalDecision minorRevisionsNeeded &#45;&gt; EvaluationByInstitution">
<path fill="none" stroke="black" d="M342.886,-106.474C460.46,-109.253 677,-123.53 677,-191 677,-454 677,-454 677,-454 677,-503.711 533.267,-524.882 436.679,-533.497"/>
<polygon fill="black" stroke="black" points="436.273,-530.019 426.61,-534.365 436.874,-536.993 436.273,-530.019"/>
</a>
</g>
<text text-anchor="middle" x="743" y="-318.8" font-family="Times,serif" font-size="14.00">minorRevisionsNeeded</text>
</g>
<!-- GrantApplication_status_Accepted -->
<g id="node10" class="node"><title>GrantApplication_status_Accepted</title>
<path fill="none" stroke="black" d="M293,-36C293,-36 245,-36 245,-36 239,-36 233,-30 233,-24 233,-24 233,-12 233,-12 233,-6 239,-0 245,-0 245,-0 293,-0 293,-0 299,-0 305,-6 305,-12 305,-12 305,-24 305,-24 305,-30 299,-36 293,-36"/>
<text text-anchor="middle" x="269" y="-14.3" font-family="Times,serif" font-size="14.00">Accepted</text>
</g>
<!-- GrantApplication_status_AwaitingFinalDecision&#45;&gt;GrantApplication_status_Accepted -->
<g id="edge20" class="edge"><title>GrantApplication_status_AwaitingFinalDecision&#45;&gt;GrantApplication_status_Accepted</title>
<g id="a_edge20"><a xlink:title="AwaitingFinalDecision finalAccept &#45;&gt; Accepted">
<path fill="none" stroke="black" d="M269,-86.799C269,-75.1626 269,-59.5479 269,-46.2368"/>
<polygon fill="black" stroke="black" points="272.5,-46.1754 269,-36.1754 265.5,-46.1755 272.5,-46.1754"/>
</a>
</g>
<text text-anchor="middle" x="301.5" y="-57.8" font-family="Times,serif" font-size="14.00">finalAccept</text>
</g>
<!-- GrantApplication_status_Rejected -->
<g id="node11" class="node"><title>GrantApplication_status_Rejected</title>
<path fill="none" stroke="black" d="M114,-36C114,-36 66,-36 66,-36 60,-36 54,-30 54,-24 54,-24 54,-12 54,-12 54,-6 60,-0 66,-0 66,-0 114,-0 114,-0 120,-0 126,-6 126,-12 126,-12 126,-24 126,-24 126,-30 120,-36 114,-36"/>
<text text-anchor="middle" x="90" y="-14.3" font-family="Times,serif" font-size="14.00">Rejected</text>
</g>
<!-- GrantApplication_status_AwaitingFinalDecision&#45;&gt;GrantApplication_status_Rejected -->
<g id="edge21" class="edge"><title>GrantApplication_status_AwaitingFinalDecision&#45;&gt;GrantApplication_status_Rejected</title>
<g id="a_edge21"><a xlink:title="AwaitingFinalDecision reject &#45;&gt; Rejected">
<path fill="none" stroke="black" d="M134.935,-40.3377 165.179,-54.6996 204.54,-73.3904 232.777,-86.799"/>
<polygon fill="black" stroke="black" points="136.398,-37.1581 125.864,-36.0302 133.395,-43.4814 136.398,-37.1581"/>
</a>
</g>
<text text-anchor="middle" x="207" y="-57.8" font-family="Times,serif" font-size="14.00">reject</text>
</g>
<!-- GrantApplication_status_Rejected&#45;&gt;GrantApplication_status_InProgress -->
<g id="edge5" class="edge"><title>GrantApplication_status_Rejected&#45;&gt;GrantApplication_status_InProgress</title>
<g id="a_edge5"><a xlink:title="Rejected tryAgain &#45;&gt; InProgress">
<path fill="none" stroke="black" d="M53.9121,-35.5065C28.8734,-49.7061 0,-72.8365 0,-104 0,-541 0,-541 0,-541 0,-576.014 34.9905,-598.321 66.2008,-611.253"/>
<polygon fill="black" stroke="black" points="65.1343,-614.594 75.7225,-614.97 67.6795,-608.073 65.1343,-614.594"/>
</a>
</g>
<text text-anchor="middle" x="25" y="-318.8" font-family="Times,serif" font-size="14.00">tryAgain</text>
</g>
<!-- GrantApplication_status_Withdrawn&#45;&gt;GrantApplication_status_InProgress -->
<g id="edge6" class="edge"><title>GrantApplication_status_Withdrawn&#45;&gt;GrantApplication_status_InProgress</title>
<g id="a_edge6"><a xlink:title="Withdrawn tryAgain &#45;&gt; InProgress">
<path fill="none" stroke="black" d="M90.4015,-601.005 77.8585,-585.095 65,-563.338 65,-541 65,-541 65,-541 65,-191 65,-163.962 85.0028,-138.882 101.099,-123.077"/>
<polygon fill="black" stroke="black" points="87.7736,-603.319 96.8622,-608.764 93.1529,-598.84 87.7736,-603.319"/>
</a>
</g>
<text text-anchor="middle" x="90" y="-362.3" font-family="Times,serif" font-size="14.00">tryAgain</text>
</g>
</g>
</svg>
