<?xml version="1.0" encoding="UTF-8" standalone="no"?>
<!DOCTYPE svg PUBLIC "-//W3C//DTD SVG 1.1//EN"
 "http://www.w3.org/Graphics/SVG/1.1/DTD/svg11.dtd">
<!-- Generated by graphviz version 2.36.0 (20140111.2315)
 -->
<!-- Title: Ball_Game Pages: 1 -->
<svg width="459pt" height="308pt"
 viewBox="0.00 0.00 459.00 308.00" xmlns="http://www.w3.org/2000/svg" xmlns:xlink="http://www.w3.org/1999/xlink">
<g id="graph0" class="graph" transform="scale(1 1) rotate(0) translate(4 304)">
<title>Ball_Game</title>
<polygon fill="white" stroke="none" points="-4,4 -4,-304 455,-304 455,4 -4,4"/>
<!-- start_Ball_Game_ball_Status -->
<g id="node1" class="node"><title>start_Ball_Game_ball_Status</title>
<ellipse fill="black" stroke="black" cx="36" cy="-282" rx="7.2" ry="7.2"/>
</g>
<!-- Ball_Game_ball_Status_NoBall -->
<g id="node2" class="node"><title>Ball_Game_ball_Status_NoBall</title>
<path fill="none" stroke="black" d="M60,-212C60,-212 12,-212 12,-212 6,-212 0,-206 0,-200 0,-200 0,-188 0,-188 0,-182 6,-176 12,-176 12,-176 60,-176 60,-176 66,-176 72,-182 72,-188 72,-188 72,-200 72,-200 72,-206 66,-212 60,-212"/>
<text text-anchor="middle" x="36" y="-190.3" font-family="Times,serif" font-size="14.00">NoBall</text>
</g>
<!-- start_Ball_Game_ball_Status&#45;&gt;Ball_Game_ball_Status_NoBall -->
<g id="edge1" class="edge"><title>start_Ball_Game_ball_Status&#45;&gt;Ball_Game_ball_Status_NoBall</title>
<path fill="none" stroke="black" d="M36,-274.536C36,-263.564 36,-240.694 36,-222.283"/>
<polygon fill="black" stroke="black" points="39.5001,-222.081 36,-212.081 32.5001,-222.081 39.5001,-222.081"/>
</g>
<!-- Ball_Game_ball_Status_Initialized -->
<g id="node3" class="node"><title>Ball_Game_ball_Status_Initialized</title>
<path fill="none" stroke="black" d="M60.25,-124C60.25,-124 11.75,-124 11.75,-124 5.75,-124 -0.25,-118 -0.25,-112 -0.25,-112 -0.25,-100 -0.25,-100 -0.25,-94 5.75,-88 11.75,-88 11.75,-88 60.25,-88 60.25,-88 66.25,-88 72.25,-94 72.25,-100 72.25,-100 72.25,-112 72.25,-112 72.25,-118 66.25,-124 60.25,-124"/>
<text text-anchor="middle" x="36" y="-102.3" font-family="Times,serif" font-size="14.00">Initialized</text>
</g>
<!-- Ball_Game_ball_Status_NoBall&#45;&gt;Ball_Game_ball_Status_Initialized -->
<g id="edge2" class="edge"><title>Ball_Game_ball_Status_NoBall&#45;&gt;Ball_Game_ball_Status_Initialized</title>
<path fill="none" stroke="black" d="M36,-175.597C36,-163.746 36,-147.817 36,-134.292"/>
<polygon fill="black" stroke="black" points="39.5001,-134.084 36,-124.084 32.5001,-134.084 39.5001,-134.084"/>
<text text-anchor="middle" x="65" y="-146.3" font-family="Times,serif" font-size="14.00">startGame</text>
</g>
<!-- Ball_Game_ball_Status_Moving -->
<g id="node5" class="node"><title>Ball_Game_ball_Status_Moving</title>
<path fill="none" stroke="black" d="M211,-36C211,-36 163,-36 163,-36 157,-36 151,-30 151,-24 151,-24 151,-12 151,-12 151,-6 157,-0 163,-0 163,-0 211,-0 211,-0 217,-0 223,-6 223,-12 223,-12 223,-24 223,-24 223,-30 217,-36 211,-36"/>
<text text-anchor="middle" x="187" y="-14.3" font-family="Times,serif" font-size="14.00">Moving</text>
</g>
<!-- Ball_Game_ball_Status_Initialized&#45;&gt;Ball_Game_ball_Status_Moving -->
<g id="edge3" class="edge"><title>Ball_Game_ball_Status_Initialized&#45;&gt;Ball_Game_ball_Status_Moving</title>
<path fill="none" stroke="black" d="M37.5951,-87.6046C39.5137,-76.5246 43.7323,-62.6731 53,-54 76.5316,-31.9782 112.157,-23.4221 140.761,-20.2678"/>
<polygon fill="black" stroke="black" points="141.307,-23.7326 150.946,-19.3352 140.668,-16.7617 141.307,-23.7326"/>
<text text-anchor="middle" x="86.5" y="-58.3" font-family="Times,serif" font-size="14.00">mouseClick</text>
</g>
<!-- Ball_Game_ball_Status_BehindPaddle -->
<g id="node4" class="node"><title>Ball_Game_ball_Status_BehindPaddle</title>
<path fill="none" stroke="black" d="M161.25,-300C161.25,-300 90.75,-300 90.75,-300 84.75,-300 78.75,-294 78.75,-288 78.75,-288 78.75,-276 78.75,-276 78.75,-270 84.75,-264 90.75,-264 90.75,-264 161.25,-264 161.25,-264 167.25,-264 173.25,-270 173.25,-276 173.25,-276 173.25,-288 173.25,-288 173.25,-294 167.25,-300 161.25,-300"/>
<text text-anchor="middle" x="126" y="-278.3" font-family="Times,serif" font-size="14.00">BehindPaddle</text>
</g>
<!-- Ball_Game_ball_Status_End -->
<g id="node9" class="node"><title>Ball_Game_ball_Status_End</title>
<path fill="none" stroke="black" d="M150,-212C150,-212 102,-212 102,-212 96,-212 90,-206 90,-200 90,-200 90,-188 90,-188 90,-182 96,-176 102,-176 102,-176 150,-176 150,-176 156,-176 162,-182 162,-188 162,-188 162,-200 162,-200 162,-206 156,-212 150,-212"/>
<text text-anchor="middle" x="126" y="-190.3" font-family="Times,serif" font-size="14.00">End</text>
</g>
<!-- Ball_Game_ball_Status_BehindPaddle&#45;&gt;Ball_Game_ball_Status_End -->
<g id="edge7" class="edge"><title>Ball_Game_ball_Status_BehindPaddle&#45;&gt;Ball_Game_ball_Status_End</title>
<path fill="none" stroke="black" d="M126,-263.597C126,-251.746 126,-235.817 126,-222.292"/>
<polygon fill="black" stroke="black" points="129.5,-222.084 126,-212.084 122.5,-222.084 129.5,-222.084"/>
<text text-anchor="middle" x="163" y="-234.3" font-family="Times,serif" font-size="14.00">noMoreBalls</text>
</g>
<!-- Ball_Game_ball_Status_HitsBrick -->
<g id="node6" class="node"><title>Ball_Game_ball_Status_HitsBrick</title>
<path fill="none" stroke="black" d="M151,-124C151,-124 103,-124 103,-124 97,-124 91,-118 91,-112 91,-112 91,-100 91,-100 91,-94 97,-88 103,-88 103,-88 151,-88 151,-88 157,-88 163,-94 163,-100 163,-100 163,-112 163,-112 163,-118 157,-124 151,-124"/>
<text text-anchor="middle" x="127" y="-102.3" font-family="Times,serif" font-size="14.00">HitsBrick</text>
</g>
<!-- Ball_Game_ball_Status_HitsBrick&#45;&gt;Ball_Game_ball_Status_Moving -->
<g id="edge4" class="edge"><title>Ball_Game_ball_Status_HitsBrick&#45;&gt;Ball_Game_ball_Status_Moving</title>
<path fill="none" stroke="black" d="M123.335,-87.8044C122.034,-77.3445 122.116,-64.1008 128,-54 131.545,-47.9155 136.599,-42.7746 142.277,-38.4659"/>
<polygon fill="black" stroke="black" points="144.529,-41.1724 150.938,-32.7358 140.667,-35.3344 144.529,-41.1724"/>
<text text-anchor="middle" x="177" y="-58.3" font-family="Times,serif" font-size="14.00">directionUpdated</text>
</g>
<!-- Ball_Game_ball_Status_HitsWall -->
<g id="node7" class="node"><title>Ball_Game_ball_Status_HitsWall</title>
<path fill="none" stroke="black" d="M272,-124C272,-124 224,-124 224,-124 218,-124 212,-118 212,-112 212,-112 212,-100 212,-100 212,-94 218,-88 224,-88 224,-88 272,-88 272,-88 278,-88 284,-94 284,-100 284,-100 284,-112 284,-112 284,-118 278,-124 272,-124"/>
<text text-anchor="middle" x="248" y="-102.3" font-family="Times,serif" font-size="14.00">HitsWall</text>
</g>
<!-- Ball_Game_ball_Status_HitsWall&#45;&gt;Ball_Game_ball_Status_Moving -->
<g id="edge5" class="edge"><title>Ball_Game_ball_Status_HitsWall&#45;&gt;Ball_Game_ball_Status_Moving</title>
<path fill="none" stroke="black" d="M242.745,-87.9692C239.047,-77.5712 233.43,-64.3348 226,-54 223.298,-50.242 220.13,-46.5954 216.788,-43.1643"/>
<polygon fill="black" stroke="black" points="218.96,-40.4001 209.305,-36.0377 214.132,-45.469 218.96,-40.4001"/>
<text text-anchor="middle" x="285" y="-58.3" font-family="Times,serif" font-size="14.00">directionUpdated</text>
</g>
<!-- Ball_Game_ball_Status_HitsPaddle -->
<g id="node8" class="node"><title>Ball_Game_ball_Status_HitsPaddle</title>
<path fill="none" stroke="black" d="M396,-124C396,-124 342,-124 342,-124 336,-124 330,-118 330,-112 330,-112 330,-100 330,-100 330,-94 336,-88 342,-88 342,-88 396,-88 396,-88 402,-88 408,-94 408,-100 408,-100 408,-112 408,-112 408,-118 402,-124 396,-124"/>
<text text-anchor="middle" x="369" y="-102.3" font-family="Times,serif" font-size="14.00">HitsPaddle</text>
</g>
<!-- Ball_Game_ball_Status_HitsPaddle&#45;&gt;Ball_Game_ball_Status_Moving -->
<g id="edge6" class="edge"><title>Ball_Game_ball_Status_HitsPaddle&#45;&gt;Ball_Game_ball_Status_Moving</title>
<path fill="none" stroke="black" d="M362.697,-87.8236C357.689,-76.5455 349.586,-62.3801 338,-54 307.504,-31.9418 265.258,-23.5391 233.205,-20.4549"/>
<polygon fill="black" stroke="black" points="233.437,-16.9623 223.184,-19.6298 232.863,-23.9387 233.437,-16.9623"/>
<text text-anchor="middle" x="402" y="-58.3" font-family="Times,serif" font-size="14.00">directionUpdated</text>
</g>
</g>
</svg>
