<?xml version="1.0" encoding="UTF-8" standalone="no"?>
<!DOCTYPE svg PUBLIC "-//W3C//DTD SVG 1.1//EN"
 "http://www.w3.org/Graphics/SVG/1.1/DTD/svg11.dtd">
<!-- Generated by graphviz version 2.29.20121108.1600 (20121108.1600)
 -->
<!-- Title: Ball_Game Pages: 1 -->
<svg width="456pt" height="314pt"
 viewBox="0.00 0.00 456.19 314.00" xmlns="http://www.w3.org/2000/svg" xmlns:xlink="http://www.w3.org/1999/xlink">
<g id="graph0" class="graph" transform="scale(1 1) rotate(0) translate(4 310)">
<title>Ball_Game</title>
<polygon fill="white" stroke="white" points="-4,5 -4,-310 453.187,-310 453.187,5 -4,5"/>
<!-- start_Ball_Game_ball_Status -->
<g id="node1" class="node"><title>start_Ball_Game_ball_Status</title>
<ellipse fill="black" stroke="black" cx="36" cy="-288" rx="7.2" ry="7.2"/>
</g>
<!-- Ball_Game_ball_Status_NoBall -->
<g id="node2" class="node"><title>Ball_Game_ball_Status_NoBall</title>
<path fill="none" stroke="black" d="M60,-216C60,-216 12,-216 12,-216 6,-216 0,-210 0,-204 0,-204 0,-192 0,-192 0,-186 6,-180 12,-180 12,-180 60,-180 60,-180 66,-180 72,-186 72,-192 72,-192 72,-204 72,-204 72,-210 66,-216 60,-216"/>
<text text-anchor="middle" x="36" y="-192.4" font-family="Times,serif" font-size="14.00">NoBall</text>
</g>
<!-- start_Ball_Game_ball_Status&#45;&gt;Ball_Game_ball_Status_NoBall -->
<g id="edge1" class="edge"><title>start_Ball_Game_ball_Status&#45;&gt;Ball_Game_ball_Status_NoBall</title>
<path fill="none" stroke="black" d="M36,-280.671C36,-269.484 36,-245.597 36,-226.531"/>
<polygon fill="black" stroke="black" points="39.5001,-226.271 36,-216.271 32.5001,-226.271 39.5001,-226.271"/>
</g>
<!-- Ball_Game_ball_Status_Initialized -->
<g id="node3" class="node"><title>Ball_Game_ball_Status_Initialized</title>
<path fill="none" stroke="black" d="M60.065,-126C60.065,-126 11.935,-126 11.935,-126 5.93497,-126 -0.065025,-120 -0.065025,-114 -0.065025,-114 -0.065025,-102 -0.065025,-102 -0.065025,-96 5.93497,-90 11.935,-90 11.935,-90 60.065,-90 60.065,-90 66.065,-90 72.065,-96 72.065,-102 72.065,-102 72.065,-114 72.065,-114 72.065,-120 66.065,-126 60.065,-126"/>
<text text-anchor="middle" x="36" y="-102.4" font-family="Times,serif" font-size="14.00">Initialized</text>
</g>
<!-- Ball_Game_ball_Status_NoBall&#45;&gt;Ball_Game_ball_Status_Initialized -->
<g id="edge2" class="edge"><title>Ball_Game_ball_Status_NoBall&#45;&gt;Ball_Game_ball_Status_Initialized</title>
<path fill="none" stroke="black" d="M36,-179.614C36,-167.24 36,-150.369 36,-136.22"/>
<polygon fill="black" stroke="black" points="39.5001,-136.05 36,-126.05 32.5001,-136.05 39.5001,-136.05"/>
<text text-anchor="middle" x="64.7656" y="-147.4" font-family="Times,serif" font-size="14.00">startGame</text>
</g>
<!-- Ball_Game_ball_Status_Moving -->
<g id="node5" class="node"><title>Ball_Game_ball_Status_Moving</title>
<path fill="none" stroke="black" d="M210,-36C210,-36 162,-36 162,-36 156,-36 150,-30 150,-24 150,-24 150,-12 150,-12 150,-6 156,-0 162,-0 162,-0 210,-0 210,-0 216,-0 222,-6 222,-12 222,-12 222,-24 222,-24 222,-30 216,-36 210,-36"/>
<text text-anchor="middle" x="186" y="-12.4" font-family="Times,serif" font-size="14.00">Moving</text>
</g>
<!-- Ball_Game_ball_Status_Initialized&#45;&gt;Ball_Game_ball_Status_Moving -->
<g id="edge3" class="edge"><title>Ball_Game_ball_Status_Initialized&#45;&gt;Ball_Game_ball_Status_Moving</title>
<path fill="none" stroke="black" d="M36.5947,-89.9799C37.9096,-78.3315 41.5322,-63.358 51.1172,-54 74.3972,-31.2714 110.442,-22.7638 139.415,-19.8082"/>
<polygon fill="black" stroke="black" points="140.055,-23.2673 149.732,-18.9545 139.478,-16.2911 140.055,-23.2673"/>
<text text-anchor="middle" x="85.4414" y="-57.4" font-family="Times,serif" font-size="14.00">mouseClick</text>
</g>
<!-- Ball_Game_ball_Status_BehindPaddle -->
<g id="node4" class="node"><title>Ball_Game_ball_Status_BehindPaddle</title>
<path fill="none" stroke="black" d="M160.91,-306C160.91,-306 91.0896,-306 91.0896,-306 85.0896,-306 79.0896,-300 79.0896,-294 79.0896,-294 79.0896,-282 79.0896,-282 79.0896,-276 85.0896,-270 91.0896,-270 91.0896,-270 160.91,-270 160.91,-270 166.91,-270 172.91,-276 172.91,-282 172.91,-282 172.91,-294 172.91,-294 172.91,-300 166.91,-306 160.91,-306"/>
<text text-anchor="middle" x="126" y="-282.4" font-family="Times,serif" font-size="14.00">BehindPaddle</text>
</g>
<!-- Ball_Game_ball_Status_End -->
<g id="node9" class="node"><title>Ball_Game_ball_Status_End</title>
<path fill="none" stroke="black" d="M150,-216C150,-216 102,-216 102,-216 96,-216 90,-210 90,-204 90,-204 90,-192 90,-192 90,-186 96,-180 102,-180 102,-180 150,-180 150,-180 156,-180 162,-186 162,-192 162,-192 162,-204 162,-204 162,-210 156,-216 150,-216"/>
<text text-anchor="middle" x="126" y="-192.4" font-family="Times,serif" font-size="14.00">End</text>
</g>
<!-- Ball_Game_ball_Status_BehindPaddle&#45;&gt;Ball_Game_ball_Status_End -->
<g id="edge7" class="edge"><title>Ball_Game_ball_Status_BehindPaddle&#45;&gt;Ball_Game_ball_Status_End</title>
<path fill="none" stroke="black" d="M126,-269.614C126,-257.24 126,-240.369 126,-226.22"/>
<polygon fill="black" stroke="black" points="129.5,-226.05 126,-216.05 122.5,-226.05 129.5,-226.05"/>
<text text-anchor="middle" x="162.552" y="-237.4" font-family="Times,serif" font-size="14.00">noMoreBalls</text>
</g>
<!-- Ball_Game_ball_Status_HitsBrick -->
<g id="node6" class="node"><title>Ball_Game_ball_Status_HitsBrick</title>
<path fill="none" stroke="black" d="M150,-126C150,-126 102,-126 102,-126 96,-126 90,-120 90,-114 90,-114 90,-102 90,-102 90,-96 96,-90 102,-90 102,-90 150,-90 150,-90 156,-90 162,-96 162,-102 162,-102 162,-114 162,-114 162,-120 156,-126 150,-126"/>
<text text-anchor="middle" x="126" y="-102.4" font-family="Times,serif" font-size="14.00">HitsBrick</text>
</g>
<!-- Ball_Game_ball_Status_HitsBrick&#45;&gt;Ball_Game_ball_Status_Moving -->
<g id="edge4" class="edge"><title>Ball_Game_ball_Status_HitsBrick&#45;&gt;Ball_Game_ball_Status_Moving</title>
<path fill="none" stroke="black" d="M122.159,-89.6277C120.689,-78.6855 120.622,-64.6641 126.813,-54 130.358,-47.8962 135.422,-42.7448 141.115,-38.4316"/>
<polygon fill="black" stroke="black" points="143.383,-41.128 149.802,-32.6986 139.527,-35.2856 143.383,-41.128"/>
<text text-anchor="middle" x="175.593" y="-57.4" font-family="Times,serif" font-size="14.00">directionUpdated</text>
</g>
<!-- Ball_Game_ball_Status_HitsWall -->
<g id="node7" class="node"><title>Ball_Game_ball_Status_HitsWall</title>
<path fill="none" stroke="black" d="M270,-126C270,-126 222,-126 222,-126 216,-126 210,-120 210,-114 210,-114 210,-102 210,-102 210,-96 216,-90 222,-90 222,-90 270,-90 270,-90 276,-90 282,-96 282,-102 282,-102 282,-114 282,-114 282,-120 276,-126 270,-126"/>
<text text-anchor="middle" x="246" y="-102.4" font-family="Times,serif" font-size="14.00">HitsWall</text>
</g>
<!-- Ball_Game_ball_Status_HitsWall&#45;&gt;Ball_Game_ball_Status_Moving -->
<g id="edge5" class="edge"><title>Ball_Game_ball_Status_HitsWall&#45;&gt;Ball_Game_ball_Status_Moving</title>
<path fill="none" stroke="black" d="M240.983,-89.8174C237.317,-78.9509 231.647,-64.9425 224,-54 221.386,-50.2598 218.31,-46.6239 215.06,-43.1985"/>
<polygon fill="black" stroke="black" points="217.372,-40.5649 207.775,-36.0775 212.479,-45.5706 217.372,-40.5649"/>
<text text-anchor="middle" x="282.593" y="-57.4" font-family="Times,serif" font-size="14.00">directionUpdated</text>
</g>
<!-- Ball_Game_ball_Status_HitsPaddle -->
<g id="node8" class="node"><title>Ball_Game_ball_Status_HitsPaddle</title>
<path fill="none" stroke="black" d="M392.58,-126C392.58,-126 339.42,-126 339.42,-126 333.42,-126 327.42,-120 327.42,-114 327.42,-114 327.42,-102 327.42,-102 327.42,-96 333.42,-90 339.42,-90 339.42,-90 392.58,-90 392.58,-90 398.58,-90 404.58,-96 404.58,-102 404.58,-102 404.58,-114 404.58,-114 404.58,-120 398.58,-126 392.58,-126"/>
<text text-anchor="middle" x="366" y="-102.4" font-family="Times,serif" font-size="14.00">HitsPaddle</text>
</g>
<!-- Ball_Game_ball_Status_HitsPaddle&#45;&gt;Ball_Game_ball_Status_Moving -->
<g id="edge6" class="edge"><title>Ball_Game_ball_Status_HitsPaddle&#45;&gt;Ball_Game_ball_Status_Moving</title>
<path fill="none" stroke="black" d="M360.173,-89.929C355.267,-78.1005 347.09,-62.9293 335,-54 305.33,-32.0874 264.029,-23.6476 232.433,-20.5125"/>
<polygon fill="black" stroke="black" points="232.38,-16.9956 222.121,-19.6409 231.79,-23.9708 232.38,-16.9956"/>
<text text-anchor="middle" x="399.593" y="-57.4" font-family="Times,serif" font-size="14.00">directionUpdated</text>
</g>
</g>
</svg>
