<?xml version="1.0" encoding="UTF-8" standalone="no"?>
<!DOCTYPE svg PUBLIC "-//W3C//DTD SVG 1.1//EN"
 "http://www.w3.org/Graphics/SVG/1.1/DTD/svg11.dtd">
<!-- Generated by graphviz version 2.39.20140502.0445 (20140502.0445)
 -->
<!-- Title: Ball_Game Pages: 1 -->
<svg width="459pt" height="305pt"
 viewBox="0.00 0.00 458.50 305.00" xmlns="http://www.w3.org/2000/svg" xmlns:xlink="http://www.w3.org/1999/xlink">
<g id="graph0" class="graph" transform="scale(1 1) rotate(0) translate(4 301)">
<title>Ball_Game</title>
<polygon fill="white" stroke="none" points="-4,4 -4,-301 454.5,-301 454.5,4 -4,4"/>
<!-- start_Ball_Game_ball_Status -->
<g id="node1" class="node"><title>start_Ball_Game_ball_Status</title>
<ellipse fill="black" stroke="black" cx="36.5" cy="-279" rx="7.2" ry="7.2"/>
</g>
<!-- Ball_Game_ball_Status_NoBall -->
<g id="node2" class="node"><title>Ball_Game_ball_Status_NoBall</title>
<path fill="none" stroke="black" d="M60.5,-210C60.5,-210 12.5,-210 12.5,-210 6.5,-210 0.5,-204 0.5,-198 0.5,-198 0.5,-186 0.5,-186 0.5,-180 6.5,-174 12.5,-174 12.5,-174 60.5,-174 60.5,-174 66.5,-174 72.5,-180 72.5,-186 72.5,-186 72.5,-198 72.5,-198 72.5,-204 66.5,-210 60.5,-210"/>
<text text-anchor="middle" x="36.5" y="-188.3" font-family="Times,serif" font-size="14.00">NoBall</text>
</g>
<!-- start_Ball_Game_ball_Status&#45;&gt;Ball_Game_ball_Status_NoBall -->
<g id="edge1" class="edge"><title>start_Ball_Game_ball_Status&#45;&gt;Ball_Game_ball_Status_NoBall</title>
<g id="a_edge1"><a xlink:title="start &#160;&#45;&gt; NoBall">
<path fill="none" stroke="black" d="M36.5,-271.611C36.5,-260.831 36.5,-238.432 36.5,-220.291"/>
<polygon fill="black" stroke="black" points="40.0001,-220.222 36.5,-210.222 33.0001,-220.222 40.0001,-220.222"/>
</a>
</g>
</g>
<!-- Ball_Game_ball_Status_Initialized -->
<g id="node3" class="node"><title>Ball_Game_ball_Status_Initialized</title>
<path fill="none" stroke="black" d="M61,-123C61,-123 12,-123 12,-123 6,-123 0,-117 0,-111 0,-111 0,-99 0,-99 0,-93 6,-87 12,-87 12,-87 61,-87 61,-87 67,-87 73,-93 73,-99 73,-99 73,-111 73,-111 73,-117 67,-123 61,-123"/>
<text text-anchor="middle" x="36.5" y="-101.3" font-family="Times,serif" font-size="14.00">Initialized</text>
</g>
<!-- Ball_Game_ball_Status_NoBall&#45;&gt;Ball_Game_ball_Status_Initialized -->
<g id="edge2" class="edge"><title>Ball_Game_ball_Status_NoBall&#45;&gt;Ball_Game_ball_Status_Initialized</title>
<g id="a_edge2"><a xlink:title="NoBall startGame &#45;&gt; Initialized">
<path fill="none" stroke="black" d="M36.5,-173.799C36.5,-162.163 36.5,-146.548 36.5,-133.237"/>
<polygon fill="black" stroke="black" points="40.0001,-133.175 36.5,-123.175 33.0001,-133.175 40.0001,-133.175"/>
</a>
</g>
<text text-anchor="middle" x="65.5" y="-144.8" font-family="Times,serif" font-size="14.00">startGame</text>
</g>
<!-- Ball_Game_ball_Status_Moving -->
<g id="node5" class="node"><title>Ball_Game_ball_Status_Moving</title>
<path fill="none" stroke="black" d="M211.5,-36C211.5,-36 163.5,-36 163.5,-36 157.5,-36 151.5,-30 151.5,-24 151.5,-24 151.5,-12 151.5,-12 151.5,-6 157.5,-0 163.5,-0 163.5,-0 211.5,-0 211.5,-0 217.5,-0 223.5,-6 223.5,-12 223.5,-12 223.5,-24 223.5,-24 223.5,-30 217.5,-36 211.5,-36"/>
<text text-anchor="middle" x="187.5" y="-14.3" font-family="Times,serif" font-size="14.00">Moving</text>
</g>
<!-- Ball_Game_ball_Status_Initialized&#45;&gt;Ball_Game_ball_Status_Moving -->
<g id="edge3" class="edge"><title>Ball_Game_ball_Status_Initialized&#45;&gt;Ball_Game_ball_Status_Moving</title>
<g id="a_edge3"><a xlink:title="Initialized mouseClick &#45;&gt; Moving">
<path fill="none" stroke="black" d="M38.186,-86.939C40.143,-76.0734 44.3702,-62.4929 53.5,-54 77.0975,-32.0488 112.72,-23.4893 141.306,-20.3159"/>
<polygon fill="black" stroke="black" points="141.848,-23.7807 151.484,-19.3756 141.204,-16.8104 141.848,-23.7807"/>
</a>
</g>
<text text-anchor="middle" x="87" y="-57.8" font-family="Times,serif" font-size="14.00">mouseClick</text>
</g>
<!-- Ball_Game_ball_Status_BehindPaddle -->
<g id="node4" class="node"><title>Ball_Game_ball_Status_BehindPaddle</title>
<path fill="none" stroke="black" d="M162,-297C162,-297 91,-297 91,-297 85,-297 79,-291 79,-285 79,-285 79,-273 79,-273 79,-267 85,-261 91,-261 91,-261 162,-261 162,-261 168,-261 174,-267 174,-273 174,-273 174,-285 174,-285 174,-291 168,-297 162,-297"/>
<text text-anchor="middle" x="126.5" y="-275.3" font-family="Times,serif" font-size="14.00">BehindPaddle</text>
</g>
<!-- Ball_Game_ball_Status_End -->
<g id="node9" class="node"><title>Ball_Game_ball_Status_End</title>
<path fill="none" stroke="black" d="M150.5,-210C150.5,-210 102.5,-210 102.5,-210 96.5,-210 90.5,-204 90.5,-198 90.5,-198 90.5,-186 90.5,-186 90.5,-180 96.5,-174 102.5,-174 102.5,-174 150.5,-174 150.5,-174 156.5,-174 162.5,-180 162.5,-186 162.5,-186 162.5,-198 162.5,-198 162.5,-204 156.5,-210 150.5,-210"/>
<text text-anchor="middle" x="126.5" y="-188.3" font-family="Times,serif" font-size="14.00">End</text>
</g>
<!-- Ball_Game_ball_Status_BehindPaddle&#45;&gt;Ball_Game_ball_Status_End -->
<g id="edge7" class="edge"><title>Ball_Game_ball_Status_BehindPaddle&#45;&gt;Ball_Game_ball_Status_End</title>
<g id="a_edge7"><a xlink:title="BehindPaddle noMoreBalls &#45;&gt; End">
<path fill="none" stroke="black" d="M126.5,-260.799C126.5,-249.163 126.5,-233.548 126.5,-220.237"/>
<polygon fill="black" stroke="black" points="130,-220.175 126.5,-210.175 123,-220.175 130,-220.175"/>
</a>
</g>
<text text-anchor="middle" x="163.5" y="-231.8" font-family="Times,serif" font-size="14.00">noMoreBalls</text>
</g>
<!-- Ball_Game_ball_Status_HitsBrick -->
<g id="node6" class="node"><title>Ball_Game_ball_Status_HitsBrick</title>
<path fill="none" stroke="black" d="M151.5,-123C151.5,-123 103.5,-123 103.5,-123 97.5,-123 91.5,-117 91.5,-111 91.5,-111 91.5,-99 91.5,-99 91.5,-93 97.5,-87 103.5,-87 103.5,-87 151.5,-87 151.5,-87 157.5,-87 163.5,-93 163.5,-99 163.5,-99 163.5,-111 163.5,-111 163.5,-117 157.5,-123 151.5,-123"/>
<text text-anchor="middle" x="127.5" y="-101.3" font-family="Times,serif" font-size="14.00">HitsBrick</text>
</g>
<!-- Ball_Game_ball_Status_HitsBrick&#45;&gt;Ball_Game_ball_Status_Moving -->
<g id="edge4" class="edge"><title>Ball_Game_ball_Status_HitsBrick&#45;&gt;Ball_Game_ball_Status_Moving</title>
<g id="a_edge4"><a xlink:title="HitsBrick directionUpdated &#45;&gt; Moving">
<path fill="none" stroke="black" d="M123.858,-86.6729C122.648,-76.493 122.817,-63.7517 128.5,-54 132.046,-47.9162 137.101,-42.7756 142.779,-38.4672"/>
<polygon fill="black" stroke="black" points="145.031,-41.1737 151.44,-32.7372 141.169,-35.3355 145.031,-41.1737"/>
</a>
</g>
<text text-anchor="middle" x="177.5" y="-57.8" font-family="Times,serif" font-size="14.00">directionUpdated</text>
</g>
<!-- Ball_Game_ball_Status_HitsWall -->
<g id="node7" class="node"><title>Ball_Game_ball_Status_HitsWall</title>
<path fill="none" stroke="black" d="M272.5,-123C272.5,-123 224.5,-123 224.5,-123 218.5,-123 212.5,-117 212.5,-111 212.5,-111 212.5,-99 212.5,-99 212.5,-93 218.5,-87 224.5,-87 224.5,-87 272.5,-87 272.5,-87 278.5,-87 284.5,-93 284.5,-99 284.5,-99 284.5,-111 284.5,-111 284.5,-117 278.5,-123 272.5,-123"/>
<text text-anchor="middle" x="248.5" y="-101.3" font-family="Times,serif" font-size="14.00">HitsWall</text>
</g>
<!-- Ball_Game_ball_Status_HitsWall&#45;&gt;Ball_Game_ball_Status_Moving -->
<g id="edge5" class="edge"><title>Ball_Game_ball_Status_HitsWall&#45;&gt;Ball_Game_ball_Status_Moving</title>
<g id="a_edge5"><a xlink:title="HitsWall directionUpdated &#45;&gt; Moving">
<path fill="none" stroke="black" d="M217.261,-43.1832 220.608,-46.6111 223.785,-50.2518 226.5,-54 233.733,-63.9841 239.293,-76.7218 243.014,-86.8418"/>
<polygon fill="black" stroke="black" points="219.432,-40.4173 209.775,-36.0597 214.607,-45.4885 219.432,-40.4173"/>
</a>
</g>
<text text-anchor="middle" x="284.5" y="-57.8" font-family="Times,serif" font-size="14.00">directionUpdated</text>
</g>
<!-- Ball_Game_ball_Status_HitsPaddle -->
<g id="node8" class="node"><title>Ball_Game_ball_Status_HitsPaddle</title>
<path fill="none" stroke="black" d="M396.5,-123C396.5,-123 342.5,-123 342.5,-123 336.5,-123 330.5,-117 330.5,-111 330.5,-111 330.5,-99 330.5,-99 330.5,-93 336.5,-87 342.5,-87 342.5,-87 396.5,-87 396.5,-87 402.5,-87 408.5,-93 408.5,-99 408.5,-99 408.5,-111 408.5,-111 408.5,-117 402.5,-123 396.5,-123"/>
<text text-anchor="middle" x="369.5" y="-101.3" font-family="Times,serif" font-size="14.00">HitsPaddle</text>
</g>
<!-- Ball_Game_ball_Status_HitsPaddle&#45;&gt;Ball_Game_ball_Status_Moving -->
<g id="edge6" class="edge"><title>Ball_Game_ball_Status_HitsPaddle&#45;&gt;Ball_Game_ball_Status_Moving</title>
<g id="a_edge6"><a xlink:title="HitsPaddle directionUpdated &#45;&gt; Moving">
<path fill="none" stroke="black" d="M233.967,-20.8178 265.649,-24.0922 307.19,-32.573 337.5,-54 348.945,-62.0909 357.261,-75.6966 362.543,-86.6741"/>
<polygon fill="black" stroke="black" points="233.903,-17.2983 223.632,-19.8958 233.281,-24.2706 233.903,-17.2983"/>
</a>
</g>
<text text-anchor="middle" x="401.5" y="-57.8" font-family="Times,serif" font-size="14.00">directionUpdated</text>
</g>
</g>
</svg>
