<?xml version="1.0" encoding="UTF-8" standalone="no"?>
<!DOCTYPE svg PUBLIC "-//W3C//DTD SVG 1.1//EN"
 "http://www.w3.org/Graphics/SVG/1.1/DTD/svg11.dtd">
<!-- Generated by graphviz version 2.36.0 (20140111.2315)
 -->
<!-- Title: Booking Pages: 1 -->
<svg width="263pt" height="360pt"
 viewBox="0.00 0.00 263.00 360.00" xmlns="http://www.w3.org/2000/svg" xmlns:xlink="http://www.w3.org/1999/xlink">
<g id="graph0" class="graph" transform="scale(1 1) rotate(0) translate(4 356)">
<title>Booking</title>
<polygon fill="white" stroke="none" points="-4,4 -4,-356 259,-356 259,4 -4,4"/>
<!-- start_Booking_state -->
<g id="node1" class="node"><title>start_Booking_state</title>
<ellipse fill="black" stroke="black" cx="189" cy="-345" rx="7.2" ry="7.2"/>
</g>
<!-- Booking_state_new -->
<g id="node2" class="node"><title>Booking_state_new</title>
<path fill="none" stroke="black" d="M213,-300C213,-300 165,-300 165,-300 159,-300 153,-294 153,-288 153,-288 153,-276 153,-276 153,-270 159,-264 165,-264 165,-264 213,-264 213,-264 219,-264 225,-270 225,-276 225,-276 225,-288 225,-288 225,-294 219,-300 213,-300"/>
<text text-anchor="middle" x="189" y="-278.3" font-family="Times,serif" font-size="14.00">new</text>
</g>
<!-- start_Booking_state&#45;&gt;Booking_state_new -->
<g id="edge1" class="edge"><title>start_Booking_state&#45;&gt;Booking_state_new</title>
<path fill="none" stroke="black" d="M189,-337.472C189,-330.902 189,-320.324 189,-310.229"/>
<polygon fill="black" stroke="black" points="192.5,-310.073 189,-300.073 185.5,-310.073 192.5,-310.073"/>
</g>
<!-- Booking_state_seatAssigned -->
<g id="node3" class="node"><title>Booking_state_seatAssigned</title>
<path fill="none" stroke="black" d="M185,-212C185,-212 119,-212 119,-212 113,-212 107,-206 107,-200 107,-200 107,-188 107,-188 107,-182 113,-176 119,-176 119,-176 185,-176 185,-176 191,-176 197,-182 197,-188 197,-188 197,-200 197,-200 197,-206 191,-212 185,-212"/>
<text text-anchor="middle" x="152" y="-190.3" font-family="Times,serif" font-size="14.00">seatAssigned</text>
</g>
<!-- Booking_state_new&#45;&gt;Booking_state_seatAssigned -->
<g id="edge2" class="edge"><title>Booking_state_new&#45;&gt;Booking_state_seatAssigned</title>
<path fill="none" stroke="black" d="M166.033,-263.928C160.794,-258.794 155.916,-252.717 153,-246 149.848,-238.74 148.775,-230.333 148.714,-222.464"/>
<polygon fill="black" stroke="black" points="152.221,-222.369 149.157,-212.228 145.228,-222.067 152.221,-222.369"/>
<text text-anchor="middle" x="183" y="-234.3" font-family="Times,serif" font-size="14.00">assignSeat</text>
</g>
<!-- Booking_state_cancelled -->
<g id="node5" class="node"><title>Booking_state_cancelled</title>
<path fill="none" stroke="black" d="M187,-36C187,-36 139,-36 139,-36 133,-36 127,-30 127,-24 127,-24 127,-12 127,-12 127,-6 133,-0 139,-0 139,-0 187,-0 187,-0 193,-0 199,-6 199,-12 199,-12 199,-24 199,-24 199,-30 193,-36 187,-36"/>
<text text-anchor="middle" x="163" y="-14.3" font-family="Times,serif" font-size="14.00">cancelled</text>
</g>
<!-- Booking_state_new&#45;&gt;Booking_state_cancelled -->
<g id="edge4" class="edge"><title>Booking_state_new&#45;&gt;Booking_state_cancelled</title>
<path fill="none" stroke="black" d="M203.711,-263.925C207.488,-258.54 211.037,-252.334 213,-246 223.636,-211.682 274.487,-341.35 199,-88 194.542,-73.0378 186.774,-57.5254 179.593,-45.0075"/>
<polygon fill="black" stroke="black" points="182.401,-42.8819 174.28,-36.0775 176.385,-46.4611 182.401,-42.8819"/>
<text text-anchor="middle" x="237" y="-146.3" font-family="Times,serif" font-size="14.00">cancel</text>
</g>
<!-- Booking_state_checkedIn -->
<g id="node4" class="node"><title>Booking_state_checkedIn</title>
<path fill="none" stroke="black" d="M115,-124C115,-124 65,-124 65,-124 59,-124 53,-118 53,-112 53,-112 53,-100 53,-100 53,-94 59,-88 65,-88 65,-88 115,-88 115,-88 121,-88 127,-94 127,-100 127,-100 127,-112 127,-112 127,-118 121,-124 115,-124"/>
<text text-anchor="middle" x="90" y="-102.3" font-family="Times,serif" font-size="14.00">checkedIn</text>
</g>
<!-- Booking_state_seatAssigned&#45;&gt;Booking_state_checkedIn -->
<g id="edge3" class="edge"><title>Booking_state_seatAssigned&#45;&gt;Booking_state_checkedIn</title>
<path fill="none" stroke="black" d="M121.781,-175.745C115.134,-170.753 108.688,-164.789 104,-158 99.1578,-150.988 95.9865,-142.356 93.911,-134.202"/>
<polygon fill="black" stroke="black" points="97.3086,-133.351 91.8247,-124.285 90.4585,-134.792 97.3086,-133.351"/>
<text text-anchor="middle" x="126.5" y="-146.3" font-family="Times,serif" font-size="14.00">checkIn</text>
</g>
<!-- Booking_state_seatAssigned&#45;&gt;Booking_state_cancelled -->
<g id="edge5" class="edge"><title>Booking_state_seatAssigned&#45;&gt;Booking_state_cancelled</title>
<path fill="none" stroke="black" d="M153.075,-175.999C154.981,-145.853 158.967,-82.7897 161.266,-46.4303"/>
<polygon fill="black" stroke="black" points="164.783,-46.2706 161.921,-36.0697 157.797,-45.8289 164.783,-46.2706"/>
<text text-anchor="middle" x="177" y="-102.3" font-family="Times,serif" font-size="14.00">cancel</text>
</g>
<!-- Booking_state_checkedIn&#45;&gt;Booking_state_cancelled -->
<g id="edge6" class="edge"><title>Booking_state_checkedIn&#45;&gt;Booking_state_cancelled</title>
<path fill="none" stroke="black" d="M95.2039,-87.644C98.9611,-77.1237 104.82,-63.8729 113,-54 116.507,-49.7673 120.645,-45.8128 125.016,-42.1976"/>
<polygon fill="black" stroke="black" points="127.22,-44.9185 133.047,-36.0699 122.973,-39.3535 127.22,-44.9185"/>
<text text-anchor="middle" x="131" y="-58.3" font-family="Times,serif" font-size="14.00">cancel</text>
</g>
<!-- Booking_state_completed -->
<g id="node6" class="node"><title>Booking_state_completed</title>
<path fill="none" stroke="black" d="M62.25,-36C62.25,-36 11.75,-36 11.75,-36 5.75,-36 -0.25,-30 -0.25,-24 -0.25,-24 -0.25,-12 -0.25,-12 -0.25,-6 5.75,-0 11.75,-0 11.75,-0 62.25,-0 62.25,-0 68.25,-0 74.25,-6 74.25,-12 74.25,-12 74.25,-24 74.25,-24 74.25,-30 68.25,-36 62.25,-36"/>
<text text-anchor="middle" x="37" y="-14.3" font-family="Times,serif" font-size="14.00">completed</text>
</g>
<!-- Booking_state_checkedIn&#45;&gt;Booking_state_completed -->
<g id="edge7" class="edge"><title>Booking_state_checkedIn&#45;&gt;Booking_state_completed</title>
<path fill="none" stroke="black" d="M54.6317,-87.9995C47.986,-83.138 41.9057,-77.1665 38,-70 34.1104,-62.863 32.8813,-54.2882 32.9049,-46.2238"/>
<polygon fill="black" stroke="black" points="36.4082,-46.2794 33.5392,-36.0804 29.4219,-45.8425 36.4082,-46.2794"/>
<text text-anchor="middle" x="64" y="-58.3" font-family="Times,serif" font-size="14.00">complete</text>
</g>
</g>
</svg>
