<?xml version="1.0" encoding="UTF-8" standalone="no"?>
<!DOCTYPE svg PUBLIC "-//W3C//DTD SVG 1.1//EN"
 "http://www.w3.org/Graphics/SVG/1.1/DTD/svg11.dtd">
<!-- Generated by graphviz version 2.39.20140502.0445 (20140502.0445)
 -->
<!-- Title: Booking Pages: 1 -->
<svg width="264pt" height="356pt"
 viewBox="0.00 0.00 263.50 356.40" xmlns="http://www.w3.org/2000/svg" xmlns:xlink="http://www.w3.org/1999/xlink">
<g id="graph0" class="graph" transform="scale(1 1) rotate(0) translate(4 352.4)">
<title>Booking</title>
<polygon fill="white" stroke="none" points="-4,4 -4,-352.4 259.5,-352.4 259.5,4 -4,4"/>
<!-- start_Booking_state -->
<g id="node1" class="node"><title>start_Booking_state</title>
<ellipse fill="black" stroke="black" cx="189.5" cy="-341.2" rx="7.2" ry="7.2"/>
</g>
<!-- Booking_state_newBooking -->
<g id="node2" class="node"><title>Booking_state_newBooking</title>
<path fill="none" stroke="black" d="M221.5,-297C221.5,-297 157.5,-297 157.5,-297 151.5,-297 145.5,-291 145.5,-285 145.5,-285 145.5,-273 145.5,-273 145.5,-267 151.5,-261 157.5,-261 157.5,-261 221.5,-261 221.5,-261 227.5,-261 233.5,-267 233.5,-273 233.5,-273 233.5,-285 233.5,-285 233.5,-291 227.5,-297 221.5,-297"/>
<text text-anchor="middle" x="189.5" y="-275.3" font-family="Times,serif" font-size="14.00">newBooking</text>
</g>
<!-- start_Booking_state&#45;&gt;Booking_state_newBooking -->
<g id="edge1" class="edge"><title>start_Booking_state&#45;&gt;Booking_state_newBooking</title>
<g id="a_edge1"><a xlink:title="start &#160;&#45;&gt; newBooking">
<path fill="none" stroke="black" d="M189.5,-333.758C189.5,-327.387 189.5,-317.197 189.5,-307.393"/>
<polygon fill="black" stroke="black" points="193,-307.105 189.5,-297.105 186,-307.105 193,-307.105"/>
</a>
</g>
</g>
<!-- Booking_state_seatAssigned -->
<g id="node3" class="node"><title>Booking_state_seatAssigned</title>
<path fill="none" stroke="black" d="M185.5,-210C185.5,-210 119.5,-210 119.5,-210 113.5,-210 107.5,-204 107.5,-198 107.5,-198 107.5,-186 107.5,-186 107.5,-180 113.5,-174 119.5,-174 119.5,-174 185.5,-174 185.5,-174 191.5,-174 197.5,-180 197.5,-186 197.5,-186 197.5,-198 197.5,-198 197.5,-204 191.5,-210 185.5,-210"/>
<text text-anchor="middle" x="152.5" y="-188.3" font-family="Times,serif" font-size="14.00">seatAssigned</text>
</g>
<!-- Booking_state_newBooking&#45;&gt;Booking_state_seatAssigned -->
<g id="edge2" class="edge"><title>Booking_state_newBooking&#45;&gt;Booking_state_seatAssigned</title>
<g id="a_edge2"><a xlink:title="newBooking assignSeat &#45;&gt; seatAssigned">
<path fill="none" stroke="black" d="M149.298,-220.543 149.412,-228.078 150.491,-236.072 153.5,-243 156.417,-249.716 161.296,-255.793 166.535,-260.927"/>
<polygon fill="black" stroke="black" points="152.803,-220.479 149.68,-210.355 145.807,-220.217 152.803,-220.479"/>
</a>
</g>
<text text-anchor="middle" x="183.5" y="-231.8" font-family="Times,serif" font-size="14.00">assignSeat</text>
</g>
<!-- Booking_state_cancelled -->
<g id="node5" class="node"><title>Booking_state_cancelled</title>
<path fill="none" stroke="black" d="M187.5,-36C187.5,-36 139.5,-36 139.5,-36 133.5,-36 127.5,-30 127.5,-24 127.5,-24 127.5,-12 127.5,-12 127.5,-6 133.5,-0 139.5,-0 139.5,-0 187.5,-0 187.5,-0 193.5,-0 199.5,-6 199.5,-12 199.5,-12 199.5,-24 199.5,-24 199.5,-30 193.5,-36 187.5,-36"/>
<text text-anchor="middle" x="163.5" y="-14.3" font-family="Times,serif" font-size="14.00">cancelled</text>
</g>
<!-- Booking_state_newBooking&#45;&gt;Booking_state_cancelled -->
<g id="edge4" class="edge"><title>Booking_state_newBooking&#45;&gt;Booking_state_cancelled</title>
<g id="a_edge4"><a xlink:title="newBooking cancel &#45;&gt; cancelled">
<path fill="none" stroke="black" d="M180.242,-44.8574 187.382,-57.143 195.074,-72.3248 199.5,-87 280.026,-353.986 224.07,-208.893 213.5,-243 211.537,-249.334 207.988,-255.54 204.211,-260.925"/>
<polygon fill="black" stroke="black" points="183.113,-42.8406 174.953,-36.0834 177.119,-46.4546 183.113,-42.8406"/>
</a>
</g>
<text text-anchor="middle" x="237.5" y="-144.8" font-family="Times,serif" font-size="14.00">cancel</text>
</g>
<!-- Booking_state_checkedIn -->
<g id="node4" class="node"><title>Booking_state_checkedIn</title>
<path fill="none" stroke="black" d="M115.5,-123C115.5,-123 65.5,-123 65.5,-123 59.5,-123 53.5,-117 53.5,-111 53.5,-111 53.5,-99 53.5,-99 53.5,-93 59.5,-87 65.5,-87 65.5,-87 115.5,-87 115.5,-87 121.5,-87 127.5,-93 127.5,-99 127.5,-99 127.5,-111 127.5,-111 127.5,-117 121.5,-123 115.5,-123"/>
<text text-anchor="middle" x="90.5" y="-101.3" font-family="Times,serif" font-size="14.00">checkedIn</text>
</g>
<!-- Booking_state_seatAssigned&#45;&gt;Booking_state_checkedIn -->
<g id="edge3" class="edge"><title>Booking_state_seatAssigned&#45;&gt;Booking_state_checkedIn</title>
<g id="a_edge3"><a xlink:title="seatAssigned checkIn &#45;&gt; checkedIn">
<path fill="none" stroke="black" d="M94.6621,-133.298 96.7422,-141.107 99.853,-149.307 104.5,-156 109.206,-162.777 115.658,-168.737 122.305,-173.728"/>
<polygon fill="black" stroke="black" points="98.0543,-132.428 92.4789,-123.418 91.2192,-133.938 98.0543,-132.428"/>
</a>
</g>
<text text-anchor="middle" x="127" y="-144.8" font-family="Times,serif" font-size="14.00">checkIn</text>
</g>
<!-- Booking_state_seatAssigned&#45;&gt;Booking_state_cancelled -->
<g id="edge5" class="edge"><title>Booking_state_seatAssigned&#45;&gt;Booking_state_cancelled</title>
<g id="a_edge5"><a xlink:title="seatAssigned cancel &#45;&gt; cancelled">
<path fill="none" stroke="black" d="M153.595,-173.879C155.506,-144.001 159.464,-82.1129 161.756,-46.2736"/>
<polygon fill="black" stroke="black" points="165.264,-46.2546 162.409,-36.0516 158.278,-45.8078 165.264,-46.2546"/>
</a>
</g>
<text text-anchor="middle" x="177.5" y="-101.3" font-family="Times,serif" font-size="14.00">cancel</text>
</g>
<!-- Booking_state_checkedIn&#45;&gt;Booking_state_cancelled -->
<g id="edge6" class="edge"><title>Booking_state_checkedIn&#45;&gt;Booking_state_cancelled</title>
<g id="a_edge6"><a xlink:title="checkedIn cancel &#45;&gt; cancelled">
<path fill="none" stroke="black" d="M95.772,-86.9864C99.5549,-76.6731 105.417,-63.6822 113.5,-54 117.023,-49.7804 121.171,-45.8337 125.546,-42.2227"/>
<polygon fill="black" stroke="black" points="127.749,-44.944 133.581,-36.0987 123.506,-39.3766 127.749,-44.944"/>
</a>
</g>
<text text-anchor="middle" x="131.5" y="-57.8" font-family="Times,serif" font-size="14.00">cancel</text>
</g>
<!-- Booking_state_completed -->
<g id="node6" class="node"><title>Booking_state_completed</title>
<path fill="none" stroke="black" d="M63,-36C63,-36 12,-36 12,-36 6,-36 0,-30 0,-24 0,-24 0,-12 0,-12 0,-6 6,-0 12,-0 12,-0 63,-0 63,-0 69,-0 75,-6 75,-12 75,-12 75,-24 75,-24 75,-30 69,-36 63,-36"/>
<text text-anchor="middle" x="37.5" y="-14.3" font-family="Times,serif" font-size="14.00">completed</text>
</g>
<!-- Booking_state_checkedIn&#45;&gt;Booking_state_completed -->
<g id="edge7" class="edge"><title>Booking_state_checkedIn&#45;&gt;Booking_state_completed</title>
<g id="a_edge7"><a xlink:title="checkedIn complete &#45;&gt; completed">
<path fill="none" stroke="black" d="M33.4983,-46.3137 33.5425,-54.037 34.7853,-62.1871 38.5,-69 42.4071,-76.1657 48.488,-82.1369 55.1338,-86.9983"/>
<polygon fill="black" stroke="black" points="36.9993,-46.3917 34.0615,-36.2123 30.0102,-46.0019 36.9993,-46.3917"/>
</a>
</g>
<text text-anchor="middle" x="64.5" y="-57.8" font-family="Times,serif" font-size="14.00">complete</text>
</g>
</g>
</svg>
