<?xml version="1.0" encoding="UTF-8" standalone="no"?>
<!DOCTYPE svg PUBLIC "-//W3C//DTD SVG 1.1//EN"
 "http://www.w3.org/Graphics/SVG/1.1/DTD/svg11.dtd">
<!-- Generated by graphviz version 2.40.1 (20161225.0304)
 -->
<!-- Title: CanalLockStateMachine Pages: 1 -->
<svg width="726pt" height="720pt"
 viewBox="0.00 0.00 725.59 720.00" xmlns="http://www.w3.org/2000/svg" xmlns:xlink="http://www.w3.org/1999/xlink">
<g id="graph0" class="graph" transform="scale(.8282 .8282) rotate(0) translate(4 865.4)">
<title>CanalLockStateMachine</title>
<polygon fill="#ffffff" stroke="transparent" points="-4,4 -4,-865.4 872.1523,-865.4 872.1523,4 -4,4"/>
<!-- start_Lock_lockState -->
<g id="node1" class="node">
<title>start_Lock_lockState</title>
<g id="a_node1"><a xlink:title="Class Lock, SM lockState, State start">
<ellipse fill="#000000" stroke="#000000" cx="206" cy="-854.2" rx="7.2" ry="7.2"/>
</a>
</g>
</g>
<!-- Lock_lockState_BothDoorsClosedLockFull -->
<g id="node2" class="node">
<title>Lock_lockState_BothDoorsClosedLockFull</title>
<g id="a_node2"><a xlink:title="Class Lock, SM lockState, State BothDoorsClosedLockFull">
<path fill="none" stroke="#000000" d="M277.6693,-810C277.6693,-810 134.3307,-810 134.3307,-810 128.3307,-810 122.3307,-804 122.3307,-798 122.3307,-798 122.3307,-786 122.3307,-786 122.3307,-780 128.3307,-774 134.3307,-774 134.3307,-774 277.6693,-774 277.6693,-774 283.6693,-774 289.6693,-780 289.6693,-786 289.6693,-786 289.6693,-798 289.6693,-798 289.6693,-804 283.6693,-810 277.6693,-810"/>
<text text-anchor="middle" x="206" y="-787.8" font-family="Times,serif" font-size="14.00" fill="#000000">BothDoorsClosedLockFull</text>
</a>
</g>
</g>
<!-- start_Lock_lockState&#45;&gt;Lock_lockState_BothDoorsClosedLockFull -->
<g id="edge1" class="edge">
<title>start_Lock_lockState&#45;&gt;Lock_lockState_BothDoorsClosedLockFull</title>
<g id="a_edge1"><a xlink:title="start to BothDoorsClosedLockFull">
<path fill="none" stroke="#000000" d="M206,-846.5731C206,-839.9503 206,-829.9322 206,-820.2795"/>
<polygon fill="#000000" stroke="#000000" points="209.5001,-820.1266 206,-810.1266 202.5001,-820.1267 209.5001,-820.1266"/>
</a>
</g>
</g>
<!-- Lock_lockState_OpeningUpperGate -->
<g id="node3" class="node">
<title>Lock_lockState_OpeningUpperGate</title>
<g id="a_node3"><a xlink:title="Class Lock, SM lockState, State OpeningUpperGate">
<path fill="none" stroke="#000000" d="M528.6285,-724C528.6285,-724 427.3715,-724 427.3715,-724 421.3715,-724 415.3715,-718 415.3715,-712 415.3715,-712 415.3715,-700 415.3715,-700 415.3715,-694 421.3715,-688 427.3715,-688 427.3715,-688 528.6285,-688 528.6285,-688 534.6285,-688 540.6285,-694 540.6285,-700 540.6285,-700 540.6285,-712 540.6285,-712 540.6285,-718 534.6285,-724 528.6285,-724"/>
<text text-anchor="middle" x="478" y="-701.8" font-family="Times,serif" font-size="14.00" fill="#000000">OpeningUpperGate</text>
</a>
</g>
</g>
<!-- Lock_lockState_BothDoorsClosedLockFull&#45;&gt;Lock_lockState_OpeningUpperGate -->
<g id="edge3" class="edge">
<title>Lock_lockState_BothDoorsClosedLockFull&#45;&gt;Lock_lockState_OpeningUpperGate</title>
<g id="a_edge3"><a xlink:title="From BothDoorsClosedLockFull to OpeningUpperGate on boatRequestsToEnterAndGoDown">
<path fill="none" stroke="#000000" d="M263.0201,-773.9716C306.269,-760.2973 365.8252,-741.467 411.2872,-727.093"/>
<polygon fill="#000000" stroke="#000000" points="412.5753,-730.3566 421.055,-724.0047 410.465,-723.6823 412.5753,-730.3566"/>
</a>
</g>
<text text-anchor="middle" x="455.4941" y="-744.8" font-family="Times,serif" font-size="14.00" fill="#000000">boatRequestsToEnterAndGoDown</text>
</g>
<!-- Lock_lockState_LoweringWater -->
<g id="node6" class="node">
<title>Lock_lockState_LoweringWater</title>
<g id="a_node6"><a xlink:title="Class Lock, SM lockState, State LoweringWater">
<path fill="none" stroke="#000000" d="M278.508,-466C278.508,-466 199.492,-466 199.492,-466 193.492,-466 187.492,-460 187.492,-454 187.492,-454 187.492,-442 187.492,-442 187.492,-436 193.492,-430 199.492,-430 199.492,-430 278.508,-430 278.508,-430 284.508,-430 290.508,-436 290.508,-442 290.508,-442 290.508,-454 290.508,-454 290.508,-460 284.508,-466 278.508,-466"/>
<text text-anchor="middle" x="239" y="-443.8" font-family="Times,serif" font-size="14.00" fill="#000000">LoweringWater</text>
</a>
</g>
</g>
<!-- Lock_lockState_BothDoorsClosedLockFull&#45;&gt;Lock_lockState_LoweringWater -->
<g id="edge8" class="edge">
<title>Lock_lockState_BothDoorsClosedLockFull&#45;&gt;Lock_lockState_LoweringWater</title>
<g id="a_edge8"><a xlink:title="From BothDoorsClosedLockFull to LoweringWater on boatRequestsToEnterAndGoUp">
<path fill="none" stroke="#000000" d="M125.7652,-773.9961C67.9238,-758.6135 0,-734.4852 0,-706 0,-706 0,-706 0,-534 0,-496.3302 106.4476,-470.6367 177.2622,-457.7119"/>
<polygon fill="#000000" stroke="#000000" points="178.2047,-461.0991 187.4348,-455.8977 176.9756,-454.2078 178.2047,-461.0991"/>
</a>
</g>
<text text-anchor="middle" x="88.939" y="-615.8" font-family="Times,serif" font-size="14.00" fill="#000000">boatRequestsToEnterAndGoUp</text>
</g>
<!-- Lock_lockState_UpperGateOpen -->
<g id="node4" class="node">
<title>Lock_lockState_UpperGateOpen</title>
<g id="a_node4"><a xlink:title="Class Lock, SM lockState, State UpperGateOpen&#13;Entry:&#10; &#160;&#160;setBoatGoingUp(false);">
<path fill="none" stroke="#000000" d="M519.7386,-638C519.7386,-638 436.2614,-638 436.2614,-638 430.2614,-638 424.2614,-632 424.2614,-626 424.2614,-626 424.2614,-614 424.2614,-614 424.2614,-608 430.2614,-602 436.2614,-602 436.2614,-602 519.7386,-602 519.7386,-602 525.7386,-602 531.7386,-608 531.7386,-614 531.7386,-614 531.7386,-626 531.7386,-626 531.7386,-632 525.7386,-638 519.7386,-638"/>
<text text-anchor="middle" x="478" y="-615.8" font-family="Times,serif" font-size="14.00" fill="#000000">UpperGateOpen</text>
</a>
</g>
</g>
<!-- Lock_lockState_OpeningUpperGate&#45;&gt;Lock_lockState_UpperGateOpen -->
<g id="edge5" class="edge">
<title>Lock_lockState_OpeningUpperGate&#45;&gt;Lock_lockState_UpperGateOpen</title>
<g id="a_edge5"><a xlink:title="From OpeningUpperGate to UpperGateOpen on upperGateFullyOpen">
<path fill="none" stroke="#000000" d="M478,-687.7616C478,-676.3597 478,-661.4342 478,-648.494"/>
<polygon fill="#000000" stroke="#000000" points="481.5001,-648.2121 478,-638.2121 474.5001,-648.2121 481.5001,-648.2121"/>
</a>
</g>
<text text-anchor="middle" x="537.0967" y="-658.8" font-family="Times,serif" font-size="14.00" fill="#000000">upperGateFullyOpen</text>
</g>
<!-- Lock_lockState_ClosingUpperGate -->
<g id="node5" class="node">
<title>Lock_lockState_ClosingUpperGate</title>
<g id="a_node5"><a xlink:title="Class Lock, SM lockState, State ClosingUpperGate">
<path fill="none" stroke="#000000" d="M287.4795,-552C287.4795,-552 190.5205,-552 190.5205,-552 184.5205,-552 178.5205,-546 178.5205,-540 178.5205,-540 178.5205,-528 178.5205,-528 178.5205,-522 184.5205,-516 190.5205,-516 190.5205,-516 287.4795,-516 287.4795,-516 293.4795,-516 299.4795,-522 299.4795,-528 299.4795,-528 299.4795,-540 299.4795,-540 299.4795,-546 293.4795,-552 287.4795,-552"/>
<text text-anchor="middle" x="239" y="-529.8" font-family="Times,serif" font-size="14.00" fill="#000000">ClosingUpperGate</text>
</a>
</g>
</g>
<!-- Lock_lockState_UpperGateOpen&#45;&gt;Lock_lockState_ClosingUpperGate -->
<g id="edge6" class="edge">
<title>Lock_lockState_UpperGateOpen&#45;&gt;Lock_lockState_ClosingUpperGate</title>
<g id="a_edge6"><a xlink:title="From UpperGateOpen to ClosingUpperGate on boatInLockRequestingToGoDown&#13;Transition Action:&#10; &#160;&#160;&#160;&#160;setBoatGoingDown(true);">
<path fill="none" stroke="#000000" d="M424.0084,-615.5045C357.4788,-609.4123 251.7108,-597.7072 239.7412,-584 234.5797,-578.0892 232.9707,-570.1188 233.049,-562.2803"/>
<polygon fill="#000000" stroke="#000000" points="236.5422,-562.5131 233.967,-552.2361 229.5713,-561.8759 236.5422,-562.5131"/>
</a>
</g>
<text text-anchor="middle" x="353.1294" y="-572.8" font-family="Times,serif" font-size="14.00" fill="#000000">boatInLockRequestingToGoDown / {...}</text>
</g>
<!-- Lock_lockState_UpperGateOpen&#45;&gt;Lock_lockState_ClosingUpperGate -->
<g id="edge7" class="edge">
<title>Lock_lockState_UpperGateOpen&#45;&gt;Lock_lockState_ClosingUpperGate</title>
<g id="a_edge7"><a xlink:title="From UpperGateOpen to ClosingUpperGate on after3minutes&#13;Guard: &#160;[!boatBlockingGate]">
<path fill="none" stroke="#000000" d="M479.1694,-601.8655C478.8274,-591.1303 476.4322,-578.0896 468,-570 445.7971,-548.6992 368.4221,-540.0007 309.7025,-536.4493"/>
<polygon fill="#000000" stroke="#000000" points="309.8951,-532.9547 299.7131,-535.8831 309.499,-539.9434 309.8951,-532.9547"/>
</a>
</g>
<text text-anchor="middle" x="574.1606" y="-572.8" font-family="Times,serif" font-size="14.00" fill="#000000">after3minutes [!boatBlockingGate]</text>
</g>
<!-- Lock_lockState_ClosingUpperGate&#45;&gt;Lock_lockState_BothDoorsClosedLockFull -->
<g id="edge2" class="edge">
<title>Lock_lockState_ClosingUpperGate&#45;&gt;Lock_lockState_BothDoorsClosedLockFull</title>
<g id="a_edge2"><a xlink:title="From ClosingUpperGate to BothDoorsClosedLockFull on upperGateFullyClosed&#13;Guard: &#160;[!boatGoingDown]">
<path fill="none" stroke="#000000" d="M233.3129,-552.1743C231.7137,-557.8379 230.11,-564.1364 229,-570 215.972,-638.8203 209.8748,-721.1388 207.4162,-763.5797"/>
<polygon fill="#000000" stroke="#000000" points="203.913,-763.543 206.8547,-773.7212 210.9023,-763.93 203.913,-763.543"/>
</a>
</g>
<text text-anchor="middle" x="334.7847" y="-658.8" font-family="Times,serif" font-size="14.00" fill="#000000">upperGateFullyClosed [!boatGoingDown]</text>
</g>
<!-- Lock_lockState_ClosingUpperGate&#45;&gt;Lock_lockState_LoweringWater -->
<g id="edge9" class="edge">
<title>Lock_lockState_ClosingUpperGate&#45;&gt;Lock_lockState_LoweringWater</title>
<g id="a_edge9"><a xlink:title="From ClosingUpperGate to LoweringWater on upperGateFullyClosed&#13;Guard: &#160;[boatGoingDown]">
<path fill="none" stroke="#000000" d="M239,-515.7616C239,-504.3597 239,-489.4342 239,-476.494"/>
<polygon fill="#000000" stroke="#000000" points="242.5001,-476.2121 239,-466.2121 235.5001,-476.2121 242.5001,-476.2121"/>
</a>
</g>
<text text-anchor="middle" x="355.4536" y="-486.8" font-family="Times,serif" font-size="14.00" fill="#000000">upperGateFullyClosed [boatGoingDown]</text>
</g>
<!-- Lock_lockState_OpeningLowerGate -->
<g id="node8" class="node">
<title>Lock_lockState_OpeningLowerGate</title>
<g id="a_node8"><a xlink:title="Class Lock, SM lockState, State OpeningLowerGate">
<path fill="none" stroke="#000000" d="M300.6798,-380C300.6798,-380 197.3202,-380 197.3202,-380 191.3202,-380 185.3202,-374 185.3202,-368 185.3202,-368 185.3202,-356 185.3202,-356 185.3202,-350 191.3202,-344 197.3202,-344 197.3202,-344 300.6798,-344 300.6798,-344 306.6798,-344 312.6798,-350 312.6798,-356 312.6798,-356 312.6798,-368 312.6798,-368 312.6798,-374 306.6798,-380 300.6798,-380"/>
<text text-anchor="middle" x="249" y="-357.8" font-family="Times,serif" font-size="14.00" fill="#000000">OpeningLowerGate</text>
</a>
</g>
</g>
<!-- Lock_lockState_LoweringWater&#45;&gt;Lock_lockState_OpeningLowerGate -->
<g id="edge11" class="edge">
<title>Lock_lockState_LoweringWater&#45;&gt;Lock_lockState_OpeningLowerGate</title>
<g id="a_edge11"><a xlink:title="From LoweringWater to OpeningLowerGate on waterLevelMatchesDownStream">
<path fill="none" stroke="#000000" d="M241.1207,-429.7616C242.4466,-418.3597 244.1821,-403.4342 245.6867,-390.494"/>
<polygon fill="#000000" stroke="#000000" points="249.2038,-390.5495 246.8823,-380.2121 242.2506,-389.7409 249.2038,-390.5495"/>
</a>
</g>
<text text-anchor="middle" x="336.1313" y="-400.8" font-family="Times,serif" font-size="14.00" fill="#000000">waterLevelMatchesDownStream</text>
</g>
<!-- Lock_lockState_BothDoorsClosedLockEmpty -->
<g id="node7" class="node">
<title>Lock_lockState_BothDoorsClosedLockEmpty</title>
<g id="a_node7"><a xlink:title="Class Lock, SM lockState, State BothDoorsClosedLockEmpty">
<path fill="none" stroke="#000000" d="M568.4351,-122C568.4351,-122 409.5649,-122 409.5649,-122 403.5649,-122 397.5649,-116 397.5649,-110 397.5649,-110 397.5649,-98 397.5649,-98 397.5649,-92 403.5649,-86 409.5649,-86 409.5649,-86 568.4351,-86 568.4351,-86 574.4351,-86 580.4351,-92 580.4351,-98 580.4351,-98 580.4351,-110 580.4351,-110 580.4351,-116 574.4351,-122 568.4351,-122"/>
<text text-anchor="middle" x="489" y="-99.8" font-family="Times,serif" font-size="14.00" fill="#000000">BothDoorsClosedLockEmpty</text>
</a>
</g>
</g>
<!-- Lock_lockState_BothDoorsClosedLockEmpty&#45;&gt;Lock_lockState_OpeningLowerGate -->
<g id="edge12" class="edge">
<title>Lock_lockState_BothDoorsClosedLockEmpty&#45;&gt;Lock_lockState_OpeningLowerGate</title>
<g id="a_edge12"><a xlink:title="From BothDoorsClosedLockEmpty to OpeningLowerGate on boatRequestsToEnterAndGoUp">
<path fill="none" stroke="#000000" d="M486.7128,-122.2124C482.7081,-149.3343 472.6954,-201.2925 451,-240 425.4763,-285.5376 415.3883,-298.5261 371,-326 356.3234,-335.084 339.2363,-341.9769 322.5788,-347.1698"/>
<polygon fill="#000000" stroke="#000000" points="321.4476,-343.8542 312.8422,-350.0346 323.4235,-350.5695 321.4476,-343.8542"/>
</a>
</g>
<text text-anchor="middle" x="545.939" y="-228.8" font-family="Times,serif" font-size="14.00" fill="#000000">boatRequestsToEnterAndGoUp</text>
</g>
<!-- Lock_lockState_RaisingWater -->
<g id="node11" class="node">
<title>Lock_lockState_RaisingWater</title>
<g id="a_node11"><a xlink:title="Class Lock, SM lockState, State RaisingWater">
<path fill="none" stroke="#000000" d="M522.8585,-36C522.8585,-36 455.1415,-36 455.1415,-36 449.1415,-36 443.1415,-30 443.1415,-24 443.1415,-24 443.1415,-12 443.1415,-12 443.1415,-6 449.1415,0 455.1415,0 455.1415,0 522.8585,0 522.8585,0 528.8585,0 534.8585,-6 534.8585,-12 534.8585,-12 534.8585,-24 534.8585,-24 534.8585,-30 528.8585,-36 522.8585,-36"/>
<text text-anchor="middle" x="489" y="-13.8" font-family="Times,serif" font-size="14.00" fill="#000000">RaisingWater</text>
</a>
</g>
</g>
<!-- Lock_lockState_BothDoorsClosedLockEmpty&#45;&gt;Lock_lockState_RaisingWater -->
<g id="edge16" class="edge">
<title>Lock_lockState_BothDoorsClosedLockEmpty&#45;&gt;Lock_lockState_RaisingWater</title>
<g id="a_edge16"><a xlink:title="From BothDoorsClosedLockEmpty to RaisingWater on boatRequestsToEnterAndGoDown">
<path fill="none" stroke="#000000" d="M489,-85.7616C489,-74.3597 489,-59.4342 489,-46.494"/>
<polygon fill="#000000" stroke="#000000" points="492.5001,-46.2121 489,-36.2121 485.5001,-46.2121 492.5001,-46.2121"/>
</a>
</g>
<text text-anchor="middle" x="586.4941" y="-56.8" font-family="Times,serif" font-size="14.00" fill="#000000">boatRequestsToEnterAndGoDown</text>
</g>
<!-- Lock_lockState_LowerGateOpen -->
<g id="node9" class="node">
<title>Lock_lockState_LowerGateOpen</title>
<g id="a_node9"><a xlink:title="Class Lock, SM lockState, State LowerGateOpen&#13;Entry:&#10; &#160;&#160;setBoatGoingDown(false);">
<path fill="none" stroke="#000000" d="M291.7904,-294C291.7904,-294 206.2096,-294 206.2096,-294 200.2096,-294 194.2096,-288 194.2096,-282 194.2096,-282 194.2096,-270 194.2096,-270 194.2096,-264 200.2096,-258 206.2096,-258 206.2096,-258 291.7904,-258 291.7904,-258 297.7904,-258 303.7904,-264 303.7904,-270 303.7904,-270 303.7904,-282 303.7904,-282 303.7904,-288 297.7904,-294 291.7904,-294"/>
<text text-anchor="middle" x="249" y="-271.8" font-family="Times,serif" font-size="14.00" fill="#000000">LowerGateOpen</text>
</a>
</g>
</g>
<!-- Lock_lockState_OpeningLowerGate&#45;&gt;Lock_lockState_LowerGateOpen -->
<g id="edge13" class="edge">
<title>Lock_lockState_OpeningLowerGate&#45;&gt;Lock_lockState_LowerGateOpen</title>
<g id="a_edge13"><a xlink:title="From OpeningLowerGate to LowerGateOpen on lowerGateFullyOpen">
<path fill="none" stroke="#000000" d="M249,-343.7616C249,-332.3597 249,-317.4342 249,-304.494"/>
<polygon fill="#000000" stroke="#000000" points="252.5001,-304.2121 249,-294.2121 245.5001,-304.2121 252.5001,-304.2121"/>
</a>
</g>
<text text-anchor="middle" x="308.0967" y="-314.8" font-family="Times,serif" font-size="14.00" fill="#000000">lowerGateFullyOpen</text>
</g>
<!-- Lock_lockState_ClosingLowerGate -->
<g id="node10" class="node">
<title>Lock_lockState_ClosingLowerGate</title>
<g id="a_node10"><a xlink:title="Class Lock, SM lockState, State ClosingLowerGate">
<path fill="none" stroke="#000000" d="M258.0321,-208C258.0321,-208 159.9679,-208 159.9679,-208 153.9679,-208 147.9679,-202 147.9679,-196 147.9679,-196 147.9679,-184 147.9679,-184 147.9679,-178 153.9679,-172 159.9679,-172 159.9679,-172 258.0321,-172 258.0321,-172 264.0321,-172 270.0321,-178 270.0321,-184 270.0321,-184 270.0321,-196 270.0321,-196 270.0321,-202 264.0321,-208 258.0321,-208"/>
<text text-anchor="middle" x="209" y="-185.8" font-family="Times,serif" font-size="14.00" fill="#000000">ClosingLowerGate</text>
</a>
</g>
</g>
<!-- Lock_lockState_LowerGateOpen&#45;&gt;Lock_lockState_ClosingLowerGate -->
<g id="edge14" class="edge">
<title>Lock_lockState_LowerGateOpen&#45;&gt;Lock_lockState_ClosingLowerGate</title>
<g id="a_edge14"><a xlink:title="From LowerGateOpen to ClosingLowerGate on boatInLockRequestingToGoUp&#13;Transition Action:&#10; &#160;&#160;&#160;&#160;setBoatGoingUp(true);">
<path fill="none" stroke="#000000" d="M243.3672,-257.5859C240.182,-247.9808 235.8659,-236.1495 231,-226 229.5751,-223.0278 227.9713,-219.9882 226.2956,-216.9966"/>
<polygon fill="#000000" stroke="#000000" points="229.2523,-215.12 221.1597,-208.2819 223.2216,-218.6741 229.2523,-215.12"/>
</a>
</g>
<text text-anchor="middle" x="341.5742" y="-228.8" font-family="Times,serif" font-size="14.00" fill="#000000">boatInLockRequestingToGoUp / {...}</text>
</g>
<!-- Lock_lockState_LowerGateOpen&#45;&gt;Lock_lockState_ClosingLowerGate -->
<g id="edge15" class="edge">
<title>Lock_lockState_LowerGateOpen&#45;&gt;Lock_lockState_ClosingLowerGate</title>
<g id="a_edge15"><a xlink:title="From LowerGateOpen to ClosingLowerGate on after3minutes&#13;Guard: &#160;[!boatBlockingGate]">
<path fill="none" stroke="#000000" d="M194.1325,-270.6404C132.9622,-264.1001 41.1802,-252.375 30.6787,-240 26.6527,-235.2558 26.7382,-230.8155 30.6787,-226 44.3173,-209.3329 94.0311,-200.2071 137.5134,-195.3178"/>
<polygon fill="#000000" stroke="#000000" points="137.9676,-198.7893 147.5411,-194.2508 137.2269,-191.8286 137.9676,-198.7893"/>
</a>
</g>
<text text-anchor="middle" x="129.1606" y="-228.8" font-family="Times,serif" font-size="14.00" fill="#000000">after3minutes [!boatBlockingGate]</text>
</g>
<!-- Lock_lockState_ClosingLowerGate&#45;&gt;Lock_lockState_BothDoorsClosedLockEmpty -->
<g id="edge10" class="edge">
<title>Lock_lockState_ClosingLowerGate&#45;&gt;Lock_lockState_BothDoorsClosedLockEmpty</title>
<g id="a_edge10"><a xlink:title="From ClosingLowerGate to BothDoorsClosedLockEmpty on lowerGateFullyClosed&#13;Guard: &#160;[!boatGoingUp]">
<path fill="none" stroke="#000000" d="M220.3413,-171.7525C228.2374,-160.6883 239.7968,-147.3327 253.541,-140 305.1824,-112.449 326.1566,-130.946 384,-122 385.2595,-121.8052 386.5272,-121.6079 387.8018,-121.4083"/>
<polygon fill="#000000" stroke="#000000" points="388.3599,-124.8636 397.6869,-119.8379 387.2616,-117.9503 388.3599,-124.8636"/>
</a>
</g>
<text text-anchor="middle" x="363.2295" y="-142.8" font-family="Times,serif" font-size="14.00" fill="#000000">lowerGateFullyClosed [!boatGoingUp]</text>
</g>
<!-- Lock_lockState_ClosingLowerGate&#45;&gt;Lock_lockState_RaisingWater -->
<g id="edge17" class="edge">
<title>Lock_lockState_ClosingLowerGate&#45;&gt;Lock_lockState_RaisingWater</title>
<g id="a_edge17"><a xlink:title="From ClosingLowerGate to RaisingWater on lowerGateFullyClosed&#13;Guard: &#160;[boatGoingUp]">
<path fill="none" stroke="#000000" d="M192.9963,-171.6191C175.5515,-149.2722 152.6877,-111.4032 173.2031,-86 205.2199,-46.3552 350.9173,-28.7294 432.7638,-21.839"/>
<polygon fill="#000000" stroke="#000000" points="433.2185,-25.3137 442.9012,-21.013 432.65,-18.3368 433.2185,-25.3137"/>
</a>
</g>
<text text-anchor="middle" x="281.8984" y="-99.8" font-family="Times,serif" font-size="14.00" fill="#000000">lowerGateFullyClosed [boatGoingUp]</text>
</g>
<!-- Lock_lockState_RaisingWater&#45;&gt;Lock_lockState_OpeningUpperGate -->
<g id="edge4" class="edge">
<title>Lock_lockState_RaisingWater&#45;&gt;Lock_lockState_OpeningUpperGate</title>
<g id="a_edge4"><a xlink:title="From RaisingWater to OpeningUpperGate on waterLevelMatchesUpStream">
<path fill="none" stroke="#000000" d="M534.955,-20.7948C586.3447,-24.8531 665.2392,-34.1775 687,-54 704.0599,-69.5404 701,-80.9231 701,-104 701,-620 701,-620 701,-620 701,-652.8575 615.6563,-677.9743 550.5618,-692.3529"/>
<polygon fill="#000000" stroke="#000000" points="549.7462,-688.9483 540.7114,-694.482 551.2251,-695.7903 549.7462,-688.9483"/>
</a>
</g>
<text text-anchor="middle" x="784.5762" y="-357.8" font-family="Times,serif" font-size="14.00" fill="#000000">waterLevelMatchesUpStream</text>
</g>
</g>
</svg>
