<?xml version="1.0" encoding="UTF-8" standalone="no"?>
<!DOCTYPE svg PUBLIC "-//W3C//DTD SVG 1.1//EN"
 "http://www.w3.org/Graphics/SVG/1.1/DTD/svg11.dtd">
<!-- Generated by graphviz version 2.39.20140502.0445 (20140502.0445)
 -->
<!-- Title: CarTransmission Pages: 1 -->
<svg width="930pt" height="383pt"
 viewBox="0.00 0.00 929.82 382.60" xmlns="http://www.w3.org/2000/svg" xmlns:xlink="http://www.w3.org/1999/xlink">
<g id="graph0" class="graph" transform="scale(1 1) rotate(0) translate(4 378.6)">
<title>CarTransmission</title>
<polygon fill="white" stroke="none" points="-4,4 -4,-378.6 925.822,-378.6 925.822,4 -4,4"/>
<g id="clust1" class="cluster"><title>clusterCarTransmission_state_drive</title>
<path fill="none" stroke="black" d="M190.822,-8C190.822,-8 645.822,-8 645.822,-8 651.822,-8 657.822,-14 657.822,-20 657.822,-20 657.822,-321.2 657.822,-321.2 657.822,-327.2 651.822,-333.2 645.822,-333.2 645.822,-333.2 190.822,-333.2 190.822,-333.2 184.822,-333.2 178.822,-327.2 178.822,-321.2 178.822,-321.2 178.822,-20 178.822,-20 178.822,-14 184.822,-8 190.822,-8"/>
<text text-anchor="middle" x="418.322" y="-318" font-family="Times,serif" font-size="14.00">drive</text>
</g>
<!-- start_CarTransmission_state -->
<g id="node1" class="node"><title>start_CarTransmission_state</title>
<ellipse fill="black" stroke="black" cx="701.822" cy="-367.4" rx="7.2" ry="7.2"/>
</g>
<!-- CarTransmission_state_neutral -->
<g id="node2" class="node"><title>CarTransmission_state_neutral</title>
<path fill="none" stroke="black" d="M725.822,-313C725.822,-313 677.822,-313 677.822,-313 671.822,-313 665.822,-307 665.822,-301 665.822,-301 665.822,-289 665.822,-289 665.822,-283 671.822,-277 677.822,-277 677.822,-277 725.822,-277 725.822,-277 731.822,-277 737.822,-283 737.822,-289 737.822,-289 737.822,-301 737.822,-301 737.822,-307 731.822,-313 725.822,-313"/>
<text text-anchor="middle" x="701.822" y="-291.3" font-family="Times,serif" font-size="14.00">neutral</text>
</g>
<!-- start_CarTransmission_state&#45;&gt;CarTransmission_state_neutral -->
<g id="edge1" class="edge"><title>start_CarTransmission_state&#45;&gt;CarTransmission_state_neutral</title>
<g id="a_edge1"><a xlink:title="start &#160;&#45;&gt; neutral">
<path fill="none" stroke="black" d="M701.822,-359.903C701.822,-351.577 701.822,-336.621 701.822,-323.27"/>
<polygon fill="black" stroke="black" points="705.322,-323.064 701.822,-313.064 698.322,-323.064 705.322,-323.064"/>
</a>
</g>
</g>
<!-- CarTransmission_state_reverse -->
<g id="node3" class="node"><title>CarTransmission_state_reverse</title>
<path fill="none" stroke="black" d="M766.822,-226C766.822,-226 718.822,-226 718.822,-226 712.822,-226 706.822,-220 706.822,-214 706.822,-214 706.822,-202 706.822,-202 706.822,-196 712.822,-190 718.822,-190 718.822,-190 766.822,-190 766.822,-190 772.822,-190 778.822,-196 778.822,-202 778.822,-202 778.822,-214 778.822,-214 778.822,-220 772.822,-226 766.822,-226"/>
<text text-anchor="middle" x="742.822" y="-204.3" font-family="Times,serif" font-size="14.00">reverse</text>
</g>
<!-- CarTransmission_state_neutral&#45;&gt;CarTransmission_state_reverse -->
<g id="edge4" class="edge"><title>CarTransmission_state_neutral&#45;&gt;CarTransmission_state_reverse</title>
<g id="a_edge4"><a xlink:title="neutral selectReverse &#45;&gt; reverse">
<path fill="none" stroke="black" d="M686.765,-276.806C679.996,-266.907 674.746,-254.407 680.822,-244 684.941,-236.945 691.065,-231.2 697.886,-226.558"/>
<polygon fill="black" stroke="black" points="699.995,-229.376 706.798,-221.254 696.415,-223.361 699.995,-229.376"/>
</a>
</g>
<text text-anchor="middle" x="719.322" y="-247.8" font-family="Times,serif" font-size="14.00">selectReverse</text>
</g>
<!-- CarTransmission_stateDrive_first -->
<g id="node7" class="node"><title>CarTransmission_stateDrive_first</title>
<path fill="none" stroke="black" d="M257.822,-226C257.822,-226 209.822,-226 209.822,-226 203.822,-226 197.822,-220 197.822,-214 197.822,-214 197.822,-202 197.822,-202 197.822,-196 203.822,-190 209.822,-190 209.822,-190 257.822,-190 257.822,-190 263.822,-190 269.822,-196 269.822,-202 269.822,-202 269.822,-214 269.822,-214 269.822,-220 263.822,-226 257.822,-226"/>
<text text-anchor="middle" x="233.822" y="-204.3" font-family="Times,serif" font-size="14.00">first</text>
</g>
<!-- CarTransmission_state_neutral&#45;&gt;CarTransmission_stateDrive_first -->
<g id="edge5" class="edge"><title>CarTransmission_state_neutral&#45;&gt;CarTransmission_stateDrive_first</title>
<g id="a_edge5"><a xlink:title="neutral selectDrive &#45;&gt; drive">
<path fill="none" stroke="black" d="M665.561,-277.984 665.646,-278.008 665.73,-278.032 665.813,-278.056"/>
<polygon fill="black" stroke="black" points="668.23,-275.039 657.682,-276.031 666.547,-281.834 668.23,-275.039"/>
</a>
</g>
<text text-anchor="middle" x="419.822" y="-247.8" font-family="Times,serif" font-size="14.00">selectDrive</text>
</g>
<!-- CarTransmission_state_neutral&#45;&gt;CarTransmission_stateDrive_first -->
<g id="edge7" class="edge"><title>CarTransmission_state_neutral&#45;&gt;CarTransmission_stateDrive_first</title>
<g id="a_edge7"><a xlink:title="neutral selectFirst &#45;&gt; first">
<path fill="none" stroke="black" d="M280.311,-210.604 325.541,-213.502 395.487,-221.577 451.822,-244 462.817,-248.376 462.693,-254.976 473.822,-259 552.758,-287.54 580.466,-256.342 661.822,-277 663.138,-277.334 664.467,-277.706 665.801,-278.107"/>
<polygon fill="black" stroke="black" points="280.396,-207.103 270.209,-210.017 279.989,-214.091 280.396,-207.103"/>
</a>
</g>
<text text-anchor="middle" x="502.822" y="-247.8" font-family="Times,serif" font-size="14.00">selectFirst</text>
</g>
<!-- CarTransmission_stateDrive_second -->
<g id="node8" class="node"><title>CarTransmission_stateDrive_second</title>
<path fill="none" stroke="black" d="M320.822,-139C320.822,-139 272.822,-139 272.822,-139 266.822,-139 260.822,-133 260.822,-127 260.822,-127 260.822,-115 260.822,-115 260.822,-109 266.822,-103 272.822,-103 272.822,-103 320.822,-103 320.822,-103 326.822,-103 332.822,-109 332.822,-115 332.822,-115 332.822,-127 332.822,-127 332.822,-133 326.822,-139 320.822,-139"/>
<text text-anchor="middle" x="296.822" y="-117.3" font-family="Times,serif" font-size="14.00">second</text>
</g>
<!-- CarTransmission_state_neutral&#45;&gt;CarTransmission_stateDrive_second -->
<g id="edge11" class="edge"><title>CarTransmission_state_neutral&#45;&gt;CarTransmission_stateDrive_second</title>
<g id="a_edge11"><a xlink:title="neutral selectSecond &#45;&gt; second">
<path fill="none" stroke="black" d="M343.289,-124.301 450.428,-130.261 711.449,-148.704 787.822,-190 844.044,-220.401 868.96,-225.58 842.822,-259 830.041,-275.341 775.466,-285.133 738.086,-290.045"/>
<polygon fill="black" stroke="black" points="343.285,-120.796 333.11,-123.747 342.905,-127.786 343.285,-120.796"/>
</a>
</g>
<text text-anchor="middle" x="884.822" y="-204.3" font-family="Times,serif" font-size="14.00">selectSecond</text>
</g>
<!-- CarTransmission_state_reverse&#45;&gt;CarTransmission_state_neutral -->
<g id="edge2" class="edge"><title>CarTransmission_state_reverse&#45;&gt;CarTransmission_state_neutral</title>
<g id="a_edge2"><a xlink:title="reverse selectNeutral &#45;&gt; neutral">
<path fill="none" stroke="black" d="M746.59,-275.307 752.68,-270.858 758.105,-265.47 761.822,-259 767.742,-248.693 762.992,-236.193 756.762,-226.27"/>
<polygon fill="black" stroke="black" points="744.517,-272.478 737.97,-280.808 748.282,-278.379 744.517,-272.478"/>
</a>
</g>
<text text-anchor="middle" x="801.822" y="-247.8" font-family="Times,serif" font-size="14.00">selectNeutral</text>
</g>
<!-- dummyNode1_drive_first -->
<g id="node4" class="node"><title>dummyNode1_drive_first</title>
<ellipse fill="black" stroke="black" cx="38.8217" cy="-121" rx="0.18" ry="0.18"/>
</g>
<!-- dummyNode1_drive_first&#45;&gt;CarTransmission_stateDrive_first -->
<g id="edge9" class="edge"><title>dummyNode1_drive_first:w&#45;&gt;CarTransmission_stateDrive_first</title>
<g id="a_edge9"><a xlink:title="drive &#160;&#45;&gt; first">
<path fill="none" stroke="black" d="M37.8217,-121C-3.59761,-121 78.2373,-154.594 115.822,-172 138.69,-182.591 165.531,-190.851 187.832,-196.681"/>
<polygon fill="black" stroke="black" points="187.175,-200.126 197.728,-199.189 188.894,-193.34 187.175,-200.126"/>
</a>
</g>
</g>
<!-- dummyNode2_drive_second -->
<g id="node5" class="node"><title>dummyNode2_drive_second</title>
<ellipse fill="black" stroke="black" cx="139.822" cy="-121" rx="0.18" ry="0.18"/>
</g>
<!-- dummyNode2_drive_second&#45;&gt;CarTransmission_stateDrive_second -->
<g id="edge13" class="edge"><title>dummyNode2_drive_second:w&#45;&gt;CarTransmission_stateDrive_second</title>
<g id="a_edge13"><a xlink:title="drive &#160;&#45;&gt; second">
<path fill="none" stroke="black" d="M138.822,-121C138.291,-112 139.471,-112.18 140.002,-112.18 177.188,-112.159 219.366,-112.108 250.453,-113.46"/>
<polygon fill="black" stroke="black" points="250.382,-116.96 260.547,-113.974 250.738,-109.969 250.382,-116.96"/>
</a>
</g>
</g>
<!-- start_CarTransmission_drive -->
<g id="node6" class="node"><title>start_CarTransmission_drive</title>
<ellipse fill="black" stroke="black" cx="233.822" cy="-295" rx="7.2" ry="7.2"/>
</g>
<!-- start_CarTransmission_drive&#45;&gt;CarTransmission_stateDrive_first -->
<g id="edge6" class="edge"><title>start_CarTransmission_drive&#45;&gt;CarTransmission_stateDrive_first</title>
<g id="a_edge6"><a xlink:title="start &#160;&#45;&gt; first">
<path fill="none" stroke="black" d="M233.822,-287.611C233.822,-276.831 233.822,-254.432 233.822,-236.291"/>
<polygon fill="black" stroke="black" points="237.322,-236.222 233.822,-226.222 230.322,-236.222 237.322,-236.222"/>
</a>
</g>
</g>
<!-- CarTransmission_stateDrive_first&#45;&gt;CarTransmission_state_neutral -->
<g id="edge3" class="edge"><title>CarTransmission_stateDrive_first&#45;&gt;CarTransmission_state_neutral</title>
<g id="a_edge3"><a xlink:title="drive selectNeutral &#45;&gt; neutral">
<path fill="none" stroke="black" d="M657.822,-275.178C659.796,-275.978 661.771,-276.778 663.745,-277.578"/>
<polygon fill="black" stroke="black" points="655.137,-277.866 665.72,-278.378 657.767,-271.378 655.137,-277.866"/>
</a>
</g>
<text text-anchor="middle" x="636.822" y="-247.8" font-family="Times,serif" font-size="14.00">selectNeutral</text>
</g>
<!-- CarTransmission_stateDrive_first&#45;&gt;dummyNode1_drive_first -->
<g id="edge8" class="edge"><title>CarTransmission_stateDrive_first&#45;&gt;dummyNode1_drive_first:e</title>
<g id="a_edge8"><a xlink:title="drive selectFirst &#45;&gt; first">
<path fill="none" stroke="black" d="M39.8217,-121 62.7655,-121 11.7469,-135.863 2.82165,-157 0.228306,-163.142 -1.52498,-166.945 2.82165,-172 25.0744,-197.878 117.894,-204.858 178.887,-206.603"/>
</a>
</g>
<text text-anchor="middle" x="31.8217" y="-160.8" font-family="Times,serif" font-size="14.00">selectFirst</text>
</g>
<!-- CarTransmission_stateDrive_first&#45;&gt;dummyNode2_drive_second -->
<g id="edge12" class="edge"><title>CarTransmission_stateDrive_first&#45;&gt;dummyNode2_drive_second:e</title>
<g id="a_edge12"><a xlink:title="drive selectSecond &#45;&gt; second">
<path fill="none" stroke="black" d="M140.822,-121 165.01,-121 107.494,-152.512 121.822,-172 135.1,-190.062 157.658,-199.063 179.064,-203.455"/>
</a>
</g>
<text text-anchor="middle" x="158.822" y="-160.8" font-family="Times,serif" font-size="14.00">selectSecond</text>
</g>
<!-- CarTransmission_stateDrive_first&#45;&gt;CarTransmission_stateDrive_second -->
<g id="edge14" class="edge"><title>CarTransmission_stateDrive_first&#45;&gt;CarTransmission_stateDrive_second</title>
<g id="a_edge14"><a xlink:title="first reachSecondSpeed [driveSelected] &#45;&gt; second">
<path fill="none" stroke="black" d="M211.701,-189.655C202.03,-179.931 194.394,-167.652 201.822,-157 212.934,-141.064 232.16,-132.364 250.422,-127.623"/>
<polygon fill="black" stroke="black" points="251.423,-130.985 260.411,-125.376 249.887,-124.156 251.423,-130.985"/>
</a>
</g>
<text text-anchor="middle" x="299.322" y="-160.8" font-family="Times,serif" font-size="14.00">reachSecondSpeed [driveSelected]</text>
</g>
<!-- CarTransmission_stateDrive_second&#45;&gt;CarTransmission_stateDrive_first -->
<g id="edge10" class="edge"><title>CarTransmission_stateDrive_second&#45;&gt;CarTransmission_stateDrive_first</title>
<g id="a_edge10"><a xlink:title="second dropBelowSecondSpeed [driveSelected] &#45;&gt; first">
<path fill="none" stroke="black" d="M280.227,-203.699 324.259,-199.487 385.867,-190.414 400.822,-172 421.977,-145.952 370.926,-132.585 333.1,-126.456"/>
<polygon fill="black" stroke="black" points="279.653,-200.237 270.008,-204.621 280.282,-207.208 279.653,-200.237"/>
</a>
</g>
<text text-anchor="middle" x="519.322" y="-160.8" font-family="Times,serif" font-size="14.00">dropBelowSecondSpeed [driveSelected]</text>
</g>
<!-- CarTransmission_stateDrive_third -->
<g id="node9" class="node"><title>CarTransmission_stateDrive_third</title>
<path fill="none" stroke="black" d="M345.822,-52C345.822,-52 297.822,-52 297.822,-52 291.822,-52 285.822,-46 285.822,-40 285.822,-40 285.822,-28 285.822,-28 285.822,-22 291.822,-16 297.822,-16 297.822,-16 345.822,-16 345.822,-16 351.822,-16 357.822,-22 357.822,-28 357.822,-28 357.822,-40 357.822,-40 357.822,-46 351.822,-52 345.822,-52"/>
<text text-anchor="middle" x="321.822" y="-30.3" font-family="Times,serif" font-size="14.00">third</text>
</g>
<!-- CarTransmission_stateDrive_second&#45;&gt;CarTransmission_stateDrive_third -->
<g id="edge16" class="edge"><title>CarTransmission_stateDrive_second&#45;&gt;CarTransmission_stateDrive_third</title>
<g id="a_edge16"><a xlink:title="second reachThirdSpeed [driveSelected] &#45;&gt; third">
<path fill="none" stroke="black" d="M260.703,-113.09C230.538,-105.63 194.84,-91.7971 210.822,-70 225.653,-49.7726 252.199,-40.9322 275.612,-37.1917"/>
<polygon fill="black" stroke="black" points="276.3,-40.6312 285.752,-35.8458 275.379,-33.6921 276.3,-40.6312"/>
</a>
</g>
<text text-anchor="middle" x="303.322" y="-73.8" font-family="Times,serif" font-size="14.00">reachThirdSpeed [driveSelected]</text>
</g>
<!-- CarTransmission_stateDrive_third&#45;&gt;CarTransmission_stateDrive_second -->
<g id="edge15" class="edge"><title>CarTransmission_stateDrive_third&#45;&gt;CarTransmission_stateDrive_second</title>
<g id="a_edge15"><a xlink:title="third dropBelowThirdSpeed &#45;&gt; second">
<path fill="none" stroke="black" d="M342.944,-116.265 363.882,-111.993 386.826,-103.142 399.822,-85 413.919,-65.3204 384.483,-51.4989 357.827,-43.4493"/>
<polygon fill="black" stroke="black" points="342.131,-112.854 332.878,-118.015 343.33,-119.75 342.131,-112.854"/>
</a>
</g>
<text text-anchor="middle" x="467.822" y="-73.8" font-family="Times,serif" font-size="14.00">dropBelowThirdSpeed</text>
</g>
</g>
</svg>
