<?xml version="1.0" encoding="UTF-8" standalone="no"?>
<!DOCTYPE svg PUBLIC "-//W3C//DTD SVG 1.1//EN"
 "http://www.w3.org/Graphics/SVG/1.1/DTD/svg11.dtd">
<!-- Generated by graphviz version 2.29.20121108.1600 (20121108.1600)
 -->
<!-- Title: CarTransmission Pages: 1 -->
<svg width="851pt" height="393pt"
 viewBox="0.00 0.00 851.08 393.00" xmlns="http://www.w3.org/2000/svg" xmlns:xlink="http://www.w3.org/1999/xlink">
<g id="graph0" class="graph" transform="scale(1 1) rotate(0) translate(4 389)">
<title>CarTransmission</title>
<polygon fill="white" stroke="white" points="-4,5 -4,-389 848.083,-389 848.083,5 -4,5"/>
<g id="clust1" class="cluster"><title>clusterCarTransmission_state_drive</title>
<path fill="none" stroke="black" d="M20,-8C20,-8 571,-8 571,-8 577,-8 583,-14 583,-20 583,-20 583,-331 583,-331 583,-337 577,-343 571,-343 571,-343 20,-343 20,-343 14,-343 8,-337 8,-331 8,-331 8,-20 8,-20 8,-14 14,-8 20,-8"/>
<text text-anchor="middle" x="295.5" y="-325" font-family="Times,serif" font-size="14.00">drive</text>
</g>
<!-- start_CarTransmission_state -->
<g id="node1" class="node"><title>start_CarTransmission_state</title>
<ellipse fill="black" stroke="black" cx="627" cy="-378" rx="7.2" ry="7.2"/>
</g>
<!-- CarTransmission_state_neutral -->
<g id="node2" class="node"><title>CarTransmission_state_neutral</title>
<path fill="none" stroke="black" d="M651,-322C651,-322 603,-322 603,-322 597,-322 591,-316 591,-310 591,-310 591,-298 591,-298 591,-292 597,-286 603,-286 603,-286 651,-286 651,-286 657,-286 663,-292 663,-298 663,-298 663,-310 663,-310 663,-316 657,-322 651,-322"/>
<text text-anchor="middle" x="627" y="-298.4" font-family="Times,serif" font-size="14.00">neutral</text>
</g>
<!-- start_CarTransmission_state&#45;&gt;CarTransmission_state_neutral -->
<g id="edge1" class="edge"><title>start_CarTransmission_state&#45;&gt;CarTransmission_state_neutral</title>
<path fill="none" stroke="black" d="M627,-370.355C627,-361.7 627,-346.04 627,-332.219"/>
<polygon fill="black" stroke="black" points="630.5,-332.154 627,-322.154 623.5,-332.154 630.5,-332.154"/>
</g>
<!-- CarTransmission_state_reverse -->
<g id="node3" class="node"><title>CarTransmission_state_reverse</title>
<path fill="none" stroke="black" d="M692,-232C692,-232 644,-232 644,-232 638,-232 632,-226 632,-220 632,-220 632,-208 632,-208 632,-202 638,-196 644,-196 644,-196 692,-196 692,-196 698,-196 704,-202 704,-208 704,-208 704,-220 704,-220 704,-226 698,-232 692,-232"/>
<text text-anchor="middle" x="668" y="-208.4" font-family="Times,serif" font-size="14.00">reverse</text>
</g>
<!-- CarTransmission_state_neutral&#45;&gt;CarTransmission_state_reverse -->
<g id="edge4" class="edge"><title>CarTransmission_state_neutral&#45;&gt;CarTransmission_state_reverse</title>
<path fill="none" stroke="black" d="M663.177,-289.33C672.221,-284.089 680.813,-277.107 686,-268 690.662,-259.814 689.212,-250.229 685.611,-241.477"/>
<polygon fill="black" stroke="black" points="688.67,-239.77 681.046,-232.413 682.418,-242.918 688.67,-239.77"/>
<text text-anchor="middle" x="727.479" y="-253.4" font-family="Times,serif" font-size="14.00">selectReverse</text>
</g>
<!-- CarTransmission_stateDrive_first -->
<g id="node5" class="node"><title>CarTransmission_stateDrive_first</title>
<path fill="none" stroke="black" d="M370,-232C370,-232 322,-232 322,-232 316,-232 310,-226 310,-220 310,-220 310,-208 310,-208 310,-202 316,-196 322,-196 322,-196 370,-196 370,-196 376,-196 382,-202 382,-208 382,-208 382,-220 382,-220 382,-226 376,-232 370,-232"/>
<text text-anchor="middle" x="346" y="-208.4" font-family="Times,serif" font-size="14.00">first</text>
</g>
<!-- CarTransmission_state_neutral&#45;&gt;CarTransmission_stateDrive_first -->
<g id="edge5" class="edge"><title>CarTransmission_state_neutral&#45;&gt;CarTransmission_stateDrive_first</title>
<path fill="none" stroke="black" d="M590.988,-287.072C590.904,-287.048 590.821,-287.023 590.736,-286.999"/>
<polygon fill="black" stroke="black" points="593.258,-283.965 582.743,-285.261 591.771,-290.806 593.258,-283.965"/>
<text text-anchor="middle" x="379.873" y="-253.4" font-family="Times,serif" font-size="14.00">selectDrive</text>
</g>
<!-- CarTransmission_state_neutral&#45;&gt;CarTransmission_stateDrive_first -->
<g id="edge7" class="edge"><title>CarTransmission_state_neutral&#45;&gt;CarTransmission_stateDrive_first</title>
<path fill="none" stroke="black" d="M590.971,-287.139C589.639,-286.729 588.313,-286.347 587,-286 519.287,-268.119 494.098,-297.228 430.455,-268 419.75,-263.084 420.586,-256.847 411,-250 404.62,-245.443 397.578,-241.065 390.554,-237.041"/>
<polygon fill="black" stroke="black" points="392.162,-233.931 381.718,-232.147 388.77,-240.054 392.162,-233.931"/>
<text text-anchor="middle" x="459.772" y="-253.4" font-family="Times,serif" font-size="14.00">selectFirst</text>
</g>
<!-- CarTransmission_stateDrive_second -->
<g id="node6" class="node"><title>CarTransmission_stateDrive_second</title>
<path fill="none" stroke="black" d="M210,-142C210,-142 162,-142 162,-142 156,-142 150,-136 150,-130 150,-130 150,-118 150,-118 150,-112 156,-106 162,-106 162,-106 210,-106 210,-106 216,-106 222,-112 222,-118 222,-118 222,-130 222,-130 222,-136 216,-142 210,-142"/>
<text text-anchor="middle" x="186" y="-118.4" font-family="Times,serif" font-size="14.00">second</text>
</g>
<!-- CarTransmission_state_neutral&#45;&gt;CarTransmission_stateDrive_second -->
<g id="edge10" class="edge"><title>CarTransmission_state_neutral&#45;&gt;CarTransmission_stateDrive_second</title>
<path fill="none" stroke="black" d="M663.175,-299.127C700.826,-294.263 756.081,-284.489 769,-268 796.829,-232.479 752.849,-218.086 713,-196 630.685,-150.377 345.213,-132.39 232.394,-126.957"/>
<polygon fill="black" stroke="black" points="232.498,-123.458 222.344,-126.484 232.169,-130.45 232.498,-123.458"/>
<text text-anchor="middle" x="806.542" y="-208.4" font-family="Times,serif" font-size="14.00">selectSecond</text>
</g>
<!-- CarTransmission_state_reverse&#45;&gt;CarTransmission_state_neutral -->
<g id="edge2" class="edge"><title>CarTransmission_state_reverse&#45;&gt;CarTransmission_state_neutral</title>
<path fill="none" stroke="black" d="M631.968,-230.15C624.058,-235.249 616.695,-241.79 612.151,-250 607.598,-258.227 608.739,-267.961 611.87,-276.827"/>
<polygon fill="black" stroke="black" points="608.664,-278.231 615.873,-285.995 615.079,-275.43 608.664,-278.231"/>
<text text-anchor="middle" x="649.924" y="-253.4" font-family="Times,serif" font-size="14.00">selectNeutral</text>
</g>
<!-- start_CarTransmission_drive -->
<g id="node4" class="node"><title>start_CarTransmission_drive</title>
<ellipse fill="black" stroke="black" cx="322" cy="-304" rx="7.2" ry="7.2"/>
</g>
<!-- start_CarTransmission_drive&#45;&gt;CarTransmission_stateDrive_first -->
<g id="edge6" class="edge"><title>start_CarTransmission_drive&#45;&gt;CarTransmission_stateDrive_first</title>
<path fill="none" stroke="black" d="M321.788,-296.641C321.629,-286.53 322.044,-266.268 327,-250 327.898,-247.053 329.059,-244.071 330.364,-241.156"/>
<polygon fill="black" stroke="black" points="333.504,-242.702 334.88,-232.197 327.254,-239.551 333.504,-242.702"/>
</g>
<!-- CarTransmission_stateDrive_first&#45;&gt;CarTransmission_state_neutral -->
<g id="edge3" class="edge"><title>CarTransmission_stateDrive_first&#45;&gt;CarTransmission_state_neutral</title>
<path fill="none" stroke="black" d="M583,-284.006C584.966,-284.874 586.931,-285.743 588.897,-286.611"/>
<polygon fill="black" stroke="black" points="580.3,-286.64 590.862,-287.479 583.129,-280.236 580.3,-286.64"/>
<text text-anchor="middle" x="569.924" y="-253.4" font-family="Times,serif" font-size="14.00">selectNeutral</text>
</g>
<!-- CarTransmission_stateDrive_first&#45;&gt;CarTransmission_stateDrive_first -->
<g id="edge8" class="edge"><title>CarTransmission_stateDrive_first&#45;&gt;CarTransmission_stateDrive_first</title>
<path fill="none" stroke="black" d="M382.087,-222.209C392.221,-221.85 400,-219.113 400,-214 400,-210.804 396.961,-208.537 392.208,-207.198"/>
<polygon fill="black" stroke="black" points="392.474,-203.701 382.087,-205.791 391.51,-210.635 392.474,-203.701"/>
<text text-anchor="middle" x="428.772" y="-208.4" font-family="Times,serif" font-size="14.00">selectFirst</text>
</g>
<!-- CarTransmission_stateDrive_first&#45;&gt;CarTransmission_stateDrive_second -->
<g id="edge11" class="edge"><title>CarTransmission_stateDrive_first&#45;&gt;CarTransmission_stateDrive_second</title>
<path fill="none" stroke="black" d="M309.87,-211.591C231.812,-208.176 52.9807,-198.21 34.917,-178 2.65562,-141.905 84.215,-130.392 139.659,-126.72"/>
<polygon fill="black" stroke="black" points="139.901,-130.212 149.674,-126.121 139.483,-123.224 139.901,-130.212"/>
<text text-anchor="middle" x="71.5415" y="-163.4" font-family="Times,serif" font-size="14.00">selectSecond</text>
</g>
<!-- CarTransmission_stateDrive_first&#45;&gt;CarTransmission_stateDrive_second -->
<g id="edge12" class="edge"><title>CarTransmission_stateDrive_first&#45;&gt;CarTransmission_stateDrive_second</title>
<path fill="none" stroke="black" d="M309.729,-212.652C253.734,-211.259 150.278,-204.996 127.258,-178 117.424,-166.467 126.981,-155.03 141.039,-145.748"/>
<polygon fill="black" stroke="black" points="142.943,-148.687 149.725,-140.548 139.347,-142.682 142.943,-148.687"/>
<text text-anchor="middle" x="225.371" y="-163.4" font-family="Times,serif" font-size="14.00">reachSecondSpeed [driveSelected]</text>
</g>
<!-- CarTransmission_stateDrive_second&#45;&gt;CarTransmission_stateDrive_first -->
<g id="edge9" class="edge"><title>CarTransmission_stateDrive_second&#45;&gt;CarTransmission_stateDrive_first</title>
<path fill="none" stroke="black" d="M222.155,-125.078C253.246,-127.036 297.465,-134.593 326,-160 333.552,-166.724 338.264,-176.595 341.199,-186.002"/>
<polygon fill="black" stroke="black" points="337.853,-187.044 343.736,-195.855 344.632,-185.298 337.853,-187.044"/>
<text text-anchor="middle" x="452.326" y="-163.4" font-family="Times,serif" font-size="14.00">dropBelowSecondSpeed [driveSelected]</text>
</g>
<!-- CarTransmission_stateDrive_third -->
<g id="node7" class="node"><title>CarTransmission_stateDrive_third</title>
<path fill="none" stroke="black" d="M175,-52C175,-52 127,-52 127,-52 121,-52 115,-46 115,-40 115,-40 115,-28 115,-28 115,-22 121,-16 127,-16 127,-16 175,-16 175,-16 181,-16 187,-22 187,-28 187,-28 187,-40 187,-40 187,-46 181,-52 175,-52"/>
<text text-anchor="middle" x="151" y="-28.4" font-family="Times,serif" font-size="14.00">third</text>
</g>
<!-- CarTransmission_stateDrive_second&#45;&gt;CarTransmission_stateDrive_third -->
<g id="edge14" class="edge"><title>CarTransmission_stateDrive_second&#45;&gt;CarTransmission_stateDrive_third</title>
<path fill="none" stroke="black" d="M149.959,-119.392C111.341,-114.693 53.7681,-105.002 40.3682,-88 19.735,-61.8205 65.6841,-47.8416 104.514,-40.9304"/>
<polygon fill="black" stroke="black" points="105.406,-44.3303 114.7,-39.2433 104.262,-37.4244 105.406,-44.3303"/>
<text text-anchor="middle" x="133.316" y="-73.4" font-family="Times,serif" font-size="14.00">reachThirdSpeed [driveSelected]</text>
</g>
<!-- CarTransmission_stateDrive_third&#45;&gt;CarTransmission_stateDrive_second -->
<g id="edge13" class="edge"><title>CarTransmission_stateDrive_third&#45;&gt;CarTransmission_stateDrive_second</title>
<path fill="none" stroke="black" d="M187.074,-41.986C202.752,-47.0055 219.644,-55.5468 229,-70 235.452,-79.9677 230.264,-90.253 221.56,-99.0799"/>
<polygon fill="black" stroke="black" points="219.133,-96.5544 213.981,-105.812 223.782,-101.788 219.133,-96.5544"/>
<text text-anchor="middle" x="295.766" y="-73.4" font-family="Times,serif" font-size="14.00">dropBelowThirdSpeed</text>
</g>
</g>
</svg>
