<?xml version="1.0" encoding="UTF-8" standalone="no"?>
<!DOCTYPE svg PUBLIC "-//W3C//DTD SVG 1.1//EN"
 "http://www.w3.org/Graphics/SVG/1.1/DTD/svg11.dtd">
<!-- Generated by graphviz version 2.36.0 (20140111.2315)
 -->
<!-- Title: CarTransmission Pages: 1 -->
<svg width="857pt" height="386pt"
 viewBox="0.00 0.00 857.00 386.00" xmlns="http://www.w3.org/2000/svg" xmlns:xlink="http://www.w3.org/1999/xlink">
<g id="graph0" class="graph" transform="scale(1 1) rotate(0) translate(4 382)">
<title>CarTransmission</title>
<polygon fill="white" stroke="none" points="-4,4 -4,-382 853,-382 853,4 -4,4"/>
<g id="clust1" class="cluster"><title>clusterCarTransmission_state_drive</title>
<path fill="none" stroke="black" d="M20,-8C20,-8 572,-8 572,-8 578,-8 584,-14 584,-20 584,-20 584,-324 584,-324 584,-330 578,-336 572,-336 572,-336 20,-336 20,-336 14,-336 8,-330 8,-324 8,-324 8,-20 8,-20 8,-14 14,-8 20,-8"/>
<text text-anchor="middle" x="296" y="-320.8" font-family="Times,serif" font-size="14.00">drive</text>
</g>
<!-- start_CarTransmission_state -->
<g id="node1" class="node"><title>start_CarTransmission_state</title>
<ellipse fill="black" stroke="black" cx="628" cy="-371" rx="7.2" ry="7.2"/>
</g>
<!-- CarTransmission_state_neutral -->
<g id="node2" class="node"><title>CarTransmission_state_neutral</title>
<path fill="none" stroke="black" d="M652,-316C652,-316 604,-316 604,-316 598,-316 592,-310 592,-304 592,-304 592,-292 592,-292 592,-286 598,-280 604,-280 604,-280 652,-280 652,-280 658,-280 664,-286 664,-292 664,-292 664,-304 664,-304 664,-310 658,-316 652,-316"/>
<text text-anchor="middle" x="628" y="-294.3" font-family="Times,serif" font-size="14.00">neutral</text>
</g>
<!-- start_CarTransmission_state&#45;&gt;CarTransmission_state_neutral -->
<g id="edge1" class="edge"><title>start_CarTransmission_state&#45;&gt;CarTransmission_state_neutral</title>
<path fill="none" stroke="black" d="M628,-363.448C628,-355.05 628,-339.967 628,-326.502"/>
<polygon fill="black" stroke="black" points="631.5,-326.21 628,-316.21 624.5,-326.21 631.5,-326.21"/>
</g>
<!-- CarTransmission_state_reverse -->
<g id="node3" class="node"><title>CarTransmission_state_reverse</title>
<path fill="none" stroke="black" d="M693,-228C693,-228 645,-228 645,-228 639,-228 633,-222 633,-216 633,-216 633,-204 633,-204 633,-198 639,-192 645,-192 645,-192 693,-192 693,-192 699,-192 705,-198 705,-204 705,-204 705,-216 705,-216 705,-222 699,-228 693,-228"/>
<text text-anchor="middle" x="669" y="-206.3" font-family="Times,serif" font-size="14.00">reverse</text>
</g>
<!-- CarTransmission_state_neutral&#45;&gt;CarTransmission_state_reverse -->
<g id="edge4" class="edge"><title>CarTransmission_state_neutral&#45;&gt;CarTransmission_state_reverse</title>
<path fill="none" stroke="black" d="M664.177,-283.33C673.221,-278.089 681.813,-271.107 687,-262 691.342,-254.376 690.116,-245.524 686.809,-237.355"/>
<polygon fill="black" stroke="black" points="689.813,-235.54 682.179,-228.194 683.566,-238.698 689.813,-235.54"/>
<text text-anchor="middle" x="728.5" y="-250.3" font-family="Times,serif" font-size="14.00">selectReverse</text>
</g>
<!-- CarTransmission_stateDrive_first -->
<g id="node5" class="node"><title>CarTransmission_stateDrive_first</title>
<path fill="none" stroke="black" d="M371,-228C371,-228 323,-228 323,-228 317,-228 311,-222 311,-216 311,-216 311,-204 311,-204 311,-198 317,-192 323,-192 323,-192 371,-192 371,-192 377,-192 383,-198 383,-204 383,-204 383,-216 383,-216 383,-222 377,-228 371,-228"/>
<text text-anchor="middle" x="347" y="-206.3" font-family="Times,serif" font-size="14.00">first</text>
</g>
<!-- CarTransmission_state_neutral&#45;&gt;CarTransmission_stateDrive_first -->
<g id="edge5" class="edge"><title>CarTransmission_state_neutral&#45;&gt;CarTransmission_stateDrive_first</title>
<path fill="none" stroke="black" d="M591.988,-281.072C591.904,-281.047 591.821,-281.023 591.736,-280.999"/>
<polygon fill="black" stroke="black" points="594.253,-277.964 583.738,-279.261 592.767,-284.804 594.253,-277.964"/>
<text text-anchor="middle" x="380" y="-250.3" font-family="Times,serif" font-size="14.00">selectDrive</text>
</g>
<!-- CarTransmission_state_neutral&#45;&gt;CarTransmission_stateDrive_first -->
<g id="edge7" class="edge"><title>CarTransmission_state_neutral&#45;&gt;CarTransmission_stateDrive_first</title>
<path fill="none" stroke="black" d="M591.971,-281.139C590.64,-280.728 589.313,-280.347 588,-280 520.09,-262.079 495.497,-289.804 431,-262 420.862,-257.63 421.131,-252.205 412,-246 405.367,-241.492 398.092,-237.096 390.886,-233.028"/>
<polygon fill="black" stroke="black" points="392.3,-229.811 381.85,-228.065 388.93,-235.946 392.3,-229.811"/>
<text text-anchor="middle" x="460" y="-250.3" font-family="Times,serif" font-size="14.00">selectFirst</text>
</g>
<!-- CarTransmission_stateDrive_second -->
<g id="node6" class="node"><title>CarTransmission_stateDrive_second</title>
<path fill="none" stroke="black" d="M210,-140C210,-140 162,-140 162,-140 156,-140 150,-134 150,-128 150,-128 150,-116 150,-116 150,-110 156,-104 162,-104 162,-104 210,-104 210,-104 216,-104 222,-110 222,-116 222,-116 222,-128 222,-128 222,-134 216,-140 210,-140"/>
<text text-anchor="middle" x="186" y="-118.3" font-family="Times,serif" font-size="14.00">second</text>
</g>
<!-- CarTransmission_state_neutral&#45;&gt;CarTransmission_stateDrive_second -->
<g id="edge10" class="edge"><title>CarTransmission_state_neutral&#45;&gt;CarTransmission_stateDrive_second</title>
<path fill="none" stroke="black" d="M664.083,-293.209C702.002,-288.392 757.943,-278.639 771,-262 798.28,-227.238 766.708,-220.462 714,-192 631.076,-147.222 345.33,-130.002 232.426,-124.847"/>
<polygon fill="black" stroke="black" points="232.515,-121.348 222.369,-124.399 232.203,-128.341 232.515,-121.348"/>
<text text-anchor="middle" x="812" y="-206.3" font-family="Times,serif" font-size="14.00">selectSecond</text>
</g>
<!-- CarTransmission_state_reverse&#45;&gt;CarTransmission_state_neutral -->
<g id="edge2" class="edge"><title>CarTransmission_state_reverse&#45;&gt;CarTransmission_state_neutral</title>
<path fill="none" stroke="black" d="M632.872,-226.131C624.941,-231.231 617.557,-237.777 613,-246 608.865,-253.461 609.671,-262.181 612.389,-270.28"/>
<polygon fill="black" stroke="black" points="609.284,-271.919 616.449,-279.724 615.715,-269.155 609.284,-271.919"/>
<text text-anchor="middle" x="650" y="-250.3" font-family="Times,serif" font-size="14.00">selectNeutral</text>
</g>
<!-- start_CarTransmission_state_drive -->
<g id="node4" class="node"><title>start_CarTransmission_state_drive</title>
<ellipse fill="black" stroke="black" cx="323" cy="-298" rx="7.2" ry="7.2"/>
</g>
<!-- start_CarTransmission_state_drive&#45;&gt;CarTransmission_stateDrive_first -->
<g id="edge6" class="edge"><title>start_CarTransmission_state_drive&#45;&gt;CarTransmission_stateDrive_first</title>
<path fill="none" stroke="black" d="M322.822,-290.56C322.729,-280.727 323.253,-261.48 328,-246 328.903,-243.054 330.068,-240.074 331.375,-237.159"/>
<polygon fill="black" stroke="black" points="334.515,-238.706 335.894,-228.201 328.265,-235.553 334.515,-238.706"/>
</g>
<!-- CarTransmission_stateDrive_first&#45;&gt;CarTransmission_state_neutral -->
<g id="edge3" class="edge"><title>CarTransmission_stateDrive_first&#45;&gt;CarTransmission_state_neutral</title>
<path fill="none" stroke="black" d="M584,-277.982C585.966,-278.856 587.931,-279.73 589.897,-280.604"/>
<polygon fill="black" stroke="black" points="581.303,-280.613 591.863,-281.478 584.147,-274.217 581.303,-280.613"/>
<text text-anchor="middle" x="570" y="-250.3" font-family="Times,serif" font-size="14.00">selectNeutral</text>
</g>
<!-- CarTransmission_stateDrive_first&#45;&gt;CarTransmission_stateDrive_first -->
<g id="edge8" class="edge"><title>CarTransmission_stateDrive_first&#45;&gt;CarTransmission_stateDrive_first</title>
<path fill="none" stroke="black" d="M383.087,-218.209C393.221,-217.85 401,-215.113 401,-210 401,-206.804 397.961,-204.537 393.208,-203.198"/>
<polygon fill="black" stroke="black" points="393.474,-199.701 383.087,-201.791 392.51,-206.635 393.474,-199.701"/>
<text text-anchor="middle" x="430" y="-206.3" font-family="Times,serif" font-size="14.00">selectFirst</text>
</g>
<!-- CarTransmission_stateDrive_first&#45;&gt;CarTransmission_stateDrive_second -->
<g id="edge11" class="edge"><title>CarTransmission_stateDrive_first&#45;&gt;CarTransmission_stateDrive_second</title>
<path fill="none" stroke="black" d="M310.764,-207.599C232.477,-204.201 53.1196,-194.266 35,-174 2.87976,-138.075 84.3499,-127.426 139.722,-124.289"/>
<polygon fill="black" stroke="black" points="139.913,-127.784 149.725,-123.787 139.562,-120.793 139.913,-127.784"/>
<text text-anchor="middle" x="72" y="-162.3" font-family="Times,serif" font-size="14.00">selectSecond</text>
</g>
<!-- CarTransmission_stateDrive_first&#45;&gt;CarTransmission_stateDrive_second -->
<g id="edge12" class="edge"><title>CarTransmission_stateDrive_first&#45;&gt;CarTransmission_stateDrive_second</title>
<path fill="none" stroke="black" d="M310.686,-208.659C254.627,-207.276 151.049,-201.025 128,-174 118.561,-162.932 127.537,-152.086 141.016,-143.262"/>
<polygon fill="black" stroke="black" points="143.029,-146.138 149.867,-138.045 139.475,-140.108 143.029,-146.138"/>
<text text-anchor="middle" x="225.5" y="-162.3" font-family="Times,serif" font-size="14.00">reachSecondSpeed [driveSelected]</text>
</g>
<!-- CarTransmission_stateDrive_second&#45;&gt;CarTransmission_stateDrive_first -->
<g id="edge9" class="edge"><title>CarTransmission_stateDrive_second&#45;&gt;CarTransmission_stateDrive_first</title>
<path fill="none" stroke="black" d="M222.021,-123.078C253.294,-125.018 297.993,-132.549 327,-158 334.168,-164.289 338.789,-173.475 341.759,-182.324"/>
<polygon fill="black" stroke="black" points="338.399,-183.308 344.458,-192 345.142,-181.427 338.399,-183.308"/>
<text text-anchor="middle" x="452.5" y="-162.3" font-family="Times,serif" font-size="14.00">dropBelowSecondSpeed [driveSelected]</text>
</g>
<!-- CarTransmission_stateDrive_third -->
<g id="node7" class="node"><title>CarTransmission_stateDrive_third</title>
<path fill="none" stroke="black" d="M175,-52C175,-52 127,-52 127,-52 121,-52 115,-46 115,-40 115,-40 115,-28 115,-28 115,-22 121,-16 127,-16 127,-16 175,-16 175,-16 181,-16 187,-22 187,-28 187,-28 187,-40 187,-40 187,-46 181,-52 175,-52"/>
<text text-anchor="middle" x="151" y="-30.3" font-family="Times,serif" font-size="14.00">third</text>
</g>
<!-- CarTransmission_stateDrive_second&#45;&gt;CarTransmission_stateDrive_third -->
<g id="edge14" class="edge"><title>CarTransmission_stateDrive_second&#45;&gt;CarTransmission_stateDrive_third</title>
<path fill="none" stroke="black" d="M149.869,-117.405C111.154,-112.719 53.4368,-103.039 40,-86 19.3859,-59.8602 65.786,-46.6018 104.768,-40.2558"/>
<polygon fill="black" stroke="black" points="105.621,-43.6669 114.988,-38.7159 104.578,-36.745 105.621,-43.6669"/>
<text text-anchor="middle" x="132.5" y="-74.3" font-family="Times,serif" font-size="14.00">reachThirdSpeed [driveSelected]</text>
</g>
<!-- CarTransmission_stateDrive_third&#45;&gt;CarTransmission_stateDrive_second -->
<g id="edge13" class="edge"><title>CarTransmission_stateDrive_third&#45;&gt;CarTransmission_stateDrive_second</title>
<path fill="none" stroke="black" d="M187.074,-41.986C202.752,-47.0055 219.644,-55.5468 229,-70 235.097,-79.4182 230.422,-89.0116 222.254,-97.2989"/>
<polygon fill="black" stroke="black" points="219.926,-94.6859 214.732,-103.921 224.551,-99.9403 219.926,-94.6859"/>
<text text-anchor="middle" x="296" y="-74.3" font-family="Times,serif" font-size="14.00">dropBelowThirdSpeed</text>
</g>
</g>
</svg>
