<?xml version="1.0" encoding="UTF-8" standalone="no"?>
<!DOCTYPE svg PUBLIC "-//W3C//DTD SVG 1.1//EN"
 "http://www.w3.org/Graphics/SVG/1.1/DTD/svg11.dtd">
<!-- Generated by graphviz version 2.39.20140502.0445 (20140502.0445)
 -->
<!-- Title: ComplexStateMachine Pages: 1 -->
<svg width="447pt" height="376pt"
 viewBox="0.00 0.00 447.20 376.40" xmlns="http://www.w3.org/2000/svg" xmlns:xlink="http://www.w3.org/1999/xlink">
<g id="graph0" class="graph" transform="scale(1 1) rotate(0) translate(4 372.4)">
<title>ComplexStateMachine</title>
<polygon fill="white" stroke="none" points="-4,4 -4,-372.4 443.2,-372.4 443.2,4 -4,4"/>
<g id="clust1" class="cluster"><title>clusterBigStateMachineTest_sm_Zxab</title>
<path fill="none" stroke="black" d="M221,-8C221,-8 405,-8 405,-8 411,-8 417,-14 417,-20 417,-20 417,-348.4 417,-348.4 417,-354.4 411,-360.4 405,-360.4 405,-360.4 221,-360.4 221,-360.4 215,-360.4 209,-354.4 209,-348.4 209,-348.4 209,-20 209,-20 209,-14 215,-8 221,-8"/>
<text text-anchor="middle" x="313" y="-345.2" font-family="Times,serif" font-size="14.00">Zxab</text>
</g>
<g id="clust2" class="cluster"><title>clusterBigStateMachineTest_smZxab_Zx</title>
<path fill="none" stroke="black" d="M251,-95C251,-95 315,-95 315,-95 321,-95 327,-101 327,-107 327,-107 327,-317.4 327,-317.4 327,-323.4 321,-329.4 315,-329.4 315,-329.4 251,-329.4 251,-329.4 245,-329.4 239,-323.4 239,-317.4 239,-317.4 239,-107 239,-107 239,-101 245,-95 251,-95"/>
<text text-anchor="middle" x="283" y="-314.2" font-family="Times,serif" font-size="14.00">Zx</text>
</g>
<g id="clust3" class="cluster"><title>clusterBigStateMachineTest_sm_Ge</title>
<path fill="none" stroke="black" d="M20,-8C20,-8 116,-8 116,-8 122,-8 128,-14 128,-20 128,-20 128,-158 128,-158 128,-164 122,-170 116,-170 116,-170 20,-170 20,-170 14,-170 8,-164 8,-158 8,-158 8,-20 8,-20 8,-14 14,-8 20,-8"/>
<text text-anchor="middle" x="68" y="-154.8" font-family="Times,serif" font-size="14.00">Ge</text>
</g>
<!-- start_BigStateMachineTest_sm -->
<g id="node1" class="node"><title>start_BigStateMachineTest_sm</title>
<ellipse fill="black" stroke="black" cx="432" cy="-291.2" rx="7.2" ry="7.2"/>
</g>
<!-- BigStateMachineTest_smZxabZx_Z -->
<g id="node4" class="node"><title>BigStateMachineTest_smZxabZx_Z</title>
<path fill="none" stroke="black" d="M307,-247C307,-247 259,-247 259,-247 253,-247 247,-241 247,-235 247,-235 247,-223 247,-223 247,-217 253,-211 259,-211 259,-211 307,-211 307,-211 313,-211 319,-217 319,-223 319,-223 319,-235 319,-235 319,-241 313,-247 307,-247"/>
<text text-anchor="middle" x="283" y="-225.3" font-family="Times,serif" font-size="14.00">Z</text>
</g>
<!-- start_BigStateMachineTest_sm&#45;&gt;BigStateMachineTest_smZxabZx_Z -->
<g id="edge1" class="edge"><title>start_BigStateMachineTest_sm&#45;&gt;BigStateMachineTest_smZxabZx_Z</title>
<g id="a_edge1"><a xlink:title="start &#160;&#45;&gt; Zxab">
<path fill="none" stroke="black" d="M425.144,-287.43 425.297,-287.492 425.449,-287.553 425.598,-287.613"/>
<polygon fill="black" stroke="black" points="427.351,-284.547 416.768,-284.046 424.728,-291.037 427.351,-284.547"/>
</a>
</g>
</g>
<!-- start_BigStateMachineTest_Zxab -->
<g id="node2" class="node"><title>start_BigStateMachineTest_Zxab</title>
<ellipse fill="black" stroke="black" cx="224" cy="-291.2" rx="7.2" ry="7.2"/>
</g>
<!-- start_BigStateMachineTest_Zxab&#45;&gt;BigStateMachineTest_smZxabZx_Z -->
<g id="edge2" class="edge"><title>start_BigStateMachineTest_Zxab&#45;&gt;BigStateMachineTest_smZxabZx_Z</title>
<g id="a_edge2"><a xlink:title="start &#160;&#45;&gt; Zx">
<path fill="none" stroke="black" d="M228.63,-285.476C229.628,-284.458 230.763,-283.3 232.009,-282.028"/>
<polygon fill="black" stroke="black" points="234.562,-284.424 239.062,-274.832 229.562,-279.524 234.562,-284.424"/>
</a>
</g>
</g>
<!-- start_BigStateMachineTest_Zx -->
<g id="node3" class="node"><title>start_BigStateMachineTest_Zx</title>
<ellipse fill="black" stroke="black" cx="283" cy="-291.2" rx="7.2" ry="7.2"/>
</g>
<!-- start_BigStateMachineTest_Zx&#45;&gt;BigStateMachineTest_smZxabZx_Z -->
<g id="edge3" class="edge"><title>start_BigStateMachineTest_Zx&#45;&gt;BigStateMachineTest_smZxabZx_Z</title>
<g id="a_edge3"><a xlink:title="start &#160;&#45;&gt; Z">
<path fill="none" stroke="black" d="M283,-283.758C283,-277.387 283,-267.197 283,-257.393"/>
<polygon fill="black" stroke="black" points="286.5,-257.105 283,-247.105 279.5,-257.105 286.5,-257.105"/>
</a>
</g>
</g>
<!-- BigStateMachineTest_smZxabZx_X -->
<g id="node5" class="node"><title>BigStateMachineTest_smZxabZx_X</title>
<path fill="none" stroke="black" d="M307,-139C307,-139 259,-139 259,-139 253,-139 247,-133 247,-127 247,-127 247,-115 247,-115 247,-109 253,-103 259,-103 259,-103 307,-103 307,-103 313,-103 319,-109 319,-115 319,-115 319,-127 319,-127 319,-133 313,-139 307,-139"/>
<text text-anchor="middle" x="283" y="-117.3" font-family="Times,serif" font-size="14.00">X</text>
</g>
<!-- BigStateMachineTest_smZxabZx_Z&#45;&gt;BigStateMachineTest_smZxabZx_X -->
<g id="edge4" class="edge"><title>BigStateMachineTest_smZxabZx_Z&#45;&gt;BigStateMachineTest_smZxabZx_X</title>
<g id="a_edge4"><a xlink:title="Z e3 &#45;&gt; X">
<path fill="none" stroke="black" d="M280,-149.511 278.936,-162.672 278.183,-178.652 279,-193 279.334,-198.862 279.98,-205.249 280.657,-210.944"/>
<polygon fill="black" stroke="black" points="283.516,-149.493 280.94,-139.217 276.545,-148.857 283.516,-149.493"/>
</a>
</g>
<text text-anchor="middle" x="286" y="-181.8" font-family="Times,serif" font-size="14.00">e3</text>
</g>
<!-- BigStateMachineTest_smZxab_A -->
<g id="node6" class="node"><title>BigStateMachineTest_smZxab_A</title>
<path fill="none" stroke="black" d="M397,-139C397,-139 349,-139 349,-139 343,-139 337,-133 337,-127 337,-127 337,-115 337,-115 337,-109 343,-103 349,-103 349,-103 397,-103 397,-103 403,-103 409,-109 409,-115 409,-115 409,-127 409,-127 409,-133 403,-139 397,-139"/>
<text text-anchor="middle" x="373" y="-117.3" font-family="Times,serif" font-size="14.00">A</text>
</g>
<!-- BigStateMachineTest_smZxabZx_Z&#45;&gt;BigStateMachineTest_smZxab_A -->
<g id="edge6" class="edge"><title>BigStateMachineTest_smZxabZx_Z&#45;&gt;BigStateMachineTest_smZxab_A</title>
<g id="a_edge6"><a xlink:title="Z e2 &#45;&gt; A">
<path fill="none" stroke="black" d="M297.46,-210.969C312.134,-193.687 335.011,-166.743 351.747,-147.032"/>
<polygon fill="black" stroke="black" points="354.473,-149.229 358.277,-139.341 349.136,-144.698 354.473,-149.229"/>
</a>
</g>
<text text-anchor="middle" x="332" y="-181.8" font-family="Times,serif" font-size="14.00">e2</text>
</g>
<!-- BigStateMachineTest_smGe_G -->
<g id="node10" class="node"><title>BigStateMachineTest_smGe_G</title>
<path fill="none" stroke="black" d="M108,-52C108,-52 60,-52 60,-52 54,-52 48,-46 48,-40 48,-40 48,-28 48,-28 48,-22 54,-16 60,-16 60,-16 108,-16 108,-16 114,-16 120,-22 120,-28 120,-28 120,-40 120,-40 120,-46 114,-52 108,-52"/>
<text text-anchor="middle" x="84" y="-30.3" font-family="Times,serif" font-size="14.00">G</text>
</g>
<!-- BigStateMachineTest_smZxabZx_Z&#45;&gt;BigStateMachineTest_smGe_G -->
<g id="edge11" class="edge"><title>BigStateMachineTest_smZxabZx_Z&#45;&gt;BigStateMachineTest_smGe_G</title>
<g id="a_edge11"><a xlink:title="Zxab e4 &#45;&gt; Ge">
<path fill="none" stroke="black" d="M129.705,-46.9749 143.798,-52.3097 158.592,-59.7687 170,-70 199.377,-96.3474 197.288,-117.918 209.44,-145.348"/>
<polygon fill="black" stroke="black" points="137.998,-49.1182 128,-45.613 133.63,-54.5882 137.998,-49.1182"/>
</a>
</g>
<text text-anchor="middle" x="231" y="-117.3" font-family="Times,serif" font-size="14.00">e4</text>
</g>
<!-- BigStateMachineTest_smZxabZx_Z&#45;&gt;BigStateMachineTest_smGe_G -->
<g id="edge13" class="edge"><title>BigStateMachineTest_smZxabZx_Z&#45;&gt;BigStateMachineTest_smGe_G</title>
<g id="a_edge13"><a xlink:title="Zx e5 &#45;&gt; G">
<path fill="none" stroke="black" d="M105.378,-60.055 108.007,-63.3518 110.608,-66.7237 113,-70 120.778,-80.6546 122.628,-83.449 129,-95 152.24,-137.13 138.911,-161.177 175,-193 184.847,-201.683 213.692,-210.807 239.096,-217.562"/>
<polygon fill="black" stroke="black" points="107.925,-57.6401 98.887,-52.1113 102.504,-62.0695 107.925,-57.6401"/>
</a>
</g>
<text text-anchor="middle" x="163" y="-117.3" font-family="Times,serif" font-size="14.00">e5</text>
</g>
<!-- BigStateMachineTest_smGe_E -->
<g id="node11" class="node"><title>BigStateMachineTest_smGe_E</title>
<path fill="none" stroke="black" d="M76,-139C76,-139 28,-139 28,-139 22,-139 16,-133 16,-127 16,-127 16,-115 16,-115 16,-109 22,-103 28,-103 28,-103 76,-103 76,-103 82,-103 88,-109 88,-115 88,-115 88,-127 88,-127 88,-133 82,-139 76,-139"/>
<text text-anchor="middle" x="52" y="-117.3" font-family="Times,serif" font-size="14.00">E</text>
</g>
<!-- BigStateMachineTest_smZxabZx_Z&#45;&gt;BigStateMachineTest_smGe_E -->
<g id="edge16" class="edge"><title>BigStateMachineTest_smZxabZx_Z&#45;&gt;BigStateMachineTest_smGe_E</title>
<g id="a_edge16"><a xlink:title="Zxab e1 &#45;&gt; E">
<path fill="none" stroke="black" d="M69.5355,-147.513 81.6211,-163.098 99.0621,-182.07 119,-193 154.87,-212.663 169.467,-202.485 209.06,-210.8"/>
<polygon fill="black" stroke="black" points="72.1754,-145.199 63.3903,-139.276 66.5648,-149.384 72.1754,-145.199"/>
</a>
</g>
<text text-anchor="middle" x="126" y="-181.8" font-family="Times,serif" font-size="14.00">e1</text>
</g>
<!-- BigStateMachineTest_smZxab_B -->
<g id="node7" class="node"><title>BigStateMachineTest_smZxab_B</title>
<path fill="none" stroke="black" d="M337,-52C337,-52 289,-52 289,-52 283,-52 277,-46 277,-40 277,-40 277,-28 277,-28 277,-22 283,-16 289,-16 289,-16 337,-16 337,-16 343,-16 349,-22 349,-28 349,-28 349,-40 349,-40 349,-46 343,-52 337,-52"/>
<text text-anchor="middle" x="313" y="-30.3" font-family="Times,serif" font-size="14.00">B</text>
</g>
<!-- BigStateMachineTest_smZxab_A&#45;&gt;BigStateMachineTest_smZxab_B -->
<g id="edge7" class="edge"><title>BigStateMachineTest_smZxab_A&#45;&gt;BigStateMachineTest_smZxab_B</title>
<g id="a_edge7"><a xlink:title="A e3 &#45;&gt; B">
<path fill="none" stroke="black" d="M331.118,-60.6665 340.745,-74.3049 352.319,-90.7017 360.858,-102.799"/>
<polygon fill="black" stroke="black" points="333.75,-58.3267 325.124,-52.1754 328.031,-62.3635 333.75,-58.3267"/>
</a>
</g>
<text text-anchor="middle" x="353" y="-73.8" font-family="Times,serif" font-size="14.00">e3</text>
</g>
<!-- BigStateMachineTest_sm_D -->
<g id="node8" class="node"><title>BigStateMachineTest_sm_D</title>
<path fill="none" stroke="black" d="M189,-247C189,-247 141,-247 141,-247 135,-247 129,-241 129,-235 129,-235 129,-223 129,-223 129,-217 135,-211 141,-211 141,-211 189,-211 189,-211 195,-211 201,-217 201,-223 201,-223 201,-235 201,-235 201,-241 195,-247 189,-247"/>
<text text-anchor="middle" x="165" y="-225.3" font-family="Times,serif" font-size="14.00">D</text>
</g>
<!-- BigStateMachineTest_smZxab_A&#45;&gt;BigStateMachineTest_sm_D -->
<g id="edge9" class="edge"><title>BigStateMachineTest_smZxab_A&#45;&gt;BigStateMachineTest_sm_D</title>
<g id="a_edge9"><a xlink:title="A e5 &#45;&gt; D">
<path fill="none" stroke="black" d="M185.863,-203.341 195.499,-193.696 207.743,-183.616 221,-178 266.135,-158.879 287.127,-191.862 331,-170 344.479,-163.284 355.49,-150.157 362.851,-139.326"/>
<polygon fill="black" stroke="black" points="183.053,-201.219 178.725,-210.89 188.139,-206.029 183.053,-201.219"/>
</a>
</g>
<text text-anchor="middle" x="228" y="-181.8" font-family="Times,serif" font-size="14.00">e5</text>
</g>
<!-- BigStateMachineTest_smZxab_B&#45;&gt;BigStateMachineTest_smGe_G -->
<g id="edge10" class="edge"><title>BigStateMachineTest_smZxab_B&#45;&gt;BigStateMachineTest_smGe_G</title>
<g id="a_edge10"><a xlink:title="B e3 &#45;&gt; Ge">
<path fill="none" stroke="black" d="M130.286,-34 173.518,-34 237.168,-34 276.799,-34"/>
<polygon fill="black" stroke="black" points="138,-30.5004 128,-34 138,-37.5004 138,-30.5004"/>
</a>
</g>
<text text-anchor="middle" x="198.5" y="-40.8" font-family="Times,serif" font-size="14.00">e3</text>
</g>
<!-- BigStateMachineTest_sm_D&#45;&gt;BigStateMachineTest_smZxabZx_X -->
<g id="edge5" class="edge"><title>BigStateMachineTest_sm_D&#45;&gt;BigStateMachineTest_smZxabZx_X</title>
<g id="a_edge5"><a xlink:title="D e5 &#45;&gt; X">
<path fill="none" stroke="black" d="M169.746,-210.577C173.654,-199.559 180.325,-185.944 191,-178 206.244,-166.656 216.115,-178.718 233,-170 244.081,-164.279 254.385,-155.323 262.725,-146.689"/>
<polygon fill="black" stroke="black" points="265.344,-149.011 269.518,-139.274 260.182,-144.283 265.344,-149.011"/>
</a>
</g>
<text text-anchor="middle" x="198" y="-181.8" font-family="Times,serif" font-size="14.00">e5</text>
</g>
<!-- BigStateMachineTest_sm_D&#45;&gt;BigStateMachineTest_smGe_E -->
<g id="edge17" class="edge"><title>BigStateMachineTest_sm_D&#45;&gt;BigStateMachineTest_smGe_E</title>
<g id="a_edge17"><a xlink:title="D e2 &#45;&gt; E">
<path fill="none" stroke="black" d="M52.0532,-149.26 53.4549,-163.806 57.5045,-181.108 68,-193 83.4003,-210.45 108.173,-219.203 128.829,-223.592"/>
<polygon fill="black" stroke="black" points="55.5465,-149.041 51.4463,-139.272 48.5594,-149.466 55.5465,-149.041"/>
</a>
</g>
<text text-anchor="middle" x="75" y="-181.8" font-family="Times,serif" font-size="14.00">e2</text>
</g>
<!-- start_BigStateMachineTest_Ge -->
<g id="node9" class="node"><title>start_BigStateMachineTest_Ge</title>
<ellipse fill="black" stroke="black" cx="113" cy="-121" rx="7.2" ry="7.2"/>
</g>
<!-- start_BigStateMachineTest_Ge&#45;&gt;BigStateMachineTest_smGe_G -->
<g id="edge12" class="edge"><title>start_BigStateMachineTest_Ge&#45;&gt;BigStateMachineTest_smGe_G</title>
<g id="a_edge12"><a xlink:title="start &#160;&#45;&gt; G">
<path fill="none" stroke="black" d="M101.099,-61.116 102.577,-64.0386 103.919,-67.0331 105,-70 110.479,-85.0321 112.211,-103.962 112.755,-113.65"/>
<polygon fill="black" stroke="black" points="104.011,-59.1533 96.0641,-52.1469 97.9076,-62.5801 104.011,-59.1533"/>
</a>
</g>
</g>
<!-- BigStateMachineTest_smGe_G&#45;&gt;BigStateMachineTest_smZxab_B -->
<g id="edge8" class="edge"><title>BigStateMachineTest_smGe_G&#45;&gt;BigStateMachineTest_smZxab_B</title>
<g id="a_edge8"><a xlink:title="G e1 &#45;&gt; B">
<path fill="none" stroke="black" d="M120.033,-34C159.596,-34 223.241,-34 266.531,-34"/>
<polygon fill="black" stroke="black" points="266.799,-37.5001 276.799,-34 266.799,-30.5001 266.799,-37.5001"/>
</a>
</g>
<text text-anchor="middle" x="198.5" y="-40.8" font-family="Times,serif" font-size="14.00">e1</text>
</g>
<!-- BigStateMachineTest_smGe_E&#45;&gt;BigStateMachineTest_smGe_G -->
<g id="edge14" class="edge"><title>BigStateMachineTest_smGe_E&#45;&gt;BigStateMachineTest_smGe_G</title>
<g id="a_edge14"><a xlink:title="E e1 &#45;&gt; G">
<path fill="none" stroke="black" d="M48.4239,-102.747C47.1485,-92.8288 46.8985,-80.3288 51,-70 52.3754,-66.5363 54.2741,-63.2166 56.4717,-60.096"/>
<polygon fill="black" stroke="black" points="59.1987,-62.2903 62.8335,-52.3384 53.786,-57.8515 59.1987,-62.2903"/>
</a>
</g>
<text text-anchor="middle" x="58" y="-73.8" font-family="Times,serif" font-size="14.00">e1</text>
</g>
<!-- BigStateMachineTest_smGe_E&#45;&gt;BigStateMachineTest_smGe_G -->
<g id="edge15" class="edge"><title>BigStateMachineTest_smGe_E&#45;&gt;BigStateMachineTest_smGe_G</title>
<g id="a_edge15"><a xlink:title="E e2 &#45;&gt; G">
<path fill="none" stroke="black" d="M58.4757,-102.799C62.8998,-91.0474 68.8515,-75.2383 73.8947,-61.8421"/>
<polygon fill="black" stroke="black" points="77.2862,-62.7674 77.534,-52.1754 70.735,-60.301 77.2862,-62.7674"/>
</a>
</g>
<text text-anchor="middle" x="77" y="-73.8" font-family="Times,serif" font-size="14.00">e2</text>
</g>
</g>
</svg>
