<?xml version="1.0" encoding="UTF-8" standalone="no"?>
<!DOCTYPE svg PUBLIC "-//W3C//DTD SVG 1.1//EN"
 "http://www.w3.org/Graphics/SVG/1.1/DTD/svg11.dtd">
<!-- Generated by graphviz version 2.36.0 (20140111.2315)
 -->
<!-- Title: ComplexStateMachine Pages: 1 -->
<svg width="456pt" height="379pt"
 viewBox="0.00 0.00 456.00 379.00" xmlns="http://www.w3.org/2000/svg" xmlns:xlink="http://www.w3.org/1999/xlink">
<g id="graph0" class="graph" transform="scale(1 1) rotate(0) translate(4 375)">
<title>ComplexStateMachine</title>
<polygon fill="white" stroke="none" points="-4,4 -4,-375 452,-375 452,4 -4,4"/>
<g id="clust1" class="cluster"><title>clusterBigStateMachineTest_sm_Zxab</title>
<path fill="none" stroke="black" d="M230,-8C230,-8 414,-8 414,-8 420,-8 426,-14 426,-20 426,-20 426,-351 426,-351 426,-357 420,-363 414,-363 414,-363 230,-363 230,-363 224,-363 218,-357 218,-351 218,-351 218,-20 218,-20 218,-14 224,-8 230,-8"/>
<text text-anchor="middle" x="322" y="-347.8" font-family="Times,serif" font-size="14.00">Zxab</text>
</g>
<g id="clust2" class="cluster"><title>clusterBigStateMachineTest_smZxab_Zx</title>
<path fill="none" stroke="black" d="M260,-96C260,-96 324,-96 324,-96 330,-96 336,-102 336,-108 336,-108 336,-320 336,-320 336,-326 330,-332 324,-332 324,-332 260,-332 260,-332 254,-332 248,-326 248,-320 248,-320 248,-108 248,-108 248,-102 254,-96 260,-96"/>
<text text-anchor="middle" x="292" y="-316.8" font-family="Times,serif" font-size="14.00">Zx</text>
</g>
<g id="clust3" class="cluster"><title>clusterBigStateMachineTest_sm_Ge</title>
<path fill="none" stroke="black" d="M20,-8C20,-8 116,-8 116,-8 122,-8 128,-14 128,-20 128,-20 128,-159 128,-159 128,-165 122,-171 116,-171 116,-171 20,-171 20,-171 14,-171 8,-165 8,-159 8,-159 8,-20 8,-20 8,-14 14,-8 20,-8"/>
<text text-anchor="middle" x="68" y="-155.8" font-family="Times,serif" font-size="14.00">Ge</text>
</g>
<!-- start_BigStateMachineTest_sm -->
<g id="node1" class="node"><title>start_BigStateMachineTest_sm</title>
<ellipse fill="black" stroke="black" cx="441" cy="-294" rx="7.2" ry="7.2"/>
</g>
<!-- BigStateMachineTest_smZxabZx_Z -->
<g id="node4" class="node"><title>BigStateMachineTest_smZxabZx_Z</title>
<path fill="none" stroke="black" d="M316,-249C316,-249 268,-249 268,-249 262,-249 256,-243 256,-237 256,-237 256,-225 256,-225 256,-219 262,-213 268,-213 268,-213 316,-213 316,-213 322,-213 328,-219 328,-225 328,-225 328,-237 328,-237 328,-243 322,-249 316,-249"/>
<text text-anchor="middle" x="292" y="-227.3" font-family="Times,serif" font-size="14.00">Z</text>
</g>
<!-- start_BigStateMachineTest_sm&#45;&gt;BigStateMachineTest_smZxabZx_Z -->
<g id="edge1" class="edge"><title>start_BigStateMachineTest_sm&#45;&gt;BigStateMachineTest_smZxabZx_Z</title>
<path fill="none" stroke="black" d="M434.598,-290.379C434.449,-290.318 434.297,-290.256 434.144,-290.193"/>
<polygon fill="black" stroke="black" points="436.348,-287.314 425.768,-286.764 433.696,-293.792 436.348,-287.314"/>
</g>
<!-- start_BigStateMachineTest_sm_Zxab -->
<g id="node2" class="node"><title>start_BigStateMachineTest_sm_Zxab</title>
<ellipse fill="black" stroke="black" cx="233" cy="-294" rx="7.2" ry="7.2"/>
</g>
<!-- start_BigStateMachineTest_sm_Zxab&#45;&gt;BigStateMachineTest_smZxabZx_Z -->
<g id="edge2" class="edge"><title>start_BigStateMachineTest_sm_Zxab&#45;&gt;BigStateMachineTest_smZxabZx_Z</title>
<path fill="none" stroke="black" d="M237.63,-288.213C238.635,-287.174 239.778,-285.992 241.035,-284.693"/>
<polygon fill="black" stroke="black" points="243.71,-286.962 248.146,-277.34 238.678,-282.095 243.71,-286.962"/>
</g>
<!-- start_BigStateMachineTest_sm_Zxab_Zx -->
<g id="node3" class="node"><title>start_BigStateMachineTest_sm_Zxab_Zx</title>
<ellipse fill="black" stroke="black" cx="292" cy="-294" rx="7.2" ry="7.2"/>
</g>
<!-- start_BigStateMachineTest_sm_Zxab_Zx&#45;&gt;BigStateMachineTest_smZxabZx_Z -->
<g id="edge3" class="edge"><title>start_BigStateMachineTest_sm_Zxab_Zx&#45;&gt;BigStateMachineTest_smZxabZx_Z</title>
<path fill="none" stroke="black" d="M292,-286.472C292,-279.902 292,-269.324 292,-259.229"/>
<polygon fill="black" stroke="black" points="295.5,-259.073 292,-249.073 288.5,-259.073 295.5,-259.073"/>
</g>
<!-- BigStateMachineTest_smZxabZx_X -->
<g id="node5" class="node"><title>BigStateMachineTest_smZxabZx_X</title>
<path fill="none" stroke="black" d="M316,-140C316,-140 268,-140 268,-140 262,-140 256,-134 256,-128 256,-128 256,-116 256,-116 256,-110 262,-104 268,-104 268,-104 316,-104 316,-104 322,-104 328,-110 328,-116 328,-116 328,-128 328,-128 328,-134 322,-140 316,-140"/>
<text text-anchor="middle" x="292" y="-118.3" font-family="Times,serif" font-size="14.00">X</text>
</g>
<!-- BigStateMachineTest_smZxabZx_Z&#45;&gt;BigStateMachineTest_smZxabZx_X -->
<g id="edge4" class="edge"><title>BigStateMachineTest_smZxabZx_Z&#45;&gt;BigStateMachineTest_smZxabZx_X</title>
<path fill="none" stroke="black" d="M289.657,-212.944C288.98,-207.249 288.334,-200.862 288,-195 287.157,-180.206 287.949,-163.701 289.044,-150.23"/>
<polygon fill="black" stroke="black" points="292.539,-150.444 289.961,-140.167 285.568,-149.808 292.539,-150.444"/>
<text text-anchor="middle" x="295" y="-183.3" font-family="Times,serif" font-size="14.00">e3</text>
</g>
<!-- BigStateMachineTest_smZxab_A -->
<g id="node6" class="node"><title>BigStateMachineTest_smZxab_A</title>
<path fill="none" stroke="black" d="M406,-140C406,-140 358,-140 358,-140 352,-140 346,-134 346,-128 346,-128 346,-116 346,-116 346,-110 352,-104 358,-104 358,-104 406,-104 406,-104 412,-104 418,-110 418,-116 418,-116 418,-128 418,-128 418,-134 412,-140 406,-140"/>
<text text-anchor="middle" x="382" y="-118.3" font-family="Times,serif" font-size="14.00">A</text>
</g>
<!-- BigStateMachineTest_smZxabZx_Z&#45;&gt;BigStateMachineTest_smZxab_A -->
<g id="edge6" class="edge"><title>BigStateMachineTest_smZxabZx_Z&#45;&gt;BigStateMachineTest_smZxab_A</title>
<path fill="none" stroke="black" d="M306.46,-212.809C321.221,-195.259 344.284,-167.841 361.045,-147.913"/>
<polygon fill="black" stroke="black" points="363.817,-150.055 367.576,-140.149 358.46,-145.549 363.817,-150.055"/>
<text text-anchor="middle" x="341" y="-183.3" font-family="Times,serif" font-size="14.00">e2</text>
</g>
<!-- BigStateMachineTest_smGe_G -->
<g id="node10" class="node"><title>BigStateMachineTest_smGe_G</title>
<path fill="none" stroke="black" d="M108,-52C108,-52 60,-52 60,-52 54,-52 48,-46 48,-40 48,-40 48,-28 48,-28 48,-22 54,-16 60,-16 60,-16 108,-16 108,-16 114,-16 120,-22 120,-28 120,-28 120,-40 120,-40 120,-46 114,-52 108,-52"/>
<text text-anchor="middle" x="84" y="-30.3" font-family="Times,serif" font-size="14.00">G</text>
</g>
<!-- BigStateMachineTest_smZxabZx_Z&#45;&gt;BigStateMachineTest_smGe_G -->
<g id="edge11" class="edge"><title>BigStateMachineTest_smZxabZx_Z&#45;&gt;BigStateMachineTest_smGe_G</title>
<path fill="none" stroke="black" d="M218.43,-149.219C202.19,-119.716 202.883,-97.6856 170,-70 158.378,-60.2149 143.657,-52.8908 129.694,-47.5419"/>
<polygon fill="black" stroke="black" points="137.946,-49.7997 128,-46.1484 133.498,-55.2051 137.946,-49.7997"/>
<text text-anchor="middle" x="240" y="-118.3" font-family="Times,serif" font-size="14.00">e4</text>
</g>
<!-- BigStateMachineTest_smZxabZx_Z&#45;&gt;BigStateMachineTest_smGe_G -->
<g id="edge13" class="edge"><title>BigStateMachineTest_smZxabZx_Z&#45;&gt;BigStateMachineTest_smGe_G</title>
<path fill="none" stroke="black" d="M248.132,-219.462C222.501,-212.634 193.236,-203.467 183,-195 144.38,-163.055 154.142,-139.357 129,-96 122.194,-84.2624 120.903,-81.0288 113,-70 110.637,-66.7027 108.054,-63.3183 105.434,-60.0148"/>
<polygon fill="black" stroke="black" points="107.983,-57.6028 98.9507,-52.0652 102.558,-62.0269 107.983,-57.6028"/>
<text text-anchor="middle" x="168" y="-118.3" font-family="Times,serif" font-size="14.00">e5</text>
</g>
<!-- BigStateMachineTest_smGe_E -->
<g id="node11" class="node"><title>BigStateMachineTest_smGe_E</title>
<path fill="none" stroke="black" d="M76,-140C76,-140 28,-140 28,-140 22,-140 16,-134 16,-128 16,-128 16,-116 16,-116 16,-110 22,-104 28,-104 28,-104 76,-104 76,-104 82,-104 88,-110 88,-116 88,-116 88,-128 88,-128 88,-134 82,-140 76,-140"/>
<text text-anchor="middle" x="52" y="-118.3" font-family="Times,serif" font-size="14.00">E</text>
</g>
<!-- BigStateMachineTest_smZxabZx_Z&#45;&gt;BigStateMachineTest_smGe_E -->
<g id="edge16" class="edge"><title>BigStateMachineTest_smZxabZx_Z&#45;&gt;BigStateMachineTest_smGe_E</title>
<path fill="none" stroke="black" d="M218.06,-212.8C178.488,-204.443 165.232,-211.943 128,-195 105.178,-184.615 84.8832,-164.514 71.0188,-148.185"/>
<polygon fill="black" stroke="black" points="73.4153,-145.587 64.3755,-140.061 67.9963,-150.018 73.4153,-145.587"/>
<text text-anchor="middle" x="135" y="-183.3" font-family="Times,serif" font-size="14.00">e1</text>
</g>
<!-- BigStateMachineTest_smZxab_B -->
<g id="node7" class="node"><title>BigStateMachineTest_smZxab_B</title>
<path fill="none" stroke="black" d="M406,-52C406,-52 358,-52 358,-52 352,-52 346,-46 346,-40 346,-40 346,-28 346,-28 346,-22 352,-16 358,-16 358,-16 406,-16 406,-16 412,-16 418,-22 418,-28 418,-28 418,-40 418,-40 418,-46 412,-52 406,-52"/>
<text text-anchor="middle" x="382" y="-30.3" font-family="Times,serif" font-size="14.00">B</text>
</g>
<!-- BigStateMachineTest_smZxab_A&#45;&gt;BigStateMachineTest_smZxab_B -->
<g id="edge7" class="edge"><title>BigStateMachineTest_smZxab_A&#45;&gt;BigStateMachineTest_smZxab_B</title>
<path fill="none" stroke="black" d="M382,-103.597C382,-91.7459 382,-75.8169 382,-62.2917"/>
<polygon fill="black" stroke="black" points="385.5,-62.084 382,-52.084 378.5,-62.084 385.5,-62.084"/>
<text text-anchor="middle" x="389" y="-74.3" font-family="Times,serif" font-size="14.00">e3</text>
</g>
<!-- BigStateMachineTest_sm_D -->
<g id="node8" class="node"><title>BigStateMachineTest_sm_D</title>
<path fill="none" stroke="black" d="M198,-249C198,-249 150,-249 150,-249 144,-249 138,-243 138,-237 138,-237 138,-225 138,-225 138,-219 144,-213 150,-213 150,-213 198,-213 198,-213 204,-213 210,-219 210,-225 210,-225 210,-237 210,-237 210,-243 204,-249 198,-249"/>
<text text-anchor="middle" x="174" y="-227.3" font-family="Times,serif" font-size="14.00">D</text>
</g>
<!-- BigStateMachineTest_smZxab_A&#45;&gt;BigStateMachineTest_sm_D -->
<g id="edge9" class="edge"><title>BigStateMachineTest_smZxab_A&#45;&gt;BigStateMachineTest_sm_D</title>
<path fill="none" stroke="black" d="M371.851,-140.326C364.49,-151.157 353.479,-164.284 340,-171 296.127,-192.862 275.04,-159.657 230,-179 216.424,-184.83 203.977,-195.367 194.284,-205.356"/>
<polygon fill="black" stroke="black" points="191.63,-203.072 187.435,-212.801 196.782,-207.811 191.63,-203.072"/>
<text text-anchor="middle" x="237" y="-183.3" font-family="Times,serif" font-size="14.00">e5</text>
</g>
<!-- BigStateMachineTest_smZxab_B&#45;&gt;BigStateMachineTest_smGe_G -->
<g id="edge10" class="edge"><title>BigStateMachineTest_smZxab_B&#45;&gt;BigStateMachineTest_smGe_G</title>
<path fill="none" stroke="black" d="M345.544,-34C291.424,-34 189.848,-34 130.464,-34"/>
<polygon fill="black" stroke="black" points="138,-30.5004 128,-34 138,-37.5004 138,-30.5004"/>
<text text-anchor="middle" x="233" y="-40.8" font-family="Times,serif" font-size="14.00">e3</text>
</g>
<!-- BigStateMachineTest_sm_D&#45;&gt;BigStateMachineTest_smZxabZx_X -->
<g id="edge5" class="edge"><title>BigStateMachineTest_sm_D&#45;&gt;BigStateMachineTest_smZxabZx_X</title>
<path fill="none" stroke="black" d="M178.488,-212.729C182.332,-201.409 189.03,-187.232 200,-179 215.199,-167.594 225.115,-179.718 242,-171 253.081,-165.279 263.385,-156.323 271.725,-147.689"/>
<polygon fill="black" stroke="black" points="274.344,-150.011 278.518,-140.274 269.182,-145.283 274.344,-150.011"/>
<text text-anchor="middle" x="207" y="-183.3" font-family="Times,serif" font-size="14.00">e5</text>
</g>
<!-- BigStateMachineTest_sm_D&#45;&gt;BigStateMachineTest_smGe_E -->
<g id="edge17" class="edge"><title>BigStateMachineTest_sm_D&#45;&gt;BigStateMachineTest_smGe_E</title>
<path fill="none" stroke="black" d="M137.812,-226.077C115.939,-221.863 89.0746,-213.124 72,-195 60.6894,-182.994 55.6804,-165.155 53.5035,-150.237"/>
<polygon fill="black" stroke="black" points="56.951,-149.569 52.3693,-140.016 49.9937,-150.341 56.951,-149.569"/>
<text text-anchor="middle" x="79" y="-183.3" font-family="Times,serif" font-size="14.00">e2</text>
</g>
<!-- start_BigStateMachineTest_sm_Ge -->
<g id="node9" class="node"><title>start_BigStateMachineTest_sm_Ge</title>
<ellipse fill="black" stroke="black" cx="113" cy="-122" rx="7.2" ry="7.2"/>
</g>
<!-- start_BigStateMachineTest_sm_Ge&#45;&gt;BigStateMachineTest_smGe_G -->
<g id="edge12" class="edge"><title>start_BigStateMachineTest_sm_Ge&#45;&gt;BigStateMachineTest_smGe_G</title>
<path fill="none" stroke="black" d="M112.775,-114.523C112.259,-104.642 110.563,-85.3338 105,-70 103.923,-67.0315 102.585,-64.0359 101.109,-61.1126"/>
<polygon fill="black" stroke="black" points="104.021,-59.1509 96.0756,-52.1427 97.9167,-62.5764 104.021,-59.1509"/>
</g>
<!-- BigStateMachineTest_smGe_G&#45;&gt;BigStateMachineTest_smZxab_B -->
<g id="edge8" class="edge"><title>BigStateMachineTest_smGe_G&#45;&gt;BigStateMachineTest_smZxab_B</title>
<path fill="none" stroke="black" d="M120.243,-34C174.237,-34 275.807,-34 335.302,-34"/>
<polygon fill="black" stroke="black" points="335.544,-37.5001 345.544,-34 335.544,-30.5001 335.544,-37.5001"/>
<text text-anchor="middle" x="233" y="-40.8" font-family="Times,serif" font-size="14.00">e1</text>
</g>
<!-- BigStateMachineTest_smGe_E&#45;&gt;BigStateMachineTest_smGe_G -->
<g id="edge14" class="edge"><title>BigStateMachineTest_smGe_E&#45;&gt;BigStateMachineTest_smGe_G</title>
<path fill="none" stroke="black" d="M48.4239,-103.874C47.0754,-93.6843 46.7511,-80.6999 51,-70 52.3754,-66.5363 54.2741,-63.2166 56.4717,-60.096"/>
<polygon fill="black" stroke="black" points="59.1987,-62.2903 62.8335,-52.3384 53.786,-57.8515 59.1987,-62.2903"/>
<text text-anchor="middle" x="58" y="-74.3" font-family="Times,serif" font-size="14.00">e1</text>
</g>
<!-- BigStateMachineTest_smGe_E&#45;&gt;BigStateMachineTest_smGe_G -->
<g id="edge15" class="edge"><title>BigStateMachineTest_smGe_E&#45;&gt;BigStateMachineTest_smGe_G</title>
<path fill="none" stroke="black" d="M58.4757,-103.597C62.9726,-91.5112 69.0476,-75.1844 74.1428,-61.4911"/>
<polygon fill="black" stroke="black" points="77.436,-62.6768 77.6432,-52.084 70.8755,-60.2356 77.436,-62.6768"/>
<text text-anchor="middle" x="78" y="-74.3" font-family="Times,serif" font-size="14.00">e2</text>
</g>
</g>
</svg>
