<?xml version="1.0" encoding="UTF-8" standalone="no"?>
<!DOCTYPE svg PUBLIC "-//W3C//DTD SVG 1.1//EN"
 "http://www.w3.org/Graphics/SVG/1.1/DTD/svg11.dtd">
<!-- Generated by graphviz version 2.29.20121108.1600 (20121108.1600)
 -->
<!-- Title: CoordinationStateMachine Pages: 1 -->
<svg width="3883pt" height="558pt"
 viewBox="0.00 0.00 3883.00 558.00" xmlns="http://www.w3.org/2000/svg" xmlns:xlink="http://www.w3.org/1999/xlink">
<g id="graph0" class="graph" transform="scale(1 1) rotate(0) translate(4 554)">
<title>CoordinationStateMachine</title>
<polygon fill="white" stroke="white" points="-4,5 -4,-554 3880,-554 3880,5 -4,5"/>
<g id="clust1" class="cluster"><title>clusterCrisis_crisisCoordinationStage_managingCrisis</title>
<path fill="none" stroke="black" d="M34,-154C34,-154 3855,-154 3855,-154 3861,-154 3867,-160 3867,-166 3867,-166 3867,-530 3867,-530 3867,-536 3861,-542 3855,-542 3855,-542 34,-542 34,-542 28,-542 22,-536 22,-530 22,-530 22,-166 22,-166 22,-160 28,-154 34,-154"/>
<text text-anchor="middle" x="1944.5" y="-524" font-family="Times,serif" font-size="14.00">managingCrisis</text>
</g>
<g id="clust2" class="cluster"><title>clusterCrisis_crisisCoordinationStageCrisisEndManagement_crisisEndManagement</title>
<path fill="none" stroke="black" d="M1530,-170C1530,-170 2198,-170 2198,-170 2204,-170 2210,-176 2210,-182 2210,-182 2210,-466 2210,-466 2210,-472 2204,-478 2198,-478 2198,-478 1530,-478 1530,-478 1524,-478 1518,-472 1518,-466 1518,-466 1518,-182 1518,-182 1518,-176 1524,-170 1530,-170"/>
<text text-anchor="middle" x="1864" y="-460" font-family="Times,serif" font-size="14.00">crisisEndManagement</text>
</g>
<g id="clust3" class="cluster"><title>clusterCrisis_crisisCoordinationStageNegotiatingRoutePlan_negotiatingRoutePlan</title>
<path fill="none" stroke="black" d="M64,-162C64,-162 1498,-162 1498,-162 1504,-162 1510,-168 1510,-174 1510,-174 1510,-498 1510,-498 1510,-504 1504,-510 1498,-510 1498,-510 64,-510 64,-510 58,-510 52,-504 52,-498 52,-498 52,-174 52,-174 52,-168 58,-162 64,-162"/>
<text text-anchor="middle" x="781" y="-492" font-family="Times,serif" font-size="14.00">negotiatingRoutePlan</text>
</g>
<g id="clust4" class="cluster"><title>clusterCrisis_crisisCoordinationStageNegotiatingRoutePlanNegotiation_negotiation</title>
<path fill="none" stroke="black" d="M351,-170C351,-170 1490,-170 1490,-170 1496,-170 1502,-176 1502,-182 1502,-182 1502,-466 1502,-466 1502,-472 1496,-478 1490,-478 1490,-478 351,-478 351,-478 345,-478 339,-472 339,-466 339,-466 339,-182 339,-182 339,-176 345,-170 351,-170"/>
<text text-anchor="middle" x="920.5" y="-460" font-family="Times,serif" font-size="14.00">negotiation</text>
</g>
<g id="clust5" class="cluster"><title>clusterCrisis_crisisCoordinationStageNegotiatingRoutePlanManagingTimeliness_managingTimeliness</title>
<path fill="none" stroke="black" d="M72,-260C72,-260 319,-260 319,-260 325,-260 331,-266 331,-272 331,-272 331,-466 331,-466 331,-472 325,-478 319,-478 319,-478 72,-478 72,-478 66,-478 60,-472 60,-466 60,-466 60,-272 60,-272 60,-266 66,-260 72,-260"/>
<text text-anchor="middle" x="195.5" y="-460" font-family="Times,serif" font-size="14.00">managingTimeliness</text>
</g>
<!-- start_Crisis_crisisCoordinationStage -->
<g id="node1" class="node"><title>start_Crisis_crisisCoordinationStage</title>
<ellipse fill="black" stroke="black" cx="7" cy="-196" rx="7.2" ry="7.2"/>
</g>
<!-- Crisis_crisisCoordinationStage_noCrisis -->
<g id="node2" class="node"><title>Crisis_crisisCoordinationStage_noCrisis</title>
<path fill="none" stroke="black" d="M1735,-126C1735,-126 1687,-126 1687,-126 1681,-126 1675,-120 1675,-114 1675,-114 1675,-102 1675,-102 1675,-96 1681,-90 1687,-90 1687,-90 1735,-90 1735,-90 1741,-90 1747,-96 1747,-102 1747,-102 1747,-114 1747,-114 1747,-120 1741,-126 1735,-126"/>
<text text-anchor="middle" x="1711" y="-102.4" font-family="Times,serif" font-size="14.00">noCrisis</text>
</g>
<!-- start_Crisis_crisisCoordinationStage&#45;&gt;Crisis_crisisCoordinationStage_noCrisis -->
<g id="edge1" class="edge"><title>start_Crisis_crisisCoordinationStage&#45;&gt;Crisis_crisisCoordinationStage_noCrisis</title>
<path fill="none" stroke="black" d="M14.1306,-193.862C49.0668,-188.338 205.704,-164.174 335,-154 855.727,-113.026 1490.14,-109.215 1664.67,-108.977"/>
<polygon fill="black" stroke="black" points="1664.79,-112.477 1674.79,-108.966 1664.79,-105.477 1664.79,-112.477"/>
</g>
<!-- Crisis_crisisCoordinationStage_establishingCommunication -->
<g id="node3" class="node"><title>Crisis_crisisCoordinationStage_establishingCommunication</title>
<path fill="none" stroke="black" d="M2091.32,-36C2091.32,-36 1942.68,-36 1942.68,-36 1936.68,-36 1930.68,-30 1930.68,-24 1930.68,-24 1930.68,-12 1930.68,-12 1930.68,-6 1936.68,-0 1942.68,-0 1942.68,-0 2091.32,-0 2091.32,-0 2097.32,-0 2103.32,-6 2103.32,-12 2103.32,-12 2103.32,-24 2103.32,-24 2103.32,-30 2097.32,-36 2091.32,-36"/>
<text text-anchor="middle" x="2017" y="-12.4" font-family="Times,serif" font-size="14.00">establishingCommunication</text>
</g>
<!-- Crisis_crisisCoordinationStage_noCrisis&#45;&gt;Crisis_crisisCoordinationStage_establishingCommunication -->
<g id="edge4" class="edge"><title>Crisis_crisisCoordinationStage_noCrisis&#45;&gt;Crisis_crisisCoordinationStage_establishingCommunication</title>
<path fill="none" stroke="black" d="M1747.25,-106.818C1792.19,-105.361 1870.3,-98.7405 1931,-72 1942.76,-66.8203 1942.93,-61.1304 1953.62,-54 1960.24,-49.5854 1967.45,-45.2146 1974.57,-41.1358"/>
<polygon fill="black" stroke="black" points="1976.47,-44.0852 1983.48,-36.1441 1973.05,-37.9783 1976.47,-44.0852"/>
<text text-anchor="middle" x="2007.19" y="-57.4" font-family="Times,serif" font-size="14.00">initiateCrisis / {...}</text>
</g>
<!-- Crisis_crisisCoordinationStage_noCrisis&#45;&gt;Crisis_crisisCoordinationStage_establishingCommunication -->
<g id="edge5" class="edge"><title>Crisis_crisisCoordinationStage_noCrisis&#45;&gt;Crisis_crisisCoordinationStage_establishingCommunication</title>
<path fill="none" stroke="black" d="M1747.02,-106.067C1831.96,-103.497 2039.27,-94.9166 2060,-72 2068.44,-62.6671 2062.48,-51.9547 2052.61,-42.6142"/>
<polygon fill="black" stroke="black" points="2054.78,-39.8676 2044.88,-36.0947 2050.26,-45.2181 2054.78,-39.8676"/>
<text text-anchor="middle" x="2143.92" y="-57.4" font-family="Times,serif" font-size="14.00">receiveInitiateCrisisRequest</text>
</g>
<!-- Crisis_crisisCoordinationStage_establishingCommunication&#45;&gt;Crisis_crisisCoordinationStage_noCrisis -->
<g id="edge2" class="edge"><title>Crisis_crisisCoordinationStage_establishingCommunication&#45;&gt;Crisis_crisisCoordinationStage_noCrisis</title>
<path fill="none" stroke="black" d="M1930.34,-22.4723C1839.69,-27.0162 1708.36,-36.5387 1692.68,-54 1685.88,-61.5757 1687.69,-71.8065 1692.21,-81.2589"/>
<polygon fill="black" stroke="black" points="1689.19,-83.0234 1697.19,-89.971 1695.27,-79.5516 1689.19,-83.0234"/>
<text text-anchor="middle" x="1812.16" y="-57.4" font-family="Times,serif" font-size="14.00">after(timeoutInMs) [!isThisSideInitiator()]</text>
</g>
<!-- Crisis_crisisCoordinationStageExchangingDetails_exchangingDetails -->
<g id="node5" class="node"><title>Crisis_crisisCoordinationStageExchangingDetails_exchangingDetails</title>
<path fill="none" stroke="black" d="M2326.14,-394C2326.14,-394 2229.86,-394 2229.86,-394 2223.86,-394 2217.86,-388 2217.86,-382 2217.86,-382 2217.86,-370 2217.86,-370 2217.86,-364 2223.86,-358 2229.86,-358 2229.86,-358 2326.14,-358 2326.14,-358 2332.14,-358 2338.14,-364 2338.14,-370 2338.14,-370 2338.14,-382 2338.14,-382 2338.14,-388 2332.14,-394 2326.14,-394"/>
<text text-anchor="middle" x="2278" y="-370.4" font-family="Times,serif" font-size="14.00">exchangingDetails</text>
</g>
<!-- Crisis_crisisCoordinationStage_establishingCommunication&#45;&gt;Crisis_crisisCoordinationStageExchangingDetails_exchangingDetails -->
<g id="edge6" class="edge"><title>Crisis_crisisCoordinationStage_establishingCommunication&#45;&gt;Crisis_crisisCoordinationStageExchangingDetails_exchangingDetails</title>
<path fill="none" stroke="black" d="M2103.36,-26.9806C2151.36,-32.6671 2205.43,-41.5292 2226,-54 2251.23,-69.3018 2266,-77.4888 2266,-107 2266,-120.324 2266,-132.661 2266,-144.085"/>
<polygon fill="black" stroke="black" points="2262.5,-144.322 2266,-154.322 2269.5,-144.322 2262.5,-144.322"/>
<text text-anchor="middle" x="2345.7" y="-190.4" font-family="Times,serif" font-size="14.00">secureCredentialsConfirmed</text>
</g>
<!-- start_Crisis_exchangingDetails -->
<g id="node4" class="node"><title>start_Crisis_exchangingDetails</title>
<ellipse fill="black" stroke="black" cx="2278" cy="-439" rx="7.2" ry="7.2"/>
</g>
<!-- start_Crisis_exchangingDetails&#45;&gt;Crisis_crisisCoordinationStageExchangingDetails_exchangingDetails -->
<g id="edge7" class="edge"><title>start_Crisis_exchangingDetails&#45;&gt;Crisis_crisisCoordinationStageExchangingDetails_exchangingDetails</title>
<path fill="none" stroke="black" d="M2278,-431.472C2278,-424.902 2278,-414.324 2278,-404.229"/>
<polygon fill="black" stroke="black" points="2281.5,-404.073 2278,-394.073 2274.5,-404.073 2281.5,-404.073"/>
</g>
<!-- Crisis_crisisCoordinationStageExchangingDetails_exchangingDetails&#45;&gt;Crisis_crisisCoordinationStageExchangingDetails_exchangingDetails -->
<g id="edge8" class="edge"><title>Crisis_crisisCoordinationStageExchangingDetails_exchangingDetails&#45;&gt;Crisis_crisisCoordinationStageExchangingDetails_exchangingDetails</title>
<path fill="none" stroke="black" d="M2338.18,-377.406C2348.69,-377.219 2356,-376.75 2356,-376 2356,-375.531 2353.14,-375.172 2348.43,-374.923"/>
<polygon fill="black" stroke="black" points="2348.28,-371.417 2338.18,-374.594 2348.06,-378.413 2348.28,-371.417"/>
<text text-anchor="middle" x="2439.8" y="-370.4" font-family="Times,serif" font-size="14.00">ourUpdateToCrisisData / {...}</text>
</g>
<!-- Crisis_crisisCoordinationStageExchangingDetails_exchangingDetails&#45;&gt;Crisis_crisisCoordinationStageExchangingDetails_exchangingDetails -->
<g id="edge9" class="edge"><title>Crisis_crisisCoordinationStageExchangingDetails_exchangingDetails&#45;&gt;Crisis_crisisCoordinationStageExchangingDetails_exchangingDetails</title>
<path fill="none" stroke="black" d="M2338.1,-378.405C2412.05,-379.692 2523.6,-378.891 2523.6,-376 2523.6,-373.239 2421.85,-372.384 2348.28,-373.434"/>
<polygon fill="black" stroke="black" points="2348.04,-369.937 2338.1,-373.595 2348.15,-376.936 2348.04,-369.937"/>
<text text-anchor="middle" x="2590.77" y="-370.4" font-family="Times,serif" font-size="14.00">receiveCrisisData / {...}</text>
</g>
<!-- Crisis_crisisCoordinationStageExchangingDetails_exchangingDetails&#45;&gt;Crisis_crisisCoordinationStageExchangingDetails_exchangingDetails -->
<g id="edge10" class="edge"><title>Crisis_crisisCoordinationStageExchangingDetails_exchangingDetails&#45;&gt;Crisis_crisisCoordinationStageExchangingDetails_exchangingDetails</title>
<path fill="none" stroke="black" d="M2338.17,-379.036C2447.14,-381.723 2657.94,-380.711 2657.94,-376 2657.94,-371.432 2459.71,-370.342 2348.34,-372.73"/>
<polygon fill="black" stroke="black" points="2348.09,-369.235 2338.17,-372.964 2348.25,-376.233 2348.09,-369.235"/>
<text text-anchor="middle" x="2737.16" y="-370.4" font-family="Times,serif" font-size="14.00">ourVehicleDispatched / {...}</text>
</g>
<!-- Crisis_crisisCoordinationStageExchangingDetails_exchangingDetails&#45;&gt;Crisis_crisisCoordinationStageExchangingDetails_exchangingDetails -->
<g id="edge11" class="edge"><title>Crisis_crisisCoordinationStageExchangingDetails_exchangingDetails&#45;&gt;Crisis_crisisCoordinationStageExchangingDetails_exchangingDetails</title>
<path fill="none" stroke="black" d="M2338.08,-379.485C2480.93,-383.751 2816.39,-382.59 2816.39,-376 2816.39,-369.565 2496.47,-368.306 2348.43,-372.224"/>
<polygon fill="black" stroke="black" points="2347.97,-368.736 2338.08,-372.515 2348.17,-375.733 2347.97,-368.736"/>
<text text-anchor="middle" x="2906.48" y="-370.4" font-family="Times,serif" font-size="14.00">receiveVehicleDispatched / {...}</text>
</g>
<!-- Crisis_crisisCoordinationStageExchangingDetails_exchangingDetails&#45;&gt;Crisis_crisisCoordinationStageExchangingDetails_exchangingDetails -->
<g id="edge12" class="edge"><title>Crisis_crisisCoordinationStageExchangingDetails_exchangingDetails&#45;&gt;Crisis_crisisCoordinationStageExchangingDetails_exchangingDetails</title>
<path fill="none" stroke="black" d="M2338.15,-379.833C2513.98,-385.774 2996.58,-384.496 2996.58,-376 2996.58,-367.662 2531.72,-366.276 2348.25,-371.844"/>
<polygon fill="black" stroke="black" points="2348.04,-368.349 2338.15,-372.167 2348.26,-375.345 2348.04,-368.349"/>
<text text-anchor="middle" x="3066.09" y="-370.4" font-family="Times,serif" font-size="14.00">ourVehicleArrived / {...}</text>
</g>
<!-- Crisis_crisisCoordinationStageExchangingDetails_exchangingDetails&#45;&gt;Crisis_crisisCoordinationStageExchangingDetails_exchangingDetails -->
<g id="edge13" class="edge"><title>Crisis_crisisCoordinationStageExchangingDetails_exchangingDetails&#45;&gt;Crisis_crisisCoordinationStageExchangingDetails_exchangingDetails</title>
<path fill="none" stroke="black" d="M2338.15,-380.223C2536.85,-387.779 3135.59,-386.371 3135.59,-376 3135.59,-365.801 2556.56,-364.27 2348.37,-371.408"/>
<polygon fill="black" stroke="black" points="2348.02,-367.918 2338.15,-371.777 2348.27,-374.914 2348.02,-367.918"/>
<text text-anchor="middle" x="3215.97" y="-370.4" font-family="Times,serif" font-size="14.00">receiveVehicleArrived / {...}</text>
</g>
<!-- Crisis_crisisCoordinationStageExchangingDetails_exchangingDetails&#45;&gt;Crisis_crisisCoordinationStageExchangingDetails_exchangingDetails -->
<g id="edge14" class="edge"><title>Crisis_crisisCoordinationStageExchangingDetails_exchangingDetails&#45;&gt;Crisis_crisisCoordinationStageExchangingDetails_exchangingDetails</title>
<path fill="none" stroke="black" d="M2338.06,-380.532C2560.87,-389.788 3296.34,-388.277 3296.34,-376 3296.34,-363.903 2582.26,-362.259 2348.18,-371.068"/>
<polygon fill="black" stroke="black" points="2347.92,-367.576 2338.06,-371.468 2348.19,-374.57 2347.92,-367.576"/>
<text text-anchor="middle" x="3382.57" y="-370.4" font-family="Times,serif" font-size="14.00">ourVehicleMetObjective / {...}</text>
</g>
<!-- Crisis_crisisCoordinationStageExchangingDetails_exchangingDetails&#45;&gt;Crisis_crisisCoordinationStageExchangingDetails_exchangingDetails -->
<g id="edge15" class="edge"><title>Crisis_crisisCoordinationStageExchangingDetails_exchangingDetails&#45;&gt;Crisis_crisisCoordinationStageExchangingDetails_exchangingDetails</title>
<path fill="none" stroke="black" d="M2338.14,-380.803C2585,-391.796 3468.79,-390.195 3468.79,-376 3468.79,-361.992 2608.15,-360.248 2348.23,-370.768"/>
<polygon fill="black" stroke="black" points="2347.99,-367.276 2338.14,-371.197 2348.28,-374.269 2347.99,-367.276"/>
<text text-anchor="middle" x="3544.89" y="-370.4" font-family="Times,serif" font-size="14.00">receiveMetObjective / {...}</text>
</g>
<!-- Crisis_crisisCoordinationStageExchangingDetails_exchangingDetails&#45;&gt;Crisis_crisisCoordinationStageExchangingDetails_exchangingDetails -->
<g id="edge16" class="edge"><title>Crisis_crisisCoordinationStageExchangingDetails_exchangingDetails&#45;&gt;Crisis_crisisCoordinationStageExchangingDetails_exchangingDetails</title>
<path fill="none" stroke="black" d="M2338.4,-381.095C2605.56,-393.8 3621,-392.102 3621,-376 3621,-360.095 2630.2,-358.244 2348.52,-370.447"/>
<polygon fill="black" stroke="black" points="2348.23,-366.956 2338.4,-370.905 2348.55,-373.949 2348.23,-366.956"/>
<text text-anchor="middle" x="3669.51" y="-370.4" font-family="Times,serif" font-size="14.00">breakdown / {...}</text>
</g>
<!-- start_Crisis_crisisEndManagement -->
<g id="node6" class="node"><title>start_Crisis_crisisEndManagement</title>
<ellipse fill="black" stroke="black" cx="1865" cy="-439" rx="7.2" ry="7.2"/>
</g>
<!-- Crisis_crisisCoordinationStageCrisisEndManagementCrisisEndManagement_ongoingCrisis -->
<g id="node7" class="node"><title>Crisis_crisisCoordinationStageCrisisEndManagementCrisisEndManagement_ongoingCrisis</title>
<path fill="none" stroke="black" d="M1899.93,-394C1899.93,-394 1830.07,-394 1830.07,-394 1824.07,-394 1818.07,-388 1818.07,-382 1818.07,-382 1818.07,-370 1818.07,-370 1818.07,-364 1824.07,-358 1830.07,-358 1830.07,-358 1899.93,-358 1899.93,-358 1905.93,-358 1911.93,-364 1911.93,-370 1911.93,-370 1911.93,-382 1911.93,-382 1911.93,-388 1905.93,-394 1899.93,-394"/>
<text text-anchor="middle" x="1865" y="-370.4" font-family="Times,serif" font-size="14.00">ongoingCrisis</text>
</g>
<!-- start_Crisis_crisisEndManagement&#45;&gt;Crisis_crisisCoordinationStageCrisisEndManagementCrisisEndManagement_ongoingCrisis -->
<g id="edge17" class="edge"><title>start_Crisis_crisisEndManagement&#45;&gt;Crisis_crisisCoordinationStageCrisisEndManagementCrisisEndManagement_ongoingCrisis</title>
<path fill="none" stroke="black" d="M1861.02,-432.799C1858.96,-426.38 1858.05,-414.982 1858.29,-404.153"/>
<polygon fill="black" stroke="black" points="1861.78,-404.311 1858.86,-394.126 1854.79,-403.909 1861.78,-404.311"/>
</g>
<!-- start_Crisis_crisisEndManagement&#45;&gt;Crisis_crisisCoordinationStageCrisisEndManagementCrisisEndManagement_ongoingCrisis -->
<g id="edge18" class="edge"><title>start_Crisis_crisisEndManagement&#45;&gt;Crisis_crisisCoordinationStageCrisisEndManagementCrisisEndManagement_ongoingCrisis</title>
<path fill="none" stroke="black" d="M1868.98,-432.799C1871.04,-426.38 1871.95,-414.982 1871.71,-404.153"/>
<polygon fill="black" stroke="black" points="1875.21,-403.909 1871.14,-394.126 1868.22,-404.311 1875.21,-403.909"/>
</g>
<!-- Crisis_crisisCoordinationStageCrisisEndManagementCrisisEndManagement_waitingForUserTerminationAgreement -->
<g id="node8" class="node"><title>Crisis_crisisCoordinationStageCrisisEndManagementCrisisEndManagement_waitingForUserTerminationAgreement</title>
<path fill="none" stroke="black" d="M1797.22,-304C1797.22,-304 1586.78,-304 1586.78,-304 1580.78,-304 1574.78,-298 1574.78,-292 1574.78,-292 1574.78,-280 1574.78,-280 1574.78,-274 1580.78,-268 1586.78,-268 1586.78,-268 1797.22,-268 1797.22,-268 1803.22,-268 1809.22,-274 1809.22,-280 1809.22,-280 1809.22,-292 1809.22,-292 1809.22,-298 1803.22,-304 1797.22,-304"/>
<text text-anchor="middle" x="1692" y="-280.4" font-family="Times,serif" font-size="14.00">waitingForUserTerminationAgreement</text>
</g>
<!-- Crisis_crisisCoordinationStageCrisisEndManagementCrisisEndManagement_ongoingCrisis&#45;&gt;Crisis_crisisCoordinationStageCrisisEndManagementCrisisEndManagement_waitingForUserTerminationAgreement -->
<g id="edge21" class="edge"><title>Crisis_crisisCoordinationStageCrisisEndManagementCrisisEndManagement_ongoingCrisis&#45;&gt;Crisis_crisisCoordinationStageCrisisEndManagementCrisisEndManagement_waitingForUserTerminationAgreement</title>
<path fill="none" stroke="black" d="M1817.77,-373.321C1732.29,-369.794 1559.08,-360.212 1540.93,-340 1523.74,-320.852 1538.74,-308.621 1564.9,-300.81"/>
<polygon fill="black" stroke="black" points="1565.82,-304.186 1574.58,-298.227 1564.02,-297.422 1565.82,-304.186"/>
<text text-anchor="middle" x="1657.54" y="-325.4" font-family="Times,serif" font-size="14.00">receiveTerminationRequestFromOtherSC</text>
</g>
<!-- Crisis_crisisCoordinationStageCrisisEndManagementCrisisEndManagement_waitingForTerminationConfirmation -->
<g id="node9" class="node"><title>Crisis_crisisCoordinationStageCrisisEndManagementCrisisEndManagement_waitingForTerminationConfirmation</title>
<path fill="none" stroke="black" d="M2035.25,-304C2035.25,-304 1838.75,-304 1838.75,-304 1832.75,-304 1826.75,-298 1826.75,-292 1826.75,-292 1826.75,-280 1826.75,-280 1826.75,-274 1832.75,-268 1838.75,-268 1838.75,-268 2035.25,-268 2035.25,-268 2041.25,-268 2047.25,-274 2047.25,-280 2047.25,-280 2047.25,-292 2047.25,-292 2047.25,-298 2041.25,-304 2035.25,-304"/>
<text text-anchor="middle" x="1937" y="-280.4" font-family="Times,serif" font-size="14.00">waitingForTerminationConfirmation</text>
</g>
<!-- Crisis_crisisCoordinationStageCrisisEndManagementCrisisEndManagement_ongoingCrisis&#45;&gt;Crisis_crisisCoordinationStageCrisisEndManagementCrisisEndManagement_waitingForTerminationConfirmation -->
<g id="edge22" class="edge"><title>Crisis_crisisCoordinationStageCrisisEndManagementCrisisEndManagement_ongoingCrisis&#45;&gt;Crisis_crisisCoordinationStageCrisisEndManagementCrisisEndManagement_waitingForTerminationConfirmation</title>
<path fill="none" stroke="black" d="M1889.25,-357.975C1895.81,-352.681 1902.58,-346.511 1908,-340 1914.6,-332.067 1920.41,-322.401 1925.07,-313.507"/>
<polygon fill="black" stroke="black" points="1928.34,-314.792 1929.64,-304.278 1922.07,-311.682 1928.34,-314.792"/>
<text text-anchor="middle" x="1991.96" y="-325.4" font-family="Times,serif" font-size="14.00">initiateTermination / {...}</text>
</g>
<!-- Crisis_crisisCoordinationStageCrisisEndManagementCrisisEndManagement_waitingForUserTerminationAgreement&#45;&gt;Crisis_crisisCoordinationStageCrisisEndManagementCrisisEndManagement_ongoingCrisis -->
<g id="edge19" class="edge"><title>Crisis_crisisCoordinationStageCrisisEndManagementCrisisEndManagement_waitingForUserTerminationAgreement&#45;&gt;Crisis_crisisCoordinationStageCrisisEndManagementCrisisEndManagement_ongoingCrisis</title>
<path fill="none" stroke="black" d="M1743.17,-304.105C1755.05,-309.07 1767.32,-315.06 1778,-322 1787.67,-328.287 1787.31,-333.298 1796.7,-340 1803.18,-344.626 1810.36,-349 1817.56,-352.987"/>
<polygon fill="black" stroke="black" points="1816.16,-356.207 1826.63,-357.82 1819.45,-350.029 1816.16,-356.207"/>
<text text-anchor="middle" x="1850.65" y="-325.4" font-family="Times,serif" font-size="14.00">after(timeoutInMs)</text>
</g>
<!-- Crisis_crisisCoordinationStageCrisisEndManagementCrisisEndManagement_tearDown -->
<g id="node10" class="node"><title>Crisis_crisisCoordinationStageCrisisEndManagementCrisisEndManagement_tearDown</title>
<path fill="none" stroke="black" d="M1735,-214C1735,-214 1687,-214 1687,-214 1681,-214 1675,-208 1675,-202 1675,-202 1675,-190 1675,-190 1675,-184 1681,-178 1687,-178 1687,-178 1735,-178 1735,-178 1741,-178 1747,-184 1747,-190 1747,-190 1747,-202 1747,-202 1747,-208 1741,-214 1735,-214"/>
<text text-anchor="middle" x="1711" y="-190.4" font-family="Times,serif" font-size="14.00">tearDown</text>
</g>
<!-- Crisis_crisisCoordinationStageCrisisEndManagementCrisisEndManagement_waitingForUserTerminationAgreement&#45;&gt;Crisis_crisisCoordinationStageCrisisEndManagementCrisisEndManagement_tearDown -->
<g id="edge23" class="edge"><title>Crisis_crisisCoordinationStageCrisisEndManagementCrisisEndManagement_waitingForUserTerminationAgreement&#45;&gt;Crisis_crisisCoordinationStageCrisisEndManagementCrisisEndManagement_tearDown</title>
<path fill="none" stroke="black" d="M1695.75,-267.614C1698.43,-255.24 1702.07,-238.369 1705.12,-224.22"/>
<polygon fill="black" stroke="black" points="1708.63,-224.564 1707.32,-214.05 1701.79,-223.086 1708.63,-224.564"/>
<text text-anchor="middle" x="1759.89" y="-235.4" font-family="Times,serif" font-size="14.00">confirmTermination</text>
</g>
<!-- Crisis_crisisCoordinationStageCrisisEndManagementCrisisEndManagement_waitingForTerminationConfirmation&#45;&gt;Crisis_crisisCoordinationStageCrisisEndManagementCrisisEndManagement_ongoingCrisis -->
<g id="edge20" class="edge"><title>Crisis_crisisCoordinationStageCrisisEndManagementCrisisEndManagement_waitingForTerminationConfirmation&#45;&gt;Crisis_crisisCoordinationStageCrisisEndManagementCrisisEndManagement_ongoingCrisis</title>
<path fill="none" stroke="black" d="M2036.76,-304.009C2053.59,-308.858 2067.44,-314.822 2073,-322 2077.9,-328.323 2078.32,-334.03 2073,-340 2051.45,-364.16 1965.34,-352.619 1922.13,-357.326"/>
<polygon fill="black" stroke="black" points="1921.47,-353.887 1912.14,-358.904 1922.56,-360.802 1921.47,-353.887"/>
<text text-anchor="middle" x="2130.65" y="-325.4" font-family="Times,serif" font-size="14.00">after(timeoutInMs)</text>
</g>
<!-- Crisis_crisisCoordinationStageCrisisEndManagementCrisisEndManagement_waitingForTerminationConfirmation&#45;&gt;Crisis_crisisCoordinationStageCrisisEndManagementCrisisEndManagement_tearDown -->
<g id="edge24" class="edge"><title>Crisis_crisisCoordinationStageCrisisEndManagementCrisisEndManagement_waitingForTerminationConfirmation&#45;&gt;Crisis_crisisCoordinationStageCrisisEndManagementCrisisEndManagement_tearDown</title>
<path fill="none" stroke="black" d="M1903.01,-267.95C1879.76,-256.73 1848,-242.274 1819,-232 1792.64,-222.662 1782.69,-223.741 1756.93,-215.824"/>
<polygon fill="black" stroke="black" points="1757.7,-212.393 1747.1,-212.617 1755.52,-219.048 1757.7,-212.393"/>
<text text-anchor="middle" x="1953.65" y="-235.4" font-family="Times,serif" font-size="14.00">receiveTerminationConfirmation</text>
</g>
<!-- Crisis_crisisCoordinationStageCrisisEndManagementCrisisEndManagement_tearDown&#45;&gt;Crisis_crisisCoordinationStage_noCrisis -->
<g id="edge3" class="edge"><title>Crisis_crisisCoordinationStageCrisisEndManagementCrisisEndManagement_tearDown&#45;&gt;Crisis_crisisCoordinationStage_noCrisis</title>
<path fill="none" stroke="black" d="M1711,-177.597C1711,-165.746 1711,-149.817 1711,-136.292"/>
<polygon fill="black" stroke="black" points="1714.5,-136.084 1711,-126.084 1707.5,-136.084 1714.5,-136.084"/>
</g>
<!-- start_Crisis_negotiatingRoutePlan -->
<g id="node11" class="node"><title>start_Crisis_negotiatingRoutePlan</title>
<ellipse fill="black" stroke="black" cx="37" cy="-439" rx="7.2" ry="7.2"/>
</g>
<!-- Crisis_crisisCoordinationStageNegotiatingRoutePlanNegotiationNegotiation_planningRoute -->
<g id="node13" class="node"><title>Crisis_crisisCoordinationStageNegotiatingRoutePlanNegotiationNegotiation_planningRoute</title>
<path fill="none" stroke="black" d="M782.326,-394C782.326,-394 707.674,-394 707.674,-394 701.674,-394 695.674,-388 695.674,-382 695.674,-382 695.674,-370 695.674,-370 695.674,-364 701.674,-358 707.674,-358 707.674,-358 782.326,-358 782.326,-358 788.326,-358 794.326,-364 794.326,-370 794.326,-370 794.326,-382 794.326,-382 794.326,-388 788.326,-394 782.326,-394"/>
<text text-anchor="middle" x="745" y="-370.4" font-family="Times,serif" font-size="14.00">planningRoute</text>
</g>
<!-- start_Crisis_negotiatingRoutePlan&#45;&gt;Crisis_crisisCoordinationStageNegotiatingRoutePlanNegotiationNegotiation_planningRoute -->
<g id="edge25" class="edge"><title>start_Crisis_negotiatingRoutePlan&#45;&gt;Crisis_crisisCoordinationStageNegotiatingRoutePlanNegotiationNegotiation_planningRoute</title>
<path fill="none" stroke="black" d="M43.5873,-435.515C43.6685,-435.487 43.7501,-435.458 43.8322,-435.43"/>
<polygon fill="black" stroke="black" points="43.8435,-439.085 52.388,-432.821 41.8019,-432.39 43.8435,-439.085"/>
</g>
<!-- start_Crisis_negotiation -->
<g id="node12" class="node"><title>start_Crisis_negotiation</title>
<ellipse fill="black" stroke="black" cx="745" cy="-439" rx="7.2" ry="7.2"/>
</g>
<!-- start_Crisis_negotiation&#45;&gt;Crisis_crisisCoordinationStageNegotiatingRoutePlanNegotiationNegotiation_planningRoute -->
<g id="edge26" class="edge"><title>start_Crisis_negotiation&#45;&gt;Crisis_crisisCoordinationStageNegotiatingRoutePlanNegotiationNegotiation_planningRoute</title>
<path fill="none" stroke="black" d="M741.02,-432.799C738.962,-426.38 738.051,-414.982 738.286,-404.153"/>
<polygon fill="black" stroke="black" points="741.783,-404.311 738.863,-394.126 734.794,-403.909 741.783,-404.311"/>
</g>
<!-- start_Crisis_negotiation&#45;&gt;Crisis_crisisCoordinationStageNegotiatingRoutePlanNegotiationNegotiation_planningRoute -->
<g id="edge29" class="edge"><title>start_Crisis_negotiation&#45;&gt;Crisis_crisisCoordinationStageNegotiatingRoutePlanNegotiationNegotiation_planningRoute</title>
<path fill="none" stroke="black" d="M748.98,-432.799C751.038,-426.38 751.949,-414.982 751.714,-404.153"/>
<polygon fill="black" stroke="black" points="755.206,-403.909 751.137,-394.126 748.217,-404.311 755.206,-403.909"/>
</g>
<!-- Crisis_crisisCoordinationStageNegotiatingRoutePlanNegotiationNegotiation_planningRoute&#45;&gt;Crisis_crisisCoordinationStageNegotiatingRoutePlanNegotiationNegotiation_planningRoute -->
<g id="edge27" class="edge"><title>Crisis_crisisCoordinationStageNegotiatingRoutePlanNegotiationNegotiation_planningRoute&#45;&gt;Crisis_crisisCoordinationStageNegotiatingRoutePlanNegotiationNegotiation_planningRoute</title>
<path fill="none" stroke="black" d="M794.377,-379.256C804.628,-378.914 812,-377.828 812,-376 812,-374.857 809.12,-374.005 804.458,-373.443"/>
<polygon fill="black" stroke="black" points="804.595,-369.944 794.377,-372.744 804.111,-376.927 804.595,-369.944"/>
<text text-anchor="middle" x="909.891" y="-370.4" font-family="Times,serif" font-size="14.00">informOfNumberOfVehicles / {...}</text>
</g>
<!-- Crisis_crisisCoordinationStageNegotiatingRoutePlanNegotiationNegotiation_planningRoute&#45;&gt;Crisis_crisisCoordinationStageNegotiatingRoutePlanNegotiationNegotiation_planningRoute -->
<g id="edge30" class="edge"><title>Crisis_crisisCoordinationStageNegotiatingRoutePlanNegotiationNegotiation_planningRoute&#45;&gt;Crisis_crisisCoordinationStageNegotiatingRoutePlanNegotiationNegotiation_planningRoute</title>
<path fill="none" stroke="black" d="M794.402,-380.901C871.751,-384.489 1007.78,-382.855 1007.78,-376 1007.78,-369.439 883.19,-367.661 804.682,-370.666"/>
<polygon fill="black" stroke="black" points="804.245,-367.181 794.402,-371.099 804.54,-374.175 804.245,-367.181"/>
<text text-anchor="middle" x="1115.26" y="-370.4" font-family="Times,serif" font-size="14.00">receiveNumberOfVehicles [isPolice()]</text>
</g>
<!-- Crisis_crisisCoordinationStageNegotiatingRoutePlanNegotiationNegotiation_approvingRoute -->
<g id="node14" class="node"><title>Crisis_crisisCoordinationStageNegotiatingRoutePlanNegotiationNegotiation_approvingRoute</title>
<path fill="none" stroke="black" d="M623.155,-304C623.155,-304 540.845,-304 540.845,-304 534.845,-304 528.845,-298 528.845,-292 528.845,-292 528.845,-280 528.845,-280 528.845,-274 534.845,-268 540.845,-268 540.845,-268 623.155,-268 623.155,-268 629.155,-268 635.155,-274 635.155,-280 635.155,-280 635.155,-292 635.155,-292 635.155,-298 629.155,-304 623.155,-304"/>
<text text-anchor="middle" x="582" y="-280.4" font-family="Times,serif" font-size="14.00">approvingRoute</text>
</g>
<!-- Crisis_crisisCoordinationStageNegotiatingRoutePlanNegotiationNegotiation_planningRoute&#45;&gt;Crisis_crisisCoordinationStageNegotiatingRoutePlanNegotiationNegotiation_approvingRoute -->
<g id="edge32" class="edge"><title>Crisis_crisisCoordinationStageNegotiatingRoutePlanNegotiationNegotiation_planningRoute&#45;&gt;Crisis_crisisCoordinationStageNegotiatingRoutePlanNegotiationNegotiation_approvingRoute</title>
<path fill="none" stroke="black" d="M695.673,-373.751C602.746,-370.887 409.213,-362.287 389.01,-340 383.637,-334.073 383.882,-328.141 389.01,-322 405.395,-302.376 468.954,-293.731 518.711,-289.938"/>
<polygon fill="black" stroke="black" points="519.052,-293.422 528.778,-289.221 518.555,-286.44 519.052,-293.422"/>
<text text-anchor="middle" x="486.995" y="-325.4" font-family="Times,serif" font-size="14.00">receiveRouteProposal [!isPolice()]</text>
</g>
<!-- Crisis_crisisCoordinationStageNegotiatingRoutePlanNegotiationNegotiation_awaitingRouteApproval -->
<g id="node15" class="node"><title>Crisis_crisisCoordinationStageNegotiatingRoutePlanNegotiationNegotiation_awaitingRouteApproval</title>
<path fill="none" stroke="black" d="M1191.89,-304C1191.89,-304 1066.11,-304 1066.11,-304 1060.11,-304 1054.11,-298 1054.11,-292 1054.11,-292 1054.11,-280 1054.11,-280 1054.11,-274 1060.11,-268 1066.11,-268 1066.11,-268 1191.89,-268 1191.89,-268 1197.89,-268 1203.89,-274 1203.89,-280 1203.89,-280 1203.89,-292 1203.89,-292 1203.89,-298 1197.89,-304 1191.89,-304"/>
<text text-anchor="middle" x="1129" y="-280.4" font-family="Times,serif" font-size="14.00">awaitingRouteApproval</text>
</g>
<!-- Crisis_crisisCoordinationStageNegotiatingRoutePlanNegotiationNegotiation_planningRoute&#45;&gt;Crisis_crisisCoordinationStageNegotiatingRoutePlanNegotiationNegotiation_awaitingRouteApproval -->
<g id="edge33" class="edge"><title>Crisis_crisisCoordinationStageNegotiatingRoutePlanNegotiationNegotiation_planningRoute&#45;&gt;Crisis_crisisCoordinationStageNegotiatingRoutePlanNegotiationNegotiation_awaitingRouteApproval</title>
<path fill="none" stroke="black" d="M794.416,-375.176C878.435,-374.642 1044.81,-369.722 1094,-340 1104.33,-333.756 1112.23,-323.159 1117.88,-313.074"/>
<polygon fill="black" stroke="black" points="1121.04,-314.596 1122.45,-304.096 1114.8,-311.422 1121.04,-314.596"/>
<text text-anchor="middle" x="1184.46" y="-325.4" font-family="Times,serif" font-size="14.00">routePlanComplete / {...}</text>
</g>
<!-- Crisis_crisisCoordinationStageNegotiatingRoutePlanNegotiationNegotiation_noRouteAgreement -->
<g id="node17" class="node"><title>Crisis_crisisCoordinationStageNegotiatingRoutePlanNegotiationNegotiation_noRouteAgreement</title>
<path fill="none" stroke="black" d="M909.228,-304C909.228,-304 808.772,-304 808.772,-304 802.772,-304 796.772,-298 796.772,-292 796.772,-292 796.772,-280 796.772,-280 796.772,-274 802.772,-268 808.772,-268 808.772,-268 909.228,-268 909.228,-268 915.228,-268 921.228,-274 921.228,-280 921.228,-280 921.228,-292 921.228,-292 921.228,-298 915.228,-304 909.228,-304"/>
<text text-anchor="middle" x="859" y="-280.4" font-family="Times,serif" font-size="14.00">noRouteAgreement</text>
</g>
<!-- Crisis_crisisCoordinationStageNegotiatingRoutePlanNegotiationNegotiation_planningRoute&#45;&gt;Crisis_crisisCoordinationStageNegotiatingRoutePlanNegotiationNegotiation_noRouteAgreement -->
<g id="edge36" class="edge"><title>Crisis_crisisCoordinationStageNegotiatingRoutePlanNegotiationNegotiation_planningRoute&#45;&gt;Crisis_crisisCoordinationStageNegotiatingRoutePlanNegotiationNegotiation_noRouteAgreement</title>
<path fill="none" stroke="black" d="M740.647,-357.561C738.91,-346.316 738.828,-331.982 746.382,-322 756.306,-308.885 771.09,-300.554 786.708,-295.297"/>
<polygon fill="black" stroke="black" points="787.903,-298.593 796.503,-292.405 785.921,-291.88 787.903,-298.593"/>
<text text-anchor="middle" x="856.809" y="-325.4" font-family="Times,serif" font-size="14.00">receiveNoAgreeableRoute [!isPolice()]</text>
</g>
<!-- Crisis_crisisCoordinationStageNegotiatingRoutePlanNegotiationNegotiation_planningRoute&#45;&gt;Crisis_crisisCoordinationStageNegotiatingRoutePlanNegotiationNegotiation_noRouteAgreement -->
<g id="edge37" class="edge"><title>Crisis_crisisCoordinationStageNegotiatingRoutePlanNegotiationNegotiation_planningRoute&#45;&gt;Crisis_crisisCoordinationStageNegotiatingRoutePlanNegotiationNegotiation_noRouteAgreement</title>
<path fill="none" stroke="black" d="M794.268,-374.357C852.535,-372.429 944.366,-365.329 966,-340 982.148,-321.093 959.677,-308.269 931.23,-299.977"/>
<polygon fill="black" stroke="black" points="931.966,-296.551 921.401,-297.337 930.15,-303.312 931.966,-296.551"/>
<text text-anchor="middle" x="1031.02" y="-325.4" font-family="Times,serif" font-size="14.00">noMoreRoutes / {...}</text>
</g>
<!-- Crisis_crisisCoordinationStageNegotiatingRoutePlanNegotiationNegotiation_approvingRoute&#45;&gt;Crisis_crisisCoordinationStageNegotiatingRoutePlanNegotiationNegotiation_planningRoute -->
<g id="edge28" class="edge"><title>Crisis_crisisCoordinationStageNegotiatingRoutePlanNegotiationNegotiation_approvingRoute&#45;&gt;Crisis_crisisCoordinationStageNegotiatingRoutePlanNegotiationNegotiation_planningRoute</title>
<path fill="none" stroke="black" d="M582.574,-304.086C583.887,-315.766 587.533,-330.749 597.232,-340 610.081,-352.255 650.321,-361.304 685.569,-367.127"/>
<polygon fill="black" stroke="black" points="685.404,-370.645 695.83,-368.758 686.503,-363.732 685.404,-370.645"/>
<text text-anchor="middle" x="667.884" y="-325.4" font-family="Times,serif" font-size="14.00">routeUnacceptable / {...}</text>
</g>
<!-- Crisis_crisisCoordinationStageNegotiatingRoutePlanNegotiationNegotiation_routeAgreed -->
<g id="node16" class="node"><title>Crisis_crisisCoordinationStageNegotiatingRoutePlanNegotiationNegotiation_routeAgreed</title>
<path fill="none" stroke="black" d="M786.475,-214C786.475,-214 725.525,-214 725.525,-214 719.525,-214 713.525,-208 713.525,-202 713.525,-202 713.525,-190 713.525,-190 713.525,-184 719.525,-178 725.525,-178 725.525,-178 786.475,-178 786.475,-178 792.475,-178 798.475,-184 798.475,-190 798.475,-190 798.475,-202 798.475,-202 798.475,-208 792.475,-214 786.475,-214"/>
<text text-anchor="middle" x="756" y="-190.4" font-family="Times,serif" font-size="14.00">routeAgreed</text>
</g>
<!-- Crisis_crisisCoordinationStageNegotiatingRoutePlanNegotiationNegotiation_approvingRoute&#45;&gt;Crisis_crisisCoordinationStageNegotiatingRoutePlanNegotiationNegotiation_routeAgreed -->
<g id="edge34" class="edge"><title>Crisis_crisisCoordinationStageNegotiatingRoutePlanNegotiationNegotiation_approvingRoute&#45;&gt;Crisis_crisisCoordinationStageNegotiatingRoutePlanNegotiationNegotiation_routeAgreed</title>
<path fill="none" stroke="black" d="M615.962,-267.824C643.747,-253.772 683.203,-233.817 713.156,-218.668"/>
<polygon fill="black" stroke="black" points="714.78,-221.769 722.124,-214.133 711.62,-215.523 714.78,-221.769"/>
<text text-anchor="middle" x="748.277" y="-235.4" font-family="Times,serif" font-size="14.00">routeAcceptable / {...}</text>
</g>
<!-- Crisis_crisisCoordinationStageNegotiatingRoutePlanNegotiationNegotiation_awaitingRouteApproval&#45;&gt;Crisis_crisisCoordinationStageNegotiatingRoutePlanNegotiationNegotiation_planningRoute -->
<g id="edge31" class="edge"><title>Crisis_crisisCoordinationStageNegotiatingRoutePlanNegotiationNegotiation_awaitingRouteApproval&#45;&gt;Crisis_crisisCoordinationStageNegotiatingRoutePlanNegotiationNegotiation_planningRoute</title>
<path fill="none" stroke="black" d="M1204.11,-292.672C1251.38,-299.001 1298.94,-312.284 1273,-340 1241.56,-373.592 936.012,-376.043 804.596,-375.52"/>
<polygon fill="black" stroke="black" points="804.328,-372.019 794.312,-375.472 804.295,-379.019 804.328,-372.019"/>
<text text-anchor="middle" x="1380.46" y="-325.4" font-family="Times,serif" font-size="14.00">receiveDisapprovalFromFSC / {...}</text>
</g>
<!-- Crisis_crisisCoordinationStageNegotiatingRoutePlanNegotiationNegotiation_awaitingRouteApproval&#45;&gt;Crisis_crisisCoordinationStageNegotiatingRoutePlanNegotiationNegotiation_routeAgreed -->
<g id="edge35" class="edge"><title>Crisis_crisisCoordinationStageNegotiatingRoutePlanNegotiationNegotiation_awaitingRouteApproval&#45;&gt;Crisis_crisisCoordinationStageNegotiatingRoutePlanNegotiationNegotiation_routeAgreed</title>
<path fill="none" stroke="black" d="M1056.64,-267.928C983.842,-250.754 873.346,-224.685 808.541,-209.396"/>
<polygon fill="black" stroke="black" points="809.082,-205.927 798.545,-207.037 807.474,-212.74 809.082,-205.927"/>
<text text-anchor="middle" x="1050.27" y="-235.4" font-family="Times,serif" font-size="14.00">receiveApprovalFromFSC</text>
</g>
<!-- start_Crisis_managingTimeliness -->
<g id="node18" class="node"><title>start_Crisis_managingTimeliness</title>
<ellipse fill="black" stroke="black" cx="120" cy="-439" rx="7.2" ry="7.2"/>
</g>
<!-- Crisis_crisisCoordinationStageNegotiatingRoutePlanManagingTimelinessManagingTimeliness_timeAcceptable -->
<g id="node19" class="node"><title>Crisis_crisisCoordinationStageNegotiatingRoutePlanManagingTimelinessManagingTimeliness_timeAcceptable</title>
<path fill="none" stroke="black" d="M159.382,-394C159.382,-394 80.6178,-394 80.6178,-394 74.6178,-394 68.6178,-388 68.6178,-382 68.6178,-382 68.6178,-370 68.6178,-370 68.6178,-364 74.6178,-358 80.6178,-358 80.6178,-358 159.382,-358 159.382,-358 165.382,-358 171.382,-364 171.382,-370 171.382,-370 171.382,-382 171.382,-382 171.382,-388 165.382,-394 159.382,-394"/>
<text text-anchor="middle" x="120" y="-370.4" font-family="Times,serif" font-size="14.00">timeAcceptable</text>
</g>
<!-- start_Crisis_managingTimeliness&#45;&gt;Crisis_crisisCoordinationStageNegotiatingRoutePlanManagingTimelinessManagingTimeliness_timeAcceptable -->
<g id="edge38" class="edge"><title>start_Crisis_managingTimeliness&#45;&gt;Crisis_crisisCoordinationStageNegotiatingRoutePlanManagingTimelinessManagingTimeliness_timeAcceptable</title>
<path fill="none" stroke="black" d="M116.02,-432.799C113.962,-426.38 113.051,-414.982 113.286,-404.153"/>
<polygon fill="black" stroke="black" points="116.783,-404.311 113.863,-394.126 109.794,-403.909 116.783,-404.311"/>
</g>
<!-- start_Crisis_managingTimeliness&#45;&gt;Crisis_crisisCoordinationStageNegotiatingRoutePlanManagingTimelinessManagingTimeliness_timeAcceptable -->
<g id="edge39" class="edge"><title>start_Crisis_managingTimeliness&#45;&gt;Crisis_crisisCoordinationStageNegotiatingRoutePlanManagingTimelinessManagingTimeliness_timeAcceptable</title>
<path fill="none" stroke="black" d="M123.98,-432.799C126.038,-426.38 126.949,-414.982 126.714,-404.153"/>
<polygon fill="black" stroke="black" points="130.206,-403.909 126.137,-394.126 123.217,-404.311 130.206,-403.909"/>
</g>
<!-- Crisis_crisisCoordinationStageNegotiatingRoutePlanManagingTimelinessManagingTimeliness_timeUnacceptable -->
<g id="node20" class="node"><title>Crisis_crisisCoordinationStageNegotiatingRoutePlanManagingTimelinessManagingTimeliness_timeUnacceptable</title>
<path fill="none" stroke="black" d="M173.292,-304C173.292,-304 80.7084,-304 80.7084,-304 74.7084,-304 68.7084,-298 68.7084,-292 68.7084,-292 68.7084,-280 68.7084,-280 68.7084,-274 74.7084,-268 80.7084,-268 80.7084,-268 173.292,-268 173.292,-268 179.292,-268 185.292,-274 185.292,-280 185.292,-280 185.292,-292 185.292,-292 185.292,-298 179.292,-304 173.292,-304"/>
<text text-anchor="middle" x="127" y="-280.4" font-family="Times,serif" font-size="14.00">timeUnacceptable</text>
</g>
<!-- Crisis_crisisCoordinationStageNegotiatingRoutePlanManagingTimelinessManagingTimeliness_timeAcceptable&#45;&gt;Crisis_crisisCoordinationStageNegotiatingRoutePlanManagingTimelinessManagingTimeliness_timeUnacceptable -->
<g id="edge40" class="edge"><title>Crisis_crisisCoordinationStageNegotiatingRoutePlanManagingTimelinessManagingTimeliness_timeAcceptable&#45;&gt;Crisis_crisisCoordinationStageNegotiatingRoutePlanManagingTimelinessManagingTimeliness_timeUnacceptable</title>
<path fill="none" stroke="black" d="M106.121,-357.973C99.4318,-347.657 93.7144,-334.18 98.0938,-322 99.3037,-318.635 100.993,-315.363 102.953,-312.258"/>
<polygon fill="black" stroke="black" points="105.918,-314.134 109.024,-304.004 100.279,-309.986 105.918,-314.134"/>
<text text-anchor="middle" x="217.453" y="-325.4" font-family="Times,serif" font-size="14.00">after(timeoutInMs) [!isRouteAgreedYet()]</text>
</g>
</g>
</svg>
