<?xml version="1.0" encoding="UTF-8" standalone="no"?>
<!DOCTYPE svg PUBLIC "-//W3C//DTD SVG 1.1//EN"
 "http://www.w3.org/Graphics/SVG/1.1/DTD/svg11.dtd">
<!-- Generated by graphviz version 2.29.20121108.1600 (20121108.1600)
 -->
<!-- Title: CoordinationStateMachine Pages: 1 -->
<svg width="3951pt" height="558pt"
 viewBox="0.00 0.00 3951.00 558.00" xmlns="http://www.w3.org/2000/svg" xmlns:xlink="http://www.w3.org/1999/xlink">
<g id="graph0" class="graph" transform="scale(1 1) rotate(0) translate(4 554)">
<title>CoordinationStateMachine</title>
<polygon fill="white" stroke="white" points="-4,5 -4,-554 3948,-554 3948,5 -4,5"/>
<g id="clust1" class="cluster"><title>clusterCrisis_crisisCoordinationStage_managingCrisis</title>
<path fill="none" stroke="black" d="M34,-154C34,-154 3923,-154 3923,-154 3929,-154 3935,-160 3935,-166 3935,-166 3935,-530 3935,-530 3935,-536 3929,-542 3923,-542 3923,-542 34,-542 34,-542 28,-542 22,-536 22,-530 22,-530 22,-166 22,-166 22,-160 28,-154 34,-154"/>
<text text-anchor="middle" x="1978.5" y="-524" font-family="Times,serif" font-size="14.00">managingCrisis</text>
</g>
<g id="clust2" class="cluster"><title>clusterCrisis_crisisCoordinationStageCrisisEndManagement_crisisEndManagement</title>
<path fill="none" stroke="black" d="M1598,-170C1598,-170 2266,-170 2266,-170 2272,-170 2278,-176 2278,-182 2278,-182 2278,-466 2278,-466 2278,-472 2272,-478 2266,-478 2266,-478 1598,-478 1598,-478 1592,-478 1586,-472 1586,-466 1586,-466 1586,-182 1586,-182 1586,-176 1592,-170 1598,-170"/>
<text text-anchor="middle" x="1932" y="-460" font-family="Times,serif" font-size="14.00">crisisEndManagement</text>
</g>
<g id="clust3" class="cluster"><title>clusterCrisis_crisisCoordinationStageNegotiatingRoutePlan_negotiatingRoutePlan</title>
<path fill="none" stroke="black" d="M66,-162C66,-162 1544,-162 1544,-162 1550,-162 1556,-168 1556,-174 1556,-174 1556,-498 1556,-498 1556,-504 1550,-510 1544,-510 1544,-510 66,-510 66,-510 60,-510 54,-504 54,-498 54,-498 54,-174 54,-174 54,-168 60,-162 66,-162"/>
<text text-anchor="middle" x="805" y="-492" font-family="Times,serif" font-size="14.00">negotiatingRoutePlan</text>
</g>
<g id="clust4" class="cluster"><title>clusterCrisis_crisisCoordinationStageNegotiatingRoutePlanNegotiation_negotiation</title>
<path fill="none" stroke="black" d="M397,-170C397,-170 1536,-170 1536,-170 1542,-170 1548,-176 1548,-182 1548,-182 1548,-466 1548,-466 1548,-472 1542,-478 1536,-478 1536,-478 397,-478 397,-478 391,-478 385,-472 385,-466 385,-466 385,-182 385,-182 385,-176 391,-170 397,-170"/>
<text text-anchor="middle" x="966.5" y="-460" font-family="Times,serif" font-size="14.00">negotiation</text>
</g>
<g id="clust5" class="cluster"><title>clusterCrisis_crisisCoordinationStageNegotiatingRoutePlanManagingTimeliness_managingTimeliness</title>
<path fill="none" stroke="black" d="M96,-260C96,-260 343,-260 343,-260 349,-260 355,-266 355,-272 355,-272 355,-466 355,-466 355,-472 349,-478 343,-478 343,-478 96,-478 96,-478 90,-478 84,-472 84,-466 84,-466 84,-272 84,-272 84,-266 90,-260 96,-260"/>
<text text-anchor="middle" x="219.5" y="-460" font-family="Times,serif" font-size="14.00">managingTimeliness</text>
</g>
<!-- start_Crisis_crisisCoordinationStage -->
<g id="node1" class="node"><title>start_Crisis_crisisCoordinationStage</title>
<ellipse fill="black" stroke="black" cx="7" cy="-196" rx="7.2" ry="7.2"/>
</g>
<!-- Crisis_crisisCoordinationStage_noCrisis -->
<g id="node2" class="node"><title>Crisis_crisisCoordinationStage_noCrisis</title>
<path fill="none" stroke="black" d="M1803,-126C1803,-126 1755,-126 1755,-126 1749,-126 1743,-120 1743,-114 1743,-114 1743,-102 1743,-102 1743,-96 1749,-90 1755,-90 1755,-90 1803,-90 1803,-90 1809,-90 1815,-96 1815,-102 1815,-102 1815,-114 1815,-114 1815,-120 1809,-126 1803,-126"/>
<text text-anchor="middle" x="1779" y="-102.4" font-family="Times,serif" font-size="14.00">noCrisis</text>
</g>
<!-- start_Crisis_crisisCoordinationStage&#45;&gt;Crisis_crisisCoordinationStage_noCrisis -->
<g id="edge1" class="edge"><title>start_Crisis_crisisCoordinationStage&#45;&gt;Crisis_crisisCoordinationStage_noCrisis</title>
<path fill="none" stroke="black" d="M14.1121,-194.013C51.8416,-188.823 232.443,-164.518 381,-154 910.947,-116.479 1556.14,-110.223 1732.55,-109.198"/>
<polygon fill="black" stroke="black" points="1732.79,-112.697 1742.77,-109.141 1732.75,-105.697 1732.79,-112.697"/>
</g>
<!-- Crisis_crisisCoordinationStage_establishingCommunication -->
<g id="node3" class="node"><title>Crisis_crisisCoordinationStage_establishingCommunication</title>
<path fill="none" stroke="black" d="M2159.32,-36C2159.32,-36 2010.68,-36 2010.68,-36 2004.68,-36 1998.68,-30 1998.68,-24 1998.68,-24 1998.68,-12 1998.68,-12 1998.68,-6 2004.68,-0 2010.68,-0 2010.68,-0 2159.32,-0 2159.32,-0 2165.32,-0 2171.32,-6 2171.32,-12 2171.32,-12 2171.32,-24 2171.32,-24 2171.32,-30 2165.32,-36 2159.32,-36"/>
<text text-anchor="middle" x="2085" y="-12.4" font-family="Times,serif" font-size="14.00">establishingCommunication</text>
</g>
<!-- Crisis_crisisCoordinationStage_noCrisis&#45;&gt;Crisis_crisisCoordinationStage_establishingCommunication -->
<g id="edge4" class="edge"><title>Crisis_crisisCoordinationStage_noCrisis&#45;&gt;Crisis_crisisCoordinationStage_establishingCommunication</title>
<path fill="none" stroke="black" d="M1815.25,-106.818C1860.19,-105.361 1938.3,-98.7405 1999,-72 2010.76,-66.8203 2010.93,-61.1304 2021.62,-54 2028.24,-49.5854 2035.45,-45.2146 2042.57,-41.1358"/>
<polygon fill="black" stroke="black" points="2044.47,-44.0852 2051.48,-36.1441 2041.05,-37.9783 2044.47,-44.0852"/>
<text text-anchor="middle" x="2075.19" y="-57.4" font-family="Times,serif" font-size="14.00">initiateCrisis / {...}</text>
</g>
<!-- Crisis_crisisCoordinationStage_noCrisis&#45;&gt;Crisis_crisisCoordinationStage_establishingCommunication -->
<g id="edge5" class="edge"><title>Crisis_crisisCoordinationStage_noCrisis&#45;&gt;Crisis_crisisCoordinationStage_establishingCommunication</title>
<path fill="none" stroke="black" d="M1815.02,-106.067C1899.96,-103.497 2107.27,-94.9166 2128,-72 2136.44,-62.6671 2130.48,-51.9547 2120.61,-42.6142"/>
<polygon fill="black" stroke="black" points="2122.78,-39.8676 2112.88,-36.0947 2118.26,-45.2181 2122.78,-39.8676"/>
<text text-anchor="middle" x="2211.92" y="-57.4" font-family="Times,serif" font-size="14.00">receiveInitiateCrisisRequest</text>
</g>
<!-- Crisis_crisisCoordinationStage_establishingCommunication&#45;&gt;Crisis_crisisCoordinationStage_noCrisis -->
<g id="edge2" class="edge"><title>Crisis_crisisCoordinationStage_establishingCommunication&#45;&gt;Crisis_crisisCoordinationStage_noCrisis</title>
<path fill="none" stroke="black" d="M1998.34,-22.4723C1907.69,-27.0162 1776.36,-36.5387 1760.68,-54 1753.88,-61.5757 1755.69,-71.8065 1760.21,-81.2589"/>
<polygon fill="black" stroke="black" points="1757.19,-83.0234 1765.19,-89.971 1763.27,-79.5516 1757.19,-83.0234"/>
<text text-anchor="middle" x="1880.16" y="-57.4" font-family="Times,serif" font-size="14.00">after(timeoutInMs) [!isThisSideInitiator()]</text>
</g>
<!-- Crisis_crisisCoordinationStageExchangingDetails_exchangingDetails -->
<g id="node5" class="node"><title>Crisis_crisisCoordinationStageExchangingDetails_exchangingDetails</title>
<path fill="none" stroke="black" d="M2394.14,-394C2394.14,-394 2297.86,-394 2297.86,-394 2291.86,-394 2285.86,-388 2285.86,-382 2285.86,-382 2285.86,-370 2285.86,-370 2285.86,-364 2291.86,-358 2297.86,-358 2297.86,-358 2394.14,-358 2394.14,-358 2400.14,-358 2406.14,-364 2406.14,-370 2406.14,-370 2406.14,-382 2406.14,-382 2406.14,-388 2400.14,-394 2394.14,-394"/>
<text text-anchor="middle" x="2346" y="-370.4" font-family="Times,serif" font-size="14.00">exchangingDetails</text>
</g>
<!-- Crisis_crisisCoordinationStage_establishingCommunication&#45;&gt;Crisis_crisisCoordinationStageExchangingDetails_exchangingDetails -->
<g id="edge6" class="edge"><title>Crisis_crisisCoordinationStage_establishingCommunication&#45;&gt;Crisis_crisisCoordinationStageExchangingDetails_exchangingDetails</title>
<path fill="none" stroke="black" d="M2171.36,-26.9806C2219.36,-32.6671 2273.43,-41.5292 2294,-54 2319.23,-69.3018 2334,-77.4888 2334,-107 2334,-120.324 2334,-132.661 2334,-144.085"/>
<polygon fill="black" stroke="black" points="2330.5,-144.322 2334,-154.322 2337.5,-144.322 2330.5,-144.322"/>
<text text-anchor="middle" x="2413.7" y="-190.4" font-family="Times,serif" font-size="14.00">secureCredentialsConfirmed</text>
</g>
<!-- start_Crisis_crisisCoordinationStage_exchangingDetails -->
<g id="node4" class="node"><title>start_Crisis_crisisCoordinationStage_exchangingDetails</title>
<ellipse fill="black" stroke="black" cx="2346" cy="-439" rx="7.2" ry="7.2"/>
</g>
<!-- start_Crisis_crisisCoordinationStage_exchangingDetails&#45;&gt;Crisis_crisisCoordinationStageExchangingDetails_exchangingDetails -->
<g id="edge7" class="edge"><title>start_Crisis_crisisCoordinationStage_exchangingDetails&#45;&gt;Crisis_crisisCoordinationStageExchangingDetails_exchangingDetails</title>
<path fill="none" stroke="black" d="M2346,-431.472C2346,-424.902 2346,-414.324 2346,-404.229"/>
<polygon fill="black" stroke="black" points="2349.5,-404.073 2346,-394.073 2342.5,-404.073 2349.5,-404.073"/>
</g>
<!-- Crisis_crisisCoordinationStageExchangingDetails_exchangingDetails&#45;&gt;Crisis_crisisCoordinationStageExchangingDetails_exchangingDetails -->
<g id="edge8" class="edge"><title>Crisis_crisisCoordinationStageExchangingDetails_exchangingDetails&#45;&gt;Crisis_crisisCoordinationStageExchangingDetails_exchangingDetails</title>
<path fill="none" stroke="black" d="M2406.18,-377.406C2416.69,-377.219 2424,-376.75 2424,-376 2424,-375.531 2421.14,-375.172 2416.43,-374.923"/>
<polygon fill="black" stroke="black" points="2416.28,-371.417 2406.18,-374.594 2416.06,-378.413 2416.28,-371.417"/>
<text text-anchor="middle" x="2507.8" y="-370.4" font-family="Times,serif" font-size="14.00">ourUpdateToCrisisData / {...}</text>
</g>
<!-- Crisis_crisisCoordinationStageExchangingDetails_exchangingDetails&#45;&gt;Crisis_crisisCoordinationStageExchangingDetails_exchangingDetails -->
<g id="edge9" class="edge"><title>Crisis_crisisCoordinationStageExchangingDetails_exchangingDetails&#45;&gt;Crisis_crisisCoordinationStageExchangingDetails_exchangingDetails</title>
<path fill="none" stroke="black" d="M2406.1,-378.405C2480.05,-379.692 2591.6,-378.891 2591.6,-376 2591.6,-373.239 2489.85,-372.384 2416.28,-373.434"/>
<polygon fill="black" stroke="black" points="2416.04,-369.937 2406.1,-373.595 2416.15,-376.936 2416.04,-369.937"/>
<text text-anchor="middle" x="2658.77" y="-370.4" font-family="Times,serif" font-size="14.00">receiveCrisisData / {...}</text>
</g>
<!-- Crisis_crisisCoordinationStageExchangingDetails_exchangingDetails&#45;&gt;Crisis_crisisCoordinationStageExchangingDetails_exchangingDetails -->
<g id="edge10" class="edge"><title>Crisis_crisisCoordinationStageExchangingDetails_exchangingDetails&#45;&gt;Crisis_crisisCoordinationStageExchangingDetails_exchangingDetails</title>
<path fill="none" stroke="black" d="M2406.17,-379.036C2515.14,-381.723 2725.94,-380.711 2725.94,-376 2725.94,-371.432 2527.71,-370.342 2416.34,-372.73"/>
<polygon fill="black" stroke="black" points="2416.09,-369.235 2406.17,-372.964 2416.25,-376.233 2416.09,-369.235"/>
<text text-anchor="middle" x="2805.16" y="-370.4" font-family="Times,serif" font-size="14.00">ourVehicleDispatched / {...}</text>
</g>
<!-- Crisis_crisisCoordinationStageExchangingDetails_exchangingDetails&#45;&gt;Crisis_crisisCoordinationStageExchangingDetails_exchangingDetails -->
<g id="edge11" class="edge"><title>Crisis_crisisCoordinationStageExchangingDetails_exchangingDetails&#45;&gt;Crisis_crisisCoordinationStageExchangingDetails_exchangingDetails</title>
<path fill="none" stroke="black" d="M2406.08,-379.485C2548.93,-383.751 2884.39,-382.59 2884.39,-376 2884.39,-369.565 2564.47,-368.306 2416.43,-372.224"/>
<polygon fill="black" stroke="black" points="2415.97,-368.736 2406.08,-372.515 2416.17,-375.733 2415.97,-368.736"/>
<text text-anchor="middle" x="2974.48" y="-370.4" font-family="Times,serif" font-size="14.00">receiveVehicleDispatched / {...}</text>
</g>
<!-- Crisis_crisisCoordinationStageExchangingDetails_exchangingDetails&#45;&gt;Crisis_crisisCoordinationStageExchangingDetails_exchangingDetails -->
<g id="edge12" class="edge"><title>Crisis_crisisCoordinationStageExchangingDetails_exchangingDetails&#45;&gt;Crisis_crisisCoordinationStageExchangingDetails_exchangingDetails</title>
<path fill="none" stroke="black" d="M2406.15,-379.833C2581.98,-385.774 3064.58,-384.496 3064.58,-376 3064.58,-367.662 2599.72,-366.276 2416.25,-371.844"/>
<polygon fill="black" stroke="black" points="2416.04,-368.349 2406.15,-372.167 2416.26,-375.345 2416.04,-368.349"/>
<text text-anchor="middle" x="3134.09" y="-370.4" font-family="Times,serif" font-size="14.00">ourVehicleArrived / {...}</text>
</g>
<!-- Crisis_crisisCoordinationStageExchangingDetails_exchangingDetails&#45;&gt;Crisis_crisisCoordinationStageExchangingDetails_exchangingDetails -->
<g id="edge13" class="edge"><title>Crisis_crisisCoordinationStageExchangingDetails_exchangingDetails&#45;&gt;Crisis_crisisCoordinationStageExchangingDetails_exchangingDetails</title>
<path fill="none" stroke="black" d="M2406.15,-380.223C2604.85,-387.779 3203.59,-386.371 3203.59,-376 3203.59,-365.801 2624.56,-364.27 2416.37,-371.408"/>
<polygon fill="black" stroke="black" points="2416.02,-367.918 2406.15,-371.777 2416.27,-374.914 2416.02,-367.918"/>
<text text-anchor="middle" x="3283.97" y="-370.4" font-family="Times,serif" font-size="14.00">receiveVehicleArrived / {...}</text>
</g>
<!-- Crisis_crisisCoordinationStageExchangingDetails_exchangingDetails&#45;&gt;Crisis_crisisCoordinationStageExchangingDetails_exchangingDetails -->
<g id="edge14" class="edge"><title>Crisis_crisisCoordinationStageExchangingDetails_exchangingDetails&#45;&gt;Crisis_crisisCoordinationStageExchangingDetails_exchangingDetails</title>
<path fill="none" stroke="black" d="M2406.06,-380.532C2628.87,-389.788 3364.34,-388.277 3364.34,-376 3364.34,-363.903 2650.26,-362.259 2416.18,-371.068"/>
<polygon fill="black" stroke="black" points="2415.92,-367.576 2406.06,-371.468 2416.19,-374.57 2415.92,-367.576"/>
<text text-anchor="middle" x="3450.57" y="-370.4" font-family="Times,serif" font-size="14.00">ourVehicleMetObjective / {...}</text>
</g>
<!-- Crisis_crisisCoordinationStageExchangingDetails_exchangingDetails&#45;&gt;Crisis_crisisCoordinationStageExchangingDetails_exchangingDetails -->
<g id="edge15" class="edge"><title>Crisis_crisisCoordinationStageExchangingDetails_exchangingDetails&#45;&gt;Crisis_crisisCoordinationStageExchangingDetails_exchangingDetails</title>
<path fill="none" stroke="black" d="M2406.14,-380.803C2653,-391.796 3536.79,-390.195 3536.79,-376 3536.79,-361.992 2676.15,-360.248 2416.23,-370.768"/>
<polygon fill="black" stroke="black" points="2415.99,-367.276 2406.14,-371.197 2416.28,-374.269 2415.99,-367.276"/>
<text text-anchor="middle" x="3612.89" y="-370.4" font-family="Times,serif" font-size="14.00">receiveMetObjective / {...}</text>
</g>
<!-- Crisis_crisisCoordinationStageExchangingDetails_exchangingDetails&#45;&gt;Crisis_crisisCoordinationStageExchangingDetails_exchangingDetails -->
<g id="edge16" class="edge"><title>Crisis_crisisCoordinationStageExchangingDetails_exchangingDetails&#45;&gt;Crisis_crisisCoordinationStageExchangingDetails_exchangingDetails</title>
<path fill="none" stroke="black" d="M2406.4,-381.095C2673.56,-393.8 3689,-392.102 3689,-376 3689,-360.095 2698.2,-358.244 2416.52,-370.447"/>
<polygon fill="black" stroke="black" points="2416.23,-366.956 2406.4,-370.905 2416.55,-373.949 2416.23,-366.956"/>
<text text-anchor="middle" x="3737.51" y="-370.4" font-family="Times,serif" font-size="14.00">breakdown / {...}</text>
</g>
<!-- start_Crisis_crisisCoordinationStage_crisisEndManagement -->
<g id="node6" class="node"><title>start_Crisis_crisisCoordinationStage_crisisEndManagement</title>
<ellipse fill="black" stroke="black" cx="1571" cy="-439" rx="7.2" ry="7.2"/>
</g>
<!-- Crisis_crisisCoordinationStageCrisisEndManagementCrisisEndManagement_ongoingCrisis -->
<g id="node8" class="node"><title>Crisis_crisisCoordinationStageCrisisEndManagementCrisisEndManagement_ongoingCrisis</title>
<path fill="none" stroke="black" d="M1902.93,-394C1902.93,-394 1833.07,-394 1833.07,-394 1827.07,-394 1821.07,-388 1821.07,-382 1821.07,-382 1821.07,-370 1821.07,-370 1821.07,-364 1827.07,-358 1833.07,-358 1833.07,-358 1902.93,-358 1902.93,-358 1908.93,-358 1914.93,-364 1914.93,-370 1914.93,-370 1914.93,-382 1914.93,-382 1914.93,-388 1908.93,-394 1902.93,-394"/>
<text text-anchor="middle" x="1868" y="-370.4" font-family="Times,serif" font-size="14.00">ongoingCrisis</text>
</g>
<!-- start_Crisis_crisisCoordinationStage_crisisEndManagement&#45;&gt;Crisis_crisisCoordinationStageCrisisEndManagementCrisisEndManagement_ongoingCrisis -->
<g id="edge17" class="edge"><title>start_Crisis_crisisCoordinationStage_crisisEndManagement&#45;&gt;Crisis_crisisCoordinationStageCrisisEndManagementCrisisEndManagement_ongoingCrisis</title>
<path fill="none" stroke="black" d="M1576.67,-434.475C1576.77,-434.418 1576.88,-434.361 1576.98,-434.303"/>
<polygon fill="black" stroke="black" points="1578.15,-437.609 1586.06,-430.561 1575.48,-431.137 1578.15,-437.609"/>
</g>
<!-- start_Crisis_crisisCoordinationStage_crisisEndManagement_crisisEndManagement -->
<g id="node7" class="node"><title>start_Crisis_crisisCoordinationStage_crisisEndManagement_crisisEndManagement</title>
<ellipse fill="black" stroke="black" cx="1868" cy="-439" rx="7.2" ry="7.2"/>
</g>
<!-- start_Crisis_crisisCoordinationStage_crisisEndManagement_crisisEndManagement&#45;&gt;Crisis_crisisCoordinationStageCrisisEndManagementCrisisEndManagement_ongoingCrisis -->
<g id="edge18" class="edge"><title>start_Crisis_crisisCoordinationStage_crisisEndManagement_crisisEndManagement&#45;&gt;Crisis_crisisCoordinationStageCrisisEndManagementCrisisEndManagement_ongoingCrisis</title>
<path fill="none" stroke="black" d="M1868,-431.472C1868,-424.902 1868,-414.324 1868,-404.229"/>
<polygon fill="black" stroke="black" points="1871.5,-404.073 1868,-394.073 1864.5,-404.073 1871.5,-404.073"/>
</g>
<!-- Crisis_crisisCoordinationStageCrisisEndManagementCrisisEndManagement_waitingForUserTerminationAgreement -->
<g id="node9" class="node"><title>Crisis_crisisCoordinationStageCrisisEndManagementCrisisEndManagement_waitingForUserTerminationAgreement</title>
<path fill="none" stroke="black" d="M1865.22,-304C1865.22,-304 1654.78,-304 1654.78,-304 1648.78,-304 1642.78,-298 1642.78,-292 1642.78,-292 1642.78,-280 1642.78,-280 1642.78,-274 1648.78,-268 1654.78,-268 1654.78,-268 1865.22,-268 1865.22,-268 1871.22,-268 1877.22,-274 1877.22,-280 1877.22,-280 1877.22,-292 1877.22,-292 1877.22,-298 1871.22,-304 1865.22,-304"/>
<text text-anchor="middle" x="1760" y="-280.4" font-family="Times,serif" font-size="14.00">waitingForUserTerminationAgreement</text>
</g>
<!-- Crisis_crisisCoordinationStageCrisisEndManagementCrisisEndManagement_ongoingCrisis&#45;&gt;Crisis_crisisCoordinationStageCrisisEndManagementCrisisEndManagement_waitingForUserTerminationAgreement -->
<g id="edge21" class="edge"><title>Crisis_crisisCoordinationStageCrisisEndManagementCrisisEndManagement_ongoingCrisis&#45;&gt;Crisis_crisisCoordinationStageCrisisEndManagementCrisisEndManagement_waitingForUserTerminationAgreement</title>
<path fill="none" stroke="black" d="M1821,-375.711C1753.95,-375.605 1635.92,-370.885 1608.93,-340 1591.99,-320.624 1607.07,-308.33 1633.21,-300.531"/>
<polygon fill="black" stroke="black" points="1634.13,-303.91 1642.89,-297.956 1632.32,-297.146 1634.13,-303.91"/>
<text text-anchor="middle" x="1725.54" y="-325.4" font-family="Times,serif" font-size="14.00">receiveTerminationRequestFromOtherSC</text>
</g>
<!-- Crisis_crisisCoordinationStageCrisisEndManagementCrisisEndManagement_waitingForTerminationConfirmation -->
<g id="node10" class="node"><title>Crisis_crisisCoordinationStageCrisisEndManagementCrisisEndManagement_waitingForTerminationConfirmation</title>
<path fill="none" stroke="black" d="M2103.25,-304C2103.25,-304 1906.75,-304 1906.75,-304 1900.75,-304 1894.75,-298 1894.75,-292 1894.75,-292 1894.75,-280 1894.75,-280 1894.75,-274 1900.75,-268 1906.75,-268 1906.75,-268 2103.25,-268 2103.25,-268 2109.25,-268 2115.25,-274 2115.25,-280 2115.25,-280 2115.25,-292 2115.25,-292 2115.25,-298 2109.25,-304 2103.25,-304"/>
<text text-anchor="middle" x="2005" y="-280.4" font-family="Times,serif" font-size="14.00">waitingForTerminationConfirmation</text>
</g>
<!-- Crisis_crisisCoordinationStageCrisisEndManagementCrisisEndManagement_ongoingCrisis&#45;&gt;Crisis_crisisCoordinationStageCrisisEndManagementCrisisEndManagement_waitingForTerminationConfirmation -->
<g id="edge22" class="edge"><title>Crisis_crisisCoordinationStageCrisisEndManagementCrisisEndManagement_ongoingCrisis&#45;&gt;Crisis_crisisCoordinationStageCrisisEndManagementCrisisEndManagement_waitingForTerminationConfirmation</title>
<path fill="none" stroke="black" d="M1915.16,-359.185C1941.29,-350.362 1968.77,-340.953 1970,-340 1979.18,-332.889 1986.74,-322.657 1992.44,-313.076"/>
<polygon fill="black" stroke="black" points="1995.57,-314.657 1997.34,-304.212 1989.44,-311.27 1995.57,-314.657"/>
<text text-anchor="middle" x="2057.96" y="-325.4" font-family="Times,serif" font-size="14.00">initiateTermination / {...}</text>
</g>
<!-- Crisis_crisisCoordinationStageCrisisEndManagementCrisisEndManagement_waitingForUserTerminationAgreement&#45;&gt;Crisis_crisisCoordinationStageCrisisEndManagementCrisisEndManagement_ongoingCrisis -->
<g id="edge19" class="edge"><title>Crisis_crisisCoordinationStageCrisisEndManagementCrisisEndManagement_waitingForUserTerminationAgreement&#45;&gt;Crisis_crisisCoordinationStageCrisisEndManagementCrisisEndManagement_ongoingCrisis</title>
<path fill="none" stroke="black" d="M1819.77,-304.047C1829.36,-308.727 1838.57,-314.617 1846,-322 1853.16,-329.114 1858.1,-338.902 1861.46,-348.131"/>
<polygon fill="black" stroke="black" points="1858.15,-349.293 1864.5,-357.774 1864.83,-347.184 1858.15,-349.293"/>
<text text-anchor="middle" x="1912.65" y="-325.4" font-family="Times,serif" font-size="14.00">after(timeoutInMs)</text>
</g>
<!-- Crisis_crisisCoordinationStageCrisisEndManagementCrisisEndManagement_tearDown -->
<g id="node11" class="node"><title>Crisis_crisisCoordinationStageCrisisEndManagementCrisisEndManagement_tearDown</title>
<path fill="none" stroke="black" d="M1803,-214C1803,-214 1755,-214 1755,-214 1749,-214 1743,-208 1743,-202 1743,-202 1743,-190 1743,-190 1743,-184 1749,-178 1755,-178 1755,-178 1803,-178 1803,-178 1809,-178 1815,-184 1815,-190 1815,-190 1815,-202 1815,-202 1815,-208 1809,-214 1803,-214"/>
<text text-anchor="middle" x="1779" y="-190.4" font-family="Times,serif" font-size="14.00">tearDown</text>
</g>
<!-- Crisis_crisisCoordinationStageCrisisEndManagementCrisisEndManagement_waitingForUserTerminationAgreement&#45;&gt;Crisis_crisisCoordinationStageCrisisEndManagementCrisisEndManagement_tearDown -->
<g id="edge23" class="edge"><title>Crisis_crisisCoordinationStageCrisisEndManagementCrisisEndManagement_waitingForUserTerminationAgreement&#45;&gt;Crisis_crisisCoordinationStageCrisisEndManagementCrisisEndManagement_tearDown</title>
<path fill="none" stroke="black" d="M1763.75,-267.614C1766.43,-255.24 1770.07,-238.369 1773.12,-224.22"/>
<polygon fill="black" stroke="black" points="1776.63,-224.564 1775.32,-214.05 1769.79,-223.086 1776.63,-224.564"/>
<text text-anchor="middle" x="1827.89" y="-235.4" font-family="Times,serif" font-size="14.00">confirmTermination</text>
</g>
<!-- Crisis_crisisCoordinationStageCrisisEndManagementCrisisEndManagement_waitingForTerminationConfirmation&#45;&gt;Crisis_crisisCoordinationStageCrisisEndManagementCrisisEndManagement_ongoingCrisis -->
<g id="edge20" class="edge"><title>Crisis_crisisCoordinationStageCrisisEndManagementCrisisEndManagement_waitingForTerminationConfirmation&#45;&gt;Crisis_crisisCoordinationStageCrisisEndManagementCrisisEndManagement_ongoingCrisis</title>
<path fill="none" stroke="black" d="M2104.76,-304.009C2121.59,-308.858 2135.44,-314.822 2141,-322 2145.9,-328.323 2146.42,-334.119 2141,-340 2125.63,-356.665 1972.49,-353.75 1925.26,-357.598"/>
<polygon fill="black" stroke="black" points="1924.62,-354.15 1915.13,-358.847 1925.48,-361.097 1924.62,-354.15"/>
<text text-anchor="middle" x="2198.65" y="-325.4" font-family="Times,serif" font-size="14.00">after(timeoutInMs)</text>
</g>
<!-- Crisis_crisisCoordinationStageCrisisEndManagementCrisisEndManagement_waitingForTerminationConfirmation&#45;&gt;Crisis_crisisCoordinationStageCrisisEndManagementCrisisEndManagement_tearDown -->
<g id="edge24" class="edge"><title>Crisis_crisisCoordinationStageCrisisEndManagementCrisisEndManagement_waitingForTerminationConfirmation&#45;&gt;Crisis_crisisCoordinationStageCrisisEndManagementCrisisEndManagement_tearDown</title>
<path fill="none" stroke="black" d="M1971.01,-267.95C1947.76,-256.73 1916,-242.274 1887,-232 1860.64,-222.662 1850.69,-223.741 1824.93,-215.824"/>
<polygon fill="black" stroke="black" points="1825.7,-212.393 1815.1,-212.617 1823.52,-219.048 1825.7,-212.393"/>
<text text-anchor="middle" x="2021.65" y="-235.4" font-family="Times,serif" font-size="14.00">receiveTerminationConfirmation</text>
</g>
<!-- Crisis_crisisCoordinationStageCrisisEndManagementCrisisEndManagement_tearDown&#45;&gt;Crisis_crisisCoordinationStage_noCrisis -->
<g id="edge3" class="edge"><title>Crisis_crisisCoordinationStageCrisisEndManagementCrisisEndManagement_tearDown&#45;&gt;Crisis_crisisCoordinationStage_noCrisis</title>
<path fill="none" stroke="black" d="M1779,-177.597C1779,-165.746 1779,-149.817 1779,-136.292"/>
<polygon fill="black" stroke="black" points="1782.5,-136.084 1779,-126.084 1775.5,-136.084 1782.5,-136.084"/>
</g>
<!-- start_Crisis_crisisCoordinationStage_negotiatingRoutePlan -->
<g id="node12" class="node"><title>start_Crisis_crisisCoordinationStage_negotiatingRoutePlan</title>
<ellipse fill="black" stroke="black" cx="37" cy="-439" rx="7.2" ry="7.2"/>
</g>
<!-- Crisis_crisisCoordinationStageNegotiatingRoutePlanNegotiationNegotiation_planningRoute -->
<g id="node15" class="node"><title>Crisis_crisisCoordinationStageNegotiatingRoutePlanNegotiationNegotiation_planningRoute</title>
<path fill="none" stroke="black" d="M746.326,-394C746.326,-394 671.674,-394 671.674,-394 665.674,-394 659.674,-388 659.674,-382 659.674,-382 659.674,-370 659.674,-370 659.674,-364 665.674,-358 671.674,-358 671.674,-358 746.326,-358 746.326,-358 752.326,-358 758.326,-364 758.326,-370 758.326,-370 758.326,-382 758.326,-382 758.326,-388 752.326,-394 746.326,-394"/>
<text text-anchor="middle" x="709" y="-370.4" font-family="Times,serif" font-size="14.00">planningRoute</text>
</g>
<!-- start_Crisis_crisisCoordinationStage_negotiatingRoutePlan&#45;&gt;Crisis_crisisCoordinationStageNegotiatingRoutePlanNegotiationNegotiation_planningRoute -->
<g id="edge25" class="edge"><title>start_Crisis_crisisCoordinationStage_negotiatingRoutePlan&#45;&gt;Crisis_crisisCoordinationStageNegotiatingRoutePlanNegotiationNegotiation_planningRoute</title>
<path fill="none" stroke="black" d="M40.2476,-432.453C41.9335,-429.822 44.2283,-426.553 47.0194,-423.322"/>
<polygon fill="black" stroke="black" points="49.6455,-425.65 54.3796,-416.172 44.768,-420.629 49.6455,-425.65"/>
</g>
<!-- start_Crisis_crisisCoordinationStage_negotiatingRoutePlan_negotiation -->
<g id="node13" class="node"><title>start_Crisis_crisisCoordinationStage_negotiatingRoutePlan_negotiation</title>
<ellipse fill="black" stroke="black" cx="370" cy="-439" rx="7.2" ry="7.2"/>
</g>
<!-- start_Crisis_crisisCoordinationStage_negotiatingRoutePlan_negotiation&#45;&gt;Crisis_crisisCoordinationStageNegotiatingRoutePlanNegotiationNegotiation_planningRoute -->
<g id="edge26" class="edge"><title>start_Crisis_crisisCoordinationStage_negotiatingRoutePlan_negotiation&#45;&gt;Crisis_crisisCoordinationStageNegotiatingRoutePlanNegotiationNegotiation_planningRoute</title>
<path fill="none" stroke="black" d="M375.657,-434.447C375.761,-434.39 375.866,-434.333 375.973,-434.275"/>
<polygon fill="black" stroke="black" points="377.283,-437.521 385.258,-430.546 374.674,-431.025 377.283,-437.521"/>
</g>
<!-- start_Crisis_crisisCoordinationStage_negotiatingRoutePlan_negotiation_negotiation -->
<g id="node14" class="node"><title>start_Crisis_crisisCoordinationStage_negotiatingRoutePlan_negotiation_negotiation</title>
<ellipse fill="black" stroke="black" cx="709" cy="-439" rx="7.2" ry="7.2"/>
</g>
<!-- start_Crisis_crisisCoordinationStage_negotiatingRoutePlan_negotiation_negotiation&#45;&gt;Crisis_crisisCoordinationStageNegotiatingRoutePlanNegotiationNegotiation_planningRoute -->
<g id="edge29" class="edge"><title>start_Crisis_crisisCoordinationStage_negotiatingRoutePlan_negotiation_negotiation&#45;&gt;Crisis_crisisCoordinationStageNegotiatingRoutePlanNegotiationNegotiation_planningRoute</title>
<path fill="none" stroke="black" d="M709,-431.472C709,-424.902 709,-414.324 709,-404.229"/>
<polygon fill="black" stroke="black" points="712.5,-404.073 709,-394.073 705.5,-404.073 712.5,-404.073"/>
</g>
<!-- Crisis_crisisCoordinationStageNegotiatingRoutePlanNegotiationNegotiation_planningRoute&#45;&gt;Crisis_crisisCoordinationStageNegotiatingRoutePlanNegotiationNegotiation_planningRoute -->
<g id="edge27" class="edge"><title>Crisis_crisisCoordinationStageNegotiatingRoutePlanNegotiationNegotiation_planningRoute&#45;&gt;Crisis_crisisCoordinationStageNegotiatingRoutePlanNegotiationNegotiation_planningRoute</title>
<path fill="none" stroke="black" d="M758.377,-379.256C768.628,-378.914 776,-377.828 776,-376 776,-374.857 773.12,-374.005 768.458,-373.443"/>
<polygon fill="black" stroke="black" points="768.595,-369.944 758.377,-372.744 768.111,-376.927 768.595,-369.944"/>
<text text-anchor="middle" x="873.891" y="-370.4" font-family="Times,serif" font-size="14.00">informOfNumberOfVehicles / {...}</text>
</g>
<!-- Crisis_crisisCoordinationStageNegotiatingRoutePlanNegotiationNegotiation_planningRoute&#45;&gt;Crisis_crisisCoordinationStageNegotiatingRoutePlanNegotiationNegotiation_planningRoute -->
<g id="edge30" class="edge"><title>Crisis_crisisCoordinationStageNegotiatingRoutePlanNegotiationNegotiation_planningRoute&#45;&gt;Crisis_crisisCoordinationStageNegotiatingRoutePlanNegotiationNegotiation_planningRoute</title>
<path fill="none" stroke="black" d="M758.402,-380.901C835.751,-384.489 971.781,-382.855 971.781,-376 971.781,-369.439 847.19,-367.661 768.682,-370.666"/>
<polygon fill="black" stroke="black" points="768.245,-367.181 758.402,-371.099 768.54,-374.175 768.245,-367.181"/>
<text text-anchor="middle" x="1079.26" y="-370.4" font-family="Times,serif" font-size="14.00">receiveNumberOfVehicles [isPolice()]</text>
</g>
<!-- Crisis_crisisCoordinationStageNegotiatingRoutePlanNegotiationNegotiation_approvingRoute -->
<g id="node16" class="node"><title>Crisis_crisisCoordinationStageNegotiatingRoutePlanNegotiationNegotiation_approvingRoute</title>
<path fill="none" stroke="black" d="M669.155,-304C669.155,-304 586.845,-304 586.845,-304 580.845,-304 574.845,-298 574.845,-292 574.845,-292 574.845,-280 574.845,-280 574.845,-274 580.845,-268 586.845,-268 586.845,-268 669.155,-268 669.155,-268 675.155,-268 681.155,-274 681.155,-280 681.155,-280 681.155,-292 681.155,-292 681.155,-298 675.155,-304 669.155,-304"/>
<text text-anchor="middle" x="628" y="-280.4" font-family="Times,serif" font-size="14.00">approvingRoute</text>
</g>
<!-- Crisis_crisisCoordinationStageNegotiatingRoutePlanNegotiationNegotiation_planningRoute&#45;&gt;Crisis_crisisCoordinationStageNegotiatingRoutePlanNegotiationNegotiation_approvingRoute -->
<g id="edge32" class="edge"><title>Crisis_crisisCoordinationStageNegotiatingRoutePlanNegotiationNegotiation_planningRoute&#45;&gt;Crisis_crisisCoordinationStageNegotiatingRoutePlanNegotiationNegotiation_approvingRoute</title>
<path fill="none" stroke="black" d="M659.583,-372.394C582.589,-367.822 441.194,-357.178 426.01,-340 420.711,-334.006 420.858,-328.121 426.01,-322 443.52,-301.195 512.098,-292.757 564.538,-289.334"/>
<polygon fill="black" stroke="black" points="565.021,-292.812 574.791,-288.715 564.598,-285.825 565.021,-292.812"/>
<text text-anchor="middle" x="523.995" y="-325.4" font-family="Times,serif" font-size="14.00">receiveRouteProposal [!isPolice()]</text>
</g>
<!-- Crisis_crisisCoordinationStageNegotiatingRoutePlanNegotiationNegotiation_awaitingRouteApproval -->
<g id="node17" class="node"><title>Crisis_crisisCoordinationStageNegotiatingRoutePlanNegotiationNegotiation_awaitingRouteApproval</title>
<path fill="none" stroke="black" d="M1237.89,-304C1237.89,-304 1112.11,-304 1112.11,-304 1106.11,-304 1100.11,-298 1100.11,-292 1100.11,-292 1100.11,-280 1100.11,-280 1100.11,-274 1106.11,-268 1112.11,-268 1112.11,-268 1237.89,-268 1237.89,-268 1243.89,-268 1249.89,-274 1249.89,-280 1249.89,-280 1249.89,-292 1249.89,-292 1249.89,-298 1243.89,-304 1237.89,-304"/>
<text text-anchor="middle" x="1175" y="-280.4" font-family="Times,serif" font-size="14.00">awaitingRouteApproval</text>
</g>
<!-- Crisis_crisisCoordinationStageNegotiatingRoutePlanNegotiationNegotiation_planningRoute&#45;&gt;Crisis_crisisCoordinationStageNegotiatingRoutePlanNegotiationNegotiation_awaitingRouteApproval -->
<g id="edge33" class="edge"><title>Crisis_crisisCoordinationStageNegotiatingRoutePlanNegotiationNegotiation_planningRoute&#45;&gt;Crisis_crisisCoordinationStageNegotiatingRoutePlanNegotiationNegotiation_awaitingRouteApproval</title>
<path fill="none" stroke="black" d="M758.405,-373.409C864.637,-369.642 1107.81,-359.037 1140,-340 1150.39,-333.854 1158.3,-323.271 1163.94,-313.171"/>
<polygon fill="black" stroke="black" points="1167.1,-314.674 1168.5,-304.171 1160.86,-311.513 1167.1,-314.674"/>
<text text-anchor="middle" x="1230.46" y="-325.4" font-family="Times,serif" font-size="14.00">routePlanComplete / {...}</text>
</g>
<!-- Crisis_crisisCoordinationStageNegotiatingRoutePlanNegotiationNegotiation_noRouteAgreement -->
<g id="node19" class="node"><title>Crisis_crisisCoordinationStageNegotiatingRoutePlanNegotiationNegotiation_noRouteAgreement</title>
<path fill="none" stroke="black" d="M955.228,-304C955.228,-304 854.772,-304 854.772,-304 848.772,-304 842.772,-298 842.772,-292 842.772,-292 842.772,-280 842.772,-280 842.772,-274 848.772,-268 854.772,-268 854.772,-268 955.228,-268 955.228,-268 961.228,-268 967.228,-274 967.228,-280 967.228,-280 967.228,-292 967.228,-292 967.228,-298 961.228,-304 955.228,-304"/>
<text text-anchor="middle" x="905" y="-280.4" font-family="Times,serif" font-size="14.00">noRouteAgreement</text>
</g>
<!-- Crisis_crisisCoordinationStageNegotiatingRoutePlanNegotiationNegotiation_planningRoute&#45;&gt;Crisis_crisisCoordinationStageNegotiatingRoutePlanNegotiationNegotiation_noRouteAgreement -->
<g id="edge36" class="edge"><title>Crisis_crisisCoordinationStageNegotiatingRoutePlanNegotiationNegotiation_planningRoute&#45;&gt;Crisis_crisisCoordinationStageNegotiatingRoutePlanNegotiationNegotiation_noRouteAgreement</title>
<path fill="none" stroke="black" d="M739.988,-357.935C749.456,-352.453 759.794,-346.192 769,-340 779.882,-332.681 780.741,-328.041 792.382,-322 805.08,-315.41 819.237,-309.81 833.109,-305.151"/>
<polygon fill="black" stroke="black" points="834.204,-308.475 842.647,-302.074 832.055,-301.813 834.204,-308.475"/>
<text text-anchor="middle" x="902.809" y="-325.4" font-family="Times,serif" font-size="14.00">receiveNoAgreeableRoute [!isPolice()]</text>
</g>
<!-- Crisis_crisisCoordinationStageNegotiatingRoutePlanNegotiationNegotiation_planningRoute&#45;&gt;Crisis_crisisCoordinationStageNegotiatingRoutePlanNegotiationNegotiation_noRouteAgreement -->
<g id="edge37" class="edge"><title>Crisis_crisisCoordinationStageNegotiatingRoutePlanNegotiationNegotiation_planningRoute&#45;&gt;Crisis_crisisCoordinationStageNegotiatingRoutePlanNegotiationNegotiation_noRouteAgreement</title>
<path fill="none" stroke="black" d="M758.274,-372.837C839.794,-368.747 995.442,-358.581 1012,-340 1028.6,-321.367 1005.93,-308.538 977.243,-300.175"/>
<polygon fill="black" stroke="black" points="977.899,-296.727 967.333,-297.508 976.08,-303.487 977.899,-296.727"/>
<text text-anchor="middle" x="1077.02" y="-325.4" font-family="Times,serif" font-size="14.00">noMoreRoutes / {...}</text>
</g>
<!-- Crisis_crisisCoordinationStageNegotiatingRoutePlanNegotiationNegotiation_approvingRoute&#45;&gt;Crisis_crisisCoordinationStageNegotiatingRoutePlanNegotiationNegotiation_planningRoute -->
<g id="edge28" class="edge"><title>Crisis_crisisCoordinationStageNegotiatingRoutePlanNegotiationNegotiation_approvingRoute&#45;&gt;Crisis_crisisCoordinationStageNegotiatingRoutePlanNegotiationNegotiation_planningRoute</title>
<path fill="none" stroke="black" d="M623.966,-304.164C622.353,-315.293 622.265,-329.601 629.232,-340 634.605,-348.019 642.257,-354.216 650.719,-358.999"/>
<polygon fill="black" stroke="black" points="649.254,-362.179 659.767,-363.49 652.366,-355.909 649.254,-362.179"/>
<text text-anchor="middle" x="699.884" y="-325.4" font-family="Times,serif" font-size="14.00">routeUnacceptable / {...}</text>
</g>
<!-- Crisis_crisisCoordinationStageNegotiatingRoutePlanNegotiationNegotiation_routeAgreed -->
<g id="node18" class="node"><title>Crisis_crisisCoordinationStageNegotiatingRoutePlanNegotiationNegotiation_routeAgreed</title>
<path fill="none" stroke="black" d="M832.475,-214C832.475,-214 771.525,-214 771.525,-214 765.525,-214 759.525,-208 759.525,-202 759.525,-202 759.525,-190 759.525,-190 759.525,-184 765.525,-178 771.525,-178 771.525,-178 832.475,-178 832.475,-178 838.475,-178 844.475,-184 844.475,-190 844.475,-190 844.475,-202 844.475,-202 844.475,-208 838.475,-214 832.475,-214"/>
<text text-anchor="middle" x="802" y="-190.4" font-family="Times,serif" font-size="14.00">routeAgreed</text>
</g>
<!-- Crisis_crisisCoordinationStageNegotiatingRoutePlanNegotiationNegotiation_approvingRoute&#45;&gt;Crisis_crisisCoordinationStageNegotiatingRoutePlanNegotiationNegotiation_routeAgreed -->
<g id="edge34" class="edge"><title>Crisis_crisisCoordinationStageNegotiatingRoutePlanNegotiationNegotiation_approvingRoute&#45;&gt;Crisis_crisisCoordinationStageNegotiatingRoutePlanNegotiationNegotiation_routeAgreed</title>
<path fill="none" stroke="black" d="M661.962,-267.824C689.747,-253.772 729.203,-233.817 759.156,-218.668"/>
<polygon fill="black" stroke="black" points="760.78,-221.769 768.124,-214.133 757.62,-215.523 760.78,-221.769"/>
<text text-anchor="middle" x="794.277" y="-235.4" font-family="Times,serif" font-size="14.00">routeAcceptable / {...}</text>
</g>
<!-- Crisis_crisisCoordinationStageNegotiatingRoutePlanNegotiationNegotiation_awaitingRouteApproval&#45;&gt;Crisis_crisisCoordinationStageNegotiatingRoutePlanNegotiationNegotiation_planningRoute -->
<g id="edge31" class="edge"><title>Crisis_crisisCoordinationStageNegotiatingRoutePlanNegotiationNegotiation_awaitingRouteApproval&#45;&gt;Crisis_crisisCoordinationStageNegotiatingRoutePlanNegotiationNegotiation_planningRoute</title>
<path fill="none" stroke="black" d="M1250.19,-292.74C1297.49,-299.104 1345.06,-312.399 1319,-340 1300.29,-359.818 918.299,-370.377 768.518,-373.768"/>
<polygon fill="black" stroke="black" points="768.062,-370.277 758.143,-373.999 768.219,-377.275 768.062,-370.277"/>
<text text-anchor="middle" x="1426.46" y="-325.4" font-family="Times,serif" font-size="14.00">receiveDisapprovalFromFSC / {...}</text>
</g>
<!-- Crisis_crisisCoordinationStageNegotiatingRoutePlanNegotiationNegotiation_awaitingRouteApproval&#45;&gt;Crisis_crisisCoordinationStageNegotiatingRoutePlanNegotiationNegotiation_routeAgreed -->
<g id="edge35" class="edge"><title>Crisis_crisisCoordinationStageNegotiatingRoutePlanNegotiationNegotiation_awaitingRouteApproval&#45;&gt;Crisis_crisisCoordinationStageNegotiatingRoutePlanNegotiationNegotiation_routeAgreed</title>
<path fill="none" stroke="black" d="M1102.64,-267.928C1029.84,-250.754 919.346,-224.685 854.541,-209.396"/>
<polygon fill="black" stroke="black" points="855.082,-205.927 844.545,-207.037 853.474,-212.74 855.082,-205.927"/>
<text text-anchor="middle" x="1096.27" y="-235.4" font-family="Times,serif" font-size="14.00">receiveApprovalFromFSC</text>
</g>
<!-- start_Crisis_crisisCoordinationStage_negotiatingRoutePlan_managingTimeliness -->
<g id="node20" class="node"><title>start_Crisis_crisisCoordinationStage_negotiatingRoutePlan_managingTimeliness</title>
<ellipse fill="black" stroke="black" cx="69" cy="-439" rx="7.2" ry="7.2"/>
</g>
<!-- Crisis_crisisCoordinationStageNegotiatingRoutePlanManagingTimelinessManagingTimeliness_timeAcceptable -->
<g id="node22" class="node"><title>Crisis_crisisCoordinationStageNegotiatingRoutePlanManagingTimelinessManagingTimeliness_timeAcceptable</title>
<path fill="none" stroke="black" d="M183.382,-394C183.382,-394 104.618,-394 104.618,-394 98.6178,-394 92.6178,-388 92.6178,-382 92.6178,-382 92.6178,-370 92.6178,-370 92.6178,-364 98.6178,-358 104.618,-358 104.618,-358 183.382,-358 183.382,-358 189.382,-358 195.382,-364 195.382,-370 195.382,-370 195.382,-382 195.382,-382 195.382,-388 189.382,-394 183.382,-394"/>
<text text-anchor="middle" x="144" y="-370.4" font-family="Times,serif" font-size="14.00">timeAcceptable</text>
</g>
<!-- start_Crisis_crisisCoordinationStage_negotiatingRoutePlan_managingTimeliness&#45;&gt;Crisis_crisisCoordinationStageNegotiatingRoutePlanManagingTimelinessManagingTimeliness_timeAcceptable -->
<g id="edge38" class="edge"><title>start_Crisis_crisisCoordinationStage_negotiatingRoutePlan_managingTimeliness&#45;&gt;Crisis_crisisCoordinationStageNegotiatingRoutePlanManagingTimelinessManagingTimeliness_timeAcceptable</title>
<path fill="none" stroke="black" d="M74.3938,-433.613C75.0536,-433.076 75.7652,-432.498 76.5237,-431.881"/>
<polygon fill="black" stroke="black" points="78.9329,-434.433 84.4824,-425.408 74.516,-429.002 78.9329,-434.433"/>
</g>
<!-- start_Crisis_crisisCoordinationStage_negotiatingRoutePlan_managingTimeliness_managingTimeliness -->
<g id="node21" class="node"><title>start_Crisis_crisisCoordinationStage_negotiatingRoutePlan_managingTimeliness_managingTimeliness</title>
<ellipse fill="black" stroke="black" cx="144" cy="-439" rx="7.2" ry="7.2"/>
</g>
<!-- start_Crisis_crisisCoordinationStage_negotiatingRoutePlan_managingTimeliness_managingTimeliness&#45;&gt;Crisis_crisisCoordinationStageNegotiatingRoutePlanManagingTimelinessManagingTimeliness_timeAcceptable -->
<g id="edge39" class="edge"><title>start_Crisis_crisisCoordinationStage_negotiatingRoutePlan_managingTimeliness_managingTimeliness&#45;&gt;Crisis_crisisCoordinationStageNegotiatingRoutePlanManagingTimelinessManagingTimeliness_timeAcceptable</title>
<path fill="none" stroke="black" d="M144,-431.472C144,-424.902 144,-414.324 144,-404.229"/>
<polygon fill="black" stroke="black" points="147.5,-404.073 144,-394.073 140.5,-404.073 147.5,-404.073"/>
</g>
<!-- Crisis_crisisCoordinationStageNegotiatingRoutePlanManagingTimelinessManagingTimeliness_timeUnacceptable -->
<g id="node23" class="node"><title>Crisis_crisisCoordinationStageNegotiatingRoutePlanManagingTimelinessManagingTimeliness_timeUnacceptable</title>
<path fill="none" stroke="black" d="M197.292,-304C197.292,-304 104.708,-304 104.708,-304 98.7084,-304 92.7084,-298 92.7084,-292 92.7084,-292 92.7084,-280 92.7084,-280 92.7084,-274 98.7084,-268 104.708,-268 104.708,-268 197.292,-268 197.292,-268 203.292,-268 209.292,-274 209.292,-280 209.292,-280 209.292,-292 209.292,-292 209.292,-298 203.292,-304 197.292,-304"/>
<text text-anchor="middle" x="151" y="-280.4" font-family="Times,serif" font-size="14.00">timeUnacceptable</text>
</g>
<!-- Crisis_crisisCoordinationStageNegotiatingRoutePlanManagingTimelinessManagingTimeliness_timeAcceptable&#45;&gt;Crisis_crisisCoordinationStageNegotiatingRoutePlanManagingTimelinessManagingTimeliness_timeUnacceptable -->
<g id="edge40" class="edge"><title>Crisis_crisisCoordinationStageNegotiatingRoutePlanManagingTimelinessManagingTimeliness_timeAcceptable&#45;&gt;Crisis_crisisCoordinationStageNegotiatingRoutePlanManagingTimelinessManagingTimeliness_timeUnacceptable</title>
<path fill="none" stroke="black" d="M143.193,-357.772C142.914,-347.385 142.92,-333.904 144.094,-322 144.344,-319.465 144.692,-316.842 145.099,-314.223"/>
<polygon fill="black" stroke="black" points="148.55,-314.812 146.89,-304.348 141.662,-313.563 148.55,-314.812"/>
<text text-anchor="middle" x="263.453" y="-325.4" font-family="Times,serif" font-size="14.00">after(timeoutInMs) [!isRouteAgreedYet()]</text>
</g>
</g>
</svg>
