<?xml version="1.0" encoding="UTF-8" standalone="no"?>
<!DOCTYPE svg PUBLIC "-//W3C//DTD SVG 1.1//EN"
 "http://www.w3.org/Graphics/SVG/1.1/DTD/svg11.dtd">
<!-- Generated by graphviz version 2.36.0 (20140111.2315)
 -->
<!-- Title: CoordinationStateMachine Pages: 1 -->
<svg width="3979pt" height="549pt"
 viewBox="0.00 0.00 3979.00 549.00" xmlns="http://www.w3.org/2000/svg" xmlns:xlink="http://www.w3.org/1999/xlink">
<g id="graph0" class="graph" transform="scale(1 1) rotate(0) translate(4 545)">
<title>CoordinationStateMachine</title>
<polygon fill="white" stroke="none" points="-4,4 -4,-545 3975,-545 3975,4 -4,4"/>
<g id="clust1" class="cluster"><title>clusterCrisis_crisisCoordinationStage_managingCrisis</title>
<path fill="none" stroke="black" d="M34,-152C34,-152 3951,-152 3951,-152 3957,-152 3963,-158 3963,-164 3963,-164 3963,-521 3963,-521 3963,-527 3957,-533 3951,-533 3951,-533 34,-533 34,-533 28,-533 22,-527 22,-521 22,-521 22,-164 22,-164 22,-158 28,-152 34,-152"/>
<text text-anchor="middle" x="1992.5" y="-517.8" font-family="Times,serif" font-size="14.00">managingCrisis</text>
</g>
<g id="clust2" class="cluster"><title>clusterCrisis_crisisCoordinationStageCrisisEndManagement_crisisEndManagement</title>
<path fill="none" stroke="black" d="M1601,-168C1601,-168 2274,-168 2274,-168 2280,-168 2286,-174 2286,-180 2286,-180 2286,-459 2286,-459 2286,-465 2280,-471 2274,-471 2274,-471 1601,-471 1601,-471 1595,-471 1589,-465 1589,-459 1589,-459 1589,-180 1589,-180 1589,-174 1595,-168 1601,-168"/>
<text text-anchor="middle" x="1937.5" y="-455.8" font-family="Times,serif" font-size="14.00">crisisEndManagement</text>
</g>
<g id="clust3" class="cluster"><title>clusterCrisis_crisisCoordinationStageNegotiatingRoutePlan_negotiatingRoutePlan</title>
<path fill="none" stroke="black" d="M66,-160C66,-160 1547,-160 1547,-160 1553,-160 1559,-166 1559,-172 1559,-172 1559,-490 1559,-490 1559,-496 1553,-502 1547,-502 1547,-502 66,-502 66,-502 60,-502 54,-496 54,-490 54,-490 54,-172 54,-172 54,-166 60,-160 66,-160"/>
<text text-anchor="middle" x="806.5" y="-486.8" font-family="Times,serif" font-size="14.00">negotiatingRoutePlan</text>
</g>
<g id="clust4" class="cluster"><title>clusterCrisis_crisisCoordinationStageNegotiatingRoutePlanNegotiation_negotiation</title>
<path fill="none" stroke="black" d="M399,-168C399,-168 1539,-168 1539,-168 1545,-168 1551,-174 1551,-180 1551,-180 1551,-459 1551,-459 1551,-465 1545,-471 1539,-471 1539,-471 399,-471 399,-471 393,-471 387,-465 387,-459 387,-459 387,-180 387,-180 387,-174 393,-168 399,-168"/>
<text text-anchor="middle" x="969" y="-455.8" font-family="Times,serif" font-size="14.00">negotiation</text>
</g>
<g id="clust5" class="cluster"><title>clusterCrisis_crisisCoordinationStageNegotiatingRoutePlanManagingTimeliness_managingTimeliness</title>
<path fill="none" stroke="black" d="M96,-256C96,-256 345,-256 345,-256 351,-256 357,-262 357,-268 357,-268 357,-459 357,-459 357,-465 351,-471 345,-471 345,-471 96,-471 96,-471 90,-471 84,-465 84,-459 84,-459 84,-268 84,-268 84,-262 90,-256 96,-256"/>
<text text-anchor="middle" x="220.5" y="-455.8" font-family="Times,serif" font-size="14.00">managingTimeliness</text>
</g>
<!-- start_Crisis_crisisCoordinationStage -->
<g id="node1" class="node"><title>start_Crisis_crisisCoordinationStage</title>
<ellipse fill="black" stroke="black" cx="7" cy="-194" rx="7.2" ry="7.2"/>
</g>
<!-- Crisis_crisisCoordinationStage_noCrisis -->
<g id="node2" class="node"><title>Crisis_crisisCoordinationStage_noCrisis</title>
<path fill="none" stroke="black" d="M1809,-124C1809,-124 1761,-124 1761,-124 1755,-124 1749,-118 1749,-112 1749,-112 1749,-100 1749,-100 1749,-94 1755,-88 1761,-88 1761,-88 1809,-88 1809,-88 1815,-88 1821,-94 1821,-100 1821,-100 1821,-112 1821,-112 1821,-118 1815,-124 1809,-124"/>
<text text-anchor="middle" x="1785" y="-102.3" font-family="Times,serif" font-size="14.00">noCrisis</text>
</g>
<!-- start_Crisis_crisisCoordinationStage&#45;&gt;Crisis_crisisCoordinationStage_noCrisis -->
<g id="edge1" class="edge"><title>start_Crisis_crisisCoordinationStage&#45;&gt;Crisis_crisisCoordinationStage_noCrisis</title>
<path fill="none" stroke="black" d="M14.1504,-192.014C52.0827,-186.824 233.655,-162.524 383,-152 914.772,-114.528 1562.23,-108.237 1738.71,-107.2"/>
<polygon fill="black" stroke="black" points="1738.95,-110.699 1748.93,-107.143 1738.91,-103.699 1738.95,-110.699"/>
</g>
<!-- Crisis_crisisCoordinationStage_establishingCommunication -->
<g id="node3" class="node"><title>Crisis_crisisCoordinationStage_establishingCommunication</title>
<path fill="none" stroke="black" d="M2168,-36C2168,-36 2018,-36 2018,-36 2012,-36 2006,-30 2006,-24 2006,-24 2006,-12 2006,-12 2006,-6 2012,-0 2018,-0 2018,-0 2168,-0 2168,-0 2174,-0 2180,-6 2180,-12 2180,-12 2180,-24 2180,-24 2180,-30 2174,-36 2168,-36"/>
<text text-anchor="middle" x="2093" y="-14.3" font-family="Times,serif" font-size="14.00">establishingCommunication</text>
</g>
<!-- Crisis_crisisCoordinationStage_noCrisis&#45;&gt;Crisis_crisisCoordinationStage_establishingCommunication -->
<g id="edge4" class="edge"><title>Crisis_crisisCoordinationStage_noCrisis&#45;&gt;Crisis_crisisCoordinationStage_establishingCommunication</title>
<path fill="none" stroke="black" d="M1821.14,-104.204C1866.01,-102.12 1944.19,-94.8617 2006,-70 2017.55,-65.353 2018.41,-60.5524 2029,-54 2035.97,-49.6894 2043.5,-45.3224 2050.87,-41.2029"/>
<polygon fill="black" stroke="black" points="2052.98,-44.0314 2060.05,-36.14 2049.61,-37.9005 2052.98,-44.0314"/>
<text text-anchor="middle" x="2082.5" y="-58.3" font-family="Times,serif" font-size="14.00">initiateCrisis / {...}</text>
</g>
<!-- Crisis_crisisCoordinationStage_noCrisis&#45;&gt;Crisis_crisisCoordinationStage_establishingCommunication -->
<g id="edge5" class="edge"><title>Crisis_crisisCoordinationStage_noCrisis&#45;&gt;Crisis_crisisCoordinationStage_establishingCommunication</title>
<path fill="none" stroke="black" d="M1821.22,-104.083C1906.66,-101.548 2115.14,-93.0408 2136,-70 2143.99,-61.174 2138.63,-51.2128 2129.35,-42.4512"/>
<polygon fill="black" stroke="black" points="2131.57,-39.744 2121.65,-36.0236 2127.09,-45.1183 2131.57,-39.744"/>
<text text-anchor="middle" x="2219" y="-58.3" font-family="Times,serif" font-size="14.00">receiveInitiateCrisisRequest</text>
</g>
<!-- Crisis_crisisCoordinationStage_establishingCommunication&#45;&gt;Crisis_crisisCoordinationStage_noCrisis -->
<g id="edge2" class="edge"><title>Crisis_crisisCoordinationStage_establishingCommunication&#45;&gt;Crisis_crisisCoordinationStage_noCrisis</title>
<path fill="none" stroke="black" d="M2005.9,-22.4406C1914.78,-26.9563 1782.76,-36.4536 1767,-54 1760.76,-60.9465 1762.08,-70.1929 1766.04,-78.9037"/>
<polygon fill="black" stroke="black" points="1762.99,-80.624 1770.9,-87.6686 1769.11,-77.2266 1762.99,-80.624"/>
<text text-anchor="middle" x="1886.5" y="-58.3" font-family="Times,serif" font-size="14.00">after(timeoutInMs) [!isThisSideInitiator()]</text>
</g>
<!-- Crisis_crisisCoordinationStageExchangingDetails_exchangingDetails -->
<g id="node5" class="node"><title>Crisis_crisisCoordinationStageExchangingDetails_exchangingDetails</title>
<path fill="none" stroke="black" d="M2403.25,-388C2403.25,-388 2306.75,-388 2306.75,-388 2300.75,-388 2294.75,-382 2294.75,-376 2294.75,-376 2294.75,-364 2294.75,-364 2294.75,-358 2300.75,-352 2306.75,-352 2306.75,-352 2403.25,-352 2403.25,-352 2409.25,-352 2415.25,-358 2415.25,-364 2415.25,-364 2415.25,-376 2415.25,-376 2415.25,-382 2409.25,-388 2403.25,-388"/>
<text text-anchor="middle" x="2355" y="-366.3" font-family="Times,serif" font-size="14.00">exchangingDetails</text>
</g>
<!-- Crisis_crisisCoordinationStage_establishingCommunication&#45;&gt;Crisis_crisisCoordinationStageExchangingDetails_exchangingDetails -->
<g id="edge6" class="edge"><title>Crisis_crisisCoordinationStage_establishingCommunication&#45;&gt;Crisis_crisisCoordinationStageExchangingDetails_exchangingDetails</title>
<path fill="none" stroke="black" d="M2180.05,-27.3072C2227.79,-33.0784 2281.36,-41.9151 2302,-54 2327.1,-68.6974 2343,-75.9169 2343,-105 2343,-118.309 2343,-130.622 2343,-142.015"/>
<polygon fill="black" stroke="black" points="2339.5,-142.222 2343,-152.222 2346.5,-142.222 2339.5,-142.222"/>
<text text-anchor="middle" x="2423" y="-190.3" font-family="Times,serif" font-size="14.00">secureCredentialsConfirmed</text>
</g>
<!-- start_Crisis_crisisCoordinationStage_exchangingDetails -->
<g id="node4" class="node"><title>start_Crisis_crisisCoordinationStage_exchangingDetails</title>
<ellipse fill="black" stroke="black" cx="2355" cy="-433" rx="7.2" ry="7.2"/>
</g>
<!-- start_Crisis_crisisCoordinationStage_exchangingDetails&#45;&gt;Crisis_crisisCoordinationStageExchangingDetails_exchangingDetails -->
<g id="edge7" class="edge"><title>start_Crisis_crisisCoordinationStage_exchangingDetails&#45;&gt;Crisis_crisisCoordinationStageExchangingDetails_exchangingDetails</title>
<path fill="none" stroke="black" d="M2355,-425.472C2355,-418.902 2355,-408.324 2355,-398.229"/>
<polygon fill="black" stroke="black" points="2358.5,-398.073 2355,-388.073 2351.5,-398.073 2358.5,-398.073"/>
</g>
<!-- Crisis_crisisCoordinationStageExchangingDetails_exchangingDetails&#45;&gt;Crisis_crisisCoordinationStageExchangingDetails_exchangingDetails -->
<g id="edge8" class="edge"><title>Crisis_crisisCoordinationStageExchangingDetails_exchangingDetails&#45;&gt;Crisis_crisisCoordinationStageExchangingDetails_exchangingDetails</title>
<path fill="none" stroke="black" d="M2415.5,-371.4C2425.84,-371.209 2433,-370.742 2433,-370 2433,-369.536 2430.2,-369.18 2425.58,-368.931"/>
<polygon fill="black" stroke="black" points="2425.61,-365.43 2415.5,-368.6 2425.38,-372.427 2425.61,-365.43"/>
<text text-anchor="middle" x="2517.5" y="-366.3" font-family="Times,serif" font-size="14.00">ourUpdateToCrisisData / {...}</text>
</g>
<!-- Crisis_crisisCoordinationStageExchangingDetails_exchangingDetails&#45;&gt;Crisis_crisisCoordinationStageExchangingDetails_exchangingDetails -->
<g id="edge9" class="edge"><title>Crisis_crisisCoordinationStageExchangingDetails_exchangingDetails&#45;&gt;Crisis_crisisCoordinationStageExchangingDetails_exchangingDetails</title>
<path fill="none" stroke="black" d="M2415.36,-372.405C2489.72,-373.692 2602,-372.891 2602,-370 2602,-367.239 2499.58,-366.384 2425.6,-367.434"/>
<polygon fill="black" stroke="black" points="2425.31,-363.938 2415.36,-367.595 2425.42,-370.937 2425.31,-363.938"/>
<text text-anchor="middle" x="2669.5" y="-366.3" font-family="Times,serif" font-size="14.00">receiveCrisisData / {...}</text>
</g>
<!-- Crisis_crisisCoordinationStageExchangingDetails_exchangingDetails&#45;&gt;Crisis_crisisCoordinationStageExchangingDetails_exchangingDetails -->
<g id="edge10" class="edge"><title>Crisis_crisisCoordinationStageExchangingDetails_exchangingDetails&#45;&gt;Crisis_crisisCoordinationStageExchangingDetails_exchangingDetails</title>
<path fill="none" stroke="black" d="M2415.42,-373.036C2524.93,-375.723 2737,-374.711 2737,-370 2737,-365.432 2537.58,-364.342 2425.64,-366.73"/>
<polygon fill="black" stroke="black" points="2425.34,-363.236 2415.42,-366.964 2425.5,-370.234 2425.34,-363.236"/>
<text text-anchor="middle" x="2817.5" y="-366.3" font-family="Times,serif" font-size="14.00">ourVehicleDispatched / {...}</text>
</g>
<!-- Crisis_crisisCoordinationStageExchangingDetails_exchangingDetails&#45;&gt;Crisis_crisisCoordinationStageExchangingDetails_exchangingDetails -->
<g id="edge11" class="edge"><title>Crisis_crisisCoordinationStageExchangingDetails_exchangingDetails&#45;&gt;Crisis_crisisCoordinationStageExchangingDetails_exchangingDetails</title>
<path fill="none" stroke="black" d="M2415.45,-373.485C2559.41,-377.751 2898,-376.59 2898,-370 2898,-363.565 2575.1,-362.306 2425.89,-366.224"/>
<polygon fill="black" stroke="black" points="2425.35,-362.738 2415.45,-366.515 2425.55,-369.735 2425.35,-362.738"/>
<text text-anchor="middle" x="2989" y="-366.3" font-family="Times,serif" font-size="14.00">receiveVehicleDispatched / {...}</text>
</g>
<!-- Crisis_crisisCoordinationStageExchangingDetails_exchangingDetails&#45;&gt;Crisis_crisisCoordinationStageExchangingDetails_exchangingDetails -->
<g id="edge12" class="edge"><title>Crisis_crisisCoordinationStageExchangingDetails_exchangingDetails&#45;&gt;Crisis_crisisCoordinationStageExchangingDetails_exchangingDetails</title>
<path fill="none" stroke="black" d="M2415.54,-373.833C2592.76,-379.774 3080,-378.496 3080,-370 3080,-361.662 2610.67,-360.276 2425.72,-365.844"/>
<polygon fill="black" stroke="black" points="2425.43,-362.351 2415.54,-366.167 2425.65,-369.348 2425.43,-362.351"/>
<text text-anchor="middle" x="3150.5" y="-366.3" font-family="Times,serif" font-size="14.00">ourVehicleArrived / {...}</text>
</g>
<!-- Crisis_crisisCoordinationStageExchangingDetails_exchangingDetails&#45;&gt;Crisis_crisisCoordinationStageExchangingDetails_exchangingDetails -->
<g id="edge13" class="edge"><title>Crisis_crisisCoordinationStageExchangingDetails_exchangingDetails&#45;&gt;Crisis_crisisCoordinationStageExchangingDetails_exchangingDetails</title>
<path fill="none" stroke="black" d="M2415.57,-374.223C2615.98,-381.779 3221,-380.371 3221,-370 3221,-359.796 2635.32,-358.269 2425.57,-365.418"/>
<polygon fill="black" stroke="black" points="2425.44,-361.921 2415.57,-365.777 2425.69,-368.916 2425.44,-361.921"/>
<text text-anchor="middle" x="3302.5" y="-366.3" font-family="Times,serif" font-size="14.00">receiveVehicleArrived / {...}</text>
</g>
<!-- Crisis_crisisCoordinationStageExchangingDetails_exchangingDetails&#45;&gt;Crisis_crisisCoordinationStageExchangingDetails_exchangingDetails -->
<g id="edge14" class="edge"><title>Crisis_crisisCoordinationStageExchangingDetails_exchangingDetails&#45;&gt;Crisis_crisisCoordinationStageExchangingDetails_exchangingDetails</title>
<path fill="none" stroke="black" d="M2415.51,-374.532C2640.33,-383.788 3384,-382.277 3384,-370 3384,-357.903 2661.96,-356.259 2425.72,-365.068"/>
<polygon fill="black" stroke="black" points="2425.36,-361.579 2415.51,-365.468 2425.64,-368.574 2425.36,-361.579"/>
<text text-anchor="middle" x="3471.5" y="-366.3" font-family="Times,serif" font-size="14.00">ourVehicleMetObjective / {...}</text>
</g>
<!-- Crisis_crisisCoordinationStageExchangingDetails_exchangingDetails&#45;&gt;Crisis_crisisCoordinationStageExchangingDetails_exchangingDetails -->
<g id="edge15" class="edge"><title>Crisis_crisisCoordinationStageExchangingDetails_exchangingDetails&#45;&gt;Crisis_crisisCoordinationStageExchangingDetails_exchangingDetails</title>
<path fill="none" stroke="black" d="M2415.61,-374.803C2664.81,-385.796 3559,-384.195 3559,-370 3559,-355.992 2688.23,-354.248 2425.8,-364.768"/>
<polygon fill="black" stroke="black" points="2425.45,-361.28 2415.61,-365.197 2425.75,-368.274 2425.45,-361.28"/>
<text text-anchor="middle" x="3635.5" y="-366.3" font-family="Times,serif" font-size="14.00">receiveMetObjective / {...}</text>
</g>
<!-- Crisis_crisisCoordinationStageExchangingDetails_exchangingDetails&#45;&gt;Crisis_crisisCoordinationStageExchangingDetails_exchangingDetails -->
<g id="edge16" class="edge"><title>Crisis_crisisCoordinationStageExchangingDetails_exchangingDetails&#45;&gt;Crisis_crisisCoordinationStageExchangingDetails_exchangingDetails</title>
<path fill="none" stroke="black" d="M2415.4,-375.074C2684.24,-387.802 3712,-386.11 3712,-370 3712,-354.086 2709.18,-352.242 2425.58,-364.467"/>
<polygon fill="black" stroke="black" points="2425.23,-360.979 2415.4,-364.926 2425.54,-367.972 2425.23,-360.979"/>
<text text-anchor="middle" x="3761" y="-366.3" font-family="Times,serif" font-size="14.00">breakdown / {...}</text>
</g>
<!-- start_Crisis_crisisCoordinationStage_crisisEndManagement -->
<g id="node6" class="node"><title>start_Crisis_crisisCoordinationStage_crisisEndManagement</title>
<ellipse fill="black" stroke="black" cx="1574" cy="-433" rx="7.2" ry="7.2"/>
</g>
<!-- Crisis_crisisCoordinationStageCrisisEndManagementCrisisEndManagement_ongoingCrisis -->
<g id="node8" class="node"><title>Crisis_crisisCoordinationStageCrisisEndManagementCrisisEndManagement_ongoingCrisis</title>
<path fill="none" stroke="black" d="M1908.25,-388C1908.25,-388 1837.75,-388 1837.75,-388 1831.75,-388 1825.75,-382 1825.75,-376 1825.75,-376 1825.75,-364 1825.75,-364 1825.75,-358 1831.75,-352 1837.75,-352 1837.75,-352 1908.25,-352 1908.25,-352 1914.25,-352 1920.25,-358 1920.25,-364 1920.25,-364 1920.25,-376 1920.25,-376 1920.25,-382 1914.25,-388 1908.25,-388"/>
<text text-anchor="middle" x="1873" y="-366.3" font-family="Times,serif" font-size="14.00">ongoingCrisis</text>
</g>
<!-- start_Crisis_crisisCoordinationStage_crisisEndManagement&#45;&gt;Crisis_crisisCoordinationStageCrisisEndManagementCrisisEndManagement_ongoingCrisis -->
<g id="edge17" class="edge"><title>start_Crisis_crisisCoordinationStage_crisisEndManagement&#45;&gt;Crisis_crisisCoordinationStageCrisisEndManagementCrisisEndManagement_ongoingCrisis</title>
<path fill="none" stroke="black" d="M1579.67,-428.474C1579.77,-428.416 1579.88,-428.359 1579.98,-428.301"/>
<polygon fill="black" stroke="black" points="1581.17,-431.597 1589.09,-424.554 1578.51,-425.124 1581.17,-431.597"/>
</g>
<!-- start_Crisis_crisisCoordinationStage_crisisEndManagement_crisisEndManagement -->
<g id="node7" class="node"><title>start_Crisis_crisisCoordinationStage_crisisEndManagement_crisisEndManagement</title>
<ellipse fill="black" stroke="black" cx="1873" cy="-433" rx="7.2" ry="7.2"/>
</g>
<!-- start_Crisis_crisisCoordinationStage_crisisEndManagement_crisisEndManagement&#45;&gt;Crisis_crisisCoordinationStageCrisisEndManagementCrisisEndManagement_ongoingCrisis -->
<g id="edge18" class="edge"><title>start_Crisis_crisisCoordinationStage_crisisEndManagement_crisisEndManagement&#45;&gt;Crisis_crisisCoordinationStageCrisisEndManagementCrisisEndManagement_ongoingCrisis</title>
<path fill="none" stroke="black" d="M1873,-425.472C1873,-418.902 1873,-408.324 1873,-398.229"/>
<polygon fill="black" stroke="black" points="1876.5,-398.073 1873,-388.073 1869.5,-398.073 1876.5,-398.073"/>
</g>
<!-- Crisis_crisisCoordinationStageCrisisEndManagementCrisisEndManagement_waitingForUserTerminationAgreement -->
<g id="node9" class="node"><title>Crisis_crisisCoordinationStageCrisisEndManagementCrisisEndManagement_waitingForUserTerminationAgreement</title>
<path fill="none" stroke="black" d="M1871,-300C1871,-300 1659,-300 1659,-300 1653,-300 1647,-294 1647,-288 1647,-288 1647,-276 1647,-276 1647,-270 1653,-264 1659,-264 1659,-264 1871,-264 1871,-264 1877,-264 1883,-270 1883,-276 1883,-276 1883,-288 1883,-288 1883,-294 1877,-300 1871,-300"/>
<text text-anchor="middle" x="1765" y="-278.3" font-family="Times,serif" font-size="14.00">waitingForUserTerminationAgreement</text>
</g>
<!-- Crisis_crisisCoordinationStageCrisisEndManagementCrisisEndManagement_ongoingCrisis&#45;&gt;Crisis_crisisCoordinationStageCrisisEndManagementCrisisEndManagement_waitingForUserTerminationAgreement -->
<g id="edge21" class="edge"><title>Crisis_crisisCoordinationStageCrisisEndManagementCrisisEndManagement_ongoingCrisis&#45;&gt;Crisis_crisisCoordinationStageCrisisEndManagementCrisisEndManagement_waitingForUserTerminationAgreement</title>
<path fill="none" stroke="black" d="M1825.66,-369.766C1758.11,-369.73 1639.21,-365.097 1612,-334 1594.85,-314.395 1610.37,-302.304 1637.08,-294.855"/>
<polygon fill="black" stroke="black" points="1638.09,-298.21 1646.96,-292.409 1636.41,-291.415 1638.09,-298.21"/>
<text text-anchor="middle" x="1729.5" y="-322.3" font-family="Times,serif" font-size="14.00">receiveTerminationRequestFromOtherSC</text>
</g>
<!-- Crisis_crisisCoordinationStageCrisisEndManagementCrisisEndManagement_waitingForTerminationConfirmation -->
<g id="node10" class="node"><title>Crisis_crisisCoordinationStageCrisisEndManagementCrisisEndManagement_waitingForTerminationConfirmation</title>
<path fill="none" stroke="black" d="M2111,-300C2111,-300 1913,-300 1913,-300 1907,-300 1901,-294 1901,-288 1901,-288 1901,-276 1901,-276 1901,-270 1907,-264 1913,-264 1913,-264 2111,-264 2111,-264 2117,-264 2123,-270 2123,-276 2123,-276 2123,-288 2123,-288 2123,-294 2117,-300 2111,-300"/>
<text text-anchor="middle" x="2012" y="-278.3" font-family="Times,serif" font-size="14.00">waitingForTerminationConfirmation</text>
</g>
<!-- Crisis_crisisCoordinationStageCrisisEndManagementCrisisEndManagement_ongoingCrisis&#45;&gt;Crisis_crisisCoordinationStageCrisisEndManagementCrisisEndManagement_waitingForTerminationConfirmation -->
<g id="edge22" class="edge"><title>Crisis_crisisCoordinationStageCrisisEndManagementCrisisEndManagement_ongoingCrisis&#45;&gt;Crisis_crisisCoordinationStageCrisisEndManagementCrisisEndManagement_waitingForTerminationConfirmation</title>
<path fill="none" stroke="black" d="M1920.44,-353.066C1946.47,-344.266 1973.75,-334.922 1975,-334 1983.97,-327.365 1991.67,-317.921 1997.68,-308.959"/>
<polygon fill="black" stroke="black" points="2000.77,-310.613 2003.12,-300.281 1994.84,-306.897 2000.77,-310.613"/>
<text text-anchor="middle" x="2062.5" y="-322.3" font-family="Times,serif" font-size="14.00">initiateTermination / {...}</text>
</g>
<!-- Crisis_crisisCoordinationStageCrisisEndManagementCrisisEndManagement_waitingForUserTerminationAgreement&#45;&gt;Crisis_crisisCoordinationStageCrisisEndManagementCrisisEndManagement_ongoingCrisis -->
<g id="edge19" class="edge"><title>Crisis_crisisCoordinationStageCrisisEndManagementCrisisEndManagement_waitingForUserTerminationAgreement&#45;&gt;Crisis_crisisCoordinationStageCrisisEndManagementCrisisEndManagement_ongoingCrisis</title>
<path fill="none" stroke="black" d="M1824.68,-300.133C1834.29,-304.803 1843.51,-310.668 1851,-318 1857.73,-324.596 1862.53,-333.59 1865.89,-342.19"/>
<polygon fill="black" stroke="black" points="1862.67,-343.595 1869.21,-351.936 1869.3,-341.342 1862.67,-343.595"/>
<text text-anchor="middle" x="1917" y="-322.3" font-family="Times,serif" font-size="14.00">after(timeoutInMs)</text>
</g>
<!-- Crisis_crisisCoordinationStageCrisisEndManagementCrisisEndManagement_tearDown -->
<g id="node11" class="node"><title>Crisis_crisisCoordinationStageCrisisEndManagementCrisisEndManagement_tearDown</title>
<path fill="none" stroke="black" d="M1809,-212C1809,-212 1761,-212 1761,-212 1755,-212 1749,-206 1749,-200 1749,-200 1749,-188 1749,-188 1749,-182 1755,-176 1761,-176 1761,-176 1809,-176 1809,-176 1815,-176 1821,-182 1821,-188 1821,-188 1821,-200 1821,-200 1821,-206 1815,-212 1809,-212"/>
<text text-anchor="middle" x="1785" y="-190.3" font-family="Times,serif" font-size="14.00">tearDown</text>
</g>
<!-- Crisis_crisisCoordinationStageCrisisEndManagementCrisisEndManagement_waitingForUserTerminationAgreement&#45;&gt;Crisis_crisisCoordinationStageCrisisEndManagementCrisisEndManagement_tearDown -->
<g id="edge23" class="edge"><title>Crisis_crisisCoordinationStageCrisisEndManagementCrisisEndManagement_waitingForUserTerminationAgreement&#45;&gt;Crisis_crisisCoordinationStageCrisisEndManagementCrisisEndManagement_tearDown</title>
<path fill="none" stroke="black" d="M1769.05,-263.597C1771.83,-251.629 1775.58,-235.501 1778.75,-221.891"/>
<polygon fill="black" stroke="black" points="1782.17,-222.617 1781.03,-212.084 1775.35,-221.031 1782.17,-222.617"/>
<text text-anchor="middle" x="1833.5" y="-234.3" font-family="Times,serif" font-size="14.00">confirmTermination</text>
</g>
<!-- Crisis_crisisCoordinationStageCrisisEndManagementCrisisEndManagement_waitingForTerminationConfirmation&#45;&gt;Crisis_crisisCoordinationStageCrisisEndManagementCrisisEndManagement_ongoingCrisis -->
<g id="edge20" class="edge"><title>Crisis_crisisCoordinationStageCrisisEndManagementCrisisEndManagement_waitingForTerminationConfirmation&#45;&gt;Crisis_crisisCoordinationStageCrisisEndManagementCrisisEndManagement_ongoingCrisis</title>
<path fill="none" stroke="black" d="M2111.76,-300.009C2128.59,-304.858 2142.44,-310.822 2148,-318 2152.36,-323.62 2152.82,-328.774 2148,-334 2132.49,-350.808 1977.97,-347.745 1930.56,-351.543"/>
<polygon fill="black" stroke="black" points="1929.91,-348.096 1920.41,-352.782 1930.76,-355.045 1929.91,-348.096"/>
<text text-anchor="middle" x="2206" y="-322.3" font-family="Times,serif" font-size="14.00">after(timeoutInMs)</text>
</g>
<!-- Crisis_crisisCoordinationStageCrisisEndManagementCrisisEndManagement_waitingForTerminationConfirmation&#45;&gt;Crisis_crisisCoordinationStageCrisisEndManagementCrisisEndManagement_tearDown -->
<g id="edge24" class="edge"><title>Crisis_crisisCoordinationStageCrisisEndManagementCrisisEndManagement_waitingForTerminationConfirmation&#45;&gt;Crisis_crisisCoordinationStageCrisisEndManagementCrisisEndManagement_tearDown</title>
<path fill="none" stroke="black" d="M1976.41,-263.925C1953.28,-253.252 1922.28,-239.735 1894,-230 1867.08,-220.731 1857.05,-221.842 1830.71,-213.749"/>
<polygon fill="black" stroke="black" points="1831.69,-210.389 1821.1,-210.623 1829.53,-217.046 1831.69,-210.389"/>
<text text-anchor="middle" x="2026.5" y="-234.3" font-family="Times,serif" font-size="14.00">receiveTerminationConfirmation</text>
</g>
<!-- Crisis_crisisCoordinationStageCrisisEndManagementCrisisEndManagement_tearDown&#45;&gt;Crisis_crisisCoordinationStage_noCrisis -->
<g id="edge3" class="edge"><title>Crisis_crisisCoordinationStageCrisisEndManagementCrisisEndManagement_tearDown&#45;&gt;Crisis_crisisCoordinationStage_noCrisis</title>
<path fill="none" stroke="black" d="M1785,-175.597C1785,-163.746 1785,-147.817 1785,-134.292"/>
<polygon fill="black" stroke="black" points="1788.5,-134.084 1785,-124.084 1781.5,-134.084 1788.5,-134.084"/>
</g>
<!-- start_Crisis_crisisCoordinationStage_negotiatingRoutePlan -->
<g id="node12" class="node"><title>start_Crisis_crisisCoordinationStage_negotiatingRoutePlan</title>
<ellipse fill="black" stroke="black" cx="37" cy="-433" rx="7.2" ry="7.2"/>
</g>
<!-- Crisis_crisisCoordinationStageNegotiatingRoutePlanNegotiationNegotiation_planningRoute -->
<g id="node15" class="node"><title>Crisis_crisisCoordinationStageNegotiatingRoutePlanNegotiationNegotiation_planningRoute</title>
<path fill="none" stroke="black" d="M748.25,-388C748.25,-388 673.75,-388 673.75,-388 667.75,-388 661.75,-382 661.75,-376 661.75,-376 661.75,-364 661.75,-364 661.75,-358 667.75,-352 673.75,-352 673.75,-352 748.25,-352 748.25,-352 754.25,-352 760.25,-358 760.25,-364 760.25,-364 760.25,-376 760.25,-376 760.25,-382 754.25,-388 748.25,-388"/>
<text text-anchor="middle" x="711" y="-366.3" font-family="Times,serif" font-size="14.00">planningRoute</text>
</g>
<!-- start_Crisis_crisisCoordinationStage_negotiatingRoutePlan&#45;&gt;Crisis_crisisCoordinationStageNegotiatingRoutePlanNegotiationNegotiation_planningRoute -->
<g id="edge25" class="edge"><title>start_Crisis_crisisCoordinationStage_negotiatingRoutePlan&#45;&gt;Crisis_crisisCoordinationStageNegotiatingRoutePlanNegotiationNegotiation_planningRoute</title>
<path fill="none" stroke="black" d="M40.2475,-426.452C41.9333,-423.822 44.228,-420.552 47.0191,-417.321"/>
<polygon fill="black" stroke="black" points="49.6452,-419.65 54.3794,-410.172 44.7678,-414.629 49.6452,-419.65"/>
</g>
<!-- start_Crisis_crisisCoordinationStage_negotiatingRoutePlan_negotiation -->
<g id="node13" class="node"><title>start_Crisis_crisisCoordinationStage_negotiatingRoutePlan_negotiation</title>
<ellipse fill="black" stroke="black" cx="372" cy="-433" rx="7.2" ry="7.2"/>
</g>
<!-- start_Crisis_crisisCoordinationStage_negotiatingRoutePlan_negotiation&#45;&gt;Crisis_crisisCoordinationStageNegotiatingRoutePlanNegotiationNegotiation_planningRoute -->
<g id="edge26" class="edge"><title>start_Crisis_crisisCoordinationStage_negotiatingRoutePlan_negotiation&#45;&gt;Crisis_crisisCoordinationStageNegotiatingRoutePlanNegotiationNegotiation_planningRoute</title>
<path fill="none" stroke="black" d="M377.657,-428.447C377.761,-428.39 377.866,-428.333 377.973,-428.275"/>
<polygon fill="black" stroke="black" points="379.283,-431.521 387.258,-424.546 376.674,-425.025 379.283,-431.521"/>
</g>
<!-- start_Crisis_crisisCoordinationStage_negotiatingRoutePlan_negotiation_negotiation -->
<g id="node14" class="node"><title>start_Crisis_crisisCoordinationStage_negotiatingRoutePlan_negotiation_negotiation</title>
<ellipse fill="black" stroke="black" cx="711" cy="-433" rx="7.2" ry="7.2"/>
</g>
<!-- start_Crisis_crisisCoordinationStage_negotiatingRoutePlan_negotiation_negotiation&#45;&gt;Crisis_crisisCoordinationStageNegotiatingRoutePlanNegotiationNegotiation_planningRoute -->
<g id="edge29" class="edge"><title>start_Crisis_crisisCoordinationStage_negotiatingRoutePlan_negotiation_negotiation&#45;&gt;Crisis_crisisCoordinationStageNegotiatingRoutePlanNegotiationNegotiation_planningRoute</title>
<path fill="none" stroke="black" d="M711,-425.472C711,-418.902 711,-408.324 711,-398.229"/>
<polygon fill="black" stroke="black" points="714.5,-398.073 711,-388.073 707.5,-398.073 714.5,-398.073"/>
</g>
<!-- Crisis_crisisCoordinationStageNegotiatingRoutePlanNegotiationNegotiation_planningRoute&#45;&gt;Crisis_crisisCoordinationStageNegotiatingRoutePlanNegotiationNegotiation_planningRoute -->
<g id="edge27" class="edge"><title>Crisis_crisisCoordinationStageNegotiatingRoutePlanNegotiationNegotiation_planningRoute&#45;&gt;Crisis_crisisCoordinationStageNegotiatingRoutePlanNegotiationNegotiation_planningRoute</title>
<path fill="none" stroke="black" d="M760.377,-373.256C770.628,-372.914 778,-371.828 778,-370 778,-368.857 775.12,-368.005 770.458,-367.443"/>
<polygon fill="black" stroke="black" points="770.595,-363.944 760.377,-366.744 770.111,-370.927 770.595,-363.944"/>
<text text-anchor="middle" x="877" y="-366.3" font-family="Times,serif" font-size="14.00">informOfNumberOfVehicles / {...}</text>
</g>
<!-- Crisis_crisisCoordinationStageNegotiatingRoutePlanNegotiationNegotiation_planningRoute&#45;&gt;Crisis_crisisCoordinationStageNegotiatingRoutePlanNegotiationNegotiation_planningRoute -->
<g id="edge30" class="edge"><title>Crisis_crisisCoordinationStageNegotiatingRoutePlanNegotiationNegotiation_planningRoute&#45;&gt;Crisis_crisisCoordinationStageNegotiatingRoutePlanNegotiationNegotiation_planningRoute</title>
<path fill="none" stroke="black" d="M760.42,-374.887C838.33,-378.493 976,-376.864 976,-370 976,-363.431 849.907,-361.656 770.779,-364.677"/>
<polygon fill="black" stroke="black" points="770.264,-361.196 760.42,-365.113 770.558,-368.19 770.264,-361.196"/>
<text text-anchor="middle" x="1084.5" y="-366.3" font-family="Times,serif" font-size="14.00">receiveNumberOfVehicles [isPolice()]</text>
</g>
<!-- Crisis_crisisCoordinationStageNegotiatingRoutePlanNegotiationNegotiation_approvingRoute -->
<g id="node16" class="node"><title>Crisis_crisisCoordinationStageNegotiatingRoutePlanNegotiationNegotiation_approvingRoute</title>
<path fill="none" stroke="black" d="M671.25,-300C671.25,-300 588.75,-300 588.75,-300 582.75,-300 576.75,-294 576.75,-288 576.75,-288 576.75,-276 576.75,-276 576.75,-270 582.75,-264 588.75,-264 588.75,-264 671.25,-264 671.25,-264 677.25,-264 683.25,-270 683.25,-276 683.25,-276 683.25,-288 683.25,-288 683.25,-294 677.25,-300 671.25,-300"/>
<text text-anchor="middle" x="630" y="-278.3" font-family="Times,serif" font-size="14.00">approvingRoute</text>
</g>
<!-- Crisis_crisisCoordinationStageNegotiatingRoutePlanNegotiationNegotiation_planningRoute&#45;&gt;Crisis_crisisCoordinationStageNegotiatingRoutePlanNegotiationNegotiation_approvingRoute -->
<g id="edge32" class="edge"><title>Crisis_crisisCoordinationStageNegotiatingRoutePlanNegotiationNegotiation_planningRoute&#45;&gt;Crisis_crisisCoordinationStageNegotiatingRoutePlanNegotiationNegotiation_approvingRoute</title>
<path fill="none" stroke="black" d="M661.581,-366.394C584.585,-361.823 443.185,-351.178 428,-334 423.29,-328.672 423.421,-323.441 428,-318 445.457,-297.258 513.673,-288.808 566.052,-285.366"/>
<polygon fill="black" stroke="black" points="566.528,-288.843 576.297,-284.742 566.103,-281.856 566.528,-288.843"/>
<text text-anchor="middle" x="525" y="-322.3" font-family="Times,serif" font-size="14.00">receiveRouteProposal [!isPolice()]</text>
</g>
<!-- Crisis_crisisCoordinationStageNegotiatingRoutePlanNegotiationNegotiation_awaitingRouteApproval -->
<g id="node17" class="node"><title>Crisis_crisisCoordinationStageNegotiatingRoutePlanNegotiationNegotiation_awaitingRouteApproval</title>
<path fill="none" stroke="black" d="M1241.25,-300C1241.25,-300 1114.75,-300 1114.75,-300 1108.75,-300 1102.75,-294 1102.75,-288 1102.75,-288 1102.75,-276 1102.75,-276 1102.75,-270 1108.75,-264 1114.75,-264 1114.75,-264 1241.25,-264 1241.25,-264 1247.25,-264 1253.25,-270 1253.25,-276 1253.25,-276 1253.25,-288 1253.25,-288 1253.25,-294 1247.25,-300 1241.25,-300"/>
<text text-anchor="middle" x="1178" y="-278.3" font-family="Times,serif" font-size="14.00">awaitingRouteApproval</text>
</g>
<!-- Crisis_crisisCoordinationStageNegotiatingRoutePlanNegotiationNegotiation_planningRoute&#45;&gt;Crisis_crisisCoordinationStageNegotiatingRoutePlanNegotiationNegotiation_awaitingRouteApproval -->
<g id="edge33" class="edge"><title>Crisis_crisisCoordinationStageNegotiatingRoutePlanNegotiationNegotiation_planningRoute&#45;&gt;Crisis_crisisCoordinationStageNegotiatingRoutePlanNegotiationNegotiation_awaitingRouteApproval</title>
<path fill="none" stroke="black" d="M760.494,-367.373C866.923,-363.533 1110.57,-352.789 1143,-334 1152.86,-328.289 1160.56,-318.552 1166.19,-309.107"/>
<polygon fill="black" stroke="black" points="1169.29,-310.743 1170.97,-300.282 1163.13,-307.412 1169.29,-310.743"/>
<text text-anchor="middle" x="1232.5" y="-322.3" font-family="Times,serif" font-size="14.00">routePlanComplete / {...}</text>
</g>
<!-- Crisis_crisisCoordinationStageNegotiatingRoutePlanNegotiationNegotiation_noRouteAgreement -->
<g id="node19" class="node"><title>Crisis_crisisCoordinationStageNegotiatingRoutePlanNegotiationNegotiation_noRouteAgreement</title>
<path fill="none" stroke="black" d="M958,-300C958,-300 856,-300 856,-300 850,-300 844,-294 844,-288 844,-288 844,-276 844,-276 844,-270 850,-264 856,-264 856,-264 958,-264 958,-264 964,-264 970,-270 970,-276 970,-276 970,-288 970,-288 970,-294 964,-300 958,-300"/>
<text text-anchor="middle" x="907" y="-278.3" font-family="Times,serif" font-size="14.00">noRouteAgreement</text>
</g>
<!-- Crisis_crisisCoordinationStageNegotiatingRoutePlanNegotiationNegotiation_planningRoute&#45;&gt;Crisis_crisisCoordinationStageNegotiatingRoutePlanNegotiationNegotiation_noRouteAgreement -->
<g id="edge36" class="edge"><title>Crisis_crisisCoordinationStageNegotiatingRoutePlanNegotiationNegotiation_planningRoute&#45;&gt;Crisis_crisisCoordinationStageNegotiatingRoutePlanNegotiationNegotiation_noRouteAgreement</title>
<path fill="none" stroke="black" d="M741.499,-351.838C751.042,-346.301 761.545,-340.033 771,-334 781.498,-327.302 782.809,-323.462 794,-318 806.55,-311.875 820.405,-306.534 833.986,-301.993"/>
<polygon fill="black" stroke="black" points="835.361,-305.228 843.805,-298.828 833.213,-298.565 835.361,-305.228"/>
<text text-anchor="middle" x="904" y="-322.3" font-family="Times,serif" font-size="14.00">receiveNoAgreeableRoute [!isPolice()]</text>
</g>
<!-- Crisis_crisisCoordinationStageNegotiatingRoutePlanNegotiationNegotiation_planningRoute&#45;&gt;Crisis_crisisCoordinationStageNegotiatingRoutePlanNegotiationNegotiation_noRouteAgreement -->
<g id="edge37" class="edge"><title>Crisis_crisisCoordinationStageNegotiatingRoutePlanNegotiationNegotiation_planningRoute&#45;&gt;Crisis_crisisCoordinationStageNegotiatingRoutePlanNegotiationNegotiation_noRouteAgreement</title>
<path fill="none" stroke="black" d="M760.274,-366.837C841.794,-362.747 997.442,-352.581 1014,-334 1030.3,-315.711 1008.3,-303.403 980.101,-295.469"/>
<polygon fill="black" stroke="black" points="980.904,-292.061 970.345,-292.943 979.149,-298.838 980.904,-292.061"/>
<text text-anchor="middle" x="1079.5" y="-322.3" font-family="Times,serif" font-size="14.00">noMoreRoutes / {...}</text>
</g>
<!-- Crisis_crisisCoordinationStageNegotiatingRoutePlanNegotiationNegotiation_approvingRoute&#45;&gt;Crisis_crisisCoordinationStageNegotiatingRoutePlanNegotiationNegotiation_planningRoute -->
<g id="edge28" class="edge"><title>Crisis_crisisCoordinationStageNegotiatingRoutePlanNegotiationNegotiation_approvingRoute&#45;&gt;Crisis_crisisCoordinationStageNegotiatingRoutePlanNegotiationNegotiation_planningRoute</title>
<path fill="none" stroke="black" d="M625.906,-300.464C624.443,-311.024 624.506,-324.28 631,-334 636.375,-342.046 644.044,-348.255 652.527,-353.044"/>
<polygon fill="black" stroke="black" points="651.086,-356.236 661.601,-357.537 654.193,-349.963 651.086,-356.236"/>
<text text-anchor="middle" x="701" y="-322.3" font-family="Times,serif" font-size="14.00">routeUnacceptable / {...}</text>
</g>
<!-- Crisis_crisisCoordinationStageNegotiatingRoutePlanNegotiationNegotiation_routeAgreed -->
<g id="node18" class="node"><title>Crisis_crisisCoordinationStageNegotiatingRoutePlanNegotiationNegotiation_routeAgreed</title>
<path fill="none" stroke="black" d="M835,-212C835,-212 773,-212 773,-212 767,-212 761,-206 761,-200 761,-200 761,-188 761,-188 761,-182 767,-176 773,-176 773,-176 835,-176 835,-176 841,-176 847,-182 847,-188 847,-188 847,-200 847,-200 847,-206 841,-212 835,-212"/>
<text text-anchor="middle" x="804" y="-190.3" font-family="Times,serif" font-size="14.00">routeAgreed</text>
</g>
<!-- Crisis_crisisCoordinationStageNegotiatingRoutePlanNegotiationNegotiation_approvingRoute&#45;&gt;Crisis_crisisCoordinationStageNegotiatingRoutePlanNegotiationNegotiation_routeAgreed -->
<g id="edge34" class="edge"><title>Crisis_crisisCoordinationStageNegotiatingRoutePlanNegotiationNegotiation_approvingRoute&#45;&gt;Crisis_crisisCoordinationStageNegotiatingRoutePlanNegotiationNegotiation_routeAgreed</title>
<path fill="none" stroke="black" d="M664.793,-263.803C692.267,-250.224 730.762,-231.198 760.31,-216.594"/>
<polygon fill="black" stroke="black" points="762.15,-219.589 769.564,-212.02 759.048,-213.313 762.15,-219.589"/>
<text text-anchor="middle" x="796.5" y="-234.3" font-family="Times,serif" font-size="14.00">routeAcceptable / {...}</text>
</g>
<!-- Crisis_crisisCoordinationStageNegotiatingRoutePlanNegotiationNegotiation_awaitingRouteApproval&#45;&gt;Crisis_crisisCoordinationStageNegotiatingRoutePlanNegotiationNegotiation_planningRoute -->
<g id="edge31" class="edge"><title>Crisis_crisisCoordinationStageNegotiatingRoutePlanNegotiationNegotiation_awaitingRouteApproval&#45;&gt;Crisis_crisisCoordinationStageNegotiatingRoutePlanNegotiationNegotiation_planningRoute</title>
<path fill="none" stroke="black" d="M1253.62,-288.044C1300.72,-293.922 1347.86,-306.619 1322,-334 1303.27,-353.838 921.096,-364.376 770.883,-367.765"/>
<polygon fill="black" stroke="black" points="770.396,-364.275 760.476,-367.997 770.552,-371.273 770.396,-364.275"/>
<text text-anchor="middle" x="1429.5" y="-322.3" font-family="Times,serif" font-size="14.00">receiveDisapprovalFromFSC / {...}</text>
</g>
<!-- Crisis_crisisCoordinationStageNegotiatingRoutePlanNegotiationNegotiation_awaitingRouteApproval&#45;&gt;Crisis_crisisCoordinationStageNegotiatingRoutePlanNegotiationNegotiation_routeAgreed -->
<g id="edge35" class="edge"><title>Crisis_crisisCoordinationStageNegotiatingRoutePlanNegotiationNegotiation_awaitingRouteApproval&#45;&gt;Crisis_crisisCoordinationStageNegotiatingRoutePlanNegotiationNegotiation_routeAgreed</title>
<path fill="none" stroke="black" d="M1103.66,-263.906C1030.77,-247.144 921.455,-222.008 856.965,-207.179"/>
<polygon fill="black" stroke="black" points="857.543,-203.721 847.013,-204.891 855.974,-210.543 857.543,-203.721"/>
<text text-anchor="middle" x="1099.5" y="-234.3" font-family="Times,serif" font-size="14.00">receiveApprovalFromFSC</text>
</g>
<!-- start_Crisis_crisisCoordinationStage_negotiatingRoutePlan_managingTimeliness -->
<g id="node20" class="node"><title>start_Crisis_crisisCoordinationStage_negotiatingRoutePlan_managingTimeliness</title>
<ellipse fill="black" stroke="black" cx="69" cy="-433" rx="7.2" ry="7.2"/>
</g>
<!-- Crisis_crisisCoordinationStageNegotiatingRoutePlanManagingTimelinessManagingTimeliness_timeAcceptable -->
<g id="node22" class="node"><title>Crisis_crisisCoordinationStageNegotiatingRoutePlanManagingTimelinessManagingTimeliness_timeAcceptable</title>
<path fill="none" stroke="black" d="M184,-388C184,-388 104,-388 104,-388 98,-388 92,-382 92,-376 92,-376 92,-364 92,-364 92,-358 98,-352 104,-352 104,-352 184,-352 184,-352 190,-352 196,-358 196,-364 196,-364 196,-376 196,-376 196,-382 190,-388 184,-388"/>
<text text-anchor="middle" x="144" y="-366.3" font-family="Times,serif" font-size="14.00">timeAcceptable</text>
</g>
<!-- start_Crisis_crisisCoordinationStage_negotiatingRoutePlan_managingTimeliness&#45;&gt;Crisis_crisisCoordinationStageNegotiatingRoutePlanManagingTimelinessManagingTimeliness_timeAcceptable -->
<g id="edge38" class="edge"><title>start_Crisis_crisisCoordinationStage_negotiatingRoutePlan_managingTimeliness&#45;&gt;Crisis_crisisCoordinationStageNegotiatingRoutePlanManagingTimelinessManagingTimeliness_timeAcceptable</title>
<path fill="none" stroke="black" d="M74.3938,-427.613C75.0536,-427.076 75.7652,-426.498 76.5237,-425.881"/>
<polygon fill="black" stroke="black" points="78.9329,-428.433 84.4824,-419.408 74.516,-423.002 78.9329,-428.433"/>
</g>
<!-- start_Crisis_crisisCoordinationStage_negotiatingRoutePlan_managingTimeliness_managingTimeliness -->
<g id="node21" class="node"><title>start_Crisis_crisisCoordinationStage_negotiatingRoutePlan_managingTimeliness_managingTimeliness</title>
<ellipse fill="black" stroke="black" cx="144" cy="-433" rx="7.2" ry="7.2"/>
</g>
<!-- start_Crisis_crisisCoordinationStage_negotiatingRoutePlan_managingTimeliness_managingTimeliness&#45;&gt;Crisis_crisisCoordinationStageNegotiatingRoutePlanManagingTimelinessManagingTimeliness_timeAcceptable -->
<g id="edge39" class="edge"><title>start_Crisis_crisisCoordinationStage_negotiatingRoutePlan_managingTimeliness_managingTimeliness&#45;&gt;Crisis_crisisCoordinationStageNegotiatingRoutePlanManagingTimelinessManagingTimeliness_timeAcceptable</title>
<path fill="none" stroke="black" d="M144,-425.472C144,-418.902 144,-408.324 144,-398.229"/>
<polygon fill="black" stroke="black" points="147.5,-398.073 144,-388.073 140.5,-398.073 147.5,-398.073"/>
</g>
<!-- Crisis_crisisCoordinationStageNegotiatingRoutePlanManagingTimelinessManagingTimeliness_timeUnacceptable -->
<g id="node23" class="node"><title>Crisis_crisisCoordinationStageNegotiatingRoutePlanManagingTimelinessManagingTimeliness_timeUnacceptable</title>
<path fill="none" stroke="black" d="M198,-300C198,-300 104,-300 104,-300 98,-300 92,-294 92,-288 92,-288 92,-276 92,-276 92,-270 98,-264 104,-264 104,-264 198,-264 198,-264 204,-264 210,-270 210,-276 210,-276 210,-288 210,-288 210,-294 204,-300 198,-300"/>
<text text-anchor="middle" x="151" y="-278.3" font-family="Times,serif" font-size="14.00">timeUnacceptable</text>
</g>
<!-- Crisis_crisisCoordinationStageNegotiatingRoutePlanManagingTimelinessManagingTimeliness_timeAcceptable&#45;&gt;Crisis_crisisCoordinationStageNegotiatingRoutePlanManagingTimelinessManagingTimeliness_timeUnacceptable -->
<g id="edge40" class="edge"><title>Crisis_crisisCoordinationStageNegotiatingRoutePlanManagingTimelinessManagingTimeliness_timeAcceptable&#45;&gt;Crisis_crisisCoordinationStageNegotiatingRoutePlanManagingTimelinessManagingTimeliness_timeUnacceptable</title>
<path fill="none" stroke="black" d="M143.162,-351.959C142.883,-342.028 142.883,-329.278 144,-318 144.251,-315.464 144.602,-312.84 145.015,-310.221"/>
<polygon fill="black" stroke="black" points="148.464,-310.813 146.828,-300.345 141.579,-309.548 148.464,-310.813"/>
<text text-anchor="middle" x="263.5" y="-322.3" font-family="Times,serif" font-size="14.00">after(timeoutInMs) [!isRouteAgreedYet()]</text>
</g>
</g>
</svg>
