<?xml version="1.0" encoding="UTF-8" standalone="no"?>
<!DOCTYPE svg PUBLIC "-//W3C//DTD SVG 1.1//EN"
 "http://www.w3.org/Graphics/SVG/1.1/DTD/svg11.dtd">
<!-- Generated by graphviz version 2.36.0 (20140111.2315)
 -->
<!-- Title: CourseSectionNested Pages: 1 -->
<svg width="513pt" height="458pt"
 viewBox="0.00 0.00 513.00 458.00" xmlns="http://www.w3.org/2000/svg" xmlns:xlink="http://www.w3.org/1999/xlink">
<g id="graph0" class="graph" transform="scale(1 1) rotate(0) translate(4 454)">
<title>CourseSectionNested</title>
<polygon fill="white" stroke="none" points="-4,4 -4,-454 509,-454 509,4 -4,4"/>
<g id="clust1" class="cluster"><title>clusterCourseSection_status_Open</title>
<path fill="none" stroke="black" d="M142,-168C142,-168 432,-168 432,-168 438,-168 444,-174 444,-180 444,-180 444,-396 444,-396 444,-402 438,-408 432,-408 432,-408 142,-408 142,-408 136,-408 130,-402 130,-396 130,-396 130,-180 130,-180 130,-174 136,-168 142,-168"/>
<text text-anchor="middle" x="287" y="-392.8" font-family="Times,serif" font-size="14.00">Open</text>
</g>
<!-- start_CourseSection_status -->
<g id="node1" class="node"><title>start_CourseSection_status</title>
<ellipse fill="black" stroke="black" cx="43" cy="-443" rx="7.2" ry="7.2"/>
</g>
<!-- CourseSection_status_Planned -->
<g id="node2" class="node"><title>CourseSection_status_Planned</title>
<path fill="none" stroke="black" d="M67,-388C67,-388 19,-388 19,-388 13,-388 7,-382 7,-376 7,-376 7,-364 7,-364 7,-358 13,-352 19,-352 19,-352 67,-352 67,-352 73,-352 79,-358 79,-364 79,-364 79,-376 79,-376 79,-382 73,-388 67,-388"/>
<text text-anchor="middle" x="43" y="-366.3" font-family="Times,serif" font-size="14.00">Planned</text>
</g>
<!-- start_CourseSection_status&#45;&gt;CourseSection_status_Planned -->
<g id="edge1" class="edge"><title>start_CourseSection_status&#45;&gt;CourseSection_status_Planned</title>
<path fill="none" stroke="black" d="M43,-435.448C43,-427.05 43,-411.967 43,-398.502"/>
<polygon fill="black" stroke="black" points="46.5001,-398.21 43,-388.21 39.5001,-398.21 46.5001,-398.21"/>
</g>
<!-- CourseSection_statusOpen_NotEnoughStudents -->
<g id="node4" class="node"><title>CourseSection_statusOpen_NotEnoughStudents</title>
<path fill="none" stroke="black" d="M255.25,-300C255.25,-300 150.75,-300 150.75,-300 144.75,-300 138.75,-294 138.75,-288 138.75,-288 138.75,-276 138.75,-276 138.75,-270 144.75,-264 150.75,-264 150.75,-264 255.25,-264 255.25,-264 261.25,-264 267.25,-270 267.25,-276 267.25,-276 267.25,-288 267.25,-288 267.25,-294 261.25,-300 255.25,-300"/>
<text text-anchor="middle" x="203" y="-278.3" font-family="Times,serif" font-size="14.00">NotEnoughStudents</text>
</g>
<!-- CourseSection_status_Planned&#45;&gt;CourseSection_statusOpen_NotEnoughStudents -->
<g id="edge5" class="edge"><title>CourseSection_status_Planned&#45;&gt;CourseSection_statusOpen_NotEnoughStudents</title>
<path fill="none" stroke="black" d="M59.5587,-351.984C70.9446,-341.063 86.8701,-327.248 103,-318 112.407,-312.606 122.785,-307.841 133.187,-303.7"/>
<polygon fill="black" stroke="black" points="134.618,-306.901 142.72,-300.073 132.129,-300.358 134.618,-306.901"/>
<text text-anchor="middle" x="151" y="-322.3" font-family="Times,serif" font-size="14.00">openRegistration</text>
</g>
<!-- CourseSection_status_Cancelled -->
<g id="node6" class="node"><title>CourseSection_status_Cancelled</title>
<path fill="none" stroke="black" d="M117,-36C117,-36 69,-36 69,-36 63,-36 57,-30 57,-24 57,-24 57,-12 57,-12 57,-6 63,-0 69,-0 69,-0 117,-0 117,-0 123,-0 129,-6 129,-12 129,-12 129,-24 129,-24 129,-30 123,-36 117,-36"/>
<text text-anchor="middle" x="93" y="-14.3" font-family="Times,serif" font-size="14.00">Cancelled</text>
</g>
<!-- CourseSection_status_Planned&#45;&gt;CourseSection_status_Cancelled -->
<g id="edge7" class="edge"><title>CourseSection_status_Planned&#45;&gt;CourseSection_status_Cancelled</title>
<path fill="none" stroke="black" d="M28.4422,-351.805C15.9675,-335.279 0,-309.041 0,-283 0,-283 0,-283 0,-105 0,-76.2088 24.3236,-54.3733 48.0919,-39.9091"/>
<polygon fill="black" stroke="black" points="49.8534,-42.9337 56.7775,-34.9145 46.3638,-36.8654 49.8534,-42.9337"/>
<text text-anchor="middle" x="18" y="-190.3" font-family="Times,serif" font-size="14.00">cancel</text>
</g>
<!-- start_CourseSection_status_Open -->
<g id="node3" class="node"><title>start_CourseSection_status_Open</title>
<ellipse fill="black" stroke="black" cx="203" cy="-370" rx="7.2" ry="7.2"/>
</g>
<!-- start_CourseSection_status_Open&#45;&gt;CourseSection_statusOpen_NotEnoughStudents -->
<g id="edge4" class="edge"><title>start_CourseSection_status_Open&#45;&gt;CourseSection_statusOpen_NotEnoughStudents</title>
<path fill="none" stroke="black" d="M203,-362.536C203,-351.564 203,-328.694 203,-310.283"/>
<polygon fill="black" stroke="black" points="206.5,-310.081 203,-300.081 199.5,-310.081 206.5,-310.081"/>
</g>
<!-- CourseSection_statusOpen_NotEnoughStudents&#45;&gt;CourseSection_statusOpen_NotEnoughStudents -->
<g id="edge2" class="edge"><title>CourseSection_statusOpen_NotEnoughStudents&#45;&gt;CourseSection_statusOpen_NotEnoughStudents</title>
<path fill="none" stroke="black" d="M267.288,-289.633C277.785,-288.54 285,-285.996 285,-282 285,-279.44 282.039,-277.476 277.151,-276.107"/>
<polygon fill="black" stroke="black" points="277.744,-272.658 267.288,-274.367 276.527,-279.551 277.744,-272.658"/>
<text text-anchor="middle" x="336.5" y="-278.3" font-family="Times,serif" font-size="14.00">requestToRegister</text>
</g>
<!-- CourseSection_statusOpen_EnoughStudents -->
<g id="node5" class="node"><title>CourseSection_statusOpen_EnoughStudents</title>
<path fill="none" stroke="black" d="M330,-212C330,-212 246,-212 246,-212 240,-212 234,-206 234,-200 234,-200 234,-188 234,-188 234,-182 240,-176 246,-176 246,-176 330,-176 330,-176 336,-176 342,-182 342,-188 342,-188 342,-200 342,-200 342,-206 336,-212 330,-212"/>
<text text-anchor="middle" x="288" y="-190.3" font-family="Times,serif" font-size="14.00">EnoughStudents</text>
</g>
<!-- CourseSection_statusOpen_NotEnoughStudents&#45;&gt;CourseSection_statusOpen_EnoughStudents -->
<g id="edge6" class="edge"><title>CourseSection_statusOpen_NotEnoughStudents&#45;&gt;CourseSection_statusOpen_EnoughStudents</title>
<path fill="none" stroke="black" d="M168.978,-263.774C154.844,-254.306 143.666,-242.062 153,-230 162.086,-218.258 193.447,-209.734 223.657,-204.039"/>
<polygon fill="black" stroke="black" points="224.599,-207.426 233.825,-202.216 223.364,-200.536 224.599,-207.426"/>
<text text-anchor="middle" x="230" y="-234.3" font-family="Times,serif" font-size="14.00">classSizeExceedsMinimum</text>
</g>
<!-- CourseSection_statusOpen_NotEnoughStudents&#45;&gt;CourseSection_status_Cancelled -->
<g id="edge8" class="edge"><title>CourseSection_statusOpen_NotEnoughStudents&#45;&gt;CourseSection_status_Cancelled</title>
<path fill="none" stroke="black" d="M130.213,-260.408C122.551,-256.399 115.279,-251.64 109,-246 76.4677,-216.781 75.0465,-200.558 65,-158 55.8324,-119.165 69.4999,-73.782 80.7605,-45.7124"/>
<polygon fill="black" stroke="black" points="84.1107,-46.7738 84.7535,-36.1985 77.6562,-44.0648 84.1107,-46.7738"/>
<text text-anchor="middle" x="83" y="-146.3" font-family="Times,serif" font-size="14.00">cancel</text>
</g>
<!-- CourseSection_statusOpen_NotEnoughStudents&#45;&gt;CourseSection_status_Cancelled -->
<g id="edge9" class="edge"><title>CourseSection_statusOpen_NotEnoughStudents&#45;&gt;CourseSection_status_Cancelled</title>
<path fill="none" stroke="black" d="M165.45,-263.846C158.096,-258.993 151.094,-253.064 146,-246 101.735,-184.614 93.8585,-91.779 92.8284,-46.1993"/>
<polygon fill="black" stroke="black" points="96.328,-46.1421 92.6974,-36.1888 89.3286,-46.2338 96.328,-46.1421"/>
<text text-anchor="middle" x="157" y="-146.3" font-family="Times,serif" font-size="14.00">closeRegistration</text>
</g>
<!-- CourseSection_statusOpen_EnoughStudents&#45;&gt;CourseSection_statusOpen_NotEnoughStudents -->
<g id="edge3" class="edge"><title>CourseSection_statusOpen_EnoughStudents&#45;&gt;CourseSection_statusOpen_NotEnoughStudents</title>
<path fill="none" stroke="black" d="M304.268,-212.006C312.189,-222.395 318.54,-235.63 311,-246 302.652,-257.481 290.453,-265.272 277.231,-270.541"/>
<polygon fill="black" stroke="black" points="275.753,-267.35 267.463,-273.948 278.058,-273.959 275.753,-267.35"/>
<text text-anchor="middle" x="365.5" y="-234.3" font-family="Times,serif" font-size="14.00">requestToRegister</text>
</g>
<!-- CourseSection_status_Closed -->
<g id="node7" class="node"><title>CourseSection_status_Closed</title>
<path fill="none" stroke="black" d="M268,-124C268,-124 220,-124 220,-124 214,-124 208,-118 208,-112 208,-112 208,-100 208,-100 208,-94 214,-88 220,-88 220,-88 268,-88 268,-88 274,-88 280,-94 280,-100 280,-100 280,-112 280,-112 280,-118 274,-124 268,-124"/>
<text text-anchor="middle" x="244" y="-102.3" font-family="Times,serif" font-size="14.00">Closed</text>
</g>
<!-- CourseSection_statusOpen_EnoughStudents&#45;&gt;CourseSection_status_Closed -->
<g id="edge11" class="edge"><title>CourseSection_statusOpen_EnoughStudents&#45;&gt;CourseSection_status_Closed</title>
<path fill="none" stroke="black" d="M342.086,-186.856C380.567,-180.248 422.155,-167.109 402,-142 388.178,-124.781 331.767,-115.512 290.275,-110.922"/>
<polygon fill="black" stroke="black" points="290.393,-107.416 280.083,-109.854 289.664,-114.377 290.393,-107.416"/>
<text text-anchor="middle" x="456" y="-146.3" font-family="Times,serif" font-size="14.00">closeRegistration</text>
</g>
<!-- CourseSection_statusOpen_EnoughStudents&#45;&gt;CourseSection_status_Closed -->
<g id="edge12" class="edge"><title>CourseSection_statusOpen_EnoughStudents&#45;&gt;CourseSection_status_Closed</title>
<path fill="none" stroke="black" d="M256.114,-175.671C250.022,-170.802 244.47,-164.91 241,-158 237.402,-150.835 236.719,-142.372 237.341,-134.42"/>
<polygon fill="black" stroke="black" points="240.821,-134.809 238.775,-124.414 233.892,-133.816 240.821,-134.809"/>
<text text-anchor="middle" x="319.5" y="-146.3" font-family="Times,serif" font-size="14.00">classSizeExceedsMaximum</text>
</g>
<!-- CourseSection_status_Closed&#45;&gt;CourseSection_status_Cancelled -->
<g id="edge10" class="edge"><title>CourseSection_status_Closed&#45;&gt;CourseSection_status_Cancelled</title>
<path fill="none" stroke="black" d="M213.806,-87.8033C190.17,-74.3421 157.135,-55.527 131.583,-40.9742"/>
<polygon fill="black" stroke="black" points="133.306,-37.9278 122.884,-36.0201 129.842,-44.0105 133.306,-37.9278"/>
<text text-anchor="middle" x="201" y="-58.3" font-family="Times,serif" font-size="14.00">cancel</text>
</g>
</g>
</svg>
