<?xml version="1.0" encoding="UTF-8" standalone="no"?>
<!DOCTYPE svg PUBLIC "-//W3C//DTD SVG 1.1//EN"
 "http://www.w3.org/Graphics/SVG/1.1/DTD/svg11.dtd">
<!-- Generated by graphviz version 2.39.20140502.0445 (20140502.0445)
 -->
<!-- Title: CourseSectionNested Pages: 1 -->
<svg width="694pt" height="454pt"
 viewBox="0.00 0.00 694.00 453.60" xmlns="http://www.w3.org/2000/svg" xmlns:xlink="http://www.w3.org/1999/xlink">
<g id="graph0" class="graph" transform="scale(1 1) rotate(0) translate(4 449.6)">
<title>CourseSectionNested</title>
<polygon fill="white" stroke="none" points="-4,4 -4,-449.6 690,-449.6 690,4 -4,4"/>
<g id="clust1" class="cluster"><title>clusterCourseSection_status_Open</title>
<path fill="none" stroke="black" d="M284,-166C284,-166 448,-166 448,-166 454,-166 460,-172 460,-178 460,-178 460,-392.2 460,-392.2 460,-398.2 454,-404.2 448,-404.2 448,-404.2 284,-404.2 284,-404.2 278,-404.2 272,-398.2 272,-392.2 272,-392.2 272,-178 272,-178 272,-172 278,-166 284,-166"/>
<text text-anchor="middle" x="366" y="-389" font-family="Times,serif" font-size="14.00">Open</text>
</g>
<!-- start_CourseSection_status -->
<g id="node1" class="node"><title>start_CourseSection_status</title>
<ellipse fill="black" stroke="black" cx="69" cy="-438.4" rx="7.2" ry="7.2"/>
</g>
<!-- CourseSection_status_Planned -->
<g id="node2" class="node"><title>CourseSection_status_Planned</title>
<path fill="none" stroke="black" d="M93,-384C93,-384 45,-384 45,-384 39,-384 33,-378 33,-372 33,-372 33,-360 33,-360 33,-354 39,-348 45,-348 45,-348 93,-348 93,-348 99,-348 105,-354 105,-360 105,-360 105,-372 105,-372 105,-378 99,-384 93,-384"/>
<text text-anchor="middle" x="69" y="-362.3" font-family="Times,serif" font-size="14.00">Planned</text>
</g>
<!-- start_CourseSection_status&#45;&gt;CourseSection_status_Planned -->
<g id="edge1" class="edge"><title>start_CourseSection_status&#45;&gt;CourseSection_status_Planned</title>
<g id="a_edge1"><a xlink:title="start &#160;&#45;&gt; Planned">
<path fill="none" stroke="black" d="M69,-430.903C69,-422.577 69,-407.621 69,-394.27"/>
<polygon fill="black" stroke="black" points="72.5001,-394.064 69,-384.064 65.5001,-394.064 72.5001,-394.064"/>
</a>
</g>
</g>
<!-- CourseSection_statusOpen_NotEnoughStudents -->
<g id="node6" class="node"><title>CourseSection_statusOpen_NotEnoughStudents</title>
<path fill="none" stroke="black" d="M397.5,-297C397.5,-297 292.5,-297 292.5,-297 286.5,-297 280.5,-291 280.5,-285 280.5,-285 280.5,-273 280.5,-273 280.5,-267 286.5,-261 292.5,-261 292.5,-261 397.5,-261 397.5,-261 403.5,-261 409.5,-267 409.5,-273 409.5,-273 409.5,-285 409.5,-285 409.5,-291 403.5,-297 397.5,-297"/>
<text text-anchor="middle" x="345" y="-275.3" font-family="Times,serif" font-size="14.00">NotEnoughStudents</text>
</g>
<!-- CourseSection_status_Planned&#45;&gt;CourseSection_statusOpen_NotEnoughStudents -->
<g id="edge7" class="edge"><title>CourseSection_status_Planned&#45;&gt;CourseSection_statusOpen_NotEnoughStudents</title>
<g id="a_edge7"><a xlink:title="Planned openRegistration &#45;&gt; NotEnoughStudents">
<path fill="none" stroke="black" d="M105.082,-353.888C149.399,-340.24 225.398,-316.834 279.994,-300.02"/>
<polygon fill="black" stroke="black" points="281.059,-303.354 289.585,-297.066 278.998,-296.664 281.059,-303.354"/>
</a>
</g>
<text text-anchor="middle" x="272" y="-318.8" font-family="Times,serif" font-size="14.00">openRegistration</text>
</g>
<!-- CourseSection_status_Cancelled -->
<g id="node8" class="node"><title>CourseSection_status_Cancelled</title>
<path fill="none" stroke="black" d="M132,-36C132,-36 84,-36 84,-36 78,-36 72,-30 72,-24 72,-24 72,-12 72,-12 72,-6 78,-0 84,-0 84,-0 132,-0 132,-0 138,-0 144,-6 144,-12 144,-12 144,-24 144,-24 144,-30 138,-36 132,-36"/>
<text text-anchor="middle" x="108" y="-14.3" font-family="Times,serif" font-size="14.00">Cancelled</text>
</g>
<!-- CourseSection_status_Planned&#45;&gt;CourseSection_status_Cancelled -->
<g id="edge9" class="edge"><title>CourseSection_status_Planned&#45;&gt;CourseSection_status_Cancelled</title>
<g id="a_edge9"><a xlink:title="Planned cancel &#45;&gt; Cancelled">
<path fill="none" stroke="black" d="M42.9141,-347.708C23.3745,-332.469 0,-308.321 0,-280 0,-280 0,-280 0,-104 0,-70.3048 32.8637,-47.9191 62.334,-34.6188"/>
<polygon fill="black" stroke="black" points="63.9064,-37.7535 71.7371,-30.617 61.1651,-31.3125 63.9064,-37.7535"/>
</a>
</g>
<text text-anchor="middle" x="18" y="-188.3" font-family="Times,serif" font-size="14.00">cancel</text>
</g>
<!-- dummyNode1_EnoughStudents_Open -->
<g id="node3" class="node"><title>dummyNode1_EnoughStudents_Open</title>
<ellipse fill="black" stroke="black" cx="281" cy="-105" rx="0.18" ry="0.18"/>
</g>
<!-- dummyNode1_EnoughStudents_Open&#45;&gt;CourseSection_statusOpen_NotEnoughStudents -->
<g id="edge5" class="edge"><title>dummyNode1_EnoughStudents_Open:w&#45;&gt;CourseSection_statusOpen_NotEnoughStudents</title>
<g id="a_edge5"><a xlink:title="EnoughStudents &#160;&#45;&gt; Open">
<path fill="none" stroke="black" d="M267.414,-165.93 250.977,-132.699 247.134,-105 280,-105"/>
<polygon fill="black" stroke="black" points="264.387,-167.697 272.105,-174.956 270.599,-164.469 264.387,-167.697"/>
</a>
</g>
</g>
<!-- dummyNode2_NotEnoughStudents_Open -->
<g id="node4" class="node"><title>dummyNode2_NotEnoughStudents_Open</title>
<ellipse fill="black" stroke="black" cx="107" cy="-192" rx="0.18" ry="0.18"/>
</g>
<!-- dummyNode2_NotEnoughStudents_Open&#45;&gt;CourseSection_statusOpen_NotEnoughStudents -->
<g id="edge3" class="edge"><title>dummyNode2_NotEnoughStudents_Open:w&#45;&gt;CourseSection_statusOpen_NotEnoughStudents</title>
<g id="a_edge3"><a xlink:title="NotEnoughStudents &#160;&#45;&gt; Open">
<path fill="none" stroke="black" d="M106,-192C83.1208,-192 96.9302,-226.715 113,-243 134.535,-264.824 210.969,-273.084 270.289,-276.186"/>
<polygon fill="black" stroke="black" points="261.423,-277.296 272,-276.674 263.344,-270.565 261.423,-277.296"/>
</a>
</g>
</g>
<!-- start_CourseSection_Open -->
<g id="node5" class="node"><title>start_CourseSection_Open</title>
<ellipse fill="black" stroke="black" cx="345" cy="-366" rx="7.2" ry="7.2"/>
</g>
<!-- start_CourseSection_Open&#45;&gt;CourseSection_statusOpen_NotEnoughStudents -->
<g id="edge6" class="edge"><title>start_CourseSection_Open&#45;&gt;CourseSection_statusOpen_NotEnoughStudents</title>
<g id="a_edge6"><a xlink:title="start &#160;&#45;&gt; NotEnoughStudents">
<path fill="none" stroke="black" d="M345,-358.611C345,-347.831 345,-325.432 345,-307.291"/>
<polygon fill="black" stroke="black" points="348.5,-307.222 345,-297.222 341.5,-307.222 348.5,-307.222"/>
</a>
</g>
</g>
<!-- CourseSection_statusOpen_NotEnoughStudents&#45;&gt;dummyNode2_NotEnoughStudents_Open -->
<g id="edge2" class="edge"><title>CourseSection_statusOpen_NotEnoughStudents&#45;&gt;dummyNode2_NotEnoughStudents_Open:e</title>
<g id="a_edge2"><a xlink:title="NotEnoughStudents requestToRegister &#45;&gt; Open">
<path fill="none" stroke="black" d="M108,-192 131.627,-192 105.246,-227.411 123,-243 145.869,-263.08 223.304,-271.685 280.31,-275.343"/>
</a>
</g>
<text text-anchor="middle" x="174.5" y="-231.8" font-family="Times,serif" font-size="14.00">requestToRegister</text>
</g>
<!-- CourseSection_statusOpen_EnoughStudents -->
<g id="node7" class="node"><title>CourseSection_statusOpen_EnoughStudents</title>
<path fill="none" stroke="black" d="M414,-210C414,-210 330,-210 330,-210 324,-210 318,-204 318,-198 318,-198 318,-186 318,-186 318,-180 324,-174 330,-174 330,-174 414,-174 414,-174 420,-174 426,-180 426,-186 426,-186 426,-198 426,-198 426,-204 420,-210 414,-210"/>
<text text-anchor="middle" x="372" y="-188.3" font-family="Times,serif" font-size="14.00">EnoughStudents</text>
</g>
<!-- CourseSection_statusOpen_NotEnoughStudents&#45;&gt;CourseSection_statusOpen_EnoughStudents -->
<g id="edge8" class="edge"><title>CourseSection_statusOpen_NotEnoughStudents&#45;&gt;CourseSection_statusOpen_EnoughStudents</title>
<g id="a_edge8"><a xlink:title="NotEnoughStudents classSizeExceedsMinimum &#45;&gt; EnoughStudents">
<path fill="none" stroke="black" d="M350.464,-260.799C354.197,-249.047 359.218,-233.238 363.474,-219.842"/>
<polygon fill="black" stroke="black" points="366.853,-220.766 366.544,-210.175 360.181,-218.647 366.853,-220.766"/>
</a>
</g>
<text text-anchor="middle" x="437" y="-231.8" font-family="Times,serif" font-size="14.00">classSizeExceedsMinimum</text>
</g>
<!-- CourseSection_statusOpen_NotEnoughStudents&#45;&gt;CourseSection_status_Cancelled -->
<g id="edge10" class="edge"><title>CourseSection_statusOpen_NotEnoughStudents&#45;&gt;CourseSection_status_Cancelled</title>
<g id="a_edge10"><a xlink:title="Open cancel &#45;&gt; Cancelled">
<path fill="none" stroke="black" d="M96.3053,-45.3793 77.7221,-91.8159 48.3456,-188.399 98,-243 120.774,-268.043 207.827,-275.553 272.17,-277.604"/>
<polygon fill="black" stroke="black" points="99.5954,-46.5822 100.186,-36.0038 93.1276,-43.9049 99.5954,-46.5822"/>
</a>
</g>
<text text-anchor="middle" x="90" y="-144.8" font-family="Times,serif" font-size="14.00">cancel</text>
</g>
<!-- CourseSection_statusOpen_NotEnoughStudents&#45;&gt;CourseSection_status_Cancelled -->
<g id="edge11" class="edge"><title>CourseSection_statusOpen_NotEnoughStudents&#45;&gt;CourseSection_status_Cancelled</title>
<g id="a_edge11"><a xlink:title="NotEnoughStudents closeRegistration &#45;&gt; Cancelled">
<path fill="none" stroke="black" d="M112.152,-46.3703 117.8,-76.0001 130.302,-123.382 156,-156 195.155,-205.698 260.44,-241.352 303.104,-260.835"/>
<polygon fill="black" stroke="black" points="115.562,-45.553 110.37,-36.3175 108.67,-46.775 115.562,-45.553"/>
</a>
</g>
<text text-anchor="middle" x="205" y="-144.8" font-family="Times,serif" font-size="14.00">closeRegistration</text>
</g>
<!-- CourseSection_statusOpen_EnoughStudents&#45;&gt;dummyNode1_EnoughStudents_Open -->
<g id="edge4" class="edge"><title>CourseSection_statusOpen_EnoughStudents&#45;&gt;dummyNode1_EnoughStudents_Open:e</title>
<g id="a_edge4"><a xlink:title="EnoughStudents requestToRegister &#45;&gt; Open">
<path fill="none" stroke="black" d="M282,-105 305.391,-105 279.987,-138.062 295,-156 301.22,-163.432 309.351,-169.358 317.994,-174.061"/>
</a>
</g>
<text text-anchor="middle" x="346.5" y="-144.8" font-family="Times,serif" font-size="14.00">requestToRegister</text>
</g>
<!-- CourseSection_status_Closed -->
<g id="node9" class="node"><title>CourseSection_status_Closed</title>
<path fill="none" stroke="black" d="M448,-123C448,-123 400,-123 400,-123 394,-123 388,-117 388,-111 388,-111 388,-99 388,-99 388,-93 394,-87 400,-87 400,-87 448,-87 448,-87 454,-87 460,-93 460,-99 460,-99 460,-111 460,-111 460,-117 454,-123 448,-123"/>
<text text-anchor="middle" x="424" y="-101.3" font-family="Times,serif" font-size="14.00">Closed</text>
</g>
<!-- CourseSection_statusOpen_EnoughStudents&#45;&gt;CourseSection_status_Closed -->
<g id="edge13" class="edge"><title>CourseSection_statusOpen_EnoughStudents&#45;&gt;CourseSection_status_Closed</title>
<g id="a_edge13"><a xlink:title="EnoughStudents closeRegistration &#45;&gt; Closed">
<path fill="none" stroke="black" d="M426.027,-189.66C481.489,-187.01 562.38,-179.161 582,-156 614.719,-117.377 527.84,-108.225 470.297,-106.279"/>
<polygon fill="black" stroke="black" points="470.375,-102.78 460.282,-106.002 470.181,-109.777 470.375,-102.78"/>
</a>
</g>
<text text-anchor="middle" x="637" y="-144.8" font-family="Times,serif" font-size="14.00">closeRegistration</text>
</g>
<!-- CourseSection_statusOpen_EnoughStudents&#45;&gt;CourseSection_status_Closed -->
<g id="edge14" class="edge"><title>CourseSection_statusOpen_EnoughStudents&#45;&gt;CourseSection_status_Closed</title>
<g id="a_edge14"><a xlink:title="EnoughStudents classSizeExceedsMaximum &#45;&gt; Closed">
<path fill="none" stroke="black" d="M388.334,-173.985C393.102,-168.505 398.079,-162.232 402,-156 406.545,-148.776 410.614,-140.451 413.979,-132.693"/>
<polygon fill="black" stroke="black" points="417.278,-133.873 417.848,-123.294 410.805,-131.208 417.278,-133.873"/>
</a>
</g>
<text text-anchor="middle" x="487.5" y="-144.8" font-family="Times,serif" font-size="14.00">classSizeExceedsMaximum</text>
</g>
<!-- CourseSection_status_Closed&#45;&gt;CourseSection_status_Cancelled -->
<g id="edge12" class="edge"><title>CourseSection_status_Closed&#45;&gt;CourseSection_status_Cancelled</title>
<g id="a_edge12"><a xlink:title="Closed cancel &#45;&gt; Cancelled">
<path fill="none" stroke="black" d="M154.035,-31.3829 217.361,-48.4167 330.045,-78.7272 387.751,-94.2494"/>
<polygon fill="black" stroke="black" points="154.878,-27.9852 144.312,-28.7674 153.059,-34.7449 154.878,-27.9852"/>
</a>
</g>
<text text-anchor="middle" x="302" y="-57.8" font-family="Times,serif" font-size="14.00">cancel</text>
</g>
</g>
</svg>
