<?xml version="1.0" encoding="UTF-8" standalone="no"?>
<!DOCTYPE svg PUBLIC "-//W3C//DTD SVG 1.1//EN"
 "http://www.w3.org/Graphics/SVG/1.1/DTD/svg11.dtd">
<!-- Generated by graphviz version 2.39.20140502.0445 (20140502.0445)
 -->
<!-- Title: CourseSectionFlat Pages: 1 -->
<svg width="582pt" height="443pt"
 viewBox="0.00 0.00 581.50 443.40" xmlns="http://www.w3.org/2000/svg" xmlns:xlink="http://www.w3.org/1999/xlink">
<g id="graph0" class="graph" transform="scale(1 1) rotate(0) translate(4 439.4)">
<title>CourseSectionFlat</title>
<polygon fill="white" stroke="none" points="-4,4 -4,-439.4 577.5,-439.4 577.5,4 -4,4"/>
<!-- start_CourseSection_status -->
<g id="node1" class="node"><title>start_CourseSection_status</title>
<ellipse fill="black" stroke="black" cx="452.5" cy="-428.2" rx="7.2" ry="7.2"/>
</g>
<!-- CourseSection_status_Planned -->
<g id="node2" class="node"><title>CourseSection_status_Planned</title>
<path fill="none" stroke="black" d="M476.5,-384C476.5,-384 428.5,-384 428.5,-384 422.5,-384 416.5,-378 416.5,-372 416.5,-372 416.5,-360 416.5,-360 416.5,-354 422.5,-348 428.5,-348 428.5,-348 476.5,-348 476.5,-348 482.5,-348 488.5,-354 488.5,-360 488.5,-360 488.5,-372 488.5,-372 488.5,-378 482.5,-384 476.5,-384"/>
<text text-anchor="middle" x="452.5" y="-362.3" font-family="Times,serif" font-size="14.00">Planned</text>
</g>
<!-- start_CourseSection_status&#45;&gt;CourseSection_status_Planned -->
<g id="edge1" class="edge"><title>start_CourseSection_status&#45;&gt;CourseSection_status_Planned</title>
<g id="a_edge1"><a xlink:title="start &#160;&#45;&gt; Planned">
<path fill="none" stroke="black" d="M452.5,-420.758C452.5,-414.387 452.5,-404.197 452.5,-394.393"/>
<polygon fill="black" stroke="black" points="456,-394.105 452.5,-384.105 449,-394.105 456,-394.105"/>
</a>
</g>
</g>
<!-- CourseSection_status_OpenNotEnoughStudents -->
<g id="node3" class="node"><title>CourseSection_status_OpenNotEnoughStudents</title>
<path fill="none" stroke="black" d="M376.5,-297C376.5,-297 240.5,-297 240.5,-297 234.5,-297 228.5,-291 228.5,-285 228.5,-285 228.5,-273 228.5,-273 228.5,-267 234.5,-261 240.5,-261 240.5,-261 376.5,-261 376.5,-261 382.5,-261 388.5,-267 388.5,-273 388.5,-273 388.5,-285 388.5,-285 388.5,-291 382.5,-297 376.5,-297"/>
<text text-anchor="middle" x="308.5" y="-275.3" font-family="Times,serif" font-size="14.00">OpenNotEnoughStudents</text>
</g>
<!-- CourseSection_status_Planned&#45;&gt;CourseSection_status_OpenNotEnoughStudents -->
<g id="edge2" class="edge"><title>CourseSection_status_Planned&#45;&gt;CourseSection_status_OpenNotEnoughStudents</title>
<g id="a_edge2"><a xlink:title="Planned openRegistration &#45;&gt; OpenNotEnoughStudents">
<path fill="none" stroke="black" d="M346.469,-302.412 370.542,-316.622 401.206,-334.722 423.359,-347.799"/>
<polygon fill="black" stroke="black" points="347.988,-299.245 337.597,-297.175 344.43,-305.273 347.988,-299.245"/>
</a>
</g>
<text text-anchor="middle" x="436.5" y="-318.8" font-family="Times,serif" font-size="14.00">openRegistration</text>
</g>
<!-- CourseSection_status_Cancelled -->
<g id="node5" class="node"><title>CourseSection_status_Cancelled</title>
<path fill="none" stroke="black" d="M361.5,-36C361.5,-36 313.5,-36 313.5,-36 307.5,-36 301.5,-30 301.5,-24 301.5,-24 301.5,-12 301.5,-12 301.5,-6 307.5,-0 313.5,-0 313.5,-0 361.5,-0 361.5,-0 367.5,-0 373.5,-6 373.5,-12 373.5,-12 373.5,-24 373.5,-24 373.5,-30 367.5,-36 361.5,-36"/>
<text text-anchor="middle" x="337.5" y="-14.3" font-family="Times,serif" font-size="14.00">Cancelled</text>
</g>
<!-- CourseSection_status_Planned&#45;&gt;CourseSection_status_Cancelled -->
<g id="edge6" class="edge"><title>CourseSection_status_Planned&#45;&gt;CourseSection_status_Cancelled</title>
<g id="a_edge6"><a xlink:title="Planned cancel &#45;&gt; Cancelled">
<path fill="none" stroke="black" d="M383.951,-19.2642 443.037,-22.3345 537.5,-37.6227 537.5,-104 537.5,-280 537.5,-280 537.5,-280 537.5,-310.261 510.231,-333.511 486.583,-347.984"/>
<polygon fill="black" stroke="black" points="383.856,-15.7572 373.718,-18.8349 383.563,-22.7511 383.856,-15.7572"/>
</a>
</g>
<text text-anchor="middle" x="555.5" y="-188.3" font-family="Times,serif" font-size="14.00">cancel</text>
</g>
<!-- CourseSection_status_OpenNotEnoughStudents&#45;&gt;CourseSection_status_OpenNotEnoughStudents -->
<g id="edge3" class="edge"><title>CourseSection_status_OpenNotEnoughStudents&#45;&gt;CourseSection_status_OpenNotEnoughStudents</title>
<g id="a_edge3"><a xlink:title="OpenNotEnoughStudents requestToRegister &#45;&gt; OpenNotEnoughStudents">
<path fill="none" stroke="black" d="M388.86,-285.944C399.466,-284.76 406.5,-282.445 406.5,-279 406.5,-276.793 403.613,-275.05 398.75,-273.77"/>
<polygon fill="black" stroke="black" points="399.311,-270.315 388.86,-272.056 398.115,-277.213 399.311,-270.315"/>
</a>
</g>
<text text-anchor="middle" x="458" y="-275.3" font-family="Times,serif" font-size="14.00">requestToRegister</text>
</g>
<!-- CourseSection_status_OpenEnoughStudents -->
<g id="node4" class="node"><title>CourseSection_status_OpenEnoughStudents</title>
<path fill="none" stroke="black" d="M127,-210C127,-210 12,-210 12,-210 6,-210 0,-204 0,-198 0,-198 0,-186 0,-186 0,-180 6,-174 12,-174 12,-174 127,-174 127,-174 133,-174 139,-180 139,-186 139,-186 139,-198 139,-198 139,-204 133,-210 127,-210"/>
<text text-anchor="middle" x="69.5" y="-188.3" font-family="Times,serif" font-size="14.00">OpenEnoughStudents</text>
</g>
<!-- CourseSection_status_OpenNotEnoughStudents&#45;&gt;CourseSection_status_OpenEnoughStudents -->
<g id="edge4" class="edge"><title>CourseSection_status_OpenNotEnoughStudents&#45;&gt;CourseSection_status_OpenEnoughStudents</title>
<g id="a_edge4"><a xlink:title="OpenNotEnoughStudents classSizeExceedsMinimum &#45;&gt; OpenEnoughStudents">
<path fill="none" stroke="black" d="M108.468,-214.955 126.611,-224.528 148.733,-235.298 169.5,-243 188.166,-249.923 208.74,-255.937 228.206,-260.934"/>
<polygon fill="black" stroke="black" points="109.839,-211.719 99.3715,-210.081 106.533,-217.889 109.839,-211.719"/>
</a>
</g>
<text text-anchor="middle" x="246.5" y="-231.8" font-family="Times,serif" font-size="14.00">classSizeExceedsMinimum</text>
</g>
<!-- CourseSection_status_OpenNotEnoughStudents&#45;&gt;CourseSection_status_Cancelled -->
<g id="edge7" class="edge"><title>CourseSection_status_OpenNotEnoughStudents&#45;&gt;CourseSection_status_Cancelled</title>
<g id="a_edge7"><a xlink:title="OpenNotEnoughStudents closeRegistration &#45;&gt; Cancelled">
<path fill="none" stroke="black" d="M317.189,-260.954C319.657,-255.37 322.061,-249.045 323.5,-243 340.016,-173.608 340.07,-88.9146 338.76,-46.2884"/>
<polygon fill="black" stroke="black" points="342.253,-46.0191 338.397,-36.1508 335.257,-46.2697 342.253,-46.0191"/>
</a>
</g>
<text text-anchor="middle" x="386.5" y="-144.8" font-family="Times,serif" font-size="14.00">closeRegistration</text>
</g>
<!-- CourseSection_status_OpenNotEnoughStudents&#45;&gt;CourseSection_status_Cancelled -->
<g id="edge8" class="edge"><title>CourseSection_status_OpenNotEnoughStudents&#45;&gt;CourseSection_status_Cancelled</title>
<g id="a_edge8"><a xlink:title="OpenNotEnoughStudents cancel &#45;&gt; Cancelled">
<path fill="none" stroke="black" d="M337.116,-260.92C368.283,-240.46 416.374,-202.985 436.5,-156 455.54,-111.549 409.046,-67.5577 373.498,-41.8529"/>
<polygon fill="black" stroke="black" points="375.396,-38.909 365.199,-36.0325 371.377,-44.64 375.396,-38.909"/>
</a>
</g>
<text text-anchor="middle" x="457.5" y="-144.8" font-family="Times,serif" font-size="14.00">cancel</text>
</g>
<!-- CourseSection_status_OpenEnoughStudents&#45;&gt;CourseSection_status_OpenEnoughStudents -->
<g id="edge5" class="edge"><title>CourseSection_status_OpenEnoughStudents&#45;&gt;CourseSection_status_OpenEnoughStudents</title>
<g id="a_edge5"><a xlink:title="OpenEnoughStudents requestToRegister &#45;&gt; OpenEnoughStudents">
<path fill="none" stroke="black" d="M139.173,-199.181C149.79,-198.085 157,-195.691 157,-192 157,-189.635 154.041,-187.803 149.123,-186.503"/>
<polygon fill="black" stroke="black" points="149.617,-183.037 139.173,-184.819 148.448,-189.939 149.617,-183.037"/>
</a>
</g>
<text text-anchor="middle" x="208.5" y="-188.3" font-family="Times,serif" font-size="14.00">requestToRegister</text>
</g>
<!-- CourseSection_status_OpenEnoughStudents&#45;&gt;CourseSection_status_Cancelled -->
<g id="edge9" class="edge"><title>CourseSection_status_OpenEnoughStudents&#45;&gt;CourseSection_status_Cancelled</title>
<g id="a_edge9"><a xlink:title="OpenEnoughStudents cancel &#45;&gt; Cancelled">
<path fill="none" stroke="black" d="M44.1538,-173.914C38.6337,-168.852 33.5399,-162.813 30.5,-156 27.7834,-149.912 28.1966,-147.256 30.5,-141 41.3931,-111.414 49.7891,-103.748 76.5,-87 143.772,-44.8194 236.439,-28.6831 291.343,-22.5953"/>
<polygon fill="black" stroke="black" points="291.888,-26.0576 301.471,-21.5392 291.162,-19.0953 291.888,-26.0576"/>
</a>
</g>
<text text-anchor="middle" x="94.5" y="-101.3" font-family="Times,serif" font-size="14.00">cancel</text>
</g>
<!-- CourseSection_status_Closed -->
<g id="node6" class="node"><title>CourseSection_status_Closed</title>
<path fill="none" stroke="black" d="M181.5,-123C181.5,-123 133.5,-123 133.5,-123 127.5,-123 121.5,-117 121.5,-111 121.5,-111 121.5,-99 121.5,-99 121.5,-93 127.5,-87 133.5,-87 133.5,-87 181.5,-87 181.5,-87 187.5,-87 193.5,-93 193.5,-99 193.5,-99 193.5,-111 193.5,-111 193.5,-117 187.5,-123 181.5,-123"/>
<text text-anchor="middle" x="157.5" y="-101.3" font-family="Times,serif" font-size="14.00">Closed</text>
</g>
<!-- CourseSection_status_OpenEnoughStudents&#45;&gt;CourseSection_status_Closed -->
<g id="edge11" class="edge"><title>CourseSection_status_OpenEnoughStudents&#45;&gt;CourseSection_status_Closed</title>
<g id="a_edge11"><a xlink:title="OpenEnoughStudents closeRegistration &#45;&gt; Closed">
<path fill="none" stroke="black" d="M47.5637,-173.915C37.5849,-164.053 29.5849,-151.553 37.5,-141 54.4551,-118.393 85.2089,-109.729 111.337,-106.672"/>
<polygon fill="black" stroke="black" points="111.821,-110.143 121.455,-105.732 111.174,-103.173 111.821,-110.143"/>
</a>
</g>
<text text-anchor="middle" x="86.5" y="-144.8" font-family="Times,serif" font-size="14.00">closeRegistration</text>
</g>
<!-- CourseSection_status_OpenEnoughStudents&#45;&gt;CourseSection_status_Closed -->
<g id="edge12" class="edge"><title>CourseSection_status_OpenEnoughStudents&#45;&gt;CourseSection_status_Closed</title>
<g id="a_edge12"><a xlink:title="OpenEnoughStudents classSizeExceedsMaximum &#45;&gt; Closed">
<path fill="none" stroke="black" d="M111.893,-173.937C120.471,-169.079 128.878,-163.125 135.5,-156 141.559,-149.481 146.132,-141.023 149.495,-132.923"/>
<polygon fill="black" stroke="black" points="152.839,-133.968 153.014,-123.375 146.271,-131.547 152.839,-133.968"/>
</a>
</g>
<text text-anchor="middle" x="225" y="-144.8" font-family="Times,serif" font-size="14.00">classSizeExceedsMaximum</text>
</g>
<!-- CourseSection_status_Closed&#45;&gt;CourseSection_status_Cancelled -->
<g id="edge10" class="edge"><title>CourseSection_status_Closed&#45;&gt;CourseSection_status_Cancelled</title>
<g id="a_edge10"><a xlink:title="Closed cancel &#45;&gt; Cancelled">
<path fill="none" stroke="black" d="M193.926,-86.799C222.32,-73.3904 261.901,-54.6996 292.314,-40.3377"/>
<polygon fill="black" stroke="black" points="293.888,-43.4652 301.436,-36.0302 290.899,-37.1354 293.888,-43.4652"/>
</a>
</g>
<text text-anchor="middle" x="276.5" y="-57.8" font-family="Times,serif" font-size="14.00">cancel</text>
</g>
</g>
</svg>
