<?xml version="1.0" encoding="UTF-8" standalone="no"?>
<!DOCTYPE svg PUBLIC "-//W3C//DTD SVG 1.1//EN"
 "http://www.w3.org/Graphics/SVG/1.1/DTD/svg11.dtd">
<!-- Generated by graphviz version 2.36.0 (20140111.2315)
 -->
<!-- Title: CourseSectionFlat Pages: 1 -->
<svg width="581pt" height="448pt"
 viewBox="0.00 0.00 581.00 448.00" xmlns="http://www.w3.org/2000/svg" xmlns:xlink="http://www.w3.org/1999/xlink">
<g id="graph0" class="graph" transform="scale(1 1) rotate(0) translate(4 444)">
<title>CourseSectionFlat</title>
<polygon fill="white" stroke="none" points="-4,4 -4,-444 577,-444 577,4 -4,4"/>
<!-- start_CourseSection_status -->
<g id="node1" class="node"><title>start_CourseSection_status</title>
<ellipse fill="black" stroke="black" cx="452" cy="-433" rx="7.2" ry="7.2"/>
</g>
<!-- CourseSection_status_Planned -->
<g id="node2" class="node"><title>CourseSection_status_Planned</title>
<path fill="none" stroke="black" d="M476,-388C476,-388 428,-388 428,-388 422,-388 416,-382 416,-376 416,-376 416,-364 416,-364 416,-358 422,-352 428,-352 428,-352 476,-352 476,-352 482,-352 488,-358 488,-364 488,-364 488,-376 488,-376 488,-382 482,-388 476,-388"/>
<text text-anchor="middle" x="452" y="-366.3" font-family="Times,serif" font-size="14.00">Planned</text>
</g>
<!-- start_CourseSection_status&#45;&gt;CourseSection_status_Planned -->
<g id="edge1" class="edge"><title>start_CourseSection_status&#45;&gt;CourseSection_status_Planned</title>
<path fill="none" stroke="black" d="M452,-425.472C452,-418.902 452,-408.324 452,-398.229"/>
<polygon fill="black" stroke="black" points="455.5,-398.073 452,-388.073 448.5,-398.073 455.5,-398.073"/>
</g>
<!-- CourseSection_status_OpenNotEnoughStudents -->
<g id="node3" class="node"><title>CourseSection_status_OpenNotEnoughStudents</title>
<path fill="none" stroke="black" d="M376,-300C376,-300 240,-300 240,-300 234,-300 228,-294 228,-288 228,-288 228,-276 228,-276 228,-270 234,-264 240,-264 240,-264 376,-264 376,-264 382,-264 388,-270 388,-276 388,-276 388,-288 388,-288 388,-294 382,-300 376,-300"/>
<text text-anchor="middle" x="308" y="-278.3" font-family="Times,serif" font-size="14.00">OpenNotEnoughStudents</text>
</g>
<!-- CourseSection_status_Planned&#45;&gt;CourseSection_status_OpenNotEnoughStudents -->
<g id="edge2" class="edge"><title>CourseSection_status_Planned&#45;&gt;CourseSection_status_OpenNotEnoughStudents</title>
<path fill="none" stroke="black" d="M423.206,-351.803C400.837,-338.444 369.641,-319.813 345.351,-305.307"/>
<polygon fill="black" stroke="black" points="347.125,-302.289 336.745,-300.167 343.535,-308.299 347.125,-302.289"/>
<text text-anchor="middle" x="440" y="-322.3" font-family="Times,serif" font-size="14.00">openRegistration</text>
</g>
<!-- CourseSection_status_Cancelled -->
<g id="node5" class="node"><title>CourseSection_status_Cancelled</title>
<path fill="none" stroke="black" d="M361,-36C361,-36 313,-36 313,-36 307,-36 301,-30 301,-24 301,-24 301,-12 301,-12 301,-6 307,-0 313,-0 313,-0 361,-0 361,-0 367,-0 373,-6 373,-12 373,-12 373,-24 373,-24 373,-30 367,-36 361,-36"/>
<text text-anchor="middle" x="337" y="-14.3" font-family="Times,serif" font-size="14.00">Cancelled</text>
</g>
<!-- CourseSection_status_Planned&#45;&gt;CourseSection_status_Cancelled -->
<g id="edge6" class="edge"><title>CourseSection_status_Planned&#45;&gt;CourseSection_status_Cancelled</title>
<path fill="none" stroke="black" d="M485.594,-351.987C509.353,-337.311 537,-313.649 537,-283 537,-283 537,-283 537,-105 537,-38.5026 442.537,-22.7871 383.451,-19.4612"/>
<polygon fill="black" stroke="black" points="383.37,-15.9538 373.218,-18.9878 383.046,-22.9463 383.37,-15.9538"/>
<text text-anchor="middle" x="555" y="-190.3" font-family="Times,serif" font-size="14.00">cancel</text>
</g>
<!-- CourseSection_status_OpenNotEnoughStudents&#45;&gt;CourseSection_status_OpenNotEnoughStudents -->
<g id="edge3" class="edge"><title>CourseSection_status_OpenNotEnoughStudents&#45;&gt;CourseSection_status_OpenNotEnoughStudents</title>
<path fill="none" stroke="black" d="M388.36,-289.275C398.966,-288.034 406,-285.609 406,-282 406,-279.688 403.113,-277.862 398.25,-276.521"/>
<polygon fill="black" stroke="black" points="398.824,-273.069 388.36,-274.725 397.573,-279.956 398.824,-273.069"/>
<text text-anchor="middle" x="457.5" y="-278.3" font-family="Times,serif" font-size="14.00">requestToRegister</text>
</g>
<!-- CourseSection_status_OpenEnoughStudents -->
<g id="node4" class="node"><title>CourseSection_status_OpenEnoughStudents</title>
<path fill="none" stroke="black" d="M126.25,-212C126.25,-212 11.75,-212 11.75,-212 5.75,-212 -0.25,-206 -0.25,-200 -0.25,-200 -0.25,-188 -0.25,-188 -0.25,-182 5.75,-176 11.75,-176 11.75,-176 126.25,-176 126.25,-176 132.25,-176 138.25,-182 138.25,-188 138.25,-188 138.25,-200 138.25,-200 138.25,-206 132.25,-212 126.25,-212"/>
<text text-anchor="middle" x="69" y="-190.3" font-family="Times,serif" font-size="14.00">OpenEnoughStudents</text>
</g>
<!-- CourseSection_status_OpenNotEnoughStudents&#45;&gt;CourseSection_status_OpenEnoughStudents -->
<g id="edge4" class="edge"><title>CourseSection_status_OpenNotEnoughStudents&#45;&gt;CourseSection_status_OpenEnoughStudents</title>
<path fill="none" stroke="black" d="M227.667,-264.039C208.201,-259.039 187.638,-252.997 169,-246 147.929,-238.089 125.518,-226.937 107.264,-217.077"/>
<polygon fill="black" stroke="black" points="108.846,-213.953 98.3946,-212.213 105.479,-220.09 108.846,-213.953"/>
<text text-anchor="middle" x="246" y="-234.3" font-family="Times,serif" font-size="14.00">classSizeExceedsMinimum</text>
</g>
<!-- CourseSection_status_OpenNotEnoughStudents&#45;&gt;CourseSection_status_Cancelled -->
<g id="edge7" class="edge"><title>CourseSection_status_OpenNotEnoughStudents&#45;&gt;CourseSection_status_Cancelled</title>
<path fill="none" stroke="black" d="M316.692,-263.955C319.16,-258.371 321.564,-252.046 323,-246 339.749,-175.498 339.679,-89.4177 338.296,-46.3283"/>
<polygon fill="black" stroke="black" points="341.785,-45.9546 337.916,-36.0915 334.79,-46.2147 341.785,-45.9546"/>
<text text-anchor="middle" x="386" y="-146.3" font-family="Times,serif" font-size="14.00">closeRegistration</text>
</g>
<!-- CourseSection_status_OpenNotEnoughStudents&#45;&gt;CourseSection_status_Cancelled -->
<g id="edge8" class="edge"><title>CourseSection_status_OpenNotEnoughStudents&#45;&gt;CourseSection_status_Cancelled</title>
<path fill="none" stroke="black" d="M336.342,-263.907C367.506,-243.267 415.831,-205.352 436,-158 455.185,-112.956 408.35,-68.1455 372.734,-42.0362"/>
<polygon fill="black" stroke="black" points="374.602,-39.0699 364.424,-36.1268 370.545,-44.7745 374.602,-39.0699"/>
<text text-anchor="middle" x="457" y="-146.3" font-family="Times,serif" font-size="14.00">cancel</text>
</g>
<!-- CourseSection_status_OpenEnoughStudents&#45;&gt;CourseSection_status_OpenEnoughStudents -->
<g id="edge5" class="edge"><title>CourseSection_status_OpenEnoughStudents&#45;&gt;CourseSection_status_OpenEnoughStudents</title>
<path fill="none" stroke="black" d="M138.275,-201.523C148.831,-200.375 156,-197.867 156,-194 156,-191.523 153.058,-189.603 148.168,-188.242"/>
<polygon fill="black" stroke="black" points="148.734,-184.787 138.275,-186.477 147.505,-191.679 148.734,-184.787"/>
<text text-anchor="middle" x="207.5" y="-190.3" font-family="Times,serif" font-size="14.00">requestToRegister</text>
</g>
<!-- CourseSection_status_OpenEnoughStudents&#45;&gt;CourseSection_status_Cancelled -->
<g id="edge9" class="edge"><title>CourseSection_status_OpenEnoughStudents&#45;&gt;CourseSection_status_Cancelled</title>
<path fill="none" stroke="black" d="M43.6538,-175.914C38.1337,-170.852 33.0399,-164.813 30,-158 27.1023,-151.506 27.543,-148.673 30,-142 40.8931,-112.414 49.3192,-104.796 76,-88 143.259,-45.6591 235.931,-29.1361 290.839,-22.8055"/>
<polygon fill="black" stroke="black" points="291.404,-26.2647 300.967,-21.7043 290.648,-19.3057 291.404,-26.2647"/>
<text text-anchor="middle" x="94" y="-102.3" font-family="Times,serif" font-size="14.00">cancel</text>
</g>
<!-- CourseSection_status_Closed -->
<g id="node6" class="node"><title>CourseSection_status_Closed</title>
<path fill="none" stroke="black" d="M181,-124C181,-124 133,-124 133,-124 127,-124 121,-118 121,-112 121,-112 121,-100 121,-100 121,-94 127,-88 133,-88 133,-88 181,-88 181,-88 187,-88 193,-94 193,-100 193,-100 193,-112 193,-112 193,-118 187,-124 181,-124"/>
<text text-anchor="middle" x="157" y="-102.3" font-family="Times,serif" font-size="14.00">Closed</text>
</g>
<!-- CourseSection_status_OpenEnoughStudents&#45;&gt;CourseSection_status_Closed -->
<g id="edge11" class="edge"><title>CourseSection_status_OpenEnoughStudents&#45;&gt;CourseSection_status_Closed</title>
<path fill="none" stroke="black" d="M47.4497,-175.998C37.2262,-165.853 28.8468,-152.871 37,-142 53.9551,-119.393 84.7089,-110.729 110.837,-107.672"/>
<polygon fill="black" stroke="black" points="111.321,-111.143 120.955,-106.732 110.674,-104.173 111.321,-111.143"/>
<text text-anchor="middle" x="86" y="-146.3" font-family="Times,serif" font-size="14.00">closeRegistration</text>
</g>
<!-- CourseSection_status_OpenEnoughStudents&#45;&gt;CourseSection_status_Closed -->
<g id="edge12" class="edge"><title>CourseSection_status_OpenEnoughStudents&#45;&gt;CourseSection_status_Closed</title>
<path fill="none" stroke="black" d="M111.432,-175.973C120.007,-171.113 128.403,-165.149 135,-158 141.298,-151.174 145.971,-142.266 149.35,-133.808"/>
<polygon fill="black" stroke="black" points="152.701,-134.833 152.743,-124.238 146.103,-132.494 152.701,-134.833"/>
<text text-anchor="middle" x="224.5" y="-146.3" font-family="Times,serif" font-size="14.00">classSizeExceedsMaximum</text>
</g>
<!-- CourseSection_status_Closed&#45;&gt;CourseSection_status_Cancelled -->
<g id="edge10" class="edge"><title>CourseSection_status_Closed&#45;&gt;CourseSection_status_Cancelled</title>
<path fill="none" stroke="black" d="M192.993,-87.8033C221.537,-74.1657 261.582,-55.0332 292.2,-40.4044"/>
<polygon fill="black" stroke="black" points="293.862,-43.4893 301.376,-36.0201 290.845,-37.1731 293.862,-43.4893"/>
<text text-anchor="middle" x="282" y="-58.3" font-family="Times,serif" font-size="14.00">cancel</text>
</g>
</g>
</svg>
