<?xml version="1.0" encoding="UTF-8" standalone="no"?>
<!DOCTYPE svg PUBLIC "-//W3C//DTD SVG 1.1//EN"
 "http://www.w3.org/Graphics/SVG/1.1/DTD/svg11.dtd">
<!-- Generated by graphviz version 2.39.20140502.0445 (20140502.0445)
 -->
<!-- Title: DigitalWatchFlat Pages: 1 -->
<svg width="961pt" height="720pt"
 viewBox="0.00 0.00 960.66 720.00" xmlns="http://www.w3.org/2000/svg" xmlns:xlink="http://www.w3.org/1999/xlink">
<g id="graph0" class="graph" transform="scale(0.819672 0.819672) rotate(0) translate(4 874.4)">
<title>DigitalWatchFlat</title>
<polygon fill="white" stroke="none" points="-4,4 -4,-874.4 1168,-874.4 1168,4 -4,4"/>
<!-- start_DigitalWatch_sm -->
<g id="node1" class="node"><title>start_DigitalWatch_sm</title>
<ellipse fill="black" stroke="black" cx="474" cy="-863.2" rx="7.2" ry="7.2"/>
</g>
<!-- DigitalWatch_sm_time -->
<g id="node2" class="node"><title>DigitalWatch_sm_time</title>
<path fill="none" stroke="black" d="M498,-819C498,-819 450,-819 450,-819 444,-819 438,-813 438,-807 438,-807 438,-795 438,-795 438,-789 444,-783 450,-783 450,-783 498,-783 498,-783 504,-783 510,-789 510,-795 510,-795 510,-807 510,-807 510,-813 504,-819 498,-819"/>
<text text-anchor="middle" x="474" y="-797.3" font-family="Times,serif" font-size="14.00">time</text>
</g>
<!-- start_DigitalWatch_sm&#45;&gt;DigitalWatch_sm_time -->
<g id="edge1" class="edge"><title>start_DigitalWatch_sm&#45;&gt;DigitalWatch_sm_time</title>
<g id="a_edge1"><a xlink:title="start &#160;&#45;&gt; time">
<path fill="none" stroke="black" d="M474,-855.758C474,-849.387 474,-839.197 474,-829.393"/>
<polygon fill="black" stroke="black" points="477.5,-829.105 474,-819.105 470.5,-829.105 477.5,-829.105"/>
</a>
</g>
</g>
<!-- DigitalWatch_sm_date -->
<g id="node3" class="node"><title>DigitalWatch_sm_date</title>
<path fill="none" stroke="black" d="M60,-732C60,-732 12,-732 12,-732 6,-732 0,-726 0,-720 0,-720 0,-708 0,-708 0,-702 6,-696 12,-696 12,-696 60,-696 60,-696 66,-696 72,-702 72,-708 72,-708 72,-720 72,-720 72,-726 66,-732 60,-732"/>
<text text-anchor="middle" x="36" y="-710.3" font-family="Times,serif" font-size="14.00">date</text>
</g>
<!-- DigitalWatch_sm_time&#45;&gt;DigitalWatch_sm_date -->
<g id="edge17" class="edge"><title>DigitalWatch_sm_time&#45;&gt;DigitalWatch_sm_date</title>
<g id="a_edge17"><a xlink:title="time s1 &#45;&gt; date">
<path fill="none" stroke="black" d="M52.4252,-740.767 59.704,-749.999 69.1014,-759.479 80,-765 142.027,-796.419 352.453,-800.032 437.696,-800.17"/>
<polygon fill="black" stroke="black" points="55.0873,-738.479 46.3539,-732.48 49.4405,-742.616 55.0873,-738.479"/>
</a>
</g>
<text text-anchor="middle" x="86.5" y="-753.8" font-family="Times,serif" font-size="14.00">s1</text>
</g>
<!-- DigitalWatch_sm_paused -->
<g id="node4" class="node"><title>DigitalWatch_sm_paused</title>
<path fill="none" stroke="black" d="M150,-732C150,-732 102,-732 102,-732 96,-732 90,-726 90,-720 90,-720 90,-708 90,-708 90,-702 96,-696 102,-696 102,-696 150,-696 150,-696 156,-696 162,-702 162,-708 162,-708 162,-720 162,-720 162,-726 156,-732 150,-732"/>
<text text-anchor="middle" x="126" y="-710.3" font-family="Times,serif" font-size="14.00">paused</text>
</g>
<!-- DigitalWatch_sm_time&#45;&gt;DigitalWatch_sm_paused -->
<g id="edge18" class="edge"><title>DigitalWatch_sm_time&#45;&gt;DigitalWatch_sm_paused</title>
<g id="a_edge18"><a xlink:title="time s3 &#45;&gt; paused">
<path fill="none" stroke="black" d="M152.501,-738.348 165.135,-748.192 180.971,-758.79 197,-765 278.81,-796.696 383.406,-801.068 437.671,-800.909"/>
<polygon fill="black" stroke="black" points="154.669,-735.601 144.69,-732.041 150.272,-741.047 154.669,-735.601"/>
</a>
</g>
<text text-anchor="middle" x="203.5" y="-753.8" font-family="Times,serif" font-size="14.00">s3</text>
</g>
<!-- DigitalWatch_sm_bothOff -->
<g id="node8" class="node"><title>DigitalWatch_sm_bothOff</title>
<path fill="none" stroke="black" d="M482,-732C482,-732 434,-732 434,-732 428,-732 422,-726 422,-720 422,-720 422,-708 422,-708 422,-702 428,-696 434,-696 434,-696 482,-696 482,-696 488,-696 494,-702 494,-708 494,-708 494,-720 494,-720 494,-726 488,-732 482,-732"/>
<text text-anchor="middle" x="458" y="-710.3" font-family="Times,serif" font-size="14.00">bothOff</text>
</g>
<!-- DigitalWatch_sm_time&#45;&gt;DigitalWatch_sm_bothOff -->
<g id="edge27" class="edge"><title>DigitalWatch_sm_time&#45;&gt;DigitalWatch_sm_bothOff</title>
<g id="a_edge27"><a xlink:title="time s2 &#45;&gt; bothOff">
<path fill="none" stroke="black" d="M448.332,-742.144 446.945,-749.647 446.668,-757.724 449,-765 451.005,-771.258 454.586,-777.349 458.422,-782.649"/>
<polygon fill="black" stroke="black" points="451.739,-742.949 450.771,-732.399 444.948,-741.25 451.739,-742.949"/>
</a>
</g>
<text text-anchor="middle" x="455.5" y="-753.8" font-family="Times,serif" font-size="14.00">s2</text>
</g>
<!-- DigitalWatch_sm_alarmTime -->
<g id="node12" class="node"><title>DigitalWatch_sm_alarmTime</title>
<path fill="none" stroke="black" d="M813,-732C813,-732 759,-732 759,-732 753,-732 747,-726 747,-720 747,-720 747,-708 747,-708 747,-702 753,-696 759,-696 759,-696 813,-696 813,-696 819,-696 825,-702 825,-708 825,-708 825,-720 825,-720 825,-726 819,-732 813,-732"/>
<text text-anchor="middle" x="786" y="-710.3" font-family="Times,serif" font-size="14.00">alarmTime</text>
</g>
<!-- DigitalWatch_sm_time&#45;&gt;DigitalWatch_sm_alarmTime -->
<g id="edge32" class="edge"><title>DigitalWatch_sm_time&#45;&gt;DigitalWatch_sm_alarmTime</title>
<g id="a_edge32"><a xlink:title="time s3during2Secs &#45;&gt; alarmTime">
<path fill="none" stroke="black" d="M510.038,-800.655C559.726,-800.304 651.163,-795.092 722,-765 736.411,-758.878 750.362,-748.659 761.541,-739.049"/>
<polygon fill="black" stroke="black" points="764.044,-741.506 769.157,-732.227 759.373,-736.292 764.044,-741.506"/>
</a>
</g>
<text text-anchor="middle" x="788" y="-753.8" font-family="Times,serif" font-size="14.00">s3during2Secs</text>
</g>
<!-- DigitalWatch_sm_date&#45;&gt;DigitalWatch_sm_time -->
<g id="edge2" class="edge"><title>DigitalWatch_sm_date&#45;&gt;DigitalWatch_sm_time</title>
<g id="a_edge2"><a xlink:title="date notS1 &#45;&gt; time">
<path fill="none" stroke="black" d="M62.4461,-732.08C81.3303,-743.396 107.758,-757.492 133,-765 235.065,-795.359 361.039,-800.378 427.64,-800.648"/>
<polygon fill="black" stroke="black" points="427.804,-804.148 437.806,-800.654 427.808,-797.148 427.804,-804.148"/>
</a>
</g>
<text text-anchor="middle" x="149.5" y="-753.8" font-family="Times,serif" font-size="14.00">notS1</text>
</g>
<!-- DigitalWatch_sm_paused&#45;&gt;DigitalWatch_sm_time -->
<g id="edge3" class="edge"><title>DigitalWatch_sm_paused&#45;&gt;DigitalWatch_sm_time</title>
<g id="a_edge3"><a xlink:title="paused s3 &#45;&gt; time">
<path fill="none" stroke="black" d="M162.018,-729.172C177.969,-735.488 196.945,-743.056 214,-750 230.054,-756.536 233.317,-760.295 250,-765 310.098,-781.95 381.733,-791.333 427.526,-796.018"/>
<polygon fill="black" stroke="black" points="427.443,-799.527 437.739,-797.029 428.133,-792.561 427.443,-799.527"/>
</a>
</g>
<text text-anchor="middle" x="256.5" y="-753.8" font-family="Times,serif" font-size="14.00">s3</text>
</g>
<!-- DigitalWatch_sm_paused&#45;&gt;DigitalWatch_sm_paused -->
<g id="edge19" class="edge"><title>DigitalWatch_sm_paused&#45;&gt;DigitalWatch_sm_paused</title>
<g id="a_edge19"><a xlink:title="paused s2 / zero(); &#45;&gt; paused">
<path fill="none" stroke="black" d="M162.087,-721.836C172.221,-721.493 180,-718.881 180,-714 180,-710.949 176.961,-708.785 172.208,-707.507"/>
<polygon fill="black" stroke="black" points="172.461,-704.01 162.087,-706.164 171.54,-710.949 172.461,-704.01"/>
</a>
</g>
<text text-anchor="middle" x="210.5" y="-710.3" font-family="Times,serif" font-size="14.00">s2 / zero();</text>
</g>
<!-- DigitalWatch_sm_running -->
<g id="node5" class="node"><title>DigitalWatch_sm_running</title>
<path fill="none" stroke="black" d="M239,-645C239,-645 191,-645 191,-645 185,-645 179,-639 179,-633 179,-633 179,-621 179,-621 179,-615 185,-609 191,-609 191,-609 239,-609 239,-609 245,-609 251,-615 251,-621 251,-621 251,-633 251,-633 251,-639 245,-645 239,-645"/>
<text text-anchor="middle" x="215" y="-623.3" font-family="Times,serif" font-size="14.00">running</text>
</g>
<!-- DigitalWatch_sm_paused&#45;&gt;DigitalWatch_sm_running -->
<g id="edge22" class="edge"><title>DigitalWatch_sm_paused&#45;&gt;DigitalWatch_sm_running</title>
<g id="a_edge22"><a xlink:title="paused s1 &#45;&gt; running">
<path fill="none" stroke="black" d="M162.163,-698.637C172.405,-693.297 182.947,-686.436 191,-678 197.308,-671.392 202.237,-662.815 205.942,-654.635"/>
<polygon fill="black" stroke="black" points="209.191,-655.938 209.74,-645.358 202.712,-653.287 209.191,-655.938"/>
</a>
</g>
<text text-anchor="middle" x="208.5" y="-666.8" font-family="Times,serif" font-size="14.00">s1</text>
</g>
<!-- DigitalWatch_sm_running&#45;&gt;DigitalWatch_sm_time -->
<g id="edge4" class="edge"><title>DigitalWatch_sm_running&#45;&gt;DigitalWatch_sm_time</title>
<g id="a_edge4"><a xlink:title="running s3 &#45;&gt; time">
<path fill="none" stroke="black" d="M223.997,-645.229C241.679,-678.447 281.217,-749.451 304,-765 340.471,-789.89 390.89,-797.754 427.339,-799.927"/>
<polygon fill="black" stroke="black" points="427.544,-803.441 437.698,-800.416 427.874,-796.449 427.544,-803.441"/>
</a>
</g>
<text text-anchor="middle" x="281.5" y="-710.3" font-family="Times,serif" font-size="14.00">s3</text>
</g>
<!-- DigitalWatch_sm_running&#45;&gt;DigitalWatch_sm_paused -->
<g id="edge20" class="edge"><title>DigitalWatch_sm_running&#45;&gt;DigitalWatch_sm_paused</title>
<g id="a_edge20"><a xlink:title="running s1 &#45;&gt; paused">
<path fill="none" stroke="black" d="M151.227,-688.664 159.719,-680.493 169.257,-671.338 178,-663 184.143,-657.142 190.882,-650.755 196.906,-645.06"/>
<polygon fill="black" stroke="black" points="148.55,-686.382 143.775,-695.84 153.406,-691.424 148.55,-686.382"/>
</a>
</g>
<text text-anchor="middle" x="184.5" y="-666.8" font-family="Times,serif" font-size="14.00">s1</text>
</g>
<!-- DigitalWatch_sm_lapRunning -->
<g id="node6" class="node"><title>DigitalWatch_sm_lapRunning</title>
<path fill="none" stroke="black" d="M280,-558C280,-558 222,-558 222,-558 216,-558 210,-552 210,-546 210,-546 210,-534 210,-534 210,-528 216,-522 222,-522 222,-522 280,-522 280,-522 286,-522 292,-528 292,-534 292,-534 292,-546 292,-546 292,-552 286,-558 280,-558"/>
<text text-anchor="middle" x="251" y="-536.3" font-family="Times,serif" font-size="14.00">lapRunning</text>
</g>
<!-- DigitalWatch_sm_running&#45;&gt;DigitalWatch_sm_lapRunning -->
<g id="edge24" class="edge"><title>DigitalWatch_sm_running&#45;&gt;DigitalWatch_sm_lapRunning</title>
<g id="a_edge24"><a xlink:title="running s2 &#45;&gt; lapRunning">
<path fill="none" stroke="black" d="M211.204,-608.656C209.855,-598.707 209.605,-586.207 214,-576 215.568,-572.358 217.722,-568.918 220.209,-565.721"/>
<polygon fill="black" stroke="black" points="222.813,-568.06 226.931,-558.298 217.624,-563.361 222.813,-568.06"/>
</a>
</g>
<text text-anchor="middle" x="220.5" y="-579.8" font-family="Times,serif" font-size="14.00">s2</text>
</g>
<!-- DigitalWatch_sm_lapRunning&#45;&gt;DigitalWatch_sm_time -->
<g id="edge5" class="edge"><title>DigitalWatch_sm_lapRunning&#45;&gt;DigitalWatch_sm_time</title>
<g id="a_edge5"><a xlink:title="lapRunning s3 &#45;&gt; time">
<path fill="none" stroke="black" d="M255.844,-558.286C269.45,-605.681 309.161,-736.078 342,-765 365.507,-785.703 399.909,-794.359 427.7,-797.888"/>
<polygon fill="black" stroke="black" points="427.671,-801.406 437.99,-799.004 428.426,-794.446 427.671,-801.406"/>
</a>
</g>
<text text-anchor="middle" x="302.5" y="-666.8" font-family="Times,serif" font-size="14.00">s3</text>
</g>
<!-- DigitalWatch_sm_lapRunning&#45;&gt;DigitalWatch_sm_running -->
<g id="edge23" class="edge"><title>DigitalWatch_sm_lapRunning&#45;&gt;DigitalWatch_sm_running</title>
<g id="a_edge23"><a xlink:title="lapRunning s2 &#45;&gt; running">
<path fill="none" stroke="black" d="M226.214,-599.522 231.925,-586.039 238.702,-570.036 243.726,-558.175"/>
<polygon fill="black" stroke="black" points="222.962,-598.226 222.285,-608.799 229.408,-600.956 222.962,-598.226"/>
</a>
</g>
<text text-anchor="middle" x="242.5" y="-579.8" font-family="Times,serif" font-size="14.00">s2</text>
</g>
<!-- DigitalWatch_sm_lapPaused -->
<g id="node7" class="node"><title>DigitalWatch_sm_lapPaused</title>
<path fill="none" stroke="black" d="M275.5,-471C275.5,-471 226.5,-471 226.5,-471 220.5,-471 214.5,-465 214.5,-459 214.5,-459 214.5,-447 214.5,-447 214.5,-441 220.5,-435 226.5,-435 226.5,-435 275.5,-435 275.5,-435 281.5,-435 287.5,-441 287.5,-447 287.5,-447 287.5,-459 287.5,-459 287.5,-465 281.5,-471 275.5,-471"/>
<text text-anchor="middle" x="251" y="-449.3" font-family="Times,serif" font-size="14.00">lapPaused</text>
</g>
<!-- DigitalWatch_sm_lapRunning&#45;&gt;DigitalWatch_sm_lapPaused -->
<g id="edge26" class="edge"><title>DigitalWatch_sm_lapRunning&#45;&gt;DigitalWatch_sm_lapPaused</title>
<g id="a_edge26"><a xlink:title="lapRunning s1 &#45;&gt; lapPaused">
<path fill="none" stroke="black" d="M236.148,-480.64 233.578,-488.11 232.228,-496.296 234,-504 235.393,-510.057 237.98,-516.28 240.724,-521.769"/>
<polygon fill="black" stroke="black" points="239.411,-481.909 240.069,-471.334 232.961,-479.191 239.411,-481.909"/>
</a>
</g>
<text text-anchor="middle" x="240.5" y="-492.8" font-family="Times,serif" font-size="14.00">s1</text>
</g>
<!-- DigitalWatch_sm_lapPaused&#45;&gt;DigitalWatch_sm_time -->
<g id="edge6" class="edge"><title>DigitalWatch_sm_lapPaused&#45;&gt;DigitalWatch_sm_time</title>
<g id="a_edge6"><a xlink:title="lapPaused s3 &#45;&gt; time">
<path fill="none" stroke="black" d="M265.343,-471.128C276.047,-484.438 290.562,-503.661 301,-522 359.024,-623.945 323.684,-679.508 404,-765 410.908,-772.353 419.697,-778.385 428.695,-783.243"/>
<polygon fill="black" stroke="black" points="427.188,-786.403 437.701,-787.716 430.302,-780.133 427.188,-786.403"/>
</a>
</g>
<text text-anchor="middle" x="349.5" y="-623.3" font-family="Times,serif" font-size="14.00">s3</text>
</g>
<!-- DigitalWatch_sm_lapPaused&#45;&gt;DigitalWatch_sm_paused -->
<g id="edge21" class="edge"><title>DigitalWatch_sm_lapPaused&#45;&gt;DigitalWatch_sm_paused</title>
<g id="a_edge21"><a xlink:title="lapPaused s2 &#45;&gt; paused">
<path fill="none" stroke="black" d="M134.066,-686.229 146.01,-648.368 170.329,-577.6 201,-522 211.192,-503.524 225.738,-484.318 236.516,-471.049"/>
<polygon fill="black" stroke="black" points="130.656,-685.407 131.03,-695.995 137.341,-687.485 130.656,-685.407"/>
</a>
</g>
<text text-anchor="middle" x="181.5" y="-579.8" font-family="Times,serif" font-size="14.00">s2</text>
</g>
<!-- DigitalWatch_sm_lapPaused&#45;&gt;DigitalWatch_sm_lapRunning -->
<g id="edge25" class="edge"><title>DigitalWatch_sm_lapPaused&#45;&gt;DigitalWatch_sm_lapRunning</title>
<g id="a_edge25"><a xlink:title="lapPaused s1 &#45;&gt; lapRunning">
<path fill="none" stroke="black" d="M251,-471.175C251,-482.806 251,-498.419 251,-511.734"/>
<polygon fill="black" stroke="black" points="247.5,-511.799 251,-521.799 254.5,-511.799 247.5,-511.799"/>
</a>
</g>
<text text-anchor="middle" x="257.5" y="-492.8" font-family="Times,serif" font-size="14.00">s1</text>
</g>
<!-- DigitalWatch_sm_bothOff&#45;&gt;DigitalWatch_sm_time -->
<g id="edge7" class="edge"><title>DigitalWatch_sm_bothOff&#45;&gt;DigitalWatch_sm_time</title>
<g id="a_edge7"><a xlink:title="bothOff notS2 &#45;&gt; time">
<path fill="none" stroke="black" d="M461.233,-732.175C463.422,-743.806 466.361,-759.419 468.868,-772.734"/>
<polygon fill="black" stroke="black" points="465.473,-773.619 470.762,-782.799 472.352,-772.324 465.473,-773.619"/>
</a>
</g>
<text text-anchor="middle" x="483.5" y="-753.8" font-family="Times,serif" font-size="14.00">notS2</text>
</g>
<!-- DigitalWatch_sm_chimeOn -->
<g id="node9" class="node"><title>DigitalWatch_sm_chimeOn</title>
<path fill="none" stroke="black" d="M543,-645C543,-645 495,-645 495,-645 489,-645 483,-639 483,-633 483,-633 483,-621 483,-621 483,-615 489,-609 495,-609 495,-609 543,-609 543,-609 549,-609 555,-615 555,-621 555,-621 555,-633 555,-633 555,-639 549,-645 543,-645"/>
<text text-anchor="middle" x="519" y="-623.3" font-family="Times,serif" font-size="14.00">chimeOn</text>
</g>
<!-- DigitalWatch_sm_bothOff&#45;&gt;DigitalWatch_sm_chimeOn -->
<g id="edge29" class="edge"><title>DigitalWatch_sm_bothOff&#45;&gt;DigitalWatch_sm_chimeOn</title>
<g id="a_edge29"><a xlink:title="bothOff s1 &#45;&gt; chimeOn">
<path fill="none" stroke="black" d="M467.254,-695.837C472.838,-685.95 480.338,-673.45 488,-663 490.415,-659.706 493.078,-656.356 495.798,-653.097"/>
<polygon fill="black" stroke="black" points="498.672,-655.125 502.57,-645.273 493.379,-650.544 498.672,-655.125"/>
</a>
</g>
<text text-anchor="middle" x="494.5" y="-666.8" font-family="Times,serif" font-size="14.00">s1</text>
</g>
<!-- DigitalWatch_sm_chimeOn&#45;&gt;DigitalWatch_sm_time -->
<g id="edge8" class="edge"><title>DigitalWatch_sm_chimeOn&#45;&gt;DigitalWatch_sm_time</title>
<g id="a_edge8"><a xlink:title="chimeOn notS2 &#45;&gt; time">
<path fill="none" stroke="black" d="M519.148,-780.528 525.521,-776.185 531.442,-771.035 536,-765 563.895,-728.066 575.587,-705.388 557,-663 554.047,-656.264 549.086,-650.253 543.708,-645.192"/>
<polygon fill="black" stroke="black" points="516.973,-777.755 510.265,-785.957 520.623,-783.728 516.973,-777.755"/>
</a>
</g>
<text text-anchor="middle" x="583.5" y="-710.3" font-family="Times,serif" font-size="14.00">notS2</text>
</g>
<!-- DigitalWatch_sm_bothOn -->
<g id="node10" class="node"><title>DigitalWatch_sm_bothOn</title>
<path fill="none" stroke="black" d="M543,-558C543,-558 495,-558 495,-558 489,-558 483,-552 483,-546 483,-546 483,-534 483,-534 483,-528 489,-522 495,-522 495,-522 543,-522 543,-522 549,-522 555,-528 555,-534 555,-534 555,-546 555,-546 555,-552 549,-558 543,-558"/>
<text text-anchor="middle" x="519" y="-536.3" font-family="Times,serif" font-size="14.00">bothOn</text>
</g>
<!-- DigitalWatch_sm_chimeOn&#45;&gt;DigitalWatch_sm_bothOn -->
<g id="edge30" class="edge"><title>DigitalWatch_sm_chimeOn&#45;&gt;DigitalWatch_sm_bothOn</title>
<g id="a_edge30"><a xlink:title="chimeOn s1 &#45;&gt; bothOn">
<path fill="none" stroke="black" d="M519,-608.799C519,-597.163 519,-581.548 519,-568.237"/>
<polygon fill="black" stroke="black" points="522.5,-568.175 519,-558.175 515.5,-568.175 522.5,-568.175"/>
</a>
</g>
<text text-anchor="middle" x="525.5" y="-579.8" font-family="Times,serif" font-size="14.00">s1</text>
</g>
<!-- DigitalWatch_sm_bothOn&#45;&gt;DigitalWatch_sm_time -->
<g id="edge9" class="edge"><title>DigitalWatch_sm_bothOn&#45;&gt;DigitalWatch_sm_time</title>
<g id="a_edge9"><a xlink:title="bothOn notS2 &#45;&gt; time">
<path fill="none" stroke="black" d="M496.666,-775.021 499.262,-771.742 501.773,-768.354 504,-765 536.983,-715.324 550.3,-703.033 564,-645 567.676,-629.428 568.61,-624.321 564,-609 558.248,-589.886 545.181,-571.199 534.602,-558.267"/>
<polygon fill="black" stroke="black" points="493.847,-772.936 490.147,-782.864 499.231,-777.411 493.847,-772.936"/>
</a>
</g>
<text text-anchor="middle" x="576.5" y="-666.8" font-family="Times,serif" font-size="14.00">notS2</text>
</g>
<!-- DigitalWatch_sm_alarmOn -->
<g id="node11" class="node"><title>DigitalWatch_sm_alarmOn</title>
<path fill="none" stroke="black" d="M479,-471C479,-471 431,-471 431,-471 425,-471 419,-465 419,-459 419,-459 419,-447 419,-447 419,-441 425,-435 431,-435 431,-435 479,-435 479,-435 485,-435 491,-441 491,-447 491,-447 491,-459 491,-459 491,-465 485,-471 479,-471"/>
<text text-anchor="middle" x="455" y="-449.3" font-family="Times,serif" font-size="14.00">alarmOn</text>
</g>
<!-- DigitalWatch_sm_bothOn&#45;&gt;DigitalWatch_sm_alarmOn -->
<g id="edge31" class="edge"><title>DigitalWatch_sm_bothOn&#45;&gt;DigitalWatch_sm_alarmOn</title>
<g id="a_edge31"><a xlink:title="bothOn s1 &#45;&gt; alarmOn">
<path fill="none" stroke="black" d="M474.033,-479.278 484.359,-492.992 496.853,-509.587 506.049,-521.799"/>
<polygon fill="black" stroke="black" points="476.743,-477.059 467.932,-471.175 471.151,-481.269 476.743,-477.059"/>
</a>
</g>
<text text-anchor="middle" x="497.5" y="-492.8" font-family="Times,serif" font-size="14.00">s1</text>
</g>
<!-- DigitalWatch_sm_alarmOn&#45;&gt;DigitalWatch_sm_time -->
<g id="edge10" class="edge"><title>DigitalWatch_sm_alarmOn&#45;&gt;DigitalWatch_sm_time</title>
<g id="a_edge10"><a xlink:title="alarmOn notS2 &#45;&gt; time">
<path fill="none" stroke="black" d="M432.978,-471.017C415.505,-486.602 394,-511.391 394,-539 394,-715 394,-715 394,-715 394,-741.004 414.1,-762.295 434.15,-777.065"/>
<polygon fill="black" stroke="black" points="432.175,-779.954 442.382,-782.794 436.173,-774.209 432.175,-779.954"/>
</a>
</g>
<text text-anchor="middle" x="410.5" y="-623.3" font-family="Times,serif" font-size="14.00">notS2</text>
</g>
<!-- DigitalWatch_sm_alarmOn&#45;&gt;DigitalWatch_sm_bothOff -->
<g id="edge28" class="edge"><title>DigitalWatch_sm_alarmOn&#45;&gt;DigitalWatch_sm_bothOff</title>
<g id="a_edge28"><a xlink:title="alarmOn s1 &#45;&gt; bothOff">
<path fill="none" stroke="black" d="M455.201,-471.32C455.711,-515.379 457.062,-632.007 457.681,-685.493"/>
<polygon fill="black" stroke="black" points="454.183,-685.645 457.799,-695.604 461.182,-685.564 454.183,-685.645"/>
</a>
</g>
<text text-anchor="middle" x="463.5" y="-579.8" font-family="Times,serif" font-size="14.00">s1</text>
</g>
<!-- DigitalWatch_sm_alarmHour -->
<g id="node13" class="node"><title>DigitalWatch_sm_alarmHour</title>
<path fill="none" stroke="black" d="M839.5,-645C839.5,-645 786.5,-645 786.5,-645 780.5,-645 774.5,-639 774.5,-633 774.5,-633 774.5,-621 774.5,-621 774.5,-615 780.5,-609 786.5,-609 786.5,-609 839.5,-609 839.5,-609 845.5,-609 851.5,-615 851.5,-621 851.5,-621 851.5,-633 851.5,-633 851.5,-639 845.5,-645 839.5,-645"/>
<text text-anchor="middle" x="813" y="-623.3" font-family="Times,serif" font-size="14.00">alarmHour</text>
</g>
<!-- DigitalWatch_sm_alarmTime&#45;&gt;DigitalWatch_sm_alarmHour -->
<g id="edge33" class="edge"><title>DigitalWatch_sm_alarmTime&#45;&gt;DigitalWatch_sm_alarmHour</title>
<g id="a_edge33"><a xlink:title="alarmTime s2 / alarmHour++; &#45;&gt; alarmHour">
<path fill="none" stroke="black" d="M791.464,-695.799C795.197,-684.047 800.218,-668.238 804.474,-654.842"/>
<polygon fill="black" stroke="black" points="807.853,-655.766 807.544,-645.175 801.181,-653.647 807.853,-655.766"/>
</a>
</g>
<text text-anchor="middle" x="854" y="-666.8" font-family="Times,serif" font-size="14.00">s2 / alarmHour++;</text>
</g>
<!-- DigitalWatch_sm_alarmMinute -->
<g id="node14" class="node"><title>DigitalWatch_sm_alarmMinute</title>
<path fill="none" stroke="black" d="M900.5,-558C900.5,-558 835.5,-558 835.5,-558 829.5,-558 823.5,-552 823.5,-546 823.5,-546 823.5,-534 823.5,-534 823.5,-528 829.5,-522 835.5,-522 835.5,-522 900.5,-522 900.5,-522 906.5,-522 912.5,-528 912.5,-534 912.5,-534 912.5,-546 912.5,-546 912.5,-552 906.5,-558 900.5,-558"/>
<text text-anchor="middle" x="868" y="-536.3" font-family="Times,serif" font-size="14.00">alarmMinute</text>
</g>
<!-- DigitalWatch_sm_alarmTime&#45;&gt;DigitalWatch_sm_alarmMinute -->
<g id="edge36" class="edge"><title>DigitalWatch_sm_alarmTime&#45;&gt;DigitalWatch_sm_alarmMinute</title>
<g id="a_edge36"><a xlink:title="alarmTime s1 &#45;&gt; alarmMinute">
<path fill="none" stroke="black" d="M825.062,-712.657C872.013,-709.838 948.64,-696.987 982,-645 1003.63,-611.289 961.111,-581.48 921.994,-562.515"/>
<polygon fill="black" stroke="black" points="923.228,-559.228 912.686,-558.166 920.264,-565.57 923.228,-559.228"/>
</a>
</g>
<text text-anchor="middle" x="994.5" y="-623.3" font-family="Times,serif" font-size="14.00">s1</text>
</g>
<!-- DigitalWatch_sm_second -->
<g id="node15" class="node"><title>DigitalWatch_sm_second</title>
<path fill="none" stroke="black" d="M843,-471C843,-471 795,-471 795,-471 789,-471 783,-465 783,-459 783,-459 783,-447 783,-447 783,-441 789,-435 795,-435 795,-435 843,-435 843,-435 849,-435 855,-441 855,-447 855,-447 855,-459 855,-459 855,-465 849,-471 843,-471"/>
<text text-anchor="middle" x="819" y="-449.3" font-family="Times,serif" font-size="14.00">second</text>
</g>
<!-- DigitalWatch_sm_alarmTime&#45;&gt;DigitalWatch_sm_second -->
<g id="edge39" class="edge"><title>DigitalWatch_sm_alarmTime&#45;&gt;DigitalWatch_sm_second</title>
<g id="a_edge39"><a xlink:title="alarmTime s3 &#45;&gt; second">
<path fill="none" stroke="black" d="M779.087,-695.725C774.055,-682.178 767.673,-662.715 765,-645 755.891,-584.632 785.253,-516.341 804.201,-480.007"/>
<polygon fill="black" stroke="black" points="807.356,-481.528 808.996,-471.061 801.187,-478.221 807.356,-481.528"/>
</a>
</g>
<text text-anchor="middle" x="775.5" y="-579.8" font-family="Times,serif" font-size="14.00">s3</text>
</g>
<!-- DigitalWatch_sm_alarmHour&#45;&gt;DigitalWatch_sm_alarmHour -->
<g id="edge34" class="edge"><title>DigitalWatch_sm_alarmHour&#45;&gt;DigitalWatch_sm_alarmHour</title>
<g id="a_edge34"><a xlink:title="alarmHour s2 / alarmHour++; &#45;&gt; alarmHour">
<path fill="none" stroke="black" d="M851.555,-634.806C861.766,-634.36 869.5,-631.758 869.5,-627 869.5,-624.026 866.479,-621.895 861.72,-620.606"/>
<polygon fill="black" stroke="black" points="861.941,-617.103 851.555,-619.194 860.979,-624.036 861.941,-617.103"/>
</a>
</g>
<text text-anchor="middle" x="921.5" y="-623.3" font-family="Times,serif" font-size="14.00">s2 / alarmHour++;</text>
</g>
<!-- DigitalWatch_sm_alarmHour&#45;&gt;DigitalWatch_sm_alarmMinute -->
<g id="edge37" class="edge"><title>DigitalWatch_sm_alarmHour&#45;&gt;DigitalWatch_sm_alarmMinute</title>
<g id="a_edge37"><a xlink:title="alarmHour s1 &#45;&gt; alarmMinute">
<path fill="none" stroke="black" d="M829.147,-608.864C833.907,-603.379 838.927,-597.134 843,-591 847.885,-583.642 852.456,-575.198 856.319,-567.369"/>
<polygon fill="black" stroke="black" points="859.527,-568.773 860.654,-558.238 853.203,-565.771 859.527,-568.773"/>
</a>
</g>
<text text-anchor="middle" x="858.5" y="-579.8" font-family="Times,serif" font-size="14.00">s1</text>
</g>
<!-- DigitalWatch_sm_alarmHour&#45;&gt;DigitalWatch_sm_second -->
<g id="edge40" class="edge"><title>DigitalWatch_sm_alarmHour&#45;&gt;DigitalWatch_sm_second</title>
<g id="a_edge40"><a xlink:title="alarmHour s3 &#45;&gt; second">
<path fill="none" stroke="black" d="M808.411,-608.684C803.536,-588.027 797.037,-552.46 801,-522 802.797,-508.187 806.566,-493.183 810.193,-480.793"/>
<polygon fill="black" stroke="black" points="813.585,-481.668 813.16,-471.082 806.891,-479.623 813.585,-481.668"/>
</a>
</g>
<text text-anchor="middle" x="807.5" y="-536.3" font-family="Times,serif" font-size="14.00">s3</text>
</g>
<!-- DigitalWatch_sm_alarmMinute&#45;&gt;DigitalWatch_sm_alarmHour -->
<g id="edge35" class="edge"><title>DigitalWatch_sm_alarmMinute&#45;&gt;DigitalWatch_sm_alarmHour</title>
<g id="a_edge35"><a xlink:title="alarmMinute s1 &#45;&gt; alarmHour">
<path fill="none" stroke="black" d="M819.462,-599.018 822.03,-591.22 825.478,-582.945 830,-576 834.208,-569.536 839.878,-563.465 845.552,-558.252"/>
<polygon fill="black" stroke="black" points="816.035,-598.264 816.575,-608.845 822.751,-600.237 816.035,-598.264"/>
</a>
</g>
<text text-anchor="middle" x="836.5" y="-579.8" font-family="Times,serif" font-size="14.00">s1</text>
</g>
<!-- DigitalWatch_sm_alarmMinute&#45;&gt;DigitalWatch_sm_alarmMinute -->
<g id="edge38" class="edge"><title>DigitalWatch_sm_alarmMinute&#45;&gt;DigitalWatch_sm_alarmMinute</title>
<g id="a_edge38"><a xlink:title="alarmMinute s2 / alarmMinute++; &#45;&gt; alarmMinute">
<path fill="none" stroke="black" d="M912.663,-547.701C922.946,-547.038 930.5,-544.471 930.5,-540 930.5,-537.206 927.549,-535.155 922.826,-533.848"/>
<polygon fill="black" stroke="black" points="923.077,-530.346 912.663,-532.299 922.021,-537.266 923.077,-530.346"/>
</a>
</g>
<text text-anchor="middle" x="988.5" y="-536.3" font-family="Times,serif" font-size="14.00">s2 / alarmMinute++;</text>
</g>
<!-- DigitalWatch_sm_alarmMinute&#45;&gt;DigitalWatch_sm_second -->
<g id="edge41" class="edge"><title>DigitalWatch_sm_alarmMinute&#45;&gt;DigitalWatch_sm_second</title>
<g id="a_edge41"><a xlink:title="alarmMinute s3 &#45;&gt; second">
<path fill="none" stroke="black" d="M834.021,-480.057 841.838,-493.617 851.177,-509.817 858.084,-521.799"/>
<polygon fill="black" stroke="black" points="836.928,-478.091 828.901,-471.175 830.863,-481.587 836.928,-478.091"/>
</a>
</g>
<text text-anchor="middle" x="853.5" y="-492.8" font-family="Times,serif" font-size="14.00">s3</text>
</g>
<!-- DigitalWatch_sm_second&#45;&gt;DigitalWatch_sm_time -->
<g id="edge11" class="edge"><title>DigitalWatch_sm_second&#45;&gt;DigitalWatch_sm_time</title>
<g id="a_edge11"><a xlink:title="second s3 &#45;&gt; time">
<path fill="none" stroke="black" d="M520.308,-798.107 603.825,-794.26 776.263,-784.219 833,-765 921.283,-735.095 948.582,-719.197 1005,-645 1040.82,-597.892 1091.61,-569.266 1056,-522 1031.79,-489.863 915.321,-468.254 855.157,-459.042"/>
<polygon fill="black" stroke="black" points="519.929,-794.62 510.096,-798.567 520.244,-801.613 519.929,-794.62"/>
</a>
</g>
<text text-anchor="middle" x="1042.5" y="-623.3" font-family="Times,serif" font-size="14.00">s3</text>
</g>
<!-- DigitalWatch_sm_second&#45;&gt;DigitalWatch_sm_second -->
<g id="edge42" class="edge"><title>DigitalWatch_sm_second&#45;&gt;DigitalWatch_sm_second</title>
<g id="a_edge42"><a xlink:title="second s2 / secondzero(); &#45;&gt; second">
<path fill="none" stroke="black" d="M855.087,-460.836C865.221,-460.493 873,-457.881 873,-453 873,-449.949 869.961,-447.785 865.208,-446.507"/>
<polygon fill="black" stroke="black" points="865.461,-443.01 855.087,-445.164 864.54,-449.949 865.461,-443.01"/>
</a>
</g>
<text text-anchor="middle" x="923" y="-449.3" font-family="Times,serif" font-size="14.00">s2 / secondzero();</text>
</g>
<!-- DigitalWatch_sm_minute -->
<g id="node16" class="node"><title>DigitalWatch_sm_minute</title>
<path fill="none" stroke="black" d="M755,-384C755,-384 707,-384 707,-384 701,-384 695,-378 695,-372 695,-372 695,-360 695,-360 695,-354 701,-348 707,-348 707,-348 755,-348 755,-348 761,-348 767,-354 767,-360 767,-360 767,-372 767,-372 767,-378 761,-384 755,-384"/>
<text text-anchor="middle" x="731" y="-362.3" font-family="Times,serif" font-size="14.00">minute</text>
</g>
<!-- DigitalWatch_sm_second&#45;&gt;DigitalWatch_sm_minute -->
<g id="edge44" class="edge"><title>DigitalWatch_sm_second&#45;&gt;DigitalWatch_sm_minute</title>
<g id="a_edge44"><a xlink:title="second s1 &#45;&gt; minute">
<path fill="none" stroke="black" d="M756.369,-391.504 770.718,-405.364 788.31,-422.356 801.192,-434.799"/>
<polygon fill="black" stroke="black" points="758.406,-388.605 748.782,-384.175 753.543,-393.64 758.406,-388.605"/>
</a>
</g>
<text text-anchor="middle" x="787.5" y="-405.8" font-family="Times,serif" font-size="14.00">s1</text>
</g>
<!-- DigitalWatch_sm_minute&#45;&gt;DigitalWatch_sm_time -->
<g id="edge12" class="edge"><title>DigitalWatch_sm_minute&#45;&gt;DigitalWatch_sm_time</title>
<g id="a_edge12"><a xlink:title="minute s3 &#45;&gt; time">
<path fill="none" stroke="black" d="M520.592,-796.852 573.557,-792.468 655.93,-782.958 681,-765 701.531,-750.293 708,-740.255 708,-715 708,-715 708,-715 708,-452 708,-427.846 716.761,-401.128 723.469,-384.213"/>
<polygon fill="black" stroke="black" points="520.107,-793.379 510.416,-797.661 520.662,-800.357 520.107,-793.379"/>
</a>
</g>
<text text-anchor="middle" x="714.5" y="-579.8" font-family="Times,serif" font-size="14.00">s3</text>
</g>
<!-- DigitalWatch_sm_minute&#45;&gt;DigitalWatch_sm_minute -->
<g id="edge45" class="edge"><title>DigitalWatch_sm_minute&#45;&gt;DigitalWatch_sm_minute</title>
<g id="a_edge45"><a xlink:title="minute s2 / minute++; &#45;&gt; minute">
<path fill="none" stroke="black" d="M767.087,-373.836C777.221,-373.493 785,-370.881 785,-366 785,-362.949 781.961,-360.785 777.208,-359.507"/>
<polygon fill="black" stroke="black" points="777.461,-356.01 767.087,-358.164 776.54,-362.949 777.461,-356.01"/>
</a>
</g>
<text text-anchor="middle" x="826" y="-362.3" font-family="Times,serif" font-size="14.00">s2 / minute++;</text>
</g>
<!-- DigitalWatch_sm_hour -->
<g id="node17" class="node"><title>DigitalWatch_sm_hour</title>
<path fill="none" stroke="black" d="M755,-297C755,-297 707,-297 707,-297 701,-297 695,-291 695,-285 695,-285 695,-273 695,-273 695,-267 701,-261 707,-261 707,-261 755,-261 755,-261 761,-261 767,-267 767,-273 767,-273 767,-285 767,-285 767,-291 761,-297 755,-297"/>
<text text-anchor="middle" x="731" y="-275.3" font-family="Times,serif" font-size="14.00">hour</text>
</g>
<!-- DigitalWatch_sm_minute&#45;&gt;DigitalWatch_sm_hour -->
<g id="edge46" class="edge"><title>DigitalWatch_sm_minute&#45;&gt;DigitalWatch_sm_hour</title>
<g id="a_edge46"><a xlink:title="minute s1 &#45;&gt; hour">
<path fill="none" stroke="black" d="M731,-347.799C731,-336.163 731,-320.548 731,-307.237"/>
<polygon fill="black" stroke="black" points="734.5,-307.175 731,-297.175 727.5,-307.175 734.5,-307.175"/>
</a>
</g>
<text text-anchor="middle" x="737.5" y="-318.8" font-family="Times,serif" font-size="14.00">s1</text>
</g>
<!-- DigitalWatch_sm_hour&#45;&gt;DigitalWatch_sm_time -->
<g id="edge13" class="edge"><title>DigitalWatch_sm_hour&#45;&gt;DigitalWatch_sm_time</title>
<g id="a_edge13"><a xlink:title="hour s3 &#45;&gt; time">
<path fill="none" stroke="black" d="M520.13,-795.078 563.409,-789.652 624.209,-779.697 643,-765 662.416,-749.814 667,-739.65 667,-715 667,-715 667,-715 667,-365 667,-337.107 689.267,-312.546 707.532,-297.091"/>
<polygon fill="black" stroke="black" points="519.596,-791.617 510.09,-796.296 520.439,-798.566 519.596,-791.617"/>
</a>
</g>
<text text-anchor="middle" x="673.5" y="-536.3" font-family="Times,serif" font-size="14.00">s3</text>
</g>
<!-- DigitalWatch_sm_hour&#45;&gt;DigitalWatch_sm_hour -->
<g id="edge47" class="edge"><title>DigitalWatch_sm_hour&#45;&gt;DigitalWatch_sm_hour</title>
<g id="a_edge47"><a xlink:title="hour s2 / hour++; &#45;&gt; hour">
<path fill="none" stroke="black" d="M767.087,-286.836C777.221,-286.493 785,-283.881 785,-279 785,-275.949 781.961,-273.785 777.208,-272.507"/>
<polygon fill="black" stroke="black" points="777.461,-269.01 767.087,-271.164 776.54,-275.949 777.461,-269.01"/>
</a>
</g>
<text text-anchor="middle" x="819.5" y="-275.3" font-family="Times,serif" font-size="14.00">s2 / hour++;</text>
</g>
<!-- DigitalWatch_sm_month -->
<g id="node18" class="node"><title>DigitalWatch_sm_month</title>
<path fill="none" stroke="black" d="M757,-210C757,-210 709,-210 709,-210 703,-210 697,-204 697,-198 697,-198 697,-186 697,-186 697,-180 703,-174 709,-174 709,-174 757,-174 757,-174 763,-174 769,-180 769,-186 769,-186 769,-198 769,-198 769,-204 763,-210 757,-210"/>
<text text-anchor="middle" x="733" y="-188.3" font-family="Times,serif" font-size="14.00">month</text>
</g>
<!-- DigitalWatch_sm_hour&#45;&gt;DigitalWatch_sm_month -->
<g id="edge48" class="edge"><title>DigitalWatch_sm_hour&#45;&gt;DigitalWatch_sm_month</title>
<g id="a_edge48"><a xlink:title="hour s1 &#45;&gt; month">
<path fill="none" stroke="black" d="M731.405,-260.799C731.679,-249.163 732.046,-233.548 732.359,-220.237"/>
<polygon fill="black" stroke="black" points="735.86,-220.255 732.596,-210.175 728.862,-220.09 735.86,-220.255"/>
</a>
</g>
<text text-anchor="middle" x="739.5" y="-231.8" font-family="Times,serif" font-size="14.00">s1</text>
</g>
<!-- DigitalWatch_sm_month&#45;&gt;DigitalWatch_sm_time -->
<g id="edge14" class="edge"><title>DigitalWatch_sm_month&#45;&gt;DigitalWatch_sm_time</title>
<g id="a_edge14"><a xlink:title="month s3 &#45;&gt; time">
<path fill="none" stroke="black" d="M520.228,-798.713 667.026,-794.02 1113,-774.837 1113,-715 1113,-715 1113,-715 1113,-278 1113,-207.947 863.946,-195.61 769.092,-193.452"/>
<polygon fill="black" stroke="black" points="520.072,-795.216 510.186,-799.026 520.291,-802.213 520.072,-795.216"/>
</a>
</g>
<text text-anchor="middle" x="1119.5" y="-492.8" font-family="Times,serif" font-size="14.00">s3</text>
</g>
<!-- DigitalWatch_sm_month&#45;&gt;DigitalWatch_sm_month -->
<g id="edge49" class="edge"><title>DigitalWatch_sm_month&#45;&gt;DigitalWatch_sm_month</title>
<g id="a_edge49"><a xlink:title="month s2 / month++; &#45;&gt; month">
<path fill="none" stroke="black" d="M769.087,-199.836C779.221,-199.493 787,-196.881 787,-192 787,-188.949 783.961,-186.785 779.208,-185.507"/>
<polygon fill="black" stroke="black" points="779.461,-182.01 769.087,-184.164 778.54,-188.949 779.461,-182.01"/>
</a>
</g>
<text text-anchor="middle" x="826.5" y="-188.3" font-family="Times,serif" font-size="14.00">s2 / month++;</text>
</g>
<!-- DigitalWatch_sm_day -->
<g id="node19" class="node"><title>DigitalWatch_sm_day</title>
<path fill="none" stroke="black" d="M757,-123C757,-123 709,-123 709,-123 703,-123 697,-117 697,-111 697,-111 697,-99 697,-99 697,-93 703,-87 709,-87 709,-87 757,-87 757,-87 763,-87 769,-93 769,-99 769,-99 769,-111 769,-111 769,-117 763,-123 757,-123"/>
<text text-anchor="middle" x="733" y="-101.3" font-family="Times,serif" font-size="14.00">day</text>
</g>
<!-- DigitalWatch_sm_month&#45;&gt;DigitalWatch_sm_day -->
<g id="edge50" class="edge"><title>DigitalWatch_sm_month&#45;&gt;DigitalWatch_sm_day</title>
<g id="a_edge50"><a xlink:title="month s1 &#45;&gt; day">
<path fill="none" stroke="black" d="M733,-173.799C733,-162.163 733,-146.548 733,-133.237"/>
<polygon fill="black" stroke="black" points="736.5,-133.175 733,-123.175 729.5,-133.175 736.5,-133.175"/>
</a>
</g>
<text text-anchor="middle" x="739.5" y="-144.8" font-family="Times,serif" font-size="14.00">s1</text>
</g>
<!-- DigitalWatch_sm_day&#45;&gt;DigitalWatch_sm_time -->
<g id="edge15" class="edge"><title>DigitalWatch_sm_day&#45;&gt;DigitalWatch_sm_time</title>
<g id="a_edge15"><a xlink:title="day s3 &#45;&gt; time">
<path fill="none" stroke="black" d="M520.025,-789.488 549.921,-779.964 586.476,-762.575 604,-732 655.962,-641.339 621,-601.996 621,-497.5 621,-497.5 621,-497.5 621,-191 621,-152.188 664.205,-128.798 696.946,-116.646"/>
<polygon fill="black" stroke="black" points="518.761,-786.213 510.178,-792.425 520.762,-792.921 518.761,-786.213"/>
</a>
</g>
<text text-anchor="middle" x="627.5" y="-449.3" font-family="Times,serif" font-size="14.00">s3</text>
</g>
<!-- DigitalWatch_sm_day&#45;&gt;DigitalWatch_sm_day -->
<g id="edge51" class="edge"><title>DigitalWatch_sm_day&#45;&gt;DigitalWatch_sm_day</title>
<g id="a_edge51"><a xlink:title="day s2 / day++; &#45;&gt; day">
<path fill="none" stroke="black" d="M769.087,-112.836C779.221,-112.493 787,-109.881 787,-105 787,-101.949 783.961,-99.7852 779.208,-98.5072"/>
<polygon fill="black" stroke="black" points="779.461,-95.0101 769.087,-97.1639 778.54,-101.949 779.461,-95.0101"/>
</a>
</g>
<text text-anchor="middle" x="819" y="-101.3" font-family="Times,serif" font-size="14.00">s2 / day++;</text>
</g>
<!-- DigitalWatch_sm_year -->
<g id="node20" class="node"><title>DigitalWatch_sm_year</title>
<path fill="none" stroke="black" d="M919,-36C919,-36 871,-36 871,-36 865,-36 859,-30 859,-24 859,-24 859,-12 859,-12 859,-6 865,-0 871,-0 871,-0 919,-0 919,-0 925,-0 931,-6 931,-12 931,-12 931,-24 931,-24 931,-30 925,-36 919,-36"/>
<text text-anchor="middle" x="895" y="-14.3" font-family="Times,serif" font-size="14.00">year</text>
</g>
<!-- DigitalWatch_sm_day&#45;&gt;DigitalWatch_sm_year -->
<g id="edge52" class="edge"><title>DigitalWatch_sm_day&#45;&gt;DigitalWatch_sm_year</title>
<g id="a_edge52"><a xlink:title="day s1 &#45;&gt; year">
<path fill="none" stroke="black" d="M765.783,-86.799C791.118,-73.506 826.347,-55.0215 853.623,-40.7101"/>
<polygon fill="black" stroke="black" points="855.314,-43.7757 862.542,-36.0302 852.061,-37.5771 855.314,-43.7757"/>
</a>
</g>
<text text-anchor="middle" x="830.5" y="-57.8" font-family="Times,serif" font-size="14.00">s1</text>
</g>
<!-- DigitalWatch_sm_year&#45;&gt;DigitalWatch_sm_time -->
<g id="edge16" class="edge"><title>DigitalWatch_sm_year&#45;&gt;DigitalWatch_sm_time</title>
<g id="a_edge16"><a xlink:title="year s3 &#45;&gt; time">
<path fill="none" stroke="black" d="M520.387,-798.624 634.794,-794.976 928.097,-784.015 1024,-765 1083.5,-753.202 1151,-775.661 1151,-715 1151,-715 1151,-715 1151,-104 1151,-58.2234 1001.7,-32.7918 931.136,-23.3281"/>
<polygon fill="black" stroke="black" points="520.092,-795.131 510.207,-798.944 520.312,-802.128 520.092,-795.131"/>
</a>
</g>
<text text-anchor="middle" x="1157.5" y="-405.8" font-family="Times,serif" font-size="14.00">s3</text>
</g>
<!-- DigitalWatch_sm_year&#45;&gt;DigitalWatch_sm_second -->
<g id="edge43" class="edge"><title>DigitalWatch_sm_year&#45;&gt;DigitalWatch_sm_second</title>
<g id="a_edge43"><a xlink:title="year s1 &#45;&gt; second">
<path fill="none" stroke="black" d="M856.722,-428.722 875.814,-413.796 895,-392.462 895,-367 895,-367 895,-367 895,-104 895,-80.5365 895,-53.4297 895,-36.2564"/>
<polygon fill="black" stroke="black" points="854.566,-425.963 848.601,-434.72 858.724,-431.594 854.566,-425.963"/>
</a>
</g>
<text text-anchor="middle" x="901.5" y="-231.8" font-family="Times,serif" font-size="14.00">s1</text>
</g>
<!-- DigitalWatch_sm_year&#45;&gt;DigitalWatch_sm_year -->
<g id="edge53" class="edge"><title>DigitalWatch_sm_year&#45;&gt;DigitalWatch_sm_year</title>
<g id="a_edge53"><a xlink:title="year s2 / year++; &#45;&gt; year">
<path fill="none" stroke="black" d="M931.087,-25.8361C941.221,-25.4929 949,-22.8809 949,-18 949,-14.9495 945.961,-12.7852 941.208,-11.5072"/>
<polygon fill="black" stroke="black" points="941.461,-8.01009 931.087,-10.1639 940.54,-14.9492 941.461,-8.01009"/>
</a>
</g>
<text text-anchor="middle" x="983" y="-14.3" font-family="Times,serif" font-size="14.00">s2 / year++;</text>
</g>
</g>
</svg>
