<?xml version="1.0" encoding="UTF-8" standalone="no"?>
<!DOCTYPE svg PUBLIC "-//W3C//DTD SVG 1.1//EN"
 "http://www.w3.org/Graphics/SVG/1.1/DTD/svg11.dtd">
<!-- Generated by graphviz version 2.39.20140502.0445 (20140502.0445)
 -->
<!-- Title: DigitalWatchNested Pages: 1 -->
<svg width="1306pt" height="688pt"
 viewBox="0.00 0.00 1306.00 687.80" xmlns="http://www.w3.org/2000/svg" xmlns:xlink="http://www.w3.org/1999/xlink">
<g id="graph0" class="graph" transform="scale(1 1) rotate(0) translate(4 683.8)">
<title>DigitalWatchNested</title>
<polygon fill="white" stroke="none" points="-4,4 -4,-683.8 1302,-683.8 1302,4 -4,4"/>
<g id="clust1" class="cluster"><title>clusterDigitalWatch_sm_regular</title>
<path fill="none" stroke="black" d="M678,-8C678,-8 973,-8 973,-8 979,-8 985,-14 985,-20 985,-20 985,-659.8 985,-659.8 985,-665.8 979,-671.8 973,-671.8 973,-671.8 678,-671.8 678,-671.8 672,-671.8 666,-665.8 666,-659.8 666,-659.8 666,-20 666,-20 666,-14 672,-8 678,-8"/>
<text text-anchor="middle" x="825.5" y="-656.6" font-family="Times,serif" font-size="14.00">regular</text>
</g>
<g id="clust2" class="cluster"><title>clusterDigitalWatch_smRegular_update</title>
<path fill="none" stroke="black" d="M686,-16C686,-16 870,-16 870,-16 876,-16 882,-22 882,-28 882,-28 882,-628.8 882,-628.8 882,-634.8 876,-640.8 870,-640.8 870,-640.8 686,-640.8 686,-640.8 680,-640.8 674,-634.8 674,-628.8 674,-628.8 674,-28 674,-28 674,-22 680,-16 686,-16"/>
<text text-anchor="middle" x="778" y="-625.6" font-family="Times,serif" font-size="14.00">update</text>
</g>
<g id="clust3" class="cluster"><title>clusterDigitalWatch_sm_chronometer</title>
<path fill="none" stroke="black" d="M1005,-194C1005,-194 1278,-194 1278,-194 1284,-194 1290,-200 1290,-206 1290,-206 1290,-469.4 1290,-469.4 1290,-475.4 1284,-481.4 1278,-481.4 1278,-481.4 1005,-481.4 1005,-481.4 999,-481.4 993,-475.4 993,-469.4 993,-469.4 993,-206 993,-206 993,-200 999,-194 1005,-194"/>
<text text-anchor="middle" x="1141.5" y="-466.2" font-family="Times,serif" font-size="14.00">chronometer</text>
</g>
<g id="clust4" class="cluster"><title>clusterDigitalWatch_smChronometer_chronoNormal</title>
<path fill="none" stroke="black" d="M1105,-202C1105,-202 1248,-202 1248,-202 1254,-202 1260,-208 1260,-214 1260,-214 1260,-438.4 1260,-438.4 1260,-444.4 1254,-450.4 1248,-450.4 1248,-450.4 1105,-450.4 1105,-450.4 1099,-450.4 1093,-444.4 1093,-438.4 1093,-438.4 1093,-214 1093,-214 1093,-208 1099,-202 1105,-202"/>
<text text-anchor="middle" x="1176.5" y="-435.2" font-family="Times,serif" font-size="14.00">chronoNormal</text>
</g>
<g id="clust5" class="cluster"><title>clusterDigitalWatch_sm_alarmStatus</title>
<path fill="none" stroke="black" d="M370,-16C370,-16 454,-16 454,-16 460,-16 466,-22 466,-28 466,-28 466,-438.4 466,-438.4 466,-444.4 460,-450.4 454,-450.4 454,-450.4 370,-450.4 370,-450.4 364,-450.4 358,-444.4 358,-438.4 358,-438.4 358,-28 358,-28 358,-22 364,-16 370,-16"/>
<text text-anchor="middle" x="412" y="-435.2" font-family="Times,serif" font-size="14.00">alarmStatus</text>
</g>
<g id="clust6" class="cluster"><title>clusterDigitalWatch_sm_alarmUpdate</title>
<path fill="none" stroke="black" d="M20,-101C20,-101 338,-101 338,-101 344,-101 350,-107 350,-113 350,-113 350,-438.4 350,-438.4 350,-444.4 344,-450.4 338,-450.4 338,-450.4 20,-450.4 20,-450.4 14,-450.4 8,-444.4 8,-438.4 8,-438.4 8,-113 8,-113 8,-107 14,-101 20,-101"/>
<text text-anchor="middle" x="179" y="-435.2" font-family="Times,serif" font-size="14.00">alarmUpdate</text>
</g>
<g id="clust7" class="cluster"><title>clusterDigitalWatch_smAlarmUpdate_hourMinuteUpdate</title>
<path fill="none" stroke="black" d="M114,-109C114,-109 330,-109 330,-109 336,-109 342,-115 342,-121 342,-121 342,-341.2 342,-341.2 342,-347.2 336,-353.2 330,-353.2 330,-353.2 114,-353.2 114,-353.2 108,-353.2 102,-347.2 102,-341.2 102,-341.2 102,-121 102,-121 102,-115 108,-109 114,-109"/>
<text text-anchor="middle" x="222" y="-338" font-family="Times,serif" font-size="14.00">hourMinuteUpdate</text>
</g>
<!-- start_DigitalWatch_sm -->
<g id="node1" class="node"><title>start_DigitalWatch_sm</title>
<ellipse fill="black" stroke="black" cx="1000" cy="-540.4" rx="7.2" ry="7.2"/>
</g>
<!-- DigitalWatch_smRegular_time -->
<g id="node3" class="node"><title>DigitalWatch_smRegular_time</title>
<path fill="none" stroke="black" d="M952,-430.2C952,-430.2 904,-430.2 904,-430.2 898,-430.2 892,-424.2 892,-418.2 892,-418.2 892,-406.2 892,-406.2 892,-400.2 898,-394.2 904,-394.2 904,-394.2 952,-394.2 952,-394.2 958,-394.2 964,-400.2 964,-406.2 964,-406.2 964,-418.2 964,-418.2 964,-424.2 958,-430.2 952,-430.2"/>
<text text-anchor="middle" x="928" y="-408.5" font-family="Times,serif" font-size="14.00">time</text>
</g>
<!-- start_DigitalWatch_sm&#45;&gt;DigitalWatch_smRegular_time -->
<g id="edge1" class="edge"><title>start_DigitalWatch_sm&#45;&gt;DigitalWatch_smRegular_time</title>
<g id="a_edge1"><a xlink:title="start &#160;&#45;&gt; regular">
<path fill="none" stroke="black" d="M989.842,-521.595 992.632,-526.485 994.983,-530.607 996.719,-533.65"/>
<polygon fill="black" stroke="black" points="992.761,-519.649 984.766,-512.698 986.681,-523.118 992.761,-519.649"/>
</a>
</g>
</g>
<!-- start_DigitalWatch_regular -->
<g id="node2" class="node"><title>start_DigitalWatch_regular</title>
<ellipse fill="black" stroke="black" cx="928" cy="-540.4" rx="7.2" ry="7.2"/>
</g>
<!-- start_DigitalWatch_regular&#45;&gt;DigitalWatch_smRegular_time -->
<g id="edge2" class="edge"><title>start_DigitalWatch_regular&#45;&gt;DigitalWatch_smRegular_time</title>
<g id="a_edge2"><a xlink:title="start &#160;&#45;&gt; time">
<path fill="none" stroke="black" d="M928,-532.968C928,-516.237 928,-470.584 928,-440.722"/>
<polygon fill="black" stroke="black" points="931.5,-440.518 928,-430.518 924.5,-440.518 931.5,-440.518"/>
</a>
</g>
</g>
<!-- DigitalWatch_smRegular_date -->
<g id="node4" class="node"><title>DigitalWatch_smRegular_date</title>
<path fill="none" stroke="black" d="M957,-333C957,-333 909,-333 909,-333 903,-333 897,-327 897,-321 897,-321 897,-309 897,-309 897,-303 903,-297 909,-297 909,-297 957,-297 957,-297 963,-297 969,-303 969,-309 969,-309 969,-321 969,-321 969,-327 963,-333 957,-333"/>
<text text-anchor="middle" x="933" y="-311.3" font-family="Times,serif" font-size="14.00">date</text>
</g>
<!-- DigitalWatch_smRegular_time&#45;&gt;DigitalWatch_smRegular_date -->
<g id="edge7" class="edge"><title>DigitalWatch_smRegular_time&#45;&gt;DigitalWatch_smRegular_date</title>
<g id="a_edge7"><a xlink:title="time s1 &#45;&gt; date">
<path fill="none" stroke="black" d="M936.326,-394.148C938.64,-388.564 940.837,-382.241 942,-376.2 944.083,-365.382 942.977,-353.392 940.934,-342.978"/>
<polygon fill="black" stroke="black" points="944.333,-342.14 938.662,-333.191 937.514,-343.724 944.333,-342.14"/>
</a>
</g>
<text text-anchor="middle" x="950.5" y="-365" font-family="Times,serif" font-size="14.00">s1</text>
</g>
<!-- DigitalWatch_smChronometerChronoNormal_paused -->
<g id="node14" class="node"><title>DigitalWatch_smChronometerChronoNormal_paused</title>
<path fill="none" stroke="black" d="M1161,-333C1161,-333 1113,-333 1113,-333 1107,-333 1101,-327 1101,-321 1101,-321 1101,-309 1101,-309 1101,-303 1107,-297 1113,-297 1113,-297 1161,-297 1161,-297 1167,-297 1173,-303 1173,-309 1173,-309 1173,-321 1173,-321 1173,-327 1167,-333 1161,-333"/>
<text text-anchor="middle" x="1137" y="-311.3" font-family="Times,serif" font-size="14.00">paused</text>
</g>
<!-- DigitalWatch_smRegular_time&#45;&gt;DigitalWatch_smChronometerChronoNormal_paused -->
<g id="edge22" class="edge"><title>DigitalWatch_smRegular_time&#45;&gt;DigitalWatch_smChronometerChronoNormal_paused</title>
<g id="a_edge22"><a xlink:title="time s3 &#45;&gt; chronometer">
<path fill="none" stroke="black" d="M964.071,-408.029C969.93,-407.282 976.292,-406.364 982.992,-405.237"/>
<polygon fill="black" stroke="black" points="983.809,-408.647 993.032,-403.433 982.57,-401.757 983.809,-408.647"/>
</a>
</g>
<text text-anchor="middle" x="1103.5" y="-365" font-family="Times,serif" font-size="14.00">s3</text>
</g>
<!-- DigitalWatch_smAlarmStatus_bothOff -->
<g id="node19" class="node"><title>DigitalWatch_smAlarmStatus_bothOff</title>
<path fill="none" stroke="black" d="M446,-333C446,-333 398,-333 398,-333 392,-333 386,-327 386,-321 386,-321 386,-309 386,-309 386,-303 392,-297 398,-297 398,-297 446,-297 446,-297 452,-297 458,-303 458,-309 458,-309 458,-321 458,-321 458,-327 452,-333 446,-333"/>
<text text-anchor="middle" x="422" y="-311.3" font-family="Times,serif" font-size="14.00">bothOff</text>
</g>
<!-- DigitalWatch_smRegular_time&#45;&gt;DigitalWatch_smAlarmStatus_bothOff -->
<g id="edge33" class="edge"><title>DigitalWatch_smRegular_time&#45;&gt;DigitalWatch_smAlarmStatus_bothOff</title>
<g id="a_edge33"><a xlink:title="time s2 &#45;&gt; alarmStatus">
<path fill="none" stroke="black" d="M467.879,-324.746 499.214,-331.854 541.043,-343.618 575,-361.2 584.554,-366.147 583.95,-372.36 594,-376.2 654.731,-399.402 822.599,-379.817 886,-394.2 887.841,-394.618 889.706,-395.106 891.575,-395.649"/>
<polygon fill="black" stroke="black" points="476.36,-325.818 466,-323.6 472.716,-331.795 476.36,-325.818"/>
</a>
</g>
<text text-anchor="middle" x="600.5" y="-365" font-family="Times,serif" font-size="14.00">s2</text>
</g>
<!-- DigitalWatch_smAlarmUpdate_alarmTime -->
<g id="node24" class="node"><title>DigitalWatch_smAlarmUpdate_alarmTime</title>
<path fill="none" stroke="black" d="M82,-333C82,-333 28,-333 28,-333 22,-333 16,-327 16,-321 16,-321 16,-309 16,-309 16,-303 22,-297 28,-297 28,-297 82,-297 82,-297 88,-297 94,-303 94,-309 94,-309 94,-321 94,-321 94,-327 88,-333 82,-333"/>
<text text-anchor="middle" x="55" y="-311.3" font-family="Times,serif" font-size="14.00">alarmTime</text>
</g>
<!-- DigitalWatch_smRegular_time&#45;&gt;DigitalWatch_smAlarmUpdate_alarmTime -->
<g id="edge40" class="edge"><title>DigitalWatch_smRegular_time&#45;&gt;DigitalWatch_smAlarmUpdate_alarmTime</title>
<g id="a_edge40"><a xlink:title="time s3during2Secs &#45;&gt; alarmTime">
<path fill="none" stroke="black" d="M77.7101,-340.405 83.7847,-345.509 90.7069,-350.236 98,-353.2 98.63,-353.456 488.321,-376.165 489,-376.2 577.193,-380.793 799.72,-375.362 886,-394.2 887.844,-394.603 889.712,-395.079 891.583,-395.612"/>
<polygon fill="black" stroke="black" points="79.7352,-337.513 69.9968,-333.34 75.0074,-342.675 79.7352,-337.513"/>
</a>
</g>
<text text-anchor="middle" x="530" y="-365" font-family="Times,serif" font-size="14.00">s3during2Secs</text>
</g>
<!-- DigitalWatch_smRegular_date&#45;&gt;DigitalWatch_smRegular_time -->
<g id="edge3" class="edge"><title>DigitalWatch_smRegular_date&#45;&gt;DigitalWatch_smRegular_time</title>
<g id="a_edge3"><a xlink:title="date notS1 &#45;&gt; time">
<path fill="none" stroke="black" d="M911.558,-384.897 908.624,-377.361 907.044,-369.056 909,-361.2 911.448,-351.371 916.475,-341.333 921.298,-333.221"/>
<polygon fill="black" stroke="black" points="908.396,-386.397 915.836,-393.941 914.724,-383.404 908.396,-386.397"/>
</a>
</g>
<text text-anchor="middle" x="925.5" y="-365" font-family="Times,serif" font-size="14.00">notS1</text>
</g>
<!-- start_DigitalWatch_update -->
<g id="node5" class="node"><title>start_DigitalWatch_update</title>
<ellipse fill="black" stroke="black" cx="719" cy="-602.6" rx="7.2" ry="7.2"/>
</g>
<!-- DigitalWatch_smRegularUpdate_second -->
<g id="node6" class="node"><title>DigitalWatch_smRegularUpdate_second</title>
<path fill="none" stroke="black" d="M743,-558.4C743,-558.4 695,-558.4 695,-558.4 689,-558.4 683,-552.4 683,-546.4 683,-546.4 683,-534.4 683,-534.4 683,-528.4 689,-522.4 695,-522.4 695,-522.4 743,-522.4 743,-522.4 749,-522.4 755,-528.4 755,-534.4 755,-534.4 755,-546.4 755,-546.4 755,-552.4 749,-558.4 743,-558.4"/>
<text text-anchor="middle" x="719" y="-536.7" font-family="Times,serif" font-size="14.00">second</text>
</g>
<!-- start_DigitalWatch_update&#45;&gt;DigitalWatch_smRegularUpdate_second -->
<g id="edge8" class="edge"><title>start_DigitalWatch_update&#45;&gt;DigitalWatch_smRegularUpdate_second</title>
<g id="a_edge8"><a xlink:title="start &#160;&#45;&gt; second">
<path fill="none" stroke="black" d="M719,-595.158C719,-588.787 719,-578.597 719,-568.793"/>
<polygon fill="black" stroke="black" points="722.5,-568.505 719,-558.505 715.5,-568.505 722.5,-568.505"/>
</a>
</g>
</g>
<!-- DigitalWatch_smRegularUpdate_second&#45;&gt;DigitalWatch_smRegular_time -->
<g id="edge4" class="edge"><title>DigitalWatch_smRegularUpdate_second&#45;&gt;DigitalWatch_smRegular_time</title>
<g id="a_edge4"><a xlink:title="update s3 &#45;&gt; time">
<path fill="none" stroke="black" d="M881.513,-501.781C901.316,-486.071 913.563,-459.931 920.482,-440.108"/>
<polygon fill="black" stroke="black" points="923.852,-441.061 923.607,-430.469 917.193,-438.902 923.852,-441.061"/>
</a>
</g>
<text text-anchor="middle" x="899.5" y="-493.2" font-family="Times,serif" font-size="14.00">s3</text>
</g>
<!-- DigitalWatch_smRegularUpdate_second&#45;&gt;DigitalWatch_smRegularUpdate_second -->
<g id="edge9" class="edge"><title>DigitalWatch_smRegularUpdate_second&#45;&gt;DigitalWatch_smRegularUpdate_second</title>
<g id="a_edge9"><a xlink:title="second s2 / secondzero(); &#45;&gt; second">
<path fill="none" stroke="black" d="M755.087,-547.117C765.221,-546.822 773,-544.584 773,-540.4 773,-537.785 769.961,-535.93 765.208,-534.835"/>
<polygon fill="black" stroke="black" points="765.419,-531.336 755.087,-533.683 764.628,-538.291 765.419,-531.336"/>
</a>
</g>
<text text-anchor="middle" x="823" y="-536.7" font-family="Times,serif" font-size="14.00">s2 / secondzero();</text>
</g>
<!-- DigitalWatch_smRegularUpdate_minute -->
<g id="node7" class="node"><title>DigitalWatch_smRegularUpdate_minute</title>
<path fill="none" stroke="black" d="M742,-430.2C742,-430.2 694,-430.2 694,-430.2 688,-430.2 682,-424.2 682,-418.2 682,-418.2 682,-406.2 682,-406.2 682,-400.2 688,-394.2 694,-394.2 694,-394.2 742,-394.2 742,-394.2 748,-394.2 754,-400.2 754,-406.2 754,-406.2 754,-418.2 754,-418.2 754,-424.2 748,-430.2 742,-430.2"/>
<text text-anchor="middle" x="718" y="-408.5" font-family="Times,serif" font-size="14.00">minute</text>
</g>
<!-- DigitalWatch_smRegularUpdate_second&#45;&gt;DigitalWatch_smRegularUpdate_minute -->
<g id="edge12" class="edge"><title>DigitalWatch_smRegularUpdate_second&#45;&gt;DigitalWatch_smRegularUpdate_minute</title>
<g id="a_edge12"><a xlink:title="second s1 &#45;&gt; minute">
<path fill="none" stroke="black" d="M718.217,-440.59 718.414,-465.472 718.699,-501.399 718.865,-522.38"/>
<polygon fill="black" stroke="black" points="721.715,-440.325 718.136,-430.353 714.715,-440.381 721.715,-440.325"/>
</a>
</g>
<text text-anchor="middle" x="725.5" y="-493.2" font-family="Times,serif" font-size="14.00">s1</text>
</g>
<!-- DigitalWatch_smRegularUpdate_minute&#45;&gt;DigitalWatch_smRegularUpdate_minute -->
<g id="edge13" class="edge"><title>DigitalWatch_smRegularUpdate_minute&#45;&gt;DigitalWatch_smRegularUpdate_minute</title>
<g id="a_edge13"><a xlink:title="minute s2 / minute++; &#45;&gt; minute">
<path fill="none" stroke="black" d="M754.087,-420.036C764.221,-419.693 772,-417.081 772,-412.2 772,-409.149 768.961,-406.985 764.208,-405.707"/>
<polygon fill="black" stroke="black" points="764.461,-402.21 754.087,-404.364 763.54,-409.149 764.461,-402.21"/>
</a>
</g>
<text text-anchor="middle" x="813" y="-408.5" font-family="Times,serif" font-size="14.00">s2 / minute++;</text>
</g>
<!-- DigitalWatch_smRegularUpdate_hour -->
<g id="node8" class="node"><title>DigitalWatch_smRegularUpdate_hour</title>
<path fill="none" stroke="black" d="M742,-333C742,-333 694,-333 694,-333 688,-333 682,-327 682,-321 682,-321 682,-309 682,-309 682,-303 688,-297 694,-297 694,-297 742,-297 742,-297 748,-297 754,-303 754,-309 754,-309 754,-321 754,-321 754,-327 748,-333 742,-333"/>
<text text-anchor="middle" x="718" y="-311.3" font-family="Times,serif" font-size="14.00">hour</text>
</g>
<!-- DigitalWatch_smRegularUpdate_minute&#45;&gt;DigitalWatch_smRegularUpdate_hour -->
<g id="edge14" class="edge"><title>DigitalWatch_smRegularUpdate_minute&#45;&gt;DigitalWatch_smRegularUpdate_hour</title>
<g id="a_edge14"><a xlink:title="minute s1 &#45;&gt; hour">
<path fill="none" stroke="black" d="M718,-394.18C718,-380.053 718,-359.695 718,-343.294"/>
<polygon fill="black" stroke="black" points="721.5,-343.193 718,-333.193 714.5,-343.194 721.5,-343.193"/>
</a>
</g>
<text text-anchor="middle" x="724.5" y="-365" font-family="Times,serif" font-size="14.00">s1</text>
</g>
<!-- DigitalWatch_smRegularUpdate_hour&#45;&gt;DigitalWatch_smRegularUpdate_hour -->
<g id="edge15" class="edge"><title>DigitalWatch_smRegularUpdate_hour&#45;&gt;DigitalWatch_smRegularUpdate_hour</title>
<g id="a_edge15"><a xlink:title="hour s2 / hour++; &#45;&gt; hour">
<path fill="none" stroke="black" d="M754.087,-322.836C764.221,-322.493 772,-319.881 772,-315 772,-311.949 768.961,-309.785 764.208,-308.507"/>
<polygon fill="black" stroke="black" points="764.461,-305.01 754.087,-307.164 763.54,-311.949 764.461,-305.01"/>
</a>
</g>
<text text-anchor="middle" x="806.5" y="-311.3" font-family="Times,serif" font-size="14.00">s2 / hour++;</text>
</g>
<!-- DigitalWatch_smRegularUpdate_month -->
<g id="node9" class="node"><title>DigitalWatch_smRegularUpdate_month</title>
<path fill="none" stroke="black" d="M742,-246C742,-246 694,-246 694,-246 688,-246 682,-240 682,-234 682,-234 682,-222 682,-222 682,-216 688,-210 694,-210 694,-210 742,-210 742,-210 748,-210 754,-216 754,-222 754,-222 754,-234 754,-234 754,-240 748,-246 742,-246"/>
<text text-anchor="middle" x="718" y="-224.3" font-family="Times,serif" font-size="14.00">month</text>
</g>
<!-- DigitalWatch_smRegularUpdate_hour&#45;&gt;DigitalWatch_smRegularUpdate_month -->
<g id="edge16" class="edge"><title>DigitalWatch_smRegularUpdate_hour&#45;&gt;DigitalWatch_smRegularUpdate_month</title>
<g id="a_edge16"><a xlink:title="hour s1 &#45;&gt; month">
<path fill="none" stroke="black" d="M718,-296.799C718,-285.163 718,-269.548 718,-256.237"/>
<polygon fill="black" stroke="black" points="721.5,-256.175 718,-246.175 714.5,-256.175 721.5,-256.175"/>
</a>
</g>
<text text-anchor="middle" x="724.5" y="-267.8" font-family="Times,serif" font-size="14.00">s1</text>
</g>
<!-- DigitalWatch_smRegularUpdate_month&#45;&gt;DigitalWatch_smRegularUpdate_month -->
<g id="edge17" class="edge"><title>DigitalWatch_smRegularUpdate_month&#45;&gt;DigitalWatch_smRegularUpdate_month</title>
<g id="a_edge17"><a xlink:title="month s2 / month++; &#45;&gt; month">
<path fill="none" stroke="black" d="M754.087,-235.836C764.221,-235.493 772,-232.881 772,-228 772,-224.949 768.961,-222.785 764.208,-221.507"/>
<polygon fill="black" stroke="black" points="764.461,-218.01 754.087,-220.164 763.54,-224.949 764.461,-218.01"/>
</a>
</g>
<text text-anchor="middle" x="811.5" y="-224.3" font-family="Times,serif" font-size="14.00">s2 / month++;</text>
</g>
<!-- DigitalWatch_smRegularUpdate_day -->
<g id="node10" class="node"><title>DigitalWatch_smRegularUpdate_day</title>
<path fill="none" stroke="black" d="M753,-153C753,-153 705,-153 705,-153 699,-153 693,-147 693,-141 693,-141 693,-129 693,-129 693,-123 699,-117 705,-117 705,-117 753,-117 753,-117 759,-117 765,-123 765,-129 765,-129 765,-141 765,-141 765,-147 759,-153 753,-153"/>
<text text-anchor="middle" x="729" y="-131.3" font-family="Times,serif" font-size="14.00">day</text>
</g>
<!-- DigitalWatch_smRegularUpdate_month&#45;&gt;DigitalWatch_smRegularUpdate_day -->
<g id="edge18" class="edge"><title>DigitalWatch_smRegularUpdate_month&#45;&gt;DigitalWatch_smRegularUpdate_day</title>
<g id="a_edge18"><a xlink:title="month s1 &#45;&gt; day">
<path fill="none" stroke="black" d="M720.069,-209.884C721.652,-196.792 723.865,-178.48 725.692,-163.363"/>
<polygon fill="black" stroke="black" points="729.215,-163.387 726.94,-153.04 722.265,-162.547 729.215,-163.387"/>
</a>
</g>
<text text-anchor="middle" x="731.5" y="-174.8" font-family="Times,serif" font-size="14.00">s1</text>
</g>
<!-- DigitalWatch_smRegularUpdate_day&#45;&gt;DigitalWatch_smRegularUpdate_day -->
<g id="edge19" class="edge"><title>DigitalWatch_smRegularUpdate_day&#45;&gt;DigitalWatch_smRegularUpdate_day</title>
<g id="a_edge19"><a xlink:title="day s2 / day++; &#45;&gt; day">
<path fill="none" stroke="black" d="M765.087,-142.836C775.221,-142.493 783,-139.881 783,-135 783,-131.949 779.961,-129.785 775.208,-128.507"/>
<polygon fill="black" stroke="black" points="775.461,-125.01 765.087,-127.164 774.54,-131.949 775.461,-125.01"/>
</a>
</g>
<text text-anchor="middle" x="815" y="-131.3" font-family="Times,serif" font-size="14.00">s2 / day++;</text>
</g>
<!-- DigitalWatch_smRegularUpdate_year -->
<g id="node11" class="node"><title>DigitalWatch_smRegularUpdate_year</title>
<path fill="none" stroke="black" d="M770,-60C770,-60 722,-60 722,-60 716,-60 710,-54 710,-48 710,-48 710,-36 710,-36 710,-30 716,-24 722,-24 722,-24 770,-24 770,-24 776,-24 782,-30 782,-36 782,-36 782,-48 782,-48 782,-54 776,-60 770,-60"/>
<text text-anchor="middle" x="746" y="-38.3" font-family="Times,serif" font-size="14.00">year</text>
</g>
<!-- DigitalWatch_smRegularUpdate_day&#45;&gt;DigitalWatch_smRegularUpdate_year -->
<g id="edge20" class="edge"><title>DigitalWatch_smRegularUpdate_day&#45;&gt;DigitalWatch_smRegularUpdate_year</title>
<g id="a_edge20"><a xlink:title="day s1 &#45;&gt; year">
<path fill="none" stroke="black" d="M732.198,-116.884C734.667,-103.665 738.131,-85.1242 740.97,-69.9233"/>
<polygon fill="black" stroke="black" points="744.421,-70.5124 742.817,-60.0397 737.54,-69.2268 744.421,-70.5124"/>
</a>
</g>
<text text-anchor="middle" x="746.5" y="-81.8" font-family="Times,serif" font-size="14.00">s1</text>
</g>
<!-- DigitalWatch_smRegularUpdate_year&#45;&gt;DigitalWatch_smRegularUpdate_second -->
<g id="edge10" class="edge"><title>DigitalWatch_smRegularUpdate_year&#45;&gt;DigitalWatch_smRegularUpdate_second</title>
<g id="a_edge10"><a xlink:title="year s1 &#45;&gt; second">
<path fill="none" stroke="black" d="M764.564,-520.493 808.845,-505.758 836.845,-519.825 863,-481.4 874.894,-463.927 867.304,-118.86 856,-101 839.605,-75.0958 807.553,-60.0837 782.259,-51.8505"/>
<polygon fill="black" stroke="black" points="763.334,-517.216 755.175,-523.975 765.769,-523.779 763.334,-517.216"/>
</a>
</g>
<text text-anchor="middle" x="874.5" y="-267.8" font-family="Times,serif" font-size="14.00">s1</text>
</g>
<!-- DigitalWatch_smRegularUpdate_year&#45;&gt;DigitalWatch_smRegularUpdate_year -->
<g id="edge21" class="edge"><title>DigitalWatch_smRegularUpdate_year&#45;&gt;DigitalWatch_smRegularUpdate_year</title>
<g id="a_edge21"><a xlink:title="year s2 / year++; &#45;&gt; year">
<path fill="none" stroke="black" d="M782.087,-49.8361C792.221,-49.4929 800,-46.8809 800,-42 800,-38.9495 796.961,-36.7852 792.208,-35.5072"/>
<polygon fill="black" stroke="black" points="792.461,-32.0101 782.087,-34.1639 791.54,-38.9492 792.461,-32.0101"/>
</a>
</g>
<text text-anchor="middle" x="834" y="-38.3" font-family="Times,serif" font-size="14.00">s2 / year++;</text>
</g>
<!-- start_DigitalWatch_chronometer -->
<g id="node12" class="node"><title>start_DigitalWatch_chronometer</title>
<ellipse fill="black" stroke="black" cx="1275" cy="-412.2" rx="7.2" ry="7.2"/>
</g>
<!-- start_DigitalWatch_chronometer&#45;&gt;DigitalWatch_smChronometerChronoNormal_paused -->
<g id="edge23" class="edge"><title>start_DigitalWatch_chronometer&#45;&gt;DigitalWatch_smChronometerChronoNormal_paused</title>
<g id="a_edge23"><a xlink:title="start &#160;&#45;&gt; chronoNormal">
<path fill="none" stroke="black" d="M1266.88,-397.743 1269.47,-400.886 1270.93,-403.292 1272.09,-405.382"/>
<polygon fill="black" stroke="black" points="1269.11,-395.013 1259.71,-390.125 1264.01,-399.808 1269.11,-395.013"/>
</a>
</g>
</g>
<!-- start_DigitalWatch_chronoNormal -->
<g id="node13" class="node"><title>start_DigitalWatch_chronoNormal</title>
<ellipse fill="black" stroke="black" cx="1137" cy="-412.2" rx="7.2" ry="7.2"/>
</g>
<!-- start_DigitalWatch_chronoNormal&#45;&gt;DigitalWatch_smChronometerChronoNormal_paused -->
<g id="edge24" class="edge"><title>start_DigitalWatch_chronoNormal&#45;&gt;DigitalWatch_smChronometerChronoNormal_paused</title>
<g id="a_edge24"><a xlink:title="start &#160;&#45;&gt; paused">
<path fill="none" stroke="black" d="M1137,-404.954C1137,-392.639 1137,-364.571 1137,-343.233"/>
<polygon fill="black" stroke="black" points="1140.5,-343.102 1137,-333.102 1133.5,-343.102 1140.5,-343.102"/>
</a>
</g>
</g>
<!-- DigitalWatch_smChronometerChronoNormal_paused&#45;&gt;DigitalWatch_smRegular_time -->
<g id="edge5" class="edge"><title>DigitalWatch_smChronometerChronoNormal_paused&#45;&gt;DigitalWatch_smRegular_time</title>
<g id="a_edge5"><a xlink:title="chronometer s3 &#45;&gt; time">
<path fill="none" stroke="black" d="M973.708,-392.429 979.924,-389.982 986.557,-387.412 993.465,-384.796"/>
<polygon fill="black" stroke="black" points="972.242,-389.245 964.24,-396.189 974.825,-395.751 972.242,-389.245"/>
</a>
</g>
<text text-anchor="middle" x="1068.5" y="-365" font-family="Times,serif" font-size="14.00">s3</text>
</g>
<!-- DigitalWatch_smChronometerChronoNormal_paused&#45;&gt;DigitalWatch_smChronometerChronoNormal_paused -->
<g id="edge25" class="edge"><title>DigitalWatch_smChronometerChronoNormal_paused&#45;&gt;DigitalWatch_smChronometerChronoNormal_paused</title>
<g id="a_edge25"><a xlink:title="paused s2 / zero(); &#45;&gt; paused">
<path fill="none" stroke="black" d="M1173.09,-322.836C1183.22,-322.493 1191,-319.881 1191,-315 1191,-311.949 1187.96,-309.785 1183.21,-308.507"/>
<polygon fill="black" stroke="black" points="1183.46,-305.01 1173.09,-307.164 1182.54,-311.949 1183.46,-305.01"/>
</a>
</g>
<text text-anchor="middle" x="1221.5" y="-311.3" font-family="Times,serif" font-size="14.00">s2 / zero();</text>
</g>
<!-- DigitalWatch_smChronometerChronoNormal_running -->
<g id="node15" class="node"><title>DigitalWatch_smChronometerChronoNormal_running</title>
<path fill="none" stroke="black" d="M1193,-246C1193,-246 1145,-246 1145,-246 1139,-246 1133,-240 1133,-234 1133,-234 1133,-222 1133,-222 1133,-216 1139,-210 1145,-210 1145,-210 1193,-210 1193,-210 1199,-210 1205,-216 1205,-222 1205,-222 1205,-234 1205,-234 1205,-240 1199,-246 1193,-246"/>
<text text-anchor="middle" x="1169" y="-224.3" font-family="Times,serif" font-size="14.00">running</text>
</g>
<!-- DigitalWatch_smChronometerChronoNormal_paused&#45;&gt;DigitalWatch_smChronometerChronoNormal_running -->
<g id="edge28" class="edge"><title>DigitalWatch_smChronometerChronoNormal_paused&#45;&gt;DigitalWatch_smChronometerChronoNormal_running</title>
<g id="a_edge28"><a xlink:title="paused s1 &#45;&gt; running">
<path fill="none" stroke="black" d="M1163.4,-296.65C1168.9,-291.661 1173.95,-285.722 1177,-279 1180.2,-271.955 1180.25,-263.846 1178.94,-256.236"/>
<polygon fill="black" stroke="black" points="1182.29,-255.18 1176.49,-246.315 1175.49,-256.863 1182.29,-255.18"/>
</a>
</g>
<text text-anchor="middle" x="1185.5" y="-267.8" font-family="Times,serif" font-size="14.00">s1</text>
</g>
<!-- DigitalWatch_smChronometerChronoNormal_running&#45;&gt;DigitalWatch_smChronometerChronoNormal_paused -->
<g id="edge26" class="edge"><title>DigitalWatch_smChronometerChronoNormal_running&#45;&gt;DigitalWatch_smChronometerChronoNormal_paused</title>
<g id="a_edge26"><a xlink:title="running s1 &#45;&gt; paused">
<path fill="none" stroke="black" d="M1182.86,-302.677 1194.68,-297.462 1206.01,-289.907 1213,-279 1220.55,-267.218 1211.13,-255.403 1199.1,-246.219"/>
<polygon fill="black" stroke="black" points="1181.41,-299.487 1173.36,-306.377 1183.95,-306.01 1181.41,-299.487"/>
</a>
</g>
<text text-anchor="middle" x="1221.5" y="-267.8" font-family="Times,serif" font-size="14.00">s1</text>
</g>
<!-- DigitalWatch_smChronometer_lapRunning -->
<g id="node16" class="node"><title>DigitalWatch_smChronometer_lapRunning</title>
<path fill="none" stroke="black" d="M1071,-333C1071,-333 1013,-333 1013,-333 1007,-333 1001,-327 1001,-321 1001,-321 1001,-309 1001,-309 1001,-303 1007,-297 1013,-297 1013,-297 1071,-297 1071,-297 1077,-297 1083,-303 1083,-309 1083,-309 1083,-321 1083,-321 1083,-327 1077,-333 1071,-333"/>
<text text-anchor="middle" x="1042" y="-311.3" font-family="Times,serif" font-size="14.00">lapRunning</text>
</g>
<!-- DigitalWatch_smChronometerChronoNormal_running&#45;&gt;DigitalWatch_smChronometer_lapRunning -->
<g id="edge30" class="edge"><title>DigitalWatch_smChronometerChronoNormal_running&#45;&gt;DigitalWatch_smChronometer_lapRunning</title>
<g id="a_edge30"><a xlink:title="running s2 &#45;&gt; lapRunning">
<path fill="none" stroke="black" d="M1061.13,-289.202 1068.79,-280.427 1078.13,-271.006 1088,-264 1089.06,-263.246 1111.86,-253.415 1132.99,-244.365"/>
<polygon fill="black" stroke="black" points="1058.34,-287.078 1054.6,-296.991 1063.71,-291.573 1058.34,-287.078"/>
</a>
</g>
<text text-anchor="middle" x="1094.5" y="-267.8" font-family="Times,serif" font-size="14.00">s2</text>
</g>
<!-- DigitalWatch_smChronometer_lapRunning&#45;&gt;DigitalWatch_smChronometerChronoNormal_running -->
<g id="edge29" class="edge"><title>DigitalWatch_smChronometer_lapRunning&#45;&gt;DigitalWatch_smChronometerChronoNormal_running</title>
<g id="a_edge29"><a xlink:title="lapRunning s2 &#45;&gt; running">
<path fill="none" stroke="black" d="M1074.97,-296.991C1084.82,-291.56 1095.52,-285.313 1105,-279 1113.95,-273.035 1115.53,-270.636 1124,-264 1128.79,-260.246 1133.88,-256.275 1138.84,-252.409"/>
<polygon fill="black" stroke="black" points="1141.26,-254.961 1147,-246.058 1136.96,-249.437 1141.26,-254.961"/>
</a>
</g>
<text text-anchor="middle" x="1130.5" y="-267.8" font-family="Times,serif" font-size="14.00">s2</text>
</g>
<!-- DigitalWatch_smChronometer_lapPaused -->
<g id="node17" class="node"><title>DigitalWatch_smChronometer_lapPaused</title>
<path fill="none" stroke="black" d="M1072.5,-246C1072.5,-246 1023.5,-246 1023.5,-246 1017.5,-246 1011.5,-240 1011.5,-234 1011.5,-234 1011.5,-222 1011.5,-222 1011.5,-216 1017.5,-210 1023.5,-210 1023.5,-210 1072.5,-210 1072.5,-210 1078.5,-210 1084.5,-216 1084.5,-222 1084.5,-222 1084.5,-234 1084.5,-234 1084.5,-240 1078.5,-246 1072.5,-246"/>
<text text-anchor="middle" x="1048" y="-224.3" font-family="Times,serif" font-size="14.00">lapPaused</text>
</g>
<!-- DigitalWatch_smChronometer_lapRunning&#45;&gt;DigitalWatch_smChronometer_lapPaused -->
<g id="edge32" class="edge"><title>DigitalWatch_smChronometer_lapRunning&#45;&gt;DigitalWatch_smChronometer_lapPaused</title>
<g id="a_edge32"><a xlink:title="lapRunning s1 &#45;&gt; lapPaused">
<path fill="none" stroke="black" d="M1031.25,-255.019 1029.93,-257.96 1028.8,-260.986 1028,-264 1025.08,-274.978 1028.43,-287.262 1032.58,-296.907"/>
<polygon fill="black" stroke="black" points="1034.41,-256.513 1035.93,-246.026 1028.2,-253.28 1034.41,-256.513"/>
</a>
</g>
<text text-anchor="middle" x="1034.5" y="-267.8" font-family="Times,serif" font-size="14.00">s1</text>
</g>
<!-- DigitalWatch_smChronometer_lapPaused&#45;&gt;DigitalWatch_smChronometerChronoNormal_paused -->
<g id="edge27" class="edge"><title>DigitalWatch_smChronometer_lapPaused&#45;&gt;DigitalWatch_smChronometerChronoNormal_paused</title>
<g id="a_edge27"><a xlink:title="lapPaused s2 &#45;&gt; paused">
<path fill="none" stroke="black" d="M1084.62,-244.309C1086.09,-244.887 1087.56,-245.453 1089,-246 1111.86,-254.688 1126.81,-244.078 1141,-264 1145.64,-270.511 1146.43,-278.78 1145.55,-286.71"/>
<polygon fill="black" stroke="black" points="1142.07,-286.279 1143.6,-296.762 1148.94,-287.612 1142.07,-286.279"/>
</a>
</g>
<text text-anchor="middle" x="1151.5" y="-267.8" font-family="Times,serif" font-size="14.00">s2</text>
</g>
<!-- DigitalWatch_smChronometer_lapPaused&#45;&gt;DigitalWatch_smChronometer_lapRunning -->
<g id="edge31" class="edge"><title>DigitalWatch_smChronometer_lapPaused&#45;&gt;DigitalWatch_smChronometer_lapRunning</title>
<g id="a_edge31"><a xlink:title="lapPaused s1 &#45;&gt; lapRunning">
<path fill="none" stroke="black" d="M1043.92,-286.734 1044.86,-273.419 1045.97,-257.806 1046.79,-246.175"/>
<polygon fill="black" stroke="black" points="1040.43,-286.577 1043.21,-296.799 1047.41,-287.07 1040.43,-286.577"/>
</a>
</g>
<text text-anchor="middle" x="1052.5" y="-267.8" font-family="Times,serif" font-size="14.00">s1</text>
</g>
<!-- start_DigitalWatch_alarmStatus -->
<g id="node18" class="node"><title>start_DigitalWatch_alarmStatus</title>
<ellipse fill="black" stroke="black" cx="422" cy="-412.2" rx="7.2" ry="7.2"/>
</g>
<!-- start_DigitalWatch_alarmStatus&#45;&gt;DigitalWatch_smAlarmStatus_bothOff -->
<g id="edge34" class="edge"><title>start_DigitalWatch_alarmStatus&#45;&gt;DigitalWatch_smAlarmStatus_bothOff</title>
<g id="a_edge34"><a xlink:title="start &#160;&#45;&gt; bothOff">
<path fill="none" stroke="black" d="M422,-404.954C422,-392.639 422,-364.571 422,-343.233"/>
<polygon fill="black" stroke="black" points="425.5,-343.102 422,-333.102 418.5,-343.102 425.5,-343.102"/>
</a>
</g>
</g>
<!-- DigitalWatch_smAlarmStatus_bothOff&#45;&gt;DigitalWatch_smRegular_time -->
<g id="edge6" class="edge"><title>DigitalWatch_smAlarmStatus_bothOff&#45;&gt;DigitalWatch_smRegular_time</title>
<g id="a_edge6"><a xlink:title="alarmStatus notS2 &#45;&gt; time">
<path fill="none" stroke="black" d="M465.662,-322.75C504.688,-329.64 562.956,-342.066 611,-361.2 623.394,-366.136 624.246,-372.287 637,-376.2 739.967,-407.794 775.822,-371.342 881.78,-393.503"/>
<polygon fill="black" stroke="black" points="881.048,-396.926 891.569,-395.673 882.564,-390.092 881.048,-396.926"/>
</a>
</g>
<text text-anchor="middle" x="653.5" y="-365" font-family="Times,serif" font-size="14.00">notS2</text>
</g>
<!-- DigitalWatch_smAlarmStatus_chimeOn -->
<g id="node20" class="node"><title>DigitalWatch_smAlarmStatus_chimeOn</title>
<path fill="none" stroke="black" d="M426,-246C426,-246 378,-246 378,-246 372,-246 366,-240 366,-234 366,-234 366,-222 366,-222 366,-216 372,-210 378,-210 378,-210 426,-210 426,-210 432,-210 438,-216 438,-222 438,-222 438,-234 438,-234 438,-240 432,-246 426,-246"/>
<text text-anchor="middle" x="402" y="-224.3" font-family="Times,serif" font-size="14.00">chimeOn</text>
</g>
<!-- DigitalWatch_smAlarmStatus_bothOff&#45;&gt;DigitalWatch_smAlarmStatus_chimeOn -->
<g id="edge36" class="edge"><title>DigitalWatch_smAlarmStatus_bothOff&#45;&gt;DigitalWatch_smAlarmStatus_chimeOn</title>
<g id="a_edge36"><a xlink:title="bothOff s1 &#45;&gt; chimeOn">
<path fill="none" stroke="black" d="M408.409,-256.237 411.541,-269.548 415.215,-285.163 417.953,-296.799"/>
<polygon fill="black" stroke="black" points="411.739,-255.108 406.041,-246.175 404.925,-256.711 411.739,-255.108"/>
</a>
</g>
<text text-anchor="middle" x="420.5" y="-267.8" font-family="Times,serif" font-size="14.00">s1</text>
</g>
<!-- DigitalWatch_smAlarmStatus_bothOn -->
<g id="node21" class="node"><title>DigitalWatch_smAlarmStatus_bothOn</title>
<path fill="none" stroke="black" d="M426,-153C426,-153 378,-153 378,-153 372,-153 366,-147 366,-141 366,-141 366,-129 366,-129 366,-123 372,-117 378,-117 378,-117 426,-117 426,-117 432,-117 438,-123 438,-129 438,-129 438,-141 438,-141 438,-147 432,-153 426,-153"/>
<text text-anchor="middle" x="402" y="-131.3" font-family="Times,serif" font-size="14.00">bothOn</text>
</g>
<!-- DigitalWatch_smAlarmStatus_chimeOn&#45;&gt;DigitalWatch_smAlarmStatus_bothOn -->
<g id="edge37" class="edge"><title>DigitalWatch_smAlarmStatus_chimeOn&#45;&gt;DigitalWatch_smAlarmStatus_bothOn</title>
<g id="a_edge37"><a xlink:title="chimeOn s1 &#45;&gt; bothOn">
<path fill="none" stroke="black" d="M402,-209.884C402,-196.792 402,-178.48 402,-163.363"/>
<polygon fill="black" stroke="black" points="405.5,-163.04 402,-153.04 398.5,-163.04 405.5,-163.04"/>
</a>
</g>
<text text-anchor="middle" x="408.5" y="-174.8" font-family="Times,serif" font-size="14.00">s1</text>
</g>
<!-- DigitalWatch_smAlarmStatus_alarmOn -->
<g id="node22" class="node"><title>DigitalWatch_smAlarmStatus_alarmOn</title>
<path fill="none" stroke="black" d="M441,-60C441,-60 393,-60 393,-60 387,-60 381,-54 381,-48 381,-48 381,-36 381,-36 381,-30 387,-24 393,-24 393,-24 441,-24 441,-24 447,-24 453,-30 453,-36 453,-36 453,-48 453,-48 453,-54 447,-60 441,-60"/>
<text text-anchor="middle" x="417" y="-38.3" font-family="Times,serif" font-size="14.00">alarmOn</text>
</g>
<!-- DigitalWatch_smAlarmStatus_bothOn&#45;&gt;DigitalWatch_smAlarmStatus_alarmOn -->
<g id="edge38" class="edge"><title>DigitalWatch_smAlarmStatus_bothOn&#45;&gt;DigitalWatch_smAlarmStatus_alarmOn</title>
<g id="a_edge38"><a xlink:title="bothOn s1 &#45;&gt; alarmOn">
<path fill="none" stroke="black" d="M404.821,-116.884C407,-103.665 410.056,-85.1242 412.562,-69.9233"/>
<polygon fill="black" stroke="black" points="416.018,-70.4758 414.191,-60.0397 409.111,-69.3372 416.018,-70.4758"/>
</a>
</g>
<text text-anchor="middle" x="417.5" y="-81.8" font-family="Times,serif" font-size="14.00">s1</text>
</g>
<!-- DigitalWatch_smAlarmStatus_alarmOn&#45;&gt;DigitalWatch_smAlarmStatus_bothOff -->
<g id="edge35" class="edge"><title>DigitalWatch_smAlarmStatus_alarmOn&#45;&gt;DigitalWatch_smAlarmStatus_bothOff</title>
<g id="a_edge35"><a xlink:title="alarmOn s1 &#45;&gt; bothOff">
<path fill="none" stroke="black" d="M428.653,-60.1555C435.477,-71.267 443.435,-86.3496 447,-101 462.236,-163.618 458.294,-182.553 447,-246 444.478,-260.168 439.217,-275.255 434.168,-287.609"/>
<polygon fill="black" stroke="black" points="430.926,-286.29 430.222,-296.861 437.365,-289.036 430.926,-286.29"/>
</a>
</g>
<text text-anchor="middle" x="463.5" y="-174.8" font-family="Times,serif" font-size="14.00">s1</text>
</g>
<!-- start_DigitalWatch_alarmUpdate -->
<g id="node23" class="node"><title>start_DigitalWatch_alarmUpdate</title>
<ellipse fill="black" stroke="black" cx="55" cy="-412.2" rx="7.2" ry="7.2"/>
</g>
<!-- start_DigitalWatch_alarmUpdate&#45;&gt;DigitalWatch_smAlarmUpdate_alarmTime -->
<g id="edge39" class="edge"><title>start_DigitalWatch_alarmUpdate&#45;&gt;DigitalWatch_smAlarmUpdate_alarmTime</title>
<g id="a_edge39"><a xlink:title="start &#160;&#45;&gt; alarmTime">
<path fill="none" stroke="black" d="M55,-404.954C55,-392.639 55,-364.571 55,-343.233"/>
<polygon fill="black" stroke="black" points="58.5001,-343.102 55,-333.102 51.5001,-343.102 58.5001,-343.102"/>
</a>
</g>
</g>
<!-- DigitalWatch_smAlarmUpdate_alarmTime&#45;&gt;DigitalWatch_smRegularUpdate_second -->
<g id="edge11" class="edge"><title>DigitalWatch_smAlarmUpdate_alarmTime&#45;&gt;DigitalWatch_smRegularUpdate_second</title>
<g id="a_edge11"><a xlink:title="alarmUpdate s3 &#45;&gt; second">
<path fill="none" stroke="black" d="M257.155,-450.163C280.061,-460.191 306.576,-470.036 341,-481.4 456.525,-519.537 600.332,-532.794 672.747,-537.25"/>
<polygon fill="black" stroke="black" points="672.714,-540.754 682.901,-537.845 673.123,-533.766 672.714,-540.754"/>
</a>
</g>
<text text-anchor="middle" x="347.5" y="-408.5" font-family="Times,serif" font-size="14.00">s3</text>
</g>
<!-- DigitalWatch_smAlarmUpdateHourMinuteUpdate_alarmHour -->
<g id="node26" class="node"><title>DigitalWatch_smAlarmUpdateHourMinuteUpdate_alarmHour</title>
<path fill="none" stroke="black" d="M182.5,-246C182.5,-246 129.5,-246 129.5,-246 123.5,-246 117.5,-240 117.5,-234 117.5,-234 117.5,-222 117.5,-222 117.5,-216 123.5,-210 129.5,-210 129.5,-210 182.5,-210 182.5,-210 188.5,-210 194.5,-216 194.5,-222 194.5,-222 194.5,-234 194.5,-234 194.5,-240 188.5,-246 182.5,-246"/>
<text text-anchor="middle" x="156" y="-224.3" font-family="Times,serif" font-size="14.00">alarmHour</text>
</g>
<!-- DigitalWatch_smAlarmUpdate_alarmTime&#45;&gt;DigitalWatch_smAlarmUpdateHourMinuteUpdate_alarmHour -->
<g id="edge42" class="edge"><title>DigitalWatch_smAlarmUpdate_alarmTime&#45;&gt;DigitalWatch_smAlarmUpdateHourMinuteUpdate_alarmHour</title>
<g id="a_edge42"><a xlink:title="alarmTime s2 / alarmHour++; &#45;&gt; alarmHour">
<path fill="none" stroke="black" d="M58.7291,-296.879C61.8065,-286.265 67.1452,-272.987 76,-264 78.7536,-261.205 92.3607,-254.948 107.594,-248.486"/>
<polygon fill="black" stroke="black" points="109.332,-251.552 117.206,-244.464 106.63,-245.095 109.332,-251.552"/>
</a>
</g>
<text text-anchor="middle" x="128" y="-267.8" font-family="Times,serif" font-size="14.00">s2 / alarmHour++;</text>
</g>
<!-- DigitalWatch_smAlarmUpdateHourMinuteUpdate_alarmMinute -->
<g id="node27" class="node"><title>DigitalWatch_smAlarmUpdateHourMinuteUpdate_alarmMinute</title>
<path fill="none" stroke="black" d="M187.5,-153C187.5,-153 122.5,-153 122.5,-153 116.5,-153 110.5,-147 110.5,-141 110.5,-141 110.5,-129 110.5,-129 110.5,-123 116.5,-117 122.5,-117 122.5,-117 187.5,-117 187.5,-117 193.5,-117 199.5,-123 199.5,-129 199.5,-129 199.5,-141 199.5,-141 199.5,-147 193.5,-153 187.5,-153"/>
<text text-anchor="middle" x="155" y="-131.3" font-family="Times,serif" font-size="14.00">alarmMinute</text>
</g>
<!-- DigitalWatch_smAlarmUpdate_alarmTime&#45;&gt;DigitalWatch_smAlarmUpdateHourMinuteUpdate_alarmMinute -->
<g id="edge45" class="edge"><title>DigitalWatch_smAlarmUpdate_alarmTime&#45;&gt;DigitalWatch_smAlarmUpdateHourMinuteUpdate_alarmMinute</title>
<g id="a_edge45"><a xlink:title="alarmTime s1 &#45;&gt; alarmMinute">
<path fill="none" stroke="black" d="M56.1404,-296.602C57.0988,-286.861 58.8439,-274.584 62,-264 71.8292,-231.039 74.9751,-221.965 95,-194 103.824,-181.678 115.455,-169.741 126.126,-159.933"/>
<polygon fill="black" stroke="black" points="128.546,-162.464 133.672,-153.192 123.883,-157.243 128.546,-162.464"/>
</a>
</g>
<text text-anchor="middle" x="101.5" y="-224.3" font-family="Times,serif" font-size="14.00">s1</text>
</g>
<!-- start_DigitalWatch_hourMinuteUpdate -->
<g id="node25" class="node"><title>start_DigitalWatch_hourMinuteUpdate</title>
<ellipse fill="black" stroke="black" cx="189" cy="-315" rx="7.2" ry="7.2"/>
</g>
<!-- start_DigitalWatch_hourMinuteUpdate&#45;&gt;DigitalWatch_smAlarmUpdateHourMinuteUpdate_alarmHour -->
<g id="edge41" class="edge"><title>start_DigitalWatch_hourMinuteUpdate&#45;&gt;DigitalWatch_smAlarmUpdateHourMinuteUpdate_alarmHour</title>
<g id="a_edge41"><a xlink:title="start &#160;&#45;&gt; alarmHour">
<path fill="none" stroke="black" d="M178.965,-254.451 180.926,-257.52 182.667,-260.731 184,-264 189.995,-278.702 189.993,-297.771 189.491,-307.567"/>
<polygon fill="black" stroke="black" points="181.715,-252.281 173.008,-246.244 176.05,-256.393 181.715,-252.281"/>
</a>
</g>
</g>
<!-- DigitalWatch_smAlarmUpdateHourMinuteUpdate_alarmHour&#45;&gt;DigitalWatch_smAlarmUpdateHourMinuteUpdate_alarmHour -->
<g id="edge43" class="edge"><title>DigitalWatch_smAlarmUpdateHourMinuteUpdate_alarmHour&#45;&gt;DigitalWatch_smAlarmUpdateHourMinuteUpdate_alarmHour</title>
<g id="a_edge43"><a xlink:title="alarmHour s2 / alarmHour++; &#45;&gt; alarmHour">
<path fill="none" stroke="black" d="M194.555,-235.806C204.766,-235.36 212.5,-232.758 212.5,-228 212.5,-225.026 209.479,-222.895 204.72,-221.606"/>
<polygon fill="black" stroke="black" points="204.941,-218.103 194.555,-220.194 203.979,-225.036 204.941,-218.103"/>
</a>
</g>
<text text-anchor="middle" x="264.5" y="-224.3" font-family="Times,serif" font-size="14.00">s2 / alarmHour++;</text>
</g>
<!-- DigitalWatch_smAlarmUpdateHourMinuteUpdate_alarmHour&#45;&gt;DigitalWatch_smAlarmUpdateHourMinuteUpdate_alarmMinute -->
<g id="edge46" class="edge"><title>DigitalWatch_smAlarmUpdateHourMinuteUpdate_alarmHour&#45;&gt;DigitalWatch_smAlarmUpdateHourMinuteUpdate_alarmMinute</title>
<g id="a_edge46"><a xlink:title="alarmHour s1 &#45;&gt; alarmMinute">
<path fill="none" stroke="black" d="M141.381,-162.796 140.416,-165.515 139.593,-168.279 139,-171 136.147,-184.105 140.756,-198.584 145.89,-209.536"/>
<polygon fill="black" stroke="black" points="144.724,-163.871 145.324,-153.294 138.258,-161.188 144.724,-163.871"/>
</a>
</g>
<text text-anchor="middle" x="145.5" y="-174.8" font-family="Times,serif" font-size="14.00">s1</text>
</g>
<!-- DigitalWatch_smAlarmUpdateHourMinuteUpdate_alarmMinute&#45;&gt;DigitalWatch_smAlarmUpdateHourMinuteUpdate_alarmHour -->
<g id="edge44" class="edge"><title>DigitalWatch_smAlarmUpdateHourMinuteUpdate_alarmMinute&#45;&gt;DigitalWatch_smAlarmUpdateHourMinuteUpdate_alarmHour</title>
<g id="a_edge44"><a xlink:title="alarmMinute s1 &#45;&gt; alarmHour">
<path fill="none" stroke="black" d="M155.187,-153.04C155.331,-166.111 155.532,-184.419 155.698,-199.549"/>
<polygon fill="black" stroke="black" points="152.202,-199.923 155.812,-209.884 159.202,-199.846 152.202,-199.923"/>
</a>
</g>
<text text-anchor="middle" x="162.5" y="-174.8" font-family="Times,serif" font-size="14.00">s1</text>
</g>
<!-- DigitalWatch_smAlarmUpdateHourMinuteUpdate_alarmMinute&#45;&gt;DigitalWatch_smAlarmUpdateHourMinuteUpdate_alarmMinute -->
<g id="edge47" class="edge"><title>DigitalWatch_smAlarmUpdateHourMinuteUpdate_alarmMinute&#45;&gt;DigitalWatch_smAlarmUpdateHourMinuteUpdate_alarmMinute</title>
<g id="a_edge47"><a xlink:title="alarmMinute s2 / alarmMinute++; &#45;&gt; alarmMinute">
<path fill="none" stroke="black" d="M199.663,-142.701C209.946,-142.038 217.5,-139.471 217.5,-135 217.5,-132.206 214.549,-130.155 209.826,-128.848"/>
<polygon fill="black" stroke="black" points="210.077,-125.346 199.663,-127.299 209.021,-132.266 210.077,-125.346"/>
</a>
</g>
<text text-anchor="middle" x="275.5" y="-131.3" font-family="Times,serif" font-size="14.00">s2 / alarmMinute++;</text>
</g>
</g>
</svg>
