<?xml version="1.0" encoding="UTF-8" standalone="no"?>
<!DOCTYPE svg PUBLIC "-//W3C//DTD SVG 1.1//EN"
 "http://www.w3.org/Graphics/SVG/1.1/DTD/svg11.dtd">
<!-- Generated by graphviz version 2.29.20121108.1600 (20121108.1600)
 -->
<!-- Title: DigitalWatchFlat Pages: 1 -->
<svg width="926pt" height="720pt"
 viewBox="0.00 0.00 926.18 720.00" xmlns="http://www.w3.org/2000/svg" xmlns:xlink="http://www.w3.org/1999/xlink">
<g id="graph0" class="graph" transform="scale(0.794702 0.794702) rotate(0) translate(4 902)">
<title>DigitalWatchFlat</title>
<polygon fill="white" stroke="white" points="-4,5 -4,-902 1162.45,-902 1162.45,5 -4,5"/>
<!-- start_DigitalWatch_sm -->
<g id="node1" class="node"><title>start_DigitalWatch_sm</title>
<ellipse fill="black" stroke="black" cx="472" cy="-891" rx="7.2" ry="7.2"/>
</g>
<!-- DigitalWatch_sm_time -->
<g id="node2" class="node"><title>DigitalWatch_sm_time</title>
<path fill="none" stroke="black" d="M496,-846C496,-846 448,-846 448,-846 442,-846 436,-840 436,-834 436,-834 436,-822 436,-822 436,-816 442,-810 448,-810 448,-810 496,-810 496,-810 502,-810 508,-816 508,-822 508,-822 508,-834 508,-834 508,-840 502,-846 496,-846"/>
<text text-anchor="middle" x="472" y="-822.4" font-family="Times,serif" font-size="14.00">time</text>
</g>
<!-- start_DigitalWatch_sm&#45;&gt;DigitalWatch_sm_time -->
<g id="edge1" class="edge"><title>start_DigitalWatch_sm&#45;&gt;DigitalWatch_sm_time</title>
<path fill="none" stroke="black" d="M472,-883.472C472,-876.902 472,-866.324 472,-856.229"/>
<polygon fill="black" stroke="black" points="475.5,-856.073 472,-846.073 468.5,-856.073 475.5,-856.073"/>
</g>
<!-- DigitalWatch_sm_date -->
<g id="node3" class="node"><title>DigitalWatch_sm_date</title>
<path fill="none" stroke="black" d="M60,-756C60,-756 12,-756 12,-756 6,-756 0,-750 0,-744 0,-744 0,-732 0,-732 0,-726 6,-720 12,-720 12,-720 60,-720 60,-720 66,-720 72,-726 72,-732 72,-732 72,-744 72,-744 72,-750 66,-756 60,-756"/>
<text text-anchor="middle" x="36" y="-732.4" font-family="Times,serif" font-size="14.00">date</text>
</g>
<!-- DigitalWatch_sm_time&#45;&gt;DigitalWatch_sm_date -->
<g id="edge17" class="edge"><title>DigitalWatch_sm_time&#45;&gt;DigitalWatch_sm_date</title>
<path fill="none" stroke="black" d="M435.697,-827.632C349.408,-828.534 134.683,-827.082 73.5518,-792 62.8434,-785.855 54.426,-775.272 48.2986,-765.171"/>
<polygon fill="black" stroke="black" points="51.2215,-763.224 43.3152,-756.171 45.0976,-766.615 51.2215,-763.224"/>
<text text-anchor="middle" x="80.2241" y="-777.4" font-family="Times,serif" font-size="14.00">s1</text>
</g>
<!-- DigitalWatch_sm_paused -->
<g id="node4" class="node"><title>DigitalWatch_sm_paused</title>
<path fill="none" stroke="black" d="M150,-756C150,-756 102,-756 102,-756 96,-756 90,-750 90,-744 90,-744 90,-732 90,-732 90,-726 96,-720 102,-720 102,-720 150,-720 150,-720 156,-720 162,-726 162,-732 162,-732 162,-744 162,-744 162,-750 156,-756 150,-756"/>
<text text-anchor="middle" x="126" y="-732.4" font-family="Times,serif" font-size="14.00">paused</text>
</g>
<!-- DigitalWatch_sm_time&#45;&gt;DigitalWatch_sm_paused -->
<g id="edge18" class="edge"><title>DigitalWatch_sm_time&#45;&gt;DigitalWatch_sm_paused</title>
<path fill="none" stroke="black" d="M435.884,-824.668C371.594,-820.142 240.058,-809.086 197.552,-792 180.726,-785.237 164.297,-773.544 151.433,-762.858"/>
<polygon fill="black" stroke="black" points="153.387,-759.921 143.527,-756.044 148.817,-765.224 153.387,-759.921"/>
<text text-anchor="middle" x="204.224" y="-777.4" font-family="Times,serif" font-size="14.00">s3</text>
</g>
<!-- DigitalWatch_sm_bothOff -->
<g id="node8" class="node"><title>DigitalWatch_sm_bothOff</title>
<path fill="none" stroke="black" d="M480,-756C480,-756 432,-756 432,-756 426,-756 420,-750 420,-744 420,-744 420,-732 420,-732 420,-726 426,-720 432,-720 432,-720 480,-720 480,-720 486,-720 492,-726 492,-732 492,-732 492,-744 492,-744 492,-750 486,-756 480,-756"/>
<text text-anchor="middle" x="456" y="-732.4" font-family="Times,serif" font-size="14.00">bothOff</text>
</g>
<!-- DigitalWatch_sm_time&#45;&gt;DigitalWatch_sm_bothOff -->
<g id="edge27" class="edge"><title>DigitalWatch_sm_time&#45;&gt;DigitalWatch_sm_bothOff</title>
<path fill="none" stroke="black" d="M456.147,-809.687C452.242,-804.388 448.596,-798.287 446.552,-792 443.881,-783.785 444.37,-774.594 446.086,-766.202"/>
<polygon fill="black" stroke="black" points="449.483,-767.044 448.656,-756.481 442.716,-765.254 449.483,-767.044"/>
<text text-anchor="middle" x="453.224" y="-777.4" font-family="Times,serif" font-size="14.00">s2</text>
</g>
<!-- DigitalWatch_sm_alarmTime -->
<g id="node12" class="node"><title>DigitalWatch_sm_alarmTime</title>
<path fill="none" stroke="black" d="M807.197,-756C807.197,-756 754.803,-756 754.803,-756 748.803,-756 742.803,-750 742.803,-744 742.803,-744 742.803,-732 742.803,-732 742.803,-726 748.803,-720 754.803,-720 754.803,-720 807.197,-720 807.197,-720 813.197,-720 819.197,-726 819.197,-732 819.197,-732 819.197,-744 819.197,-744 819.197,-750 813.197,-756 807.197,-756"/>
<text text-anchor="middle" x="781" y="-732.4" font-family="Times,serif" font-size="14.00">alarmTime</text>
</g>
<!-- DigitalWatch_sm_time&#45;&gt;DigitalWatch_sm_alarmTime -->
<g id="edge32" class="edge"><title>DigitalWatch_sm_time&#45;&gt;DigitalWatch_sm_alarmTime</title>
<path fill="none" stroke="black" d="M508.115,-824.374C567.308,-819.657 682.091,-808.661 719,-792 733.748,-785.343 747.682,-774.069 758.592,-763.627"/>
<polygon fill="black" stroke="black" points="761.374,-765.794 765.969,-756.248 756.423,-760.845 761.374,-765.794"/>
<text text-anchor="middle" x="786.831" y="-777.4" font-family="Times,serif" font-size="14.00">s3during2Secs</text>
</g>
<!-- DigitalWatch_sm_date&#45;&gt;DigitalWatch_sm_time -->
<g id="edge2" class="edge"><title>DigitalWatch_sm_date&#45;&gt;DigitalWatch_sm_time</title>
<path fill="none" stroke="black" d="M59.6613,-756.125C77.7974,-768.306 103.943,-783.894 129.324,-792 183.298,-809.238 345.121,-820.133 425.56,-824.631"/>
<polygon fill="black" stroke="black" points="425.709,-828.144 435.886,-825.198 426.093,-821.155 425.709,-828.144"/>
<text text-anchor="middle" x="146.338" y="-777.4" font-family="Times,serif" font-size="14.00">notS1</text>
</g>
<!-- DigitalWatch_sm_paused&#45;&gt;DigitalWatch_sm_time -->
<g id="edge3" class="edge"><title>DigitalWatch_sm_paused&#45;&gt;DigitalWatch_sm_time</title>
<path fill="none" stroke="black" d="M162.272,-752.579C178.271,-758.785 197.213,-766.43 214,-774 230.145,-781.28 232.698,-786.557 249.552,-792 308.571,-811.06 379.868,-819.938 425.561,-823.934"/>
<polygon fill="black" stroke="black" points="425.499,-827.441 435.754,-824.781 426.079,-820.465 425.499,-827.441"/>
<text text-anchor="middle" x="256.224" y="-777.4" font-family="Times,serif" font-size="14.00">s3</text>
</g>
<!-- DigitalWatch_sm_paused&#45;&gt;DigitalWatch_sm_paused -->
<g id="edge19" class="edge"><title>DigitalWatch_sm_paused&#45;&gt;DigitalWatch_sm_paused</title>
<path fill="none" stroke="black" d="M162.087,-746.209C172.221,-745.85 180,-743.113 180,-738 180,-734.804 176.961,-732.537 172.208,-731.198"/>
<polygon fill="black" stroke="black" points="172.474,-727.701 162.087,-729.791 171.51,-734.635 172.474,-727.701"/>
<text text-anchor="middle" x="210.321" y="-732.4" font-family="Times,serif" font-size="14.00">s2 / zero();</text>
</g>
<!-- DigitalWatch_sm_running -->
<g id="node5" class="node"><title>DigitalWatch_sm_running</title>
<path fill="none" stroke="black" d="M238,-666C238,-666 190,-666 190,-666 184,-666 178,-660 178,-654 178,-654 178,-642 178,-642 178,-636 184,-630 190,-630 190,-630 238,-630 238,-630 244,-630 250,-636 250,-642 250,-642 250,-654 250,-654 250,-660 244,-666 238,-666"/>
<text text-anchor="middle" x="214" y="-642.4" font-family="Times,serif" font-size="14.00">running</text>
</g>
<!-- DigitalWatch_sm_paused&#45;&gt;DigitalWatch_sm_running -->
<g id="edge22" class="edge"><title>DigitalWatch_sm_paused&#45;&gt;DigitalWatch_sm_running</title>
<path fill="none" stroke="black" d="M162.055,-722.477C172.038,-717.164 182.249,-710.357 190,-702 196.86,-694.603 202.02,-684.911 205.763,-675.84"/>
<polygon fill="black" stroke="black" points="209.076,-676.972 209.281,-666.38 202.515,-674.533 209.076,-676.972"/>
<text text-anchor="middle" x="208.224" y="-687.4" font-family="Times,serif" font-size="14.00">s1</text>
</g>
<!-- DigitalWatch_sm_running&#45;&gt;DigitalWatch_sm_time -->
<g id="edge4" class="edge"><title>DigitalWatch_sm_running&#45;&gt;DigitalWatch_sm_time</title>
<path fill="none" stroke="black" d="M222.38,-666.182C239.448,-700.493 278.603,-775.609 302,-792 338.276,-817.413 388.941,-825.182 425.51,-827.19"/>
<polygon fill="black" stroke="black" points="425.762,-830.704 435.901,-827.628 426.057,-823.71 425.762,-830.704"/>
<text text-anchor="middle" x="279.224" y="-732.4" font-family="Times,serif" font-size="14.00">s3</text>
</g>
<!-- DigitalWatch_sm_running&#45;&gt;DigitalWatch_sm_paused -->
<g id="edge20" class="edge"><title>DigitalWatch_sm_running&#45;&gt;DigitalWatch_sm_paused</title>
<path fill="none" stroke="black" d="M195.713,-666.326C189.87,-671.925 183.402,-678.188 177.552,-684 168.304,-693.189 158.28,-703.428 149.551,-712.439"/>
<polygon fill="black" stroke="black" points="146.998,-710.044 142.569,-719.669 152.034,-714.907 146.998,-710.044"/>
<text text-anchor="middle" x="184.224" y="-687.4" font-family="Times,serif" font-size="14.00">s1</text>
</g>
<!-- DigitalWatch_sm_lapRunning -->
<g id="node6" class="node"><title>DigitalWatch_sm_lapRunning</title>
<path fill="none" stroke="black" d="M277.498,-576C277.498,-576 220.502,-576 220.502,-576 214.502,-576 208.502,-570 208.502,-564 208.502,-564 208.502,-552 208.502,-552 208.502,-546 214.502,-540 220.502,-540 220.502,-540 277.498,-540 277.498,-540 283.498,-540 289.498,-546 289.498,-552 289.498,-552 289.498,-564 289.498,-564 289.498,-570 283.498,-576 277.498,-576"/>
<text text-anchor="middle" x="249" y="-552.4" font-family="Times,serif" font-size="14.00">lapRunning</text>
</g>
<!-- DigitalWatch_sm_running&#45;&gt;DigitalWatch_sm_lapRunning -->
<g id="edge24" class="edge"><title>DigitalWatch_sm_running&#45;&gt;DigitalWatch_sm_lapRunning</title>
<path fill="none" stroke="black" d="M209.957,-629.609C208.322,-618.92 207.789,-605.178 212.552,-594 214.05,-590.484 216.094,-587.151 218.454,-584.041"/>
<polygon fill="black" stroke="black" points="221.257,-586.156 225.283,-576.355 216.025,-581.506 221.257,-586.156"/>
<text text-anchor="middle" x="219.224" y="-597.4" font-family="Times,serif" font-size="14.00">s2</text>
</g>
<!-- DigitalWatch_sm_lapRunning&#45;&gt;DigitalWatch_sm_time -->
<g id="edge5" class="edge"><title>DigitalWatch_sm_lapRunning&#45;&gt;DigitalWatch_sm_time</title>
<path fill="none" stroke="black" d="M253.558,-576.271C266.729,-624.951 306.066,-761.704 340,-792 363.366,-812.862 397.773,-821.512 425.601,-825"/>
<polygon fill="black" stroke="black" points="425.593,-828.519 435.907,-826.098 426.334,-821.558 425.593,-828.519"/>
<text text-anchor="middle" x="299.224" y="-687.4" font-family="Times,serif" font-size="14.00">s3</text>
</g>
<!-- DigitalWatch_sm_lapRunning&#45;&gt;DigitalWatch_sm_running -->
<g id="edge23" class="edge"><title>DigitalWatch_sm_lapRunning&#45;&gt;DigitalWatch_sm_running</title>
<path fill="none" stroke="black" d="M242.219,-576.05C237.234,-588.583 230.363,-605.86 224.648,-620.227"/>
<polygon fill="black" stroke="black" points="221.358,-619.028 220.915,-629.614 227.863,-621.616 221.358,-619.028"/>
<text text-anchor="middle" x="241.224" y="-597.4" font-family="Times,serif" font-size="14.00">s2</text>
</g>
<!-- DigitalWatch_sm_lapPaused -->
<g id="node7" class="node"><title>DigitalWatch_sm_lapPaused</title>
<path fill="none" stroke="black" d="M274.075,-486C274.075,-486 225.925,-486 225.925,-486 219.925,-486 213.925,-480 213.925,-474 213.925,-474 213.925,-462 213.925,-462 213.925,-456 219.925,-450 225.925,-450 225.925,-450 274.075,-450 274.075,-450 280.075,-450 286.075,-456 286.075,-462 286.075,-462 286.075,-474 286.075,-474 286.075,-480 280.075,-486 274.075,-486"/>
<text text-anchor="middle" x="250" y="-462.4" font-family="Times,serif" font-size="14.00">lapPaused</text>
</g>
<!-- DigitalWatch_sm_lapRunning&#45;&gt;DigitalWatch_sm_lapPaused -->
<g id="edge26" class="edge"><title>DigitalWatch_sm_lapRunning&#45;&gt;DigitalWatch_sm_lapPaused</title>
<path fill="none" stroke="black" d="M239.656,-539.673C237.162,-534.181 234.813,-527.979 233.552,-522 231.901,-514.172 231.809,-511.808 233.552,-504 234.183,-501.174 235.068,-498.307 236.104,-495.493"/>
<polygon fill="black" stroke="black" points="239.336,-496.836 240.055,-486.266 232.901,-494.081 239.336,-496.836"/>
<text text-anchor="middle" x="240.224" y="-507.4" font-family="Times,serif" font-size="14.00">s1</text>
</g>
<!-- DigitalWatch_sm_lapPaused&#45;&gt;DigitalWatch_sm_time -->
<g id="edge6" class="edge"><title>DigitalWatch_sm_lapPaused&#45;&gt;DigitalWatch_sm_time</title>
<path fill="none" stroke="black" d="M263.066,-486.174C273.359,-500.181 287.65,-520.732 298,-540 355.337,-646.738 319.475,-703.287 402,-792 408.871,-799.387 417.645,-805.433 426.64,-810.295"/>
<polygon fill="black" stroke="black" points="425.134,-813.454 435.647,-814.767 428.247,-807.185 425.134,-813.454"/>
<text text-anchor="middle" x="346.224" y="-642.4" font-family="Times,serif" font-size="14.00">s3</text>
</g>
<!-- DigitalWatch_sm_lapPaused&#45;&gt;DigitalWatch_sm_paused -->
<g id="edge21" class="edge"><title>DigitalWatch_sm_lapPaused&#45;&gt;DigitalWatch_sm_paused</title>
<path fill="none" stroke="black" d="M235.608,-486.226C224.531,-500.095 209.407,-520.438 199,-540 168.389,-597.543 144.943,-670.742 133.575,-709.702"/>
<polygon fill="black" stroke="black" points="130.088,-709.163 130.693,-719.741 136.817,-711.095 130.088,-709.163"/>
<text text-anchor="middle" x="180.224" y="-597.4" font-family="Times,serif" font-size="14.00">s2</text>
</g>
<!-- DigitalWatch_sm_lapPaused&#45;&gt;DigitalWatch_sm_lapRunning -->
<g id="edge25" class="edge"><title>DigitalWatch_sm_lapPaused&#45;&gt;DigitalWatch_sm_lapRunning</title>
<path fill="none" stroke="black" d="M249.806,-486.05C249.667,-498.342 249.475,-515.197 249.314,-529.395"/>
<polygon fill="black" stroke="black" points="245.812,-529.575 249.198,-539.614 252.811,-529.654 245.812,-529.575"/>
<text text-anchor="middle" x="256.224" y="-507.4" font-family="Times,serif" font-size="14.00">s1</text>
</g>
<!-- DigitalWatch_sm_bothOff&#45;&gt;DigitalWatch_sm_time -->
<g id="edge7" class="edge"><title>DigitalWatch_sm_bothOff&#45;&gt;DigitalWatch_sm_time</title>
<path fill="none" stroke="black" d="M459.1,-756.05C461.335,-768.342 464.399,-785.197 466.981,-799.395"/>
<polygon fill="black" stroke="black" points="463.606,-800.401 468.839,-809.614 470.494,-799.149 463.606,-800.401"/>
<text text-anchor="middle" x="482.338" y="-777.4" font-family="Times,serif" font-size="14.00">notS2</text>
</g>
<!-- DigitalWatch_sm_chimeOn -->
<g id="node9" class="node"><title>DigitalWatch_sm_chimeOn</title>
<path fill="none" stroke="black" d="M541,-666C541,-666 493,-666 493,-666 487,-666 481,-660 481,-654 481,-654 481,-642 481,-642 481,-636 487,-630 493,-630 493,-630 541,-630 541,-630 547,-630 553,-636 553,-642 553,-642 553,-654 553,-654 553,-660 547,-666 541,-666"/>
<text text-anchor="middle" x="517" y="-642.4" font-family="Times,serif" font-size="14.00">chimeOn</text>
</g>
<!-- DigitalWatch_sm_bothOff&#45;&gt;DigitalWatch_sm_chimeOn -->
<g id="edge29" class="edge"><title>DigitalWatch_sm_bothOff&#45;&gt;DigitalWatch_sm_chimeOn</title>
<path fill="none" stroke="black" d="M464.831,-719.776C470.544,-709.149 478.412,-695.415 486.552,-684 488.904,-680.701 491.508,-677.346 494.174,-674.086"/>
<polygon fill="black" stroke="black" points="497.014,-676.148 500.819,-666.26 491.678,-671.618 497.014,-676.148"/>
<text text-anchor="middle" x="493.224" y="-687.4" font-family="Times,serif" font-size="14.00">s1</text>
</g>
<!-- DigitalWatch_sm_chimeOn&#45;&gt;DigitalWatch_sm_time -->
<g id="edge8" class="edge"><title>DigitalWatch_sm_chimeOn&#45;&gt;DigitalWatch_sm_time</title>
<path fill="none" stroke="black" d="M541.708,-666.192C547.086,-671.253 552.047,-677.264 555,-684 574.637,-728.783 563.322,-752.868 534,-792 529.465,-798.053 523.556,-803.211 517.188,-807.558"/>
<polygon fill="black" stroke="black" points="515.013,-804.785 508.308,-812.989 518.665,-810.757 515.013,-804.785"/>
<text text-anchor="middle" x="581.338" y="-732.4" font-family="Times,serif" font-size="14.00">notS2</text>
</g>
<!-- DigitalWatch_sm_bothOn -->
<g id="node10" class="node"><title>DigitalWatch_sm_bothOn</title>
<path fill="none" stroke="black" d="M541,-576C541,-576 493,-576 493,-576 487,-576 481,-570 481,-564 481,-564 481,-552 481,-552 481,-546 487,-540 493,-540 493,-540 541,-540 541,-540 547,-540 553,-546 553,-552 553,-552 553,-564 553,-564 553,-570 547,-576 541,-576"/>
<text text-anchor="middle" x="517" y="-552.4" font-family="Times,serif" font-size="14.00">bothOn</text>
</g>
<!-- DigitalWatch_sm_chimeOn&#45;&gt;DigitalWatch_sm_bothOn -->
<g id="edge30" class="edge"><title>DigitalWatch_sm_chimeOn&#45;&gt;DigitalWatch_sm_bothOn</title>
<path fill="none" stroke="black" d="M517,-629.614C517,-617.24 517,-600.369 517,-586.22"/>
<polygon fill="black" stroke="black" points="520.5,-586.05 517,-576.05 513.5,-586.05 520.5,-586.05"/>
<text text-anchor="middle" x="523.224" y="-597.4" font-family="Times,serif" font-size="14.00">s1</text>
</g>
<!-- DigitalWatch_sm_bothOn&#45;&gt;DigitalWatch_sm_time -->
<g id="edge9" class="edge"><title>DigitalWatch_sm_bothOn&#45;&gt;DigitalWatch_sm_time</title>
<path fill="none" stroke="black" d="M531.718,-576.007C542.449,-589.599 556.102,-609.678 562,-630 566.459,-645.366 565.526,-650.393 562,-666 548.331,-726.5 535.811,-740 502,-792 499.805,-795.376 497.314,-798.776 494.728,-802.062"/>
<polygon fill="black" stroke="black" points="491.908,-799.98 488.22,-809.912 497.297,-804.448 491.908,-799.98"/>
<text text-anchor="middle" x="574.338" y="-687.4" font-family="Times,serif" font-size="14.00">notS2</text>
</g>
<!-- DigitalWatch_sm_alarmOn -->
<g id="node11" class="node"><title>DigitalWatch_sm_alarmOn</title>
<path fill="none" stroke="black" d="M477,-486C477,-486 429,-486 429,-486 423,-486 417,-480 417,-474 417,-474 417,-462 417,-462 417,-456 423,-450 429,-450 429,-450 477,-450 477,-450 483,-450 489,-456 489,-462 489,-462 489,-474 489,-474 489,-480 483,-486 477,-486"/>
<text text-anchor="middle" x="453" y="-462.4" font-family="Times,serif" font-size="14.00">alarmOn</text>
</g>
<!-- DigitalWatch_sm_bothOn&#45;&gt;DigitalWatch_sm_alarmOn -->
<g id="edge31" class="edge"><title>DigitalWatch_sm_bothOn&#45;&gt;DigitalWatch_sm_alarmOn</title>
<path fill="none" stroke="black" d="M504.356,-539.614C494.915,-526.634 481.875,-508.704 471.298,-494.16"/>
<polygon fill="black" stroke="black" points="474.113,-492.079 465.4,-486.05 468.451,-496.196 474.113,-492.079"/>
<text text-anchor="middle" x="497.224" y="-507.4" font-family="Times,serif" font-size="14.00">s1</text>
</g>
<!-- DigitalWatch_sm_alarmOn&#45;&gt;DigitalWatch_sm_time -->
<g id="edge10" class="edge"><title>DigitalWatch_sm_alarmOn&#45;&gt;DigitalWatch_sm_time</title>
<path fill="none" stroke="black" d="M431.665,-486.144C414.075,-502.342 392,-528.372 392,-557 392,-739 392,-739 392,-739 392,-766.039 412.935,-788.443 433.386,-803.878"/>
<polygon fill="black" stroke="black" points="431.583,-806.891 441.755,-809.854 435.651,-801.195 431.583,-806.891"/>
<text text-anchor="middle" x="408.338" y="-642.4" font-family="Times,serif" font-size="14.00">notS2</text>
</g>
<!-- DigitalWatch_sm_alarmOn&#45;&gt;DigitalWatch_sm_bothOff -->
<g id="edge28" class="edge"><title>DigitalWatch_sm_alarmOn&#45;&gt;DigitalWatch_sm_bothOff</title>
<path fill="none" stroke="black" d="M453.191,-486.029C453.697,-531.246 455.078,-654.624 455.695,-709.755"/>
<polygon fill="black" stroke="black" points="452.196,-709.868 455.808,-719.828 459.196,-709.789 452.196,-709.868"/>
<text text-anchor="middle" x="461.224" y="-597.4" font-family="Times,serif" font-size="14.00">s1</text>
</g>
<!-- DigitalWatch_sm_alarmHour -->
<g id="node13" class="node"><title>DigitalWatch_sm_alarmHour</title>
<path fill="none" stroke="black" d="M834.983,-666C834.983,-666 783.017,-666 783.017,-666 777.017,-666 771.017,-660 771.017,-654 771.017,-654 771.017,-642 771.017,-642 771.017,-636 777.017,-630 783.017,-630 783.017,-630 834.983,-630 834.983,-630 840.983,-630 846.983,-636 846.983,-642 846.983,-642 846.983,-654 846.983,-654 846.983,-660 840.983,-666 834.983,-666"/>
<text text-anchor="middle" x="809" y="-642.4" font-family="Times,serif" font-size="14.00">alarmHour</text>
</g>
<!-- DigitalWatch_sm_alarmTime&#45;&gt;DigitalWatch_sm_alarmHour -->
<g id="edge33" class="edge"><title>DigitalWatch_sm_alarmTime&#45;&gt;DigitalWatch_sm_alarmHour</title>
<path fill="none" stroke="black" d="M786.532,-719.614C790.508,-707.119 795.943,-690.037 800.471,-675.804"/>
<polygon fill="black" stroke="black" points="803.878,-676.641 803.575,-666.05 797.208,-674.518 803.878,-676.641"/>
<text text-anchor="middle" x="849.83" y="-687.4" font-family="Times,serif" font-size="14.00">s2 / alarmHour++;</text>
</g>
<!-- DigitalWatch_sm_alarmMinute -->
<g id="node14" class="node"><title>DigitalWatch_sm_alarmMinute</title>
<path fill="none" stroke="black" d="M896.233,-576C896.233,-576 831.767,-576 831.767,-576 825.767,-576 819.767,-570 819.767,-564 819.767,-564 819.767,-552 819.767,-552 819.767,-546 825.767,-540 831.767,-540 831.767,-540 896.233,-540 896.233,-540 902.233,-540 908.233,-546 908.233,-552 908.233,-552 908.233,-564 908.233,-564 908.233,-570 902.233,-576 896.233,-576"/>
<text text-anchor="middle" x="864" y="-552.4" font-family="Times,serif" font-size="14.00">alarmMinute</text>
</g>
<!-- DigitalWatch_sm_alarmTime&#45;&gt;DigitalWatch_sm_alarmMinute -->
<g id="edge36" class="edge"><title>DigitalWatch_sm_alarmTime&#45;&gt;DigitalWatch_sm_alarmMinute</title>
<path fill="none" stroke="black" d="M819.478,-736.217C866.596,-732.881 944.178,-719.107 977,-666 998.5,-631.212 955.07,-600.155 915.977,-580.579"/>
<polygon fill="black" stroke="black" points="917.221,-577.293 906.694,-576.096 914.177,-583.597 917.221,-577.293"/>
<text text-anchor="middle" x="989.224" y="-642.4" font-family="Times,serif" font-size="14.00">s1</text>
</g>
<!-- DigitalWatch_sm_second -->
<g id="node15" class="node"><title>DigitalWatch_sm_second</title>
<path fill="none" stroke="black" d="M840,-486C840,-486 792,-486 792,-486 786,-486 780,-480 780,-474 780,-474 780,-462 780,-462 780,-456 786,-450 792,-450 792,-450 840,-450 840,-450 846,-450 852,-456 852,-462 852,-462 852,-474 852,-474 852,-480 846,-486 840,-486"/>
<text text-anchor="middle" x="816" y="-462.4" font-family="Times,serif" font-size="14.00">second</text>
</g>
<!-- DigitalWatch_sm_alarmTime&#45;&gt;DigitalWatch_sm_second -->
<g id="edge39" class="edge"><title>DigitalWatch_sm_alarmTime&#45;&gt;DigitalWatch_sm_second</title>
<path fill="none" stroke="black" d="M775.023,-719.75C770.428,-705.528 764.462,-684.724 762,-666 753.767,-603.384 783.12,-532.552 801.751,-495.236"/>
<polygon fill="black" stroke="black" points="805.005,-496.561 806.454,-486.065 798.776,-493.366 805.005,-496.561"/>
<text text-anchor="middle" x="773.224" y="-597.4" font-family="Times,serif" font-size="14.00">s3</text>
</g>
<!-- DigitalWatch_sm_alarmHour&#45;&gt;DigitalWatch_sm_alarmHour -->
<g id="edge34" class="edge"><title>DigitalWatch_sm_alarmHour&#45;&gt;DigitalWatch_sm_alarmHour</title>
<path fill="none" stroke="black" d="M847.214,-656.177C857.335,-655.71 865,-652.984 865,-648 865,-644.885 862.006,-642.652 857.289,-641.301"/>
<polygon fill="black" stroke="black" points="857.616,-637.812 847.214,-639.823 856.6,-644.737 857.616,-637.812"/>
<text text-anchor="middle" x="916.83" y="-642.4" font-family="Times,serif" font-size="14.00">s2 / alarmHour++;</text>
</g>
<!-- DigitalWatch_sm_alarmHour&#45;&gt;DigitalWatch_sm_alarmMinute -->
<g id="edge37" class="edge"><title>DigitalWatch_sm_alarmHour&#45;&gt;DigitalWatch_sm_alarmMinute</title>
<path fill="none" stroke="black" d="M825.234,-629.921C829.998,-624.438 834.998,-618.18 839,-612 844.304,-603.81 849.142,-594.318 853.12,-585.649"/>
<polygon fill="black" stroke="black" points="856.399,-586.887 857.224,-576.324 849.992,-584.067 856.399,-586.887"/>
<text text-anchor="middle" x="855.224" y="-597.4" font-family="Times,serif" font-size="14.00">s1</text>
</g>
<!-- DigitalWatch_sm_alarmHour&#45;&gt;DigitalWatch_sm_second -->
<g id="edge40" class="edge"><title>DigitalWatch_sm_alarmHour&#45;&gt;DigitalWatch_sm_second</title>
<path fill="none" stroke="black" d="M805.041,-629.924C800.666,-608.783 794.715,-571.685 798.552,-540 800.345,-525.185 804.172,-509.002 807.785,-495.833"/>
<polygon fill="black" stroke="black" points="811.212,-496.579 810.595,-486.002 804.482,-494.655 811.212,-496.579"/>
<text text-anchor="middle" x="805.224" y="-552.4" font-family="Times,serif" font-size="14.00">s3</text>
</g>
<!-- DigitalWatch_sm_alarmMinute&#45;&gt;DigitalWatch_sm_alarmHour -->
<g id="edge35" class="edge"><title>DigitalWatch_sm_alarmMinute&#45;&gt;DigitalWatch_sm_alarmHour</title>
<path fill="none" stroke="black" d="M841.85,-576.277C836.259,-581.49 830.678,-587.555 826.552,-594 821.518,-601.862 817.788,-611.31 815.092,-620.038"/>
<polygon fill="black" stroke="black" points="811.681,-619.243 812.388,-629.815 818.427,-621.11 811.681,-619.243"/>
<text text-anchor="middle" x="833.224" y="-597.4" font-family="Times,serif" font-size="14.00">s1</text>
</g>
<!-- DigitalWatch_sm_alarmMinute&#45;&gt;DigitalWatch_sm_alarmMinute -->
<g id="edge38" class="edge"><title>DigitalWatch_sm_alarmMinute&#45;&gt;DigitalWatch_sm_alarmMinute</title>
<path fill="none" stroke="black" d="M908.306,-566.068C918.507,-565.373 926,-562.684 926,-558 926,-555.073 923.073,-552.924 918.387,-551.555"/>
<polygon fill="black" stroke="black" points="918.735,-548.066 908.306,-549.932 917.622,-554.977 918.735,-548.066"/>
<text text-anchor="middle" x="983.665" y="-552.4" font-family="Times,serif" font-size="14.00">s2 / alarmMinute++;</text>
</g>
<!-- DigitalWatch_sm_alarmMinute&#45;&gt;DigitalWatch_sm_second -->
<g id="edge41" class="edge"><title>DigitalWatch_sm_alarmMinute&#45;&gt;DigitalWatch_sm_second</title>
<path fill="none" stroke="black" d="M854.517,-539.614C847.569,-526.876 838.021,-509.372 830.17,-494.979"/>
<polygon fill="black" stroke="black" points="833.161,-493.153 825.3,-486.05 827.016,-496.505 833.161,-493.153"/>
<text text-anchor="middle" x="851.224" y="-507.4" font-family="Times,serif" font-size="14.00">s3</text>
</g>
<!-- DigitalWatch_sm_second&#45;&gt;DigitalWatch_sm_time -->
<g id="edge11" class="edge"><title>DigitalWatch_sm_second&#45;&gt;DigitalWatch_sm_time</title>
<path fill="none" stroke="black" d="M852.203,-474.663C911.785,-484.804 1026.29,-508.031 1050,-540 1085.99,-588.526 1034.16,-616.869 999,-666 944.687,-741.903 918.963,-760.796 831,-792 774.544,-812.027 601.967,-821.668 518.362,-825.262"/>
<polygon fill="black" stroke="black" points="517.984,-821.774 508.139,-825.69 518.277,-828.768 517.984,-821.774"/>
<text text-anchor="middle" x="1034.22" y="-642.4" font-family="Times,serif" font-size="14.00">s3</text>
</g>
<!-- DigitalWatch_sm_second&#45;&gt;DigitalWatch_sm_second -->
<g id="edge42" class="edge"><title>DigitalWatch_sm_second&#45;&gt;DigitalWatch_sm_second</title>
<path fill="none" stroke="black" d="M852.087,-476.209C862.221,-475.85 870,-473.113 870,-468 870,-464.804 866.961,-462.537 862.208,-461.198"/>
<polygon fill="black" stroke="black" points="862.474,-457.701 852.087,-459.791 861.51,-464.635 862.474,-457.701"/>
<text text-anchor="middle" x="919.759" y="-462.4" font-family="Times,serif" font-size="14.00">s2 / secondzero();</text>
</g>
<!-- DigitalWatch_sm_minute -->
<g id="node16" class="node"><title>DigitalWatch_sm_minute</title>
<path fill="none" stroke="black" d="M753,-396C753,-396 705,-396 705,-396 699,-396 693,-390 693,-384 693,-384 693,-372 693,-372 693,-366 699,-360 705,-360 705,-360 753,-360 753,-360 759,-360 765,-366 765,-372 765,-372 765,-384 765,-384 765,-390 759,-396 753,-396"/>
<text text-anchor="middle" x="729" y="-372.4" font-family="Times,serif" font-size="14.00">minute</text>
</g>
<!-- DigitalWatch_sm_second&#45;&gt;DigitalWatch_sm_minute -->
<g id="edge44" class="edge"><title>DigitalWatch_sm_second&#45;&gt;DigitalWatch_sm_minute</title>
<path fill="none" stroke="black" d="M798.812,-449.614C785.739,-436.391 767.588,-418.032 753.071,-403.348"/>
<polygon fill="black" stroke="black" points="755.376,-400.701 745.857,-396.05 750.398,-405.623 755.376,-400.701"/>
<text text-anchor="middle" x="787.224" y="-417.4" font-family="Times,serif" font-size="14.00">s1</text>
</g>
<!-- DigitalWatch_sm_minute&#45;&gt;DigitalWatch_sm_time -->
<g id="edge12" class="edge"><title>DigitalWatch_sm_minute&#45;&gt;DigitalWatch_sm_time</title>
<path fill="none" stroke="black" d="M721.406,-396.155C714.375,-413.622 705,-441.663 705,-467 705,-739 705,-739 705,-739 705,-765.237 700.027,-776.308 679,-792 654.217,-810.495 571.341,-819.849 518.274,-824.054"/>
<polygon fill="black" stroke="black" points="517.79,-820.581 508.084,-824.828 518.32,-827.561 517.79,-820.581"/>
<text text-anchor="middle" x="711.224" y="-597.4" font-family="Times,serif" font-size="14.00">s3</text>
</g>
<!-- DigitalWatch_sm_minute&#45;&gt;DigitalWatch_sm_minute -->
<g id="edge45" class="edge"><title>DigitalWatch_sm_minute&#45;&gt;DigitalWatch_sm_minute</title>
<path fill="none" stroke="black" d="M765.087,-386.209C775.221,-385.85 783,-383.113 783,-378 783,-374.804 779.961,-372.537 775.208,-371.198"/>
<polygon fill="black" stroke="black" points="775.474,-367.701 765.087,-369.791 774.51,-374.635 775.474,-367.701"/>
<text text-anchor="middle" x="823.951" y="-372.4" font-family="Times,serif" font-size="14.00">s2 / minute++;</text>
</g>
<!-- DigitalWatch_sm_hour -->
<g id="node17" class="node"><title>DigitalWatch_sm_hour</title>
<path fill="none" stroke="black" d="M753,-306C753,-306 705,-306 705,-306 699,-306 693,-300 693,-294 693,-294 693,-282 693,-282 693,-276 699,-270 705,-270 705,-270 753,-270 753,-270 759,-270 765,-276 765,-282 765,-282 765,-294 765,-294 765,-300 759,-306 753,-306"/>
<text text-anchor="middle" x="729" y="-282.4" font-family="Times,serif" font-size="14.00">hour</text>
</g>
<!-- DigitalWatch_sm_minute&#45;&gt;DigitalWatch_sm_hour -->
<g id="edge46" class="edge"><title>DigitalWatch_sm_minute&#45;&gt;DigitalWatch_sm_hour</title>
<path fill="none" stroke="black" d="M729,-359.614C729,-347.24 729,-330.369 729,-316.22"/>
<polygon fill="black" stroke="black" points="732.5,-316.05 729,-306.05 725.5,-316.05 732.5,-316.05"/>
<text text-anchor="middle" x="735.224" y="-327.4" font-family="Times,serif" font-size="14.00">s1</text>
</g>
<!-- DigitalWatch_sm_hour&#45;&gt;DigitalWatch_sm_time -->
<g id="edge13" class="edge"><title>DigitalWatch_sm_hour&#45;&gt;DigitalWatch_sm_time</title>
<path fill="none" stroke="black" d="M706.256,-306.237C687.86,-322.309 665,-348.097 665,-377 665,-739 665,-739 665,-739 665,-764.858 661.189,-775.843 641,-792 622.374,-806.905 561.534,-816.81 518.201,-822.167"/>
<polygon fill="black" stroke="black" points="517.662,-818.707 508.147,-823.368 518.492,-825.657 517.662,-818.707"/>
<text text-anchor="middle" x="671.224" y="-552.4" font-family="Times,serif" font-size="14.00">s3</text>
</g>
<!-- DigitalWatch_sm_hour&#45;&gt;DigitalWatch_sm_hour -->
<g id="edge47" class="edge"><title>DigitalWatch_sm_hour&#45;&gt;DigitalWatch_sm_hour</title>
<path fill="none" stroke="black" d="M765.087,-296.209C775.221,-295.85 783,-293.113 783,-288 783,-284.804 779.961,-282.537 775.208,-281.198"/>
<polygon fill="black" stroke="black" points="775.474,-277.701 765.087,-279.791 774.51,-284.635 775.474,-277.701"/>
<text text-anchor="middle" x="817.34" y="-282.4" font-family="Times,serif" font-size="14.00">s2 / hour++;</text>
</g>
<!-- DigitalWatch_sm_month -->
<g id="node18" class="node"><title>DigitalWatch_sm_month</title>
<path fill="none" stroke="black" d="M755,-216C755,-216 707,-216 707,-216 701,-216 695,-210 695,-204 695,-204 695,-192 695,-192 695,-186 701,-180 707,-180 707,-180 755,-180 755,-180 761,-180 767,-186 767,-192 767,-192 767,-204 767,-204 767,-210 761,-216 755,-216"/>
<text text-anchor="middle" x="731" y="-192.4" font-family="Times,serif" font-size="14.00">month</text>
</g>
<!-- DigitalWatch_sm_hour&#45;&gt;DigitalWatch_sm_month -->
<g id="edge48" class="edge"><title>DigitalWatch_sm_hour&#45;&gt;DigitalWatch_sm_month</title>
<path fill="none" stroke="black" d="M729.395,-269.614C729.676,-257.24 730.06,-240.369 730.381,-226.22"/>
<polygon fill="black" stroke="black" points="733.884,-226.127 730.612,-216.05 726.886,-225.968 733.884,-226.127"/>
<text text-anchor="middle" x="737.224" y="-237.4" font-family="Times,serif" font-size="14.00">s1</text>
</g>
<!-- DigitalWatch_sm_month&#45;&gt;DigitalWatch_sm_time -->
<g id="edge14" class="edge"><title>DigitalWatch_sm_month&#45;&gt;DigitalWatch_sm_time</title>
<path fill="none" stroke="black" d="M767.052,-199.811C861.162,-202.901 1107,-217.612 1107,-287 1107,-739 1107,-739 1107,-739 1107,-798.439 664.829,-819.956 518.44,-825.45"/>
<polygon fill="black" stroke="black" points="518.286,-821.954 508.421,-825.819 518.543,-828.949 518.286,-821.954"/>
<text text-anchor="middle" x="1113.22" y="-507.4" font-family="Times,serif" font-size="14.00">s3</text>
</g>
<!-- DigitalWatch_sm_month&#45;&gt;DigitalWatch_sm_month -->
<g id="edge49" class="edge"><title>DigitalWatch_sm_month&#45;&gt;DigitalWatch_sm_month</title>
<path fill="none" stroke="black" d="M767.087,-206.209C777.221,-205.85 785,-203.113 785,-198 785,-194.804 781.961,-192.537 777.208,-191.198"/>
<polygon fill="black" stroke="black" points="777.474,-187.701 767.087,-189.791 776.51,-194.635 777.474,-187.701"/>
<text text-anchor="middle" x="824.399" y="-192.4" font-family="Times,serif" font-size="14.00">s2 / month++;</text>
</g>
<!-- DigitalWatch_sm_day -->
<g id="node19" class="node"><title>DigitalWatch_sm_day</title>
<path fill="none" stroke="black" d="M755,-126C755,-126 707,-126 707,-126 701,-126 695,-120 695,-114 695,-114 695,-102 695,-102 695,-96 701,-90 707,-90 707,-90 755,-90 755,-90 761,-90 767,-96 767,-102 767,-102 767,-114 767,-114 767,-120 761,-126 755,-126"/>
<text text-anchor="middle" x="731" y="-102.4" font-family="Times,serif" font-size="14.00">day</text>
</g>
<!-- DigitalWatch_sm_month&#45;&gt;DigitalWatch_sm_day -->
<g id="edge50" class="edge"><title>DigitalWatch_sm_month&#45;&gt;DigitalWatch_sm_day</title>
<path fill="none" stroke="black" d="M731,-179.614C731,-167.24 731,-150.369 731,-136.22"/>
<polygon fill="black" stroke="black" points="734.5,-136.05 731,-126.05 727.5,-136.05 734.5,-136.05"/>
<text text-anchor="middle" x="737.224" y="-147.4" font-family="Times,serif" font-size="14.00">s1</text>
</g>
<!-- DigitalWatch_sm_day&#45;&gt;DigitalWatch_sm_time -->
<g id="edge15" class="edge"><title>DigitalWatch_sm_day&#45;&gt;DigitalWatch_sm_time</title>
<path fill="none" stroke="black" d="M694.946,-120.393C662.205,-133.257 619,-157.682 619,-197 619,-514 619,-514 619,-514 619,-621.853 651.806,-660.863 601,-756 584.338,-787.2 548.006,-805.414 518.132,-815.566"/>
<polygon fill="black" stroke="black" points="516.749,-812.333 508.286,-818.707 518.876,-819.002 516.749,-812.333"/>
<text text-anchor="middle" x="625.224" y="-462.4" font-family="Times,serif" font-size="14.00">s3</text>
</g>
<!-- DigitalWatch_sm_day&#45;&gt;DigitalWatch_sm_day -->
<g id="edge51" class="edge"><title>DigitalWatch_sm_day&#45;&gt;DigitalWatch_sm_day</title>
<path fill="none" stroke="black" d="M767.087,-116.209C777.221,-115.85 785,-113.113 785,-108 785,-104.804 781.961,-102.537 777.208,-101.198"/>
<polygon fill="black" stroke="black" points="777.474,-97.7014 767.087,-99.7908 776.51,-104.635 777.474,-97.7014"/>
<text text-anchor="middle" x="816.616" y="-102.4" font-family="Times,serif" font-size="14.00">s2 / day++;</text>
</g>
<!-- DigitalWatch_sm_year -->
<g id="node20" class="node"><title>DigitalWatch_sm_year</title>
<path fill="none" stroke="black" d="M916,-36C916,-36 868,-36 868,-36 862,-36 856,-30 856,-24 856,-24 856,-12 856,-12 856,-6 862,-0 868,-0 868,-0 916,-0 916,-0 922,-0 928,-6 928,-12 928,-12 928,-24 928,-24 928,-30 922,-36 916,-36"/>
<text text-anchor="middle" x="892" y="-12.4" font-family="Times,serif" font-size="14.00">year</text>
</g>
<!-- DigitalWatch_sm_day&#45;&gt;DigitalWatch_sm_year -->
<g id="edge52" class="edge"><title>DigitalWatch_sm_day&#45;&gt;DigitalWatch_sm_year</title>
<path fill="none" stroke="black" d="M762.425,-89.8238C787.912,-75.8928 824.013,-56.1606 851.638,-41.061"/>
<polygon fill="black" stroke="black" points="853.559,-44.0003 860.655,-36.1329 850.201,-37.8579 853.559,-44.0003"/>
<text text-anchor="middle" x="832.224" y="-57.4" font-family="Times,serif" font-size="14.00">s1</text>
</g>
<!-- DigitalWatch_sm_year&#45;&gt;DigitalWatch_sm_time -->
<g id="edge16" class="edge"><title>DigitalWatch_sm_year&#45;&gt;DigitalWatch_sm_time</title>
<path fill="none" stroke="black" d="M928.249,-23.8849C998.205,-34.3327 1145,-61.6578 1145,-107 1145,-739 1145,-739 1145,-739 1145,-802.632 1074.36,-779.328 1012,-792 918.147,-811.072 631.269,-821.966 518.357,-825.61"/>
<polygon fill="black" stroke="black" points="518.185,-822.114 508.302,-825.93 518.408,-829.11 518.185,-822.114"/>
<text text-anchor="middle" x="1151.22" y="-417.4" font-family="Times,serif" font-size="14.00">s3</text>
</g>
<!-- DigitalWatch_sm_year&#45;&gt;DigitalWatch_sm_second -->
<g id="edge43" class="edge"><title>DigitalWatch_sm_year&#45;&gt;DigitalWatch_sm_second</title>
<path fill="none" stroke="black" d="M892,-36.1995C892,-53.9382 892,-82.4028 892,-107 892,-379 892,-379 892,-379 892,-405.613 871.844,-428.154 852.292,-443.759"/>
<polygon fill="black" stroke="black" points="850.162,-440.982 844.3,-449.806 854.386,-446.564 850.162,-440.982"/>
<text text-anchor="middle" x="898.224" y="-237.4" font-family="Times,serif" font-size="14.00">s1</text>
</g>
<!-- DigitalWatch_sm_year&#45;&gt;DigitalWatch_sm_year -->
<g id="edge53" class="edge"><title>DigitalWatch_sm_year&#45;&gt;DigitalWatch_sm_year</title>
<path fill="none" stroke="black" d="M928.087,-26.2092C938.221,-25.8497 946,-23.1133 946,-18 946,-14.8042 942.961,-12.5369 938.208,-11.198"/>
<polygon fill="black" stroke="black" points="938.474,-7.70136 928.087,-9.79079 937.51,-14.6347 938.474,-7.70136"/>
<text text-anchor="middle" x="979.554" y="-12.4" font-family="Times,serif" font-size="14.00">s2 / year++;</text>
</g>
</g>
</svg>
