<?xml version="1.0" encoding="UTF-8" standalone="no"?>
<!DOCTYPE svg PUBLIC "-//W3C//DTD SVG 1.1//EN"
 "http://www.w3.org/Graphics/SVG/1.1/DTD/svg11.dtd">
<!-- Generated by graphviz version 2.29.20121108.1600 (20121108.1600)
 -->
<!-- Title: DigitalWatchNested Pages: 1 -->
<svg width="1297pt" height="708pt"
 viewBox="0.00 0.00 1297.00 708.00" xmlns="http://www.w3.org/2000/svg" xmlns:xlink="http://www.w3.org/1999/xlink">
<g id="graph0" class="graph" transform="scale(1 1) rotate(0) translate(4 704)">
<title>DigitalWatchNested</title>
<polygon fill="white" stroke="white" points="-4,5 -4,-704 1294,-704 1294,5 -4,5"/>
<g id="clust1" class="cluster"><title>clusterDigitalWatch_sm_regular</title>
<path fill="none" stroke="black" d="M672,-8C672,-8 965,-8 965,-8 971,-8 977,-14 977,-20 977,-20 977,-680 977,-680 977,-686 971,-692 965,-692 965,-692 672,-692 672,-692 666,-692 660,-686 660,-680 660,-680 660,-20 660,-20 660,-14 666,-8 672,-8"/>
<text text-anchor="middle" x="818.5" y="-674" font-family="Times,serif" font-size="14.00">regular</text>
</g>
<g id="clust2" class="cluster"><title>clusterDigitalWatch_smRegular_update</title>
<path fill="none" stroke="black" d="M680,-16C680,-16 863,-16 863,-16 869,-16 875,-22 875,-28 875,-28 875,-648 875,-648 875,-654 869,-660 863,-660 863,-660 680,-660 680,-660 674,-660 668,-654 668,-648 668,-648 668,-28 668,-28 668,-22 674,-16 680,-16"/>
<text text-anchor="middle" x="771.5" y="-642" font-family="Times,serif" font-size="14.00">update</text>
</g>
<g id="clust3" class="cluster"><title>clusterDigitalWatch_sm_chronometer</title>
<path fill="none" stroke="black" d="M997,-200C997,-200 1269,-200 1269,-200 1275,-200 1281,-206 1281,-212 1281,-212 1281,-484 1281,-484 1281,-490 1275,-496 1269,-496 1269,-496 997,-496 997,-496 991,-496 985,-490 985,-484 985,-484 985,-212 985,-212 985,-206 991,-200 997,-200"/>
<text text-anchor="middle" x="1133" y="-478" font-family="Times,serif" font-size="14.00">chronometer</text>
</g>
<g id="clust4" class="cluster"><title>clusterDigitalWatch_smChronometer_chronoNormal</title>
<path fill="none" stroke="black" d="M1097,-208C1097,-208 1239,-208 1239,-208 1245,-208 1251,-214 1251,-220 1251,-220 1251,-452 1251,-452 1251,-458 1245,-464 1239,-464 1239,-464 1097,-464 1097,-464 1091,-464 1085,-458 1085,-452 1085,-452 1085,-220 1085,-220 1085,-214 1091,-208 1097,-208"/>
<text text-anchor="middle" x="1168" y="-446" font-family="Times,serif" font-size="14.00">chronoNormal</text>
</g>
<g id="clust5" class="cluster"><title>clusterDigitalWatch_sm_alarmStatus</title>
<path fill="none" stroke="black" d="M365,-16C365,-16 449,-16 449,-16 455,-16 461,-22 461,-28 461,-28 461,-452 461,-452 461,-458 455,-464 449,-464 449,-464 365,-464 365,-464 359,-464 353,-458 353,-452 353,-452 353,-28 353,-28 353,-22 359,-16 365,-16"/>
<text text-anchor="middle" x="407" y="-446" font-family="Times,serif" font-size="14.00">alarmStatus</text>
</g>
<g id="clust6" class="cluster"><title>clusterDigitalWatch_sm_alarmUpdate</title>
<path fill="none" stroke="black" d="M20,-104C20,-104 333,-104 333,-104 339,-104 345,-110 345,-116 345,-116 345,-452 345,-452 345,-458 339,-464 333,-464 333,-464 20,-464 20,-464 14,-464 8,-458 8,-452 8,-452 8,-116 8,-116 8,-110 14,-104 20,-104"/>
<text text-anchor="middle" x="176.5" y="-446" font-family="Times,serif" font-size="14.00">alarmUpdate</text>
</g>
<g id="clust7" class="cluster"><title>clusterDigitalWatch_smAlarmUpdate_hourMinuteUpdate</title>
<path fill="none" stroke="black" d="M112,-112C112,-112 325,-112 325,-112 331,-112 337,-118 337,-124 337,-124 337,-351 337,-351 337,-357 331,-363 325,-363 325,-363 112,-363 112,-363 106,-363 100,-357 100,-351 100,-351 100,-124 100,-124 100,-118 106,-112 112,-112"/>
<text text-anchor="middle" x="218.5" y="-345" font-family="Times,serif" font-size="14.00">hourMinuteUpdate</text>
</g>
<!-- start_DigitalWatch_sm -->
<g id="node1" class="node"><title>start_DigitalWatch_sm</title>
<ellipse fill="black" stroke="black" cx="992" cy="-558" rx="7.2" ry="7.2"/>
</g>
<!-- DigitalWatch_smRegular_time -->
<g id="node3" class="node"><title>DigitalWatch_smRegular_time</title>
<path fill="none" stroke="black" d="M945,-443C945,-443 897,-443 897,-443 891,-443 885,-437 885,-431 885,-431 885,-419 885,-419 885,-413 891,-407 897,-407 897,-407 945,-407 945,-407 951,-407 957,-413 957,-419 957,-419 957,-431 957,-431 957,-437 951,-443 945,-443"/>
<text text-anchor="middle" x="921" y="-419.4" font-family="Times,serif" font-size="14.00">time</text>
</g>
<!-- start_DigitalWatch_sm&#45;&gt;DigitalWatch_smRegular_time -->
<g id="edge1" class="edge"><title>start_DigitalWatch_sm&#45;&gt;DigitalWatch_smRegular_time</title>
<path fill="none" stroke="black" d="M988.949,-551.371C987.136,-548.025 984.596,-543.339 981.556,-537.73"/>
<polygon fill="black" stroke="black" points="984.613,-536.026 976.771,-528.902 978.459,-539.361 984.613,-536.026"/>
</g>
<!-- start_DigitalWatch_regular -->
<g id="node2" class="node"><title>start_DigitalWatch_regular</title>
<ellipse fill="black" stroke="black" cx="921" cy="-558" rx="7.2" ry="7.2"/>
</g>
<!-- start_DigitalWatch_regular&#45;&gt;DigitalWatch_smRegular_time -->
<g id="edge2" class="edge"><title>start_DigitalWatch_regular&#45;&gt;DigitalWatch_smRegular_time</title>
<path fill="none" stroke="black" d="M921,-550.682C921,-533.4 921,-484.565 921,-453.39"/>
<polygon fill="black" stroke="black" points="924.5,-453.181 921,-443.181 917.5,-453.181 924.5,-453.181"/>
</g>
<!-- DigitalWatch_smRegular_date -->
<g id="node4" class="node"><title>DigitalWatch_smRegular_date</title>
<path fill="none" stroke="black" d="M950,-342C950,-342 902,-342 902,-342 896,-342 890,-336 890,-330 890,-330 890,-318 890,-318 890,-312 896,-306 902,-306 902,-306 950,-306 950,-306 956,-306 962,-312 962,-318 962,-318 962,-330 962,-330 962,-336 956,-342 950,-342"/>
<text text-anchor="middle" x="926" y="-318.4" font-family="Times,serif" font-size="14.00">date</text>
</g>
<!-- DigitalWatch_smRegular_time&#45;&gt;DigitalWatch_smRegular_date -->
<g id="edge7" class="edge"><title>DigitalWatch_smRegular_time&#45;&gt;DigitalWatch_smRegular_date</title>
<path fill="none" stroke="black" d="M929.326,-406.948C931.64,-401.364 933.837,-395.041 935,-389 937.323,-376.937 936.013,-363.486 933.752,-352.041"/>
<polygon fill="black" stroke="black" points="937.139,-351.152 931.486,-342.191 930.318,-352.721 937.139,-351.152"/>
<text text-anchor="middle" x="943.224" y="-374.4" font-family="Times,serif" font-size="14.00">s1</text>
</g>
<!-- DigitalWatch_smChronometerChronoNormal_paused -->
<g id="node14" class="node"><title>DigitalWatch_smChronometerChronoNormal_paused</title>
<path fill="none" stroke="black" d="M1153,-342C1153,-342 1105,-342 1105,-342 1099,-342 1093,-336 1093,-330 1093,-330 1093,-318 1093,-318 1093,-312 1099,-306 1105,-306 1105,-306 1153,-306 1153,-306 1159,-306 1165,-312 1165,-318 1165,-318 1165,-330 1165,-330 1165,-336 1159,-342 1153,-342"/>
<text text-anchor="middle" x="1129" y="-318.4" font-family="Times,serif" font-size="14.00">paused</text>
</g>
<!-- DigitalWatch_smRegular_time&#45;&gt;DigitalWatch_smChronometerChronoNormal_paused -->
<g id="edge22" class="edge"><title>DigitalWatch_smRegular_time&#45;&gt;DigitalWatch_smChronometerChronoNormal_paused</title>
<path fill="none" stroke="black" d="M957.26,-421.164C962.845,-420.493 968.882,-419.665 975.227,-418.643"/>
<polygon fill="black" stroke="black" points="976.178,-422.03 985.433,-416.873 974.982,-415.133 976.178,-422.03"/>
<text text-anchor="middle" x="1098.22" y="-374.4" font-family="Times,serif" font-size="14.00">s3</text>
</g>
<!-- DigitalWatch_smAlarmStatus_bothOff -->
<g id="node19" class="node"><title>DigitalWatch_smAlarmStatus_bothOff</title>
<path fill="none" stroke="black" d="M441,-342C441,-342 393,-342 393,-342 387,-342 381,-336 381,-330 381,-330 381,-318 381,-318 381,-312 387,-306 393,-306 393,-306 441,-306 441,-306 447,-306 453,-312 453,-318 453,-318 453,-330 453,-330 453,-336 447,-342 441,-342"/>
<text text-anchor="middle" x="417" y="-318.4" font-family="Times,serif" font-size="14.00">bothOff</text>
</g>
<!-- DigitalWatch_smRegular_time&#45;&gt;DigitalWatch_smAlarmStatus_bothOff -->
<g id="edge33" class="edge"><title>DigitalWatch_smRegular_time&#45;&gt;DigitalWatch_smAlarmStatus_bothOff</title>
<path fill="none" stroke="black" d="M884.574,-408.451C882.706,-407.907 880.841,-407.418 879,-407 816.155,-392.725 648.832,-414.281 589.552,-389 578.687,-384.367 580.261,-376.849 570,-371 536.623,-351.975 494.574,-340.071 463.009,-333.152"/>
<polygon fill="black" stroke="black" points="471.469,-333.707 461,-332.078 468.168,-339.88 471.469,-333.707"/>
<text text-anchor="middle" x="596.224" y="-374.4" font-family="Times,serif" font-size="14.00">s2</text>
</g>
<!-- DigitalWatch_smAlarmUpdate_alarmTime -->
<g id="node24" class="node"><title>DigitalWatch_smAlarmUpdate_alarmTime</title>
<path fill="none" stroke="black" d="M80.1968,-342C80.1968,-342 27.8032,-342 27.8032,-342 21.8032,-342 15.8032,-336 15.8032,-330 15.8032,-330 15.8032,-318 15.8032,-318 15.8032,-312 21.8032,-306 27.8032,-306 27.8032,-306 80.1968,-306 80.1968,-306 86.1968,-306 92.1968,-312 92.1968,-318 92.1968,-318 92.1968,-330 92.1968,-330 92.1968,-336 86.1968,-342 80.1968,-342"/>
<text text-anchor="middle" x="54" y="-318.4" font-family="Times,serif" font-size="14.00">alarmTime</text>
</g>
<!-- DigitalWatch_smRegular_time&#45;&gt;DigitalWatch_smAlarmUpdate_alarmTime -->
<g id="edge40" class="edge"><title>DigitalWatch_smRegular_time&#45;&gt;DigitalWatch_smAlarmUpdate_alarmTime</title>
<path fill="none" stroke="black" d="M884.583,-408.413C882.712,-407.88 880.844,-407.403 879,-407 793.229,-388.262 571.984,-394.087 484.338,-389 370.764,-382.408 342.523,-378.415 229,-371 199.454,-369.07 123.297,-374.469 96,-363 88.4784,-359.84 81.4207,-354.737 75.3161,-349.282"/>
<polygon fill="black" stroke="black" points="77.7428,-346.759 68.1304,-342.304 72.8663,-351.781 77.7428,-346.759"/>
<text text-anchor="middle" x="525.831" y="-374.4" font-family="Times,serif" font-size="14.00">s3during2Secs</text>
</g>
<!-- DigitalWatch_smRegular_date&#45;&gt;DigitalWatch_smRegular_time -->
<g id="edge3" class="edge"><title>DigitalWatch_smRegular_date&#45;&gt;DigitalWatch_smRegular_time</title>
<path fill="none" stroke="black" d="M914.703,-342.14C909.868,-350.48 904.777,-360.874 902.324,-371 900.441,-378.775 900.383,-381.239 902.324,-389 903.045,-391.881 904.053,-394.785 905.231,-397.622"/>
<polygon fill="black" stroke="black" points="902.207,-399.409 909.719,-406.88 908.506,-396.355 902.207,-399.409"/>
<text text-anchor="middle" x="919.338" y="-374.4" font-family="Times,serif" font-size="14.00">notS1</text>
</g>
<!-- start_DigitalWatch_update -->
<g id="node5" class="node"><title>start_DigitalWatch_update</title>
<ellipse fill="black" stroke="black" cx="713" cy="-621" rx="7.2" ry="7.2"/>
</g>
<!-- DigitalWatch_smRegularUpdate_second -->
<g id="node6" class="node"><title>DigitalWatch_smRegularUpdate_second</title>
<path fill="none" stroke="black" d="M737,-576C737,-576 689,-576 689,-576 683,-576 677,-570 677,-564 677,-564 677,-552 677,-552 677,-546 683,-540 689,-540 689,-540 737,-540 737,-540 743,-540 749,-546 749,-552 749,-552 749,-564 749,-564 749,-570 743,-576 737,-576"/>
<text text-anchor="middle" x="713" y="-552.4" font-family="Times,serif" font-size="14.00">second</text>
</g>
<!-- start_DigitalWatch_update&#45;&gt;DigitalWatch_smRegularUpdate_second -->
<g id="edge8" class="edge"><title>start_DigitalWatch_update&#45;&gt;DigitalWatch_smRegularUpdate_second</title>
<path fill="none" stroke="black" d="M713,-613.472C713,-606.902 713,-596.324 713,-586.229"/>
<polygon fill="black" stroke="black" points="716.5,-586.073 713,-576.073 709.5,-586.073 716.5,-586.073"/>
</g>
<!-- DigitalWatch_smRegularUpdate_second&#45;&gt;DigitalWatch_smRegular_time -->
<g id="edge4" class="edge"><title>DigitalWatch_smRegularUpdate_second&#45;&gt;DigitalWatch_smRegular_time</title>
<path fill="none" stroke="black" d="M874.7,-519.169C895.52,-502.175 907.722,-473.813 914.323,-452.837"/>
<polygon fill="black" stroke="black" points="917.751,-453.584 917.183,-443.004 911.029,-451.628 917.751,-453.584"/>
<text text-anchor="middle" x="894.224" y="-507.4" font-family="Times,serif" font-size="14.00">s3</text>
</g>
<!-- DigitalWatch_smRegularUpdate_second&#45;&gt;DigitalWatch_smRegularUpdate_second -->
<g id="edge9" class="edge"><title>DigitalWatch_smRegularUpdate_second&#45;&gt;DigitalWatch_smRegularUpdate_second</title>
<path fill="none" stroke="black" d="M749.087,-564.717C759.221,-564.422 767,-562.184 767,-558 767,-555.385 763.961,-553.53 759.208,-552.435"/>
<polygon fill="black" stroke="black" points="759.419,-548.936 749.087,-551.283 758.628,-555.891 759.419,-548.936"/>
<text text-anchor="middle" x="816.759" y="-552.4" font-family="Times,serif" font-size="14.00">s2 / secondzero();</text>
</g>
<!-- DigitalWatch_smRegularUpdate_minute -->
<g id="node7" class="node"><title>DigitalWatch_smRegularUpdate_minute</title>
<path fill="none" stroke="black" d="M736,-443C736,-443 688,-443 688,-443 682,-443 676,-437 676,-431 676,-431 676,-419 676,-419 676,-413 682,-407 688,-407 688,-407 736,-407 736,-407 742,-407 748,-413 748,-419 748,-419 748,-431 748,-431 748,-437 742,-443 736,-443"/>
<text text-anchor="middle" x="712" y="-419.4" font-family="Times,serif" font-size="14.00">minute</text>
</g>
<!-- DigitalWatch_smRegularUpdate_second&#45;&gt;DigitalWatch_smRegularUpdate_minute -->
<g id="edge12" class="edge"><title>DigitalWatch_smRegularUpdate_second&#45;&gt;DigitalWatch_smRegularUpdate_minute</title>
<path fill="none" stroke="black" d="M712.869,-539.874C712.702,-517.906 712.409,-479.536 712.21,-453.466"/>
<polygon fill="black" stroke="black" points="715.707,-453.103 712.131,-443.13 708.707,-453.157 715.707,-453.103"/>
<text text-anchor="middle" x="719.224" y="-507.4" font-family="Times,serif" font-size="14.00">s1</text>
</g>
<!-- DigitalWatch_smRegularUpdate_minute&#45;&gt;DigitalWatch_smRegularUpdate_minute -->
<g id="edge13" class="edge"><title>DigitalWatch_smRegularUpdate_minute&#45;&gt;DigitalWatch_smRegularUpdate_minute</title>
<path fill="none" stroke="black" d="M748.087,-433.209C758.221,-432.85 766,-430.113 766,-425 766,-421.804 762.961,-419.537 758.208,-418.198"/>
<polygon fill="black" stroke="black" points="758.474,-414.701 748.087,-416.791 757.51,-421.635 758.474,-414.701"/>
<text text-anchor="middle" x="806.951" y="-419.4" font-family="Times,serif" font-size="14.00">s2 / minute++;</text>
</g>
<!-- DigitalWatch_smRegularUpdate_hour -->
<g id="node8" class="node"><title>DigitalWatch_smRegularUpdate_hour</title>
<path fill="none" stroke="black" d="M736,-342C736,-342 688,-342 688,-342 682,-342 676,-336 676,-330 676,-330 676,-318 676,-318 676,-312 682,-306 688,-306 688,-306 736,-306 736,-306 742,-306 748,-312 748,-318 748,-318 748,-330 748,-330 748,-336 742,-342 736,-342"/>
<text text-anchor="middle" x="712" y="-318.4" font-family="Times,serif" font-size="14.00">hour</text>
</g>
<!-- DigitalWatch_smRegularUpdate_minute&#45;&gt;DigitalWatch_smRegularUpdate_hour -->
<g id="edge14" class="edge"><title>DigitalWatch_smRegularUpdate_minute&#45;&gt;DigitalWatch_smRegularUpdate_hour</title>
<path fill="none" stroke="black" d="M712,-406.756C712,-391.708 712,-369.616 712,-352.19"/>
<polygon fill="black" stroke="black" points="715.5,-352.047 712,-342.047 708.5,-352.047 715.5,-352.047"/>
<text text-anchor="middle" x="718.224" y="-374.4" font-family="Times,serif" font-size="14.00">s1</text>
</g>
<!-- DigitalWatch_smRegularUpdate_hour&#45;&gt;DigitalWatch_smRegularUpdate_hour -->
<g id="edge15" class="edge"><title>DigitalWatch_smRegularUpdate_hour&#45;&gt;DigitalWatch_smRegularUpdate_hour</title>
<path fill="none" stroke="black" d="M748.087,-332.209C758.221,-331.85 766,-329.113 766,-324 766,-320.804 762.961,-318.537 758.208,-317.198"/>
<polygon fill="black" stroke="black" points="758.474,-313.701 748.087,-315.791 757.51,-320.635 758.474,-313.701"/>
<text text-anchor="middle" x="800.34" y="-318.4" font-family="Times,serif" font-size="14.00">s2 / hour++;</text>
</g>
<!-- DigitalWatch_smRegularUpdate_month -->
<g id="node9" class="node"><title>DigitalWatch_smRegularUpdate_month</title>
<path fill="none" stroke="black" d="M736,-252C736,-252 688,-252 688,-252 682,-252 676,-246 676,-240 676,-240 676,-228 676,-228 676,-222 682,-216 688,-216 688,-216 736,-216 736,-216 742,-216 748,-222 748,-228 748,-228 748,-240 748,-240 748,-246 742,-252 736,-252"/>
<text text-anchor="middle" x="712" y="-228.4" font-family="Times,serif" font-size="14.00">month</text>
</g>
<!-- DigitalWatch_smRegularUpdate_hour&#45;&gt;DigitalWatch_smRegularUpdate_month -->
<g id="edge16" class="edge"><title>DigitalWatch_smRegularUpdate_hour&#45;&gt;DigitalWatch_smRegularUpdate_month</title>
<path fill="none" stroke="black" d="M712,-305.614C712,-293.24 712,-276.369 712,-262.22"/>
<polygon fill="black" stroke="black" points="715.5,-262.05 712,-252.05 708.5,-262.05 715.5,-262.05"/>
<text text-anchor="middle" x="718.224" y="-273.4" font-family="Times,serif" font-size="14.00">s1</text>
</g>
<!-- DigitalWatch_smRegularUpdate_month&#45;&gt;DigitalWatch_smRegularUpdate_month -->
<g id="edge17" class="edge"><title>DigitalWatch_smRegularUpdate_month&#45;&gt;DigitalWatch_smRegularUpdate_month</title>
<path fill="none" stroke="black" d="M748.087,-242.209C758.221,-241.85 766,-239.113 766,-234 766,-230.804 762.961,-228.537 758.208,-227.198"/>
<polygon fill="black" stroke="black" points="758.474,-223.701 748.087,-225.791 757.51,-230.635 758.474,-223.701"/>
<text text-anchor="middle" x="805.399" y="-228.4" font-family="Times,serif" font-size="14.00">s2 / month++;</text>
</g>
<!-- DigitalWatch_smRegularUpdate_day -->
<g id="node10" class="node"><title>DigitalWatch_smRegularUpdate_day</title>
<path fill="none" stroke="black" d="M747,-156C747,-156 699,-156 699,-156 693,-156 687,-150 687,-144 687,-144 687,-132 687,-132 687,-126 693,-120 699,-120 699,-120 747,-120 747,-120 753,-120 759,-126 759,-132 759,-132 759,-144 759,-144 759,-150 753,-156 747,-156"/>
<text text-anchor="middle" x="723" y="-132.4" font-family="Times,serif" font-size="14.00">day</text>
</g>
<!-- DigitalWatch_smRegularUpdate_month&#45;&gt;DigitalWatch_smRegularUpdate_day -->
<g id="edge18" class="edge"><title>DigitalWatch_smRegularUpdate_month&#45;&gt;DigitalWatch_smRegularUpdate_day</title>
<path fill="none" stroke="black" d="M714.018,-215.759C715.63,-201.978 717.921,-182.4 719.786,-166.465"/>
<polygon fill="black" stroke="black" points="723.309,-166.471 720.995,-156.132 716.357,-165.657 723.309,-166.471"/>
<text text-anchor="middle" x="725.224" y="-177.4" font-family="Times,serif" font-size="14.00">s1</text>
</g>
<!-- DigitalWatch_smRegularUpdate_day&#45;&gt;DigitalWatch_smRegularUpdate_day -->
<g id="edge19" class="edge"><title>DigitalWatch_smRegularUpdate_day&#45;&gt;DigitalWatch_smRegularUpdate_day</title>
<path fill="none" stroke="black" d="M759.087,-146.209C769.221,-145.85 777,-143.113 777,-138 777,-134.804 773.961,-132.537 769.208,-131.198"/>
<polygon fill="black" stroke="black" points="769.474,-127.701 759.087,-129.791 768.51,-134.635 769.474,-127.701"/>
<text text-anchor="middle" x="808.616" y="-132.4" font-family="Times,serif" font-size="14.00">s2 / day++;</text>
</g>
<!-- DigitalWatch_smRegularUpdate_year -->
<g id="node11" class="node"><title>DigitalWatch_smRegularUpdate_year</title>
<path fill="none" stroke="black" d="M759,-60C759,-60 711,-60 711,-60 705,-60 699,-54 699,-48 699,-48 699,-36 699,-36 699,-30 705,-24 711,-24 711,-24 759,-24 759,-24 765,-24 771,-30 771,-36 771,-36 771,-48 771,-48 771,-54 765,-60 759,-60"/>
<text text-anchor="middle" x="735" y="-36.4" font-family="Times,serif" font-size="14.00">year</text>
</g>
<!-- DigitalWatch_smRegularUpdate_day&#45;&gt;DigitalWatch_smRegularUpdate_year -->
<g id="edge20" class="edge"><title>DigitalWatch_smRegularUpdate_day&#45;&gt;DigitalWatch_smRegularUpdate_year</title>
<path fill="none" stroke="black" d="M725.201,-119.759C726.96,-105.978 729.46,-86.3997 731.494,-70.4651"/>
<polygon fill="black" stroke="black" points="735.018,-70.4945 732.813,-60.1317 728.075,-69.608 735.018,-70.4945"/>
<text text-anchor="middle" x="737.224" y="-81.4" font-family="Times,serif" font-size="14.00">s1</text>
</g>
<!-- DigitalWatch_smRegularUpdate_year&#45;&gt;DigitalWatch_smRegularUpdate_second -->
<g id="edge10" class="edge"><title>DigitalWatch_smRegularUpdate_year&#45;&gt;DigitalWatch_smRegularUpdate_second</title>
<path fill="none" stroke="black" d="M771.225,-52.0009C797.657,-60.6345 831.755,-76.5282 849,-104 860.58,-122.448 868.006,-477.826 856,-496 855.907,-496.141 800.136,-519.906 758.28,-537.727"/>
<polygon fill="black" stroke="black" points="756.882,-534.518 749.053,-541.656 759.625,-540.959 756.882,-534.518"/>
<text text-anchor="middle" x="868.224" y="-273.4" font-family="Times,serif" font-size="14.00">s1</text>
</g>
<!-- DigitalWatch_smRegularUpdate_year&#45;&gt;DigitalWatch_smRegularUpdate_year -->
<g id="edge21" class="edge"><title>DigitalWatch_smRegularUpdate_year&#45;&gt;DigitalWatch_smRegularUpdate_year</title>
<path fill="none" stroke="black" d="M771.087,-50.2092C781.221,-49.8497 789,-47.1133 789,-42 789,-38.8042 785.961,-36.5369 781.208,-35.198"/>
<polygon fill="black" stroke="black" points="781.474,-31.7014 771.087,-33.7908 780.51,-38.6347 781.474,-31.7014"/>
<text text-anchor="middle" x="822.554" y="-36.4" font-family="Times,serif" font-size="14.00">s2 / year++;</text>
</g>
<!-- start_DigitalWatch_chronometer -->
<g id="node12" class="node"><title>start_DigitalWatch_chronometer</title>
<ellipse fill="black" stroke="black" cx="1266" cy="-425" rx="7.2" ry="7.2"/>
</g>
<!-- start_DigitalWatch_chronometer&#45;&gt;DigitalWatch_smChronometerChronoNormal_paused -->
<g id="edge23" class="edge"><title>start_DigitalWatch_chronometer&#45;&gt;DigitalWatch_smChronometerChronoNormal_paused</title>
<path fill="none" stroke="black" d="M1263.06,-418.211C1261.9,-416.128 1260.43,-413.724 1257.89,-410.597"/>
<polygon fill="black" stroke="black" points="1260.28,-408.025 1250.94,-403.03 1255.13,-412.762 1260.28,-408.025"/>
</g>
<!-- start_DigitalWatch_chronoNormal -->
<g id="node13" class="node"><title>start_DigitalWatch_chronoNormal</title>
<ellipse fill="black" stroke="black" cx="1129" cy="-425" rx="7.2" ry="7.2"/>
</g>
<!-- start_DigitalWatch_chronoNormal&#45;&gt;DigitalWatch_smChronometerChronoNormal_paused -->
<g id="edge24" class="edge"><title>start_DigitalWatch_chronoNormal&#45;&gt;DigitalWatch_smChronometerChronoNormal_paused</title>
<path fill="none" stroke="black" d="M1129,-417.504C1129,-404.492 1129,-374.565 1129,-352.253"/>
<polygon fill="black" stroke="black" points="1132.5,-352.019 1129,-342.019 1125.5,-352.019 1132.5,-352.019"/>
</g>
<!-- DigitalWatch_smChronometerChronoNormal_paused&#45;&gt;DigitalWatch_smRegular_time -->
<g id="edge5" class="edge"><title>DigitalWatch_smChronometerChronoNormal_paused&#45;&gt;DigitalWatch_smRegular_time</title>
<path fill="none" stroke="black" d="M985.092,-396.63C978.622,-399.226 972.406,-401.774 966.562,-404.206"/>
<polygon fill="black" stroke="black" points="964.917,-401.101 957.052,-408.199 967.627,-407.555 964.917,-401.101"/>
<text text-anchor="middle" x="1062.22" y="-374.4" font-family="Times,serif" font-size="14.00">s3</text>
</g>
<!-- DigitalWatch_smChronometerChronoNormal_paused&#45;&gt;DigitalWatch_smChronometerChronoNormal_paused -->
<g id="edge25" class="edge"><title>DigitalWatch_smChronometerChronoNormal_paused&#45;&gt;DigitalWatch_smChronometerChronoNormal_paused</title>
<path fill="none" stroke="black" d="M1165.09,-332.209C1175.22,-331.85 1183,-329.113 1183,-324 1183,-320.804 1179.96,-318.537 1175.21,-317.198"/>
<polygon fill="black" stroke="black" points="1175.47,-313.701 1165.09,-315.791 1174.51,-320.635 1175.47,-313.701"/>
<text text-anchor="middle" x="1213.32" y="-318.4" font-family="Times,serif" font-size="14.00">s2 / zero();</text>
</g>
<!-- DigitalWatch_smChronometerChronoNormal_running -->
<g id="node15" class="node"><title>DigitalWatch_smChronometerChronoNormal_running</title>
<path fill="none" stroke="black" d="M1182,-252C1182,-252 1134,-252 1134,-252 1128,-252 1122,-246 1122,-240 1122,-240 1122,-228 1122,-228 1122,-222 1128,-216 1134,-216 1134,-216 1182,-216 1182,-216 1188,-216 1194,-222 1194,-228 1194,-228 1194,-240 1194,-240 1194,-246 1188,-252 1182,-252"/>
<text text-anchor="middle" x="1158" y="-228.4" font-family="Times,serif" font-size="14.00">running</text>
</g>
<!-- DigitalWatch_smChronometerChronoNormal_paused&#45;&gt;DigitalWatch_smChronometerChronoNormal_running -->
<g id="edge28" class="edge"><title>DigitalWatch_smChronometerChronoNormal_paused&#45;&gt;DigitalWatch_smChronometerChronoNormal_running</title>
<path fill="none" stroke="black" d="M1151.43,-305.863C1156.52,-300.73 1161.24,-294.669 1164,-288 1167.33,-279.971 1167.41,-270.707 1166.18,-262.192"/>
<polygon fill="black" stroke="black" points="1169.59,-261.404 1164.15,-252.31 1162.73,-262.808 1169.59,-261.404"/>
<text text-anchor="middle" x="1172.22" y="-273.4" font-family="Times,serif" font-size="14.00">s1</text>
</g>
<!-- DigitalWatch_smChronometerChronoNormal_running&#45;&gt;DigitalWatch_smChronometerChronoNormal_paused -->
<g id="edge26" class="edge"><title>DigitalWatch_smChronometerChronoNormal_running&#45;&gt;DigitalWatch_smChronometerChronoNormal_paused</title>
<path fill="none" stroke="black" d="M1184.37,-252C1196.58,-262.083 1206.83,-275.333 1199,-288 1193.2,-297.38 1184.05,-304.33 1174.24,-309.449"/>
<polygon fill="black" stroke="black" points="1172.75,-306.283 1165.14,-313.651 1175.68,-312.639 1172.75,-306.283"/>
<text text-anchor="middle" x="1207.22" y="-273.4" font-family="Times,serif" font-size="14.00">s1</text>
</g>
<!-- DigitalWatch_smChronometer_lapRunning -->
<g id="node16" class="node"><title>DigitalWatch_smChronometer_lapRunning</title>
<path fill="none" stroke="black" d="M1062.5,-342C1062.5,-342 1005.5,-342 1005.5,-342 999.502,-342 993.502,-336 993.502,-330 993.502,-330 993.502,-318 993.502,-318 993.502,-312 999.502,-306 1005.5,-306 1005.5,-306 1062.5,-306 1062.5,-306 1068.5,-306 1074.5,-312 1074.5,-318 1074.5,-318 1074.5,-330 1074.5,-330 1074.5,-336 1068.5,-342 1062.5,-342"/>
<text text-anchor="middle" x="1034" y="-318.4" font-family="Times,serif" font-size="14.00">lapRunning</text>
</g>
<!-- DigitalWatch_smChronometerChronoNormal_running&#45;&gt;DigitalWatch_smChronometer_lapRunning -->
<g id="edge30" class="edge"><title>DigitalWatch_smChronometerChronoNormal_running&#45;&gt;DigitalWatch_smChronometer_lapRunning</title>
<path fill="none" stroke="black" d="M1121.99,-250.434C1101.92,-259.109 1080.56,-268.497 1078.55,-270 1068.29,-277.697 1058.84,-288.188 1051.31,-297.807"/>
<polygon fill="black" stroke="black" points="1048.41,-295.84 1045.21,-305.942 1054.01,-300.038 1048.41,-295.84"/>
<text text-anchor="middle" x="1085.22" y="-273.4" font-family="Times,serif" font-size="14.00">s2</text>
</g>
<!-- DigitalWatch_smChronometer_lapRunning&#45;&gt;DigitalWatch_smChronometerChronoNormal_running -->
<g id="edge29" class="edge"><title>DigitalWatch_smChronometer_lapRunning&#45;&gt;DigitalWatch_smChronometerChronoNormal_running</title>
<path fill="none" stroke="black" d="M1066.26,-305.889C1075.48,-300.549 1085.37,-294.376 1094,-288 1103.5,-280.983 1104.56,-277.659 1113.55,-270 1118.05,-266.165 1122.9,-262.197 1127.67,-258.371"/>
<polygon fill="black" stroke="black" points="1129.91,-261.068 1135.57,-252.116 1125.56,-255.58 1129.91,-261.068"/>
<text text-anchor="middle" x="1120.22" y="-273.4" font-family="Times,serif" font-size="14.00">s2</text>
</g>
<!-- DigitalWatch_smChronometer_lapPaused -->
<g id="node17" class="node"><title>DigitalWatch_smChronometer_lapPaused</title>
<path fill="none" stroke="black" d="M1065.08,-252C1065.08,-252 1016.92,-252 1016.92,-252 1010.92,-252 1004.92,-246 1004.92,-240 1004.92,-240 1004.92,-228 1004.92,-228 1004.92,-222 1010.92,-216 1016.92,-216 1016.92,-216 1065.08,-216 1065.08,-216 1071.08,-216 1077.08,-222 1077.08,-228 1077.08,-228 1077.08,-240 1077.08,-240 1077.08,-246 1071.08,-252 1065.08,-252"/>
<text text-anchor="middle" x="1041" y="-228.4" font-family="Times,serif" font-size="14.00">lapPaused</text>
</g>
<!-- DigitalWatch_smChronometer_lapRunning&#45;&gt;DigitalWatch_smChronometer_lapPaused -->
<g id="edge32" class="edge"><title>DigitalWatch_smChronometer_lapRunning&#45;&gt;DigitalWatch_smChronometer_lapPaused</title>
<path fill="none" stroke="black" d="M1025.09,-305.778C1020.85,-295.393 1017.33,-281.912 1020.55,-270 1021.33,-267.134 1022.4,-264.262 1023.66,-261.465"/>
<polygon fill="black" stroke="black" points="1026.89,-262.833 1028.44,-252.352 1020.7,-259.578 1026.89,-262.833"/>
<text text-anchor="middle" x="1027.22" y="-273.4" font-family="Times,serif" font-size="14.00">s1</text>
</g>
<!-- DigitalWatch_smChronometer_lapPaused&#45;&gt;DigitalWatch_smChronometerChronoNormal_paused -->
<g id="edge27" class="edge"><title>DigitalWatch_smChronometer_lapPaused&#45;&gt;DigitalWatch_smChronometerChronoNormal_paused</title>
<path fill="none" stroke="black" d="M1077.16,-250.452C1078.46,-250.978 1079.74,-251.496 1081,-252 1102.16,-260.458 1116.02,-251.273 1129,-270 1134.12,-277.393 1135.33,-286.867 1134.87,-295.756"/>
<polygon fill="black" stroke="black" points="1131.39,-295.421 1133.7,-305.761 1138.34,-296.237 1131.39,-295.421"/>
<text text-anchor="middle" x="1140.22" y="-273.4" font-family="Times,serif" font-size="14.00">s2</text>
</g>
<!-- DigitalWatch_smChronometer_lapPaused&#45;&gt;DigitalWatch_smChronometer_lapRunning -->
<g id="edge31" class="edge"><title>DigitalWatch_smChronometer_lapPaused&#45;&gt;DigitalWatch_smChronometer_lapRunning</title>
<path fill="none" stroke="black" d="M1039.64,-252.05C1038.67,-264.342 1037.33,-281.197 1036.2,-295.395"/>
<polygon fill="black" stroke="black" points="1032.69,-295.368 1035.38,-305.614 1039.66,-295.923 1032.69,-295.368"/>
<text text-anchor="middle" x="1045.22" y="-273.4" font-family="Times,serif" font-size="14.00">s1</text>
</g>
<!-- start_DigitalWatch_alarmStatus -->
<g id="node18" class="node"><title>start_DigitalWatch_alarmStatus</title>
<ellipse fill="black" stroke="black" cx="417" cy="-425" rx="7.2" ry="7.2"/>
</g>
<!-- start_DigitalWatch_alarmStatus&#45;&gt;DigitalWatch_smAlarmStatus_bothOff -->
<g id="edge34" class="edge"><title>start_DigitalWatch_alarmStatus&#45;&gt;DigitalWatch_smAlarmStatus_bothOff</title>
<path fill="none" stroke="black" d="M417,-417.504C417,-404.492 417,-374.565 417,-352.253"/>
<polygon fill="black" stroke="black" points="420.5,-352.019 417,-342.019 413.5,-352.019 420.5,-352.019"/>
</g>
<!-- DigitalWatch_smAlarmStatus_bothOff&#45;&gt;DigitalWatch_smRegular_time -->
<g id="edge6" class="edge"><title>DigitalWatch_smAlarmStatus_bothOff&#45;&gt;DigitalWatch_smRegular_time</title>
<path fill="none" stroke="black" d="M460.797,-331.134C499.858,-337.66 557.968,-350.005 605,-371 617.942,-376.778 617.944,-384.325 631.324,-389 732.361,-424.304 769.261,-384.547 874.508,-406.257"/>
<polygon fill="black" stroke="black" points="874.05,-409.74 884.569,-408.474 875.556,-402.904 874.05,-409.74"/>
<text text-anchor="middle" x="648.338" y="-374.4" font-family="Times,serif" font-size="14.00">notS2</text>
</g>
<!-- DigitalWatch_smAlarmStatus_chimeOn -->
<g id="node20" class="node"><title>DigitalWatch_smAlarmStatus_chimeOn</title>
<path fill="none" stroke="black" d="M421,-252C421,-252 373,-252 373,-252 367,-252 361,-246 361,-240 361,-240 361,-228 361,-228 361,-222 367,-216 373,-216 373,-216 421,-216 421,-216 427,-216 433,-222 433,-228 433,-228 433,-240 433,-240 433,-246 427,-252 421,-252"/>
<text text-anchor="middle" x="397" y="-228.4" font-family="Times,serif" font-size="14.00">chimeOn</text>
</g>
<!-- DigitalWatch_smAlarmStatus_bothOff&#45;&gt;DigitalWatch_smAlarmStatus_chimeOn -->
<g id="edge36" class="edge"><title>DigitalWatch_smAlarmStatus_bothOff&#45;&gt;DigitalWatch_smAlarmStatus_chimeOn</title>
<path fill="none" stroke="black" d="M413.049,-305.614C410.209,-293.119 406.327,-276.037 403.092,-261.804"/>
<polygon fill="black" stroke="black" points="406.504,-261.026 400.875,-252.05 399.678,-262.577 406.504,-261.026"/>
<text text-anchor="middle" x="415.224" y="-273.4" font-family="Times,serif" font-size="14.00">s1</text>
</g>
<!-- DigitalWatch_smAlarmStatus_bothOn -->
<g id="node21" class="node"><title>DigitalWatch_smAlarmStatus_bothOn</title>
<path fill="none" stroke="black" d="M421,-156C421,-156 373,-156 373,-156 367,-156 361,-150 361,-144 361,-144 361,-132 361,-132 361,-126 367,-120 373,-120 373,-120 421,-120 421,-120 427,-120 433,-126 433,-132 433,-132 433,-144 433,-144 433,-150 427,-156 421,-156"/>
<text text-anchor="middle" x="397" y="-132.4" font-family="Times,serif" font-size="14.00">bothOn</text>
</g>
<!-- DigitalWatch_smAlarmStatus_chimeOn&#45;&gt;DigitalWatch_smAlarmStatus_bothOn -->
<g id="edge37" class="edge"><title>DigitalWatch_smAlarmStatus_chimeOn&#45;&gt;DigitalWatch_smAlarmStatus_bothOn</title>
<path fill="none" stroke="black" d="M397,-215.759C397,-201.978 397,-182.4 397,-166.465"/>
<polygon fill="black" stroke="black" points="400.5,-166.132 397,-156.132 393.5,-166.132 400.5,-166.132"/>
<text text-anchor="middle" x="403.224" y="-177.4" font-family="Times,serif" font-size="14.00">s1</text>
</g>
<!-- DigitalWatch_smAlarmStatus_alarmOn -->
<g id="node22" class="node"><title>DigitalWatch_smAlarmStatus_alarmOn</title>
<path fill="none" stroke="black" d="M431,-60C431,-60 383,-60 383,-60 377,-60 371,-54 371,-48 371,-48 371,-36 371,-36 371,-30 377,-24 383,-24 383,-24 431,-24 431,-24 437,-24 443,-30 443,-36 443,-36 443,-48 443,-48 443,-54 437,-60 431,-60"/>
<text text-anchor="middle" x="407" y="-36.4" font-family="Times,serif" font-size="14.00">alarmOn</text>
</g>
<!-- DigitalWatch_smAlarmStatus_bothOn&#45;&gt;DigitalWatch_smAlarmStatus_alarmOn -->
<g id="edge38" class="edge"><title>DigitalWatch_smAlarmStatus_bothOn&#45;&gt;DigitalWatch_smAlarmStatus_alarmOn</title>
<path fill="none" stroke="black" d="M398.834,-119.759C400.3,-105.978 402.383,-86.3997 404.078,-70.4651"/>
<polygon fill="black" stroke="black" points="407.6,-70.4459 405.177,-60.1317 400.639,-69.7054 407.6,-70.4459"/>
<text text-anchor="middle" x="410.224" y="-81.4" font-family="Times,serif" font-size="14.00">s1</text>
</g>
<!-- DigitalWatch_smAlarmStatus_alarmOn&#45;&gt;DigitalWatch_smAlarmStatus_bothOff -->
<g id="edge35" class="edge"><title>DigitalWatch_smAlarmStatus_alarmOn&#45;&gt;DigitalWatch_smAlarmStatus_bothOff</title>
<path fill="none" stroke="black" d="M420.043,-60.0677C428.113,-71.7419 437.724,-87.9549 442,-104 458.939,-167.559 453.082,-187.162 442,-252 439.403,-267.192 433.893,-283.455 428.705,-296.578"/>
<polygon fill="black" stroke="black" points="425.425,-295.352 424.854,-305.932 431.898,-298.017 425.425,-295.352"/>
<text text-anchor="middle" x="459.224" y="-177.4" font-family="Times,serif" font-size="14.00">s1</text>
</g>
<!-- start_DigitalWatch_alarmUpdate -->
<g id="node23" class="node"><title>start_DigitalWatch_alarmUpdate</title>
<ellipse fill="black" stroke="black" cx="54" cy="-425" rx="7.2" ry="7.2"/>
</g>
<!-- start_DigitalWatch_alarmUpdate&#45;&gt;DigitalWatch_smAlarmUpdate_alarmTime -->
<g id="edge39" class="edge"><title>start_DigitalWatch_alarmUpdate&#45;&gt;DigitalWatch_smAlarmUpdate_alarmTime</title>
<path fill="none" stroke="black" d="M54,-417.504C54,-404.492 54,-374.565 54,-352.253"/>
<polygon fill="black" stroke="black" points="57.5001,-352.019 54,-342.019 50.5001,-352.019 57.5001,-352.019"/>
</g>
<!-- DigitalWatch_smAlarmUpdate_alarmTime&#45;&gt;DigitalWatch_smRegularUpdate_second -->
<g id="edge11" class="edge"><title>DigitalWatch_smAlarmUpdate_alarmTime&#45;&gt;DigitalWatch_smRegularUpdate_second</title>
<path fill="none" stroke="black" d="M254.079,-463.832C276.605,-474.143 302.726,-484.306 336.552,-496 451.212,-535.64 594.597,-549.786 666.842,-554.625"/>
<polygon fill="black" stroke="black" points="666.77,-558.127 676.973,-555.273 667.217,-551.141 666.77,-558.127"/>
<text text-anchor="middle" x="343.224" y="-419.4" font-family="Times,serif" font-size="14.00">s3</text>
</g>
<!-- DigitalWatch_smAlarmUpdateHourMinuteUpdate_alarmHour -->
<g id="node26" class="node"><title>DigitalWatch_smAlarmUpdateHourMinuteUpdate_alarmHour</title>
<path fill="none" stroke="black" d="M178.983,-252C178.983,-252 127.017,-252 127.017,-252 121.017,-252 115.017,-246 115.017,-240 115.017,-240 115.017,-228 115.017,-228 115.017,-222 121.017,-216 127.017,-216 127.017,-216 178.983,-216 178.983,-216 184.983,-216 190.983,-222 190.983,-228 190.983,-228 190.983,-240 190.983,-240 190.983,-246 184.983,-252 178.983,-252"/>
<text text-anchor="middle" x="153" y="-228.4" font-family="Times,serif" font-size="14.00">alarmHour</text>
</g>
<!-- DigitalWatch_smAlarmUpdate_alarmTime&#45;&gt;DigitalWatch_smAlarmUpdateHourMinuteUpdate_alarmHour -->
<g id="edge42" class="edge"><title>DigitalWatch_smAlarmUpdate_alarmTime&#45;&gt;DigitalWatch_smAlarmUpdateHourMinuteUpdate_alarmHour</title>
<path fill="none" stroke="black" d="M57.3792,-305.893C60.3988,-294.504 65.8593,-279.874 75.3398,-270 77.9693,-267.261 90.9848,-261.088 105.631,-254.677"/>
<polygon fill="black" stroke="black" points="107.089,-257.86 114.883,-250.682 104.315,-251.433 107.089,-257.86"/>
<text text-anchor="middle" x="127.83" y="-273.4" font-family="Times,serif" font-size="14.00">s2 / alarmHour++;</text>
</g>
<!-- DigitalWatch_smAlarmUpdateHourMinuteUpdate_alarmMinute -->
<g id="node27" class="node"><title>DigitalWatch_smAlarmUpdateHourMinuteUpdate_alarmMinute</title>
<path fill="none" stroke="black" d="M184.233,-156C184.233,-156 119.767,-156 119.767,-156 113.767,-156 107.767,-150 107.767,-144 107.767,-144 107.767,-132 107.767,-132 107.767,-126 113.767,-120 119.767,-120 119.767,-120 184.233,-120 184.233,-120 190.233,-120 196.233,-126 196.233,-132 196.233,-132 196.233,-144 196.233,-144 196.233,-150 190.233,-156 184.233,-156"/>
<text text-anchor="middle" x="152" y="-132.4" font-family="Times,serif" font-size="14.00">alarmMinute</text>
</g>
<!-- DigitalWatch_smAlarmUpdate_alarmTime&#45;&gt;DigitalWatch_smAlarmUpdateHourMinuteUpdate_alarmMinute -->
<g id="edge45" class="edge"><title>DigitalWatch_smAlarmUpdate_alarmTime&#45;&gt;DigitalWatch_smAlarmUpdateHourMinuteUpdate_alarmMinute</title>
<path fill="none" stroke="black" d="M54.9669,-305.54C55.875,-295.071 57.6274,-281.585 61,-270 70.5906,-237.057 74.1883,-228.324 93.5518,-200 102.631,-186.719 114.66,-173.62 125.445,-162.986"/>
<polygon fill="black" stroke="black" points="127.879,-165.5 132.66,-156.045 123.027,-160.455 127.879,-165.5"/>
<text text-anchor="middle" x="100.224" y="-228.4" font-family="Times,serif" font-size="14.00">s1</text>
</g>
<!-- start_DigitalWatch_hourMinuteUpdate -->
<g id="node25" class="node"><title>start_DigitalWatch_hourMinuteUpdate</title>
<ellipse fill="black" stroke="black" cx="188" cy="-324" rx="7.2" ry="7.2"/>
</g>
<!-- start_DigitalWatch_hourMinuteUpdate&#45;&gt;DigitalWatch_smAlarmUpdateHourMinuteUpdate_alarmHour -->
<g id="edge41" class="edge"><title>start_DigitalWatch_hourMinuteUpdate&#45;&gt;DigitalWatch_smAlarmUpdateHourMinuteUpdate_alarmHour</title>
<path fill="none" stroke="black" d="M188.612,-316.496C189.32,-306.185 189.643,-285.654 183,-270 181.538,-266.556 179.61,-263.202 177.434,-260.021"/>
<polygon fill="black" stroke="black" points="180.147,-257.809 171.248,-252.06 174.62,-262.104 180.147,-257.809"/>
</g>
<!-- DigitalWatch_smAlarmUpdateHourMinuteUpdate_alarmHour&#45;&gt;DigitalWatch_smAlarmUpdateHourMinuteUpdate_alarmHour -->
<g id="edge43" class="edge"><title>DigitalWatch_smAlarmUpdateHourMinuteUpdate_alarmHour&#45;&gt;DigitalWatch_smAlarmUpdateHourMinuteUpdate_alarmHour</title>
<path fill="none" stroke="black" d="M191.214,-242.177C201.335,-241.71 209,-238.984 209,-234 209,-230.885 206.006,-228.652 201.289,-227.301"/>
<polygon fill="black" stroke="black" points="201.616,-223.812 191.214,-225.823 200.6,-230.737 201.616,-223.812"/>
<text text-anchor="middle" x="260.83" y="-228.4" font-family="Times,serif" font-size="14.00">s2 / alarmHour++;</text>
</g>
<!-- DigitalWatch_smAlarmUpdateHourMinuteUpdate_alarmHour&#45;&gt;DigitalWatch_smAlarmUpdateHourMinuteUpdate_alarmMinute -->
<g id="edge46" class="edge"><title>DigitalWatch_smAlarmUpdateHourMinuteUpdate_alarmHour&#45;&gt;DigitalWatch_smAlarmUpdateHourMinuteUpdate_alarmMinute</title>
<path fill="none" stroke="black" d="M143.693,-215.847C138.468,-204.149 133.546,-188.255 136.552,-174 137.123,-171.291 137.918,-168.536 138.848,-165.822"/>
<polygon fill="black" stroke="black" points="142.183,-166.911 142.656,-156.327 135.685,-164.306 142.183,-166.911"/>
<text text-anchor="middle" x="143.224" y="-177.4" font-family="Times,serif" font-size="14.00">s1</text>
</g>
<!-- DigitalWatch_smAlarmUpdateHourMinuteUpdate_alarmMinute&#45;&gt;DigitalWatch_smAlarmUpdateHourMinuteUpdate_alarmHour -->
<g id="edge44" class="edge"><title>DigitalWatch_smAlarmUpdateHourMinuteUpdate_alarmMinute&#45;&gt;DigitalWatch_smAlarmUpdateHourMinuteUpdate_alarmHour</title>
<path fill="none" stroke="black" d="M152.182,-156.132C152.329,-169.881 152.537,-189.455 152.706,-205.408"/>
<polygon fill="black" stroke="black" points="149.21,-205.797 152.817,-215.759 156.21,-205.722 149.21,-205.797"/>
<text text-anchor="middle" x="159.224" y="-177.4" font-family="Times,serif" font-size="14.00">s1</text>
</g>
<!-- DigitalWatch_smAlarmUpdateHourMinuteUpdate_alarmMinute&#45;&gt;DigitalWatch_smAlarmUpdateHourMinuteUpdate_alarmMinute -->
<g id="edge47" class="edge"><title>DigitalWatch_smAlarmUpdateHourMinuteUpdate_alarmMinute&#45;&gt;DigitalWatch_smAlarmUpdateHourMinuteUpdate_alarmMinute</title>
<path fill="none" stroke="black" d="M196.306,-146.068C206.507,-145.373 214,-142.684 214,-138 214,-135.073 211.073,-132.924 206.387,-131.555"/>
<polygon fill="black" stroke="black" points="206.735,-128.066 196.306,-129.932 205.622,-134.977 206.735,-128.066"/>
<text text-anchor="middle" x="271.665" y="-132.4" font-family="Times,serif" font-size="14.00">s2 / alarmMinute++;</text>
</g>
</g>
</svg>
