<?xml version="1.0" encoding="UTF-8" standalone="no"?>
<!DOCTYPE svg PUBLIC "-//W3C//DTD SVG 1.1//EN"
 "http://www.w3.org/Graphics/SVG/1.1/DTD/svg11.dtd">
<!-- Generated by graphviz version 2.36.0 (20140111.2315)
 -->
<!-- Title: DigitalWatchNested Pages: 1 -->
<svg width="1306pt" height="693pt"
 viewBox="0.00 0.00 1306.00 693.00" xmlns="http://www.w3.org/2000/svg" xmlns:xlink="http://www.w3.org/1999/xlink">
<g id="graph0" class="graph" transform="scale(1 1) rotate(0) translate(4 689)">
<title>DigitalWatchNested</title>
<polygon fill="white" stroke="none" points="-4,4 -4,-689 1302,-689 1302,4 -4,4"/>
<g id="clust1" class="cluster"><title>clusterDigitalWatch_sm_regular</title>
<path fill="none" stroke="black" d="M678,-8C678,-8 973,-8 973,-8 979,-8 985,-14 985,-20 985,-20 985,-665 985,-665 985,-671 979,-677 973,-677 973,-677 678,-677 678,-677 672,-677 666,-671 666,-665 666,-665 666,-20 666,-20 666,-14 672,-8 678,-8"/>
<text text-anchor="middle" x="825.5" y="-661.8" font-family="Times,serif" font-size="14.00">regular</text>
</g>
<g id="clust2" class="cluster"><title>clusterDigitalWatch_smRegular_update</title>
<path fill="none" stroke="black" d="M686,-16C686,-16 870,-16 870,-16 876,-16 882,-22 882,-28 882,-28 882,-634 882,-634 882,-640 876,-646 870,-646 870,-646 686,-646 686,-646 680,-646 674,-640 674,-634 674,-634 674,-28 674,-28 674,-22 680,-16 686,-16"/>
<text text-anchor="middle" x="778" y="-630.8" font-family="Times,serif" font-size="14.00">update</text>
</g>
<g id="clust3" class="cluster"><title>clusterDigitalWatch_sm_chronometer</title>
<path fill="none" stroke="black" d="M1005,-196C1005,-196 1278,-196 1278,-196 1284,-196 1290,-202 1290,-208 1290,-208 1290,-473 1290,-473 1290,-479 1284,-485 1278,-485 1278,-485 1005,-485 1005,-485 999,-485 993,-479 993,-473 993,-473 993,-208 993,-208 993,-202 999,-196 1005,-196"/>
<text text-anchor="middle" x="1141.5" y="-469.8" font-family="Times,serif" font-size="14.00">chronometer</text>
</g>
<g id="clust4" class="cluster"><title>clusterDigitalWatch_smChronometer_chronoNormal</title>
<path fill="none" stroke="black" d="M1105,-204C1105,-204 1248,-204 1248,-204 1254,-204 1260,-210 1260,-216 1260,-216 1260,-442 1260,-442 1260,-448 1254,-454 1248,-454 1248,-454 1105,-454 1105,-454 1099,-454 1093,-448 1093,-442 1093,-442 1093,-216 1093,-216 1093,-210 1099,-204 1105,-204"/>
<text text-anchor="middle" x="1176.5" y="-438.8" font-family="Times,serif" font-size="14.00">chronoNormal</text>
</g>
<g id="clust5" class="cluster"><title>clusterDigitalWatch_sm_alarmStatus</title>
<path fill="none" stroke="black" d="M370,-16C370,-16 454,-16 454,-16 460,-16 466,-22 466,-28 466,-28 466,-442 466,-442 466,-448 460,-454 454,-454 454,-454 370,-454 370,-454 364,-454 358,-448 358,-442 358,-442 358,-28 358,-28 358,-22 364,-16 370,-16"/>
<text text-anchor="middle" x="412" y="-438.8" font-family="Times,serif" font-size="14.00">alarmStatus</text>
</g>
<g id="clust6" class="cluster"><title>clusterDigitalWatch_sm_alarmUpdate</title>
<path fill="none" stroke="black" d="M20,-102C20,-102 338,-102 338,-102 344,-102 350,-108 350,-114 350,-114 350,-442 350,-442 350,-448 344,-454 338,-454 338,-454 20,-454 20,-454 14,-454 8,-448 8,-442 8,-442 8,-114 8,-114 8,-108 14,-102 20,-102"/>
<text text-anchor="middle" x="179" y="-438.8" font-family="Times,serif" font-size="14.00">alarmUpdate</text>
</g>
<g id="clust7" class="cluster"><title>clusterDigitalWatch_smAlarmUpdate_hourMinuteUpdate</title>
<path fill="none" stroke="black" d="M114,-110C114,-110 330,-110 330,-110 336,-110 342,-116 342,-122 342,-122 342,-344 342,-344 342,-350 336,-356 330,-356 330,-356 114,-356 114,-356 108,-356 102,-350 102,-344 102,-344 102,-122 102,-122 102,-116 108,-110 114,-110"/>
<text text-anchor="middle" x="222" y="-340.8" font-family="Times,serif" font-size="14.00">hourMinuteUpdate</text>
</g>
<!-- start_DigitalWatch_sm -->
<g id="node1" class="node"><title>start_DigitalWatch_sm</title>
<ellipse fill="black" stroke="black" cx="1000" cy="-545" rx="7.2" ry="7.2"/>
</g>
<!-- DigitalWatch_smRegular_time -->
<g id="node3" class="node"><title>DigitalWatch_smRegular_time</title>
<path fill="none" stroke="black" d="M952,-434C952,-434 904,-434 904,-434 898,-434 892,-428 892,-422 892,-422 892,-410 892,-410 892,-404 898,-398 904,-398 904,-398 952,-398 952,-398 958,-398 964,-404 964,-410 964,-410 964,-422 964,-422 964,-428 958,-434 952,-434"/>
<text text-anchor="middle" x="928" y="-412.3" font-family="Times,serif" font-size="14.00">time</text>
</g>
<!-- start_DigitalWatch_sm&#45;&gt;DigitalWatch_smRegular_time -->
<g id="edge1" class="edge"><title>start_DigitalWatch_sm&#45;&gt;DigitalWatch_smRegular_time</title>
<path fill="none" stroke="black" d="M996.719,-538.213C994.983,-535.151 992.632,-531.003 989.842,-526.082"/>
<polygon fill="black" stroke="black" points="992.742,-524.101 984.766,-517.128 986.653,-527.554 992.742,-524.101"/>
</g>
<!-- start_DigitalWatch_sm_regular -->
<g id="node2" class="node"><title>start_DigitalWatch_sm_regular</title>
<ellipse fill="black" stroke="black" cx="928" cy="-545" rx="7.2" ry="7.2"/>
</g>
<!-- start_DigitalWatch_sm_regular&#45;&gt;DigitalWatch_smRegular_time -->
<g id="edge2" class="edge"><title>start_DigitalWatch_sm_regular&#45;&gt;DigitalWatch_smRegular_time</title>
<path fill="none" stroke="black" d="M928,-537.527C928,-520.691 928,-474.748 928,-444.697"/>
<polygon fill="black" stroke="black" points="931.5,-444.428 928,-434.428 924.5,-444.428 931.5,-444.428"/>
</g>
<!-- DigitalWatch_smRegular_date -->
<g id="node4" class="node"><title>DigitalWatch_smRegular_date</title>
<path fill="none" stroke="black" d="M957,-336C957,-336 909,-336 909,-336 903,-336 897,-330 897,-324 897,-324 897,-312 897,-312 897,-306 903,-300 909,-300 909,-300 957,-300 957,-300 963,-300 969,-306 969,-312 969,-312 969,-324 969,-324 969,-330 963,-336 957,-336"/>
<text text-anchor="middle" x="933" y="-314.3" font-family="Times,serif" font-size="14.00">date</text>
</g>
<!-- DigitalWatch_smRegular_time&#45;&gt;DigitalWatch_smRegular_date -->
<g id="edge7" class="edge"><title>DigitalWatch_smRegular_time&#45;&gt;DigitalWatch_smRegular_date</title>
<path fill="none" stroke="black" d="M936.326,-397.948C938.64,-392.364 940.837,-386.041 942,-380 944.126,-368.963 942.993,-356.717 940.918,-346.112"/>
<polygon fill="black" stroke="black" points="944.28,-345.112 938.615,-336.159 937.46,-346.69 944.28,-345.112"/>
<text text-anchor="middle" x="950.5" y="-368.3" font-family="Times,serif" font-size="14.00">s1</text>
</g>
<!-- DigitalWatch_smChronometerChronoNormal_paused -->
<g id="node14" class="node"><title>DigitalWatch_smChronometerChronoNormal_paused</title>
<path fill="none" stroke="black" d="M1161,-336C1161,-336 1113,-336 1113,-336 1107,-336 1101,-330 1101,-324 1101,-324 1101,-312 1101,-312 1101,-306 1107,-300 1113,-300 1113,-300 1161,-300 1161,-300 1167,-300 1173,-306 1173,-312 1173,-312 1173,-324 1173,-324 1173,-330 1167,-336 1161,-336"/>
<text text-anchor="middle" x="1137" y="-314.3" font-family="Times,serif" font-size="14.00">paused</text>
</g>
<!-- DigitalWatch_smRegular_time&#45;&gt;DigitalWatch_smChronometerChronoNormal_paused -->
<g id="edge22" class="edge"><title>DigitalWatch_smRegular_time&#45;&gt;DigitalWatch_smChronometerChronoNormal_paused</title>
<path fill="none" stroke="black" d="M964.103,-411.886C969.966,-411.146 976.331,-410.235 983.034,-409.113"/>
<polygon fill="black" stroke="black" points="983.851,-412.522 993.077,-407.314 982.617,-405.632 983.851,-412.522"/>
<text text-anchor="middle" x="1103.5" y="-368.3" font-family="Times,serif" font-size="14.00">s3</text>
</g>
<!-- DigitalWatch_smAlarmStatus_bothOff -->
<g id="node19" class="node"><title>DigitalWatch_smAlarmStatus_bothOff</title>
<path fill="none" stroke="black" d="M446,-336C446,-336 398,-336 398,-336 392,-336 386,-330 386,-324 386,-324 386,-312 386,-312 386,-306 392,-300 398,-300 398,-300 446,-300 446,-300 452,-300 458,-306 458,-312 458,-312 458,-324 458,-324 458,-330 452,-336 446,-336"/>
<text text-anchor="middle" x="422" y="-314.3" font-family="Times,serif" font-size="14.00">bothOff</text>
</g>
<!-- DigitalWatch_smRegular_time&#45;&gt;DigitalWatch_smAlarmStatus_bothOff -->
<g id="edge33" class="edge"><title>DigitalWatch_smRegular_time&#45;&gt;DigitalWatch_smAlarmStatus_bothOff</title>
<path fill="none" stroke="black" d="M891.575,-399.449C889.706,-398.906 887.841,-398.418 886,-398 822.599,-383.617 654.357,-404.158 594,-380 583.751,-375.898 584.725,-369.225 575,-364 541.326,-345.91 499.475,-334.244 468.059,-327.334"/>
<polygon fill="black" stroke="black" points="476.483,-327.795 466,-326.256 473.235,-333.996 476.483,-327.795"/>
<text text-anchor="middle" x="600.5" y="-368.3" font-family="Times,serif" font-size="14.00">s2</text>
</g>
<!-- DigitalWatch_smAlarmUpdate_alarmTime -->
<g id="node24" class="node"><title>DigitalWatch_smAlarmUpdate_alarmTime</title>
<path fill="none" stroke="black" d="M82,-336C82,-336 28,-336 28,-336 22,-336 16,-330 16,-324 16,-324 16,-312 16,-312 16,-306 22,-300 28,-300 28,-300 82,-300 82,-300 88,-300 94,-306 94,-312 94,-312 94,-324 94,-324 94,-330 88,-336 82,-336"/>
<text text-anchor="middle" x="55" y="-314.3" font-family="Times,serif" font-size="14.00">alarmTime</text>
</g>
<!-- DigitalWatch_smRegular_time&#45;&gt;DigitalWatch_smAlarmUpdate_alarmTime -->
<g id="edge40" class="edge"><title>DigitalWatch_smRegular_time&#45;&gt;DigitalWatch_smAlarmUpdate_alarmTime</title>
<path fill="none" stroke="black" d="M891.583,-399.412C889.712,-398.879 887.844,-398.403 886,-398 799.72,-379.162 577.186,-384.733 489,-380 374.278,-373.842 345.673,-371.005 231,-364 201.446,-362.195 125.438,-367.128 98,-356 90.7217,-353.048 83.8051,-348.345 77.7311,-343.267"/>
<polygon fill="black" stroke="black" points="79.7663,-340.387 70.016,-336.242 75.0531,-345.562 79.7663,-340.387"/>
<text text-anchor="middle" x="530" y="-368.3" font-family="Times,serif" font-size="14.00">s3during2Secs</text>
</g>
<!-- DigitalWatch_smRegular_date&#45;&gt;DigitalWatch_smRegular_time -->
<g id="edge3" class="edge"><title>DigitalWatch_smRegular_date&#45;&gt;DigitalWatch_smRegular_time</title>
<path fill="none" stroke="black" d="M921.299,-336.138C916.475,-344.213 911.448,-354.208 909,-364 907.275,-370.899 907.25,-373.108 909,-380 909.758,-382.986 910.828,-385.993 912.079,-388.924"/>
<polygon fill="black" stroke="black" points="908.951,-390.495 916.525,-397.902 915.224,-387.388 908.951,-390.495"/>
<text text-anchor="middle" x="925.5" y="-368.3" font-family="Times,serif" font-size="14.00">notS1</text>
</g>
<!-- start_DigitalWatch_sm_regular_update -->
<g id="node5" class="node"><title>start_DigitalWatch_sm_regular_update</title>
<ellipse fill="black" stroke="black" cx="719" cy="-608" rx="7.2" ry="7.2"/>
</g>
<!-- DigitalWatch_smRegularUpdate_second -->
<g id="node6" class="node"><title>DigitalWatch_smRegularUpdate_second</title>
<path fill="none" stroke="black" d="M743,-563C743,-563 695,-563 695,-563 689,-563 683,-557 683,-551 683,-551 683,-539 683,-539 683,-533 689,-527 695,-527 695,-527 743,-527 743,-527 749,-527 755,-533 755,-539 755,-539 755,-551 755,-551 755,-557 749,-563 743,-563"/>
<text text-anchor="middle" x="719" y="-541.3" font-family="Times,serif" font-size="14.00">second</text>
</g>
<!-- start_DigitalWatch_sm_regular_update&#45;&gt;DigitalWatch_smRegularUpdate_second -->
<g id="edge8" class="edge"><title>start_DigitalWatch_sm_regular_update&#45;&gt;DigitalWatch_smRegularUpdate_second</title>
<path fill="none" stroke="black" d="M719,-600.472C719,-593.902 719,-583.324 719,-573.229"/>
<polygon fill="black" stroke="black" points="722.5,-573.073 719,-563.073 715.5,-573.073 722.5,-573.073"/>
</g>
<!-- DigitalWatch_smRegularUpdate_second&#45;&gt;DigitalWatch_smRegular_time -->
<g id="edge4" class="edge"><title>DigitalWatch_smRegularUpdate_second&#45;&gt;DigitalWatch_smRegular_time</title>
<path fill="none" stroke="black" d="M881.552,-506.341C901.564,-490.385 913.815,-463.801 920.672,-443.771"/>
<polygon fill="black" stroke="black" points="924.069,-444.638 923.761,-434.048 917.397,-442.519 924.069,-444.638"/>
<text text-anchor="middle" x="901.5" y="-497.3" font-family="Times,serif" font-size="14.00">s3</text>
</g>
<!-- DigitalWatch_smRegularUpdate_second&#45;&gt;DigitalWatch_smRegularUpdate_second -->
<g id="edge9" class="edge"><title>DigitalWatch_smRegularUpdate_second&#45;&gt;DigitalWatch_smRegularUpdate_second</title>
<path fill="none" stroke="black" d="M755.087,-551.717C765.221,-551.422 773,-549.184 773,-545 773,-542.385 769.961,-540.53 765.208,-539.435"/>
<polygon fill="black" stroke="black" points="765.419,-535.936 755.087,-538.283 764.628,-542.891 765.419,-535.936"/>
<text text-anchor="middle" x="823" y="-541.3" font-family="Times,serif" font-size="14.00">s2 / secondzero();</text>
</g>
<!-- DigitalWatch_smRegularUpdate_minute -->
<g id="node7" class="node"><title>DigitalWatch_smRegularUpdate_minute</title>
<path fill="none" stroke="black" d="M742,-434C742,-434 694,-434 694,-434 688,-434 682,-428 682,-422 682,-422 682,-410 682,-410 682,-404 688,-398 694,-398 694,-398 742,-398 742,-398 748,-398 754,-404 754,-410 754,-410 754,-422 754,-422 754,-428 748,-434 742,-434"/>
<text text-anchor="middle" x="718" y="-412.3" font-family="Times,serif" font-size="14.00">minute</text>
</g>
<!-- DigitalWatch_smRegularUpdate_second&#45;&gt;DigitalWatch_smRegularUpdate_minute -->
<g id="edge12" class="edge"><title>DigitalWatch_smRegularUpdate_second&#45;&gt;DigitalWatch_smRegularUpdate_minute</title>
<path fill="none" stroke="black" d="M718.865,-526.872C718.699,-505.758 718.414,-469.604 718.217,-444.564"/>
<polygon fill="black" stroke="black" points="721.715,-444.234 718.136,-434.262 714.715,-444.289 721.715,-444.234"/>
<text text-anchor="middle" x="725.5" y="-497.3" font-family="Times,serif" font-size="14.00">s1</text>
</g>
<!-- DigitalWatch_smRegularUpdate_minute&#45;&gt;DigitalWatch_smRegularUpdate_minute -->
<g id="edge13" class="edge"><title>DigitalWatch_smRegularUpdate_minute&#45;&gt;DigitalWatch_smRegularUpdate_minute</title>
<path fill="none" stroke="black" d="M754.087,-424.209C764.221,-423.85 772,-421.113 772,-416 772,-412.804 768.961,-410.537 764.208,-409.198"/>
<polygon fill="black" stroke="black" points="764.474,-405.701 754.087,-407.791 763.51,-412.635 764.474,-405.701"/>
<text text-anchor="middle" x="813" y="-412.3" font-family="Times,serif" font-size="14.00">s2 / minute++;</text>
</g>
<!-- DigitalWatch_smRegularUpdate_hour -->
<g id="node8" class="node"><title>DigitalWatch_smRegularUpdate_hour</title>
<path fill="none" stroke="black" d="M742,-336C742,-336 694,-336 694,-336 688,-336 682,-330 682,-324 682,-324 682,-312 682,-312 682,-306 688,-300 694,-300 694,-300 742,-300 742,-300 748,-300 754,-306 754,-312 754,-312 754,-324 754,-324 754,-330 748,-336 742,-336"/>
<text text-anchor="middle" x="718" y="-314.3" font-family="Times,serif" font-size="14.00">hour</text>
</g>
<!-- DigitalWatch_smRegularUpdate_minute&#45;&gt;DigitalWatch_smRegularUpdate_hour -->
<g id="edge14" class="edge"><title>DigitalWatch_smRegularUpdate_minute&#45;&gt;DigitalWatch_smRegularUpdate_hour</title>
<path fill="none" stroke="black" d="M718,-397.837C718,-383.503 718,-362.807 718,-346.216"/>
<polygon fill="black" stroke="black" points="721.5,-346.014 718,-336.014 714.5,-346.014 721.5,-346.014"/>
<text text-anchor="middle" x="724.5" y="-368.3" font-family="Times,serif" font-size="14.00">s1</text>
</g>
<!-- DigitalWatch_smRegularUpdate_hour&#45;&gt;DigitalWatch_smRegularUpdate_hour -->
<g id="edge15" class="edge"><title>DigitalWatch_smRegularUpdate_hour&#45;&gt;DigitalWatch_smRegularUpdate_hour</title>
<path fill="none" stroke="black" d="M754.087,-326.209C764.221,-325.85 772,-323.113 772,-318 772,-314.804 768.961,-312.537 764.208,-311.198"/>
<polygon fill="black" stroke="black" points="764.474,-307.701 754.087,-309.791 763.51,-314.635 764.474,-307.701"/>
<text text-anchor="middle" x="806.5" y="-314.3" font-family="Times,serif" font-size="14.00">s2 / hour++;</text>
</g>
<!-- DigitalWatch_smRegularUpdate_month -->
<g id="node9" class="node"><title>DigitalWatch_smRegularUpdate_month</title>
<path fill="none" stroke="black" d="M742,-248C742,-248 694,-248 694,-248 688,-248 682,-242 682,-236 682,-236 682,-224 682,-224 682,-218 688,-212 694,-212 694,-212 742,-212 742,-212 748,-212 754,-218 754,-224 754,-224 754,-236 754,-236 754,-242 748,-248 742,-248"/>
<text text-anchor="middle" x="718" y="-226.3" font-family="Times,serif" font-size="14.00">month</text>
</g>
<!-- DigitalWatch_smRegularUpdate_hour&#45;&gt;DigitalWatch_smRegularUpdate_month -->
<g id="edge16" class="edge"><title>DigitalWatch_smRegularUpdate_hour&#45;&gt;DigitalWatch_smRegularUpdate_month</title>
<path fill="none" stroke="black" d="M718,-299.597C718,-287.746 718,-271.817 718,-258.292"/>
<polygon fill="black" stroke="black" points="721.5,-258.084 718,-248.084 714.5,-258.084 721.5,-258.084"/>
<text text-anchor="middle" x="724.5" y="-270.3" font-family="Times,serif" font-size="14.00">s1</text>
</g>
<!-- DigitalWatch_smRegularUpdate_month&#45;&gt;DigitalWatch_smRegularUpdate_month -->
<g id="edge17" class="edge"><title>DigitalWatch_smRegularUpdate_month&#45;&gt;DigitalWatch_smRegularUpdate_month</title>
<path fill="none" stroke="black" d="M754.087,-238.209C764.221,-237.85 772,-235.113 772,-230 772,-226.804 768.961,-224.537 764.208,-223.198"/>
<polygon fill="black" stroke="black" points="764.474,-219.701 754.087,-221.791 763.51,-226.635 764.474,-219.701"/>
<text text-anchor="middle" x="811.5" y="-226.3" font-family="Times,serif" font-size="14.00">s2 / month++;</text>
</g>
<!-- DigitalWatch_smRegularUpdate_day -->
<g id="node10" class="node"><title>DigitalWatch_smRegularUpdate_day</title>
<path fill="none" stroke="black" d="M753,-154C753,-154 705,-154 705,-154 699,-154 693,-148 693,-142 693,-142 693,-130 693,-130 693,-124 699,-118 705,-118 705,-118 753,-118 753,-118 759,-118 765,-124 765,-130 765,-130 765,-142 765,-142 765,-148 759,-154 753,-154"/>
<text text-anchor="middle" x="729" y="-132.3" font-family="Times,serif" font-size="14.00">day</text>
</g>
<!-- DigitalWatch_smRegularUpdate_month&#45;&gt;DigitalWatch_smRegularUpdate_day -->
<g id="edge18" class="edge"><title>DigitalWatch_smRegularUpdate_month&#45;&gt;DigitalWatch_smRegularUpdate_day</title>
<path fill="none" stroke="black" d="M720.069,-211.696C721.667,-198.331 723.908,-179.587 725.746,-164.219"/>
<polygon fill="black" stroke="black" points="729.228,-164.572 726.94,-154.227 722.278,-163.741 729.228,-164.572"/>
<text text-anchor="middle" x="731.5" y="-176.3" font-family="Times,serif" font-size="14.00">s1</text>
</g>
<!-- DigitalWatch_smRegularUpdate_day&#45;&gt;DigitalWatch_smRegularUpdate_day -->
<g id="edge19" class="edge"><title>DigitalWatch_smRegularUpdate_day&#45;&gt;DigitalWatch_smRegularUpdate_day</title>
<path fill="none" stroke="black" d="M765.087,-144.209C775.221,-143.85 783,-141.113 783,-136 783,-132.804 779.961,-130.537 775.208,-129.198"/>
<polygon fill="black" stroke="black" points="775.474,-125.701 765.087,-127.791 774.51,-132.635 775.474,-125.701"/>
<text text-anchor="middle" x="815" y="-132.3" font-family="Times,serif" font-size="14.00">s2 / day++;</text>
</g>
<!-- DigitalWatch_smRegularUpdate_year -->
<g id="node11" class="node"><title>DigitalWatch_smRegularUpdate_year</title>
<path fill="none" stroke="black" d="M770,-60C770,-60 722,-60 722,-60 716,-60 710,-54 710,-48 710,-48 710,-36 710,-36 710,-30 716,-24 722,-24 722,-24 770,-24 770,-24 776,-24 782,-30 782,-36 782,-36 782,-48 782,-48 782,-54 776,-60 770,-60"/>
<text text-anchor="middle" x="746" y="-38.3" font-family="Times,serif" font-size="14.00">year</text>
</g>
<!-- DigitalWatch_smRegularUpdate_day&#45;&gt;DigitalWatch_smRegularUpdate_year -->
<g id="edge20" class="edge"><title>DigitalWatch_smRegularUpdate_day&#45;&gt;DigitalWatch_smRegularUpdate_year</title>
<path fill="none" stroke="black" d="M732.198,-117.696C734.667,-104.331 738.131,-85.5871 740.97,-70.2192"/>
<polygon fill="black" stroke="black" points="744.441,-70.6964 742.817,-60.2269 737.558,-69.4244 744.441,-70.6964"/>
<text text-anchor="middle" x="746.5" y="-82.3" font-family="Times,serif" font-size="14.00">s1</text>
</g>
<!-- DigitalWatch_smRegularUpdate_year&#45;&gt;DigitalWatch_smRegularUpdate_second -->
<g id="edge10" class="edge"><title>DigitalWatch_smRegularUpdate_year&#45;&gt;DigitalWatch_smRegularUpdate_second</title>
<path fill="none" stroke="black" d="M782.013,-52.0847C807.36,-60.5262 839.583,-75.8443 856,-102 867.313,-120.025 874.902,-467.358 863,-485 836.918,-523.661 808.919,-510.042 764.582,-525.052"/>
<polygon fill="black" stroke="black" points="763.308,-521.792 755.181,-528.589 765.773,-528.343 763.308,-521.792"/>
<text text-anchor="middle" x="874.5" y="-270.3" font-family="Times,serif" font-size="14.00">s1</text>
</g>
<!-- DigitalWatch_smRegularUpdate_year&#45;&gt;DigitalWatch_smRegularUpdate_year -->
<g id="edge21" class="edge"><title>DigitalWatch_smRegularUpdate_year&#45;&gt;DigitalWatch_smRegularUpdate_year</title>
<path fill="none" stroke="black" d="M782.087,-50.2092C792.221,-49.8497 800,-47.1133 800,-42 800,-38.8042 796.961,-36.5369 792.208,-35.198"/>
<polygon fill="black" stroke="black" points="792.474,-31.7014 782.087,-33.7908 791.51,-38.6347 792.474,-31.7014"/>
<text text-anchor="middle" x="834" y="-38.3" font-family="Times,serif" font-size="14.00">s2 / year++;</text>
</g>
<!-- start_DigitalWatch_sm_chronometer -->
<g id="node12" class="node"><title>start_DigitalWatch_sm_chronometer</title>
<ellipse fill="black" stroke="black" cx="1275" cy="-416" rx="7.2" ry="7.2"/>
</g>
<!-- start_DigitalWatch_sm_chronometer&#45;&gt;DigitalWatch_smChronometerChronoNormal_paused -->
<g id="edge23" class="edge"><title>start_DigitalWatch_sm_chronometer&#45;&gt;DigitalWatch_smChronometerChronoNormal_paused</title>
<path fill="none" stroke="black" d="M1272.09,-409.187C1270.93,-407.099 1269.46,-404.693 1266.87,-401.544"/>
<polygon fill="black" stroke="black" points="1269.1,-398.808 1259.71,-393.903 1263.99,-403.594 1269.1,-398.808"/>
</g>
<!-- start_DigitalWatch_sm_chronometer_chronoNormal -->
<g id="node13" class="node"><title>start_DigitalWatch_sm_chronometer_chronoNormal</title>
<ellipse fill="black" stroke="black" cx="1137" cy="-416" rx="7.2" ry="7.2"/>
</g>
<!-- start_DigitalWatch_sm_chronometer_chronoNormal&#45;&gt;DigitalWatch_smChronometerChronoNormal_paused -->
<g id="edge24" class="edge"><title>start_DigitalWatch_sm_chronometer_chronoNormal&#45;&gt;DigitalWatch_smChronometerChronoNormal_paused</title>
<path fill="none" stroke="black" d="M1137,-408.701C1137,-396.283 1137,-367.979 1137,-346.462"/>
<polygon fill="black" stroke="black" points="1140.5,-346.246 1137,-336.246 1133.5,-346.246 1140.5,-346.246"/>
</g>
<!-- DigitalWatch_smChronometerChronoNormal_paused&#45;&gt;DigitalWatch_smRegular_time -->
<g id="edge5" class="edge"><title>DigitalWatch_smChronometerChronoNormal_paused&#45;&gt;DigitalWatch_smRegular_time</title>
<path fill="none" stroke="black" d="M993.426,-388.015C986.519,-390.684 979.887,-393.308 973.673,-395.807"/>
<polygon fill="black" stroke="black" points="972.159,-392.645 964.21,-399.649 974.792,-399.131 972.159,-392.645"/>
<text text-anchor="middle" x="1068.5" y="-368.3" font-family="Times,serif" font-size="14.00">s3</text>
</g>
<!-- DigitalWatch_smChronometerChronoNormal_paused&#45;&gt;DigitalWatch_smChronometerChronoNormal_paused -->
<g id="edge25" class="edge"><title>DigitalWatch_smChronometerChronoNormal_paused&#45;&gt;DigitalWatch_smChronometerChronoNormal_paused</title>
<path fill="none" stroke="black" d="M1173.09,-326.209C1183.22,-325.85 1191,-323.113 1191,-318 1191,-314.804 1187.96,-312.537 1183.21,-311.198"/>
<polygon fill="black" stroke="black" points="1183.47,-307.701 1173.09,-309.791 1182.51,-314.635 1183.47,-307.701"/>
<text text-anchor="middle" x="1221.5" y="-314.3" font-family="Times,serif" font-size="14.00">s2 / zero();</text>
</g>
<!-- DigitalWatch_smChronometerChronoNormal_running -->
<g id="node15" class="node"><title>DigitalWatch_smChronometerChronoNormal_running</title>
<path fill="none" stroke="black" d="M1193,-248C1193,-248 1145,-248 1145,-248 1139,-248 1133,-242 1133,-236 1133,-236 1133,-224 1133,-224 1133,-218 1139,-212 1145,-212 1145,-212 1193,-212 1193,-212 1199,-212 1205,-218 1205,-224 1205,-224 1205,-236 1205,-236 1205,-242 1199,-248 1193,-248"/>
<text text-anchor="middle" x="1169" y="-226.3" font-family="Times,serif" font-size="14.00">running</text>
</g>
<!-- DigitalWatch_smChronometerChronoNormal_paused&#45;&gt;DigitalWatch_smChronometerChronoNormal_running -->
<g id="edge28" class="edge"><title>DigitalWatch_smChronometerChronoNormal_paused&#45;&gt;DigitalWatch_smChronometerChronoNormal_running</title>
<path fill="none" stroke="black" d="M1163.4,-299.65C1168.9,-294.661 1173.95,-288.722 1177,-282 1180.39,-274.54 1180.33,-265.905 1178.87,-257.886"/>
<polygon fill="black" stroke="black" points="1182.26,-257.023 1176.41,-248.192 1175.47,-258.745 1182.26,-257.023"/>
<text text-anchor="middle" x="1185.5" y="-270.3" font-family="Times,serif" font-size="14.00">s1</text>
</g>
<!-- DigitalWatch_smChronometerChronoNormal_running&#45;&gt;DigitalWatch_smChronometerChronoNormal_paused -->
<g id="edge26" class="edge"><title>DigitalWatch_smChronometerChronoNormal_running&#45;&gt;DigitalWatch_smChronometerChronoNormal_paused</title>
<path fill="none" stroke="black" d="M1198.57,-248.185C1210.9,-257.641 1220.76,-269.887 1213,-282 1206.01,-292.907 1194.68,-300.462 1182.86,-305.677"/>
<polygon fill="black" stroke="black" points="1181.41,-302.487 1173.36,-309.377 1183.95,-309.01 1181.41,-302.487"/>
<text text-anchor="middle" x="1221.5" y="-270.3" font-family="Times,serif" font-size="14.00">s1</text>
</g>
<!-- DigitalWatch_smChronometer_lapRunning -->
<g id="node16" class="node"><title>DigitalWatch_smChronometer_lapRunning</title>
<path fill="none" stroke="black" d="M1071,-336C1071,-336 1013,-336 1013,-336 1007,-336 1001,-330 1001,-324 1001,-324 1001,-312 1001,-312 1001,-306 1007,-300 1013,-300 1013,-300 1071,-300 1071,-300 1077,-300 1083,-306 1083,-312 1083,-312 1083,-324 1083,-324 1083,-330 1077,-336 1071,-336"/>
<text text-anchor="middle" x="1042" y="-314.3" font-family="Times,serif" font-size="14.00">lapRunning</text>
</g>
<!-- DigitalWatch_smChronometerChronoNormal_running&#45;&gt;DigitalWatch_smChronometer_lapRunning -->
<g id="edge30" class="edge"><title>DigitalWatch_smChronometerChronoNormal_running&#45;&gt;DigitalWatch_smChronometer_lapRunning</title>
<path fill="none" stroke="black" d="M1132.99,-246.361C1111.85,-255.41 1089.06,-265.241 1088,-266 1078.06,-273.131 1068.7,-282.738 1061.05,-291.69"/>
<polygon fill="black" stroke="black" points="1058.17,-289.684 1054.54,-299.638 1063.58,-294.121 1058.17,-289.684"/>
<text text-anchor="middle" x="1094.5" y="-270.3" font-family="Times,serif" font-size="14.00">s2</text>
</g>
<!-- DigitalWatch_smChronometer_lapRunning&#45;&gt;DigitalWatch_smChronometerChronoNormal_running -->
<g id="edge29" class="edge"><title>DigitalWatch_smChronometer_lapRunning&#45;&gt;DigitalWatch_smChronometerChronoNormal_running</title>
<path fill="none" stroke="black" d="M1075.42,-299.997C1085.19,-294.614 1095.73,-288.391 1105,-282 1114.09,-275.735 1115.42,-272.946 1124,-266 1128.63,-262.25 1133.58,-258.328 1138.43,-254.522"/>
<polygon fill="black" stroke="black" points="1140.7,-257.187 1146.43,-248.277 1136.4,-251.667 1140.7,-257.187"/>
<text text-anchor="middle" x="1130.5" y="-270.3" font-family="Times,serif" font-size="14.00">s2</text>
</g>
<!-- DigitalWatch_smChronometer_lapPaused -->
<g id="node17" class="node"><title>DigitalWatch_smChronometer_lapPaused</title>
<path fill="none" stroke="black" d="M1072.25,-248C1072.25,-248 1023.75,-248 1023.75,-248 1017.75,-248 1011.75,-242 1011.75,-236 1011.75,-236 1011.75,-224 1011.75,-224 1011.75,-218 1017.75,-212 1023.75,-212 1023.75,-212 1072.25,-212 1072.25,-212 1078.25,-212 1084.25,-218 1084.25,-224 1084.25,-224 1084.25,-236 1084.25,-236 1084.25,-242 1078.25,-248 1072.25,-248"/>
<text text-anchor="middle" x="1048" y="-226.3" font-family="Times,serif" font-size="14.00">lapPaused</text>
</g>
<!-- DigitalWatch_smChronometer_lapRunning&#45;&gt;DigitalWatch_smChronometer_lapPaused -->
<g id="edge32" class="edge"><title>DigitalWatch_smChronometer_lapRunning&#45;&gt;DigitalWatch_smChronometer_lapPaused</title>
<path fill="none" stroke="black" d="M1032.54,-299.553C1028.38,-289.711 1025.03,-277.181 1028,-266 1028.8,-262.986 1029.93,-259.96 1031.25,-257.019"/>
<polygon fill="black" stroke="black" points="1034.41,-258.513 1035.93,-248.026 1028.2,-255.28 1034.41,-258.513"/>
<text text-anchor="middle" x="1034.5" y="-270.3" font-family="Times,serif" font-size="14.00">s1</text>
</g>
<!-- DigitalWatch_smChronometer_lapPaused&#45;&gt;DigitalWatch_smChronometerChronoNormal_paused -->
<g id="edge27" class="edge"><title>DigitalWatch_smChronometer_lapPaused&#45;&gt;DigitalWatch_smChronometerChronoNormal_paused</title>
<path fill="none" stroke="black" d="M1084.62,-246.309C1086.09,-246.887 1087.56,-247.453 1089,-248 1111.86,-256.688 1126.81,-246.078 1141,-266 1145.91,-272.892 1146.61,-281.717 1145.55,-290.082"/>
<polygon fill="black" stroke="black" points="1142.12,-289.4 1143.56,-299.897 1148.98,-290.793 1142.12,-289.4"/>
<text text-anchor="middle" x="1151.5" y="-270.3" font-family="Times,serif" font-size="14.00">s2</text>
</g>
<!-- DigitalWatch_smChronometer_lapPaused&#45;&gt;DigitalWatch_smChronometer_lapRunning -->
<g id="edge31" class="edge"><title>DigitalWatch_smChronometer_lapPaused&#45;&gt;DigitalWatch_smChronometer_lapRunning</title>
<path fill="none" stroke="black" d="M1046.81,-248.084C1045.99,-259.861 1044.88,-275.774 1043.93,-289.342"/>
<polygon fill="black" stroke="black" points="1040.42,-289.377 1043.21,-299.597 1047.4,-289.864 1040.42,-289.377"/>
<text text-anchor="middle" x="1052.5" y="-270.3" font-family="Times,serif" font-size="14.00">s1</text>
</g>
<!-- start_DigitalWatch_sm_alarmStatus -->
<g id="node18" class="node"><title>start_DigitalWatch_sm_alarmStatus</title>
<ellipse fill="black" stroke="black" cx="422" cy="-416" rx="7.2" ry="7.2"/>
</g>
<!-- start_DigitalWatch_sm_alarmStatus&#45;&gt;DigitalWatch_smAlarmStatus_bothOff -->
<g id="edge34" class="edge"><title>start_DigitalWatch_sm_alarmStatus&#45;&gt;DigitalWatch_smAlarmStatus_bothOff</title>
<path fill="none" stroke="black" d="M422,-408.701C422,-396.283 422,-367.979 422,-346.462"/>
<polygon fill="black" stroke="black" points="425.5,-346.246 422,-336.246 418.5,-346.246 425.5,-346.246"/>
</g>
<!-- DigitalWatch_smAlarmStatus_bothOff&#45;&gt;DigitalWatch_smRegular_time -->
<g id="edge6" class="edge"><title>DigitalWatch_smAlarmStatus_bothOff&#45;&gt;DigitalWatch_smRegular_time</title>
<path fill="none" stroke="black" d="M465.796,-325.365C504.91,-331.99 563.234,-344.215 611,-364 623.535,-369.192 624.086,-375.836 637,-380 739.508,-413.052 775.796,-375.227 881.779,-397.307"/>
<polygon fill="black" stroke="black" points="881.049,-400.73 891.569,-399.473 882.561,-393.895 881.049,-400.73"/>
<text text-anchor="middle" x="653.5" y="-368.3" font-family="Times,serif" font-size="14.00">notS2</text>
</g>
<!-- DigitalWatch_smAlarmStatus_chimeOn -->
<g id="node20" class="node"><title>DigitalWatch_smAlarmStatus_chimeOn</title>
<path fill="none" stroke="black" d="M426,-248C426,-248 378,-248 378,-248 372,-248 366,-242 366,-236 366,-236 366,-224 366,-224 366,-218 372,-212 378,-212 378,-212 426,-212 426,-212 432,-212 438,-218 438,-224 438,-224 438,-236 438,-236 438,-242 432,-248 426,-248"/>
<text text-anchor="middle" x="402" y="-226.3" font-family="Times,serif" font-size="14.00">chimeOn</text>
</g>
<!-- DigitalWatch_smAlarmStatus_bothOff&#45;&gt;DigitalWatch_smAlarmStatus_chimeOn -->
<g id="edge36" class="edge"><title>DigitalWatch_smAlarmStatus_bothOff&#45;&gt;DigitalWatch_smAlarmStatus_chimeOn</title>
<path fill="none" stroke="black" d="M417.953,-299.597C415.169,-287.629 411.419,-271.501 408.254,-257.891"/>
<polygon fill="black" stroke="black" points="411.647,-257.031 405.973,-248.084 404.829,-258.617 411.647,-257.031"/>
<text text-anchor="middle" x="420.5" y="-270.3" font-family="Times,serif" font-size="14.00">s1</text>
</g>
<!-- DigitalWatch_smAlarmStatus_bothOn -->
<g id="node21" class="node"><title>DigitalWatch_smAlarmStatus_bothOn</title>
<path fill="none" stroke="black" d="M426,-154C426,-154 378,-154 378,-154 372,-154 366,-148 366,-142 366,-142 366,-130 366,-130 366,-124 372,-118 378,-118 378,-118 426,-118 426,-118 432,-118 438,-124 438,-130 438,-130 438,-142 438,-142 438,-148 432,-154 426,-154"/>
<text text-anchor="middle" x="402" y="-132.3" font-family="Times,serif" font-size="14.00">bothOn</text>
</g>
<!-- DigitalWatch_smAlarmStatus_chimeOn&#45;&gt;DigitalWatch_smAlarmStatus_bothOn -->
<g id="edge37" class="edge"><title>DigitalWatch_smAlarmStatus_chimeOn&#45;&gt;DigitalWatch_smAlarmStatus_bothOn</title>
<path fill="none" stroke="black" d="M402,-211.696C402,-198.46 402,-179.947 402,-164.663"/>
<polygon fill="black" stroke="black" points="405.5,-164.227 402,-154.227 398.5,-164.227 405.5,-164.227"/>
<text text-anchor="middle" x="408.5" y="-176.3" font-family="Times,serif" font-size="14.00">s1</text>
</g>
<!-- DigitalWatch_smAlarmStatus_alarmOn -->
<g id="node22" class="node"><title>DigitalWatch_smAlarmStatus_alarmOn</title>
<path fill="none" stroke="black" d="M441,-60C441,-60 393,-60 393,-60 387,-60 381,-54 381,-48 381,-48 381,-36 381,-36 381,-30 387,-24 393,-24 393,-24 441,-24 441,-24 447,-24 453,-30 453,-36 453,-36 453,-48 453,-48 453,-54 447,-60 441,-60"/>
<text text-anchor="middle" x="417" y="-38.3" font-family="Times,serif" font-size="14.00">alarmOn</text>
</g>
<!-- DigitalWatch_smAlarmStatus_bothOn&#45;&gt;DigitalWatch_smAlarmStatus_alarmOn -->
<g id="edge38" class="edge"><title>DigitalWatch_smAlarmStatus_bothOn&#45;&gt;DigitalWatch_smAlarmStatus_alarmOn</title>
<path fill="none" stroke="black" d="M404.821,-117.696C407,-104.331 410.056,-85.5871 412.562,-70.2192"/>
<polygon fill="black" stroke="black" points="416.036,-70.6598 414.191,-60.2269 409.128,-69.5333 416.036,-70.6598"/>
<text text-anchor="middle" x="418.5" y="-82.3" font-family="Times,serif" font-size="14.00">s1</text>
</g>
<!-- DigitalWatch_smAlarmStatus_alarmOn&#45;&gt;DigitalWatch_smAlarmStatus_bothOff -->
<g id="edge35" class="edge"><title>DigitalWatch_smAlarmStatus_alarmOn&#45;&gt;DigitalWatch_smAlarmStatus_bothOff</title>
<path fill="none" stroke="black" d="M428.501,-60.2248C435.36,-71.5625 443.412,-87.0258 447,-102 462.122,-165.102 458.221,-184.089 447,-248 444.462,-262.457 439.145,-277.876 434.065,-290.463"/>
<polygon fill="black" stroke="black" points="430.755,-289.303 430.099,-299.878 437.206,-292.021 430.755,-289.303"/>
<text text-anchor="middle" x="463.5" y="-176.3" font-family="Times,serif" font-size="14.00">s1</text>
</g>
<!-- start_DigitalWatch_sm_alarmUpdate -->
<g id="node23" class="node"><title>start_DigitalWatch_sm_alarmUpdate</title>
<ellipse fill="black" stroke="black" cx="55" cy="-416" rx="7.2" ry="7.2"/>
</g>
<!-- start_DigitalWatch_sm_alarmUpdate&#45;&gt;DigitalWatch_smAlarmUpdate_alarmTime -->
<g id="edge39" class="edge"><title>start_DigitalWatch_sm_alarmUpdate&#45;&gt;DigitalWatch_smAlarmUpdate_alarmTime</title>
<path fill="none" stroke="black" d="M55,-408.701C55,-396.283 55,-367.979 55,-346.462"/>
<polygon fill="black" stroke="black" points="58.5001,-346.246 55,-336.246 51.5001,-346.246 58.5001,-346.246"/>
</g>
<!-- DigitalWatch_smAlarmUpdate_alarmTime&#45;&gt;DigitalWatch_smRegularUpdate_second -->
<g id="edge11" class="edge"><title>DigitalWatch_smAlarmUpdate_alarmTime&#45;&gt;DigitalWatch_smRegularUpdate_second</title>
<path fill="none" stroke="black" d="M258.061,-453.855C280.748,-463.844 307.012,-473.683 341,-485 456.473,-523.45 600.303,-537.085 672.734,-541.729"/>
<polygon fill="black" stroke="black" points="672.696,-545.233 682.891,-542.351 673.124,-538.246 672.696,-545.233"/>
<text text-anchor="middle" x="347.5" y="-412.3" font-family="Times,serif" font-size="14.00">s3</text>
</g>
<!-- DigitalWatch_smAlarmUpdateHourMinuteUpdate_alarmHour -->
<g id="node26" class="node"><title>DigitalWatch_smAlarmUpdateHourMinuteUpdate_alarmHour</title>
<path fill="none" stroke="black" d="M182.25,-248C182.25,-248 129.75,-248 129.75,-248 123.75,-248 117.75,-242 117.75,-236 117.75,-236 117.75,-224 117.75,-224 117.75,-218 123.75,-212 129.75,-212 129.75,-212 182.25,-212 182.25,-212 188.25,-212 194.25,-218 194.25,-224 194.25,-224 194.25,-236 194.25,-236 194.25,-242 188.25,-248 182.25,-248"/>
<text text-anchor="middle" x="156" y="-226.3" font-family="Times,serif" font-size="14.00">alarmHour</text>
</g>
<!-- DigitalWatch_smAlarmUpdate_alarmTime&#45;&gt;DigitalWatch_smAlarmUpdateHourMinuteUpdate_alarmHour -->
<g id="edge42" class="edge"><title>DigitalWatch_smAlarmUpdate_alarmTime&#45;&gt;DigitalWatch_smAlarmUpdateHourMinuteUpdate_alarmHour</title>
<path fill="none" stroke="black" d="M58.6483,-299.54C61.6934,-288.715 67.0265,-275.171 76,-266 78.7918,-263.147 92.8288,-256.716 108.385,-250.136"/>
<polygon fill="black" stroke="black" points="109.766,-253.352 117.646,-246.27 107.07,-246.892 109.766,-253.352"/>
<text text-anchor="middle" x="128" y="-270.3" font-family="Times,serif" font-size="14.00">s2 / alarmHour++;</text>
</g>
<!-- DigitalWatch_smAlarmUpdateHourMinuteUpdate_alarmMinute -->
<g id="node27" class="node"><title>DigitalWatch_smAlarmUpdateHourMinuteUpdate_alarmMinute</title>
<path fill="none" stroke="black" d="M187.25,-154C187.25,-154 122.75,-154 122.75,-154 116.75,-154 110.75,-148 110.75,-142 110.75,-142 110.75,-130 110.75,-130 110.75,-124 116.75,-118 122.75,-118 122.75,-118 187.25,-118 187.25,-118 193.25,-118 199.25,-124 199.25,-130 199.25,-130 199.25,-142 199.25,-142 199.25,-148 193.25,-154 187.25,-154"/>
<text text-anchor="middle" x="155" y="-132.3" font-family="Times,serif" font-size="14.00">alarmMinute</text>
</g>
<!-- DigitalWatch_smAlarmUpdate_alarmTime&#45;&gt;DigitalWatch_smAlarmUpdateHourMinuteUpdate_alarmMinute -->
<g id="edge45" class="edge"><title>DigitalWatch_smAlarmUpdate_alarmTime&#45;&gt;DigitalWatch_smAlarmUpdateHourMinuteUpdate_alarmMinute</title>
<path fill="none" stroke="black" d="M56.0592,-299.725C56.9956,-289.717 58.7456,-276.967 62,-266 71.7848,-233.026 75.0947,-224.05 95,-196 103.98,-183.345 115.838,-171.034 126.639,-160.961"/>
<polygon fill="black" stroke="black" points="129.205,-163.359 134.261,-154.048 124.502,-158.174 129.205,-163.359"/>
<text text-anchor="middle" x="101.5" y="-226.3" font-family="Times,serif" font-size="14.00">s1</text>
</g>
<!-- start_DigitalWatch_sm_alarmUpdate_hourMinuteUpdate -->
<g id="node25" class="node"><title>start_DigitalWatch_sm_alarmUpdate_hourMinuteUpdate</title>
<ellipse fill="black" stroke="black" cx="189" cy="-318" rx="7.2" ry="7.2"/>
</g>
<!-- start_DigitalWatch_sm_alarmUpdate_hourMinuteUpdate&#45;&gt;DigitalWatch_smAlarmUpdateHourMinuteUpdate_alarmHour -->
<g id="edge41" class="edge"><title>start_DigitalWatch_sm_alarmUpdate_hourMinuteUpdate&#45;&gt;DigitalWatch_smAlarmUpdateHourMinuteUpdate_alarmHour</title>
<path fill="none" stroke="black" d="M189.499,-310.765C190.052,-300.876 190.167,-281.164 184,-266 182.67,-262.729 180.932,-259.518 178.972,-256.449"/>
<polygon fill="black" stroke="black" points="181.722,-254.279 173.016,-248.241 176.056,-258.39 181.722,-254.279"/>
</g>
<!-- DigitalWatch_smAlarmUpdateHourMinuteUpdate_alarmHour&#45;&gt;DigitalWatch_smAlarmUpdateHourMinuteUpdate_alarmHour -->
<g id="edge43" class="edge"><title>DigitalWatch_smAlarmUpdateHourMinuteUpdate_alarmHour&#45;&gt;DigitalWatch_smAlarmUpdateHourMinuteUpdate_alarmHour</title>
<path fill="none" stroke="black" d="M194.475,-238.165C204.466,-237.663 212,-234.941 212,-230 212,-226.912 209.057,-224.69 204.411,-223.336"/>
<polygon fill="black" stroke="black" points="204.886,-219.868 194.475,-221.835 203.84,-226.79 204.886,-219.868"/>
<text text-anchor="middle" x="264" y="-226.3" font-family="Times,serif" font-size="14.00">s2 / alarmHour++;</text>
</g>
<!-- DigitalWatch_smAlarmUpdateHourMinuteUpdate_alarmHour&#45;&gt;DigitalWatch_smAlarmUpdateHourMinuteUpdate_alarmMinute -->
<g id="edge46" class="edge"><title>DigitalWatch_smAlarmUpdateHourMinuteUpdate_alarmHour&#45;&gt;DigitalWatch_smAlarmUpdateHourMinuteUpdate_alarmMinute</title>
<path fill="none" stroke="black" d="M146.209,-211.965C140.924,-200.728 136.034,-185.622 139,-172 139.593,-169.279 140.416,-166.515 141.381,-163.796"/>
<polygon fill="black" stroke="black" points="144.724,-164.871 145.324,-154.294 138.258,-162.188 144.724,-164.871"/>
<text text-anchor="middle" x="145.5" y="-176.3" font-family="Times,serif" font-size="14.00">s1</text>
</g>
<!-- DigitalWatch_smAlarmUpdateHourMinuteUpdate_alarmMinute&#45;&gt;DigitalWatch_smAlarmUpdateHourMinuteUpdate_alarmHour -->
<g id="edge44" class="edge"><title>DigitalWatch_smAlarmUpdateHourMinuteUpdate_alarmMinute&#45;&gt;DigitalWatch_smAlarmUpdateHourMinuteUpdate_alarmHour</title>
<path fill="none" stroke="black" d="M155.187,-154.227C155.332,-167.57 155.536,-186.311 155.703,-201.691"/>
<polygon fill="black" stroke="black" points="152.203,-201.734 155.812,-211.696 159.203,-201.658 152.203,-201.734"/>
<text text-anchor="middle" x="162.5" y="-176.3" font-family="Times,serif" font-size="14.00">s1</text>
</g>
<!-- DigitalWatch_smAlarmUpdateHourMinuteUpdate_alarmMinute&#45;&gt;DigitalWatch_smAlarmUpdateHourMinuteUpdate_alarmMinute -->
<g id="edge47" class="edge"><title>DigitalWatch_smAlarmUpdateHourMinuteUpdate_alarmMinute&#45;&gt;DigitalWatch_smAlarmUpdateHourMinuteUpdate_alarmMinute</title>
<path fill="none" stroke="black" d="M199.306,-144.068C209.507,-143.373 217,-140.684 217,-136 217,-133.073 214.073,-130.924 209.387,-129.555"/>
<polygon fill="black" stroke="black" points="209.735,-126.066 199.306,-127.932 208.622,-132.977 209.735,-126.066"/>
<text text-anchor="middle" x="275" y="-132.3" font-family="Times,serif" font-size="14.00">s2 / alarmMinute++;</text>
</g>
</g>
</svg>
