<?xml version="1.0" encoding="UTF-8" standalone="no"?>
<!DOCTYPE svg PUBLIC "-//W3C//DTD SVG 1.1//EN"
 "http://www.w3.org/Graphics/SVG/1.1/DTD/svg11.dtd">
<!-- Generated by graphviz version 2.36.0 (20140111.2315)
 -->
<!-- Title: DigitalWatchFlat Pages: 1 -->
<svg width="950pt" height="720pt"
 viewBox="0.00 0.00 950.27 720.00" xmlns="http://www.w3.org/2000/svg" xmlns:xlink="http://www.w3.org/1999/xlink">
<g id="graph0" class="graph" transform="scale(0.810811 0.810811) rotate(0) translate(4 884)">
<title>DigitalWatchFlat</title>
<polygon fill="white" stroke="none" points="-4,4 -4,-884 1168,-884 1168,4 -4,4"/>
<!-- start_DigitalWatch_sm -->
<g id="node1" class="node"><title>start_DigitalWatch_sm</title>
<ellipse fill="black" stroke="black" cx="474" cy="-873" rx="7.2" ry="7.2"/>
</g>
<!-- DigitalWatch_sm_time -->
<g id="node2" class="node"><title>DigitalWatch_sm_time</title>
<path fill="none" stroke="black" d="M498,-828C498,-828 450,-828 450,-828 444,-828 438,-822 438,-816 438,-816 438,-804 438,-804 438,-798 444,-792 450,-792 450,-792 498,-792 498,-792 504,-792 510,-798 510,-804 510,-804 510,-816 510,-816 510,-822 504,-828 498,-828"/>
<text text-anchor="middle" x="474" y="-806.3" font-family="Times,serif" font-size="14.00">time</text>
</g>
<!-- start_DigitalWatch_sm&#45;&gt;DigitalWatch_sm_time -->
<g id="edge1" class="edge"><title>start_DigitalWatch_sm&#45;&gt;DigitalWatch_sm_time</title>
<path fill="none" stroke="black" d="M474,-865.472C474,-858.902 474,-848.324 474,-838.229"/>
<polygon fill="black" stroke="black" points="477.5,-838.073 474,-828.073 470.5,-838.073 477.5,-838.073"/>
</g>
<!-- DigitalWatch_sm_date -->
<g id="node3" class="node"><title>DigitalWatch_sm_date</title>
<path fill="none" stroke="black" d="M60,-740C60,-740 12,-740 12,-740 6,-740 0,-734 0,-728 0,-728 0,-716 0,-716 0,-710 6,-704 12,-704 12,-704 60,-704 60,-704 66,-704 72,-710 72,-716 72,-716 72,-728 72,-728 72,-734 66,-740 60,-740"/>
<text text-anchor="middle" x="36" y="-718.3" font-family="Times,serif" font-size="14.00">date</text>
</g>
<!-- DigitalWatch_sm_time&#45;&gt;DigitalWatch_sm_date -->
<g id="edge17" class="edge"><title>DigitalWatch_sm_time&#45;&gt;DigitalWatch_sm_date</title>
<path fill="none" stroke="black" d="M437.845,-809.435C351.891,-809.9 137.897,-807.55 76,-774 65.3961,-768.252 56.6595,-758.377 50.0855,-748.838"/>
<polygon fill="black" stroke="black" points="52.9796,-746.866 44.6646,-740.3 47.0702,-750.619 52.9796,-746.866"/>
<text text-anchor="middle" x="82.5" y="-762.3" font-family="Times,serif" font-size="14.00">s1</text>
</g>
<!-- DigitalWatch_sm_paused -->
<g id="node4" class="node"><title>DigitalWatch_sm_paused</title>
<path fill="none" stroke="black" d="M150,-740C150,-740 102,-740 102,-740 96,-740 90,-734 90,-728 90,-728 90,-716 90,-716 90,-710 96,-704 102,-704 102,-704 150,-704 150,-704 156,-704 162,-710 162,-716 162,-716 162,-728 162,-728 162,-734 156,-740 150,-740"/>
<text text-anchor="middle" x="126" y="-718.3" font-family="Times,serif" font-size="14.00">paused</text>
</g>
<!-- DigitalWatch_sm_time&#45;&gt;DigitalWatch_sm_paused -->
<g id="edge18" class="edge"><title>DigitalWatch_sm_time&#45;&gt;DigitalWatch_sm_paused</title>
<path fill="none" stroke="black" d="M437.828,-806.65C373.073,-802.078 240.086,-790.925 197,-774 180.777,-767.627 164.821,-756.709 152.157,-746.605"/>
<polygon fill="black" stroke="black" points="154.277,-743.817 144.341,-740.139 149.815,-749.21 154.277,-743.817"/>
<text text-anchor="middle" x="203.5" y="-762.3" font-family="Times,serif" font-size="14.00">s3</text>
</g>
<!-- DigitalWatch_sm_bothOff -->
<g id="node8" class="node"><title>DigitalWatch_sm_bothOff</title>
<path fill="none" stroke="black" d="M482,-740C482,-740 434,-740 434,-740 428,-740 422,-734 422,-728 422,-728 422,-716 422,-716 422,-710 428,-704 434,-704 434,-704 482,-704 482,-704 488,-704 494,-710 494,-716 494,-716 494,-728 494,-728 494,-734 488,-740 482,-740"/>
<text text-anchor="middle" x="458" y="-718.3" font-family="Times,serif" font-size="14.00">bothOff</text>
</g>
<!-- DigitalWatch_sm_time&#45;&gt;DigitalWatch_sm_bothOff -->
<g id="edge27" class="edge"><title>DigitalWatch_sm_time&#45;&gt;DigitalWatch_sm_bothOff</title>
<path fill="none" stroke="black" d="M457.807,-791.735C453.818,-786.436 450.092,-780.324 448,-774 445.478,-766.376 445.918,-757.889 447.566,-750.06"/>
<polygon fill="black" stroke="black" points="450.98,-750.848 450.28,-740.276 444.234,-748.977 450.98,-750.848"/>
<text text-anchor="middle" x="454.5" y="-762.3" font-family="Times,serif" font-size="14.00">s2</text>
</g>
<!-- DigitalWatch_sm_alarmTime -->
<g id="node12" class="node"><title>DigitalWatch_sm_alarmTime</title>
<path fill="none" stroke="black" d="M813,-740C813,-740 759,-740 759,-740 753,-740 747,-734 747,-728 747,-728 747,-716 747,-716 747,-710 753,-704 759,-704 759,-704 813,-704 813,-704 819,-704 825,-710 825,-716 825,-716 825,-728 825,-728 825,-734 819,-740 813,-740"/>
<text text-anchor="middle" x="786" y="-718.3" font-family="Times,serif" font-size="14.00">alarmTime</text>
</g>
<!-- DigitalWatch_sm_time&#45;&gt;DigitalWatch_sm_alarmTime -->
<g id="edge32" class="edge"><title>DigitalWatch_sm_time&#45;&gt;DigitalWatch_sm_alarmTime</title>
<path fill="none" stroke="black" d="M510.079,-809.752C559.816,-809.514 651.309,-804.432 722,-774 736.701,-767.671 750.857,-757.036 762.101,-747.11"/>
<polygon fill="black" stroke="black" points="764.752,-749.427 769.74,-740.08 760.012,-744.277 764.752,-749.427"/>
<text text-anchor="middle" x="788" y="-762.3" font-family="Times,serif" font-size="14.00">s3during2Secs</text>
</g>
<!-- DigitalWatch_sm_date&#45;&gt;DigitalWatch_sm_time -->
<g id="edge2" class="edge"><title>DigitalWatch_sm_date&#45;&gt;DigitalWatch_sm_time</title>
<path fill="none" stroke="black" d="M61.4047,-740.197C79.879,-751.792 105.942,-766.326 131,-774 233.543,-805.405 360.558,-809.995 427.565,-809.921"/>
<polygon fill="black" stroke="black" points="427.808,-813.42 437.791,-809.872 427.774,-806.42 427.808,-813.42"/>
<text text-anchor="middle" x="147.5" y="-762.3" font-family="Times,serif" font-size="14.00">notS1</text>
</g>
<!-- DigitalWatch_sm_paused&#45;&gt;DigitalWatch_sm_time -->
<g id="edge3" class="edge"><title>DigitalWatch_sm_paused&#45;&gt;DigitalWatch_sm_time</title>
<path fill="none" stroke="black" d="M162.096,-736.983C178.062,-743.264 197.027,-750.856 214,-758 230.138,-764.792 233.205,-769.05 250,-774 309.896,-791.653 381.579,-800.868 427.438,-805.323"/>
<polygon fill="black" stroke="black" points="427.385,-808.834 437.667,-806.28 428.036,-801.864 427.385,-808.834"/>
<text text-anchor="middle" x="256.5" y="-762.3" font-family="Times,serif" font-size="14.00">s3</text>
</g>
<!-- DigitalWatch_sm_paused&#45;&gt;DigitalWatch_sm_paused -->
<g id="edge19" class="edge"><title>DigitalWatch_sm_paused&#45;&gt;DigitalWatch_sm_paused</title>
<path fill="none" stroke="black" d="M162.087,-730.209C172.221,-729.85 180,-727.113 180,-722 180,-718.804 176.961,-716.537 172.208,-715.198"/>
<polygon fill="black" stroke="black" points="172.474,-711.701 162.087,-713.791 171.51,-718.635 172.474,-711.701"/>
<text text-anchor="middle" x="210.5" y="-718.3" font-family="Times,serif" font-size="14.00">s2 / zero();</text>
</g>
<!-- DigitalWatch_sm_running -->
<g id="node5" class="node"><title>DigitalWatch_sm_running</title>
<path fill="none" stroke="black" d="M239,-652C239,-652 191,-652 191,-652 185,-652 179,-646 179,-640 179,-640 179,-628 179,-628 179,-622 185,-616 191,-616 191,-616 239,-616 239,-616 245,-616 251,-622 251,-628 251,-628 251,-640 251,-640 251,-646 245,-652 239,-652"/>
<text text-anchor="middle" x="215" y="-630.3" font-family="Times,serif" font-size="14.00">running</text>
</g>
<!-- DigitalWatch_sm_paused&#45;&gt;DigitalWatch_sm_running -->
<g id="edge22" class="edge"><title>DigitalWatch_sm_paused&#45;&gt;DigitalWatch_sm_running</title>
<path fill="none" stroke="black" d="M162.203,-706.676C172.447,-701.337 182.979,-694.467 191,-686 197.482,-679.158 202.483,-670.245 206.201,-661.789"/>
<polygon fill="black" stroke="black" points="209.561,-662.809 209.987,-652.222 203.053,-660.233 209.561,-662.809"/>
<text text-anchor="middle" x="208.5" y="-674.3" font-family="Times,serif" font-size="14.00">s1</text>
</g>
<!-- DigitalWatch_sm_running&#45;&gt;DigitalWatch_sm_time -->
<g id="edge4" class="edge"><title>DigitalWatch_sm_running&#45;&gt;DigitalWatch_sm_time</title>
<path fill="none" stroke="black" d="M223.83,-652.22C241.388,-685.808 280.976,-758.175 304,-774 340.389,-799.011 390.819,-806.857 427.294,-808.993"/>
<polygon fill="black" stroke="black" points="427.51,-812.507 437.66,-809.47 427.832,-805.514 427.51,-812.507"/>
<text text-anchor="middle" x="281.5" y="-718.3" font-family="Times,serif" font-size="14.00">s3</text>
</g>
<!-- DigitalWatch_sm_running&#45;&gt;DigitalWatch_sm_paused -->
<g id="edge20" class="edge"><title>DigitalWatch_sm_running&#45;&gt;DigitalWatch_sm_paused</title>
<path fill="none" stroke="black" d="M196.872,-652.025C190.845,-657.717 184.114,-664.111 178,-670 168.984,-678.685 159.164,-688.279 150.511,-696.781"/>
<polygon fill="black" stroke="black" points="147.929,-694.412 143.257,-703.921 152.839,-699.401 147.929,-694.412"/>
<text text-anchor="middle" x="184.5" y="-674.3" font-family="Times,serif" font-size="14.00">s1</text>
</g>
<!-- DigitalWatch_sm_lapRunning -->
<g id="node6" class="node"><title>DigitalWatch_sm_lapRunning</title>
<path fill="none" stroke="black" d="M280,-564C280,-564 222,-564 222,-564 216,-564 210,-558 210,-552 210,-552 210,-540 210,-540 210,-534 216,-528 222,-528 222,-528 280,-528 280,-528 286,-528 292,-534 292,-540 292,-540 292,-552 292,-552 292,-558 286,-564 280,-564"/>
<text text-anchor="middle" x="251" y="-542.3" font-family="Times,serif" font-size="14.00">lapRunning</text>
</g>
<!-- DigitalWatch_sm_running&#45;&gt;DigitalWatch_sm_lapRunning -->
<g id="edge24" class="edge"><title>DigitalWatch_sm_running&#45;&gt;DigitalWatch_sm_lapRunning</title>
<path fill="none" stroke="black" d="M210.662,-615.765C208.962,-605.536 208.374,-592.55 213,-582 214.615,-578.316 216.831,-574.849 219.386,-571.636"/>
<polygon fill="black" stroke="black" points="222.057,-573.904 226.292,-564.192 216.925,-569.143 222.057,-573.904"/>
<text text-anchor="middle" x="219.5" y="-586.3" font-family="Times,serif" font-size="14.00">s2</text>
</g>
<!-- DigitalWatch_sm_lapRunning&#45;&gt;DigitalWatch_sm_time -->
<g id="edge5" class="edge"><title>DigitalWatch_sm_lapRunning&#45;&gt;DigitalWatch_sm_time</title>
<path fill="none" stroke="black" d="M255.716,-564.172C269.145,-611.904 308.771,-744.599 342,-774 365.459,-794.757 399.863,-803.411 427.666,-806.926"/>
<polygon fill="black" stroke="black" points="427.644,-810.444 437.962,-808.036 428.395,-803.485 427.644,-810.444"/>
<text text-anchor="middle" x="302.5" y="-674.3" font-family="Times,serif" font-size="14.00">s3</text>
</g>
<!-- DigitalWatch_sm_lapRunning&#45;&gt;DigitalWatch_sm_running -->
<g id="edge23" class="edge"><title>DigitalWatch_sm_lapRunning&#45;&gt;DigitalWatch_sm_running</title>
<path fill="none" stroke="black" d="M243.849,-564.084C238.821,-576.094 231.993,-592.406 226.242,-606.145"/>
<polygon fill="black" stroke="black" points="222.918,-605.021 222.285,-615.597 229.375,-607.724 222.918,-605.021"/>
<text text-anchor="middle" x="243.5" y="-586.3" font-family="Times,serif" font-size="14.00">s2</text>
</g>
<!-- DigitalWatch_sm_lapPaused -->
<g id="node7" class="node"><title>DigitalWatch_sm_lapPaused</title>
<path fill="none" stroke="black" d="M275.25,-476C275.25,-476 226.75,-476 226.75,-476 220.75,-476 214.75,-470 214.75,-464 214.75,-464 214.75,-452 214.75,-452 214.75,-446 220.75,-440 226.75,-440 226.75,-440 275.25,-440 275.25,-440 281.25,-440 287.25,-446 287.25,-452 287.25,-452 287.25,-464 287.25,-464 287.25,-470 281.25,-476 275.25,-476"/>
<text text-anchor="middle" x="251" y="-454.3" font-family="Times,serif" font-size="14.00">lapPaused</text>
</g>
<!-- DigitalWatch_sm_lapRunning&#45;&gt;DigitalWatch_sm_lapPaused -->
<g id="edge26" class="edge"><title>DigitalWatch_sm_lapRunning&#45;&gt;DigitalWatch_sm_lapPaused</title>
<path fill="none" stroke="black" d="M240.724,-527.769C237.98,-522.28 235.393,-516.057 234,-510 232.406,-503.07 232.406,-500.93 234,-494 234.653,-491.161 235.568,-488.285 236.639,-485.466"/>
<polygon fill="black" stroke="black" points="239.88,-486.792 240.724,-476.231 233.478,-483.961 239.88,-486.792"/>
<text text-anchor="middle" x="240.5" y="-498.3" font-family="Times,serif" font-size="14.00">s1</text>
</g>
<!-- DigitalWatch_sm_lapPaused&#45;&gt;DigitalWatch_sm_time -->
<g id="edge6" class="edge"><title>DigitalWatch_sm_lapPaused&#45;&gt;DigitalWatch_sm_time</title>
<path fill="none" stroke="black" d="M265.124,-476.119C275.849,-489.645 290.495,-509.298 301,-528 359.049,-631.342 323.046,-687.421 404,-774 410.89,-781.369 419.672,-787.408 428.669,-792.268"/>
<polygon fill="black" stroke="black" points="427.162,-795.427 437.675,-796.741 430.276,-789.158 427.162,-795.427"/>
<text text-anchor="middle" x="349.5" y="-630.3" font-family="Times,serif" font-size="14.00">s3</text>
</g>
<!-- DigitalWatch_sm_lapPaused&#45;&gt;DigitalWatch_sm_paused -->
<g id="edge21" class="edge"><title>DigitalWatch_sm_lapPaused&#45;&gt;DigitalWatch_sm_paused</title>
<path fill="none" stroke="black" d="M236.739,-476.043C225.94,-489.529 211.263,-509.163 201,-528 170.345,-584.266 146.02,-655.742 134.07,-693.972"/>
<polygon fill="black" stroke="black" points="130.632,-693.246 131.033,-703.833 137.322,-695.306 130.632,-693.246"/>
<text text-anchor="middle" x="181.5" y="-586.3" font-family="Times,serif" font-size="14.00">s2</text>
</g>
<!-- DigitalWatch_sm_lapPaused&#45;&gt;DigitalWatch_sm_lapRunning -->
<g id="edge25" class="edge"><title>DigitalWatch_sm_lapPaused&#45;&gt;DigitalWatch_sm_lapRunning</title>
<path fill="none" stroke="black" d="M251,-476.084C251,-487.861 251,-503.774 251,-517.342"/>
<polygon fill="black" stroke="black" points="247.5,-517.597 251,-527.597 254.5,-517.597 247.5,-517.597"/>
<text text-anchor="middle" x="257.5" y="-498.3" font-family="Times,serif" font-size="14.00">s1</text>
</g>
<!-- DigitalWatch_sm_bothOff&#45;&gt;DigitalWatch_sm_time -->
<g id="edge7" class="edge"><title>DigitalWatch_sm_bothOff&#45;&gt;DigitalWatch_sm_time</title>
<path fill="none" stroke="black" d="M461.178,-740.084C463.391,-751.977 466.389,-768.09 468.929,-781.744"/>
<polygon fill="black" stroke="black" points="465.492,-782.406 470.762,-791.597 472.374,-781.125 465.492,-782.406"/>
<text text-anchor="middle" x="484.5" y="-762.3" font-family="Times,serif" font-size="14.00">notS2</text>
</g>
<!-- DigitalWatch_sm_chimeOn -->
<g id="node9" class="node"><title>DigitalWatch_sm_chimeOn</title>
<path fill="none" stroke="black" d="M543,-652C543,-652 495,-652 495,-652 489,-652 483,-646 483,-640 483,-640 483,-628 483,-628 483,-622 489,-616 495,-616 495,-616 543,-616 543,-616 549,-616 555,-622 555,-628 555,-628 555,-640 555,-640 555,-646 549,-652 543,-652"/>
<text text-anchor="middle" x="519" y="-630.3" font-family="Times,serif" font-size="14.00">chimeOn</text>
</g>
<!-- DigitalWatch_sm_bothOff&#45;&gt;DigitalWatch_sm_chimeOn -->
<g id="edge29" class="edge"><title>DigitalWatch_sm_bothOff&#45;&gt;DigitalWatch_sm_chimeOn</title>
<path fill="none" stroke="black" d="M466.944,-703.949C472.537,-693.787 480.151,-680.804 488,-670 490.4,-666.696 493.055,-663.339 495.77,-660.077"/>
<polygon fill="black" stroke="black" points="498.645,-662.104 502.537,-652.25 493.35,-657.525 498.645,-662.104"/>
<text text-anchor="middle" x="494.5" y="-674.3" font-family="Times,serif" font-size="14.00">s1</text>
</g>
<!-- DigitalWatch_sm_chimeOn&#45;&gt;DigitalWatch_sm_time -->
<g id="edge8" class="edge"><title>DigitalWatch_sm_chimeOn&#45;&gt;DigitalWatch_sm_time</title>
<path fill="none" stroke="black" d="M543.708,-652.192C549.086,-657.253 554.047,-663.264 557,-670 575.936,-713.186 564.371,-736.334 536,-774 531.45,-780.041 525.533,-785.194 519.162,-789.538"/>
<polygon fill="black" stroke="black" points="516.986,-786.766 510.28,-794.968 520.637,-792.738 516.986,-786.766"/>
<text text-anchor="middle" x="583.5" y="-718.3" font-family="Times,serif" font-size="14.00">notS2</text>
</g>
<!-- DigitalWatch_sm_bothOn -->
<g id="node10" class="node"><title>DigitalWatch_sm_bothOn</title>
<path fill="none" stroke="black" d="M543,-564C543,-564 495,-564 495,-564 489,-564 483,-558 483,-552 483,-552 483,-540 483,-540 483,-534 489,-528 495,-528 495,-528 543,-528 543,-528 549,-528 555,-534 555,-540 555,-540 555,-552 555,-552 555,-558 549,-564 543,-564"/>
<text text-anchor="middle" x="519" y="-542.3" font-family="Times,serif" font-size="14.00">bothOn</text>
</g>
<!-- DigitalWatch_sm_chimeOn&#45;&gt;DigitalWatch_sm_bothOn -->
<g id="edge30" class="edge"><title>DigitalWatch_sm_chimeOn&#45;&gt;DigitalWatch_sm_bothOn</title>
<path fill="none" stroke="black" d="M519,-615.597C519,-603.746 519,-587.817 519,-574.292"/>
<polygon fill="black" stroke="black" points="522.5,-574.084 519,-564.084 515.5,-574.084 522.5,-574.084"/>
<text text-anchor="middle" x="525.5" y="-586.3" font-family="Times,serif" font-size="14.00">s1</text>
</g>
<!-- DigitalWatch_sm_bothOn&#45;&gt;DigitalWatch_sm_time -->
<g id="edge9" class="edge"><title>DigitalWatch_sm_bothOn&#45;&gt;DigitalWatch_sm_time</title>
<path fill="none" stroke="black" d="M534.157,-564.005C544.814,-577.164 558.172,-596.397 564,-616 568.559,-631.337 567.573,-636.404 564,-652 550.549,-710.709 538.392,-723.874 505,-774 502.736,-777.399 500.164,-780.814 497.494,-784.107"/>
<polygon fill="black" stroke="black" points="494.612,-782.09 490.769,-791.964 499.931,-786.642 494.612,-782.09"/>
<text text-anchor="middle" x="576.5" y="-674.3" font-family="Times,serif" font-size="14.00">notS2</text>
</g>
<!-- DigitalWatch_sm_alarmOn -->
<g id="node11" class="node"><title>DigitalWatch_sm_alarmOn</title>
<path fill="none" stroke="black" d="M479,-476C479,-476 431,-476 431,-476 425,-476 419,-470 419,-464 419,-464 419,-452 419,-452 419,-446 425,-440 431,-440 431,-440 479,-440 479,-440 485,-440 491,-446 491,-452 491,-452 491,-464 491,-464 491,-470 485,-476 479,-476"/>
<text text-anchor="middle" x="455" y="-454.3" font-family="Times,serif" font-size="14.00">alarmOn</text>
</g>
<!-- DigitalWatch_sm_bothOn&#45;&gt;DigitalWatch_sm_alarmOn -->
<g id="edge31" class="edge"><title>DigitalWatch_sm_bothOn&#45;&gt;DigitalWatch_sm_alarmOn</title>
<path fill="none" stroke="black" d="M506.049,-527.597C496.793,-515.159 484.194,-498.23 473.829,-484.302"/>
<polygon fill="black" stroke="black" points="476.492,-482.017 467.714,-476.084 470.876,-486.196 476.492,-482.017"/>
<text text-anchor="middle" x="499.5" y="-498.3" font-family="Times,serif" font-size="14.00">s1</text>
</g>
<!-- DigitalWatch_sm_alarmOn&#45;&gt;DigitalWatch_sm_time -->
<g id="edge10" class="edge"><title>DigitalWatch_sm_alarmOn&#45;&gt;DigitalWatch_sm_time</title>
<path fill="none" stroke="black" d="M432.978,-476.272C415.505,-492.075 394,-517.176 394,-545 394,-723 394,-723 394,-723 394,-749.346 414.377,-771.004 434.562,-785.995"/>
<polygon fill="black" stroke="black" points="432.645,-788.926 442.841,-791.807 436.667,-783.197 432.645,-788.926"/>
<text text-anchor="middle" x="410.5" y="-630.3" font-family="Times,serif" font-size="14.00">notS2</text>
</g>
<!-- DigitalWatch_sm_alarmOn&#45;&gt;DigitalWatch_sm_bothOff -->
<g id="edge28" class="edge"><title>DigitalWatch_sm_alarmOn&#45;&gt;DigitalWatch_sm_bothOff</title>
<path fill="none" stroke="black" d="M455.198,-476.254C455.707,-520.738 457.068,-639.605 457.686,-693.616"/>
<polygon fill="black" stroke="black" points="454.189,-693.85 457.803,-703.809 461.188,-693.77 454.189,-693.85"/>
<text text-anchor="middle" x="463.5" y="-586.3" font-family="Times,serif" font-size="14.00">s1</text>
</g>
<!-- DigitalWatch_sm_alarmHour -->
<g id="node13" class="node"><title>DigitalWatch_sm_alarmHour</title>
<path fill="none" stroke="black" d="M839.25,-652C839.25,-652 786.75,-652 786.75,-652 780.75,-652 774.75,-646 774.75,-640 774.75,-640 774.75,-628 774.75,-628 774.75,-622 780.75,-616 786.75,-616 786.75,-616 839.25,-616 839.25,-616 845.25,-616 851.25,-622 851.25,-628 851.25,-628 851.25,-640 851.25,-640 851.25,-646 845.25,-652 839.25,-652"/>
<text text-anchor="middle" x="813" y="-630.3" font-family="Times,serif" font-size="14.00">alarmHour</text>
</g>
<!-- DigitalWatch_sm_alarmTime&#45;&gt;DigitalWatch_sm_alarmHour -->
<g id="edge33" class="edge"><title>DigitalWatch_sm_alarmTime&#45;&gt;DigitalWatch_sm_alarmHour</title>
<path fill="none" stroke="black" d="M791.464,-703.597C795.221,-691.629 800.285,-675.501 804.558,-661.891"/>
<polygon fill="black" stroke="black" points="807.98,-662.673 807.636,-652.084 801.302,-660.576 807.98,-662.673"/>
<text text-anchor="middle" x="854" y="-674.3" font-family="Times,serif" font-size="14.00">s2 / alarmHour++;</text>
</g>
<!-- DigitalWatch_sm_alarmMinute -->
<g id="node14" class="node"><title>DigitalWatch_sm_alarmMinute</title>
<path fill="none" stroke="black" d="M900.25,-564C900.25,-564 835.75,-564 835.75,-564 829.75,-564 823.75,-558 823.75,-552 823.75,-552 823.75,-540 823.75,-540 823.75,-534 829.75,-528 835.75,-528 835.75,-528 900.25,-528 900.25,-528 906.25,-528 912.25,-534 912.25,-540 912.25,-540 912.25,-552 912.25,-552 912.25,-558 906.25,-564 900.25,-564"/>
<text text-anchor="middle" x="868" y="-542.3" font-family="Times,serif" font-size="14.00">alarmMinute</text>
</g>
<!-- DigitalWatch_sm_alarmTime&#45;&gt;DigitalWatch_sm_alarmMinute -->
<g id="edge36" class="edge"><title>DigitalWatch_sm_alarmTime&#45;&gt;DigitalWatch_sm_alarmMinute</title>
<path fill="none" stroke="black" d="M825.142,-720.491C872.175,-717.466 948.885,-704.26 982,-652 1003.67,-617.807 960.5,-587.541 921.217,-568.395"/>
<polygon fill="black" stroke="black" points="922.418,-565.092 911.879,-564.008 919.442,-571.428 922.418,-565.092"/>
<text text-anchor="middle" x="994.5" y="-630.3" font-family="Times,serif" font-size="14.00">s1</text>
</g>
<!-- DigitalWatch_sm_second -->
<g id="node15" class="node"><title>DigitalWatch_sm_second</title>
<path fill="none" stroke="black" d="M843,-476C843,-476 795,-476 795,-476 789,-476 783,-470 783,-464 783,-464 783,-452 783,-452 783,-446 789,-440 795,-440 795,-440 843,-440 843,-440 849,-440 855,-446 855,-452 855,-452 855,-464 855,-464 855,-470 849,-476 843,-476"/>
<text text-anchor="middle" x="819" y="-454.3" font-family="Times,serif" font-size="14.00">second</text>
</g>
<!-- DigitalWatch_sm_alarmTime&#45;&gt;DigitalWatch_sm_second -->
<g id="edge39" class="edge"><title>DigitalWatch_sm_alarmTime&#45;&gt;DigitalWatch_sm_second</title>
<path fill="none" stroke="black" d="M779.191,-703.745C774.143,-689.982 767.691,-670.083 765,-652 755.927,-591.028 785.276,-522.011 804.211,-485.288"/>
<polygon fill="black" stroke="black" points="807.413,-486.72 809.003,-476.245 801.228,-483.442 807.413,-486.72"/>
<text text-anchor="middle" x="775.5" y="-586.3" font-family="Times,serif" font-size="14.00">s3</text>
</g>
<!-- DigitalWatch_sm_alarmHour&#45;&gt;DigitalWatch_sm_alarmHour -->
<g id="edge34" class="edge"><title>DigitalWatch_sm_alarmHour&#45;&gt;DigitalWatch_sm_alarmHour</title>
<path fill="none" stroke="black" d="M851.475,-642.165C861.466,-641.663 869,-638.941 869,-634 869,-630.912 866.057,-628.69 861.411,-627.336"/>
<polygon fill="black" stroke="black" points="861.886,-623.868 851.475,-625.835 860.84,-630.79 861.886,-623.868"/>
<text text-anchor="middle" x="921" y="-630.3" font-family="Times,serif" font-size="14.00">s2 / alarmHour++;</text>
</g>
<!-- DigitalWatch_sm_alarmHour&#45;&gt;DigitalWatch_sm_alarmMinute -->
<g id="edge37" class="edge"><title>DigitalWatch_sm_alarmHour&#45;&gt;DigitalWatch_sm_alarmMinute</title>
<path fill="none" stroke="black" d="M829.177,-615.884C833.938,-610.4 838.951,-604.15 843,-598 848.066,-590.304 852.765,-581.432 856.689,-573.268"/>
<polygon fill="black" stroke="black" points="859.898,-574.667 860.916,-564.121 853.543,-571.73 859.898,-574.667"/>
<text text-anchor="middle" x="858.5" y="-586.3" font-family="Times,serif" font-size="14.00">s1</text>
</g>
<!-- DigitalWatch_sm_alarmHour&#45;&gt;DigitalWatch_sm_second -->
<g id="edge40" class="edge"><title>DigitalWatch_sm_alarmHour&#45;&gt;DigitalWatch_sm_second</title>
<path fill="none" stroke="black" d="M808.503,-615.887C803.625,-595.089 797.031,-558.938 801,-528 802.809,-513.898 806.618,-498.562 810.267,-485.938"/>
<polygon fill="black" stroke="black" points="813.711,-486.642 813.249,-476.058 807.009,-484.62 813.711,-486.642"/>
<text text-anchor="middle" x="807.5" y="-542.3" font-family="Times,serif" font-size="14.00">s3</text>
</g>
<!-- DigitalWatch_sm_alarmMinute&#45;&gt;DigitalWatch_sm_alarmHour -->
<g id="edge35" class="edge"><title>DigitalWatch_sm_alarmMinute&#45;&gt;DigitalWatch_sm_alarmHour</title>
<path fill="none" stroke="black" d="M845.526,-564.236C839.852,-569.448 834.189,-575.523 830,-582 825.296,-589.274 821.768,-597.977 819.182,-606.117"/>
<polygon fill="black" stroke="black" points="815.747,-605.401 816.392,-615.976 822.483,-607.307 815.747,-605.401"/>
<text text-anchor="middle" x="836.5" y="-586.3" font-family="Times,serif" font-size="14.00">s1</text>
</g>
<!-- DigitalWatch_sm_alarmMinute&#45;&gt;DigitalWatch_sm_alarmMinute -->
<g id="edge38" class="edge"><title>DigitalWatch_sm_alarmMinute&#45;&gt;DigitalWatch_sm_alarmMinute</title>
<path fill="none" stroke="black" d="M912.306,-554.068C922.507,-553.373 930,-550.684 930,-546 930,-543.073 927.073,-540.924 922.387,-539.555"/>
<polygon fill="black" stroke="black" points="922.735,-536.066 912.306,-537.932 921.622,-542.977 922.735,-536.066"/>
<text text-anchor="middle" x="988" y="-542.3" font-family="Times,serif" font-size="14.00">s2 / alarmMinute++;</text>
</g>
<!-- DigitalWatch_sm_alarmMinute&#45;&gt;DigitalWatch_sm_second -->
<g id="edge41" class="edge"><title>DigitalWatch_sm_alarmMinute&#45;&gt;DigitalWatch_sm_second</title>
<path fill="none" stroke="black" d="M858.084,-527.597C851.131,-515.394 841.715,-498.867 833.867,-485.093"/>
<polygon fill="black" stroke="black" points="836.725,-483.04 828.734,-476.084 830.643,-486.505 836.725,-483.04"/>
<text text-anchor="middle" x="854.5" y="-498.3" font-family="Times,serif" font-size="14.00">s3</text>
</g>
<!-- DigitalWatch_sm_second&#45;&gt;DigitalWatch_sm_time -->
<g id="edge11" class="edge"><title>DigitalWatch_sm_second&#45;&gt;DigitalWatch_sm_time</title>
<path fill="none" stroke="black" d="M855.014,-464.222C914.939,-473.73 1030.93,-495.891 1055,-528 1090.64,-575.55 1040.66,-604.465 1005,-652 948.761,-726.973 921.641,-743.56 833,-774 776.344,-793.456 603.866,-803.38 520.324,-807.152"/>
<polygon fill="black" stroke="black" points="519.945,-803.665 510.109,-807.603 520.253,-810.659 519.945,-803.665"/>
<text text-anchor="middle" x="1041.5" y="-630.3" font-family="Times,serif" font-size="14.00">s3</text>
</g>
<!-- DigitalWatch_sm_second&#45;&gt;DigitalWatch_sm_second -->
<g id="edge42" class="edge"><title>DigitalWatch_sm_second&#45;&gt;DigitalWatch_sm_second</title>
<path fill="none" stroke="black" d="M855.087,-466.209C865.221,-465.85 873,-463.113 873,-458 873,-454.804 869.961,-452.537 865.208,-451.198"/>
<polygon fill="black" stroke="black" points="865.474,-447.701 855.087,-449.791 864.51,-454.635 865.474,-447.701"/>
<text text-anchor="middle" x="923" y="-454.3" font-family="Times,serif" font-size="14.00">s2 / secondzero();</text>
</g>
<!-- DigitalWatch_sm_minute -->
<g id="node16" class="node"><title>DigitalWatch_sm_minute</title>
<path fill="none" stroke="black" d="M755,-388C755,-388 707,-388 707,-388 701,-388 695,-382 695,-376 695,-376 695,-364 695,-364 695,-358 701,-352 707,-352 707,-352 755,-352 755,-352 761,-352 767,-358 767,-364 767,-364 767,-376 767,-376 767,-382 761,-388 755,-388"/>
<text text-anchor="middle" x="731" y="-366.3" font-family="Times,serif" font-size="14.00">minute</text>
</g>
<!-- DigitalWatch_sm_second&#45;&gt;DigitalWatch_sm_minute -->
<g id="edge44" class="edge"><title>DigitalWatch_sm_second&#45;&gt;DigitalWatch_sm_minute</title>
<path fill="none" stroke="black" d="M801.192,-439.597C788.105,-426.807 770.158,-409.268 755.687,-395.126"/>
<polygon fill="black" stroke="black" points="758.079,-392.57 748.481,-388.084 753.187,-397.577 758.079,-392.57"/>
<text text-anchor="middle" x="789.5" y="-410.3" font-family="Times,serif" font-size="14.00">s1</text>
</g>
<!-- DigitalWatch_sm_minute&#45;&gt;DigitalWatch_sm_time -->
<g id="edge12" class="edge"><title>DigitalWatch_sm_minute&#45;&gt;DigitalWatch_sm_time</title>
<path fill="none" stroke="black" d="M723.596,-388.1C716.872,-405.202 708,-432.426 708,-457 708,-723 708,-723 708,-723 708,-748.647 701.788,-758.979 681,-774 655.935,-792.111 573.151,-801.59 520.177,-805.923"/>
<polygon fill="black" stroke="black" points="519.701,-802.45 510.006,-806.722 520.25,-809.428 519.701,-802.45"/>
<text text-anchor="middle" x="714.5" y="-586.3" font-family="Times,serif" font-size="14.00">s3</text>
</g>
<!-- DigitalWatch_sm_minute&#45;&gt;DigitalWatch_sm_minute -->
<g id="edge45" class="edge"><title>DigitalWatch_sm_minute&#45;&gt;DigitalWatch_sm_minute</title>
<path fill="none" stroke="black" d="M767.087,-378.209C777.221,-377.85 785,-375.113 785,-370 785,-366.804 781.961,-364.537 777.208,-363.198"/>
<polygon fill="black" stroke="black" points="777.474,-359.701 767.087,-361.791 776.51,-366.635 777.474,-359.701"/>
<text text-anchor="middle" x="826" y="-366.3" font-family="Times,serif" font-size="14.00">s2 / minute++;</text>
</g>
<!-- DigitalWatch_sm_hour -->
<g id="node17" class="node"><title>DigitalWatch_sm_hour</title>
<path fill="none" stroke="black" d="M755,-300C755,-300 707,-300 707,-300 701,-300 695,-294 695,-288 695,-288 695,-276 695,-276 695,-270 701,-264 707,-264 707,-264 755,-264 755,-264 761,-264 767,-270 767,-276 767,-276 767,-288 767,-288 767,-294 761,-300 755,-300"/>
<text text-anchor="middle" x="731" y="-278.3" font-family="Times,serif" font-size="14.00">hour</text>
</g>
<!-- DigitalWatch_sm_minute&#45;&gt;DigitalWatch_sm_hour -->
<g id="edge46" class="edge"><title>DigitalWatch_sm_minute&#45;&gt;DigitalWatch_sm_hour</title>
<path fill="none" stroke="black" d="M731,-351.597C731,-339.746 731,-323.817 731,-310.292"/>
<polygon fill="black" stroke="black" points="734.5,-310.084 731,-300.084 727.5,-310.084 734.5,-310.084"/>
<text text-anchor="middle" x="737.5" y="-322.3" font-family="Times,serif" font-size="14.00">s1</text>
</g>
<!-- DigitalWatch_sm_hour&#45;&gt;DigitalWatch_sm_time -->
<g id="edge13" class="edge"><title>DigitalWatch_sm_hour&#45;&gt;DigitalWatch_sm_time</title>
<path fill="none" stroke="black" d="M707.895,-300.042C689.562,-315.697 667,-340.711 667,-369 667,-723 667,-723 667,-723 667,-748.051 662.673,-758.491 643,-774 624.266,-788.769 563.452,-798.706 520.154,-804.109"/>
<polygon fill="black" stroke="black" points="519.618,-800.648 510.11,-805.321 520.457,-807.598 519.618,-800.648"/>
<text text-anchor="middle" x="673.5" y="-542.3" font-family="Times,serif" font-size="14.00">s3</text>
</g>
<!-- DigitalWatch_sm_hour&#45;&gt;DigitalWatch_sm_hour -->
<g id="edge47" class="edge"><title>DigitalWatch_sm_hour&#45;&gt;DigitalWatch_sm_hour</title>
<path fill="none" stroke="black" d="M767.087,-290.209C777.221,-289.85 785,-287.113 785,-282 785,-278.804 781.961,-276.537 777.208,-275.198"/>
<polygon fill="black" stroke="black" points="777.474,-271.701 767.087,-273.791 776.51,-278.635 777.474,-271.701"/>
<text text-anchor="middle" x="819.5" y="-278.3" font-family="Times,serif" font-size="14.00">s2 / hour++;</text>
</g>
<!-- DigitalWatch_sm_month -->
<g id="node18" class="node"><title>DigitalWatch_sm_month</title>
<path fill="none" stroke="black" d="M757,-212C757,-212 709,-212 709,-212 703,-212 697,-206 697,-200 697,-200 697,-188 697,-188 697,-182 703,-176 709,-176 709,-176 757,-176 757,-176 763,-176 769,-182 769,-188 769,-188 769,-200 769,-200 769,-206 763,-212 757,-212"/>
<text text-anchor="middle" x="733" y="-190.3" font-family="Times,serif" font-size="14.00">month</text>
</g>
<!-- DigitalWatch_sm_hour&#45;&gt;DigitalWatch_sm_month -->
<g id="edge48" class="edge"><title>DigitalWatch_sm_hour&#45;&gt;DigitalWatch_sm_month</title>
<path fill="none" stroke="black" d="M731.405,-263.597C731.68,-251.746 732.051,-235.817 732.365,-222.292"/>
<polygon fill="black" stroke="black" points="735.869,-222.163 732.603,-212.084 728.871,-222 735.869,-222.163"/>
<text text-anchor="middle" x="739.5" y="-234.3" font-family="Times,serif" font-size="14.00">s1</text>
</g>
<!-- DigitalWatch_sm_month&#45;&gt;DigitalWatch_sm_time -->
<g id="edge14" class="edge"><title>DigitalWatch_sm_month&#45;&gt;DigitalWatch_sm_time</title>
<path fill="none" stroke="black" d="M769.092,-195.543C863.946,-197.94 1113,-210.907 1113,-281 1113,-723 1113,-723 1113,-723 1113,-782.85 667.026,-802.722 520.228,-807.642"/>
<polygon fill="black" stroke="black" points="520.066,-804.145 510.186,-807.971 520.295,-811.141 520.066,-804.145"/>
<text text-anchor="middle" x="1119.5" y="-498.3" font-family="Times,serif" font-size="14.00">s3</text>
</g>
<!-- DigitalWatch_sm_month&#45;&gt;DigitalWatch_sm_month -->
<g id="edge49" class="edge"><title>DigitalWatch_sm_month&#45;&gt;DigitalWatch_sm_month</title>
<path fill="none" stroke="black" d="M769.087,-202.209C779.221,-201.85 787,-199.113 787,-194 787,-190.804 783.961,-188.537 779.208,-187.198"/>
<polygon fill="black" stroke="black" points="779.474,-183.701 769.087,-185.791 778.51,-190.635 779.474,-183.701"/>
<text text-anchor="middle" x="826.5" y="-190.3" font-family="Times,serif" font-size="14.00">s2 / month++;</text>
</g>
<!-- DigitalWatch_sm_day -->
<g id="node19" class="node"><title>DigitalWatch_sm_day</title>
<path fill="none" stroke="black" d="M757,-124C757,-124 709,-124 709,-124 703,-124 697,-118 697,-112 697,-112 697,-100 697,-100 697,-94 703,-88 709,-88 709,-88 757,-88 757,-88 763,-88 769,-94 769,-100 769,-100 769,-112 769,-112 769,-118 763,-124 757,-124"/>
<text text-anchor="middle" x="733" y="-102.3" font-family="Times,serif" font-size="14.00">day</text>
</g>
<!-- DigitalWatch_sm_month&#45;&gt;DigitalWatch_sm_day -->
<g id="edge50" class="edge"><title>DigitalWatch_sm_month&#45;&gt;DigitalWatch_sm_day</title>
<path fill="none" stroke="black" d="M733,-175.597C733,-163.746 733,-147.817 733,-134.292"/>
<polygon fill="black" stroke="black" points="736.5,-134.084 733,-124.084 729.5,-134.084 736.5,-134.084"/>
<text text-anchor="middle" x="739.5" y="-146.3" font-family="Times,serif" font-size="14.00">s1</text>
</g>
<!-- DigitalWatch_sm_day&#45;&gt;DigitalWatch_sm_time -->
<g id="edge15" class="edge"><title>DigitalWatch_sm_day&#45;&gt;DigitalWatch_sm_time</title>
<path fill="none" stroke="black" d="M696.946,-117.895C664.205,-130.286 621,-154.02 621,-193 621,-503 621,-503 621,-503 621,-608.604 655.835,-647.993 604,-740 586.647,-770.801 550.078,-788.464 520.133,-798.192"/>
<polygon fill="black" stroke="black" points="518.817,-794.934 510.269,-801.195 520.855,-801.631 518.817,-794.934"/>
<text text-anchor="middle" x="627.5" y="-454.3" font-family="Times,serif" font-size="14.00">s3</text>
</g>
<!-- DigitalWatch_sm_day&#45;&gt;DigitalWatch_sm_day -->
<g id="edge51" class="edge"><title>DigitalWatch_sm_day&#45;&gt;DigitalWatch_sm_day</title>
<path fill="none" stroke="black" d="M769.087,-114.209C779.221,-113.85 787,-111.113 787,-106 787,-102.804 783.961,-100.537 779.208,-99.198"/>
<polygon fill="black" stroke="black" points="779.474,-95.7014 769.087,-97.7908 778.51,-102.635 779.474,-95.7014"/>
<text text-anchor="middle" x="819" y="-102.3" font-family="Times,serif" font-size="14.00">s2 / day++;</text>
</g>
<!-- DigitalWatch_sm_year -->
<g id="node20" class="node"><title>DigitalWatch_sm_year</title>
<path fill="none" stroke="black" d="M919,-36C919,-36 871,-36 871,-36 865,-36 859,-30 859,-24 859,-24 859,-12 859,-12 859,-6 865,-0 871,-0 871,-0 919,-0 919,-0 925,-0 931,-6 931,-12 931,-12 931,-24 931,-24 931,-30 925,-36 919,-36"/>
<text text-anchor="middle" x="895" y="-14.3" font-family="Times,serif" font-size="14.00">year</text>
</g>
<!-- DigitalWatch_sm_day&#45;&gt;DigitalWatch_sm_year -->
<g id="edge52" class="edge"><title>DigitalWatch_sm_day&#45;&gt;DigitalWatch_sm_year</title>
<path fill="none" stroke="black" d="M765.394,-87.8033C790.862,-74.2833 826.503,-55.3626 853.965,-40.7837"/>
<polygon fill="black" stroke="black" points="855.747,-43.8005 862.939,-36.0201 852.465,-37.6177 855.747,-43.8005"/>
<text text-anchor="middle" x="835.5" y="-58.3" font-family="Times,serif" font-size="14.00">s1</text>
</g>
<!-- DigitalWatch_sm_year&#45;&gt;DigitalWatch_sm_time -->
<g id="edge16" class="edge"><title>DigitalWatch_sm_year&#45;&gt;DigitalWatch_sm_time</title>
<path fill="none" stroke="black" d="M931.136,-23.4603C1001.7,-33.1832 1151,-59.1696 1151,-105 1151,-723 1151,-723 1151,-723 1151,-783.826 1083.61,-761.895 1024,-774 928.186,-793.457 634.829,-804.154 520.398,-807.678"/>
<polygon fill="black" stroke="black" points="520.105,-804.185 510.216,-807.987 520.317,-811.182 520.105,-804.185"/>
<text text-anchor="middle" x="1157.5" y="-410.3" font-family="Times,serif" font-size="14.00">s3</text>
</g>
<!-- DigitalWatch_sm_year&#45;&gt;DigitalWatch_sm_second -->
<g id="edge43" class="edge"><title>DigitalWatch_sm_year&#45;&gt;DigitalWatch_sm_second</title>
<path fill="none" stroke="black" d="M895,-36.1328C895,-53.4896 895,-81.1111 895,-105 895,-371 895,-371 895,-371 895,-396.803 875.552,-418.508 856.332,-433.657"/>
<polygon fill="black" stroke="black" points="854.094,-430.96 848.166,-439.742 858.276,-436.573 854.094,-430.96"/>
<text text-anchor="middle" x="901.5" y="-234.3" font-family="Times,serif" font-size="14.00">s1</text>
</g>
<!-- DigitalWatch_sm_year&#45;&gt;DigitalWatch_sm_year -->
<g id="edge53" class="edge"><title>DigitalWatch_sm_year&#45;&gt;DigitalWatch_sm_year</title>
<path fill="none" stroke="black" d="M931.087,-26.2092C941.221,-25.8497 949,-23.1133 949,-18 949,-14.8042 945.961,-12.5369 941.208,-11.198"/>
<polygon fill="black" stroke="black" points="941.474,-7.70136 931.087,-9.79079 940.51,-14.6347 941.474,-7.70136"/>
<text text-anchor="middle" x="983" y="-14.3" font-family="Times,serif" font-size="14.00">s2 / year++;</text>
</g>
</g>
</svg>
