<?xml version="1.0" encoding="UTF-8" standalone="no"?>
<!DOCTYPE svg PUBLIC "-//W3C//DTD SVG 1.1//EN"
 "http://www.w3.org/Graphics/SVG/1.1/DTD/svg11.dtd">
<!-- Generated by graphviz version 2.36.0 (20140111.2315)
 -->
<!-- Title: DVD_Player Pages: 1 -->
<svg width="387pt" height="272pt"
 viewBox="0.00 0.00 387.00 272.00" xmlns="http://www.w3.org/2000/svg" xmlns:xlink="http://www.w3.org/1999/xlink">
<g id="graph0" class="graph" transform="scale(1 1) rotate(0) translate(4 268)">
<title>DVD_Player</title>
<polygon fill="white" stroke="none" points="-4,4 -4,-268 383,-268 383,4 -4,4"/>
<!-- start_DVD_Player_UI_DVD_Panel -->
<g id="node1" class="node"><title>start_DVD_Player_UI_DVD_Panel</title>
<ellipse fill="black" stroke="black" cx="216" cy="-257" rx="7.2" ry="7.2"/>
</g>
<!-- DVD_Player_UI_DVD_Panel_Stopped -->
<g id="node2" class="node"><title>DVD_Player_UI_DVD_Panel_Stopped</title>
<path fill="none" stroke="black" d="M240,-212C240,-212 192,-212 192,-212 186,-212 180,-206 180,-200 180,-200 180,-188 180,-188 180,-182 186,-176 192,-176 192,-176 240,-176 240,-176 246,-176 252,-182 252,-188 252,-188 252,-200 252,-200 252,-206 246,-212 240,-212"/>
<text text-anchor="middle" x="216" y="-190.3" font-family="Times,serif" font-size="14.00">Stopped</text>
</g>
<!-- start_DVD_Player_UI_DVD_Panel&#45;&gt;DVD_Player_UI_DVD_Panel_Stopped -->
<g id="edge1" class="edge"><title>start_DVD_Player_UI_DVD_Panel&#45;&gt;DVD_Player_UI_DVD_Panel_Stopped</title>
<path fill="none" stroke="black" d="M216,-249.472C216,-242.902 216,-232.324 216,-222.229"/>
<polygon fill="black" stroke="black" points="219.5,-222.073 216,-212.073 212.5,-222.073 219.5,-222.073"/>
</g>
<!-- DVD_Player_UI_DVD_Panel_Running -->
<g id="node3" class="node"><title>DVD_Player_UI_DVD_Panel_Running</title>
<path fill="none" stroke="black" d="M60,-124C60,-124 12,-124 12,-124 6,-124 0,-118 0,-112 0,-112 0,-100 0,-100 0,-94 6,-88 12,-88 12,-88 60,-88 60,-88 66,-88 72,-94 72,-100 72,-100 72,-112 72,-112 72,-118 66,-124 60,-124"/>
<text text-anchor="middle" x="36" y="-102.3" font-family="Times,serif" font-size="14.00">Running</text>
</g>
<!-- DVD_Player_UI_DVD_Panel_Stopped&#45;&gt;DVD_Player_UI_DVD_Panel_Running -->
<g id="edge3" class="edge"><title>DVD_Player_UI_DVD_Panel_Stopped&#45;&gt;DVD_Player_UI_DVD_Panel_Running</title>
<path fill="none" stroke="black" d="M180.007,-175.803C151.463,-162.166 111.418,-143.033 80.8,-128.404"/>
<polygon fill="black" stroke="black" points="82.1555,-125.173 71.6235,-124.02 79.1377,-131.489 82.1555,-125.173"/>
<text text-anchor="middle" x="188.5" y="-146.3" font-family="Times,serif" font-size="14.00">workOutTimer1</text>
</g>
<!-- DVD_Player_UI_DVD_Panel_Running&#45;&gt;DVD_Player_UI_DVD_Panel_Running -->
<g id="edge4" class="edge"><title>DVD_Player_UI_DVD_Panel_Running&#45;&gt;DVD_Player_UI_DVD_Panel_Running</title>
<path fill="none" stroke="black" d="M72.0873,-110.105C82.2211,-109.925 90,-108.557 90,-106 90,-104.402 86.9614,-103.268 82.2083,-102.599"/>
<polygon fill="black" stroke="black" points="82.306,-99.0974 72.0873,-101.895 81.8205,-106.081 82.306,-99.0974"/>
<text text-anchor="middle" x="135.5" y="-102.3" font-family="Times,serif" font-size="14.00">workOutTimer2</text>
</g>
<!-- DVD_Player_UI_DVD_Panel_Running&#45;&gt;DVD_Player_UI_DVD_Panel_Running -->
<g id="edge5" class="edge"><title>DVD_Player_UI_DVD_Panel_Running&#45;&gt;DVD_Player_UI_DVD_Panel_Running</title>
<path fill="none" stroke="black" d="M72.278,-112.497C116.436,-116.201 181,-114.035 181,-106 181,-98.5612 125.664,-96.1529 82.4126,-98.7752"/>
<polygon fill="black" stroke="black" points="82.0016,-95.2956 72.278,-99.5028 82.503,-102.278 82.0016,-95.2956"/>
<text text-anchor="middle" x="219" y="-102.3" font-family="Times,serif" font-size="14.00">workOutTick</text>
</g>
<!-- DVD_Player_UI_DVD_Panel_Paused -->
<g id="node4" class="node"><title>DVD_Player_UI_DVD_Panel_Paused</title>
<path fill="none" stroke="black" d="M174,-36C174,-36 126,-36 126,-36 120,-36 114,-30 114,-24 114,-24 114,-12 114,-12 114,-6 120,-0 126,-0 126,-0 174,-0 174,-0 180,-0 186,-6 186,-12 186,-12 186,-24 186,-24 186,-30 180,-36 174,-36"/>
<text text-anchor="middle" x="150" y="-14.3" font-family="Times,serif" font-size="14.00">Paused</text>
</g>
<!-- DVD_Player_UI_DVD_Panel_Running&#45;&gt;DVD_Player_UI_DVD_Panel_Paused -->
<g id="edge7" class="edge"><title>DVD_Player_UI_DVD_Panel_Running&#45;&gt;DVD_Player_UI_DVD_Panel_Paused</title>
<path fill="none" stroke="black" d="M29.7691,-87.7865C27.0564,-77.059 25.9017,-63.5325 33,-54 49.2488,-32.1789 78.6048,-23.4397 103.845,-20.1503"/>
<polygon fill="black" stroke="black" points="104.42,-23.6092 113.999,-19.0811 103.687,-16.6477 104.42,-23.6092"/>
<text text-anchor="middle" x="78.5" y="-58.3" font-family="Times,serif" font-size="14.00">workOutTimer1</text>
</g>
<!-- DVD_Player_UI_DVD_Panel_Paused&#45;&gt;DVD_Player_UI_DVD_Panel_Stopped -->
<g id="edge2" class="edge"><title>DVD_Player_UI_DVD_Panel_Paused&#45;&gt;DVD_Player_UI_DVD_Panel_Stopped</title>
<path fill="none" stroke="black" d="M186.074,-25.6451C218.869,-33.8952 264.953,-51.6002 284,-88 299.264,-117.171 272.606,-148.613 248.323,-169.407"/>
<polygon fill="black" stroke="black" points="246.084,-166.717 240.578,-175.768 250.527,-172.126 246.084,-166.717"/>
<text text-anchor="middle" x="333.5" y="-102.3" font-family="Times,serif" font-size="14.00">workOutTimer2</text>
</g>
<!-- DVD_Player_UI_DVD_Panel_Paused&#45;&gt;DVD_Player_UI_DVD_Panel_Running -->
<g id="edge6" class="edge"><title>DVD_Player_UI_DVD_Panel_Paused&#45;&gt;DVD_Player_UI_DVD_Panel_Running</title>
<path fill="none" stroke="black" d="M146.275,-36.1349C143.091,-47.105 137.474,-60.9318 128,-70 115.425,-82.0364 98.2924,-90.0355 82.2192,-95.3046"/>
<polygon fill="black" stroke="black" points="80.9749,-92.0236 72.3985,-98.2443 82.9823,-98.7296 80.9749,-92.0236"/>
<text text-anchor="middle" x="185.5" y="-58.3" font-family="Times,serif" font-size="14.00">workOutTimer1</text>
</g>
</g>
</svg>
