<?xml version="1.0" encoding="UTF-8" standalone="no"?>
<!DOCTYPE svg PUBLIC "-//W3C//DTD SVG 1.1//EN"
 "http://www.w3.org/Graphics/SVG/1.1/DTD/svg11.dtd">
<!-- Generated by graphviz version 2.29.20121108.1600 (20121108.1600)
 -->
<!-- Title: DVD_Player Pages: 1 -->
<svg width="383pt" height="276pt"
 viewBox="0.00 0.00 383.49 276.00" xmlns="http://www.w3.org/2000/svg" xmlns:xlink="http://www.w3.org/1999/xlink">
<g id="graph0" class="graph" transform="scale(1 1) rotate(0) translate(4 272)">
<title>DVD_Player</title>
<polygon fill="white" stroke="white" points="-4,5 -4,-272 380.494,-272 380.494,5 -4,5"/>
<!-- start_DVD_Player_UI_DVD_Panel -->
<g id="node1" class="node"><title>start_DVD_Player_UI_DVD_Panel</title>
<ellipse fill="black" stroke="black" cx="214" cy="-261" rx="7.2" ry="7.2"/>
</g>
<!-- DVD_Player_UI_DVD_Panel_Stopped -->
<g id="node2" class="node"><title>DVD_Player_UI_DVD_Panel_Stopped</title>
<path fill="none" stroke="black" d="M238,-216C238,-216 190,-216 190,-216 184,-216 178,-210 178,-204 178,-204 178,-192 178,-192 178,-186 184,-180 190,-180 190,-180 238,-180 238,-180 244,-180 250,-186 250,-192 250,-192 250,-204 250,-204 250,-210 244,-216 238,-216"/>
<text text-anchor="middle" x="214" y="-192.4" font-family="Times,serif" font-size="14.00">Stopped</text>
</g>
<!-- start_DVD_Player_UI_DVD_Panel&#45;&gt;DVD_Player_UI_DVD_Panel_Stopped -->
<g id="edge1" class="edge"><title>start_DVD_Player_UI_DVD_Panel&#45;&gt;DVD_Player_UI_DVD_Panel_Stopped</title>
<path fill="none" stroke="black" d="M214,-253.472C214,-246.902 214,-236.324 214,-226.229"/>
<polygon fill="black" stroke="black" points="217.5,-226.073 214,-216.073 210.5,-226.073 217.5,-226.073"/>
</g>
<!-- DVD_Player_UI_DVD_Panel_Running -->
<g id="node3" class="node"><title>DVD_Player_UI_DVD_Panel_Running</title>
<path fill="none" stroke="black" d="M60,-126C60,-126 12,-126 12,-126 6,-126 0,-120 0,-114 0,-114 0,-102 0,-102 0,-96 6,-90 12,-90 12,-90 60,-90 60,-90 66,-90 72,-96 72,-102 72,-102 72,-114 72,-114 72,-120 66,-126 60,-126"/>
<text text-anchor="middle" x="36" y="-102.4" font-family="Times,serif" font-size="14.00">Running</text>
</g>
<!-- DVD_Player_UI_DVD_Panel_Stopped&#45;&gt;DVD_Player_UI_DVD_Panel_Running -->
<g id="edge3" class="edge"><title>DVD_Player_UI_DVD_Panel_Stopped&#45;&gt;DVD_Player_UI_DVD_Panel_Running</title>
<path fill="none" stroke="black" d="M179.257,-179.824C150.834,-165.772 110.471,-145.817 79.8287,-130.668"/>
<polygon fill="black" stroke="black" points="81.1706,-127.427 70.6551,-126.133 78.0683,-133.702 81.1706,-127.427"/>
<text text-anchor="middle" x="186.247" y="-147.4" font-family="Times,serif" font-size="14.00">workOutTimer1</text>
</g>
<!-- DVD_Player_UI_DVD_Panel_Running&#45;&gt;DVD_Player_UI_DVD_Panel_Running -->
<g id="edge4" class="edge"><title>DVD_Player_UI_DVD_Panel_Running&#45;&gt;DVD_Player_UI_DVD_Panel_Running</title>
<path fill="none" stroke="black" d="M72.0873,-112.105C82.2211,-111.925 90,-110.557 90,-108 90,-106.402 86.9614,-105.268 82.2083,-104.599"/>
<polygon fill="black" stroke="black" points="82.306,-101.097 72.0873,-103.895 81.8205,-108.081 82.306,-101.097"/>
<text text-anchor="middle" x="135.247" y="-102.4" font-family="Times,serif" font-size="14.00">workOutTimer2</text>
</g>
<!-- DVD_Player_UI_DVD_Panel_Running&#45;&gt;DVD_Player_UI_DVD_Panel_Running -->
<g id="edge5" class="edge"><title>DVD_Player_UI_DVD_Panel_Running&#45;&gt;DVD_Player_UI_DVD_Panel_Running</title>
<path fill="none" stroke="black" d="M72.1875,-114.497C116.2,-118.201 180.494,-116.035 180.494,-108 180.494,-100.561 125.39,-98.1529 82.2878,-100.775"/>
<polygon fill="black" stroke="black" points="81.9102,-97.2932 72.1875,-101.503 82.4132,-104.275 81.9102,-97.2932"/>
<text text-anchor="middle" x="217.965" y="-102.4" font-family="Times,serif" font-size="14.00">workOutTick</text>
</g>
<!-- DVD_Player_UI_DVD_Panel_Paused -->
<g id="node4" class="node"><title>DVD_Player_UI_DVD_Panel_Paused</title>
<path fill="none" stroke="black" d="M173,-36C173,-36 125,-36 125,-36 119,-36 113,-30 113,-24 113,-24 113,-12 113,-12 113,-6 119,-0 125,-0 125,-0 173,-0 173,-0 179,-0 185,-6 185,-12 185,-12 185,-24 185,-24 185,-30 179,-36 173,-36"/>
<text text-anchor="middle" x="149" y="-12.4" font-family="Times,serif" font-size="14.00">Paused</text>
</g>
<!-- DVD_Player_UI_DVD_Panel_Running&#45;&gt;DVD_Player_UI_DVD_Panel_Paused -->
<g id="edge7" class="edge"><title>DVD_Player_UI_DVD_Panel_Running&#45;&gt;DVD_Player_UI_DVD_Panel_Paused</title>
<path fill="none" stroke="black" d="M29.4831,-89.6145C26.4757,-78.3922 25.0218,-64.0631 32.5059,-54 48.6219,-32.3303 77.7062,-23.5764 102.781,-20.2419"/>
<polygon fill="black" stroke="black" points="103.306,-23.7057 112.873,-19.1527 102.555,-16.7461 103.306,-23.7057"/>
<text text-anchor="middle" x="78.2471" y="-57.4" font-family="Times,serif" font-size="14.00">workOutTimer1</text>
</g>
<!-- DVD_Player_UI_DVD_Panel_Paused&#45;&gt;DVD_Player_UI_DVD_Panel_Stopped -->
<g id="edge2" class="edge"><title>DVD_Player_UI_DVD_Panel_Paused&#45;&gt;DVD_Player_UI_DVD_Panel_Stopped</title>
<path fill="none" stroke="black" d="M185.151,-26.2905C217.655,-35.0802 262.973,-53.484 281,-90 295.732,-119.841 269.419,-151.924 245.568,-173.093"/>
<polygon fill="black" stroke="black" points="242.989,-170.691 237.636,-179.834 247.522,-176.025 242.989,-170.691"/>
<text text-anchor="middle" x="330.247" y="-102.4" font-family="Times,serif" font-size="14.00">workOutTimer2</text>
</g>
<!-- DVD_Player_UI_DVD_Panel_Paused&#45;&gt;DVD_Player_UI_DVD_Panel_Running -->
<g id="edge6" class="edge"><title>DVD_Player_UI_DVD_Panel_Paused&#45;&gt;DVD_Player_UI_DVD_Panel_Running</title>
<path fill="none" stroke="black" d="M145.564,-36.2863C142.472,-47.7552 136.848,-62.407 127,-72 114.649,-84.0304 97.7202,-92.0283 81.8116,-97.2981"/>
<polygon fill="black" stroke="black" points="80.647,-93.9937 72.0881,-100.238 82.6731,-100.694 80.647,-93.9937"/>
<text text-anchor="middle" x="185.247" y="-57.4" font-family="Times,serif" font-size="14.00">workOutTimer1</text>
</g>
</g>
</svg>
