<?xml version="1.0" encoding="UTF-8" standalone="no"?>
<!DOCTYPE svg PUBLIC "-//W3C//DTD SVG 1.1//EN"
 "http://www.w3.org/Graphics/SVG/1.1/DTD/svg11.dtd">
<!-- Generated by graphviz version 2.40.1 (20161225.0304)
 -->
<!-- Title: DVD_Player Pages: 1 -->
<svg width="384pt" height="267pt"
 viewBox="0.00 0.00 384.49 267.40" xmlns="http://www.w3.org/2000/svg" xmlns:xlink="http://www.w3.org/1999/xlink">
<g id="graph0" class="graph" transform="scale(1 1) rotate(0) translate(4 263.4)">
<title>DVD_Player</title>
<polygon fill="#ffffff" stroke="transparent" points="-4,4 -4,-263.4 380.4941,-263.4 380.4941,4 -4,4"/>
<!-- start_DVD_Player_UI_DVD_Panel -->
<g id="node1" class="node">
<title>start_DVD_Player_UI_DVD_Panel</title>
<g id="a_node1"><a xlink:title="Class DVD_Player_UI, SM DVD_Panel, State start">
<ellipse fill="#000000" stroke="#000000" cx="172" cy="-252.2" rx="7.2" ry="7.2"/>
</a>
</g>
</g>
<!-- DVD_Player_UI_DVD_Panel_Stopped -->
<g id="node2" class="node">
<title>DVD_Player_UI_DVD_Panel_Stopped</title>
<g id="a_node2"><a xlink:title="Class DVD_Player_UI, SM DVD_Panel, State Stopped">
<path fill="none" stroke="#000000" d="M196,-208C196,-208 148,-208 148,-208 142,-208 136,-202 136,-196 136,-196 136,-184 136,-184 136,-178 142,-172 148,-172 148,-172 196,-172 196,-172 202,-172 208,-178 208,-184 208,-184 208,-196 208,-196 208,-202 202,-208 196,-208"/>
<text text-anchor="middle" x="172" y="-185.8" font-family="Times,serif" font-size="14.00" fill="#000000">Stopped</text>
</a>
</g>
</g>
<!-- start_DVD_Player_UI_DVD_Panel&#45;&gt;DVD_Player_UI_DVD_Panel_Stopped -->
<g id="edge1" class="edge">
<title>start_DVD_Player_UI_DVD_Panel&#45;&gt;DVD_Player_UI_DVD_Panel_Stopped</title>
<g id="a_edge1"><a xlink:title="start to Stopped">
<path fill="none" stroke="#000000" d="M172,-244.5731C172,-237.9503 172,-227.9322 172,-218.2795"/>
<polygon fill="#000000" stroke="#000000" points="175.5001,-218.1266 172,-208.1266 168.5001,-218.1267 175.5001,-218.1266"/>
</a>
</g>
</g>
<!-- DVD_Player_UI_DVD_Panel_Running -->
<g id="node3" class="node">
<title>DVD_Player_UI_DVD_Panel_Running</title>
<g id="a_node3"><a xlink:title="Class DVD_Player_UI, SM DVD_Panel, State Running">
<path fill="none" stroke="#000000" d="M60,-122C60,-122 12,-122 12,-122 6,-122 0,-116 0,-110 0,-110 0,-98 0,-98 0,-92 6,-86 12,-86 12,-86 60,-86 60,-86 66,-86 72,-92 72,-98 72,-98 72,-110 72,-110 72,-116 66,-122 60,-122"/>
<text text-anchor="middle" x="36" y="-99.8" font-family="Times,serif" font-size="14.00" fill="#000000">Running</text>
</a>
</g>
</g>
<!-- DVD_Player_UI_DVD_Panel_Stopped&#45;&gt;DVD_Player_UI_DVD_Panel_Running -->
<g id="edge3" class="edge">
<title>DVD_Player_UI_DVD_Panel_Stopped&#45;&gt;DVD_Player_UI_DVD_Panel_Running</title>
<g id="a_edge3"><a xlink:title="From Stopped to Running on workOutTimer1">
<path fill="none" stroke="#000000" d="M143.4899,-171.9716C122.9988,-159.014 95.1864,-141.4267 72.9863,-127.3884"/>
<polygon fill="#000000" stroke="#000000" points="74.7951,-124.3912 64.4725,-122.0047 71.0538,-130.3075 74.7951,-124.3912"/>
</a>
</g>
<text text-anchor="middle" x="158.2471" y="-142.8" font-family="Times,serif" font-size="14.00" fill="#000000">workOutTimer1</text>
</g>
<!-- DVD_Player_UI_DVD_Panel_Running&#45;&gt;DVD_Player_UI_DVD_Panel_Running -->
<g id="edge4" class="edge">
<title>DVD_Player_UI_DVD_Panel_Running&#45;&gt;DVD_Player_UI_DVD_Panel_Running</title>
<g id="a_edge4"><a xlink:title="From Running to Running on workOutTimer2">
<path fill="none" stroke="#000000" d="M72.0873,-107.918C82.2211,-107.7464 90,-106.4404 90,-104 90,-102.4747 86.9614,-101.3926 82.2083,-100.7536"/>
<polygon fill="#000000" stroke="#000000" points="82.2972,-97.2519 72.0873,-100.082 81.8336,-104.2365 82.2972,-97.2519"/>
</a>
</g>
<text text-anchor="middle" x="135.2471" y="-99.8" font-family="Times,serif" font-size="14.00" fill="#000000">workOutTimer2</text>
</g>
<!-- DVD_Player_UI_DVD_Panel_Running&#45;&gt;DVD_Player_UI_DVD_Panel_Running -->
<g id="edge5" class="edge">
<title>DVD_Player_UI_DVD_Panel_Running&#45;&gt;DVD_Player_UI_DVD_Panel_Running</title>
<g id="a_edge5"><a xlink:title="From Running to Running on workOutTick">
<path fill="none" stroke="#000000" d="M72.1875,-110.2019C116.2003,-113.7372 180.4941,-111.6699 180.4941,-104 180.4941,-96.8993 125.3898,-94.6005 82.2878,-97.1036"/>
<polygon fill="#000000" stroke="#000000" points="81.9238,-93.6202 72.1875,-97.7981 82.4041,-100.6037 81.9238,-93.6202"/>
</a>
</g>
<text text-anchor="middle" x="217.9653" y="-99.8" font-family="Times,serif" font-size="14.00" fill="#000000">workOutTick</text>
</g>
<!-- DVD_Player_UI_DVD_Panel_Paused -->
<g id="node4" class="node">
<title>DVD_Player_UI_DVD_Panel_Paused</title>
<g id="a_node4"><a xlink:title="Class DVD_Player_UI, SM DVD_Panel, State Paused">
<path fill="none" stroke="#000000" d="M173,-36C173,-36 125,-36 125,-36 119,-36 113,-30 113,-24 113,-24 113,-12 113,-12 113,-6 119,0 125,0 125,0 173,0 173,0 179,0 185,-6 185,-12 185,-12 185,-24 185,-24 185,-30 179,-36 173,-36"/>
<text text-anchor="middle" x="149" y="-13.8" font-family="Times,serif" font-size="14.00" fill="#000000">Paused</text>
</a>
</g>
</g>
<!-- DVD_Player_UI_DVD_Panel_Running&#45;&gt;DVD_Player_UI_DVD_Panel_Paused -->
<g id="edge7" class="edge">
<title>DVD_Player_UI_DVD_Panel_Running&#45;&gt;DVD_Player_UI_DVD_Panel_Paused</title>
<g id="a_edge7"><a xlink:title="From Running to Paused on workOutTimer1">
<path fill="none" stroke="#000000" d="M29.2941,-85.7226C26.7676,-75.4635 25.8941,-62.9635 32.5059,-54 41.161,-42.2663 74.2344,-32.7363 102.9399,-26.436"/>
<polygon fill="#000000" stroke="#000000" points="103.8012,-29.8315 112.8641,-24.3439 102.3572,-22.982 103.8012,-29.8315"/>
</a>
</g>
<text text-anchor="middle" x="78.2471" y="-56.8" font-family="Times,serif" font-size="14.00" fill="#000000">workOutTimer1</text>
</g>
<!-- DVD_Player_UI_DVD_Panel_Paused&#45;&gt;DVD_Player_UI_DVD_Panel_Stopped -->
<g id="edge2" class="edge">
<title>DVD_Player_UI_DVD_Panel_Paused&#45;&gt;DVD_Player_UI_DVD_Panel_Stopped</title>
<g id="a_edge2"><a xlink:title="From Paused to Stopped on workOutTimer2">
<path fill="none" stroke="#000000" d="M185.1601,-24.9532C217.1873,-33.301 261.7557,-50.8355 281,-86 288.6812,-100.0356 288.7621,-108.0089 281,-122 267.4481,-146.4272 241.0671,-163.229 217.6535,-174.0199"/>
<polygon fill="#000000" stroke="#000000" points="215.9576,-170.9409 208.1862,-178.1421 218.7521,-177.3589 215.9576,-170.9409"/>
</a>
</g>
<text text-anchor="middle" x="331.2471" y="-99.8" font-family="Times,serif" font-size="14.00" fill="#000000">workOutTimer2</text>
</g>
<!-- DVD_Player_UI_DVD_Panel_Paused&#45;&gt;DVD_Player_UI_DVD_Panel_Running -->
<g id="edge6" class="edge">
<title>DVD_Player_UI_DVD_Panel_Paused&#45;&gt;DVD_Player_UI_DVD_Panel_Running</title>
<g id="a_edge6"><a xlink:title="From Paused to Running on workOutTimer1">
<path fill="none" stroke="#000000" d="M144.712,-36.1994C141.4154,-46.6885 135.8809,-59.4485 127,-68 114.6352,-79.9061 97.8567,-88.0217 82.074,-93.4842"/>
<polygon fill="#000000" stroke="#000000" points="80.8933,-90.1869 72.4241,-96.5528 83.0146,-96.8578 80.8933,-90.1869"/>
</a>
</g>
<text text-anchor="middle" x="182.2471" y="-56.8" font-family="Times,serif" font-size="14.00" fill="#000000">workOutTimer1</text>
</g>
</g>
</svg>
