<?xml version="1.0" encoding="UTF-8" standalone="no"?>
<!DOCTYPE svg PUBLIC "-//W3C//DTD SVG 1.1//EN"
 "http://www.w3.org/Graphics/SVG/1.1/DTD/svg11.dtd">
<!-- Generated by graphviz version 2.39.20140502.0445 (20140502.0445)
 -->
<!-- Title: DVD_Player Pages: 1 -->
<svg width="387pt" height="269pt"
 viewBox="0.00 0.00 387.00 269.40" xmlns="http://www.w3.org/2000/svg" xmlns:xlink="http://www.w3.org/1999/xlink">
<g id="graph0" class="graph" transform="scale(1 1) rotate(0) translate(4 265.4)">
<title>DVD_Player</title>
<polygon fill="white" stroke="none" points="-4,4 -4,-265.4 383,-265.4 383,4 -4,4"/>
<!-- start_DVD_Player_UI_DVD_Panel -->
<g id="node1" class="node"><title>start_DVD_Player_UI_DVD_Panel</title>
<ellipse fill="black" stroke="black" cx="216" cy="-254.2" rx="7.2" ry="7.2"/>
</g>
<!-- DVD_Player_UI_DVD_Panel_Stopped -->
<g id="node2" class="node"><title>DVD_Player_UI_DVD_Panel_Stopped</title>
<path fill="none" stroke="black" d="M240,-210C240,-210 192,-210 192,-210 186,-210 180,-204 180,-198 180,-198 180,-186 180,-186 180,-180 186,-174 192,-174 192,-174 240,-174 240,-174 246,-174 252,-180 252,-186 252,-186 252,-198 252,-198 252,-204 246,-210 240,-210"/>
<text text-anchor="middle" x="216" y="-188.3" font-family="Times,serif" font-size="14.00">Stopped</text>
</g>
<!-- start_DVD_Player_UI_DVD_Panel&#45;&gt;DVD_Player_UI_DVD_Panel_Stopped -->
<g id="edge1" class="edge"><title>start_DVD_Player_UI_DVD_Panel&#45;&gt;DVD_Player_UI_DVD_Panel_Stopped</title>
<g id="a_edge1"><a xlink:title="start &#160;&#45;&gt; Stopped">
<path fill="none" stroke="black" d="M216,-246.758C216,-240.387 216,-230.197 216,-220.393"/>
<polygon fill="black" stroke="black" points="219.5,-220.105 216,-210.105 212.5,-220.105 219.5,-220.105"/>
</a>
</g>
</g>
<!-- DVD_Player_UI_DVD_Panel_Running -->
<g id="node3" class="node"><title>DVD_Player_UI_DVD_Panel_Running</title>
<path fill="none" stroke="black" d="M60,-123C60,-123 12,-123 12,-123 6,-123 0,-117 0,-111 0,-111 0,-99 0,-99 0,-93 6,-87 12,-87 12,-87 60,-87 60,-87 66,-87 72,-93 72,-99 72,-99 72,-111 72,-111 72,-117 66,-123 60,-123"/>
<text text-anchor="middle" x="36" y="-101.3" font-family="Times,serif" font-size="14.00">Running</text>
</g>
<!-- DVD_Player_UI_DVD_Panel_Stopped&#45;&gt;DVD_Player_UI_DVD_Panel_Running -->
<g id="edge3" class="edge"><title>DVD_Player_UI_DVD_Panel_Stopped&#45;&gt;DVD_Player_UI_DVD_Panel_Running</title>
<g id="a_edge3"><a xlink:title="Stopped workOutTimer1 &#45;&gt; Running">
<path fill="none" stroke="black" d="M81.1857,-127.338 111.599,-141.7 151.18,-160.39 179.574,-173.799"/>
<polygon fill="black" stroke="black" points="82.601,-124.135 72.0639,-123.03 79.6119,-130.465 82.601,-124.135"/>
</a>
</g>
<text text-anchor="middle" x="182.5" y="-144.8" font-family="Times,serif" font-size="14.00">workOutTimer1</text>
</g>
<!-- DVD_Player_UI_DVD_Panel_Running&#45;&gt;DVD_Player_UI_DVD_Panel_Running -->
<g id="edge4" class="edge"><title>DVD_Player_UI_DVD_Panel_Running&#45;&gt;DVD_Player_UI_DVD_Panel_Running</title>
<g id="a_edge4"><a xlink:title="Running workOutTimer2 &#45;&gt; Running">
<path fill="none" stroke="black" d="M72.0873,-108.918C82.2211,-108.746 90,-107.44 90,-105 90,-103.475 86.9614,-102.393 82.2083,-101.754"/>
<polygon fill="black" stroke="black" points="82.2972,-98.2519 72.0873,-101.082 81.8336,-105.237 82.2972,-98.2519"/>
</a>
</g>
<text text-anchor="middle" x="135.5" y="-101.3" font-family="Times,serif" font-size="14.00">workOutTimer2</text>
</g>
<!-- DVD_Player_UI_DVD_Panel_Running&#45;&gt;DVD_Player_UI_DVD_Panel_Running -->
<g id="edge5" class="edge"><title>DVD_Player_UI_DVD_Panel_Running&#45;&gt;DVD_Player_UI_DVD_Panel_Running</title>
<g id="a_edge5"><a xlink:title="Running workOutTick &#45;&gt; Running">
<path fill="none" stroke="black" d="M72.278,-111.202C116.436,-114.737 181,-112.67 181,-105 181,-97.8993 125.664,-95.6005 82.4126,-98.1036"/>
<polygon fill="black" stroke="black" points="82.0152,-94.6225 72.278,-98.7981 82.4939,-101.606 82.0152,-94.6225"/>
</a>
</g>
<text text-anchor="middle" x="219" y="-101.3" font-family="Times,serif" font-size="14.00">workOutTick</text>
</g>
<!-- DVD_Player_UI_DVD_Panel_Paused -->
<g id="node4" class="node"><title>DVD_Player_UI_DVD_Panel_Paused</title>
<path fill="none" stroke="black" d="M174,-36C174,-36 126,-36 126,-36 120,-36 114,-30 114,-24 114,-24 114,-12 114,-12 114,-6 120,-0 126,-0 126,-0 174,-0 174,-0 180,-0 186,-6 186,-12 186,-12 186,-24 186,-24 186,-30 180,-36 174,-36"/>
<text text-anchor="middle" x="150" y="-14.3" font-family="Times,serif" font-size="14.00">Paused</text>
</g>
<!-- DVD_Player_UI_DVD_Panel_Running&#45;&gt;DVD_Player_UI_DVD_Panel_Paused -->
<g id="edge7" class="edge"><title>DVD_Player_UI_DVD_Panel_Running&#45;&gt;DVD_Player_UI_DVD_Panel_Paused</title>
<g id="a_edge7"><a xlink:title="Running workOutTimer1 &#45;&gt; Paused">
<path fill="none" stroke="black" d="M29.7448,-86.6518C27.1561,-76.2125 26.1443,-63.2068 33,-54 49.2488,-32.1789 78.6048,-23.4397 103.845,-20.1503"/>
<polygon fill="black" stroke="black" points="104.42,-23.6092 113.999,-19.0811 103.687,-16.6477 104.42,-23.6092"/>
</a>
</g>
<text text-anchor="middle" x="78.5" y="-57.8" font-family="Times,serif" font-size="14.00">workOutTimer1</text>
</g>
<!-- DVD_Player_UI_DVD_Panel_Paused&#45;&gt;DVD_Player_UI_DVD_Panel_Stopped -->
<g id="edge2" class="edge"><title>DVD_Player_UI_DVD_Panel_Paused&#45;&gt;DVD_Player_UI_DVD_Panel_Stopped</title>
<g id="a_edge2"><a xlink:title="Paused workOutTimer2 &#45;&gt; Stopped">
<path fill="none" stroke="black" d="M186.224,-25.5388C218.881,-33.6399 264.652,-51.048 284,-87 299.498,-115.797 272.796,-146.958 248.439,-167.584"/>
<polygon fill="black" stroke="black" points="246.225,-164.873 240.67,-173.895 250.639,-170.307 246.225,-164.873"/>
</a>
</g>
<text text-anchor="middle" x="333.5" y="-101.3" font-family="Times,serif" font-size="14.00">workOutTimer2</text>
</g>
<!-- DVD_Player_UI_DVD_Panel_Paused&#45;&gt;DVD_Player_UI_DVD_Panel_Running -->
<g id="edge6" class="edge"><title>DVD_Player_UI_DVD_Panel_Paused&#45;&gt;DVD_Player_UI_DVD_Panel_Running</title>
<g id="a_edge6"><a xlink:title="Paused workOutTimer1 &#45;&gt; Running">
<path fill="none" stroke="black" d="M82.1718,-94.255 98.2399,-88.9805 115.382,-80.9907 128,-69 137.212,-60.2459 142.808,-46.9569 146.049,-36.279"/>
<polygon fill="black" stroke="black" points="80.9285,-90.9738 72.356,-97.1996 82.94,-97.6786 80.9285,-90.9738"/>
</a>
</g>
<text text-anchor="middle" x="184.5" y="-57.8" font-family="Times,serif" font-size="14.00">workOutTimer1</text>
</g>
</g>
</svg>
