<?xml version="1.0" encoding="UTF-8" standalone="no"?>
<!DOCTYPE svg PUBLIC "-//W3C//DTD SVG 1.1//EN"
 "http://www.w3.org/Graphics/SVG/1.1/DTD/svg11.dtd">
<!-- Generated by graphviz version 2.40.1 (20161225.0304)
 -->
<!-- Title: Elevator_State_Machine Pages: 1 -->
<svg width="1063pt" height="720pt"
 viewBox="0.00 0.00 1063.03 720.00" xmlns="http://www.w3.org/2000/svg" xmlns:xlink="http://www.w3.org/1999/xlink">
<g id="graph0" class="graph" transform="scale(.8136 .8136) rotate(0) translate(4 881)">
<title>Elevator_State_Machine</title>
<polygon fill="#ffffff" stroke="transparent" points="-4,4 -4,-881 1302.6416,-881 1302.6416,4 -4,4"/>
<g id="clust1" class="cluster">
<title>clusterElevator_elevator_state_machine_PrepareUp</title>
<path fill="none" stroke="#000000" d="M676,-218C676,-218 818,-218 818,-218 824,-218 830,-224 830,-230 830,-230 830,-426.6 830,-426.6 830,-432.6 824,-438.6 818,-438.6 818,-438.6 676,-438.6 676,-438.6 670,-438.6 664,-432.6 664,-426.6 664,-426.6 664,-230 664,-230 664,-224 670,-218 676,-218"/>
<text text-anchor="middle" x="747" y="-423.4" font-family="Times,serif" font-size="14.00" fill="#000000">PrepareUp</text>
</g>
<g id="clust2" class="cluster">
<title>clusterElevator_elevator_state_machine_PrepareDown</title>
<path fill="none" stroke="#000000" d="M20,-218C20,-218 178,-218 178,-218 184,-218 190,-224 190,-230 190,-230 190,-426.6 190,-426.6 190,-432.6 184,-438.6 178,-438.6 178,-438.6 20,-438.6 20,-438.6 14,-438.6 8,-432.6 8,-426.6 8,-426.6 8,-230 8,-230 8,-224 14,-218 20,-218"/>
<text text-anchor="middle" x="99" y="-423.4" font-family="Times,serif" font-size="14.00" fill="#000000">PrepareDown</text>
</g>
<g id="clust3" class="cluster">
<title>clusterElevator_elevator_state_machine_InMotion</title>
<path fill="none" stroke="#000000" d="M850,-8C850,-8 1143,-8 1143,-8 1149,-8 1155,-14 1155,-20 1155,-20 1155,-355.2 1155,-355.2 1155,-361.2 1149,-367.2 1143,-367.2 1143,-367.2 850,-367.2 850,-367.2 844,-367.2 838,-361.2 838,-355.2 838,-355.2 838,-20 838,-20 838,-14 844,-8 850,-8"/>
<text text-anchor="middle" x="996.5" y="-352" font-family="Times,serif" font-size="14.00" fill="#000000">InMotion</text>
</g>
<g id="clust4" class="cluster">
<title>clusterElevator_elevator_state_machine_OnFloor</title>
<path fill="none" stroke="#000000" d="M290,-304C290,-304 644,-304 644,-304 650,-304 656,-310 656,-316 656,-316 656,-857 656,-857 656,-863 650,-869 644,-869 644,-869 290,-869 290,-869 284,-869 278,-863 278,-857 278,-857 278,-316 278,-316 278,-310 284,-304 290,-304"/>
<text text-anchor="middle" x="467" y="-853.8" font-family="Times,serif" font-size="14.00" fill="#000000">OnFloor</text>
</g>
<!-- start_Elevator_elevator_state_machine -->
<g id="node1" class="node">
<title>start_Elevator_elevator_state_machine</title>
<g id="a_node1"><a xlink:title="Class Elevator, SM elevator_state_machine, State start">
<ellipse fill="#000000" stroke="#000000" cx="234" cy="-401.4" rx="7.2" ry="7.2"/>
</a>
</g>
</g>
<!-- Elevator_elevator_state_machine_Idle -->
<g id="node2" class="node">
<title>Elevator_elevator_state_machine_Idle</title>
<g id="a_node2"><a xlink:title="Class Elevator, SM elevator_state_machine, State Idle">
<path fill="none" stroke="#000000" d="M258,-348C258,-348 210,-348 210,-348 204,-348 198,-342 198,-336 198,-336 198,-324 198,-324 198,-318 204,-312 210,-312 210,-312 258,-312 258,-312 264,-312 270,-318 270,-324 270,-324 270,-336 270,-336 270,-342 264,-348 258,-348"/>
<text text-anchor="middle" x="234" y="-325.8" font-family="Times,serif" font-size="14.00" fill="#000000">Idle</text>
</a>
</g>
</g>
<!-- start_Elevator_elevator_state_machine&#45;&gt;Elevator_elevator_state_machine_Idle -->
<g id="edge1" class="edge">
<title>start_Elevator_elevator_state_machine&#45;&gt;Elevator_elevator_state_machine_Idle</title>
<g id="a_edge1"><a xlink:title="start to Idle">
<path fill="none" stroke="#000000" d="M234,-394.0279C234,-385.5373 234,-371.0805 234,-358.0504"/>
<polygon fill="#000000" stroke="#000000" points="237.5001,-358.0475 234,-348.0475 230.5001,-358.0475 237.5001,-358.0475"/>
</a>
</g>
</g>
<!-- Elevator_elevator_state_machinePrepareUp_DoorClosingMovingUp -->
<g id="node4" class="node">
<title>Elevator_elevator_state_machinePrepareUp_DoorClosingMovingUp</title>
<g id="a_node4"><a xlink:title="Class Elevator, SM elevator_state_machine, State PrepareUp.DoorClosingMovingUp">
<path fill="none" stroke="#000000" d="M809.7863,-262C809.7863,-262 684.2137,-262 684.2137,-262 678.2137,-262 672.2137,-256 672.2137,-250 672.2137,-250 672.2137,-238 672.2137,-238 672.2137,-232 678.2137,-226 684.2137,-226 684.2137,-226 809.7863,-226 809.7863,-226 815.7863,-226 821.7863,-232 821.7863,-238 821.7863,-238 821.7863,-250 821.7863,-250 821.7863,-256 815.7863,-262 809.7863,-262"/>
<text text-anchor="middle" x="747" y="-239.8" font-family="Times,serif" font-size="14.00" fill="#000000">DoorClosingMovingUp</text>
</a>
</g>
</g>
<!-- Elevator_elevator_state_machine_Idle&#45;&gt;Elevator_elevator_state_machinePrepareUp_DoorClosingMovingUp -->
<g id="edge3" class="edge">
<title>Elevator_elevator_state_machine_Idle&#45;&gt;Elevator_elevator_state_machinePrepareUp_DoorClosingMovingUp</title>
<g id="a_edge3"><a xlink:title="From Idle to PrepareUp on upRequest">
<path fill="none" stroke="#000000" d="M247.9453,-311.934C257.7808,-300.644 271.9982,-286.9682 287.8965,-280 321.1488,-265.4255 538.3507,-253.4092 661.7201,-247.6583"/>
<polygon fill="#000000" stroke="#000000" points="654.9129,-252.6359 664,-247.1883 653.4991,-245.7801 654.9129,-252.6359"/>
</a>
</g>
<text text-anchor="middle" x="317.5518" y="-282.8" font-family="Times,serif" font-size="14.00" fill="#000000">upRequest</text>
</g>
<!-- Elevator_elevator_state_machinePrepareDown_DoorClosingMovingDown -->
<g id="node6" class="node">
<title>Elevator_elevator_state_machinePrepareDown_DoorClosingMovingDown</title>
<g id="a_node6"><a xlink:title="Class Elevator, SM elevator_state_machine, State PrepareDown.DoorClosingMovingDown">
<path fill="none" stroke="#000000" d="M170.3965,-262C170.3965,-262 27.6035,-262 27.6035,-262 21.6035,-262 15.6035,-256 15.6035,-250 15.6035,-250 15.6035,-238 15.6035,-238 15.6035,-232 21.6035,-226 27.6035,-226 27.6035,-226 170.3965,-226 170.3965,-226 176.3965,-226 182.3965,-232 182.3965,-238 182.3965,-238 182.3965,-250 182.3965,-250 182.3965,-256 176.3965,-262 170.3965,-262"/>
<text text-anchor="middle" x="99" y="-239.8" font-family="Times,serif" font-size="14.00" fill="#000000">DoorClosingMovingDown</text>
</a>
</g>
</g>
<!-- Elevator_elevator_state_machine_Idle&#45;&gt;Elevator_elevator_state_machinePrepareDown_DoorClosingMovingDown -->
<g id="edge6" class="edge">
<title>Elevator_elevator_state_machine_Idle&#45;&gt;Elevator_elevator_state_machinePrepareDown_DoorClosingMovingDown</title>
<g id="a_edge6"><a xlink:title="From Idle to PrepareDown on downRequest">
<path fill="none" stroke="#000000" d="M206.0556,-311.77C203.7834,-310.2985 201.4886,-308.8157 198.5081,-306.8985"/>
<polygon fill="#000000" stroke="#000000" points="200.3036,-303.8921 189.997,-301.4376 196.5234,-309.7837 200.3036,-303.8921"/>
</a>
</g>
<text text-anchor="middle" x="214.1069" y="-282.8" font-family="Times,serif" font-size="14.00" fill="#000000">downRequest</text>
</g>
<!-- start_Elevator_PrepareUp -->
<g id="node3" class="node">
<title>start_Elevator_PrepareUp</title>
<g id="a_node3"><a xlink:title="Class Elevator, SM elevator_state_machine, State PrepareUp.start">
<ellipse fill="#000000" stroke="#000000" cx="747" cy="-401.4" rx="7.2" ry="7.2"/>
</a>
</g>
</g>
<!-- start_Elevator_PrepareUp&#45;&gt;Elevator_elevator_state_machinePrepareUp_DoorClosingMovingUp -->
<g id="edge5" class="edge">
<title>start_Elevator_PrepareUp&#45;&gt;Elevator_elevator_state_machinePrepareUp_DoorClosingMovingUp</title>
<g id="a_edge5"><a xlink:title="start to PrepareUp.DoorClosingMovingUp">
<path fill="none" stroke="#000000" d="M747,-393.8083C747,-372.1783 747,-309.4084 747,-272.34"/>
<polygon fill="#000000" stroke="#000000" points="750.5001,-272.1782 747,-262.1783 743.5001,-272.1783 750.5001,-272.1782"/>
</a>
</g>
</g>
<!-- Elevator_elevator_state_machineInMotion_Moving -->
<g id="node8" class="node">
<title>Elevator_elevator_state_machineInMotion_Moving</title>
<g id="a_node8"><a xlink:title="Class Elevator, SM elevator_state_machine, State InMotion.Moving">
<path fill="none" stroke="#000000" d="M906,-176C906,-176 858,-176 858,-176 852,-176 846,-170 846,-164 846,-164 846,-152 846,-152 846,-146 852,-140 858,-140 858,-140 906,-140 906,-140 912,-140 918,-146 918,-152 918,-152 918,-164 918,-164 918,-170 912,-176 906,-176"/>
<text text-anchor="middle" x="882" y="-153.8" font-family="Times,serif" font-size="14.00" fill="#000000">Moving</text>
</a>
</g>
</g>
<!-- Elevator_elevator_state_machinePrepareUp_DoorClosingMovingUp&#45;&gt;Elevator_elevator_state_machineInMotion_Moving -->
<g id="edge9" class="edge">
<title>Elevator_elevator_state_machinePrepareUp_DoorClosingMovingUp&#45;&gt;Elevator_elevator_state_machineInMotion_Moving</title>
<g id="a_edge9"><a xlink:title="From PrepareUp.DoorClosingMovingUp to InMotion on doorClosed&#13;Transition Action:&#10; &#160;&#160;&#160;&#160;goUp();">
<path fill="none" stroke="#000000" d="M738.4543,-225.6378C735.0419,-215.3504 733.3505,-202.8504 740.2344,-194 751.991,-178.8848 799.1001,-169.0844 835.8259,-163.5828"/>
<polygon fill="#000000" stroke="#000000" points="828.8897,-168.553 838,-163.1442 827.5052,-161.6912 828.8897,-168.553"/>
</a>
</g>
<text text-anchor="middle" x="799.8828" y="-196.8" font-family="Times,serif" font-size="14.00" fill="#000000">doorClosed / goUp();</text>
</g>
<!-- Elevator_elevator_state_machinePrepareUp_DoorClosingMovingUp&#45;&gt;Elevator_elevator_state_machineInMotion_Moving -->
<g id="edge12" class="edge">
<title>Elevator_elevator_state_machinePrepareUp_DoorClosingMovingUp&#45;&gt;Elevator_elevator_state_machineInMotion_Moving</title>
<g id="a_edge12"><a xlink:title="From PrepareUp to InMotion.Moving on started">
<path fill="none" stroke="#000000" d="M830,-218.8209C846.0309,-213.6953 858.4151,-209.4251 860,-208 866.5177,-202.1395 871.1967,-193.9937 874.5152,-185.9765"/>
<polygon fill="#000000" stroke="#000000" points="877.8596,-187.018 877.9204,-176.4233 871.266,-184.6677 877.8596,-187.018"/>
</a>
</g>
<text text-anchor="middle" x="887.6587" y="-196.8" font-family="Times,serif" font-size="14.00" fill="#000000">started</text>
</g>
<!-- start_Elevator_PrepareDown -->
<g id="node5" class="node">
<title>start_Elevator_PrepareDown</title>
<g id="a_node5"><a xlink:title="Class Elevator, SM elevator_state_machine, State PrepareDown.start">
<ellipse fill="#000000" stroke="#000000" cx="99" cy="-401.4" rx="7.2" ry="7.2"/>
</a>
</g>
</g>
<!-- start_Elevator_PrepareDown&#45;&gt;Elevator_elevator_state_machinePrepareDown_DoorClosingMovingDown -->
<g id="edge8" class="edge">
<title>start_Elevator_PrepareDown&#45;&gt;Elevator_elevator_state_machinePrepareDown_DoorClosingMovingDown</title>
<g id="a_edge8"><a xlink:title="start to PrepareDown.DoorClosingMovingDown">
<path fill="none" stroke="#000000" d="M99,-393.8083C99,-372.1783 99,-309.4084 99,-272.34"/>
<polygon fill="#000000" stroke="#000000" points="102.5001,-272.1782 99,-262.1783 95.5001,-272.1783 102.5001,-272.1782"/>
</a>
</g>
</g>
<!-- Elevator_elevator_state_machinePrepareDown_DoorClosingMovingDown&#45;&gt;Elevator_elevator_state_machineInMotion_Moving -->
<g id="edge10" class="edge">
<title>Elevator_elevator_state_machinePrepareDown_DoorClosingMovingDown&#45;&gt;Elevator_elevator_state_machineInMotion_Moving</title>
<g id="a_edge10"><a xlink:title="From PrepareDown.DoorClosingMovingDown to InMotion on doorClosed&#13;Transition Action:&#10; &#160;&#160;&#160;&#160;goDown();">
<path fill="none" stroke="#000000" d="M182.4237,-234.8372C346.6576,-216.7988 707.0792,-177.2122 835.4547,-163.1123"/>
<polygon fill="#000000" stroke="#000000" points="830.2749,-169.2354 838,-161.9846 827.4393,-162.8354 830.2749,-169.2354"/>
</a>
</g>
<text text-anchor="middle" x="605.438" y="-196.8" font-family="Times,serif" font-size="14.00" fill="#000000">doorClosed / goDown();</text>
</g>
<!-- Elevator_elevator_state_machinePrepareDown_DoorClosingMovingDown&#45;&gt;Elevator_elevator_state_machineInMotion_Moving -->
<g id="edge13" class="edge">
<title>Elevator_elevator_state_machinePrepareDown_DoorClosingMovingDown&#45;&gt;Elevator_elevator_state_machineInMotion_Moving</title>
<g id="a_edge13"><a xlink:title="From PrepareDown to InMotion.Moving on started">
<path fill="none" stroke="#000000" d="M189.996,-226.7995C249.9364,-216.0058 330.2529,-202.5594 401.6826,-194 560.2935,-174.9937 749.649,-164.3068 835.5432,-160.1066"/>
<polygon fill="#000000" stroke="#000000" points="835.9214,-163.5925 845.7412,-159.6148 835.5841,-156.6007 835.9214,-163.5925"/>
</a>
</g>
<text text-anchor="middle" x="419.6587" y="-196.8" font-family="Times,serif" font-size="14.00" fill="#000000">started</text>
</g>
<!-- start_Elevator_InMotion -->
<g id="node7" class="node">
<title>start_Elevator_InMotion</title>
<g id="a_node7"><a xlink:title="Class Elevator, SM elevator_state_machine, State InMotion.start">
<ellipse fill="#000000" stroke="#000000" cx="925" cy="-330" rx="7.2" ry="7.2"/>
</a>
</g>
</g>
<!-- start_Elevator_InMotion&#45;&gt;Elevator_elevator_state_machineInMotion_Moving -->
<g id="edge11" class="edge">
<title>start_Elevator_InMotion&#45;&gt;Elevator_elevator_state_machineInMotion_Moving</title>
<g id="a_edge11"><a xlink:title="start to InMotion.Moving">
<path fill="none" stroke="#000000" d="M925.5563,-322.5828C926.8516,-301.5387 928.6657,-240.0039 910,-194 908.6799,-190.7465 906.977,-187.54 905.0636,-184.4618"/>
<polygon fill="#000000" stroke="#000000" points="907.8683,-182.3654 899.2564,-176.194 902.1401,-186.3889 907.8683,-182.3654"/>
</a>
</g>
</g>
<!-- Elevator_elevator_state_machineInMotion_Moving&#45;&gt;Elevator_elevator_state_machineInMotion_Moving -->
<g id="edge14" class="edge">
<title>Elevator_elevator_state_machineInMotion_Moving&#45;&gt;Elevator_elevator_state_machineInMotion_Moving</title>
<g id="a_edge14"><a xlink:title="From InMotion.Moving to InMotion.Moving on approachingFloor&#13;Guard: &#160;[!floorRequested()]">
<path fill="none" stroke="#000000" d="M918.0873,-164.7166C928.2211,-164.4225 936,-162.1836 936,-158 936,-155.3853 932.9614,-153.5302 928.2083,-152.4347"/>
<polygon fill="#000000" stroke="#000000" points="928.4189,-148.9362 918.0873,-151.2834 927.6276,-155.8913 928.4189,-148.9362"/>
</a>
</g>
<text text-anchor="middle" x="1041.5537" y="-153.8" font-family="Times,serif" font-size="14.00" fill="#000000">approachingFloor [!floorRequested()]</text>
</g>
<!-- Elevator_elevator_state_machineInMotion_Stopping -->
<g id="node9" class="node">
<title>Elevator_elevator_state_machineInMotion_Stopping</title>
<g id="a_node9"><a xlink:title="Class Elevator, SM elevator_state_machine, State InMotion.Stopping">
<path fill="none" stroke="#000000" d="M1021,-52C1021,-52 973,-52 973,-52 967,-52 961,-46 961,-40 961,-40 961,-28 961,-28 961,-22 967,-16 973,-16 973,-16 1021,-16 1021,-16 1027,-16 1033,-22 1033,-28 1033,-28 1033,-40 1033,-40 1033,-46 1027,-52 1021,-52"/>
<text text-anchor="middle" x="997" y="-29.8" font-family="Times,serif" font-size="14.00" fill="#000000">Stopping</text>
</a>
</g>
</g>
<!-- Elevator_elevator_state_machineInMotion_Moving&#45;&gt;Elevator_elevator_state_machineInMotion_Stopping -->
<g id="edge15" class="edge">
<title>Elevator_elevator_state_machineInMotion_Moving&#45;&gt;Elevator_elevator_state_machineInMotion_Stopping</title>
<g id="a_edge15"><a xlink:title="From InMotion.Moving to InMotion.Stopping on approachedFloor&#13;Guard: &#160;[floorRequested()]&#13;Transition Action:&#10; &#160;&#160;&#160;&#160;stop();">
<path fill="none" stroke="#000000" d="M886.5873,-139.9895C891.0883,-125.0587 899.1419,-103.9367 911.7891,-89 922.8132,-75.9802 937.6987,-64.9373 951.9434,-56.2399"/>
<polygon fill="#000000" stroke="#000000" points="953.8203,-59.197 960.6898,-51.131 950.2896,-53.1526 953.8203,-59.197"/>
</a>
</g>
<text text-anchor="middle" x="1035.6055" y="-91.8" font-family="Times,serif" font-size="14.00" fill="#000000">approachedFloor [floorRequested()] / stop();</text>
</g>
<!-- Elevator_elevator_state_machineOnFloor_DoorOpening -->
<g id="node11" class="node">
<title>Elevator_elevator_state_machineOnFloor_DoorOpening</title>
<g id="a_node11"><a xlink:title="Class Elevator, SM elevator_state_machine, State OnFloor.DoorOpening">
<path fill="none" stroke="#000000" d="M519.4863,-749.6C519.4863,-749.6 450.5137,-749.6 450.5137,-749.6 444.5137,-749.6 438.5137,-743.6 438.5137,-737.6 438.5137,-737.6 438.5137,-725.6 438.5137,-725.6 438.5137,-719.6 444.5137,-713.6 450.5137,-713.6 450.5137,-713.6 519.4863,-713.6 519.4863,-713.6 525.4863,-713.6 531.4863,-719.6 531.4863,-725.6 531.4863,-725.6 531.4863,-737.6 531.4863,-737.6 531.4863,-743.6 525.4863,-749.6 519.4863,-749.6"/>
<text text-anchor="middle" x="485" y="-727.4" font-family="Times,serif" font-size="14.00" fill="#000000">DoorOpening</text>
</a>
</g>
</g>
<!-- Elevator_elevator_state_machineInMotion_Stopping&#45;&gt;Elevator_elevator_state_machineOnFloor_DoorOpening -->
<g id="edge17" class="edge">
<title>Elevator_elevator_state_machineInMotion_Stopping&#45;&gt;Elevator_elevator_state_machineOnFloor_DoorOpening</title>
<g id="a_edge17"><a xlink:title="From InMotion.Stopping to OnFloor.DoorOpening on stopped&#13;Transition Action:&#10; &#160;&#160;&#160;&#160;openDoor();">
<path fill="none" stroke="#000000" d="M1033.021,-39.082C1085.0331,-47.4475 1175,-66.2214 1175,-96 1175,-669.6 1175,-669.6 1175,-669.6 1175,-701.2844 707.3776,-722.8197 542.0578,-729.4431"/>
<polygon fill="#000000" stroke="#000000" points="541.4671,-725.9637 531.6138,-729.8578 541.7448,-732.9582 541.4671,-725.9637"/>
</a>
</g>
<text text-anchor="middle" x="1236.8208" y="-397.2" font-family="Times,serif" font-size="14.00" fill="#000000">stopped / openDoor();</text>
</g>
<!-- start_Elevator_OnFloor -->
<g id="node10" class="node">
<title>start_Elevator_OnFloor</title>
<g id="a_node10"><a xlink:title="Class Elevator, SM elevator_state_machine, State OnFloor.start">
<ellipse fill="#000000" stroke="#000000" cx="485" cy="-831.8" rx="7.2" ry="7.2"/>
</a>
</g>
</g>
<!-- start_Elevator_OnFloor&#45;&gt;Elevator_elevator_state_machineOnFloor_DoorOpening -->
<g id="edge16" class="edge">
<title>start_Elevator_OnFloor&#45;&gt;Elevator_elevator_state_machineOnFloor_DoorOpening</title>
<g id="a_edge16"><a xlink:title="start to OnFloor.DoorOpening">
<path fill="none" stroke="#000000" d="M485,-824.5939C485,-811.2512 485,-782.042 485,-759.8953"/>
<polygon fill="#000000" stroke="#000000" points="488.5001,-759.691 485,-749.6911 481.5001,-759.6911 488.5001,-759.691"/>
</a>
</g>
</g>
<!-- Elevator_elevator_state_machineOnFloor_AtFloor -->
<g id="node12" class="node">
<title>Elevator_elevator_state_machineOnFloor_AtFloor</title>
<g id="a_node12"><a xlink:title="Class Elevator, SM elevator_state_machine, State OnFloor.AtFloor">
<path fill="none" stroke="#000000" d="M465,-625.6C465,-625.6 417,-625.6 417,-625.6 411,-625.6 405,-619.6 405,-613.6 405,-613.6 405,-601.6 405,-601.6 405,-595.6 411,-589.6 417,-589.6 417,-589.6 465,-589.6 465,-589.6 471,-589.6 477,-595.6 477,-601.6 477,-601.6 477,-613.6 477,-613.6 477,-619.6 471,-625.6 465,-625.6"/>
<text text-anchor="middle" x="441" y="-603.4" font-family="Times,serif" font-size="14.00" fill="#000000">AtFloor</text>
</a>
</g>
</g>
<!-- Elevator_elevator_state_machineOnFloor_DoorOpening&#45;&gt;Elevator_elevator_state_machineOnFloor_AtFloor -->
<g id="edge20" class="edge">
<title>Elevator_elevator_state_machineOnFloor_DoorOpening&#45;&gt;Elevator_elevator_state_machineOnFloor_AtFloor</title>
<g id="a_edge20"><a xlink:title="From OnFloor.DoorOpening to OnFloor.AtFloor on doorOpened">
<path fill="none" stroke="#000000" d="M473.1848,-713.4311C466.8928,-703.0198 459.5033,-689.4946 454.7998,-676.6 450.0575,-663.599 446.81,-648.5931 444.663,-635.9024"/>
<polygon fill="#000000" stroke="#000000" points="448.1003,-635.2274 443.1097,-625.8815 441.1829,-636.2997 448.1003,-635.2274"/>
</a>
</g>
<text text-anchor="middle" x="488.6001" y="-665.4" font-family="Times,serif" font-size="14.00" fill="#000000">doorOpened</text>
</g>
<!-- Elevator_elevator_state_machineOnFloor_DoorClosing -->
<g id="node13" class="node">
<title>Elevator_elevator_state_machineOnFloor_DoorClosing</title>
<g id="a_node13"><a xlink:title="Class Elevator, SM elevator_state_machine, State OnFloor.DoorClosing">
<path fill="none" stroke="#000000" d="M459.3385,-501.6C459.3385,-501.6 394.6615,-501.6 394.6615,-501.6 388.6615,-501.6 382.6615,-495.6 382.6615,-489.6 382.6615,-489.6 382.6615,-477.6 382.6615,-477.6 382.6615,-471.6 388.6615,-465.6 394.6615,-465.6 394.6615,-465.6 459.3385,-465.6 459.3385,-465.6 465.3385,-465.6 471.3385,-471.6 471.3385,-477.6 471.3385,-477.6 471.3385,-489.6 471.3385,-489.6 471.3385,-495.6 465.3385,-501.6 459.3385,-501.6"/>
<text text-anchor="middle" x="427" y="-479.4" font-family="Times,serif" font-size="14.00" fill="#000000">DoorClosing</text>
</a>
</g>
</g>
<!-- Elevator_elevator_state_machineOnFloor_AtFloor&#45;&gt;Elevator_elevator_state_machineOnFloor_DoorClosing -->
<g id="edge21" class="edge">
<title>Elevator_elevator_state_machineOnFloor_AtFloor&#45;&gt;Elevator_elevator_state_machineOnFloor_DoorClosing</title>
<g id="a_edge21"><a xlink:title="From OnFloor.AtFloor to OnFloor.DoorClosing after(timer)&#13;Guard: &#160;[!obstruction()]">
<path fill="none" stroke="#000000" d="M404.8416,-598.7244C381.2256,-590.8461 352.1742,-576.7269 337.6855,-552.6 324.6464,-530.8868 347.545,-513.5093 373.4142,-501.6248"/>
<polygon fill="#000000" stroke="#000000" points="374.8355,-504.8235 382.6343,-497.652 372.0655,-498.3949 374.8355,-504.8235"/>
</a>
</g>
<text text-anchor="middle" x="415.1572" y="-541.4" font-family="Times,serif" font-size="14.00" fill="#000000">after(timer) [!obstruction()]</text>
</g>
<!-- Elevator_elevator_state_machineOnFloor_AtFloor&#45;&gt;Elevator_elevator_state_machineOnFloor_DoorClosing -->
<g id="edge22" class="edge">
<title>Elevator_elevator_state_machineOnFloor_AtFloor&#45;&gt;Elevator_elevator_state_machineOnFloor_DoorClosing</title>
<g id="a_edge22"><a xlink:title="From OnFloor.AtFloor to OnFloor.DoorClosing on doorClosingRequest">
<path fill="none" stroke="#000000" d="M468.3294,-589.5908C484.6993,-576.3812 500.7746,-557.5189 492,-538.6 486.4543,-526.6428 476.8865,-516.3428 466.7711,-507.9962"/>
<polygon fill="#000000" stroke="#000000" points="468.6706,-505.0419 458.6077,-501.7268 464.4069,-510.5936 468.6706,-505.0419"/>
</a>
</g>
<text text-anchor="middle" x="551.1655" y="-541.4" font-family="Times,serif" font-size="14.00" fill="#000000">doorClosingRequest</text>
</g>
<!-- Elevator_elevator_state_machineOnFloor_DoorClosing&#45;&gt;Elevator_elevator_state_machineOnFloor_DoorOpening -->
<g id="edge18" class="edge">
<title>Elevator_elevator_state_machineOnFloor_DoorClosing&#45;&gt;Elevator_elevator_state_machineOnFloor_DoorOpening</title>
<g id="a_edge18"><a xlink:title="From OnFloor.DoorClosing to OnFloor.DoorOpening on obstruction">
<path fill="none" stroke="#000000" d="M382.7728,-495.8432C368.3074,-501.3957 352.9125,-509.1262 341,-519.6 305.5191,-550.7959 310.2946,-584.1726 333.0068,-625.6 354.1604,-664.1844 396.0981,-691.7976 430.5721,-709.1486"/>
<polygon fill="#000000" stroke="#000000" points="429.0923,-712.3209 439.6151,-713.5549 432.1585,-706.0282 429.0923,-712.3209"/>
</a>
</g>
<text text-anchor="middle" x="365.4966" y="-603.4" font-family="Times,serif" font-size="14.00" fill="#000000">obstruction</text>
</g>
<!-- Elevator_elevator_state_machineOnFloor_DoorClosing&#45;&gt;Elevator_elevator_state_machineOnFloor_DoorOpening -->
<g id="edge19" class="edge">
<title>Elevator_elevator_state_machineOnFloor_DoorClosing&#45;&gt;Elevator_elevator_state_machineOnFloor_DoorOpening</title>
<g id="a_edge19"><a xlink:title="From OnFloor.DoorClosing to OnFloor.DoorOpening on doorOpeningRequest">
<path fill="none" stroke="#000000" d="M471.5862,-490.6314C520.757,-499.403 595.1707,-516.0394 612,-538.6 655.8465,-597.3786 572.2959,-670.6356 520.9472,-707.7139"/>
<polygon fill="#000000" stroke="#000000" points="518.8325,-704.9227 512.6984,-713.5612 522.8807,-710.6335 518.8325,-704.9227"/>
</a>
</g>
<text text-anchor="middle" x="681.4897" y="-603.4" font-family="Times,serif" font-size="14.00" fill="#000000">doorOpeningRequest</text>
</g>
<!-- Elevator_elevator_state_machineOnFloor_CheckingNextDestination -->
<g id="node14" class="node">
<title>Elevator_elevator_state_machineOnFloor_CheckingNextDestination</title>
<g id="a_node14"><a xlink:title="Class Elevator, SM elevator_state_machine, State OnFloor.CheckingNextDestination">
<path fill="none" stroke="#000000" d="M495.9146,-348C495.9146,-348 358.0854,-348 358.0854,-348 352.0854,-348 346.0854,-342 346.0854,-336 346.0854,-336 346.0854,-324 346.0854,-324 346.0854,-318 352.0854,-312 358.0854,-312 358.0854,-312 495.9146,-312 495.9146,-312 501.9146,-312 507.9146,-318 507.9146,-324 507.9146,-324 507.9146,-336 507.9146,-336 507.9146,-342 501.9146,-348 495.9146,-348"/>
<text text-anchor="middle" x="427" y="-325.8" font-family="Times,serif" font-size="14.00" fill="#000000">CheckingNextDestination</text>
</a>
</g>
</g>
<!-- Elevator_elevator_state_machineOnFloor_DoorClosing&#45;&gt;Elevator_elevator_state_machineOnFloor_CheckingNextDestination -->
<g id="edge23" class="edge">
<title>Elevator_elevator_state_machineOnFloor_DoorClosing&#45;&gt;Elevator_elevator_state_machineOnFloor_CheckingNextDestination</title>
<g id="a_edge23"><a xlink:title="From OnFloor.DoorClosing to OnFloor.CheckingNextDestination on doorClosed">
<path fill="none" stroke="#000000" d="M427,-465.3769C427,-438.933 427,-389.6777 427,-358.433"/>
<polygon fill="#000000" stroke="#000000" points="430.5001,-358.1994 427,-348.1994 423.5001,-358.1994 430.5001,-358.1994"/>
</a>
</g>
<text text-anchor="middle" x="459.2759" y="-397.2" font-family="Times,serif" font-size="14.00" fill="#000000">doorClosed</text>
</g>
<!-- Elevator_elevator_state_machineOnFloor_CheckingNextDestination&#45;&gt;Elevator_elevator_state_machine_Idle -->
<g id="edge2" class="edge">
<title>Elevator_elevator_state_machineOnFloor_CheckingNextDestination&#45;&gt;Elevator_elevator_state_machine_Idle</title>
<g id="a_edge2"><a xlink:title="From OnFloor.CheckingNextDestination to Idle on noRequest">
<path fill="none" stroke="#000000" d="M346.0681,-330C323.7029,-330 300.1919,-330 280.5123,-330"/>
<polygon fill="#000000" stroke="#000000" points="280.3019,-326.5001 270.3018,-330 280.3018,-333.5001 280.3019,-326.5001"/>
</a>
</g>
<text text-anchor="middle" x="308.1465" y="-335.8" font-family="Times,serif" font-size="14.00" fill="#000000">noRequest</text>
</g>
<!-- Elevator_elevator_state_machineOnFloor_CheckingNextDestination&#45;&gt;Elevator_elevator_state_machinePrepareUp_DoorClosingMovingUp -->
<g id="edge4" class="edge">
<title>Elevator_elevator_state_machineOnFloor_CheckingNextDestination&#45;&gt;Elevator_elevator_state_machinePrepareUp_DoorClosingMovingUp</title>
<g id="a_edge4"><a xlink:title="From OnFloor.CheckingNextDestination to PrepareUp on upRequest">
<path fill="none" stroke="#000000" d="M494.0825,-311.9716C540.5502,-299.4834 603.0192,-282.6949 654.2459,-268.9277"/>
<polygon fill="#000000" stroke="#000000" points="655.2542,-272.281 664.0031,-266.3054 653.4374,-265.5208 655.2542,-272.281"/>
</a>
</g>
<text text-anchor="middle" x="635.5518" y="-282.8" font-family="Times,serif" font-size="14.00" fill="#000000">upRequest</text>
</g>
<!-- Elevator_elevator_state_machineOnFloor_CheckingNextDestination&#45;&gt;Elevator_elevator_state_machinePrepareDown_DoorClosingMovingDown -->
<g id="edge7" class="edge">
<title>Elevator_elevator_state_machineOnFloor_CheckingNextDestination&#45;&gt;Elevator_elevator_state_machinePrepareDown_DoorClosingMovingDown</title>
<g id="a_edge7"><a xlink:title="From OnFloor.CheckingNextDestination to PrepareDown on downRequest">
<path fill="none" stroke="#000000" d="M405.1555,-311.8618C390.6881,-300.8412 370.7929,-287.4931 351,-280 322.5757,-269.2393 251.9508,-259.6495 192.6773,-253.0787"/>
<polygon fill="#000000" stroke="#000000" points="200.5782,-252.5649 190,-251.969 197.8977,-259.0315 200.5782,-252.5649"/>
</a>
</g>
<text text-anchor="middle" x="416.1069" y="-282.8" font-family="Times,serif" font-size="14.00" fill="#000000">downRequest</text>
</g>
</g>
</svg>
