<?xml version="1.0" encoding="UTF-8" standalone="no"?>
<!DOCTYPE svg PUBLIC "-//W3C//DTD SVG 1.1//EN"
 "http://www.w3.org/Graphics/SVG/1.1/DTD/svg11.dtd">
<!-- Generated by graphviz version 2.36.0 (20140111.2315)
 -->
<!-- Title: Elevator_State_Machine Pages: 1 -->
<svg width="1274pt" height="699pt"
 viewBox="0.00 0.00 1274.00 699.00" xmlns="http://www.w3.org/2000/svg" xmlns:xlink="http://www.w3.org/1999/xlink">
<g id="graph0" class="graph" transform="scale(1 1) rotate(0) translate(4 695)">
<title>Elevator_State_Machine</title>
<polygon fill="white" stroke="none" points="-4,4 -4,-695 1270,-695 1270,4 -4,4"/>
<g id="clust1" class="cluster"><title>clusterElevator_elevator_state_machine_PrepareUp</title>
<path fill="none" stroke="black" d="M642,-184C642,-184 784,-184 784,-184 790,-184 796,-190 796,-196 796,-196 796,-334 796,-334 796,-340 790,-346 784,-346 784,-346 642,-346 642,-346 636,-346 630,-340 630,-334 630,-334 630,-196 630,-196 630,-190 636,-184 642,-184"/>
<text text-anchor="middle" x="713" y="-330.8" font-family="Times,serif" font-size="14.00">PrepareUp</text>
</g>
<g id="clust2" class="cluster"><title>clusterElevator_elevator_state_machine_PrepareDown</title>
<path fill="none" stroke="black" d="M20,-184C20,-184 180,-184 180,-184 186,-184 192,-190 192,-196 192,-196 192,-334 192,-334 192,-340 186,-346 180,-346 180,-346 20,-346 20,-346 14,-346 8,-340 8,-334 8,-334 8,-196 8,-196 8,-190 14,-184 20,-184"/>
<text text-anchor="middle" x="100" y="-330.8" font-family="Times,serif" font-size="14.00">PrepareDown</text>
</g>
<g id="clust3" class="cluster"><title>clusterElevator_elevator_state_machine_InMotion</title>
<path fill="none" stroke="black" d="M816,-8C816,-8 1110,-8 1110,-8 1116,-8 1122,-14 1122,-20 1122,-20 1122,-236 1122,-236 1122,-242 1116,-248 1110,-248 1110,-248 816,-248 816,-248 810,-248 804,-242 804,-236 804,-236 804,-20 804,-20 804,-14 810,-8 816,-8"/>
<text text-anchor="middle" x="963" y="-232.8" font-family="Times,serif" font-size="14.00">InMotion</text>
</g>
<g id="clust4" class="cluster"><title>clusterElevator_elevator_state_machine_OnFloor</title>
<path fill="none" stroke="black" d="M292,-282C292,-282 610,-282 610,-282 616,-282 622,-288 622,-294 622,-294 622,-671 622,-671 622,-677 616,-683 610,-683 610,-683 292,-683 292,-683 286,-683 280,-677 280,-671 280,-671 280,-294 280,-294 280,-288 286,-282 292,-282"/>
<text text-anchor="middle" x="451" y="-667.8" font-family="Times,serif" font-size="14.00">OnFloor</text>
</g>
<!-- start_Elevator_elevator_state_machine -->
<g id="node1" class="node"><title>start_Elevator_elevator_state_machine</title>
<ellipse fill="black" stroke="black" cx="236" cy="-406" rx="7.2" ry="7.2"/>
</g>
<!-- Elevator_elevator_state_machine_Idle -->
<g id="node2" class="node"><title>Elevator_elevator_state_machine_Idle</title>
<path fill="none" stroke="black" d="M260,-326C260,-326 212,-326 212,-326 206,-326 200,-320 200,-314 200,-314 200,-302 200,-302 200,-296 206,-290 212,-290 212,-290 260,-290 260,-290 266,-290 272,-296 272,-302 272,-302 272,-314 272,-314 272,-320 266,-326 260,-326"/>
<text text-anchor="middle" x="236" y="-304.3" font-family="Times,serif" font-size="14.00">Idle</text>
</g>
<!-- start_Elevator_elevator_state_machine&#45;&gt;Elevator_elevator_state_machine_Idle -->
<g id="edge1" class="edge"><title>start_Elevator_elevator_state_machine&#45;&gt;Elevator_elevator_state_machine_Idle</title>
<path fill="none" stroke="black" d="M236,-398.701C236,-386.283 236,-357.979 236,-336.462"/>
<polygon fill="black" stroke="black" points="239.5,-336.246 236,-326.246 232.5,-336.246 239.5,-336.246"/>
</g>
<!-- Elevator_elevator_state_machinePrepareUp_DoorClosingMovingUp -->
<g id="node4" class="node"><title>Elevator_elevator_state_machinePrepareUp_DoorClosingMovingUp</title>
<path fill="none" stroke="black" d="M776,-228C776,-228 650,-228 650,-228 644,-228 638,-222 638,-216 638,-216 638,-204 638,-204 638,-198 644,-192 650,-192 650,-192 776,-192 776,-192 782,-192 788,-198 788,-204 788,-204 788,-216 788,-216 788,-222 782,-228 776,-228"/>
<text text-anchor="middle" x="713" y="-206.3" font-family="Times,serif" font-size="14.00">DoorClosingMovingUp</text>
</g>
<!-- Elevator_elevator_state_machine_Idle&#45;&gt;Elevator_elevator_state_machinePrepareUp_DoorClosingMovingUp -->
<g id="edge3" class="edge"><title>Elevator_elevator_state_machine_Idle&#45;&gt;Elevator_elevator_state_machinePrepareUp_DoorClosingMovingUp</title>
<path fill="none" stroke="black" d="M244.699,-289.763C251.537,-278.149 262.206,-263.61 276,-256 334.525,-223.711 517.768,-214.542 627.51,-211.97"/>
<polygon fill="black" stroke="black" points="620.351,-216.123 630,-211.748 619.729,-209.15 620.351,-216.123"/>
<text text-anchor="middle" x="306" y="-260.3" font-family="Times,serif" font-size="14.00">upRequest</text>
</g>
<!-- Elevator_elevator_state_machinePrepareDown_DoorClosingMovingDown -->
<g id="node6" class="node"><title>Elevator_elevator_state_machinePrepareDown_DoorClosingMovingDown</title>
<path fill="none" stroke="black" d="M171.25,-228C171.25,-228 28.75,-228 28.75,-228 22.75,-228 16.75,-222 16.75,-216 16.75,-216 16.75,-204 16.75,-204 16.75,-198 22.75,-192 28.75,-192 28.75,-192 171.25,-192 171.25,-192 177.25,-192 183.25,-198 183.25,-204 183.25,-204 183.25,-216 183.25,-216 183.25,-222 177.25,-228 171.25,-228"/>
<text text-anchor="middle" x="100" y="-206.3" font-family="Times,serif" font-size="14.00">DoorClosingMovingDown</text>
</g>
<!-- Elevator_elevator_state_machine_Idle&#45;&gt;Elevator_elevator_state_machinePrepareDown_DoorClosingMovingDown -->
<g id="edge6" class="edge"><title>Elevator_elevator_state_machine_Idle&#45;&gt;Elevator_elevator_state_machinePrepareDown_DoorClosingMovingDown</title>
<path fill="none" stroke="black" d="M209.054,-289.781C206.549,-288.244 204.001,-286.701 200.674,-284.768"/>
<polygon fill="black" stroke="black" points="202.283,-281.656 191.859,-279.758 198.824,-287.742 202.283,-281.656"/>
<text text-anchor="middle" x="215.5" y="-260.3" font-family="Times,serif" font-size="14.00">downRequest</text>
</g>
<!-- start_Elevator_elevator_state_machine_PrepareUp -->
<g id="node3" class="node"><title>start_Elevator_elevator_state_machine_PrepareUp</title>
<ellipse fill="black" stroke="black" cx="713" cy="-308" rx="7.2" ry="7.2"/>
</g>
<!-- start_Elevator_elevator_state_machine_PrepareUp&#45;&gt;Elevator_elevator_state_machinePrepareUp_DoorClosingMovingUp -->
<g id="edge5" class="edge"><title>start_Elevator_elevator_state_machine_PrepareUp&#45;&gt;Elevator_elevator_state_machinePrepareUp_DoorClosingMovingUp</title>
<path fill="none" stroke="black" d="M713,-300.701C713,-288.283 713,-259.979 713,-238.462"/>
<polygon fill="black" stroke="black" points="716.5,-238.246 713,-228.246 709.5,-238.246 716.5,-238.246"/>
</g>
<!-- Elevator_elevator_state_machineInMotion_Moving -->
<g id="node8" class="node"><title>Elevator_elevator_state_machineInMotion_Moving</title>
<path fill="none" stroke="black" d="M872,-140C872,-140 824,-140 824,-140 818,-140 812,-134 812,-128 812,-128 812,-116 812,-116 812,-110 818,-104 824,-104 824,-104 872,-104 872,-104 878,-104 884,-110 884,-116 884,-116 884,-128 884,-128 884,-134 878,-140 872,-140"/>
<text text-anchor="middle" x="848" y="-118.3" font-family="Times,serif" font-size="14.00">Moving</text>
</g>
<!-- Elevator_elevator_state_machinePrepareUp_DoorClosingMovingUp&#45;&gt;Elevator_elevator_state_machineInMotion_Moving -->
<g id="edge9" class="edge"><title>Elevator_elevator_state_machinePrepareUp_DoorClosingMovingUp&#45;&gt;Elevator_elevator_state_machineInMotion_Moving</title>
<path fill="none" stroke="black" d="M704.714,-191.715C700.878,-180.959 698.614,-167.427 706,-158 717.808,-142.928 764.99,-133.467 801.766,-128.237"/>
<polygon fill="black" stroke="black" points="794.693,-132.936 804,-127.873 793.567,-126.027 794.693,-132.936"/>
<text text-anchor="middle" x="766" y="-162.3" font-family="Times,serif" font-size="14.00">doorClosed / goUp();</text>
</g>
<!-- Elevator_elevator_state_machinePrepareUp_DoorClosingMovingUp&#45;&gt;Elevator_elevator_state_machineInMotion_Moving -->
<g id="edge12" class="edge"><title>Elevator_elevator_state_machinePrepareUp_DoorClosingMovingUp&#45;&gt;Elevator_elevator_state_machineInMotion_Moving</title>
<path fill="none" stroke="black" d="M795.941,-184.589C812.003,-179.596 824.416,-175.423 826,-174 833.088,-167.632 837.982,-158.582 841.319,-149.868"/>
<polygon fill="black" stroke="black" points="844.655,-150.928 844.46,-140.335 838.007,-148.738 844.655,-150.928"/>
<text text-anchor="middle" x="857" y="-162.3" font-family="Times,serif" font-size="14.00">started</text>
</g>
<!-- start_Elevator_elevator_state_machine_PrepareDown -->
<g id="node5" class="node"><title>start_Elevator_elevator_state_machine_PrepareDown</title>
<ellipse fill="black" stroke="black" cx="100" cy="-308" rx="7.2" ry="7.2"/>
</g>
<!-- start_Elevator_elevator_state_machine_PrepareDown&#45;&gt;Elevator_elevator_state_machinePrepareDown_DoorClosingMovingDown -->
<g id="edge8" class="edge"><title>start_Elevator_elevator_state_machine_PrepareDown&#45;&gt;Elevator_elevator_state_machinePrepareDown_DoorClosingMovingDown</title>
<path fill="none" stroke="black" d="M100,-300.701C100,-288.283 100,-259.979 100,-238.462"/>
<polygon fill="black" stroke="black" points="103.5,-238.246 100,-228.246 96.5001,-238.246 103.5,-238.246"/>
</g>
<!-- Elevator_elevator_state_machinePrepareDown_DoorClosingMovingDown&#45;&gt;Elevator_elevator_state_machineInMotion_Moving -->
<g id="edge10" class="edge"><title>Elevator_elevator_state_machinePrepareDown_DoorClosingMovingDown&#45;&gt;Elevator_elevator_state_machineInMotion_Moving</title>
<path fill="none" stroke="black" d="M183.267,-199.427C340.894,-181.304 678.131,-142.53 801.532,-128.343"/>
<polygon fill="black" stroke="black" points="796.48,-134.63 804,-127.166 793.467,-128.311 796.48,-134.63"/>
<text text-anchor="middle" x="609.5" y="-162.3" font-family="Times,serif" font-size="14.00">doorClosed / goDown();</text>
</g>
<!-- Elevator_elevator_state_machinePrepareDown_DoorClosingMovingDown&#45;&gt;Elevator_elevator_state_machineInMotion_Moving -->
<g id="edge13" class="edge"><title>Elevator_elevator_state_machinePrepareDown_DoorClosingMovingDown&#45;&gt;Elevator_elevator_state_machineInMotion_Moving</title>
<path fill="none" stroke="black" d="M191.543,-188.707C242.641,-178.072 307.591,-165.693 366,-158 525.105,-137.044 715.531,-127.864 801.655,-124.562"/>
<polygon fill="black" stroke="black" points="802.015,-128.051 811.877,-124.179 801.753,-121.056 802.015,-128.051"/>
<text text-anchor="middle" x="385" y="-162.3" font-family="Times,serif" font-size="14.00">started</text>
</g>
<!-- start_Elevator_elevator_state_machine_InMotion -->
<g id="node7" class="node"><title>start_Elevator_elevator_state_machine_InMotion</title>
<ellipse fill="black" stroke="black" cx="892" cy="-210" rx="7.2" ry="7.2"/>
</g>
<!-- start_Elevator_elevator_state_machine_InMotion&#45;&gt;Elevator_elevator_state_machineInMotion_Moving -->
<g id="edge11" class="edge"><title>start_Elevator_elevator_state_machine_InMotion&#45;&gt;Elevator_elevator_state_machineInMotion_Moving</title>
<path fill="none" stroke="black" d="M892.79,-202.633C893.741,-192.562 894.393,-172.605 887,-158 885.158,-154.36 882.764,-150.921 880.069,-147.725"/>
<polygon fill="black" stroke="black" points="882.358,-145.058 872.89,-140.303 877.326,-149.924 882.358,-145.058"/>
</g>
<!-- Elevator_elevator_state_machineInMotion_Moving&#45;&gt;Elevator_elevator_state_machineInMotion_Moving -->
<g id="edge14" class="edge"><title>Elevator_elevator_state_machineInMotion_Moving&#45;&gt;Elevator_elevator_state_machineInMotion_Moving</title>
<path fill="none" stroke="black" d="M884.087,-130.209C894.221,-129.85 902,-127.113 902,-122 902,-118.804 898.961,-116.537 894.208,-115.198"/>
<polygon fill="black" stroke="black" points="894.474,-111.701 884.087,-113.791 893.51,-118.635 894.474,-111.701"/>
<text text-anchor="middle" x="1008" y="-118.3" font-family="Times,serif" font-size="14.00">approachingFloor [!floorRequested()]</text>
</g>
<!-- Elevator_elevator_state_machineInMotion_Stopping -->
<g id="node9" class="node"><title>Elevator_elevator_state_machineInMotion_Stopping</title>
<path fill="none" stroke="black" d="M995,-52C995,-52 947,-52 947,-52 941,-52 935,-46 935,-40 935,-40 935,-28 935,-28 935,-22 941,-16 947,-16 947,-16 995,-16 995,-16 1001,-16 1007,-22 1007,-28 1007,-28 1007,-40 1007,-40 1007,-46 1001,-52 995,-52"/>
<text text-anchor="middle" x="971" y="-30.3" font-family="Times,serif" font-size="14.00">Stopping</text>
</g>
<!-- Elevator_elevator_state_machineInMotion_Moving&#45;&gt;Elevator_elevator_state_machineInMotion_Stopping -->
<g id="edge15" class="edge"><title>Elevator_elevator_state_machineInMotion_Moving&#45;&gt;Elevator_elevator_state_machineInMotion_Stopping</title>
<path fill="none" stroke="black" d="M854.549,-103.817C859.512,-92.8262 867.31,-78.9948 878,-70 891.445,-58.6863 908.915,-50.8347 925.077,-45.4814"/>
<polygon fill="black" stroke="black" points="926.389,-48.74 934.924,-42.4624 924.337,-42.0475 926.389,-48.74"/>
<text text-anchor="middle" x="1003" y="-74.3" font-family="Times,serif" font-size="14.00">approachedFloor [floorRequested()] / stop();</text>
</g>
<!-- Elevator_elevator_state_machineOnFloor_DoorOpening -->
<g id="node11" class="node"><title>Elevator_elevator_state_machineOnFloor_DoorOpening</title>
<path fill="none" stroke="black" d="M491.25,-600C491.25,-600 422.75,-600 422.75,-600 416.75,-600 410.75,-594 410.75,-588 410.75,-588 410.75,-576 410.75,-576 410.75,-570 416.75,-564 422.75,-564 422.75,-564 491.25,-564 491.25,-564 497.25,-564 503.25,-570 503.25,-576 503.25,-576 503.25,-588 503.25,-588 503.25,-594 497.25,-600 491.25,-600"/>
<text text-anchor="middle" x="457" y="-578.3" font-family="Times,serif" font-size="14.00">DoorOpening</text>
</g>
<!-- Elevator_elevator_state_machineInMotion_Stopping&#45;&gt;Elevator_elevator_state_machineOnFloor_DoorOpening -->
<g id="edge17" class="edge"><title>Elevator_elevator_state_machineInMotion_Stopping&#45;&gt;Elevator_elevator_state_machineOnFloor_DoorOpening</title>
<path fill="none" stroke="black" d="M1007.15,-38.7401C1047.97,-43.6843 1110.91,-53.7241 1128,-70 1145.02,-86.2122 1142,-97.4948 1142,-121 1142,-495 1142,-495 1142,-495 1142,-558.149 677.766,-575.609 513.644,-579.808"/>
<polygon fill="black" stroke="black" points="513.186,-576.318 503.276,-580.066 513.36,-583.316 513.186,-576.318"/>
<text text-anchor="middle" x="1204" y="-304.3" font-family="Times,serif" font-size="14.00">stopped / openDoor();</text>
</g>
<!-- start_Elevator_elevator_state_machine_OnFloor -->
<g id="node10" class="node"><title>start_Elevator_elevator_state_machine_OnFloor</title>
<ellipse fill="black" stroke="black" cx="457" cy="-645" rx="7.2" ry="7.2"/>
</g>
<!-- start_Elevator_elevator_state_machine_OnFloor&#45;&gt;Elevator_elevator_state_machineOnFloor_DoorOpening -->
<g id="edge16" class="edge"><title>start_Elevator_elevator_state_machine_OnFloor&#45;&gt;Elevator_elevator_state_machineOnFloor_DoorOpening</title>
<path fill="none" stroke="black" d="M457,-637.472C457,-630.902 457,-620.324 457,-610.229"/>
<polygon fill="black" stroke="black" points="460.5,-610.073 457,-600.073 453.5,-610.073 460.5,-610.073"/>
</g>
<!-- Elevator_elevator_state_machineOnFloor_AtFloor -->
<g id="node12" class="node"><title>Elevator_elevator_state_machineOnFloor_AtFloor</title>
<path fill="none" stroke="black" d="M447,-512C447,-512 399,-512 399,-512 393,-512 387,-506 387,-500 387,-500 387,-488 387,-488 387,-482 393,-476 399,-476 399,-476 447,-476 447,-476 453,-476 459,-482 459,-488 459,-488 459,-500 459,-500 459,-506 453,-512 447,-512"/>
<text text-anchor="middle" x="423" y="-490.3" font-family="Times,serif" font-size="14.00">AtFloor</text>
</g>
<!-- Elevator_elevator_state_machineOnFloor_DoorOpening&#45;&gt;Elevator_elevator_state_machineOnFloor_AtFloor -->
<g id="edge20" class="edge"><title>Elevator_elevator_state_machineOnFloor_DoorOpening&#45;&gt;Elevator_elevator_state_machineOnFloor_AtFloor</title>
<path fill="none" stroke="black" d="M432.931,-563.702C427.694,-558.644 422.867,-552.66 420,-546 416.829,-538.636 416.272,-530.115 416.877,-522.17"/>
<polygon fill="black" stroke="black" points="420.353,-522.584 418.221,-512.206 413.416,-521.648 420.353,-522.584"/>
<text text-anchor="middle" x="455" y="-534.3" font-family="Times,serif" font-size="14.00">doorOpened</text>
</g>
<!-- Elevator_elevator_state_machineOnFloor_DoorClosing -->
<g id="node13" class="node"><title>Elevator_elevator_state_machineOnFloor_DoorClosing</title>
<path fill="none" stroke="black" d="M493.25,-424C493.25,-424 428.75,-424 428.75,-424 422.75,-424 416.75,-418 416.75,-412 416.75,-412 416.75,-400 416.75,-400 416.75,-394 422.75,-388 428.75,-388 428.75,-388 493.25,-388 493.25,-388 499.25,-388 505.25,-394 505.25,-400 505.25,-400 505.25,-412 505.25,-412 505.25,-418 499.25,-424 493.25,-424"/>
<text text-anchor="middle" x="461" y="-402.3" font-family="Times,serif" font-size="14.00">DoorClosing</text>
</g>
<!-- Elevator_elevator_state_machineOnFloor_AtFloor&#45;&gt;Elevator_elevator_state_machineOnFloor_DoorClosing -->
<g id="edge21" class="edge"><title>Elevator_elevator_state_machineOnFloor_AtFloor&#45;&gt;Elevator_elevator_state_machineOnFloor_DoorClosing</title>
<path fill="none" stroke="black" d="M386.988,-480.627C382.289,-479.051 377.534,-477.474 373,-476 347.332,-467.655 331.009,-479.73 315,-458 310.782,-452.275 310.597,-447.584 315,-442 326.434,-427.501 369.93,-418.331 406.498,-413.031"/>
<polygon fill="black" stroke="black" points="407.168,-416.472 416.596,-411.638 406.212,-409.538 407.168,-416.472"/>
<text text-anchor="middle" x="392.5" y="-446.3" font-family="Times,serif" font-size="14.00">after(timer) [!obstruction()]</text>
</g>
<!-- Elevator_elevator_state_machineOnFloor_AtFloor&#45;&gt;Elevator_elevator_state_machineOnFloor_DoorClosing -->
<g id="edge22" class="edge"><title>Elevator_elevator_state_machineOnFloor_AtFloor&#45;&gt;Elevator_elevator_state_machineOnFloor_DoorClosing</title>
<path fill="none" stroke="black" d="M454.886,-475.671C460.978,-470.802 466.53,-464.91 470,-458 473.688,-450.656 473.595,-442.054 471.951,-434.029"/>
<polygon fill="black" stroke="black" points="475.292,-432.984 469.206,-424.311 468.556,-434.886 475.292,-432.984"/>
<text text-anchor="middle" x="531.5" y="-446.3" font-family="Times,serif" font-size="14.00">doorClosingRequest</text>
</g>
<!-- Elevator_elevator_state_machineOnFloor_DoorClosing&#45;&gt;Elevator_elevator_state_machineOnFloor_DoorOpening -->
<g id="edge18" class="edge"><title>Elevator_elevator_state_machineOnFloor_DoorClosing&#45;&gt;Elevator_elevator_state_machineOnFloor_DoorOpening</title>
<path fill="none" stroke="black" d="M416.418,-411.105C376.205,-415.839 321.375,-425.22 308,-442 288.512,-466.45 296.739,-486.62 315,-512 335.367,-540.307 370.564,-557.521 400.819,-567.675"/>
<polygon fill="black" stroke="black" points="399.853,-571.041 410.444,-570.729 401.971,-564.369 399.853,-571.041"/>
<text text-anchor="middle" x="346.5" y="-490.3" font-family="Times,serif" font-size="14.00">obstruction</text>
</g>
<!-- Elevator_elevator_state_machineOnFloor_DoorClosing&#45;&gt;Elevator_elevator_state_machineOnFloor_DoorOpening -->
<g id="edge19" class="edge"><title>Elevator_elevator_state_machineOnFloor_DoorClosing&#45;&gt;Elevator_elevator_state_machineOnFloor_DoorOpening</title>
<path fill="none" stroke="black" d="M505.259,-412.895C539.28,-418.441 582.229,-428.001 593,-442 627.765,-487.184 557.494,-533.237 505.628,-559.354"/>
<polygon fill="black" stroke="black" points="503.94,-556.284 496.512,-563.839 507.03,-562.565 503.94,-556.284"/>
<text text-anchor="middle" x="661.5" y="-490.3" font-family="Times,serif" font-size="14.00">doorOpeningRequest</text>
</g>
<!-- Elevator_elevator_state_machineOnFloor_CheckingNextDestination -->
<g id="node14" class="node"><title>Elevator_elevator_state_machineOnFloor_CheckingNextDestination</title>
<path fill="none" stroke="black" d="M530,-326C530,-326 392,-326 392,-326 386,-326 380,-320 380,-314 380,-314 380,-302 380,-302 380,-296 386,-290 392,-290 392,-290 530,-290 530,-290 536,-290 542,-296 542,-302 542,-302 542,-314 542,-314 542,-320 536,-326 530,-326"/>
<text text-anchor="middle" x="461" y="-304.3" font-family="Times,serif" font-size="14.00">CheckingNextDestination</text>
</g>
<!-- Elevator_elevator_state_machineOnFloor_DoorClosing&#45;&gt;Elevator_elevator_state_machineOnFloor_CheckingNextDestination -->
<g id="edge23" class="edge"><title>Elevator_elevator_state_machineOnFloor_DoorClosing&#45;&gt;Elevator_elevator_state_machineOnFloor_CheckingNextDestination</title>
<path fill="none" stroke="black" d="M461,-387.837C461,-373.503 461,-352.807 461,-336.216"/>
<polygon fill="black" stroke="black" points="464.5,-336.014 461,-326.014 457.5,-336.014 464.5,-336.014"/>
<text text-anchor="middle" x="496" y="-358.3" font-family="Times,serif" font-size="14.00">doorCLosed</text>
</g>
<!-- Elevator_elevator_state_machineOnFloor_CheckingNextDestination&#45;&gt;Elevator_elevator_state_machine_Idle -->
<g id="edge2" class="edge"><title>Elevator_elevator_state_machineOnFloor_CheckingNextDestination&#45;&gt;Elevator_elevator_state_machine_Idle</title>
<path fill="none" stroke="black" d="M379.668,-308C346.981,-308 310.482,-308 282.452,-308"/>
<polygon fill="black" stroke="black" points="282.15,-304.5 272.15,-308 282.15,-311.5 282.15,-304.5"/>
<text text-anchor="middle" x="326" y="-314.8" font-family="Times,serif" font-size="14.00">noRequest</text>
</g>
<!-- Elevator_elevator_state_machineOnFloor_CheckingNextDestination&#45;&gt;Elevator_elevator_state_machinePrepareUp_DoorClosingMovingUp -->
<g id="edge4" class="edge"><title>Elevator_elevator_state_machineOnFloor_CheckingNextDestination&#45;&gt;Elevator_elevator_state_machinePrepareUp_DoorClosingMovingUp</title>
<path fill="none" stroke="black" d="M505.762,-289.948C537.499,-277.858 581.222,-261.201 620.33,-246.303"/>
<polygon fill="black" stroke="black" points="622.064,-249.388 630.163,-242.557 619.572,-242.846 622.064,-249.388"/>
<text text-anchor="middle" x="625" y="-260.3" font-family="Times,serif" font-size="14.00">upRequest</text>
</g>
<!-- Elevator_elevator_state_machineOnFloor_CheckingNextDestination&#45;&gt;Elevator_elevator_state_machinePrepareDown_DoorClosingMovingDown -->
<g id="edge7" class="edge"><title>Elevator_elevator_state_machineOnFloor_CheckingNextDestination&#45;&gt;Elevator_elevator_state_machinePrepareDown_DoorClosingMovingDown</title>
<path fill="none" stroke="black" d="M425.997,-289.894C402.221,-278.866 369.799,-264.961 340,-256 292.539,-241.727 238.374,-231.106 193.527,-223.777"/>
<polygon fill="black" stroke="black" points="202.586,-223.61 192,-223.171 200.001,-230.116 202.586,-223.61"/>
<text text-anchor="middle" x="423.5" y="-260.3" font-family="Times,serif" font-size="14.00">downRequest</text>
</g>
</g>
</svg>
