<?xml version="1.0" encoding="UTF-8" standalone="no"?>
<!DOCTYPE svg PUBLIC "-//W3C//DTD SVG 1.1//EN"
 "http://www.w3.org/Graphics/SVG/1.1/DTD/svg11.dtd">
<!-- Generated by graphviz version 2.39.20140502.0445 (20140502.0445)
 -->
<!-- Title: Elevator_State_Machine Pages: 1 -->
<svg width="1274pt" height="693pt"
 viewBox="0.00 0.00 1274.00 692.80" xmlns="http://www.w3.org/2000/svg" xmlns:xlink="http://www.w3.org/1999/xlink">
<g id="graph0" class="graph" transform="scale(1 1) rotate(0) translate(4 688.8)">
<title>Elevator_State_Machine</title>
<polygon fill="white" stroke="none" points="-4,4 -4,-688.8 1270,-688.8 1270,4 -4,4"/>
<g id="clust1" class="cluster"><title>clusterElevator_elevator_state_machine_PrepareUp</title>
<path fill="none" stroke="black" d="M642,-182C642,-182 784,-182 784,-182 790,-182 796,-188 796,-194 796,-194 796,-331.4 796,-331.4 796,-337.4 790,-343.4 784,-343.4 784,-343.4 642,-343.4 642,-343.4 636,-343.4 630,-337.4 630,-331.4 630,-331.4 630,-194 630,-194 630,-188 636,-182 642,-182"/>
<text text-anchor="middle" x="713" y="-328.2" font-family="Times,serif" font-size="14.00">PrepareUp</text>
</g>
<g id="clust2" class="cluster"><title>clusterElevator_elevator_state_machine_PrepareDown</title>
<path fill="none" stroke="black" d="M20,-182C20,-182 180,-182 180,-182 186,-182 192,-188 192,-194 192,-194 192,-331.4 192,-331.4 192,-337.4 186,-343.4 180,-343.4 180,-343.4 20,-343.4 20,-343.4 14,-343.4 8,-337.4 8,-331.4 8,-331.4 8,-194 8,-194 8,-188 14,-182 20,-182"/>
<text text-anchor="middle" x="100" y="-328.2" font-family="Times,serif" font-size="14.00">PrepareDown</text>
</g>
<g id="clust3" class="cluster"><title>clusterElevator_elevator_state_machine_InMotion</title>
<path fill="none" stroke="black" d="M816,-8C816,-8 1110,-8 1110,-8 1116,-8 1122,-14 1122,-20 1122,-20 1122,-234.2 1122,-234.2 1122,-240.2 1116,-246.2 1110,-246.2 1110,-246.2 816,-246.2 816,-246.2 810,-246.2 804,-240.2 804,-234.2 804,-234.2 804,-20 804,-20 804,-14 810,-8 816,-8"/>
<text text-anchor="middle" x="963" y="-231" font-family="Times,serif" font-size="14.00">InMotion</text>
</g>
<g id="clust4" class="cluster"><title>clusterElevator_elevator_state_machine_OnFloor</title>
<path fill="none" stroke="black" d="M292,-279.2C292,-279.2 610,-279.2 610,-279.2 616,-279.2 622,-285.2 622,-291.2 622,-291.2 622,-664.8 622,-664.8 622,-670.8 616,-676.8 610,-676.8 610,-676.8 292,-676.8 292,-676.8 286,-676.8 280,-670.8 280,-664.8 280,-664.8 280,-291.2 280,-291.2 280,-285.2 286,-279.2 292,-279.2"/>
<text text-anchor="middle" x="451" y="-661.6" font-family="Times,serif" font-size="14.00">OnFloor</text>
</g>
<!-- start_Elevator_elevator_state_machine -->
<g id="node1" class="node"><title>start_Elevator_elevator_state_machine</title>
<ellipse fill="black" stroke="black" cx="236" cy="-402.4" rx="7.2" ry="7.2"/>
</g>
<!-- Elevator_elevator_state_machine_Idle -->
<g id="node2" class="node"><title>Elevator_elevator_state_machine_Idle</title>
<path fill="none" stroke="black" d="M260,-323.2C260,-323.2 212,-323.2 212,-323.2 206,-323.2 200,-317.2 200,-311.2 200,-311.2 200,-299.2 200,-299.2 200,-293.2 206,-287.2 212,-287.2 212,-287.2 260,-287.2 260,-287.2 266,-287.2 272,-293.2 272,-299.2 272,-299.2 272,-311.2 272,-311.2 272,-317.2 266,-323.2 260,-323.2"/>
<text text-anchor="middle" x="236" y="-301.5" font-family="Times,serif" font-size="14.00">Idle</text>
</g>
<!-- start_Elevator_elevator_state_machine&#45;&gt;Elevator_elevator_state_machine_Idle -->
<g id="edge1" class="edge"><title>start_Elevator_elevator_state_machine&#45;&gt;Elevator_elevator_state_machine_Idle</title>
<g id="a_edge1"><a xlink:title="start &#160;&#45;&gt; Idle">
<path fill="none" stroke="black" d="M236,-395.154C236,-382.839 236,-354.771 236,-333.433"/>
<polygon fill="black" stroke="black" points="239.5,-333.302 236,-323.302 232.5,-333.302 239.5,-333.302"/>
</a>
</g>
</g>
<!-- Elevator_elevator_state_machinePrepareUp_DoorClosingMovingUp -->
<g id="node4" class="node"><title>Elevator_elevator_state_machinePrepareUp_DoorClosingMovingUp</title>
<path fill="none" stroke="black" d="M776,-226C776,-226 650,-226 650,-226 644,-226 638,-220 638,-214 638,-214 638,-202 638,-202 638,-196 644,-190 650,-190 650,-190 776,-190 776,-190 782,-190 788,-196 788,-202 788,-202 788,-214 788,-214 788,-220 782,-226 776,-226"/>
<text text-anchor="middle" x="713" y="-204.3" font-family="Times,serif" font-size="14.00">DoorClosingMovingUp</text>
</g>
<!-- Elevator_elevator_state_machine_Idle&#45;&gt;Elevator_elevator_state_machinePrepareUp_DoorClosingMovingUp -->
<g id="edge3" class="edge"><title>Elevator_elevator_state_machine_Idle&#45;&gt;Elevator_elevator_state_machinePrepareUp_DoorClosingMovingUp</title>
<g id="a_edge3"><a xlink:title="Idle upRequest &#45;&gt; PrepareUp">
<path fill="none" stroke="black" d="M241.387,-286.908C245.845,-275.65 253.363,-261.707 265,-254.2 323.108,-216.718 514.851,-209.455 627.78,-208.544"/>
<polygon fill="black" stroke="black" points="620.108,-212.273 630,-208.479 619.901,-205.276 620.108,-212.273"/>
</a>
</g>
<text text-anchor="middle" x="295" y="-258" font-family="Times,serif" font-size="14.00">upRequest</text>
</g>
<!-- Elevator_elevator_state_machinePrepareDown_DoorClosingMovingDown -->
<g id="node6" class="node"><title>Elevator_elevator_state_machinePrepareDown_DoorClosingMovingDown</title>
<path fill="none" stroke="black" d="M171.5,-226C171.5,-226 28.5,-226 28.5,-226 22.5,-226 16.5,-220 16.5,-214 16.5,-214 16.5,-202 16.5,-202 16.5,-196 22.5,-190 28.5,-190 28.5,-190 171.5,-190 171.5,-190 177.5,-190 183.5,-196 183.5,-202 183.5,-202 183.5,-214 183.5,-214 183.5,-220 177.5,-226 171.5,-226"/>
<text text-anchor="middle" x="100" y="-204.3" font-family="Times,serif" font-size="14.00">DoorClosingMovingDown</text>
</g>
<!-- Elevator_elevator_state_machine_Idle&#45;&gt;Elevator_elevator_state_machinePrepareDown_DoorClosingMovingDown -->
<g id="edge6" class="edge"><title>Elevator_elevator_state_machine_Idle&#45;&gt;Elevator_elevator_state_machinePrepareDown_DoorClosingMovingDown</title>
<g id="a_edge6"><a xlink:title="Idle downRequest &#45;&gt; PrepareDown">
<path fill="none" stroke="black" d="M200.764,-281.672 204.778,-283.684 207.78,-285.395 210.686,-287.134"/>
<polygon fill="black" stroke="black" points="202.096,-278.431 191.558,-277.343 199.118,-284.765 202.096,-278.431"/>
</a>
</g>
<text text-anchor="middle" x="204.5" y="-258" font-family="Times,serif" font-size="14.00">downRequest</text>
</g>
<!-- start_Elevator_PrepareUp -->
<g id="node3" class="node"><title>start_Elevator_PrepareUp</title>
<ellipse fill="black" stroke="black" cx="713" cy="-305.2" rx="7.2" ry="7.2"/>
</g>
<!-- start_Elevator_PrepareUp&#45;&gt;Elevator_elevator_state_machinePrepareUp_DoorClosingMovingUp -->
<g id="edge5" class="edge"><title>start_Elevator_PrepareUp&#45;&gt;Elevator_elevator_state_machinePrepareUp_DoorClosingMovingUp</title>
<g id="a_edge5"><a xlink:title="start &#160;&#45;&gt; DoorClosingMovingUp">
<path fill="none" stroke="black" d="M713,-297.954C713,-285.639 713,-257.571 713,-236.233"/>
<polygon fill="black" stroke="black" points="716.5,-236.102 713,-226.102 709.5,-236.102 716.5,-236.102"/>
</a>
</g>
</g>
<!-- Elevator_elevator_state_machineInMotion_Moving -->
<g id="node8" class="node"><title>Elevator_elevator_state_machineInMotion_Moving</title>
<path fill="none" stroke="black" d="M872,-139C872,-139 824,-139 824,-139 818,-139 812,-133 812,-127 812,-127 812,-115 812,-115 812,-109 818,-103 824,-103 824,-103 872,-103 872,-103 878,-103 884,-109 884,-115 884,-115 884,-127 884,-127 884,-133 878,-139 872,-139"/>
<text text-anchor="middle" x="848" y="-117.3" font-family="Times,serif" font-size="14.00">Moving</text>
</g>
<!-- Elevator_elevator_state_machinePrepareUp_DoorClosingMovingUp&#45;&gt;Elevator_elevator_state_machineInMotion_Moving -->
<g id="edge9" class="edge"><title>Elevator_elevator_state_machinePrepareUp_DoorClosingMovingUp&#45;&gt;Elevator_elevator_state_machineInMotion_Moving</title>
<g id="a_edge9"><a xlink:title="DoorClosingMovingUp doorClosed / goUp(); &#45;&gt; InMotion">
<path fill="none" stroke="black" d="M704.642,-189.582C700.949,-179.117 698.865,-166.108 706,-157 717.808,-141.928 764.99,-132.467 801.766,-127.237"/>
<polygon fill="black" stroke="black" points="794.693,-131.936 804,-126.873 793.567,-125.027 794.693,-131.936"/>
</a>
</g>
<text text-anchor="middle" x="766" y="-160.8" font-family="Times,serif" font-size="14.00">doorClosed / goUp();</text>
</g>
<!-- Elevator_elevator_state_machinePrepareUp_DoorClosingMovingUp&#45;&gt;Elevator_elevator_state_machineInMotion_Moving -->
<g id="edge12" class="edge"><title>Elevator_elevator_state_machinePrepareUp_DoorClosingMovingUp&#45;&gt;Elevator_elevator_state_machineInMotion_Moving</title>
<g id="a_edge12"><a xlink:title="PrepareUp started &#45;&gt; Moving">
<path fill="none" stroke="black" d="M795.934,-182.581C811.996,-177.588 824.411,-173.417 826,-172 832.918,-165.829 837.761,-157.081 841.104,-148.624"/>
<polygon fill="black" stroke="black" points="844.471,-149.595 844.375,-139 837.843,-147.342 844.471,-149.595"/>
</a>
</g>
<text text-anchor="middle" x="856" y="-160.8" font-family="Times,serif" font-size="14.00">started</text>
</g>
<!-- start_Elevator_PrepareDown -->
<g id="node5" class="node"><title>start_Elevator_PrepareDown</title>
<ellipse fill="black" stroke="black" cx="100" cy="-305.2" rx="7.2" ry="7.2"/>
</g>
<!-- start_Elevator_PrepareDown&#45;&gt;Elevator_elevator_state_machinePrepareDown_DoorClosingMovingDown -->
<g id="edge8" class="edge"><title>start_Elevator_PrepareDown&#45;&gt;Elevator_elevator_state_machinePrepareDown_DoorClosingMovingDown</title>
<g id="a_edge8"><a xlink:title="start &#160;&#45;&gt; DoorClosingMovingDown">
<path fill="none" stroke="black" d="M100,-297.954C100,-285.639 100,-257.571 100,-236.233"/>
<polygon fill="black" stroke="black" points="103.5,-236.102 100,-226.102 96.5001,-236.102 103.5,-236.102"/>
</a>
</g>
</g>
<!-- Elevator_elevator_state_machinePrepareDown_DoorClosingMovingDown&#45;&gt;Elevator_elevator_state_machineInMotion_Moving -->
<g id="edge10" class="edge"><title>Elevator_elevator_state_machinePrepareDown_DoorClosingMovingDown&#45;&gt;Elevator_elevator_state_machineInMotion_Moving</title>
<g id="a_edge10"><a xlink:title="DoorClosingMovingDown doorClosed / goDown(); &#45;&gt; InMotion">
<path fill="none" stroke="black" d="M183.628,-197.497C341.431,-179.565 678.324,-141.281 801.586,-127.274"/>
<polygon fill="black" stroke="black" points="796.507,-133.603 804,-126.113 793.471,-127.296 796.507,-133.603"/>
</a>
</g>
<text text-anchor="middle" x="587.5" y="-160.8" font-family="Times,serif" font-size="14.00">doorClosed / goDown();</text>
</g>
<!-- Elevator_elevator_state_machinePrepareDown_DoorClosingMovingDown&#45;&gt;Elevator_elevator_state_machineInMotion_Moving -->
<g id="edge13" class="edge"><title>Elevator_elevator_state_machinePrepareDown_DoorClosingMovingDown&#45;&gt;Elevator_elevator_state_machineInMotion_Moving</title>
<g id="a_edge13"><a xlink:title="PrepareDown started &#45;&gt; Moving">
<path fill="none" stroke="black" d="M191.99,-188.711C248.369,-178.081 322.122,-165.206 388,-157 538.721,-138.227 718.566,-128.061 801.678,-124.052"/>
<polygon fill="black" stroke="black" points="801.979,-127.542 811.802,-123.571 801.647,-120.549 801.979,-127.542"/>
</a>
</g>
<text text-anchor="middle" x="407" y="-160.8" font-family="Times,serif" font-size="14.00">started</text>
</g>
<!-- start_Elevator_InMotion -->
<g id="node7" class="node"><title>start_Elevator_InMotion</title>
<ellipse fill="black" stroke="black" cx="892" cy="-208" rx="7.2" ry="7.2"/>
</g>
<!-- start_Elevator_InMotion&#45;&gt;Elevator_elevator_state_machineInMotion_Moving -->
<g id="edge11" class="edge"><title>start_Elevator_InMotion&#45;&gt;Elevator_elevator_state_machineInMotion_Moving</title>
<g id="a_edge11"><a xlink:title="start &#160;&#45;&gt; Moving">
<path fill="none" stroke="black" d="M880.061,-146.729 882.758,-149.924 885.154,-153.362 887,-157 894.263,-171.315 893.668,-190.882 892.759,-200.756"/>
<polygon fill="black" stroke="black" points="882.35,-144.06 872.881,-139.307 877.319,-148.928 882.35,-144.06"/>
</a>
</g>
</g>
<!-- Elevator_elevator_state_machineInMotion_Moving&#45;&gt;Elevator_elevator_state_machineInMotion_Moving -->
<g id="edge14" class="edge"><title>Elevator_elevator_state_machineInMotion_Moving&#45;&gt;Elevator_elevator_state_machineInMotion_Moving</title>
<g id="a_edge14"><a xlink:title="Moving approachingFloor [!floorRequested()] &#45;&gt; Moving">
<path fill="none" stroke="black" d="M884.087,-128.836C894.221,-128.493 902,-125.881 902,-121 902,-117.949 898.961,-115.785 894.208,-114.507"/>
<polygon fill="black" stroke="black" points="894.461,-111.01 884.087,-113.164 893.54,-117.949 894.461,-111.01"/>
</a>
</g>
<text text-anchor="middle" x="1008" y="-117.3" font-family="Times,serif" font-size="14.00">approachingFloor [!floorRequested()]</text>
</g>
<!-- Elevator_elevator_state_machineInMotion_Stopping -->
<g id="node9" class="node"><title>Elevator_elevator_state_machineInMotion_Stopping</title>
<path fill="none" stroke="black" d="M995,-52C995,-52 947,-52 947,-52 941,-52 935,-46 935,-40 935,-40 935,-28 935,-28 935,-22 941,-16 947,-16 947,-16 995,-16 995,-16 1001,-16 1007,-22 1007,-28 1007,-28 1007,-40 1007,-40 1007,-46 1001,-52 995,-52"/>
<text text-anchor="middle" x="971" y="-30.3" font-family="Times,serif" font-size="14.00">Stopping</text>
</g>
<!-- Elevator_elevator_state_machineInMotion_Moving&#45;&gt;Elevator_elevator_state_machineInMotion_Stopping -->
<g id="edge15" class="edge"><title>Elevator_elevator_state_machineInMotion_Moving&#45;&gt;Elevator_elevator_state_machineInMotion_Stopping</title>
<g id="a_edge15"><a xlink:title="Moving approachedFloor [floorRequested()] / stop(); &#45;&gt; Stopping">
<path fill="none" stroke="black" d="M854.848,-102.676C859.851,-91.9806 867.583,-78.6886 878,-70 891.495,-58.7449 908.974,-50.9053 925.13,-45.5451"/>
<polygon fill="black" stroke="black" points="926.442,-48.8037 934.972,-42.5196 924.385,-42.1127 926.442,-48.8037"/>
</a>
</g>
<text text-anchor="middle" x="1003" y="-73.8" font-family="Times,serif" font-size="14.00">approachedFloor [floorRequested()] / stop();</text>
</g>
<!-- Elevator_elevator_state_machineOnFloor_DoorOpening -->
<g id="node11" class="node"><title>Elevator_elevator_state_machineOnFloor_DoorOpening</title>
<path fill="none" stroke="black" d="M491.5,-594.4C491.5,-594.4 422.5,-594.4 422.5,-594.4 416.5,-594.4 410.5,-588.4 410.5,-582.4 410.5,-582.4 410.5,-570.4 410.5,-570.4 410.5,-564.4 416.5,-558.4 422.5,-558.4 422.5,-558.4 491.5,-558.4 491.5,-558.4 497.5,-558.4 503.5,-564.4 503.5,-570.4 503.5,-570.4 503.5,-582.4 503.5,-582.4 503.5,-588.4 497.5,-594.4 491.5,-594.4"/>
<text text-anchor="middle" x="457" y="-572.7" font-family="Times,serif" font-size="14.00">DoorOpening</text>
</g>
<!-- Elevator_elevator_state_machineInMotion_Stopping&#45;&gt;Elevator_elevator_state_machineOnFloor_DoorOpening -->
<g id="edge17" class="edge"><title>Elevator_elevator_state_machineInMotion_Stopping&#45;&gt;Elevator_elevator_state_machineOnFloor_DoorOpening</title>
<g id="a_edge17"><a xlink:title="Stopping stopped / openDoor(); &#45;&gt; DoorOpening">
<path fill="none" stroke="black" d="M513.93,-574.283 678.305,-570.307 1142,-553.501 1142,-490.4 1142,-490.4 1142,-490.4 1142,-120 1142,-96.9231 1144.75,-85.8742 1128,-70 1110.87,-53.7677 1047.94,-43.7139 1007.14,-38.7552"/>
<polygon fill="black" stroke="black" points="513.459,-570.793 503.544,-574.526 513.624,-577.791 513.459,-570.793"/>
</a>
</g>
<text text-anchor="middle" x="1204" y="-301.5" font-family="Times,serif" font-size="14.00">stopped / openDoor();</text>
</g>
<!-- start_Elevator_OnFloor -->
<g id="node10" class="node"><title>start_Elevator_OnFloor</title>
<ellipse fill="black" stroke="black" cx="457" cy="-638.6" rx="7.2" ry="7.2"/>
</g>
<!-- start_Elevator_OnFloor&#45;&gt;Elevator_elevator_state_machineOnFloor_DoorOpening -->
<g id="edge16" class="edge"><title>start_Elevator_OnFloor&#45;&gt;Elevator_elevator_state_machineOnFloor_DoorOpening</title>
<g id="a_edge16"><a xlink:title="start &#160;&#45;&gt; DoorOpening">
<path fill="none" stroke="black" d="M457,-631.158C457,-624.787 457,-614.597 457,-604.793"/>
<polygon fill="black" stroke="black" points="460.5,-604.505 457,-594.505 453.5,-604.505 460.5,-604.505"/>
</a>
</g>
</g>
<!-- Elevator_elevator_state_machineOnFloor_AtFloor -->
<g id="node12" class="node"><title>Elevator_elevator_state_machineOnFloor_AtFloor</title>
<path fill="none" stroke="black" d="M447,-507.4C447,-507.4 399,-507.4 399,-507.4 393,-507.4 387,-501.4 387,-495.4 387,-495.4 387,-483.4 387,-483.4 387,-477.4 393,-471.4 399,-471.4 399,-471.4 447,-471.4 447,-471.4 453,-471.4 459,-477.4 459,-483.4 459,-483.4 459,-495.4 459,-495.4 459,-501.4 453,-507.4 447,-507.4"/>
<text text-anchor="middle" x="423" y="-485.7" font-family="Times,serif" font-size="14.00">AtFloor</text>
</g>
<!-- Elevator_elevator_state_machineOnFloor_DoorOpening&#45;&gt;Elevator_elevator_state_machineOnFloor_AtFloor -->
<g id="edge20" class="edge"><title>Elevator_elevator_state_machineOnFloor_DoorOpening&#45;&gt;Elevator_elevator_state_machineOnFloor_AtFloor</title>
<g id="a_edge20"><a xlink:title="DoorOpening doorOpened &#45;&gt; AtFloor">
<path fill="none" stroke="black" d="M416.91,-517.656 416.382,-525.267 416.974,-533.371 420,-540.4 422.867,-547.06 427.694,-553.044 432.931,-558.102"/>
<polygon fill="black" stroke="black" points="420.381,-518.1 418.198,-507.732 413.44,-517.198 420.381,-518.1"/>
</a>
</g>
<text text-anchor="middle" x="455" y="-529.2" font-family="Times,serif" font-size="14.00">doorOpened</text>
</g>
<!-- Elevator_elevator_state_machineOnFloor_DoorClosing -->
<g id="node13" class="node"><title>Elevator_elevator_state_machineOnFloor_DoorClosing</title>
<path fill="none" stroke="black" d="M463.5,-420.4C463.5,-420.4 398.5,-420.4 398.5,-420.4 392.5,-420.4 386.5,-414.4 386.5,-408.4 386.5,-408.4 386.5,-396.4 386.5,-396.4 386.5,-390.4 392.5,-384.4 398.5,-384.4 398.5,-384.4 463.5,-384.4 463.5,-384.4 469.5,-384.4 475.5,-390.4 475.5,-396.4 475.5,-396.4 475.5,-408.4 475.5,-408.4 475.5,-414.4 469.5,-420.4 463.5,-420.4"/>
<text text-anchor="middle" x="431" y="-398.7" font-family="Times,serif" font-size="14.00">DoorClosing</text>
</g>
<!-- Elevator_elevator_state_machineOnFloor_AtFloor&#45;&gt;Elevator_elevator_state_machineOnFloor_DoorClosing -->
<g id="edge21" class="edge"><title>Elevator_elevator_state_machineOnFloor_AtFloor&#45;&gt;Elevator_elevator_state_machineOnFloor_DoorClosing</title>
<g id="a_edge21"><a xlink:title="AtFloor after(timer) [!obstruction()] &#45;&gt; DoorClosing">
<path fill="none" stroke="black" d="M376.265,-406.073 353.541,-410.224 329.204,-419.277 315,-438.4 311.025,-443.752 311.046,-448.033 315,-453.4 331.009,-475.13 347.332,-463.055 373,-471.4 377.534,-472.874 382.289,-474.451 386.988,-476.027"/>
<polygon fill="black" stroke="black" points="376.862,-409.523 386.21,-404.536 375.793,-402.605 376.862,-409.523"/>
</a>
</g>
<text text-anchor="middle" x="392.5" y="-442.2" font-family="Times,serif" font-size="14.00">after(timer) [!obstruction()]</text>
</g>
<!-- Elevator_elevator_state_machineOnFloor_AtFloor&#45;&gt;Elevator_elevator_state_machineOnFloor_DoorClosing -->
<g id="edge22" class="edge"><title>Elevator_elevator_state_machineOnFloor_AtFloor&#45;&gt;Elevator_elevator_state_machineOnFloor_DoorClosing</title>
<g id="a_edge22"><a xlink:title="AtFloor doorClosingRequest &#45;&gt; DoorClosing">
<path fill="none" stroke="black" d="M454.886,-471.071C460.978,-466.202 466.53,-460.31 470,-453.4 474.483,-444.472 470.887,-435.59 464.376,-427.844"/>
<polygon fill="black" stroke="black" points="466.62,-425.137 457.085,-420.517 461.658,-430.075 466.62,-425.137"/>
</a>
</g>
<text text-anchor="middle" x="529.5" y="-442.2" font-family="Times,serif" font-size="14.00">doorClosingRequest</text>
</g>
<!-- Elevator_elevator_state_machineOnFloor_DoorClosing&#45;&gt;Elevator_elevator_state_machineOnFloor_DoorOpening -->
<g id="edge18" class="edge"><title>Elevator_elevator_state_machineOnFloor_DoorClosing&#45;&gt;Elevator_elevator_state_machineOnFloor_DoorOpening</title>
<g id="a_edge18"><a xlink:title="DoorClosing obstruction &#45;&gt; DoorOpening">
<path fill="none" stroke="black" d="M386.392,-403.603C359.362,-406.334 326.768,-414.818 309,-438.4 304.988,-443.724 308.631,-446.744 309,-453.4 310.335,-477.511 301.02,-487.711 315,-507.4 335.134,-535.756 370.329,-552.723 400.642,-562.617"/>
<polygon fill="black" stroke="black" points="399.7,-565.989 410.287,-565.586 401.76,-559.299 399.7,-565.989"/>
</a>
</g>
<text text-anchor="middle" x="346.5" y="-485.7" font-family="Times,serif" font-size="14.00">obstruction</text>
</g>
<!-- Elevator_elevator_state_machineOnFloor_DoorClosing&#45;&gt;Elevator_elevator_state_machineOnFloor_DoorOpening -->
<g id="edge19" class="edge"><title>Elevator_elevator_state_machineOnFloor_DoorClosing&#45;&gt;Elevator_elevator_state_machineOnFloor_DoorOpening</title>
<g id="a_edge19"><a xlink:title="DoorClosing doorOpeningRequest &#45;&gt; DoorOpening">
<path fill="none" stroke="black" d="M475.608,-406.998C517.803,-411.438 576.737,-420.679 591,-438.4 626.226,-482.165 556.679,-527.802 505.252,-553.799"/>
<polygon fill="black" stroke="black" points="503.627,-550.698 496.211,-558.264 506.727,-556.974 503.627,-550.698"/>
</a>
</g>
<text text-anchor="middle" x="659.5" y="-485.7" font-family="Times,serif" font-size="14.00">doorOpeningRequest</text>
</g>
<!-- Elevator_elevator_state_machineOnFloor_CheckingNextDestination -->
<g id="node14" class="node"><title>Elevator_elevator_state_machineOnFloor_CheckingNextDestination</title>
<path fill="none" stroke="black" d="M500,-323.2C500,-323.2 362,-323.2 362,-323.2 356,-323.2 350,-317.2 350,-311.2 350,-311.2 350,-299.2 350,-299.2 350,-293.2 356,-287.2 362,-287.2 362,-287.2 500,-287.2 500,-287.2 506,-287.2 512,-293.2 512,-299.2 512,-299.2 512,-311.2 512,-311.2 512,-317.2 506,-323.2 500,-323.2"/>
<text text-anchor="middle" x="431" y="-301.5" font-family="Times,serif" font-size="14.00">CheckingNextDestination</text>
</g>
<!-- Elevator_elevator_state_machineOnFloor_DoorClosing&#45;&gt;Elevator_elevator_state_machineOnFloor_CheckingNextDestination -->
<g id="edge23" class="edge"><title>Elevator_elevator_state_machineOnFloor_DoorClosing&#45;&gt;Elevator_elevator_state_machineOnFloor_CheckingNextDestination</title>
<g id="a_edge23"><a xlink:title="DoorClosing doorCLosed &#45;&gt; CheckingNextDestination">
<path fill="none" stroke="black" d="M431,-384.38C431,-370.253 431,-349.895 431,-333.494"/>
<polygon fill="black" stroke="black" points="434.5,-333.393 431,-323.393 427.5,-333.394 434.5,-333.393"/>
</a>
</g>
<text text-anchor="middle" x="466" y="-355.2" font-family="Times,serif" font-size="14.00">doorCLosed</text>
</g>
<!-- Elevator_elevator_state_machineOnFloor_CheckingNextDestination&#45;&gt;Elevator_elevator_state_machine_Idle -->
<g id="edge2" class="edge"><title>Elevator_elevator_state_machineOnFloor_CheckingNextDestination&#45;&gt;Elevator_elevator_state_machine_Idle</title>
<g id="a_edge2"><a xlink:title="CheckingNextDestination noRequest &#45;&gt; Idle">
<path fill="none" stroke="black" d="M282.359,-305.2 302.508,-305.2 326.721,-305.2 349.699,-305.2"/>
<polygon fill="black" stroke="black" points="282.221,-301.7 272.221,-305.2 282.221,-308.7 282.221,-301.7"/>
</a>
</g>
<text text-anchor="middle" x="311" y="-312" font-family="Times,serif" font-size="14.00">noRequest</text>
</g>
<!-- Elevator_elevator_state_machineOnFloor_CheckingNextDestination&#45;&gt;Elevator_elevator_state_machinePrepareUp_DoorClosingMovingUp -->
<g id="edge4" class="edge"><title>Elevator_elevator_state_machineOnFloor_CheckingNextDestination&#45;&gt;Elevator_elevator_state_machinePrepareUp_DoorClosingMovingUp</title>
<g id="a_edge4"><a xlink:title="CheckingNextDestination upRequest &#45;&gt; PrepareUp">
<path fill="none" stroke="black" d="M481.416,-287.18C519.985,-274.16 574.236,-255.845 620.535,-240.215"/>
<polygon fill="black" stroke="black" points="621.93,-243.438 630.285,-236.924 619.691,-236.806 621.93,-243.438"/>
</a>
</g>
<text text-anchor="middle" x="602" y="-258" font-family="Times,serif" font-size="14.00">upRequest</text>
</g>
<!-- Elevator_elevator_state_machineOnFloor_CheckingNextDestination&#45;&gt;Elevator_elevator_state_machinePrepareDown_DoorClosingMovingDown -->
<g id="edge7" class="edge"><title>Elevator_elevator_state_machineOnFloor_CheckingNextDestination&#45;&gt;Elevator_elevator_state_machinePrepareDown_DoorClosingMovingDown</title>
<g id="a_edge7"><a xlink:title="CheckingNextDestination downRequest &#45;&gt; PrepareDown">
<path fill="none" stroke="black" d="M193.721,-221.82 235.751,-229.009 285.542,-239.541 329,-254.2 354.414,-262.772 381.613,-276.348 401.528,-287.192"/>
<polygon fill="black" stroke="black" points="202.59,-221.495 192,-221.155 200.067,-228.024 202.59,-221.495"/>
</a>
</g>
<text text-anchor="middle" x="402.5" y="-258" font-family="Times,serif" font-size="14.00">downRequest</text>
</g>
</g>
</svg>
