<?xml version="1.0" encoding="UTF-8" standalone="no"?>
<!DOCTYPE svg PUBLIC "-//W3C//DTD SVG 1.1//EN"
 "http://www.w3.org/Graphics/SVG/1.1/DTD/svg11.dtd">
<!-- Generated by graphviz version 2.29.20121108.1600 (20121108.1600)
 -->
<!-- Title: Elevator_State_Machine Pages: 1 -->
<svg width="1271pt" height="714pt"
 viewBox="0.00 0.00 1270.64 714.00" xmlns="http://www.w3.org/2000/svg" xmlns:xlink="http://www.w3.org/1999/xlink">
<g id="graph0" class="graph" transform="scale(1 1) rotate(0) translate(4 710)">
<title>Elevator_State_Machine</title>
<polygon fill="white" stroke="white" points="-4,5 -4,-710 1267.64,-710 1267.64,5 -4,5"/>
<g id="clust1" class="cluster"><title>clusterElevator_elevator_state_machine_PrepareUp</title>
<path fill="none" stroke="black" d="M640,-188C640,-188 782,-188 782,-188 788,-188 794,-194 794,-200 794,-200 794,-342 794,-342 794,-348 788,-354 782,-354 782,-354 640,-354 640,-354 634,-354 628,-348 628,-342 628,-342 628,-200 628,-200 628,-194 634,-188 640,-188"/>
<text text-anchor="middle" x="711" y="-336" font-family="Times,serif" font-size="14.00">PrepareUp</text>
</g>
<g id="clust2" class="cluster"><title>clusterElevator_elevator_state_machine_PrepareDown</title>
<path fill="none" stroke="black" d="M20,-188C20,-188 178,-188 178,-188 184,-188 190,-194 190,-200 190,-200 190,-342 190,-342 190,-348 184,-354 178,-354 178,-354 20,-354 20,-354 14,-354 8,-348 8,-342 8,-342 8,-200 8,-200 8,-194 14,-188 20,-188"/>
<text text-anchor="middle" x="99" y="-336" font-family="Times,serif" font-size="14.00">PrepareDown</text>
</g>
<g id="clust3" class="cluster"><title>clusterElevator_elevator_state_machine_InMotion</title>
<path fill="none" stroke="black" d="M814,-8C814,-8 1107,-8 1107,-8 1113,-8 1119,-14 1119,-20 1119,-20 1119,-241 1119,-241 1119,-247 1113,-253 1107,-253 1107,-253 814,-253 814,-253 808,-253 802,-247 802,-241 802,-241 802,-20 802,-20 802,-14 808,-8 814,-8"/>
<text text-anchor="middle" x="960.5" y="-235" font-family="Times,serif" font-size="14.00">InMotion</text>
</g>
<g id="clust4" class="cluster"><title>clusterElevator_elevator_state_machine_OnFloor</title>
<path fill="none" stroke="black" d="M290,-289C290,-289 608,-289 608,-289 614,-289 620,-295 620,-301 620,-301 620,-686 620,-686 620,-692 614,-698 608,-698 608,-698 290,-698 290,-698 284,-698 278,-692 278,-686 278,-686 278,-301 278,-301 278,-295 284,-289 290,-289"/>
<text text-anchor="middle" x="449" y="-680" font-family="Times,serif" font-size="14.00">OnFloor</text>
</g>
<!-- start_Elevator_elevator_state_machine -->
<g id="node1" class="node"><title>start_Elevator_elevator_state_machine</title>
<ellipse fill="black" stroke="black" cx="234" cy="-416" rx="7.2" ry="7.2"/>
</g>
<!-- Elevator_elevator_state_machine_Idle -->
<g id="node2" class="node"><title>Elevator_elevator_state_machine_Idle</title>
<path fill="none" stroke="black" d="M258,-333C258,-333 210,-333 210,-333 204,-333 198,-327 198,-321 198,-321 198,-309 198,-309 198,-303 204,-297 210,-297 210,-297 258,-297 258,-297 264,-297 270,-303 270,-309 270,-309 270,-321 270,-321 270,-327 264,-333 258,-333"/>
<text text-anchor="middle" x="234" y="-309.4" font-family="Times,serif" font-size="14.00">Idle</text>
</g>
<!-- start_Elevator_elevator_state_machine&#45;&gt;Elevator_elevator_state_machine_Idle -->
<g id="edge1" class="edge"><title>start_Elevator_elevator_state_machine&#45;&gt;Elevator_elevator_state_machine_Idle</title>
<path fill="none" stroke="black" d="M234,-408.504C234,-395.492 234,-365.565 234,-343.253"/>
<polygon fill="black" stroke="black" points="237.5,-343.019 234,-333.019 230.5,-343.019 237.5,-343.019"/>
</g>
<!-- Elevator_elevator_state_machinePrepareUp_DoorClosingMovingUp -->
<g id="node4" class="node"><title>Elevator_elevator_state_machinePrepareUp_DoorClosingMovingUp</title>
<path fill="none" stroke="black" d="M773.34,-232C773.34,-232 648.66,-232 648.66,-232 642.66,-232 636.66,-226 636.66,-220 636.66,-220 636.66,-208 636.66,-208 636.66,-202 642.66,-196 648.66,-196 648.66,-196 773.34,-196 773.34,-196 779.34,-196 785.34,-202 785.34,-208 785.34,-208 785.34,-220 785.34,-220 785.34,-226 779.34,-232 773.34,-232"/>
<text text-anchor="middle" x="711" y="-208.4" font-family="Times,serif" font-size="14.00">DoorClosingMovingUp</text>
</g>
<!-- Elevator_elevator_state_machine_Idle&#45;&gt;Elevator_elevator_state_machinePrepareUp_DoorClosingMovingUp -->
<g id="edge3" class="edge"><title>Elevator_elevator_state_machine_Idle&#45;&gt;Elevator_elevator_state_machinePrepareUp_DoorClosingMovingUp</title>
<path fill="none" stroke="black" d="M242.389,-296.874C249.326,-284.692 260.386,-269.104 274.896,-261 333.31,-228.376 517.085,-218.866 626.547,-216.109"/>
<polygon fill="black" stroke="black" points="618.701,-220.947 628,-215.871 617.564,-214.04 618.701,-220.947"/>
<text text-anchor="middle" x="304.552" y="-264.4" font-family="Times,serif" font-size="14.00">upRequest</text>
</g>
<!-- Elevator_elevator_state_machinePrepareDown_DoorClosingMovingDown -->
<g id="node6" class="node"><title>Elevator_elevator_state_machinePrepareDown_DoorClosingMovingDown</title>
<path fill="none" stroke="black" d="M170.173,-232C170.173,-232 27.8275,-232 27.8275,-232 21.8275,-232 15.8275,-226 15.8275,-220 15.8275,-220 15.8275,-208 15.8275,-208 15.8275,-202 21.8275,-196 27.8275,-196 27.8275,-196 170.173,-196 170.173,-196 176.173,-196 182.173,-202 182.173,-208 182.173,-208 182.173,-220 182.173,-220 182.173,-226 176.173,-232 170.173,-232"/>
<text text-anchor="middle" x="99" y="-208.4" font-family="Times,serif" font-size="14.00">DoorClosingMovingDown</text>
</g>
<!-- Elevator_elevator_state_machine_Idle&#45;&gt;Elevator_elevator_state_machinePrepareDown_DoorClosingMovingDown -->
<g id="edge6" class="edge"><title>Elevator_elevator_state_machine_Idle&#45;&gt;Elevator_elevator_state_machinePrepareDown_DoorClosingMovingDown</title>
<path fill="none" stroke="black" d="M206.962,-296.937C204.397,-295.346 201.791,-293.74 198.311,-291.646"/>
<polygon fill="black" stroke="black" points="200.053,-288.611 189.669,-286.511 196.477,-294.628 200.053,-288.611"/>
<text text-anchor="middle" x="215.107" y="-264.4" font-family="Times,serif" font-size="14.00">downRequest</text>
</g>
<!-- start_Elevator_PrepareUp -->
<g id="node3" class="node"><title>start_Elevator_PrepareUp</title>
<ellipse fill="black" stroke="black" cx="711" cy="-315" rx="7.2" ry="7.2"/>
</g>
<!-- start_Elevator_PrepareUp&#45;&gt;Elevator_elevator_state_machinePrepareUp_DoorClosingMovingUp -->
<g id="edge5" class="edge"><title>start_Elevator_PrepareUp&#45;&gt;Elevator_elevator_state_machinePrepareUp_DoorClosingMovingUp</title>
<path fill="none" stroke="black" d="M711,-307.504C711,-294.492 711,-264.565 711,-242.253"/>
<polygon fill="black" stroke="black" points="714.5,-242.019 711,-232.019 707.5,-242.019 714.5,-242.019"/>
</g>
<!-- Elevator_elevator_state_machineInMotion_Moving -->
<g id="node8" class="node"><title>Elevator_elevator_state_machineInMotion_Moving</title>
<path fill="none" stroke="black" d="M870,-142C870,-142 822,-142 822,-142 816,-142 810,-136 810,-130 810,-130 810,-118 810,-118 810,-112 816,-106 822,-106 822,-106 870,-106 870,-106 876,-106 882,-112 882,-118 882,-118 882,-130 882,-130 882,-136 876,-142 870,-142"/>
<text text-anchor="middle" x="846" y="-118.4" font-family="Times,serif" font-size="14.00">Moving</text>
</g>
<!-- Elevator_elevator_state_machinePrepareUp_DoorClosingMovingUp&#45;&gt;Elevator_elevator_state_machineInMotion_Moving -->
<g id="edge9" class="edge"><title>Elevator_elevator_state_machinePrepareUp_DoorClosingMovingUp&#45;&gt;Elevator_elevator_state_machineInMotion_Moving</title>
<path fill="none" stroke="black" d="M702.807,-195.528C698.852,-184.269 696.456,-169.932 704.234,-160 716.021,-144.949 763.125,-135.484 799.841,-130.248"/>
<polygon fill="black" stroke="black" points="792.726,-135.004 802,-129.882 791.555,-128.103 792.726,-135.004"/>
<text text-anchor="middle" x="764.883" y="-163.4" font-family="Times,serif" font-size="14.00">doorClosed / goUp();</text>
</g>
<!-- Elevator_elevator_state_machinePrepareUp_DoorClosingMovingUp&#45;&gt;Elevator_elevator_state_machineInMotion_Moving -->
<g id="edge12" class="edge"><title>Elevator_elevator_state_machinePrepareUp_DoorClosingMovingUp&#45;&gt;Elevator_elevator_state_machineInMotion_Moving</title>
<path fill="none" stroke="black" d="M793.6,-188.714C809.833,-183.672 822.415,-179.444 824,-178 831.518,-171.151 836.538,-161.338 839.857,-152.012"/>
<polygon fill="black" stroke="black" points="843.266,-152.834 842.829,-142.249 836.569,-150.796 843.266,-152.834"/>
<text text-anchor="middle" x="855.659" y="-163.4" font-family="Times,serif" font-size="14.00">started</text>
</g>
<!-- start_Elevator_PrepareDown -->
<g id="node5" class="node"><title>start_Elevator_PrepareDown</title>
<ellipse fill="black" stroke="black" cx="99" cy="-315" rx="7.2" ry="7.2"/>
</g>
<!-- start_Elevator_PrepareDown&#45;&gt;Elevator_elevator_state_machinePrepareDown_DoorClosingMovingDown -->
<g id="edge8" class="edge"><title>start_Elevator_PrepareDown&#45;&gt;Elevator_elevator_state_machinePrepareDown_DoorClosingMovingDown</title>
<path fill="none" stroke="black" d="M99,-307.504C99,-294.492 99,-264.565 99,-242.253"/>
<polygon fill="black" stroke="black" points="102.5,-242.019 99,-232.019 95.5001,-242.019 102.5,-242.019"/>
</g>
<!-- Elevator_elevator_state_machinePrepareDown_DoorClosingMovingDown&#45;&gt;Elevator_elevator_state_machineInMotion_Moving -->
<g id="edge10" class="edge"><title>Elevator_elevator_state_machinePrepareDown_DoorClosingMovingDown&#45;&gt;Elevator_elevator_state_machineInMotion_Moving</title>
<path fill="none" stroke="black" d="M182.516,-203.161C340.108,-184.596 676.551,-144.962 799.648,-130.46"/>
<polygon fill="black" stroke="black" points="794.691,-136.928 802,-129.258 791.503,-130.695 794.691,-136.928"/>
<text text-anchor="middle" x="608.438" y="-163.4" font-family="Times,serif" font-size="14.00">doorClosed / goDown();</text>
</g>
<!-- Elevator_elevator_state_machinePrepareDown_DoorClosingMovingDown&#45;&gt;Elevator_elevator_state_machineInMotion_Moving -->
<g id="edge13" class="edge"><title>Elevator_elevator_state_machinePrepareDown_DoorClosingMovingDown&#45;&gt;Elevator_elevator_state_machineInMotion_Moving</title>
<path fill="none" stroke="black" d="M189.766,-191.985C240.884,-180.884 306.049,-167.949 364.683,-160 523.483,-138.472 713.678,-129.575 799.705,-126.452"/>
<polygon fill="black" stroke="black" points="800.046,-129.943 809.916,-126.091 799.798,-122.947 800.046,-129.943"/>
<text text-anchor="middle" x="383.659" y="-163.4" font-family="Times,serif" font-size="14.00">started</text>
</g>
<!-- start_Elevator_InMotion -->
<g id="node7" class="node"><title>start_Elevator_InMotion</title>
<ellipse fill="black" stroke="black" cx="889" cy="-214" rx="7.2" ry="7.2"/>
</g>
<!-- start_Elevator_InMotion&#45;&gt;Elevator_elevator_state_machineInMotion_Moving -->
<g id="edge11" class="edge"><title>start_Elevator_InMotion&#45;&gt;Elevator_elevator_state_machineInMotion_Moving</title>
<path fill="none" stroke="black" d="M889.796,-206.734C890.815,-196.401 891.636,-175.402 884,-160 882.118,-156.203 879.636,-152.615 876.839,-149.289"/>
<polygon fill="black" stroke="black" points="879.325,-146.825 869.879,-142.027 874.271,-151.668 879.325,-146.825"/>
</g>
<!-- Elevator_elevator_state_machineInMotion_Moving&#45;&gt;Elevator_elevator_state_machineInMotion_Moving -->
<g id="edge14" class="edge"><title>Elevator_elevator_state_machineInMotion_Moving&#45;&gt;Elevator_elevator_state_machineInMotion_Moving</title>
<path fill="none" stroke="black" d="M882.087,-132.209C892.221,-131.85 900,-129.113 900,-124 900,-120.804 896.961,-118.537 892.208,-117.198"/>
<polygon fill="black" stroke="black" points="892.474,-113.701 882.087,-115.791 891.51,-120.635 892.474,-113.701"/>
<text text-anchor="middle" x="1005.55" y="-118.4" font-family="Times,serif" font-size="14.00">approachingFloor [!floorRequested()]</text>
</g>
<!-- Elevator_elevator_state_machineInMotion_Stopping -->
<g id="node9" class="node"><title>Elevator_elevator_state_machineInMotion_Stopping</title>
<path fill="none" stroke="black" d="M992,-52C992,-52 944,-52 944,-52 938,-52 932,-46 932,-40 932,-40 932,-28 932,-28 932,-22 938,-16 944,-16 944,-16 992,-16 992,-16 998,-16 1004,-22 1004,-28 1004,-28 1004,-40 1004,-40 1004,-46 998,-52 992,-52"/>
<text text-anchor="middle" x="968" y="-28.4" font-family="Times,serif" font-size="14.00">Stopping</text>
</g>
<!-- Elevator_elevator_state_machineInMotion_Moving&#45;&gt;Elevator_elevator_state_machineInMotion_Stopping -->
<g id="edge15" class="edge"><title>Elevator_elevator_state_machineInMotion_Moving&#45;&gt;Elevator_elevator_state_machineInMotion_Stopping</title>
<path fill="none" stroke="black" d="M852.116,-105.656C856.956,-94.1618 864.75,-79.5031 875.789,-70 888.9,-58.7135 906.024,-50.8842 921.952,-45.5412"/>
<polygon fill="black" stroke="black" points="923.155,-48.8329 931.669,-42.5271 921.081,-42.1472 923.155,-48.8329"/>
<text text-anchor="middle" x="1000.61" y="-73.4" font-family="Times,serif" font-size="14.00">approachedFloor [floorRequested()] / stop();</text>
</g>
<!-- Elevator_elevator_state_machineOnFloor_DoorOpening -->
<g id="node11" class="node"><title>Elevator_elevator_state_machineOnFloor_DoorOpening</title>
<path fill="none" stroke="black" d="M489.24,-614C489.24,-614 420.76,-614 420.76,-614 414.76,-614 408.76,-608 408.76,-602 408.76,-602 408.76,-590 408.76,-590 408.76,-584 414.76,-578 420.76,-578 420.76,-578 489.24,-578 489.24,-578 495.24,-578 501.24,-584 501.24,-590 501.24,-590 501.24,-602 501.24,-602 501.24,-608 495.24,-614 489.24,-614"/>
<text text-anchor="middle" x="455" y="-590.4" font-family="Times,serif" font-size="14.00">DoorOpening</text>
</g>
<!-- Elevator_elevator_state_machineInMotion_Stopping&#45;&gt;Elevator_elevator_state_machineOnFloor_DoorOpening -->
<g id="edge17" class="edge"><title>Elevator_elevator_state_machineInMotion_Stopping&#45;&gt;Elevator_elevator_state_machineOnFloor_DoorOpening</title>
<path fill="none" stroke="black" d="M1004.18,-38.7115C1045.02,-43.6283 1107.99,-53.6418 1125,-70 1142.56,-86.8892 1139,-98.6365 1139,-123 1139,-507 1139,-507 1139,-507 1139,-570.045 675.982,-588.918 511.847,-593.628"/>
<polygon fill="black" stroke="black" points="511.375,-590.14 501.476,-593.918 511.57,-597.137 511.375,-590.14"/>
<text text-anchor="middle" x="1200.82" y="-309.4" font-family="Times,serif" font-size="14.00">stopped / openDoor();</text>
</g>
<!-- start_Elevator_OnFloor -->
<g id="node10" class="node"><title>start_Elevator_OnFloor</title>
<ellipse fill="black" stroke="black" cx="455" cy="-659" rx="7.2" ry="7.2"/>
</g>
<!-- start_Elevator_OnFloor&#45;&gt;Elevator_elevator_state_machineOnFloor_DoorOpening -->
<g id="edge16" class="edge"><title>start_Elevator_OnFloor&#45;&gt;Elevator_elevator_state_machineOnFloor_DoorOpening</title>
<path fill="none" stroke="black" d="M455,-651.472C455,-644.902 455,-634.324 455,-624.229"/>
<polygon fill="black" stroke="black" points="458.5,-624.073 455,-614.073 451.5,-624.073 458.5,-624.073"/>
</g>
<!-- Elevator_elevator_state_machineOnFloor_AtFloor -->
<g id="node12" class="node"><title>Elevator_elevator_state_machineOnFloor_AtFloor</title>
<path fill="none" stroke="black" d="M445,-524C445,-524 397,-524 397,-524 391,-524 385,-518 385,-512 385,-512 385,-500 385,-500 385,-494 391,-488 397,-488 397,-488 445,-488 445,-488 451,-488 457,-494 457,-500 457,-500 457,-512 457,-512 457,-518 451,-524 445,-524"/>
<text text-anchor="middle" x="421" y="-500.4" font-family="Times,serif" font-size="14.00">AtFloor</text>
</g>
<!-- Elevator_elevator_state_machineOnFloor_DoorOpening&#45;&gt;Elevator_elevator_state_machineOnFloor_AtFloor -->
<g id="edge20" class="edge"><title>Elevator_elevator_state_machineOnFloor_DoorOpening&#45;&gt;Elevator_elevator_state_machineOnFloor_AtFloor</title>
<path fill="none" stroke="black" d="M431.818,-577.987C426.55,-572.852 421.667,-566.76 418.8,-560 415.462,-552.131 414.834,-543.001 415.389,-534.56"/>
<polygon fill="black" stroke="black" points="418.894,-534.727 416.611,-524.381 411.944,-533.893 418.894,-534.727"/>
<text text-anchor="middle" x="453.6" y="-545.4" font-family="Times,serif" font-size="14.00">doorOpened</text>
</g>
<!-- Elevator_elevator_state_machineOnFloor_DoorClosing -->
<g id="node13" class="node"><title>Elevator_elevator_state_machineOnFloor_DoorClosing</title>
<path fill="none" stroke="black" d="M490.254,-434C490.254,-434 425.746,-434 425.746,-434 419.746,-434 413.746,-428 413.746,-422 413.746,-422 413.746,-410 413.746,-410 413.746,-404 419.746,-398 425.746,-398 425.746,-398 490.254,-398 490.254,-398 496.254,-398 502.254,-404 502.254,-410 502.254,-410 502.254,-422 502.254,-422 502.254,-428 496.254,-434 490.254,-434"/>
<text text-anchor="middle" x="458" y="-410.4" font-family="Times,serif" font-size="14.00">DoorClosing</text>
</g>
<!-- Elevator_elevator_state_machineOnFloor_AtFloor&#45;&gt;Elevator_elevator_state_machineOnFloor_DoorClosing -->
<g id="edge21" class="edge"><title>Elevator_elevator_state_machineOnFloor_AtFloor&#45;&gt;Elevator_elevator_state_machineOnFloor_DoorClosing</title>
<path fill="none" stroke="black" d="M384.799,-492.872C379.83,-491.225 374.791,-489.564 370,-488 345.021,-479.845 329.181,-491.221 313.686,-470 308.968,-463.539 308.74,-458.288 313.686,-452 324.939,-437.691 367.694,-428.518 403.77,-423.169"/>
<polygon fill="black" stroke="black" points="404.325,-426.625 413.737,-421.76 403.346,-419.694 404.325,-426.625"/>
<text text-anchor="middle" x="391.157" y="-455.4" font-family="Times,serif" font-size="14.00">after(timer) [!obstruction()]</text>
</g>
<!-- Elevator_elevator_state_machineOnFloor_AtFloor&#45;&gt;Elevator_elevator_state_machineOnFloor_DoorClosing -->
<g id="edge22" class="edge"><title>Elevator_elevator_state_machineOnFloor_AtFloor&#45;&gt;Elevator_elevator_state_machineOnFloor_DoorClosing</title>
<path fill="none" stroke="black" d="M452.886,-487.671C458.978,-482.802 464.53,-476.91 468,-470 471.987,-462.061 471.645,-452.727 469.635,-444.122"/>
<polygon fill="black" stroke="black" points="472.956,-443.012 466.67,-434.484 466.265,-445.071 472.956,-443.012"/>
<text text-anchor="middle" x="529.166" y="-455.4" font-family="Times,serif" font-size="14.00">doorClosingRequest</text>
</g>
<!-- Elevator_elevator_state_machineOnFloor_DoorClosing&#45;&gt;Elevator_elevator_state_machineOnFloor_DoorOpening -->
<g id="edge18" class="edge"><title>Elevator_elevator_state_machineOnFloor_DoorClosing&#45;&gt;Elevator_elevator_state_machineOnFloor_DoorOpening</title>
<path fill="none" stroke="black" d="M413.616,-421.235C373.959,-426.045 320.143,-435.462 307,-452 287.021,-477.139 294.639,-497.661 313.007,-524 333.137,-552.865 368.509,-570.599 398.911,-581.124"/>
<polygon fill="black" stroke="black" points="397.989,-584.505 408.582,-584.293 400.169,-577.853 397.989,-584.505"/>
<text text-anchor="middle" x="345.497" y="-500.4" font-family="Times,serif" font-size="14.00">obstruction</text>
</g>
<!-- Elevator_elevator_state_machineOnFloor_DoorClosing&#45;&gt;Elevator_elevator_state_machineOnFloor_DoorOpening -->
<g id="edge19" class="edge"><title>Elevator_elevator_state_machineOnFloor_DoorClosing&#45;&gt;Elevator_elevator_state_machineOnFloor_DoorOpening</title>
<path fill="none" stroke="black" d="M502.259,-422.895C536.28,-428.441 579.229,-438.001 590,-452 625.549,-498.203 553.62,-546.389 501.77,-573.358"/>
<polygon fill="black" stroke="black" points="500.003,-570.33 492.675,-577.982 503.176,-576.57 500.003,-570.33"/>
<text text-anchor="middle" x="657.49" y="-500.4" font-family="Times,serif" font-size="14.00">doorOpeningRequest</text>
</g>
<!-- Elevator_elevator_state_machineOnFloor_CheckingNextDestination -->
<g id="node14" class="node"><title>Elevator_elevator_state_machineOnFloor_CheckingNextDestination</title>
<path fill="none" stroke="black" d="M526.56,-333C526.56,-333 389.44,-333 389.44,-333 383.44,-333 377.44,-327 377.44,-321 377.44,-321 377.44,-309 377.44,-309 377.44,-303 383.44,-297 389.44,-297 389.44,-297 526.56,-297 526.56,-297 532.56,-297 538.56,-303 538.56,-309 538.56,-309 538.56,-321 538.56,-321 538.56,-327 532.56,-333 526.56,-333"/>
<text text-anchor="middle" x="458" y="-309.4" font-family="Times,serif" font-size="14.00">CheckingNextDestination</text>
</g>
<!-- Elevator_elevator_state_machineOnFloor_DoorClosing&#45;&gt;Elevator_elevator_state_machineOnFloor_CheckingNextDestination -->
<g id="edge23" class="edge"><title>Elevator_elevator_state_machineOnFloor_DoorClosing&#45;&gt;Elevator_elevator_state_machineOnFloor_CheckingNextDestination</title>
<path fill="none" stroke="black" d="M458,-397.756C458,-382.708 458,-360.616 458,-343.19"/>
<polygon fill="black" stroke="black" points="461.5,-343.047 458,-333.047 454.5,-343.047 461.5,-343.047"/>
<text text-anchor="middle" x="492.607" y="-365.4" font-family="Times,serif" font-size="14.00">doorCLosed</text>
</g>
<!-- Elevator_elevator_state_machineOnFloor_CheckingNextDestination&#45;&gt;Elevator_elevator_state_machine_Idle -->
<g id="edge2" class="edge"><title>Elevator_elevator_state_machineOnFloor_CheckingNextDestination&#45;&gt;Elevator_elevator_state_machine_Idle</title>
<path fill="none" stroke="black" d="M377.374,-315C344.944,-315 308.697,-315 280.762,-315"/>
<polygon fill="black" stroke="black" points="280.488,-311.5 270.488,-315 280.488,-318.5 280.488,-311.5"/>
<text text-anchor="middle" x="323.646" y="-320.8" font-family="Times,serif" font-size="14.00">noRequest</text>
</g>
<!-- Elevator_elevator_state_machineOnFloor_CheckingNextDestination&#45;&gt;Elevator_elevator_state_machinePrepareUp_DoorClosingMovingUp -->
<g id="edge4" class="edge"><title>Elevator_elevator_state_machineOnFloor_CheckingNextDestination&#45;&gt;Elevator_elevator_state_machinePrepareUp_DoorClosingMovingUp</title>
<path fill="none" stroke="black" d="M501.492,-296.981C533.722,-284.37 578.822,-266.722 618.926,-251.029"/>
<polygon fill="black" stroke="black" points="620.429,-254.199 628.466,-247.296 617.878,-247.681 620.429,-254.199"/>
<text text-anchor="middle" x="622.552" y="-264.4" font-family="Times,serif" font-size="14.00">upRequest</text>
</g>
<!-- Elevator_elevator_state_machineOnFloor_CheckingNextDestination&#45;&gt;Elevator_elevator_state_machinePrepareDown_DoorClosingMovingDown -->
<g id="edge7" class="edge"><title>Elevator_elevator_state_machineOnFloor_CheckingNextDestination&#45;&gt;Elevator_elevator_state_machinePrepareDown_DoorClosingMovingDown</title>
<path fill="none" stroke="black" d="M424.904,-296.952C401.232,-285.367 368.323,-270.481 338,-261 290.852,-246.259 236.923,-235.388 192.239,-227.927"/>
<polygon fill="black" stroke="black" points="200.576,-226.653 190,-227.293 198.666,-233.387 200.576,-226.653"/>
<text text-anchor="middle" x="424.107" y="-264.4" font-family="Times,serif" font-size="14.00">downRequest</text>
</g>
</g>
</svg>
