<?xml version="1.0" encoding="UTF-8" standalone="no"?>
<!DOCTYPE svg PUBLIC "-//W3C//DTD SVG 1.1//EN"
 "http://www.w3.org/Graphics/SVG/1.1/DTD/svg11.dtd">
<!-- Generated by graphviz version 2.36.0 (20140111.2315)
 -->
<!-- Title: GarageDoor Pages: 1 -->
<svg width="346pt" height="448pt"
 viewBox="0.00 0.00 346.00 448.00" xmlns="http://www.w3.org/2000/svg" xmlns:xlink="http://www.w3.org/1999/xlink">
<g id="graph0" class="graph" transform="scale(1 1) rotate(0) translate(4 444)">
<title>GarageDoor</title>
<polygon fill="white" stroke="none" points="-4,4 -4,-444 342,-444 342,4 -4,4"/>
<!-- start_GarageDoor_status -->
<g id="node1" class="node"><title>start_GarageDoor_status</title>
<ellipse fill="black" stroke="black" cx="211" cy="-433" rx="7.2" ry="7.2"/>
</g>
<!-- GarageDoor_status_Open -->
<g id="node2" class="node"><title>GarageDoor_status_Open</title>
<path fill="none" stroke="black" d="M235,-388C235,-388 187,-388 187,-388 181,-388 175,-382 175,-376 175,-376 175,-364 175,-364 175,-358 181,-352 187,-352 187,-352 235,-352 235,-352 241,-352 247,-358 247,-364 247,-364 247,-376 247,-376 247,-382 241,-388 235,-388"/>
<text text-anchor="middle" x="211" y="-366.3" font-family="Times,serif" font-size="14.00">Open</text>
</g>
<!-- start_GarageDoor_status&#45;&gt;GarageDoor_status_Open -->
<g id="edge1" class="edge"><title>start_GarageDoor_status&#45;&gt;GarageDoor_status_Open</title>
<path fill="none" stroke="black" d="M211,-425.472C211,-418.902 211,-408.324 211,-398.229"/>
<polygon fill="black" stroke="black" points="214.5,-398.073 211,-388.073 207.5,-398.073 214.5,-398.073"/>
</g>
<!-- GarageDoor_status_Closing -->
<g id="node3" class="node"><title>GarageDoor_status_Closing</title>
<path fill="none" stroke="black" d="M168,-300C168,-300 120,-300 120,-300 114,-300 108,-294 108,-288 108,-288 108,-276 108,-276 108,-270 114,-264 120,-264 120,-264 168,-264 168,-264 174,-264 180,-270 180,-276 180,-276 180,-288 180,-288 180,-294 174,-300 168,-300"/>
<text text-anchor="middle" x="144" y="-278.3" font-family="Times,serif" font-size="14.00">Closing</text>
</g>
<!-- GarageDoor_status_Open&#45;&gt;GarageDoor_status_Closing -->
<g id="edge3" class="edge"><title>GarageDoor_status_Open&#45;&gt;GarageDoor_status_Closing</title>
<path fill="none" stroke="black" d="M177.087,-351.865C169.943,-346.931 163.05,-340.962 158,-334 152.996,-327.102 149.781,-318.502 147.714,-310.341"/>
<polygon fill="black" stroke="black" points="151.112,-309.486 145.663,-300.4 144.256,-310.901 151.112,-309.486"/>
<text text-anchor="middle" x="208" y="-322.3" font-family="Times,serif" font-size="14.00">buttonOrObstacle</text>
</g>
<!-- GarageDoor_status_Closed -->
<g id="node4" class="node"><title>GarageDoor_status_Closed</title>
<path fill="none" stroke="black" d="M60,-212C60,-212 12,-212 12,-212 6,-212 0,-206 0,-200 0,-200 0,-188 0,-188 0,-182 6,-176 12,-176 12,-176 60,-176 60,-176 66,-176 72,-182 72,-188 72,-188 72,-200 72,-200 72,-206 66,-212 60,-212"/>
<text text-anchor="middle" x="36" y="-190.3" font-family="Times,serif" font-size="14.00">Closed</text>
</g>
<!-- GarageDoor_status_Closing&#45;&gt;GarageDoor_status_Closed -->
<g id="edge4" class="edge"><title>GarageDoor_status_Closing&#45;&gt;GarageDoor_status_Closed</title>
<path fill="none" stroke="black" d="M107.738,-273.38C90.521,-268.166 70.7549,-259.644 57,-246 50.3547,-239.408 45.7224,-230.415 42.5348,-221.815"/>
<polygon fill="black" stroke="black" points="45.7983,-220.529 39.4224,-212.067 39.13,-222.658 45.7983,-220.529"/>
<text text-anchor="middle" x="93.5" y="-234.3" font-family="Times,serif" font-size="14.00">reachBottom</text>
</g>
<!-- GarageDoor_status_Opening -->
<g id="node5" class="node"><title>GarageDoor_status_Opening</title>
<path fill="none" stroke="black" d="M168,-124C168,-124 120,-124 120,-124 114,-124 108,-118 108,-112 108,-112 108,-100 108,-100 108,-94 114,-88 120,-88 120,-88 168,-88 168,-88 174,-88 180,-94 180,-100 180,-100 180,-112 180,-112 180,-118 174,-124 168,-124"/>
<text text-anchor="middle" x="144" y="-102.3" font-family="Times,serif" font-size="14.00">Opening</text>
</g>
<!-- GarageDoor_status_Closing&#45;&gt;GarageDoor_status_Opening -->
<g id="edge5" class="edge"><title>GarageDoor_status_Closing&#45;&gt;GarageDoor_status_Opening</title>
<path fill="none" stroke="black" d="M144,-263.999C144,-233.853 144,-170.79 144,-134.43"/>
<polygon fill="black" stroke="black" points="147.5,-134.07 144,-124.07 140.5,-134.07 147.5,-134.07"/>
<text text-anchor="middle" x="194" y="-190.3" font-family="Times,serif" font-size="14.00">buttonOrObstacle</text>
</g>
<!-- GarageDoor_status_Closed&#45;&gt;GarageDoor_status_Opening -->
<g id="edge6" class="edge"><title>GarageDoor_status_Closed&#45;&gt;GarageDoor_status_Opening</title>
<path fill="none" stroke="black" d="M28.3731,-175.838C24.8764,-165.13 22.8997,-151.607 30,-142 45.5044,-121.021 73.363,-112.215 97.6587,-108.68"/>
<polygon fill="black" stroke="black" points="98.2923,-112.13 107.807,-107.468 97.4621,-105.179 98.2923,-112.13"/>
<text text-anchor="middle" x="80" y="-146.3" font-family="Times,serif" font-size="14.00">buttonOrObstacle</text>
</g>
<!-- GarageDoor_status_Opening&#45;&gt;GarageDoor_status_Open -->
<g id="edge2" class="edge"><title>GarageDoor_status_Opening&#45;&gt;GarageDoor_status_Open</title>
<path fill="none" stroke="black" d="M180.066,-120.878C203.688,-132.002 232.889,-150.072 248,-176 390.611,-420.708 275.584,-298.982 258,-334 256.048,-337.887 253.438,-341.451 250.443,-344.693"/>
<polygon fill="black" stroke="black" points="247.859,-342.315 242.886,-351.671 252.608,-347.458 247.859,-342.315"/>
<text text-anchor="middle" x="311.5" y="-234.3" font-family="Times,serif" font-size="14.00">reachTop</text>
</g>
<!-- GarageDoor_status_HalfOpen -->
<g id="node6" class="node"><title>GarageDoor_status_HalfOpen</title>
<path fill="none" stroke="black" d="M168,-36C168,-36 120,-36 120,-36 114,-36 108,-30 108,-24 108,-24 108,-12 108,-12 108,-6 114,-0 120,-0 120,-0 168,-0 168,-0 174,-0 180,-6 180,-12 180,-12 180,-24 180,-24 180,-30 174,-36 168,-36"/>
<text text-anchor="middle" x="144" y="-14.3" font-family="Times,serif" font-size="14.00">HalfOpen</text>
</g>
<!-- GarageDoor_status_Opening&#45;&gt;GarageDoor_status_HalfOpen -->
<g id="edge8" class="edge"><title>GarageDoor_status_Opening&#45;&gt;GarageDoor_status_HalfOpen</title>
<path fill="none" stroke="black" d="M107.633,-92.4493C88.281,-83.5818 70.2907,-70.3761 80,-54 84.5029,-46.4053 91.2999,-40.3513 98.8076,-35.5622"/>
<polygon fill="black" stroke="black" points="100.832,-38.4401 107.852,-30.5047 97.4161,-32.3303 100.832,-38.4401"/>
<text text-anchor="middle" x="130" y="-58.3" font-family="Times,serif" font-size="14.00">buttonOrObstacle</text>
</g>
<!-- GarageDoor_status_HalfOpen&#45;&gt;GarageDoor_status_Opening -->
<g id="edge7" class="edge"><title>GarageDoor_status_HalfOpen&#45;&gt;GarageDoor_status_Opening</title>
<path fill="none" stroke="black" d="M170.068,-36.016C180.854,-45.3299 189.673,-57.4986 184,-70 182.332,-73.6763 180.066,-77.1182 177.454,-80.2986"/>
<polygon fill="black" stroke="black" points="174.798,-78.012 170.397,-87.6497 179.848,-82.8597 174.798,-78.012"/>
<text text-anchor="middle" x="236" y="-58.3" font-family="Times,serif" font-size="14.00">buttonOrObstacle</text>
</g>
</g>
</svg>
