<?xml version="1.0" encoding="UTF-8" standalone="no"?>
<!DOCTYPE svg PUBLIC "-//W3C//DTD SVG 1.1//EN"
 "http://www.w3.org/Graphics/SVG/1.1/DTD/svg11.dtd">
<!-- Generated by graphviz version 2.40.1 (20161225.0304)
 -->
<!-- Title: GarageDoor Pages: 1 -->
<svg width="345pt" height="439pt"
 viewBox="0.00 0.00 344.88 439.40" xmlns="http://www.w3.org/2000/svg" xmlns:xlink="http://www.w3.org/1999/xlink">
<g id="graph0" class="graph" transform="scale(1 1) rotate(0) translate(4 435.4)">
<title>GarageDoor</title>
<polygon fill="#ffffff" stroke="transparent" points="-4,4 -4,-435.4 340.8779,-435.4 340.8779,4 -4,4"/>
<!-- start_GarageDoor_status -->
<g id="node1" class="node">
<title>start_GarageDoor_status</title>
<g id="a_node1"><a xlink:title="Class GarageDoor, SM status, State start">
<ellipse fill="#000000" stroke="#000000" cx="208" cy="-424.2" rx="7.2" ry="7.2"/>
</a>
</g>
</g>
<!-- GarageDoor_status_Open -->
<g id="node2" class="node">
<title>GarageDoor_status_Open</title>
<g id="a_node2"><a xlink:title="Class GarageDoor, SM status, State Open">
<path fill="none" stroke="#000000" d="M232,-380C232,-380 184,-380 184,-380 178,-380 172,-374 172,-368 172,-368 172,-356 172,-356 172,-350 178,-344 184,-344 184,-344 232,-344 232,-344 238,-344 244,-350 244,-356 244,-356 244,-368 244,-368 244,-374 238,-380 232,-380"/>
<text text-anchor="middle" x="208" y="-357.8" font-family="Times,serif" font-size="14.00" fill="#000000">Open</text>
</a>
</g>
</g>
<!-- start_GarageDoor_status&#45;&gt;GarageDoor_status_Open -->
<g id="edge1" class="edge">
<title>start_GarageDoor_status&#45;&gt;GarageDoor_status_Open</title>
<g id="a_edge1"><a xlink:title="start to Open">
<path fill="none" stroke="#000000" d="M208,-416.5731C208,-409.9503 208,-399.9322 208,-390.2795"/>
<polygon fill="#000000" stroke="#000000" points="211.5001,-390.1266 208,-380.1266 204.5001,-390.1267 211.5001,-390.1266"/>
</a>
</g>
</g>
<!-- GarageDoor_status_Closing -->
<g id="node3" class="node">
<title>GarageDoor_status_Closing</title>
<g id="a_node3"><a xlink:title="Class GarageDoor, SM status, State Closing">
<path fill="none" stroke="#000000" d="M168,-294C168,-294 120,-294 120,-294 114,-294 108,-288 108,-282 108,-282 108,-270 108,-270 108,-264 114,-258 120,-258 120,-258 168,-258 168,-258 174,-258 180,-264 180,-270 180,-270 180,-282 180,-282 180,-288 174,-294 168,-294"/>
<text text-anchor="middle" x="144" y="-271.8" font-family="Times,serif" font-size="14.00" fill="#000000">Closing</text>
</a>
</g>
</g>
<!-- GarageDoor_status_Open&#45;&gt;GarageDoor_status_Closing -->
<g id="edge3" class="edge">
<title>GarageDoor_status_Open&#45;&gt;GarageDoor_status_Closing</title>
<g id="a_edge3"><a xlink:title="From Open to Closing on buttonOrObstacle">
<path fill="none" stroke="#000000" d="M176.3704,-343.8331C169.6914,-338.7801 163.2324,-332.7869 158.4688,-326 153.9716,-319.5927 150.8612,-311.7966 148.7141,-304.2852"/>
<polygon fill="#000000" stroke="#000000" points="152.0741,-303.2871 146.3434,-294.376 145.2663,-304.9159 152.0741,-303.2871"/>
</a>
</g>
<text text-anchor="middle" x="208.7656" y="-314.8" font-family="Times,serif" font-size="14.00" fill="#000000">buttonOrObstacle</text>
</g>
<!-- GarageDoor_status_Closed -->
<g id="node4" class="node">
<title>GarageDoor_status_Closed</title>
<g id="a_node4"><a xlink:title="Class GarageDoor, SM status, State Closed">
<path fill="none" stroke="#000000" d="M60,-208C60,-208 12,-208 12,-208 6,-208 0,-202 0,-196 0,-196 0,-184 0,-184 0,-178 6,-172 12,-172 12,-172 60,-172 60,-172 66,-172 72,-178 72,-184 72,-184 72,-196 72,-196 72,-202 66,-208 60,-208"/>
<text text-anchor="middle" x="36" y="-185.8" font-family="Times,serif" font-size="14.00" fill="#000000">Closed</text>
</a>
</g>
</g>
<!-- GarageDoor_status_Closing&#45;&gt;GarageDoor_status_Closed -->
<g id="edge4" class="edge">
<title>GarageDoor_status_Closing&#45;&gt;GarageDoor_status_Closed</title>
<g id="a_edge4"><a xlink:title="From Closing to Closed on reachBottom">
<path fill="none" stroke="#000000" d="M107.6905,-267.6208C90.7353,-262.1503 71.3317,-253.4508 57.6895,-240 51.4622,-233.8602 46.9044,-225.6367 43.6222,-217.6343"/>
<polygon fill="#000000" stroke="#000000" points="46.8888,-216.3744 40.2249,-208.1378 40.2979,-218.7323 46.8888,-216.3744"/>
</a>
</g>
<text text-anchor="middle" x="94.1553" y="-228.8" font-family="Times,serif" font-size="14.00" fill="#000000">reachBottom</text>
</g>
<!-- GarageDoor_status_Opening -->
<g id="node5" class="node">
<title>GarageDoor_status_Opening</title>
<g id="a_node5"><a xlink:title="Class GarageDoor, SM status, State Opening">
<path fill="none" stroke="#000000" d="M168,-122C168,-122 120,-122 120,-122 114,-122 108,-116 108,-110 108,-110 108,-98 108,-98 108,-92 114,-86 120,-86 120,-86 168,-86 168,-86 174,-86 180,-92 180,-98 180,-98 180,-110 180,-110 180,-116 174,-122 168,-122"/>
<text text-anchor="middle" x="144" y="-99.8" font-family="Times,serif" font-size="14.00" fill="#000000">Opening</text>
</a>
</g>
</g>
<!-- GarageDoor_status_Closing&#45;&gt;GarageDoor_status_Opening -->
<g id="edge5" class="edge">
<title>GarageDoor_status_Closing&#45;&gt;GarageDoor_status_Opening</title>
<g id="a_edge5"><a xlink:title="From Closing to Opening on buttonOrObstacle">
<path fill="none" stroke="#000000" d="M144,-257.9181C144,-227.981 144,-167.8972 144,-132.2989"/>
<polygon fill="#000000" stroke="#000000" points="147.5001,-132.0977 144,-122.0977 140.5001,-132.0978 147.5001,-132.0977"/>
</a>
</g>
<text text-anchor="middle" x="193.7656" y="-185.8" font-family="Times,serif" font-size="14.00" fill="#000000">buttonOrObstacle</text>
</g>
<!-- GarageDoor_status_Closed&#45;&gt;GarageDoor_status_Opening -->
<g id="edge6" class="edge">
<title>GarageDoor_status_Closed&#45;&gt;GarageDoor_status_Opening</title>
<g id="a_edge6"><a xlink:title="From Closed to Opening on buttonOrObstacle">
<path fill="none" stroke="#000000" d="M28.2823,-171.7654C25.2487,-161.5205 23.8659,-149.0205 30.4688,-140 38.7627,-128.6691 70.2129,-119.228 97.9138,-112.8609"/>
<polygon fill="#000000" stroke="#000000" points="98.8895,-116.2299 107.8999,-110.6565 97.3805,-109.3945 98.8895,-116.2299"/>
</a>
</g>
<text text-anchor="middle" x="80.7656" y="-142.8" font-family="Times,serif" font-size="14.00" fill="#000000">buttonOrObstacle</text>
</g>
<!-- GarageDoor_status_Opening&#45;&gt;GarageDoor_status_Open -->
<g id="edge2" class="edge">
<title>GarageDoor_status_Opening&#45;&gt;GarageDoor_status_Open</title>
<g id="a_edge2"><a xlink:title="From Opening to Open on reachTop">
<path fill="none" stroke="#000000" d="M180.0453,-117.548C203.6583,-128.4533 232.8567,-146.244 248,-172 410.2674,-447.9868 275.5597,-291.7194 258,-326 255.9137,-330.0729 253.1284,-333.7898 249.9359,-337.1561"/>
<polygon fill="#000000" stroke="#000000" points="247.4758,-334.662 242.41,-343.9673 252.173,-339.8521 247.4758,-334.662"/>
</a>
</g>
<text text-anchor="middle" x="310.939" y="-228.8" font-family="Times,serif" font-size="14.00" fill="#000000">reachTop</text>
</g>
<!-- GarageDoor_status_HalfOpen -->
<g id="node6" class="node">
<title>GarageDoor_status_HalfOpen</title>
<g id="a_node6"><a xlink:title="Class GarageDoor, SM status, State HalfOpen">
<path fill="none" stroke="#000000" d="M168,-36C168,-36 120,-36 120,-36 114,-36 108,-30 108,-24 108,-24 108,-12 108,-12 108,-6 114,0 120,0 120,0 168,0 168,0 174,0 180,-6 180,-12 180,-12 180,-24 180,-24 180,-30 174,-36 168,-36"/>
<text text-anchor="middle" x="144" y="-13.8" font-family="Times,serif" font-size="14.00" fill="#000000">HalfOpen</text>
</a>
</g>
</g>
<!-- GarageDoor_status_Opening&#45;&gt;GarageDoor_status_HalfOpen -->
<g id="edge8" class="edge">
<title>GarageDoor_status_Opening&#45;&gt;GarageDoor_status_HalfOpen</title>
<g id="a_edge8"><a xlink:title="From Opening to HalfOpen on buttonOrObstacle">
<path fill="none" stroke="#000000" d="M107.7512,-91.7131C97.0623,-86.2065 86.5964,-78.5152 80.4688,-68 72.6118,-54.5172 83.5621,-43.3148 98.4658,-34.9551"/>
<polygon fill="#000000" stroke="#000000" points="100.2261,-37.9875 107.5854,-30.3657 97.0794,-31.7346 100.2261,-37.9875"/>
</a>
</g>
<text text-anchor="middle" x="130.7656" y="-56.8" font-family="Times,serif" font-size="14.00" fill="#000000">buttonOrObstacle</text>
</g>
<!-- GarageDoor_status_HalfOpen&#45;&gt;GarageDoor_status_Opening -->
<g id="edge7" class="edge">
<title>GarageDoor_status_HalfOpen&#45;&gt;GarageDoor_status_Opening</title>
<g id="a_edge7"><a xlink:title="From HalfOpen to Opening on buttonOrObstacle">
<path fill="none" stroke="#000000" d="M170.8226,-36.3552C176.1637,-41.4005 181.0352,-47.343 184,-54 187.8195,-62.5762 184.7657,-70.9354 178.9579,-78.2875"/>
<polygon fill="#000000" stroke="#000000" points="176.1334,-76.1781 171.7698,-85.8326 181.2016,-81.0065 176.1334,-76.1781"/>
</a>
</g>
<text text-anchor="middle" x="235.7656" y="-56.8" font-family="Times,serif" font-size="14.00" fill="#000000">buttonOrObstacle</text>
</g>
</g>
</svg>
