<?xml version="1.0" encoding="UTF-8" standalone="no"?>
<!DOCTYPE svg PUBLIC "-//W3C//DTD SVG 1.1//EN"
 "http://www.w3.org/Graphics/SVG/1.1/DTD/svg11.dtd">
<!-- Generated by graphviz version 2.36.0 (20140111.2315)
 -->
<!-- Title: HomeHeater Pages: 1 -->
<svg width="3594pt" height="631pt"
 viewBox="0.00 0.00 3594.00 631.00" xmlns="http://www.w3.org/2000/svg" xmlns:xlink="http://www.w3.org/1999/xlink">
<g id="graph0" class="graph" transform="scale(1 1) rotate(0) translate(4 627)">
<title>HomeHeater</title>
<polygon fill="white" stroke="none" points="-4,4 -4,-627 3590,-627 3590,4 -4,4"/>
<g id="clust1" class="cluster"><title>clusterHeatControlSystem_sm_heatingSystem</title>
<path fill="none" stroke="black" d="M36,-8C36,-8 3547,-8 3547,-8 3553,-8 3559,-14 3559,-20 3559,-20 3559,-603 3559,-603 3559,-609 3553,-615 3547,-615 3547,-615 36,-615 36,-615 30,-615 24,-609 24,-603 24,-603 24,-20 24,-20 24,-14 30,-8 36,-8"/>
<text text-anchor="middle" x="1791.5" y="-599.8" font-family="Times,serif" font-size="14.00">heatingSystem</text>
</g>
<g id="clust2" class="cluster"><title>clusterHeatControlSystem_smHouse_house</title>
<path fill="none" stroke="black" d="M66,-16C66,-16 2739,-16 2739,-16 2745,-16 2751,-22 2751,-28 2751,-28 2751,-572 2751,-572 2751,-578 2745,-584 2739,-584 2739,-584 66,-584 66,-584 60,-584 54,-578 54,-572 54,-572 54,-28 54,-28 54,-22 60,-16 66,-16"/>
<text text-anchor="middle" x="1402.5" y="-568.8" font-family="Times,serif" font-size="14.00">house</text>
</g>
<g id="clust3" class="cluster"><title>clusterHeatControlSystem_smHouseRoom_room</title>
<path fill="none" stroke="black" d="M74,-24C74,-24 1752,-24 1752,-24 1758,-24 1764,-30 1764,-36 1764,-36 1764,-510 1764,-510 1764,-516 1758,-522 1752,-522 1752,-522 74,-522 74,-522 68,-522 62,-516 62,-510 62,-510 62,-36 62,-36 62,-30 68,-24 74,-24"/>
<text text-anchor="middle" x="913" y="-506.8" font-family="Times,serif" font-size="14.00">room</text>
</g>
<g id="clust4" class="cluster"><title>clusterHeatControlSystem_smHouseRoomRoom_noHeatReq</title>
<path fill="none" stroke="black" d="M104,-220C104,-220 908,-220 908,-220 914,-220 920,-226 920,-232 920,-232 920,-479 920,-479 920,-485 914,-491 908,-491 908,-491 104,-491 104,-491 98,-491 92,-485 92,-479 92,-479 92,-232 92,-232 92,-226 98,-220 104,-220"/>
<text text-anchor="middle" x="506" y="-475.8" font-family="Times,serif" font-size="14.00">noHeatReq</text>
</g>
<g id="clust5" class="cluster"><title>clusterHeatControlSystem_smHouseRoomRoom_heatReq</title>
<path fill="none" stroke="black" d="M940,-32C940,-32 1744,-32 1744,-32 1750,-32 1756,-38 1756,-44 1756,-44 1756,-295 1756,-295 1756,-301 1750,-307 1744,-307 1744,-307 940,-307 940,-307 934,-307 928,-301 928,-295 928,-295 928,-44 928,-44 928,-38 934,-32 940,-32"/>
<text text-anchor="middle" x="1342" y="-291.8" font-family="Times,serif" font-size="14.00">heatReq</text>
</g>
<g id="clust6" class="cluster"><title>clusterHeatControlSystem_smHouseController_controller</title>
<path fill="none" stroke="black" d="M1784,-126C1784,-126 2731,-126 2731,-126 2737,-126 2743,-132 2743,-138 2743,-138 2743,-541 2743,-541 2743,-547 2737,-553 2731,-553 2731,-553 1784,-553 1784,-553 1778,-553 1772,-547 1772,-541 1772,-541 1772,-138 1772,-138 1772,-132 1778,-126 1784,-126"/>
<text text-anchor="middle" x="2257.5" y="-537.8" font-family="Times,serif" font-size="14.00">controller</text>
</g>
<g id="clust7" class="cluster"><title>clusterHeatControlSystem_smHouseControllerController_controllerOn</title>
<path fill="none" stroke="black" d="M1904,-212C1904,-212 2723,-212 2723,-212 2729,-212 2735,-218 2735,-224 2735,-224 2735,-510 2735,-510 2735,-516 2729,-522 2723,-522 2723,-522 1904,-522 1904,-522 1898,-522 1892,-516 1892,-510 1892,-510 1892,-224 1892,-224 1892,-218 1898,-212 1904,-212"/>
<text text-anchor="middle" x="2313.5" y="-506.8" font-family="Times,serif" font-size="14.00">controllerOn</text>
</g>
<g id="clust8" class="cluster"><title>clusterHeatControlSystem_smHouseControllerControllerControllerOn_heaterActive</title>
<path fill="none" stroke="black" d="M2503,-220C2503,-220 2715,-220 2715,-220 2721,-220 2727,-226 2727,-232 2727,-232 2727,-479 2727,-479 2727,-485 2721,-491 2715,-491 2715,-491 2503,-491 2503,-491 2497,-491 2491,-485 2491,-479 2491,-479 2491,-232 2491,-232 2491,-226 2497,-220 2503,-220"/>
<text text-anchor="middle" x="2609" y="-475.8" font-family="Times,serif" font-size="14.00">heaterActive</text>
</g>
<g id="clust9" class="cluster"><title>clusterHeatControlSystem_smFurnace_furnace</title>
<path fill="none" stroke="black" d="M2771,-118C2771,-118 3539,-118 3539,-118 3545,-118 3551,-124 3551,-130 3551,-130 3551,-510 3551,-510 3551,-516 3545,-522 3539,-522 3539,-522 2771,-522 2771,-522 2765,-522 2759,-516 2759,-510 2759,-510 2759,-130 2759,-130 2759,-124 2765,-118 2771,-118"/>
<text text-anchor="middle" x="3155" y="-506.8" font-family="Times,serif" font-size="14.00">furnace</text>
</g>
<g id="clust10" class="cluster"><title>clusterHeatControlSystem_smFurnaceFurnace_furnaceNormal</title>
<path fill="none" stroke="black" d="M2801,-126C2801,-126 3401,-126 3401,-126 3407,-126 3413,-132 3413,-138 3413,-138 3413,-479 3413,-479 3413,-485 3407,-491 3401,-491 3401,-491 2801,-491 2801,-491 2795,-491 2789,-485 2789,-479 2789,-479 2789,-138 2789,-138 2789,-132 2795,-126 2801,-126"/>
<text text-anchor="middle" x="3101" y="-475.8" font-family="Times,serif" font-size="14.00">furnaceNormal</text>
</g>
<!-- start_HeatControlSystem_sm -->
<g id="node1" class="node"><title>start_HeatControlSystem_sm</title>
<g id="a_node1"><a xlink:title="Class HeatControlSystem, SM sm, State start">
<ellipse fill="black" stroke="black" cx="7" cy="-430" rx="7.2" ry="7.2"/>
</a>
</g>
</g>
<!-- HeatControlSystem_smHouseRoomRoomNoHeatReq_idleNotHeat -->
<g id="node5" class="node"><title>HeatControlSystem_smHouseRoomRoomNoHeatReq_idleNotHeat</title>
<g id="a_node5"><a xlink:title="Class HeatControlSystem, SM sm, State house.room.room.noHeatReq.idleNotHeat">
<path fill="none" stroke="black" d="M171.25,-385C171.25,-385 112.75,-385 112.75,-385 106.75,-385 100.75,-379 100.75,-373 100.75,-373 100.75,-361 100.75,-361 100.75,-355 106.75,-349 112.75,-349 112.75,-349 171.25,-349 171.25,-349 177.25,-349 183.25,-355 183.25,-361 183.25,-361 183.25,-373 183.25,-373 183.25,-379 177.25,-385 171.25,-385"/>
<text text-anchor="middle" x="142" y="-363.3" font-family="Times,serif" font-size="14.00">idleNotHeat</text>
</a>
</g>
</g>
<!-- start_HeatControlSystem_sm&#45;&gt;HeatControlSystem_smHouseRoomRoomNoHeatReq_idleNotHeat -->
<g id="edge1" class="edge"><title>start_HeatControlSystem_sm&#45;&gt;HeatControlSystem_smHouseRoomRoomNoHeatReq_idleNotHeat</title>
<g id="a_edge1"><a xlink:title="start to heatingSystem">
<path fill="none" stroke="black" d="M8.73718,-422.947C10.1486,-418.78 12.4825,-413.159 17.1077,-407.512"/>
<polygon fill="black" stroke="black" points="19.6127,-409.958 24.2947,-400.453 14.7077,-404.963 19.6127,-409.958"/>
</a>
</g>
</g>
<!-- start_HeatControlSystem_house -->
<g id="node2" class="node"><title>start_HeatControlSystem_house</title>
<g id="a_node2"><a xlink:title="Class HeatControlSystem, SM sm, State house.start">
<ellipse fill="black" stroke="black" cx="39" cy="-430" rx="7.2" ry="7.2"/>
</a>
</g>
</g>
<!-- start_HeatControlSystem_house&#45;&gt;HeatControlSystem_smHouseRoomRoomNoHeatReq_idleNotHeat -->
<g id="edge2" class="edge"><title>start_HeatControlSystem_house&#45;&gt;HeatControlSystem_smHouseRoomRoomNoHeatReq_idleNotHeat</title>
<g id="a_edge2"><a xlink:title="start to house.house">
<path fill="none" stroke="black" d="M42.2845,-423.121C43.7339,-420.718 45.6168,-417.802 47.8394,-414.815"/>
<polygon fill="black" stroke="black" points="50.6354,-416.93 54.4523,-407.047 45.3051,-412.393 50.6354,-416.93"/>
</a>
</g>
</g>
<!-- start_HeatControlSystem_room -->
<g id="node3" class="node"><title>start_HeatControlSystem_room</title>
<g id="a_node3"><a xlink:title="Class HeatControlSystem, SM sm, State house.room.room.start">
<ellipse fill="black" stroke="black" cx="77" cy="-430" rx="7.2" ry="7.2"/>
</a>
</g>
</g>
<!-- start_HeatControlSystem_room&#45;&gt;HeatControlSystem_smHouseRoomRoomNoHeatReq_idleNotHeat -->
<g id="edge3" class="edge"><title>start_HeatControlSystem_room&#45;&gt;HeatControlSystem_smHouseRoomRoomNoHeatReq_idleNotHeat</title>
<g id="a_edge3"><a xlink:title="start to house.room.room">
<path fill="none" stroke="black" d="M79.2266,-422.928C84.8683,-415.691 97.435,-403.158 109.937,-391.89"/>
<polygon fill="black" stroke="black" points="112.459,-394.332 117.649,-385.096 107.832,-389.079 112.459,-394.332"/>
</a>
</g>
</g>
<!-- start_HeatControlSystem_room&#45;&gt;HeatControlSystem_smHouseRoomRoomNoHeatReq_idleNotHeat -->
<g id="edge4" class="edge"><title>start_HeatControlSystem_room&#45;&gt;HeatControlSystem_smHouseRoomRoomNoHeatReq_idleNotHeat</title>
<g id="a_edge4"><a xlink:title="start to house.room.room.noHeatReq">
<path fill="none" stroke="black" d="M83.2448,-426.058C83.4,-425.957 83.5572,-425.853 83.7164,-425.748"/>
<polygon fill="black" stroke="black" points="86.0652,-428.365 92.0367,-419.613 81.9109,-422.73 86.0652,-428.365"/>
</a>
</g>
</g>
<!-- start_HeatControlSystem_noHeatReq -->
<g id="node4" class="node"><title>start_HeatControlSystem_noHeatReq</title>
<g id="a_node4"><a xlink:title="Class HeatControlSystem, SM sm, State house.room.room.noHeatReq.start">
<ellipse fill="black" stroke="black" cx="142" cy="-430" rx="7.2" ry="7.2"/>
</a>
</g>
</g>
<!-- start_HeatControlSystem_noHeatReq&#45;&gt;HeatControlSystem_smHouseRoomRoomNoHeatReq_idleNotHeat -->
<g id="edge6" class="edge"><title>start_HeatControlSystem_noHeatReq&#45;&gt;HeatControlSystem_smHouseRoomRoomNoHeatReq_idleNotHeat</title>
<g id="a_edge6"><a xlink:title="start to house.room.room.noHeatReq.idleNotHeat">
<path fill="none" stroke="black" d="M142,-422.472C142,-415.902 142,-405.324 142,-395.229"/>
<polygon fill="black" stroke="black" points="145.5,-395.073 142,-385.073 138.5,-395.073 145.5,-395.073"/>
</a>
</g>
</g>
<!-- HeatControlSystem_smHouseRoomRoomNoHeatReq_waitForHeat -->
<g id="node6" class="node"><title>HeatControlSystem_smHouseRoomRoomNoHeatReq_waitForHeat</title>
<g id="a_node6"><a xlink:title="Class HeatControlSystem, SM sm, State house.room.room.noHeatReq.waitForHeat">
<path fill="none" stroke="black" d="M171.5,-264C171.5,-264 112.5,-264 112.5,-264 106.5,-264 100.5,-258 100.5,-252 100.5,-252 100.5,-240 100.5,-240 100.5,-234 106.5,-228 112.5,-228 112.5,-228 171.5,-228 171.5,-228 177.5,-228 183.5,-234 183.5,-240 183.5,-240 183.5,-252 183.5,-252 183.5,-258 177.5,-264 171.5,-264"/>
<text text-anchor="middle" x="142" y="-242.3" font-family="Times,serif" font-size="14.00">waitForHeat</text>
</a>
</g>
</g>
<!-- HeatControlSystem_smHouseRoomRoomNoHeatReq_idleNotHeat&#45;&gt;HeatControlSystem_smHouseRoomRoomNoHeatReq_waitForHeat -->
<g id="edge8" class="edge"><title>HeatControlSystem_smHouseRoomRoomNoHeatReq_idleNotHeat&#45;&gt;HeatControlSystem_smHouseRoomRoomNoHeatReq_waitForHeat</title>
<g id="a_edge8"><a xlink:title="From house.room.room.noHeatReq.idleNotHeat to house.room.room.noHeatReq.waitForHeat automatically&#13;Guard: [(setTemp &#45; actualTemp) &gt; 2]:g1&#13;Transition Action:
 &#160;&#160;&#160;&#160;valvePos++; waitedForWarm = 0;">
<path fill="none" stroke="black" d="M132.925,-348.647C130.504,-343.154 128.223,-336.958 127,-331 123.078,-311.892 127.159,-290.218 132.047,-273.673"/>
<polygon fill="black" stroke="black" points="135.396,-274.694 135.132,-264.103 128.733,-272.547 135.396,-274.694"/>
</a>
</g>
<text text-anchor="middle" x="250.5" y="-319.3" font-family="Times,serif" font-size="14.00"> &#160;&#160;t1: [(setTemp &#45; actualTemp) &gt; 2]:g1 / {...}</text>
</g>
<!-- HeatControlSystem_smHouseRoomRoomNoHeatReq_waitForHeat&#45;&gt;HeatControlSystem_smHouseRoomRoomNoHeatReq_idleNotHeat -->
<g id="edge7" class="edge"><title>HeatControlSystem_smHouseRoomRoomNoHeatReq_waitForHeat&#45;&gt;HeatControlSystem_smHouseRoomRoomNoHeatReq_idleNotHeat</title>
<g id="a_edge7"><a xlink:title="From house.room.room.noHeatReq.waitForHeat to house.room.room.noHeatReq.idleNotHeat automatically&#13;Guard: [((setTemp &#45; actualTemp) &lt;= 2)]:g4">
<path fill="none" stroke="black" d="M183.678,-248.03C265.331,-251.468 433.749,-266.373 378,-331 354.678,-358.036 255.735,-364.531 193.602,-365.89"/>
<polygon fill="black" stroke="black" points="193.521,-362.39 183.587,-366.072 193.648,-369.389 193.521,-362.39"/>
</a>
</g>
<text text-anchor="middle" x="502.5" y="-319.3" font-family="Times,serif" font-size="14.00"> &#160;&#160;t4: [((setTemp &#45; actualTemp) &lt;= 2)]:g4</text>
</g>
<!-- HeatControlSystem_smHouseRoomRoomNoHeatReq_waitForHeat&#45;&gt;HeatControlSystem_smHouseRoomRoomNoHeatReq_waitForHeat -->
<g id="edge9" class="edge"><title>HeatControlSystem_smHouseRoomRoomNoHeatReq_waitForHeat&#45;&gt;HeatControlSystem_smHouseRoomRoomNoHeatReq_waitForHeat</title>
<g id="a_edge9"><a xlink:title="From house.room.room.noHeatReq.waitForHeat to house.room.room.noHeatReq.waitForHeat automatically&#13;Guard: [waitedForWarm &lt; warmUpTimer]:g2&#13;Transition Action:
 &#160;&#160;&#160;&#160;waitedForWarm++;">
<path fill="none" stroke="black" d="M183.625,-250.605C193.605,-250.245 201,-248.71 201,-246 201,-244.349 198.254,-243.134 193.85,-242.355"/>
<polygon fill="black" stroke="black" points="193.908,-238.845 183.625,-241.395 193.254,-245.814 193.908,-238.845"/>
</a>
</g>
<text text-anchor="middle" x="341" y="-242.3" font-family="Times,serif" font-size="14.00"> &#160;&#160;t2: [waitedForWarm &lt; warmUpTimer]:g2 / {...}</text>
</g>
<!-- HeatControlSystem_smHouseRoomRoomNoHeatReq_waitForHeat&#45;&gt;HeatControlSystem_smHouseRoomRoomNoHeatReq_waitForHeat -->
<g id="edge10" class="edge"><title>HeatControlSystem_smHouseRoomRoomNoHeatReq_waitForHeat&#45;&gt;HeatControlSystem_smHouseRoomRoomNoHeatReq_waitForHeat</title>
<g id="a_edge10"><a xlink:title="From house.room.room.noHeatReq.waitForHeat to house.room.room.noHeatReq.waitForHeat automatically&#13;Guard: [(valvePos != 2) &amp;&amp; (waitedForWarm == warmUpTimer)]:g3&#13;Transition Action:
 &#160;&#160;&#160;&#160;valvePos++; waitedForWarm = 0;">
<path fill="none" stroke="black" d="M183.808,-251.781C275.64,-258.047 481,-256.12 481,-246 481,-236.236 289.826,-234.099 193.901,-239.588"/>
<polygon fill="black" stroke="black" points="193.57,-236.102 183.808,-240.219 194.007,-243.088 193.57,-236.102"/>
</a>
</g>
<text text-anchor="middle" x="687" y="-242.3" font-family="Times,serif" font-size="14.00"> &#160;&#160;t3: [(valvePos != 2) &amp;&amp; (waitedForWarm == warmUpTimer)]:g3 / {...}</text>
</g>
<!-- HeatControlSystem_smHouseRoomRoomHeatReq_idleHeat -->
<g id="node8" class="node"><title>HeatControlSystem_smHouseRoomRoomHeatReq_idleHeat</title>
<g id="a_node8"><a xlink:title="Class HeatControlSystem, SM sm, State house.room.room.heatReq.idleHeat">
<path fill="none" stroke="black" d="M996,-170C996,-170 948,-170 948,-170 942,-170 936,-164 936,-158 936,-158 936,-146 936,-146 936,-140 942,-134 948,-134 948,-134 996,-134 996,-134 1002,-134 1008,-140 1008,-146 1008,-146 1008,-158 1008,-158 1008,-164 1002,-170 996,-170"/>
<text text-anchor="middle" x="972" y="-148.3" font-family="Times,serif" font-size="14.00">idleHeat</text>
</a>
</g>
</g>
<!-- HeatControlSystem_smHouseRoomRoomNoHeatReq_waitForHeat&#45;&gt;HeatControlSystem_smHouseRoomRoomHeatReq_idleHeat -->
<g id="edge11" class="edge"><title>HeatControlSystem_smHouseRoomRoomNoHeatReq_waitForHeat&#45;&gt;HeatControlSystem_smHouseRoomRoomHeatReq_idleHeat</title>
<g id="a_edge11"><a xlink:title="From house.room.room.noHeatReq.waitForHeat to house.room.room.heatReq automatically&#13;Guard: [(waitedForWarm == warmUpTimer) &amp;&amp; (valvePos == 2) &amp;&amp; ((setTemp &#45; actualTemp) &gt; 2)]:g5&#13;Transition Action:
 &#160;&#160;&#160;&#160;requestHeat = true;">
<path fill="none" stroke="black" d="M183.682,-231.323C226.797,-217.813 296.331,-197.792 358,-188 568.013,-154.652 822.874,-152.008 925.694,-152.478"/>
<polygon fill="black" stroke="black" points="917.915,-155.782 928,-152.536 918.092,-148.784 917.915,-155.782"/>
</a>
</g>
<text text-anchor="middle" x="663" y="-192.3" font-family="Times,serif" font-size="14.00"> &#160;&#160;t5: [(waitedForWarm == warmUpTimer) &amp;&amp; (valvePos == 2) &amp;&amp; ((setTemp &#45; actualTemp) &gt; 2)]:g5 / {...}</text>
</g>
<!-- start_HeatControlSystem_heatReq -->
<g id="node7" class="node"><title>start_HeatControlSystem_heatReq</title>
<g id="a_node7"><a xlink:title="Class HeatControlSystem, SM sm, State house.room.room.heatReq.start">
<ellipse fill="black" stroke="black" cx="972" cy="-246" rx="7.2" ry="7.2"/>
</a>
</g>
</g>
<!-- start_HeatControlSystem_heatReq&#45;&gt;HeatControlSystem_smHouseRoomRoomHeatReq_idleHeat -->
<g id="edge12" class="edge"><title>start_HeatControlSystem_heatReq&#45;&gt;HeatControlSystem_smHouseRoomRoomHeatReq_idleHeat</title>
<g id="a_edge12"><a xlink:title="start to house.room.room.heatReq.idleHeat">
<path fill="none" stroke="black" d="M972,-238.676C972,-226.839 972,-200.695 972,-180.381"/>
<polygon fill="black" stroke="black" points="975.5,-180.109 972,-170.109 968.5,-180.109 975.5,-180.109"/>
</a>
</g>
</g>
<!-- HeatControlSystem_smHouseRoomRoomHeatReq_waitForCool -->
<g id="node9" class="node"><title>HeatControlSystem_smHouseRoomRoomHeatReq_waitForCool</title>
<g id="a_node9"><a xlink:title="Class HeatControlSystem, SM sm, State house.room.room.heatReq.waitForCool">
<path fill="none" stroke="black" d="M1009.25,-76C1009.25,-76 948.75,-76 948.75,-76 942.75,-76 936.75,-70 936.75,-64 936.75,-64 936.75,-52 936.75,-52 936.75,-46 942.75,-40 948.75,-40 948.75,-40 1009.25,-40 1009.25,-40 1015.25,-40 1021.25,-46 1021.25,-52 1021.25,-52 1021.25,-64 1021.25,-64 1021.25,-70 1015.25,-76 1009.25,-76"/>
<text text-anchor="middle" x="979" y="-54.3" font-family="Times,serif" font-size="14.00">waitForCool</text>
</a>
</g>
</g>
<!-- HeatControlSystem_smHouseRoomRoomHeatReq_idleHeat&#45;&gt;HeatControlSystem_smHouseRoomRoomHeatReq_waitForCool -->
<g id="edge14" class="edge"><title>HeatControlSystem_smHouseRoomRoomHeatReq_idleHeat&#45;&gt;HeatControlSystem_smHouseRoomRoomHeatReq_waitForCool</title>
<g id="a_edge14"><a xlink:title="From house.room.room.heatReq.idleHeat to house.room.room.heatReq.waitForCool automatically&#13;Guard: [(actualTemp &#45; setTemp) &gt; 2]:g6&#13;Transition Action:
 &#160;&#160;&#160;&#160;valvePos&#45;&#45;; waitedForCool = 0;">
<path fill="none" stroke="black" d="M959.202,-133.84C952.385,-122.551 946.287,-107.435 951,-94 952.169,-90.6682 953.803,-87.4179 955.701,-84.3249"/>
<polygon fill="black" stroke="black" points="958.619,-86.2604 961.58,-76.0875 952.921,-82.1939 958.619,-86.2604"/>
</a>
</g>
<text text-anchor="middle" x="1074.5" y="-98.3" font-family="Times,serif" font-size="14.00"> &#160;&#160;t6: [(actualTemp &#45; setTemp) &gt; 2]:g6 / {...}</text>
</g>
<!-- HeatControlSystem_smHouseRoomRoomHeatReq_waitForCool&#45;&gt;HeatControlSystem_smHouseRoomRoomNoHeatReq_idleNotHeat -->
<g id="edge5" class="edge"><title>HeatControlSystem_smHouseRoomRoomHeatReq_waitForCool&#45;&gt;HeatControlSystem_smHouseRoomRoomNoHeatReq_idleNotHeat</title>
<g id="a_edge5"><a xlink:title="From house.room.room.heatReq.waitForCool to house.room.room.noHeatReq automatically&#13;Guard: [(valvePos == 0) &amp;&amp; (coolDownTimer == waitedForCool) &amp;&amp; ((actualTemp &#45; setTemp) &gt; 2)]:g8&#13;Transition Action:
 &#160;&#160;&#160;&#160;requestHeat = false;">
<path fill="none" stroke="black" d="M1021.57,-58.9251C1132.34,-59.1722 1423.04,-62.8143 1452,-94 1456.84,-99.2105 1456.33,-104.362 1452,-110 1369.88,-216.844 1281.26,-131.325 1159,-188 1075,-226.941 1075.33,-276.227 988,-307 972.217,-312.562 952.566,-317.601 929.858,-322.167"/>
<polygon fill="black" stroke="black" points="929.09,-318.751 919.941,-324.095 930.426,-325.622 929.09,-318.751"/>
</a>
</g>
<text text-anchor="middle" x="1463.5" y="-192.3" font-family="Times,serif" font-size="14.00"> &#160;&#160;t8: [(valvePos == 0) &amp;&amp; (coolDownTimer == waitedForCool) &amp;&amp; ((actualTemp &#45; setTemp) &gt; 2)]:g8 / {...}</text>
</g>
<!-- HeatControlSystem_smHouseRoomRoomHeatReq_waitForCool&#45;&gt;HeatControlSystem_smHouseRoomRoomHeatReq_idleHeat -->
<g id="edge13" class="edge"><title>HeatControlSystem_smHouseRoomRoomHeatReq_waitForCool&#45;&gt;HeatControlSystem_smHouseRoomRoomHeatReq_idleHeat</title>
<g id="a_edge13"><a xlink:title="From house.room.room.heatReq.waitForCool to house.room.room.heatReq.idleHeat automatically&#13;Guard: [((actualTemp &#45; setTemp) &lt;= 2)]:g10">
<path fill="none" stroke="black" d="M1021.69,-59.3728C1079.82,-60.8901 1179.27,-67.4196 1202,-94 1206.62,-99.4041 1206.57,-104.548 1202,-110 1179.04,-137.411 1078.62,-146.512 1018.32,-149.523"/>
<polygon fill="black" stroke="black" points="1018.11,-146.029 1008.28,-149.987 1018.43,-153.021 1018.11,-146.029"/>
</a>
</g>
<text text-anchor="middle" x="1327" y="-98.3" font-family="Times,serif" font-size="14.00"> &#160;&#160;t10: [((actualTemp &#45; setTemp) &lt;= 2)]:g10</text>
</g>
<!-- HeatControlSystem_smHouseRoomRoomHeatReq_waitForCool&#45;&gt;HeatControlSystem_smHouseRoomRoomHeatReq_waitForCool -->
<g id="edge15" class="edge"><title>HeatControlSystem_smHouseRoomRoomHeatReq_waitForCool&#45;&gt;HeatControlSystem_smHouseRoomRoomHeatReq_waitForCool</title>
<g id="a_edge15"><a xlink:title="From house.room.room.heatReq.waitForCool to house.room.room.heatReq.waitForCool automatically&#13;Guard: [(valvePos != 0) &amp;&amp; (coolDownTimer == waitedForCool)]:g7&#13;Transition Action:
 &#160;&#160;&#160;&#160;valvePos&#45;&#45;; waitedForCool = 0;">
<path fill="none" stroke="black" d="M1021.33,-62.0522C1031.48,-61.7355 1039,-60.3848 1039,-58 1039,-56.5095 1036.06,-55.423 1031.38,-54.7403"/>
<polygon fill="black" stroke="black" points="1031.57,-51.2448 1021.33,-53.9478 1031.02,-58.2231 1031.57,-51.2448"/>
</a>
</g>
<text text-anchor="middle" x="1244.5" y="-54.3" font-family="Times,serif" font-size="14.00"> &#160;&#160;t7: [(valvePos != 0) &amp;&amp; (coolDownTimer == waitedForCool)]:g7 / {...}</text>
</g>
<!-- HeatControlSystem_smHouseRoomRoomHeatReq_waitForCool&#45;&gt;HeatControlSystem_smHouseRoomRoomHeatReq_waitForCool -->
<g id="edge16" class="edge"><title>HeatControlSystem_smHouseRoomRoomHeatReq_waitForCool&#45;&gt;HeatControlSystem_smHouseRoomRoomHeatReq_waitForCool</title>
<g id="a_edge16"><a xlink:title="From house.room.room.heatReq.waitForCool to house.room.room.heatReq.waitForCool automatically&#13;Guard: [waitedForCool &lt; coolDownTimer]:g9&#13;Transition Action:
 &#160;&#160;&#160;&#160;waitedForCool++;">
<path fill="none" stroke="black" d="M1021.41,-62.5041C1138.31,-68.7074 1450,-67.2061 1450,-58 1450,-49.0457 1155.12,-47.3804 1031.42,-53.0043"/>
<polygon fill="black" stroke="black" points="1031.22,-49.5098 1021.41,-53.4959 1031.57,-56.5014 1031.22,-49.5098"/>
</a>
</g>
<text text-anchor="middle" x="1589.5" y="-54.3" font-family="Times,serif" font-size="14.00"> &#160;&#160;t9: [waitedForCool &lt; coolDownTimer]:g9 / {...}</text>
</g>
<!-- start_HeatControlSystem_controller -->
<g id="node10" class="node"><title>start_HeatControlSystem_controller</title>
<g id="a_node10"><a xlink:title="Class HeatControlSystem, SM sm, State house.controller.controller.start">
<ellipse fill="black" stroke="black" cx="1877" cy="-246" rx="7.2" ry="7.2"/>
</a>
</g>
</g>
<!-- HeatControlSystem_smHouseControllerController_off -->
<g id="node11" class="node"><title>HeatControlSystem_smHouseControllerController_off</title>
<g id="a_node11"><a xlink:title="Class HeatControlSystem, SM sm, State house.controller.controller.off">
<path fill="none" stroke="black" d="M1953,-170C1953,-170 1905,-170 1905,-170 1899,-170 1893,-164 1893,-158 1893,-158 1893,-146 1893,-146 1893,-140 1899,-134 1905,-134 1905,-134 1953,-134 1953,-134 1959,-134 1965,-140 1965,-146 1965,-146 1965,-158 1965,-158 1965,-164 1959,-170 1953,-170"/>
<text text-anchor="middle" x="1929" y="-148.3" font-family="Times,serif" font-size="14.00">off</text>
</a>
</g>
</g>
<!-- start_HeatControlSystem_controller&#45;&gt;HeatControlSystem_smHouseControllerController_off -->
<g id="edge17" class="edge"><title>start_HeatControlSystem_controller&#45;&gt;HeatControlSystem_smHouseControllerController_off</title>
<g id="a_edge17"><a xlink:title="start to house.controller.controller">
<path fill="none" stroke="black" d="M1871.7,-240.861C1868.59,-233.837 1870.57,-219.604 1879,-212 1891.17,-201.023 1904.13,-216.269 1915,-204 1920.7,-197.561 1922.81,-188.711 1923.71,-180.189"/>
<polygon fill="black" stroke="black" points="1927.21,-180.35 1924.37,-170.142 1920.22,-179.892 1927.21,-180.35"/>
</a>
</g>
</g>
<!-- start_HeatControlSystem_controller&#45;&gt;HeatControlSystem_smHouseControllerController_off -->
<g id="edge18" class="edge"><title>start_HeatControlSystem_controller&#45;&gt;HeatControlSystem_smHouseControllerController_off</title>
<g id="a_edge18"><a xlink:title="start to house.controller.controller.off">
<path fill="none" stroke="black" d="M1882.57,-240.861C1886.59,-233.837 1888.57,-219.604 1897,-212 1909.17,-201.023 1922.13,-216.269 1933,-204 1938.7,-197.561 1940.81,-188.711 1940.74,-180.189"/>
<polygon fill="black" stroke="black" points="1944.21,-179.716 1939.67,-170.142 1937.25,-180.457 1944.21,-179.716"/>
</a>
</g>
</g>
<!-- HeatControlSystem_smHouseControllerControllerControllerOn_idle -->
<g id="node13" class="node"><title>HeatControlSystem_smHouseControllerControllerControllerOn_idle</title>
<g id="a_node13"><a xlink:title="Class HeatControlSystem, SM sm, State house.controller.controller.controllerOn.idle">
<path fill="none" stroke="black" d="M2090,-264C2090,-264 2042,-264 2042,-264 2036,-264 2030,-258 2030,-252 2030,-252 2030,-240 2030,-240 2030,-234 2036,-228 2042,-228 2042,-228 2090,-228 2090,-228 2096,-228 2102,-234 2102,-240 2102,-240 2102,-252 2102,-252 2102,-258 2096,-264 2090,-264"/>
<text text-anchor="middle" x="2066" y="-242.3" font-family="Times,serif" font-size="14.00">idle</text>
</a>
</g>
</g>
<!-- HeatControlSystem_smHouseControllerController_off&#45;&gt;HeatControlSystem_smHouseControllerControllerControllerOn_idle -->
<g id="edge21" class="edge"><title>HeatControlSystem_smHouseControllerController_off&#45;&gt;HeatControlSystem_smHouseControllerControllerControllerOn_idle</title>
<g id="a_edge21"><a xlink:title="From house.controller.controller.off to house.controller.controller.controllerOn on heatSwitchOn">
<path fill="none" stroke="black" d="M1931.53,-170.471C1934.15,-181.88 1939.42,-196.082 1950,-204 1961.37,-212.507 1995.89,-207.789 2016.07,-209.851"/>
<polygon fill="black" stroke="black" points="2015.49,-213.307 2026,-212 2016.97,-206.465 2015.49,-213.307"/>
</a>
</g>
<text text-anchor="middle" x="2006.5" y="-192.3" font-family="Times,serif" font-size="14.00"> &#160;&#160;t11: heatSwitchOn</text>
</g>
<!-- start_HeatControlSystem_controllerOn -->
<g id="node12" class="node"><title>start_HeatControlSystem_controllerOn</title>
<g id="a_node12"><a xlink:title="Class HeatControlSystem, SM sm, State house.controller.controller.controllerOn.start">
<ellipse fill="black" stroke="black" cx="1907" cy="-367" rx="7.2" ry="7.2"/>
</a>
</g>
</g>
<!-- start_HeatControlSystem_controllerOn&#45;&gt;HeatControlSystem_smHouseControllerControllerControllerOn_idle -->
<g id="edge22" class="edge"><title>start_HeatControlSystem_controllerOn&#45;&gt;HeatControlSystem_smHouseControllerControllerControllerOn_idle</title>
<g id="a_edge22"><a xlink:title="start to house.controller.controller.controllerOn.idle">
<path fill="none" stroke="black" d="M1904.54,-360.028C1900.62,-349.429 1894.5,-327.287 1906,-315 1924.26,-295.484 2002.87,-320.388 2026,-307 2039.04,-299.454 2048.66,-285.746 2055.19,-273.335"/>
<polygon fill="black" stroke="black" points="2058.39,-274.749 2059.59,-264.222 2052.09,-271.705 2058.39,-274.749"/>
</a>
</g>
</g>
<!-- HeatControlSystem_smHouseControllerControllerControllerOn_idle&#45;&gt;HeatControlSystem_smHouseControllerController_off -->
<g id="edge19" class="edge"><title>HeatControlSystem_smHouseControllerControllerControllerOn_idle&#45;&gt;HeatControlSystem_smHouseControllerController_off</title>
<g id="a_edge19"><a xlink:title="From house.controller.controller.controllerOn to house.controller.controller.off on heatSwitchOff&#13;Transition Action:
 &#160;&#160;&#160;&#160;deactivate = true;">
<path fill="none" stroke="black" d="M2073.65,-212.021C2073.85,-203.462 2072.26,-194.759 2067,-188 2055.71,-173.485 2010.91,-164.019 1975.38,-158.636"/>
<polygon fill="black" stroke="black" points="1975.57,-155.127 1965.17,-157.16 1974.57,-162.055 1975.57,-155.127"/>
</a>
</g>
<text text-anchor="middle" x="2149.5" y="-192.3" font-family="Times,serif" font-size="14.00"> &#160;&#160;t12: heatSwitchOff / {...}</text>
</g>
<!-- HeatControlSystem_smHouseControllerControllerControllerOnHeaterActive_actHeater -->
<g id="node15" class="node"><title>HeatControlSystem_smHouseControllerControllerControllerOnHeaterActive_actHeater</title>
<g id="a_node15"><a xlink:title="Class HeatControlSystem, SM sm, State house.controller.controller.controllerOn.heaterActive.actHeater">
<path fill="none" stroke="black" d="M2559,-385C2559,-385 2511,-385 2511,-385 2505,-385 2499,-379 2499,-373 2499,-373 2499,-361 2499,-361 2499,-355 2505,-349 2511,-349 2511,-349 2559,-349 2559,-349 2565,-349 2571,-355 2571,-361 2571,-361 2571,-373 2571,-373 2571,-379 2565,-385 2559,-385"/>
<text text-anchor="middle" x="2535" y="-363.3" font-family="Times,serif" font-size="14.00">actHeater</text>
</a>
</g>
</g>
<!-- HeatControlSystem_smHouseControllerControllerControllerOn_idle&#45;&gt;HeatControlSystem_smHouseControllerControllerControllerOnHeaterActive_actHeater -->
<g id="edge24" class="edge"><title>HeatControlSystem_smHouseControllerControllerControllerOn_idle&#45;&gt;HeatControlSystem_smHouseControllerControllerControllerOnHeaterActive_actHeater</title>
<g id="a_edge24"><a xlink:title="From house.controller.controller.controllerOn.idle to house.controller.controller.controllerOn.heaterActive automatically&#13;Guard: [requestHeat == true]:g11&#13;Transition Action:
 &#160;&#160;&#160;&#160;activate = true;">
<path fill="none" stroke="black" d="M2052.11,-264.072C2038.58,-282.834 2022.44,-312.73 2040,-331 2056.4,-348.063 2418.75,-344.107 2488.51,-348.788"/>
<polygon fill="black" stroke="black" points="2480.44,-349.046 2491,-349.888 2483.27,-342.643 2480.44,-349.046"/>
</a>
</g>
<text text-anchor="middle" x="2147.5" y="-319.3" font-family="Times,serif" font-size="14.00"> &#160;&#160;t15: [requestHeat == true]:g11 / {...}</text>
</g>
<!-- HeatControlSystem_smHouseControllerController_error -->
<g id="node17" class="node"><title>HeatControlSystem_smHouseControllerController_error</title>
<g id="a_node17"><a xlink:title="Class HeatControlSystem, SM sm, State house.controller.controller.error">
<path fill="none" stroke="black" d="M1840,-264C1840,-264 1792,-264 1792,-264 1786,-264 1780,-258 1780,-252 1780,-252 1780,-240 1780,-240 1780,-234 1786,-228 1792,-228 1792,-228 1840,-228 1840,-228 1846,-228 1852,-234 1852,-240 1852,-240 1852,-252 1852,-252 1852,-258 1846,-264 1840,-264"/>
<text text-anchor="middle" x="1816" y="-242.3" font-family="Times,serif" font-size="14.00">error</text>
</a>
</g>
</g>
<!-- HeatControlSystem_smHouseControllerControllerControllerOn_idle&#45;&gt;HeatControlSystem_smHouseControllerController_error -->
<g id="edge27" class="edge"><title>HeatControlSystem_smHouseControllerControllerControllerOn_idle&#45;&gt;HeatControlSystem_smHouseControllerController_error</title>
<g id="a_edge27"><a xlink:title="From house.controller.controller.controllerOn to house.controller.controller.error on furnaceFault">
<path fill="none" stroke="black" d="M1892.16,-313.453C1881.35,-313.941 1873.75,-314.59 1861,-307 1847.53,-298.982 1836.86,-285.222 1829.29,-272.798"/>
<polygon fill="black" stroke="black" points="1832.32,-271.049 1824.33,-264.089 1826.24,-274.512 1832.32,-271.049"/>
</a>
</g>
<text text-anchor="middle" x="1960" y="-319.3" font-family="Times,serif" font-size="14.00"> &#160;&#160;t13: furnaceFault</text>
</g>
<!-- start_HeatControlSystem_heaterActive -->
<g id="node14" class="node"><title>start_HeatControlSystem_heaterActive</title>
<g id="a_node14"><a xlink:title="Class HeatControlSystem, SM sm, State house.controller.controller.controllerOn.heaterActive.start">
<ellipse fill="black" stroke="black" cx="2535" cy="-430" rx="7.2" ry="7.2"/>
</a>
</g>
</g>
<!-- start_HeatControlSystem_heaterActive&#45;&gt;HeatControlSystem_smHouseControllerControllerControllerOnHeaterActive_actHeater -->
<g id="edge25" class="edge"><title>start_HeatControlSystem_heaterActive&#45;&gt;HeatControlSystem_smHouseControllerControllerControllerOnHeaterActive_actHeater</title>
<g id="a_edge25"><a xlink:title="start to house.controller.controller.controllerOn.heaterActive.actHeater">
<path fill="none" stroke="black" d="M2535,-422.472C2535,-415.902 2535,-405.324 2535,-395.229"/>
<polygon fill="black" stroke="black" points="2538.5,-395.073 2535,-385.073 2531.5,-395.073 2538.5,-395.073"/>
</a>
</g>
</g>
<!-- HeatControlSystem_smHouseControllerControllerControllerOnHeaterActive_actHeater&#45;&gt;HeatControlSystem_smHouseControllerControllerControllerOn_idle -->
<g id="edge23" class="edge"><title>HeatControlSystem_smHouseControllerControllerControllerOnHeaterActive_actHeater&#45;&gt;HeatControlSystem_smHouseControllerControllerControllerOn_idle</title>
<g id="a_edge23"><a xlink:title="From house.controller.controller.controllerOn.heaterActive to house.controller.controller.controllerOn.idle automatically&#13;Guard: [requestHeat == false]:g12&#13;Transition Action:
 &#160;&#160;&#160;&#160;deactivate = true;">
<path fill="none" stroke="black" d="M2491.31,-348.077C2414.61,-329.304 2390.04,-348.17 2311,-331 2272.39,-322.614 2171.36,-286.164 2111.78,-264.128"/>
<polygon fill="black" stroke="black" points="2112.83,-260.783 2102.24,-260.589 2110.4,-267.347 2112.83,-260.783"/>
</a>
</g>
<text text-anchor="middle" x="2421" y="-319.3" font-family="Times,serif" font-size="14.00"> &#160;&#160;t16: [requestHeat == false]:g12 / {...}</text>
</g>
<!-- HeatControlSystem_smHouseControllerControllerControllerOnHeaterActive_heaterRun -->
<g id="node16" class="node"><title>HeatControlSystem_smHouseControllerControllerControllerOnHeaterActive_heaterRun</title>
<g id="a_node16"><a xlink:title="Class HeatControlSystem, SM sm, State house.controller.controller.controllerOn.heaterActive.heaterRun">
<path fill="none" stroke="black" d="M2559,-264C2559,-264 2511,-264 2511,-264 2505,-264 2499,-258 2499,-252 2499,-252 2499,-240 2499,-240 2499,-234 2505,-228 2511,-228 2511,-228 2559,-228 2559,-228 2565,-228 2571,-234 2571,-240 2571,-240 2571,-252 2571,-252 2571,-258 2565,-264 2559,-264"/>
<text text-anchor="middle" x="2535" y="-242.3" font-family="Times,serif" font-size="14.00">heaterRun</text>
</a>
</g>
</g>
<!-- HeatControlSystem_smHouseControllerControllerControllerOnHeaterActive_actHeater&#45;&gt;HeatControlSystem_smHouseControllerControllerControllerOnHeaterActive_heaterRun -->
<g id="edge26" class="edge"><title>HeatControlSystem_smHouseControllerControllerControllerOnHeaterActive_actHeater&#45;&gt;HeatControlSystem_smHouseControllerControllerControllerOnHeaterActive_heaterRun</title>
<g id="a_edge26"><a xlink:title="From house.controller.controller.controllerOn.heaterActive.actHeater to house.controller.controller.controllerOn.heaterActive.heaterRun automatically&#13;Guard: [furnaceRunning == true]:g13">
<path fill="none" stroke="black" d="M2535,-348.95C2535,-329.421 2535,-297.161 2535,-274.162"/>
<polygon fill="black" stroke="black" points="2538.5,-274.018 2535,-264.018 2531.5,-274.018 2538.5,-274.018"/>
</a>
</g>
<text text-anchor="middle" x="2636" y="-319.3" font-family="Times,serif" font-size="14.00"> &#160;&#160;t17: [furnaceRunning == true]:g13</text>
</g>
<!-- HeatControlSystem_smHouseControllerController_error&#45;&gt;HeatControlSystem_smHouseControllerController_off -->
<g id="edge20" class="edge"><title>HeatControlSystem_smHouseControllerController_error&#45;&gt;HeatControlSystem_smHouseControllerController_off</title>
<g id="a_edge20"><a xlink:title="From house.controller.controller.error to house.controller.controller.off on userReset&#13;Transition Action:
 &#160;&#160;&#160;&#160;furnaceReset = true;">
<path fill="none" stroke="black" d="M1801.59,-227.951C1793.2,-215.865 1785.91,-199.768 1795,-188 1805.84,-173.971 1848.64,-164.492 1883,-158.975"/>
<polygon fill="black" stroke="black" points="1883.53,-162.434 1892.88,-157.457 1882.47,-155.515 1883.53,-162.434"/>
</a>
</g>
<text text-anchor="middle" x="1857.5" y="-192.3" font-family="Times,serif" font-size="14.00"> &#160;&#160;t14: userReset / {...}</text>
</g>
<!-- start_HeatControlSystem_furnace -->
<g id="node18" class="node"><title>start_HeatControlSystem_furnace</title>
<g id="a_node18"><a xlink:title="Class HeatControlSystem, SM sm, State furnace.furnace.start">
<ellipse fill="black" stroke="black" cx="2774" cy="-430" rx="7.2" ry="7.2"/>
</a>
</g>
</g>
<!-- HeatControlSystem_smFurnaceFurnaceFurnaceNormal_furnaceOff -->
<g id="node20" class="node"><title>HeatControlSystem_smFurnaceFurnaceFurnaceNormal_furnaceOff</title>
<g id="a_node20"><a xlink:title="Class HeatControlSystem, SM sm, State furnace.furnace.furnaceNormal.furnaceOff">
<path fill="none" stroke="black" d="M3057,-385C3057,-385 3005,-385 3005,-385 2999,-385 2993,-379 2993,-373 2993,-373 2993,-361 2993,-361 2993,-355 2999,-349 3005,-349 3005,-349 3057,-349 3057,-349 3063,-349 3069,-355 3069,-361 3069,-361 3069,-373 3069,-373 3069,-379 3063,-385 3057,-385"/>
<text text-anchor="middle" x="3031" y="-363.3" font-family="Times,serif" font-size="14.00">furnaceOff</text>
</a>
</g>
</g>
<!-- start_HeatControlSystem_furnace&#45;&gt;HeatControlSystem_smFurnaceFurnaceFurnaceNormal_furnaceOff -->
<g id="edge28" class="edge"><title>start_HeatControlSystem_furnace&#45;&gt;HeatControlSystem_smFurnaceFurnaceFurnaceNormal_furnaceOff</title>
<g id="a_edge28"><a xlink:title="start to furnace.furnace">
<path fill="none" stroke="black" d="M2775.51,-423.19C2775.67,-423.125 2775.84,-423.061 2776,-423 2845.32,-396.936 2930.48,-381.298 2982.85,-373.691"/>
<polygon fill="black" stroke="black" points="2983.47,-377.139 2992.88,-372.275 2982.49,-370.208 2983.47,-377.139"/>
</a>
</g>
</g>
<!-- start_HeatControlSystem_furnace&#45;&gt;HeatControlSystem_smFurnaceFurnaceFurnaceNormal_furnaceOff -->
<g id="edge29" class="edge"><title>start_HeatControlSystem_furnace&#45;&gt;HeatControlSystem_smFurnaceFurnaceFurnaceNormal_furnaceOff</title>
<g id="a_edge29"><a xlink:title="start to furnace.furnace.furnaceNormal">
<path fill="none" stroke="black" d="M2781.24,-428.092C2781.33,-428.068 2781.43,-428.043 2781.52,-428.018"/>
<polygon fill="black" stroke="black" points="2781.23,-431.874 2789.33,-425.046 2778.74,-425.331 2781.23,-431.874"/>
</a>
</g>
</g>
<!-- start_HeatControlSystem_furnaceNormal -->
<g id="node19" class="node"><title>start_HeatControlSystem_furnaceNormal</title>
<g id="a_node19"><a xlink:title="Class HeatControlSystem, SM sm, State furnace.furnace.furnaceNormal.start">
<ellipse fill="black" stroke="black" cx="3031" cy="-430" rx="7.2" ry="7.2"/>
</a>
</g>
</g>
<!-- start_HeatControlSystem_furnaceNormal&#45;&gt;HeatControlSystem_smFurnaceFurnaceFurnaceNormal_furnaceOff -->
<g id="edge31" class="edge"><title>start_HeatControlSystem_furnaceNormal&#45;&gt;HeatControlSystem_smFurnaceFurnaceFurnaceNormal_furnaceOff</title>
<g id="a_edge31"><a xlink:title="start to furnace.furnace.furnaceNormal.furnaceOff">
<path fill="none" stroke="black" d="M3031,-422.472C3031,-415.902 3031,-405.324 3031,-395.229"/>
<polygon fill="black" stroke="black" points="3034.5,-395.073 3031,-385.073 3027.5,-395.073 3034.5,-395.073"/>
</a>
</g>
</g>
<!-- HeatControlSystem_smFurnaceFurnaceFurnaceNormal_furnaceAct -->
<g id="node21" class="node"><title>HeatControlSystem_smFurnaceFurnaceFurnaceNormal_furnaceAct</title>
<g id="a_node21"><a xlink:title="Class HeatControlSystem, SM sm, State furnace.furnace.furnaceNormal.furnaceAct">
<path fill="none" stroke="black" d="M2862.25,-264C2862.25,-264 2809.75,-264 2809.75,-264 2803.75,-264 2797.75,-258 2797.75,-252 2797.75,-252 2797.75,-240 2797.75,-240 2797.75,-234 2803.75,-228 2809.75,-228 2809.75,-228 2862.25,-228 2862.25,-228 2868.25,-228 2874.25,-234 2874.25,-240 2874.25,-240 2874.25,-252 2874.25,-252 2874.25,-258 2868.25,-264 2862.25,-264"/>
<text text-anchor="middle" x="2836" y="-242.3" font-family="Times,serif" font-size="14.00">furnaceAct</text>
</a>
</g>
</g>
<!-- HeatControlSystem_smFurnaceFurnaceFurnaceNormal_furnaceOff&#45;&gt;HeatControlSystem_smFurnaceFurnaceFurnaceNormal_furnaceAct -->
<g id="edge34" class="edge"><title>HeatControlSystem_smFurnaceFurnaceFurnaceNormal_furnaceOff&#45;&gt;HeatControlSystem_smFurnaceFurnaceFurnaceNormal_furnaceAct</title>
<g id="a_edge34"><a xlink:title="From furnace.furnace.furnaceNormal.furnaceOff to furnace.furnace.furnaceNormal.furnaceAct automatically&#13;Guard: [activate == true]:g15&#13;Transition Action:
 &#160;&#160;&#160;&#160;furnaceStartUpTime = 0;">
<path fill="none" stroke="black" d="M2992.85,-365.612C2936.39,-364.138 2834.8,-357.732 2812,-331 2798.17,-314.786 2806.75,-291.065 2817.31,-272.963"/>
<polygon fill="black" stroke="black" points="2820.54,-274.406 2822.9,-264.078 2814.61,-270.677 2820.54,-274.406"/>
</a>
</g>
<text text-anchor="middle" x="2908.5" y="-319.3" font-family="Times,serif" font-size="14.00"> &#160;&#160;t20: [activate == true]:g15 / {...}</text>
</g>
<!-- HeatControlSystem_smFurnaceFurnace_furnaceErr -->
<g id="node23" class="node"><title>HeatControlSystem_smFurnaceFurnace_furnaceErr</title>
<g id="a_node23"><a xlink:title="Class HeatControlSystem, SM sm, State furnace.furnace.furnaceErr">
<path fill="none" stroke="black" d="M3485,-264C3485,-264 3435,-264 3435,-264 3429,-264 3423,-258 3423,-252 3423,-252 3423,-240 3423,-240 3423,-234 3429,-228 3435,-228 3435,-228 3485,-228 3485,-228 3491,-228 3497,-234 3497,-240 3497,-240 3497,-252 3497,-252 3497,-258 3491,-264 3485,-264"/>
<text text-anchor="middle" x="3460" y="-242.3" font-family="Times,serif" font-size="14.00">furnaceErr</text>
</a>
</g>
</g>
<!-- HeatControlSystem_smFurnaceFurnaceFurnaceNormal_furnaceOff&#45;&gt;HeatControlSystem_smFurnaceFurnace_furnaceErr -->
<g id="edge37" class="edge"><title>HeatControlSystem_smFurnaceFurnaceFurnaceNormal_furnaceOff&#45;&gt;HeatControlSystem_smFurnaceFurnace_furnaceErr</title>
<g id="a_edge37"><a xlink:title="From furnace.furnace.furnaceNormal to furnace.furnace.furnaceErr on furnaceFault">
<path fill="none" stroke="black" d="M3412.61,-308.519C3414.49,-308.063 3415.97,-307.558 3417,-307 3430.64,-299.581 3440.99,-285.751 3448.12,-273.237"/>
<polygon fill="black" stroke="black" points="3451.4,-274.533 3452.95,-264.052 3445.2,-271.278 3451.4,-274.533"/>
</a>
</g>
<text text-anchor="middle" x="3301.5" y="-319.3" font-family="Times,serif" font-size="14.00"> &#160;&#160;t18: furnaceFault</text>
</g>
<!-- HeatControlSystem_smFurnaceFurnaceFurnaceNormal_furnaceAct&#45;&gt;HeatControlSystem_smFurnaceFurnaceFurnaceNormal_furnaceOff -->
<g id="edge32" class="edge"><title>HeatControlSystem_smFurnaceFurnaceFurnaceNormal_furnaceAct&#45;&gt;HeatControlSystem_smFurnaceFurnaceFurnaceNormal_furnaceOff</title>
<g id="a_edge32"><a xlink:title="From furnace.furnace.furnaceNormal.furnaceAct to furnace.furnace.furnaceNormal.furnaceOff automatically&#13;Guard: [deactivate == true]:g16">
<path fill="none" stroke="black" d="M2874.37,-253.215C2912.86,-261.287 2971.66,-278.867 3009,-315 3015.77,-321.555 3020.58,-330.54 3023.94,-339.143"/>
<polygon fill="black" stroke="black" points="3020.72,-340.55 3027.24,-348.899 3027.35,-338.305 3020.72,-340.55"/>
</a>
</g>
<text text-anchor="middle" x="3105.5" y="-319.3" font-family="Times,serif" font-size="14.00"> &#160;&#160;t21: [deactivate == true]:g16</text>
</g>
<!-- HeatControlSystem_smFurnaceFurnaceFurnaceNormal_furnaceAct&#45;&gt;HeatControlSystem_smFurnaceFurnaceFurnaceNormal_furnaceAct -->
<g id="edge35" class="edge"><title>HeatControlSystem_smFurnaceFurnaceFurnaceNormal_furnaceAct&#45;&gt;HeatControlSystem_smFurnaceFurnaceFurnaceNormal_furnaceAct</title>
<g id="a_edge35"><a xlink:title="From furnace.furnace.furnaceNormal.furnaceAct to furnace.furnace.furnaceNormal.furnaceAct automatically&#13;Guard: [furnaceStartUpTime &lt; furnaceTimer]:g17&#13;Transition Action:
 &#160;&#160;&#160;&#160;furnaceStartUpTime++">
<path fill="none" stroke="black" d="M2874.48,-255.278C2884.47,-254.708 2892,-251.615 2892,-246 2892,-242.49 2889.06,-239.966 2884.41,-238.427"/>
<polygon fill="black" stroke="black" points="2884.92,-234.964 2874.48,-236.722 2883.74,-241.863 2884.92,-234.964"/>
</a>
</g>
<text text-anchor="middle" x="3045.5" y="-242.3" font-family="Times,serif" font-size="14.00"> &#160;&#160;t22: [furnaceStartUpTime &lt; furnaceTimer]:g17 / {...}</text>
</g>
<!-- HeatControlSystem_smFurnaceFurnaceFurnaceNormal_furnaceRun -->
<g id="node22" class="node"><title>HeatControlSystem_smFurnaceFurnaceFurnaceNormal_furnaceRun</title>
<g id="a_node22"><a xlink:title="Class HeatControlSystem, SM sm, State furnace.furnace.furnaceNormal.furnaceRun">
<path fill="none" stroke="black" d="M3064,-170C3064,-170 3008,-170 3008,-170 3002,-170 2996,-164 2996,-158 2996,-158 2996,-146 2996,-146 2996,-140 3002,-134 3008,-134 3008,-134 3064,-134 3064,-134 3070,-134 3076,-140 3076,-146 3076,-146 3076,-158 3076,-158 3076,-164 3070,-170 3064,-170"/>
<text text-anchor="middle" x="3036" y="-148.3" font-family="Times,serif" font-size="14.00">furnaceRun</text>
</a>
</g>
</g>
<!-- HeatControlSystem_smFurnaceFurnaceFurnaceNormal_furnaceAct&#45;&gt;HeatControlSystem_smFurnaceFurnaceFurnaceNormal_furnaceRun -->
<g id="edge36" class="edge"><title>HeatControlSystem_smFurnaceFurnaceFurnaceNormal_furnaceAct&#45;&gt;HeatControlSystem_smFurnaceFurnaceFurnaceNormal_furnaceRun</title>
<g id="a_edge36"><a xlink:title="From furnace.furnace.furnaceNormal.furnaceAct to furnace.furnace.furnaceNormal.furnaceRun automatically&#13;Guard: [furnaceStartUpTime == furnaceTimer]:g18&#13;Transition Action:
 &#160;&#160;&#160;&#160;furnaceRunning = true;">
<path fill="none" stroke="black" d="M2855.56,-227.94C2870.85,-215.367 2893.11,-198.665 2915,-188 2937.25,-177.162 2963.47,-169.067 2985.81,-163.407"/>
<polygon fill="black" stroke="black" points="2986.88,-166.747 2995.77,-160.977 2985.23,-159.947 2986.88,-166.747"/>
</a>
</g>
<text text-anchor="middle" x="3073" y="-192.3" font-family="Times,serif" font-size="14.00"> &#160;&#160;t23: [furnaceStartUpTime == furnaceTimer]:g18 / {...}</text>
</g>
<!-- HeatControlSystem_smFurnaceFurnaceFurnaceNormal_furnaceRun&#45;&gt;HeatControlSystem_smFurnaceFurnaceFurnaceNormal_furnaceOff -->
<g id="edge33" class="edge"><title>HeatControlSystem_smFurnaceFurnaceFurnaceNormal_furnaceRun&#45;&gt;HeatControlSystem_smFurnaceFurnaceFurnaceNormal_furnaceOff</title>
<g id="a_edge33"><a xlink:title="From furnace.furnace.furnaceNormal.furnaceRun to furnace.furnace.furnaceNormal.furnaceOff automatically&#13;Guard: [deactivate == true]:g16">
<path fill="none" stroke="black" d="M3076.41,-154.361C3127.66,-157.036 3211.69,-164.916 3231,-188 3239.64,-198.33 3212.92,-294.463 3208,-307 3203.49,-318.496 3204,-323.754 3194,-331 3160.76,-355.089 3114.32,-363.229 3079.51,-365.699"/>
<polygon fill="black" stroke="black" points="3078.89,-362.228 3069.11,-366.294 3079.29,-369.217 3078.89,-362.228"/>
</a>
</g>
<text text-anchor="middle" x="3316.5" y="-242.3" font-family="Times,serif" font-size="14.00"> &#160;&#160;t24: [deactivate == true]:g16</text>
</g>
<!-- HeatControlSystem_smFurnaceFurnace_furnaceErr&#45;&gt;HeatControlSystem_smFurnaceFurnaceFurnaceNormal_furnaceOff -->
<g id="edge30" class="edge"><title>HeatControlSystem_smFurnaceFurnace_furnaceErr&#45;&gt;HeatControlSystem_smFurnaceFurnaceFurnaceNormal_furnaceOff</title>
<g id="a_edge30"><a xlink:title="From furnace.furnace.furnaceErr to furnace.furnace.furnaceNormal automatically&#13;Guard: [furnaceReset == true]:g14">
<path fill="none" stroke="black" d="M3451.75,-264.154C3445.5,-275.661 3435.9,-290.665 3420.97,-303.418"/>
<polygon fill="black" stroke="black" points="3418.42,-300.961 3412.66,-309.852 3422.71,-306.495 3418.42,-300.961"/>
</a>
</g>
<text text-anchor="middle" x="3493.5" y="-319.3" font-family="Times,serif" font-size="14.00"> &#160;&#160;t19: [furnaceReset == true]:g14</text>
</g>
</g>
</svg>
