<?xml version="1.0" encoding="UTF-8" standalone="no"?>
<!DOCTYPE svg PUBLIC "-//W3C//DTD SVG 1.1//EN"
 "http://www.w3.org/Graphics/SVG/1.1/DTD/svg11.dtd">
<!-- Generated by graphviz version 2.36.0 (20140111.2315)
 -->
<!-- Title: LibraryLoanStateMachine Pages: 1 -->
<svg width="493pt" height="522pt"
 viewBox="0.00 0.00 493.00 522.00" xmlns="http://www.w3.org/2000/svg" xmlns:xlink="http://www.w3.org/1999/xlink">
<g id="graph0" class="graph" transform="scale(1 1) rotate(0) translate(4 518)">
<title>LibraryLoanStateMachine</title>
<polygon fill="white" stroke="none" points="-4,4 -4,-518 489,-518 489,4 -4,4"/>
<!-- start_Loan_state -->
<g id="node1" class="node"><title>start_Loan_state</title>
<ellipse fill="black" stroke="black" cx="114" cy="-507" rx="7.2" ry="7.2"/>
</g>
<!-- Loan_state_initial -->
<g id="node2" class="node"><title>Loan_state_initial</title>
<path fill="none" stroke="black" d="M138,-462C138,-462 90,-462 90,-462 84,-462 78,-456 78,-450 78,-450 78,-438 78,-438 78,-432 84,-426 90,-426 90,-426 138,-426 138,-426 144,-426 150,-432 150,-438 150,-438 150,-450 150,-450 150,-456 144,-462 138,-462"/>
<text text-anchor="middle" x="114" y="-440.3" font-family="Times,serif" font-size="14.00">initial</text>
</g>
<!-- start_Loan_state&#45;&gt;Loan_state_initial -->
<g id="edge1" class="edge"><title>start_Loan_state&#45;&gt;Loan_state_initial</title>
<path fill="none" stroke="black" d="M114,-499.472C114,-492.902 114,-482.324 114,-472.229"/>
<polygon fill="black" stroke="black" points="117.5,-472.073 114,-462.073 110.5,-472.073 117.5,-472.073"/>
</g>
<!-- Loan_state_outstanding -->
<g id="node3" class="node"><title>Loan_state_outstanding</title>
<path fill="none" stroke="black" d="M143,-388C143,-388 85,-388 85,-388 79,-388 73,-382 73,-376 73,-376 73,-364 73,-364 73,-358 79,-352 85,-352 85,-352 143,-352 143,-352 149,-352 155,-358 155,-364 155,-364 155,-376 155,-376 155,-382 149,-388 143,-388"/>
<text text-anchor="middle" x="114" y="-366.3" font-family="Times,serif" font-size="14.00">outstanding</text>
</g>
<!-- Loan_state_initial&#45;&gt;Loan_state_outstanding -->
<g id="edge2" class="edge"><title>Loan_state_initial&#45;&gt;Loan_state_outstanding</title>
<path fill="none" stroke="black" d="M114,-425.937C114,-417.807 114,-407.876 114,-398.705"/>
<polygon fill="black" stroke="black" points="117.5,-398.441 114,-388.441 110.5,-398.441 117.5,-398.441"/>
</g>
<!-- Loan_state_outstanding&#45;&gt;Loan_state_outstanding -->
<g id="edge3" class="edge"><title>Loan_state_outstanding&#45;&gt;Loan_state_outstanding</title>
<path fill="none" stroke="black" d="M155.083,-376.657C165.336,-376.192 173,-373.973 173,-370 173,-367.517 170.006,-365.719 165.258,-364.606"/>
<polygon fill="black" stroke="black" points="165.438,-361.102 155.083,-363.343 164.576,-368.048 165.438,-361.102"/>
<text text-anchor="middle" x="209.5" y="-366.3" font-family="Times,serif" font-size="14.00">extend / {...}</text>
</g>
<!-- Loan_state_recalled -->
<g id="node4" class="node"><title>Loan_state_recalled</title>
<path fill="none" stroke="black" d="M207,-300C207,-300 159,-300 159,-300 153,-300 147,-294 147,-288 147,-288 147,-276 147,-276 147,-270 153,-264 159,-264 159,-264 207,-264 207,-264 213,-264 219,-270 219,-276 219,-276 219,-288 219,-288 219,-294 213,-300 207,-300"/>
<text text-anchor="middle" x="183" y="-278.3" font-family="Times,serif" font-size="14.00">recalled</text>
</g>
<!-- Loan_state_outstanding&#45;&gt;Loan_state_recalled -->
<g id="edge4" class="edge"><title>Loan_state_outstanding&#45;&gt;Loan_state_recalled</title>
<path fill="none" stroke="black" d="M127.963,-351.597C138.036,-339.042 151.782,-321.91 163.016,-307.908"/>
<polygon fill="black" stroke="black" points="165.765,-310.074 169.293,-300.084 160.305,-305.694 165.765,-310.074"/>
<text text-anchor="middle" x="187" y="-322.3" font-family="Times,serif" font-size="14.00">recall / {...}</text>
</g>
<!-- Loan_state_overdue -->
<g id="node5" class="node"><title>Loan_state_overdue</title>
<path fill="none" stroke="black" d="M159,-212C159,-212 111,-212 111,-212 105,-212 99,-206 99,-200 99,-200 99,-188 99,-188 99,-182 105,-176 111,-176 111,-176 159,-176 159,-176 165,-176 171,-182 171,-188 171,-188 171,-200 171,-200 171,-206 165,-212 159,-212"/>
<text text-anchor="middle" x="135" y="-190.3" font-family="Times,serif" font-size="14.00">overdue</text>
</g>
<!-- Loan_state_outstanding&#45;&gt;Loan_state_overdue -->
<g id="edge5" class="edge"><title>Loan_state_outstanding&#45;&gt;Loan_state_overdue</title>
<path fill="none" stroke="black" d="M93.09,-351.993C70.7099,-331.596 40.2834,-296.127 55,-264 63.5717,-245.287 80.0008,-229.722 95.7517,-218.14"/>
<polygon fill="black" stroke="black" points="98.1801,-220.713 104.378,-212.12 94.1744,-214.972 98.1801,-220.713"/>
<text text-anchor="middle" x="96.5" y="-278.3" font-family="Times,serif" font-size="14.00">after(deadline)</text>
</g>
<!-- Loan_state_returned -->
<g id="node6" class="node"><title>Loan_state_returned</title>
<path fill="none" stroke="black" d="M123,-36C123,-36 75,-36 75,-36 69,-36 63,-30 63,-24 63,-24 63,-12 63,-12 63,-6 69,-0 75,-0 75,-0 123,-0 123,-0 129,-0 135,-6 135,-12 135,-12 135,-24 135,-24 135,-30 129,-36 123,-36"/>
<text text-anchor="middle" x="99" y="-14.3" font-family="Times,serif" font-size="14.00">returned</text>
</g>
<!-- Loan_state_outstanding&#45;&gt;Loan_state_returned -->
<g id="edge8" class="edge"><title>Loan_state_outstanding&#45;&gt;Loan_state_returned</title>
<path fill="none" stroke="black" d="M72.8434,-356.61C40.1895,-343.936 0,-320.683 0,-283 0,-283 0,-283 0,-105 0,-74.146 27.7442,-51.858 53.858,-37.7134"/>
<polygon fill="black" stroke="black" points="55.6689,-40.7185 62.9787,-33.0491 52.4817,-34.4861 55.6689,-40.7185"/>
<text text-anchor="middle" x="17" y="-190.3" font-family="Times,serif" font-size="14.00">return</text>
</g>
<!-- Loan_state_lost -->
<g id="node7" class="node"><title>Loan_state_lost</title>
<path fill="none" stroke="black" d="M295,-124C295,-124 247,-124 247,-124 241,-124 235,-118 235,-112 235,-112 235,-100 235,-100 235,-94 241,-88 247,-88 247,-88 295,-88 295,-88 301,-88 307,-94 307,-100 307,-100 307,-112 307,-112 307,-118 301,-124 295,-124"/>
<text text-anchor="middle" x="271" y="-102.3" font-family="Times,serif" font-size="14.00">lost</text>
</g>
<!-- Loan_state_outstanding&#45;&gt;Loan_state_lost -->
<g id="edge12" class="edge"><title>Loan_state_outstanding&#45;&gt;Loan_state_lost</title>
<path fill="none" stroke="black" d="M155.086,-363.227C226.919,-350.624 373.186,-313.182 431,-212 459.922,-161.382 374.032,-130.825 317.128,-116.608"/>
<polygon fill="black" stroke="black" points="317.765,-113.161 307.223,-114.223 316.126,-119.967 317.765,-113.161"/>
<text text-anchor="middle" x="452" y="-234.3" font-family="Times,serif" font-size="14.00">declareLost</text>
</g>
<!-- Loan_state_recalled&#45;&gt;Loan_state_overdue -->
<g id="edge6" class="edge"><title>Loan_state_recalled&#45;&gt;Loan_state_overdue</title>
<path fill="none" stroke="black" d="M173.286,-263.597C166.476,-251.394 157.251,-234.867 149.564,-221.093"/>
<polygon fill="black" stroke="black" points="152.465,-219.11 144.535,-212.084 146.353,-222.522 152.465,-219.11"/>
<text text-anchor="middle" x="204.5" y="-234.3" font-family="Times,serif" font-size="14.00">after(deadline)</text>
</g>
<!-- Loan_state_recalled&#45;&gt;Loan_state_returned -->
<g id="edge9" class="edge"><title>Loan_state_recalled&#45;&gt;Loan_state_returned</title>
<path fill="none" stroke="black" d="M146.749,-263.948C126.389,-252.332 102.604,-234.896 90,-212 60.8218,-158.994 77.2306,-84.8652 89.4704,-45.6965"/>
<polygon fill="black" stroke="black" points="92.8356,-46.666 92.6163,-36.0735 86.1821,-44.4908 92.8356,-46.666"/>
<text text-anchor="middle" x="91" y="-146.3" font-family="Times,serif" font-size="14.00">return</text>
</g>
<!-- Loan_state_recalled&#45;&gt;Loan_state_lost -->
<g id="edge13" class="edge"><title>Loan_state_recalled&#45;&gt;Loan_state_lost</title>
<path fill="none" stroke="black" d="M219.265,-278.018C260.107,-272.498 324.719,-256.775 355,-212 375.083,-182.305 340.847,-150.454 310.233,-129.718"/>
<polygon fill="black" stroke="black" points="312.029,-126.711 301.742,-124.175 308.202,-132.572 312.029,-126.711"/>
<text text-anchor="middle" x="394" y="-190.3" font-family="Times,serif" font-size="14.00">declareLost</text>
</g>
<!-- Loan_state_overdue&#45;&gt;Loan_state_overdue -->
<g id="edge7" class="edge"><title>Loan_state_overdue&#45;&gt;Loan_state_overdue</title>
<path fill="none" stroke="black" d="M171.087,-202.209C181.221,-201.85 189,-199.113 189,-194 189,-190.804 185.961,-188.537 181.208,-187.198"/>
<polygon fill="black" stroke="black" points="181.474,-183.701 171.087,-185.791 180.51,-190.635 181.474,-183.701"/>
<text text-anchor="middle" x="267.5" y="-190.3" font-family="Times,serif" font-size="14.00">after(fineIncrementInterval)</text>
</g>
<!-- Loan_state_overdue&#45;&gt;Loan_state_returned -->
<g id="edge10" class="edge"><title>Loan_state_overdue&#45;&gt;Loan_state_returned</title>
<path fill="none" stroke="black" d="M131.483,-175.999C125.219,-145.723 112.085,-82.2454 104.578,-45.9616"/>
<polygon fill="black" stroke="black" points="107.985,-45.1531 102.532,-36.0697 101.13,-46.5714 107.985,-45.1531"/>
<text text-anchor="middle" x="137" y="-102.3" font-family="Times,serif" font-size="14.00">return</text>
</g>
<!-- Loan_state_overdue&#45;&gt;Loan_state_lost -->
<g id="edge14" class="edge"><title>Loan_state_overdue&#45;&gt;Loan_state_lost</title>
<path fill="none" stroke="black" d="M162.195,-175.803C183.135,-162.562 212.268,-144.14 235.118,-129.69"/>
<polygon fill="black" stroke="black" points="237.271,-132.47 243.852,-124.167 233.53,-126.553 237.271,-132.47"/>
<text text-anchor="middle" x="248" y="-146.3" font-family="Times,serif" font-size="14.00">declareLost</text>
</g>
<!-- Loan_state_lost&#45;&gt;Loan_state_returned -->
<g id="edge11" class="edge"><title>Loan_state_lost&#45;&gt;Loan_state_returned</title>
<path fill="none" stroke="black" d="M236.607,-87.8033C209.449,-74.2245 171.396,-55.198 142.188,-40.5938"/>
<polygon fill="black" stroke="black" points="143.55,-37.3618 133.04,-36.0201 140.419,-43.6228 143.55,-37.3618"/>
<text text-anchor="middle" x="234.5" y="-58.3" font-family="Times,serif" font-size="14.00">return / {...}</text>
</g>
</g>
</svg>
