<?xml version="1.0" encoding="UTF-8" standalone="no"?>
<!DOCTYPE svg PUBLIC "-//W3C//DTD SVG 1.1//EN"
 "http://www.w3.org/Graphics/SVG/1.1/DTD/svg11.dtd">
<!-- Generated by graphviz version 2.39.20140502.0445 (20140502.0445)
 -->
<!-- Title: LibraryLoanStateMachine Pages: 1 -->
<svg width="427pt" height="429pt"
 viewBox="0.00 0.00 427.37 429.40" xmlns="http://www.w3.org/2000/svg" xmlns:xlink="http://www.w3.org/1999/xlink">
<g id="graph0" class="graph" transform="scale(1 1) rotate(0) translate(4 425.4)">
<title>LibraryLoanStateMachine</title>
<polygon fill="white" stroke="none" points="-4,4 -4,-425.4 423.374,-425.4 423.374,4 -4,4"/>
<!-- start_Loan_state -->
<g id="node1" class="node"><title>start_Loan_state</title>
<ellipse fill="black" stroke="black" cx="130.374" cy="-414.2" rx="7.2" ry="7.2"/>
</g>
<!-- Loan_state_initial -->
<g id="node2" class="node"><title>Loan_state_initial</title>
<path fill="none" stroke="black" d="M154.374,-370C154.374,-370 106.374,-370 106.374,-370 100.374,-370 94.3737,-364 94.3737,-358 94.3737,-358 94.3737,-346 94.3737,-346 94.3737,-340 100.374,-334 106.374,-334 106.374,-334 154.374,-334 154.374,-334 160.374,-334 166.374,-340 166.374,-346 166.374,-346 166.374,-358 166.374,-358 166.374,-364 160.374,-370 154.374,-370"/>
<text text-anchor="middle" x="130.374" y="-348.3" font-family="Times,serif" font-size="14.00">initial</text>
</g>
<!-- start_Loan_state&#45;&gt;Loan_state_initial -->
<g id="edge1" class="edge"><title>start_Loan_state&#45;&gt;Loan_state_initial</title>
<g id="a_edge1"><a xlink:title="start &#160;&#45;&gt; initial">
<path fill="none" stroke="black" d="M130.374,-406.758C130.374,-400.387 130.374,-390.197 130.374,-380.393"/>
<polygon fill="black" stroke="black" points="133.874,-380.105 130.374,-370.105 126.874,-380.105 133.874,-380.105"/>
</a>
</g>
</g>
<!-- Loan_state_outstanding -->
<g id="node3" class="node"><title>Loan_state_outstanding</title>
<path fill="none" stroke="black" d="M159.374,-297C159.374,-297 101.374,-297 101.374,-297 95.3737,-297 89.3737,-291 89.3737,-285 89.3737,-285 89.3737,-273 89.3737,-273 89.3737,-267 95.3737,-261 101.374,-261 101.374,-261 159.374,-261 159.374,-261 165.374,-261 171.374,-267 171.374,-273 171.374,-273 171.374,-285 171.374,-285 171.374,-291 165.374,-297 159.374,-297"/>
<text text-anchor="middle" x="130.374" y="-275.3" font-family="Times,serif" font-size="14.00">outstanding</text>
</g>
<!-- Loan_state_initial&#45;&gt;Loan_state_outstanding -->
<g id="edge2" class="edge"><title>Loan_state_initial&#45;&gt;Loan_state_outstanding</title>
<g id="a_edge2"><a xlink:title="initial &#160;&#45;&gt; outstanding">
<path fill="none" stroke="black" d="M130.374,-333.813C130.374,-325.789 130.374,-316.047 130.374,-307.069"/>
<polygon fill="black" stroke="black" points="133.874,-307.029 130.374,-297.029 126.874,-307.029 133.874,-307.029"/>
</a>
</g>
</g>
<!-- Loan_state_outstanding&#45;&gt;Loan_state_outstanding -->
<g id="edge3" class="edge"><title>Loan_state_outstanding&#45;&gt;Loan_state_outstanding</title>
<g id="a_edge3"><a xlink:title="outstanding extend / {...} &#45;&gt; outstanding">
<path fill="none" stroke="black" d="M171.457,-285.657C181.71,-285.192 189.374,-282.973 189.374,-279 189.374,-276.517 186.38,-274.719 181.632,-273.606"/>
<polygon fill="black" stroke="black" points="181.812,-270.102 171.457,-272.343 180.949,-277.048 181.812,-270.102"/>
</a>
</g>
<text text-anchor="middle" x="225.874" y="-275.3" font-family="Times,serif" font-size="14.00">extend / {...}</text>
</g>
<!-- Loan_state_recalled -->
<g id="node4" class="node"><title>Loan_state_recalled</title>
<path fill="none" stroke="black" d="M243.374,-210C243.374,-210 195.374,-210 195.374,-210 189.374,-210 183.374,-204 183.374,-198 183.374,-198 183.374,-186 183.374,-186 183.374,-180 189.374,-174 195.374,-174 195.374,-174 243.374,-174 243.374,-174 249.374,-174 255.374,-180 255.374,-186 255.374,-186 255.374,-198 255.374,-198 255.374,-204 249.374,-210 243.374,-210"/>
<text text-anchor="middle" x="219.374" y="-188.3" font-family="Times,serif" font-size="14.00">recalled</text>
</g>
<!-- Loan_state_outstanding&#45;&gt;Loan_state_recalled -->
<g id="edge4" class="edge"><title>Loan_state_outstanding&#45;&gt;Loan_state_recalled</title>
<g id="a_edge4"><a xlink:title="outstanding recall / {...} &#45;&gt; recalled">
<path fill="none" stroke="black" d="M148.384,-260.799C161.533,-248.241 179.534,-231.049 194.118,-217.12"/>
<polygon fill="black" stroke="black" points="196.576,-219.613 201.39,-210.175 191.741,-214.551 196.576,-219.613"/>
</a>
</g>
<text text-anchor="middle" x="212.374" y="-231.8" font-family="Times,serif" font-size="14.00">recall / {...}</text>
</g>
<!-- Loan_state_overdue -->
<g id="node5" class="node"><title>Loan_state_overdue</title>
<path fill="none" stroke="black" d="M65.3737,-123C65.3737,-123 17.3737,-123 17.3737,-123 11.3737,-123 5.37373,-117 5.37373,-111 5.37373,-111 5.37373,-99 5.37373,-99 5.37373,-93 11.3737,-87 17.3737,-87 17.3737,-87 65.3737,-87 65.3737,-87 71.3737,-87 77.3737,-93 77.3737,-99 77.3737,-99 77.3737,-111 77.3737,-111 77.3737,-117 71.3737,-123 65.3737,-123"/>
<text text-anchor="middle" x="41.3737" y="-101.3" font-family="Times,serif" font-size="14.00">overdue</text>
</g>
<!-- Loan_state_outstanding&#45;&gt;Loan_state_overdue -->
<g id="edge5" class="edge"><title>Loan_state_outstanding&#45;&gt;Loan_state_overdue</title>
<g id="a_edge5"><a xlink:title="outstanding after(deadline) &#45;&gt; overdue">
<path fill="none" stroke="black" d="M21.1929,-131.568 6.56178,-153.44 -8.29926,-185.219 6.37373,-210 24.1369,-240 60.3461,-257.641 89.0725,-267.403"/>
<polygon fill="black" stroke="black" points="24.2381,-133.324 27.1494,-123.137 18.5208,-129.285 24.2381,-133.324"/>
</a>
</g>
<text text-anchor="middle" x="47.8737" y="-188.3" font-family="Times,serif" font-size="14.00">after(deadline)</text>
</g>
<!-- Loan_state_returned -->
<g id="node6" class="node"><title>Loan_state_returned</title>
<path fill="none" stroke="black" d="M334.374,-36C334.374,-36 286.374,-36 286.374,-36 280.374,-36 274.374,-30 274.374,-24 274.374,-24 274.374,-12 274.374,-12 274.374,-6 280.374,-0 286.374,-0 286.374,-0 334.374,-0 334.374,-0 340.374,-0 346.374,-6 346.374,-12 346.374,-12 346.374,-24 346.374,-24 346.374,-30 340.374,-36 334.374,-36"/>
<text text-anchor="middle" x="310.374" y="-14.3" font-family="Times,serif" font-size="14.00">returned</text>
</g>
<!-- Loan_state_outstanding&#45;&gt;Loan_state_returned -->
<g id="edge7" class="edge"><title>Loan_state_outstanding&#45;&gt;Loan_state_returned</title>
<g id="a_edge7"><a xlink:title="outstanding returnitem &#45;&gt; returned">
<path fill="none" stroke="black" d="M171.539,-271.175C195.456,-265.957 225.486,-257.181 249.374,-243 314.231,-204.498 340.51,-192.683 369.374,-123 375.497,-108.218 374.97,-101.989 369.374,-87 363.126,-70.2663 350.699,-54.9216 338.854,-43.0605"/>
<polygon fill="black" stroke="black" points="341.263,-40.5215 331.615,-36.1441 336.428,-45.5828 341.263,-40.5215"/>
</a>
</g>
<text text-anchor="middle" x="389.874" y="-144.8" font-family="Times,serif" font-size="14.00">returnitem</text>
</g>
<!-- Loan_state_lost -->
<g id="node7" class="node"><title>Loan_state_lost</title>
<path fill="none" stroke="black" d="M225.374,-123C225.374,-123 177.374,-123 177.374,-123 171.374,-123 165.374,-117 165.374,-111 165.374,-111 165.374,-99 165.374,-99 165.374,-93 171.374,-87 177.374,-87 177.374,-87 225.374,-87 225.374,-87 231.374,-87 237.374,-93 237.374,-99 237.374,-99 237.374,-111 237.374,-111 237.374,-117 231.374,-123 225.374,-123"/>
<text text-anchor="middle" x="201.374" y="-101.3" font-family="Times,serif" font-size="14.00">lost</text>
</g>
<!-- Loan_state_outstanding&#45;&gt;Loan_state_lost -->
<g id="edge10" class="edge"><title>Loan_state_outstanding&#45;&gt;Loan_state_lost</title>
<g id="a_edge10"><a xlink:title="outstanding declareLost &#45;&gt; lost">
<path fill="none" stroke="black" d="M119.544,-260.689C103.674,-232.876 78.6339,-177.652 104.374,-141 116.027,-124.407 136.355,-115.645 155.401,-111.033"/>
<polygon fill="black" stroke="black" points="156.122,-114.458 165.191,-108.98 154.686,-107.607 156.122,-114.458"/>
</a>
</g>
<text text-anchor="middle" x="131.374" y="-188.3" font-family="Times,serif" font-size="14.00">declareLost</text>
</g>
<!-- Loan_state_recalled&#45;&gt;Loan_state_overdue -->
<g id="edge6" class="edge"><title>Loan_state_recalled&#45;&gt;Loan_state_overdue</title>
<g id="a_edge6"><a xlink:title="recalled after(deadline) &#45;&gt; overdue">
<path fill="none" stroke="black" d="M74.1983,-128.753 88.3196,-137.944 105.259,-148.199 121.374,-156 141.213,-165.603 164.4,-174.002 183.238,-180.164"/>
<polygon fill="black" stroke="black" points="76.0739,-125.797 65.8025,-123.198 72.2117,-131.635 76.0739,-125.797"/>
</a>
</g>
<text text-anchor="middle" x="162.874" y="-144.8" font-family="Times,serif" font-size="14.00">after(deadline)</text>
</g>
<!-- Loan_state_recalled&#45;&gt;Loan_state_returned -->
<g id="edge8" class="edge"><title>Loan_state_recalled&#45;&gt;Loan_state_returned</title>
<g id="a_edge8"><a xlink:title="recalled returnitem &#45;&gt; returned">
<path fill="none" stroke="black" d="M255.475,-177.252C265.179,-171.96 274.795,-164.971 281.374,-156 305.062,-123.697 310.271,-76.2246 310.975,-46.4903"/>
<polygon fill="black" stroke="black" points="314.476,-46.4271 311.057,-36.3991 307.476,-46.3705 314.476,-46.4271"/>
</a>
</g>
<text text-anchor="middle" x="335.874" y="-101.3" font-family="Times,serif" font-size="14.00">returnitem</text>
</g>
<!-- Loan_state_recalled&#45;&gt;Loan_state_lost -->
<g id="edge11" class="edge"><title>Loan_state_recalled&#45;&gt;Loan_state_lost</title>
<g id="a_edge11"><a xlink:title="recalled declareLost &#45;&gt; lost">
<path fill="none" stroke="black" d="M207.142,-133.237 209.96,-146.548 213.267,-162.163 215.731,-173.799"/>
<polygon fill="black" stroke="black" points="210.507,-132.233 205.011,-123.175 203.659,-133.684 210.507,-132.233"/>
</a>
</g>
<text text-anchor="middle" x="244.374" y="-144.8" font-family="Times,serif" font-size="14.00">declareLost</text>
</g>
<!-- Loan_state_lost&#45;&gt;Loan_state_returned -->
<g id="edge9" class="edge"><title>Loan_state_lost&#45;&gt;Loan_state_returned</title>
<g id="a_edge9"><a xlink:title="lost returnitem / {...} &#45;&gt; returned">
<path fill="none" stroke="black" d="M197.041,-86.648C195.489,-76.2073 195.541,-63.2014 202.374,-54 216.69,-34.7193 241.843,-25.8633 264.274,-21.8765"/>
<polygon fill="black" stroke="black" points="264.97,-25.3114 274.34,-20.3673 263.932,-18.3888 264.97,-25.3114"/>
</a>
</g>
<text text-anchor="middle" x="249.374" y="-57.8" font-family="Times,serif" font-size="14.00">returnitem / {...}</text>
</g>
</g>
</svg>
