<?xml version="1.0" encoding="UTF-8" standalone="no"?>
<!DOCTYPE svg PUBLIC "-//W3C//DTD SVG 1.1//EN"
 "http://www.w3.org/Graphics/SVG/1.1/DTD/svg11.dtd">
<!-- Generated by graphviz version 2.39.20140502.0445 (20140502.0445)
 -->
<!-- Title: Lights Pages: 1 -->
<svg width="2558pt" height="520pt"
 viewBox="0.00 0.00 2558.00 520.00" xmlns="http://www.w3.org/2000/svg" xmlns:xlink="http://www.w3.org/1999/xlink">
<g id="graph0" class="graph" transform="scale(1 1) rotate(0) translate(4 516)">
<title>Lights</title>
<polygon fill="white" stroke="none" points="-4,4 -4,-516 2554,-516 2554,4 -4,4"/>
<g id="clust1" class="cluster"><title>clusterLight1_light</title>
<polygon fill="none" stroke="black" stroke-width="0.5" points="8,-356 8,-504 128,-504 128,-356 8,-356"/>
<text text-anchor="middle" x="68" y="-488.8" font-family="Times,serif" font-size="14.00">sm Light1 light</text>
</g>
<g id="clust2" class="cluster"><title>clusterLight1_sm</title>
<polygon fill="none" stroke="black" stroke-width="0.5" points="136,-182 136,-493.2 499,-493.2 499,-182 136,-182"/>
<text text-anchor="middle" x="317.5" y="-478" font-family="Times,serif" font-size="14.00">sm Light1 sm</text>
</g>
<g id="clust3" class="cluster"><title>clusterLight2_light</title>
<polygon fill="none" stroke="black" stroke-width="0.5" points="507,-356 507,-504 627,-504 627,-356 507,-356"/>
<text text-anchor="middle" x="567" y="-488.8" font-family="Times,serif" font-size="14.00">sm Light2 light</text>
</g>
<g id="clust4" class="cluster"><title>clusterLight2_sm</title>
<polygon fill="none" stroke="black" stroke-width="0.5" points="635,-356 635,-493.2 1573,-493.2 1573,-356 635,-356"/>
<text text-anchor="middle" x="1104" y="-478" font-family="Times,serif" font-size="14.00">sm Light2 sm</text>
</g>
<g id="clust5" class="cluster"><title>clusterLight3_light</title>
<polygon fill="none" stroke="black" stroke-width="0.5" points="1581,-356 1581,-504 1701,-504 1701,-356 1581,-356"/>
<text text-anchor="middle" x="1641" y="-488.8" font-family="Times,serif" font-size="14.00">sm Light3 light</text>
</g>
<g id="clust6" class="cluster"><title>clusterLight3_sm</title>
<polygon fill="none" stroke="black" stroke-width="0.5" points="1709,-8 1709,-493.2 2542,-493.2 2542,-8 1709,-8"/>
<text text-anchor="middle" x="2125.5" y="-478" font-family="Times,serif" font-size="14.00">sm Light3 sm</text>
</g>
<!-- start_Light1_light -->
<g id="node1" class="node"><title>start_Light1_light</title>
<ellipse fill="black" stroke="black" cx="113" cy="-455" rx="7.2" ry="7.2"/>
</g>
<!-- Light1_light_OFF -->
<g id="node2" class="node"><title>Light1_light_OFF</title>
<path fill="none" stroke="black" d="M108,-400C108,-400 60,-400 60,-400 54,-400 48,-394 48,-388 48,-388 48,-376 48,-376 48,-370 54,-364 60,-364 60,-364 108,-364 108,-364 114,-364 120,-370 120,-376 120,-376 120,-388 120,-388 120,-394 114,-400 108,-400"/>
<text text-anchor="middle" x="84" y="-378.3" font-family="Times,serif" font-size="14.00">OFF</text>
</g>
<!-- start_Light1_light&#45;&gt;Light1_light_OFF -->
<g id="edge1" class="edge"><title>start_Light1_light&#45;&gt;Light1_light_OFF</title>
<g id="a_edge1"><a xlink:title="start &#160;&#45;&gt; OFF">
<path fill="none" stroke="black" d="M94.9678,-409.852 100.644,-423.749 107.089,-439.527 110.527,-447.947"/>
<polygon fill="black" stroke="black" points="98.0462,-408.133 91.0247,-400.198 91.5659,-410.779 98.0462,-408.133"/>
</a>
</g>
</g>
<!-- Light1_light_ON -->
<g id="node3" class="node"><title>Light1_light_ON</title>
<path fill="none" stroke="black" d="M76,-473C76,-473 28,-473 28,-473 22,-473 16,-467 16,-461 16,-461 16,-449 16,-449 16,-443 22,-437 28,-437 28,-437 76,-437 76,-437 82,-437 88,-443 88,-449 88,-449 88,-461 88,-461 88,-467 82,-473 76,-473"/>
<text text-anchor="middle" x="52" y="-451.3" font-family="Times,serif" font-size="14.00">ON</text>
</g>
<!-- start_Light1_sm -->
<g id="node4" class="node"><title>start_Light1_sm</title>
<ellipse fill="black" stroke="black" cx="266" cy="-455" rx="7.2" ry="7.2"/>
</g>
<!-- Light1_sm_s1 -->
<g id="node5" class="node"><title>Light1_sm_s1</title>
<path fill="none" stroke="black" d="M290,-400C290,-400 242,-400 242,-400 236,-400 230,-394 230,-388 230,-388 230,-376 230,-376 230,-370 236,-364 242,-364 242,-364 290,-364 290,-364 296,-364 302,-370 302,-376 302,-376 302,-388 302,-388 302,-394 296,-400 290,-400"/>
<text text-anchor="middle" x="266" y="-378.3" font-family="Times,serif" font-size="14.00">s1</text>
</g>
<!-- start_Light1_sm&#45;&gt;Light1_sm_s1 -->
<g id="edge2" class="edge"><title>start_Light1_sm&#45;&gt;Light1_sm_s1</title>
<g id="a_edge2"><a xlink:title="start &#160;&#45;&gt; s1">
<path fill="none" stroke="black" d="M266,-447.448C266,-439.05 266,-423.967 266,-410.502"/>
<polygon fill="black" stroke="black" points="269.5,-410.21 266,-400.21 262.5,-410.21 269.5,-410.21"/>
</a>
</g>
</g>
<!-- Light1_sm_s2 -->
<g id="node6" class="node"><title>Light1_sm_s2</title>
<path fill="none" stroke="black" d="M226,-313C226,-313 178,-313 178,-313 172,-313 166,-307 166,-301 166,-301 166,-289 166,-289 166,-283 172,-277 178,-277 178,-277 226,-277 226,-277 232,-277 238,-283 238,-289 238,-289 238,-301 238,-301 238,-307 232,-313 226,-313"/>
<text text-anchor="middle" x="202" y="-291.3" font-family="Times,serif" font-size="14.00">s2</text>
</g>
<!-- Light1_sm_s1&#45;&gt;Light1_sm_s2 -->
<g id="edge4" class="edge"><title>Light1_sm_s1&#45;&gt;Light1_sm_s2</title>
<g id="a_edge4"><a xlink:title="s1 on &#45;&gt; s2">
<path fill="none" stroke="black" d="M221.033,-321.278 231.359,-334.992 243.853,-351.587 253.049,-363.799"/>
<polygon fill="black" stroke="black" points="223.743,-319.059 214.932,-313.175 218.151,-323.269 223.743,-319.059"/>
</a>
</g>
<text text-anchor="middle" x="245.5" y="-334.8" font-family="Times,serif" font-size="14.00">on</text>
</g>
<!-- Light1_sm_s3 -->
<g id="node7" class="node"><title>Light1_sm_s3</title>
<path fill="none" stroke="black" d="M204,-226C204,-226 156,-226 156,-226 150,-226 144,-220 144,-214 144,-214 144,-202 144,-202 144,-196 150,-190 156,-190 156,-190 204,-190 204,-190 210,-190 216,-196 216,-202 216,-202 216,-214 216,-214 216,-220 210,-226 204,-226"/>
<text text-anchor="middle" x="180" y="-204.3" font-family="Times,serif" font-size="14.00">s3</text>
</g>
<!-- Light1_sm_s2&#45;&gt;Light1_sm_s3 -->
<g id="edge5" class="edge"><title>Light1_sm_s2&#45;&gt;Light1_sm_s3</title>
<g id="a_edge5"><a xlink:title="s2 set(Integer b) [b&gt;=1&amp;&amp;b&lt;=3] / brightness=b; &#45;&gt; s3">
<path fill="none" stroke="black" d="M170.718,-235.963 169.423,-243.569 169.316,-251.744 172,-259 174.388,-265.455 178.557,-271.523 183.041,-276.736"/>
<polygon fill="black" stroke="black" points="174.159,-236.624 173.072,-226.085 167.349,-235.001 174.159,-236.624"/>
</a>
</g>
<text text-anchor="middle" x="300.5" y="-247.8" font-family="Times,serif" font-size="14.00">set(Integer b) [b&gt;=1&amp;&amp;b&lt;=3] / brightness=b;</text>
</g>
<!-- Light1_sm_s3&#45;&gt;Light1_sm_s1 -->
<g id="edge3" class="edge"><title>Light1_sm_s3&#45;&gt;Light1_sm_s1</title>
<g id="a_edge3"><a xlink:title="s3 off &#45;&gt; s1">
<path fill="none" stroke="black" d="M216.184,-208.539C278.463,-208.604 401.864,-212.783 429,-244 472.739,-294.317 373.95,-341.733 311.746,-365.362"/>
<polygon fill="black" stroke="black" points="310.258,-362.182 302.104,-368.947 312.697,-368.743 310.258,-362.182"/>
</a>
</g>
<text text-anchor="middle" x="447.5" y="-291.3" font-family="Times,serif" font-size="14.00">off</text>
</g>
<!-- Light1_sm_s3&#45;&gt;Light1_sm_s3 -->
<g id="edge6" class="edge"><title>Light1_sm_s3&#45;&gt;Light1_sm_s3</title>
<g id="a_edge6"><a xlink:title="s3 set(Integer b) [b&gt;=1&amp;&amp;b&lt;=3] / brightness=b; &#45;&gt; s3">
<path fill="none" stroke="black" d="M216.087,-215.836C226.221,-215.493 234,-212.881 234,-208 234,-204.949 230.961,-202.785 226.208,-201.507"/>
<polygon fill="black" stroke="black" points="226.461,-198.01 216.087,-200.164 225.54,-204.949 226.461,-198.01"/>
</a>
</g>
<text text-anchor="middle" x="362.5" y="-204.3" font-family="Times,serif" font-size="14.00">set(Integer b) [b&gt;=1&amp;&amp;b&lt;=3] / brightness=b;</text>
</g>
<!-- start_Light2_light -->
<g id="node8" class="node"><title>start_Light2_light</title>
<ellipse fill="black" stroke="black" cx="612" cy="-455" rx="7.2" ry="7.2"/>
</g>
<!-- Light2_light_OFF -->
<g id="node9" class="node"><title>Light2_light_OFF</title>
<path fill="none" stroke="black" d="M607,-400C607,-400 559,-400 559,-400 553,-400 547,-394 547,-388 547,-388 547,-376 547,-376 547,-370 553,-364 559,-364 559,-364 607,-364 607,-364 613,-364 619,-370 619,-376 619,-376 619,-388 619,-388 619,-394 613,-400 607,-400"/>
<text text-anchor="middle" x="583" y="-378.3" font-family="Times,serif" font-size="14.00">OFF</text>
</g>
<!-- start_Light2_light&#45;&gt;Light2_light_OFF -->
<g id="edge7" class="edge"><title>start_Light2_light&#45;&gt;Light2_light_OFF</title>
<g id="a_edge7"><a xlink:title="start &#160;&#45;&gt; OFF">
<path fill="none" stroke="black" d="M593.968,-409.852 599.644,-423.749 606.089,-439.527 609.527,-447.947"/>
<polygon fill="black" stroke="black" points="597.046,-408.133 590.025,-400.198 590.566,-410.779 597.046,-408.133"/>
</a>
</g>
</g>
<!-- Light2_light_ON -->
<g id="node10" class="node"><title>Light2_light_ON</title>
<path fill="none" stroke="black" d="M575,-473C575,-473 527,-473 527,-473 521,-473 515,-467 515,-461 515,-461 515,-449 515,-449 515,-443 521,-437 527,-437 527,-437 575,-437 575,-437 581,-437 587,-443 587,-449 587,-449 587,-461 587,-461 587,-467 581,-473 575,-473"/>
<text text-anchor="middle" x="551" y="-451.3" font-family="Times,serif" font-size="14.00">ON</text>
</g>
<!-- start_Light2_sm -->
<g id="node11" class="node"><title>start_Light2_sm</title>
<ellipse fill="black" stroke="black" cx="679" cy="-455" rx="7.2" ry="7.2"/>
</g>
<!-- Light2_sm_s2 -->
<g id="node12" class="node"><title>Light2_sm_s2</title>
<path fill="none" stroke="black" d="M703,-400C703,-400 655,-400 655,-400 649,-400 643,-394 643,-388 643,-388 643,-376 643,-376 643,-370 649,-364 655,-364 655,-364 703,-364 703,-364 709,-364 715,-370 715,-376 715,-376 715,-388 715,-388 715,-394 709,-400 703,-400"/>
<text text-anchor="middle" x="679" y="-378.3" font-family="Times,serif" font-size="14.00">s2</text>
</g>
<!-- start_Light2_sm&#45;&gt;Light2_sm_s2 -->
<g id="edge8" class="edge"><title>start_Light2_sm&#45;&gt;Light2_sm_s2</title>
<g id="a_edge8"><a xlink:title="start &#160;&#45;&gt; s2">
<path fill="none" stroke="black" d="M679,-447.448C679,-439.05 679,-423.967 679,-410.502"/>
<polygon fill="black" stroke="black" points="682.5,-410.21 679,-400.21 675.5,-410.21 682.5,-410.21"/>
</a>
</g>
</g>
<!-- Light2_sm_s2&#45;&gt;Light2_sm_s2 -->
<g id="edge9" class="edge"><title>Light2_sm_s2&#45;&gt;Light2_sm_s2</title>
<g id="a_edge9"><a xlink:title="s2 on [light.equals(Light.OFF)] / {...} &#45;&gt; s2">
<path fill="none" stroke="black" d="M715.087,-384.239C725.221,-384.141 733,-383.395 733,-382 733,-381.128 729.961,-380.51 725.208,-380.145"/>
<polygon fill="black" stroke="black" points="725.213,-376.643 715.087,-379.761 724.947,-383.638 725.213,-376.643"/>
</a>
</g>
<text text-anchor="middle" x="831" y="-378.3" font-family="Times,serif" font-size="14.00">on [light.equals(Light.OFF)] / {...}</text>
</g>
<!-- Light2_sm_s2&#45;&gt;Light2_sm_s2 -->
<g id="edge10" class="edge"><title>Light2_sm_s2&#45;&gt;Light2_sm_s2</title>
<g id="a_edge10"><a xlink:title="s2 set(Integer b) [light.equals(Light.ON)&amp;&amp;b&gt;=1&amp;&amp;b&lt;=3] / brightness=b; &#45;&gt; s2">
<path fill="none" stroke="black" d="M715.041,-384.914C785.488,-387.752 929,-386.781 929,-382 929,-377.443 798.627,-376.347 725.407,-378.712"/>
<polygon fill="black" stroke="black" points="724.909,-375.228 715.041,-379.086 725.161,-382.223 724.909,-375.228"/>
</a>
</g>
<text text-anchor="middle" x="1132.5" y="-378.3" font-family="Times,serif" font-size="14.00">set(Integer b) [light.equals(Light.ON)&amp;&amp;b&gt;=1&amp;&amp;b&lt;=3] / brightness=b;</text>
</g>
<!-- Light2_sm_s2&#45;&gt;Light2_sm_s2 -->
<g id="edge11" class="edge"><title>Light2_sm_s2&#45;&gt;Light2_sm_s2</title>
<g id="a_edge11"><a xlink:title="s2 off [light.equals(Light.ON)] / {...} &#45;&gt; s2">
<path fill="none" stroke="black" d="M715.376,-384.933C854.881,-390.862 1336,-389.884 1336,-382 1336,-374.301 877.169,-373.188 725.737,-378.661"/>
<polygon fill="black" stroke="black" points="725.231,-375.178 715.376,-379.067 725.505,-382.173 725.231,-375.178"/>
</a>
</g>
<text text-anchor="middle" x="1432.5" y="-378.3" font-family="Times,serif" font-size="14.00">off [light.equals(Light.ON)] / {...}</text>
</g>
<!-- start_Light3_light -->
<g id="node13" class="node"><title>start_Light3_light</title>
<ellipse fill="black" stroke="black" cx="1686" cy="-455" rx="7.2" ry="7.2"/>
</g>
<!-- Light3_light_OFF -->
<g id="node14" class="node"><title>Light3_light_OFF</title>
<path fill="none" stroke="black" d="M1681,-400C1681,-400 1633,-400 1633,-400 1627,-400 1621,-394 1621,-388 1621,-388 1621,-376 1621,-376 1621,-370 1627,-364 1633,-364 1633,-364 1681,-364 1681,-364 1687,-364 1693,-370 1693,-376 1693,-376 1693,-388 1693,-388 1693,-394 1687,-400 1681,-400"/>
<text text-anchor="middle" x="1657" y="-378.3" font-family="Times,serif" font-size="14.00">OFF</text>
</g>
<!-- start_Light3_light&#45;&gt;Light3_light_OFF -->
<g id="edge12" class="edge"><title>start_Light3_light&#45;&gt;Light3_light_OFF</title>
<g id="a_edge12"><a xlink:title="start &#160;&#45;&gt; OFF">
<path fill="none" stroke="black" d="M1667.97,-409.852 1673.64,-423.749 1680.09,-439.527 1683.53,-447.947"/>
<polygon fill="black" stroke="black" points="1671.05,-408.133 1664.02,-400.198 1664.57,-410.779 1671.05,-408.133"/>
</a>
</g>
</g>
<!-- Light3_light_ON -->
<g id="node15" class="node"><title>Light3_light_ON</title>
<path fill="none" stroke="black" d="M1649,-473C1649,-473 1601,-473 1601,-473 1595,-473 1589,-467 1589,-461 1589,-461 1589,-449 1589,-449 1589,-443 1595,-437 1601,-437 1601,-437 1649,-437 1649,-437 1655,-437 1661,-443 1661,-449 1661,-449 1661,-461 1661,-461 1661,-467 1655,-473 1649,-473"/>
<text text-anchor="middle" x="1625" y="-451.3" font-family="Times,serif" font-size="14.00">ON</text>
</g>
<!-- start_Light3_sm -->
<g id="node16" class="node"><title>start_Light3_sm</title>
<ellipse fill="black" stroke="black" cx="2251" cy="-455" rx="7.2" ry="7.2"/>
</g>
<!-- Light3_sm_s1 -->
<g id="node17" class="node"><title>Light3_sm_s1</title>
<path fill="none" stroke="black" d="M2275,-400C2275,-400 2227,-400 2227,-400 2221,-400 2215,-394 2215,-388 2215,-388 2215,-376 2215,-376 2215,-370 2221,-364 2227,-364 2227,-364 2275,-364 2275,-364 2281,-364 2287,-370 2287,-376 2287,-376 2287,-388 2287,-388 2287,-394 2281,-400 2275,-400"/>
<text text-anchor="middle" x="2251" y="-378.3" font-family="Times,serif" font-size="14.00">s1</text>
</g>
<!-- start_Light3_sm&#45;&gt;Light3_sm_s1 -->
<g id="edge13" class="edge"><title>start_Light3_sm&#45;&gt;Light3_sm_s1</title>
<g id="a_edge13"><a xlink:title="start &#160;&#45;&gt; s1">
<path fill="none" stroke="black" d="M2251,-447.448C2251,-439.05 2251,-423.967 2251,-410.502"/>
<polygon fill="black" stroke="black" points="2254.5,-410.21 2251,-400.21 2247.5,-410.21 2254.5,-410.21"/>
</a>
</g>
</g>
<!-- Light3_sm_s2 -->
<g id="node18" class="node"><title>Light3_sm_s2</title>
<path fill="none" stroke="black" d="M2453,-313C2453,-313 2405,-313 2405,-313 2399,-313 2393,-307 2393,-301 2393,-301 2393,-289 2393,-289 2393,-283 2399,-277 2405,-277 2405,-277 2453,-277 2453,-277 2459,-277 2465,-283 2465,-289 2465,-289 2465,-301 2465,-301 2465,-307 2459,-313 2453,-313"/>
<text text-anchor="middle" x="2429" y="-291.3" font-family="Times,serif" font-size="14.00">s2</text>
</g>
<!-- Light3_sm_s1&#45;&gt;Light3_sm_s2 -->
<g id="edge17" class="edge"><title>Light3_sm_s1&#45;&gt;Light3_sm_s2</title>
<g id="a_edge17"><a xlink:title="s1 on &#45;&gt; s2">
<path fill="none" stroke="black" d="M2287.02,-363.799C2314.98,-350.448 2353.9,-331.861 2383.93,-317.524"/>
<polygon fill="black" stroke="black" points="2385.82,-320.498 2393.34,-313.03 2382.8,-314.181 2385.82,-320.498"/>
</a>
</g>
<text text-anchor="middle" x="2358.5" y="-334.8" font-family="Times,serif" font-size="14.00">on</text>
</g>
<!-- Light3_sm_s3 -->
<g id="node19" class="node"><title>Light3_sm_s3</title>
<path fill="none" stroke="black" d="M1889,-226C1889,-226 1841,-226 1841,-226 1835,-226 1829,-220 1829,-214 1829,-214 1829,-202 1829,-202 1829,-196 1835,-190 1841,-190 1841,-190 1889,-190 1889,-190 1895,-190 1901,-196 1901,-202 1901,-202 1901,-214 1901,-214 1901,-220 1895,-226 1889,-226"/>
<text text-anchor="middle" x="1865" y="-204.3" font-family="Times,serif" font-size="14.00">s3</text>
</g>
<!-- Light3_sm_s2&#45;&gt;Light3_sm_s3 -->
<g id="edge18" class="edge"><title>Light3_sm_s2&#45;&gt;Light3_sm_s3</title>
<g id="a_edge18"><a xlink:title="s2 set(Integer b) [b==1] / brightness=b; &#45;&gt; s3">
<path fill="none" stroke="black" d="M1911.38,-211.12 1990.87,-215.199 2149.6,-225.425 2202,-244 2213.5,-248.078 2213.64,-254.542 2225,-259 2281.03,-280.985 2351.07,-289.184 2392.8,-292.226"/>
<polygon fill="black" stroke="black" points="1911.34,-207.613 1901.17,-210.607 1910.99,-214.604 1911.34,-207.613"/>
</a>
</g>
<text text-anchor="middle" x="2327.5" y="-247.8" font-family="Times,serif" font-size="14.00">set(Integer b) [b==1] / brightness=b;</text>
</g>
<!-- Light3_sm_s4 -->
<g id="node20" class="node"><title>Light3_sm_s4</title>
<path fill="none" stroke="black" d="M2178,-52C2178,-52 2130,-52 2130,-52 2124,-52 2118,-46 2118,-40 2118,-40 2118,-28 2118,-28 2118,-22 2124,-16 2130,-16 2130,-16 2178,-16 2178,-16 2184,-16 2190,-22 2190,-28 2190,-28 2190,-40 2190,-40 2190,-46 2184,-52 2178,-52"/>
<text text-anchor="middle" x="2154" y="-30.3" font-family="Times,serif" font-size="14.00">s4</text>
</g>
<!-- Light3_sm_s2&#45;&gt;Light3_sm_s4 -->
<g id="edge22" class="edge"><title>Light3_sm_s2&#45;&gt;Light3_sm_s4</title>
<g id="a_edge22"><a xlink:title="s2 set(Integer b) [b==2] / brightness=b; &#45;&gt; s4">
<path fill="none" stroke="black" d="M2200.34,-37.349 2273.74,-41.5649 2413.1,-51.7267 2459,-70 2481.71,-79.0415 2492.07,-81.1362 2503,-103 2510.16,-117.311 2513.74,-127.137 2503,-139 2476.03,-168.806 2349.97,-127.194 2323,-157 2318.53,-161.943 2318.45,-167.129 2323,-172 2345.35,-195.925 2447.65,-158.075 2470,-182 2495.16,-208.932 2465.51,-252.559 2445.11,-276.644"/>
<polygon fill="black" stroke="black" points="2200.19,-33.8352 2190.01,-36.7699 2199.8,-40.8242 2200.19,-33.8352"/>
</a>
</g>
<text text-anchor="middle" x="2425.5" y="-160.8" font-family="Times,serif" font-size="14.00">set(Integer b) [b==2] / brightness=b;</text>
</g>
<!-- Light3_sm_s5 -->
<g id="node21" class="node"><title>Light3_sm_s5</title>
<path fill="none" stroke="black" d="M2259,-139C2259,-139 2211,-139 2211,-139 2205,-139 2199,-133 2199,-127 2199,-127 2199,-115 2199,-115 2199,-109 2205,-103 2211,-103 2211,-103 2259,-103 2259,-103 2265,-103 2271,-109 2271,-115 2271,-115 2271,-127 2271,-127 2271,-133 2265,-139 2259,-139"/>
<text text-anchor="middle" x="2235" y="-117.3" font-family="Times,serif" font-size="14.00">s5</text>
</g>
<!-- Light3_sm_s2&#45;&gt;Light3_sm_s5 -->
<g id="edge26" class="edge"><title>Light3_sm_s2&#45;&gt;Light3_sm_s5</title>
<g id="a_edge26"><a xlink:title="s2 set(Integer b) [b==3] / brightness=b; &#45;&gt; s5">
<path fill="none" stroke="black" d="M2243.54,-148.818 2244.38,-151.577 2245.22,-154.342 2246,-157 2254.99,-187.511 2240.78,-205.378 2265,-226 2293.08,-249.913 2405.37,-216.541 2430,-244 2437.77,-252.661 2437.13,-265.955 2434.76,-276.658"/>
<polygon fill="black" stroke="black" points="2246.81,-147.559 2240.49,-139.052 2240.13,-149.641 2246.81,-147.559"/>
</a>
</g>
<text text-anchor="middle" x="2367.5" y="-204.3" font-family="Times,serif" font-size="14.00">set(Integer b) [b==3] / brightness=b;</text>
</g>
<!-- Light3_sm_s3&#45;&gt;Light3_sm_s1 -->
<g id="edge14" class="edge"><title>Light3_sm_s3&#45;&gt;Light3_sm_s1</title>
<g id="a_edge14"><a xlink:title="s3 off &#45;&gt; s1">
<path fill="none" stroke="black" d="M1901.22,-225.138C1971.78,-256.581 2127.54,-325.988 2205.17,-360.577"/>
<polygon fill="black" stroke="black" points="2204.13,-363.945 2214.69,-364.819 2206.98,-357.551 2204.13,-363.945"/>
</a>
</g>
<text text-anchor="middle" x="2105.5" y="-291.3" font-family="Times,serif" font-size="14.00">off</text>
</g>
<!-- Light3_sm_s3&#45;&gt;Light3_sm_s3 -->
<g id="edge19" class="edge"><title>Light3_sm_s3&#45;&gt;Light3_sm_s3</title>
<g id="a_edge19"><a xlink:title="s3 set(Integer b) [b==1] / brightness=b; &#45;&gt; s3">
<path fill="none" stroke="black" d="M1901.09,-215.836C1911.22,-215.493 1919,-212.881 1919,-208 1919,-204.949 1915.96,-202.785 1911.21,-201.507"/>
<polygon fill="black" stroke="black" points="1911.46,-198.01 1901.09,-200.164 1910.54,-204.949 1911.46,-198.01"/>
</a>
</g>
<text text-anchor="middle" x="2021.5" y="-204.3" font-family="Times,serif" font-size="14.00">set(Integer b) [b==1] / brightness=b;</text>
</g>
<!-- Light3_sm_s3&#45;&gt;Light3_sm_s4 -->
<g id="edge23" class="edge"><title>Light3_sm_s3&#45;&gt;Light3_sm_s4</title>
<g id="a_edge23"><a xlink:title="s3 set(Integer b) [b==2] / brightness=b; &#45;&gt; s4">
<path fill="none" stroke="black" d="M1828.93,-195.566C1779.69,-178.139 1701.19,-142.735 1735,-103 1782.46,-47.2196 2008.79,-37.0648 2107.64,-35.3124"/>
<polygon fill="black" stroke="black" points="2107.98,-38.8077 2117.92,-35.1525 2107.87,-31.8085 2107.98,-38.8077"/>
</a>
</g>
<text text-anchor="middle" x="1837.5" y="-117.3" font-family="Times,serif" font-size="14.00">set(Integer b) [b==2] / brightness=b;</text>
</g>
<!-- Light3_sm_s3&#45;&gt;Light3_sm_s5 -->
<g id="edge27" class="edge"><title>Light3_sm_s3&#45;&gt;Light3_sm_s5</title>
<g id="a_edge27"><a xlink:title="s3 set(Integer b) [b==3] / brightness=b; &#45;&gt; s5">
<path fill="none" stroke="black" d="M1828.71,-193.81C1808.04,-184.382 1788.7,-170.942 1802,-157 1831.41,-126.176 2143.14,-146.935 2185,-139 2186.27,-138.76 2187.55,-138.495 2188.83,-138.208"/>
<polygon fill="black" stroke="black" points="2189.92,-141.541 2198.73,-135.649 2188.17,-134.764 2189.92,-141.541"/>
</a>
</g>
<text text-anchor="middle" x="1904.5" y="-160.8" font-family="Times,serif" font-size="14.00">set(Integer b) [b==3] / brightness=b;</text>
</g>
<!-- Light3_sm_s4&#45;&gt;Light3_sm_s1 -->
<g id="edge15" class="edge"><title>Light3_sm_s4&#45;&gt;Light3_sm_s1</title>
<g id="a_edge15"><a xlink:title="s4 off &#45;&gt; s1">
<path fill="none" stroke="black" d="M2190.11,-35.8218C2263.81,-37.9922 2428.83,-45.5145 2479,-70 2518.88,-89.4637 2521.26,-113.137 2528,-157 2539.15,-229.518 2527.38,-262.659 2474,-313 2425.48,-358.761 2347.03,-373.785 2297.28,-378.682"/>
<polygon fill="black" stroke="black" points="2296.78,-375.213 2287.12,-379.581 2297.39,-382.186 2296.78,-375.213"/>
</a>
</g>
<text text-anchor="middle" x="2539.5" y="-204.3" font-family="Times,serif" font-size="14.00">off</text>
</g>
<!-- Light3_sm_s4&#45;&gt;Light3_sm_s3 -->
<g id="edge20" class="edge"><title>Light3_sm_s4&#45;&gt;Light3_sm_s3</title>
<g id="a_edge20"><a xlink:title="s4 set(Integer b) [b==1] / brightness=b; &#45;&gt; s3">
<path fill="none" stroke="black" d="M1819.49,-192.655 1798.72,-183.775 1781.28,-171.343 1794,-157 1816.28,-131.886 1913.35,-152.689 1944,-139 1966.14,-129.112 1965.94,-117.989 1985,-103 2005.06,-87.2232 2008.97,-81.0045 2032,-70 2059.54,-56.842 2092.99,-47.6769 2117.89,-42.0356"/>
<polygon fill="black" stroke="black" points="1818.26,-195.932 1828.85,-196.359 1820.84,-189.424 1818.26,-195.932"/>
</a>
</g>
<text text-anchor="middle" x="2087.5" y="-117.3" font-family="Times,serif" font-size="14.00">set(Integer b) [b==1] / brightness=b;</text>
</g>
<!-- Light3_sm_s4&#45;&gt;Light3_sm_s4 -->
<g id="edge24" class="edge"><title>Light3_sm_s4&#45;&gt;Light3_sm_s4</title>
<g id="a_edge24"><a xlink:title="s4 set(Integer b) [b==2] / brightness=b; &#45;&gt; s4">
<path fill="none" stroke="black" d="M2190.09,-41.8361C2200.22,-41.4929 2208,-38.8809 2208,-34 2208,-30.9495 2204.96,-28.7852 2200.21,-27.5072"/>
<polygon fill="black" stroke="black" points="2200.46,-24.0101 2190.09,-26.1639 2199.54,-30.9492 2200.46,-24.0101"/>
</a>
</g>
<text text-anchor="middle" x="2310.5" y="-30.3" font-family="Times,serif" font-size="14.00">set(Integer b) [b==2] / brightness=b;</text>
</g>
<!-- Light3_sm_s4&#45;&gt;Light3_sm_s5 -->
<g id="edge28" class="edge"><title>Light3_sm_s4&#45;&gt;Light3_sm_s5</title>
<g id="a_edge28"><a xlink:title="s4 set(Integer b) [b==3] / brightness=b; &#45;&gt; s5">
<path fill="none" stroke="black" d="M2190.22,-38.895C2210.22,-43.1055 2233.49,-51.851 2246,-70 2250.73,-76.8669 2250.52,-85.4183 2248.35,-93.4963"/>
<polygon fill="black" stroke="black" points="2245.03,-92.3757 2244.93,-102.97 2251.62,-94.7516 2245.03,-92.3757"/>
</a>
</g>
<text text-anchor="middle" x="2352.5" y="-73.8" font-family="Times,serif" font-size="14.00">set(Integer b) [b==3] / brightness=b;</text>
</g>
<!-- Light3_sm_s5&#45;&gt;Light3_sm_s1 -->
<g id="edge16" class="edge"><title>Light3_sm_s5&#45;&gt;Light3_sm_s1</title>
<g id="a_edge16"><a xlink:title="s5 off &#45;&gt; s1">
<path fill="none" stroke="black" d="M2231.16,-355.672 2214.07,-332.143 2190.69,-295.356 2181,-259 2169.03,-214.096 2223.54,-215.826 2239,-172 2242.71,-161.488 2241.71,-148.988 2239.78,-139.116"/>
<polygon fill="black" stroke="black" points="2228.36,-357.773 2237.13,-363.716 2233.98,-353.6 2228.36,-357.773"/>
</a>
</g>
<text text-anchor="middle" x="2189.5" y="-247.8" font-family="Times,serif" font-size="14.00">off</text>
</g>
<!-- Light3_sm_s5&#45;&gt;Light3_sm_s3 -->
<g id="edge21" class="edge"><title>Light3_sm_s5&#45;&gt;Light3_sm_s3</title>
<g id="a_edge21"><a xlink:title="s5 set(Integer b) [b==1] / brightness=b; &#45;&gt; s3">
<path fill="none" stroke="black" d="M1911.19,-200.109 1940.58,-194.72 1978.98,-185.786 2011,-172 2022.21,-167.174 2022.53,-161.165 2034,-157 2097.53,-133.934 2119.09,-153.96 2185,-139 2189.56,-137.965 2194.29,-136.668 2198.93,-135.254"/>
<polygon fill="black" stroke="black" points="1910.44,-196.687 1901.2,-201.869 1911.65,-203.581 1910.44,-196.687"/>
</a>
</g>
<text text-anchor="middle" x="2136.5" y="-160.8" font-family="Times,serif" font-size="14.00">set(Integer b) [b==1] / brightness=b;</text>
</g>
<!-- Light3_sm_s5&#45;&gt;Light3_sm_s4 -->
<g id="edge25" class="edge"><title>Light3_sm_s5&#45;&gt;Light3_sm_s4</title>
<g id="a_edge25"><a xlink:title="s5 set(Integer b) [b==2] / brightness=b; &#45;&gt; s4">
<path fill="none" stroke="black" d="M2107.92,-40.0789 2067.5,-46.3299 2018.42,-59.4248 2041,-85 2062.34,-109.176 2153.57,-95.7721 2185,-103 2189.56,-104.048 2194.28,-105.353 2198.93,-106.771"/>
<polygon fill="black" stroke="black" points="2108.56,-43.5227 2117.96,-38.6337 2107.56,-36.5941 2108.56,-43.5227"/>
</a>
</g>
<text text-anchor="middle" x="2143.5" y="-73.8" font-family="Times,serif" font-size="14.00">set(Integer b) [b==2] / brightness=b;</text>
</g>
<!-- Light3_sm_s5&#45;&gt;Light3_sm_s5 -->
<g id="edge29" class="edge"><title>Light3_sm_s5&#45;&gt;Light3_sm_s5</title>
<g id="a_edge29"><a xlink:title="s5 set(Integer b) [b==3] / brightness=b; &#45;&gt; s5">
<path fill="none" stroke="black" d="M2271.09,-128.836C2281.22,-128.493 2289,-125.881 2289,-121 2289,-117.949 2285.96,-115.785 2281.21,-114.507"/>
<polygon fill="black" stroke="black" points="2281.46,-111.01 2271.09,-113.164 2280.54,-117.949 2281.46,-111.01"/>
</a>
</g>
<text text-anchor="middle" x="2391.5" y="-117.3" font-family="Times,serif" font-size="14.00">set(Integer b) [b==3] / brightness=b;</text>
</g>
</g>
</svg>
