<?xml version="1.0" encoding="UTF-8" standalone="no"?>
<!DOCTYPE svg PUBLIC "-//W3C//DTD SVG 1.1//EN"
 "http://www.w3.org/Graphics/SVG/1.1/DTD/svg11.dtd">
<!-- Generated by graphviz version 2.39.20140502.0445 (20140502.0445)
 -->
<!-- Title: Messenger Pages: 1 -->
<svg width="493pt" height="356pt"
 viewBox="0.00 0.00 493.00 356.40" xmlns="http://www.w3.org/2000/svg" xmlns:xlink="http://www.w3.org/1999/xlink">
<g id="graph0" class="graph" transform="scale(1 1) rotate(0) translate(4 352.4)">
<title>Messenger</title>
<polygon fill="white" stroke="none" points="-4,4 -4,-352.4 489,-352.4 489,4 -4,4"/>
<!-- start_Messenger_message -->
<g id="node1" class="node"><title>start_Messenger_message</title>
<ellipse fill="black" stroke="black" cx="328" cy="-341.2" rx="7.2" ry="7.2"/>
</g>
<!-- Messenger_message_Composed -->
<g id="node2" class="node"><title>Messenger_message_Composed</title>
<path fill="none" stroke="black" d="M354,-297C354,-297 302,-297 302,-297 296,-297 290,-291 290,-285 290,-285 290,-273 290,-273 290,-267 296,-261 302,-261 302,-261 354,-261 354,-261 360,-261 366,-267 366,-273 366,-273 366,-285 366,-285 366,-291 360,-297 354,-297"/>
<text text-anchor="middle" x="328" y="-275.3" font-family="Times,serif" font-size="14.00">Composed</text>
</g>
<!-- start_Messenger_message&#45;&gt;Messenger_message_Composed -->
<g id="edge1" class="edge"><title>start_Messenger_message&#45;&gt;Messenger_message_Composed</title>
<g id="a_edge1"><a xlink:title="start &#160;&#45;&gt; Composed">
<path fill="none" stroke="black" d="M328,-333.758C328,-327.387 328,-317.197 328,-307.393"/>
<polygon fill="black" stroke="black" points="331.5,-307.105 328,-297.105 324.5,-307.105 331.5,-307.105"/>
</a>
</g>
</g>
<!-- Messenger_message_Sent -->
<g id="node3" class="node"><title>Messenger_message_Sent</title>
<path fill="none" stroke="black" d="M286,-210C286,-210 238,-210 238,-210 232,-210 226,-204 226,-198 226,-198 226,-186 226,-186 226,-180 232,-174 238,-174 238,-174 286,-174 286,-174 292,-174 298,-180 298,-186 298,-186 298,-198 298,-198 298,-204 292,-210 286,-210"/>
<text text-anchor="middle" x="262" y="-188.3" font-family="Times,serif" font-size="14.00">Sent</text>
</g>
<!-- Messenger_message_Composed&#45;&gt;Messenger_message_Sent -->
<g id="edge2" class="edge"><title>Messenger_message_Composed&#45;&gt;Messenger_message_Sent</title>
<g id="a_edge2"><a xlink:title="Composed send &#45;&gt; Sent">
<path fill="none" stroke="black" d="M281.627,-218.278 292.276,-231.992 305.161,-248.587 314.644,-260.799"/>
<polygon fill="black" stroke="black" points="284.234,-215.927 275.336,-210.175 278.705,-220.221 284.234,-215.927"/>
</a>
</g>
<text text-anchor="middle" x="312" y="-231.8" font-family="Times,serif" font-size="14.00">send</text>
</g>
<!-- Messenger_message_Discarded -->
<g id="node7" class="node"><title>Messenger_message_Discarded</title>
<path fill="none" stroke="black" d="M377.5,-210C377.5,-210 328.5,-210 328.5,-210 322.5,-210 316.5,-204 316.5,-198 316.5,-198 316.5,-186 316.5,-186 316.5,-180 322.5,-174 328.5,-174 328.5,-174 377.5,-174 377.5,-174 383.5,-174 389.5,-180 389.5,-186 389.5,-186 389.5,-198 389.5,-198 389.5,-204 383.5,-210 377.5,-210"/>
<text text-anchor="middle" x="353" y="-188.3" font-family="Times,serif" font-size="14.00">Discarded</text>
</g>
<!-- Messenger_message_Composed&#45;&gt;Messenger_message_Discarded -->
<g id="edge7" class="edge"><title>Messenger_message_Composed&#45;&gt;Messenger_message_Discarded</title>
<g id="a_edge7"><a xlink:title="Composed cancel &#45;&gt; Discarded">
<path fill="none" stroke="black" d="M333.059,-260.799C336.515,-249.047 341.165,-233.238 345.105,-219.842"/>
<polygon fill="black" stroke="black" points="348.484,-220.757 347.948,-210.175 341.769,-218.781 348.484,-220.757"/>
</a>
</g>
<text text-anchor="middle" x="360" y="-231.8" font-family="Times,serif" font-size="14.00">cancel</text>
</g>
<!-- Messenger_message_InTransit -->
<g id="node4" class="node"><title>Messenger_message_InTransit</title>
<path fill="none" stroke="black" d="M60,-123C60,-123 12,-123 12,-123 6,-123 0,-117 0,-111 0,-111 0,-99 0,-99 0,-93 6,-87 12,-87 12,-87 60,-87 60,-87 66,-87 72,-93 72,-99 72,-99 72,-111 72,-111 72,-117 66,-123 60,-123"/>
<text text-anchor="middle" x="36" y="-101.3" font-family="Times,serif" font-size="14.00">InTransit</text>
</g>
<!-- Messenger_message_Sent&#45;&gt;Messenger_message_InTransit -->
<g id="edge3" class="edge"><title>Messenger_message_Sent&#45;&gt;Messenger_message_InTransit</title>
<g id="a_edge3"><a xlink:title="Sent transmitViaGateway [externalContact] &#45;&gt; InTransit">
<path fill="none" stroke="black" d="M25.4496,-132.914 24.0092,-141.148 24.5676,-149.687 30,-156 54.841,-184.87 167.182,-190.238 225.937,-191.035"/>
<polygon fill="black" stroke="black" points="28.8477,-133.754 28.0046,-123.193 22.0776,-131.975 28.8477,-133.754"/>
</a>
</g>
<text text-anchor="middle" x="139" y="-144.8" font-family="Times,serif" font-size="14.00">transmitViaGateway [externalContact]</text>
</g>
<!-- Messenger_message_Delivered -->
<g id="node5" class="node"><title>Messenger_message_Delivered</title>
<path fill="none" stroke="black" d="M423,-123C423,-123 375,-123 375,-123 369,-123 363,-117 363,-111 363,-111 363,-99 363,-99 363,-93 369,-87 375,-87 375,-87 423,-87 423,-87 429,-87 435,-93 435,-99 435,-99 435,-111 435,-111 435,-117 429,-123 423,-123"/>
<text text-anchor="middle" x="399" y="-101.3" font-family="Times,serif" font-size="14.00">Delivered</text>
</g>
<!-- Messenger_message_Sent&#45;&gt;Messenger_message_Delivered -->
<g id="edge4" class="edge"><title>Messenger_message_Sent&#45;&gt;Messenger_message_Delivered</title>
<g id="a_edge4"><a xlink:title="Sent transmit [internalContact] &#45;&gt; Delivered">
<path fill="none" stroke="black" d="M289.724,-173.799C310.707,-160.78 339.717,-142.781 362.574,-128.6"/>
<polygon fill="black" stroke="black" points="364.665,-131.422 371.317,-123.175 360.975,-125.473 364.665,-131.422"/>
</a>
</g>
<text text-anchor="middle" x="412" y="-144.8" font-family="Times,serif" font-size="14.00">transmit [internalContact]</text>
</g>
<!-- Messenger_message_Deleted -->
<g id="node6" class="node"><title>Messenger_message_Deleted</title>
<path fill="none" stroke="black" d="M233,-36C233,-36 185,-36 185,-36 179,-36 173,-30 173,-24 173,-24 173,-12 173,-12 173,-6 179,-0 185,-0 185,-0 233,-0 233,-0 239,-0 245,-6 245,-12 245,-12 245,-24 245,-24 245,-30 239,-36 233,-36"/>
<text text-anchor="middle" x="209" y="-14.3" font-family="Times,serif" font-size="14.00">Deleted</text>
</g>
<!-- Messenger_message_Sent&#45;&gt;Messenger_message_Deleted -->
<g id="edge5" class="edge"><title>Messenger_message_Sent&#45;&gt;Messenger_message_Deleted</title>
<g id="a_edge5"><a xlink:title="Sent deleteMessage &#45;&gt; Deleted">
<path fill="none" stroke="black" d="M232.541,-44.4897 234.618,-47.5514 236.499,-50.7493 238,-54 256.528,-94.1168 260.831,-146.886 261.778,-173.719"/>
<polygon fill="black" stroke="black" points="235.149,-42.1375 226.314,-36.291 229.575,-46.3714 235.149,-42.1375"/>
</a>
</g>
<text text-anchor="middle" x="299.5" y="-101.3" font-family="Times,serif" font-size="14.00">deleteMessage</text>
</g>
<!-- Messenger_message_InTransit&#45;&gt;Messenger_message_Deleted -->
<g id="edge6" class="edge"><title>Messenger_message_InTransit&#45;&gt;Messenger_message_Deleted</title>
<g id="a_edge6"><a xlink:title="InTransit deleteMessage &#45;&gt; Deleted">
<path fill="none" stroke="black" d="M72.0777,-91.083C88.2106,-84.9436 107.312,-77.1671 124,-69 140.683,-60.8355 158.49,-50.6117 173.474,-41.5402"/>
<polygon fill="black" stroke="black" points="175.704,-44.2782 182.403,-36.0695 172.047,-38.3095 175.704,-44.2782"/>
</a>
</g>
<text text-anchor="middle" x="192.5" y="-57.8" font-family="Times,serif" font-size="14.00">deleteMessage</text>
</g>
<!-- Messenger_message_delivered -->
<g id="node8" class="node"><title>Messenger_message_delivered</title>
<path fill="none" stroke="black" d="M60,-36C60,-36 12,-36 12,-36 6,-36 0,-30 0,-24 0,-24 0,-12 0,-12 0,-6 6,-0 12,-0 12,-0 60,-0 60,-0 66,-0 72,-6 72,-12 72,-12 72,-24 72,-24 72,-30 66,-36 60,-36"/>
<text text-anchor="middle" x="36" y="-14.3" font-family="Times,serif" font-size="14.00">delivered</text>
</g>
<!-- Messenger_message_InTransit&#45;&gt;Messenger_message_delivered -->
<g id="edge8" class="edge"><title>Messenger_message_InTransit&#45;&gt;Messenger_message_delivered</title>
<g id="a_edge8"><a xlink:title="InTransit reachRecipient &#45;&gt; delivered">
<path fill="none" stroke="black" d="M36,-86.799C36,-75.1626 36,-59.5479 36,-46.2368"/>
<polygon fill="black" stroke="black" points="39.5001,-46.1754 36,-36.1754 32.5001,-46.1755 39.5001,-46.1754"/>
</a>
</g>
<text text-anchor="middle" x="78" y="-57.8" font-family="Times,serif" font-size="14.00">reachRecipient</text>
</g>
<!-- Messenger_message_read -->
<g id="node9" class="node"><title>Messenger_message_read</title>
<path fill="none" stroke="black" d="M423,-36C423,-36 375,-36 375,-36 369,-36 363,-30 363,-24 363,-24 363,-12 363,-12 363,-6 369,-0 375,-0 375,-0 423,-0 423,-0 429,-0 435,-6 435,-12 435,-12 435,-24 435,-24 435,-30 429,-36 423,-36"/>
<text text-anchor="middle" x="399" y="-14.3" font-family="Times,serif" font-size="14.00">read</text>
</g>
<!-- Messenger_message_Delivered&#45;&gt;Messenger_message_read -->
<g id="edge9" class="edge"><title>Messenger_message_Delivered&#45;&gt;Messenger_message_read</title>
<g id="a_edge9"><a xlink:title="Delivered read &#45;&gt; read">
<path fill="none" stroke="black" d="M399,-86.799C399,-75.1626 399,-59.5479 399,-46.2368"/>
<polygon fill="black" stroke="black" points="402.5,-46.1754 399,-36.1754 395.5,-46.1755 402.5,-46.1754"/>
</a>
</g>
<text text-anchor="middle" x="411.5" y="-57.8" font-family="Times,serif" font-size="14.00">read</text>
</g>
</g>
</svg>
