<?xml version="1.0" encoding="UTF-8" standalone="no"?>
<!DOCTYPE svg PUBLIC "-//W3C//DTD SVG 1.1//EN"
 "http://www.w3.org/Graphics/SVG/1.1/DTD/svg11.dtd">
<!-- Generated by graphviz version 2.40.1 (20161225.0304)
 -->
<!-- Title: Messenger Pages: 1 -->
<svg width="403pt" height="439pt"
 viewBox="0.00 0.00 403.41 439.40" xmlns="http://www.w3.org/2000/svg" xmlns:xlink="http://www.w3.org/1999/xlink">
<g id="graph0" class="graph" transform="scale(1 1) rotate(0) translate(4 435.4)">
<title>Messenger</title>
<polygon fill="#ffffff" stroke="transparent" points="-4,4 -4,-435.4 399.4072,-435.4 399.4072,4 -4,4"/>
<!-- start_Messenger_message -->
<g id="node1" class="node">
<title>start_Messenger_message</title>
<g id="a_node1"><a xlink:title="Class Messenger, SM message, State start">
<ellipse fill="#000000" stroke="#000000" cx="123" cy="-424.2" rx="7.2" ry="7.2"/>
</a>
</g>
</g>
<!-- Messenger_message_Composed -->
<g id="node2" class="node">
<title>Messenger_message_Composed</title>
<g id="a_node2"><a xlink:title="Class Messenger, SM message, State Composed">
<path fill="none" stroke="#000000" d="M148.8897,-380C148.8897,-380 97.1103,-380 97.1103,-380 91.1103,-380 85.1103,-374 85.1103,-368 85.1103,-368 85.1103,-356 85.1103,-356 85.1103,-350 91.1103,-344 97.1103,-344 97.1103,-344 148.8897,-344 148.8897,-344 154.8897,-344 160.8897,-350 160.8897,-356 160.8897,-356 160.8897,-368 160.8897,-368 160.8897,-374 154.8897,-380 148.8897,-380"/>
<text text-anchor="middle" x="123" y="-357.8" font-family="Times,serif" font-size="14.00" fill="#000000">Composed</text>
</a>
</g>
</g>
<!-- start_Messenger_message&#45;&gt;Messenger_message_Composed -->
<g id="edge1" class="edge">
<title>start_Messenger_message&#45;&gt;Messenger_message_Composed</title>
<g id="a_edge1"><a xlink:title="start to Composed">
<path fill="none" stroke="#000000" d="M123,-416.5731C123,-409.9503 123,-399.9322 123,-390.2795"/>
<polygon fill="#000000" stroke="#000000" points="126.5001,-390.1266 123,-380.1266 119.5001,-390.1267 126.5001,-390.1266"/>
</a>
</g>
</g>
<!-- Messenger_message_Sent -->
<g id="node3" class="node">
<title>Messenger_message_Sent</title>
<g id="a_node3"><a xlink:title="Class Messenger, SM message, State Sent">
<path fill="none" stroke="#000000" d="M102,-294C102,-294 54,-294 54,-294 48,-294 42,-288 42,-282 42,-282 42,-270 42,-270 42,-264 48,-258 54,-258 54,-258 102,-258 102,-258 108,-258 114,-264 114,-270 114,-270 114,-282 114,-282 114,-288 108,-294 102,-294"/>
<text text-anchor="middle" x="78" y="-271.8" font-family="Times,serif" font-size="14.00" fill="#000000">Sent</text>
</a>
</g>
</g>
<!-- Messenger_message_Composed&#45;&gt;Messenger_message_Sent -->
<g id="edge2" class="edge">
<title>Messenger_message_Composed&#45;&gt;Messenger_message_Sent</title>
<g id="a_edge2"><a xlink:title="From Composed to Sent on send">
<path fill="none" stroke="#000000" d="M113.4567,-343.7616C107.3115,-332.0176 99.2104,-316.5355 92.3031,-303.3349"/>
<polygon fill="#000000" stroke="#000000" points="95.267,-301.4497 87.5296,-294.2121 89.0647,-304.6951 95.267,-301.4497"/>
</a>
</g>
<text text-anchor="middle" x="116.8311" y="-314.8" font-family="Times,serif" font-size="14.00" fill="#000000">send</text>
</g>
<!-- Messenger_message_Discarded -->
<g id="node7" class="node">
<title>Messenger_message_Discarded</title>
<g id="a_node7"><a xlink:title="Class Messenger, SM message, State Discarded">
<path fill="none" stroke="#000000" d="M192.2524,-294C192.2524,-294 143.7476,-294 143.7476,-294 137.7476,-294 131.7476,-288 131.7476,-282 131.7476,-282 131.7476,-270 131.7476,-270 131.7476,-264 137.7476,-258 143.7476,-258 143.7476,-258 192.2524,-258 192.2524,-258 198.2524,-258 204.2524,-264 204.2524,-270 204.2524,-270 204.2524,-282 204.2524,-282 204.2524,-288 198.2524,-294 192.2524,-294"/>
<text text-anchor="middle" x="168" y="-271.8" font-family="Times,serif" font-size="14.00" fill="#000000">Discarded</text>
</a>
</g>
</g>
<!-- Messenger_message_Composed&#45;&gt;Messenger_message_Discarded -->
<g id="edge8" class="edge">
<title>Messenger_message_Composed&#45;&gt;Messenger_message_Discarded</title>
<g id="a_edge8"><a xlink:title="From Composed to Discarded on cancel">
<path fill="none" stroke="#000000" d="M132.5433,-343.7616C138.6885,-332.0176 146.7896,-316.5355 153.6969,-303.3349"/>
<polygon fill="#000000" stroke="#000000" points="156.9353,-304.6951 158.4704,-294.2121 150.733,-301.4497 156.9353,-304.6951"/>
</a>
</g>
<text text-anchor="middle" x="166.8726" y="-314.8" font-family="Times,serif" font-size="14.00" fill="#000000">cancel</text>
</g>
<!-- Messenger_message_InTransit -->
<g id="node4" class="node">
<title>Messenger_message_InTransit</title>
<g id="a_node4"><a xlink:title="Class Messenger, SM message, State InTransit">
<path fill="none" stroke="#000000" d="M236,-208C236,-208 188,-208 188,-208 182,-208 176,-202 176,-196 176,-196 176,-184 176,-184 176,-178 182,-172 188,-172 188,-172 236,-172 236,-172 242,-172 248,-178 248,-184 248,-184 248,-196 248,-196 248,-202 242,-208 236,-208"/>
<text text-anchor="middle" x="212" y="-185.8" font-family="Times,serif" font-size="14.00" fill="#000000">InTransit</text>
</a>
</g>
</g>
<!-- Messenger_message_Sent&#45;&gt;Messenger_message_InTransit -->
<g id="edge3" class="edge">
<title>Messenger_message_Sent&#45;&gt;Messenger_message_InTransit</title>
<g id="a_edge3"><a xlink:title="From Sent to InTransit on transmitViaGateway&#13;Guard: &#160;[externalContact]">
<path fill="none" stroke="#000000" d="M73.0744,-257.9398C71.3714,-247.5 71.3974,-234.743 78.5332,-226 102.5288,-196.6001 125.5181,-218.4502 162,-208 163.4135,-207.5951 164.8449,-207.1708 166.2863,-206.7312"/>
<polygon fill="#000000" stroke="#000000" points="167.4173,-210.0441 175.8643,-203.6489 165.2728,-203.3806 167.4173,-210.0441"/>
</a>
</g>
<text text-anchor="middle" x="187.2334" y="-228.8" font-family="Times,serif" font-size="14.00" fill="#000000">transmitViaGateway [externalContact]</text>
</g>
<!-- Messenger_message_Delivered -->
<g id="node5" class="node">
<title>Messenger_message_Delivered</title>
<g id="a_node5"><a xlink:title="Class Messenger, SM message, State Delivered">
<path fill="none" stroke="#000000" d="M60,-122C60,-122 12,-122 12,-122 6,-122 0,-116 0,-110 0,-110 0,-98 0,-98 0,-92 6,-86 12,-86 12,-86 60,-86 60,-86 66,-86 72,-92 72,-98 72,-98 72,-110 72,-110 72,-116 66,-122 60,-122"/>
<text text-anchor="middle" x="36" y="-99.8" font-family="Times,serif" font-size="14.00" fill="#000000">Delivered</text>
</a>
</g>
</g>
<!-- Messenger_message_Sent&#45;&gt;Messenger_message_Delivered -->
<g id="edge4" class="edge">
<title>Messenger_message_Sent&#45;&gt;Messenger_message_Delivered</title>
<g id="a_edge4"><a xlink:title="From Sent to Delivered on transmit&#13;Guard: &#160;[internalContact]">
<path fill="none" stroke="#000000" d="M56.9634,-257.8116C44.1575,-245.282 28.9628,-227.4347 21.9893,-208 13.1058,-183.2423 18.6984,-153.3317 25.2646,-131.9546"/>
<polygon fill="#000000" stroke="#000000" points="28.6721,-132.7995 28.5071,-122.2059 22.0298,-130.5902 28.6721,-132.7995"/>
</a>
</g>
<text text-anchor="middle" x="94.5054" y="-185.8" font-family="Times,serif" font-size="14.00" fill="#000000">transmit [internalContact]</text>
</g>
<!-- Messenger_message_Deleted -->
<g id="node6" class="node">
<title>Messenger_message_Deleted</title>
<g id="a_node6"><a xlink:title="Class Messenger, SM message, State Deleted">
<path fill="none" stroke="#000000" d="M284,-122C284,-122 236,-122 236,-122 230,-122 224,-116 224,-110 224,-110 224,-98 224,-98 224,-92 230,-86 236,-86 236,-86 284,-86 284,-86 290,-86 296,-92 296,-98 296,-98 296,-110 296,-110 296,-116 290,-122 284,-122"/>
<text text-anchor="middle" x="260" y="-99.8" font-family="Times,serif" font-size="14.00" fill="#000000">Deleted</text>
</a>
</g>
</g>
<!-- Messenger_message_Sent&#45;&gt;Messenger_message_Deleted -->
<g id="edge6" class="edge">
<title>Messenger_message_Sent&#45;&gt;Messenger_message_Deleted</title>
<g id="a_edge6"><a xlink:title="From Sent to Deleted on deleteMessage">
<path fill="none" stroke="#000000" d="M114.0655,-260.5786C117.0559,-259.6056 120.0594,-258.7271 123,-258 160.3075,-248.7757 269.2783,-268.554 295,-240 324.7465,-206.978 311.7186,-181.1801 295,-140 293.5716,-136.4816 291.6158,-133.1182 289.3535,-129.9589"/>
<polygon fill="#000000" stroke="#000000" points="291.8953,-127.542 282.801,-122.1066 286.5208,-132.027 291.8953,-127.542"/>
</a>
</g>
<text text-anchor="middle" x="354.2036" y="-185.8" font-family="Times,serif" font-size="14.00" fill="#000000">deleteMessage</text>
</g>
<!-- Messenger_message_InTransit&#45;&gt;Messenger_message_Delivered -->
<g id="edge5" class="edge">
<title>Messenger_message_InTransit&#45;&gt;Messenger_message_Delivered</title>
<g id="a_edge5"><a xlink:title="From InTransit to Delivered on reachRecipient">
<path fill="none" stroke="#000000" d="M175.5913,-177.065C158.7338,-170.7031 138.5975,-162.5682 121.0479,-154 104.8604,-146.0968 87.6191,-136.2484 72.922,-127.3869"/>
<polygon fill="#000000" stroke="#000000" points="74.4913,-124.2444 64.1319,-122.0231 70.8451,-130.2197 74.4913,-124.2444"/>
</a>
</g>
<text text-anchor="middle" x="163.9761" y="-142.8" font-family="Times,serif" font-size="14.00" fill="#000000">reachRecipient</text>
</g>
<!-- Messenger_message_InTransit&#45;&gt;Messenger_message_Deleted -->
<g id="edge7" class="edge">
<title>Messenger_message_InTransit&#45;&gt;Messenger_message_Deleted</title>
<g id="a_edge7"><a xlink:title="From InTransit to Deleted on deleteMessage">
<path fill="none" stroke="#000000" d="M208.4967,-171.9717C207.4518,-162.0341 207.6723,-149.7691 212.5928,-140 214.5279,-136.1581 217.087,-132.6138 220.0162,-129.3718"/>
<polygon fill="#000000" stroke="#000000" points="222.5608,-131.7822 227.4027,-122.3584 217.7409,-126.7059 222.5608,-131.7822"/>
</a>
</g>
<text text-anchor="middle" x="254.2036" y="-142.8" font-family="Times,serif" font-size="14.00" fill="#000000">deleteMessage</text>
</g>
<!-- Messenger_message_read -->
<g id="node8" class="node">
<title>Messenger_message_read</title>
<g id="a_node8"><a xlink:title="Class Messenger, SM message, State read">
<path fill="none" stroke="#000000" d="M60,-36C60,-36 12,-36 12,-36 6,-36 0,-30 0,-24 0,-24 0,-12 0,-12 0,-6 6,0 12,0 12,0 60,0 60,0 66,0 72,-6 72,-12 72,-12 72,-24 72,-24 72,-30 66,-36 60,-36"/>
<text text-anchor="middle" x="36" y="-13.8" font-family="Times,serif" font-size="14.00" fill="#000000">read</text>
</a>
</g>
</g>
<!-- Messenger_message_Delivered&#45;&gt;Messenger_message_read -->
<g id="edge9" class="edge">
<title>Messenger_message_Delivered&#45;&gt;Messenger_message_read</title>
<g id="a_edge9"><a xlink:title="From Delivered to read on read">
<path fill="none" stroke="#000000" d="M36,-85.7616C36,-74.3597 36,-59.4342 36,-46.494"/>
<polygon fill="#000000" stroke="#000000" points="39.5001,-46.2121 36,-36.2121 32.5001,-46.2121 39.5001,-46.2121"/>
</a>
</g>
<text text-anchor="middle" x="48.0449" y="-56.8" font-family="Times,serif" font-size="14.00" fill="#000000">read</text>
</g>
</g>
</svg>
