<?xml version="1.0" encoding="UTF-8" standalone="no"?>
<!DOCTYPE svg PUBLIC "-//W3C//DTD SVG 1.1//EN"
 "http://www.w3.org/Graphics/SVG/1.1/DTD/svg11.dtd">
<!-- Generated by graphviz version 2.39.20140502.0445 (20140502.0445)
 -->
<!-- Title: MicrowaveOven2 Pages: 1 -->
<svg width="1030pt" height="443pt"
 viewBox="0.00 0.00 1030.00 443.40" xmlns="http://www.w3.org/2000/svg" xmlns:xlink="http://www.w3.org/1999/xlink">
<g id="graph0" class="graph" transform="scale(1 1) rotate(0) translate(4 439.4)">
<title>MicrowaveOven2</title>
<polygon fill="white" stroke="none" points="-4,4 -4,-439.4 1026,-439.4 1026,4 -4,4"/>
<!-- start_Microwave_operatingMicrowaveStateMachine -->
<g id="node1" class="node"><title>start_Microwave_operatingMicrowaveStateMachine</title>
<ellipse fill="black" stroke="black" cx="685" cy="-428.2" rx="7.2" ry="7.2"/>
</g>
<!-- Microwave_operatingMicrowaveStateMachine_readyToCook -->
<g id="node2" class="node"><title>Microwave_operatingMicrowaveStateMachine_readyToCook</title>
<path fill="none" stroke="black" d="M719.5,-384C719.5,-384 650.5,-384 650.5,-384 644.5,-384 638.5,-378 638.5,-372 638.5,-372 638.5,-360 638.5,-360 638.5,-354 644.5,-348 650.5,-348 650.5,-348 719.5,-348 719.5,-348 725.5,-348 731.5,-354 731.5,-360 731.5,-360 731.5,-372 731.5,-372 731.5,-378 725.5,-384 719.5,-384"/>
<text text-anchor="middle" x="685" y="-362.3" font-family="Times,serif" font-size="14.00">readyToCook</text>
</g>
<!-- start_Microwave_operatingMicrowaveStateMachine&#45;&gt;Microwave_operatingMicrowaveStateMachine_readyToCook -->
<g id="edge1" class="edge"><title>start_Microwave_operatingMicrowaveStateMachine&#45;&gt;Microwave_operatingMicrowaveStateMachine_readyToCook</title>
<g id="a_edge1"><a xlink:title="start &#160;&#45;&gt; readyToCook">
<path fill="none" stroke="black" d="M685,-420.758C685,-414.387 685,-404.197 685,-394.393"/>
<polygon fill="black" stroke="black" points="688.5,-394.105 685,-384.105 681.5,-394.105 688.5,-394.105"/>
</a>
</g>
</g>
<!-- Microwave_operatingMicrowaveStateMachine_doorOpen -->
<g id="node3" class="node"><title>Microwave_operatingMicrowaveStateMachine_doorOpen</title>
<path fill="none" stroke="black" d="M284,-36C284,-36 236,-36 236,-36 230,-36 224,-30 224,-24 224,-24 224,-12 224,-12 224,-6 230,-0 236,-0 236,-0 284,-0 284,-0 290,-0 296,-6 296,-12 296,-12 296,-24 296,-24 296,-30 290,-36 284,-36"/>
<text text-anchor="middle" x="260" y="-14.3" font-family="Times,serif" font-size="14.00">doorOpen</text>
</g>
<!-- Microwave_operatingMicrowaveStateMachine_readyToCook&#45;&gt;Microwave_operatingMicrowaveStateMachine_doorOpen -->
<g id="edge4" class="edge"><title>Microwave_operatingMicrowaveStateMachine_readyToCook&#45;&gt;Microwave_operatingMicrowaveStateMachine_doorOpen</title>
<g id="a_edge4"><a xlink:title="readyToCook doorOpened / {...} &#45;&gt; doorOpen">
<path fill="none" stroke="black" d="M213.751,-24.4872 139.022,-34.6573 0,-59.5506 0,-104 0,-280 0,-280 0,-280 0,-344.487 484.28,-360.623 638.456,-364.126"/>
<polygon fill="black" stroke="black" points="214.395,-27.9326 223.848,-23.1493 213.475,-20.9933 214.395,-27.9326"/>
</a>
</g>
<text text-anchor="middle" x="52.5" y="-188.3" font-family="Times,serif" font-size="14.00">doorOpened / {...}</text>
</g>
<!-- Microwave_operatingMicrowaveStateMachine_cooking -->
<g id="node4" class="node"><title>Microwave_operatingMicrowaveStateMachine_cooking</title>
<path fill="none" stroke="black" d="M473,-297C473,-297 425,-297 425,-297 419,-297 413,-291 413,-285 413,-285 413,-273 413,-273 413,-267 419,-261 425,-261 425,-261 473,-261 473,-261 479,-261 485,-267 485,-273 485,-273 485,-285 485,-285 485,-291 479,-297 473,-297"/>
<text text-anchor="middle" x="449" y="-275.3" font-family="Times,serif" font-size="14.00">cooking</text>
</g>
<!-- Microwave_operatingMicrowaveStateMachine_readyToCook&#45;&gt;Microwave_operatingMicrowaveStateMachine_cooking -->
<g id="edge6" class="edge"><title>Microwave_operatingMicrowaveStateMachine_readyToCook&#45;&gt;Microwave_operatingMicrowaveStateMachine_cooking</title>
<g id="a_edge6"><a xlink:title="readyToCook buttonPressed / {...} &#45;&gt; cooking">
<path fill="none" stroke="black" d="M494.671,-296.449 536.039,-311.349 596.713,-333.202 638.374,-348.207"/>
<polygon fill="black" stroke="black" points="495.709,-293.103 485.114,-293.007 493.337,-299.689 495.709,-293.103"/>
</a>
</g>
<text text-anchor="middle" x="638" y="-318.8" font-family="Times,serif" font-size="14.00">buttonPressed / {...}</text>
</g>
<!-- Microwave_operatingMicrowaveStateMachine_doorOpen&#45;&gt;Microwave_operatingMicrowaveStateMachine_readyToCook -->
<g id="edge2" class="edge"><title>Microwave_operatingMicrowaveStateMachine_doorOpen&#45;&gt;Microwave_operatingMicrowaveStateMachine_readyToCook</title>
<g id="a_edge2"><a xlink:title="doorOpen doorClosed / {...} &#45;&gt; readyToCook">
<path fill="none" stroke="black" d="M296.062,-19.8011C434.207,-23.3397 922,-40.3417 922,-104 922,-280 922,-280 922,-280 922,-318.174 811.68,-343.825 741.574,-356.271"/>
<polygon fill="black" stroke="black" points="740.795,-352.854 731.541,-358.012 741.992,-359.751 740.795,-352.854"/>
</a>
</g>
<text text-anchor="middle" x="972" y="-188.3" font-family="Times,serif" font-size="14.00">doorClosed / {...}</text>
</g>
<!-- Microwave_operatingMicrowaveStateMachine_cookingInterrupted -->
<g id="node5" class="node"><title>Microwave_operatingMicrowaveStateMachine_cookingInterrupted</title>
<path fill="none" stroke="black" d="M724,-123C724,-123 624,-123 624,-123 618,-123 612,-117 612,-111 612,-111 612,-99 612,-99 612,-93 618,-87 624,-87 624,-87 724,-87 724,-87 730,-87 736,-93 736,-99 736,-99 736,-111 736,-111 736,-117 730,-123 724,-123"/>
<text text-anchor="middle" x="674" y="-101.3" font-family="Times,serif" font-size="14.00">cookingInterrupted</text>
</g>
<!-- Microwave_operatingMicrowaveStateMachine_cooking&#45;&gt;Microwave_operatingMicrowaveStateMachine_cookingInterrupted -->
<g id="edge8" class="edge"><title>Microwave_operatingMicrowaveStateMachine_cooking&#45;&gt;Microwave_operatingMicrowaveStateMachine_cookingInterrupted</title>
<g id="a_edge8"><a xlink:title="cooking doorOpened / {...} &#45;&gt; cookingInterrupted">
<path fill="none" stroke="black" d="M485.307,-276.102C530.23,-271.71 605.811,-257.268 647,-210 665.514,-188.753 671.58,-156.365 673.442,-133.384"/>
<polygon fill="black" stroke="black" points="676.944,-133.445 674.043,-123.255 669.956,-133.03 676.944,-133.445"/>
</a>
</g>
<text text-anchor="middle" x="717.5" y="-188.3" font-family="Times,serif" font-size="14.00">doorOpened / {...}</text>
</g>
<!-- Microwave_operatingMicrowaveStateMachine_cookingComplete -->
<g id="node6" class="node"><title>Microwave_operatingMicrowaveStateMachine_cookingComplete</title>
<path fill="none" stroke="black" d="M306,-123C306,-123 214,-123 214,-123 208,-123 202,-117 202,-111 202,-111 202,-99 202,-99 202,-93 208,-87 214,-87 214,-87 306,-87 306,-87 312,-87 318,-93 318,-99 318,-99 318,-111 318,-111 318,-117 312,-123 306,-123"/>
<text text-anchor="middle" x="260" y="-101.3" font-family="Times,serif" font-size="14.00">cookingComplete</text>
</g>
<!-- Microwave_operatingMicrowaveStateMachine_cooking&#45;&gt;Microwave_operatingMicrowaveStateMachine_cookingComplete -->
<g id="edge10" class="edge"><title>Microwave_operatingMicrowaveStateMachine_cooking&#45;&gt;Microwave_operatingMicrowaveStateMachine_cookingComplete</title>
<g id="a_edge10"><a xlink:title="cooking timerTimesout &#45;&gt; cookingComplete">
<path fill="none" stroke="black" d="M217.444,-128.404 184.125,-148.928 146.836,-180.511 169,-210 198.153,-248.789 343.919,-267.84 412.815,-274.792"/>
<polygon fill="black" stroke="black" points="219.43,-131.295 226.237,-123.176 215.852,-125.279 219.43,-131.295"/>
</a>
</g>
<text text-anchor="middle" x="210.5" y="-188.3" font-family="Times,serif" font-size="14.00">timerTimesout</text>
</g>
<!-- Microwave_operatingMicrowaveStateMachine_cookingExtended -->
<g id="node7" class="node"><title>Microwave_operatingMicrowaveStateMachine_cookingExtended</title>
<path fill="none" stroke="black" d="M494,-210C494,-210 404,-210 404,-210 398,-210 392,-204 392,-198 392,-198 392,-186 392,-186 392,-180 398,-174 404,-174 404,-174 494,-174 494,-174 500,-174 506,-180 506,-186 506,-186 506,-198 506,-198 506,-204 500,-210 494,-210"/>
<text text-anchor="middle" x="449" y="-188.3" font-family="Times,serif" font-size="14.00">cookingExtended</text>
</g>
<!-- Microwave_operatingMicrowaveStateMachine_cooking&#45;&gt;Microwave_operatingMicrowaveStateMachine_cookingExtended -->
<g id="edge12" class="edge"><title>Microwave_operatingMicrowaveStateMachine_cooking&#45;&gt;Microwave_operatingMicrowaveStateMachine_cookingExtended</title>
<g id="a_edge12"><a xlink:title="cooking buttonPressed / {...} &#45;&gt; cookingExtended">
<path fill="none" stroke="black" d="M449,-260.799C449,-249.163 449,-233.548 449,-220.237"/>
<polygon fill="black" stroke="black" points="452.5,-220.175 449,-210.175 445.5,-220.175 452.5,-220.175"/>
</a>
</g>
<text text-anchor="middle" x="506" y="-231.8" font-family="Times,serif" font-size="14.00">buttonPressed / {...}</text>
</g>
<!-- Microwave_operatingMicrowaveStateMachine_cookingInterrupted&#45;&gt;Microwave_operatingMicrowaveStateMachine_readyToCook -->
<g id="edge3" class="edge"><title>Microwave_operatingMicrowaveStateMachine_cookingInterrupted&#45;&gt;Microwave_operatingMicrowaveStateMachine_readyToCook</title>
<g id="a_edge3"><a xlink:title="cookingInterrupted doorClosed / {...} &#45;&gt; readyToCook">
<path fill="none" stroke="black" d="M711.347,-340.565 747.585,-303.863 804.996,-232.561 774,-174 761.772,-150.898 737.786,-134.183 716.371,-123.107"/>
<polygon fill="black" stroke="black" points="708.624,-338.335 703.974,-347.855 713.546,-343.312 708.624,-338.335"/>
</a>
</g>
<text text-anchor="middle" x="830" y="-231.8" font-family="Times,serif" font-size="14.00">doorClosed / {...}</text>
</g>
<!-- Microwave_operatingMicrowaveStateMachine_cookingComplete&#45;&gt;Microwave_operatingMicrowaveStateMachine_doorOpen -->
<g id="edge5" class="edge"><title>Microwave_operatingMicrowaveStateMachine_cookingComplete&#45;&gt;Microwave_operatingMicrowaveStateMachine_doorOpen</title>
<g id="a_edge5"><a xlink:title="cookingComplete doorOpened / {...} &#45;&gt; doorOpen">
<path fill="none" stroke="black" d="M260,-86.799C260,-75.1626 260,-59.5479 260,-46.2368"/>
<polygon fill="black" stroke="black" points="263.5,-46.1754 260,-36.1754 256.5,-46.1755 263.5,-46.1754"/>
</a>
</g>
<text text-anchor="middle" x="312.5" y="-57.8" font-family="Times,serif" font-size="14.00">doorOpened / {...}</text>
</g>
<!-- Microwave_operatingMicrowaveStateMachine_cookingComplete&#45;&gt;Microwave_operatingMicrowaveStateMachine_cooking -->
<g id="edge7" class="edge"><title>Microwave_operatingMicrowaveStateMachine_cookingComplete&#45;&gt;Microwave_operatingMicrowaveStateMachine_cooking</title>
<g id="a_edge7"><a xlink:title="cookingComplete buttonPressed / {...} &#45;&gt; cooking">
<path fill="none" stroke="black" d="M256.384,-123.052C252.681,-145.399 249.858,-184.713 269,-210 300.572,-251.707 360.867,-267.834 402.934,-274.069"/>
<polygon fill="black" stroke="black" points="402.563,-277.551 412.941,-275.419 403.499,-270.614 402.563,-277.551"/>
</a>
</g>
<text text-anchor="middle" x="326" y="-188.3" font-family="Times,serif" font-size="14.00">buttonPressed / {...}</text>
</g>
<!-- Microwave_operatingMicrowaveStateMachine_cookingExtended&#45;&gt;Microwave_operatingMicrowaveStateMachine_cookingInterrupted -->
<g id="edge9" class="edge"><title>Microwave_operatingMicrowaveStateMachine_cookingExtended&#45;&gt;Microwave_operatingMicrowaveStateMachine_cookingInterrupted</title>
<g id="a_edge9"><a xlink:title="cookingExtended doorOpened / {...} &#45;&gt; cookingInterrupted">
<path fill="none" stroke="black" d="M481.846,-173.891C502.498,-163.542 529.896,-150.547 555,-141 570.085,-135.263 586.537,-129.886 602.262,-125.149"/>
<polygon fill="black" stroke="black" points="603.345,-128.478 611.941,-122.285 601.358,-121.766 603.345,-128.478"/>
</a>
</g>
<text text-anchor="middle" x="607.5" y="-144.8" font-family="Times,serif" font-size="14.00">doorOpened / {...}</text>
</g>
<!-- Microwave_operatingMicrowaveStateMachine_cookingExtended&#45;&gt;Microwave_operatingMicrowaveStateMachine_cookingComplete -->
<g id="edge11" class="edge"><title>Microwave_operatingMicrowaveStateMachine_cookingExtended&#45;&gt;Microwave_operatingMicrowaveStateMachine_cookingComplete</title>
<g id="a_edge11"><a xlink:title="cookingExtended timerTimesout &#45;&gt; cookingComplete">
<path fill="none" stroke="black" d="M307.033,-127.152 339.021,-141.538 380.81,-160.333 410.753,-173.799"/>
<polygon fill="black" stroke="black" points="308.423,-123.94 297.867,-123.03 305.552,-130.324 308.423,-123.94"/>
</a>
</g>
<text text-anchor="middle" x="407.5" y="-144.8" font-family="Times,serif" font-size="14.00">timerTimesout</text>
</g>
<!-- Microwave_operatingMicrowaveStateMachine_cookingExtended&#45;&gt;Microwave_operatingMicrowaveStateMachine_cookingExtended -->
<g id="edge13" class="edge"><title>Microwave_operatingMicrowaveStateMachine_cookingExtended&#45;&gt;Microwave_operatingMicrowaveStateMachine_cookingExtended</title>
<g id="a_edge13"><a xlink:title="cookingExtended buttonPressed / {...} &#45;&gt; cookingExtended">
<path fill="none" stroke="black" d="M506.226,-199.442C516.673,-198.5 524,-196.02 524,-192 524,-189.488 521.138,-187.577 516.441,-186.267"/>
<polygon fill="black" stroke="black" points="516.666,-182.756 506.226,-184.558 515.511,-189.66 516.666,-182.756"/>
</a>
</g>
<text text-anchor="middle" x="581" y="-188.3" font-family="Times,serif" font-size="14.00">buttonPressed / {...}</text>
</g>
</g>
</svg>
