<?xml version="1.0" encoding="UTF-8" standalone="no"?>
<!DOCTYPE svg PUBLIC "-//W3C//DTD SVG 1.1//EN"
 "http://www.w3.org/Graphics/SVG/1.1/DTD/svg11.dtd">
<!-- Generated by graphviz version 2.36.0 (20140111.2315)
 -->
<!-- Title: MicrowaveOven2 Pages: 1 -->
<svg width="1030pt" height="448pt"
 viewBox="0.00 0.00 1030.00 448.00" xmlns="http://www.w3.org/2000/svg" xmlns:xlink="http://www.w3.org/1999/xlink">
<g id="graph0" class="graph" transform="scale(1 1) rotate(0) translate(4 444)">
<title>MicrowaveOven2</title>
<polygon fill="white" stroke="none" points="-4,4 -4,-444 1026,-444 1026,4 -4,4"/>
<!-- start_Microwave_operatingMicrowaveStateMachine -->
<g id="node1" class="node"><title>start_Microwave_operatingMicrowaveStateMachine</title>
<ellipse fill="black" stroke="black" cx="685" cy="-433" rx="7.2" ry="7.2"/>
</g>
<!-- Microwave_operatingMicrowaveStateMachine_readyToCook -->
<g id="node2" class="node"><title>Microwave_operatingMicrowaveStateMachine_readyToCook</title>
<path fill="none" stroke="black" d="M719.25,-388C719.25,-388 650.75,-388 650.75,-388 644.75,-388 638.75,-382 638.75,-376 638.75,-376 638.75,-364 638.75,-364 638.75,-358 644.75,-352 650.75,-352 650.75,-352 719.25,-352 719.25,-352 725.25,-352 731.25,-358 731.25,-364 731.25,-364 731.25,-376 731.25,-376 731.25,-382 725.25,-388 719.25,-388"/>
<text text-anchor="middle" x="685" y="-366.3" font-family="Times,serif" font-size="14.00">readyToCook</text>
</g>
<!-- start_Microwave_operatingMicrowaveStateMachine&#45;&gt;Microwave_operatingMicrowaveStateMachine_readyToCook -->
<g id="edge1" class="edge"><title>start_Microwave_operatingMicrowaveStateMachine&#45;&gt;Microwave_operatingMicrowaveStateMachine_readyToCook</title>
<path fill="none" stroke="black" d="M685,-425.472C685,-418.902 685,-408.324 685,-398.229"/>
<polygon fill="black" stroke="black" points="688.5,-398.073 685,-388.073 681.5,-398.073 688.5,-398.073"/>
</g>
<!-- Microwave_operatingMicrowaveStateMachine_doorOpen -->
<g id="node3" class="node"><title>Microwave_operatingMicrowaveStateMachine_doorOpen</title>
<path fill="none" stroke="black" d="M284,-36C284,-36 236,-36 236,-36 230,-36 224,-30 224,-24 224,-24 224,-12 224,-12 224,-6 230,-0 236,-0 236,-0 284,-0 284,-0 290,-0 296,-6 296,-12 296,-12 296,-24 296,-24 296,-30 290,-36 284,-36"/>
<text text-anchor="middle" x="260" y="-14.3" font-family="Times,serif" font-size="14.00">doorOpen</text>
</g>
<!-- Microwave_operatingMicrowaveStateMachine_readyToCook&#45;&gt;Microwave_operatingMicrowaveStateMachine_doorOpen -->
<g id="edge4" class="edge"><title>Microwave_operatingMicrowaveStateMachine_readyToCook&#45;&gt;Microwave_operatingMicrowaveStateMachine_doorOpen</title>
<path fill="none" stroke="black" d="M638.724,-368.066C484.843,-364.353 0,-347.536 0,-283 0,-283 0,-283 0,-105 0,-60.4998 139.022,-35.0954 213.751,-24.654"/>
<polygon fill="black" stroke="black" points="214.412,-28.0965 223.848,-23.2796 213.467,-21.1605 214.412,-28.0965"/>
<text text-anchor="middle" x="52.5" y="-190.3" font-family="Times,serif" font-size="14.00">doorOpened / {...}</text>
</g>
<!-- Microwave_operatingMicrowaveStateMachine_cooking -->
<g id="node4" class="node"><title>Microwave_operatingMicrowaveStateMachine_cooking</title>
<path fill="none" stroke="black" d="M473,-300C473,-300 425,-300 425,-300 419,-300 413,-294 413,-288 413,-288 413,-276 413,-276 413,-270 419,-264 425,-264 425,-264 473,-264 473,-264 479,-264 485,-270 485,-276 485,-276 485,-288 485,-288 485,-294 479,-300 473,-300"/>
<text text-anchor="middle" x="449" y="-278.3" font-family="Times,serif" font-size="14.00">cooking</text>
</g>
<!-- Microwave_operatingMicrowaveStateMachine_readyToCook&#45;&gt;Microwave_operatingMicrowaveStateMachine_cooking -->
<g id="edge6" class="edge"><title>Microwave_operatingMicrowaveStateMachine_readyToCook&#45;&gt;Microwave_operatingMicrowaveStateMachine_cooking</title>
<path fill="none" stroke="black" d="M638.656,-352.112C597.024,-336.941 536.24,-314.791 494.782,-299.683"/>
<polygon fill="black" stroke="black" points="495.797,-296.328 485.203,-296.193 493.401,-302.905 495.797,-296.328"/>
<text text-anchor="middle" x="645" y="-322.3" font-family="Times,serif" font-size="14.00">buttonPressed / {...}</text>
</g>
<!-- Microwave_operatingMicrowaveStateMachine_doorOpen&#45;&gt;Microwave_operatingMicrowaveStateMachine_readyToCook -->
<g id="edge2" class="edge"><title>Microwave_operatingMicrowaveStateMachine_doorOpen&#45;&gt;Microwave_operatingMicrowaveStateMachine_readyToCook</title>
<path fill="none" stroke="black" d="M296.062,-19.8548C434.207,-23.5994 922,-41.3295 922,-105 922,-283 922,-283 922,-283 922,-321.277 811.378,-347.394 741.288,-360.1"/>
<polygon fill="black" stroke="black" points="740.494,-356.686 731.259,-361.877 741.716,-363.579 740.494,-356.686"/>
<text text-anchor="middle" x="972" y="-190.3" font-family="Times,serif" font-size="14.00">doorClosed / {...}</text>
</g>
<!-- Microwave_operatingMicrowaveStateMachine_cookingInterrupted -->
<g id="node5" class="node"><title>Microwave_operatingMicrowaveStateMachine_cookingInterrupted</title>
<path fill="none" stroke="black" d="M724,-124C724,-124 624,-124 624,-124 618,-124 612,-118 612,-112 612,-112 612,-100 612,-100 612,-94 618,-88 624,-88 624,-88 724,-88 724,-88 730,-88 736,-94 736,-100 736,-100 736,-112 736,-112 736,-118 730,-124 724,-124"/>
<text text-anchor="middle" x="674" y="-102.3" font-family="Times,serif" font-size="14.00">cookingInterrupted</text>
</g>
<!-- Microwave_operatingMicrowaveStateMachine_cooking&#45;&gt;Microwave_operatingMicrowaveStateMachine_cookingInterrupted -->
<g id="edge8" class="edge"><title>Microwave_operatingMicrowaveStateMachine_cooking&#45;&gt;Microwave_operatingMicrowaveStateMachine_cookingInterrupted</title>
<path fill="none" stroke="black" d="M485.384,-278.961C530.388,-274.386 606.054,-259.608 647,-212 665.542,-190.441 671.602,-157.761 673.455,-134.593"/>
<polygon fill="black" stroke="black" points="676.963,-134.57 674.052,-124.383 669.975,-134.162 676.963,-134.57"/>
<text text-anchor="middle" x="717.5" y="-190.3" font-family="Times,serif" font-size="14.00">doorOpened / {...}</text>
</g>
<!-- Microwave_operatingMicrowaveStateMachine_cookingComplete -->
<g id="node6" class="node"><title>Microwave_operatingMicrowaveStateMachine_cookingComplete</title>
<path fill="none" stroke="black" d="M306,-124C306,-124 214,-124 214,-124 208,-124 202,-118 202,-112 202,-112 202,-100 202,-100 202,-94 208,-88 214,-88 214,-88 306,-88 306,-88 312,-88 318,-94 318,-100 318,-100 318,-112 318,-112 318,-118 312,-124 306,-124"/>
<text text-anchor="middle" x="260" y="-102.3" font-family="Times,serif" font-size="14.00">cookingComplete</text>
</g>
<!-- Microwave_operatingMicrowaveStateMachine_cooking&#45;&gt;Microwave_operatingMicrowaveStateMachine_cookingComplete -->
<g id="edge10" class="edge"><title>Microwave_operatingMicrowaveStateMachine_cooking&#45;&gt;Microwave_operatingMicrowaveStateMachine_cookingComplete</title>
<path fill="none" stroke="black" d="M412.792,-277.671C343.855,-270.486 198.02,-250.939 169,-212 146.769,-182.171 184.347,-150.176 217.742,-129.45"/>
<polygon fill="black" stroke="black" points="219.77,-132.315 226.549,-124.173 216.172,-126.31 219.77,-132.315"/>
<text text-anchor="middle" x="210.5" y="-190.3" font-family="Times,serif" font-size="14.00">timerTimesout</text>
</g>
<!-- Microwave_operatingMicrowaveStateMachine_cookingExtended -->
<g id="node7" class="node"><title>Microwave_operatingMicrowaveStateMachine_cookingExtended</title>
<path fill="none" stroke="black" d="M494,-212C494,-212 404,-212 404,-212 398,-212 392,-206 392,-200 392,-200 392,-188 392,-188 392,-182 398,-176 404,-176 404,-176 494,-176 494,-176 500,-176 506,-182 506,-188 506,-188 506,-200 506,-200 506,-206 500,-212 494,-212"/>
<text text-anchor="middle" x="449" y="-190.3" font-family="Times,serif" font-size="14.00">cookingExtended</text>
</g>
<!-- Microwave_operatingMicrowaveStateMachine_cooking&#45;&gt;Microwave_operatingMicrowaveStateMachine_cookingExtended -->
<g id="edge12" class="edge"><title>Microwave_operatingMicrowaveStateMachine_cooking&#45;&gt;Microwave_operatingMicrowaveStateMachine_cookingExtended</title>
<path fill="none" stroke="black" d="M449,-263.597C449,-251.746 449,-235.817 449,-222.292"/>
<polygon fill="black" stroke="black" points="452.5,-222.084 449,-212.084 445.5,-222.084 452.5,-222.084"/>
<text text-anchor="middle" x="506" y="-234.3" font-family="Times,serif" font-size="14.00">buttonPressed / {...}</text>
</g>
<!-- Microwave_operatingMicrowaveStateMachine_cookingInterrupted&#45;&gt;Microwave_operatingMicrowaveStateMachine_readyToCook -->
<g id="edge3" class="edge"><title>Microwave_operatingMicrowaveStateMachine_cookingInterrupted&#45;&gt;Microwave_operatingMicrowaveStateMachine_readyToCook</title>
<path fill="none" stroke="black" d="M715.615,-124.104C737.229,-135.385 761.647,-152.468 774,-176 805.142,-235.324 747.327,-307.592 711.084,-344.595"/>
<polygon fill="black" stroke="black" points="708.328,-342.399 703.717,-351.938 713.27,-347.357 708.328,-342.399"/>
<text text-anchor="middle" x="831" y="-234.3" font-family="Times,serif" font-size="14.00">doorClosed / {...}</text>
</g>
<!-- Microwave_operatingMicrowaveStateMachine_cookingComplete&#45;&gt;Microwave_operatingMicrowaveStateMachine_doorOpen -->
<g id="edge5" class="edge"><title>Microwave_operatingMicrowaveStateMachine_cookingComplete&#45;&gt;Microwave_operatingMicrowaveStateMachine_doorOpen</title>
<path fill="none" stroke="black" d="M260,-87.5966C260,-75.7459 260,-59.8169 260,-46.2917"/>
<polygon fill="black" stroke="black" points="263.5,-46.084 260,-36.084 256.5,-46.084 263.5,-46.084"/>
<text text-anchor="middle" x="312.5" y="-58.3" font-family="Times,serif" font-size="14.00">doorOpened / {...}</text>
</g>
<!-- Microwave_operatingMicrowaveStateMachine_cookingComplete&#45;&gt;Microwave_operatingMicrowaveStateMachine_cooking -->
<g id="edge7" class="edge"><title>Microwave_operatingMicrowaveStateMachine_cookingComplete&#45;&gt;Microwave_operatingMicrowaveStateMachine_cooking</title>
<path fill="none" stroke="black" d="M256.351,-124.2C252.611,-146.744 249.748,-186.417 269,-212 300.512,-253.874 360.82,-270.337 402.906,-276.809"/>
<polygon fill="black" stroke="black" points="402.529,-280.291 412.919,-278.215 403.503,-273.359 402.529,-280.291"/>
<text text-anchor="middle" x="326" y="-190.3" font-family="Times,serif" font-size="14.00">buttonPressed / {...}</text>
</g>
<!-- Microwave_operatingMicrowaveStateMachine_cookingExtended&#45;&gt;Microwave_operatingMicrowaveStateMachine_cookingInterrupted -->
<g id="edge9" class="edge"><title>Microwave_operatingMicrowaveStateMachine_cookingExtended&#45;&gt;Microwave_operatingMicrowaveStateMachine_cookingInterrupted</title>
<path fill="none" stroke="black" d="M480.874,-175.986C501.614,-165.338 529.459,-151.825 555,-142 570.063,-136.205 586.506,-130.804 602.229,-126.062"/>
<polygon fill="black" stroke="black" points="603.312,-129.391 611.907,-123.197 601.325,-122.679 603.312,-129.391"/>
<text text-anchor="middle" x="607.5" y="-146.3" font-family="Times,serif" font-size="14.00">doorOpened / {...}</text>
</g>
<!-- Microwave_operatingMicrowaveStateMachine_cookingExtended&#45;&gt;Microwave_operatingMicrowaveStateMachine_cookingComplete -->
<g id="edge11" class="edge"><title>Microwave_operatingMicrowaveStateMachine_cookingExtended&#45;&gt;Microwave_operatingMicrowaveStateMachine_cookingComplete</title>
<path fill="none" stroke="black" d="M411.207,-175.803C381.107,-162.107 338.826,-142.868 306.625,-128.216"/>
<polygon fill="black" stroke="black" points="307.956,-124.976 297.405,-124.02 305.057,-131.348 307.956,-124.976"/>
<text text-anchor="middle" x="413.5" y="-146.3" font-family="Times,serif" font-size="14.00">timerTimesout</text>
</g>
<!-- Microwave_operatingMicrowaveStateMachine_cookingExtended&#45;&gt;Microwave_operatingMicrowaveStateMachine_cookingExtended -->
<g id="edge13" class="edge"><title>Microwave_operatingMicrowaveStateMachine_cookingExtended&#45;&gt;Microwave_operatingMicrowaveStateMachine_cookingExtended</title>
<path fill="none" stroke="black" d="M506.226,-201.797C516.673,-200.81 524,-198.211 524,-194 524,-191.302 520.993,-189.266 516.085,-187.892"/>
<polygon fill="black" stroke="black" points="516.673,-184.442 506.226,-186.203 515.491,-191.341 516.673,-184.442"/>
<text text-anchor="middle" x="581" y="-190.3" font-family="Times,serif" font-size="14.00">buttonPressed / {...}</text>
</g>
</g>
</svg>
