<?xml version="1.0" encoding="UTF-8" standalone="no"?>
<!DOCTYPE svg PUBLIC "-//W3C//DTD SVG 1.1//EN"
 "http://www.w3.org/Graphics/SVG/1.1/DTD/svg11.dtd">
<!-- Generated by graphviz version 2.40.1 (20161225.0304)
 -->
<!-- Title: MicrowaveOven2 Pages: 1 -->
<svg width="1023pt" height="439pt"
 viewBox="0.00 0.00 1023.38 439.40" xmlns="http://www.w3.org/2000/svg" xmlns:xlink="http://www.w3.org/1999/xlink">
<g id="graph0" class="graph" transform="scale(1 1) rotate(0) translate(4 435.4)">
<title>MicrowaveOven2</title>
<polygon fill="#ffffff" stroke="transparent" points="-4,4 -4,-435.4 1019.3809,-435.4 1019.3809,4 -4,4"/>
<!-- start_Microwave_operatingMicrowaveStateMachine -->
<g id="node1" class="node">
<title>start_Microwave_operatingMicrowaveStateMachine</title>
<g id="a_node1"><a xlink:title="Class Microwave, SM operatingMicrowaveStateMachine, State start">
<ellipse fill="#000000" stroke="#000000" cx="713" cy="-424.2" rx="7.2" ry="7.2"/>
</a>
</g>
</g>
<!-- Microwave_operatingMicrowaveStateMachine_readyToCook -->
<g id="node2" class="node">
<title>Microwave_operatingMicrowaveStateMachine_readyToCook</title>
<g id="a_node2"><a xlink:title="Class Microwave, SM operatingMicrowaveStateMachine, State readyToCook&#13;Entry:&#10; &#160;&#160;// turn off light&#10; &#160;&#160;turnOff();">
<path fill="none" stroke="#000000" d="M747.002,-380C747.002,-380 678.998,-380 678.998,-380 672.998,-380 666.998,-374 666.998,-368 666.998,-368 666.998,-356 666.998,-356 666.998,-350 672.998,-344 678.998,-344 678.998,-344 747.002,-344 747.002,-344 753.002,-344 759.002,-350 759.002,-356 759.002,-356 759.002,-368 759.002,-368 759.002,-374 753.002,-380 747.002,-380"/>
<text text-anchor="middle" x="713" y="-357.8" font-family="Times,serif" font-size="14.00" fill="#000000">readyToCook</text>
</a>
</g>
</g>
<!-- start_Microwave_operatingMicrowaveStateMachine&#45;&gt;Microwave_operatingMicrowaveStateMachine_readyToCook -->
<g id="edge1" class="edge">
<title>start_Microwave_operatingMicrowaveStateMachine&#45;&gt;Microwave_operatingMicrowaveStateMachine_readyToCook</title>
<g id="a_edge1"><a xlink:title="start to readyToCook">
<path fill="none" stroke="#000000" d="M713,-416.5731C713,-409.9503 713,-399.9322 713,-390.2795"/>
<polygon fill="#000000" stroke="#000000" points="716.5001,-390.1266 713,-380.1266 709.5001,-390.1267 716.5001,-390.1266"/>
</a>
</g>
</g>
<!-- Microwave_operatingMicrowaveStateMachine_doorOpen -->
<g id="node3" class="node">
<title>Microwave_operatingMicrowaveStateMachine_doorOpen</title>
<g id="a_node3"><a xlink:title="Class Microwave, SM operatingMicrowaveStateMachine, State doorOpen&#13;Entry:&#10; &#160;&#160;// turn on light&#10; &#160;&#160;turnLightOn(true);">
<path fill="none" stroke="#000000" d="M282,-36C282,-36 234,-36 234,-36 228,-36 222,-30 222,-24 222,-24 222,-12 222,-12 222,-6 228,0 234,0 234,0 282,0 282,0 288,0 294,-6 294,-12 294,-12 294,-24 294,-24 294,-30 288,-36 282,-36"/>
<text text-anchor="middle" x="258" y="-13.8" font-family="Times,serif" font-size="14.00" fill="#000000">doorOpen</text>
</a>
</g>
</g>
<!-- Microwave_operatingMicrowaveStateMachine_readyToCook&#45;&gt;Microwave_operatingMicrowaveStateMachine_doorOpen -->
<g id="edge4" class="edge">
<title>Microwave_operatingMicrowaveStateMachine_readyToCook&#45;&gt;Microwave_operatingMicrowaveStateMachine_doorOpen</title>
<g id="a_edge4"><a xlink:title="From readyToCook to doorOpen on doorOpened&#13;Transition Action:&#10; &#160;&#160;&#160;&#160;setIsDoorOpened(true);">
<path fill="none" stroke="#000000" d="M666.7675,-361.299C508.7704,-358.2992 0,-343.4062 0,-276 0,-276 0,-276 0,-104 0,-59.8646 137.6008,-34.3264 211.823,-23.7613"/>
<polygon fill="#000000" stroke="#000000" points="212.4304,-27.2106 221.8545,-22.3695 211.4684,-20.277 212.4304,-27.2106"/>
</a>
</g>
<text text-anchor="middle" x="52.0146" y="-185.8" font-family="Times,serif" font-size="14.00" fill="#000000">doorOpened / {...}</text>
</g>
<!-- Microwave_operatingMicrowaveStateMachine_cooking -->
<g id="node4" class="node">
<title>Microwave_operatingMicrowaveStateMachine_cooking</title>
<g id="a_node4"><a xlink:title="Class Microwave, SM operatingMicrowaveStateMachine, State cooking&#13;Entry:&#10; &#160;&#160;// turn on light&#10; &#160;&#160;turnLightOn(true);&#10; &#160;&#160;// energize power tube&#10; &#160;&#160;energizePowerTube(true);&#10; &#160;&#160;//release a button&#10; &#160;&#160;...&#13;Activity:&#10; &#160;&#160;timer.tick(timer.getTimeMs());">
<path fill="none" stroke="#000000" d="M470,-294C470,-294 422,-294 422,-294 416,-294 410,-288 410,-282 410,-282 410,-270 410,-270 410,-264 416,-258 422,-258 422,-258 470,-258 470,-258 476,-258 482,-264 482,-270 482,-270 482,-282 482,-282 482,-288 476,-294 470,-294"/>
<text text-anchor="middle" x="446" y="-271.8" font-family="Times,serif" font-size="14.00" fill="#000000">cooking</text>
</a>
</g>
</g>
<!-- Microwave_operatingMicrowaveStateMachine_readyToCook&#45;&gt;Microwave_operatingMicrowaveStateMachine_cooking -->
<g id="edge6" class="edge">
<title>Microwave_operatingMicrowaveStateMachine_readyToCook&#45;&gt;Microwave_operatingMicrowaveStateMachine_cooking</title>
<g id="a_edge6"><a xlink:title="From readyToCook to cooking on buttonPressed&#13;Transition Action:&#10; &#160;&#160;&#160;&#160;setIsButtonPressed(true);">
<path fill="none" stroke="#000000" d="M666.797,-347.1181C617.7849,-331.3315 540.8181,-306.5407 491.9156,-290.7893"/>
<polygon fill="#000000" stroke="#000000" points="492.8179,-287.4029 482.2264,-287.6684 490.6717,-294.0658 492.8179,-287.4029"/>
</a>
</g>
<text text-anchor="middle" x="651.6904" y="-314.8" font-family="Times,serif" font-size="14.00" fill="#000000">buttonPressed / {...}</text>
</g>
<!-- Microwave_operatingMicrowaveStateMachine_doorOpen&#45;&gt;Microwave_operatingMicrowaveStateMachine_readyToCook -->
<g id="edge2" class="edge">
<title>Microwave_operatingMicrowaveStateMachine_doorOpen&#45;&gt;Microwave_operatingMicrowaveStateMachine_readyToCook</title>
<g id="a_edge2"><a xlink:title="From doorOpen to readyToCook on doorClosed&#13;Transition Action:&#10; &#160;&#160;&#160;&#160;setIsDoorOpened(false);">
<path fill="none" stroke="#000000" d="M294.3142,-18.8907C432.2566,-22.7475 916,-40.7798 916,-104 916,-276 916,-276 916,-276 916,-308.0873 828.9225,-335.0337 768.8294,-349.8093"/>
<polygon fill="#000000" stroke="#000000" points="767.9656,-346.4172 759.0638,-352.1626 769.6055,-353.2224 767.9656,-346.4172"/>
</a>
</g>
<text text-anchor="middle" x="965.6904" y="-185.8" font-family="Times,serif" font-size="14.00" fill="#000000">doorClosed / {...}</text>
</g>
<!-- Microwave_operatingMicrowaveStateMachine_cookingInterrupted -->
<g id="node5" class="node">
<title>Microwave_operatingMicrowaveStateMachine_cookingInterrupted</title>
<g id="a_node5"><a xlink:title="Class Microwave, SM operatingMicrowaveStateMachine, State cookingInterrupted&#13;Entry:&#10; &#160;&#160;turnOff();">
<path fill="none" stroke="#000000" d="M719.7972,-122C719.7972,-122 620.2028,-122 620.2028,-122 614.2028,-122 608.2028,-116 608.2028,-110 608.2028,-110 608.2028,-98 608.2028,-98 608.2028,-92 614.2028,-86 620.2028,-86 620.2028,-86 719.7972,-86 719.7972,-86 725.7972,-86 731.7972,-92 731.7972,-98 731.7972,-98 731.7972,-110 731.7972,-110 731.7972,-116 725.7972,-122 719.7972,-122"/>
<text text-anchor="middle" x="670" y="-99.8" font-family="Times,serif" font-size="14.00" fill="#000000">cookingInterrupted</text>
</a>
</g>
</g>
<!-- Microwave_operatingMicrowaveStateMachine_cooking&#45;&gt;Microwave_operatingMicrowaveStateMachine_cookingInterrupted -->
<g id="edge8" class="edge">
<title>Microwave_operatingMicrowaveStateMachine_cooking&#45;&gt;Microwave_operatingMicrowaveStateMachine_cookingInterrupted</title>
<g id="a_edge8"><a xlink:title="From cooking to cookingInterrupted on doorOpened&#13;Transition Action:&#10; &#160;&#160;&#160;&#160;setIsDoorOpened(true);">
<path fill="none" stroke="#000000" d="M482.0875,-268.0397C532.8261,-256.1265 621.4756,-232.4352 643,-208 661.4151,-187.0946 667.5331,-155.1855 669.4346,-132.2266"/>
<polygon fill="#000000" stroke="#000000" points="672.9386,-132.2654 670.0528,-122.0712 665.9515,-131.84 672.9386,-132.2654"/>
</a>
</g>
<text text-anchor="middle" x="713.0146" y="-185.8" font-family="Times,serif" font-size="14.00" fill="#000000">doorOpened / {...}</text>
</g>
<!-- Microwave_operatingMicrowaveStateMachine_cookingComplete -->
<g id="node6" class="node">
<title>Microwave_operatingMicrowaveStateMachine_cookingComplete</title>
<g id="a_node6"><a xlink:title="Class Microwave, SM operatingMicrowaveStateMachine, State cookingComplete&#13;Entry:&#10; &#160;&#160;turnOff();">
<path fill="none" stroke="#000000" d="M303.539,-122C303.539,-122 212.461,-122 212.461,-122 206.461,-122 200.461,-116 200.461,-110 200.461,-110 200.461,-98 200.461,-98 200.461,-92 206.461,-86 212.461,-86 212.461,-86 303.539,-86 303.539,-86 309.539,-86 315.539,-92 315.539,-98 315.539,-98 315.539,-110 315.539,-110 315.539,-116 309.539,-122 303.539,-122"/>
<text text-anchor="middle" x="258" y="-99.8" font-family="Times,serif" font-size="14.00" fill="#000000">cookingComplete</text>
</a>
</g>
</g>
<!-- Microwave_operatingMicrowaveStateMachine_cooking&#45;&gt;Microwave_operatingMicrowaveStateMachine_cookingComplete -->
<g id="edge10" class="edge">
<title>Microwave_operatingMicrowaveStateMachine_cooking&#45;&gt;Microwave_operatingMicrowaveStateMachine_cookingComplete</title>
<g id="a_edge10"><a xlink:title="From cooking to cookingComplete on timerTimesout">
<path fill="none" stroke="#000000" d="M409.7727,-272.6752C341.1801,-265.5444 196.5524,-246.2334 167.0576,-208 144.8003,-179.1484 180.9889,-147.9136 214.0924,-127.2853"/>
<polygon fill="#000000" stroke="#000000" points="216.0837,-130.172 222.8492,-122.0186 212.4758,-124.1734 216.0837,-130.172"/>
</a>
</g>
<text text-anchor="middle" x="208.9712" y="-185.8" font-family="Times,serif" font-size="14.00" fill="#000000">timerTimesout</text>
</g>
<!-- Microwave_operatingMicrowaveStateMachine_cookingExtended -->
<g id="node7" class="node">
<title>Microwave_operatingMicrowaveStateMachine_cookingExtended</title>
<g id="a_node7"><a xlink:title="Class Microwave, SM operatingMicrowaveStateMachine, State cookingExtended&#13;Entry:&#10; &#160;&#160;// add 1 minute to timer&#10; &#160;&#160;timer.setTimeMs(TimeIncrementMs + timer.getTimeMs());&#10; &#160;&#160;//release a button&#10; &#160;&#160;setIsButtonPressed(false);">
<path fill="none" stroke="#000000" d="M490.9727,-208C490.9727,-208 401.0273,-208 401.0273,-208 395.0273,-208 389.0273,-202 389.0273,-196 389.0273,-196 389.0273,-184 389.0273,-184 389.0273,-178 395.0273,-172 401.0273,-172 401.0273,-172 490.9727,-172 490.9727,-172 496.9727,-172 502.9727,-178 502.9727,-184 502.9727,-184 502.9727,-196 502.9727,-196 502.9727,-202 496.9727,-208 490.9727,-208"/>
<text text-anchor="middle" x="446" y="-185.8" font-family="Times,serif" font-size="14.00" fill="#000000">cookingExtended</text>
</a>
</g>
</g>
<!-- Microwave_operatingMicrowaveStateMachine_cooking&#45;&gt;Microwave_operatingMicrowaveStateMachine_cookingExtended -->
<g id="edge12" class="edge">
<title>Microwave_operatingMicrowaveStateMachine_cooking&#45;&gt;Microwave_operatingMicrowaveStateMachine_cookingExtended</title>
<g id="a_edge12"><a xlink:title="From cooking to cookingExtended on buttonPressed&#13;Transition Action:&#10; &#160;&#160;&#160;&#160;setIsButtonPressed(true);">
<path fill="none" stroke="#000000" d="M446,-257.7616C446,-246.3597 446,-231.4342 446,-218.494"/>
<polygon fill="#000000" stroke="#000000" points="449.5001,-218.2121 446,-208.2121 442.5001,-218.2121 449.5001,-218.2121"/>
</a>
</g>
<text text-anchor="middle" x="502.6904" y="-228.8" font-family="Times,serif" font-size="14.00" fill="#000000">buttonPressed / {...}</text>
</g>
<!-- Microwave_operatingMicrowaveStateMachine_cookingInterrupted&#45;&gt;Microwave_operatingMicrowaveStateMachine_readyToCook -->
<g id="edge3" class="edge">
<title>Microwave_operatingMicrowaveStateMachine_cookingInterrupted&#45;&gt;Microwave_operatingMicrowaveStateMachine_readyToCook</title>
<g id="a_edge3"><a xlink:title="From cookingInterrupted to readyToCook on doorClosed&#13;Transition Action:&#10; &#160;&#160;&#160;&#160;setIsDoorOpened(false);">
<path fill="none" stroke="#000000" d="M713.4963,-122.0223C734.3014,-133.1252 757.2008,-149.581 769,-172 797.6172,-226.3739 759.0078,-297.4031 733.0733,-335.3509"/>
<polygon fill="#000000" stroke="#000000" points="730.011,-333.6209 727.1214,-343.8141 735.7369,-337.6477 730.011,-333.6209"/>
</a>
</g>
<text text-anchor="middle" x="827.6904" y="-228.8" font-family="Times,serif" font-size="14.00" fill="#000000">doorClosed / {...}</text>
</g>
<!-- Microwave_operatingMicrowaveStateMachine_cookingComplete&#45;&gt;Microwave_operatingMicrowaveStateMachine_doorOpen -->
<g id="edge5" class="edge">
<title>Microwave_operatingMicrowaveStateMachine_cookingComplete&#45;&gt;Microwave_operatingMicrowaveStateMachine_doorOpen</title>
<g id="a_edge5"><a xlink:title="From cookingComplete to doorOpen on doorOpened&#13;Transition Action:&#10; &#160;&#160;&#160;&#160;setIsDoorOpened(true);">
<path fill="none" stroke="#000000" d="M258,-85.7616C258,-74.3597 258,-59.4342 258,-46.494"/>
<polygon fill="#000000" stroke="#000000" points="261.5001,-46.2121 258,-36.2121 254.5001,-46.2121 261.5001,-46.2121"/>
</a>
</g>
<text text-anchor="middle" x="310.0146" y="-56.8" font-family="Times,serif" font-size="14.00" fill="#000000">doorOpened / {...}</text>
</g>
<!-- Microwave_operatingMicrowaveStateMachine_cookingComplete&#45;&gt;Microwave_operatingMicrowaveStateMachine_cooking -->
<g id="edge7" class="edge">
<title>Microwave_operatingMicrowaveStateMachine_cookingComplete&#45;&gt;Microwave_operatingMicrowaveStateMachine_cooking</title>
<g id="a_edge7"><a xlink:title="From cookingComplete to cooking on buttonPressed&#13;Transition Action:&#10; &#160;&#160;&#160;&#160;setIsButtonPressed(true);">
<path fill="none" stroke="#000000" d="M254.1192,-122.2039C250.4245,-144.7181 247.8704,-183.1091 266.6191,-208 283.1285,-229.9178 352.704,-251.7931 400.1916,-264.5998"/>
<polygon fill="#000000" stroke="#000000" points="399.3995,-268.0106 409.9626,-267.1917 401.1943,-261.2446 399.3995,-268.0106"/>
</a>
</g>
<text text-anchor="middle" x="323.6904" y="-185.8" font-family="Times,serif" font-size="14.00" fill="#000000">buttonPressed / {...}</text>
</g>
<!-- Microwave_operatingMicrowaveStateMachine_cookingExtended&#45;&gt;Microwave_operatingMicrowaveStateMachine_cookingInterrupted -->
<g id="edge9" class="edge">
<title>Microwave_operatingMicrowaveStateMachine_cookingExtended&#45;&gt;Microwave_operatingMicrowaveStateMachine_cookingInterrupted</title>
<g id="a_edge9"><a xlink:title="From cookingExtended to cookingInterrupted on doorOpened&#13;Transition Action:&#10; &#160;&#160;&#160;&#160;setIsDoorOpened(true);">
<path fill="none" stroke="#000000" d="M481.2467,-171.7954C501.6007,-161.6833 527.8693,-149.3051 551.9707,-140 566.7255,-134.3034 582.7865,-128.8984 598.173,-124.0906"/>
<polygon fill="#000000" stroke="#000000" points="599.6352,-127.3029 608.1663,-121.0204 597.5793,-120.6116 599.6352,-127.3029"/>
</a>
</g>
<text text-anchor="middle" x="603.0146" y="-142.8" font-family="Times,serif" font-size="14.00" fill="#000000">doorOpened / {...}</text>
</g>
<!-- Microwave_operatingMicrowaveStateMachine_cookingExtended&#45;&gt;Microwave_operatingMicrowaveStateMachine_cookingComplete -->
<g id="edge11" class="edge">
<title>Microwave_operatingMicrowaveStateMachine_cookingExtended&#45;&gt;Microwave_operatingMicrowaveStateMachine_cookingComplete</title>
<g id="a_edge11"><a xlink:title="From cookingExtended to cookingComplete on timerTimesout">
<path fill="none" stroke="#000000" d="M406.589,-171.9716C377.5111,-158.67 337.7679,-140.4896 306.7007,-126.278"/>
<polygon fill="#000000" stroke="#000000" points="307.9088,-122.9818 297.3591,-122.0047 304.9968,-129.3474 307.9088,-122.9818"/>
</a>
</g>
<text text-anchor="middle" x="404.9712" y="-142.8" font-family="Times,serif" font-size="14.00" fill="#000000">timerTimesout</text>
</g>
<!-- Microwave_operatingMicrowaveStateMachine_cookingExtended&#45;&gt;Microwave_operatingMicrowaveStateMachine_cookingExtended -->
<g id="edge13" class="edge">
<title>Microwave_operatingMicrowaveStateMachine_cookingExtended&#45;&gt;Microwave_operatingMicrowaveStateMachine_cookingExtended</title>
<g id="a_edge13"><a xlink:title="From cookingExtended to cookingExtended on buttonPressed&#13;Transition Action:&#10; &#160;&#160;&#160;&#160;setIsButtonPressed(true);">
<path fill="none" stroke="#000000" d="M503.2152,-197.4424C513.6604,-196.5003 520.9863,-194.0195 520.9863,-190 520.9863,-187.4878 518.1246,-185.5767 513.4283,-184.2666"/>
<polygon fill="#000000" stroke="#000000" points="513.6557,-180.7561 503.2152,-182.5576 512.5004,-187.6601 513.6557,-180.7561"/>
</a>
</g>
<text text-anchor="middle" x="577.6768" y="-185.8" font-family="Times,serif" font-size="14.00" fill="#000000">buttonPressed / {...}</text>
</g>
</g>
</svg>
