<?xml version="1.0" encoding="UTF-8" standalone="no"?>
<!DOCTYPE svg PUBLIC "-//W3C//DTD SVG 1.1//EN"
 "http://www.w3.org/Graphics/SVG/1.1/DTD/svg11.dtd">
<!-- Generated by graphviz version 2.39.20140502.0445 (20140502.0445)
 -->
<!-- Title: Ovens Pages: 1 -->
<svg width="2242pt" height="433pt"
 viewBox="0.00 0.00 2242.00 433.00" xmlns="http://www.w3.org/2000/svg" xmlns:xlink="http://www.w3.org/1999/xlink">
<g id="graph0" class="graph" transform="scale(1 1) rotate(0) translate(4 429)">
<title>Ovens</title>
<polygon fill="white" stroke="none" points="-4,4 -4,-429 2238,-429 2238,4 -4,4"/>
<g id="clust1" class="cluster"><title>clusterOven1_cook</title>
<polygon fill="none" stroke="black" stroke-width="0.5" points="8,-269 8,-417 128,-417 128,-269 8,-269"/>
<text text-anchor="middle" x="68" y="-401.8" font-family="Times,serif" font-size="14.00">sm Oven1 cook</text>
</g>
<g id="clust2" class="cluster"><title>clusterOven1_ovenstate</title>
<polygon fill="none" stroke="black" stroke-width="0.5" points="136,-95 136,-406.2 470,-406.2 470,-95 136,-95"/>
<text text-anchor="middle" x="303" y="-391" font-family="Times,serif" font-size="14.00">sm Oven1 ovenstate</text>
</g>
<g id="clust3" class="cluster"><title>clusterOven2_cook</title>
<polygon fill="none" stroke="black" stroke-width="0.5" points="478,-269 478,-417 598,-417 598,-269 478,-269"/>
<text text-anchor="middle" x="538" y="-401.8" font-family="Times,serif" font-size="14.00">sm Oven2 cook</text>
</g>
<g id="clust4" class="cluster"><title>clusterOven2_ovenstate</title>
<polygon fill="none" stroke="black" stroke-width="0.5" points="606,-8 606,-406.2 1212,-406.2 1212,-8 606,-8"/>
<text text-anchor="middle" x="909" y="-391" font-family="Times,serif" font-size="14.00">sm Oven2 ovenstate</text>
</g>
<g id="clust5" class="cluster"><title>clusterOven3_cook</title>
<polygon fill="none" stroke="black" stroke-width="0.5" points="1220,-269 1220,-417 1340,-417 1340,-269 1220,-269"/>
<text text-anchor="middle" x="1280" y="-401.8" font-family="Times,serif" font-size="14.00">sm Oven3 cook</text>
</g>
<g id="clust6" class="cluster"><title>clusterOven3_ovenstate</title>
<polygon fill="none" stroke="black" stroke-width="0.5" points="1348,-269 1348,-406.2 2226,-406.2 2226,-269 1348,-269"/>
<text text-anchor="middle" x="1787" y="-391" font-family="Times,serif" font-size="14.00">sm Oven3 ovenstate</text>
</g>
<!-- start_Oven1_cook -->
<g id="node1" class="node"><title>start_Oven1_cook</title>
<ellipse fill="black" stroke="black" cx="113" cy="-368" rx="7.2" ry="7.2"/>
</g>
<!-- Oven1_cook_OFF -->
<g id="node2" class="node"><title>Oven1_cook_OFF</title>
<path fill="none" stroke="black" d="M108,-313C108,-313 60,-313 60,-313 54,-313 48,-307 48,-301 48,-301 48,-289 48,-289 48,-283 54,-277 60,-277 60,-277 108,-277 108,-277 114,-277 120,-283 120,-289 120,-289 120,-301 120,-301 120,-307 114,-313 108,-313"/>
<text text-anchor="middle" x="84" y="-291.3" font-family="Times,serif" font-size="14.00">OFF</text>
</g>
<!-- start_Oven1_cook&#45;&gt;Oven1_cook_OFF -->
<g id="edge1" class="edge"><title>start_Oven1_cook&#45;&gt;Oven1_cook_OFF</title>
<g id="a_edge1"><a xlink:title="start &#160;&#45;&gt; OFF">
<path fill="none" stroke="black" d="M94.9678,-322.852 100.644,-336.749 107.089,-352.527 110.527,-360.947"/>
<polygon fill="black" stroke="black" points="98.0462,-321.133 91.0247,-313.198 91.5659,-323.779 98.0462,-321.133"/>
</a>
</g>
</g>
<!-- Oven1_cook_ON -->
<g id="node3" class="node"><title>Oven1_cook_ON</title>
<path fill="none" stroke="black" d="M76,-386C76,-386 28,-386 28,-386 22,-386 16,-380 16,-374 16,-374 16,-362 16,-362 16,-356 22,-350 28,-350 28,-350 76,-350 76,-350 82,-350 88,-356 88,-362 88,-362 88,-374 88,-374 88,-380 82,-386 76,-386"/>
<text text-anchor="middle" x="52" y="-364.3" font-family="Times,serif" font-size="14.00">ON</text>
</g>
<!-- start_Oven1_ovenstate -->
<g id="node4" class="node"><title>start_Oven1_ovenstate</title>
<ellipse fill="black" stroke="black" cx="180" cy="-368" rx="7.2" ry="7.2"/>
</g>
<!-- Oven1_ovenstate_s1_1 -->
<g id="node5" class="node"><title>Oven1_ovenstate_s1_1</title>
<path fill="none" stroke="black" d="M204,-313C204,-313 156,-313 156,-313 150,-313 144,-307 144,-301 144,-301 144,-289 144,-289 144,-283 150,-277 156,-277 156,-277 204,-277 204,-277 210,-277 216,-283 216,-289 216,-289 216,-301 216,-301 216,-307 210,-313 204,-313"/>
<text text-anchor="middle" x="180" y="-291.3" font-family="Times,serif" font-size="14.00">s1_1</text>
</g>
<!-- start_Oven1_ovenstate&#45;&gt;Oven1_ovenstate_s1_1 -->
<g id="edge2" class="edge"><title>start_Oven1_ovenstate&#45;&gt;Oven1_ovenstate_s1_1</title>
<g id="a_edge2"><a xlink:title="start &#160;&#45;&gt; s1_1">
<path fill="none" stroke="black" d="M180,-360.448C180,-352.05 180,-336.967 180,-323.502"/>
<polygon fill="black" stroke="black" points="183.5,-323.21 180,-313.21 176.5,-323.21 183.5,-323.21"/>
</a>
</g>
</g>
<!-- Oven1_ovenstate_s1_2 -->
<g id="node6" class="node"><title>Oven1_ovenstate_s1_2</title>
<path fill="none" stroke="black" d="M204,-226C204,-226 156,-226 156,-226 150,-226 144,-220 144,-214 144,-214 144,-202 144,-202 144,-196 150,-190 156,-190 156,-190 204,-190 204,-190 210,-190 216,-196 216,-202 216,-202 216,-214 216,-214 216,-220 210,-226 204,-226"/>
<text text-anchor="middle" x="180" y="-204.3" font-family="Times,serif" font-size="14.00">s1_2</text>
</g>
<!-- Oven1_ovenstate_s1_1&#45;&gt;Oven1_ovenstate_s1_2 -->
<g id="edge3" class="edge"><title>Oven1_ovenstate_s1_1&#45;&gt;Oven1_ovenstate_s1_2</title>
<g id="a_edge3"><a xlink:title="s1_1 enterTime(Integer t) [t&gt;0] / leftTime = t; &#45;&gt; s1_2">
<path fill="none" stroke="black" d="M180,-276.799C180,-265.163 180,-249.548 180,-236.237"/>
<polygon fill="black" stroke="black" points="183.5,-236.175 180,-226.175 176.5,-236.175 183.5,-236.175"/>
</a>
</g>
<text text-anchor="middle" x="294" y="-247.8" font-family="Times,serif" font-size="14.00">enterTime(Integer t) [t&gt;0] / leftTime = t;</text>
</g>
<!-- Oven1_ovenstate_s1_2&#45;&gt;Oven1_ovenstate_s1_2 -->
<g id="edge4" class="edge"><title>Oven1_ovenstate_s1_2&#45;&gt;Oven1_ovenstate_s1_2</title>
<g id="a_edge4"><a xlink:title="s1_2 enterTime(Integer t) [t&gt;0] / leftTime = t; &#45;&gt; s1_2">
<path fill="none" stroke="black" d="M216.087,-215.836C226.221,-215.493 234,-212.881 234,-208 234,-204.949 230.961,-202.785 226.208,-201.507"/>
<polygon fill="black" stroke="black" points="226.461,-198.01 216.087,-200.164 225.54,-204.949 226.461,-198.01"/>
</a>
</g>
<text text-anchor="middle" x="348" y="-204.3" font-family="Times,serif" font-size="14.00">enterTime(Integer t) [t&gt;0] / leftTime = t;</text>
</g>
<!-- Oven1_ovenstate_s1_3 -->
<g id="node7" class="node"><title>Oven1_ovenstate_s1_3</title>
<path fill="none" stroke="black" d="M204,-139C204,-139 156,-139 156,-139 150,-139 144,-133 144,-127 144,-127 144,-115 144,-115 144,-109 150,-103 156,-103 156,-103 204,-103 204,-103 210,-103 216,-109 216,-115 216,-115 216,-127 216,-127 216,-133 210,-139 204,-139"/>
<text text-anchor="middle" x="180" y="-117.3" font-family="Times,serif" font-size="14.00">s1_3</text>
</g>
<!-- Oven1_ovenstate_s1_2&#45;&gt;Oven1_ovenstate_s1_3 -->
<g id="edge5" class="edge"><title>Oven1_ovenstate_s1_2&#45;&gt;Oven1_ovenstate_s1_3</title>
<g id="a_edge5"><a xlink:title="s1_2 start / cook = Cook.ON; &#45;&gt; s1_3">
<path fill="none" stroke="black" d="M180,-189.799C180,-178.163 180,-162.548 180,-149.237"/>
<polygon fill="black" stroke="black" points="183.5,-149.175 180,-139.175 176.5,-149.175 183.5,-149.175"/>
</a>
</g>
<text text-anchor="middle" x="248" y="-160.8" font-family="Times,serif" font-size="14.00">start / cook = Cook.ON;</text>
</g>
<!-- start_Oven2_cook -->
<g id="node8" class="node"><title>start_Oven2_cook</title>
<ellipse fill="black" stroke="black" cx="583" cy="-368" rx="7.2" ry="7.2"/>
</g>
<!-- Oven2_cook_OFF -->
<g id="node9" class="node"><title>Oven2_cook_OFF</title>
<path fill="none" stroke="black" d="M578,-313C578,-313 530,-313 530,-313 524,-313 518,-307 518,-301 518,-301 518,-289 518,-289 518,-283 524,-277 530,-277 530,-277 578,-277 578,-277 584,-277 590,-283 590,-289 590,-289 590,-301 590,-301 590,-307 584,-313 578,-313"/>
<text text-anchor="middle" x="554" y="-291.3" font-family="Times,serif" font-size="14.00">OFF</text>
</g>
<!-- start_Oven2_cook&#45;&gt;Oven2_cook_OFF -->
<g id="edge6" class="edge"><title>start_Oven2_cook&#45;&gt;Oven2_cook_OFF</title>
<g id="a_edge6"><a xlink:title="start &#160;&#45;&gt; OFF">
<path fill="none" stroke="black" d="M564.968,-322.852 570.644,-336.749 577.089,-352.527 580.527,-360.947"/>
<polygon fill="black" stroke="black" points="568.046,-321.133 561.025,-313.198 561.566,-323.779 568.046,-321.133"/>
</a>
</g>
</g>
<!-- Oven2_cook_ON -->
<g id="node10" class="node"><title>Oven2_cook_ON</title>
<path fill="none" stroke="black" d="M546,-386C546,-386 498,-386 498,-386 492,-386 486,-380 486,-374 486,-374 486,-362 486,-362 486,-356 492,-350 498,-350 498,-350 546,-350 546,-350 552,-350 558,-356 558,-362 558,-362 558,-374 558,-374 558,-380 552,-386 546,-386"/>
<text text-anchor="middle" x="522" y="-364.3" font-family="Times,serif" font-size="14.00">ON</text>
</g>
<!-- start_Oven2_ovenstate -->
<g id="node11" class="node"><title>start_Oven2_ovenstate</title>
<ellipse fill="black" stroke="black" cx="809" cy="-368" rx="7.2" ry="7.2"/>
</g>
<!-- Oven2_ovenstate_s2_1 -->
<g id="node12" class="node"><title>Oven2_ovenstate_s2_1</title>
<path fill="none" stroke="black" d="M833,-313C833,-313 785,-313 785,-313 779,-313 773,-307 773,-301 773,-301 773,-289 773,-289 773,-283 779,-277 785,-277 785,-277 833,-277 833,-277 839,-277 845,-283 845,-289 845,-289 845,-301 845,-301 845,-307 839,-313 833,-313"/>
<text text-anchor="middle" x="809" y="-291.3" font-family="Times,serif" font-size="14.00">s2_1</text>
</g>
<!-- start_Oven2_ovenstate&#45;&gt;Oven2_ovenstate_s2_1 -->
<g id="edge7" class="edge"><title>start_Oven2_ovenstate&#45;&gt;Oven2_ovenstate_s2_1</title>
<g id="a_edge7"><a xlink:title="start &#160;&#45;&gt; s2_1">
<path fill="none" stroke="black" d="M809,-360.448C809,-352.05 809,-336.967 809,-323.502"/>
<polygon fill="black" stroke="black" points="812.5,-323.21 809,-313.21 805.5,-323.21 812.5,-323.21"/>
</a>
</g>
</g>
<!-- Oven2_ovenstate_s2_2 -->
<g id="node13" class="node"><title>Oven2_ovenstate_s2_2</title>
<path fill="none" stroke="black" d="M674,-226C674,-226 626,-226 626,-226 620,-226 614,-220 614,-214 614,-214 614,-202 614,-202 614,-196 620,-190 626,-190 626,-190 674,-190 674,-190 680,-190 686,-196 686,-202 686,-202 686,-214 686,-214 686,-220 680,-226 674,-226"/>
<text text-anchor="middle" x="650" y="-204.3" font-family="Times,serif" font-size="14.00">s2_2</text>
</g>
<!-- Oven2_ovenstate_s2_1&#45;&gt;Oven2_ovenstate_s2_2 -->
<g id="edge8" class="edge"><title>Oven2_ovenstate_s2_1&#45;&gt;Oven2_ovenstate_s2_2</title>
<g id="a_edge8"><a xlink:title="s2_1 enterTime(Integer t) [t&gt;1] / leftTime = t; &#45;&gt; s2_2">
<path fill="none" stroke="black" d="M686.482,-231.431 701.359,-240.323 718.835,-250.445 735,-259 747.184,-265.448 760.759,-272.035 772.922,-277.729"/>
<polygon fill="black" stroke="black" points="687.962,-228.237 677.589,-226.079 684.352,-234.235 687.962,-228.237"/>
</a>
</g>
<text text-anchor="middle" x="849" y="-247.8" font-family="Times,serif" font-size="14.00">enterTime(Integer t) [t&gt;1] / leftTime = t;</text>
</g>
<!-- Oven2_ovenstate_s2_3 -->
<g id="node14" class="node"><title>Oven2_ovenstate_s2_3</title>
<path fill="none" stroke="black" d="M827,-139C827,-139 779,-139 779,-139 773,-139 767,-133 767,-127 767,-127 767,-115 767,-115 767,-109 773,-103 779,-103 779,-103 827,-103 827,-103 833,-103 839,-109 839,-115 839,-115 839,-127 839,-127 839,-133 833,-139 827,-139"/>
<text text-anchor="middle" x="803" y="-117.3" font-family="Times,serif" font-size="14.00">s2_3</text>
</g>
<!-- Oven2_ovenstate_s2_1&#45;&gt;Oven2_ovenstate_s2_3 -->
<g id="edge11" class="edge"><title>Oven2_ovenstate_s2_1&#45;&gt;Oven2_ovenstate_s2_3</title>
<g id="a_edge11"><a xlink:title="s2_1 enterTime(Integer t) [t==1] / leftTime = t; &#45;&gt; s2_3">
<path fill="none" stroke="black" d="M845.043,-291.05C942.696,-281.789 1199.7,-248.277 1118,-157 1100.43,-137.365 932.781,-127.518 849.492,-123.804"/>
<polygon fill="black" stroke="black" points="849.429,-120.298 839.287,-123.361 849.126,-127.292 849.429,-120.298"/>
</a>
</g>
<text text-anchor="middle" x="1252" y="-204.3" font-family="Times,serif" font-size="14.00">enterTime(Integer t) [t==1] / leftTime = t;</text>
</g>
<!-- Oven2_ovenstate_s2_2&#45;&gt;Oven2_ovenstate_s2_2 -->
<g id="edge9" class="edge"><title>Oven2_ovenstate_s2_2&#45;&gt;Oven2_ovenstate_s2_2</title>
<g id="a_edge9"><a xlink:title="s2_2 enterTime(Integer t) [t&gt;1] / leftTime = t; &#45;&gt; s2_2">
<path fill="none" stroke="black" d="M686.087,-215.836C696.221,-215.493 704,-212.881 704,-208 704,-204.949 700.961,-202.785 696.208,-201.507"/>
<polygon fill="black" stroke="black" points="696.461,-198.01 686.087,-200.164 695.54,-204.949 696.461,-198.01"/>
</a>
</g>
<text text-anchor="middle" x="818" y="-204.3" font-family="Times,serif" font-size="14.00">enterTime(Integer t) [t&gt;1] / leftTime = t;</text>
</g>
<!-- Oven2_ovenstate_s2_2&#45;&gt;Oven2_ovenstate_s2_3 -->
<g id="edge12" class="edge"><title>Oven2_ovenstate_s2_2&#45;&gt;Oven2_ovenstate_s2_3</title>
<g id="a_edge12"><a xlink:title="s2_2 enterTime(Integer t) [t==1] / leftTime = t; &#45;&gt; s2_3">
<path fill="none" stroke="black" d="M686.047,-206.784C742.899,-205.591 849.375,-199.623 873,-172 885.206,-157.729 868.533,-145.414 848.406,-136.577"/>
<polygon fill="black" stroke="black" points="849.589,-133.28 839.007,-132.767 846.96,-139.767 849.589,-133.28"/>
</a>
</g>
<text text-anchor="middle" x="996" y="-160.8" font-family="Times,serif" font-size="14.00">enterTime(Integer t) [t==1] / leftTime = t;</text>
</g>
<!-- Oven2_ovenstate_s2_4 -->
<g id="node15" class="node"><title>Oven2_ovenstate_s2_4</title>
<path fill="none" stroke="black" d="M713,-52C713,-52 665,-52 665,-52 659,-52 653,-46 653,-40 653,-40 653,-28 653,-28 653,-22 659,-16 665,-16 665,-16 713,-16 713,-16 719,-16 725,-22 725,-28 725,-28 725,-40 725,-40 725,-46 719,-52 713,-52"/>
<text text-anchor="middle" x="689" y="-30.3" font-family="Times,serif" font-size="14.00">s2_4</text>
</g>
<!-- Oven2_ovenstate_s2_2&#45;&gt;Oven2_ovenstate_s2_4 -->
<g id="edge14" class="edge"><title>Oven2_ovenstate_s2_2&#45;&gt;Oven2_ovenstate_s2_4</title>
<g id="a_edge14"><a xlink:title="s2_2 start &#45;&gt; s2_4">
<path fill="none" stroke="black" d="M640.858,-189.558C636.939,-180.017 633.725,-167.944 636,-157 643.26,-122.07 661.059,-84.8675 674.034,-60.857"/>
<polygon fill="black" stroke="black" points="677.139,-62.4746 678.91,-52.0288 671.011,-59.0903 677.139,-62.4746"/>
</a>
</g>
<text text-anchor="middle" x="669.5" y="-117.3" font-family="Times,serif" font-size="14.00">start</text>
</g>
<!-- Oven2_ovenstate_s2_3&#45;&gt;Oven2_ovenstate_s2_2 -->
<g id="edge10" class="edge"><title>Oven2_ovenstate_s2_3&#45;&gt;Oven2_ovenstate_s2_2</title>
<g id="a_edge10"><a xlink:title="s2_3 enterTime(Integer t) [t&gt;1] / leftTime = t; &#45;&gt; s2_2">
<path fill="none" stroke="black" d="M640.369,-180.013 639.174,-171.874 639.855,-163.41 645,-157 659.993,-138.322 725.1,-128.998 766.917,-124.854"/>
<polygon fill="black" stroke="black" points="637.01,-181.024 642.69,-189.968 643.828,-179.434 637.01,-181.024"/>
</a>
</g>
<text text-anchor="middle" x="759" y="-160.8" font-family="Times,serif" font-size="14.00">enterTime(Integer t) [t&gt;1] / leftTime = t;</text>
</g>
<!-- Oven2_ovenstate_s2_3&#45;&gt;Oven2_ovenstate_s2_3 -->
<g id="edge13" class="edge"><title>Oven2_ovenstate_s2_3&#45;&gt;Oven2_ovenstate_s2_3</title>
<g id="a_edge13"><a xlink:title="s2_3 enterTime(Integer t) [t==1] / leftTime = t; &#45;&gt; s2_3">
<path fill="none" stroke="black" d="M839.087,-128.836C849.221,-128.493 857,-125.881 857,-121 857,-117.949 853.961,-115.785 849.208,-114.507"/>
<polygon fill="black" stroke="black" points="849.461,-111.01 839.087,-113.164 848.54,-117.949 849.461,-111.01"/>
</a>
</g>
<text text-anchor="middle" x="975" y="-117.3" font-family="Times,serif" font-size="14.00">enterTime(Integer t) [t==1] / leftTime = t;</text>
</g>
<!-- Oven2_ovenstate_s2_3&#45;&gt;Oven2_ovenstate_s2_4 -->
<g id="edge15" class="edge"><title>Oven2_ovenstate_s2_3&#45;&gt;Oven2_ovenstate_s2_4</title>
<g id="a_edge15"><a xlink:title="s2_3 start &#45;&gt; s2_4">
<path fill="none" stroke="black" d="M720.071,-58.1671 738.97,-72.2583 762.701,-89.9529 779.93,-102.799"/>
<polygon fill="black" stroke="black" points="722.144,-55.347 712.035,-52.1754 717.96,-60.9589 722.144,-55.347"/>
</a>
</g>
<text text-anchor="middle" x="765.5" y="-73.8" font-family="Times,serif" font-size="14.00">start</text>
</g>
<!-- start_Oven3_cook -->
<g id="node16" class="node"><title>start_Oven3_cook</title>
<ellipse fill="black" stroke="black" cx="1325" cy="-368" rx="7.2" ry="7.2"/>
</g>
<!-- Oven3_cook_OFF -->
<g id="node17" class="node"><title>Oven3_cook_OFF</title>
<path fill="none" stroke="black" d="M1320,-313C1320,-313 1272,-313 1272,-313 1266,-313 1260,-307 1260,-301 1260,-301 1260,-289 1260,-289 1260,-283 1266,-277 1272,-277 1272,-277 1320,-277 1320,-277 1326,-277 1332,-283 1332,-289 1332,-289 1332,-301 1332,-301 1332,-307 1326,-313 1320,-313"/>
<text text-anchor="middle" x="1296" y="-291.3" font-family="Times,serif" font-size="14.00">OFF</text>
</g>
<!-- start_Oven3_cook&#45;&gt;Oven3_cook_OFF -->
<g id="edge16" class="edge"><title>start_Oven3_cook&#45;&gt;Oven3_cook_OFF</title>
<g id="a_edge16"><a xlink:title="start &#160;&#45;&gt; OFF">
<path fill="none" stroke="black" d="M1306.97,-322.852 1312.64,-336.749 1319.09,-352.527 1322.53,-360.947"/>
<polygon fill="black" stroke="black" points="1310.05,-321.133 1303.02,-313.198 1303.57,-323.779 1310.05,-321.133"/>
</a>
</g>
</g>
<!-- Oven3_cook_ON -->
<g id="node18" class="node"><title>Oven3_cook_ON</title>
<path fill="none" stroke="black" d="M1288,-386C1288,-386 1240,-386 1240,-386 1234,-386 1228,-380 1228,-374 1228,-374 1228,-362 1228,-362 1228,-356 1234,-350 1240,-350 1240,-350 1288,-350 1288,-350 1294,-350 1300,-356 1300,-362 1300,-362 1300,-374 1300,-374 1300,-380 1294,-386 1288,-386"/>
<text text-anchor="middle" x="1264" y="-364.3" font-family="Times,serif" font-size="14.00">ON</text>
</g>
<!-- start_Oven3_ovenstate -->
<g id="node19" class="node"><title>start_Oven3_ovenstate</title>
<ellipse fill="black" stroke="black" cx="1392" cy="-368" rx="7.2" ry="7.2"/>
</g>
<!-- Oven3_ovenstate_s3_1 -->
<g id="node20" class="node"><title>Oven3_ovenstate_s3_1</title>
<path fill="none" stroke="black" d="M1416,-313C1416,-313 1368,-313 1368,-313 1362,-313 1356,-307 1356,-301 1356,-301 1356,-289 1356,-289 1356,-283 1362,-277 1368,-277 1368,-277 1416,-277 1416,-277 1422,-277 1428,-283 1428,-289 1428,-289 1428,-301 1428,-301 1428,-307 1422,-313 1416,-313"/>
<text text-anchor="middle" x="1392" y="-291.3" font-family="Times,serif" font-size="14.00">s3_1</text>
</g>
<!-- start_Oven3_ovenstate&#45;&gt;Oven3_ovenstate_s3_1 -->
<g id="edge17" class="edge"><title>start_Oven3_ovenstate&#45;&gt;Oven3_ovenstate_s3_1</title>
<g id="a_edge17"><a xlink:title="start &#160;&#45;&gt; s3_1">
<path fill="none" stroke="black" d="M1392,-360.448C1392,-352.05 1392,-336.967 1392,-323.502"/>
<polygon fill="black" stroke="black" points="1395.5,-323.21 1392,-313.21 1388.5,-323.21 1395.5,-323.21"/>
</a>
</g>
</g>
<!-- Oven3_ovenstate_s3_1&#45;&gt;Oven3_ovenstate_s3_1 -->
<g id="edge18" class="edge"><title>Oven3_ovenstate_s3_1&#45;&gt;Oven3_ovenstate_s3_1</title>
<g id="a_edge18"><a xlink:title="s3_1 enterTime(Integer t) [cook.equals(Cook.OFF)&amp;&amp;t&gt;0] / leftTime = t; &#45;&gt; s3_1">
<path fill="none" stroke="black" d="M1428.09,-298.358C1438.22,-298.211 1446,-297.092 1446,-295 1446,-293.693 1442.96,-292.765 1438.21,-292.217"/>
<polygon fill="black" stroke="black" points="1438.27,-288.715 1428.09,-291.642 1437.87,-295.704 1438.27,-288.715"/>
</a>
</g>
<text text-anchor="middle" x="1638.5" y="-291.3" font-family="Times,serif" font-size="14.00">enterTime(Integer t) [cook.equals(Cook.OFF)&amp;&amp;t&gt;0] / leftTime = t;</text>
</g>
<!-- Oven3_ovenstate_s3_1&#45;&gt;Oven3_ovenstate_s3_1 -->
<g id="edge19" class="edge"><title>Oven3_ovenstate_s3_1&#45;&gt;Oven3_ovenstate_s3_1</title>
<g id="a_edge19"><a xlink:title="s3_1 start [cook.equals(Cook.OFF)&amp;&amp;leftTime&gt;0] / cook = Cook.ON; &#45;&gt; s3_1">
<path fill="none" stroke="black" d="M1428.07,-298.523C1534.19,-303.786 1831,-302.611 1831,-295 1831,-287.619 1551.89,-286.291 1438.22,-291.017"/>
<polygon fill="black" stroke="black" points="1437.91,-287.527 1428.07,-291.477 1438.22,-294.52 1437.91,-287.527"/>
</a>
</g>
<text text-anchor="middle" x="2015.5" y="-291.3" font-family="Times,serif" font-size="14.00">start [cook.equals(Cook.OFF)&amp;&amp;leftTime&gt;0] / cook = Cook.ON;</text>
</g>
</g>
</svg>
