<?xml version="1.0" encoding="UTF-8" standalone="no"?>
<!DOCTYPE svg PUBLIC "-//W3C//DTD SVG 1.1//EN"
 "http://www.w3.org/Graphics/SVG/1.1/DTD/svg11.dtd">
<!-- Generated by graphviz version 2.36.0 (20140111.2315)
 -->
<!-- Title: Ovens Pages: 1 -->
<svg width="2242pt" height="437pt"
 viewBox="0.00 0.00 2242.00 437.00" xmlns="http://www.w3.org/2000/svg" xmlns:xlink="http://www.w3.org/1999/xlink">
<g id="graph0" class="graph" transform="scale(1 1) rotate(0) translate(4 433)">
<title>Ovens</title>
<polygon fill="white" stroke="none" points="-4,4 -4,-433 2238,-433 2238,4 -4,4"/>
<g id="clust1" class="cluster"><title>clusterOven1_cook</title>
<polygon fill="none" stroke="black" stroke-width="0.5" points="8,-272 8,-421 128,-421 128,-272 8,-272"/>
<text text-anchor="middle" x="68" y="-405.8" font-family="Times,serif" font-size="14.00">sm Oven1 cook</text>
</g>
<g id="clust2" class="cluster"><title>clusterOven1_ovenstate</title>
<polygon fill="none" stroke="black" stroke-width="0.5" points="136,-96 136,-410 470,-410 470,-96 136,-96"/>
<text text-anchor="middle" x="303" y="-394.8" font-family="Times,serif" font-size="14.00">sm Oven1 ovenstate</text>
</g>
<g id="clust3" class="cluster"><title>clusterOven2_cook</title>
<polygon fill="none" stroke="black" stroke-width="0.5" points="478,-272 478,-421 598,-421 598,-272 478,-272"/>
<text text-anchor="middle" x="538" y="-405.8" font-family="Times,serif" font-size="14.00">sm Oven2 cook</text>
</g>
<g id="clust4" class="cluster"><title>clusterOven2_ovenstate</title>
<polygon fill="none" stroke="black" stroke-width="0.5" points="606,-8 606,-410 1212,-410 1212,-8 606,-8"/>
<text text-anchor="middle" x="909" y="-394.8" font-family="Times,serif" font-size="14.00">sm Oven2 ovenstate</text>
</g>
<g id="clust5" class="cluster"><title>clusterOven3_cook</title>
<polygon fill="none" stroke="black" stroke-width="0.5" points="1220,-272 1220,-421 1340,-421 1340,-272 1220,-272"/>
<text text-anchor="middle" x="1280" y="-405.8" font-family="Times,serif" font-size="14.00">sm Oven3 cook</text>
</g>
<g id="clust6" class="cluster"><title>clusterOven3_ovenstate</title>
<polygon fill="none" stroke="black" stroke-width="0.5" points="1348,-272 1348,-410 2226,-410 2226,-272 1348,-272"/>
<text text-anchor="middle" x="1787" y="-394.8" font-family="Times,serif" font-size="14.00">sm Oven3 ovenstate</text>
</g>
<!-- start_Oven1_cook -->
<g id="node1" class="node"><title>start_Oven1_cook</title>
<ellipse fill="black" stroke="black" cx="113" cy="-372" rx="7.2" ry="7.2"/>
</g>
<!-- Oven1_cook_OFF -->
<g id="node2" class="node"><title>Oven1_cook_OFF</title>
<path fill="none" stroke="black" d="M108,-316C108,-316 60,-316 60,-316 54,-316 48,-310 48,-304 48,-304 48,-292 48,-292 48,-286 54,-280 60,-280 60,-280 108,-280 108,-280 114,-280 120,-286 120,-292 120,-292 120,-304 120,-304 120,-310 114,-316 108,-316"/>
<text text-anchor="middle" x="84" y="-294.3" font-family="Times,serif" font-size="14.00">OFF</text>
</g>
<!-- start_Oven1_cook&#45;&gt;Oven1_cook_OFF -->
<g id="edge1" class="edge"><title>start_Oven1_cook&#45;&gt;Oven1_cook_OFF</title>
<path fill="none" stroke="black" d="M110.527,-364.861C107.033,-356.185 100.434,-339.803 94.6929,-325.548"/>
<polygon fill="black" stroke="black" points="97.8863,-324.108 90.9036,-316.14 91.3932,-326.724 97.8863,-324.108"/>
</g>
<!-- Oven1_cook_ON -->
<g id="node3" class="node"><title>Oven1_cook_ON</title>
<path fill="none" stroke="black" d="M76,-390C76,-390 28,-390 28,-390 22,-390 16,-384 16,-378 16,-378 16,-366 16,-366 16,-360 22,-354 28,-354 28,-354 76,-354 76,-354 82,-354 88,-360 88,-366 88,-366 88,-378 88,-378 88,-384 82,-390 76,-390"/>
<text text-anchor="middle" x="52" y="-368.3" font-family="Times,serif" font-size="14.00">ON</text>
</g>
<!-- start_Oven1_ovenstate -->
<g id="node4" class="node"><title>start_Oven1_ovenstate</title>
<ellipse fill="black" stroke="black" cx="180" cy="-372" rx="7.2" ry="7.2"/>
</g>
<!-- Oven1_ovenstate_s1_1 -->
<g id="node5" class="node"><title>Oven1_ovenstate_s1_1</title>
<path fill="none" stroke="black" d="M204,-316C204,-316 156,-316 156,-316 150,-316 144,-310 144,-304 144,-304 144,-292 144,-292 144,-286 150,-280 156,-280 156,-280 204,-280 204,-280 210,-280 216,-286 216,-292 216,-292 216,-304 216,-304 216,-310 210,-316 204,-316"/>
<text text-anchor="middle" x="180" y="-294.3" font-family="Times,serif" font-size="14.00">s1_1</text>
</g>
<!-- start_Oven1_ovenstate&#45;&gt;Oven1_ovenstate_s1_1 -->
<g id="edge2" class="edge"><title>start_Oven1_ovenstate&#45;&gt;Oven1_ovenstate_s1_1</title>
<path fill="none" stroke="black" d="M180,-364.355C180,-355.7 180,-340.04 180,-326.219"/>
<polygon fill="black" stroke="black" points="183.5,-326.154 180,-316.154 176.5,-326.154 183.5,-326.154"/>
</g>
<!-- Oven1_ovenstate_s1_2 -->
<g id="node6" class="node"><title>Oven1_ovenstate_s1_2</title>
<path fill="none" stroke="black" d="M204,-228C204,-228 156,-228 156,-228 150,-228 144,-222 144,-216 144,-216 144,-204 144,-204 144,-198 150,-192 156,-192 156,-192 204,-192 204,-192 210,-192 216,-198 216,-204 216,-204 216,-216 216,-216 216,-222 210,-228 204,-228"/>
<text text-anchor="middle" x="180" y="-206.3" font-family="Times,serif" font-size="14.00">s1_2</text>
</g>
<!-- Oven1_ovenstate_s1_1&#45;&gt;Oven1_ovenstate_s1_2 -->
<g id="edge3" class="edge"><title>Oven1_ovenstate_s1_1&#45;&gt;Oven1_ovenstate_s1_2</title>
<path fill="none" stroke="black" d="M180,-279.597C180,-267.746 180,-251.817 180,-238.292"/>
<polygon fill="black" stroke="black" points="183.5,-238.084 180,-228.084 176.5,-238.084 183.5,-238.084"/>
<text text-anchor="middle" x="294" y="-250.3" font-family="Times,serif" font-size="14.00">enterTime(Integer t) [t&gt;0] / leftTime = t;</text>
</g>
<!-- Oven1_ovenstate_s1_2&#45;&gt;Oven1_ovenstate_s1_2 -->
<g id="edge4" class="edge"><title>Oven1_ovenstate_s1_2&#45;&gt;Oven1_ovenstate_s1_2</title>
<path fill="none" stroke="black" d="M216.087,-218.209C226.221,-217.85 234,-215.113 234,-210 234,-206.804 230.961,-204.537 226.208,-203.198"/>
<polygon fill="black" stroke="black" points="226.474,-199.701 216.087,-201.791 225.51,-206.635 226.474,-199.701"/>
<text text-anchor="middle" x="348" y="-206.3" font-family="Times,serif" font-size="14.00">enterTime(Integer t) [t&gt;0] / leftTime = t;</text>
</g>
<!-- Oven1_ovenstate_s1_3 -->
<g id="node7" class="node"><title>Oven1_ovenstate_s1_3</title>
<path fill="none" stroke="black" d="M204,-140C204,-140 156,-140 156,-140 150,-140 144,-134 144,-128 144,-128 144,-116 144,-116 144,-110 150,-104 156,-104 156,-104 204,-104 204,-104 210,-104 216,-110 216,-116 216,-116 216,-128 216,-128 216,-134 210,-140 204,-140"/>
<text text-anchor="middle" x="180" y="-118.3" font-family="Times,serif" font-size="14.00">s1_3</text>
</g>
<!-- Oven1_ovenstate_s1_2&#45;&gt;Oven1_ovenstate_s1_3 -->
<g id="edge5" class="edge"><title>Oven1_ovenstate_s1_2&#45;&gt;Oven1_ovenstate_s1_3</title>
<path fill="none" stroke="black" d="M180,-191.597C180,-179.746 180,-163.817 180,-150.292"/>
<polygon fill="black" stroke="black" points="183.5,-150.084 180,-140.084 176.5,-150.084 183.5,-150.084"/>
<text text-anchor="middle" x="248" y="-162.3" font-family="Times,serif" font-size="14.00">start / cook = Cook.ON;</text>
</g>
<!-- start_Oven2_cook -->
<g id="node8" class="node"><title>start_Oven2_cook</title>
<ellipse fill="black" stroke="black" cx="583" cy="-372" rx="7.2" ry="7.2"/>
</g>
<!-- Oven2_cook_OFF -->
<g id="node9" class="node"><title>Oven2_cook_OFF</title>
<path fill="none" stroke="black" d="M578,-316C578,-316 530,-316 530,-316 524,-316 518,-310 518,-304 518,-304 518,-292 518,-292 518,-286 524,-280 530,-280 530,-280 578,-280 578,-280 584,-280 590,-286 590,-292 590,-292 590,-304 590,-304 590,-310 584,-316 578,-316"/>
<text text-anchor="middle" x="554" y="-294.3" font-family="Times,serif" font-size="14.00">OFF</text>
</g>
<!-- start_Oven2_cook&#45;&gt;Oven2_cook_OFF -->
<g id="edge6" class="edge"><title>start_Oven2_cook&#45;&gt;Oven2_cook_OFF</title>
<path fill="none" stroke="black" d="M580.527,-364.861C577.033,-356.185 570.434,-339.803 564.693,-325.548"/>
<polygon fill="black" stroke="black" points="567.886,-324.108 560.904,-316.14 561.393,-326.724 567.886,-324.108"/>
</g>
<!-- Oven2_cook_ON -->
<g id="node10" class="node"><title>Oven2_cook_ON</title>
<path fill="none" stroke="black" d="M546,-390C546,-390 498,-390 498,-390 492,-390 486,-384 486,-378 486,-378 486,-366 486,-366 486,-360 492,-354 498,-354 498,-354 546,-354 546,-354 552,-354 558,-360 558,-366 558,-366 558,-378 558,-378 558,-384 552,-390 546,-390"/>
<text text-anchor="middle" x="522" y="-368.3" font-family="Times,serif" font-size="14.00">ON</text>
</g>
<!-- start_Oven2_ovenstate -->
<g id="node11" class="node"><title>start_Oven2_ovenstate</title>
<ellipse fill="black" stroke="black" cx="809" cy="-372" rx="7.2" ry="7.2"/>
</g>
<!-- Oven2_ovenstate_s2_1 -->
<g id="node12" class="node"><title>Oven2_ovenstate_s2_1</title>
<path fill="none" stroke="black" d="M833,-316C833,-316 785,-316 785,-316 779,-316 773,-310 773,-304 773,-304 773,-292 773,-292 773,-286 779,-280 785,-280 785,-280 833,-280 833,-280 839,-280 845,-286 845,-292 845,-292 845,-304 845,-304 845,-310 839,-316 833,-316"/>
<text text-anchor="middle" x="809" y="-294.3" font-family="Times,serif" font-size="14.00">s2_1</text>
</g>
<!-- start_Oven2_ovenstate&#45;&gt;Oven2_ovenstate_s2_1 -->
<g id="edge7" class="edge"><title>start_Oven2_ovenstate&#45;&gt;Oven2_ovenstate_s2_1</title>
<path fill="none" stroke="black" d="M809,-364.355C809,-355.7 809,-340.04 809,-326.219"/>
<polygon fill="black" stroke="black" points="812.5,-326.154 809,-316.154 805.5,-326.154 812.5,-326.154"/>
</g>
<!-- Oven2_ovenstate_s2_2 -->
<g id="node13" class="node"><title>Oven2_ovenstate_s2_2</title>
<path fill="none" stroke="black" d="M674,-228C674,-228 626,-228 626,-228 620,-228 614,-222 614,-216 614,-216 614,-204 614,-204 614,-198 620,-192 626,-192 626,-192 674,-192 674,-192 680,-192 686,-198 686,-204 686,-204 686,-216 686,-216 686,-222 680,-228 674,-228"/>
<text text-anchor="middle" x="650" y="-206.3" font-family="Times,serif" font-size="14.00">s2_2</text>
</g>
<!-- Oven2_ovenstate_s2_1&#45;&gt;Oven2_ovenstate_s2_2 -->
<g id="edge8" class="edge"><title>Oven2_ovenstate_s2_1&#45;&gt;Oven2_ovenstate_s2_2</title>
<path fill="none" stroke="black" d="M772.889,-280.791C760.724,-275.101 747.156,-268.501 735,-262 718.663,-253.263 701.034,-242.855 686.089,-233.727"/>
<polygon fill="black" stroke="black" points="687.517,-230.496 677.167,-228.235 683.848,-236.457 687.517,-230.496"/>
<text text-anchor="middle" x="849" y="-250.3" font-family="Times,serif" font-size="14.00">enterTime(Integer t) [t&gt;1] / leftTime = t;</text>
</g>
<!-- Oven2_ovenstate_s2_3 -->
<g id="node14" class="node"><title>Oven2_ovenstate_s2_3</title>
<path fill="none" stroke="black" d="M827,-140C827,-140 779,-140 779,-140 773,-140 767,-134 767,-128 767,-128 767,-116 767,-116 767,-110 773,-104 779,-104 779,-104 827,-104 827,-104 833,-104 839,-110 839,-116 839,-116 839,-128 839,-128 839,-134 833,-140 827,-140"/>
<text text-anchor="middle" x="803" y="-118.3" font-family="Times,serif" font-size="14.00">s2_3</text>
</g>
<!-- Oven2_ovenstate_s2_1&#45;&gt;Oven2_ovenstate_s2_3 -->
<g id="edge11" class="edge"><title>Oven2_ovenstate_s2_1&#45;&gt;Oven2_ovenstate_s2_3</title>
<path fill="none" stroke="black" d="M845.063,-293.893C942.768,-284.2 1199.89,-249.498 1118,-158 1100.43,-138.365 932.781,-128.518 849.492,-124.804"/>
<polygon fill="black" stroke="black" points="849.429,-121.298 839.287,-124.361 849.126,-128.292 849.429,-121.298"/>
<text text-anchor="middle" x="1252" y="-206.3" font-family="Times,serif" font-size="14.00">enterTime(Integer t) [t==1] / leftTime = t;</text>
</g>
<!-- Oven2_ovenstate_s2_2&#45;&gt;Oven2_ovenstate_s2_2 -->
<g id="edge9" class="edge"><title>Oven2_ovenstate_s2_2&#45;&gt;Oven2_ovenstate_s2_2</title>
<path fill="none" stroke="black" d="M686.087,-218.209C696.221,-217.85 704,-215.113 704,-210 704,-206.804 700.961,-204.537 696.208,-203.198"/>
<polygon fill="black" stroke="black" points="696.474,-199.701 686.087,-201.791 695.51,-206.635 696.474,-199.701"/>
<text text-anchor="middle" x="818" y="-206.3" font-family="Times,serif" font-size="14.00">enterTime(Integer t) [t&gt;1] / leftTime = t;</text>
</g>
<!-- Oven2_ovenstate_s2_2&#45;&gt;Oven2_ovenstate_s2_3 -->
<g id="edge12" class="edge"><title>Oven2_ovenstate_s2_2&#45;&gt;Oven2_ovenstate_s2_3</title>
<path fill="none" stroke="black" d="M686.047,-208.784C742.899,-207.591 849.375,-201.623 873,-174 885.289,-159.632 868.618,-147.074 848.471,-138.015"/>
<polygon fill="black" stroke="black" points="849.639,-134.71 839.061,-134.105 846.952,-141.174 849.639,-134.71"/>
<text text-anchor="middle" x="996" y="-162.3" font-family="Times,serif" font-size="14.00">enterTime(Integer t) [t==1] / leftTime = t;</text>
</g>
<!-- Oven2_ovenstate_s2_4 -->
<g id="node15" class="node"><title>Oven2_ovenstate_s2_4</title>
<path fill="none" stroke="black" d="M713,-52C713,-52 665,-52 665,-52 659,-52 653,-46 653,-40 653,-40 653,-28 653,-28 653,-22 659,-16 665,-16 665,-16 713,-16 713,-16 719,-16 725,-22 725,-28 725,-28 725,-40 725,-40 725,-46 719,-52 713,-52"/>
<text text-anchor="middle" x="689" y="-30.3" font-family="Times,serif" font-size="14.00">s2_4</text>
</g>
<!-- Oven2_ovenstate_s2_2&#45;&gt;Oven2_ovenstate_s2_4 -->
<g id="edge14" class="edge"><title>Oven2_ovenstate_s2_2&#45;&gt;Oven2_ovenstate_s2_4</title>
<path fill="none" stroke="black" d="M641.028,-191.668C637.018,-181.862 633.663,-169.33 636,-158 643.257,-122.818 661.058,-85.3036 674.033,-61.0852"/>
<polygon fill="black" stroke="black" points="677.176,-62.6323 678.909,-52.1801 671.036,-59.2703 677.176,-62.6323"/>
<text text-anchor="middle" x="669.5" y="-118.3" font-family="Times,serif" font-size="14.00">start</text>
</g>
<!-- Oven2_ovenstate_s2_3&#45;&gt;Oven2_ovenstate_s2_2 -->
<g id="edge10" class="edge"><title>Oven2_ovenstate_s2_3&#45;&gt;Oven2_ovenstate_s2_2</title>
<path fill="none" stroke="black" d="M766.917,-125.854C725.1,-129.998 659.993,-139.322 645,-158 639.694,-164.609 639.03,-173.362 640.287,-181.748"/>
<polygon fill="black" stroke="black" points="636.911,-182.682 642.591,-191.626 643.728,-181.092 636.911,-182.682"/>
<text text-anchor="middle" x="759" y="-162.3" font-family="Times,serif" font-size="14.00">enterTime(Integer t) [t&gt;1] / leftTime = t;</text>
</g>
<!-- Oven2_ovenstate_s2_3&#45;&gt;Oven2_ovenstate_s2_3 -->
<g id="edge13" class="edge"><title>Oven2_ovenstate_s2_3&#45;&gt;Oven2_ovenstate_s2_3</title>
<path fill="none" stroke="black" d="M839.087,-130.209C849.221,-129.85 857,-127.113 857,-122 857,-118.804 853.961,-116.537 849.208,-115.198"/>
<polygon fill="black" stroke="black" points="849.474,-111.701 839.087,-113.791 848.51,-118.635 849.474,-111.701"/>
<text text-anchor="middle" x="975" y="-118.3" font-family="Times,serif" font-size="14.00">enterTime(Integer t) [t==1] / leftTime = t;</text>
</g>
<!-- Oven2_ovenstate_s2_3&#45;&gt;Oven2_ovenstate_s2_4 -->
<g id="edge15" class="edge"><title>Oven2_ovenstate_s2_3&#45;&gt;Oven2_ovenstate_s2_4</title>
<path fill="none" stroke="black" d="M780.204,-103.803C762.885,-90.7375 738.879,-72.6277 719.843,-58.2673"/>
<polygon fill="black" stroke="black" points="721.847,-55.3952 711.756,-52.1669 717.631,-60.9834 721.847,-55.3952"/>
<text text-anchor="middle" x="769.5" y="-74.3" font-family="Times,serif" font-size="14.00">start</text>
</g>
<!-- start_Oven3_cook -->
<g id="node16" class="node"><title>start_Oven3_cook</title>
<ellipse fill="black" stroke="black" cx="1325" cy="-372" rx="7.2" ry="7.2"/>
</g>
<!-- Oven3_cook_OFF -->
<g id="node17" class="node"><title>Oven3_cook_OFF</title>
<path fill="none" stroke="black" d="M1320,-316C1320,-316 1272,-316 1272,-316 1266,-316 1260,-310 1260,-304 1260,-304 1260,-292 1260,-292 1260,-286 1266,-280 1272,-280 1272,-280 1320,-280 1320,-280 1326,-280 1332,-286 1332,-292 1332,-292 1332,-304 1332,-304 1332,-310 1326,-316 1320,-316"/>
<text text-anchor="middle" x="1296" y="-294.3" font-family="Times,serif" font-size="14.00">OFF</text>
</g>
<!-- start_Oven3_cook&#45;&gt;Oven3_cook_OFF -->
<g id="edge16" class="edge"><title>start_Oven3_cook&#45;&gt;Oven3_cook_OFF</title>
<path fill="none" stroke="black" d="M1322.53,-364.861C1319.03,-356.185 1312.43,-339.803 1306.69,-325.548"/>
<polygon fill="black" stroke="black" points="1309.89,-324.108 1302.9,-316.14 1303.39,-326.724 1309.89,-324.108"/>
</g>
<!-- Oven3_cook_ON -->
<g id="node18" class="node"><title>Oven3_cook_ON</title>
<path fill="none" stroke="black" d="M1288,-390C1288,-390 1240,-390 1240,-390 1234,-390 1228,-384 1228,-378 1228,-378 1228,-366 1228,-366 1228,-360 1234,-354 1240,-354 1240,-354 1288,-354 1288,-354 1294,-354 1300,-360 1300,-366 1300,-366 1300,-378 1300,-378 1300,-384 1294,-390 1288,-390"/>
<text text-anchor="middle" x="1264" y="-368.3" font-family="Times,serif" font-size="14.00">ON</text>
</g>
<!-- start_Oven3_ovenstate -->
<g id="node19" class="node"><title>start_Oven3_ovenstate</title>
<ellipse fill="black" stroke="black" cx="1392" cy="-372" rx="7.2" ry="7.2"/>
</g>
<!-- Oven3_ovenstate_s3_1 -->
<g id="node20" class="node"><title>Oven3_ovenstate_s3_1</title>
<path fill="none" stroke="black" d="M1416,-316C1416,-316 1368,-316 1368,-316 1362,-316 1356,-310 1356,-304 1356,-304 1356,-292 1356,-292 1356,-286 1362,-280 1368,-280 1368,-280 1416,-280 1416,-280 1422,-280 1428,-286 1428,-292 1428,-292 1428,-304 1428,-304 1428,-310 1422,-316 1416,-316"/>
<text text-anchor="middle" x="1392" y="-294.3" font-family="Times,serif" font-size="14.00">s3_1</text>
</g>
<!-- start_Oven3_ovenstate&#45;&gt;Oven3_ovenstate_s3_1 -->
<g id="edge17" class="edge"><title>start_Oven3_ovenstate&#45;&gt;Oven3_ovenstate_s3_1</title>
<path fill="none" stroke="black" d="M1392,-364.355C1392,-355.7 1392,-340.04 1392,-326.219"/>
<polygon fill="black" stroke="black" points="1395.5,-326.154 1392,-316.154 1388.5,-326.154 1395.5,-326.154"/>
</g>
<!-- Oven3_ovenstate_s3_1&#45;&gt;Oven3_ovenstate_s3_1 -->
<g id="edge18" class="edge"><title>Oven3_ovenstate_s3_1&#45;&gt;Oven3_ovenstate_s3_1</title>
<path fill="none" stroke="black" d="M1428.09,-301.358C1438.22,-301.211 1446,-300.092 1446,-298 1446,-296.693 1442.96,-295.765 1438.21,-295.217"/>
<polygon fill="black" stroke="black" points="1438.27,-291.715 1428.09,-294.642 1437.87,-298.704 1438.27,-291.715"/>
<text text-anchor="middle" x="1638.5" y="-294.3" font-family="Times,serif" font-size="14.00">enterTime(Integer t) [cook.equals(Cook.OFF)&amp;&amp;t&gt;0] / leftTime = t;</text>
</g>
<!-- Oven3_ovenstate_s3_1&#45;&gt;Oven3_ovenstate_s3_1 -->
<g id="edge19" class="edge"><title>Oven3_ovenstate_s3_1&#45;&gt;Oven3_ovenstate_s3_1</title>
<path fill="none" stroke="black" d="M1428.07,-301.523C1534.19,-306.786 1831,-305.611 1831,-298 1831,-290.619 1551.89,-289.291 1438.22,-294.017"/>
<polygon fill="black" stroke="black" points="1437.91,-290.527 1428.07,-294.477 1438.22,-297.52 1437.91,-290.527"/>
<text text-anchor="middle" x="2015.5" y="-294.3" font-family="Times,serif" font-size="14.00">start [cook.equals(Cook.OFF)&amp;&amp;leftTime&gt;0] / cook = Cook.ON;</text>
</g>
</g>
</svg>
