<?xml version="1.0" encoding="UTF-8" standalone="no"?>
<!DOCTYPE svg PUBLIC "-//W3C//DTD SVG 1.1//EN"
 "http://www.w3.org/Graphics/SVG/1.1/DTD/svg11.dtd">
<!-- Generated by graphviz version 2.39.20140502.0445 (20140502.0445)
 -->
<!-- Title: ParliamentBill Pages: 1 -->
<svg width="916pt" height="569pt"
 viewBox="0.00 0.00 916.00 569.40" xmlns="http://www.w3.org/2000/svg" xmlns:xlink="http://www.w3.org/1999/xlink">
<g id="graph0" class="graph" transform="scale(1 1) rotate(0) translate(4 565.4)">
<title>ParliamentBill</title>
<polygon fill="white" stroke="none" points="-4,4 -4,-565.4 912,-565.4 912,4 -4,4"/>
<g id="clust1" class="cluster"><title>clusterBill_billState_inHouseOfCommons</title>
<path fill="none" stroke="black" d="M20,-166C20,-166 166,-166 166,-166 172,-166 178,-172 178,-178 178,-178 178,-541.4 178,-541.4 178,-547.4 172,-553.4 166,-553.4 166,-553.4 20,-553.4 20,-553.4 14,-553.4 8,-547.4 8,-541.4 8,-541.4 8,-178 8,-178 8,-172 14,-166 20,-166"/>
<text text-anchor="middle" x="93" y="-538.2" font-family="Times,serif" font-size="14.00">inHouseOfCommons</text>
</g>
<g id="clust2" class="cluster"><title>clusterBill_billState_inSenate</title>
<path fill="none" stroke="black" d="M734,-166C734,-166 888,-166 888,-166 894,-166 900,-172 900,-178 900,-178 900,-541.4 900,-541.4 900,-547.4 894,-553.4 888,-553.4 888,-553.4 734,-553.4 734,-553.4 728,-553.4 722,-547.4 722,-541.4 722,-541.4 722,-178 722,-178 722,-172 728,-166 734,-166"/>
<text text-anchor="middle" x="811" y="-538.2" font-family="Times,serif" font-size="14.00">inSenate</text>
</g>
<!-- start_Bill_billState -->
<g id="node1" class="node"><title>start_Bill_billState</title>
<ellipse fill="black" stroke="black" cx="490" cy="-366" rx="7.2" ry="7.2"/>
</g>
<!-- Bill_billState_inPreparation -->
<g id="node2" class="node"><title>Bill_billState_inPreparation</title>
<path fill="none" stroke="black" d="M588,-297C588,-297 520,-297 520,-297 514,-297 508,-291 508,-285 508,-285 508,-273 508,-273 508,-267 514,-261 520,-261 520,-261 588,-261 588,-261 594,-261 600,-267 600,-273 600,-273 600,-285 600,-285 600,-291 594,-297 588,-297"/>
<text text-anchor="middle" x="554" y="-275.3" font-family="Times,serif" font-size="14.00">inPreparation</text>
</g>
<!-- start_Bill_billState&#45;&gt;Bill_billState_inPreparation -->
<g id="edge1" class="edge"><title>start_Bill_billState&#45;&gt;Bill_billState_inPreparation</title>
<g id="a_edge1"><a xlink:title="start &#160;&#45;&gt; inPreparation">
<path fill="none" stroke="black" d="M494.445,-360.2C497.634,-356.775 502.049,-352.073 506,-348 513.878,-339.88 517.037,-338.918 524,-330 529.732,-322.659 535.218,-314.137 539.895,-306.231"/>
<polygon fill="black" stroke="black" points="543.054,-307.758 544.981,-297.34 536.978,-304.283 543.054,-307.758"/>
</a>
</g>
</g>
<!-- Bill_billStateInHouseOfCommons_firstReading -->
<g id="node4" class="node"><title>Bill_billStateInHouseOfCommons_firstReading</title>
<path fill="none" stroke="black" d="M157.5,-471C157.5,-471 96.5,-471 96.5,-471 90.5,-471 84.5,-465 84.5,-459 84.5,-459 84.5,-447 84.5,-447 84.5,-441 90.5,-435 96.5,-435 96.5,-435 157.5,-435 157.5,-435 163.5,-435 169.5,-441 169.5,-447 169.5,-447 169.5,-459 169.5,-459 169.5,-465 163.5,-471 157.5,-471"/>
<text text-anchor="middle" x="127" y="-449.3" font-family="Times,serif" font-size="14.00">firstReading</text>
</g>
<!-- Bill_billState_inPreparation&#45;&gt;Bill_billStateInHouseOfCommons_firstReading -->
<g id="edge3" class="edge"><title>Bill_billState_inPreparation&#45;&gt;Bill_billStateInHouseOfCommons_firstReading</title>
<g id="a_edge3"><a xlink:title="inPreparation introduceInHouse &#45;&gt; inHouseOfCommons">
<path fill="none" stroke="black" d="M186.398,-412.415 244.074,-374.264 325.306,-321.388 342,-315 396.699,-294.069 464.042,-285.647 507.948,-282.264"/>
<polygon fill="black" stroke="black" points="184.119,-409.727 177.714,-418.166 187.984,-415.563 184.119,-409.727"/>
</a>
</g>
<text text-anchor="middle" x="334.5" y="-362.3" font-family="Times,serif" font-size="14.00">introduceInHouse</text>
</g>
<!-- Bill_billStateInSenate_firstReadingS -->
<g id="node9" class="node"><title>Bill_billStateInSenate_firstReadingS</title>
<path fill="none" stroke="black" d="M811.5,-471C811.5,-471 742.5,-471 742.5,-471 736.5,-471 730.5,-465 730.5,-459 730.5,-459 730.5,-447 730.5,-447 730.5,-441 736.5,-435 742.5,-435 742.5,-435 811.5,-435 811.5,-435 817.5,-435 823.5,-441 823.5,-447 823.5,-447 823.5,-459 823.5,-459 823.5,-465 817.5,-471 811.5,-471"/>
<text text-anchor="middle" x="777" y="-449.3" font-family="Times,serif" font-size="14.00">firstReadingS</text>
</g>
<!-- Bill_billState_inPreparation&#45;&gt;Bill_billStateInSenate_firstReadingS -->
<g id="edge9" class="edge"><title>Bill_billState_inPreparation&#45;&gt;Bill_billStateInSenate_firstReadingS</title>
<g id="a_edge9"><a xlink:title="inPreparation introduceInSenate / {...} &#45;&gt; inSenate">
<path fill="none" stroke="black" d="M579.914,-297.199C586.63,-302.411 593.51,-308.495 599,-315 621.443,-341.593 610.873,-359.927 636,-384 659.787,-406.789 692.657,-423.242 720.678,-434.25"/>
<polygon fill="black" stroke="black" points="711.496,-433.531 722,-434.918 714.654,-427.284 711.496,-433.531"/>
</a>
</g>
<text text-anchor="middle" x="704.5" y="-362.3" font-family="Times,serif" font-size="14.00">introduceInSenate / {...}</text>
</g>
<!-- start_Bill_inHouseOfCommons -->
<g id="node3" class="node"><title>start_Bill_inHouseOfCommons</title>
<ellipse fill="black" stroke="black" cx="127" cy="-515.2" rx="7.2" ry="7.2"/>
</g>
<!-- start_Bill_inHouseOfCommons&#45;&gt;Bill_billStateInHouseOfCommons_firstReading -->
<g id="edge5" class="edge"><title>start_Bill_inHouseOfCommons&#45;&gt;Bill_billStateInHouseOfCommons_firstReading</title>
<g id="a_edge5"><a xlink:title="start &#160;&#45;&gt; firstReading">
<path fill="none" stroke="black" d="M127,-507.758C127,-501.387 127,-491.197 127,-481.393"/>
<polygon fill="black" stroke="black" points="130.5,-481.105 127,-471.105 123.5,-481.105 130.5,-481.105"/>
</a>
</g>
</g>
<!-- Bill_billStateInHouseOfCommons_secondReading -->
<g id="node5" class="node"><title>Bill_billStateInHouseOfCommons_secondReading</title>
<path fill="none" stroke="black" d="M106,-384C106,-384 28,-384 28,-384 22,-384 16,-378 16,-372 16,-372 16,-360 16,-360 16,-354 22,-348 28,-348 28,-348 106,-348 106,-348 112,-348 118,-354 118,-360 118,-360 118,-372 118,-372 118,-378 112,-384 106,-384"/>
<text text-anchor="middle" x="67" y="-362.3" font-family="Times,serif" font-size="14.00">secondReading</text>
</g>
<!-- Bill_billStateInHouseOfCommons_firstReading&#45;&gt;Bill_billStateInHouseOfCommons_secondReading -->
<g id="edge6" class="edge"><title>Bill_billStateInHouseOfCommons_firstReading&#45;&gt;Bill_billStateInHouseOfCommons_secondReading</title>
<g id="a_edge6"><a xlink:title="firstReading votePasses &#45;&gt; secondReading">
<path fill="none" stroke="black" d="M64.7412,-394.519 65.2513,-402.247 66.9584,-410.349 71,-417 75.3461,-424.152 81.7671,-430.072 88.7264,-434.88"/>
<polygon fill="black" stroke="black" points="68.2404,-394.362 64.6808,-384.383 61.2405,-394.404 68.2404,-394.362"/>
</a>
</g>
<text text-anchor="middle" x="101.5" y="-405.8" font-family="Times,serif" font-size="14.00">votePasses</text>
</g>
<!-- Bill_billState_withdrawn -->
<g id="node15" class="node"><title>Bill_billState_withdrawn</title>
<path fill="none" stroke="black" d="M579,-384C579,-384 527,-384 527,-384 521,-384 515,-378 515,-372 515,-372 515,-360 515,-360 515,-354 521,-348 527,-348 527,-348 579,-348 579,-348 585,-348 591,-354 591,-360 591,-360 591,-372 591,-372 591,-378 585,-384 579,-384"/>
<text text-anchor="middle" x="553" y="-362.3" font-family="Times,serif" font-size="14.00">withdrawn</text>
</g>
<!-- Bill_billStateInHouseOfCommons_firstReading&#45;&gt;Bill_billState_withdrawn -->
<g id="edge18" class="edge"><title>Bill_billStateInHouseOfCommons_firstReading&#45;&gt;Bill_billState_withdrawn</title>
<g id="a_edge18"><a xlink:title="inHouseOfCommons withdraw &#45;&gt; withdrawn">
<path fill="none" stroke="black" d="M177.755,-443.991C262.235,-430.483 429.35,-402.947 505.028,-383.958"/>
<polygon fill="black" stroke="black" points="506.158,-387.281 514.953,-381.373 504.394,-380.507 506.158,-387.281"/>
</a>
</g>
<text text-anchor="middle" x="443.5" y="-405.8" font-family="Times,serif" font-size="14.00">withdraw</text>
</g>
<!-- Bill_billStateInHouseOfCommons_firstReading&#45;&gt;Bill_billState_withdrawn -->
<g id="edge19" class="edge"><title>Bill_billStateInHouseOfCommons_firstReading&#45;&gt;Bill_billState_withdrawn</title>
<g id="a_edge19"><a xlink:title="inHouseOfCommons voteFails &#45;&gt; withdrawn">
<path fill="none" stroke="black" d="M177.911,-437.613C199.303,-431.449 224.416,-424.055 247,-417 267.123,-410.714 271.35,-406.247 292,-402 382.386,-383.411 410.877,-403.017 504.85,-383.87"/>
<polygon fill="black" stroke="black" points="505.717,-387.264 514.769,-381.757 504.259,-380.417 505.717,-387.264"/>
</a>
</g>
<text text-anchor="middle" x="318" y="-405.8" font-family="Times,serif" font-size="14.00">voteFails</text>
</g>
<!-- Bill_billStateInHouseOfCommons_committeeConsideration -->
<g id="node6" class="node"><title>Bill_billStateInHouseOfCommons_committeeConsideration</title>
<path fill="none" stroke="black" d="M158,-297C158,-297 28,-297 28,-297 22,-297 16,-291 16,-285 16,-285 16,-273 16,-273 16,-267 22,-261 28,-261 28,-261 158,-261 158,-261 164,-261 170,-267 170,-273 170,-273 170,-285 170,-285 170,-291 164,-297 158,-297"/>
<text text-anchor="middle" x="93" y="-275.3" font-family="Times,serif" font-size="14.00">committeeConsideration</text>
</g>
<!-- Bill_billStateInHouseOfCommons_secondReading&#45;&gt;Bill_billStateInHouseOfCommons_committeeConsideration -->
<g id="edge7" class="edge"><title>Bill_billStateInHouseOfCommons_secondReading&#45;&gt;Bill_billStateInHouseOfCommons_committeeConsideration</title>
<g id="a_edge7"><a xlink:title="secondReading votePasses &#45;&gt; committeeConsideration">
<path fill="none" stroke="black" d="M62.0995,-347.841C60.1327,-337.954 59.1327,-325.454 63,-315 64.2313,-311.672 65.9361,-308.446 67.9135,-305.388"/>
<polygon fill="black" stroke="black" points="70.8132,-307.356 74.0412,-297.264 65.2249,-303.14 70.8132,-307.356"/>
</a>
</g>
<text text-anchor="middle" x="93.5" y="-318.8" font-family="Times,serif" font-size="14.00">votePasses</text>
</g>
<!-- Bill_billStateInHouseOfCommons_thirdReading -->
<g id="node7" class="node"><title>Bill_billStateInHouseOfCommons_thirdReading</title>
<path fill="none" stroke="black" d="M158,-210C158,-210 92,-210 92,-210 86,-210 80,-204 80,-198 80,-198 80,-186 80,-186 80,-180 86,-174 92,-174 92,-174 158,-174 158,-174 164,-174 170,-180 170,-186 170,-186 170,-198 170,-198 170,-204 164,-210 158,-210"/>
<text text-anchor="middle" x="125" y="-188.3" font-family="Times,serif" font-size="14.00">thirdReading</text>
</g>
<!-- Bill_billStateInHouseOfCommons_committeeConsideration&#45;&gt;Bill_billStateInHouseOfCommons_thirdReading -->
<g id="edge8" class="edge"><title>Bill_billStateInHouseOfCommons_committeeConsideration&#45;&gt;Bill_billStateInHouseOfCommons_thirdReading</title>
<g id="a_edge8"><a xlink:title="committeeConsideration votePasses &#45;&gt; thirdReading">
<path fill="none" stroke="black" d="M99.4757,-260.799C103.9,-249.047 109.851,-233.238 114.895,-219.842"/>
<polygon fill="black" stroke="black" points="118.286,-220.767 118.534,-210.175 111.735,-218.301 118.286,-220.767"/>
</a>
</g>
<text text-anchor="middle" x="141.5" y="-231.8" font-family="Times,serif" font-size="14.00">votePasses</text>
</g>
<!-- Bill_billStateInHouseOfCommons_thirdReading&#45;&gt;Bill_billStateInSenate_firstReadingS -->
<g id="edge10" class="edge"><title>Bill_billStateInHouseOfCommons_thirdReading&#45;&gt;Bill_billStateInSenate_firstReadingS</title>
<g id="a_edge10"><a xlink:title="thirdReading votePasses [isCommonsBill] &#45;&gt; inSenate">
<path fill="none" stroke="black" d="M154.655,-210.098C213.515,-244.117 343.112,-319.463 386,-348 428.849,-376.511 431.159,-398.024 479,-417 521.605,-433.899 646.445,-444.103 720.334,-448.832"/>
<polygon fill="black" stroke="black" points="711.408,-449.194 722,-449.463 713.888,-442.648 711.408,-449.194"/>
</a>
</g>
<text text-anchor="middle" x="439" y="-318.8" font-family="Times,serif" font-size="14.00">votePasses [isCommonsBill]</text>
</g>
<!-- Bill_billState_awaitingRoyalAssent -->
<g id="node13" class="node"><title>Bill_billState_awaitingRoyalAssent</title>
<path fill="none" stroke="black" d="M566,-123C566,-123 454,-123 454,-123 448,-123 442,-117 442,-111 442,-111 442,-99 442,-99 442,-93 448,-87 454,-87 454,-87 566,-87 566,-87 572,-87 578,-93 578,-99 578,-99 578,-111 578,-111 578,-117 572,-123 566,-123"/>
<text text-anchor="middle" x="510" y="-101.3" font-family="Times,serif" font-size="14.00">awaitingRoyalAssent</text>
</g>
<!-- Bill_billStateInHouseOfCommons_thirdReading&#45;&gt;Bill_billState_awaitingRoyalAssent -->
<g id="edge15" class="edge"><title>Bill_billStateInHouseOfCommons_thirdReading&#45;&gt;Bill_billState_awaitingRoyalAssent</title>
<g id="a_edge15"><a xlink:title="thirdReading votePasses [!isCommonsBill] &#45;&gt; awaitingRoyalAssent">
<path fill="none" stroke="black" d="M170.297,-180.999C234.631,-166.796 353.375,-140.579 432.032,-123.214"/>
<polygon fill="black" stroke="black" points="432.886,-126.609 441.897,-121.036 431.377,-119.774 432.886,-126.609"/>
</a>
</g>
<text text-anchor="middle" x="424.5" y="-144.8" font-family="Times,serif" font-size="14.00">votePasses [!isCommonsBill]</text>
</g>
<!-- start_Bill_inSenate -->
<g id="node8" class="node"><title>start_Bill_inSenate</title>
<ellipse fill="black" stroke="black" cx="777" cy="-515.2" rx="7.2" ry="7.2"/>
</g>
<!-- start_Bill_inSenate&#45;&gt;Bill_billStateInSenate_firstReadingS -->
<g id="edge11" class="edge"><title>start_Bill_inSenate&#45;&gt;Bill_billStateInSenate_firstReadingS</title>
<g id="a_edge11"><a xlink:title="start &#160;&#45;&gt; firstReadingS">
<path fill="none" stroke="black" d="M777,-507.758C777,-501.387 777,-491.197 777,-481.393"/>
<polygon fill="black" stroke="black" points="780.5,-481.105 777,-471.105 773.5,-481.105 780.5,-481.105"/>
</a>
</g>
</g>
<!-- Bill_billStateInSenate_secondReadingS -->
<g id="node10" class="node"><title>Bill_billStateInSenate_secondReadingS</title>
<path fill="none" stroke="black" d="M880,-384C880,-384 794,-384 794,-384 788,-384 782,-378 782,-372 782,-372 782,-360 782,-360 782,-354 788,-348 794,-348 794,-348 880,-348 880,-348 886,-348 892,-354 892,-360 892,-360 892,-372 892,-372 892,-378 886,-384 880,-384"/>
<text text-anchor="middle" x="837" y="-362.3" font-family="Times,serif" font-size="14.00">secondReadingS</text>
</g>
<!-- Bill_billStateInSenate_firstReadingS&#45;&gt;Bill_billStateInSenate_secondReadingS -->
<g id="edge12" class="edge"><title>Bill_billStateInSenate_firstReadingS&#45;&gt;Bill_billStateInSenate_secondReadingS</title>
<g id="a_edge12"><a xlink:title="firstReadingS votePasses &#45;&gt; secondReadingS">
<path fill="none" stroke="black" d="M789.142,-434.799C797.681,-422.702 809.255,-406.305 818.882,-392.667"/>
<polygon fill="black" stroke="black" points="821.969,-394.364 824.876,-384.175 816.25,-390.327 821.969,-394.364"/>
</a>
</g>
<text text-anchor="middle" x="840.5" y="-405.8" font-family="Times,serif" font-size="14.00">votePasses</text>
</g>
<!-- Bill_billStateInSenate_firstReadingS&#45;&gt;Bill_billState_withdrawn -->
<g id="edge20" class="edge"><title>Bill_billStateInSenate_firstReadingS&#45;&gt;Bill_billState_withdrawn</title>
<g id="a_edge20"><a xlink:title="inSenate withdraw &#45;&gt; withdrawn">
<path fill="none" stroke="black" d="M505.631,-386.961 495.965,-392.003 487.859,-397.314 485,-402 481.528,-407.691 480.575,-412.013 485,-417 500.459,-434.423 642.25,-444.791 722.412,-449.309"/>
<polygon fill="black" stroke="black" points="507.411,-389.985 514.84,-382.431 504.322,-383.704 507.411,-389.985"/>
</a>
</g>
<text text-anchor="middle" x="511.5" y="-405.8" font-family="Times,serif" font-size="14.00">withdraw</text>
</g>
<!-- Bill_billStateInSenate_firstReadingS&#45;&gt;Bill_billState_withdrawn -->
<g id="edge21" class="edge"><title>Bill_billStateInSenate_firstReadingS&#45;&gt;Bill_billState_withdrawn</title>
<g id="a_edge21"><a xlink:title="inSenate voteFails &#45;&gt; withdrawn">
<path fill="none" stroke="black" d="M551.494,-394.277 552.444,-402.569 555.062,-411.05 561,-417 583.061,-439.105 665.88,-447.253 722.314,-450.254"/>
<polygon fill="black" stroke="black" points="554.982,-393.923 551.058,-384.081 547.988,-394.221 554.982,-393.923"/>
</a>
</g>
<text text-anchor="middle" x="587" y="-405.8" font-family="Times,serif" font-size="14.00">voteFails</text>
</g>
<!-- Bill_billStateInSenate_committeeConsiderationS -->
<g id="node11" class="node"><title>Bill_billStateInSenate_committeeConsiderationS</title>
<path fill="none" stroke="black" d="M880,-297C880,-297 742,-297 742,-297 736,-297 730,-291 730,-285 730,-285 730,-273 730,-273 730,-267 736,-261 742,-261 742,-261 880,-261 880,-261 886,-261 892,-267 892,-273 892,-273 892,-285 892,-285 892,-291 886,-297 880,-297"/>
<text text-anchor="middle" x="811" y="-275.3" font-family="Times,serif" font-size="14.00">committeeConsiderationS</text>
</g>
<!-- Bill_billStateInSenate_secondReadingS&#45;&gt;Bill_billStateInSenate_committeeConsiderationS -->
<g id="edge13" class="edge"><title>Bill_billStateInSenate_secondReadingS&#45;&gt;Bill_billStateInSenate_committeeConsiderationS</title>
<g id="a_edge13"><a xlink:title="secondReadingS votePasses &#45;&gt; committeeConsiderationS">
<path fill="none" stroke="black" d="M819.211,-306.842 823.308,-320.238 828.144,-336.047 831.739,-347.799"/>
<polygon fill="black" stroke="black" points="822.526,-305.714 816.254,-297.175 815.832,-307.762 822.526,-305.714"/>
</a>
</g>
<text text-anchor="middle" x="855.5" y="-318.8" font-family="Times,serif" font-size="14.00">votePasses</text>
</g>
<!-- Bill_billStateInSenate_thirdReadingS -->
<g id="node12" class="node"><title>Bill_billStateInSenate_thirdReadingS</title>
<path fill="none" stroke="black" d="M815.5,-210C815.5,-210 742.5,-210 742.5,-210 736.5,-210 730.5,-204 730.5,-198 730.5,-198 730.5,-186 730.5,-186 730.5,-180 736.5,-174 742.5,-174 742.5,-174 815.5,-174 815.5,-174 821.5,-174 827.5,-180 827.5,-186 827.5,-186 827.5,-198 827.5,-198 827.5,-204 821.5,-210 815.5,-210"/>
<text text-anchor="middle" x="779" y="-188.3" font-family="Times,serif" font-size="14.00">thirdReadingS</text>
</g>
<!-- Bill_billStateInSenate_committeeConsiderationS&#45;&gt;Bill_billStateInSenate_thirdReadingS -->
<g id="edge14" class="edge"><title>Bill_billStateInSenate_committeeConsiderationS&#45;&gt;Bill_billStateInSenate_thirdReadingS</title>
<g id="a_edge14"><a xlink:title="committeeConsiderationS votePasses &#45;&gt; thirdReadingS">
<path fill="none" stroke="black" d="M789.105,-219.842 794.149,-233.238 800.1,-249.047 804.524,-260.799"/>
<polygon fill="black" stroke="black" points="792.265,-218.301 785.466,-210.175 785.714,-220.767 792.265,-218.301"/>
</a>
</g>
<text text-anchor="middle" x="826.5" y="-231.8" font-family="Times,serif" font-size="14.00">votePasses</text>
</g>
<!-- Bill_billStateInSenate_thirdReadingS&#45;&gt;Bill_billStateInHouseOfCommons_firstReading -->
<g id="edge4" class="edge"><title>Bill_billStateInSenate_thirdReadingS&#45;&gt;Bill_billStateInHouseOfCommons_firstReading</title>
<g id="a_edge4"><a xlink:title="thirdReadingS votePasses [!isCommonsBill] &#45;&gt; inHouseOfCommons">
<path fill="none" stroke="black" d="M187.277,-294.851 302.722,-256.355 610.744,-214.438 730.462,-199.075"/>
<polygon fill="black" stroke="black" points="185.967,-291.601 177.683,-298.207 188.278,-298.209 185.967,-291.601"/>
</a>
</g>
<text text-anchor="middle" x="229.5" y="-318.8" font-family="Times,serif" font-size="14.00">votePasses [!isCommonsBill]</text>
</g>
<!-- Bill_billStateInSenate_thirdReadingS&#45;&gt;Bill_billState_awaitingRoyalAssent -->
<g id="edge16" class="edge"><title>Bill_billStateInSenate_thirdReadingS&#45;&gt;Bill_billState_awaitingRoyalAssent</title>
<g id="a_edge16"><a xlink:title="thirdReadingS votePasses [isCommonsBill] &#45;&gt; awaitingRoyalAssent">
<path fill="none" stroke="black" d="M573.556,-126.083 621.531,-141.242 686.376,-161.732 730.286,-175.607"/>
<polygon fill="black" stroke="black" points="574.483,-122.705 563.893,-123.029 572.374,-129.38 574.483,-122.705"/>
</a>
</g>
<text text-anchor="middle" x="742" y="-144.8" font-family="Times,serif" font-size="14.00">votePasses [isCommonsBill]</text>
</g>
<!-- Bill_billState_actOfParliament -->
<g id="node14" class="node"><title>Bill_billState_actOfParliament</title>
<path fill="none" stroke="black" d="M552,-36C552,-36 468,-36 468,-36 462,-36 456,-30 456,-24 456,-24 456,-12 456,-12 456,-6 462,-0 468,-0 468,-0 552,-0 552,-0 558,-0 564,-6 564,-12 564,-12 564,-24 564,-24 564,-30 558,-36 552,-36"/>
<text text-anchor="middle" x="510" y="-14.3" font-family="Times,serif" font-size="14.00">actOfParliament</text>
</g>
<!-- Bill_billState_awaitingRoyalAssent&#45;&gt;Bill_billState_actOfParliament -->
<g id="edge17" class="edge"><title>Bill_billState_awaitingRoyalAssent&#45;&gt;Bill_billState_actOfParliament</title>
<g id="a_edge17"><a xlink:title="awaitingRoyalAssent royalAssent &#45;&gt; actOfParliament">
<path fill="none" stroke="black" d="M510,-86.799C510,-75.1626 510,-59.5479 510,-46.2368"/>
<polygon fill="black" stroke="black" points="513.5,-46.1754 510,-36.1754 506.5,-46.1755 513.5,-46.1754"/>
</a>
</g>
<text text-anchor="middle" x="543.5" y="-57.8" font-family="Times,serif" font-size="14.00">royalAssent</text>
</g>
<!-- Bill_billState_withdrawn&#45;&gt;Bill_billState_inPreparation -->
<g id="edge2" class="edge"><title>Bill_billState_withdrawn&#45;&gt;Bill_billState_inPreparation</title>
<g id="a_edge2"><a xlink:title="withdrawn modify &#45;&gt; inPreparation">
<path fill="none" stroke="black" d="M553.202,-347.799C553.339,-336.163 553.523,-320.548 553.68,-307.237"/>
<polygon fill="black" stroke="black" points="557.18,-307.216 553.798,-297.175 550.18,-307.134 557.18,-307.216"/>
</a>
</g>
<text text-anchor="middle" x="574.5" y="-318.8" font-family="Times,serif" font-size="14.00">modify</text>
</g>
</g>
</svg>
