<?xml version="1.0" encoding="UTF-8" standalone="no"?>
<!DOCTYPE svg PUBLIC "-//W3C//DTD SVG 1.1//EN"
 "http://www.w3.org/Graphics/SVG/1.1/DTD/svg11.dtd">
<!-- Generated by graphviz version 2.36.0 (20140111.2315)
 -->
<!-- Title: ParliamentBill Pages: 1 -->
<svg width="916pt" height="575pt"
 viewBox="0.00 0.00 916.00 575.00" xmlns="http://www.w3.org/2000/svg" xmlns:xlink="http://www.w3.org/1999/xlink">
<g id="graph0" class="graph" transform="scale(1 1) rotate(0) translate(4 571)">
<title>ParliamentBill</title>
<polygon fill="white" stroke="none" points="-4,4 -4,-571 912,-571 912,4 -4,4"/>
<g id="clust1" class="cluster"><title>clusterBill_billState_inHouseOfCommons</title>
<path fill="none" stroke="black" d="M20,-168C20,-168 166,-168 166,-168 172,-168 178,-174 178,-180 178,-180 178,-547 178,-547 178,-553 172,-559 166,-559 166,-559 20,-559 20,-559 14,-559 8,-553 8,-547 8,-547 8,-180 8,-180 8,-174 14,-168 20,-168"/>
<text text-anchor="middle" x="93" y="-543.8" font-family="Times,serif" font-size="14.00">inHouseOfCommons</text>
</g>
<g id="clust2" class="cluster"><title>clusterBill_billState_inSenate</title>
<path fill="none" stroke="black" d="M734,-168C734,-168 888,-168 888,-168 894,-168 900,-174 900,-180 900,-180 900,-547 900,-547 900,-553 894,-559 888,-559 888,-559 734,-559 734,-559 728,-559 722,-553 722,-547 722,-547 722,-180 722,-180 722,-174 728,-168 734,-168"/>
<text text-anchor="middle" x="811" y="-543.8" font-family="Times,serif" font-size="14.00">inSenate</text>
</g>
<!-- start_Bill_billState -->
<g id="node1" class="node"><title>start_Bill_billState</title>
<ellipse fill="black" stroke="black" cx="490" cy="-370" rx="7.2" ry="7.2"/>
</g>
<!-- Bill_billState_inPreparation -->
<g id="node2" class="node"><title>Bill_billState_inPreparation</title>
<path fill="none" stroke="black" d="M588,-300C588,-300 520,-300 520,-300 514,-300 508,-294 508,-288 508,-288 508,-276 508,-276 508,-270 514,-264 520,-264 520,-264 588,-264 588,-264 594,-264 600,-270 600,-276 600,-276 600,-288 600,-288 600,-294 594,-300 588,-300"/>
<text text-anchor="middle" x="554" y="-278.3" font-family="Times,serif" font-size="14.00">inPreparation</text>
</g>
<!-- start_Bill_billState&#45;&gt;Bill_billState_inPreparation -->
<g id="edge1" class="edge"><title>start_Bill_billState&#45;&gt;Bill_billState_inPreparation</title>
<path fill="none" stroke="black" d="M494.445,-364.2C497.634,-360.775 502.049,-356.073 506,-352 513.878,-343.88 517.076,-342.948 524,-334 529.938,-326.326 535.578,-317.373 540.332,-309.128"/>
<polygon fill="black" stroke="black" points="543.481,-310.666 545.291,-300.227 537.366,-307.259 543.481,-310.666"/>
</g>
<!-- Bill_billStateInHouseOfCommons_firstReading -->
<g id="node4" class="node"><title>Bill_billStateInHouseOfCommons_firstReading</title>
<path fill="none" stroke="black" d="M157.25,-476C157.25,-476 96.75,-476 96.75,-476 90.75,-476 84.75,-470 84.75,-464 84.75,-464 84.75,-452 84.75,-452 84.75,-446 90.75,-440 96.75,-440 96.75,-440 157.25,-440 157.25,-440 163.25,-440 169.25,-446 169.25,-452 169.25,-452 169.25,-464 169.25,-464 169.25,-470 163.25,-476 157.25,-476"/>
<text text-anchor="middle" x="127" y="-454.3" font-family="Times,serif" font-size="14.00">firstReading</text>
</g>
<!-- Bill_billState_inPreparation&#45;&gt;Bill_billStateInHouseOfCommons_firstReading -->
<g id="edge3" class="edge"><title>Bill_billState_inPreparation&#45;&gt;Bill_billStateInHouseOfCommons_firstReading</title>
<path fill="none" stroke="black" d="M507.917,-285.183C463.989,-288.508 396.63,-296.889 342,-318 333.455,-321.302 246.72,-378.018 186.065,-417.969"/>
<polygon fill="black" stroke="black" points="184.115,-415.063 177.691,-423.488 187.967,-420.908 184.115,-415.063"/>
<text text-anchor="middle" x="337.5" y="-366.3" font-family="Times,serif" font-size="14.00">introduceInHouse</text>
</g>
<!-- Bill_billStateInSenate_firstReadingS -->
<g id="node9" class="node"><title>Bill_billStateInSenate_firstReadingS</title>
<path fill="none" stroke="black" d="M811.25,-476C811.25,-476 742.75,-476 742.75,-476 736.75,-476 730.75,-470 730.75,-464 730.75,-464 730.75,-452 730.75,-452 730.75,-446 736.75,-440 742.75,-440 742.75,-440 811.25,-440 811.25,-440 817.25,-440 823.25,-446 823.25,-452 823.25,-452 823.25,-464 823.25,-464 823.25,-470 817.25,-476 811.25,-476"/>
<text text-anchor="middle" x="777" y="-454.3" font-family="Times,serif" font-size="14.00">firstReadingS</text>
</g>
<!-- Bill_billState_inPreparation&#45;&gt;Bill_billStateInSenate_firstReadingS -->
<g id="edge9" class="edge"><title>Bill_billState_inPreparation&#45;&gt;Bill_billStateInSenate_firstReadingS</title>
<path fill="none" stroke="black" d="M579.94,-300.177C586.656,-305.389 593.53,-311.479 599,-318 621.616,-344.96 610.733,-363.508 636,-388 659.91,-411.177 693.117,-427.948 721.3,-439.149"/>
<polygon fill="black" stroke="black" points="712.084,-436.002 722,-439.735 716.576,-430.633 712.084,-436.002"/>
<text text-anchor="middle" x="704.5" y="-366.3" font-family="Times,serif" font-size="14.00">introduceInSenate / {...}</text>
</g>
<!-- start_Bill_billState_inHouseOfCommons -->
<g id="node3" class="node"><title>start_Bill_billState_inHouseOfCommons</title>
<ellipse fill="black" stroke="black" cx="127" cy="-521" rx="7.2" ry="7.2"/>
</g>
<!-- start_Bill_billState_inHouseOfCommons&#45;&gt;Bill_billStateInHouseOfCommons_firstReading -->
<g id="edge5" class="edge"><title>start_Bill_billState_inHouseOfCommons&#45;&gt;Bill_billStateInHouseOfCommons_firstReading</title>
<path fill="none" stroke="black" d="M127,-513.472C127,-506.902 127,-496.324 127,-486.229"/>
<polygon fill="black" stroke="black" points="130.5,-486.073 127,-476.073 123.5,-486.073 130.5,-486.073"/>
</g>
<!-- Bill_billStateInHouseOfCommons_secondReading -->
<g id="node5" class="node"><title>Bill_billStateInHouseOfCommons_secondReading</title>
<path fill="none" stroke="black" d="M106,-388C106,-388 28,-388 28,-388 22,-388 16,-382 16,-376 16,-376 16,-364 16,-364 16,-358 22,-352 28,-352 28,-352 106,-352 106,-352 112,-352 118,-358 118,-364 118,-364 118,-376 118,-376 118,-382 112,-388 106,-388"/>
<text text-anchor="middle" x="67" y="-366.3" font-family="Times,serif" font-size="14.00">secondReading</text>
</g>
<!-- Bill_billStateInHouseOfCommons_firstReading&#45;&gt;Bill_billStateInHouseOfCommons_secondReading -->
<g id="edge6" class="edge"><title>Bill_billStateInHouseOfCommons_firstReading&#45;&gt;Bill_billStateInHouseOfCommons_secondReading</title>
<path fill="none" stroke="black" d="M88.7178,-439.885C81.7592,-435.077 75.3405,-429.156 71,-422 66.7725,-415.03 65.0622,-406.503 64.6075,-398.431"/>
<polygon fill="black" stroke="black" points="68.1077,-398.257 64.6269,-388.25 61.1077,-398.243 68.1077,-398.257"/>
<text text-anchor="middle" x="101.5" y="-410.3" font-family="Times,serif" font-size="14.00">votePasses</text>
</g>
<!-- Bill_billState_withdrawn -->
<g id="node15" class="node"><title>Bill_billState_withdrawn</title>
<path fill="none" stroke="black" d="M579,-388C579,-388 527,-388 527,-388 521,-388 515,-382 515,-376 515,-376 515,-364 515,-364 515,-358 521,-352 527,-352 527,-352 579,-352 579,-352 585,-352 591,-358 591,-364 591,-364 591,-376 591,-376 591,-382 585,-388 579,-388"/>
<text text-anchor="middle" x="553" y="-366.3" font-family="Times,serif" font-size="14.00">withdrawn</text>
</g>
<!-- Bill_billStateInHouseOfCommons_firstReading&#45;&gt;Bill_billState_withdrawn -->
<g id="edge18" class="edge"><title>Bill_billStateInHouseOfCommons_firstReading&#45;&gt;Bill_billState_withdrawn</title>
<path fill="none" stroke="black" d="M177.675,-448.871C262.13,-435.148 429.33,-407.16 505.014,-387.97"/>
<polygon fill="black" stroke="black" points="506.168,-391.286 514.948,-385.356 504.387,-384.516 506.168,-391.286"/>
<text text-anchor="middle" x="443.5" y="-410.3" font-family="Times,serif" font-size="14.00">withdraw</text>
</g>
<!-- Bill_billStateInHouseOfCommons_firstReading&#45;&gt;Bill_billState_withdrawn -->
<g id="edge19" class="edge"><title>Bill_billStateInHouseOfCommons_firstReading&#45;&gt;Bill_billState_withdrawn</title>
<path fill="none" stroke="black" d="M177.841,-444.063C199.42,-438.088 224.692,-430.443 247,-422 262.619,-416.088 264.86,-410.291 281,-406 374.922,-381.031 406.016,-407.49 504.978,-387.821"/>
<polygon fill="black" stroke="black" points="505.701,-391.246 514.772,-385.77 504.267,-384.394 505.701,-391.246"/>
<text text-anchor="middle" x="307" y="-410.3" font-family="Times,serif" font-size="14.00">voteFails</text>
</g>
<!-- Bill_billStateInHouseOfCommons_committeeConsideration -->
<g id="node6" class="node"><title>Bill_billStateInHouseOfCommons_committeeConsideration</title>
<path fill="none" stroke="black" d="M158,-300C158,-300 28,-300 28,-300 22,-300 16,-294 16,-288 16,-288 16,-276 16,-276 16,-270 22,-264 28,-264 28,-264 158,-264 158,-264 164,-264 170,-270 170,-276 170,-276 170,-288 170,-288 170,-294 164,-300 158,-300"/>
<text text-anchor="middle" x="93" y="-278.3" font-family="Times,serif" font-size="14.00">committeeConsideration</text>
</g>
<!-- Bill_billStateInHouseOfCommons_secondReading&#45;&gt;Bill_billStateInHouseOfCommons_committeeConsideration -->
<g id="edge7" class="edge"><title>Bill_billStateInHouseOfCommons_secondReading&#45;&gt;Bill_billStateInHouseOfCommons_committeeConsideration</title>
<path fill="none" stroke="black" d="M62.1357,-351.967C60.0883,-341.811 58.9942,-328.829 63,-318 64.2313,-314.672 65.9361,-311.446 67.9135,-308.388"/>
<polygon fill="black" stroke="black" points="70.8132,-310.356 74.0412,-300.264 65.2249,-306.14 70.8132,-310.356"/>
<text text-anchor="middle" x="93.5" y="-322.3" font-family="Times,serif" font-size="14.00">votePasses</text>
</g>
<!-- Bill_billStateInHouseOfCommons_thirdReading -->
<g id="node7" class="node"><title>Bill_billStateInHouseOfCommons_thirdReading</title>
<path fill="none" stroke="black" d="M158,-212C158,-212 92,-212 92,-212 86,-212 80,-206 80,-200 80,-200 80,-188 80,-188 80,-182 86,-176 92,-176 92,-176 158,-176 158,-176 164,-176 170,-182 170,-188 170,-188 170,-200 170,-200 170,-206 164,-212 158,-212"/>
<text text-anchor="middle" x="125" y="-190.3" font-family="Times,serif" font-size="14.00">thirdReading</text>
</g>
<!-- Bill_billStateInHouseOfCommons_committeeConsideration&#45;&gt;Bill_billStateInHouseOfCommons_thirdReading -->
<g id="edge8" class="edge"><title>Bill_billStateInHouseOfCommons_committeeConsideration&#45;&gt;Bill_billStateInHouseOfCommons_thirdReading</title>
<path fill="none" stroke="black" d="M99.4757,-263.597C103.973,-251.511 110.048,-235.184 115.143,-221.491"/>
<polygon fill="black" stroke="black" points="118.436,-222.677 118.643,-212.084 111.875,-220.236 118.436,-222.677"/>
<text text-anchor="middle" x="142.5" y="-234.3" font-family="Times,serif" font-size="14.00">votePasses</text>
</g>
<!-- Bill_billStateInHouseOfCommons_thirdReading&#45;&gt;Bill_billStateInSenate_firstReadingS -->
<g id="edge10" class="edge"><title>Bill_billStateInHouseOfCommons_thirdReading&#45;&gt;Bill_billStateInSenate_firstReadingS</title>
<path fill="none" stroke="black" d="M153.863,-212.121C217.125,-249.682 364.119,-337.159 386,-352 428.521,-380.84 430.353,-402.777 478,-422 520.703,-439.229 646.284,-449.322 720.415,-453.94"/>
<polygon fill="black" stroke="black" points="711.411,-454.198 722,-454.556 713.946,-447.673 711.411,-454.198"/>
<text text-anchor="middle" x="438" y="-322.3" font-family="Times,serif" font-size="14.00">votePasses [isCommonsBill]</text>
</g>
<!-- Bill_billState_awaitingRoyalAssent -->
<g id="node13" class="node"><title>Bill_billState_awaitingRoyalAssent</title>
<path fill="none" stroke="black" d="M566,-124C566,-124 454,-124 454,-124 448,-124 442,-118 442,-112 442,-112 442,-100 442,-100 442,-94 448,-88 454,-88 454,-88 566,-88 566,-88 572,-88 578,-94 578,-100 578,-100 578,-112 578,-112 578,-118 572,-124 566,-124"/>
<text text-anchor="middle" x="510" y="-102.3" font-family="Times,serif" font-size="14.00">awaitingRoyalAssent</text>
</g>
<!-- Bill_billStateInHouseOfCommons_thirdReading&#45;&gt;Bill_billState_awaitingRoyalAssent -->
<g id="edge15" class="edge"><title>Bill_billStateInHouseOfCommons_thirdReading&#45;&gt;Bill_billState_awaitingRoyalAssent</title>
<path fill="none" stroke="black" d="M170.297,-182.882C234.631,-168.511 353.375,-141.986 432.032,-124.416"/>
<polygon fill="black" stroke="black" points="432.9,-127.809 441.897,-122.213 431.374,-120.977 432.9,-127.809"/>
<text text-anchor="middle" x="435.5" y="-146.3" font-family="Times,serif" font-size="14.00">votePasses [!isCommonsBill]</text>
</g>
<!-- start_Bill_billState_inSenate -->
<g id="node8" class="node"><title>start_Bill_billState_inSenate</title>
<ellipse fill="black" stroke="black" cx="777" cy="-521" rx="7.2" ry="7.2"/>
</g>
<!-- start_Bill_billState_inSenate&#45;&gt;Bill_billStateInSenate_firstReadingS -->
<g id="edge11" class="edge"><title>start_Bill_billState_inSenate&#45;&gt;Bill_billStateInSenate_firstReadingS</title>
<path fill="none" stroke="black" d="M777,-513.472C777,-506.902 777,-496.324 777,-486.229"/>
<polygon fill="black" stroke="black" points="780.5,-486.073 777,-476.073 773.5,-486.073 780.5,-486.073"/>
</g>
<!-- Bill_billStateInSenate_secondReadingS -->
<g id="node10" class="node"><title>Bill_billStateInSenate_secondReadingS</title>
<path fill="none" stroke="black" d="M880,-388C880,-388 794,-388 794,-388 788,-388 782,-382 782,-376 782,-376 782,-364 782,-364 782,-358 788,-352 794,-352 794,-352 880,-352 880,-352 886,-352 892,-358 892,-364 892,-364 892,-376 892,-376 892,-382 886,-388 880,-388"/>
<text text-anchor="middle" x="837" y="-366.3" font-family="Times,serif" font-size="14.00">secondReadingS</text>
</g>
<!-- Bill_billStateInSenate_firstReadingS&#45;&gt;Bill_billStateInSenate_secondReadingS -->
<g id="edge12" class="edge"><title>Bill_billStateInSenate_firstReadingS&#45;&gt;Bill_billStateInSenate_secondReadingS</title>
<path fill="none" stroke="black" d="M789.142,-439.597C797.819,-427.159 809.63,-410.23 819.348,-396.302"/>
<polygon fill="black" stroke="black" points="822.23,-398.288 825.081,-388.084 816.489,-394.283 822.23,-398.288"/>
<text text-anchor="middle" x="842.5" y="-410.3" font-family="Times,serif" font-size="14.00">votePasses</text>
</g>
<!-- Bill_billStateInSenate_firstReadingS&#45;&gt;Bill_billState_withdrawn -->
<g id="edge20" class="edge"><title>Bill_billStateInSenate_firstReadingS&#45;&gt;Bill_billState_withdrawn</title>
<path fill="none" stroke="black" d="M722.412,-454.309C642.25,-449.791 500.459,-439.423 485,-422 480.28,-416.681 481.297,-412.071 485,-406 487.859,-401.314 495.965,-396.003 505.631,-390.961"/>
<polygon fill="black" stroke="black" points="507.411,-393.985 514.84,-386.431 504.322,-387.704 507.411,-393.985"/>
<text text-anchor="middle" x="511.5" y="-410.3" font-family="Times,serif" font-size="14.00">withdraw</text>
</g>
<!-- Bill_billStateInSenate_firstReadingS&#45;&gt;Bill_billState_withdrawn -->
<g id="edge21" class="edge"><title>Bill_billStateInSenate_firstReadingS&#45;&gt;Bill_billState_withdrawn</title>
<path fill="none" stroke="black" d="M722.301,-455.267C665.855,-452.277 583.027,-444.138 561,-422 554.888,-415.857 552.252,-407.079 551.337,-398.533"/>
<polygon fill="black" stroke="black" points="554.83,-398.279 550.958,-388.417 547.835,-398.541 554.83,-398.279"/>
<text text-anchor="middle" x="587" y="-410.3" font-family="Times,serif" font-size="14.00">voteFails</text>
</g>
<!-- Bill_billStateInSenate_committeeConsiderationS -->
<g id="node11" class="node"><title>Bill_billStateInSenate_committeeConsiderationS</title>
<path fill="none" stroke="black" d="M880,-300C880,-300 742,-300 742,-300 736,-300 730,-294 730,-288 730,-288 730,-276 730,-276 730,-270 736,-264 742,-264 742,-264 880,-264 880,-264 886,-264 892,-270 892,-276 892,-276 892,-288 892,-288 892,-294 886,-300 880,-300"/>
<text text-anchor="middle" x="811" y="-278.3" font-family="Times,serif" font-size="14.00">committeeConsiderationS</text>
</g>
<!-- Bill_billStateInSenate_secondReadingS&#45;&gt;Bill_billStateInSenate_committeeConsiderationS -->
<g id="edge13" class="edge"><title>Bill_billStateInSenate_secondReadingS&#45;&gt;Bill_billStateInSenate_committeeConsiderationS</title>
<path fill="none" stroke="black" d="M831.739,-351.597C828.12,-339.629 823.245,-323.501 819.13,-309.891"/>
<polygon fill="black" stroke="black" points="822.409,-308.643 816.165,-300.084 815.709,-310.669 822.409,-308.643"/>
<text text-anchor="middle" x="856.5" y="-322.3" font-family="Times,serif" font-size="14.00">votePasses</text>
</g>
<!-- Bill_billStateInSenate_thirdReadingS -->
<g id="node12" class="node"><title>Bill_billStateInSenate_thirdReadingS</title>
<path fill="none" stroke="black" d="M815.25,-212C815.25,-212 742.75,-212 742.75,-212 736.75,-212 730.75,-206 730.75,-200 730.75,-200 730.75,-188 730.75,-188 730.75,-182 736.75,-176 742.75,-176 742.75,-176 815.25,-176 815.25,-176 821.25,-176 827.25,-182 827.25,-188 827.25,-188 827.25,-200 827.25,-200 827.25,-206 821.25,-212 815.25,-212"/>
<text text-anchor="middle" x="779" y="-190.3" font-family="Times,serif" font-size="14.00">thirdReadingS</text>
</g>
<!-- Bill_billStateInSenate_committeeConsiderationS&#45;&gt;Bill_billStateInSenate_thirdReadingS -->
<g id="edge14" class="edge"><title>Bill_billStateInSenate_committeeConsiderationS&#45;&gt;Bill_billStateInSenate_thirdReadingS</title>
<path fill="none" stroke="black" d="M804.524,-263.597C800.027,-251.511 793.952,-235.184 788.857,-221.491"/>
<polygon fill="black" stroke="black" points="792.125,-220.236 785.357,-212.084 785.564,-222.677 792.125,-220.236"/>
<text text-anchor="middle" x="827.5" y="-234.3" font-family="Times,serif" font-size="14.00">votePasses</text>
</g>
<!-- Bill_billStateInSenate_thirdReadingS&#45;&gt;Bill_billStateInHouseOfCommons_firstReading -->
<g id="edge4" class="edge"><title>Bill_billStateInSenate_thirdReadingS&#45;&gt;Bill_billStateInHouseOfCommons_firstReading</title>
<path fill="none" stroke="black" d="M730.705,-201.116C611.163,-216.633 302.806,-259.046 187.288,-297.762"/>
<polygon fill="black" stroke="black" points="185.961,-294.518 177.688,-301.137 188.283,-301.122 185.961,-294.518"/>
<text text-anchor="middle" x="229.5" y="-322.3" font-family="Times,serif" font-size="14.00">votePasses [!isCommonsBill]</text>
</g>
<!-- Bill_billStateInSenate_thirdReadingS&#45;&gt;Bill_billState_awaitingRoyalAssent -->
<g id="edge16" class="edge"><title>Bill_billStateInSenate_thirdReadingS&#45;&gt;Bill_billState_awaitingRoyalAssent</title>
<path fill="none" stroke="black" d="M730.598,-177.526C686.587,-163.455 621.358,-142.601 573.239,-127.218"/>
<polygon fill="black" stroke="black" points="574.141,-123.831 563.55,-124.12 572.009,-130.499 574.141,-123.831"/>
<text text-anchor="middle" x="750" y="-146.3" font-family="Times,serif" font-size="14.00">votePasses [isCommonsBill]</text>
</g>
<!-- Bill_billState_actOfParliament -->
<g id="node14" class="node"><title>Bill_billState_actOfParliament</title>
<path fill="none" stroke="black" d="M552,-36C552,-36 468,-36 468,-36 462,-36 456,-30 456,-24 456,-24 456,-12 456,-12 456,-6 462,-0 468,-0 468,-0 552,-0 552,-0 558,-0 564,-6 564,-12 564,-12 564,-24 564,-24 564,-30 558,-36 552,-36"/>
<text text-anchor="middle" x="510" y="-14.3" font-family="Times,serif" font-size="14.00">actOfParliament</text>
</g>
<!-- Bill_billState_awaitingRoyalAssent&#45;&gt;Bill_billState_actOfParliament -->
<g id="edge17" class="edge"><title>Bill_billState_awaitingRoyalAssent&#45;&gt;Bill_billState_actOfParliament</title>
<path fill="none" stroke="black" d="M510,-87.5966C510,-75.7459 510,-59.8169 510,-46.2917"/>
<polygon fill="black" stroke="black" points="513.5,-46.084 510,-36.084 506.5,-46.084 513.5,-46.084"/>
<text text-anchor="middle" x="543.5" y="-58.3" font-family="Times,serif" font-size="14.00">royalAssent</text>
</g>
<!-- Bill_billState_withdrawn&#45;&gt;Bill_billState_inPreparation -->
<g id="edge2" class="edge"><title>Bill_billState_withdrawn&#45;&gt;Bill_billState_inPreparation</title>
<path fill="none" stroke="black" d="M553.202,-351.597C553.34,-339.746 553.525,-323.817 553.683,-310.292"/>
<polygon fill="black" stroke="black" points="557.185,-310.124 553.801,-300.084 550.185,-310.043 557.185,-310.124"/>
<text text-anchor="middle" x="574.5" y="-322.3" font-family="Times,serif" font-size="14.00">modify</text>
</g>
</g>
</svg>
