<?xml version="1.0" encoding="UTF-8" standalone="no"?>
<!DOCTYPE svg PUBLIC "-//W3C//DTD SVG 1.1//EN"
 "http://www.w3.org/Graphics/SVG/1.1/DTD/svg11.dtd">
<!-- Generated by graphviz version 2.36.0 (20140111.2315)
 -->
<!-- Title: Phone Pages: 1 -->
<svg width="985pt" height="556pt"
 viewBox="0.00 0.00 985.25 556.00" xmlns="http://www.w3.org/2000/svg" xmlns:xlink="http://www.w3.org/1999/xlink">
<g id="graph0" class="graph" transform="scale(1 1) rotate(0) translate(4 552)">
<title>Phone</title>
<polygon fill="white" stroke="none" points="-4,4 -4,-552 981.254,-552 981.254,4 -4,4"/>
<!-- start_PhoneLine_state -->
<g id="node1" class="node"><title>start_PhoneLine_state</title>
<ellipse fill="black" stroke="black" cx="354.254" cy="-541" rx="7.2" ry="7.2"/>
</g>
<!-- PhoneLine_state_onHook -->
<g id="node2" class="node"><title>PhoneLine_state_onHook</title>
<path fill="none" stroke="black" d="M378.254,-496C378.254,-496 330.254,-496 330.254,-496 324.254,-496 318.254,-490 318.254,-484 318.254,-484 318.254,-472 318.254,-472 318.254,-466 324.254,-460 330.254,-460 330.254,-460 378.254,-460 378.254,-460 384.254,-460 390.254,-466 390.254,-472 390.254,-472 390.254,-484 390.254,-484 390.254,-490 384.254,-496 378.254,-496"/>
<text text-anchor="middle" x="354.254" y="-474.3" font-family="Times,serif" font-size="14.00">onHook</text>
</g>
<!-- start_PhoneLine_state&#45;&gt;PhoneLine_state_onHook -->
<g id="edge1" class="edge"><title>start_PhoneLine_state&#45;&gt;PhoneLine_state_onHook</title>
<path fill="none" stroke="black" d="M354.254,-533.472C354.254,-526.902 354.254,-516.324 354.254,-506.229"/>
<polygon fill="black" stroke="black" points="357.754,-506.073 354.254,-496.073 350.754,-506.073 357.754,-506.073"/>
</g>
<!-- PhoneLine_state_ringing -->
<g id="node3" class="node"><title>PhoneLine_state_ringing</title>
<path fill="none" stroke="black" d="M81.254,-354C81.254,-354 33.254,-354 33.254,-354 27.254,-354 21.254,-348 21.254,-342 21.254,-342 21.254,-330 21.254,-330 21.254,-324 27.254,-318 33.254,-318 33.254,-318 81.254,-318 81.254,-318 87.254,-318 93.254,-324 93.254,-330 93.254,-330 93.254,-342 93.254,-342 93.254,-348 87.254,-354 81.254,-354"/>
<text text-anchor="middle" x="57.254" y="-332.3" font-family="Times,serif" font-size="14.00">ringing</text>
</g>
<!-- PhoneLine_state_onHook&#45;&gt;PhoneLine_state_ringing -->
<g id="edge9" class="edge"><title>PhoneLine_state_onHook&#45;&gt;PhoneLine_state_ringing</title>
<path fill="none" stroke="black" d="M318.135,-475.973C234.56,-473.226 33.416,-464.337 13.254,-442 -7.47741,-419.032 13.5983,-384.891 33.1034,-361.83"/>
<polygon fill="black" stroke="black" points="35.8705,-363.985 39.866,-354.172 30.6234,-359.351 35.8705,-363.985"/>
<text text-anchor="middle" x="51.754" y="-430.3" font-family="Times,serif" font-size="14.00">incomingCall</text>
</g>
<!-- PhoneLine_state_dialing -->
<g id="node6" class="node"><title>PhoneLine_state_dialing</title>
<path fill="none" stroke="black" d="M378.254,-408C378.254,-408 330.254,-408 330.254,-408 324.254,-408 318.254,-402 318.254,-396 318.254,-396 318.254,-384 318.254,-384 318.254,-378 324.254,-372 330.254,-372 330.254,-372 378.254,-372 378.254,-372 384.254,-372 390.254,-378 390.254,-384 390.254,-384 390.254,-396 390.254,-396 390.254,-402 384.254,-408 378.254,-408"/>
<text text-anchor="middle" x="354.254" y="-386.3" font-family="Times,serif" font-size="14.00">dialing</text>
</g>
<!-- PhoneLine_state_onHook&#45;&gt;PhoneLine_state_dialing -->
<g id="edge15" class="edge"><title>PhoneLine_state_onHook&#45;&gt;PhoneLine_state_dialing</title>
<path fill="none" stroke="black" d="M317.784,-466.554C294.962,-457.99 271.872,-444.3 283.254,-426 289.2,-416.44 298.611,-409.414 308.661,-404.28"/>
<polygon fill="black" stroke="black" points="310.308,-407.376 317.989,-400.078 307.433,-400.994 310.308,-407.376"/>
<text text-anchor="middle" x="316.754" y="-430.3" font-family="Times,serif" font-size="14.00">startDialing</text>
</g>
<!-- PhoneLine_state_ringing&#45;&gt;PhoneLine_state_onHook -->
<g id="edge2" class="edge"><title>PhoneLine_state_ringing&#45;&gt;PhoneLine_state_onHook</title>
<path fill="none" stroke="black" d="M60.8627,-354.002C66.8809,-377.85 81.3783,-420.698 111.254,-442 141.928,-463.871 246.107,-472.226 307.652,-475.303"/>
<polygon fill="black" stroke="black" points="307.728,-478.81 317.882,-475.785 308.058,-471.818 307.728,-478.81"/>
<text text-anchor="middle" x="164.254" y="-430.3" font-family="Times,serif" font-size="14.00">otherPartyHangUp</text>
</g>
<!-- PhoneLine_state_communicating -->
<g id="node4" class="node"><title>PhoneLine_state_communicating</title>
<path fill="none" stroke="black" d="M329.254,-212C329.254,-212 249.254,-212 249.254,-212 243.254,-212 237.254,-206 237.254,-200 237.254,-200 237.254,-188 237.254,-188 237.254,-182 243.254,-176 249.254,-176 249.254,-176 329.254,-176 329.254,-176 335.254,-176 341.254,-182 341.254,-188 341.254,-188 341.254,-200 341.254,-200 341.254,-206 335.254,-212 329.254,-212"/>
<text text-anchor="middle" x="289.254" y="-190.3" font-family="Times,serif" font-size="14.00">communicating</text>
</g>
<!-- PhoneLine_state_ringing&#45;&gt;PhoneLine_state_communicating -->
<g id="edge10" class="edge"><title>PhoneLine_state_ringing&#45;&gt;PhoneLine_state_communicating</title>
<path fill="none" stroke="black" d="M22.4488,-317.939C15.9376,-313.081 10.0065,-307.126 6.25399,-300 -1.20069,-285.843 -2.71607,-277.249 6.25399,-264 30.7596,-227.804 151.215,-209.029 226.861,-200.652"/>
<polygon fill="black" stroke="black" points="227.654,-204.087 237.223,-199.538 226.906,-197.127 227.654,-204.087"/>
<text text-anchor="middle" x="44.754" y="-278.3" font-family="Times,serif" font-size="14.00">pickUp / {...}</text>
</g>
<!-- PhoneLine_state_ringing&#45;&gt;PhoneLine_state_communicating -->
<g id="edge11" class="edge"><title>PhoneLine_state_ringing&#45;&gt;PhoneLine_state_communicating</title>
<path fill="none" stroke="black" d="M70.7538,-317.767C85.4079,-299.397 108.194,-271.884 119.254,-264 151.832,-240.778 193.365,-223.734 227.223,-212.395"/>
<polygon fill="black" stroke="black" points="228.587,-215.631 237.009,-209.203 226.417,-208.976 228.587,-215.631"/>
<text text-anchor="middle" x="168.254" y="-278.3" font-family="Times,serif" font-size="14.00">autoPickup / {...}</text>
</g>
<!-- PhoneLine_state_communicating&#45;&gt;PhoneLine_state_onHook -->
<g id="edge3" class="edge"><title>PhoneLine_state_communicating&#45;&gt;PhoneLine_state_onHook</title>
<path fill="none" stroke="black" d="M276.963,-212.299C257.967,-241.138 224.797,-301.106 236.254,-354 245.349,-395.988 245.802,-411.695 276.254,-442 285.303,-451.005 297.075,-457.91 308.72,-463.109"/>
<polygon fill="black" stroke="black" points="307.398,-466.35 317.978,-466.921 310.063,-459.877 307.398,-466.35"/>
<text text-anchor="middle" x="295.254" y="-332.3" font-family="Times,serif" font-size="14.00">hangUp / say(Click);</text>
</g>
<!-- PhoneLine_state_onHold -->
<g id="node5" class="node"><title>PhoneLine_state_onHold</title>
<path fill="none" stroke="black" d="M473.254,-124C473.254,-124 425.254,-124 425.254,-124 419.254,-124 413.254,-118 413.254,-112 413.254,-112 413.254,-100 413.254,-100 413.254,-94 419.254,-88 425.254,-88 425.254,-88 473.254,-88 473.254,-88 479.254,-88 485.254,-94 485.254,-100 485.254,-100 485.254,-112 485.254,-112 485.254,-118 479.254,-124 473.254,-124"/>
<text text-anchor="middle" x="449.254" y="-102.3" font-family="Times,serif" font-size="14.00">onHold</text>
</g>
<!-- PhoneLine_state_communicating&#45;&gt;PhoneLine_state_onHold -->
<g id="edge14" class="edge"><title>PhoneLine_state_communicating&#45;&gt;PhoneLine_state_onHold</title>
<path fill="none" stroke="black" d="M299.643,-175.948C307.326,-164.726 318.767,-150.576 332.254,-142 358.273,-125.455 369.753,-132.967 399.254,-124 400.652,-123.575 402.07,-123.137 403.499,-122.689"/>
<polygon fill="black" stroke="black" points="404.574,-126.021 413.023,-119.629 402.432,-119.356 404.574,-126.021"/>
<text text-anchor="middle" x="364.254" y="-146.3" font-family="Times,serif" font-size="14.00">putOnHold</text>
</g>
<!-- PhoneLine_state_waitForHook -->
<g id="node8" class="node"><title>PhoneLine_state_waitForHook</title>
<path fill="none" stroke="black" d="M482.504,-36C482.504,-36 416.004,-36 416.004,-36 410.004,-36 404.004,-30 404.004,-24 404.004,-24 404.004,-12 404.004,-12 404.004,-6 410.004,-0 416.004,-0 416.004,-0 482.504,-0 482.504,-0 488.504,-0 494.504,-6 494.504,-12 494.504,-12 494.504,-24 494.504,-24 494.504,-30 488.504,-36 482.504,-36"/>
<text text-anchor="middle" x="449.254" y="-14.3" font-family="Times,serif" font-size="14.00">waitForHook</text>
</g>
<!-- PhoneLine_state_communicating&#45;&gt;PhoneLine_state_waitForHook -->
<g id="edge17" class="edge"><title>PhoneLine_state_communicating&#45;&gt;PhoneLine_state_waitForHook</title>
<path fill="none" stroke="black" d="M285.848,-175.977C282.377,-153.629 279.811,-114.173 298.254,-88 320.371,-56.6126 360.36,-39.207 393.632,-29.7311"/>
<polygon fill="black" stroke="black" points="394.956,-33.0002 403.714,-27.0382 393.15,-26.2372 394.956,-33.0002"/>
<text text-anchor="middle" x="351.254" y="-102.3" font-family="Times,serif" font-size="14.00">otherPartyHangUp</text>
</g>
<!-- PhoneLine_state_onHold&#45;&gt;PhoneLine_state_onHook -->
<g id="edge4" class="edge"><title>PhoneLine_state_onHold&#45;&gt;PhoneLine_state_onHook</title>
<path fill="none" stroke="black" d="M485.409,-111.102C557.711,-120.316 713.254,-145.64 713.254,-193 713.254,-391 713.254,-391 713.254,-391 713.254,-454.614 497.376,-471.283 400.428,-475.561"/>
<polygon fill="black" stroke="black" points="400.166,-472.069 390.32,-475.981 400.457,-479.063 400.166,-472.069"/>
<text text-anchor="middle" x="772.254" y="-278.3" font-family="Times,serif" font-size="14.00">hangUp / say(Click);</text>
</g>
<!-- PhoneLine_state_onHold&#45;&gt;PhoneLine_state_communicating -->
<g id="edge12" class="edge"><title>PhoneLine_state_onHold&#45;&gt;PhoneLine_state_communicating</title>
<path fill="none" stroke="black" d="M436.401,-124.308C427.385,-135.351 414.443,-149.195 400.254,-158 385.328,-167.263 367.738,-174.271 351.015,-179.487"/>
<polygon fill="black" stroke="black" points="349.897,-176.168 341.296,-182.355 351.878,-182.882 349.897,-176.168"/>
<text text-anchor="middle" x="454.754" y="-146.3" font-family="Times,serif" font-size="14.00">takeOffHold</text>
</g>
<!-- PhoneLine_state_onHold&#45;&gt;PhoneLine_state_waitForHook -->
<g id="edge18" class="edge"><title>PhoneLine_state_onHold&#45;&gt;PhoneLine_state_waitForHook</title>
<path fill="none" stroke="black" d="M449.254,-87.5966C449.254,-75.7459 449.254,-59.8169 449.254,-46.2917"/>
<polygon fill="black" stroke="black" points="452.754,-46.084 449.254,-36.084 445.754,-46.084 452.754,-46.084"/>
<text text-anchor="middle" x="502.254" y="-58.3" font-family="Times,serif" font-size="14.00">otherPartyHangUp</text>
</g>
<!-- PhoneLine_state_dialing&#45;&gt;PhoneLine_state_onHook -->
<g id="edge5" class="edge"><title>PhoneLine_state_dialing&#45;&gt;PhoneLine_state_onHook</title>
<path fill="none" stroke="black" d="M354.254,-408.084C354.254,-419.861 354.254,-435.774 354.254,-449.342"/>
<polygon fill="black" stroke="black" points="350.754,-449.597 354.254,-459.597 357.754,-449.597 350.754,-449.597"/>
<text text-anchor="middle" x="413.254" y="-430.3" font-family="Times,serif" font-size="14.00">hangUp / say(Click);</text>
</g>
<!-- PhoneLine_state_waitingForConnection -->
<g id="node7" class="node"><title>PhoneLine_state_waitingForConnection</title>
<path fill="none" stroke="black" d="M488.254,-300C488.254,-300 370.254,-300 370.254,-300 364.254,-300 358.254,-294 358.254,-288 358.254,-288 358.254,-276 358.254,-276 358.254,-270 364.254,-264 370.254,-264 370.254,-264 488.254,-264 488.254,-264 494.254,-264 500.254,-270 500.254,-276 500.254,-276 500.254,-288 500.254,-288 500.254,-294 494.254,-300 488.254,-300"/>
<text text-anchor="middle" x="429.254" y="-278.3" font-family="Times,serif" font-size="14.00">waitingForConnection</text>
</g>
<!-- PhoneLine_state_dialing&#45;&gt;PhoneLine_state_waitingForConnection -->
<g id="edge16" class="edge"><title>PhoneLine_state_dialing&#45;&gt;PhoneLine_state_waitingForConnection</title>
<path fill="none" stroke="black" d="M355.301,-371.991C357.008,-356.575 361.493,-333.901 373.254,-318 376.411,-313.731 380.259,-309.861 384.444,-306.386"/>
<polygon fill="black" stroke="black" points="386.861,-308.951 392.815,-300.187 382.696,-303.326 386.861,-308.951"/>
<text text-anchor="middle" x="422.254" y="-332.3" font-family="Times,serif" font-size="14.00">completeNumber</text>
</g>
<!-- PhoneLine_state_waitingForConnection&#45;&gt;PhoneLine_state_onHook -->
<g id="edge6" class="edge"><title>PhoneLine_state_waitingForConnection&#45;&gt;PhoneLine_state_onHook</title>
<path fill="none" stroke="black" d="M456.856,-300.174C462.637,-305.168 467.97,-311.154 471.254,-318 517.042,-413.449 480.243,-432.659 473.254,-442 456.511,-464.376 426.163,-473.06 400.306,-476.184"/>
<polygon fill="black" stroke="black" points="399.905,-472.706 390.289,-477.153 400.579,-479.674 399.905,-472.706"/>
<text text-anchor="middle" x="552.254" y="-386.3" font-family="Times,serif" font-size="14.00">hangUp / say(Click);</text>
</g>
<!-- PhoneLine_state_waitingForConnection&#45;&gt;PhoneLine_state_onHook -->
<g id="edge7" class="edge"><title>PhoneLine_state_waitingForConnection&#45;&gt;PhoneLine_state_onHook</title>
<path fill="none" stroke="black" d="M498.696,-300.048C566.39,-320.064 653.902,-357.108 615.254,-408 589.438,-441.994 468.225,-462.545 400.438,-471.574"/>
<polygon fill="black" stroke="black" points="399.907,-468.113 390.441,-472.873 400.809,-475.055 399.907,-468.113"/>
<text text-anchor="middle" x="647.254" y="-386.3" font-family="Times,serif" font-size="14.00">timeOut</text>
</g>
<!-- PhoneLine_state_waitingForConnection&#45;&gt;PhoneLine_state_communicating -->
<g id="edge13" class="edge"><title>PhoneLine_state_waitingForConnection&#45;&gt;PhoneLine_state_communicating</title>
<path fill="none" stroke="black" d="M401.259,-263.803C379.608,-250.503 349.448,-231.976 325.879,-217.498"/>
<polygon fill="black" stroke="black" points="327.553,-214.419 317.2,-212.167 323.889,-220.383 327.553,-214.419"/>
<text text-anchor="middle" x="421.754" y="-234.3" font-family="Times,serif" font-size="14.00">otherPartyPickUp</text>
</g>
<!-- PhoneLine_state_waitForHook&#45;&gt;PhoneLine_state_onHook -->
<g id="edge8" class="edge"><title>PhoneLine_state_waitForHook&#45;&gt;PhoneLine_state_onHook</title>
<path fill="none" stroke="black" d="M494.698,-19.0398C601.446,-20.3569 859.254,-31.1795 859.254,-105 859.254,-391 859.254,-391 859.254,-391 859.254,-437.28 525.399,-465.156 400.591,-473.96"/>
<polygon fill="black" stroke="black" points="400.305,-470.471 390.572,-474.657 400.791,-477.454 400.305,-470.471"/>
<text text-anchor="middle" x="918.254" y="-234.3" font-family="Times,serif" font-size="14.00">hangUp / say(Click);</text>
</g>
</g>
</svg>
