<?xml version="1.0" encoding="UTF-8" standalone="no"?>
<!DOCTYPE svg PUBLIC "-//W3C//DTD SVG 1.1//EN"
 "http://www.w3.org/Graphics/SVG/1.1/DTD/svg11.dtd">
<!-- Generated by graphviz version 2.29.20121108.1600 (20121108.1600)
 -->
<!-- Title: Phone Pages: 1 -->
<svg width="980pt" height="564pt"
 viewBox="0.00 0.00 979.73 564.00" xmlns="http://www.w3.org/2000/svg" xmlns:xlink="http://www.w3.org/1999/xlink">
<g id="graph0" class="graph" transform="scale(1 1) rotate(0) translate(4 560)">
<title>Phone</title>
<polygon fill="white" stroke="white" points="-4,5 -4,-560 976.733,-560 976.733,5 -4,5"/>
<!-- start_PhoneLine_state -->
<g id="node1" class="node"><title>start_PhoneLine_state</title>
<ellipse fill="black" stroke="black" cx="352.312" cy="-549" rx="7.2" ry="7.2"/>
</g>
<!-- PhoneLine_state_onHook -->
<g id="node2" class="node"><title>PhoneLine_state_onHook</title>
<path fill="none" stroke="black" d="M376.312,-504C376.312,-504 328.312,-504 328.312,-504 322.312,-504 316.312,-498 316.312,-492 316.312,-492 316.312,-480 316.312,-480 316.312,-474 322.312,-468 328.312,-468 328.312,-468 376.312,-468 376.312,-468 382.312,-468 388.312,-474 388.312,-480 388.312,-480 388.312,-492 388.312,-492 388.312,-498 382.312,-504 376.312,-504"/>
<text text-anchor="middle" x="352.312" y="-480.4" font-family="Times,serif" font-size="14.00">onHook</text>
</g>
<!-- start_PhoneLine_state&#45;&gt;PhoneLine_state_onHook -->
<g id="edge1" class="edge"><title>start_PhoneLine_state&#45;&gt;PhoneLine_state_onHook</title>
<path fill="none" stroke="black" d="M352.312,-541.472C352.312,-534.902 352.312,-524.324 352.312,-514.229"/>
<polygon fill="black" stroke="black" points="355.812,-514.073 352.312,-504.073 348.812,-514.073 355.812,-514.073"/>
</g>
<!-- PhoneLine_state_ringing -->
<g id="node3" class="node"><title>PhoneLine_state_ringing</title>
<path fill="none" stroke="black" d="M81.3119,-360C81.3119,-360 33.3119,-360 33.3119,-360 27.3119,-360 21.3119,-354 21.3119,-348 21.3119,-348 21.3119,-336 21.3119,-336 21.3119,-330 27.3119,-324 33.3119,-324 33.3119,-324 81.3119,-324 81.3119,-324 87.3119,-324 93.3119,-330 93.3119,-336 93.3119,-336 93.3119,-348 93.3119,-348 93.3119,-354 87.3119,-360 81.3119,-360"/>
<text text-anchor="middle" x="57.3119" y="-336.4" font-family="Times,serif" font-size="14.00">ringing</text>
</g>
<!-- PhoneLine_state_onHook&#45;&gt;PhoneLine_state_ringing -->
<g id="edge9" class="edge"><title>PhoneLine_state_onHook&#45;&gt;PhoneLine_state_ringing</title>
<path fill="none" stroke="black" d="M316.073,-483.948C232.748,-481.157 33.1248,-472.199 13.098,-450 -8.09879,-426.504 13.4983,-391.439 33.2706,-367.921"/>
<polygon fill="black" stroke="black" points="36.1495,-369.946 40.115,-360.122 30.8883,-365.329 36.1495,-369.946"/>
<text text-anchor="middle" x="51.4188" y="-435.4" font-family="Times,serif" font-size="14.00">incomingCall</text>
</g>
<!-- PhoneLine_state_dialing -->
<g id="node6" class="node"><title>PhoneLine_state_dialing</title>
<path fill="none" stroke="black" d="M376.312,-414C376.312,-414 328.312,-414 328.312,-414 322.312,-414 316.312,-408 316.312,-402 316.312,-402 316.312,-390 316.312,-390 316.312,-384 322.312,-378 328.312,-378 328.312,-378 376.312,-378 376.312,-378 382.312,-378 388.312,-384 388.312,-390 388.312,-390 388.312,-402 388.312,-402 388.312,-408 382.312,-414 376.312,-414"/>
<text text-anchor="middle" x="352.312" y="-390.4" font-family="Times,serif" font-size="14.00">dialing</text>
</g>
<!-- PhoneLine_state_onHook&#45;&gt;PhoneLine_state_dialing -->
<g id="edge15" class="edge"><title>PhoneLine_state_onHook&#45;&gt;PhoneLine_state_dialing</title>
<path fill="none" stroke="black" d="M316.127,-475.663C303.12,-470.371 289.799,-462.263 282.215,-450 272.378,-434.093 288.035,-421.268 307.026,-412.22"/>
<polygon fill="black" stroke="black" points="308.449,-415.418 316.212,-408.208 305.647,-409.003 308.449,-415.418"/>
<text text-anchor="middle" x="315.36" y="-435.4" font-family="Times,serif" font-size="14.00">startDialing</text>
</g>
<!-- PhoneLine_state_ringing&#45;&gt;PhoneLine_state_onHook -->
<g id="edge2" class="edge"><title>PhoneLine_state_ringing&#45;&gt;PhoneLine_state_onHook</title>
<path fill="none" stroke="black" d="M60.6993,-360.308C66.4256,-384.589 80.47,-428.226 110.56,-450 140.927,-471.974 244.628,-480.29 305.906,-483.332"/>
<polygon fill="black" stroke="black" points="305.94,-486.837 316.093,-483.809 306.267,-479.845 305.94,-486.837"/>
<text text-anchor="middle" x="164.188" y="-435.4" font-family="Times,serif" font-size="14.00">otherPartyHangUp</text>
</g>
<!-- PhoneLine_state_communicating -->
<g id="node4" class="node"><title>PhoneLine_state_communicating</title>
<path fill="none" stroke="black" d="M505.629,-216C505.629,-216 426.995,-216 426.995,-216 420.995,-216 414.995,-210 414.995,-204 414.995,-204 414.995,-192 414.995,-192 414.995,-186 420.995,-180 426.995,-180 426.995,-180 505.629,-180 505.629,-180 511.629,-180 517.629,-186 517.629,-192 517.629,-192 517.629,-204 517.629,-204 517.629,-210 511.629,-216 505.629,-216"/>
<text text-anchor="middle" x="466.312" y="-192.4" font-family="Times,serif" font-size="14.00">communicating</text>
</g>
<!-- PhoneLine_state_ringing&#45;&gt;PhoneLine_state_communicating -->
<g id="edge10" class="edge"><title>PhoneLine_state_ringing&#45;&gt;PhoneLine_state_communicating</title>
<path fill="none" stroke="black" d="M22.4779,-323.944C15.9612,-319.086 10.025,-313.13 6.26891,-306 -1.18854,-291.844 -2.54018,-283.357 6.26891,-270 28.6413,-236.078 50.9277,-244.005 90.3119,-234 198.639,-206.482 329.435,-200.093 404.733,-198.895"/>
<polygon fill="black" stroke="black" points="405.029,-202.392 414.982,-198.759 404.936,-195.393 405.029,-202.392"/>
<text text-anchor="middle" x="44.3334" y="-282.4" font-family="Times,serif" font-size="14.00">pickUp / {...}</text>
</g>
<!-- PhoneLine_state_ringing&#45;&gt;PhoneLine_state_communicating -->
<g id="edge11" class="edge"><title>PhoneLine_state_ringing&#45;&gt;PhoneLine_state_communicating</title>
<path fill="none" stroke="black" d="M70.5638,-323.697C84.9619,-305.263 107.39,-277.693 118.49,-270 156.565,-243.609 171.378,-245.276 216.312,-234 279.544,-218.133 353.7,-208.888 404.737,-203.927"/>
<polygon fill="black" stroke="black" points="405.319,-207.388 414.945,-202.962 404.66,-200.419 405.319,-207.388"/>
<text text-anchor="middle" x="168.223" y="-282.4" font-family="Times,serif" font-size="14.00">autoPickup / {...}</text>
</g>
<!-- PhoneLine_state_communicating&#45;&gt;PhoneLine_state_onHook -->
<g id="edge3" class="edge"><title>PhoneLine_state_communicating&#45;&gt;PhoneLine_state_onHook</title>
<path fill="none" stroke="black" d="M414.798,-210.279C359.051,-225.538 272.907,-258.715 233.891,-324 203.65,-374.601 233.531,-408.415 275.312,-450 284.093,-458.74 295.451,-465.521 306.732,-470.685"/>
<polygon fill="black" stroke="black" points="305.558,-473.988 316.132,-474.649 308.278,-467.538 305.558,-473.988"/>
<text text-anchor="middle" x="293.022" y="-336.4" font-family="Times,serif" font-size="14.00">hangUp / say(Click);</text>
</g>
<!-- PhoneLine_state_onHold -->
<g id="node5" class="node"><title>PhoneLine_state_onHold</title>
<path fill="none" stroke="black" d="M650.312,-126C650.312,-126 602.312,-126 602.312,-126 596.312,-126 590.312,-120 590.312,-114 590.312,-114 590.312,-102 590.312,-102 590.312,-96 596.312,-90 602.312,-90 602.312,-90 650.312,-90 650.312,-90 656.312,-90 662.312,-96 662.312,-102 662.312,-102 662.312,-114 662.312,-114 662.312,-120 656.312,-126 650.312,-126"/>
<text text-anchor="middle" x="626.312" y="-102.4" font-family="Times,serif" font-size="14.00">onHold</text>
</g>
<!-- PhoneLine_state_communicating&#45;&gt;PhoneLine_state_onHold -->
<g id="edge14" class="edge"><title>PhoneLine_state_communicating&#45;&gt;PhoneLine_state_onHold</title>
<path fill="none" stroke="black" d="M476.238,-179.796C483.858,-168.061 495.416,-153.059 509.312,-144 534.782,-127.396 546.212,-134.811 575.312,-126 576.97,-125.498 578.656,-124.979 580.357,-124.449"/>
<polygon fill="black" stroke="black" points="581.707,-127.693 590.172,-121.322 579.581,-121.023 581.707,-127.693"/>
<text text-anchor="middle" x="540.812" y="-147.4" font-family="Times,serif" font-size="14.00">putOnHold</text>
</g>
<!-- PhoneLine_state_waitForHook -->
<g id="node8" class="node"><title>PhoneLine_state_waitForHook</title>
<path fill="none" stroke="black" d="M659.31,-36C659.31,-36 593.314,-36 593.314,-36 587.314,-36 581.314,-30 581.314,-24 581.314,-24 581.314,-12 581.314,-12 581.314,-6 587.314,-0 593.314,-0 593.314,-0 659.31,-0 659.31,-0 665.31,-0 671.31,-6 671.31,-12 671.31,-12 671.31,-24 671.31,-24 671.31,-30 665.31,-36 659.31,-36"/>
<text text-anchor="middle" x="626.312" y="-12.4" font-family="Times,serif" font-size="14.00">waitForHook</text>
</g>
<!-- PhoneLine_state_communicating&#45;&gt;PhoneLine_state_waitForHook -->
<g id="edge17" class="edge"><title>PhoneLine_state_communicating&#45;&gt;PhoneLine_state_waitForHook</title>
<path fill="none" stroke="black" d="M462.902,-179.684C459.436,-156.944 456.909,-116.774 475.56,-90 497.759,-58.132 538.132,-40.1624 571.514,-30.2782"/>
<polygon fill="black" stroke="black" points="572.48,-33.6422 581.171,-27.5818 570.598,-26.9001 572.48,-33.6422"/>
<text text-anchor="middle" x="529.188" y="-102.4" font-family="Times,serif" font-size="14.00">otherPartyHangUp</text>
</g>
<!-- PhoneLine_state_onHold&#45;&gt;PhoneLine_state_onHook -->
<g id="edge4" class="edge"><title>PhoneLine_state_onHold&#45;&gt;PhoneLine_state_onHook</title>
<path fill="none" stroke="black" d="M658.164,-126.176C681.571,-141.363 709.312,-165.918 709.312,-197 709.312,-397 709.312,-397 709.312,-397 709.312,-460.284 495.158,-478.328 398.58,-483.248"/>
<polygon fill="black" stroke="black" points="398.327,-479.756 388.508,-483.735 398.665,-486.748 398.327,-479.756"/>
<text text-anchor="middle" x="768.022" y="-282.4" font-family="Times,serif" font-size="14.00">hangUp / say(Click);</text>
</g>
<!-- PhoneLine_state_onHold&#45;&gt;PhoneLine_state_communicating -->
<g id="edge12" class="edge"><title>PhoneLine_state_onHold&#45;&gt;PhoneLine_state_communicating</title>
<path fill="none" stroke="black" d="M613.854,-126.228C604.659,-137.82 591.197,-152.641 576.312,-162 561.491,-171.318 543.977,-178.353 527.333,-183.577"/>
<polygon fill="black" stroke="black" points="526.252,-180.246 517.661,-186.447 528.243,-186.957 526.252,-180.246"/>
<text text-anchor="middle" x="632.565" y="-147.4" font-family="Times,serif" font-size="14.00">takeOffHold</text>
</g>
<!-- PhoneLine_state_onHold&#45;&gt;PhoneLine_state_waitForHook -->
<g id="edge18" class="edge"><title>PhoneLine_state_onHold&#45;&gt;PhoneLine_state_waitForHook</title>
<path fill="none" stroke="black" d="M626.312,-89.614C626.312,-77.2403 626.312,-60.3686 626.312,-46.2198"/>
<polygon fill="black" stroke="black" points="629.812,-46.0504 626.312,-36.0504 622.812,-46.0504 629.812,-46.0504"/>
<text text-anchor="middle" x="679.188" y="-57.4" font-family="Times,serif" font-size="14.00">otherPartyHangUp</text>
</g>
<!-- PhoneLine_state_dialing&#45;&gt;PhoneLine_state_onHook -->
<g id="edge5" class="edge"><title>PhoneLine_state_dialing&#45;&gt;PhoneLine_state_onHook</title>
<path fill="none" stroke="black" d="M352.312,-414.05C352.312,-426.342 352.312,-443.197 352.312,-457.395"/>
<polygon fill="black" stroke="black" points="348.812,-457.614 352.312,-467.614 355.812,-457.614 348.812,-457.614"/>
<text text-anchor="middle" x="411.022" y="-435.4" font-family="Times,serif" font-size="14.00">hangUp / say(Click);</text>
</g>
<!-- PhoneLine_state_waitingForConnection -->
<g id="node7" class="node"><title>PhoneLine_state_waitingForConnection</title>
<path fill="none" stroke="black" d="M531.802,-306C531.802,-306 414.822,-306 414.822,-306 408.822,-306 402.822,-300 402.822,-294 402.822,-294 402.822,-282 402.822,-282 402.822,-276 408.822,-270 414.822,-270 414.822,-270 531.802,-270 531.802,-270 537.802,-270 543.802,-276 543.802,-282 543.802,-282 543.802,-294 543.802,-294 543.802,-300 537.802,-306 531.802,-306"/>
<text text-anchor="middle" x="473.312" y="-282.4" font-family="Times,serif" font-size="14.00">waitingForConnection</text>
</g>
<!-- PhoneLine_state_dialing&#45;&gt;PhoneLine_state_waitingForConnection -->
<g id="edge16" class="edge"><title>PhoneLine_state_dialing&#45;&gt;PhoneLine_state_waitingForConnection</title>
<path fill="none" stroke="black" d="M352.454,-377.931C353.495,-362.035 357.48,-338.65 371.125,-324 377.461,-317.198 385.175,-311.718 393.495,-307.303"/>
<polygon fill="black" stroke="black" points="395.194,-310.37 402.725,-302.918 392.19,-304.048 395.194,-310.37"/>
<text text-anchor="middle" x="419.905" y="-336.4" font-family="Times,serif" font-size="14.00">completeNumber</text>
</g>
<!-- PhoneLine_state_waitingForConnection&#45;&gt;PhoneLine_state_onHook -->
<g id="edge6" class="edge"><title>PhoneLine_state_waitingForConnection&#45;&gt;PhoneLine_state_onHook</title>
<path fill="none" stroke="black" d="M478.938,-306.148C488.253,-338.081 502.819,-407.287 470.312,-450 453.706,-471.819 424.1,-480.559 398.698,-483.849"/>
<polygon fill="black" stroke="black" points="398.065,-480.396 388.483,-484.918 398.794,-487.358 398.065,-480.396"/>
<text text-anchor="middle" x="550.022" y="-390.4" font-family="Times,serif" font-size="14.00">hangUp / say(Click);</text>
</g>
<!-- PhoneLine_state_waitingForConnection&#45;&gt;PhoneLine_state_onHook -->
<g id="edge7" class="edge"><title>PhoneLine_state_waitingForConnection&#45;&gt;PhoneLine_state_onHook</title>
<path fill="none" stroke="black" d="M519.199,-306.113C571.531,-328.256 645.784,-369.327 612.312,-414 586.759,-448.104 465.941,-469.621 398.36,-479.198"/>
<polygon fill="black" stroke="black" points="397.819,-475.739 388.393,-480.578 398.779,-482.673 397.819,-475.739"/>
<text text-anchor="middle" x="643.253" y="-390.4" font-family="Times,serif" font-size="14.00">timeOut</text>
</g>
<!-- PhoneLine_state_waitingForConnection&#45;&gt;PhoneLine_state_communicating -->
<g id="edge13" class="edge"><title>PhoneLine_state_waitingForConnection&#45;&gt;PhoneLine_state_communicating</title>
<path fill="none" stroke="black" d="M471.929,-269.614C470.945,-257.24 469.603,-240.369 468.477,-226.22"/>
<polygon fill="black" stroke="black" points="471.95,-225.741 467.668,-216.05 464.972,-226.296 471.95,-225.741"/>
<text text-anchor="middle" x="521.471" y="-237.4" font-family="Times,serif" font-size="14.00">otherPartyPickUp</text>
</g>
<!-- PhoneLine_state_waitForHook&#45;&gt;PhoneLine_state_onHook -->
<g id="edge8" class="edge"><title>PhoneLine_state_waitForHook&#45;&gt;PhoneLine_state_onHook</title>
<path fill="none" stroke="black" d="M671.357,-26.9154C737.804,-39.8907 854.312,-68.1771 854.312,-107 854.312,-397 854.312,-397 854.312,-397 854.312,-442.997 523.106,-472.331 398.748,-481.723"/>
<polygon fill="black" stroke="black" points="398.127,-478.26 388.414,-482.494 398.647,-485.24 398.127,-478.26"/>
<text text-anchor="middle" x="913.022" y="-237.4" font-family="Times,serif" font-size="14.00">hangUp / say(Click);</text>
</g>
</g>
</svg>
