<?xml version="1.0" encoding="UTF-8" standalone="no"?>
<!DOCTYPE svg PUBLIC "-//W3C//DTD SVG 1.1//EN"
 "http://www.w3.org/Graphics/SVG/1.1/DTD/svg11.dtd">
<!-- Generated by graphviz version 2.40.1 (20161225.0304)
 -->
<!-- Title: Phone Pages: 1 -->
<svg width="980pt" height="547pt"
 viewBox="0.00 0.00 979.74 547.40" xmlns="http://www.w3.org/2000/svg" xmlns:xlink="http://www.w3.org/1999/xlink">
<g id="graph0" class="graph" transform="scale(1 1) rotate(0) translate(4 543.4)">
<title>Phone</title>
<polygon fill="#ffffff" stroke="transparent" points="-4,4 -4,-543.4 975.7377,-543.4 975.7377,4 -4,4"/>
<!-- start_PhoneLine_state -->
<g id="node1" class="node">
<title>start_PhoneLine_state</title>
<g id="a_node1"><a xlink:title="Class PhoneLine, SM state, State start">
<ellipse fill="#000000" stroke="#000000" cx="352.3168" cy="-532.2" rx="7.2" ry="7.2"/>
</a>
</g>
</g>
<!-- PhoneLine_state_onHook -->
<g id="node2" class="node">
<title>PhoneLine_state_onHook</title>
<g id="a_node2"><a xlink:title="Class PhoneLine, SM state, State onHook&#13;Entry:&#10; &#160;&#160;if(getOtherParty() != null) {&#10; &#160;&#160;&#160;&#160;getOtherParty().otherPartyHangUp();&#10; &#160;&#160;} &#10; &#160;&#160;setOtherParty(null); p();">
<path fill="none" stroke="#000000" d="M376.3168,-488C376.3168,-488 328.3168,-488 328.3168,-488 322.3168,-488 316.3168,-482 316.3168,-476 316.3168,-476 316.3168,-464 316.3168,-464 316.3168,-458 322.3168,-452 328.3168,-452 328.3168,-452 376.3168,-452 376.3168,-452 382.3168,-452 388.3168,-458 388.3168,-464 388.3168,-464 388.3168,-476 388.3168,-476 388.3168,-482 382.3168,-488 376.3168,-488"/>
<text text-anchor="middle" x="352.3168" y="-465.8" font-family="Times,serif" font-size="14.00" fill="#000000">onHook</text>
</a>
</g>
</g>
<!-- start_PhoneLine_state&#45;&gt;PhoneLine_state_onHook -->
<g id="edge1" class="edge">
<title>start_PhoneLine_state&#45;&gt;PhoneLine_state_onHook</title>
<g id="a_edge1"><a xlink:title="start to onHook">
<path fill="none" stroke="#000000" d="M352.3168,-524.5731C352.3168,-517.9503 352.3168,-507.9322 352.3168,-498.2795"/>
<polygon fill="#000000" stroke="#000000" points="355.8169,-498.1266 352.3168,-488.1266 348.8169,-498.1267 355.8169,-498.1266"/>
</a>
</g>
</g>
<!-- PhoneLine_state_ringing -->
<g id="node3" class="node">
<title>PhoneLine_state_ringing</title>
<g id="a_node3"><a xlink:title="Class PhoneLine, SM state, State ringing&#13;Entry:&#10; &#160;&#160;say(RingRing);">
<path fill="none" stroke="#000000" d="M81.3168,-348C81.3168,-348 33.3168,-348 33.3168,-348 27.3168,-348 21.3168,-342 21.3168,-336 21.3168,-336 21.3168,-324 21.3168,-324 21.3168,-318 27.3168,-312 33.3168,-312 33.3168,-312 81.3168,-312 81.3168,-312 87.3168,-312 93.3168,-318 93.3168,-324 93.3168,-324 93.3168,-336 93.3168,-336 93.3168,-342 87.3168,-348 81.3168,-348"/>
<text text-anchor="middle" x="57.3168" y="-325.8" font-family="Times,serif" font-size="14.00" fill="#000000">ringing</text>
</a>
</g>
</g>
<!-- PhoneLine_state_onHook&#45;&gt;PhoneLine_state_ringing -->
<g id="edge9" class="edge">
<title>PhoneLine_state_onHook&#45;&gt;PhoneLine_state_ringing</title>
<g id="a_edge9"><a xlink:title="From onHook to ringing on incomingCall">
<path fill="none" stroke="#000000" d="M316.2874,-468.8219C233.4446,-465.7428 34.98,-456.112 15.103,-434 -4.8528,-411.8004 14.1895,-378.9296 32.7034,-356.1077"/>
<polygon fill="#000000" stroke="#000000" points="35.6204,-358.0799 39.4272,-348.1926 30.2855,-353.5479 35.6204,-358.0799"/>
</a>
</g>
<text text-anchor="middle" x="53.4238" y="-422.8" font-family="Times,serif" font-size="14.00" fill="#000000">incomingCall</text>
</g>
<!-- PhoneLine_state_dialing -->
<g id="node6" class="node">
<title>PhoneLine_state_dialing</title>
<g id="a_node6"><a xlink:title="Class PhoneLine, SM state, State dialing&#13;Entry:&#10; &#160;&#160;say(Dial);">
<path fill="none" stroke="#000000" d="M376.3168,-402C376.3168,-402 328.3168,-402 328.3168,-402 322.3168,-402 316.3168,-396 316.3168,-390 316.3168,-390 316.3168,-378 316.3168,-378 316.3168,-372 322.3168,-366 328.3168,-366 328.3168,-366 376.3168,-366 376.3168,-366 382.3168,-366 388.3168,-372 388.3168,-378 388.3168,-378 388.3168,-390 388.3168,-390 388.3168,-396 382.3168,-402 376.3168,-402"/>
<text text-anchor="middle" x="352.3168" y="-379.8" font-family="Times,serif" font-size="14.00" fill="#000000">dialing</text>
</a>
</g>
</g>
<!-- PhoneLine_state_onHook&#45;&gt;PhoneLine_state_dialing -->
<g id="edge15" class="edge">
<title>PhoneLine_state_onHook&#45;&gt;PhoneLine_state_dialing</title>
<g id="a_edge15"><a xlink:title="From onHook to dialing on startDialing">
<path fill="none" stroke="#000000" d="M315.94,-459.6858C293.6164,-451.3298 271.2363,-437.9888 282.2201,-420 288.0061,-410.5241 297.1682,-403.4382 306.9845,-398.1794"/>
<polygon fill="#000000" stroke="#000000" points="308.574,-401.2992 316.1052,-393.8473 305.5707,-394.9762 308.574,-401.2992"/>
</a>
</g>
<text text-anchor="middle" x="314.3652" y="-422.8" font-family="Times,serif" font-size="14.00" fill="#000000">startDialing</text>
</g>
<!-- PhoneLine_state_ringing&#45;&gt;PhoneLine_state_onHook -->
<g id="edge2" class="edge">
<title>PhoneLine_state_ringing&#45;&gt;PhoneLine_state_onHook</title>
<g id="a_edge2"><a xlink:title="From ringing to onHook on otherPartyHangUp">
<path fill="none" stroke="#000000" d="M61.1708,-348.0209C67.272,-371.8299 81.5651,-413.1779 110.5649,-434 141.0308,-455.8748 244.694,-464.7051 305.9393,-468.0755"/>
<polygon fill="#000000" stroke="#000000" points="305.9514,-471.5808 316.1203,-468.6071 306.3165,-464.5904 305.9514,-471.5808"/>
</a>
</g>
<text text-anchor="middle" x="163.1928" y="-422.8" font-family="Times,serif" font-size="14.00" fill="#000000">otherPartyHangUp</text>
</g>
<!-- PhoneLine_state_communicating -->
<g id="node4" class="node">
<title>PhoneLine_state_communicating</title>
<g id="a_node4"><a xlink:title="Class PhoneLine, SM state, State communicating&#13;Entry:&#10; &#160;&#160;say(Hello+getOtherParty().getId());">
<path fill="none" stroke="#000000" d="M360.9067,-208C360.9067,-208 281.7269,-208 281.7269,-208 275.7269,-208 269.7269,-202 269.7269,-196 269.7269,-196 269.7269,-184 269.7269,-184 269.7269,-178 275.7269,-172 281.7269,-172 281.7269,-172 360.9067,-172 360.9067,-172 366.9067,-172 372.9067,-178 372.9067,-184 372.9067,-184 372.9067,-196 372.9067,-196 372.9067,-202 366.9067,-208 360.9067,-208"/>
<text text-anchor="middle" x="321.3168" y="-185.8" font-family="Times,serif" font-size="14.00" fill="#000000">communicating</text>
</a>
</g>
</g>
<!-- PhoneLine_state_ringing&#45;&gt;PhoneLine_state_communicating -->
<g id="edge10" class="edge">
<title>PhoneLine_state_ringing&#45;&gt;PhoneLine_state_communicating</title>
<g id="a_edge10"><a xlink:title="From ringing to communicating on pickUp&#13;Transition Action:&#10; &#160;&#160;&#160;&#160;getOtherParty().otherPartyPickUp();">
<path fill="none" stroke="#000000" d="M21.9435,-311.8862C15.6331,-306.9749 9.9171,-301.0278 6.2739,-294 -1.09,-279.7953 -2.8065,-271.1737 6.2739,-258 34.5478,-216.9804 175.9222,-200.1249 259.3721,-193.664"/>
<polygon fill="#000000" stroke="#000000" points="259.7872,-197.1429 269.4992,-192.9089 259.2666,-190.1623 259.7872,-197.1429"/>
</a>
</g>
<text text-anchor="middle" x="44.3383" y="-271.8" font-family="Times,serif" font-size="14.00" fill="#000000">pickUp / {...}</text>
</g>
<!-- PhoneLine_state_ringing&#45;&gt;PhoneLine_state_communicating -->
<g id="edge11" class="edge">
<title>PhoneLine_state_ringing&#45;&gt;PhoneLine_state_communicating</title>
<g id="a_edge11"><a xlink:title="From ringing to communicating on autoPickup&#13;Transition Action:&#10; &#160;&#160;&#160;&#160;getOtherParty().otherPartyPickUp();">
<path fill="none" stroke="#000000" d="M71.0254,-311.708C85.381,-292.9675 107.3555,-265.539 118.4946,-258 161.2052,-229.0933 217.2599,-211.5384 259.6141,-201.5255"/>
<polygon fill="#000000" stroke="#000000" points="260.5537,-204.9011 269.5224,-199.2608 258.9939,-198.077 260.5537,-204.9011"/>
</a>
</g>
<text text-anchor="middle" x="167.228" y="-271.8" font-family="Times,serif" font-size="14.00" fill="#000000">autoPickup / {...}</text>
</g>
<!-- PhoneLine_state_communicating&#45;&gt;PhoneLine_state_onHook -->
<g id="edge3" class="edge">
<title>PhoneLine_state_communicating&#45;&gt;PhoneLine_state_onHook</title>
<g id="a_edge3"><a xlink:title="From communicating to onHook on hangUp&#13;Transition Action:&#10; &#160;&#160;&#160;&#160;say(Click);">
<path fill="none" stroke="#000000" d="M300.7198,-208.0524C271.4068,-236.035 222.4954,-292.464 234.8959,-348 244.0995,-389.2185 245.4229,-404.1667 275.3168,-434 284.1301,-442.7954 295.4983,-449.7037 306.7799,-455.0134"/>
<polygon fill="#000000" stroke="#000000" points="305.6121,-458.3222 316.1781,-459.1039 308.4057,-451.9038 305.6121,-458.3222"/>
</a>
</g>
<text text-anchor="middle" x="293.0273" y="-325.8" font-family="Times,serif" font-size="14.00" fill="#000000">hangUp / say(Click);</text>
</g>
<!-- PhoneLine_state_onHold -->
<g id="node5" class="node">
<title>PhoneLine_state_onHold</title>
<g id="a_node5"><a xlink:title="Class PhoneLine, SM state, State onHold">
<path fill="none" stroke="#000000" d="M505.3168,-122C505.3168,-122 457.3168,-122 457.3168,-122 451.3168,-122 445.3168,-116 445.3168,-110 445.3168,-110 445.3168,-98 445.3168,-98 445.3168,-92 451.3168,-86 457.3168,-86 457.3168,-86 505.3168,-86 505.3168,-86 511.3168,-86 517.3168,-92 517.3168,-98 517.3168,-98 517.3168,-110 517.3168,-110 517.3168,-116 511.3168,-122 505.3168,-122"/>
<text text-anchor="middle" x="481.3168" y="-99.8" font-family="Times,serif" font-size="14.00" fill="#000000">onHold</text>
</a>
</g>
</g>
<!-- PhoneLine_state_communicating&#45;&gt;PhoneLine_state_onHold -->
<g id="edge14" class="edge">
<title>PhoneLine_state_communicating&#45;&gt;PhoneLine_state_onHold</title>
<g id="a_edge14"><a xlink:title="From communicating to onHold on putOnHold">
<path fill="none" stroke="#000000" d="M333.1706,-171.8571C341.0728,-161.1188 352.3663,-148.0778 365.3168,-140 391.1145,-123.9088 402.3237,-131.1565 431.3168,-122 432.7189,-121.5572 434.1403,-121.0997 435.573,-120.6312"/>
<polygon fill="#000000" stroke="#000000" points="436.7531,-123.927 445.1108,-117.4155 434.5167,-117.2938 436.7531,-123.927"/>
</a>
</g>
<text text-anchor="middle" x="396.8168" y="-142.8" font-family="Times,serif" font-size="14.00" fill="#000000">putOnHold</text>
</g>
<!-- PhoneLine_state_waitForHook -->
<g id="node8" class="node">
<title>PhoneLine_state_waitForHook</title>
<g id="a_node8"><a xlink:title="Class PhoneLine, SM state, State waitForHook&#13;Entry:&#10; &#160;&#160;say(Beep);">
<path fill="none" stroke="#000000" d="M514.4796,-36C514.4796,-36 448.1541,-36 448.1541,-36 442.1541,-36 436.1541,-30 436.1541,-24 436.1541,-24 436.1541,-12 436.1541,-12 436.1541,-6 442.1541,0 448.1541,0 448.1541,0 514.4796,0 514.4796,0 520.4796,0 526.4796,-6 526.4796,-12 526.4796,-12 526.4796,-24 526.4796,-24 526.4796,-30 520.4796,-36 514.4796,-36"/>
<text text-anchor="middle" x="481.3168" y="-13.8" font-family="Times,serif" font-size="14.00" fill="#000000">waitForHook</text>
</a>
</g>
</g>
<!-- PhoneLine_state_communicating&#45;&gt;PhoneLine_state_waitForHook -->
<g id="edge17" class="edge">
<title>PhoneLine_state_communicating&#45;&gt;PhoneLine_state_waitForHook</title>
<g id="a_edge17"><a xlink:title="From communicating to waitForHook on otherPartyHangUp">
<path fill="none" stroke="#000000" d="M317.8167,-171.965C314.5373,-149.625 312.5034,-111.4137 330.5649,-86 352.7227,-54.8225 392.6431,-37.6792 425.839,-28.4066"/>
<polygon fill="#000000" stroke="#000000" points="427.1097,-31.692 435.8981,-25.7747 425.3378,-24.9199 427.1097,-31.692"/>
</a>
</g>
<text text-anchor="middle" x="383.1928" y="-99.8" font-family="Times,serif" font-size="14.00" fill="#000000">otherPartyHangUp</text>
</g>
<!-- PhoneLine_state_onHold&#45;&gt;PhoneLine_state_onHook -->
<g id="edge4" class="edge">
<title>PhoneLine_state_onHold&#45;&gt;PhoneLine_state_onHook</title>
<g id="a_edge4"><a xlink:title="From onHold to onHook on hangUp&#13;Transition Action:&#10; &#160;&#160;&#160;&#160;say(Click);">
<path fill="none" stroke="#000000" d="M517.4441,-109.9126C581.7339,-121.4646 709.3168,-149.4924 709.3168,-190 709.3168,-384 709.3168,-384 709.3168,-384 709.3168,-447.2024 495.163,-464.0915 398.5852,-468.4946"/>
<polygon fill="#000000" stroke="#000000" points="398.3529,-465.0012 388.5125,-468.9278 398.6537,-471.9947 398.3529,-465.0012"/>
</a>
</g>
<text text-anchor="middle" x="768.0273" y="-271.8" font-family="Times,serif" font-size="14.00" fill="#000000">hangUp / say(Click);</text>
</g>
<!-- PhoneLine_state_onHold&#45;&gt;PhoneLine_state_communicating -->
<g id="edge12" class="edge">
<title>PhoneLine_state_onHold&#45;&gt;PhoneLine_state_communicating</title>
<g id="a_edge12"><a xlink:title="From onHold to communicating on takeOffHold">
<path fill="none" stroke="#000000" d="M467.1528,-122.3677C458.175,-132.9164 445.7491,-145.6801 432.3168,-154 417.2717,-163.3189 399.5696,-170.4698 382.7756,-175.8472"/>
<polygon fill="#000000" stroke="#000000" points="381.5701,-172.5554 373.0194,-178.8113 383.6051,-179.2531 381.5701,-172.5554"/>
</a>
</g>
<text text-anchor="middle" x="483.5698" y="-142.8" font-family="Times,serif" font-size="14.00" fill="#000000">takeOffHold</text>
</g>
<!-- PhoneLine_state_onHold&#45;&gt;PhoneLine_state_waitForHook -->
<g id="edge18" class="edge">
<title>PhoneLine_state_onHold&#45;&gt;PhoneLine_state_waitForHook</title>
<g id="a_edge18"><a xlink:title="From onHold to waitForHook on otherPartyHangUp">
<path fill="none" stroke="#000000" d="M481.3168,-85.7616C481.3168,-74.3597 481.3168,-59.4342 481.3168,-46.494"/>
<polygon fill="#000000" stroke="#000000" points="484.8169,-46.2121 481.3168,-36.2121 477.8169,-46.2121 484.8169,-46.2121"/>
</a>
</g>
<text text-anchor="middle" x="534.1928" y="-56.8" font-family="Times,serif" font-size="14.00" fill="#000000">otherPartyHangUp</text>
</g>
<!-- PhoneLine_state_dialing&#45;&gt;PhoneLine_state_onHook -->
<g id="edge5" class="edge">
<title>PhoneLine_state_dialing&#45;&gt;PhoneLine_state_onHook</title>
<g id="a_edge5"><a xlink:title="From dialing to onHook on hangUp&#13;Transition Action:&#10; &#160;&#160;&#160;&#160;say(Click);">
<path fill="none" stroke="#000000" d="M352.3168,-402.2121C352.3168,-413.6086 352.3168,-428.5329 352.3168,-441.4762"/>
<polygon fill="#000000" stroke="#000000" points="348.8169,-441.7616 352.3168,-451.7616 355.8169,-441.7616 348.8169,-441.7616"/>
</a>
</g>
<text text-anchor="middle" x="411.0273" y="-422.8" font-family="Times,serif" font-size="14.00" fill="#000000">hangUp / say(Click);</text>
</g>
<!-- PhoneLine_state_waitingForConnection -->
<g id="node7" class="node">
<title>PhoneLine_state_waitingForConnection</title>
<g id="a_node7"><a xlink:title="Class PhoneLine, SM state, State waitingForConnection&#13;Entry:&#10; &#160;&#160;getOtherParty().incomingCall();">
<path fill="none" stroke="#000000" d="M485.3032,-294C485.3032,-294 367.3305,-294 367.3305,-294 361.3305,-294 355.3305,-288 355.3305,-282 355.3305,-282 355.3305,-270 355.3305,-270 355.3305,-264 361.3305,-258 367.3305,-258 367.3305,-258 485.3032,-258 485.3032,-258 491.3032,-258 497.3032,-264 497.3032,-270 497.3032,-270 497.3032,-282 497.3032,-282 497.3032,-288 491.3032,-294 485.3032,-294"/>
<text text-anchor="middle" x="426.3168" y="-271.8" font-family="Times,serif" font-size="14.00" fill="#000000">waitingForConnection</text>
</a>
</g>
</g>
<!-- PhoneLine_state_dialing&#45;&gt;PhoneLine_state_waitingForConnection -->
<g id="edge16" class="edge">
<title>PhoneLine_state_dialing&#45;&gt;PhoneLine_state_waitingForConnection</title>
<g id="a_edge16"><a xlink:title="From dialing to waitingForConnection on completeNumber">
<path fill="none" stroke="#000000" d="M353.4264,-365.896C355.1727,-350.33 359.6532,-327.935 371.1303,-312 374.1858,-307.7577 377.9092,-303.8827 381.9647,-300.3791"/>
<polygon fill="#000000" stroke="#000000" points="384.3148,-302.9863 390.0846,-294.1004 380.0328,-297.4487 384.3148,-302.9863"/>
</a>
</g>
<text text-anchor="middle" x="418.9101" y="-325.8" font-family="Times,serif" font-size="14.00" fill="#000000">completeNumber</text>
</g>
<!-- PhoneLine_state_waitingForConnection&#45;&gt;PhoneLine_state_onHook -->
<g id="edge6" class="edge">
<title>PhoneLine_state_waitingForConnection&#45;&gt;PhoneLine_state_onHook</title>
<g id="a_edge6"><a xlink:title="From waitingForConnection to onHook on hangUp&#13;Transition Action:&#10; &#160;&#160;&#160;&#160;say(Click);">
<path fill="none" stroke="#000000" d="M454.3646,-294.1822C459.9775,-299.2347 465.1238,-305.2237 468.3168,-312 520.2139,-422.138 477.2233,-424.6721 470.3168,-434 461.5096,-445.8949 427.8203,-455.4389 398.6818,-461.7035"/>
<polygon fill="#000000" stroke="#000000" points="397.6995,-458.3323 388.6131,-463.781 399.1141,-465.1879 397.6995,-458.3323"/>
</a>
</g>
<text text-anchor="middle" x="552.0273" y="-379.8" font-family="Times,serif" font-size="14.00" fill="#000000">hangUp / say(Click);</text>
</g>
<!-- PhoneLine_state_waitingForConnection&#45;&gt;PhoneLine_state_onHook -->
<g id="edge7" class="edge">
<title>PhoneLine_state_waitingForConnection&#45;&gt;PhoneLine_state_onHook</title>
<g id="a_edge7"><a xlink:title="From waitingForConnection to onHook on timeOut">
<path fill="none" stroke="#000000" d="M497.5226,-293.6925C565.5228,-314.0685 652.304,-351.3618 613.3168,-402 587.3006,-435.7909 466.1721,-455.9218 398.4511,-464.7243"/>
<polygon fill="#000000" stroke="#000000" points="397.9444,-461.2605 388.4642,-465.9907 398.825,-468.2049 397.9444,-461.2605"/>
</a>
</g>
<text text-anchor="middle" x="645.2582" y="-379.8" font-family="Times,serif" font-size="14.00" fill="#000000">timeOut</text>
</g>
<!-- PhoneLine_state_waitingForConnection&#45;&gt;PhoneLine_state_communicating -->
<g id="edge13" class="edge">
<title>PhoneLine_state_waitingForConnection&#45;&gt;PhoneLine_state_communicating</title>
<g id="a_edge13"><a xlink:title="From waitingForConnection to communicating on otherPartyPickUp">
<path fill="none" stroke="#000000" d="M404.3054,-257.9716C388.9051,-245.358 368.1484,-228.3573 351.2465,-214.5139"/>
<polygon fill="#000000" stroke="#000000" points="353.2533,-211.6334 343.2993,-208.0047 348.8178,-217.0488 353.2533,-211.6334"/>
</a>
</g>
<text text-anchor="middle" x="429.4755" y="-228.8" font-family="Times,serif" font-size="14.00" fill="#000000">otherPartyPickUp</text>
</g>
<!-- PhoneLine_state_waitForHook&#45;&gt;PhoneLine_state_onHook -->
<g id="edge8" class="edge">
<title>PhoneLine_state_waitForHook&#45;&gt;PhoneLine_state_onHook</title>
<g id="a_edge8"><a xlink:title="From waitForHook to onHook on hangUp&#13;Transition Action:&#10; &#160;&#160;&#160;&#160;say(Click);">
<path fill="none" stroke="#000000" d="M526.681,-18.9924C626.0862,-22.3976 854.3168,-37.4611 854.3168,-104 854.3168,-384 854.3168,-384 854.3168,-384 854.3168,-429.9663 523.1113,-457.9995 398.7526,-466.9051"/>
<polygon fill="#000000" stroke="#000000" points="398.1479,-463.439 388.4194,-467.635 398.6412,-470.4216 398.1479,-463.439"/>
</a>
</g>
<text text-anchor="middle" x="913.0273" y="-228.8" font-family="Times,serif" font-size="14.00" fill="#000000">hangUp / say(Click);</text>
</g>
</g>
</svg>
