<?xml version="1.0" encoding="UTF-8" standalone="no"?>
<!DOCTYPE svg PUBLIC "-//W3C//DTD SVG 1.1//EN"
 "http://www.w3.org/Graphics/SVG/1.1/DTD/svg11.dtd">
<!-- Generated by graphviz version 2.36.0 (20140111.2315)
 -->
<!-- Title: Runway Pages: 1 -->
<svg width="1114pt" height="432pt"
 viewBox="0.00 0.00 1114.06 432.00" xmlns="http://www.w3.org/2000/svg" xmlns:xlink="http://www.w3.org/1999/xlink">
<g id="graph0" class="graph" transform="scale(1 1) rotate(0) translate(4 428)">
<title>Runway</title>
<polygon fill="white" stroke="none" points="-4,4 -4,-428 1110.06,-428 1110.06,4 -4,4"/>
<g id="clust1" class="cluster"><title>clusterRunway_runwayStateMachine_Open</title>
<path fill="none" stroke="black" d="M41.0562,-102C41.0562,-102 468.056,-102 468.056,-102 474.056,-102 480.056,-108 480.056,-114 480.056,-114 480.056,-342 480.056,-342 480.056,-348 474.056,-354 468.056,-354 468.056,-354 41.0562,-354 41.0562,-354 35.0562,-354 29.0562,-348 29.0562,-342 29.0562,-342 29.0562,-114 29.0562,-114 29.0562,-108 35.0562,-102 41.0562,-102"/>
<text text-anchor="middle" x="254.556" y="-338.8" font-family="Times,serif" font-size="14.00">Open</text>
</g>
<g id="clust2" class="cluster"><title>clusterRunway_runwayStateMachine_Closed</title>
<path fill="none" stroke="black" d="M500.056,-8C500.056,-8 1086.06,-8 1086.06,-8 1092.06,-8 1098.06,-14 1098.06,-20 1098.06,-20 1098.06,-404 1098.06,-404 1098.06,-410 1092.06,-416 1086.06,-416 1086.06,-416 500.056,-416 500.056,-416 494.056,-416 488.056,-410 488.056,-404 488.056,-404 488.056,-20 488.056,-20 488.056,-14 494.056,-8 500.056,-8"/>
<text text-anchor="middle" x="793.056" y="-400.8" font-family="Times,serif" font-size="14.00">Closed</text>
</g>
<g id="clust3" class="cluster"><title>clusterRunway_runwayStateMachineClosed_Restoration</title>
<path fill="none" stroke="black" d="M596.056,-94C596.056,-94 1078.06,-94 1078.06,-94 1084.06,-94 1090.06,-100 1090.06,-106 1090.06,-106 1090.06,-373 1090.06,-373 1090.06,-379 1084.06,-385 1078.06,-385 1078.06,-385 596.056,-385 596.056,-385 590.056,-385 584.056,-379 584.056,-373 584.056,-373 584.056,-106 584.056,-106 584.056,-100 590.056,-94 596.056,-94"/>
<text text-anchor="middle" x="837.056" y="-369.8" font-family="Times,serif" font-size="14.00">Restoration</text>
</g>
<g id="clust4" class="cluster"><title>clusterRunway_runwayStateMachineClosedRestoration_1_Restoration_1</title>
<path fill="none" stroke="black" d="M789.056,-102C789.056,-102 1070.06,-102 1070.06,-102 1076.06,-102 1082.06,-108 1082.06,-114 1082.06,-114 1082.06,-342 1082.06,-342 1082.06,-348 1076.06,-354 1070.06,-354 1070.06,-354 789.056,-354 789.056,-354 783.056,-354 777.056,-348 777.056,-342 777.056,-342 777.056,-114 777.056,-114 777.056,-108 783.056,-102 789.056,-102"/>
<text text-anchor="middle" x="929.556" y="-338.8" font-family="Times,serif" font-size="14.00">Restoration_1</text>
</g>
<g id="clust5" class="cluster"><title>clusterRunway_runwayStateMachineClosedRestoration_2_Restoration_2</title>
<path fill="none" stroke="black" d="M653.056,-190C653.056,-190 735.056,-190 735.056,-190 741.056,-190 747.056,-196 747.056,-202 747.056,-202 747.056,-342 747.056,-342 747.056,-348 741.056,-354 735.056,-354 735.056,-354 653.056,-354 653.056,-354 647.056,-354 641.056,-348 641.056,-342 641.056,-342 641.056,-202 641.056,-202 641.056,-196 647.056,-190 653.056,-190"/>
<text text-anchor="middle" x="694.056" y="-338.8" font-family="Times,serif" font-size="14.00">Restoration_2</text>
</g>
<!-- start_Runway_runwayStateMachine -->
<g id="node1" class="node"><title>start_Runway_runwayStateMachine</title>
<ellipse fill="black" stroke="black" cx="14.0562" cy="-293" rx="7.2" ry="7.2"/>
</g>
<!-- Runway_runwayStateMachineOpen_Free -->
<g id="node3" class="node"><title>Runway_runwayStateMachineOpen_Free</title>
<path fill="none" stroke="black" d="M292.056,-234C292.056,-234 244.056,-234 244.056,-234 238.056,-234 232.056,-228 232.056,-222 232.056,-222 232.056,-210 232.056,-210 232.056,-204 238.056,-198 244.056,-198 244.056,-198 292.056,-198 292.056,-198 298.056,-198 304.056,-204 304.056,-210 304.056,-210 304.056,-222 304.056,-222 304.056,-228 298.056,-234 292.056,-234"/>
<text text-anchor="middle" x="268.056" y="-212.3" font-family="Times,serif" font-size="14.00">Free</text>
</g>
<!-- start_Runway_runwayStateMachine&#45;&gt;Runway_runwayStateMachineOpen_Free -->
<g id="edge1" class="edge"><title>start_Runway_runwayStateMachine&#45;&gt;Runway_runwayStateMachineOpen_Free</title>
<path fill="none" stroke="black" d="M19.761,-288.575C19.8654,-288.518 19.9704,-288.461 20.0772,-288.403"/>
<polygon fill="black" stroke="black" points="21.6555,-291.531 29.3594,-284.258 18.8013,-285.14 21.6555,-291.531"/>
</g>
<!-- start_Runway_runwayStateMachine_Open -->
<g id="node2" class="node"><title>start_Runway_runwayStateMachine_Open</title>
<ellipse fill="black" stroke="black" cx="268.056" cy="-293" rx="7.2" ry="7.2"/>
</g>
<!-- start_Runway_runwayStateMachine_Open&#45;&gt;Runway_runwayStateMachineOpen_Free -->
<g id="edge3" class="edge"><title>start_Runway_runwayStateMachine_Open&#45;&gt;Runway_runwayStateMachineOpen_Free</title>
<path fill="none" stroke="black" d="M268.056,-285.606C268.056,-276.541 268.056,-259.4 268.056,-244.52"/>
<polygon fill="black" stroke="black" points="271.556,-244.233 268.056,-234.233 264.556,-244.233 271.556,-244.233"/>
</g>
<!-- Runway_runwayStateMachineOpen_Occupied -->
<g id="node4" class="node"><title>Runway_runwayStateMachineOpen_Occupied</title>
<path fill="none" stroke="black" d="M270.056,-146C270.056,-146 222.056,-146 222.056,-146 216.056,-146 210.056,-140 210.056,-134 210.056,-134 210.056,-122 210.056,-122 210.056,-116 216.056,-110 222.056,-110 222.056,-110 270.056,-110 270.056,-110 276.056,-110 282.056,-116 282.056,-122 282.056,-122 282.056,-134 282.056,-134 282.056,-140 276.056,-146 270.056,-146"/>
<text text-anchor="middle" x="246.056" y="-124.3" font-family="Times,serif" font-size="14.00">Occupied</text>
</g>
<!-- Runway_runwayStateMachineOpen_Free&#45;&gt;Runway_runwayStateMachineOpen_Occupied -->
<g id="edge6" class="edge"><title>Runway_runwayStateMachineOpen_Free&#45;&gt;Runway_runwayStateMachineOpen_Occupied</title>
<path fill="none" stroke="black" d="M232.005,-214.448C177.523,-212.765 78.1992,-206.098 56.0562,-180 0.882809,-114.971 -74.266,-194.614 175.056,-146 183.105,-144.431 191.62,-142.569 199.851,-140.663"/>
<polygon fill="black" stroke="black" points="200.776,-144.041 209.701,-138.332 199.164,-137.229 200.776,-144.041"/>
<text text-anchor="middle" x="94.5562" y="-168.3" font-family="Times,serif" font-size="14.00">planeLanding</text>
</g>
<!-- Runway_runwayStateMachineOpen_Free&#45;&gt;Runway_runwayStateMachineOpen_Occupied -->
<g id="edge7" class="edge"><title>Runway_runwayStateMachineOpen_Free&#45;&gt;Runway_runwayStateMachineOpen_Occupied</title>
<path fill="none" stroke="black" d="M232.02,-213.464C207.948,-210.334 177.895,-201.91 162.056,-180 148.258,-160.913 173.767,-147.581 200.203,-139.348"/>
<polygon fill="black" stroke="black" points="201.277,-142.681 209.914,-136.544 199.335,-135.956 201.277,-142.681"/>
<text text-anchor="middle" x="207.056" y="-168.3" font-family="Times,serif" font-size="14.00">planeTakingOff</text>
</g>
<!-- Runway_runwayStateMachineClosed_Emergency -->
<g id="node6" class="node"><title>Runway_runwayStateMachineClosed_Emergency</title>
<path fill="none" stroke="black" d="M564.056,-146C564.056,-146 508.056,-146 508.056,-146 502.056,-146 496.056,-140 496.056,-134 496.056,-134 496.056,-122 496.056,-122 496.056,-116 502.056,-110 508.056,-110 508.056,-110 564.056,-110 564.056,-110 570.056,-110 576.056,-116 576.056,-122 576.056,-122 576.056,-134 576.056,-134 576.056,-140 570.056,-146 564.056,-146"/>
<text text-anchor="middle" x="536.056" y="-124.3" font-family="Times,serif" font-size="14.00">Emergency</text>
</g>
<!-- Runway_runwayStateMachineOpen_Free&#45;&gt;Runway_runwayStateMachineClosed_Emergency -->
<g id="edge9" class="edge"><title>Runway_runwayStateMachineOpen_Free&#45;&gt;Runway_runwayStateMachineClosed_Emergency</title>
<path fill="none" stroke="black" d="M479.884,-166.816C488.645,-161.984 497.013,-156.803 504.49,-151.874"/>
<polygon fill="black" stroke="black" points="506.653,-154.636 512.976,-146.136 502.732,-148.838 506.653,-154.636"/>
<text text-anchor="middle" x="500.056" y="-168.3" font-family="Times,serif" font-size="14.00">alarm</text>
</g>
<!-- Runway_runwayStateMachineClosedRestoration_1Restoration_1_Repair -->
<g id="node10" class="node"><title>Runway_runwayStateMachineClosedRestoration_1Restoration_1_Repair</title>
<path fill="none" stroke="black" d="M845.056,-234C845.056,-234 797.056,-234 797.056,-234 791.056,-234 785.056,-228 785.056,-222 785.056,-222 785.056,-210 785.056,-210 785.056,-204 791.056,-198 797.056,-198 797.056,-198 845.056,-198 845.056,-198 851.056,-198 857.056,-204 857.056,-210 857.056,-210 857.056,-222 857.056,-222 857.056,-228 851.056,-234 845.056,-234"/>
<text text-anchor="middle" x="821.056" y="-212.3" font-family="Times,serif" font-size="14.00">Repair</text>
</g>
<!-- Runway_runwayStateMachineOpen_Free&#45;&gt;Runway_runwayStateMachineClosedRestoration_1Restoration_1_Repair -->
<g id="edge12" class="edge"><title>Runway_runwayStateMachineOpen_Free&#45;&gt;Runway_runwayStateMachineClosedRestoration_1Restoration_1_Repair</title>
<path fill="none" stroke="black" d="M304.242,-226.262C359.359,-240.814 469.071,-265.615 574.225,-264.861"/>
<polygon fill="black" stroke="black" points="574.439,-268.359 584.385,-264.707 574.333,-261.359 574.439,-268.359"/>
<text text-anchor="middle" x="616.056" y="-256.3" font-family="Times,serif" font-size="14.00">repair</text>
</g>
<!-- Runway_runwayStateMachineOpen_Occupied&#45;&gt;Runway_runwayStateMachineOpen_Free -->
<g id="edge4" class="edge"><title>Runway_runwayStateMachineOpen_Occupied&#45;&gt;Runway_runwayStateMachineOpen_Free</title>
<path fill="none" stroke="black" d="M250.427,-146.084C253.469,-157.977 257.591,-174.09 261.084,-187.744"/>
<polygon fill="black" stroke="black" points="257.735,-188.776 263.604,-197.597 264.517,-187.041 257.735,-188.776"/>
<text text-anchor="middle" x="301.056" y="-168.3" font-family="Times,serif" font-size="14.00">planeTakesOff</text>
</g>
<!-- Runway_runwayStateMachineOpen_Occupied&#45;&gt;Runway_runwayStateMachineOpen_Free -->
<g id="edge5" class="edge"><title>Runway_runwayStateMachineOpen_Occupied&#45;&gt;Runway_runwayStateMachineOpen_Free</title>
<path fill="none" stroke="black" d="M282.18,-131.308C304.83,-134.846 332.42,-143.439 347.056,-164 359.676,-181.729 337.732,-194.823 313.799,-203.302"/>
<polygon fill="black" stroke="black" points="312.652,-199.995 304.239,-206.434 314.831,-206.647 312.652,-199.995"/>
<text text-anchor="middle" x="399.556" y="-168.3" font-family="Times,serif" font-size="14.00">landingComplete</text>
</g>
<!-- start_Runway_runwayStateMachine_Closed -->
<g id="node5" class="node"><title>start_Runway_runwayStateMachine_Closed</title>
<ellipse fill="black" stroke="black" cx="536.056" cy="-216" rx="7.2" ry="7.2"/>
</g>
<!-- start_Runway_runwayStateMachine_Closed&#45;&gt;Runway_runwayStateMachineClosed_Emergency -->
<g id="edge8" class="edge"><title>start_Runway_runwayStateMachine_Closed&#45;&gt;Runway_runwayStateMachineClosed_Emergency</title>
<path fill="none" stroke="black" d="M536.056,-208.536C536.056,-197.564 536.056,-174.694 536.056,-156.283"/>
<polygon fill="black" stroke="black" points="539.556,-156.081 536.056,-146.081 532.556,-156.081 539.556,-156.081"/>
</g>
<!-- Runway_runwayStateMachineClosed_ReadyToOpen -->
<g id="node7" class="node"><title>Runway_runwayStateMachineClosed_ReadyToOpen</title>
<path fill="none" stroke="black" d="M582.056,-52C582.056,-52 508.056,-52 508.056,-52 502.056,-52 496.056,-46 496.056,-40 496.056,-40 496.056,-28 496.056,-28 496.056,-22 502.056,-16 508.056,-16 508.056,-16 582.056,-16 582.056,-16 588.056,-16 594.056,-22 594.056,-28 594.056,-28 594.056,-40 594.056,-40 594.056,-46 588.056,-52 582.056,-52"/>
<text text-anchor="middle" x="545.056" y="-30.3" font-family="Times,serif" font-size="14.00">ReadyToOpen</text>
</g>
<!-- Runway_runwayStateMachineClosed_Emergency&#45;&gt;Runway_runwayStateMachineClosed_ReadyToOpen -->
<g id="edge10" class="edge"><title>Runway_runwayStateMachineClosed_Emergency&#45;&gt;Runway_runwayStateMachineClosed_ReadyToOpen</title>
<path fill="none" stroke="black" d="M537.749,-109.696C539.056,-96.3314 540.89,-77.5871 542.393,-62.2192"/>
<polygon fill="black" stroke="black" points="545.881,-62.5202 543.371,-52.2269 538.914,-61.8386 545.881,-62.5202"/>
<text text-anchor="middle" x="587.056" y="-74.3" font-family="Times,serif" font-size="14.00">emergencyOver</text>
</g>
<!-- Runway_runwayStateMachineClosed_ReadyToOpen&#45;&gt;Runway_runwayStateMachineOpen_Free -->
<g id="edge2" class="edge"><title>Runway_runwayStateMachineClosed_ReadyToOpen&#45;&gt;Runway_runwayStateMachineOpen_Free</title>
<path fill="none" stroke="black" d="M495.908,-37.7001C377.674,-44.6388 84.6997,-64.6338 52.0562,-94 51.5586,-94.4477 51.0673,-94.8926 50.5823,-95.335"/>
<polygon fill="black" stroke="black" points="48.1121,-92.854 43.2636,-102.274 52.9285,-97.9336 48.1121,-92.854"/>
<text text-anchor="middle" x="126.556" y="-124.3" font-family="Times,serif" font-size="14.00">open [noPlaneOnRunway]</text>
</g>
<!-- start_Runway_runwayStateMachine_Closed_Restoration_1 -->
<g id="node8" class="node"><title>start_Runway_runwayStateMachine_Closed_Restoration_1</title>
<ellipse fill="black" stroke="black" cx="762.056" cy="-293" rx="7.2" ry="7.2"/>
</g>
<!-- start_Runway_runwayStateMachine_Closed_Restoration_1&#45;&gt;Runway_runwayStateMachineClosedRestoration_1Restoration_1_Repair -->
<g id="edge13" class="edge"><title>start_Runway_runwayStateMachine_Closed_Restoration_1&#45;&gt;Runway_runwayStateMachineClosedRestoration_1Restoration_1_Repair</title>
<path fill="none" stroke="black" d="M766.299,-286.606C767.573,-284.987 769.092,-283.056 770.799,-280.886"/>
<polygon fill="black" stroke="black" points="773.811,-282.718 777.243,-272.694 768.31,-278.39 773.811,-282.718"/>
</g>
<!-- start_Runway_runwayStateMachine_Closed_Restoration_1_Restoration_1 -->
<g id="node9" class="node"><title>start_Runway_runwayStateMachine_Closed_Restoration_1_Restoration_1</title>
<ellipse fill="black" stroke="black" cx="821.056" cy="-293" rx="7.2" ry="7.2"/>
</g>
<!-- start_Runway_runwayStateMachine_Closed_Restoration_1_Restoration_1&#45;&gt;Runway_runwayStateMachineClosedRestoration_1Restoration_1_Repair -->
<g id="edge14" class="edge"><title>start_Runway_runwayStateMachine_Closed_Restoration_1_Restoration_1&#45;&gt;Runway_runwayStateMachineClosedRestoration_1Restoration_1_Repair</title>
<path fill="none" stroke="black" d="M821.056,-285.606C821.056,-276.541 821.056,-259.4 821.056,-244.52"/>
<polygon fill="black" stroke="black" points="824.556,-244.233 821.056,-234.233 817.556,-244.233 824.556,-244.233"/>
</g>
<!-- Runway_runwayStateMachineClosedRestoration_1Restoration_1_InspectRepairs -->
<g id="node11" class="node"><title>Runway_runwayStateMachineClosedRestoration_1Restoration_1_InspectRepairs</title>
<path fill="none" stroke="black" d="M873.056,-146C873.056,-146 797.056,-146 797.056,-146 791.056,-146 785.056,-140 785.056,-134 785.056,-134 785.056,-122 785.056,-122 785.056,-116 791.056,-110 797.056,-110 797.056,-110 873.056,-110 873.056,-110 879.056,-110 885.056,-116 885.056,-122 885.056,-122 885.056,-134 885.056,-134 885.056,-140 879.056,-146 873.056,-146"/>
<text text-anchor="middle" x="835.056" y="-124.3" font-family="Times,serif" font-size="14.00">InspectRepairs</text>
</g>
<!-- Runway_runwayStateMachineClosedRestoration_1Restoration_1_Repair&#45;&gt;Runway_runwayStateMachineClosedRestoration_1Restoration_1_InspectRepairs -->
<g id="edge16" class="edge"><title>Runway_runwayStateMachineClosedRestoration_1Restoration_1_Repair&#45;&gt;Runway_runwayStateMachineClosedRestoration_1Restoration_1_InspectRepairs</title>
<path fill="none" stroke="black" d="M807.038,-197.993C800.616,-188.074 795.366,-175.324 800.056,-164 801.524,-160.457 803.543,-157.086 805.877,-153.934"/>
<polygon fill="black" stroke="black" points="808.729,-155.988 812.629,-146.137 803.437,-151.405 808.729,-155.988"/>
<text text-anchor="middle" x="847.556" y="-168.3" font-family="Times,serif" font-size="14.00">repairCompleted</text>
</g>
<!-- Runway_runwayStateMachineClosedRestoration_1Restoration_1_InspectRepairs&#45;&gt;Runway_runwayStateMachineClosed_ReadyToOpen -->
<g id="edge11" class="edge"><title>Runway_runwayStateMachineClosedRestoration_1Restoration_1_InspectRepairs&#45;&gt;Runway_runwayStateMachineClosed_ReadyToOpen</title>
<path fill="none" stroke="black" d="M810.627,-109.902C801.646,-104.21 791.19,-98.2458 781.056,-94 723.235,-69.7737 653.12,-53.8054 604.409,-44.6637"/>
<polygon fill="black" stroke="black" points="604.819,-41.1806 594.351,-42.816 603.554,-48.0654 604.819,-41.1806"/>
<text text-anchor="middle" x="831.056" y="-74.3" font-family="Times,serif" font-size="14.00">check [inspectionSuccess]</text>
</g>
<!-- Runway_runwayStateMachineClosedRestoration_1Restoration_1_InspectRepairs&#45;&gt;Runway_runwayStateMachineClosedRestoration_1Restoration_1_Repair -->
<g id="edge15" class="edge"><title>Runway_runwayStateMachineClosedRestoration_1Restoration_1_InspectRepairs&#45;&gt;Runway_runwayStateMachineClosedRestoration_1Restoration_1_Repair</title>
<path fill="none" stroke="black" d="M880.409,-146.117C896.129,-154.803 907.858,-166.404 899.056,-180 891.6,-191.517 879.359,-199.281 866.761,-204.499"/>
<polygon fill="black" stroke="black" points="865.324,-201.298 857.13,-208.014 867.724,-207.873 865.324,-201.298"/>
<text text-anchor="middle" x="978.556" y="-168.3" font-family="Times,serif" font-size="14.00">check [!inspectionSuccess]</text>
</g>
<!-- start_Runway_runwayStateMachine_Closed_Restoration_2 -->
<g id="node12" class="node"><title>start_Runway_runwayStateMachine_Closed_Restoration_2</title>
<ellipse fill="black" stroke="black" cx="599.056" cy="-293" rx="7.2" ry="7.2"/>
</g>
<!-- Runway_runwayStateMachineClosedRestoration_2Restoration_2_Maintenance -->
<g id="node14" class="node"><title>Runway_runwayStateMachineClosedRestoration_2Restoration_2_Maintenance</title>
<path fill="none" stroke="black" d="M726.306,-234C726.306,-234 661.806,-234 661.806,-234 655.806,-234 649.806,-228 649.806,-222 649.806,-222 649.806,-210 649.806,-210 649.806,-204 655.806,-198 661.806,-198 661.806,-198 726.306,-198 726.306,-198 732.306,-198 738.306,-204 738.306,-210 738.306,-210 738.306,-222 738.306,-222 738.306,-228 732.306,-234 726.306,-234"/>
<text text-anchor="middle" x="694.056" y="-212.3" font-family="Times,serif" font-size="14.00">Maintenance</text>
</g>
<!-- start_Runway_runwayStateMachine_Closed_Restoration_2&#45;&gt;Runway_runwayStateMachineClosedRestoration_2Restoration_2_Maintenance -->
<g id="edge17" class="edge"><title>start_Runway_runwayStateMachine_Closed_Restoration_2&#45;&gt;Runway_runwayStateMachineClosedRestoration_2Restoration_2_Maintenance</title>
<path fill="none" stroke="black" d="M596.86,-285.944C594.22,-277.512 590.967,-262.131 598.056,-252 598.795,-250.944 618.673,-243.625 640.149,-235.951"/>
<polygon fill="black" stroke="black" points="633.391,-242.854 641.056,-235.54 630.503,-236.478 633.391,-242.854"/>
</g>
<!-- start_Runway_runwayStateMachine_Closed_Restoration_2_Restoration_2 -->
<g id="node13" class="node"><title>start_Runway_runwayStateMachine_Closed_Restoration_2_Restoration_2</title>
<ellipse fill="black" stroke="black" cx="694.056" cy="-293" rx="7.2" ry="7.2"/>
</g>
<!-- start_Runway_runwayStateMachine_Closed_Restoration_2_Restoration_2&#45;&gt;Runway_runwayStateMachineClosedRestoration_2Restoration_2_Maintenance -->
<g id="edge18" class="edge"><title>start_Runway_runwayStateMachine_Closed_Restoration_2_Restoration_2&#45;&gt;Runway_runwayStateMachineClosedRestoration_2Restoration_2_Maintenance</title>
<path fill="none" stroke="black" d="M694.056,-285.606C694.056,-276.541 694.056,-259.4 694.056,-244.52"/>
<polygon fill="black" stroke="black" points="697.556,-244.233 694.056,-234.233 690.556,-244.233 697.556,-244.233"/>
</g>
</g>
</svg>
