<?xml version="1.0" encoding="UTF-8" standalone="no"?>
<!DOCTYPE svg PUBLIC "-//W3C//DTD SVG 1.1//EN"
 "http://www.w3.org/Graphics/SVG/1.1/DTD/svg11.dtd">
<!-- Generated by graphviz version 2.29.20121108.1600 (20121108.1600)
 -->
<!-- Title: Runway Pages: 1 -->
<svg width="759pt" height="413pt"
 viewBox="0.00 0.00 759.00 413.00" xmlns="http://www.w3.org/2000/svg" xmlns:xlink="http://www.w3.org/1999/xlink">
<g id="graph0" class="graph" transform="scale(1 1) rotate(0) translate(4 409)">
<title>Runway</title>
<polygon fill="white" stroke="white" points="-4,5 -4,-409 756,-409 756,5 -4,5"/>
<g id="clust1" class="cluster"><title>clusterRunway_runwayStateMachine_Open</title>
<path fill="none" stroke="black" d="M34,-8C34,-8 226,-8 226,-8 232,-8 238,-14 238,-20 238,-20 238,-247 238,-247 238,-253 232,-259 226,-259 226,-259 34,-259 34,-259 28,-259 22,-253 22,-247 22,-247 22,-20 22,-20 22,-14 28,-8 34,-8"/>
<text text-anchor="middle" x="130" y="-241" font-family="Times,serif" font-size="14.00">Open</text>
</g>
<g id="clust2" class="cluster"><title>clusterRunway_runwayStateMachine_Closed</title>
<path fill="none" stroke="black" d="M258,-8C258,-8 731,-8 731,-8 737,-8 743,-14 743,-20 743,-20 743,-385 743,-385 743,-391 737,-397 731,-397 731,-397 258,-397 258,-397 252,-397 246,-391 246,-385 246,-385 246,-20 246,-20 246,-14 252,-8 258,-8"/>
<text text-anchor="middle" x="494.5" y="-379" font-family="Times,serif" font-size="14.00">Closed</text>
</g>
<g id="clust3" class="cluster"><title>clusterRunway_runwayStateMachineClosed_Restoration</title>
<path fill="none" stroke="black" d="M354,-96C354,-96 723,-96 723,-96 729,-96 735,-102 735,-108 735,-108 735,-353 735,-353 735,-359 729,-365 723,-365 723,-365 354,-365 354,-365 348,-365 342,-359 342,-353 342,-353 342,-108 342,-108 342,-102 348,-96 354,-96"/>
<text text-anchor="middle" x="538.5" y="-347" font-family="Times,serif" font-size="14.00">Restoration</text>
</g>
<g id="clust4" class="cluster"><title>clusterRunway_runwayStateMachineClosedRestoration_Restoration_1</title>
<path fill="none" stroke="black" d="M384,-104C384,-104 603,-104 603,-104 609,-104 615,-110 615,-116 615,-116 615,-321 615,-321 615,-327 609,-333 603,-333 603,-333 384,-333 384,-333 378,-333 372,-327 372,-321 372,-321 372,-116 372,-116 372,-110 378,-104 384,-104"/>
<text text-anchor="middle" x="493.5" y="-315" font-family="Times,serif" font-size="14.00">Restoration_1</text>
</g>
<g id="clust5" class="cluster"><title>clusterRunway_runwayStateMachineClosedRestoration_Restoration_2</title>
<path fill="none" stroke="black" d="M635,-194C635,-194 715,-194 715,-194 721,-194 727,-200 727,-206 727,-206 727,-321 727,-321 727,-327 721,-333 715,-333 715,-333 635,-333 635,-333 629,-333 623,-327 623,-321 623,-321 623,-206 623,-206 623,-200 629,-194 635,-194"/>
<text text-anchor="middle" x="675" y="-315" font-family="Times,serif" font-size="14.00">Restoration_2</text>
</g>
<!-- start_Runway_runwayStateMachine -->
<g id="node1" class="node"><title>start_Runway_runwayStateMachine</title>
<ellipse fill="black" stroke="black" cx="7" cy="-220" rx="7.2" ry="7.2"/>
</g>
<!-- Runway_runwayStateMachineOpen_Free -->
<g id="node3" class="node"><title>Runway_runwayStateMachineOpen_Free</title>
<path fill="none" stroke="black" d="M218,-148C218,-148 170,-148 170,-148 164,-148 158,-142 158,-136 158,-136 158,-124 158,-124 158,-118 164,-112 170,-112 170,-112 218,-112 218,-112 224,-112 230,-118 230,-124 230,-124 230,-136 230,-136 230,-142 224,-148 218,-148"/>
<text text-anchor="middle" x="194" y="-124.4" font-family="Times,serif" font-size="14.00">Free</text>
</g>
<!-- start_Runway_runwayStateMachine&#45;&gt;Runway_runwayStateMachineOpen_Free -->
<g id="edge1" class="edge"><title>start_Runway_runwayStateMachine&#45;&gt;Runway_runwayStateMachineOpen_Free</title>
<path fill="none" stroke="black" d="M8.24649,-212.844C9.25923,-208.892 10.994,-203.674 15.3109,-197.834"/>
<polygon fill="black" stroke="black" points="18.1586,-199.905 22.3,-190.153 12.9811,-195.194 18.1586,-199.905"/>
</g>
<!-- start_Runway_runwayStateMachine_Open -->
<g id="node2" class="node"><title>start_Runway_runwayStateMachine_Open</title>
<ellipse fill="black" stroke="black" cx="194" cy="-220" rx="7.2" ry="7.2"/>
</g>
<!-- start_Runway_runwayStateMachine_Open&#45;&gt;Runway_runwayStateMachineOpen_Free -->
<g id="edge4" class="edge"><title>start_Runway_runwayStateMachine_Open&#45;&gt;Runway_runwayStateMachineOpen_Free</title>
<path fill="none" stroke="black" d="M194,-212.671C194,-201.484 194,-177.597 194,-158.531"/>
<polygon fill="black" stroke="black" points="197.5,-158.271 194,-148.271 190.5,-158.271 197.5,-158.271"/>
</g>
<!-- Runway_runwayStateMachineOpen_Occupied -->
<g id="node4" class="node"><title>Runway_runwayStateMachineOpen_Occupied</title>
<path fill="none" stroke="black" d="M131,-52C131,-52 83,-52 83,-52 77,-52 71,-46 71,-40 71,-40 71,-28 71,-28 71,-22 77,-16 83,-16 83,-16 131,-16 131,-16 137,-16 143,-22 143,-28 143,-28 143,-40 143,-40 143,-46 137,-52 131,-52"/>
<text text-anchor="middle" x="107" y="-28.4" font-family="Times,serif" font-size="14.00">Occupied</text>
</g>
<!-- Runway_runwayStateMachineOpen_Free&#45;&gt;Runway_runwayStateMachineOpen_Occupied -->
<g id="edge6" class="edge"><title>Runway_runwayStateMachineOpen_Free&#45;&gt;Runway_runwayStateMachineOpen_Occupied</title>
<path fill="none" stroke="black" d="M157.753,-129.003C126.261,-126.835 82.3046,-118.115 60.0273,-88 52.4959,-77.819 58.6289,-67.2508 68.6499,-58.2552"/>
<polygon fill="black" stroke="black" points="70.8501,-60.9773 76.4941,-52.0109 66.4905,-55.5006 70.8501,-60.9773"/>
<text text-anchor="middle" x="99.4863" y="-73.4" font-family="Times,serif" font-size="14.00">planeLanding</text>
</g>
<!-- Runway_runwayStateMachineClosed_Emergency -->
<g id="node6" class="node"><title>Runway_runwayStateMachineClosed_Emergency</title>
<path fill="none" stroke="black" d="M321.623,-238C321.623,-238 266.377,-238 266.377,-238 260.377,-238 254.377,-232 254.377,-226 254.377,-226 254.377,-214 254.377,-214 254.377,-208 260.377,-202 266.377,-202 266.377,-202 321.623,-202 321.623,-202 327.623,-202 333.623,-208 333.623,-214 333.623,-214 333.623,-226 333.623,-226 333.623,-232 327.623,-238 321.623,-238"/>
<text text-anchor="middle" x="294" y="-214.4" font-family="Times,serif" font-size="14.00">Emergency</text>
</g>
<!-- Runway_runwayStateMachineOpen_Free&#45;&gt;Runway_runwayStateMachineClosed_Emergency -->
<g id="edge8" class="edge"><title>Runway_runwayStateMachineOpen_Free&#45;&gt;Runway_runwayStateMachineClosed_Emergency</title>
<path fill="none" stroke="black" d="M237.904,-191.134C241.461,-193.053 245.564,-195.188 249.901,-197.4"/>
<polygon fill="black" stroke="black" points="248.464,-200.595 258.97,-201.97 251.615,-194.344 248.464,-200.595"/>
<text text-anchor="middle" x="242.935" y="-169.4" font-family="Times,serif" font-size="14.00">alarm</text>
</g>
<!-- Runway_runwayStateMachineClosedRestorationRestoration_1_Repair -->
<g id="node10" class="node"><title>Runway_runwayStateMachineClosedRestorationRestoration_1_Repair</title>
<path fill="none" stroke="black" d="M440,-238C440,-238 392,-238 392,-238 386,-238 380,-232 380,-226 380,-226 380,-214 380,-214 380,-208 386,-202 392,-202 392,-202 440,-202 440,-202 446,-202 452,-208 452,-214 452,-214 452,-226 452,-226 452,-232 446,-238 440,-238"/>
<text text-anchor="middle" x="416" y="-214.4" font-family="Times,serif" font-size="14.00">Repair</text>
</g>
<!-- Runway_runwayStateMachineOpen_Free&#45;&gt;Runway_runwayStateMachineClosedRestorationRestoration_1_Repair -->
<g id="edge10" class="edge"><title>Runway_runwayStateMachineOpen_Free&#45;&gt;Runway_runwayStateMachineClosedRestorationRestoration_1_Repair</title>
<path fill="none" stroke="black" d="M230.032,-139.571C254.825,-145.875 288.327,-155.202 317,-166 323.38,-168.402 328.613,-170.452 333.216,-172.363"/>
<polygon fill="black" stroke="black" points="331.921,-175.617 342.486,-176.407 334.72,-169.2 331.921,-175.617"/>
<text text-anchor="middle" x="374.321" y="-169.4" font-family="Times,serif" font-size="14.00">repair</text>
</g>
<!-- Runway_runwayStateMachineOpen_Occupied&#45;&gt;Runway_runwayStateMachineOpen_Free -->
<g id="edge5" class="edge"><title>Runway_runwayStateMachineOpen_Occupied&#45;&gt;Runway_runwayStateMachineOpen_Free</title>
<path fill="none" stroke="black" d="M122.856,-52.1317C136.316,-66.6748 155.805,-87.7323 170.983,-104.132"/>
<polygon fill="black" stroke="black" points="168.682,-106.797 178.043,-111.759 173.819,-102.042 168.682,-106.797"/>
<text text-anchor="middle" x="196.978" y="-73.4" font-family="Times,serif" font-size="14.00">planeTakesOff</text>
</g>
<!-- start_Runway_runwayStateMachine_Closed -->
<g id="node5" class="node"><title>start_Runway_runwayStateMachine_Closed</title>
<ellipse fill="black" stroke="black" cx="294" cy="-294" rx="7.2" ry="7.2"/>
</g>
<!-- start_Runway_runwayStateMachine_Closed&#45;&gt;Runway_runwayStateMachineClosed_Emergency -->
<g id="edge7" class="edge"><title>start_Runway_runwayStateMachine_Closed&#45;&gt;Runway_runwayStateMachineClosed_Emergency</title>
<path fill="none" stroke="black" d="M294,-286.355C294,-277.7 294,-262.04 294,-248.219"/>
<polygon fill="black" stroke="black" points="297.5,-248.154 294,-238.154 290.5,-248.154 297.5,-248.154"/>
</g>
<!-- Runway_runwayStateMachineClosed_Emergency&#45;&gt;Runway_runwayStateMachineOpen_Free -->
<g id="edge2" class="edge"><title>Runway_runwayStateMachineClosed_Emergency&#45;&gt;Runway_runwayStateMachineOpen_Free</title>
<path fill="none" stroke="black" d="M286.539,-201.56C281.045,-190.314 272.681,-175.98 262,-166 255.374,-159.809 247.444,-154.43 239.376,-149.871"/>
<polygon fill="black" stroke="black" points="248.406,-151.065 238,-149.072 244.892,-157.119 248.406,-151.065"/>
<text text-anchor="middle" x="289.597" y="-169.4" font-family="Times,serif" font-size="14.00">clear</text>
</g>
<!-- Runway_runwayStateMachineClosed_Ready -->
<g id="node7" class="node"><title>Runway_runwayStateMachineClosed_Ready</title>
<path fill="none" stroke="black" d="M320,-52C320,-52 272,-52 272,-52 266,-52 260,-46 260,-40 260,-40 260,-28 260,-28 260,-22 266,-16 272,-16 272,-16 320,-16 320,-16 326,-16 332,-22 332,-28 332,-28 332,-40 332,-40 332,-46 326,-52 320,-52"/>
<text text-anchor="middle" x="296" y="-28.4" font-family="Times,serif" font-size="14.00">Ready</text>
</g>
<!-- Runway_runwayStateMachineClosed_Ready&#45;&gt;Runway_runwayStateMachineOpen_Free -->
<g id="edge3" class="edge"><title>Runway_runwayStateMachineClosed_Ready&#45;&gt;Runway_runwayStateMachineOpen_Free</title>
<path fill="none" stroke="black" d="M278.378,-52.412C269.36,-61.231 257.995,-72.2093 244.953,-84.3177"/>
<polygon fill="black" stroke="black" points="242.518,-81.8021 237.54,-91.1542 247.264,-86.9482 242.518,-81.8021"/>
<text text-anchor="middle" x="273.607" y="-73.4" font-family="Times,serif" font-size="14.00">open</text>
</g>
<!-- start_Runway_runwayStateMachine_Closed_Restoration -->
<g id="node8" class="node"><title>start_Runway_runwayStateMachine_Closed_Restoration</title>
<ellipse fill="black" stroke="black" cx="357" cy="-294" rx="7.2" ry="7.2"/>
</g>
<!-- start_Runway_runwayStateMachine_Closed_Restoration&#45;&gt;Runway_runwayStateMachineClosedRestorationRestoration_1_Repair -->
<g id="edge11" class="edge"><title>start_Runway_runwayStateMachine_Closed_Restoration&#45;&gt;Runway_runwayStateMachineClosedRestorationRestoration_1_Repair</title>
<path fill="none" stroke="black" d="M361.58,-287.913C362.728,-286.63 364.038,-285.158 365.447,-283.564"/>
<polygon fill="black" stroke="black" points="368.115,-285.829 372.06,-275.996 362.844,-281.223 368.115,-285.829"/>
</g>
<!-- start_Runway_runwayStateMachine_Closed_Restoration_Restoration_1 -->
<g id="node9" class="node"><title>start_Runway_runwayStateMachine_Closed_Restoration_Restoration_1</title>
<ellipse fill="black" stroke="black" cx="416" cy="-294" rx="7.2" ry="7.2"/>
</g>
<!-- start_Runway_runwayStateMachine_Closed_Restoration_Restoration_1&#45;&gt;Runway_runwayStateMachineClosedRestorationRestoration_1_Repair -->
<g id="edge12" class="edge"><title>start_Runway_runwayStateMachine_Closed_Restoration_Restoration_1&#45;&gt;Runway_runwayStateMachineClosedRestorationRestoration_1_Repair</title>
<path fill="none" stroke="black" d="M416,-286.355C416,-277.7 416,-262.04 416,-248.219"/>
<polygon fill="black" stroke="black" points="419.5,-248.154 416,-238.154 412.5,-248.154 419.5,-248.154"/>
</g>
<!-- Runway_runwayStateMachineClosedRestorationRestoration_1_Inspection -->
<g id="node11" class="node"><title>Runway_runwayStateMachineClosedRestorationRestoration_1_Inspection</title>
<path fill="none" stroke="black" d="M442.238,-148C442.238,-148 391.762,-148 391.762,-148 385.762,-148 379.762,-142 379.762,-136 379.762,-136 379.762,-124 379.762,-124 379.762,-118 385.762,-112 391.762,-112 391.762,-112 442.238,-112 442.238,-112 448.238,-112 454.238,-118 454.238,-124 454.238,-124 454.238,-136 454.238,-136 454.238,-142 448.238,-148 442.238,-148"/>
<text text-anchor="middle" x="417" y="-124.4" font-family="Times,serif" font-size="14.00">Inspection</text>
</g>
<!-- Runway_runwayStateMachineClosedRestorationRestoration_1_Repair&#45;&gt;Runway_runwayStateMachineClosedRestorationRestoration_1_Inspection -->
<g id="edge14" class="edge"><title>Runway_runwayStateMachineClosedRestorationRestoration_1_Repair&#45;&gt;Runway_runwayStateMachineClosedRestorationRestoration_1_Inspection</title>
<path fill="none" stroke="black" d="M452.289,-211.121C466.919,-205.97 482.355,-197.574 491,-184 501.648,-167.281 484.094,-154.221 463.42,-145.249"/>
<polygon fill="black" stroke="black" points="464.703,-141.993 454.118,-141.536 462.108,-148.494 464.703,-141.993"/>
<text text-anchor="middle" x="542.038" y="-169.4" font-family="Times,serif" font-size="14.00">repairCompleted</text>
</g>
<!-- Runway_runwayStateMachineClosedRestorationRestoration_1_Inspection&#45;&gt;Runway_runwayStateMachineClosed_Ready -->
<g id="edge9" class="edge"><title>Runway_runwayStateMachineClosedRestorationRestoration_1_Inspection&#45;&gt;Runway_runwayStateMachineClosed_Ready</title>
<path fill="none" stroke="black" d="M395.088,-111.977C375.849,-97.0312 347.674,-75.1436 326.282,-58.5248"/>
<polygon fill="black" stroke="black" points="328.202,-55.5847 318.158,-52.2137 323.908,-61.1126 328.202,-55.5847"/>
<text text-anchor="middle" x="407.726" y="-73.4" font-family="Times,serif" font-size="14.00">check [success]</text>
</g>
<!-- Runway_runwayStateMachineClosedRestorationRestoration_1_Inspection&#45;&gt;Runway_runwayStateMachineClosedRestorationRestoration_1_Repair -->
<g id="edge13" class="edge"><title>Runway_runwayStateMachineClosedRestorationRestoration_1_Inspection&#45;&gt;Runway_runwayStateMachineClosedRestorationRestoration_1_Repair</title>
<path fill="none" stroke="black" d="M406.056,-148.158C403.133,-153.644 400.375,-159.884 398.886,-166 396.993,-173.773 397.082,-176.206 398.886,-184 399.543,-186.842 400.465,-189.719 401.543,-192.54"/>
<polygon fill="black" stroke="black" points="398.39,-194.064 405.655,-201.776 404.785,-191.217 398.39,-194.064"/>
<text text-anchor="middle" x="445.057" y="-169.4" font-family="Times,serif" font-size="14.00">check [!success]</text>
</g>
<!-- start_Runway_runwayStateMachine_Closed_Restoration_Restoration_2 -->
<g id="node12" class="node"><title>start_Runway_runwayStateMachine_Closed_Restoration_Restoration_2</title>
<ellipse fill="black" stroke="black" cx="675" cy="-294" rx="7.2" ry="7.2"/>
</g>
<!-- Runway_runwayStateMachineClosedRestorationRestoration_2_Maintenance -->
<g id="node13" class="node"><title>Runway_runwayStateMachineClosedRestorationRestoration_2_Maintenance</title>
<path fill="none" stroke="black" d="M707.223,-238C707.223,-238 642.777,-238 642.777,-238 636.777,-238 630.777,-232 630.777,-226 630.777,-226 630.777,-214 630.777,-214 630.777,-208 636.777,-202 642.777,-202 642.777,-202 707.223,-202 707.223,-202 713.223,-202 719.223,-208 719.223,-214 719.223,-214 719.223,-226 719.223,-226 719.223,-232 713.223,-238 707.223,-238"/>
<text text-anchor="middle" x="675" y="-214.4" font-family="Times,serif" font-size="14.00">Maintenance</text>
</g>
<!-- start_Runway_runwayStateMachine_Closed_Restoration_Restoration_2&#45;&gt;Runway_runwayStateMachineClosedRestorationRestoration_2_Maintenance -->
<g id="edge15" class="edge"><title>start_Runway_runwayStateMachine_Closed_Restoration_Restoration_2&#45;&gt;Runway_runwayStateMachineClosedRestorationRestoration_2_Maintenance</title>
<path fill="none" stroke="black" d="M675,-286.355C675,-277.7 675,-262.04 675,-248.219"/>
<polygon fill="black" stroke="black" points="678.5,-248.154 675,-238.154 671.5,-248.154 678.5,-248.154"/>
</g>
</g>
</svg>
