<?xml version="1.0" encoding="UTF-8" standalone="no"?>
<!DOCTYPE svg PUBLIC "-//W3C//DTD SVG 1.1//EN"
 "http://www.w3.org/Graphics/SVG/1.1/DTD/svg11.dtd">
<!-- Generated by graphviz version 2.40.1 (20161225.0304)
 -->
<!-- Title: Runway Pages: 1 -->
<svg width="764pt" height="720pt"
 viewBox="0.00 0.00 764.31 720.00" xmlns="http://www.w3.org/2000/svg" xmlns:xlink="http://www.w3.org/1999/xlink">
<g id="graph0" class="graph" transform="scale(.6544 .6544) rotate(0) translate(4 1096.2)">
<title>Runway</title>
<polygon fill="#ffffff" stroke="transparent" points="-4,4 -4,-1096.2 1163.9141,-1096.2 1163.9141,4 -4,4"/>
<g id="clust1" class="cluster">
<title>clusterRunway_runwayStateMachine_Open</title>
<path fill="none" stroke="#000000" d="M598,-81C598,-81 1059,-81 1059,-81 1065,-81 1071,-87 1071,-93 1071,-93 1071,-423.8 1071,-423.8 1071,-429.8 1065,-435.8 1059,-435.8 1059,-435.8 598,-435.8 598,-435.8 592,-435.8 586,-429.8 586,-423.8 586,-423.8 586,-93 586,-93 586,-87 592,-81 598,-81"/>
<text text-anchor="middle" x="828.5" y="-420.6" font-family="Times,serif" font-size="14.00" fill="#000000">Open</text>
</g>
<g id="clust2" class="cluster">
<title>clusterRunway_runwayStateMachine_Closed</title>
<path fill="none" stroke="#000000" d="M20,-8C20,-8 544,-8 544,-8 550,-8 556,-14 556,-20 556,-20 556,-1072.2 556,-1072.2 556,-1078.2 550,-1084.2 544,-1084.2 544,-1084.2 20,-1084.2 20,-1084.2 14,-1084.2 8,-1078.2 8,-1072.2 8,-1072.2 8,-20 8,-20 8,-14 14,-8 20,-8"/>
<text text-anchor="middle" x="282" y="-1069" font-family="Times,serif" font-size="14.00" fill="#000000">Closed</text>
</g>
<g id="clust3" class="cluster">
<title>clusterRunway_runwayStateMachineClosed_Restoration</title>
<path fill="none" stroke="#000000" d="M116,-165C116,-165 536,-165 536,-165 542,-165 548,-171 548,-177 548,-177 548,-1042.2 548,-1042.2 548,-1048.2 542,-1054.2 536,-1054.2 536,-1054.2 116,-1054.2 116,-1054.2 110,-1054.2 104,-1048.2 104,-1042.2 104,-1042.2 104,-177 104,-177 104,-171 110,-165 116,-165"/>
<text text-anchor="middle" x="326" y="-1039" font-family="Times,serif" font-size="14.00" fill="#000000">Restoration</text>
</g>
<g id="clust4" class="cluster">
<title>clusterRunway_runwayStateMachineClosedRestorationRestoration_1_Restoration_1</title>
<path fill="none" stroke="#000000" d="M236,-173C236,-173 528,-173 528,-173 534,-173 540,-179 540,-185 540,-185 540,-1012.2 540,-1012.2 540,-1018.2 534,-1024.2 528,-1024.2 528,-1024.2 236,-1024.2 236,-1024.2 230,-1024.2 224,-1018.2 224,-1012.2 224,-1012.2 224,-185 224,-185 224,-179 230,-173 236,-173"/>
<text text-anchor="middle" x="382" y="-1009" font-family="Times,serif" font-size="14.00" fill="#000000">Restoration_1</text>
</g>
<g id="clust5" class="cluster">
<title>clusterRunway_runwayStateMachineClosedRestorationRestoration_2_Restoration_2</title>
<path fill="none" stroke="#000000" d="M124,-632.8C124,-632.8 204,-632.8 204,-632.8 210,-632.8 216,-638.8 216,-644.8 216,-644.8 216,-1012.2 216,-1012.2 216,-1018.2 210,-1024.2 204,-1024.2 204,-1024.2 124,-1024.2 124,-1024.2 118,-1024.2 112,-1018.2 112,-1012.2 112,-1012.2 112,-644.8 112,-644.8 112,-638.8 118,-632.8 124,-632.8"/>
<text text-anchor="middle" x="164" y="-1009" font-family="Times,serif" font-size="14.00" fill="#000000">Restoration_2</text>
</g>
<!-- start_Runway_runwayStateMachine -->
<g id="node1" class="node">
<title>start_Runway_runwayStateMachine</title>
<g id="a_node1"><a xlink:title="Class Runway, SM runwayStateMachine, State start">
<ellipse fill="#000000" stroke="#000000" cx="571" cy="-347.2" rx="7.2" ry="7.2"/>
</a>
</g>
</g>
<!-- Runway_runwayStateMachineOpen_Free -->
<g id="node3" class="node">
<title>Runway_runwayStateMachineOpen_Free</title>
<g id="a_node3"><a xlink:title="Class Runway, SM runwayStateMachine, State Open.Free&#13;Entry:&#10; &#160;&#160;turnOnGreenLight();&#13;Exit:&#10; &#160;&#160;turnOffGreenLight();">
<path fill="none" stroke="#000000" d="M728,-303C728,-303 680,-303 680,-303 674,-303 668,-297 668,-291 668,-291 668,-279 668,-279 668,-273 674,-267 680,-267 680,-267 728,-267 728,-267 734,-267 740,-273 740,-279 740,-279 740,-291 740,-291 740,-297 734,-303 728,-303"/>
<text text-anchor="middle" x="704" y="-280.8" font-family="Times,serif" font-size="14.00" fill="#000000">Free</text>
</a>
</g>
</g>
<!-- start_Runway_runwayStateMachine&#45;&gt;Runway_runwayStateMachineOpen_Free -->
<g id="edge1" class="edge">
<title>start_Runway_runwayStateMachine&#45;&gt;Runway_runwayStateMachineOpen_Free</title>
<g id="a_edge1"><a xlink:title="start to Open">
<path fill="none" stroke="#000000" d="M577.0494,-342.9146C577.202,-342.8089 577.3569,-342.7016 577.5142,-342.5929"/>
<polygon fill="#000000" stroke="#000000" points="579.6656,-345.3638 586.0043,-336.8743 575.755,-339.558 579.6656,-345.3638"/>
</a>
</g>
</g>
<!-- start_Runway_Open -->
<g id="node2" class="node">
<title>start_Runway_Open</title>
<g id="a_node2"><a xlink:title="Class Runway, SM runwayStateMachine, State Open.start">
<ellipse fill="#000000" stroke="#000000" cx="704" cy="-398.6" rx="7.2" ry="7.2"/>
</a>
</g>
</g>
<!-- start_Runway_Open&#45;&gt;Runway_runwayStateMachineOpen_Free -->
<g id="edge3" class="edge">
<title>start_Runway_Open&#45;&gt;Runway_runwayStateMachineOpen_Free</title>
<g id="a_edge3"><a xlink:title="start to Open.Free">
<path fill="none" stroke="#000000" d="M704,-391.1464C704,-375.684 704,-339.4092 704,-313.5767"/>
<polygon fill="#000000" stroke="#000000" points="707.5001,-313.236 704,-303.236 700.5001,-313.2361 707.5001,-313.236"/>
</a>
</g>
</g>
<!-- Runway_runwayStateMachineOpen_Occupied -->
<g id="node4" class="node">
<title>Runway_runwayStateMachineOpen_Occupied</title>
<g id="a_node4"><a xlink:title="Class Runway, SM runwayStateMachine, State Open.Occupied">
<path fill="none" stroke="#000000" d="M811,-125C811,-125 763,-125 763,-125 757,-125 751,-119 751,-113 751,-113 751,-101 751,-101 751,-95 757,-89 763,-89 763,-89 811,-89 811,-89 817,-89 823,-95 823,-101 823,-101 823,-113 823,-113 823,-119 817,-125 811,-125"/>
<text text-anchor="middle" x="787" y="-102.8" font-family="Times,serif" font-size="14.00" fill="#000000">Occupied</text>
</a>
</g>
</g>
<!-- Runway_runwayStateMachineOpen_Free&#45;&gt;Runway_runwayStateMachineOpen_Occupied -->
<g id="edge6" class="edge">
<title>Runway_runwayStateMachineOpen_Free&#45;&gt;Runway_runwayStateMachineOpen_Occupied</title>
<g id="a_edge6"><a xlink:title="From Open.Free to Open.Occupied on planeLanding">
<path fill="none" stroke="#000000" d="M672.5524,-266.9712C655.3431,-255.1938 635.6191,-238.0919 626.0273,-217 616.4602,-195.9621 612.7407,-183.91 626.0273,-165 639.5846,-145.7048 698.2434,-128.0338 740.845,-117.3941"/>
<polygon fill="#000000" stroke="#000000" points="741.8665,-120.7476 750.7498,-114.9736 740.2047,-113.9477 741.8665,-120.7476"/>
</a>
</g>
<text text-anchor="middle" x="664.4863" y="-194.8" font-family="Times,serif" font-size="14.00" fill="#000000">planeLanding</text>
</g>
<!-- Runway_runwayStateMachineOpen_Free&#45;&gt;Runway_runwayStateMachineOpen_Occupied -->
<g id="edge7" class="edge">
<title>Runway_runwayStateMachineOpen_Free&#45;&gt;Runway_runwayStateMachineOpen_Occupied</title>
<g id="a_edge7"><a xlink:title="From Open.Free to Open.Occupied on planeTakingOff">
<path fill="none" stroke="#000000" d="M703.6396,-266.7569C703.9087,-242.1751 707.1065,-197.7301 724.8164,-165 731.6465,-152.3771 742.257,-140.9769 752.7916,-131.6912"/>
<polygon fill="#000000" stroke="#000000" points="755.3449,-134.1185 760.7688,-125.0173 750.8531,-128.7496 755.3449,-134.1185"/>
</a>
</g>
<text text-anchor="middle" x="768.0918" y="-194.8" font-family="Times,serif" font-size="14.00" fill="#000000">planeTakingOff</text>
</g>
<!-- Runway_runwayStateMachineClosed_Emergency -->
<g id="node6" class="node">
<title>Runway_runwayStateMachineClosed_Emergency</title>
<g id="a_node6"><a xlink:title="Class Runway, SM runwayStateMachine, State Closed.Emergency">
<path fill="none" stroke="#000000" d="M84.0006,-217C84.0006,-217 27.9994,-217 27.9994,-217 21.9994,-217 15.9994,-211 15.9994,-205 15.9994,-205 15.9994,-193 15.9994,-193 15.9994,-187 21.9994,-181 27.9994,-181 27.9994,-181 84.0006,-181 84.0006,-181 90.0006,-181 96.0006,-187 96.0006,-193 96.0006,-193 96.0006,-205 96.0006,-205 96.0006,-211 90.0006,-217 84.0006,-217"/>
<text text-anchor="middle" x="56" y="-194.8" font-family="Times,serif" font-size="14.00" fill="#000000">Emergency</text>
</a>
</g>
</g>
<!-- Runway_runwayStateMachineOpen_Free&#45;&gt;Runway_runwayStateMachineClosed_Emergency -->
<g id="edge9" class="edge">
<title>Runway_runwayStateMachineOpen_Free&#45;&gt;Runway_runwayStateMachineClosed_Emergency</title>
<g id="a_edge9"><a xlink:title="From Open to Closed.Emergency on alarm">
<path fill="none" stroke="#000000" d="M586.0032,-269.3399C442.9507,-250.3546 208.3516,-219.2195 106.1783,-205.6595"/>
<polygon fill="#000000" stroke="#000000" points="106.428,-202.162 96.0544,-204.3159 105.507,-209.1011 106.428,-202.162"/>
</a>
</g>
<text text-anchor="middle" x="434.9346" y="-237.8" font-family="Times,serif" font-size="14.00" fill="#000000">alarm</text>
</g>
<!-- Runway_runwayStateMachineClosedRestorationRestoration_1Restoration_1_Repair -->
<g id="node9" class="node">
<title>Runway_runwayStateMachineClosedRestorationRestoration_1Restoration_1_Repair</title>
<g id="a_node9"><a xlink:title="Class Runway, SM runwayStateMachine, State Closed.Restoration_1.Restoration_1.Repair">
<path fill="none" stroke="#000000" d="M404,-676.8C404,-676.8 356,-676.8 356,-676.8 350,-676.8 344,-670.8 344,-664.8 344,-664.8 344,-652.8 344,-652.8 344,-646.8 350,-640.8 356,-640.8 356,-640.8 404,-640.8 404,-640.8 410,-640.8 416,-646.8 416,-652.8 416,-652.8 416,-664.8 416,-664.8 416,-670.8 410,-676.8 404,-676.8"/>
<text text-anchor="middle" x="380" y="-654.6" font-family="Times,serif" font-size="14.00" fill="#000000">Repair</text>
</a>
</g>
</g>
<!-- Runway_runwayStateMachineOpen_Free&#45;&gt;Runway_runwayStateMachineClosedRestorationRestoration_1Restoration_1_Repair -->
<g id="edge12" class="edge">
<title>Runway_runwayStateMachineOpen_Free&#45;&gt;Runway_runwayStateMachineClosedRestorationRestoration_1Restoration_1_Repair</title>
<g id="a_edge12"><a xlink:title="From Open.Free to Closed.Restoration on repair">
<path fill="none" stroke="#000000" d="M667.7547,-298.4499C647.7833,-308.4485 627,-324.3443 627,-347.2 627,-603.3 627,-603.3 627,-603.3 627,-613.0876 597.0945,-622.7835 558.0952,-631.2665"/>
<polygon fill="#000000" stroke="#000000" points="557.0592,-627.9079 547.9968,-633.3964 558.5039,-634.7573 557.0592,-627.9079"/>
</a>
</g>
<text text-anchor="middle" x="643.3208" y="-497.6" font-family="Times,serif" font-size="14.00" fill="#000000">repair</text>
</g>
<!-- Runway_runwayStateMachineOpen_Occupied&#45;&gt;Runway_runwayStateMachineOpen_Free -->
<g id="edge4" class="edge">
<title>Runway_runwayStateMachineOpen_Occupied&#45;&gt;Runway_runwayStateMachineOpen_Free</title>
<g id="a_edge4"><a xlink:title="From Open.Occupied to Open.Free on planeTakesOff">
<path fill="none" stroke="#000000" d="M799.9823,-125.1845C814.4534,-147.894 833.7556,-187.3615 817,-217 802.5761,-242.5141 774.3235,-259.5146 749.6782,-270.1363"/>
<polygon fill="#000000" stroke="#000000" points="748.0396,-267.0243 740.0952,-274.034 750.677,-273.5085 748.0396,-267.0243"/>
</a>
</g>
<text text-anchor="middle" x="863.978" y="-194.8" font-family="Times,serif" font-size="14.00" fill="#000000">planeTakesOff</text>
</g>
<!-- Runway_runwayStateMachineOpen_Occupied&#45;&gt;Runway_runwayStateMachineOpen_Free -->
<g id="edge5" class="edge">
<title>Runway_runwayStateMachineOpen_Occupied&#45;&gt;Runway_runwayStateMachineOpen_Free</title>
<g id="a_edge5"><a xlink:title="From Open.Occupied to Open.Free on landingComplete">
<path fill="none" stroke="#000000" d="M823.0517,-113.3726C851.8111,-120.5582 890.2719,-135.3597 909,-165 921.3449,-184.5378 922.527,-198.2612 909,-217 890.1857,-243.0632 804.6227,-264.7163 750.1567,-276.1762"/>
<polygon fill="#000000" stroke="#000000" points="749.1261,-272.815 740.0396,-278.2633 750.5405,-279.6706 749.1261,-272.815"/>
</a>
</g>
<text text-anchor="middle" x="966.2139" y="-194.8" font-family="Times,serif" font-size="14.00" fill="#000000">landingComplete</text>
</g>
<!-- start_Runway_Closed -->
<g id="node5" class="node">
<title>start_Runway_Closed</title>
<g id="a_node5"><a xlink:title="Class Runway, SM runwayStateMachine, State Closed.start">
<ellipse fill="#000000" stroke="#000000" cx="56" cy="-347.2" rx="7.2" ry="7.2"/>
</a>
</g>
</g>
<!-- start_Runway_Closed&#45;&gt;Runway_runwayStateMachineClosed_Emergency -->
<g id="edge8" class="edge">
<title>start_Runway_Closed&#45;&gt;Runway_runwayStateMachineClosed_Emergency</title>
<g id="a_edge8"><a xlink:title="start to Closed.Emergency">
<path fill="none" stroke="#000000" d="M56,-339.647C56,-319.2272 56,-262.1206 56,-227.2741"/>
<polygon fill="#000000" stroke="#000000" points="59.5001,-227.2395 56,-217.2395 52.5001,-227.2396 59.5001,-227.2395"/>
</a>
</g>
</g>
<!-- Runway_runwayStateMachineClosed_ReadyToOpen -->
<g id="node7" class="node">
<title>Runway_runwayStateMachineClosed_ReadyToOpen</title>
<g id="a_node7"><a xlink:title="Class Runway, SM runwayStateMachine, State Closed.ReadyToOpen">
<path fill="none" stroke="#000000" d="M367.1646,-52C367.1646,-52 294.8354,-52 294.8354,-52 288.8354,-52 282.8354,-46 282.8354,-40 282.8354,-40 282.8354,-28 282.8354,-28 282.8354,-22 288.8354,-16 294.8354,-16 294.8354,-16 367.1646,-16 367.1646,-16 373.1646,-16 379.1646,-22 379.1646,-28 379.1646,-28 379.1646,-40 379.1646,-40 379.1646,-46 373.1646,-52 367.1646,-52"/>
<text text-anchor="middle" x="331" y="-29.8" font-family="Times,serif" font-size="14.00" fill="#000000">ReadyToOpen</text>
</a>
</g>
</g>
<!-- Runway_runwayStateMachineClosed_Emergency&#45;&gt;Runway_runwayStateMachineClosed_ReadyToOpen -->
<g id="edge10" class="edge">
<title>Runway_runwayStateMachineClosed_Emergency&#45;&gt;Runway_runwayStateMachineClosed_ReadyToOpen</title>
<g id="a_edge10"><a xlink:title="From Closed.Emergency to Closed.ReadyToOpen on emergencyOver">
<path fill="none" stroke="#000000" d="M81.9443,-180.8892C116.7332,-156.9029 180.7431,-113.8083 237.8525,-81 252.5501,-72.5565 268.9488,-64.0058 283.8412,-56.5545"/>
<polygon fill="#000000" stroke="#000000" points="285.486,-59.6456 292.8905,-52.0678 282.3765,-53.3741 285.486,-59.6456"/>
</a>
</g>
<text text-anchor="middle" x="282.5737" y="-102.8" font-family="Times,serif" font-size="14.00" fill="#000000">emergencyOver</text>
</g>
<!-- Runway_runwayStateMachineClosed_ReadyToOpen&#45;&gt;Runway_runwayStateMachineOpen_Free -->
<g id="edge2" class="edge">
<title>Runway_runwayStateMachineClosed_ReadyToOpen&#45;&gt;Runway_runwayStateMachineOpen_Free</title>
<g id="a_edge2"><a xlink:title="From Closed.ReadyToOpen to Open on open&#13;Guard: &#160;[noPlaneOnRunway]">
<path fill="none" stroke="#000000" d="M379.232,-34.7085C471.0771,-36.8224 675.7374,-45.2406 830.7536,-78.759"/>
<polygon fill="#000000" stroke="#000000" points="830.3706,-82.2589 840.8907,-81.0033 831.8837,-75.4244 830.3706,-82.2589"/>
</a>
</g>
<text text-anchor="middle" x="1085.457" y="-145.8" font-family="Times,serif" font-size="14.00" fill="#000000">open [noPlaneOnRunway]</text>
</g>
<!-- start_Runway_Restoration_1 -->
<g id="node8" class="node">
<title>start_Runway_Restoration_1</title>
<g id="a_node8"><a xlink:title="Class Runway, SM runwayStateMachine, State Closed.Restoration_1.Restoration_1.start">
<ellipse fill="#000000" stroke="#000000" cx="380" cy="-987" rx="7.2" ry="7.2"/>
</a>
</g>
</g>
<!-- start_Runway_Restoration_1&#45;&gt;Runway_runwayStateMachineClosedRestorationRestoration_1Restoration_1_Repair -->
<g id="edge13" class="edge">
<title>start_Runway_Restoration_1&#45;&gt;Runway_runwayStateMachineClosedRestorationRestoration_1Restoration_1_Repair</title>
<g id="a_edge13"><a xlink:title="start to Closed.Restoration_1.Restoration_1">
<path fill="none" stroke="#000000" d="M374.4519,-982.039C371,-973.7906 371,-956.7344 371,-942.3 371,-942.3 371,-942.3 371,-714.3 371,-705.5318 371,-695.9843 371.4042,-687.3196"/>
<polygon fill="#000000" stroke="#000000" points="374.8984,-687.5254 372.125,-677.3 367.9164,-687.0231 374.8984,-687.5254"/>
</a>
</g>
</g>
<!-- start_Runway_Restoration_1&#45;&gt;Runway_runwayStateMachineClosedRestorationRestoration_1Restoration_1_Repair -->
<g id="edge14" class="edge">
<title>start_Runway_Restoration_1&#45;&gt;Runway_runwayStateMachineClosedRestorationRestoration_1Restoration_1_Repair</title>
<g id="a_edge14"><a xlink:title="start to Closed.Restoration_1.Restoration_1.Repair">
<path fill="none" stroke="#000000" d="M385.5481,-982.039C389,-973.7906 389,-956.7344 389,-942.3 389,-942.3 389,-942.3 389,-714.3 389,-705.5318 389,-695.9843 388.5958,-687.3196"/>
<polygon fill="#000000" stroke="#000000" points="392.0836,-687.0231 387.875,-677.3 385.1016,-687.5254 392.0836,-687.0231"/>
</a>
</g>
</g>
<!-- Runway_runwayStateMachineClosedRestorationRestoration_1Restoration_1_InspectRepairs -->
<g id="node10" class="node">
<title>Runway_runwayStateMachineClosedRestorationRestoration_1Restoration_1_InspectRepairs</title>
<g id="a_node10"><a xlink:title="Class Runway, SM runwayStateMachine, State Closed.Restoration_1.Restoration_1.InspectRepairs">
<path fill="none" stroke="#000000" d="M368.6935,-217C368.6935,-217 293.3065,-217 293.3065,-217 287.3065,-217 281.3065,-211 281.3065,-205 281.3065,-205 281.3065,-193 281.3065,-193 281.3065,-187 287.3065,-181 293.3065,-181 293.3065,-181 368.6935,-181 368.6935,-181 374.6935,-181 380.6935,-187 380.6935,-193 380.6935,-193 380.6935,-205 380.6935,-205 380.6935,-211 374.6935,-217 368.6935,-217"/>
<text text-anchor="middle" x="331" y="-194.8" font-family="Times,serif" font-size="14.00" fill="#000000">InspectRepairs</text>
</a>
</g>
</g>
<!-- Runway_runwayStateMachineClosedRestorationRestoration_1Restoration_1_Repair&#45;&gt;Runway_runwayStateMachineClosedRestorationRestoration_1Restoration_1_InspectRepairs -->
<g id="edge16" class="edge">
<title>Runway_runwayStateMachineClosedRestorationRestoration_1Restoration_1_Repair&#45;&gt;Runway_runwayStateMachineClosedRestorationRestoration_1Restoration_1_InspectRepairs</title>
<g id="a_edge16"><a xlink:title="From Closed.Restoration_1.Restoration_1.Repair to Closed.Restoration_1.Restoration_1.InspectRepairs on repairCompleted">
<path fill="none" stroke="#000000" d="M343.7878,-650.7701C305.3218,-641.1658 250,-623.7911 250,-603.3 250,-603.3 250,-603.3 250,-285 250,-259.0416 269.7977,-237.7302 289.8178,-222.8158"/>
<polygon fill="#000000" stroke="#000000" points="291.8902,-225.6372 298.0542,-217.02 287.8618,-219.9124 291.8902,-225.6372"/>
</a>
</g>
<text text-anchor="middle" x="297.0381" y="-465.6" font-family="Times,serif" font-size="14.00" fill="#000000">repairCompleted</text>
</g>
<!-- Runway_runwayStateMachineClosedRestorationRestoration_1Restoration_1_InspectRepairs&#45;&gt;Runway_runwayStateMachineClosed_ReadyToOpen -->
<g id="edge11" class="edge">
<title>Runway_runwayStateMachineClosedRestorationRestoration_1Restoration_1_InspectRepairs&#45;&gt;Runway_runwayStateMachineClosed_ReadyToOpen</title>
<g id="a_edge11"><a xlink:title="From Closed.Restoration_1.Restoration_1.InspectRepairs to Closed.ReadyToOpen on check&#13;Guard: &#160;[inspectionSuccess]">
<path fill="none" stroke="#000000" d="M331,-180.7117C331,-152.0169 331,-96.1996 331,-62.2947"/>
<polygon fill="#000000" stroke="#000000" points="334.5001,-62.1187 331,-52.1188 327.5001,-62.1188 334.5001,-62.1187"/>
</a>
</g>
<text text-anchor="middle" x="404.6675" y="-102.8" font-family="Times,serif" font-size="14.00" fill="#000000">check [inspectionSuccess]</text>
</g>
<!-- Runway_runwayStateMachineClosedRestorationRestoration_1Restoration_1_InspectRepairs&#45;&gt;Runway_runwayStateMachineClosedRestorationRestoration_1Restoration_1_Repair -->
<g id="edge15" class="edge">
<title>Runway_runwayStateMachineClosedRestorationRestoration_1Restoration_1_InspectRepairs&#45;&gt;Runway_runwayStateMachineClosedRestorationRestoration_1Restoration_1_Repair</title>
<g id="a_edge15"><a xlink:title="From Closed.Restoration_1.Restoration_1.InspectRepairs to Closed.Restoration_1.Restoration_1.Repair on check&#13;Guard: &#160;[!inspectionSuccess]">
<path fill="none" stroke="#000000" d="M348.6901,-217.1157C362.7256,-233.4594 380,-258.8803 380,-285 380,-603.3 380,-603.3 380,-603.3 380,-612.0682 380,-621.6157 380,-630.2804"/>
<polygon fill="#000000" stroke="#000000" points="376.5001,-630.3 380,-640.3 383.5001,-630.3 376.5001,-630.3"/>
</a>
</g>
<text text-anchor="middle" x="455.9985" y="-465.6" font-family="Times,serif" font-size="14.00" fill="#000000">check [!inspectionSuccess]</text>
</g>
<!-- start_Runway_Restoration_2 -->
<g id="node11" class="node">
<title>start_Runway_Restoration_2</title>
<g id="a_node11"><a xlink:title="Class Runway, SM runwayStateMachine, State Closed.Restoration_2.Restoration_2.start">
<ellipse fill="#000000" stroke="#000000" cx="164" cy="-987" rx="7.2" ry="7.2"/>
</a>
</g>
</g>
<!-- Runway_runwayStateMachineClosedRestorationRestoration_2Restoration_2_Maintenance -->
<g id="node12" class="node">
<title>Runway_runwayStateMachineClosedRestorationRestoration_2Restoration_2_Maintenance</title>
<g id="a_node12"><a xlink:title="Class Runway, SM runwayStateMachine, State Closed.Restoration_2.Restoration_2.Maintenance&#13;Activity:&#10; &#160;&#160;performMaintenanceWork();">
<path fill="none" stroke="#000000" d="M196.2974,-676.8C196.2974,-676.8 131.7026,-676.8 131.7026,-676.8 125.7026,-676.8 119.7026,-670.8 119.7026,-664.8 119.7026,-664.8 119.7026,-652.8 119.7026,-652.8 119.7026,-646.8 125.7026,-640.8 131.7026,-640.8 131.7026,-640.8 196.2974,-640.8 196.2974,-640.8 202.2974,-640.8 208.2974,-646.8 208.2974,-652.8 208.2974,-652.8 208.2974,-664.8 208.2974,-664.8 208.2974,-670.8 202.2974,-676.8 196.2974,-676.8"/>
<text text-anchor="middle" x="164" y="-654.6" font-family="Times,serif" font-size="14.00" fill="#000000">Maintenance</text>
</a>
</g>
</g>
<!-- start_Runway_Restoration_2&#45;&gt;Runway_runwayStateMachineClosedRestorationRestoration_2Restoration_2_Maintenance -->
<g id="edge17" class="edge">
<title>start_Runway_Restoration_2&#45;&gt;Runway_runwayStateMachineClosedRestorationRestoration_2Restoration_2_Maintenance</title>
<g id="a_edge17"><a xlink:title="start to Closed.Restoration_2.Restoration_2">
<path fill="none" stroke="#000000" d="M158.4519,-982.039C155,-973.7906 155,-956.7344 155,-942.3 155,-942.3 155,-942.3 155,-714.3 155,-705.5318 155,-695.9843 155.4042,-687.3196"/>
<polygon fill="#000000" stroke="#000000" points="158.8984,-687.5254 156.125,-677.3 151.9164,-687.0231 158.8984,-687.5254"/>
</a>
</g>
</g>
<!-- start_Runway_Restoration_2&#45;&gt;Runway_runwayStateMachineClosedRestorationRestoration_2Restoration_2_Maintenance -->
<g id="edge18" class="edge">
<title>start_Runway_Restoration_2&#45;&gt;Runway_runwayStateMachineClosedRestorationRestoration_2Restoration_2_Maintenance</title>
<g id="a_edge18"><a xlink:title="start to Closed.Restoration_2.Restoration_2.Maintenance">
<path fill="none" stroke="#000000" d="M169.5481,-982.039C173,-973.7906 173,-956.7344 173,-942.3 173,-942.3 173,-942.3 173,-714.3 173,-705.5318 173,-695.9843 172.5958,-687.3196"/>
<polygon fill="#000000" stroke="#000000" points="176.0836,-687.0231 171.875,-677.3 169.1016,-687.5254 176.0836,-687.0231"/>
</a>
</g>
</g>
</g>
</svg>
