<?xml version="1.0" encoding="UTF-8" standalone="no"?>
<!DOCTYPE svg PUBLIC "-//W3C//DTD SVG 1.1//EN"
 "http://www.w3.org/Graphics/SVG/1.1/DTD/svg11.dtd">
<!-- Generated by graphviz version 2.39.20140502.0445 (20140502.0445)
 -->
<!-- Title: Runway Pages: 1 -->
<svg width="1036pt" height="429pt"
 viewBox="0.00 0.00 1036.20 429.40" xmlns="http://www.w3.org/2000/svg" xmlns:xlink="http://www.w3.org/1999/xlink">
<g id="graph0" class="graph" transform="scale(1 1) rotate(0) translate(4 425.4)">
<title>Runway</title>
<polygon fill="white" stroke="none" points="-4,4 -4,-425.4 1032.2,-425.4 1032.2,4 -4,4"/>
<g id="clust1" class="cluster"><title>clusterRunway_runwayStateMachine_Open</title>
<path fill="none" stroke="black" d="M34.2,-101C34.2,-101 461.2,-101 461.2,-101 467.2,-101 473.2,-107 473.2,-113 473.2,-113 473.2,-339.4 473.2,-339.4 473.2,-345.4 467.2,-351.4 461.2,-351.4 461.2,-351.4 34.2,-351.4 34.2,-351.4 28.2,-351.4 22.2,-345.4 22.2,-339.4 22.2,-339.4 22.2,-113 22.2,-113 22.2,-107 28.2,-101 34.2,-101"/>
<text text-anchor="middle" x="247.7" y="-336.2" font-family="Times,serif" font-size="14.00">Open</text>
</g>
<g id="clust2" class="cluster"><title>clusterRunway_runwayStateMachine_Closed</title>
<path fill="none" stroke="black" d="M493.2,-8C493.2,-8 1008.2,-8 1008.2,-8 1014.2,-8 1020.2,-14 1020.2,-20 1020.2,-20 1020.2,-401.4 1020.2,-401.4 1020.2,-407.4 1014.2,-413.4 1008.2,-413.4 1008.2,-413.4 493.2,-413.4 493.2,-413.4 487.2,-413.4 481.2,-407.4 481.2,-401.4 481.2,-401.4 481.2,-20 481.2,-20 481.2,-14 487.2,-8 493.2,-8"/>
<text text-anchor="middle" x="750.7" y="-398.2" font-family="Times,serif" font-size="14.00">Closed</text>
</g>
<g id="clust3" class="cluster"><title>clusterRunway_runwayStateMachineClosed_Restoration</title>
<path fill="none" stroke="black" d="M589.2,-93C589.2,-93 1000.2,-93 1000.2,-93 1006.2,-93 1012.2,-99 1012.2,-105 1012.2,-105 1012.2,-370.4 1012.2,-370.4 1012.2,-376.4 1006.2,-382.4 1000.2,-382.4 1000.2,-382.4 589.2,-382.4 589.2,-382.4 583.2,-382.4 577.2,-376.4 577.2,-370.4 577.2,-370.4 577.2,-105 577.2,-105 577.2,-99 583.2,-93 589.2,-93"/>
<text text-anchor="middle" x="794.7" y="-367.2" font-family="Times,serif" font-size="14.00">Restoration</text>
</g>
<g id="clust4" class="cluster"><title>clusterRunway_runwayStateMachineClosedRestoration_1_Restoration_1</title>
<path fill="none" stroke="black" d="M711.2,-101C711.2,-101 992.2,-101 992.2,-101 998.2,-101 1004.2,-107 1004.2,-113 1004.2,-113 1004.2,-339.4 1004.2,-339.4 1004.2,-345.4 998.2,-351.4 992.2,-351.4 992.2,-351.4 711.2,-351.4 711.2,-351.4 705.2,-351.4 699.2,-345.4 699.2,-339.4 699.2,-339.4 699.2,-113 699.2,-113 699.2,-107 705.2,-101 711.2,-101"/>
<text text-anchor="middle" x="851.7" y="-336.2" font-family="Times,serif" font-size="14.00">Restoration_1</text>
</g>
<g id="clust5" class="cluster"><title>clusterRunway_runwayStateMachineClosedRestoration_2_Restoration_2</title>
<path fill="none" stroke="black" d="M597.2,-188C597.2,-188 679.2,-188 679.2,-188 685.2,-188 691.2,-194 691.2,-200 691.2,-200 691.2,-339.4 691.2,-339.4 691.2,-345.4 685.2,-351.4 679.2,-351.4 679.2,-351.4 597.2,-351.4 597.2,-351.4 591.2,-351.4 585.2,-345.4 585.2,-339.4 585.2,-339.4 585.2,-200 585.2,-200 585.2,-194 591.2,-188 597.2,-188"/>
<text text-anchor="middle" x="638.2" y="-336.2" font-family="Times,serif" font-size="14.00">Restoration_2</text>
</g>
<!-- start_Runway_runwayStateMachine -->
<g id="node1" class="node"><title>start_Runway_runwayStateMachine</title>
<ellipse fill="black" stroke="black" cx="7.2" cy="-290.2" rx="7.2" ry="7.2"/>
</g>
<!-- Runway_runwayStateMachineOpen_Free -->
<g id="node3" class="node"><title>Runway_runwayStateMachineOpen_Free</title>
<path fill="none" stroke="black" d="M285.2,-232C285.2,-232 237.2,-232 237.2,-232 231.2,-232 225.2,-226 225.2,-220 225.2,-220 225.2,-208 225.2,-208 225.2,-202 231.2,-196 237.2,-196 237.2,-196 285.2,-196 285.2,-196 291.2,-196 297.2,-202 297.2,-208 297.2,-208 297.2,-220 297.2,-220 297.2,-226 291.2,-232 285.2,-232"/>
<text text-anchor="middle" x="261.2" y="-210.3" font-family="Times,serif" font-size="14.00">Free</text>
</g>
<!-- start_Runway_runwayStateMachine&#45;&gt;Runway_runwayStateMachineOpen_Free -->
<g id="edge1" class="edge"><title>start_Runway_runwayStateMachine&#45;&gt;Runway_runwayStateMachineOpen_Free</title>
<g id="a_edge1"><a xlink:title="start &#160;&#45;&gt; Open">
<path fill="none" stroke="black" d="M12.8919,-285.649C12.9962,-285.59 13.1013,-285.53 13.2081,-285.471"/>
<polygon fill="black" stroke="black" points="14.8426,-288.572 22.4901,-281.24 11.9391,-282.203 14.8426,-288.572"/>
</a>
</g>
</g>
<!-- start_Runway_Open -->
<g id="node2" class="node"><title>start_Runway_Open</title>
<ellipse fill="black" stroke="black" cx="261.2" cy="-290.2" rx="7.2" ry="7.2"/>
</g>
<!-- start_Runway_Open&#45;&gt;Runway_runwayStateMachineOpen_Free -->
<g id="edge3" class="edge"><title>start_Runway_Open&#45;&gt;Runway_runwayStateMachineOpen_Free</title>
<g id="a_edge3"><a xlink:title="start &#160;&#45;&gt; Free">
<path fill="none" stroke="black" d="M261.2,-282.874C261.2,-273.906 261.2,-256.948 261.2,-242.227"/>
<polygon fill="black" stroke="black" points="264.7,-242.049 261.2,-232.049 257.7,-242.049 264.7,-242.049"/>
</a>
</g>
</g>
<!-- Runway_runwayStateMachineOpen_Occupied -->
<g id="node4" class="node"><title>Runway_runwayStateMachineOpen_Occupied</title>
<path fill="none" stroke="black" d="M263.2,-145C263.2,-145 215.2,-145 215.2,-145 209.2,-145 203.2,-139 203.2,-133 203.2,-133 203.2,-121 203.2,-121 203.2,-115 209.2,-109 215.2,-109 215.2,-109 263.2,-109 263.2,-109 269.2,-109 275.2,-115 275.2,-121 275.2,-121 275.2,-133 275.2,-133 275.2,-139 269.2,-145 263.2,-145"/>
<text text-anchor="middle" x="239.2" y="-123.3" font-family="Times,serif" font-size="14.00">Occupied</text>
</g>
<!-- Runway_runwayStateMachineOpen_Free&#45;&gt;Runway_runwayStateMachineOpen_Occupied -->
<g id="edge6" class="edge"><title>Runway_runwayStateMachineOpen_Free&#45;&gt;Runway_runwayStateMachineOpen_Occupied</title>
<g id="a_edge6"><a xlink:title="Free planeLanding &#45;&gt; Occupied">
<path fill="none" stroke="black" d="M192.995,-139.663 184.763,-141.569 176.248,-143.431 168.2,-145 33.5621,-171.252 22.1214,-146.084 49.2,-178 71.3429,-204.098 170.667,-210.765 225.149,-212.448"/>
<polygon fill="black" stroke="black" points="193.92,-143.041 202.845,-137.332 192.308,-136.229 193.92,-143.041"/>
</a>
</g>
<text text-anchor="middle" x="87.7" y="-166.8" font-family="Times,serif" font-size="14.00">planeLanding</text>
</g>
<!-- Runway_runwayStateMachineOpen_Free&#45;&gt;Runway_runwayStateMachineOpen_Occupied -->
<g id="edge7" class="edge"><title>Runway_runwayStateMachineOpen_Free&#45;&gt;Runway_runwayStateMachineOpen_Occupied</title>
<g id="a_edge7"><a xlink:title="Free planeTakingOff &#45;&gt; Occupied">
<path fill="none" stroke="black" d="M193.393,-137.97 166.978,-145.964 141.474,-159.013 155.2,-178 171.039,-199.91 201.091,-208.334 225.164,-211.464"/>
<polygon fill="black" stroke="black" points="194.41,-141.32 203.095,-135.252 192.522,-134.58 194.41,-141.32"/>
</a>
</g>
<text text-anchor="middle" x="200.2" y="-166.8" font-family="Times,serif" font-size="14.00">planeTakingOff</text>
</g>
<!-- Runway_runwayStateMachineClosed_Emergency -->
<g id="node6" class="node"><title>Runway_runwayStateMachineClosed_Emergency</title>
<path fill="none" stroke="black" d="M557.2,-145C557.2,-145 501.2,-145 501.2,-145 495.2,-145 489.2,-139 489.2,-133 489.2,-133 489.2,-121 489.2,-121 489.2,-115 495.2,-109 501.2,-109 501.2,-109 557.2,-109 557.2,-109 563.2,-109 569.2,-115 569.2,-121 569.2,-121 569.2,-133 569.2,-133 569.2,-139 563.2,-145 557.2,-145"/>
<text text-anchor="middle" x="529.2" y="-123.3" font-family="Times,serif" font-size="14.00">Emergency</text>
</g>
<!-- Runway_runwayStateMachineOpen_Free&#45;&gt;Runway_runwayStateMachineClosed_Emergency -->
<g id="edge9" class="edge"><title>Runway_runwayStateMachineOpen_Free&#45;&gt;Runway_runwayStateMachineClosed_Emergency</title>
<g id="a_edge9"><a xlink:title="Open alarm &#45;&gt; Emergency">
<path fill="none" stroke="black" d="M473.185,-164.937C481.731,-160.301 489.907,-155.346 497.243,-150.62"/>
<polygon fill="black" stroke="black" points="499.3,-153.455 505.715,-145.024 495.442,-147.614 499.3,-153.455"/>
</a>
</g>
<text text-anchor="middle" x="493.2" y="-166.8" font-family="Times,serif" font-size="14.00">alarm</text>
</g>
<!-- Runway_runwayStateMachineClosedRestoration_1Restoration_1_Repair -->
<g id="node9" class="node"><title>Runway_runwayStateMachineClosedRestoration_1Restoration_1_Repair</title>
<path fill="none" stroke="black" d="M767.2,-232C767.2,-232 719.2,-232 719.2,-232 713.2,-232 707.2,-226 707.2,-220 707.2,-220 707.2,-208 707.2,-208 707.2,-202 713.2,-196 719.2,-196 719.2,-196 767.2,-196 767.2,-196 773.2,-196 779.2,-202 779.2,-208 779.2,-208 779.2,-220 779.2,-220 779.2,-226 773.2,-232 767.2,-232"/>
<text text-anchor="middle" x="743.2" y="-210.3" font-family="Times,serif" font-size="14.00">Repair</text>
</g>
<!-- Runway_runwayStateMachineOpen_Free&#45;&gt;Runway_runwayStateMachineClosedRestoration_1Restoration_1_Repair -->
<g id="edge12" class="edge"><title>Runway_runwayStateMachineOpen_Free&#45;&gt;Runway_runwayStateMachineClosedRestoration_1Restoration_1_Repair</title>
<g id="a_edge12"><a xlink:title="Free repair &#45;&gt; Restoration">
<path fill="none" stroke="black" d="M297.213,-226.914C330.744,-238.209 382.376,-253.755 428.7,-260 451.46,-263.068 508.292,-259.876 567.66,-253.059"/>
<polygon fill="black" stroke="black" points="568.073,-256.534 577.594,-251.887 567.253,-249.583 568.073,-256.534"/>
</a>
</g>
<text text-anchor="middle" x="445.2" y="-253.8" font-family="Times,serif" font-size="14.00">repair</text>
</g>
<!-- Runway_runwayStateMachineOpen_Occupied&#45;&gt;Runway_runwayStateMachineOpen_Free -->
<g id="edge4" class="edge"><title>Runway_runwayStateMachineOpen_Occupied&#45;&gt;Runway_runwayStateMachineOpen_Free</title>
<g id="a_edge4"><a xlink:title="Occupied planeTakesOff &#45;&gt; Free">
<path fill="none" stroke="black" d="M243.645,-145.175C246.656,-156.806 250.697,-172.419 254.143,-185.734"/>
<polygon fill="black" stroke="black" points="250.854,-186.995 256.748,-195.799 257.631,-185.241 250.854,-186.995"/>
</a>
</g>
<text text-anchor="middle" x="294.2" y="-166.8" font-family="Times,serif" font-size="14.00">planeTakesOff</text>
</g>
<!-- Runway_runwayStateMachineOpen_Occupied&#45;&gt;Runway_runwayStateMachineOpen_Free -->
<g id="edge5" class="edge"><title>Runway_runwayStateMachineOpen_Occupied&#45;&gt;Runway_runwayStateMachineOpen_Free</title>
<g id="a_edge5"><a xlink:title="Occupied landingComplete &#45;&gt; Free">
<path fill="none" stroke="black" d="M275.324,-130.308C297.974,-133.846 325.564,-142.439 340.2,-163 352.747,-180.628 330.807,-193.455 306.893,-201.701"/>
<polygon fill="black" stroke="black" points="305.807,-198.373 297.341,-204.743 307.932,-205.043 305.807,-198.373"/>
</a>
</g>
<text text-anchor="middle" x="392.7" y="-166.8" font-family="Times,serif" font-size="14.00">landingComplete</text>
</g>
<!-- start_Runway_Closed -->
<g id="node5" class="node"><title>start_Runway_Closed</title>
<ellipse fill="black" stroke="black" cx="529.2" cy="-214" rx="7.2" ry="7.2"/>
</g>
<!-- start_Runway_Closed&#45;&gt;Runway_runwayStateMachineClosed_Emergency -->
<g id="edge8" class="edge"><title>start_Runway_Closed&#45;&gt;Runway_runwayStateMachineClosed_Emergency</title>
<g id="a_edge8"><a xlink:title="start &#160;&#45;&gt; Emergency">
<path fill="none" stroke="black" d="M529.2,-206.611C529.2,-195.831 529.2,-173.432 529.2,-155.291"/>
<polygon fill="black" stroke="black" points="532.7,-155.222 529.2,-145.222 525.7,-155.222 532.7,-155.222"/>
</a>
</g>
</g>
<!-- Runway_runwayStateMachineClosed_ReadyToOpen -->
<g id="node7" class="node"><title>Runway_runwayStateMachineClosed_ReadyToOpen</title>
<path fill="none" stroke="black" d="M575.2,-52C575.2,-52 501.2,-52 501.2,-52 495.2,-52 489.2,-46 489.2,-40 489.2,-40 489.2,-28 489.2,-28 489.2,-22 495.2,-16 501.2,-16 501.2,-16 575.2,-16 575.2,-16 581.2,-16 587.2,-22 587.2,-28 587.2,-28 587.2,-40 587.2,-40 587.2,-46 581.2,-52 575.2,-52"/>
<text text-anchor="middle" x="538.2" y="-30.3" font-family="Times,serif" font-size="14.00">ReadyToOpen</text>
</g>
<!-- Runway_runwayStateMachineClosed_Emergency&#45;&gt;Runway_runwayStateMachineClosed_ReadyToOpen -->
<g id="edge10" class="edge"><title>Runway_runwayStateMachineClosed_Emergency&#45;&gt;Runway_runwayStateMachineClosed_ReadyToOpen</title>
<g id="a_edge10"><a xlink:title="Emergency emergencyOver &#45;&gt; ReadyToOpen">
<path fill="none" stroke="black" d="M530.893,-108.884C532.188,-95.7918 533.999,-77.4802 535.494,-62.3627"/>
<polygon fill="black" stroke="black" points="539.013,-62.3356 536.515,-52.0397 532.047,-61.6466 539.013,-62.3356"/>
</a>
</g>
<text text-anchor="middle" x="580.2" y="-73.8" font-family="Times,serif" font-size="14.00">emergencyOver</text>
</g>
<!-- Runway_runwayStateMachineClosed_ReadyToOpen&#45;&gt;Runway_runwayStateMachineOpen_Free -->
<g id="edge2" class="edge"><title>Runway_runwayStateMachineClosed_ReadyToOpen&#45;&gt;Runway_runwayStateMachineOpen_Free</title>
<g id="a_edge2"><a xlink:title="ReadyToOpen open [noPlaneOnRunway] &#45;&gt; Open">
<path fill="none" stroke="black" d="M44.3889,-93.7829 44.6573,-93.5229 44.9277,-93.262 45.2,-93 76.8364,-62.5666 370.407,-43.8366 488.926,-37.4588"/>
<polygon fill="black" stroke="black" points="41.7246,-91.4978 37.1387,-101.049 46.6797,-96.4422 41.7246,-91.4978"/>
</a>
</g>
<text text-anchor="middle" x="119.7" y="-123.3" font-family="Times,serif" font-size="14.00">open [noPlaneOnRunway]</text>
</g>
<!-- start_Runway_Restoration_1 -->
<g id="node8" class="node"><title>start_Runway_Restoration_1</title>
<ellipse fill="black" stroke="black" cx="743.2" cy="-290.2" rx="7.2" ry="7.2"/>
</g>
<!-- start_Runway_Restoration_1&#45;&gt;Runway_runwayStateMachineClosedRestoration_1Restoration_1_Repair -->
<g id="edge13" class="edge"><title>start_Runway_Restoration_1&#45;&gt;Runway_runwayStateMachineClosedRestoration_1Restoration_1_Repair</title>
<g id="a_edge13"><a xlink:title="start &#160;&#45;&gt; Restoration_1">
<path fill="none" stroke="black" d="M736.662,-242.346 735.985,-257.601 736.93,-275.224 739.497,-283.864"/>
<polygon fill="black" stroke="black" points="740.158,-242.53 737.389,-232.303 733.176,-242.024 740.158,-242.53"/>
</a>
</g>
</g>
<!-- start_Runway_Restoration_1&#45;&gt;Runway_runwayStateMachineClosedRestoration_1Restoration_1_Repair -->
<g id="edge14" class="edge"><title>start_Runway_Restoration_1&#45;&gt;Runway_runwayStateMachineClosedRestoration_1Restoration_1_Repair</title>
<g id="a_edge14"><a xlink:title="start &#160;&#45;&gt; Repair">
<path fill="none" stroke="black" d="M746.903,-283.864C749.47,-275.224 750.415,-257.601 749.738,-242.346"/>
<polygon fill="black" stroke="black" points="753.224,-242.024 749.011,-232.303 746.242,-242.53 753.224,-242.024"/>
</a>
</g>
</g>
<!-- Runway_runwayStateMachineClosedRestoration_1Restoration_1_InspectRepairs -->
<g id="node10" class="node"><title>Runway_runwayStateMachineClosedRestoration_1Restoration_1_InspectRepairs</title>
<path fill="none" stroke="black" d="M795.2,-145C795.2,-145 719.2,-145 719.2,-145 713.2,-145 707.2,-139 707.2,-133 707.2,-133 707.2,-121 707.2,-121 707.2,-115 713.2,-109 719.2,-109 719.2,-109 795.2,-109 795.2,-109 801.2,-109 807.2,-115 807.2,-121 807.2,-121 807.2,-133 807.2,-133 807.2,-139 801.2,-145 795.2,-145"/>
<text text-anchor="middle" x="757.2" y="-123.3" font-family="Times,serif" font-size="14.00">InspectRepairs</text>
</g>
<!-- Runway_runwayStateMachineClosedRestoration_1Restoration_1_Repair&#45;&gt;Runway_runwayStateMachineClosedRestoration_1Restoration_1_InspectRepairs -->
<g id="edge16" class="edge"><title>Runway_runwayStateMachineClosedRestoration_1Restoration_1_Repair&#45;&gt;Runway_runwayStateMachineClosedRestoration_1Restoration_1_InspectRepairs</title>
<g id="a_edge16"><a xlink:title="Repair repairCompleted &#45;&gt; InspectRepairs">
<path fill="none" stroke="black" d="M728.021,-152.934 725.687,-156.086 723.668,-159.457 722.2,-163 717.66,-173.96 722.677,-186.244 728.942,-195.893"/>
<polygon fill="black" stroke="black" points="730.873,-154.988 734.773,-145.137 725.581,-150.405 730.873,-154.988"/>
</a>
</g>
<text text-anchor="middle" x="769.7" y="-166.8" font-family="Times,serif" font-size="14.00">repairCompleted</text>
</g>
<!-- Runway_runwayStateMachineClosedRestoration_1Restoration_1_InspectRepairs&#45;&gt;Runway_runwayStateMachineClosed_ReadyToOpen -->
<g id="edge11" class="edge"><title>Runway_runwayStateMachineClosedRestoration_1Restoration_1_InspectRepairs&#45;&gt;Runway_runwayStateMachineClosed_ReadyToOpen</title>
<g id="a_edge11"><a xlink:title="InspectRepairs check [inspectionSuccess] &#45;&gt; ReadyToOpen">
<path fill="none" stroke="black" d="M596.967,-52.3273 629.022,-62.5997 669.021,-76.7715 703.2,-93 712.827,-97.5711 722.912,-103.416 731.725,-108.913"/>
<polygon fill="black" stroke="black" points="597.879,-48.945 587.289,-49.2666 595.768,-55.6191 597.879,-48.945"/>
</a>
</g>
<text text-anchor="middle" x="756.2" y="-73.8" font-family="Times,serif" font-size="14.00">check [inspectionSuccess]</text>
</g>
<!-- Runway_runwayStateMachineClosedRestoration_1Restoration_1_InspectRepairs&#45;&gt;Runway_runwayStateMachineClosedRestoration_1Restoration_1_Repair -->
<g id="edge15" class="edge"><title>Runway_runwayStateMachineClosedRestoration_1Restoration_1_InspectRepairs&#45;&gt;Runway_runwayStateMachineClosedRestoration_1Restoration_1_Repair</title>
<g id="a_edge15"><a xlink:title="InspectRepairs check [!inspectionSuccess] &#45;&gt; Repair">
<path fill="none" stroke="black" d="M788.904,-202.499 801.503,-197.281 813.744,-189.517 821.2,-178 829.782,-164.743 818.604,-153.516 803.315,-145.08"/>
<polygon fill="black" stroke="black" points="787.468,-199.298 779.274,-206.014 789.868,-205.873 787.468,-199.298"/>
</a>
</g>
<text text-anchor="middle" x="899.7" y="-166.8" font-family="Times,serif" font-size="14.00">check [!inspectionSuccess]</text>
</g>
<!-- start_Runway_Restoration_2 -->
<g id="node11" class="node"><title>start_Runway_Restoration_2</title>
<ellipse fill="black" stroke="black" cx="638.2" cy="-290.2" rx="7.2" ry="7.2"/>
</g>
<!-- Runway_runwayStateMachineClosedRestoration_2Restoration_2_Maintenance -->
<g id="node12" class="node"><title>Runway_runwayStateMachineClosedRestoration_2Restoration_2_Maintenance</title>
<path fill="none" stroke="black" d="M670.7,-232C670.7,-232 605.7,-232 605.7,-232 599.7,-232 593.7,-226 593.7,-220 593.7,-220 593.7,-208 593.7,-208 593.7,-202 599.7,-196 605.7,-196 605.7,-196 670.7,-196 670.7,-196 676.7,-196 682.7,-202 682.7,-208 682.7,-208 682.7,-220 682.7,-220 682.7,-226 676.7,-232 670.7,-232"/>
<text text-anchor="middle" x="638.2" y="-210.3" font-family="Times,serif" font-size="14.00">Maintenance</text>
</g>
<!-- start_Runway_Restoration_2&#45;&gt;Runway_runwayStateMachineClosedRestoration_2Restoration_2_Maintenance -->
<g id="edge17" class="edge"><title>start_Runway_Restoration_2&#45;&gt;Runway_runwayStateMachineClosedRestoration_2Restoration_2_Maintenance</title>
<g id="a_edge17"><a xlink:title="start &#160;&#45;&gt; Restoration_2">
<path fill="none" stroke="black" d="M631.662,-242.346 630.985,-257.601 631.93,-275.224 634.497,-283.864"/>
<polygon fill="black" stroke="black" points="635.158,-242.53 632.389,-232.303 628.176,-242.024 635.158,-242.53"/>
</a>
</g>
</g>
<!-- start_Runway_Restoration_2&#45;&gt;Runway_runwayStateMachineClosedRestoration_2Restoration_2_Maintenance -->
<g id="edge18" class="edge"><title>start_Runway_Restoration_2&#45;&gt;Runway_runwayStateMachineClosedRestoration_2Restoration_2_Maintenance</title>
<g id="a_edge18"><a xlink:title="start &#160;&#45;&gt; Maintenance">
<path fill="none" stroke="black" d="M641.903,-283.864C644.47,-275.224 645.415,-257.601 644.738,-242.346"/>
<polygon fill="black" stroke="black" points="648.224,-242.024 644.011,-232.303 641.242,-242.53 648.224,-242.024"/>
</a>
</g>
</g>
</g>
</svg>
