<?xml version="1.0" encoding="UTF-8" standalone="no"?>
<!DOCTYPE svg PUBLIC "-//W3C//DTD SVG 1.1//EN"
 "http://www.w3.org/Graphics/SVG/1.1/DTD/svg11.dtd">
<!-- Generated by graphviz version 2.39.20140502.0445 (20140502.0445)
 -->
<!-- Title: SecurityLight Pages: 1 -->
<svg width="624pt" height="324pt"
 viewBox="0.00 0.00 624.20 324.40" xmlns="http://www.w3.org/2000/svg" xmlns:xlink="http://www.w3.org/1999/xlink">
<g id="graph0" class="graph" transform="scale(1 1) rotate(0) translate(4 320.4)">
<title>SecurityLight</title>
<polygon fill="white" stroke="none" points="-4,4 -4,-320.4 620.2,-320.4 620.2,4 -4,4"/>
<g id="clust1" class="cluster"><title>clusterExternalSecurityLight_externalSecurityLightStateMachine_night</title>
<path fill="none" stroke="black" d="M230.2,-8C230.2,-8 564.2,-8 564.2,-8 570.2,-8 576.2,-14 576.2,-20 576.2,-20 576.2,-296.4 576.2,-296.4 576.2,-302.4 570.2,-308.4 564.2,-308.4 564.2,-308.4 230.2,-308.4 230.2,-308.4 224.2,-308.4 218.2,-302.4 218.2,-296.4 218.2,-296.4 218.2,-20 218.2,-20 218.2,-14 224.2,-8 230.2,-8"/>
<text text-anchor="middle" x="397.2" y="-293.2" font-family="Times,serif" font-size="14.00">night</text>
</g>
<!-- start_ExternalSecurityLight_externalSecurityLightStateMachine -->
<g id="node1" class="node"><title>start_ExternalSecurityLight_externalSecurityLightStateMachine</title>
<ellipse fill="black" stroke="black" cx="7.2" cy="-208" rx="7.2" ry="7.2"/>
</g>
<!-- ExternalSecurityLight_externalSecurityLightStateMachine_day -->
<g id="node2" class="node"><title>ExternalSecurityLight_externalSecurityLightStateMachine_day</title>
<path fill="none" stroke="black" d="M64.2,-139C64.2,-139 16.2,-139 16.2,-139 10.2,-139 4.2,-133 4.2,-127 4.2,-127 4.2,-115 4.2,-115 4.2,-109 10.2,-103 16.2,-103 16.2,-103 64.2,-103 64.2,-103 70.2,-103 76.2,-109 76.2,-115 76.2,-115 76.2,-127 76.2,-127 76.2,-133 70.2,-139 64.2,-139"/>
<text text-anchor="middle" x="40.2" y="-117.3" font-family="Times,serif" font-size="14.00">day</text>
</g>
<!-- start_ExternalSecurityLight_externalSecurityLightStateMachine&#45;&gt;ExternalSecurityLight_externalSecurityLightStateMachine_day -->
<g id="edge1" class="edge"><title>start_ExternalSecurityLight_externalSecurityLightStateMachine&#45;&gt;ExternalSecurityLight_externalSecurityLightStateMachine_day</title>
<g id="a_edge1"><a xlink:title="start &#160;&#45;&gt; day">
<path fill="none" stroke="black" d="M8.48792,-200.693C10.5603,-191.062 15.0358,-172.204 21.2,-157 22.3828,-154.083 23.7459,-151.096 25.1877,-148.157"/>
<polygon fill="black" stroke="black" points="28.4053,-149.556 29.9374,-139.073 22.2021,-146.313 28.4053,-149.556"/>
</a>
</g>
</g>
<!-- ExternalSecurityLight_externalSecurityLightStateMachineNight_off -->
<g id="node4" class="node"><title>ExternalSecurityLight_externalSecurityLightStateMachineNight_off</title>
<path fill="none" stroke="black" d="M286.2,-226C286.2,-226 238.2,-226 238.2,-226 232.2,-226 226.2,-220 226.2,-214 226.2,-214 226.2,-202 226.2,-202 226.2,-196 232.2,-190 238.2,-190 238.2,-190 286.2,-190 286.2,-190 292.2,-190 298.2,-196 298.2,-202 298.2,-202 298.2,-214 298.2,-214 298.2,-220 292.2,-226 286.2,-226"/>
<text text-anchor="middle" x="262.2" y="-204.3" font-family="Times,serif" font-size="14.00">off</text>
</g>
<!-- ExternalSecurityLight_externalSecurityLightStateMachine_day&#45;&gt;ExternalSecurityLight_externalSecurityLightStateMachineNight_off -->
<g id="edge4" class="edge"><title>ExternalSecurityLight_externalSecurityLightStateMachine_day&#45;&gt;ExternalSecurityLight_externalSecurityLightStateMachineNight_off</title>
<g id="a_edge4"><a xlink:title="day dark / {...} &#45;&gt; off">
<path fill="none" stroke="black" d="M36.665,-139.403C35.5577,-150.13 36.2825,-163.428 44.2,-172 66.7255,-196.388 158.576,-203.797 215.623,-206.038"/>
<polygon fill="black" stroke="black" points="215.728,-209.544 225.846,-206.399 215.975,-202.548 215.728,-209.544"/>
</a>
</g>
<text text-anchor="middle" x="74.2" y="-160.8" font-family="Times,serif" font-size="14.00">dark / {...}</text>
</g>
<!-- start_ExternalSecurityLight_night -->
<g id="node3" class="node"><title>start_ExternalSecurityLight_night</title>
<ellipse fill="black" stroke="black" cx="262.2" cy="-270.2" rx="7.2" ry="7.2"/>
</g>
<!-- start_ExternalSecurityLight_night&#45;&gt;ExternalSecurityLight_externalSecurityLightStateMachineNight_off -->
<g id="edge3" class="edge"><title>start_ExternalSecurityLight_night&#45;&gt;ExternalSecurityLight_externalSecurityLightStateMachineNight_off</title>
<g id="a_edge3"><a xlink:title="start &#160;&#45;&gt; off">
<path fill="none" stroke="black" d="M262.2,-262.758C262.2,-256.387 262.2,-246.197 262.2,-236.393"/>
<polygon fill="black" stroke="black" points="265.7,-236.105 262.2,-226.105 258.7,-236.105 265.7,-236.105"/>
</a>
</g>
</g>
<!-- ExternalSecurityLight_externalSecurityLightStateMachineNight_off&#45;&gt;ExternalSecurityLight_externalSecurityLightStateMachine_day -->
<g id="edge2" class="edge"><title>ExternalSecurityLight_externalSecurityLightStateMachineNight_off&#45;&gt;ExternalSecurityLight_externalSecurityLightStateMachine_day</title>
<g id="a_edge2"><a xlink:title="night light / lampOff(); &#45;&gt; day">
<path fill="none" stroke="black" d="M80.7113,-143.855 99.1433,-153.275 121.435,-163.951 142.2,-172 166.924,-181.583 195.384,-189.992 218.381,-196.164"/>
<polygon fill="black" stroke="black" points="82.2157,-140.692 71.7256,-139.206 78.9995,-146.91 82.2157,-140.692"/>
</a>
</g>
<text text-anchor="middle" x="191.2" y="-160.8" font-family="Times,serif" font-size="14.00">light / lampOff();</text>
</g>
<!-- ExternalSecurityLight_externalSecurityLightStateMachineNight_moving -->
<g id="node5" class="node"><title>ExternalSecurityLight_externalSecurityLightStateMachineNight_moving</title>
<path fill="none" stroke="black" d="M286.2,-139C286.2,-139 238.2,-139 238.2,-139 232.2,-139 226.2,-133 226.2,-127 226.2,-127 226.2,-115 226.2,-115 226.2,-109 232.2,-103 238.2,-103 238.2,-103 286.2,-103 286.2,-103 292.2,-103 298.2,-109 298.2,-115 298.2,-115 298.2,-127 298.2,-127 298.2,-133 292.2,-139 286.2,-139"/>
<text text-anchor="middle" x="262.2" y="-117.3" font-family="Times,serif" font-size="14.00">moving</text>
</g>
<!-- ExternalSecurityLight_externalSecurityLightStateMachineNight_off&#45;&gt;ExternalSecurityLight_externalSecurityLightStateMachineNight_moving -->
<g id="edge6" class="edge"><title>ExternalSecurityLight_externalSecurityLightStateMachineNight_off&#45;&gt;ExternalSecurityLight_externalSecurityLightStateMachineNight_moving</title>
<g id="a_edge6"><a xlink:title="off movement [getAmbientLight()==false] / lampOn(); &#45;&gt; moving">
<path fill="none" stroke="black" d="M247.839,-148.466 246.768,-151.285 245.853,-154.161 245.2,-157 242.652,-168.08 246.56,-180.157 251.269,-189.666"/>
<polygon fill="black" stroke="black" points="251.08,-149.792 251.924,-139.231 244.678,-146.961 251.08,-149.792"/>
</a>
</g>
<text text-anchor="middle" x="390.2" y="-160.8" font-family="Times,serif" font-size="14.00">movement [getAmbientLight()==false] / lampOn();</text>
</g>
<!-- ExternalSecurityLight_externalSecurityLightStateMachineNight_timing -->
<g id="node6" class="node"><title>ExternalSecurityLight_externalSecurityLightStateMachineNight_timing</title>
<path fill="none" stroke="black" d="M401.2,-52C401.2,-52 353.2,-52 353.2,-52 347.2,-52 341.2,-46 341.2,-40 341.2,-40 341.2,-28 341.2,-28 341.2,-22 347.2,-16 353.2,-16 353.2,-16 401.2,-16 401.2,-16 407.2,-16 413.2,-22 413.2,-28 413.2,-28 413.2,-40 413.2,-40 413.2,-46 407.2,-52 401.2,-52"/>
<text text-anchor="middle" x="377.2" y="-30.3" font-family="Times,serif" font-size="14.00">timing</text>
</g>
<!-- ExternalSecurityLight_externalSecurityLightStateMachineNight_moving&#45;&gt;ExternalSecurityLight_externalSecurityLightStateMachineNight_timing -->
<g id="edge8" class="edge"><title>ExternalSecurityLight_externalSecurityLightStateMachineNight_moving&#45;&gt;ExternalSecurityLight_externalSecurityLightStateMachineNight_timing</title>
<g id="a_edge8"><a xlink:title="moving noMovement / {...} &#45;&gt; timing">
<path fill="none" stroke="black" d="M246.496,-102.616C239.233,-92.4158 233.701,-79.6733 241.2,-70 252.246,-55.7509 295.923,-46.284 330.839,-40.8296"/>
<polygon fill="black" stroke="black" points="331.509,-44.2684 340.883,-39.3309 330.476,-37.3451 331.509,-44.2684"/>
</a>
</g>
<text text-anchor="middle" x="296.2" y="-73.8" font-family="Times,serif" font-size="14.00">noMovement / {...}</text>
</g>
<!-- ExternalSecurityLight_externalSecurityLightStateMachineNight_timing&#45;&gt;ExternalSecurityLight_externalSecurityLightStateMachineNight_off -->
<g id="edge5" class="edge"><title>ExternalSecurityLight_externalSecurityLightStateMachineNight_timing&#45;&gt;ExternalSecurityLight_externalSecurityLightStateMachineNight_off</title>
<g id="a_edge5"><a xlink:title="timing timeout [getAmbientLight()==true] / {...} &#45;&gt; off">
<path fill="none" stroke="black" d="M308.409,-204.358 382.349,-199.655 520.484,-188.724 535.2,-172 539.604,-166.995 539.63,-161.982 535.2,-157 489.701,-105.835 427.699,-190.165 382.2,-139 371.568,-127.044 373.132,-116.183 382.2,-103 394.877,-84.5705 416.523,-103.43 429.2,-85 437.646,-72.7208 427.004,-61.0534 413.195,-52.0823"/>
<polygon fill="black" stroke="black" points="308.184,-200.865 298.421,-204.981 308.62,-207.852 308.184,-200.865"/>
</a>
</g>
<text text-anchor="middle" x="499.2" y="-117.3" font-family="Times,serif" font-size="14.00">timeout [getAmbientLight()==true] / {...}</text>
</g>
<!-- ExternalSecurityLight_externalSecurityLightStateMachineNight_timing&#45;&gt;ExternalSecurityLight_externalSecurityLightStateMachineNight_moving -->
<g id="edge7" class="edge"><title>ExternalSecurityLight_externalSecurityLightStateMachineNight_timing&#45;&gt;ExternalSecurityLight_externalSecurityLightStateMachineNight_moving</title>
<g id="a_edge7"><a xlink:title="timing movement &#45;&gt; moving">
<path fill="none" stroke="black" d="M307.797,-103.705 330.353,-95.4945 353.213,-86.8811 355.2,-85 364.428,-76.2624 370.023,-62.9727 373.26,-52.2903"/>
<polygon fill="black" stroke="black" points="306.42,-100.481 298.21,-107.178 308.804,-107.063 306.42,-100.481"/>
</a>
</g>
<text text-anchor="middle" x="395.2" y="-73.8" font-family="Times,serif" font-size="14.00">movement</text>
</g>
</g>
</svg>
