<?xml version="1.0" encoding="UTF-8" standalone="no"?>
<!DOCTYPE svg PUBLIC "-//W3C//DTD SVG 1.1//EN"
 "http://www.w3.org/Graphics/SVG/1.1/DTD/svg11.dtd">
<!-- Generated by graphviz version 2.36.0 (20140111.2315)
 -->
<!-- Title: SpecificFlightFlat Pages: 1 -->
<svg width="629pt" height="624pt"
 viewBox="0.00 0.00 629.00 624.00" xmlns="http://www.w3.org/2000/svg" xmlns:xlink="http://www.w3.org/1999/xlink">
<g id="graph0" class="graph" transform="scale(1 1) rotate(0) translate(4 620)">
<title>SpecificFlightFlat</title>
<polygon fill="white" stroke="none" points="-4,4 -4,-620 625,-620 625,4 -4,4"/>
<!-- start_SpecificFlight_state -->
<g id="node1" class="node"><title>start_SpecificFlight_state</title>
<ellipse fill="black" stroke="black" cx="419" cy="-609" rx="7.2" ry="7.2"/>
</g>
<!-- SpecificFlight_state_planned -->
<g id="node2" class="node"><title>SpecificFlight_state_planned</title>
<path fill="none" stroke="black" d="M443,-564C443,-564 395,-564 395,-564 389,-564 383,-558 383,-552 383,-552 383,-540 383,-540 383,-534 389,-528 395,-528 395,-528 443,-528 443,-528 449,-528 455,-534 455,-540 455,-540 455,-552 455,-552 455,-558 449,-564 443,-564"/>
<text text-anchor="middle" x="419" y="-542.3" font-family="Times,serif" font-size="14.00">planned</text>
</g>
<!-- start_SpecificFlight_state&#45;&gt;SpecificFlight_state_planned -->
<g id="edge1" class="edge"><title>start_SpecificFlight_state&#45;&gt;SpecificFlight_state_planned</title>
<path fill="none" stroke="black" d="M419,-601.472C419,-594.902 419,-584.324 419,-574.229"/>
<polygon fill="black" stroke="black" points="422.5,-574.073 419,-564.073 415.5,-574.073 422.5,-574.073"/>
</g>
<!-- SpecificFlight_state_planeAssigned -->
<g id="node3" class="node"><title>SpecificFlight_state_planeAssigned</title>
<path fill="none" stroke="black" d="M456.25,-476C456.25,-476 381.75,-476 381.75,-476 375.75,-476 369.75,-470 369.75,-464 369.75,-464 369.75,-452 369.75,-452 369.75,-446 375.75,-440 381.75,-440 381.75,-440 456.25,-440 456.25,-440 462.25,-440 468.25,-446 468.25,-452 468.25,-452 468.25,-464 468.25,-464 468.25,-470 462.25,-476 456.25,-476"/>
<text text-anchor="middle" x="419" y="-454.3" font-family="Times,serif" font-size="14.00">planeAssigned</text>
</g>
<!-- SpecificFlight_state_planned&#45;&gt;SpecificFlight_state_planeAssigned -->
<g id="edge3" class="edge"><title>SpecificFlight_state_planned&#45;&gt;SpecificFlight_state_planeAssigned</title>
<path fill="none" stroke="black" d="M382.735,-535.922C369.444,-530.65 355.766,-522.487 348,-510 340.439,-497.842 348.091,-487.72 360.772,-479.783"/>
<polygon fill="black" stroke="black" points="362.631,-482.755 369.722,-474.883 359.269,-476.615 362.631,-482.755"/>
<text text-anchor="middle" x="381.5" y="-498.3" font-family="Times,serif" font-size="14.00">assignPlane</text>
</g>
<!-- SpecificFlight_state_cancelled -->
<g id="node10" class="node"><title>SpecificFlight_state_cancelled</title>
<path fill="none" stroke="black" d="M518,-388C518,-388 470,-388 470,-388 464,-388 458,-382 458,-376 458,-376 458,-364 458,-364 458,-358 464,-352 470,-352 470,-352 518,-352 518,-352 524,-352 530,-358 530,-364 530,-364 530,-376 530,-376 530,-382 524,-388 518,-388"/>
<text text-anchor="middle" x="494" y="-366.3" font-family="Times,serif" font-size="14.00">cancelled</text>
</g>
<!-- SpecificFlight_state_planned&#45;&gt;SpecificFlight_state_cancelled -->
<g id="edge17" class="edge"><title>SpecificFlight_state_planned&#45;&gt;SpecificFlight_state_cancelled</title>
<path fill="none" stroke="black" d="M455.248,-536.104C468.82,-530.842 482.9,-522.638 491,-510 512.576,-476.335 507.485,-428.035 501.204,-398.137"/>
<polygon fill="black" stroke="black" points="504.53,-396.981 498.884,-388.016 497.707,-398.546 504.53,-396.981"/>
<text text-anchor="middle" x="525" y="-454.3" font-family="Times,serif" font-size="14.00">cancel</text>
</g>
<!-- SpecificFlight_state_planeAssigned&#45;&gt;SpecificFlight_state_planned -->
<g id="edge2" class="edge"><title>SpecificFlight_state_planeAssigned&#45;&gt;SpecificFlight_state_planned</title>
<path fill="none" stroke="black" d="M419,-476.084C419,-487.861 419,-503.774 419,-517.342"/>
<polygon fill="black" stroke="black" points="415.5,-517.597 419,-527.597 422.5,-517.597 415.5,-517.597"/>
<text text-anchor="middle" x="454.5" y="-498.3" font-family="Times,serif" font-size="14.00">changePlane</text>
</g>
<!-- SpecificFlight_state_boarding -->
<g id="node5" class="node"><title>SpecificFlight_state_boarding</title>
<path fill="none" stroke="black" d="M217,-388C217,-388 169,-388 169,-388 163,-388 157,-382 157,-376 157,-376 157,-364 157,-364 157,-358 163,-352 169,-352 169,-352 217,-352 217,-352 223,-352 229,-358 229,-364 229,-364 229,-376 229,-376 229,-382 223,-388 217,-388"/>
<text text-anchor="middle" x="193" y="-366.3" font-family="Times,serif" font-size="14.00">boarding</text>
</g>
<!-- SpecificFlight_state_planeAssigned&#45;&gt;SpecificFlight_state_boarding -->
<g id="edge6" class="edge"><title>SpecificFlight_state_planeAssigned&#45;&gt;SpecificFlight_state_boarding</title>
<path fill="none" stroke="black" d="M369.602,-445.535C346.32,-439.534 318.37,-431.461 294,-422 273.009,-413.851 250.565,-402.774 232.178,-393.025"/>
<polygon fill="black" stroke="black" points="233.699,-389.869 223.233,-388.218 230.385,-396.035 233.699,-389.869"/>
<text text-anchor="middle" x="350" y="-410.3" font-family="Times,serif" font-size="14.00">readyForPassengers</text>
</g>
<!-- SpecificFlight_state_planeAssigned&#45;&gt;SpecificFlight_state_cancelled -->
<g id="edge18" class="edge"><title>SpecificFlight_state_planeAssigned&#45;&gt;SpecificFlight_state_cancelled</title>
<path fill="none" stroke="black" d="M429.773,-439.748C436.498,-429.514 445.636,-416.527 455,-406 458.231,-402.368 461.813,-398.727 465.458,-395.239"/>
<polygon fill="black" stroke="black" points="467.954,-397.698 472.936,-388.347 463.211,-392.55 467.954,-397.698"/>
<text text-anchor="middle" x="473" y="-410.3" font-family="Times,serif" font-size="14.00">cancel</text>
</g>
<!-- SpecificFlight_state_waitingForNextLeg -->
<g id="node4" class="node"><title>SpecificFlight_state_waitingForNextLeg</title>
<path fill="none" stroke="black" d="M114.25,-36C114.25,-36 11.75,-36 11.75,-36 5.75,-36 -0.25,-30 -0.25,-24 -0.25,-24 -0.25,-12 -0.25,-12 -0.25,-6 5.75,-0 11.75,-0 11.75,-0 114.25,-0 114.25,-0 120.25,-0 126.25,-6 126.25,-12 126.25,-12 126.25,-24 126.25,-24 126.25,-30 120.25,-36 114.25,-36"/>
<text text-anchor="middle" x="63" y="-14.3" font-family="Times,serif" font-size="14.00">waitingForNextLeg</text>
</g>
<!-- SpecificFlight_state_waitingForNextLeg&#45;&gt;SpecificFlight_state_boarding -->
<g id="edge7" class="edge"><title>SpecificFlight_state_waitingForNextLeg&#45;&gt;SpecificFlight_state_boarding</title>
<path fill="none" stroke="black" d="M50.6795,-36.1878C39.9162,-52.9173 26,-79.4816 26,-105 26,-283 26,-283 26,-283 26,-337.498 97.1637,-357.492 146.582,-364.807"/>
<polygon fill="black" stroke="black" points="146.385,-368.312 156.763,-366.183 147.322,-361.375 146.385,-368.312"/>
<text text-anchor="middle" x="82" y="-190.3" font-family="Times,serif" font-size="14.00">readyForPassengers</text>
</g>
<!-- SpecificFlight_state_disembarking -->
<g id="node8" class="node"><title>SpecificFlight_state_disembarking</title>
<path fill="none" stroke="black" d="M262.25,-124C262.25,-124 193.75,-124 193.75,-124 187.75,-124 181.75,-118 181.75,-112 181.75,-112 181.75,-100 181.75,-100 181.75,-94 187.75,-88 193.75,-88 193.75,-88 262.25,-88 262.25,-88 268.25,-88 274.25,-94 274.25,-100 274.25,-100 274.25,-112 274.25,-112 274.25,-118 268.25,-124 262.25,-124"/>
<text text-anchor="middle" x="228" y="-102.3" font-family="Times,serif" font-size="14.00">disembarking</text>
</g>
<!-- SpecificFlight_state_waitingForNextLeg&#45;&gt;SpecificFlight_state_disembarking -->
<g id="edge10" class="edge"><title>SpecificFlight_state_waitingForNextLeg&#45;&gt;SpecificFlight_state_disembarking</title>
<path fill="none" stroke="black" d="M126.524,-24.6638C151.118,-29.4396 178.277,-38.1538 199,-54 207.287,-60.3369 213.585,-69.7666 218.159,-78.8001"/>
<polygon fill="black" stroke="black" points="214.984,-80.2731 222.313,-87.9243 221.355,-77.3728 214.984,-80.2731"/>
<text text-anchor="middle" x="237.5" y="-58.3" font-family="Times,serif" font-size="14.00">evacuate</text>
</g>
<!-- SpecificFlight_state_closedAtGate -->
<g id="node6" class="node"><title>SpecificFlight_state_closedAtGate</title>
<path fill="none" stroke="black" d="M275.25,-300C275.25,-300 206.75,-300 206.75,-300 200.75,-300 194.75,-294 194.75,-288 194.75,-288 194.75,-276 194.75,-276 194.75,-270 200.75,-264 206.75,-264 206.75,-264 275.25,-264 275.25,-264 281.25,-264 287.25,-270 287.25,-276 287.25,-276 287.25,-288 287.25,-288 287.25,-294 281.25,-300 275.25,-300"/>
<text text-anchor="middle" x="241" y="-278.3" font-family="Times,serif" font-size="14.00">closedAtGate</text>
</g>
<!-- SpecificFlight_state_boarding&#45;&gt;SpecificFlight_state_closedAtGate -->
<g id="edge8" class="edge"><title>SpecificFlight_state_boarding&#45;&gt;SpecificFlight_state_closedAtGate</title>
<path fill="none" stroke="black" d="M202.714,-351.597C209.524,-339.394 218.749,-322.867 226.436,-309.093"/>
<polygon fill="black" stroke="black" points="229.647,-310.522 231.465,-300.084 223.535,-307.11 229.647,-310.522"/>
<text text-anchor="middle" x="274.5" y="-322.3" font-family="Times,serif" font-size="14.00">boardingComplete</text>
</g>
<!-- SpecificFlight_state_boarding&#45;&gt;SpecificFlight_state_disembarking -->
<g id="edge11" class="edge"><title>SpecificFlight_state_boarding&#45;&gt;SpecificFlight_state_disembarking</title>
<path fill="none" stroke="black" d="M190.529,-351.745C188.648,-337.813 186.186,-317.688 185,-300 182.918,-268.955 178.682,-260.656 184,-230 189.996,-195.434 204.811,-157.732 215.598,-133.304"/>
<polygon fill="black" stroke="black" points="218.871,-134.56 219.794,-124.006 212.49,-131.681 218.871,-134.56"/>
<text text-anchor="middle" x="208.5" y="-234.3" font-family="Times,serif" font-size="14.00">evacuate</text>
</g>
<!-- SpecificFlight_state_underway -->
<g id="node7" class="node"><title>SpecificFlight_state_underway</title>
<path fill="none" stroke="black" d="M353,-212C353,-212 305,-212 305,-212 299,-212 293,-206 293,-200 293,-200 293,-188 293,-188 293,-182 299,-176 305,-176 305,-176 353,-176 353,-176 359,-176 365,-182 365,-188 365,-188 365,-200 365,-200 365,-206 359,-212 353,-212"/>
<text text-anchor="middle" x="329" y="-190.3" font-family="Times,serif" font-size="14.00">underway</text>
</g>
<!-- SpecificFlight_state_closedAtGate&#45;&gt;SpecificFlight_state_underway -->
<g id="edge9" class="edge"><title>SpecificFlight_state_closedAtGate&#45;&gt;SpecificFlight_state_underway</title>
<path fill="none" stroke="black" d="M257.024,-263.692C266.449,-253.673 278.699,-240.923 290,-230 293.747,-226.378 297.77,-222.625 301.757,-218.98"/>
<polygon fill="black" stroke="black" points="304.224,-221.468 309.3,-212.169 299.533,-216.273 304.224,-221.468"/>
<text text-anchor="middle" x="348" y="-234.3" font-family="Times,serif" font-size="14.00">permissionToDepart</text>
</g>
<!-- SpecificFlight_state_closedAtGate&#45;&gt;SpecificFlight_state_disembarking -->
<g id="edge12" class="edge"><title>SpecificFlight_state_closedAtGate&#45;&gt;SpecificFlight_state_disembarking</title>
<path fill="none" stroke="black" d="M239.425,-263.994C238.155,-250.033 236.363,-229.744 235,-212 232.975,-185.63 231.001,-155.507 229.669,-134.308"/>
<polygon fill="black" stroke="black" points="233.149,-133.866 229.034,-124.103 226.162,-134.301 233.149,-133.866"/>
<text text-anchor="middle" x="259.5" y="-190.3" font-family="Times,serif" font-size="14.00">evacuate</text>
</g>
<!-- SpecificFlight_state_underway&#45;&gt;SpecificFlight_state_disembarking -->
<g id="edge13" class="edge"><title>SpecificFlight_state_underway&#45;&gt;SpecificFlight_state_disembarking</title>
<path fill="none" stroke="black" d="M292.992,-179.263C281.607,-173.79 269.523,-166.694 260,-158 252.404,-151.065 245.919,-141.925 240.814,-133.301"/>
<polygon fill="black" stroke="black" points="243.726,-131.336 235.828,-124.274 237.599,-134.72 243.726,-131.336"/>
<text text-anchor="middle" x="284.5" y="-146.3" font-family="Times,serif" font-size="14.00">evacuate</text>
</g>
<!-- SpecificFlight_state_underway&#45;&gt;SpecificFlight_state_disembarking -->
<g id="edge14" class="edge"><title>SpecificFlight_state_underway&#45;&gt;SpecificFlight_state_disembarking</title>
<path fill="none" stroke="black" d="M325.737,-175.535C322.921,-164.708 317.856,-151.164 309,-142 301.894,-134.647 292.987,-128.749 283.701,-124.047"/>
<polygon fill="black" stroke="black" points="284.888,-120.741 274.341,-119.734 281.958,-127.098 284.888,-120.741"/>
<text text-anchor="middle" x="356" y="-146.3" font-family="Times,serif" font-size="14.00">arriveAtGate</text>
</g>
<!-- SpecificFlight_state_disembarking&#45;&gt;SpecificFlight_state_planeAssigned -->
<g id="edge4" class="edge"><title>SpecificFlight_state_disembarking&#45;&gt;SpecificFlight_state_planeAssigned</title>
<path fill="none" stroke="black" d="M274.397,-111.85C317.722,-117.209 378.413,-127.102 397,-142 416.402,-157.551 420,-168.135 420,-193 420,-371 420,-371 420,-371 420,-390.598 419.737,-412.706 419.481,-429.599"/>
<polygon fill="black" stroke="black" points="415.977,-429.813 419.316,-439.868 422.976,-429.925 415.977,-429.813"/>
<text text-anchor="middle" x="520.5" y="-278.3" font-family="Times,serif" font-size="14.00">passengersOut [!finished&amp;&amp;empty]</text>
</g>
<!-- SpecificFlight_state_disembarking&#45;&gt;SpecificFlight_state_waitingForNextLeg -->
<g id="edge5" class="edge"><title>SpecificFlight_state_disembarking&#45;&gt;SpecificFlight_state_waitingForNextLeg</title>
<path fill="none" stroke="black" d="M181.553,-101.421C138.43,-97.0281 78.734,-87.8496 64,-70 58.6883,-63.5652 57.1511,-54.9587 57.3294,-46.6508"/>
<polygon fill="black" stroke="black" points="60.8347,-46.7645 58.3178,-36.4729 53.8675,-46.0878 60.8347,-46.7645"/>
<text text-anchor="middle" x="131.5" y="-58.3" font-family="Times,serif" font-size="14.00">passengersOut [!empty]</text>
</g>
<!-- SpecificFlight_state_disembarking&#45;&gt;SpecificFlight_state_disembarking -->
<g id="edge15" class="edge"><title>SpecificFlight_state_disembarking&#45;&gt;SpecificFlight_state_disembarking</title>
<path fill="none" stroke="black" d="M274.312,-114.028C284.546,-113.274 292,-110.598 292,-106 292,-103.126 289.088,-101.004 284.406,-99.6314"/>
<polygon fill="black" stroke="black" points="284.747,-96.1405 274.312,-97.9721 283.612,-103.048 284.747,-96.1405"/>
<text text-anchor="middle" x="316.5" y="-102.3" font-family="Times,serif" font-size="14.00">evacuate</text>
</g>
<!-- SpecificFlight_state_completed -->
<g id="node9" class="node"><title>SpecificFlight_state_completed</title>
<path fill="none" stroke="black" d="M318.25,-36C318.25,-36 267.75,-36 267.75,-36 261.75,-36 255.75,-30 255.75,-24 255.75,-24 255.75,-12 255.75,-12 255.75,-6 261.75,-0 267.75,-0 267.75,-0 318.25,-0 318.25,-0 324.25,-0 330.25,-6 330.25,-12 330.25,-12 330.25,-24 330.25,-24 330.25,-30 324.25,-36 318.25,-36"/>
<text text-anchor="middle" x="293" y="-14.3" font-family="Times,serif" font-size="14.00">completed</text>
</g>
<!-- SpecificFlight_state_disembarking&#45;&gt;SpecificFlight_state_completed -->
<g id="edge16" class="edge"><title>SpecificFlight_state_disembarking&#45;&gt;SpecificFlight_state_completed</title>
<path fill="none" stroke="black" d="M253.097,-87.931C259.516,-82.7193 266.007,-76.6029 271,-70 276.458,-62.782 280.871,-54.0026 284.271,-45.7765"/>
<polygon fill="black" stroke="black" points="287.645,-46.7503 287.919,-36.159 281.1,-44.2677 287.645,-46.7503"/>
<text text-anchor="middle" x="379" y="-58.3" font-family="Times,serif" font-size="14.00">passengersOut [finished&amp;&amp;empty]</text>
</g>
</g>
</svg>
