<?xml version="1.0" encoding="UTF-8" standalone="no"?>
<!DOCTYPE svg PUBLIC "-//W3C//DTD SVG 1.1//EN"
 "http://www.w3.org/Graphics/SVG/1.1/DTD/svg11.dtd">
<!-- Generated by graphviz version 2.29.20121108.1600 (20121108.1600)
 -->
<!-- Title: SpecificFlight Pages: 1 -->
<svg width="799pt" height="676pt"
 viewBox="0.00 0.00 798.97 676.00" xmlns="http://www.w3.org/2000/svg" xmlns:xlink="http://www.w3.org/1999/xlink">
<g id="graph0" class="graph" transform="scale(1 1) rotate(0) translate(4 672)">
<title>SpecificFlight</title>
<polygon fill="white" stroke="white" points="-4,5 -4,-672 795.973,-672 795.973,5 -4,5"/>
<g id="clust1" class="cluster"><title>clusterSpecificFlight_state_activeWithPassengers</title>
<path fill="none" stroke="black" d="M90,-172C90,-172 429,-172 429,-172 435,-172 441,-178 441,-184 441,-184 441,-648 441,-648 441,-654 435,-660 429,-660 429,-660 90,-660 90,-660 84,-660 78,-654 78,-648 78,-648 78,-184 78,-184 78,-178 84,-172 90,-172"/>
<text text-anchor="middle" x="259.5" y="-642" font-family="Times,serif" font-size="14.00">activeWithPassengers</text>
</g>
<!-- start_SpecificFlight_state -->
<g id="node1" class="node"><title>start_SpecificFlight_state</title>
<ellipse fill="black" stroke="black" cx="504" cy="-288" rx="7.2" ry="7.2"/>
</g>
<!-- SpecificFlight_state_planned -->
<g id="node2" class="node"><title>SpecificFlight_state_planned</title>
<path fill="none" stroke="black" d="M528,-216C528,-216 480,-216 480,-216 474,-216 468,-210 468,-204 468,-204 468,-192 468,-192 468,-186 474,-180 480,-180 480,-180 528,-180 528,-180 534,-180 540,-186 540,-192 540,-192 540,-204 540,-204 540,-210 534,-216 528,-216"/>
<text text-anchor="middle" x="504" y="-192.4" font-family="Times,serif" font-size="14.00">planned</text>
</g>
<!-- start_SpecificFlight_state&#45;&gt;SpecificFlight_state_planned -->
<g id="edge1" class="edge"><title>start_SpecificFlight_state&#45;&gt;SpecificFlight_state_planned</title>
<path fill="none" stroke="black" d="M504,-280.671C504,-269.484 504,-245.597 504,-226.531"/>
<polygon fill="black" stroke="black" points="507.5,-226.271 504,-216.271 500.5,-226.271 507.5,-226.271"/>
</g>
<!-- SpecificFlight_state_planeAssigned -->
<g id="node3" class="node"><title>SpecificFlight_state_planeAssigned</title>
<path fill="none" stroke="black" d="M611.321,-126C611.321,-126 536.679,-126 536.679,-126 530.679,-126 524.679,-120 524.679,-114 524.679,-114 524.679,-102 524.679,-102 524.679,-96 530.679,-90 536.679,-90 536.679,-90 611.321,-90 611.321,-90 617.321,-90 623.321,-96 623.321,-102 623.321,-102 623.321,-114 623.321,-114 623.321,-120 617.321,-126 611.321,-126"/>
<text text-anchor="middle" x="574" y="-102.4" font-family="Times,serif" font-size="14.00">planeAssigned</text>
</g>
<!-- SpecificFlight_state_planned&#45;&gt;SpecificFlight_state_planeAssigned -->
<g id="edge3" class="edge"><title>SpecificFlight_state_planned&#45;&gt;SpecificFlight_state_planeAssigned</title>
<path fill="none" stroke="black" d="M498.189,-179.973C495.509,-168.901 494.215,-154.606 500.896,-144 504.815,-137.779 510.18,-132.64 516.236,-128.399"/>
<polygon fill="black" stroke="black" points="518.129,-131.344 524.854,-123.157 514.491,-125.364 518.129,-131.344"/>
<text text-anchor="middle" x="534.052" y="-147.4" font-family="Times,serif" font-size="14.00">assignPlane</text>
</g>
<!-- SpecificFlight_state_cancelled -->
<g id="node11" class="node"><title>SpecificFlight_state_cancelled</title>
<path fill="none" stroke="black" d="M529,-36C529,-36 481,-36 481,-36 475,-36 469,-30 469,-24 469,-24 469,-12 469,-12 469,-6 475,-0 481,-0 481,-0 529,-0 529,-0 535,-0 541,-6 541,-12 541,-12 541,-24 541,-24 541,-30 535,-36 529,-36"/>
<text text-anchor="middle" x="505" y="-12.4" font-family="Times,serif" font-size="14.00">cancelled</text>
</g>
<!-- SpecificFlight_state_planned&#45;&gt;SpecificFlight_state_cancelled -->
<g id="edge14" class="edge"><title>SpecificFlight_state_planned&#45;&gt;SpecificFlight_state_cancelled</title>
<path fill="none" stroke="black" d="M496.538,-179.89C490.799,-165.75 483.346,-144.986 480.255,-126 477.684,-110.208 477.585,-105.776 480.255,-90 482.824,-74.8209 488.278,-58.5587 493.413,-45.4329"/>
<polygon fill="black" stroke="black" points="496.693,-46.6583 497.225,-36.0768 490.211,-44.0171 496.693,-46.6583"/>
<text text-anchor="middle" x="498.873" y="-102.4" font-family="Times,serif" font-size="14.00">cancel</text>
</g>
<!-- SpecificFlight_state_planeAssigned&#45;&gt;SpecificFlight_state_planned -->
<g id="edge2" class="edge"><title>SpecificFlight_state_planeAssigned&#45;&gt;SpecificFlight_state_planned</title>
<path fill="none" stroke="black" d="M577.12,-126.076C578.217,-137.168 577.795,-151.468 571,-162 565.667,-170.266 557.712,-176.693 549.129,-181.648"/>
<polygon fill="black" stroke="black" points="547.35,-178.626 540.04,-186.294 550.537,-184.859 547.35,-178.626"/>
<text text-anchor="middle" x="611.373" y="-147.4" font-family="Times,serif" font-size="14.00">changePlane</text>
</g>
<!-- SpecificFlight_stateActiveWithPassengers_boarding -->
<g id="node6" class="node"><title>SpecificFlight_stateActiveWithPassengers_boarding</title>
<path fill="none" stroke="black" d="M353,-486C353,-486 305,-486 305,-486 299,-486 293,-480 293,-474 293,-474 293,-462 293,-462 293,-456 299,-450 305,-450 305,-450 353,-450 353,-450 359,-450 365,-456 365,-462 365,-462 365,-474 365,-474 365,-480 359,-486 353,-486"/>
<text text-anchor="middle" x="329" y="-462.4" font-family="Times,serif" font-size="14.00">boarding</text>
</g>
<!-- SpecificFlight_state_planeAssigned&#45;&gt;SpecificFlight_stateActiveWithPassengers_boarding -->
<g id="edge7" class="edge"><title>SpecificFlight_state_planeAssigned&#45;&gt;SpecificFlight_stateActiveWithPassengers_boarding</title>
<path fill="none" stroke="black" d="M623.496,-126.193C632.996,-130.974 642.353,-136.864 650,-144 669.631,-162.32 679,-170.149 679,-197 679,-379 679,-379 679,-379 679,-440.901 470.488,-459.672 375.343,-465.015"/>
<polygon fill="black" stroke="black" points="374.937,-461.531 365.138,-465.56 375.311,-468.521 374.937,-461.531"/>
<text text-anchor="middle" x="734.986" y="-282.4" font-family="Times,serif" font-size="14.00">readyForPassengers</text>
</g>
<!-- SpecificFlight_state_planeAssigned&#45;&gt;SpecificFlight_state_cancelled -->
<g id="edge15" class="edge"><title>SpecificFlight_state_planeAssigned&#45;&gt;SpecificFlight_state_cancelled</title>
<path fill="none" stroke="black" d="M560.368,-89.614C550.19,-76.6338 536.131,-58.7037 524.727,-44.1595"/>
<polygon fill="black" stroke="black" points="527.294,-41.7602 518.369,-36.0504 521.785,-46.0794 527.294,-41.7602"/>
<text text-anchor="middle" x="563.873" y="-57.4" font-family="Times,serif" font-size="14.00">cancel</text>
</g>
<!-- start_SpecificFlight_state_activeWithPassengers -->
<g id="node4" class="node"><title>start_SpecificFlight_state_activeWithPassengers</title>
<ellipse fill="black" stroke="black" cx="274" cy="-621" rx="7.2" ry="7.2"/>
</g>
<!-- SpecificFlight_stateActiveWithPassengers_waitingForNextLeg -->
<g id="node5" class="node"><title>SpecificFlight_stateActiveWithPassengers_waitingForNextLeg</title>
<path fill="none" stroke="black" d="M325.316,-576C325.316,-576 222.684,-576 222.684,-576 216.684,-576 210.684,-570 210.684,-564 210.684,-564 210.684,-552 210.684,-552 210.684,-546 216.684,-540 222.684,-540 222.684,-540 325.316,-540 325.316,-540 331.316,-540 337.316,-546 337.316,-552 337.316,-552 337.316,-564 337.316,-564 337.316,-570 331.316,-576 325.316,-576"/>
<text text-anchor="middle" x="274" y="-552.4" font-family="Times,serif" font-size="14.00">waitingForNextLeg</text>
</g>
<!-- start_SpecificFlight_state_activeWithPassengers&#45;&gt;SpecificFlight_stateActiveWithPassengers_waitingForNextLeg -->
<g id="edge5" class="edge"><title>start_SpecificFlight_state_activeWithPassengers&#45;&gt;SpecificFlight_stateActiveWithPassengers_waitingForNextLeg</title>
<path fill="none" stroke="black" d="M274,-613.472C274,-606.902 274,-596.324 274,-586.229"/>
<polygon fill="black" stroke="black" points="277.5,-586.073 274,-576.073 270.5,-586.073 277.5,-586.073"/>
</g>
<!-- SpecificFlight_stateActiveWithPassengers_waitingForNextLeg&#45;&gt;SpecificFlight_stateActiveWithPassengers_boarding -->
<g id="edge8" class="edge"><title>SpecificFlight_stateActiveWithPassengers_waitingForNextLeg&#45;&gt;SpecificFlight_stateActiveWithPassengers_boarding</title>
<path fill="none" stroke="black" d="M284.866,-539.614C292.903,-526.755 303.976,-509.038 313.02,-494.568"/>
<polygon fill="black" stroke="black" points="316.011,-496.385 318.343,-486.05 310.075,-492.675 316.011,-496.385"/>
<text text-anchor="middle" x="362.986" y="-507.4" font-family="Times,serif" font-size="14.00">readyForPassengers</text>
</g>
<!-- SpecificFlight_stateActiveWithPassengers_disembarking -->
<g id="node9" class="node"><title>SpecificFlight_stateActiveWithPassengers_disembarking</title>
<path fill="none" stroke="black" d="M290.155,-216C290.155,-216 221.845,-216 221.845,-216 215.845,-216 209.845,-210 209.845,-204 209.845,-204 209.845,-192 209.845,-192 209.845,-186 215.845,-180 221.845,-180 221.845,-180 290.155,-180 290.155,-180 296.155,-180 302.155,-186 302.155,-192 302.155,-192 302.155,-204 302.155,-204 302.155,-210 296.155,-216 290.155,-216"/>
<text text-anchor="middle" x="256" y="-192.4" font-family="Times,serif" font-size="14.00">disembarking</text>
</g>
<!-- SpecificFlight_stateActiveWithPassengers_waitingForNextLeg&#45;&gt;SpecificFlight_stateActiveWithPassengers_disembarking -->
<g id="edge11" class="edge"><title>SpecificFlight_stateActiveWithPassengers_waitingForNextLeg&#45;&gt;SpecificFlight_stateActiveWithPassengers_disembarking</title>
<path fill="none" stroke="black" d="M274,-539.801C274,-522.062 274,-493.597 274,-469 274,-469 274,-469 274,-287 274,-266.338 269.178,-243.49 264.526,-226.254"/>
<polygon fill="black" stroke="black" points="267.801,-224.976 261.695,-216.318 261.069,-226.894 267.801,-224.976"/>
<text text-anchor="middle" x="298.479" y="-372.4" font-family="Times,serif" font-size="14.00">evacuate</text>
</g>
<!-- SpecificFlight_stateActiveWithPassengers_closedAtGate -->
<g id="node7" class="node"><title>SpecificFlight_stateActiveWithPassengers_closedAtGate</title>
<path fill="none" stroke="black" d="M421.145,-396C421.145,-396 352.855,-396 352.855,-396 346.855,-396 340.855,-390 340.855,-384 340.855,-384 340.855,-372 340.855,-372 340.855,-366 346.855,-360 352.855,-360 352.855,-360 421.145,-360 421.145,-360 427.145,-360 433.145,-366 433.145,-372 433.145,-372 433.145,-384 433.145,-384 433.145,-390 427.145,-396 421.145,-396"/>
<text text-anchor="middle" x="387" y="-372.4" font-family="Times,serif" font-size="14.00">closedAtGate</text>
</g>
<!-- SpecificFlight_stateActiveWithPassengers_boarding&#45;&gt;SpecificFlight_stateActiveWithPassengers_closedAtGate -->
<g id="edge9" class="edge"><title>SpecificFlight_stateActiveWithPassengers_boarding&#45;&gt;SpecificFlight_stateActiveWithPassengers_closedAtGate</title>
<path fill="none" stroke="black" d="M340.459,-449.614C348.934,-436.755 360.611,-419.038 370.148,-404.568"/>
<polygon fill="black" stroke="black" points="373.181,-406.326 375.762,-396.05 367.337,-402.474 373.181,-406.326"/>
<text text-anchor="middle" x="416.1" y="-417.4" font-family="Times,serif" font-size="14.00">boardingComplete</text>
</g>
<!-- SpecificFlight_stateActiveWithPassengers_underway -->
<g id="node8" class="node"><title>SpecificFlight_stateActiveWithPassengers_underway</title>
<path fill="none" stroke="black" d="M353,-306C353,-306 305,-306 305,-306 299,-306 293,-300 293,-294 293,-294 293,-282 293,-282 293,-276 299,-270 305,-270 305,-270 353,-270 353,-270 359,-270 365,-276 365,-282 365,-282 365,-294 365,-294 365,-300 359,-306 353,-306"/>
<text text-anchor="middle" x="329" y="-282.4" font-family="Times,serif" font-size="14.00">underway</text>
</g>
<!-- SpecificFlight_stateActiveWithPassengers_closedAtGate&#45;&gt;SpecificFlight_stateActiveWithPassengers_underway -->
<g id="edge10" class="edge"><title>SpecificFlight_stateActiveWithPassengers_closedAtGate&#45;&gt;SpecificFlight_stateActiveWithPassengers_underway</title>
<path fill="none" stroke="black" d="M375.541,-359.614C367.066,-346.755 355.389,-329.038 345.852,-314.568"/>
<polygon fill="black" stroke="black" points="348.663,-312.474 340.238,-306.05 342.819,-316.326 348.663,-312.474"/>
<text text-anchor="middle" x="421.053" y="-327.4" font-family="Times,serif" font-size="14.00">permissionToDepart</text>
</g>
<!-- SpecificFlight_stateActiveWithPassengers_underway&#45;&gt;SpecificFlight_stateActiveWithPassengers_disembarking -->
<g id="edge12" class="edge"><title>SpecificFlight_stateActiveWithPassengers_underway&#45;&gt;SpecificFlight_stateActiveWithPassengers_disembarking</title>
<path fill="none" stroke="black" d="M314.578,-269.614C303.709,-256.512 288.658,-238.368 276.533,-223.753"/>
<polygon fill="black" stroke="black" points="279.223,-221.512 270.144,-216.05 273.835,-225.982 279.223,-221.512"/>
<text text-anchor="middle" x="336.535" y="-237.4" font-family="Times,serif" font-size="14.00">arriveAtGate</text>
</g>
<!-- SpecificFlight_stateActiveWithPassengers_disembarking&#45;&gt;SpecificFlight_state_planeAssigned -->
<g id="edge4" class="edge"><title>SpecificFlight_stateActiveWithPassengers_disembarking&#45;&gt;SpecificFlight_state_planeAssigned</title>
<path fill="none" stroke="black" d="M263.056,-179.816C269.044,-167.605 278.887,-152.006 292.755,-144 334.708,-119.781 462.266,-134.25 510,-126 511.487,-125.743 512.989,-125.468 514.502,-125.177"/>
<polygon fill="black" stroke="black" points="515.514,-128.54 524.577,-123.053 514.07,-121.691 515.514,-128.54"/>
<text text-anchor="middle" x="393.123" y="-147.4" font-family="Times,serif" font-size="14.00">passengersOut [!finished&amp;&amp;empty]</text>
</g>
<!-- SpecificFlight_stateActiveWithPassengers_disembarking&#45;&gt;SpecificFlight_stateActiveWithPassengers_waitingForNextLeg -->
<g id="edge6" class="edge"><title>SpecificFlight_stateActiveWithPassengers_disembarking&#45;&gt;SpecificFlight_stateActiveWithPassengers_waitingForNextLeg</title>
<path fill="none" stroke="black" d="M209.569,-205.901C164.869,-215.484 104,-237.602 104,-287 104,-469 104,-469 104,-469 104,-515.443 154.658,-537.404 200.667,-547.772"/>
<polygon fill="black" stroke="black" points="200.193,-551.249 210.698,-549.872 201.628,-544.397 200.193,-551.249"/>
<text text-anchor="middle" x="171.064" y="-372.4" font-family="Times,serif" font-size="14.00">passengersOut [!empty]</text>
</g>
<!-- SpecificFlight_state_completed -->
<g id="node10" class="node"><title>SpecificFlight_state_completed</title>
<path fill="none" stroke="black" d="M62.2332,-126C62.2332,-126 11.7668,-126 11.7668,-126 5.76676,-126 -0.233236,-120 -0.233236,-114 -0.233236,-114 -0.233236,-102 -0.233236,-102 -0.233236,-96 5.76676,-90 11.7668,-90 11.7668,-90 62.2332,-90 62.2332,-90 68.2332,-90 74.2332,-96 74.2332,-102 74.2332,-102 74.2332,-114 74.2332,-114 74.2332,-120 68.2332,-126 62.2332,-126"/>
<text text-anchor="middle" x="37" y="-102.4" font-family="Times,serif" font-size="14.00">completed</text>
</g>
<!-- SpecificFlight_stateActiveWithPassengers_disembarking&#45;&gt;SpecificFlight_state_completed -->
<g id="edge13" class="edge"><title>SpecificFlight_stateActiveWithPassengers_disembarking&#45;&gt;SpecificFlight_state_completed</title>
<path fill="none" stroke="black" d="M209.584,-196.219C152.448,-194.173 60.278,-186.975 38.417,-162 32.3383,-155.056 30.8038,-145.421 31.1864,-136.268"/>
<polygon fill="black" stroke="black" points="34.6672,-136.634 32.293,-126.309 27.71,-135.861 34.6672,-136.634"/>
<text text-anchor="middle" x="136.792" y="-147.4" font-family="Times,serif" font-size="14.00">passengersOut [finished&amp;&amp;empty]</text>
</g>
</g>
</svg>
