<?xml version="1.0" encoding="UTF-8" standalone="no"?>
<!DOCTYPE svg PUBLIC "-//W3C//DTD SVG 1.1//EN"
 "http://www.w3.org/Graphics/SVG/1.1/DTD/svg11.dtd">
<!-- Generated by graphviz version 2.36.0 (20140111.2315)
 -->
<!-- Title: SpecificFlight Pages: 1 -->
<svg width="801pt" height="663pt"
 viewBox="0.00 0.00 801.00 663.00" xmlns="http://www.w3.org/2000/svg" xmlns:xlink="http://www.w3.org/1999/xlink">
<g id="graph0" class="graph" transform="scale(1 1) rotate(0) translate(4 659)">
<title>SpecificFlight</title>
<polygon fill="white" stroke="none" points="-4,4 -4,-659 797,-659 797,4 -4,4"/>
<g id="clust1" class="cluster"><title>clusterSpecificFlight_state_activeWithPassengers</title>
<path fill="none" stroke="black" d="M89,-168C89,-168 431,-168 431,-168 437,-168 443,-174 443,-180 443,-180 443,-635 443,-635 443,-641 437,-647 431,-647 431,-647 89,-647 89,-647 83,-647 77,-641 77,-635 77,-635 77,-180 77,-180 77,-174 83,-168 89,-168"/>
<text text-anchor="middle" x="260" y="-631.8" font-family="Times,serif" font-size="14.00">activeWithPassengers</text>
</g>
<!-- start_SpecificFlight_state -->
<g id="node1" class="node"><title>start_SpecificFlight_state</title>
<ellipse fill="black" stroke="black" cx="505" cy="-282" rx="7.2" ry="7.2"/>
</g>
<!-- SpecificFlight_state_planned -->
<g id="node2" class="node"><title>SpecificFlight_state_planned</title>
<path fill="none" stroke="black" d="M529,-212C529,-212 481,-212 481,-212 475,-212 469,-206 469,-200 469,-200 469,-188 469,-188 469,-182 475,-176 481,-176 481,-176 529,-176 529,-176 535,-176 541,-182 541,-188 541,-188 541,-200 541,-200 541,-206 535,-212 529,-212"/>
<text text-anchor="middle" x="505" y="-190.3" font-family="Times,serif" font-size="14.00">planned</text>
</g>
<!-- start_SpecificFlight_state&#45;&gt;SpecificFlight_state_planned -->
<g id="edge1" class="edge"><title>start_SpecificFlight_state&#45;&gt;SpecificFlight_state_planned</title>
<path fill="none" stroke="black" d="M505,-274.536C505,-263.564 505,-240.694 505,-222.283"/>
<polygon fill="black" stroke="black" points="508.5,-222.081 505,-212.081 501.5,-222.081 508.5,-222.081"/>
</g>
<!-- SpecificFlight_state_planeAssigned -->
<g id="node3" class="node"><title>SpecificFlight_state_planeAssigned</title>
<path fill="none" stroke="black" d="M613.25,-124C613.25,-124 538.75,-124 538.75,-124 532.75,-124 526.75,-118 526.75,-112 526.75,-112 526.75,-100 526.75,-100 526.75,-94 532.75,-88 538.75,-88 538.75,-88 613.25,-88 613.25,-88 619.25,-88 625.25,-94 625.25,-100 625.25,-100 625.25,-112 625.25,-112 625.25,-118 619.25,-124 613.25,-124"/>
<text text-anchor="middle" x="576" y="-102.3" font-family="Times,serif" font-size="14.00">planeAssigned</text>
</g>
<!-- SpecificFlight_state_planned&#45;&gt;SpecificFlight_state_planeAssigned -->
<g id="edge3" class="edge"><title>SpecificFlight_state_planned&#45;&gt;SpecificFlight_state_planeAssigned</title>
<path fill="none" stroke="black" d="M499.162,-175.657C496.73,-165.142 495.736,-151.891 502,-142 506.025,-135.644 511.55,-130.42 517.782,-126.131"/>
<polygon fill="black" stroke="black" points="519.849,-128.974 526.644,-120.845 516.263,-122.962 519.849,-128.974"/>
<text text-anchor="middle" x="535.5" y="-146.3" font-family="Times,serif" font-size="14.00">assignPlane</text>
</g>
<!-- SpecificFlight_state_cancelled -->
<g id="node11" class="node"><title>SpecificFlight_state_cancelled</title>
<path fill="none" stroke="black" d="M530,-36C530,-36 482,-36 482,-36 476,-36 470,-30 470,-24 470,-24 470,-12 470,-12 470,-6 476,-0 482,-0 482,-0 530,-0 530,-0 536,-0 542,-6 542,-12 542,-12 542,-24 542,-24 542,-30 536,-36 530,-36"/>
<text text-anchor="middle" x="506" y="-14.3" font-family="Times,serif" font-size="14.00">cancelled</text>
</g>
<!-- SpecificFlight_state_planned&#45;&gt;SpecificFlight_state_cancelled -->
<g id="edge14" class="edge"><title>SpecificFlight_state_planned&#45;&gt;SpecificFlight_state_cancelled</title>
<path fill="none" stroke="black" d="M497.223,-175.843C491.457,-162.134 484.085,-142.259 481,-124 478.335,-108.224 478.233,-103.759 481,-88 483.538,-73.5429 488.855,-58.1242 493.935,-45.5372"/>
<polygon fill="black" stroke="black" points="497.245,-46.6967 497.901,-36.1222 490.794,-43.9792 497.245,-46.6967"/>
<text text-anchor="middle" x="499" y="-102.3" font-family="Times,serif" font-size="14.00">cancel</text>
</g>
<!-- SpecificFlight_state_planeAssigned&#45;&gt;SpecificFlight_state_planned -->
<g id="edge2" class="edge"><title>SpecificFlight_state_planeAssigned&#45;&gt;SpecificFlight_state_planned</title>
<path fill="none" stroke="black" d="M579.066,-124.399C579.986,-134.936 579.388,-148.188 573,-158 567.458,-166.512 559.156,-173.063 550.238,-178.063"/>
<polygon fill="black" stroke="black" points="548.589,-174.975 541.195,-182.563 551.707,-181.242 548.589,-174.975"/>
<text text-anchor="middle" x="613.5" y="-146.3" font-family="Times,serif" font-size="14.00">changePlane</text>
</g>
<!-- SpecificFlight_stateActiveWithPassengers_boarding -->
<g id="node6" class="node"><title>SpecificFlight_stateActiveWithPassengers_boarding</title>
<path fill="none" stroke="black" d="M354,-476C354,-476 306,-476 306,-476 300,-476 294,-470 294,-464 294,-464 294,-452 294,-452 294,-446 300,-440 306,-440 306,-440 354,-440 354,-440 360,-440 366,-446 366,-452 366,-452 366,-464 366,-464 366,-470 360,-476 354,-476"/>
<text text-anchor="middle" x="330" y="-454.3" font-family="Times,serif" font-size="14.00">boarding</text>
</g>
<!-- SpecificFlight_state_planeAssigned&#45;&gt;SpecificFlight_stateActiveWithPassengers_boarding -->
<g id="edge7" class="edge"><title>SpecificFlight_state_planeAssigned&#45;&gt;SpecificFlight_stateActiveWithPassengers_boarding</title>
<path fill="none" stroke="black" d="M625.336,-123.714C635.237,-128.57 645.032,-134.612 653,-142 671.961,-159.582 681,-167.142 681,-193 681,-371 681,-371 681,-371 681,-432.985 471.893,-450.518 376.476,-455.292"/>
<polygon fill="black" stroke="black" points="376.064,-451.808 366.241,-455.777 376.396,-458.8 376.064,-451.808"/>
<text text-anchor="middle" x="737" y="-278.3" font-family="Times,serif" font-size="14.00">readyForPassengers</text>
</g>
<!-- SpecificFlight_state_planeAssigned&#45;&gt;SpecificFlight_state_cancelled -->
<g id="edge15" class="edge"><title>SpecificFlight_state_planeAssigned&#45;&gt;SpecificFlight_state_cancelled</title>
<path fill="none" stroke="black" d="M561.834,-87.5966C551.615,-75.0419 537.671,-57.9099 526.274,-43.9081"/>
<polygon fill="black" stroke="black" points="528.933,-41.6302 519.906,-36.084 523.504,-46.0491 528.933,-41.6302"/>
<text text-anchor="middle" x="566" y="-58.3" font-family="Times,serif" font-size="14.00">cancel</text>
</g>
<!-- start_SpecificFlight_state_activeWithPassengers -->
<g id="node4" class="node"><title>start_SpecificFlight_state_activeWithPassengers</title>
<ellipse fill="black" stroke="black" cx="274" cy="-609" rx="7.2" ry="7.2"/>
</g>
<!-- SpecificFlight_stateActiveWithPassengers_waitingForNextLeg -->
<g id="node5" class="node"><title>SpecificFlight_stateActiveWithPassengers_waitingForNextLeg</title>
<path fill="none" stroke="black" d="M325.25,-564C325.25,-564 222.75,-564 222.75,-564 216.75,-564 210.75,-558 210.75,-552 210.75,-552 210.75,-540 210.75,-540 210.75,-534 216.75,-528 222.75,-528 222.75,-528 325.25,-528 325.25,-528 331.25,-528 337.25,-534 337.25,-540 337.25,-540 337.25,-552 337.25,-552 337.25,-558 331.25,-564 325.25,-564"/>
<text text-anchor="middle" x="274" y="-542.3" font-family="Times,serif" font-size="14.00">waitingForNextLeg</text>
</g>
<!-- start_SpecificFlight_state_activeWithPassengers&#45;&gt;SpecificFlight_stateActiveWithPassengers_waitingForNextLeg -->
<g id="edge5" class="edge"><title>start_SpecificFlight_state_activeWithPassengers&#45;&gt;SpecificFlight_stateActiveWithPassengers_waitingForNextLeg</title>
<path fill="none" stroke="black" d="M274,-601.472C274,-594.902 274,-584.324 274,-574.229"/>
<polygon fill="black" stroke="black" points="277.5,-574.073 274,-564.073 270.5,-574.073 277.5,-574.073"/>
</g>
<!-- SpecificFlight_stateActiveWithPassengers_waitingForNextLeg&#45;&gt;SpecificFlight_stateActiveWithPassengers_boarding -->
<g id="edge8" class="edge"><title>SpecificFlight_stateActiveWithPassengers_waitingForNextLeg&#45;&gt;SpecificFlight_stateActiveWithPassengers_boarding</title>
<path fill="none" stroke="black" d="M285.332,-527.597C293.355,-515.277 304.247,-498.549 313.267,-484.696"/>
<polygon fill="black" stroke="black" points="316.352,-486.374 318.876,-476.084 310.486,-482.554 316.352,-486.374"/>
<text text-anchor="middle" x="364" y="-498.3" font-family="Times,serif" font-size="14.00">readyForPassengers</text>
</g>
<!-- SpecificFlight_stateActiveWithPassengers_disembarking -->
<g id="node9" class="node"><title>SpecificFlight_stateActiveWithPassengers_disembarking</title>
<path fill="none" stroke="black" d="M290.25,-212C290.25,-212 221.75,-212 221.75,-212 215.75,-212 209.75,-206 209.75,-200 209.75,-200 209.75,-188 209.75,-188 209.75,-182 215.75,-176 221.75,-176 221.75,-176 290.25,-176 290.25,-176 296.25,-176 302.25,-182 302.25,-188 302.25,-188 302.25,-200 302.25,-200 302.25,-206 296.25,-212 290.25,-212"/>
<text text-anchor="middle" x="256" y="-190.3" font-family="Times,serif" font-size="14.00">disembarking</text>
</g>
<!-- SpecificFlight_stateActiveWithPassengers_waitingForNextLeg&#45;&gt;SpecificFlight_stateActiveWithPassengers_disembarking -->
<g id="edge11" class="edge"><title>SpecificFlight_stateActiveWithPassengers_waitingForNextLeg&#45;&gt;SpecificFlight_stateActiveWithPassengers_disembarking</title>
<path fill="none" stroke="black" d="M274,-527.867C274,-510.51 274,-482.889 274,-459 274,-459 274,-459 274,-281 274,-260.915 269.238,-238.74 264.613,-221.938"/>
<polygon fill="black" stroke="black" points="267.946,-220.864 261.794,-212.238 261.224,-222.817 267.946,-220.864"/>
<text text-anchor="middle" x="298.5" y="-366.3" font-family="Times,serif" font-size="14.00">evacuate</text>
</g>
<!-- SpecificFlight_stateActiveWithPassengers_closedAtGate -->
<g id="node7" class="node"><title>SpecificFlight_stateActiveWithPassengers_closedAtGate</title>
<path fill="none" stroke="black" d="M422.25,-388C422.25,-388 353.75,-388 353.75,-388 347.75,-388 341.75,-382 341.75,-376 341.75,-376 341.75,-364 341.75,-364 341.75,-358 347.75,-352 353.75,-352 353.75,-352 422.25,-352 422.25,-352 428.25,-352 434.25,-358 434.25,-364 434.25,-364 434.25,-376 434.25,-376 434.25,-382 428.25,-388 422.25,-388"/>
<text text-anchor="middle" x="388" y="-366.3" font-family="Times,serif" font-size="14.00">closedAtGate</text>
</g>
<!-- SpecificFlight_stateActiveWithPassengers_boarding&#45;&gt;SpecificFlight_stateActiveWithPassengers_closedAtGate -->
<g id="edge9" class="edge"><title>SpecificFlight_stateActiveWithPassengers_boarding&#45;&gt;SpecificFlight_stateActiveWithPassengers_closedAtGate</title>
<path fill="none" stroke="black" d="M341.737,-439.597C350.046,-427.277 361.328,-410.549 370.67,-396.696"/>
<polygon fill="black" stroke="black" points="373.789,-398.332 376.478,-388.084 367.985,-394.418 373.789,-398.332"/>
<text text-anchor="middle" x="417.5" y="-410.3" font-family="Times,serif" font-size="14.00">boardingComplete</text>
</g>
<!-- SpecificFlight_stateActiveWithPassengers_underway -->
<g id="node8" class="node"><title>SpecificFlight_stateActiveWithPassengers_underway</title>
<path fill="none" stroke="black" d="M353,-300C353,-300 305,-300 305,-300 299,-300 293,-294 293,-288 293,-288 293,-276 293,-276 293,-270 299,-264 305,-264 305,-264 353,-264 353,-264 359,-264 365,-270 365,-276 365,-276 365,-288 365,-288 365,-294 359,-300 353,-300"/>
<text text-anchor="middle" x="329" y="-278.3" font-family="Times,serif" font-size="14.00">underway</text>
</g>
<!-- SpecificFlight_stateActiveWithPassengers_closedAtGate&#45;&gt;SpecificFlight_stateActiveWithPassengers_underway -->
<g id="edge10" class="edge"><title>SpecificFlight_stateActiveWithPassengers_closedAtGate&#45;&gt;SpecificFlight_stateActiveWithPassengers_underway</title>
<path fill="none" stroke="black" d="M376.06,-351.597C367.608,-339.277 356.132,-322.549 346.629,-308.696"/>
<polygon fill="black" stroke="black" points="349.264,-306.35 340.72,-300.084 343.492,-310.31 349.264,-306.35"/>
<text text-anchor="middle" x="422" y="-322.3" font-family="Times,serif" font-size="14.00">permissionToDepart</text>
</g>
<!-- SpecificFlight_stateActiveWithPassengers_underway&#45;&gt;SpecificFlight_stateActiveWithPassengers_disembarking -->
<g id="edge12" class="edge"><title>SpecificFlight_stateActiveWithPassengers_underway&#45;&gt;SpecificFlight_stateActiveWithPassengers_disembarking</title>
<path fill="none" stroke="black" d="M314.227,-263.597C303.57,-251.042 289.028,-233.91 277.143,-219.908"/>
<polygon fill="black" stroke="black" points="279.641,-217.443 270.502,-212.084 274.305,-221.973 279.641,-217.443"/>
<text text-anchor="middle" x="337" y="-234.3" font-family="Times,serif" font-size="14.00">arriveAtGate</text>
</g>
<!-- SpecificFlight_stateActiveWithPassengers_disembarking&#45;&gt;SpecificFlight_state_planeAssigned -->
<g id="edge4" class="edge"><title>SpecificFlight_stateActiveWithPassengers_disembarking&#45;&gt;SpecificFlight_state_planeAssigned</title>
<path fill="none" stroke="black" d="M263.685,-175.702C269.839,-164.059 279.654,-149.511 293,-142 335.555,-118.052 463.88,-132.301 512,-124 513.487,-123.744 514.99,-123.469 516.503,-123.178"/>
<polygon fill="black" stroke="black" points="517.513,-126.542 526.578,-121.057 516.071,-119.692 517.513,-126.542"/>
<text text-anchor="middle" x="393.5" y="-146.3" font-family="Times,serif" font-size="14.00">passengersOut [!finished&amp;&amp;empty]</text>
</g>
<!-- SpecificFlight_stateActiveWithPassengers_disembarking&#45;&gt;SpecificFlight_stateActiveWithPassengers_waitingForNextLeg -->
<g id="edge6" class="edge"><title>SpecificFlight_stateActiveWithPassengers_disembarking&#45;&gt;SpecificFlight_stateActiveWithPassengers_waitingForNextLeg</title>
<path fill="none" stroke="black" d="M209.68,-201.221C164.648,-210.179 103,-231.484 103,-281 103,-459 103,-459 103,-459 103,-505.438 153.956,-526.804 200.236,-536.632"/>
<polygon fill="black" stroke="black" points="199.839,-540.121 210.326,-538.615 201.188,-533.252 199.839,-540.121"/>
<text text-anchor="middle" x="170.5" y="-366.3" font-family="Times,serif" font-size="14.00">passengersOut [!empty]</text>
</g>
<!-- SpecificFlight_state_completed -->
<g id="node10" class="node"><title>SpecificFlight_state_completed</title>
<path fill="none" stroke="black" d="M62.25,-124C62.25,-124 11.75,-124 11.75,-124 5.75,-124 -0.25,-118 -0.25,-112 -0.25,-112 -0.25,-100 -0.25,-100 -0.25,-94 5.75,-88 11.75,-88 11.75,-88 62.25,-88 62.25,-88 68.25,-88 74.25,-94 74.25,-100 74.25,-100 74.25,-112 74.25,-112 74.25,-118 68.25,-124 62.25,-124"/>
<text text-anchor="middle" x="37" y="-102.3" font-family="Times,serif" font-size="14.00">completed</text>
</g>
<!-- SpecificFlight_stateActiveWithPassengers_disembarking&#45;&gt;SpecificFlight_state_completed -->
<g id="edge13" class="edge"><title>SpecificFlight_stateActiveWithPassengers_disembarking&#45;&gt;SpecificFlight_state_completed</title>
<path fill="none" stroke="black" d="M209.468,-192.257C152.194,-190.251 59.8164,-183.096 38,-158 32.3824,-151.538 30.8655,-142.682 31.1531,-134.163"/>
<polygon fill="black" stroke="black" points="34.6434,-134.441 32.2445,-124.121 27.6844,-133.684 34.6434,-134.441"/>
<text text-anchor="middle" x="136" y="-146.3" font-family="Times,serif" font-size="14.00">passengersOut [finished&amp;&amp;empty]</text>
</g>
</g>
</svg>
