<?xml version="1.0" encoding="UTF-8" standalone="no"?>
<!DOCTYPE svg PUBLIC "-//W3C//DTD SVG 1.1//EN"
 "http://www.w3.org/Graphics/SVG/1.1/DTD/svg11.dtd">
<!-- Generated by graphviz version 2.39.20140502.0445 (20140502.0445)
 -->
<!-- Title: SpecificFlight Pages: 1 -->
<svg width="669pt" height="656pt"
 viewBox="0.00 0.00 669.00 656.40" xmlns="http://www.w3.org/2000/svg" xmlns:xlink="http://www.w3.org/1999/xlink">
<g id="graph0" class="graph" transform="scale(1 1) rotate(0) translate(4 652.4)">
<title>SpecificFlight</title>
<polygon fill="white" stroke="none" points="-4,4 -4,-652.4 665,-652.4 665,4 -4,4"/>
<g id="clust1" class="cluster"><title>clusterSpecificFlight_state_activeWithPassengers</title>
<path fill="none" stroke="black" d="M322,-166C322,-166 579,-166 579,-166 585,-166 591,-172 591,-178 591,-178 591,-628.4 591,-628.4 591,-634.4 585,-640.4 579,-640.4 579,-640.4 322,-640.4 322,-640.4 316,-640.4 310,-634.4 310,-628.4 310,-628.4 310,-178 310,-178 310,-172 316,-166 322,-166"/>
<text text-anchor="middle" x="450.5" y="-625.2" font-family="Times,serif" font-size="14.00">activeWithPassengers</text>
</g>
<!-- start_SpecificFlight_state -->
<g id="node1" class="node"><title>start_SpecificFlight_state</title>
<ellipse fill="black" stroke="black" cx="36" cy="-279" rx="7.2" ry="7.2"/>
</g>
<!-- SpecificFlight_state_planned -->
<g id="node2" class="node"><title>SpecificFlight_state_planned</title>
<path fill="none" stroke="black" d="M60,-210C60,-210 12,-210 12,-210 6,-210 0,-204 0,-198 0,-198 0,-186 0,-186 0,-180 6,-174 12,-174 12,-174 60,-174 60,-174 66,-174 72,-180 72,-186 72,-186 72,-198 72,-198 72,-204 66,-210 60,-210"/>
<text text-anchor="middle" x="36" y="-188.3" font-family="Times,serif" font-size="14.00">planned</text>
</g>
<!-- start_SpecificFlight_state&#45;&gt;SpecificFlight_state_planned -->
<g id="edge1" class="edge"><title>start_SpecificFlight_state&#45;&gt;SpecificFlight_state_planned</title>
<g id="a_edge1"><a xlink:title="start &#160;&#45;&gt; planned">
<path fill="none" stroke="black" d="M36,-271.611C36,-260.831 36,-238.432 36,-220.291"/>
<polygon fill="black" stroke="black" points="39.5001,-220.222 36,-210.222 32.5001,-220.222 39.5001,-220.222"/>
</a>
</g>
</g>
<!-- SpecificFlight_state_planeAssigned -->
<g id="node3" class="node"><title>SpecificFlight_state_planeAssigned</title>
<path fill="none" stroke="black" d="M163.5,-123C163.5,-123 88.5,-123 88.5,-123 82.5,-123 76.5,-117 76.5,-111 76.5,-111 76.5,-99 76.5,-99 76.5,-93 82.5,-87 88.5,-87 88.5,-87 163.5,-87 163.5,-87 169.5,-87 175.5,-93 175.5,-99 175.5,-99 175.5,-111 175.5,-111 175.5,-117 169.5,-123 163.5,-123"/>
<text text-anchor="middle" x="126" y="-101.3" font-family="Times,serif" font-size="14.00">planeAssigned</text>
</g>
<!-- SpecificFlight_state_planned&#45;&gt;SpecificFlight_state_planeAssigned -->
<g id="edge3" class="edge"><title>SpecificFlight_state_planned&#45;&gt;SpecificFlight_state_planeAssigned</title>
<g id="a_edge3"><a xlink:title="planned assignPlane &#45;&gt; planeAssigned">
<path fill="none" stroke="black" d="M29.9721,-173.815C27.469,-163.437 26.4672,-150.439 33,-141 41.0584,-129.357 53.5095,-121.582 66.7081,-116.392"/>
<polygon fill="black" stroke="black" points="68.0856,-119.619 76.3987,-113.051 65.804,-113.001 68.0856,-119.619"/>
</a>
</g>
<text text-anchor="middle" x="66.5" y="-144.8" font-family="Times,serif" font-size="14.00">assignPlane</text>
</g>
<!-- SpecificFlight_state_cancelled -->
<g id="node12" class="node"><title>SpecificFlight_state_cancelled</title>
<path fill="none" stroke="black" d="M66,-36C66,-36 18,-36 18,-36 12,-36 6,-30 6,-24 6,-24 6,-12 6,-12 6,-6 12,-0 18,-0 18,-0 66,-0 66,-0 72,-0 78,-6 78,-12 78,-12 78,-24 78,-24 78,-30 72,-36 66,-36"/>
<text text-anchor="middle" x="42" y="-14.3" font-family="Times,serif" font-size="14.00">cancelled</text>
</g>
<!-- SpecificFlight_state_planned&#45;&gt;SpecificFlight_state_cancelled -->
<g id="edge15" class="edge"><title>SpecificFlight_state_planned&#45;&gt;SpecificFlight_state_cancelled</title>
<g id="a_edge15"><a xlink:title="planned cancel &#45;&gt; cancelled">
<path fill="none" stroke="black" d="M29.4511,-173.801C27.6324,-168.209 25.9081,-161.918 25,-156 19.1659,-117.979 27.3289,-73.7834 34.2315,-46.0998"/>
<polygon fill="black" stroke="black" points="37.6383,-46.9059 36.7834,-36.3456 30.8663,-45.1341 37.6383,-46.9059"/>
</a>
</g>
<text text-anchor="middle" x="45" y="-101.3" font-family="Times,serif" font-size="14.00">cancel</text>
</g>
<!-- SpecificFlight_state_planeAssigned&#45;&gt;SpecificFlight_state_planned -->
<g id="edge2" class="edge"><title>SpecificFlight_state_planeAssigned&#45;&gt;SpecificFlight_state_planned</title>
<g id="a_edge2"><a xlink:title="planeAssigned changePlane &#45;&gt; planned">
<path fill="none" stroke="black" d="M81.2649,-173.24 89.5467,-168.534 97.5854,-162.817 104,-156 112.579,-146.883 118.16,-133.874 121.554,-123.411"/>
<polygon fill="black" stroke="black" points="79.4891,-170.218 72.2483,-177.953 82.7319,-176.422 79.4891,-170.218"/>
</a>
</g>
<text text-anchor="middle" x="150.5" y="-144.8" font-family="Times,serif" font-size="14.00">changePlane</text>
</g>
<!-- SpecificFlight_stateActiveWithPassengers_boarding -->
<g id="node7" class="node"><title>SpecificFlight_stateActiveWithPassengers_boarding</title>
<path fill="none" stroke="black" d="M378,-471C378,-471 330,-471 330,-471 324,-471 318,-465 318,-459 318,-459 318,-447 318,-447 318,-441 324,-435 330,-435 330,-435 378,-435 378,-435 384,-435 390,-441 390,-447 390,-447 390,-459 390,-459 390,-465 384,-471 378,-471"/>
<text text-anchor="middle" x="354" y="-449.3" font-family="Times,serif" font-size="14.00">boarding</text>
</g>
<!-- SpecificFlight_state_planeAssigned&#45;&gt;SpecificFlight_stateActiveWithPassengers_boarding -->
<g id="edge7" class="edge"><title>SpecificFlight_state_planeAssigned&#45;&gt;SpecificFlight_stateActiveWithPassengers_boarding</title>
<g id="a_edge7"><a xlink:title="planeAssigned readyForPassengers &#45;&gt; boarding">
<path fill="none" stroke="black" d="M166.776,-123.059C175.209,-127.943 183.493,-133.908 190,-141 206.414,-158.889 212,-166.722 212,-191 212,-367 212,-367 212,-367 212,-412.522 266.39,-434.255 307.847,-444.208"/>
<polygon fill="black" stroke="black" points="307.277,-447.667 317.8,-446.437 308.806,-440.836 307.277,-447.667"/>
</a>
</g>
<text text-anchor="middle" x="268" y="-275.3" font-family="Times,serif" font-size="14.00">readyForPassengers</text>
</g>
<!-- SpecificFlight_state_planeAssigned&#45;&gt;SpecificFlight_state_cancelled -->
<g id="edge16" class="edge"><title>SpecificFlight_state_planeAssigned&#45;&gt;SpecificFlight_state_cancelled</title>
<g id="a_edge16"><a xlink:title="planeAssigned cancel &#45;&gt; cancelled">
<path fill="none" stroke="black" d="M66.2161,-43.5044 79.913,-57.3644 96.7049,-74.3561 109.001,-86.799"/>
<polygon fill="black" stroke="black" points="68.492,-40.8281 58.9734,-36.1754 63.513,-45.7484 68.492,-40.8281"/>
</a>
</g>
<text text-anchor="middle" x="108" y="-57.8" font-family="Times,serif" font-size="14.00">cancel</text>
</g>
<!-- dummyNode1_activeWithPassengers_disembarking -->
<g id="node4" class="node"><title>dummyNode1_activeWithPassengers_disembarking</title>
<ellipse fill="black" stroke="black" cx="605" cy="-279" rx="0.18" ry="0.18"/>
</g>
<!-- SpecificFlight_stateActiveWithPassengers_disembarking -->
<g id="node10" class="node"><title>SpecificFlight_stateActiveWithPassengers_disembarking</title>
<path fill="none" stroke="black" d="M492.5,-210C492.5,-210 423.5,-210 423.5,-210 417.5,-210 411.5,-204 411.5,-198 411.5,-198 411.5,-186 411.5,-186 411.5,-180 417.5,-174 423.5,-174 423.5,-174 492.5,-174 492.5,-174 498.5,-174 504.5,-180 504.5,-186 504.5,-186 504.5,-198 504.5,-198 504.5,-204 498.5,-210 492.5,-210"/>
<text text-anchor="middle" x="458" y="-188.3" font-family="Times,serif" font-size="14.00">disembarking</text>
</g>
<!-- dummyNode1_activeWithPassengers_disembarking&#45;&gt;SpecificFlight_stateActiveWithPassengers_disembarking -->
<g id="edge12" class="edge"><title>dummyNode1_activeWithPassengers_disembarking:w&#45;&gt;SpecificFlight_stateActiveWithPassengers_disembarking</title>
<g id="a_edge12"><a xlink:title="activeWithPassengers &#160;&#45;&gt; disembarking">
<path fill="none" stroke="black" d="M513.899,-211.171 540.993,-222.19 572.461,-238.527 595,-261 601.334,-267.315 595.056,-279 604,-279"/>
<polygon fill="black" stroke="black" points="515.107,-207.885 504.52,-207.494 512.552,-214.403 515.107,-207.885"/>
</a>
</g>
</g>
<!-- start_SpecificFlight_activeWithPassengers -->
<g id="node5" class="node"><title>start_SpecificFlight_activeWithPassengers</title>
<ellipse fill="black" stroke="black" cx="459" cy="-602.2" rx="7.2" ry="7.2"/>
</g>
<!-- SpecificFlight_stateActiveWithPassengers_waitingForNextLeg -->
<g id="node6" class="node"><title>SpecificFlight_stateActiveWithPassengers_waitingForNextLeg</title>
<path fill="none" stroke="black" d="M510.5,-558C510.5,-558 407.5,-558 407.5,-558 401.5,-558 395.5,-552 395.5,-546 395.5,-546 395.5,-534 395.5,-534 395.5,-528 401.5,-522 407.5,-522 407.5,-522 510.5,-522 510.5,-522 516.5,-522 522.5,-528 522.5,-534 522.5,-534 522.5,-546 522.5,-546 522.5,-552 516.5,-558 510.5,-558"/>
<text text-anchor="middle" x="459" y="-536.3" font-family="Times,serif" font-size="14.00">waitingForNextLeg</text>
</g>
<!-- start_SpecificFlight_activeWithPassengers&#45;&gt;SpecificFlight_stateActiveWithPassengers_waitingForNextLeg -->
<g id="edge5" class="edge"><title>start_SpecificFlight_activeWithPassengers&#45;&gt;SpecificFlight_stateActiveWithPassengers_waitingForNextLeg</title>
<g id="a_edge5"><a xlink:title="start &#160;&#45;&gt; waitingForNextLeg">
<path fill="none" stroke="black" d="M459,-594.758C459,-588.387 459,-578.197 459,-568.393"/>
<polygon fill="black" stroke="black" points="462.5,-568.105 459,-558.105 455.5,-568.105 462.5,-568.105"/>
</a>
</g>
</g>
<!-- SpecificFlight_stateActiveWithPassengers_waitingForNextLeg&#45;&gt;dummyNode1_activeWithPassengers_disembarking -->
<g id="edge11" class="edge"><title>SpecificFlight_stateActiveWithPassengers_waitingForNextLeg&#45;&gt;dummyNode1_activeWithPassengers_disembarking:e</title>
<g id="a_edge11"><a xlink:title="activeWithPassengers evacuate &#45;&gt; disembarking">
<path fill="none" stroke="black" d="M590.774,-398.465C639.296,-337.16 668.784,-279 606,-279"/>
</a>
</g>
<text text-anchor="middle" x="610.5" y="-405.8" font-family="Times,serif" font-size="14.00">evacuate</text>
</g>
<!-- SpecificFlight_stateActiveWithPassengers_waitingForNextLeg&#45;&gt;SpecificFlight_stateActiveWithPassengers_boarding -->
<g id="edge8" class="edge"><title>SpecificFlight_stateActiveWithPassengers_waitingForNextLeg&#45;&gt;SpecificFlight_stateActiveWithPassengers_boarding</title>
<g id="a_edge8"><a xlink:title="waitingForNextLeg readyForPassengers &#45;&gt; boarding">
<path fill="none" stroke="black" d="M339.633,-480.681 337.274,-488.769 336.997,-497.281 342,-504 354.599,-520.92 375.079,-529.975 395.411,-534.722"/>
<polygon fill="black" stroke="black" points="342.967,-481.765 343.328,-471.176 336.442,-479.229 342.967,-481.765"/>
</a>
</g>
<text text-anchor="middle" x="398" y="-492.8" font-family="Times,serif" font-size="14.00">readyForPassengers</text>
</g>
<!-- SpecificFlight_stateActiveWithPassengers_closedAtGate -->
<g id="node8" class="node"><title>SpecificFlight_stateActiveWithPassengers_closedAtGate</title>
<path fill="none" stroke="black" d="M399.5,-384C399.5,-384 330.5,-384 330.5,-384 324.5,-384 318.5,-378 318.5,-372 318.5,-372 318.5,-360 318.5,-360 318.5,-354 324.5,-348 330.5,-348 330.5,-348 399.5,-348 399.5,-348 405.5,-348 411.5,-354 411.5,-360 411.5,-360 411.5,-372 411.5,-372 411.5,-378 405.5,-384 399.5,-384"/>
<text text-anchor="middle" x="365" y="-362.3" font-family="Times,serif" font-size="14.00">closedAtGate</text>
</g>
<!-- SpecificFlight_stateActiveWithPassengers_boarding&#45;&gt;SpecificFlight_stateActiveWithPassengers_closedAtGate -->
<g id="edge9" class="edge"><title>SpecificFlight_stateActiveWithPassengers_boarding&#45;&gt;SpecificFlight_stateActiveWithPassengers_closedAtGate</title>
<g id="a_edge9"><a xlink:title="boarding boardingComplete &#45;&gt; closedAtGate">
<path fill="none" stroke="black" d="M349.632,-434.723C347.836,-425.021 346.661,-412.74 349,-402 349.593,-399.279 350.416,-396.515 351.381,-393.796"/>
<polygon fill="black" stroke="black" points="354.724,-394.871 355.324,-384.294 348.258,-392.188 354.724,-394.871"/>
</a>
</g>
<text text-anchor="middle" x="401.5" y="-405.8" font-family="Times,serif" font-size="14.00">boardingComplete</text>
</g>
<!-- SpecificFlight_stateActiveWithPassengers_underway -->
<g id="node9" class="node"><title>SpecificFlight_stateActiveWithPassengers_underway</title>
<path fill="none" stroke="black" d="M402,-297C402,-297 354,-297 354,-297 348,-297 342,-291 342,-285 342,-285 342,-273 342,-273 342,-267 348,-261 354,-261 354,-261 402,-261 402,-261 408,-261 414,-267 414,-273 414,-273 414,-285 414,-285 414,-291 408,-297 402,-297"/>
<text text-anchor="middle" x="378" y="-275.3" font-family="Times,serif" font-size="14.00">underway</text>
</g>
<!-- SpecificFlight_stateActiveWithPassengers_closedAtGate&#45;&gt;SpecificFlight_stateActiveWithPassengers_underway -->
<g id="edge10" class="edge"><title>SpecificFlight_stateActiveWithPassengers_closedAtGate&#45;&gt;SpecificFlight_stateActiveWithPassengers_underway</title>
<g id="a_edge10"><a xlink:title="closedAtGate permissionToDepart &#45;&gt; underway">
<path fill="none" stroke="black" d="M343.719,-304.615 341.041,-307.812 338.715,-311.282 337,-315 331.834,-326.203 338.242,-338.284 346.223,-347.764"/>
<polygon fill="black" stroke="black" points="346.449,-306.83 350.955,-297.242 341.453,-301.927 346.449,-306.83"/>
</a>
</g>
<text text-anchor="middle" x="395" y="-318.8" font-family="Times,serif" font-size="14.00">permissionToDepart</text>
</g>
<!-- SpecificFlight_stateActiveWithPassengers_underway&#45;&gt;SpecificFlight_stateActiveWithPassengers_disembarking -->
<g id="edge13" class="edge"><title>SpecificFlight_stateActiveWithPassengers_underway&#45;&gt;SpecificFlight_stateActiveWithPassengers_disembarking</title>
<g id="a_edge13"><a xlink:title="underway arriveAtGate &#45;&gt; disembarking">
<path fill="none" stroke="black" d="M374.01,-260.888C372.586,-250.538 372.654,-237.543 379,-228 384.67,-219.475 392.931,-213.008 402,-208.107"/>
<polygon fill="black" stroke="black" points="403.735,-211.158 411.271,-203.711 400.736,-204.833 403.735,-211.158"/>
</a>
</g>
<text text-anchor="middle" x="416" y="-231.8" font-family="Times,serif" font-size="14.00">arriveAtGate</text>
</g>
<!-- SpecificFlight_stateActiveWithPassengers_disembarking&#45;&gt;SpecificFlight_state_planeAssigned -->
<g id="edge4" class="edge"><title>SpecificFlight_stateActiveWithPassengers_disembarking&#45;&gt;SpecificFlight_state_planeAssigned</title>
<g id="a_edge4"><a xlink:title="disembarking passengersOut [!finished&amp;&amp;empty] &#45;&gt; planeAssigned">
<path fill="none" stroke="black" d="M184.626,-126.528 197.331,-131.151 210.657,-136.133 223,-141 238.744,-147.208 241.778,-151.176 258,-156 309.357,-171.273 370.235,-180.749 411.223,-185.926"/>
<polygon fill="black" stroke="black" points="185.653,-123.177 175.058,-123.071 183.274,-129.761 185.653,-123.177"/>
</a>
</g>
<text text-anchor="middle" x="358.5" y="-144.8" font-family="Times,serif" font-size="14.00">passengersOut [!finished&amp;&amp;empty]</text>
</g>
<!-- SpecificFlight_stateActiveWithPassengers_disembarking&#45;&gt;SpecificFlight_stateActiveWithPassengers_waitingForNextLeg -->
<g id="edge6" class="edge"><title>SpecificFlight_stateActiveWithPassengers_disembarking&#45;&gt;SpecificFlight_stateActiveWithPassengers_waitingForNextLeg</title>
<g id="a_edge6"><a xlink:title="disembarking passengersOut [!empty] &#45;&gt; waitingForNextLeg">
<path fill="none" stroke="black" d="M458.05,-210.262C458.212,-266.212 458.722,-442.889 458.92,-511.438"/>
<polygon fill="black" stroke="black" points="455.421,-511.852 458.95,-521.842 462.421,-511.832 455.421,-511.852"/>
</a>
</g>
<text text-anchor="middle" x="526.5" y="-362.3" font-family="Times,serif" font-size="14.00">passengersOut [!empty]</text>
</g>
<!-- SpecificFlight_state_completed -->
<g id="node11" class="node"><title>SpecificFlight_state_completed</title>
<path fill="none" stroke="black" d="M494.5,-123C494.5,-123 443.5,-123 443.5,-123 437.5,-123 431.5,-117 431.5,-111 431.5,-111 431.5,-99 431.5,-99 431.5,-93 437.5,-87 443.5,-87 443.5,-87 494.5,-87 494.5,-87 500.5,-87 506.5,-93 506.5,-99 506.5,-99 506.5,-111 506.5,-111 506.5,-117 500.5,-123 494.5,-123"/>
<text text-anchor="middle" x="469" y="-101.3" font-family="Times,serif" font-size="14.00">completed</text>
</g>
<!-- SpecificFlight_stateActiveWithPassengers_disembarking&#45;&gt;SpecificFlight_state_completed -->
<g id="edge14" class="edge"><title>SpecificFlight_stateActiveWithPassengers_disembarking&#45;&gt;SpecificFlight_state_completed</title>
<g id="a_edge14"><a xlink:title="disembarking passengersOut [finished&amp;&amp;empty] &#45;&gt; completed">
<path fill="none" stroke="black" d="M460.226,-173.799C461.732,-162.163 463.753,-146.548 465.475,-133.237"/>
<polygon fill="black" stroke="black" points="468.965,-133.542 466.777,-123.175 462.023,-132.644 468.965,-133.542"/>
</a>
</g>
<text text-anchor="middle" x="563" y="-144.8" font-family="Times,serif" font-size="14.00">passengersOut [finished&amp;&amp;empty]</text>
</g>
</g>
</svg>
