<?xml version="1.0" encoding="UTF-8" standalone="no"?>
<!DOCTYPE svg PUBLIC "-//W3C//DTD SVG 1.1//EN"
 "http://www.w3.org/Graphics/SVG/1.1/DTD/svg11.dtd">
<!-- Generated by graphviz version 2.39.20140502.0445 (20140502.0445)
 -->
<!-- Title: TcpIpSimulation Pages: 1 -->
<svg width="505pt" height="638pt"
 viewBox="0.00 0.00 504.50 638.40" xmlns="http://www.w3.org/2000/svg" xmlns:xlink="http://www.w3.org/1999/xlink">
<g id="graph0" class="graph" transform="scale(1 1) rotate(0) translate(4 634.4)">
<title>TcpIpSimulation</title>
<polygon fill="white" stroke="none" points="-4,4 -4,-634.4 500.5,-634.4 500.5,4 -4,4"/>
<!-- start_Tcp_connection -->
<g id="node1" class="node"><title>start_Tcp_connection</title>
<ellipse fill="black" stroke="black" cx="253.5" cy="-623.2" rx="7.2" ry="7.2"/>
</g>
<!-- Tcp_connection_Closed -->
<g id="node2" class="node"><title>Tcp_connection_Closed</title>
<path fill="none" stroke="black" d="M277.5,-579C277.5,-579 229.5,-579 229.5,-579 223.5,-579 217.5,-573 217.5,-567 217.5,-567 217.5,-555 217.5,-555 217.5,-549 223.5,-543 229.5,-543 229.5,-543 277.5,-543 277.5,-543 283.5,-543 289.5,-549 289.5,-555 289.5,-555 289.5,-567 289.5,-567 289.5,-573 283.5,-579 277.5,-579"/>
<text text-anchor="middle" x="253.5" y="-557.3" font-family="Times,serif" font-size="14.00">Closed</text>
</g>
<!-- start_Tcp_connection&#45;&gt;Tcp_connection_Closed -->
<g id="edge1" class="edge"><title>start_Tcp_connection&#45;&gt;Tcp_connection_Closed</title>
<g id="a_edge1"><a xlink:title="start &#160;&#45;&gt; Closed">
<path fill="none" stroke="black" d="M253.5,-615.758C253.5,-609.387 253.5,-599.197 253.5,-589.393"/>
<polygon fill="black" stroke="black" points="257,-589.105 253.5,-579.105 250,-589.105 257,-589.105"/>
</a>
</g>
</g>
<!-- Tcp_connection_Listen -->
<g id="node3" class="node"><title>Tcp_connection_Listen</title>
<path fill="none" stroke="black" d="M130.5,-492C130.5,-492 82.5,-492 82.5,-492 76.5,-492 70.5,-486 70.5,-480 70.5,-480 70.5,-468 70.5,-468 70.5,-462 76.5,-456 82.5,-456 82.5,-456 130.5,-456 130.5,-456 136.5,-456 142.5,-462 142.5,-468 142.5,-468 142.5,-480 142.5,-480 142.5,-486 136.5,-492 130.5,-492"/>
<text text-anchor="middle" x="106.5" y="-470.3" font-family="Times,serif" font-size="14.00">Listen</text>
</g>
<!-- Tcp_connection_Closed&#45;&gt;Tcp_connection_Listen -->
<g id="edge5" class="edge"><title>Tcp_connection_Closed&#45;&gt;Tcp_connection_Listen</title>
<g id="a_edge5"><a xlink:title="Closed passiveOpen &#45;&gt; Listen">
<path fill="none" stroke="black" d="M98.318,-501.977 97.4692,-510.115 98.407,-518.582 103.5,-525 117.463,-542.596 177.699,-552.17 217.462,-556.674"/>
<polygon fill="black" stroke="black" points="101.782,-502.496 100.17,-492.024 94.8997,-501.215 101.782,-502.496"/>
</a>
</g>
<text text-anchor="middle" x="139.5" y="-513.8" font-family="Times,serif" font-size="14.00">passiveOpen</text>
</g>
<!-- Tcp_connection_SYN_Sent -->
<g id="node5" class="node"><title>Tcp_connection_SYN_Sent</title>
<path fill="none" stroke="black" d="M284.5,-438C284.5,-438 232.5,-438 232.5,-438 226.5,-438 220.5,-432 220.5,-426 220.5,-426 220.5,-414 220.5,-414 220.5,-408 226.5,-402 232.5,-402 232.5,-402 284.5,-402 284.5,-402 290.5,-402 296.5,-408 296.5,-414 296.5,-414 296.5,-426 296.5,-426 296.5,-432 290.5,-438 284.5,-438"/>
<text text-anchor="middle" x="258.5" y="-416.3" font-family="Times,serif" font-size="14.00">SYN_Sent</text>
</g>
<!-- Tcp_connection_Closed&#45;&gt;Tcp_connection_SYN_Sent -->
<g id="edge7" class="edge"><title>Tcp_connection_Closed&#45;&gt;Tcp_connection_SYN_Sent</title>
<g id="a_edge7"><a xlink:title="Closed activeOpen / sendSyn(); &#45;&gt; SYN_Sent">
<path fill="none" stroke="black" d="M253.737,-542.873C253.897,-533.217 254.145,-520.934 254.5,-510 255.173,-489.261 256.239,-465.817 257.102,-448.198"/>
<polygon fill="black" stroke="black" points="260.605,-448.219 257.607,-438.057 253.614,-447.87 260.605,-448.219"/>
</a>
</g>
<text text-anchor="middle" x="322.5" y="-513.8" font-family="Times,serif" font-size="14.00">activeOpen / sendSyn();</text>
</g>
<!-- Tcp_connection_Listen&#45;&gt;Tcp_connection_Closed -->
<g id="edge2" class="edge"><title>Tcp_connection_Listen&#45;&gt;Tcp_connection_Closed</title>
<g id="a_edge2"><a xlink:title="Listen close &#45;&gt; Closed">
<path fill="none" stroke="black" d="M142.686,-491.06C154.603,-496.688 167.795,-503.288 179.5,-510 183.835,-512.486 202.567,-525.146 220.098,-537.103"/>
<polygon fill="black" stroke="black" points="218.308,-540.119 228.539,-542.869 222.256,-534.339 218.308,-540.119"/>
</a>
</g>
<text text-anchor="middle" x="216" y="-513.8" font-family="Times,serif" font-size="14.00">close</text>
</g>
<!-- Tcp_connection_SYN_Received -->
<g id="node4" class="node"><title>Tcp_connection_SYN_Received</title>
<path fill="none" stroke="black" d="M157.5,-384C157.5,-384 77.5,-384 77.5,-384 71.5,-384 65.5,-378 65.5,-372 65.5,-372 65.5,-360 65.5,-360 65.5,-354 71.5,-348 77.5,-348 77.5,-348 157.5,-348 157.5,-348 163.5,-348 169.5,-354 169.5,-360 169.5,-360 169.5,-372 169.5,-372 169.5,-378 163.5,-384 157.5,-384"/>
<text text-anchor="middle" x="117.5" y="-362.3" font-family="Times,serif" font-size="14.00">SYN_Received</text>
</g>
<!-- Tcp_connection_Listen&#45;&gt;Tcp_connection_SYN_Received -->
<g id="edge6" class="edge"><title>Tcp_connection_Listen&#45;&gt;Tcp_connection_SYN_Received</title>
<g id="a_edge6"><a xlink:title="Listen syn / sendSynAck(); &#45;&gt; SYN_Received">
<path fill="none" stroke="black" d="M99.8225,-393.152 98.4773,-396.045 97.3246,-399.023 96.5,-402 91.5158,-419.995 95.8057,-441.278 100.213,-455.818"/>
<polygon fill="black" stroke="black" points="102.926,-394.771 104.609,-384.311 96.7702,-391.439 102.926,-394.771"/>
</a>
</g>
<text text-anchor="middle" x="154" y="-416.3" font-family="Times,serif" font-size="14.00">syn / sendSynAck();</text>
</g>
<!-- Tcp_connection_Established -->
<g id="node6" class="node"><title>Tcp_connection_Established</title>
<path fill="none" stroke="black" d="M216,-297C216,-297 159,-297 159,-297 153,-297 147,-291 147,-285 147,-285 147,-273 147,-273 147,-267 153,-261 159,-261 159,-261 216,-261 216,-261 222,-261 228,-267 228,-273 228,-273 228,-285 228,-285 228,-291 222,-297 216,-297"/>
<text text-anchor="middle" x="187.5" y="-275.3" font-family="Times,serif" font-size="14.00">Established</text>
</g>
<!-- Tcp_connection_SYN_Received&#45;&gt;Tcp_connection_Established -->
<g id="edge8" class="edge"><title>Tcp_connection_SYN_Received&#45;&gt;Tcp_connection_Established</title>
<g id="a_edge8"><a xlink:title="SYN_Received ack &#45;&gt; Established">
<path fill="none" stroke="black" d="M131.666,-347.799C141.723,-335.587 155.389,-318.992 166.683,-305.278"/>
<polygon fill="black" stroke="black" points="169.7,-307.12 173.356,-297.175 164.297,-302.67 169.7,-307.12"/>
</a>
</g>
<text text-anchor="middle" x="167.5" y="-318.8" font-family="Times,serif" font-size="14.00">ack</text>
</g>
<!-- Tcp_connection_SYN_Sent&#45;&gt;Tcp_connection_Established -->
<g id="edge9" class="edge"><title>Tcp_connection_SYN_Sent&#45;&gt;Tcp_connection_Established</title>
<g id="a_edge9"><a xlink:title="SYN_Sent synAck / sendAck(); &#45;&gt; Established">
<path fill="none" stroke="black" d="M200.992,-306.414 215.338,-334.5 237.604,-378.092 249.794,-401.956"/>
<polygon fill="black" stroke="black" points="203.943,-304.497 196.277,-297.184 197.709,-307.681 203.943,-304.497"/>
</a>
</g>
<text text-anchor="middle" x="299.5" y="-362.3" font-family="Times,serif" font-size="14.00">synAck / sendAck();</text>
</g>
<!-- Tcp_connection_Established&#45;&gt;Tcp_connection_Established -->
<g id="edge10" class="edge"><title>Tcp_connection_Established&#45;&gt;Tcp_connection_Established</title>
<g id="a_edge10"><a xlink:title="Established data / sendData(); &#45;&gt; Established">
<path fill="none" stroke="black" d="M228.235,-286.767C238.401,-286.224 246,-283.635 246,-279 246,-276.103 243.032,-274.006 238.324,-272.707"/>
<polygon fill="black" stroke="black" points="238.636,-269.216 228.235,-271.233 237.624,-276.142 238.636,-269.216"/>
</a>
</g>
<text text-anchor="middle" x="296" y="-275.3" font-family="Times,serif" font-size="14.00">data / sendData();</text>
</g>
<!-- Tcp_connection_Close_Wait -->
<g id="node7" class="node"><title>Tcp_connection_Close_Wait</title>
<path fill="none" stroke="black" d="M280,-210C280,-210 221,-210 221,-210 215,-210 209,-204 209,-198 209,-198 209,-186 209,-186 209,-180 215,-174 221,-174 221,-174 280,-174 280,-174 286,-174 292,-180 292,-186 292,-186 292,-198 292,-198 292,-204 286,-210 280,-210"/>
<text text-anchor="middle" x="250.5" y="-188.3" font-family="Times,serif" font-size="14.00">Close_Wait</text>
</g>
<!-- Tcp_connection_Established&#45;&gt;Tcp_connection_Close_Wait -->
<g id="edge11" class="edge"><title>Tcp_connection_Established&#45;&gt;Tcp_connection_Close_Wait</title>
<g id="a_edge11"><a xlink:title="Established fin / sendAck(); &#45;&gt; Close_Wait">
<path fill="none" stroke="black" d="M215.701,-260.727C222.244,-255.668 228.692,-249.678 233.5,-243 238.343,-236.275 241.885,-228.065 244.441,-220.258"/>
<polygon fill="black" stroke="black" points="247.88,-220.961 247.261,-210.385 241.149,-219.039 247.88,-220.961"/>
</a>
</g>
<text text-anchor="middle" x="285.5" y="-231.8" font-family="Times,serif" font-size="14.00">fin / sendAck();</text>
</g>
<!-- Tcp_connection_FIN_Wait_1 -->
<g id="node9" class="node"><title>Tcp_connection_FIN_Wait_1</title>
<path fill="none" stroke="black" d="M140,-210C140,-210 77,-210 77,-210 71,-210 65,-204 65,-198 65,-198 65,-186 65,-186 65,-180 71,-174 77,-174 77,-174 140,-174 140,-174 146,-174 152,-180 152,-186 152,-186 152,-198 152,-198 152,-204 146,-210 140,-210"/>
<text text-anchor="middle" x="108.5" y="-188.3" font-family="Times,serif" font-size="14.00">FIN_Wait_1</text>
</g>
<!-- Tcp_connection_Established&#45;&gt;Tcp_connection_FIN_Wait_1 -->
<g id="edge13" class="edge"><title>Tcp_connection_Established&#45;&gt;Tcp_connection_FIN_Wait_1</title>
<g id="a_edge13"><a xlink:title="Established activeClose / sendFin(); &#45;&gt; FIN_Wait_1">
<path fill="none" stroke="black" d="M93.5962,-219.796 91.1811,-227.762 90.7946,-236.175 95.5,-243 107.043,-259.742 127.734,-268.482 146.574,-273.042"/>
<polygon fill="black" stroke="black" points="96.8751,-221.022 97.3423,-210.438 90.3765,-218.421 96.8751,-221.022"/>
</a>
</g>
<text text-anchor="middle" x="162.5" y="-231.8" font-family="Times,serif" font-size="14.00">activeClose / sendFin();</text>
</g>
<!-- Tcp_connection_Last_ACK -->
<g id="node8" class="node"><title>Tcp_connection_Last_ACK</title>
<path fill="none" stroke="black" d="M410,-123C410,-123 357,-123 357,-123 351,-123 345,-117 345,-111 345,-111 345,-99 345,-99 345,-93 351,-87 357,-87 357,-87 410,-87 410,-87 416,-87 422,-93 422,-99 422,-99 422,-111 422,-111 422,-117 416,-123 410,-123"/>
<text text-anchor="middle" x="383.5" y="-101.3" font-family="Times,serif" font-size="14.00">Last_ACK</text>
</g>
<!-- Tcp_connection_Close_Wait&#45;&gt;Tcp_connection_Last_ACK -->
<g id="edge12" class="edge"><title>Tcp_connection_Close_Wait&#45;&gt;Tcp_connection_Last_ACK</title>
<g id="a_edge12"><a xlink:title="Close_Wait passiveClose / sendFin(); &#45;&gt; Last_ACK">
<path fill="none" stroke="black" d="M244.607,-173.943C242.105,-163.354 241.216,-150.081 248.5,-141 271.576,-112.233 293.879,-132.546 329.5,-123 331.387,-122.494 333.306,-121.965 335.242,-121.418"/>
<polygon fill="black" stroke="black" points="336.361,-124.737 344.977,-118.572 334.397,-118.019 336.361,-124.737"/>
</a>
</g>
<text text-anchor="middle" x="319.5" y="-144.8" font-family="Times,serif" font-size="14.00">passiveClose / sendFin();</text>
</g>
<!-- Tcp_connection_Last_ACK&#45;&gt;Tcp_connection_Closed -->
<g id="edge3" class="edge"><title>Tcp_connection_Last_ACK&#45;&gt;Tcp_connection_Closed</title>
<g id="a_edge3"><a xlink:title="Last_ACK ack &#45;&gt; Closed">
<path fill="none" stroke="black" d="M299.868,-559.519 329.468,-556.751 366.629,-548.331 390.5,-525 407.003,-508.87 404.5,-498.077 404.5,-475 404.5,-475 404.5,-475 404.5,-191 404.5,-166.983 396.501,-140.234 390.376,-123.273"/>
<polygon fill="black" stroke="black" points="299.458,-556.04 289.748,-560.278 299.982,-563.02 299.458,-556.04"/>
</a>
</g>
<text text-anchor="middle" x="414.5" y="-318.8" font-family="Times,serif" font-size="14.00">ack</text>
</g>
<!-- Tcp_connection_FIN_Wait_2 -->
<g id="node10" class="node"><title>Tcp_connection_FIN_Wait_2</title>
<path fill="none" stroke="black" d="M75,-123C75,-123 12,-123 12,-123 6,-123 0,-117 0,-111 0,-111 0,-99 0,-99 0,-93 6,-87 12,-87 12,-87 75,-87 75,-87 81,-87 87,-93 87,-99 87,-99 87,-111 87,-111 87,-117 81,-123 75,-123"/>
<text text-anchor="middle" x="43.5" y="-101.3" font-family="Times,serif" font-size="14.00">FIN_Wait_2</text>
</g>
<!-- Tcp_connection_FIN_Wait_1&#45;&gt;Tcp_connection_FIN_Wait_2 -->
<g id="edge14" class="edge"><title>Tcp_connection_FIN_Wait_1&#45;&gt;Tcp_connection_FIN_Wait_2</title>
<g id="a_edge14"><a xlink:title="FIN_Wait_1 ack &#45;&gt; FIN_Wait_2">
<path fill="none" stroke="black" d="M62.8299,-131.278 73.3175,-144.992 86.0073,-161.587 95.3463,-173.799"/>
<polygon fill="black" stroke="black" points="65.489,-128.993 56.6342,-123.175 59.9284,-133.245 65.489,-128.993"/>
</a>
</g>
<text text-anchor="middle" x="90.5" y="-144.8" font-family="Times,serif" font-size="14.00">ack</text>
</g>
<!-- Tcp_connection_Closing -->
<g id="node11" class="node"><title>Tcp_connection_Closing</title>
<path fill="none" stroke="black" d="M165.5,-123C165.5,-123 117.5,-123 117.5,-123 111.5,-123 105.5,-117 105.5,-111 105.5,-111 105.5,-99 105.5,-99 105.5,-93 111.5,-87 117.5,-87 117.5,-87 165.5,-87 165.5,-87 171.5,-87 177.5,-93 177.5,-99 177.5,-99 177.5,-111 177.5,-111 177.5,-117 171.5,-123 165.5,-123"/>
<text text-anchor="middle" x="141.5" y="-101.3" font-family="Times,serif" font-size="14.00">Closing</text>
</g>
<!-- Tcp_connection_FIN_Wait_1&#45;&gt;Tcp_connection_Closing -->
<g id="edge15" class="edge"><title>Tcp_connection_FIN_Wait_1&#45;&gt;Tcp_connection_Closing</title>
<g id="a_edge15"><a xlink:title="FIN_Wait_1 fin / sendAck(); &#45;&gt; Closing">
<path fill="none" stroke="black" d="M106.87,-173.739C106.577,-163.819 107.327,-151.319 111.5,-141 112.903,-137.531 114.793,-134.162 116.947,-130.972"/>
<polygon fill="black" stroke="black" points="119.763,-133.053 123.109,-123.001 114.224,-128.772 119.763,-133.053"/>
</a>
</g>
<text text-anchor="middle" x="155.5" y="-144.8" font-family="Times,serif" font-size="14.00">fin / sendAck();</text>
</g>
<!-- Tcp_connection_Timed_Wait -->
<g id="node12" class="node"><title>Tcp_connection_Timed_Wait</title>
<path fill="none" stroke="black" d="M224,-36C224,-36 161,-36 161,-36 155,-36 149,-30 149,-24 149,-24 149,-12 149,-12 149,-6 155,-0 161,-0 161,-0 224,-0 224,-0 230,-0 236,-6 236,-12 236,-12 236,-24 236,-24 236,-30 230,-36 224,-36"/>
<text text-anchor="middle" x="192.5" y="-14.3" font-family="Times,serif" font-size="14.00">Timed_Wait</text>
</g>
<!-- Tcp_connection_FIN_Wait_1&#45;&gt;Tcp_connection_Timed_Wait -->
<g id="edge16" class="edge"><title>Tcp_connection_FIN_Wait_1&#45;&gt;Tcp_connection_Timed_Wait</title>
<g id="a_edge16"><a xlink:title="FIN_Wait_1 finAck / sendAck(); &#45;&gt; Timed_Wait">
<path fill="none" stroke="black" d="M152.299,-185.07C170.008,-180.28 188.767,-171.627 199.5,-156 221.813,-123.512 212.353,-75.777 202.874,-46.0838"/>
<polygon fill="black" stroke="black" points="206.109,-44.726 199.573,-36.3879 199.483,-46.9823 206.109,-44.726"/>
</a>
</g>
<text text-anchor="middle" x="269.5" y="-101.3" font-family="Times,serif" font-size="14.00">finAck / sendAck();</text>
</g>
<!-- Tcp_connection_FIN_Wait_2&#45;&gt;Tcp_connection_Timed_Wait -->
<g id="edge17" class="edge"><title>Tcp_connection_FIN_Wait_2&#45;&gt;Tcp_connection_Timed_Wait</title>
<g id="a_edge17"><a xlink:title="FIN_Wait_2 fin / sendAck(); &#45;&gt; Timed_Wait">
<path fill="none" stroke="black" d="M49.5604,-86.8884C54.2432,-76.0013 61.7563,-62.416 72.5,-54 91.4631,-39.1454 116.542,-30.5924 138.868,-25.669"/>
<polygon fill="black" stroke="black" points="139.786,-29.0546 148.9,-23.6527 138.407,-22.1918 139.786,-29.0546"/>
</a>
</g>
<text text-anchor="middle" x="116.5" y="-57.8" font-family="Times,serif" font-size="14.00">fin / sendAck();</text>
</g>
<!-- Tcp_connection_Closing&#45;&gt;Tcp_connection_Timed_Wait -->
<g id="edge18" class="edge"><title>Tcp_connection_Closing&#45;&gt;Tcp_connection_Timed_Wait</title>
<g id="a_edge18"><a xlink:title="Closing ack &#45;&gt; Timed_Wait">
<path fill="none" stroke="black" d="M151.821,-86.799C159.01,-74.8169 168.73,-58.6168 176.866,-45.0569"/>
<polygon fill="black" stroke="black" points="180.051,-46.5511 182.195,-36.1754 174.049,-42.9496 180.051,-46.5511"/>
</a>
</g>
<text text-anchor="middle" x="180.5" y="-57.8" font-family="Times,serif" font-size="14.00">ack</text>
</g>
<!-- Tcp_connection_Timed_Wait&#45;&gt;Tcp_connection_Closed -->
<g id="edge4" class="edge"><title>Tcp_connection_Timed_Wait&#45;&gt;Tcp_connection_Closed</title>
<g id="a_edge4"><a xlink:title="Timed_Wait timeOut &#45;&gt; Closed">
<path fill="none" stroke="black" d="M236.266,-24.2612C309.875,-34.3424 450.5,-59.4338 450.5,-104 450.5,-475 450.5,-475 450.5,-475 450.5,-540.359 357.952,-556.055 299.723,-559.461"/>
<polygon fill="black" stroke="black" points="299.452,-555.97 289.633,-559.95 299.791,-562.962 299.452,-555.97"/>
</a>
</g>
<text text-anchor="middle" x="473.5" y="-275.3" font-family="Times,serif" font-size="14.00">timeOut</text>
</g>
</g>
</svg>
