<?xml version="1.0" encoding="UTF-8" standalone="no"?>
<!DOCTYPE svg PUBLIC "-//W3C//DTD SVG 1.1//EN"
 "http://www.w3.org/Graphics/SVG/1.1/DTD/svg11.dtd">
<!-- Generated by graphviz version 2.36.0 (20140111.2315)
 -->
<!-- Title: TelephoneSystem2 Pages: 1 -->
<svg width="1291pt" height="327pt"
 viewBox="0.00 0.00 1291.00 327.00" xmlns="http://www.w3.org/2000/svg" xmlns:xlink="http://www.w3.org/1999/xlink">
<g id="graph0" class="graph" transform="scale(1 1) rotate(0) translate(4 323)">
<title>TelephoneSystem2</title>
<polygon fill="white" stroke="none" points="-4,4 -4,-323 1287,-323 1287,4 -4,4"/>
<g id="clust1" class="cluster"><title>clusterPhone_ringerSound</title>
<polygon fill="none" stroke="black" stroke-width="0.5" points="8,-96 8,-311 546,-311 546,-96 8,-96"/>
<text text-anchor="middle" x="277" y="-295.8" font-family="Times,serif" font-size="14.00">sm Phone ringerSound</text>
</g>
<g id="clust2" class="cluster"><title>clusterPhone_screenLight</title>
<polygon fill="none" stroke="black" stroke-width="0.5" points="554,-8 554,-311 927,-311 927,-8 554,-8"/>
<text text-anchor="middle" x="740.5" y="-295.8" font-family="Times,serif" font-size="14.00">sm Phone screenLight</text>
</g>
<g id="clust3" class="cluster"><title>clusterPhone_vibration</title>
<polygon fill="none" stroke="black" stroke-width="0.5" points="935,-96 935,-311 1275,-311 1275,-96 935,-96"/>
<text text-anchor="middle" x="1105" y="-295.8" font-family="Times,serif" font-size="14.00">sm Phone vibration</text>
</g>
<!-- start_Phone_ringerSound -->
<g id="node1" class="node"><title>start_Phone_ringerSound</title>
<ellipse fill="black" stroke="black" cx="328" cy="-273" rx="7.2" ry="7.2"/>
</g>
<!-- Phone_ringerSound_Off -->
<g id="node2" class="node"><title>Phone_ringerSound_Off</title>
<path fill="none" stroke="black" d="M352,-228C352,-228 304,-228 304,-228 298,-228 292,-222 292,-216 292,-216 292,-204 292,-204 292,-198 298,-192 304,-192 304,-192 352,-192 352,-192 358,-192 364,-198 364,-204 364,-204 364,-216 364,-216 364,-222 358,-228 352,-228"/>
<text text-anchor="middle" x="328" y="-206.3" font-family="Times,serif" font-size="14.00">Off</text>
</g>
<!-- start_Phone_ringerSound&#45;&gt;Phone_ringerSound_Off -->
<g id="edge1" class="edge"><title>start_Phone_ringerSound&#45;&gt;Phone_ringerSound_Off</title>
<path fill="none" stroke="black" d="M328,-265.472C328,-258.902 328,-248.324 328,-238.229"/>
<polygon fill="black" stroke="black" points="331.5,-238.073 328,-228.073 324.5,-238.073 331.5,-238.073"/>
</g>
<!-- Phone_ringerSound_On -->
<g id="node3" class="node"><title>Phone_ringerSound_On</title>
<path fill="none" stroke="black" d="M352,-140C352,-140 304,-140 304,-140 298,-140 292,-134 292,-128 292,-128 292,-116 292,-116 292,-110 298,-104 304,-104 304,-104 352,-104 352,-104 358,-104 364,-110 364,-116 364,-116 364,-128 364,-128 364,-134 358,-140 352,-140"/>
<text text-anchor="middle" x="328" y="-118.3" font-family="Times,serif" font-size="14.00">On</text>
</g>
<!-- Phone_ringerSound_Off&#45;&gt;Phone_ringerSound_On -->
<g id="edge6" class="edge"><title>Phone_ringerSound_Off&#45;&gt;Phone_ringerSound_On</title>
<path fill="none" stroke="black" d="M291.799,-207.053C220.342,-202.84 66.687,-191.794 51,-174 46.2974,-168.666 46.2974,-163.334 51,-158 65.9823,-141.006 206.816,-130.166 281.692,-125.556"/>
<polygon fill="black" stroke="black" points="282.028,-129.042 291.799,-124.947 281.607,-122.055 282.028,-129.042"/>
<text text-anchor="middle" x="140.5" y="-162.3" font-family="Times,serif" font-size="14.00">callReceived [!permanentMute]</text>
</g>
<!-- Phone_ringerSound_On&#45;&gt;Phone_ringerSound_Off -->
<g id="edge2" class="edge"><title>Phone_ringerSound_On&#45;&gt;Phone_ringerSound_Off</title>
<path fill="none" stroke="black" d="M291.986,-129.127C259.996,-136.251 220.646,-150.189 237,-174 247.254,-188.93 264.833,-197.494 281.824,-202.405"/>
<polygon fill="black" stroke="black" points="281.147,-205.844 291.7,-204.895 282.859,-199.056 281.147,-205.844"/>
<text text-anchor="middle" x="271.5" y="-162.3" font-family="Times,serif" font-size="14.00">silentButton</text>
</g>
<!-- Phone_ringerSound_On&#45;&gt;Phone_ringerSound_Off -->
<g id="edge3" class="edge"><title>Phone_ringerSound_On&#45;&gt;Phone_ringerSound_Off</title>
<path fill="none" stroke="black" d="M328,-140.084C328,-151.861 328,-167.774 328,-181.342"/>
<polygon fill="black" stroke="black" points="324.5,-181.597 328,-191.597 331.5,-181.597 324.5,-181.597"/>
<text text-anchor="middle" x="349" y="-162.3" font-family="Times,serif" font-size="14.00">pickUp</text>
</g>
<!-- Phone_ringerSound_On&#45;&gt;Phone_ringerSound_Off -->
<g id="edge4" class="edge"><title>Phone_ringerSound_On&#45;&gt;Phone_ringerSound_Off</title>
<path fill="none" stroke="black" d="M356.282,-140.031C367.74,-149.258 377.017,-161.344 371,-174 369.14,-177.912 366.605,-181.53 363.691,-184.837"/>
<polygon fill="black" stroke="black" points="361.072,-182.501 356.338,-191.979 365.95,-187.522 361.072,-182.501"/>
<text text-anchor="middle" x="400.5" y="-162.3" font-family="Times,serif" font-size="14.00">rejectCall</text>
</g>
<!-- Phone_ringerSound_On&#45;&gt;Phone_ringerSound_Off -->
<g id="edge5" class="edge"><title>Phone_ringerSound_On&#45;&gt;Phone_ringerSound_Off</title>
<path fill="none" stroke="black" d="M364.076,-127.318C401.369,-133.334 451.597,-146.728 432,-174 418.756,-192.431 395.316,-201.287 374.038,-205.489"/>
<polygon fill="black" stroke="black" points="373.421,-202.044 364.14,-207.155 374.583,-208.946 373.421,-202.044"/>
<text text-anchor="middle" x="470.5" y="-162.3" font-family="Times,serif" font-size="14.00">unanswered</text>
</g>
<!-- start_Phone_screenLight -->
<g id="node4" class="node"><title>start_Phone_screenLight</title>
<ellipse fill="black" stroke="black" cx="763" cy="-273" rx="7.2" ry="7.2"/>
</g>
<!-- Phone_screenLight_Off -->
<g id="node5" class="node"><title>Phone_screenLight_Off</title>
<path fill="none" stroke="black" d="M787,-228C787,-228 739,-228 739,-228 733,-228 727,-222 727,-216 727,-216 727,-204 727,-204 727,-198 733,-192 739,-192 739,-192 787,-192 787,-192 793,-192 799,-198 799,-204 799,-204 799,-216 799,-216 799,-222 793,-228 787,-228"/>
<text text-anchor="middle" x="763" y="-206.3" font-family="Times,serif" font-size="14.00">Off</text>
</g>
<!-- start_Phone_screenLight&#45;&gt;Phone_screenLight_Off -->
<g id="edge7" class="edge"><title>start_Phone_screenLight&#45;&gt;Phone_screenLight_Off</title>
<path fill="none" stroke="black" d="M763,-265.472C763,-258.902 763,-248.324 763,-238.229"/>
<polygon fill="black" stroke="black" points="766.5,-238.073 763,-228.073 759.5,-238.073 766.5,-238.073"/>
</g>
<!-- Phone_screenLight_On -->
<g id="node6" class="node"><title>Phone_screenLight_On</title>
<path fill="none" stroke="black" d="M622,-140C622,-140 574,-140 574,-140 568,-140 562,-134 562,-128 562,-128 562,-116 562,-116 562,-110 568,-104 574,-104 574,-104 622,-104 622,-104 628,-104 634,-110 634,-116 634,-116 634,-128 634,-128 634,-134 628,-140 622,-140"/>
<text text-anchor="middle" x="598" y="-118.3" font-family="Times,serif" font-size="14.00">On</text>
</g>
<!-- Phone_screenLight_Off&#45;&gt;Phone_screenLight_On -->
<g id="edge11" class="edge"><title>Phone_screenLight_Off&#45;&gt;Phone_screenLight_On</title>
<path fill="none" stroke="black" d="M726.882,-207.33C679.196,-204.282 599.135,-195.955 581,-174 575.151,-166.919 576.311,-157.746 579.955,-149.135"/>
<polygon fill="black" stroke="black" points="583.128,-150.621 584.671,-140.139 576.928,-147.371 583.128,-150.621"/>
<text text-anchor="middle" x="617.5" y="-162.3" font-family="Times,serif" font-size="14.00">callReceived</text>
</g>
<!-- Phone_screenLight_Off&#45;&gt;Phone_screenLight_On -->
<g id="edge12" class="edge"><title>Phone_screenLight_Off&#45;&gt;Phone_screenLight_On</title>
<path fill="none" stroke="black" d="M726.62,-196.247C710.984,-190.247 692.727,-182.534 677,-174 666.055,-168.061 664.394,-164.858 654,-158 647.75,-153.876 641.044,-149.579 634.521,-145.464"/>
<polygon fill="black" stroke="black" points="636.133,-142.344 625.801,-140.001 632.417,-148.276 636.133,-142.344"/>
<text text-anchor="middle" x="698" y="-162.3" font-family="Times,serif" font-size="14.00">pickUp</text>
</g>
<!-- Phone_screenLight_Off&#45;&gt;Phone_screenLight_On -->
<g id="edge13" class="edge"><title>Phone_screenLight_Off&#45;&gt;Phone_screenLight_On</title>
<path fill="none" stroke="black" d="M752.322,-191.89C744.441,-180.642 732.727,-166.485 719,-158 691.309,-140.884 679.213,-149.247 648,-140 646.599,-139.585 645.179,-139.156 643.747,-138.716"/>
<polygon fill="black" stroke="black" points="644.803,-135.379 634.213,-135.69 642.685,-142.051 644.803,-135.379"/>
<text text-anchor="middle" x="748.5" y="-162.3" font-family="Times,serif" font-size="14.00">dial</text>
</g>
<!-- Phone_screenLight_On&#45;&gt;Phone_screenLight_Off -->
<g id="edge8" class="edge"><title>Phone_screenLight_On&#45;&gt;Phone_screenLight_Off</title>
<path fill="none" stroke="black" d="M634.103,-136.093C638.744,-137.534 643.46,-138.882 648,-140 673.116,-146.186 746.183,-138.346 763,-158 768.566,-164.505 769.927,-173.371 769.466,-181.887"/>
<polygon fill="black" stroke="black" points="765.981,-181.55 768.161,-191.919 772.922,-182.454 765.981,-181.55"/>
<text text-anchor="middle" x="792.5" y="-162.3" font-family="Times,serif" font-size="14.00">hangUp</text>
</g>
<!-- Phone_screenLight_Dimmed -->
<g id="node7" class="node"><title>Phone_screenLight_Dimmed</title>
<path fill="none" stroke="black" d="M825,-52C825,-52 777,-52 777,-52 771,-52 765,-46 765,-40 765,-40 765,-28 765,-28 765,-22 771,-16 777,-16 777,-16 825,-16 825,-16 831,-16 837,-22 837,-28 837,-28 837,-40 837,-40 837,-46 831,-52 825,-52"/>
<text text-anchor="middle" x="801" y="-30.3" font-family="Times,serif" font-size="14.00">Dimmed</text>
</g>
<!-- Phone_screenLight_On&#45;&gt;Phone_screenLight_Dimmed -->
<g id="edge17" class="edge"><title>Phone_screenLight_On&#45;&gt;Phone_screenLight_Dimmed</title>
<path fill="none" stroke="black" d="M582.553,-103.933C574.802,-93.2645 568.657,-79.7481 577,-70 599.394,-43.8355 695.839,-37.0871 754.634,-35.4362"/>
<polygon fill="black" stroke="black" points="754.881,-38.9313 764.793,-35.1908 754.712,-31.9334 754.881,-38.9313"/>
<text text-anchor="middle" x="612" y="-74.3" font-family="Times,serif" font-size="14.00">after(30000)</text>
</g>
<!-- Phone_screenLight_Dimmed&#45;&gt;Phone_screenLight_Off -->
<g id="edge9" class="edge"><title>Phone_screenLight_Dimmed&#45;&gt;Phone_screenLight_Off</title>
<path fill="none" stroke="black" d="M828.926,-52.0029C842.217,-62.1486 853.208,-75.1303 843,-86 818.765,-111.808 708.235,-70.1925 684,-96 670.613,-110.255 671.118,-125.287 684,-140 723.873,-185.543 779.127,-112.457 819,-158 828.095,-168.388 820.309,-178.835 807.959,-187.544"/>
<polygon fill="black" stroke="black" points="805.905,-184.701 799.316,-192.998 809.64,-190.621 805.905,-184.701"/>
<text text-anchor="middle" x="706.5" y="-118.3" font-family="Times,serif" font-size="14.00">hangUp</text>
</g>
<!-- Phone_screenLight_Dimmed&#45;&gt;Phone_screenLight_Off -->
<g id="edge10" class="edge"><title>Phone_screenLight_Dimmed&#45;&gt;Phone_screenLight_Off</title>
<path fill="none" stroke="black" d="M834.635,-52.0815C849.455,-61.8088 861.405,-74.3456 851,-86 824.785,-115.363 789.215,-66.6369 763,-96 749.976,-110.588 751.224,-124.388 763,-140 780.536,-163.248 808.464,-134.752 826,-158 835.724,-170.892 824.073,-182.473 808.255,-191.329"/>
<polygon fill="black" stroke="black" points="806.475,-188.307 799.148,-195.959 809.648,-194.547 806.475,-188.307"/>
<text text-anchor="middle" x="847" y="-118.3" font-family="Times,serif" font-size="14.00">after(60000) [!callInProgress]</text>
</g>
<!-- Phone_screenLight_Dimmed&#45;&gt;Phone_screenLight_On -->
<g id="edge14" class="edge"><title>Phone_screenLight_Dimmed&#45;&gt;Phone_screenLight_On</title>
<path fill="none" stroke="black" d="M764.817,-41.5568C738.76,-47.085 703.199,-56.3124 674,-70 662.725,-75.2855 661.307,-79.0129 651,-86 645.174,-89.9491 638.959,-94.1048 632.91,-98.1184"/>
<polygon fill="black" stroke="black" points="630.643,-95.4215 624.232,-103.857 634.504,-101.26 630.643,-95.4215"/>
<text text-anchor="middle" x="710.5" y="-74.3" font-family="Times,serif" font-size="14.00">callReceived</text>
</g>
<!-- Phone_screenLight_Dimmed&#45;&gt;Phone_screenLight_On -->
<g id="edge15" class="edge"><title>Phone_screenLight_Dimmed&#45;&gt;Phone_screenLight_On</title>
<path fill="none" stroke="black" d="M785.164,-52.1877C772.597,-65.3845 755.737,-82.0061 747,-86 706.779,-104.385 690.475,-83.6868 648,-96 644.385,-97.0479 640.718,-98.3521 637.097,-99.8108"/>
<polygon fill="black" stroke="black" points="635.425,-96.7231 627.69,-103.963 638.252,-103.127 635.425,-96.7231"/>
<text text-anchor="middle" x="788" y="-74.3" font-family="Times,serif" font-size="14.00">pickUp</text>
</g>
<!-- Phone_screenLight_Dimmed&#45;&gt;Phone_screenLight_On -->
<g id="edge16" class="edge"><title>Phone_screenLight_Dimmed&#45;&gt;Phone_screenLight_On</title>
<path fill="none" stroke="black" d="M811.549,-52.1985C816.809,-63.1955 820.441,-77.0283 812,-86 799.49,-99.296 665.632,-91.2666 648,-96 644.207,-97.0183 640.363,-98.3394 636.58,-99.8422"/>
<polygon fill="black" stroke="black" points="635.118,-96.6618 627.364,-103.883 637.928,-103.073 635.118,-96.6618"/>
<text text-anchor="middle" x="828.5" y="-74.3" font-family="Times,serif" font-size="14.00">dial</text>
</g>
<!-- start_Phone_vibration -->
<g id="node8" class="node"><title>start_Phone_vibration</title>
<ellipse fill="black" stroke="black" cx="1089" cy="-273" rx="7.2" ry="7.2"/>
</g>
<!-- Phone_vibration_Off -->
<g id="node9" class="node"><title>Phone_vibration_Off</title>
<path fill="none" stroke="black" d="M1113,-228C1113,-228 1065,-228 1065,-228 1059,-228 1053,-222 1053,-216 1053,-216 1053,-204 1053,-204 1053,-198 1059,-192 1065,-192 1065,-192 1113,-192 1113,-192 1119,-192 1125,-198 1125,-204 1125,-204 1125,-216 1125,-216 1125,-222 1119,-228 1113,-228"/>
<text text-anchor="middle" x="1089" y="-206.3" font-family="Times,serif" font-size="14.00">Off</text>
</g>
<!-- start_Phone_vibration&#45;&gt;Phone_vibration_Off -->
<g id="edge18" class="edge"><title>start_Phone_vibration&#45;&gt;Phone_vibration_Off</title>
<path fill="none" stroke="black" d="M1089,-265.472C1089,-258.902 1089,-248.324 1089,-238.229"/>
<polygon fill="black" stroke="black" points="1092.5,-238.073 1089,-228.073 1085.5,-238.073 1092.5,-238.073"/>
</g>
<!-- Phone_vibration_On -->
<g id="node10" class="node"><title>Phone_vibration_On</title>
<path fill="none" stroke="black" d="M1113,-140C1113,-140 1065,-140 1065,-140 1059,-140 1053,-134 1053,-128 1053,-128 1053,-116 1053,-116 1053,-110 1059,-104 1065,-104 1065,-104 1113,-104 1113,-104 1119,-104 1125,-110 1125,-116 1125,-116 1125,-128 1125,-128 1125,-134 1119,-140 1113,-140"/>
<text text-anchor="middle" x="1089" y="-118.3" font-family="Times,serif" font-size="14.00">On</text>
</g>
<!-- Phone_vibration_Off&#45;&gt;Phone_vibration_On -->
<g id="edge22" class="edge"><title>Phone_vibration_Off&#45;&gt;Phone_vibration_On</title>
<path fill="none" stroke="black" d="M1052.98,-208.026C1027.8,-205.228 995.797,-196.972 979,-174 959.611,-147.483 1004.74,-134.344 1042.93,-128.126"/>
<polygon fill="black" stroke="black" points="1043.58,-131.567 1052.95,-126.62 1042.54,-124.645 1043.58,-131.567"/>
<text text-anchor="middle" x="1015.5" y="-162.3" font-family="Times,serif" font-size="14.00">callReceived</text>
</g>
<!-- Phone_vibration_On&#45;&gt;Phone_vibration_Off -->
<g id="edge19" class="edge"><title>Phone_vibration_On&#45;&gt;Phone_vibration_Off</title>
<path fill="none" stroke="black" d="M1069.14,-140.113C1060.58,-149.645 1053.44,-161.986 1058,-174 1059.28,-177.366 1061.04,-180.615 1063.09,-183.689"/>
<polygon fill="black" stroke="black" points="1060.52,-186.087 1069.42,-191.831 1066.04,-181.789 1060.52,-186.087"/>
<text text-anchor="middle" x="1079" y="-162.3" font-family="Times,serif" font-size="14.00">pickUp</text>
</g>
<!-- Phone_vibration_On&#45;&gt;Phone_vibration_Off -->
<g id="edge20" class="edge"><title>Phone_vibration_On&#45;&gt;Phone_vibration_Off</title>
<path fill="none" stroke="black" d="M1095.55,-140.199C1097.37,-145.791 1099.09,-152.082 1100,-158 1101.08,-165.029 1101.08,-166.971 1100,-174 1099.59,-176.682 1099.01,-179.44 1098.33,-182.175"/>
<polygon fill="black" stroke="black" points="1094.96,-181.222 1095.55,-191.801 1101.69,-183.165 1094.96,-181.222"/>
<text text-anchor="middle" x="1127.5" y="-162.3" font-family="Times,serif" font-size="14.00">rejectCall</text>
</g>
<!-- Phone_vibration_On&#45;&gt;Phone_vibration_Off -->
<g id="edge21" class="edge"><title>Phone_vibration_On&#45;&gt;Phone_vibration_Off</title>
<path fill="none" stroke="black" d="M1125.14,-132.349C1138.13,-137.642 1151.43,-145.749 1159,-158 1168.58,-173.499 1153.41,-185.751 1134.77,-194.359"/>
<polygon fill="black" stroke="black" points="1133.29,-191.183 1125.43,-198.289 1136.01,-197.634 1133.29,-191.183"/>
<text text-anchor="middle" x="1194.5" y="-162.3" font-family="Times,serif" font-size="14.00">unanswered</text>
</g>
</g>
</svg>
