<?xml version="1.0" encoding="UTF-8" standalone="no"?>
<!DOCTYPE svg PUBLIC "-//W3C//DTD SVG 1.1//EN"
 "http://www.w3.org/Graphics/SVG/1.1/DTD/svg11.dtd">
<!-- Generated by graphviz version 2.39.20140502.0445 (20140502.0445)
 -->
<!-- Title: TelephoneSystem2 Pages: 1 -->
<svg width="1291pt" height="324pt"
 viewBox="0.00 0.00 1291.00 324.40" xmlns="http://www.w3.org/2000/svg" xmlns:xlink="http://www.w3.org/1999/xlink">
<g id="graph0" class="graph" transform="scale(1 1) rotate(0) translate(4 320.4)">
<title>TelephoneSystem2</title>
<polygon fill="white" stroke="none" points="-4,4 -4,-320.4 1287,-320.4 1287,4 -4,4"/>
<g id="clust1" class="cluster"><title>clusterPhone_ringerSound</title>
<polygon fill="none" stroke="black" stroke-width="0.5" points="8,-95 8,-308.4 546,-308.4 546,-95 8,-95"/>
<text text-anchor="middle" x="277" y="-293.2" font-family="Times,serif" font-size="14.00">sm Phone ringerSound</text>
</g>
<g id="clust2" class="cluster"><title>clusterPhone_screenLight</title>
<polygon fill="none" stroke="black" stroke-width="0.5" points="554,-8 554,-308.4 927,-308.4 927,-8 554,-8"/>
<text text-anchor="middle" x="740.5" y="-293.2" font-family="Times,serif" font-size="14.00">sm Phone screenLight</text>
</g>
<g id="clust3" class="cluster"><title>clusterPhone_vibration</title>
<polygon fill="none" stroke="black" stroke-width="0.5" points="935,-95 935,-308.4 1275,-308.4 1275,-95 935,-95"/>
<text text-anchor="middle" x="1105" y="-293.2" font-family="Times,serif" font-size="14.00">sm Phone vibration</text>
</g>
<!-- start_Phone_ringerSound -->
<g id="node1" class="node"><title>start_Phone_ringerSound</title>
<ellipse fill="black" stroke="black" cx="328" cy="-270.2" rx="7.2" ry="7.2"/>
</g>
<!-- Phone_ringerSound_Off -->
<g id="node2" class="node"><title>Phone_ringerSound_Off</title>
<path fill="none" stroke="black" d="M352,-226C352,-226 304,-226 304,-226 298,-226 292,-220 292,-214 292,-214 292,-202 292,-202 292,-196 298,-190 304,-190 304,-190 352,-190 352,-190 358,-190 364,-196 364,-202 364,-202 364,-214 364,-214 364,-220 358,-226 352,-226"/>
<text text-anchor="middle" x="328" y="-204.3" font-family="Times,serif" font-size="14.00">Off</text>
</g>
<!-- start_Phone_ringerSound&#45;&gt;Phone_ringerSound_Off -->
<g id="edge1" class="edge"><title>start_Phone_ringerSound&#45;&gt;Phone_ringerSound_Off</title>
<g id="a_edge1"><a xlink:title="start &#160;&#45;&gt; Off">
<path fill="none" stroke="black" d="M328,-262.758C328,-256.387 328,-246.197 328,-236.393"/>
<polygon fill="black" stroke="black" points="331.5,-236.105 328,-226.105 324.5,-236.105 331.5,-236.105"/>
</a>
</g>
</g>
<!-- Phone_ringerSound_On -->
<g id="node3" class="node"><title>Phone_ringerSound_On</title>
<path fill="none" stroke="black" d="M352,-139C352,-139 304,-139 304,-139 298,-139 292,-133 292,-127 292,-127 292,-115 292,-115 292,-109 298,-103 304,-103 304,-103 352,-103 352,-103 358,-103 364,-109 364,-115 364,-115 364,-127 364,-127 364,-133 358,-139 352,-139"/>
<text text-anchor="middle" x="328" y="-117.3" font-family="Times,serif" font-size="14.00">On</text>
</g>
<!-- Phone_ringerSound_Off&#45;&gt;Phone_ringerSound_On -->
<g id="edge6" class="edge"><title>Phone_ringerSound_Off&#45;&gt;Phone_ringerSound_On</title>
<g id="a_edge6"><a xlink:title="Off callReceived [!permanentMute] &#45;&gt; On">
<path fill="none" stroke="black" d="M281.692,-124.556 206.816,-129.166 65.9823,-140.006 51,-157 18.3607,-194.023 209.696,-203.75 291.868,-206.206"/>
<polygon fill="black" stroke="black" points="282.028,-128.042 291.799,-123.947 281.607,-121.055 282.028,-128.042"/>
</a>
</g>
<text text-anchor="middle" x="140.5" y="-160.8" font-family="Times,serif" font-size="14.00">callReceived [!permanentMute]</text>
</g>
<!-- Phone_ringerSound_On&#45;&gt;Phone_ringerSound_Off -->
<g id="edge2" class="edge"><title>Phone_ringerSound_On&#45;&gt;Phone_ringerSound_Off</title>
<g id="a_edge2"><a xlink:title="On silentButton &#45;&gt; Off">
<path fill="none" stroke="black" d="M281.824,-200.405 264.833,-195.494 247.254,-186.93 237,-172 220.773,-148.374 259.807,-134.808 291.717,-127.919"/>
<polygon fill="black" stroke="black" points="281.147,-203.844 291.7,-202.895 282.859,-197.056 281.147,-203.844"/>
</a>
</g>
<text text-anchor="middle" x="271.5" y="-160.8" font-family="Times,serif" font-size="14.00">silentButton</text>
</g>
<!-- Phone_ringerSound_On&#45;&gt;Phone_ringerSound_Off -->
<g id="edge3" class="edge"><title>Phone_ringerSound_On&#45;&gt;Phone_ringerSound_Off</title>
<g id="a_edge3"><a xlink:title="On pickUp &#45;&gt; Off">
<path fill="none" stroke="black" d="M328,-139.175C328,-150.806 328,-166.419 328,-179.734"/>
<polygon fill="black" stroke="black" points="324.5,-179.799 328,-189.799 331.5,-179.799 324.5,-179.799"/>
</a>
</g>
<text text-anchor="middle" x="349" y="-160.8" font-family="Times,serif" font-size="14.00">pickUp</text>
</g>
<!-- Phone_ringerSound_On&#45;&gt;Phone_ringerSound_Off -->
<g id="edge4" class="edge"><title>Phone_ringerSound_On&#45;&gt;Phone_ringerSound_Off</title>
<g id="a_edge4"><a xlink:title="On rejectCall &#45;&gt; Off">
<path fill="none" stroke="black" d="M356.79,-139.061C367.97,-148.026 376.85,-159.695 371,-172 369.14,-175.912 366.605,-179.53 363.691,-182.837"/>
<polygon fill="black" stroke="black" points="361.072,-180.501 356.338,-189.979 365.95,-185.522 361.072,-180.501"/>
</a>
</g>
<text text-anchor="middle" x="400.5" y="-160.8" font-family="Times,serif" font-size="14.00">rejectCall</text>
</g>
<!-- Phone_ringerSound_On&#45;&gt;Phone_ringerSound_Off -->
<g id="edge5" class="edge"><title>Phone_ringerSound_On&#45;&gt;Phone_ringerSound_Off</title>
<g id="a_edge5"><a xlink:title="On unanswered &#45;&gt; Off">
<path fill="none" stroke="black" d="M364.049,-126.076C401.317,-131.831 451.523,-144.83 432,-172 418.756,-190.431 395.316,-199.287 374.038,-203.489"/>
<polygon fill="black" stroke="black" points="373.421,-200.044 364.14,-205.155 374.583,-206.946 373.421,-200.044"/>
</a>
</g>
<text text-anchor="middle" x="470.5" y="-160.8" font-family="Times,serif" font-size="14.00">unanswered</text>
</g>
<!-- start_Phone_screenLight -->
<g id="node4" class="node"><title>start_Phone_screenLight</title>
<ellipse fill="black" stroke="black" cx="763" cy="-270.2" rx="7.2" ry="7.2"/>
</g>
<!-- Phone_screenLight_Off -->
<g id="node5" class="node"><title>Phone_screenLight_Off</title>
<path fill="none" stroke="black" d="M787,-226C787,-226 739,-226 739,-226 733,-226 727,-220 727,-214 727,-214 727,-202 727,-202 727,-196 733,-190 739,-190 739,-190 787,-190 787,-190 793,-190 799,-196 799,-202 799,-202 799,-214 799,-214 799,-220 793,-226 787,-226"/>
<text text-anchor="middle" x="763" y="-204.3" font-family="Times,serif" font-size="14.00">Off</text>
</g>
<!-- start_Phone_screenLight&#45;&gt;Phone_screenLight_Off -->
<g id="edge7" class="edge"><title>start_Phone_screenLight&#45;&gt;Phone_screenLight_Off</title>
<g id="a_edge7"><a xlink:title="start &#160;&#45;&gt; Off">
<path fill="none" stroke="black" d="M763,-262.758C763,-256.387 763,-246.197 763,-236.393"/>
<polygon fill="black" stroke="black" points="766.5,-236.105 763,-226.105 759.5,-236.105 766.5,-236.105"/>
</a>
</g>
</g>
<!-- Phone_screenLight_On -->
<g id="node6" class="node"><title>Phone_screenLight_On</title>
<path fill="none" stroke="black" d="M622,-139C622,-139 574,-139 574,-139 568,-139 562,-133 562,-127 562,-127 562,-115 562,-115 562,-109 568,-103 574,-103 574,-103 622,-103 622,-103 628,-103 634,-109 634,-115 634,-115 634,-127 634,-127 634,-133 628,-139 622,-139"/>
<text text-anchor="middle" x="598" y="-117.3" font-family="Times,serif" font-size="14.00">On</text>
</g>
<!-- Phone_screenLight_Off&#45;&gt;Phone_screenLight_On -->
<g id="edge11" class="edge"><title>Phone_screenLight_Off&#45;&gt;Phone_screenLight_On</title>
<g id="a_edge11"><a xlink:title="Off callReceived &#45;&gt; On">
<path fill="none" stroke="black" d="M579.8,-148.251 576.382,-156.503 575.4,-165.221 581,-172 599.135,-193.955 679.196,-202.282 726.882,-205.33"/>
<polygon fill="black" stroke="black" points="582.967,-149.748 584.473,-139.261 576.756,-146.519 582.967,-149.748"/>
</a>
</g>
<text text-anchor="middle" x="617.5" y="-160.8" font-family="Times,serif" font-size="14.00">callReceived</text>
</g>
<!-- Phone_screenLight_Off&#45;&gt;Phone_screenLight_On -->
<g id="edge12" class="edge"><title>Phone_screenLight_Off&#45;&gt;Phone_screenLight_On</title>
<g id="a_edge12"><a xlink:title="Off pickUp &#45;&gt; On">
<path fill="none" stroke="black" d="M634.42,-144.62 640.953,-148.719 647.689,-152.97 654,-157 664.286,-163.568 666.188,-166.341 677,-172 692.853,-180.298 711.126,-187.98 726.741,-194.02"/>
<polygon fill="black" stroke="black" points="636.03,-141.499 625.696,-139.163 632.317,-147.434 636.03,-141.499"/>
</a>
</g>
<text text-anchor="middle" x="698" y="-160.8" font-family="Times,serif" font-size="14.00">pickUp</text>
</g>
<!-- Phone_screenLight_Off&#45;&gt;Phone_screenLight_On -->
<g id="edge13" class="edge"><title>Phone_screenLight_Off&#45;&gt;Phone_screenLight_On</title>
<g id="a_edge13"><a xlink:title="Off dial &#45;&gt; On">
<path fill="none" stroke="black" d="M643.747,-137.716 645.179,-138.156 646.599,-138.585 648,-139 679.213,-148.247 691.225,-140.02 719,-157 732.417,-165.202 743.997,-178.801 751.904,-189.748"/>
<polygon fill="black" stroke="black" points="644.803,-134.379 634.213,-134.69 642.685,-141.051 644.803,-134.379"/>
</a>
</g>
<text text-anchor="middle" x="748.5" y="-160.8" font-family="Times,serif" font-size="14.00">dial</text>
</g>
<!-- Phone_screenLight_On&#45;&gt;Phone_screenLight_Off -->
<g id="edge8" class="edge"><title>Phone_screenLight_On&#45;&gt;Phone_screenLight_Off</title>
<g id="a_edge8"><a xlink:title="On hangUp &#45;&gt; Off">
<path fill="none" stroke="black" d="M634.103,-135.093C638.744,-136.534 643.46,-137.882 648,-139 673.116,-145.186 746.183,-137.346 763,-157 768.317,-163.214 769.721,-171.627 769.371,-179.778"/>
<polygon fill="black" stroke="black" points="765.888,-179.428 768.153,-189.778 772.836,-180.275 765.888,-179.428"/>
</a>
</g>
<text text-anchor="middle" x="792.5" y="-160.8" font-family="Times,serif" font-size="14.00">hangUp</text>
</g>
<!-- Phone_screenLight_Dimmed -->
<g id="node7" class="node"><title>Phone_screenLight_Dimmed</title>
<path fill="none" stroke="black" d="M825,-52C825,-52 777,-52 777,-52 771,-52 765,-46 765,-40 765,-40 765,-28 765,-28 765,-22 771,-16 777,-16 777,-16 825,-16 825,-16 831,-16 837,-22 837,-28 837,-28 837,-40 837,-40 837,-46 831,-52 825,-52"/>
<text text-anchor="middle" x="801" y="-30.3" font-family="Times,serif" font-size="14.00">Dimmed</text>
</g>
<!-- Phone_screenLight_On&#45;&gt;Phone_screenLight_Dimmed -->
<g id="edge17" class="edge"><title>Phone_screenLight_On&#45;&gt;Phone_screenLight_Dimmed</title>
<g id="a_edge17"><a xlink:title="On after(30000) &#45;&gt; Dimmed">
<path fill="none" stroke="black" d="M583.855,-102.689C577.124,-92.2644 572.091,-79.2603 580,-70 602.015,-44.2243 696.723,-37.3262 754.779,-35.5464"/>
<polygon fill="black" stroke="black" points="754.914,-39.0441 764.817,-35.2781 754.727,-32.0466 754.914,-39.0441"/>
</a>
</g>
<text text-anchor="middle" x="615" y="-73.8" font-family="Times,serif" font-size="14.00">after(30000)</text>
</g>
<!-- Phone_screenLight_Dimmed&#45;&gt;Phone_screenLight_Off -->
<g id="edge9" class="edge"><title>Phone_screenLight_Dimmed&#45;&gt;Phone_screenLight_Off</title>
<g id="a_edge9"><a xlink:title="Dimmed hangUp &#45;&gt; Off">
<path fill="none" stroke="black" d="M807.875,-186.081 820.214,-177.558 828.015,-167.297 819,-157 779.127,-111.457 723.873,-184.543 684,-139 671.118,-124.287 670.616,-109.258 684,-95 708.078,-69.3494 817.922,-110.651 842,-85 851.834,-74.5236 841.584,-62.0236 828.876,-52.1427"/>
<polygon fill="black" stroke="black" points="805.91,-183.181 799.242,-191.414 809.589,-189.136 805.91,-183.181"/>
</a>
</g>
<text text-anchor="middle" x="706.5" y="-117.3" font-family="Times,serif" font-size="14.00">hangUp</text>
</g>
<!-- Phone_screenLight_Dimmed&#45;&gt;Phone_screenLight_Off -->
<g id="edge10" class="edge"><title>Phone_screenLight_Dimmed&#45;&gt;Phone_screenLight_Off</title>
<g id="a_edge10"><a xlink:title="Dimmed after(60000) [!callInProgress] &#45;&gt; Off">
<path fill="none" stroke="black" d="M808.186,-189.815 823.99,-181.162 835.649,-169.792 826,-157 808.464,-133.752 780.536,-162.248 763,-139 751.224,-123.388 749.995,-109.605 763,-95 788.59,-66.2623 823.41,-113.738 849,-85 859.003,-73.7667 847.793,-61.5824 833.701,-52.0542"/>
<polygon fill="black" stroke="black" points="806.488,-186.751 799.089,-194.335 809.602,-193.02 806.488,-186.751"/>
</a>
</g>
<text text-anchor="middle" x="847" y="-117.3" font-family="Times,serif" font-size="14.00">after(60000) [!callInProgress]</text>
</g>
<!-- Phone_screenLight_Dimmed&#45;&gt;Phone_screenLight_On -->
<g id="edge14" class="edge"><title>Phone_screenLight_Dimmed&#45;&gt;Phone_screenLight_On</title>
<g id="a_edge14"><a xlink:title="Dimmed callReceived &#45;&gt; On">
<path fill="none" stroke="black" d="M632.204,-97.4145 652.096,-84.2934 673.39,-70.2763 674,-70 703.373,-56.6916 738.917,-47.4257 764.923,-41.7864"/>
<polygon fill="black" stroke="black" points="630.249,-94.5114 623.829,-102.94 634.104,-100.354 630.249,-94.5114"/>
</a>
</g>
<text text-anchor="middle" x="710.5" y="-73.8" font-family="Times,serif" font-size="14.00">callReceived</text>
</g>
<!-- Phone_screenLight_Dimmed&#45;&gt;Phone_screenLight_On -->
<g id="edge15" class="edge"><title>Phone_screenLight_Dimmed&#45;&gt;Phone_screenLight_On</title>
<g id="a_edge15"><a xlink:title="Dimmed pickUp &#45;&gt; On">
<path fill="none" stroke="black" d="M637.097,-98.8108 640.718,-97.3521 644.385,-96.0479 648,-95 690.475,-82.6868 706.689,-103.187 747,-85 763.072,-77.7491 777.508,-63.7862 787.402,-52.4546"/>
<polygon fill="black" stroke="black" points="635.425,-95.7231 627.69,-102.963 638.252,-102.127 635.425,-95.7231"/>
</a>
</g>
<text text-anchor="middle" x="790" y="-73.8" font-family="Times,serif" font-size="14.00">pickUp</text>
</g>
<!-- Phone_screenLight_Dimmed&#45;&gt;Phone_screenLight_On -->
<g id="edge16" class="edge"><title>Phone_screenLight_Dimmed&#45;&gt;Phone_screenLight_On</title>
<g id="a_edge16"><a xlink:title="Dimmed dial &#45;&gt; On">
<path fill="none" stroke="black" d="M636.58,-98.8422 640.363,-97.3394 644.207,-96.0183 648,-95 665.632,-90.2666 799.49,-98.296 812,-85 820.161,-76.3258 816.765,-63.033 811.674,-52.3334"/>
<polygon fill="black" stroke="black" points="635.118,-95.6618 627.364,-102.883 637.928,-102.073 635.118,-95.6618"/>
</a>
</g>
<text text-anchor="middle" x="827.5" y="-73.8" font-family="Times,serif" font-size="14.00">dial</text>
</g>
<!-- start_Phone_vibration -->
<g id="node8" class="node"><title>start_Phone_vibration</title>
<ellipse fill="black" stroke="black" cx="1089" cy="-270.2" rx="7.2" ry="7.2"/>
</g>
<!-- Phone_vibration_Off -->
<g id="node9" class="node"><title>Phone_vibration_Off</title>
<path fill="none" stroke="black" d="M1113,-226C1113,-226 1065,-226 1065,-226 1059,-226 1053,-220 1053,-214 1053,-214 1053,-202 1053,-202 1053,-196 1059,-190 1065,-190 1065,-190 1113,-190 1113,-190 1119,-190 1125,-196 1125,-202 1125,-202 1125,-214 1125,-214 1125,-220 1119,-226 1113,-226"/>
<text text-anchor="middle" x="1089" y="-204.3" font-family="Times,serif" font-size="14.00">Off</text>
</g>
<!-- start_Phone_vibration&#45;&gt;Phone_vibration_Off -->
<g id="edge18" class="edge"><title>start_Phone_vibration&#45;&gt;Phone_vibration_Off</title>
<g id="a_edge18"><a xlink:title="start &#160;&#45;&gt; Off">
<path fill="none" stroke="black" d="M1089,-262.758C1089,-256.387 1089,-246.197 1089,-236.393"/>
<polygon fill="black" stroke="black" points="1092.5,-236.105 1089,-226.105 1085.5,-236.105 1092.5,-236.105"/>
</a>
</g>
</g>
<!-- Phone_vibration_On -->
<g id="node10" class="node"><title>Phone_vibration_On</title>
<path fill="none" stroke="black" d="M1113,-139C1113,-139 1065,-139 1065,-139 1059,-139 1053,-133 1053,-127 1053,-127 1053,-115 1053,-115 1053,-109 1059,-103 1065,-103 1065,-103 1113,-103 1113,-103 1119,-103 1125,-109 1125,-115 1125,-115 1125,-127 1125,-127 1125,-133 1119,-139 1113,-139"/>
<text text-anchor="middle" x="1089" y="-117.3" font-family="Times,serif" font-size="14.00">On</text>
</g>
<!-- Phone_vibration_Off&#45;&gt;Phone_vibration_On -->
<g id="edge22" class="edge"><title>Phone_vibration_Off&#45;&gt;Phone_vibration_On</title>
<g id="a_edge22"><a xlink:title="Off callReceived &#45;&gt; On">
<path fill="none" stroke="black" d="M1042.95,-124.348 1019.81,-128.145 993.632,-136.99 979,-157 957.951,-185.787 1013.37,-198.39 1052.97,-203.609"/>
<polygon fill="black" stroke="black" points="1043.55,-127.799 1052.98,-122.974 1042.6,-120.864 1043.55,-127.799"/>
</a>
</g>
<text text-anchor="middle" x="1015.5" y="-160.8" font-family="Times,serif" font-size="14.00">callReceived</text>
</g>
<!-- Phone_vibration_On&#45;&gt;Phone_vibration_Off -->
<g id="edge19" class="edge"><title>Phone_vibration_On&#45;&gt;Phone_vibration_Off</title>
<g id="a_edge19"><a xlink:title="On pickUp &#45;&gt; Off">
<path fill="none" stroke="black" d="M1063.09,-181.689 1061.04,-178.615 1059.28,-175.366 1058,-172 1053.58,-160.349 1060.42,-148.447 1068.78,-139.18"/>
<polygon fill="black" stroke="black" points="1060.52,-184.087 1069.42,-189.831 1066.04,-179.789 1060.52,-184.087"/>
</a>
</g>
<text text-anchor="middle" x="1079" y="-160.8" font-family="Times,serif" font-size="14.00">pickUp</text>
</g>
<!-- Phone_vibration_On&#45;&gt;Phone_vibration_Off -->
<g id="edge20" class="edge"><title>Phone_vibration_On&#45;&gt;Phone_vibration_Off</title>
<g id="a_edge20"><a xlink:title="On rejectCall &#45;&gt; Off">
<path fill="none" stroke="black" d="M1095.94,-139.022C1099.06,-148.645 1101.7,-160.93 1100,-172 1099.59,-174.682 1099.01,-177.44 1098.33,-180.175"/>
<polygon fill="black" stroke="black" points="1094.96,-179.222 1095.55,-189.801 1101.69,-181.165 1094.96,-179.222"/>
</a>
</g>
<text text-anchor="middle" x="1127.5" y="-160.8" font-family="Times,serif" font-size="14.00">rejectCall</text>
</g>
<!-- Phone_vibration_On&#45;&gt;Phone_vibration_Off -->
<g id="edge21" class="edge"><title>Phone_vibration_On&#45;&gt;Phone_vibration_Off</title>
<g id="a_edge21"><a xlink:title="On unanswered &#45;&gt; Off">
<path fill="none" stroke="black" d="M1125.39,-132.36C1147.71,-140.738 1170.07,-154.087 1159,-172 1153.2,-181.38 1144.05,-188.33 1134.24,-193.449"/>
<polygon fill="black" stroke="black" points="1132.75,-190.283 1125.14,-197.651 1135.68,-196.639 1132.75,-190.283"/>
</a>
</g>
<text text-anchor="middle" x="1194.5" y="-160.8" font-family="Times,serif" font-size="14.00">unanswered</text>
</g>
</g>
</svg>
