<?xml version="1.0" encoding="UTF-8" standalone="no"?>
<!DOCTYPE svg PUBLIC "-//W3C//DTD SVG 1.1//EN"
 "http://www.w3.org/Graphics/SVG/1.1/DTD/svg11.dtd">
<!-- Generated by graphviz version 2.29.20121108.1600 (20121108.1600)
 -->
<!-- Title: TelephoneSystem2 Pages: 1 -->
<svg width="941pt" height="312pt"
 viewBox="0.00 0.00 941.00 312.00" xmlns="http://www.w3.org/2000/svg" xmlns:xlink="http://www.w3.org/1999/xlink">
<g id="graph0" class="graph" transform="scale(1 1) rotate(0) translate(4 308)">
<title>TelephoneSystem2</title>
<polygon fill="white" stroke="white" points="-4,5 -4,-308 938,-308 938,5 -4,5"/>
<g id="clust1" class="cluster"><title>clusterPhone_ringerSound</title>
<polygon fill="none" stroke="black" stroke-width="0.5" points="8,-8 8,-253 416,-253 416,-8 8,-8"/>
<text text-anchor="middle" x="212" y="-235" font-family="Times,serif" font-size="14.00">sm Phone ringerSound</text>
</g>
<g id="clust2" class="cluster"><title>clusterPhone_screenLight</title>
<polygon fill="none" stroke="black" stroke-width="0.5" points="424,-8 424,-264 686,-264 686,-8 424,-8"/>
<text text-anchor="middle" x="555" y="-246" font-family="Times,serif" font-size="14.00">sm Phone screenLight</text>
</g>
<g id="clust3" class="cluster"><title>clusterPhone_vibration</title>
<polygon fill="none" stroke="black" stroke-width="0.5" points="694,-8 694,-296 925,-296 925,-8 694,-8"/>
<text text-anchor="middle" x="809.5" y="-278" font-family="Times,serif" font-size="14.00">sm Phone vibration</text>
</g>
<g id="clust4" class="cluster"><title>clusterPhone_vibration_On</title>
<path fill="none" stroke="black" stroke-width="0.5" d="M754,-98C754,-98 856,-98 856,-98 862,-98 868,-104 868,-110 868,-110 868,-252 868,-252 868,-258 862,-264 856,-264 856,-264 754,-264 754,-264 748,-264 742,-258 742,-252 742,-252 742,-110 742,-110 742,-104 748,-98 754,-98"/>
<text text-anchor="middle" x="805" y="-246" font-family="Times,serif" font-size="14.00">On</text>
</g>
<!-- start_Phone_ringerSound -->
<g id="node1" class="node"><title>start_Phone_ringerSound</title>
<ellipse fill="black" stroke="black" cx="174" cy="-214" rx="7.2" ry="7.2"/>
</g>
<!-- Phone_ringerSound_Off -->
<g id="node2" class="node"><title>Phone_ringerSound_Off</title>
<path fill="none" stroke="black" d="M198,-142C198,-142 150,-142 150,-142 144,-142 138,-136 138,-130 138,-130 138,-118 138,-118 138,-112 144,-106 150,-106 150,-106 198,-106 198,-106 204,-106 210,-112 210,-118 210,-118 210,-130 210,-130 210,-136 204,-142 198,-142"/>
<text text-anchor="middle" x="174" y="-118.4" font-family="Times,serif" font-size="14.00">Off</text>
</g>
<!-- start_Phone_ringerSound&#45;&gt;Phone_ringerSound_Off -->
<g id="edge1" class="edge"><title>start_Phone_ringerSound&#45;&gt;Phone_ringerSound_Off</title>
<path fill="none" stroke="black" d="M174,-206.671C174,-195.484 174,-171.597 174,-152.531"/>
<polygon fill="black" stroke="black" points="177.5,-152.271 174,-142.271 170.5,-152.271 177.5,-152.271"/>
</g>
<!-- Phone_ringerSound_On -->
<g id="node3" class="node"><title>Phone_ringerSound_On</title>
<path fill="none" stroke="black" d="M198,-52C198,-52 150,-52 150,-52 144,-52 138,-46 138,-40 138,-40 138,-28 138,-28 138,-22 144,-16 150,-16 150,-16 198,-16 198,-16 204,-16 210,-22 210,-28 210,-28 210,-40 210,-40 210,-46 204,-52 198,-52"/>
<text text-anchor="middle" x="174" y="-28.4" font-family="Times,serif" font-size="14.00">On</text>
</g>
<!-- Phone_ringerSound_Off&#45;&gt;Phone_ringerSound_On -->
<g id="edge5" class="edge"><title>Phone_ringerSound_Off&#45;&gt;Phone_ringerSound_On</title>
<path fill="none" stroke="black" d="M137.98,-117.652C105.506,-112.006 61.2735,-101.98 50.71,-88 27.8407,-57.7348 83.9325,-44.5286 127.797,-38.9246"/>
<polygon fill="black" stroke="black" points="128.259,-42.3943 137.782,-37.7489 127.441,-35.4424 128.259,-42.3943"/>
<text text-anchor="middle" x="87.145" y="-73.4" font-family="Times,serif" font-size="14.00">callReceived</text>
</g>
<!-- Phone_ringerSound_On&#45;&gt;Phone_ringerSound_Off -->
<g id="edge2" class="edge"><title>Phone_ringerSound_On&#45;&gt;Phone_ringerSound_Off</title>
<path fill="none" stroke="black" d="M144.268,-52.2362C138.33,-57.1664 132.897,-63.1079 129.552,-70 126.058,-77.197 126.058,-80.803 129.552,-88 131.433,-91.8768 133.976,-95.4528 136.897,-98.7173"/>
<polygon fill="black" stroke="black" points="134.621,-101.384 144.268,-105.764 139.458,-96.3237 134.621,-101.384"/>
<text text-anchor="middle" x="164.224" y="-73.4" font-family="Times,serif" font-size="14.00">silentButton</text>
</g>
<!-- Phone_ringerSound_On&#45;&gt;Phone_ringerSound_Off -->
<g id="edge3" class="edge"><title>Phone_ringerSound_On&#45;&gt;Phone_ringerSound_Off</title>
<path fill="none" stroke="black" d="M188.711,-52.0745C192.488,-57.46 196.037,-63.6662 198,-70 200.368,-77.6414 200.368,-80.3586 198,-88 197.019,-91.1669 195.64,-94.3019 194.036,-97.3183"/>
<polygon fill="black" stroke="black" points="190.996,-95.5799 188.711,-105.925 196.948,-99.2629 190.996,-95.5799"/>
<text text-anchor="middle" x="238.021" y="-73.4" font-family="Times,serif" font-size="14.00">pickUp / {...}</text>
</g>
<!-- Phone_ringerSound_On&#45;&gt;Phone_ringerSound_Off -->
<g id="edge4" class="edge"><title>Phone_ringerSound_On&#45;&gt;Phone_ringerSound_Off</title>
<path fill="none" stroke="black" d="M210.036,-36.5358C234.109,-39.6659 264.161,-48.0904 280,-70 298.51,-95.6053 256.672,-109.562 220.226,-116.632"/>
<polygon fill="black" stroke="black" points="219.365,-113.231 210.144,-118.448 220.606,-120.12 219.365,-113.231"/>
<text text-anchor="middle" x="329.622" y="-73.4" font-family="Times,serif" font-size="14.00">rejectCall / {...}</text>
</g>
<!-- start_Phone_screenLight -->
<g id="node4" class="node"><title>start_Phone_screenLight</title>
<ellipse fill="black" stroke="black" cx="585" cy="-214" rx="7.2" ry="7.2"/>
</g>
<!-- Phone_screenLight_Off -->
<g id="node5" class="node"><title>Phone_screenLight_Off</title>
<path fill="none" stroke="black" d="M609,-142C609,-142 561,-142 561,-142 555,-142 549,-136 549,-130 549,-130 549,-118 549,-118 549,-112 555,-106 561,-106 561,-106 609,-106 609,-106 615,-106 621,-112 621,-118 621,-118 621,-130 621,-130 621,-136 615,-142 609,-142"/>
<text text-anchor="middle" x="585" y="-118.4" font-family="Times,serif" font-size="14.00">Off</text>
</g>
<!-- start_Phone_screenLight&#45;&gt;Phone_screenLight_Off -->
<g id="edge6" class="edge"><title>start_Phone_screenLight&#45;&gt;Phone_screenLight_Off</title>
<path fill="none" stroke="black" d="M585,-206.671C585,-195.484 585,-171.597 585,-152.531"/>
<polygon fill="black" stroke="black" points="588.5,-152.271 585,-142.271 581.5,-152.271 588.5,-152.271"/>
</g>
<!-- Phone_screenLight_On -->
<g id="node6" class="node"><title>Phone_screenLight_On</title>
<path fill="none" stroke="black" d="M492,-52C492,-52 444,-52 444,-52 438,-52 432,-46 432,-40 432,-40 432,-28 432,-28 432,-22 438,-16 444,-16 444,-16 492,-16 492,-16 498,-16 504,-22 504,-28 504,-28 504,-40 504,-40 504,-46 498,-52 492,-52"/>
<text text-anchor="middle" x="468" y="-28.4" font-family="Times,serif" font-size="14.00">On</text>
</g>
<!-- Phone_screenLight_Off&#45;&gt;Phone_screenLight_On -->
<g id="edge8" class="edge"><title>Phone_screenLight_Off&#45;&gt;Phone_screenLight_On</title>
<path fill="none" stroke="black" d="M562.163,-105.824C544.125,-92.2562 518.77,-73.1862 498.915,-58.2519"/>
<polygon fill="black" stroke="black" points="500.875,-55.3467 490.779,-52.1329 496.667,-60.941 500.875,-55.3467"/>
<text text-anchor="middle" x="573.145" y="-73.4" font-family="Times,serif" font-size="14.00">callReceived</text>
</g>
<!-- Phone_screenLight_On&#45;&gt;Phone_screenLight_On -->
<g id="edge9" class="edge"><title>Phone_screenLight_On&#45;&gt;Phone_screenLight_On</title>
<path fill="none" stroke="black" d="M504.087,-42.2092C514.221,-41.8497 522,-39.1133 522,-34 522,-30.8042 518.961,-28.5369 514.208,-27.198"/>
<polygon fill="black" stroke="black" points="514.474,-23.7014 504.087,-25.7908 513.51,-30.6347 514.474,-23.7014"/>
<text text-anchor="middle" x="600.271" y="-28.4" font-family="Times,serif" font-size="14.00">callReceived / resetTimer();</text>
</g>
<!-- Phone_screenLight_Dimmed -->
<g id="node7" class="node"><title>Phone_screenLight_Dimmed</title>
<path fill="none" stroke="black" d="M525,-232C525,-232 477,-232 477,-232 471,-232 465,-226 465,-220 465,-220 465,-208 465,-208 465,-202 471,-196 477,-196 477,-196 525,-196 525,-196 531,-196 537,-202 537,-208 537,-208 537,-220 537,-220 537,-226 531,-232 525,-232"/>
<text text-anchor="middle" x="501" y="-208.4" font-family="Times,serif" font-size="14.00">Dimmed</text>
</g>
<!-- Phone_screenLight_Dimmed&#45;&gt;Phone_screenLight_Off -->
<g id="edge7" class="edge"><title>Phone_screenLight_Dimmed&#45;&gt;Phone_screenLight_Off</title>
<path fill="none" stroke="black" d="M512.7,-195.974C520.482,-185.17 531.244,-171.173 542.145,-160 545.824,-156.229 549.893,-152.467 554.017,-148.884"/>
<polygon fill="black" stroke="black" points="556.508,-151.363 561.926,-142.258 552.013,-145.997 556.508,-151.363"/>
<text text-anchor="middle" x="562.428" y="-163.4" font-family="Times,serif" font-size="14.00">after(t)</text>
</g>
<!-- Phone_screenLight_Dimmed&#45;&gt;Phone_screenLight_On -->
<g id="edge10" class="edge"><title>Phone_screenLight_Dimmed&#45;&gt;Phone_screenLight_On</title>
<path fill="none" stroke="black" d="M490.401,-195.97C482.393,-182.045 472.062,-161.534 467.71,-142 461.8,-115.476 462.739,-84.3263 464.63,-62.4985"/>
<polygon fill="black" stroke="black" points="468.137,-62.5971 465.641,-52.3006 461.171,-61.9064 468.137,-62.5971"/>
<text text-anchor="middle" x="504.145" y="-118.4" font-family="Times,serif" font-size="14.00">callReceived</text>
</g>
<!-- start_Phone_vibration -->
<g id="node8" class="node"><title>start_Phone_vibration</title>
<ellipse fill="black" stroke="black" cx="709" cy="-124" rx="7.2" ry="7.2"/>
</g>
<!-- Phone_vibration_Off -->
<g id="node9" class="node"><title>Phone_vibration_Off</title>
<path fill="none" stroke="black" d="M762,-52C762,-52 714,-52 714,-52 708,-52 702,-46 702,-40 702,-40 702,-28 702,-28 702,-22 708,-16 714,-16 714,-16 762,-16 762,-16 768,-16 774,-22 774,-28 774,-28 774,-40 774,-40 774,-46 768,-52 762,-52"/>
<text text-anchor="middle" x="738" y="-28.4" font-family="Times,serif" font-size="14.00">Off</text>
</g>
<!-- start_Phone_vibration&#45;&gt;Phone_vibration_Off -->
<g id="edge11" class="edge"><title>start_Phone_vibration&#45;&gt;Phone_vibration_Off</title>
<path fill="none" stroke="black" d="M707.484,-116.88C705.28,-106.758 702.061,-86.0544 708,-70 709.231,-66.6716 710.936,-63.4461 712.914,-60.3877"/>
<polygon fill="black" stroke="black" points="715.813,-62.3556 719.041,-52.2644 710.225,-58.1401 715.813,-62.3556"/>
</g>
<!-- Phone_vibrationOn_continuousMode -->
<g id="node11" class="node"><title>Phone_vibrationOn_continuousMode</title>
<path fill="none" stroke="black" d="M848.078,-142C848.078,-142 761.922,-142 761.922,-142 755.922,-142 749.922,-136 749.922,-130 749.922,-130 749.922,-118 749.922,-118 749.922,-112 755.922,-106 761.922,-106 761.922,-106 848.078,-106 848.078,-106 854.078,-106 860.078,-112 860.078,-118 860.078,-118 860.078,-130 860.078,-130 860.078,-136 854.078,-142 848.078,-142"/>
<text text-anchor="middle" x="805" y="-118.4" font-family="Times,serif" font-size="14.00">continuousMode</text>
</g>
<!-- Phone_vibration_Off&#45;&gt;Phone_vibrationOn_continuousMode -->
<g id="edge13" class="edge"><title>Phone_vibration_Off&#45;&gt;Phone_vibrationOn_continuousMode</title>
<path fill="none" stroke="black" d="M726.573,-52.3703C720.933,-63.3118 716.689,-77.333 723.71,-88 723.885,-88.2662 729.435,-90.7476 737.56,-94.2774"/>
<polygon fill="black" stroke="black" points="736.275,-97.5346 746.843,-98.2865 739.05,-91.1083 736.275,-97.5346"/>
<text text-anchor="middle" x="760.145" y="-73.4" font-family="Times,serif" font-size="14.00">callReceived</text>
</g>
<!-- start_Phone_On -->
<g id="node10" class="node"><title>start_Phone_On</title>
<ellipse fill="black" stroke="black" cx="853" cy="-214" rx="7.2" ry="7.2"/>
</g>
<!-- start_Phone_On&#45;&gt;Phone_vibrationOn_continuousMode -->
<g id="edge14" class="edge"><title>start_Phone_On&#45;&gt;Phone_vibrationOn_continuousMode</title>
<path fill="none" stroke="black" d="M849.851,-207.226C843.729,-196.003 829.886,-170.625 819.187,-151.009"/>
<polygon fill="black" stroke="black" points="822.244,-149.305 814.383,-142.202 816.099,-152.657 822.244,-149.305"/>
</g>
<!-- Phone_vibrationOn_continuousMode&#45;&gt;Phone_vibration_Off -->
<g id="edge12" class="edge"><title>Phone_vibrationOn_continuousMode&#45;&gt;Phone_vibration_Off</title>
<path fill="none" stroke="black" d="M807.355,-98.2675C807.114,-88.7678 805.344,-78.2383 800,-70 795.648,-63.2921 789.537,-57.7394 782.834,-53.1864"/>
<polygon fill="black" stroke="black" points="784.487,-50.0966 774.114,-47.9423 780.88,-56.0954 784.487,-50.0966"/>
<text text-anchor="middle" x="853.281" y="-73.4" font-family="Times,serif" font-size="14.00">turnOffVibration</text>
</g>
<!-- Phone_vibrationOn_pulseMode -->
<g id="node12" class="node"><title>Phone_vibrationOn_pulseMode</title>
<path fill="none" stroke="black" d="M816.161,-232C816.161,-232 761.839,-232 761.839,-232 755.839,-232 749.839,-226 749.839,-220 749.839,-220 749.839,-208 749.839,-208 749.839,-202 755.839,-196 761.839,-196 761.839,-196 816.161,-196 816.161,-196 822.161,-196 828.161,-202 828.161,-208 828.161,-208 828.161,-220 828.161,-220 828.161,-226 822.161,-232 816.161,-232"/>
<text text-anchor="middle" x="789" y="-208.4" font-family="Times,serif" font-size="14.00">pulseMode</text>
</g>
</g>
</svg>
