<?xml version="1.0" encoding="UTF-8" standalone="no"?>
<!DOCTYPE svg PUBLIC "-//W3C//DTD SVG 1.1//EN"
 "http://www.w3.org/Graphics/SVG/1.1/DTD/svg11.dtd">
<!-- Generated by graphviz version 2.36.0 (20140111.2315)
 -->
<!-- Title: TicTacToe Pages: 1 -->
<svg width="888pt" height="272pt"
 viewBox="0.00 0.00 887.59 272.00" xmlns="http://www.w3.org/2000/svg" xmlns:xlink="http://www.w3.org/1999/xlink">
<g id="graph0" class="graph" transform="scale(1 1) rotate(0) translate(4 268)">
<title>TicTacToe</title>
<polygon fill="white" stroke="none" points="-4,4 -4,-268 883.586,-268 883.586,4 -4,4"/>
<!-- start_TicTacToe_state -->
<g id="node1" class="node"><title>start_TicTacToe_state</title>
<ellipse fill="black" stroke="black" cx="430.586" cy="-257" rx="7.2" ry="7.2"/>
</g>
<!-- TicTacToe_state_xTurn -->
<g id="node2" class="node"><title>TicTacToe_state_xTurn</title>
<path fill="none" stroke="black" d="M454.586,-212C454.586,-212 406.586,-212 406.586,-212 400.586,-212 394.586,-206 394.586,-200 394.586,-200 394.586,-188 394.586,-188 394.586,-182 400.586,-176 406.586,-176 406.586,-176 454.586,-176 454.586,-176 460.586,-176 466.586,-182 466.586,-188 466.586,-188 466.586,-200 466.586,-200 466.586,-206 460.586,-212 454.586,-212"/>
<text text-anchor="middle" x="430.586" y="-190.3" font-family="Times,serif" font-size="14.00">xTurn</text>
</g>
<!-- start_TicTacToe_state&#45;&gt;TicTacToe_state_xTurn -->
<g id="edge1" class="edge"><title>start_TicTacToe_state&#45;&gt;TicTacToe_state_xTurn</title>
<path fill="none" stroke="black" d="M430.586,-249.472C430.586,-242.902 430.586,-232.324 430.586,-222.229"/>
<polygon fill="black" stroke="black" points="434.086,-222.073 430.586,-212.073 427.086,-222.073 434.086,-222.073"/>
</g>
<!-- TicTacToe_state_oTurn -->
<g id="node3" class="node"><title>TicTacToe_state_oTurn</title>
<path fill="none" stroke="black" d="M307.586,-124C307.586,-124 259.586,-124 259.586,-124 253.586,-124 247.586,-118 247.586,-112 247.586,-112 247.586,-100 247.586,-100 247.586,-94 253.586,-88 259.586,-88 259.586,-88 307.586,-88 307.586,-88 313.586,-88 319.586,-94 319.586,-100 319.586,-100 319.586,-112 319.586,-112 319.586,-118 313.586,-124 307.586,-124"/>
<text text-anchor="middle" x="283.586" y="-102.3" font-family="Times,serif" font-size="14.00">oTurn</text>
</g>
<!-- TicTacToe_state_xTurn&#45;&gt;TicTacToe_state_oTurn -->
<g id="edge3" class="edge"><title>TicTacToe_state_xTurn&#45;&gt;TicTacToe_state_oTurn</title>
<path fill="none" stroke="black" d="M394.299,-192.774C295.939,-191.785 29.8258,-186.479 3.58581,-158 -1.23274,-152.77 -1.12034,-147.331 3.58581,-142 18.778,-124.791 161.822,-114.019 237.357,-109.484"/>
<polygon fill="black" stroke="black" points="237.769,-112.966 247.547,-108.885 237.358,-105.978 237.769,-112.966"/>
<text text-anchor="middle" x="139.086" y="-146.3" font-family="Times,serif" font-size="14.00">xPlays [!isThreeInARow()&amp;&amp;spaceAvailable()]</text>
</g>
<!-- TicTacToe_state_xWin -->
<g id="node4" class="node"><title>TicTacToe_state_xWin</title>
<path fill="none" stroke="black" d="M601.586,-124C601.586,-124 553.586,-124 553.586,-124 547.586,-124 541.586,-118 541.586,-112 541.586,-112 541.586,-100 541.586,-100 541.586,-94 547.586,-88 553.586,-88 553.586,-88 601.586,-88 601.586,-88 607.586,-88 613.586,-94 613.586,-100 613.586,-100 613.586,-112 613.586,-112 613.586,-118 607.586,-124 601.586,-124"/>
<text text-anchor="middle" x="577.586" y="-102.3" font-family="Times,serif" font-size="14.00">xWin</text>
</g>
<!-- TicTacToe_state_xTurn&#45;&gt;TicTacToe_state_xWin -->
<g id="edge4" class="edge"><title>TicTacToe_state_xTurn&#45;&gt;TicTacToe_state_xWin</title>
<path fill="none" stroke="black" d="M466.831,-191.095C494.147,-187.877 530.982,-179.504 555.586,-158 562.76,-151.73 567.674,-142.701 571.003,-133.979"/>
<polygon fill="black" stroke="black" points="574.346,-135.016 574.125,-124.424 567.692,-132.842 574.346,-135.016"/>
<text text-anchor="middle" x="641.586" y="-146.3" font-family="Times,serif" font-size="14.00">xPlays [isThreeInARow()]</text>
</g>
<!-- TicTacToe_state_tie -->
<g id="node6" class="node"><title>TicTacToe_state_tie</title>
<path fill="none" stroke="black" d="M653.586,-36C653.586,-36 605.586,-36 605.586,-36 599.586,-36 593.586,-30 593.586,-24 593.586,-24 593.586,-12 593.586,-12 593.586,-6 599.586,-0 605.586,-0 605.586,-0 653.586,-0 653.586,-0 659.586,-0 665.586,-6 665.586,-12 665.586,-12 665.586,-24 665.586,-24 665.586,-30 659.586,-36 653.586,-36"/>
<text text-anchor="middle" x="629.586" y="-14.3" font-family="Times,serif" font-size="14.00">tie</text>
</g>
<!-- TicTacToe_state_xTurn&#45;&gt;TicTacToe_state_tie -->
<g id="edge6" class="edge"><title>TicTacToe_state_xTurn&#45;&gt;TicTacToe_state_tie</title>
<path fill="none" stroke="black" d="M466.774,-191.273C540.803,-187.368 703.996,-176.713 720.586,-158 753.407,-120.98 701.392,-71.1663 663.492,-42.3231"/>
<polygon fill="black" stroke="black" points="665.294,-39.3019 655.178,-36.1533 661.123,-44.9232 665.294,-39.3019"/>
<text text-anchor="middle" x="804.586" y="-102.3" font-family="Times,serif" font-size="14.00">xPlays [!spaceAvailable()]</text>
</g>
<!-- TicTacToe_state_oTurn&#45;&gt;TicTacToe_state_xTurn -->
<g id="edge2" class="edge"><title>TicTacToe_state_oTurn&#45;&gt;TicTacToe_state_xTurn</title>
<path fill="none" stroke="black" d="M278.982,-124.409C277.221,-135.215 277.147,-148.754 284.586,-158 297.02,-173.453 346.27,-182.903 384.168,-188.025"/>
<polygon fill="black" stroke="black" points="384.151,-191.552 394.516,-189.357 385.045,-184.609 384.151,-191.552"/>
<text text-anchor="middle" x="420.086" y="-146.3" font-family="Times,serif" font-size="14.00">oPlays [!isThreeInARow()&amp;&amp;spaceAvailable()]</text>
</g>
<!-- TicTacToe_state_oWin -->
<g id="node5" class="node"><title>TicTacToe_state_oWin</title>
<path fill="none" stroke="black" d="M307.586,-36C307.586,-36 259.586,-36 259.586,-36 253.586,-36 247.586,-30 247.586,-24 247.586,-24 247.586,-12 247.586,-12 247.586,-6 253.586,-0 259.586,-0 259.586,-0 307.586,-0 307.586,-0 313.586,-0 319.586,-6 319.586,-12 319.586,-12 319.586,-24 319.586,-24 319.586,-30 313.586,-36 307.586,-36"/>
<text text-anchor="middle" x="283.586" y="-14.3" font-family="Times,serif" font-size="14.00">oWin</text>
</g>
<!-- TicTacToe_state_oTurn&#45;&gt;TicTacToe_state_oWin -->
<g id="edge5" class="edge"><title>TicTacToe_state_oTurn&#45;&gt;TicTacToe_state_oWin</title>
<path fill="none" stroke="black" d="M283.586,-87.5966C283.586,-75.7459 283.586,-59.8169 283.586,-46.2917"/>
<polygon fill="black" stroke="black" points="287.086,-46.084 283.586,-36.084 280.086,-46.084 287.086,-46.084"/>
<text text-anchor="middle" x="358.586" y="-58.3" font-family="Times,serif" font-size="14.00">oPlays [isThreeInARow()]</text>
</g>
<!-- TicTacToe_state_oTurn&#45;&gt;TicTacToe_state_tie -->
<g id="edge7" class="edge"><title>TicTacToe_state_oTurn&#45;&gt;TicTacToe_state_tie</title>
<path fill="none" stroke="black" d="M319.767,-97.1642C351.031,-90.3011 397.387,-79.9036 437.586,-70 487.54,-57.6932 544.468,-42.4124 583.282,-31.8021"/>
<polygon fill="black" stroke="black" points="584.516,-35.0931 593.236,-29.0749 582.666,-28.3419 584.516,-35.0931"/>
<text text-anchor="middle" x="570.586" y="-58.3" font-family="Times,serif" font-size="14.00">oPlays [!spaceAvailable()]</text>
</g>
</g>
</svg>
