<?xml version="1.0" encoding="UTF-8" standalone="no"?>
<!DOCTYPE svg PUBLIC "-//W3C//DTD SVG 1.1//EN"
 "http://www.w3.org/Graphics/SVG/1.1/DTD/svg11.dtd">
<!-- Generated by graphviz version 2.39.20140502.0445 (20140502.0445)
 -->
<!-- Title: TicTacToe Pages: 1 -->
<svg width="886pt" height="269pt"
 viewBox="0.00 0.00 886.14 269.40" xmlns="http://www.w3.org/2000/svg" xmlns:xlink="http://www.w3.org/1999/xlink">
<g id="graph0" class="graph" transform="scale(1 1) rotate(0) translate(4 265.4)">
<title>TicTacToe</title>
<polygon fill="white" stroke="none" points="-4,4 -4,-265.4 882.145,-265.4 882.145,4 -4,4"/>
<!-- start_TicTacToe_state -->
<g id="node1" class="node"><title>start_TicTacToe_state</title>
<ellipse fill="black" stroke="black" cx="430.145" cy="-254.2" rx="7.2" ry="7.2"/>
</g>
<!-- TicTacToe_state_xTurn -->
<g id="node2" class="node"><title>TicTacToe_state_xTurn</title>
<path fill="none" stroke="black" d="M454.145,-210C454.145,-210 406.145,-210 406.145,-210 400.145,-210 394.145,-204 394.145,-198 394.145,-198 394.145,-186 394.145,-186 394.145,-180 400.145,-174 406.145,-174 406.145,-174 454.145,-174 454.145,-174 460.145,-174 466.145,-180 466.145,-186 466.145,-186 466.145,-198 466.145,-198 466.145,-204 460.145,-210 454.145,-210"/>
<text text-anchor="middle" x="430.145" y="-188.3" font-family="Times,serif" font-size="14.00">xTurn</text>
</g>
<!-- start_TicTacToe_state&#45;&gt;TicTacToe_state_xTurn -->
<g id="edge1" class="edge"><title>start_TicTacToe_state&#45;&gt;TicTacToe_state_xTurn</title>
<g id="a_edge1"><a xlink:title="start &#160;&#45;&gt; xTurn">
<path fill="none" stroke="black" d="M430.145,-246.758C430.145,-240.387 430.145,-230.197 430.145,-220.393"/>
<polygon fill="black" stroke="black" points="433.645,-220.105 430.145,-210.105 426.645,-220.105 433.645,-220.105"/>
</a>
</g>
</g>
<!-- TicTacToe_state_oTurn -->
<g id="node3" class="node"><title>TicTacToe_state_oTurn</title>
<path fill="none" stroke="black" d="M307.145,-123C307.145,-123 259.145,-123 259.145,-123 253.145,-123 247.145,-117 247.145,-111 247.145,-111 247.145,-99 247.145,-99 247.145,-93 253.145,-87 259.145,-87 259.145,-87 307.145,-87 307.145,-87 313.145,-87 319.145,-93 319.145,-99 319.145,-99 319.145,-111 319.145,-111 319.145,-117 313.145,-123 307.145,-123"/>
<text text-anchor="middle" x="283.145" y="-101.3" font-family="Times,serif" font-size="14.00">oTurn</text>
</g>
<!-- TicTacToe_state_xTurn&#45;&gt;TicTacToe_state_oTurn -->
<g id="edge3" class="edge"><title>TicTacToe_state_xTurn&#45;&gt;TicTacToe_state_oTurn</title>
<g id="a_edge3"><a xlink:title="xTurn xPlays [!isThreeInARow()&amp;&amp;spaceAvailable()] &#45;&gt; oTurn">
<path fill="none" stroke="black" d="M236.759,-107.184 149.342,-110.243 -28.2543,-120.83 4.14488,-156 30.3211,-184.415 295.813,-189.761 393.943,-190.767"/>
<polygon fill="black" stroke="black" points="237.074,-110.675 246.953,-106.847 236.842,-103.679 237.074,-110.675"/>
</a>
</g>
<text text-anchor="middle" x="139.645" y="-144.8" font-family="Times,serif" font-size="14.00">xPlays [!isThreeInARow()&amp;&amp;spaceAvailable()]</text>
</g>
<!-- TicTacToe_state_xWin -->
<g id="node4" class="node"><title>TicTacToe_state_xWin</title>
<path fill="none" stroke="black" d="M601.145,-123C601.145,-123 553.145,-123 553.145,-123 547.145,-123 541.145,-117 541.145,-111 541.145,-111 541.145,-99 541.145,-99 541.145,-93 547.145,-87 553.145,-87 553.145,-87 601.145,-87 601.145,-87 607.145,-87 613.145,-93 613.145,-99 613.145,-99 613.145,-111 613.145,-111 613.145,-117 607.145,-123 601.145,-123"/>
<text text-anchor="middle" x="577.145" y="-101.3" font-family="Times,serif" font-size="14.00">xWin</text>
</g>
<!-- TicTacToe_state_xTurn&#45;&gt;TicTacToe_state_xWin -->
<g id="edge4" class="edge"><title>TicTacToe_state_xTurn&#45;&gt;TicTacToe_state_xWin</title>
<g id="a_edge4"><a xlink:title="xTurn xPlays [isThreeInARow()] &#45;&gt; xWin">
<path fill="none" stroke="black" d="M466.346,-189.044C493.639,-185.799 530.463,-177.415 555.145,-156 562.147,-149.925 567.009,-141.199 570.345,-132.733"/>
<polygon fill="black" stroke="black" points="573.719,-133.682 573.597,-123.088 567.085,-131.446 573.719,-133.682"/>
</a>
</g>
<text text-anchor="middle" x="640.145" y="-144.8" font-family="Times,serif" font-size="14.00">xPlays [isThreeInARow()]</text>
</g>
<!-- TicTacToe_state_tie -->
<g id="node6" class="node"><title>TicTacToe_state_tie</title>
<path fill="none" stroke="black" d="M653.145,-36C653.145,-36 605.145,-36 605.145,-36 599.145,-36 593.145,-30 593.145,-24 593.145,-24 593.145,-12 593.145,-12 593.145,-6 599.145,-0 605.145,-0 605.145,-0 653.145,-0 653.145,-0 659.145,-0 665.145,-6 665.145,-12 665.145,-12 665.145,-24 665.145,-24 665.145,-30 659.145,-36 653.145,-36"/>
<text text-anchor="middle" x="629.145" y="-14.3" font-family="Times,serif" font-size="14.00">tie</text>
</g>
<!-- TicTacToe_state_xTurn&#45;&gt;TicTacToe_state_tie -->
<g id="edge6" class="edge"><title>TicTacToe_state_xTurn&#45;&gt;TicTacToe_state_tie</title>
<g id="a_edge6"><a xlink:title="xTurn xPlays [!spaceAvailable()] &#45;&gt; tie">
<path fill="none" stroke="black" d="M466.209,-189.263C539.984,-185.34 702.615,-174.652 719.145,-156 751.432,-119.567 700.384,-70.6523 662.956,-42.2044"/>
<polygon fill="black" stroke="black" points="664.857,-39.2574 654.739,-36.1153 660.689,-44.8814 664.857,-39.2574"/>
</a>
</g>
<text text-anchor="middle" x="803.145" y="-101.3" font-family="Times,serif" font-size="14.00">xPlays [!spaceAvailable()]</text>
</g>
<!-- TicTacToe_state_oTurn&#45;&gt;TicTacToe_state_xTurn -->
<g id="edge2" class="edge"><title>TicTacToe_state_oTurn&#45;&gt;TicTacToe_state_xTurn</title>
<g id="a_edge2"><a xlink:title="oTurn oPlays [!isThreeInARow()&amp;&amp;spaceAvailable()] &#45;&gt; xTurn">
<path fill="none" stroke="black" d="M278.639,-123.069C276.918,-133.663 276.85,-146.937 284.145,-156 296.582,-171.451 345.832,-180.901 383.729,-186.024"/>
<polygon fill="black" stroke="black" points="383.711,-189.55 394.076,-187.356 384.605,-182.608 383.711,-189.55"/>
</a>
</g>
<text text-anchor="middle" x="419.645" y="-144.8" font-family="Times,serif" font-size="14.00">oPlays [!isThreeInARow()&amp;&amp;spaceAvailable()]</text>
</g>
<!-- TicTacToe_state_oWin -->
<g id="node5" class="node"><title>TicTacToe_state_oWin</title>
<path fill="none" stroke="black" d="M307.145,-36C307.145,-36 259.145,-36 259.145,-36 253.145,-36 247.145,-30 247.145,-24 247.145,-24 247.145,-12 247.145,-12 247.145,-6 253.145,-0 259.145,-0 259.145,-0 307.145,-0 307.145,-0 313.145,-0 319.145,-6 319.145,-12 319.145,-12 319.145,-24 319.145,-24 319.145,-30 313.145,-36 307.145,-36"/>
<text text-anchor="middle" x="283.145" y="-14.3" font-family="Times,serif" font-size="14.00">oWin</text>
</g>
<!-- TicTacToe_state_oTurn&#45;&gt;TicTacToe_state_oWin -->
<g id="edge5" class="edge"><title>TicTacToe_state_oTurn&#45;&gt;TicTacToe_state_oWin</title>
<g id="a_edge5"><a xlink:title="oTurn oPlays [isThreeInARow()] &#45;&gt; oWin">
<path fill="none" stroke="black" d="M283.145,-86.799C283.145,-75.1626 283.145,-59.5479 283.145,-46.2368"/>
<polygon fill="black" stroke="black" points="286.645,-46.1754 283.145,-36.1754 279.645,-46.1755 286.645,-46.1754"/>
</a>
</g>
<text text-anchor="middle" x="358.145" y="-57.8" font-family="Times,serif" font-size="14.00">oPlays [isThreeInARow()]</text>
</g>
<!-- TicTacToe_state_oTurn&#45;&gt;TicTacToe_state_tie -->
<g id="edge7" class="edge"><title>TicTacToe_state_oTurn&#45;&gt;TicTacToe_state_tie</title>
<g id="a_edge7"><a xlink:title="oTurn oPlays [!spaceAvailable()] &#45;&gt; tie">
<path fill="none" stroke="black" d="M319.314,-96.1148C350.57,-89.2207 396.922,-78.8056 437.145,-69 487.218,-56.793 544.349,-41.7744 583.181,-31.4011"/>
<polygon fill="black" stroke="black" points="584.38,-34.7035 593.135,-28.7368 582.57,-27.9415 584.38,-34.7035"/>
</a>
</g>
<text text-anchor="middle" x="570.145" y="-57.8" font-family="Times,serif" font-size="14.00">oPlays [!spaceAvailable()]</text>
</g>
</g>
</svg>
