<?xml version="1.0" encoding="UTF-8" standalone="no"?>
<!DOCTYPE svg PUBLIC "-//W3C//DTD SVG 1.1//EN"
 "http://www.w3.org/Graphics/SVG/1.1/DTD/svg11.dtd">
<!-- Generated by graphviz version 2.36.0 (20140111.2315)
 -->
<!-- Title: TollBooth Pages: 1 -->
<svg width="1056pt" height="415pt"
 viewBox="0.00 0.00 1056.00 415.00" xmlns="http://www.w3.org/2000/svg" xmlns:xlink="http://www.w3.org/1999/xlink">
<g id="graph0" class="graph" transform="scale(1 1) rotate(0) translate(4 411)">
<title>TollBooth</title>
<polygon fill="white" stroke="none" points="-4,4 -4,-411 1052,-411 1052,4 -4,4"/>
<g id="clust1" class="cluster"><title>clusterTollLane_vehicleProcessingState</title>
<polygon fill="none" stroke="black" stroke-width="0.5" points="8,-8 8,-399 735,-399 735,-8 8,-8"/>
<text text-anchor="middle" x="371.5" y="-383.8" font-family="Times,serif" font-size="14.00">sm TollLane vehicleProcessingState</text>
</g>
<g id="clust2" class="cluster"><title>clusterTollLane_laneAndBoothState</title>
<polygon fill="none" stroke="black" stroke-width="0.5" points="743,-8 743,-399 1009,-399 1009,-8 743,-8"/>
<text text-anchor="middle" x="876" y="-383.8" font-family="Times,serif" font-size="14.00">sm TollLane laneAndBoothState</text>
</g>
<!-- start_TollLane_vehicleProcessingState -->
<g id="node1" class="node"><title>start_TollLane_vehicleProcessingState</title>
<ellipse fill="black" stroke="black" cx="215" cy="-361" rx="7.2" ry="7.2"/>
</g>
<!-- TollLane_vehicleProcessingState_Empty -->
<g id="node2" class="node"><title>TollLane_vehicleProcessingState_Empty</title>
<path fill="none" stroke="black" d="M239,-316C239,-316 191,-316 191,-316 185,-316 179,-310 179,-304 179,-304 179,-292 179,-292 179,-286 185,-280 191,-280 191,-280 239,-280 239,-280 245,-280 251,-286 251,-292 251,-292 251,-304 251,-304 251,-310 245,-316 239,-316"/>
<text text-anchor="middle" x="215" y="-294.3" font-family="Times,serif" font-size="14.00">Empty</text>
</g>
<!-- start_TollLane_vehicleProcessingState&#45;&gt;TollLane_vehicleProcessingState_Empty -->
<g id="edge1" class="edge"><title>start_TollLane_vehicleProcessingState&#45;&gt;TollLane_vehicleProcessingState_Empty</title>
<path fill="none" stroke="black" d="M215,-353.472C215,-346.902 215,-336.324 215,-326.229"/>
<polygon fill="black" stroke="black" points="218.5,-326.073 215,-316.073 211.5,-326.073 218.5,-326.073"/>
</g>
<!-- TollLane_vehicleProcessingState_VehicleClassified -->
<g id="node3" class="node"><title>TollLane_vehicleProcessingState_VehicleClassified</title>
<path fill="none" stroke="black" d="M218.25,-228C218.25,-228 127.75,-228 127.75,-228 121.75,-228 115.75,-222 115.75,-216 115.75,-216 115.75,-204 115.75,-204 115.75,-198 121.75,-192 127.75,-192 127.75,-192 218.25,-192 218.25,-192 224.25,-192 230.25,-198 230.25,-204 230.25,-204 230.25,-216 230.25,-216 230.25,-222 224.25,-228 218.25,-228"/>
<text text-anchor="middle" x="173" y="-206.3" font-family="Times,serif" font-size="14.00">VehicleClassified</text>
</g>
<!-- TollLane_vehicleProcessingState_Empty&#45;&gt;TollLane_vehicleProcessingState_VehicleClassified -->
<g id="edge6" class="edge"><title>TollLane_vehicleProcessingState_Empty&#45;&gt;TollLane_vehicleProcessingState_VehicleClassified</title>
<path fill="none" stroke="black" d="M178.778,-293.105C158.777,-288.894 135.513,-280.149 123,-262 116.224,-252.173 121.615,-242.525 130.979,-234.311"/>
<polygon fill="black" stroke="black" points="133.355,-236.901 139.185,-228.055 129.111,-231.334 133.355,-236.901"/>
<text text-anchor="middle" x="144.5" y="-250.3" font-family="Times,serif" font-size="14.00">classify</text>
</g>
<!-- TollLane_vehicleProcessingState_ExitSensorActive -->
<g id="node5" class="node"><title>TollLane_vehicleProcessingState_ExitSensorActive</title>
<path fill="none" stroke="black" d="M359.25,-52C359.25,-52 268.75,-52 268.75,-52 262.75,-52 256.75,-46 256.75,-40 256.75,-40 256.75,-28 256.75,-28 256.75,-22 262.75,-16 268.75,-16 268.75,-16 359.25,-16 359.25,-16 365.25,-16 371.25,-22 371.25,-28 371.25,-28 371.25,-40 371.25,-40 371.25,-46 365.25,-52 359.25,-52"/>
<text text-anchor="middle" x="314" y="-30.3" font-family="Times,serif" font-size="14.00">ExitSensorActive</text>
</g>
<!-- TollLane_vehicleProcessingState_Empty&#45;&gt;TollLane_vehicleProcessingState_ExitSensorActive -->
<g id="edge9" class="edge"><title>TollLane_vehicleProcessingState_Empty&#45;&gt;TollLane_vehicleProcessingState_ExitSensorActive</title>
<path fill="none" stroke="black" d="M178.767,-287.516C114.197,-268.736 -10.3071,-222.944 31,-158 77.5588,-84.7995 178.454,-54.9901 246.313,-42.9668"/>
<polygon fill="black" stroke="black" points="247.211,-46.3649 256.491,-41.2523 246.048,-39.4622 247.211,-46.3649"/>
<text text-anchor="middle" x="109.5" y="-162.3" font-family="Times,serif" font-size="14.00">vehicleActivatedExitSensor</text>
</g>
<!-- TollLane_vehicleProcessingState_ReverseEntry -->
<g id="node6" class="node"><title>TollLane_vehicleProcessingState_ReverseEntry</title>
<path fill="none" stroke="black" d="M412.25,-228C412.25,-228 343.75,-228 343.75,-228 337.75,-228 331.75,-222 331.75,-216 331.75,-216 331.75,-204 331.75,-204 331.75,-198 337.75,-192 343.75,-192 343.75,-192 412.25,-192 412.25,-192 418.25,-192 424.25,-198 424.25,-204 424.25,-204 424.25,-216 424.25,-216 424.25,-222 418.25,-228 412.25,-228"/>
<text text-anchor="middle" x="378" y="-206.3" font-family="Times,serif" font-size="14.00">ReverseEntry</text>
</g>
<!-- TollLane_vehicleProcessingState_Empty&#45;&gt;TollLane_vehicleProcessingState_ReverseEntry -->
<g id="edge12" class="edge"><title>TollLane_vehicleProcessingState_Empty&#45;&gt;TollLane_vehicleProcessingState_ReverseEntry</title>
<path fill="none" stroke="black" d="M217.827,-279.904C220.576,-268.662 225.888,-254.507 236,-246 264.22,-222.259 281.225,-236.953 317,-228 318.466,-227.633 319.951,-227.256 321.448,-226.872"/>
<polygon fill="black" stroke="black" points="322.657,-230.174 331.441,-224.25 320.88,-223.403 322.657,-230.174"/>
<text text-anchor="middle" x="363.5" y="-250.3" font-family="Times,serif" font-size="14.00">vehicleActivatedExitSensorReverseDirection</text>
</g>
<!-- TollLane_vehicleProcessingState_VehicleClassified&#45;&gt;TollLane_vehicleProcessingState_Empty -->
<g id="edge2" class="edge"><title>TollLane_vehicleProcessingState_VehicleClassified&#45;&gt;TollLane_vehicleProcessingState_Empty</title>
<path fill="none" stroke="black" d="M169.91,-228.339C168.896,-238.604 169.077,-251.593 174,-262 175.751,-265.701 178.101,-269.16 180.794,-272.35"/>
<polygon fill="black" stroke="black" points="178.538,-275.047 188.049,-279.714 183.525,-270.134 178.538,-275.047"/>
<text text-anchor="middle" x="192" y="-250.3" font-family="Times,serif" font-size="14.00">cancel</text>
</g>
<!-- TollLane_vehicleProcessingState_VehicleFreeToGo -->
<g id="node4" class="node"><title>TollLane_vehicleProcessingState_VehicleFreeToGo</title>
<path fill="none" stroke="black" d="M478,-140C478,-140 384,-140 384,-140 378,-140 372,-134 372,-128 372,-128 372,-116 372,-116 372,-110 378,-104 384,-104 384,-104 478,-104 478,-104 484,-104 490,-110 490,-116 490,-116 490,-128 490,-128 490,-134 484,-140 478,-140"/>
<text text-anchor="middle" x="431" y="-118.3" font-family="Times,serif" font-size="14.00">VehicleFreeToGo</text>
</g>
<!-- TollLane_vehicleProcessingState_VehicleClassified&#45;&gt;TollLane_vehicleProcessingState_VehicleFreeToGo -->
<g id="edge7" class="edge"><title>TollLane_vehicleProcessingState_VehicleClassified&#45;&gt;TollLane_vehicleProcessingState_VehicleFreeToGo</title>
<path fill="none" stroke="black" d="M184.617,-191.857C193.446,-180.287 206.662,-165.762 222,-158 276.402,-130.469 298.016,-150.927 358,-140 359.26,-139.77 360.531,-139.533 361.811,-139.29"/>
<polygon fill="black" stroke="black" points="362.617,-142.698 371.738,-137.309 361.247,-135.833 362.617,-142.698"/>
<text text-anchor="middle" x="273.5" y="-162.3" font-family="Times,serif" font-size="14.00">paymentComplete</text>
</g>
<!-- TollLane_vehicleProcessingState_VehicleClassified&#45;&gt;TollLane_vehicleProcessingState_ExitSensorActive -->
<g id="edge10" class="edge"><title>TollLane_vehicleProcessingState_VehicleClassified&#45;&gt;TollLane_vehicleProcessingState_ExitSensorActive</title>
<path fill="none" stroke="black" d="M183.736,-191.676C186.772,-186.183 189.835,-179.981 192,-174 202.801,-144.168 188.09,-130.189 206,-104 219.95,-83.6021 242.124,-67.916 262.76,-56.6926"/>
<polygon fill="black" stroke="black" points="264.528,-59.7182 271.788,-52.0024 261.301,-53.5064 264.528,-59.7182"/>
<text text-anchor="middle" x="284.5" y="-118.3" font-family="Times,serif" font-size="14.00">vehicleActivatedExitSensor</text>
</g>
<!-- TollLane_vehicleProcessingState_VehicleFreeToGo&#45;&gt;TollLane_vehicleProcessingState_Empty -->
<g id="edge3" class="edge"><title>TollLane_vehicleProcessingState_VehicleFreeToGo&#45;&gt;TollLane_vehicleProcessingState_Empty</title>
<path fill="none" stroke="black" d="M386.887,-140.065C374.415,-145.361 360.982,-151.521 349,-158 337.723,-164.098 336.43,-168.194 325,-174 304.315,-184.508 295.606,-179.595 276,-192 275.095,-192.572 221.471,-245.039 221,-246 217.452,-253.236 215.662,-261.72 214.83,-269.669"/>
<polygon fill="black" stroke="black" points="211.336,-269.466 214.222,-279.66 218.323,-269.892 211.336,-269.466"/>
<text text-anchor="middle" x="299" y="-206.3" font-family="Times,serif" font-size="14.00">unblock</text>
</g>
<!-- TollLane_vehicleProcessingState_VehicleFreeToGo&#45;&gt;TollLane_vehicleProcessingState_ExitSensorActive -->
<g id="edge11" class="edge"><title>TollLane_vehicleProcessingState_VehicleFreeToGo&#45;&gt;TollLane_vehicleProcessingState_ExitSensorActive</title>
<path fill="none" stroke="black" d="M407.605,-103.803C389.829,-90.7375 365.191,-72.6277 345.654,-58.2673"/>
<polygon fill="black" stroke="black" points="347.485,-55.2694 337.355,-52.1669 343.34,-60.9096 347.485,-55.2694"/>
<text text-anchor="middle" x="461.5" y="-74.3" font-family="Times,serif" font-size="14.00">vehicleActivatedExitSensor</text>
</g>
<!-- TollLane_vehicleProcessingState_ExitSensorActive&#45;&gt;TollLane_vehicleProcessingState_Empty -->
<g id="edge4" class="edge"><title>TollLane_vehicleProcessingState_ExitSensorActive&#45;&gt;TollLane_vehicleProcessingState_Empty</title>
<path fill="none" stroke="black" d="M371.405,-37.7376C430.392,-41.5853 517.265,-50.4511 544,-70 610.101,-118.333 637.601,-254.821 631,-262 606.369,-288.791 364.313,-295.087 261.169,-296.557"/>
<polygon fill="black" stroke="black" points="261,-293.059 251.048,-296.692 261.093,-300.058 261,-293.059"/>
<text text-anchor="middle" x="676" y="-162.3" font-family="Times,serif" font-size="14.00">exitSensorDeactivated</text>
</g>
<!-- TollLane_vehicleProcessingState_ReverseEntry&#45;&gt;TollLane_vehicleProcessingState_Empty -->
<g id="edge5" class="edge"><title>TollLane_vehicleProcessingState_ReverseEntry&#45;&gt;TollLane_vehicleProcessingState_Empty</title>
<path fill="none" stroke="black" d="M424.525,-215.866C466.571,-222.061 518.536,-235.338 495,-262 479.808,-279.209 336.764,-289.981 261.229,-294.516"/>
<polygon fill="black" stroke="black" points="260.817,-291.034 251.039,-295.115 261.227,-298.022 260.817,-291.034"/>
<text text-anchor="middle" x="564" y="-250.3" font-family="Times,serif" font-size="14.00">exitSensorDeactivated</text>
</g>
<!-- TollLane_vehicleProcessingState_ReverseEntry&#45;&gt;TollLane_vehicleProcessingState_VehicleFreeToGo -->
<g id="edge8" class="edge"><title>TollLane_vehicleProcessingState_ReverseEntry&#45;&gt;TollLane_vehicleProcessingState_VehicleFreeToGo</title>
<path fill="none" stroke="black" d="M361.821,-191.825C354.228,-181.619 348.19,-168.633 355,-158 357.864,-153.527 361.461,-149.618 365.522,-146.203"/>
<polygon fill="black" stroke="black" points="367.758,-148.906 373.834,-140.226 363.671,-143.223 367.758,-148.906"/>
<text text-anchor="middle" x="467" y="-162.3" font-family="Times,serif" font-size="14.00">exitSensorDeactivatedReverseDirection</text>
</g>
<!-- start_TollLane_laneAndBoothState -->
<g id="node7" class="node"><title>start_TollLane_laneAndBoothState</title>
<ellipse fill="black" stroke="black" cx="820" cy="-361" rx="7.2" ry="7.2"/>
</g>
<!-- TollLane_laneAndBoothState_Closed -->
<g id="node8" class="node"><title>TollLane_laneAndBoothState_Closed</title>
<path fill="none" stroke="black" d="M844,-316C844,-316 796,-316 796,-316 790,-316 784,-310 784,-304 784,-304 784,-292 784,-292 784,-286 790,-280 796,-280 796,-280 844,-280 844,-280 850,-280 856,-286 856,-292 856,-292 856,-304 856,-304 856,-310 850,-316 844,-316"/>
<text text-anchor="middle" x="820" y="-294.3" font-family="Times,serif" font-size="14.00">Closed</text>
</g>
<!-- start_TollLane_laneAndBoothState&#45;&gt;TollLane_laneAndBoothState_Closed -->
<g id="edge13" class="edge"><title>start_TollLane_laneAndBoothState&#45;&gt;TollLane_laneAndBoothState_Closed</title>
<path fill="none" stroke="black" d="M820,-353.472C820,-346.902 820,-336.324 820,-326.229"/>
<polygon fill="black" stroke="black" points="823.5,-326.073 820,-316.073 816.5,-326.073 823.5,-326.073"/>
</g>
<!-- TollLane_laneAndBoothState_Opening -->
<g id="node9" class="node"><title>TollLane_laneAndBoothState_Opening</title>
<path fill="none" stroke="black" d="M811,-228C811,-228 763,-228 763,-228 757,-228 751,-222 751,-216 751,-216 751,-204 751,-204 751,-198 757,-192 763,-192 763,-192 811,-192 811,-192 817,-192 823,-198 823,-204 823,-204 823,-216 823,-216 823,-222 817,-228 811,-228"/>
<text text-anchor="middle" x="787" y="-206.3" font-family="Times,serif" font-size="14.00">Opening</text>
</g>
<!-- TollLane_laneAndBoothState_Closed&#45;&gt;TollLane_laneAndBoothState_Opening -->
<g id="edge16" class="edge"><title>TollLane_laneAndBoothState_Closed&#45;&gt;TollLane_laneAndBoothState_Opening</title>
<path fill="none" stroke="black" d="M785.195,-279.939C778.684,-275.081 772.752,-269.126 769,-262 764.912,-254.237 766.207,-245.347 769.498,-237.186"/>
<polygon fill="black" stroke="black" points="772.724,-238.561 774.078,-228.053 766.467,-235.424 772.724,-238.561"/>
<text text-anchor="middle" x="783" y="-250.3" font-family="Times,serif" font-size="14.00">open</text>
</g>
<!-- TollLane_laneAndBoothState_Opening&#45;&gt;TollLane_laneAndBoothState_Closed -->
<g id="edge14" class="edge"><title>TollLane_laneAndBoothState_Opening&#45;&gt;TollLane_laneAndBoothState_Closed</title>
<path fill="none" stroke="black" d="M793.555,-228.084C798.164,-240.094 804.423,-256.406 809.695,-270.145"/>
<polygon fill="black" stroke="black" points="806.472,-271.514 813.322,-279.597 813.007,-269.006 806.472,-271.514"/>
<text text-anchor="middle" x="849" y="-250.3" font-family="Times,serif" font-size="14.00">cancelOpening</text>
</g>
<!-- TollLane_laneAndBoothState_Open -->
<g id="node10" class="node"><title>TollLane_laneAndBoothState_Open</title>
<path fill="none" stroke="black" d="M811,-140C811,-140 763,-140 763,-140 757,-140 751,-134 751,-128 751,-128 751,-116 751,-116 751,-110 757,-104 763,-104 763,-104 811,-104 811,-104 817,-104 823,-110 823,-116 823,-116 823,-128 823,-128 823,-134 817,-140 811,-140"/>
<text text-anchor="middle" x="787" y="-118.3" font-family="Times,serif" font-size="14.00">Open</text>
</g>
<!-- TollLane_laneAndBoothState_Opening&#45;&gt;TollLane_laneAndBoothState_Open -->
<g id="edge17" class="edge"><title>TollLane_laneAndBoothState_Opening&#45;&gt;TollLane_laneAndBoothState_Open</title>
<path fill="none" stroke="black" d="M776.724,-191.769C773.98,-186.28 771.393,-180.057 770,-174 768.406,-167.07 768.406,-164.93 770,-158 770.653,-155.161 771.568,-152.285 772.639,-149.466"/>
<polygon fill="black" stroke="black" points="775.88,-150.792 776.724,-140.231 769.478,-147.961 775.88,-150.792"/>
<text text-anchor="middle" x="823.5" y="-162.3" font-family="Times,serif" font-size="14.00">completedOpening</text>
</g>
<!-- TollLane_laneAndBoothState_Closing -->
<g id="node11" class="node"><title>TollLane_laneAndBoothState_Closing</title>
<path fill="none" stroke="black" d="M845,-52C845,-52 797,-52 797,-52 791,-52 785,-46 785,-40 785,-40 785,-28 785,-28 785,-22 791,-16 797,-16 797,-16 845,-16 845,-16 851,-16 857,-22 857,-28 857,-28 857,-40 857,-40 857,-46 851,-52 845,-52"/>
<text text-anchor="middle" x="821" y="-30.3" font-family="Times,serif" font-size="14.00">Closing</text>
</g>
<!-- TollLane_laneAndBoothState_Open&#45;&gt;TollLane_laneAndBoothState_Closing -->
<g id="edge19" class="edge"><title>TollLane_laneAndBoothState_Open&#45;&gt;TollLane_laneAndBoothState_Closing</title>
<path fill="none" stroke="black" d="M773.493,-103.959C767.171,-93.7997 762.18,-80.8172 768,-70 770.326,-65.6758 773.447,-61.7969 777.016,-58.3392"/>
<polygon fill="black" stroke="black" points="779.401,-60.9076 784.858,-51.8259 774.929,-55.5227 779.401,-60.9076"/>
<text text-anchor="middle" x="782.5" y="-74.3" font-family="Times,serif" font-size="14.00">close</text>
</g>
<!-- TollLane_laneAndBoothState_Closing&#45;&gt;TollLane_laneAndBoothState_Closed -->
<g id="edge15" class="edge"><title>TollLane_laneAndBoothState_Closing&#45;&gt;TollLane_laneAndBoothState_Closed</title>
<path fill="none" stroke="black" d="M857.158,-44.1457C870.433,-49.4279 884.128,-57.5799 892,-70 1026.56,-282.293 907.418,-242.501 895,-262 888.179,-272.711 877.129,-280.198 865.583,-285.41"/>
<polygon fill="black" stroke="black" points="864.278,-282.162 856.289,-289.121 866.874,-288.663 864.278,-282.162"/>
<text text-anchor="middle" x="997" y="-162.3" font-family="Times,serif" font-size="14.00">completedClosing</text>
</g>
<!-- TollLane_laneAndBoothState_Closing&#45;&gt;TollLane_laneAndBoothState_Open -->
<g id="edge18" class="edge"><title>TollLane_laneAndBoothState_Closing&#45;&gt;TollLane_laneAndBoothState_Open</title>
<path fill="none" stroke="black" d="M814.246,-52.084C809.498,-64.0939 803.049,-80.4059 797.617,-94.1453"/>
<polygon fill="black" stroke="black" points="794.302,-93.0102 793.88,-103.597 800.812,-95.5838 794.302,-93.0102"/>
<text text-anchor="middle" x="848" y="-74.3" font-family="Times,serif" font-size="14.00">cancelClosing</text>
</g>
</g>
</svg>
