<?xml version="1.0" encoding="UTF-8" standalone="no"?>
<!DOCTYPE svg PUBLIC "-//W3C//DTD SVG 1.1//EN"
 "http://www.w3.org/Graphics/SVG/1.1/DTD/svg11.dtd">
<!-- Generated by graphviz version 2.39.20140502.0445 (20140502.0445)
 -->
<!-- Title: TollBooth Pages: 1 -->
<svg width="1054pt" height="411pt"
 viewBox="0.00 0.00 1054.00 411.40" xmlns="http://www.w3.org/2000/svg" xmlns:xlink="http://www.w3.org/1999/xlink">
<g id="graph0" class="graph" transform="scale(1 1) rotate(0) translate(4 407.4)">
<title>TollBooth</title>
<polygon fill="white" stroke="none" points="-4,4 -4,-407.4 1050,-407.4 1050,4 -4,4"/>
<g id="clust1" class="cluster"><title>clusterTollLane_vehicleProcessingState</title>
<polygon fill="none" stroke="black" stroke-width="0.5" points="8,-8 8,-395.4 735,-395.4 735,-8 8,-8"/>
<text text-anchor="middle" x="371.5" y="-380.2" font-family="Times,serif" font-size="14.00">sm TollLane vehicleProcessingState</text>
</g>
<g id="clust2" class="cluster"><title>clusterTollLane_laneAndBoothState</title>
<polygon fill="none" stroke="black" stroke-width="0.5" points="743,-8 743,-395.4 1009,-395.4 1009,-8 743,-8"/>
<text text-anchor="middle" x="876" y="-380.2" font-family="Times,serif" font-size="14.00">sm TollLane laneAndBoothState</text>
</g>
<!-- start_TollLane_vehicleProcessingState -->
<g id="node1" class="node"><title>start_TollLane_vehicleProcessingState</title>
<ellipse fill="black" stroke="black" cx="215" cy="-357.2" rx="7.2" ry="7.2"/>
</g>
<!-- TollLane_vehicleProcessingState_Empty -->
<g id="node2" class="node"><title>TollLane_vehicleProcessingState_Empty</title>
<path fill="none" stroke="black" d="M239,-313C239,-313 191,-313 191,-313 185,-313 179,-307 179,-301 179,-301 179,-289 179,-289 179,-283 185,-277 191,-277 191,-277 239,-277 239,-277 245,-277 251,-283 251,-289 251,-289 251,-301 251,-301 251,-307 245,-313 239,-313"/>
<text text-anchor="middle" x="215" y="-291.3" font-family="Times,serif" font-size="14.00">Empty</text>
</g>
<!-- start_TollLane_vehicleProcessingState&#45;&gt;TollLane_vehicleProcessingState_Empty -->
<g id="edge1" class="edge"><title>start_TollLane_vehicleProcessingState&#45;&gt;TollLane_vehicleProcessingState_Empty</title>
<g id="a_edge1"><a xlink:title="start &#160;&#45;&gt; Empty">
<path fill="none" stroke="black" d="M215,-349.758C215,-343.387 215,-333.197 215,-323.393"/>
<polygon fill="black" stroke="black" points="218.5,-323.105 215,-313.105 211.5,-323.105 218.5,-323.105"/>
</a>
</g>
</g>
<!-- TollLane_vehicleProcessingState_VehicleClassified -->
<g id="node3" class="node"><title>TollLane_vehicleProcessingState_VehicleClassified</title>
<path fill="none" stroke="black" d="M218.5,-226C218.5,-226 127.5,-226 127.5,-226 121.5,-226 115.5,-220 115.5,-214 115.5,-214 115.5,-202 115.5,-202 115.5,-196 121.5,-190 127.5,-190 127.5,-190 218.5,-190 218.5,-190 224.5,-190 230.5,-196 230.5,-202 230.5,-202 230.5,-214 230.5,-214 230.5,-220 224.5,-226 218.5,-226"/>
<text text-anchor="middle" x="173" y="-204.3" font-family="Times,serif" font-size="14.00">VehicleClassified</text>
</g>
<!-- TollLane_vehicleProcessingState_Empty&#45;&gt;TollLane_vehicleProcessingState_VehicleClassified -->
<g id="edge6" class="edge"><title>TollLane_vehicleProcessingState_Empty&#45;&gt;TollLane_vehicleProcessingState_VehicleClassified</title>
<g id="a_edge6"><a xlink:title="Empty classify &#45;&gt; VehicleClassified">
<path fill="none" stroke="black" d="M131.128,-232.476 122.395,-240.389 117.549,-249.607 124,-259 136.266,-276.86 159.016,-285.61 178.7,-289.895"/>
<polygon fill="black" stroke="black" points="133.487,-235.074 139.215,-226.162 129.179,-229.557 133.487,-235.074"/>
</a>
</g>
<text text-anchor="middle" x="145.5" y="-247.8" font-family="Times,serif" font-size="14.00">classify</text>
</g>
<!-- TollLane_vehicleProcessingState_ExitSensorActive -->
<g id="node5" class="node"><title>TollLane_vehicleProcessingState_ExitSensorActive</title>
<path fill="none" stroke="black" d="M359.5,-52C359.5,-52 268.5,-52 268.5,-52 262.5,-52 256.5,-46 256.5,-40 256.5,-40 256.5,-28 256.5,-28 256.5,-22 262.5,-16 268.5,-16 268.5,-16 359.5,-16 359.5,-16 365.5,-16 371.5,-22 371.5,-28 371.5,-28 371.5,-40 371.5,-40 371.5,-46 365.5,-52 359.5,-52"/>
<text text-anchor="middle" x="314" y="-30.3" font-family="Times,serif" font-size="14.00">ExitSensorActive</text>
</g>
<!-- TollLane_vehicleProcessingState_Empty&#45;&gt;TollLane_vehicleProcessingState_ExitSensorActive -->
<g id="edge9" class="edge"><title>TollLane_vehicleProcessingState_Empty&#45;&gt;TollLane_vehicleProcessingState_ExitSensorActive</title>
<g id="a_edge9"><a xlink:title="Empty vehicleActivatedExitSensor &#45;&gt; ExitSensorActive">
<path fill="none" stroke="black" d="M178.781,-284.746C114.234,-266.395 -10.2333,-221.516 31,-157 77.5901,-84.1028 178.231,-54.6209 246.055,-42.7924"/>
<polygon fill="black" stroke="black" points="246.935,-46.1944 256.228,-41.1069 245.791,-39.2885 246.935,-46.1944"/>
</a>
</g>
<text text-anchor="middle" x="109.5" y="-160.8" font-family="Times,serif" font-size="14.00">vehicleActivatedExitSensor</text>
</g>
<!-- TollLane_vehicleProcessingState_ReverseEntry -->
<g id="node6" class="node"><title>TollLane_vehicleProcessingState_ReverseEntry</title>
<path fill="none" stroke="black" d="M412.5,-226C412.5,-226 343.5,-226 343.5,-226 337.5,-226 331.5,-220 331.5,-214 331.5,-214 331.5,-202 331.5,-202 331.5,-196 337.5,-190 343.5,-190 343.5,-190 412.5,-190 412.5,-190 418.5,-190 424.5,-196 424.5,-202 424.5,-202 424.5,-214 424.5,-214 424.5,-220 418.5,-226 412.5,-226"/>
<text text-anchor="middle" x="378" y="-204.3" font-family="Times,serif" font-size="14.00">ReverseEntry</text>
</g>
<!-- TollLane_vehicleProcessingState_Empty&#45;&gt;TollLane_vehicleProcessingState_ReverseEntry -->
<g id="edge12" class="edge"><title>TollLane_vehicleProcessingState_Empty&#45;&gt;TollLane_vehicleProcessingState_ReverseEntry</title>
<g id="a_edge12"><a xlink:title="Empty vehicleActivatedExitSensorReverseDirection &#45;&gt; ReverseEntry">
<path fill="none" stroke="black" d="M218.039,-276.752C220.86,-265.807 226.173,-252.209 236,-244 264.303,-220.358 281.225,-234.953 317,-226 318.466,-225.633 319.951,-225.256 321.448,-224.872"/>
<polygon fill="black" stroke="black" points="322.657,-228.174 331.441,-222.25 320.88,-221.403 322.657,-228.174"/>
</a>
</g>
<text text-anchor="middle" x="363.5" y="-247.8" font-family="Times,serif" font-size="14.00">vehicleActivatedExitSensorReverseDirection</text>
</g>
<!-- TollLane_vehicleProcessingState_VehicleClassified&#45;&gt;TollLane_vehicleProcessingState_Empty -->
<g id="edge2" class="edge"><title>TollLane_vehicleProcessingState_VehicleClassified&#45;&gt;TollLane_vehicleProcessingState_Empty</title>
<g id="a_edge2"><a xlink:title="VehicleClassified cancel &#45;&gt; Empty">
<path fill="none" stroke="black" d="M169.934,-226.466C168.995,-236.455 169.245,-248.955 174,-259 175.752,-262.701 178.102,-266.159 180.796,-269.349"/>
<polygon fill="black" stroke="black" points="178.54,-272.047 188.051,-276.714 183.526,-267.134 178.54,-272.047"/>
</a>
</g>
<text text-anchor="middle" x="192" y="-247.8" font-family="Times,serif" font-size="14.00">cancel</text>
</g>
<!-- TollLane_vehicleProcessingState_VehicleFreeToGo -->
<g id="node4" class="node"><title>TollLane_vehicleProcessingState_VehicleFreeToGo</title>
<path fill="none" stroke="black" d="M478,-139C478,-139 384,-139 384,-139 378,-139 372,-133 372,-127 372,-127 372,-115 372,-115 372,-109 378,-103 384,-103 384,-103 478,-103 478,-103 484,-103 490,-109 490,-115 490,-115 490,-127 490,-127 490,-133 484,-139 478,-139"/>
<text text-anchor="middle" x="431" y="-117.3" font-family="Times,serif" font-size="14.00">VehicleFreeToGo</text>
</g>
<!-- TollLane_vehicleProcessingState_VehicleClassified&#45;&gt;TollLane_vehicleProcessingState_VehicleFreeToGo -->
<g id="edge7" class="edge"><title>TollLane_vehicleProcessingState_VehicleClassified&#45;&gt;TollLane_vehicleProcessingState_VehicleFreeToGo</title>
<g id="a_edge7"><a xlink:title="VehicleClassified paymentComplete &#45;&gt; VehicleFreeToGo">
<path fill="none" stroke="black" d="M185.072,-189.704C193.931,-178.443 206.997,-164.499 222,-157 276.537,-129.738 298.016,-149.927 358,-139 359.26,-138.77 360.531,-138.533 361.811,-138.29"/>
<polygon fill="black" stroke="black" points="362.617,-141.698 371.738,-136.309 361.247,-134.833 362.617,-141.698"/>
</a>
</g>
<text text-anchor="middle" x="273.5" y="-160.8" font-family="Times,serif" font-size="14.00">paymentComplete</text>
</g>
<!-- TollLane_vehicleProcessingState_VehicleClassified&#45;&gt;TollLane_vehicleProcessingState_ExitSensorActive -->
<g id="edge10" class="edge"><title>TollLane_vehicleProcessingState_VehicleClassified&#45;&gt;TollLane_vehicleProcessingState_ExitSensorActive</title>
<g id="a_edge10"><a xlink:title="VehicleClassified vehicleActivatedExitSensor &#45;&gt; ExitSensorActive">
<path fill="none" stroke="black" d="M183.726,-189.672C186.761,-184.179 189.826,-177.978 192,-172 202.693,-142.592 188.215,-128.746 206,-103 219.822,-82.991 241.645,-67.6397 262.066,-56.6302"/>
<polygon fill="black" stroke="black" points="263.721,-59.7153 271.01,-52.0268 260.517,-53.4913 263.721,-59.7153"/>
</a>
</g>
<text text-anchor="middle" x="284.5" y="-117.3" font-family="Times,serif" font-size="14.00">vehicleActivatedExitSensor</text>
</g>
<!-- TollLane_vehicleProcessingState_VehicleFreeToGo&#45;&gt;TollLane_vehicleProcessingState_Empty -->
<g id="edge3" class="edge"><title>TollLane_vehicleProcessingState_VehicleFreeToGo&#45;&gt;TollLane_vehicleProcessingState_Empty</title>
<g id="a_edge3"><a xlink:title="VehicleFreeToGo unblock &#45;&gt; Empty">
<path fill="none" stroke="black" d="M214.935,-266.939 215.78,-259.222 217.552,-251.012 221,-244 221.472,-243.039 275.095,-190.572 276,-190 295.606,-177.595 304.163,-182.203 325,-172 336.297,-166.469 337.849,-162.82 349,-157 361.213,-150.626 374.845,-144.454 387.433,-139.113"/>
<polygon fill="black" stroke="black" points="211.437,-266.793 214.285,-276.998 218.422,-267.245 211.437,-266.793"/>
</a>
</g>
<text text-anchor="middle" x="299" y="-204.3" font-family="Times,serif" font-size="14.00">unblock</text>
</g>
<!-- TollLane_vehicleProcessingState_VehicleFreeToGo&#45;&gt;TollLane_vehicleProcessingState_ExitSensorActive -->
<g id="edge11" class="edge"><title>TollLane_vehicleProcessingState_VehicleFreeToGo&#45;&gt;TollLane_vehicleProcessingState_ExitSensorActive</title>
<g id="a_edge11"><a xlink:title="VehicleFreeToGo vehicleActivatedExitSensor &#45;&gt; ExitSensorActive">
<path fill="none" stroke="black" d="M345.889,-58.1671 365.285,-72.2583 389.641,-89.9529 407.323,-102.799"/>
<polygon fill="black" stroke="black" points="347.789,-55.2215 337.641,-52.1754 343.675,-60.8847 347.789,-55.2215"/>
</a>
</g>
<text text-anchor="middle" x="458.5" y="-73.8" font-family="Times,serif" font-size="14.00">vehicleActivatedExitSensor</text>
</g>
<!-- TollLane_vehicleProcessingState_ExitSensorActive&#45;&gt;TollLane_vehicleProcessingState_Empty -->
<g id="edge4" class="edge"><title>TollLane_vehicleProcessingState_ExitSensorActive&#45;&gt;TollLane_vehicleProcessingState_Empty</title>
<g id="a_edge4"><a xlink:title="ExitSensorActive exitSensorDeactivated &#45;&gt; Empty">
<path fill="none" stroke="black" d="M261.169,-293.557 364.313,-292.087 606.369,-285.791 631,-259 637.617,-251.803 612.03,-121.054 541,-70 514.611,-51.0323 429.799,-42.0294 371.66,-37.9915"/>
<polygon fill="black" stroke="black" points="261,-290.059 251.048,-293.692 261.093,-297.058 261,-290.059"/>
</a>
</g>
<text text-anchor="middle" x="675" y="-160.8" font-family="Times,serif" font-size="14.00">exitSensorDeactivated</text>
</g>
<!-- TollLane_vehicleProcessingState_ReverseEntry&#45;&gt;TollLane_vehicleProcessingState_Empty -->
<g id="edge5" class="edge"><title>TollLane_vehicleProcessingState_ReverseEntry&#45;&gt;TollLane_vehicleProcessingState_Empty</title>
<g id="a_edge5"><a xlink:title="ReverseEntry exitSensorDeactivated &#45;&gt; Empty">
<path fill="none" stroke="black" d="M261.229,-291.516 336.764,-286.981 479.808,-276.209 495,-259 518.39,-232.504 466.84,-219.597 424.887,-213.642"/>
<polygon fill="black" stroke="black" points="260.817,-288.034 251.039,-292.115 261.227,-295.022 260.817,-288.034"/>
</a>
</g>
<text text-anchor="middle" x="564" y="-247.8" font-family="Times,serif" font-size="14.00">exitSensorDeactivated</text>
</g>
<!-- TollLane_vehicleProcessingState_ReverseEntry&#45;&gt;TollLane_vehicleProcessingState_VehicleFreeToGo -->
<g id="edge8" class="edge"><title>TollLane_vehicleProcessingState_ReverseEntry&#45;&gt;TollLane_vehicleProcessingState_VehicleFreeToGo</title>
<g id="a_edge8"><a xlink:title="ReverseEntry exitSensorDeactivatedReverseDirection &#45;&gt; VehicleFreeToGo">
<path fill="none" stroke="black" d="M361.553,-189.724C354.154,-179.799 348.404,-167.299 355,-157 357.864,-152.527 361.461,-148.618 365.522,-145.203"/>
<polygon fill="black" stroke="black" points="367.758,-147.906 373.834,-139.226 363.671,-142.223 367.758,-147.906"/>
</a>
</g>
<text text-anchor="middle" x="467" y="-160.8" font-family="Times,serif" font-size="14.00">exitSensorDeactivatedReverseDirection</text>
</g>
<!-- start_TollLane_laneAndBoothState -->
<g id="node7" class="node"><title>start_TollLane_laneAndBoothState</title>
<ellipse fill="black" stroke="black" cx="820" cy="-357.2" rx="7.2" ry="7.2"/>
</g>
<!-- TollLane_laneAndBoothState_Closed -->
<g id="node8" class="node"><title>TollLane_laneAndBoothState_Closed</title>
<path fill="none" stroke="black" d="M844,-313C844,-313 796,-313 796,-313 790,-313 784,-307 784,-301 784,-301 784,-289 784,-289 784,-283 790,-277 796,-277 796,-277 844,-277 844,-277 850,-277 856,-283 856,-289 856,-289 856,-301 856,-301 856,-307 850,-313 844,-313"/>
<text text-anchor="middle" x="820" y="-291.3" font-family="Times,serif" font-size="14.00">Closed</text>
</g>
<!-- start_TollLane_laneAndBoothState&#45;&gt;TollLane_laneAndBoothState_Closed -->
<g id="edge13" class="edge"><title>start_TollLane_laneAndBoothState&#45;&gt;TollLane_laneAndBoothState_Closed</title>
<g id="a_edge13"><a xlink:title="start &#160;&#45;&gt; Closed">
<path fill="none" stroke="black" d="M820,-349.758C820,-343.387 820,-333.197 820,-323.393"/>
<polygon fill="black" stroke="black" points="823.5,-323.105 820,-313.105 816.5,-323.105 823.5,-323.105"/>
</a>
</g>
</g>
<!-- TollLane_laneAndBoothState_Opening -->
<g id="node9" class="node"><title>TollLane_laneAndBoothState_Opening</title>
<path fill="none" stroke="black" d="M811,-226C811,-226 763,-226 763,-226 757,-226 751,-220 751,-214 751,-214 751,-202 751,-202 751,-196 757,-190 763,-190 763,-190 811,-190 811,-190 817,-190 823,-196 823,-202 823,-202 823,-214 823,-214 823,-220 817,-226 811,-226"/>
<text text-anchor="middle" x="787" y="-204.3" font-family="Times,serif" font-size="14.00">Opening</text>
</g>
<!-- TollLane_laneAndBoothState_Closed&#45;&gt;TollLane_laneAndBoothState_Opening -->
<g id="edge16" class="edge"><title>TollLane_laneAndBoothState_Closed&#45;&gt;TollLane_laneAndBoothState_Opening</title>
<g id="a_edge16"><a xlink:title="Closed open &#45;&gt; Opening">
<path fill="none" stroke="black" d="M770.115,-235.315 767.181,-243.142 766.147,-251.6 770,-259 773.67,-266.049 779.481,-271.972 785.864,-276.823"/>
<polygon fill="black" stroke="black" points="773.318,-236.729 774.435,-226.193 766.992,-233.733 773.318,-236.729"/>
</a>
</g>
<text text-anchor="middle" x="784" y="-247.8" font-family="Times,serif" font-size="14.00">open</text>
</g>
<!-- TollLane_laneAndBoothState_Opening&#45;&gt;TollLane_laneAndBoothState_Closed -->
<g id="edge14" class="edge"><title>TollLane_laneAndBoothState_Opening&#45;&gt;TollLane_laneAndBoothState_Closed</title>
<g id="a_edge14"><a xlink:title="Opening cancelOpening &#45;&gt; Closed">
<path fill="none" stroke="black" d="M793.668,-226.175C798.228,-237.921 804.365,-253.729 809.568,-267.129"/>
<polygon fill="black" stroke="black" points="806.44,-268.744 813.322,-276.799 812.965,-266.21 806.44,-268.744"/>
</a>
</g>
<text text-anchor="middle" x="848" y="-247.8" font-family="Times,serif" font-size="14.00">cancelOpening</text>
</g>
<!-- TollLane_laneAndBoothState_Open -->
<g id="node10" class="node"><title>TollLane_laneAndBoothState_Open</title>
<path fill="none" stroke="black" d="M811,-139C811,-139 763,-139 763,-139 757,-139 751,-133 751,-127 751,-127 751,-115 751,-115 751,-109 757,-103 763,-103 763,-103 811,-103 811,-103 817,-103 823,-109 823,-115 823,-115 823,-127 823,-127 823,-133 817,-139 811,-139"/>
<text text-anchor="middle" x="787" y="-117.3" font-family="Times,serif" font-size="14.00">Open</text>
</g>
<!-- TollLane_laneAndBoothState_Opening&#45;&gt;TollLane_laneAndBoothState_Open -->
<g id="edge17" class="edge"><title>TollLane_laneAndBoothState_Opening&#45;&gt;TollLane_laneAndBoothState_Open</title>
<g id="a_edge17"><a xlink:title="Opening completedOpening &#45;&gt; Open">
<path fill="none" stroke="black" d="M772.148,-148.64 769.578,-156.11 768.228,-164.296 770,-172 771.393,-178.057 773.98,-184.28 776.724,-189.769"/>
<polygon fill="black" stroke="black" points="775.411,-149.909 776.069,-139.334 768.961,-147.191 775.411,-149.909"/>
</a>
</g>
<text text-anchor="middle" x="823.5" y="-160.8" font-family="Times,serif" font-size="14.00">completedOpening</text>
</g>
<!-- TollLane_laneAndBoothState_Closing -->
<g id="node11" class="node"><title>TollLane_laneAndBoothState_Closing</title>
<path fill="none" stroke="black" d="M845,-52C845,-52 797,-52 797,-52 791,-52 785,-46 785,-40 785,-40 785,-28 785,-28 785,-22 791,-16 797,-16 797,-16 845,-16 845,-16 851,-16 857,-22 857,-28 857,-28 857,-40 857,-40 857,-46 851,-52 845,-52"/>
<text text-anchor="middle" x="821" y="-30.3" font-family="Times,serif" font-size="14.00">Closing</text>
</g>
<!-- TollLane_laneAndBoothState_Open&#45;&gt;TollLane_laneAndBoothState_Closing -->
<g id="edge19" class="edge"><title>TollLane_laneAndBoothState_Open&#45;&gt;TollLane_laneAndBoothState_Closing</title>
<g id="a_edge19"><a xlink:title="Open close &#45;&gt; Closing">
<path fill="none" stroke="black" d="M773.838,-102.818C767.951,-92.9242 763.451,-80.4242 769,-70 771.188,-65.8905 774.096,-62.177 777.424,-58.842"/>
<polygon fill="black" stroke="black" points="779.937,-61.2987 785.261,-52.1388 775.386,-55.9792 779.937,-61.2987"/>
</a>
</g>
<text text-anchor="middle" x="783.5" y="-73.8" font-family="Times,serif" font-size="14.00">close</text>
</g>
<!-- TollLane_laneAndBoothState_Closing&#45;&gt;TollLane_laneAndBoothState_Closed -->
<g id="edge15" class="edge"><title>TollLane_laneAndBoothState_Closing&#45;&gt;TollLane_laneAndBoothState_Closed</title>
<g id="a_edge15"><a xlink:title="Closing completedClosing &#45;&gt; Closed">
<path fill="none" stroke="black" d="M857.027,-44.4164C870.002,-49.7192 883.323,-57.8143 891,-70 1030.62,-291.616 906.212,-239.715 894,-259 887.407,-269.412 876.789,-276.786 865.63,-281.986"/>
<polygon fill="black" stroke="black" points="864.123,-278.821 856.205,-285.861 866.785,-285.295 864.123,-278.821"/>
</a>
</g>
<text text-anchor="middle" x="995" y="-160.8" font-family="Times,serif" font-size="14.00">completedClosing</text>
</g>
<!-- TollLane_laneAndBoothState_Closing&#45;&gt;TollLane_laneAndBoothState_Open -->
<g id="edge18" class="edge"><title>TollLane_laneAndBoothState_Closing&#45;&gt;TollLane_laneAndBoothState_Open</title>
<g id="a_edge18"><a xlink:title="Closing cancelClosing &#45;&gt; Open">
<path fill="none" stroke="black" d="M797.749,-93.1287 803.108,-79.729 809.432,-63.9212 814.13,-52.1754"/>
<polygon fill="black" stroke="black" points="794.345,-92.2143 793.88,-102.799 800.844,-94.8141 794.345,-92.2143"/>
</a>
</g>
<text text-anchor="middle" x="847" y="-73.8" font-family="Times,serif" font-size="14.00">cancelClosing</text>
</g>
</g>
</svg>
