<?xml version="1.0" encoding="UTF-8" standalone="no"?>
<!DOCTYPE svg PUBLIC "-//W3C//DTD SVG 1.1//EN"
 "http://www.w3.org/Graphics/SVG/1.1/DTD/svg11.dtd">
<!-- Generated by graphviz version 2.40.1 (20161225.0304)
 -->
<!-- Title: TrafficLightsA Pages: 1 -->
<svg width="1081pt" height="439pt"
 viewBox="0.00 0.00 1081.41 439.40" xmlns="http://www.w3.org/2000/svg" xmlns:xlink="http://www.w3.org/1999/xlink">
<g id="graph0" class="graph" transform="scale(1 1) rotate(0) translate(4 435.4)">
<title>TrafficLightsA</title>
<polygon fill="#ffffff" stroke="transparent" points="-4,4 -4,-435.4 1077.4136,-435.4 1077.4136,4 -4,4"/>
<!-- start_Intersection_timerDriven_noPedestrian_flow -->
<g id="node1" class="node">
<title>start_Intersection_timerDriven_noPedestrian_flow</title>
<g id="a_node1"><a xlink:title="Class Intersection_timerDriven_noPedestrian, SM flow, State start">
<ellipse fill="#000000" stroke="#000000" cx="366.2388" cy="-424.2" rx="7.2" ry="7.2"/>
</a>
</g>
</g>
<!-- Intersection_timerDriven_noPedestrian_flow_FourWayStop -->
<g id="node2" class="node">
<title>Intersection_timerDriven_noPedestrian_flow_FourWayStop</title>
<g id="a_node2"><a xlink:title="Class Intersection_timerDriven_noPedestrian, SM flow, State FourWayStop">
<path fill="none" stroke="#000000" d="M401.1773,-380C401.1773,-380 331.3002,-380 331.3002,-380 325.3002,-380 319.3002,-374 319.3002,-368 319.3002,-368 319.3002,-356 319.3002,-356 319.3002,-350 325.3002,-344 331.3002,-344 331.3002,-344 401.1773,-344 401.1773,-344 407.1773,-344 413.1773,-350 413.1773,-356 413.1773,-356 413.1773,-368 413.1773,-368 413.1773,-374 407.1773,-380 401.1773,-380"/>
<text text-anchor="middle" x="366.2388" y="-357.8" font-family="Times,serif" font-size="14.00" fill="#000000">FourWayStop</text>
</a>
</g>
</g>
<!-- start_Intersection_timerDriven_noPedestrian_flow&#45;&gt;Intersection_timerDriven_noPedestrian_flow_FourWayStop -->
<g id="edge1" class="edge">
<title>start_Intersection_timerDriven_noPedestrian_flow&#45;&gt;Intersection_timerDriven_noPedestrian_flow_FourWayStop</title>
<g id="a_edge1"><a xlink:title="start to FourWayStop">
<path fill="none" stroke="#000000" d="M366.2388,-416.5731C366.2388,-409.9503 366.2388,-399.9322 366.2388,-390.2795"/>
<polygon fill="#000000" stroke="#000000" points="369.7388,-390.1266 366.2388,-380.1266 362.7388,-390.1267 369.7388,-390.1266"/>
</a>
</g>
</g>
<!-- Intersection_timerDriven_noPedestrian_flow_DirectionOneGo -->
<g id="node3" class="node">
<title>Intersection_timerDriven_noPedestrian_flow_DirectionOneGo</title>
<g id="a_node3"><a xlink:title="Class Intersection_timerDriven_noPedestrian, SM flow, State DirectionOneGo">
<path fill="none" stroke="#000000" d="M213.0429,-294C213.0429,-294 127.4346,-294 127.4346,-294 121.4346,-294 115.4346,-288 115.4346,-282 115.4346,-282 115.4346,-270 115.4346,-270 115.4346,-264 121.4346,-258 127.4346,-258 127.4346,-258 213.0429,-258 213.0429,-258 219.0429,-258 225.0429,-264 225.0429,-270 225.0429,-270 225.0429,-282 225.0429,-282 225.0429,-288 219.0429,-294 213.0429,-294"/>
<text text-anchor="middle" x="170.2388" y="-271.8" font-family="Times,serif" font-size="14.00" fill="#000000">DirectionOneGo</text>
</a>
</g>
</g>
<!-- Intersection_timerDriven_noPedestrian_flow_FourWayStop&#45;&gt;Intersection_timerDriven_noPedestrian_flow_DirectionOneGo -->
<g id="edge6" class="edge">
<title>Intersection_timerDriven_noPedestrian_flow_FourWayStop&#45;&gt;Intersection_timerDriven_noPedestrian_flow_DirectionOneGo</title>
<g id="a_edge6"><a xlink:title="From FourWayStop to DirectionOneGo on initiateRegularOperation">
<path fill="none" stroke="#000000" d="M319.1758,-360.7863C225.7209,-357.8886 23.9081,-349.0104 3.0659,-326 -1.1112,-321.3883 -.8434,-316.8408 3.0659,-312 15.9898,-295.9967 63.9058,-286.7703 105.1441,-281.6732"/>
<polygon fill="#000000" stroke="#000000" points="105.6612,-285.1367 115.1852,-280.4952 104.8454,-278.1844 105.6612,-285.1367"/>
</a>
</g>
<text text-anchor="middle" x="72.8252" y="-314.8" font-family="Times,serif" font-size="14.00" fill="#000000">initiateRegularOperation</text>
</g>
<!-- Intersection_timerDriven_noPedestrian_flow_DirectionOneGo&#45;&gt;Intersection_timerDriven_noPedestrian_flow_FourWayStop -->
<g id="edge2" class="edge">
<title>Intersection_timerDriven_noPedestrian_flow_DirectionOneGo&#45;&gt;Intersection_timerDriven_noPedestrian_flow_FourWayStop</title>
<g id="a_edge2"><a xlink:title="From DirectionOneGo to FourWayStop on detectMalfunction_DirectionOneGo">
<path fill="none" stroke="#000000" d="M153.9311,-294.1088C146.7509,-304.3118 141.518,-316.8118 149.3071,-326 159.5898,-338.1298 248.3746,-349.7195 309.1237,-356.3342"/>
<polygon fill="#000000" stroke="#000000" points="309.0488,-359.8462 319.3648,-357.4314 309.7945,-352.886 309.0488,-359.8462"/>
</a>
</g>
<text text-anchor="middle" x="251.7046" y="-314.8" font-family="Times,serif" font-size="14.00" fill="#000000">detectMalfunction_DirectionOneGo</text>
</g>
<!-- Intersection_timerDriven_noPedestrian_flow_DirectionOneHalting -->
<g id="node4" class="node">
<title>Intersection_timerDriven_noPedestrian_flow_DirectionOneHalting</title>
<g id="a_node4"><a xlink:title="Class Intersection_timerDriven_noPedestrian, SM flow, State DirectionOneHalting">
<path fill="none" stroke="#000000" d="M418.4254,-208C418.4254,-208 308.0521,-208 308.0521,-208 302.0521,-208 296.0521,-202 296.0521,-196 296.0521,-196 296.0521,-184 296.0521,-184 296.0521,-178 302.0521,-172 308.0521,-172 308.0521,-172 418.4254,-172 418.4254,-172 424.4254,-172 430.4254,-178 430.4254,-184 430.4254,-184 430.4254,-196 430.4254,-196 430.4254,-202 424.4254,-208 418.4254,-208"/>
<text text-anchor="middle" x="363.2388" y="-185.8" font-family="Times,serif" font-size="14.00" fill="#000000">DirectionOneHalting</text>
</a>
</g>
</g>
<!-- Intersection_timerDriven_noPedestrian_flow_DirectionOneGo&#45;&gt;Intersection_timerDriven_noPedestrian_flow_DirectionOneHalting -->
<g id="edge8" class="edge">
<title>Intersection_timerDriven_noPedestrian_flow_DirectionOneGo&#45;&gt;Intersection_timerDriven_noPedestrian_flow_DirectionOneHalting</title>
<g id="a_edge8"><a xlink:title="From DirectionOneGo to DirectionOneHalting on Wait_DirectionOneGo">
<path fill="none" stroke="#000000" d="M185.0658,-257.8404C194.7598,-247.0959 208.2907,-234.0541 222.8423,-226 242.133,-215.3227 264.6662,-207.7371 285.9622,-202.3776"/>
<polygon fill="#000000" stroke="#000000" points="287.0518,-205.7161 295.9693,-199.9953 285.4306,-198.9064 287.0518,-205.7161"/>
</a>
</g>
<text text-anchor="middle" x="286.437" y="-228.8" font-family="Times,serif" font-size="14.00" fill="#000000">Wait_DirectionOneGo</text>
</g>
<!-- Intersection_timerDriven_noPedestrian_flow_DirectionOneHalting&#45;&gt;Intersection_timerDriven_noPedestrian_flow_FourWayStop -->
<g id="edge3" class="edge">
<title>Intersection_timerDriven_noPedestrian_flow_DirectionOneHalting&#45;&gt;Intersection_timerDriven_noPedestrian_flow_FourWayStop</title>
<g id="a_edge3"><a xlink:title="From DirectionOneHalting to FourWayStop on detectMalfunction_DirectionOneaHalting">
<path fill="none" stroke="#000000" d="M363.5544,-208.0977C364.0768,-238.0454 365.1247,-298.1302 365.7455,-333.7199"/>
<polygon fill="#000000" stroke="#000000" points="362.2494,-333.9807 365.9234,-343.9181 369.2483,-333.8585 362.2494,-333.9807"/>
</a>
</g>
<text text-anchor="middle" x="481.2529" y="-271.8" font-family="Times,serif" font-size="14.00" fill="#000000">detectMalfunction_DirectionOneaHalting</text>
</g>
<!-- Intersection_timerDriven_noPedestrian_flow_DirectionTwoGo -->
<g id="node5" class="node">
<title>Intersection_timerDriven_noPedestrian_flow_DirectionTwoGo</title>
<g id="a_node5"><a xlink:title="Class Intersection_timerDriven_noPedestrian, SM flow, State DirectionTwoGo">
<path fill="none" stroke="#000000" d="M563.4033,-122C563.4033,-122 477.0742,-122 477.0742,-122 471.0742,-122 465.0742,-116 465.0742,-110 465.0742,-110 465.0742,-98 465.0742,-98 465.0742,-92 471.0742,-86 477.0742,-86 477.0742,-86 563.4033,-86 563.4033,-86 569.4033,-86 575.4033,-92 575.4033,-98 575.4033,-98 575.4033,-110 575.4033,-110 575.4033,-116 569.4033,-122 563.4033,-122"/>
<text text-anchor="middle" x="520.2388" y="-99.8" font-family="Times,serif" font-size="14.00" fill="#000000">DirectionTwoGo</text>
</a>
</g>
</g>
<!-- Intersection_timerDriven_noPedestrian_flow_DirectionOneHalting&#45;&gt;Intersection_timerDriven_noPedestrian_flow_DirectionTwoGo -->
<g id="edge9" class="edge">
<title>Intersection_timerDriven_noPedestrian_flow_DirectionOneHalting&#45;&gt;Intersection_timerDriven_noPedestrian_flow_DirectionTwoGo</title>
<g id="a_edge9"><a xlink:title="From DirectionOneHalting to DirectionTwoGo on WaitDirectionOneHalting">
<path fill="none" stroke="#000000" d="M396.1511,-171.9716C420.1203,-158.842 452.7672,-140.959 478.5584,-126.8313"/>
<polygon fill="#000000" stroke="#000000" points="480.2808,-129.8785 487.3697,-122.0047 476.9178,-123.7393 480.2808,-129.8785"/>
</a>
</g>
<text text-anchor="middle" x="522.3784" y="-142.8" font-family="Times,serif" font-size="14.00" fill="#000000">WaitDirectionOneHalting</text>
</g>
<!-- Intersection_timerDriven_noPedestrian_flow_DirectionTwoGo&#45;&gt;Intersection_timerDriven_noPedestrian_flow_FourWayStop -->
<g id="edge4" class="edge">
<title>Intersection_timerDriven_noPedestrian_flow_DirectionTwoGo&#45;&gt;Intersection_timerDriven_noPedestrian_flow_FourWayStop</title>
<g id="a_edge4"><a xlink:title="From DirectionTwoGo to FourWayStop on detectMalfunction_DirectionTwoGo">
<path fill="none" stroke="#000000" d="M575.5758,-120.0595C584.4958,-125.0506 592.6289,-131.551 598.2388,-140 624.4109,-179.4174 611.1146,-282.2056 602.2388,-294 580.7145,-322.6019 485.9053,-342.9368 423.201,-353.5453"/>
<polygon fill="#000000" stroke="#000000" points="422.3396,-350.1402 413.0454,-355.2264 423.4828,-357.0462 422.3396,-350.1402"/>
</a>
</g>
<text text-anchor="middle" x="715.3847" y="-228.8" font-family="Times,serif" font-size="14.00" fill="#000000">detectMalfunction_DirectionTwoGo</text>
</g>
<!-- Intersection_timerDriven_noPedestrian_flow_DirectionTwoHalting -->
<g id="node6" class="node">
<title>Intersection_timerDriven_noPedestrian_flow_DirectionTwoHalting</title>
<g id="a_node6"><a xlink:title="Class Intersection_timerDriven_noPedestrian, SM flow, State DirectionTwoHalting">
<path fill="none" stroke="#000000" d="M575.7864,-36C575.7864,-36 464.6911,-36 464.6911,-36 458.6911,-36 452.6911,-30 452.6911,-24 452.6911,-24 452.6911,-12 452.6911,-12 452.6911,-6 458.6911,0 464.6911,0 464.6911,0 575.7864,0 575.7864,0 581.7864,0 587.7864,-6 587.7864,-12 587.7864,-12 587.7864,-24 587.7864,-24 587.7864,-30 581.7864,-36 575.7864,-36"/>
<text text-anchor="middle" x="520.2388" y="-13.8" font-family="Times,serif" font-size="14.00" fill="#000000">DirectionTwoHalting</text>
</a>
</g>
</g>
<!-- Intersection_timerDriven_noPedestrian_flow_DirectionTwoGo&#45;&gt;Intersection_timerDriven_noPedestrian_flow_DirectionTwoHalting -->
<g id="edge10" class="edge">
<title>Intersection_timerDriven_noPedestrian_flow_DirectionTwoGo&#45;&gt;Intersection_timerDriven_noPedestrian_flow_DirectionTwoHalting</title>
<g id="a_edge10"><a xlink:title="From DirectionTwoGo to DirectionTwoHalting on WaitDirectionTwoGo">
<path fill="none" stroke="#000000" d="M520.2388,-85.7616C520.2388,-74.3597 520.2388,-59.4342 520.2388,-46.494"/>
<polygon fill="#000000" stroke="#000000" points="523.7388,-46.2121 520.2388,-36.2121 516.7388,-46.2121 523.7388,-46.2121"/>
</a>
</g>
<text text-anchor="middle" x="580.6172" y="-56.8" font-family="Times,serif" font-size="14.00" fill="#000000">WaitDirectionTwoGo</text>
</g>
<!-- Intersection_timerDriven_noPedestrian_flow_DirectionTwoHalting&#45;&gt;Intersection_timerDriven_noPedestrian_flow_FourWayStop -->
<g id="edge5" class="edge">
<title>Intersection_timerDriven_noPedestrian_flow_DirectionTwoHalting&#45;&gt;Intersection_timerDriven_noPedestrian_flow_FourWayStop</title>
<g id="a_edge5"><a xlink:title="From DirectionTwoHalting to FourWayStop on detectMalfunction_DirectionTwoHalting">
<path fill="none" stroke="#000000" d="M588.1598,-22.3231C683.167,-30.2657 844.2388,-51.4765 844.2388,-104 844.2388,-276 844.2388,-276 844.2388,-276 844.2388,-318.2879 550.7073,-347.1104 423.687,-357.6032"/>
<polygon fill="#000000" stroke="#000000" points="423.0615,-354.1425 413.3794,-358.4445 423.631,-361.1193 423.0615,-354.1425"/>
</a>
</g>
<text text-anchor="middle" x="958.8262" y="-185.8" font-family="Times,serif" font-size="14.00" fill="#000000">detectMalfunction_DirectionTwoHalting</text>
</g>
<!-- Intersection_timerDriven_noPedestrian_flow_DirectionTwoHalting&#45;&gt;Intersection_timerDriven_noPedestrian_flow_DirectionOneGo -->
<g id="edge7" class="edge">
<title>Intersection_timerDriven_noPedestrian_flow_DirectionTwoHalting&#45;&gt;Intersection_timerDriven_noPedestrian_flow_DirectionOneGo</title>
<g id="a_edge7"><a xlink:title="From DirectionTwoHalting to DirectionOneGo on Wait_DirectionTwoGo">
<path fill="none" stroke="#000000" d="M476.9266,-36.1192C409.432,-66.3231 278.7743,-132.9621 200.2388,-226 194.3252,-233.0056 188.8412,-241.3119 184.2229,-249.1219"/>
<polygon fill="#000000" stroke="#000000" points="181.1036,-247.5275 179.2253,-257.9545 187.196,-250.9747 181.1036,-247.5275"/>
</a>
</g>
<text text-anchor="middle" x="355.1172" y="-142.8" font-family="Times,serif" font-size="14.00" fill="#000000">Wait_DirectionTwoGo</text>
</g>
</g>
</svg>
