<?xml version="1.0" encoding="UTF-8" standalone="no"?>
<!DOCTYPE svg PUBLIC "-//W3C//DTD SVG 1.1//EN"
 "http://www.w3.org/Graphics/SVG/1.1/DTD/svg11.dtd">
<!-- Generated by graphviz version 2.40.1 (20161225.0304)
 -->
<!-- Title: TrafficLightsB Pages: 1 -->
<svg width="2095pt" height="705pt"
 viewBox="0.00 0.00 2095.00 705.00" xmlns="http://www.w3.org/2000/svg" xmlns:xlink="http://www.w3.org/1999/xlink">
<g id="graph0" class="graph" transform="scale(1 1) rotate(0) translate(4 701)">
<title>TrafficLightsB</title>
<polygon fill="#ffffff" stroke="transparent" points="-4,4 -4,-701 2091,-701 2091,4 -4,4"/>
<g id="clust1" class="cluster">
<title>clusterIntersectionTimerDriven_flow</title>
<polygon fill="none" stroke="#000000" stroke-width=".5" points="8,-8 8,-678.2 395,-678.2 395,-8 8,-8"/>
<text text-anchor="middle" x="201.5" y="-663" font-family="Times,serif" font-size="14.00" fill="#000000">sm IntersectionTimerDriven flow</text>
</g>
<g id="clust2" class="cluster">
<title>clusterIntersectionTimerDriven_pedestrianFlow</title>
<polygon fill="none" stroke="#000000" stroke-width=".5" points="403,-8 403,-678.2 1001,-678.2 1001,-8 403,-8"/>
<text text-anchor="middle" x="702" y="-663" font-family="Times,serif" font-size="14.00" fill="#000000">sm IntersectionTimerDriven pedestrianFlow</text>
</g>
<g id="clust3" class="cluster">
<title>clusterIntersectionTimerDriven_DirectionOneLight</title>
<polygon fill="none" stroke="#000000" stroke-width=".5" points="1009,-504 1009,-689 1309,-689 1309,-504 1009,-504"/>
<text text-anchor="middle" x="1159" y="-673.8" font-family="Times,serif" font-size="14.00" fill="#000000">sm IntersectionTimerDriven DirectionOneLight</text>
</g>
<g id="clust4" class="cluster">
<title>clusterIntersectionTimerDriven_DirectionTwoLight</title>
<polygon fill="none" stroke="#000000" stroke-width=".5" points="1317,-504 1317,-689 1617,-689 1617,-504 1317,-504"/>
<text text-anchor="middle" x="1467" y="-673.8" font-family="Times,serif" font-size="14.00" fill="#000000">sm IntersectionTimerDriven DirectionTwoLight</text>
</g>
<g id="clust5" class="cluster">
<title>clusterIntersectionTimerDriven_P1Light</title>
<polygon fill="none" stroke="#000000" stroke-width=".5" points="1625,-504 1625,-689 1848,-689 1848,-504 1625,-504"/>
<text text-anchor="middle" x="1736.5" y="-673.8" font-family="Times,serif" font-size="14.00" fill="#000000">sm IntersectionTimerDriven P1Light</text>
</g>
<g id="clust6" class="cluster">
<title>clusterIntersectionTimerDriven_P2Light</title>
<polygon fill="none" stroke="#000000" stroke-width=".5" points="1856,-504 1856,-689 2079,-689 2079,-504 1856,-504"/>
<text text-anchor="middle" x="1967.5" y="-673.8" font-family="Times,serif" font-size="14.00" fill="#000000">sm IntersectionTimerDriven P2Light</text>
</g>
<!-- start_IntersectionTimerDriven_flow -->
<g id="node1" class="node">
<title>start_IntersectionTimerDriven_flow</title>
<g id="a_node1"><a xlink:title="Class IntersectionTimerDriven, SM flow, State start">
<ellipse fill="#000000" stroke="#000000" cx="331" cy="-641" rx="7.2" ry="7.2"/>
</a>
</g>
</g>
<!-- IntersectionTimerDriven_flow_FourWayStop -->
<g id="node2" class="node">
<title>IntersectionTimerDriven_flow_FourWayStop</title>
<g id="a_node2"><a xlink:title="Class IntersectionTimerDriven, SM flow, State FourWayStop&#13;Entry:&#10; &#160;&#160;setDirectionOneLight(DirectionOneLight.FlashingRed);&#10; &#160;&#160;setDirectionTwoLight(DirectionTwoLight.FlashingRed);">
<path fill="none" stroke="#000000" d="M365.9385,-548C365.9385,-548 296.0615,-548 296.0615,-548 290.0615,-548 284.0615,-542 284.0615,-536 284.0615,-536 284.0615,-524 284.0615,-524 284.0615,-518 290.0615,-512 296.0615,-512 296.0615,-512 365.9385,-512 365.9385,-512 371.9385,-512 377.9385,-518 377.9385,-524 377.9385,-524 377.9385,-536 377.9385,-536 377.9385,-542 371.9385,-548 365.9385,-548"/>
<text text-anchor="middle" x="331" y="-525.8" font-family="Times,serif" font-size="14.00" fill="#000000">FourWayStop</text>
</a>
</g>
</g>
<!-- start_IntersectionTimerDriven_flow&#45;&gt;IntersectionTimerDriven_flow_FourWayStop -->
<g id="edge1" class="edge">
<title>start_IntersectionTimerDriven_flow&#45;&gt;IntersectionTimerDriven_flow_FourWayStop</title>
<g id="a_edge1"><a xlink:title="start to FourWayStop">
<path fill="none" stroke="#000000" d="M331,-633.717C331,-618.6929 331,-583.5594 331,-558.3466"/>
<polygon fill="#000000" stroke="#000000" points="334.5001,-558.2361 331,-548.2361 327.5001,-558.2362 334.5001,-558.2361"/>
</a>
</g>
</g>
<!-- IntersectionTimerDriven_flow_DirectionOneGo -->
<g id="node3" class="node">
<title>IntersectionTimerDriven_flow_DirectionOneGo</title>
<g id="a_node3"><a xlink:title="Class IntersectionTimerDriven, SM flow, State DirectionOneGo&#13;Entry:&#10; &#160;&#160;setDirectionOneLight(DirectionOneLight.Green);&#10; &#160;&#160;setDirectionTwoLight(DirectionTwoLight.Red);">
<path fill="none" stroke="#000000" d="M113.8041,-424C113.8041,-424 28.1959,-424 28.1959,-424 22.1959,-424 16.1959,-418 16.1959,-412 16.1959,-412 16.1959,-400 16.1959,-400 16.1959,-394 22.1959,-388 28.1959,-388 28.1959,-388 113.8041,-388 113.8041,-388 119.8041,-388 125.8041,-394 125.8041,-400 125.8041,-400 125.8041,-412 125.8041,-412 125.8041,-418 119.8041,-424 113.8041,-424"/>
<text text-anchor="middle" x="71" y="-401.8" font-family="Times,serif" font-size="14.00" fill="#000000">DirectionOneGo</text>
</a>
</g>
</g>
<!-- IntersectionTimerDriven_flow_FourWayStop&#45;&gt;IntersectionTimerDriven_flow_DirectionOneGo -->
<g id="edge6" class="edge">
<title>IntersectionTimerDriven_flow_FourWayStop&#45;&gt;IntersectionTimerDriven_flow_DirectionOneGo</title>
<g id="a_edge6"><a xlink:title="From FourWayStop to DirectionOneGo on initiateRegularOperation">
<path fill="none" stroke="#000000" d="M284.0508,-527.9804C210.8083,-523.7352 74.6322,-511.0788 44.8271,-475 34.7867,-462.8461 40.4448,-446.435 49.0299,-432.667"/>
<polygon fill="#000000" stroke="#000000" points="52.1614,-434.2913 54.9587,-424.0725 46.3994,-430.3165 52.1614,-434.2913"/>
</a>
</g>
<text text-anchor="middle" x="113.5864" y="-463.8" font-family="Times,serif" font-size="14.00" fill="#000000">initiateRegularOperation</text>
</g>
<!-- IntersectionTimerDriven_flow_DirectionOneGo&#45;&gt;IntersectionTimerDriven_flow_FourWayStop -->
<g id="edge2" class="edge">
<title>IntersectionTimerDriven_flow_DirectionOneGo&#45;&gt;IntersectionTimerDriven_flow_FourWayStop</title>
<g id="a_edge2"><a xlink:title="From DirectionOneGo to FourWayStop on detectMalfunction">
<path fill="none" stroke="#000000" d="M108.8519,-424.0524C155.1826,-446.1486 233.6516,-483.5723 283.8554,-507.5156"/>
<polygon fill="#000000" stroke="#000000" points="282.661,-510.8237 293.1938,-511.9693 285.6744,-504.5054 282.661,-510.8237"/>
</a>
</g>
<text text-anchor="middle" x="264.314" y="-463.8" font-family="Times,serif" font-size="14.00" fill="#000000">detectMalfunction</text>
</g>
<!-- IntersectionTimerDriven_flow_DirectionOneHalting -->
<g id="node4" class="node">
<title>IntersectionTimerDriven_flow_DirectionOneHalting</title>
<g id="a_node4"><a xlink:title="Class IntersectionTimerDriven, SM flow, State DirectionOneHalting&#13;Entry:&#10; &#160;&#160;setDirectionOneLight(DirectionOneLight.Yellow);">
<path fill="none" stroke="#000000" d="M216.1867,-300C216.1867,-300 105.8133,-300 105.8133,-300 99.8133,-300 93.8133,-294 93.8133,-288 93.8133,-288 93.8133,-276 93.8133,-276 93.8133,-270 99.8133,-264 105.8133,-264 105.8133,-264 216.1867,-264 216.1867,-264 222.1867,-264 228.1867,-270 228.1867,-276 228.1867,-276 228.1867,-288 228.1867,-288 228.1867,-294 222.1867,-300 216.1867,-300"/>
<text text-anchor="middle" x="161" y="-277.8" font-family="Times,serif" font-size="14.00" fill="#000000">DirectionOneHalting</text>
</a>
</g>
</g>
<!-- IntersectionTimerDriven_flow_DirectionOneGo&#45;&gt;IntersectionTimerDriven_flow_DirectionOneHalting -->
<g id="edge8" class="edge">
<title>IntersectionTimerDriven_flow_DirectionOneGo&#45;&gt;IntersectionTimerDriven_flow_DirectionOneHalting</title>
<g id="a_edge8"><a xlink:title="From DirectionOneGo to DirectionOneHalting after(directionOneGoTime)">
<path fill="none" stroke="#000000" d="M65.0653,-387.7493C61.4307,-373.0659 58.9797,-352.4123 67.7813,-337 75.4253,-323.6146 87.742,-313.1602 100.952,-305.1328"/>
<polygon fill="#000000" stroke="#000000" points="102.7206,-308.1537 109.7217,-300.2017 99.2897,-302.0521 102.7206,-308.1537"/>
</a>
</g>
<text text-anchor="middle" x="144.1094" y="-339.8" font-family="Times,serif" font-size="14.00" fill="#000000">after(directionOneGoTime)</text>
</g>
<!-- IntersectionTimerDriven_flow_DirectionOneHalting&#45;&gt;IntersectionTimerDriven_flow_FourWayStop -->
<g id="edge3" class="edge">
<title>IntersectionTimerDriven_flow_DirectionOneHalting&#45;&gt;IntersectionTimerDriven_flow_FourWayStop</title>
<g id="a_edge3"><a xlink:title="From DirectionOneHalting to FourWayStop on detectMalfunction">
<path fill="none" stroke="#000000" d="M187.6067,-300.0865C199.8136,-309.6953 213.4424,-322.5126 222,-337 242.1974,-371.1929 217.4623,-393.0711 242.3721,-424 266.3455,-453.7663 297.1124,-430.3909 320,-461 328.5979,-472.4985 331.5968,-488.1139 332.3361,-501.5815"/>
<polygon fill="#000000" stroke="#000000" points="328.8403,-501.8626 332.5084,-511.8021 335.8393,-501.7445 328.8403,-501.8626"/>
</a>
</g>
<text text-anchor="middle" x="293.314" y="-401.8" font-family="Times,serif" font-size="14.00" fill="#000000">detectMalfunction</text>
</g>
<!-- IntersectionTimerDriven_flow_DirectionTwoGo -->
<g id="node5" class="node">
<title>IntersectionTimerDriven_flow_DirectionTwoGo</title>
<g id="a_node5"><a xlink:title="Class IntersectionTimerDriven, SM flow, State DirectionTwoGo&#13;Entry:&#10; &#160;&#160;setDirectionOneLight(DirectionOneLight.Red);&#10; &#160;&#160;setDirectionTwoLight(DirectionTwoLight.Green);">
<path fill="none" stroke="#000000" d="M215.1646,-176C215.1646,-176 128.8354,-176 128.8354,-176 122.8354,-176 116.8354,-170 116.8354,-164 116.8354,-164 116.8354,-152 116.8354,-152 116.8354,-146 122.8354,-140 128.8354,-140 128.8354,-140 215.1646,-140 215.1646,-140 221.1646,-140 227.1646,-146 227.1646,-152 227.1646,-152 227.1646,-164 227.1646,-164 227.1646,-170 221.1646,-176 215.1646,-176"/>
<text text-anchor="middle" x="172" y="-153.8" font-family="Times,serif" font-size="14.00" fill="#000000">DirectionTwoGo</text>
</a>
</g>
</g>
<!-- IntersectionTimerDriven_flow_DirectionOneHalting&#45;&gt;IntersectionTimerDriven_flow_DirectionTwoGo -->
<g id="edge9" class="edge">
<title>IntersectionTimerDriven_flow_DirectionOneHalting&#45;&gt;IntersectionTimerDriven_flow_DirectionTwoGo</title>
<g id="a_edge9"><a xlink:title="From DirectionOneHalting to DirectionTwoGo after(yellowTime)">
<path fill="none" stroke="#000000" d="M162.5995,-263.9693C164.408,-243.5822 167.3758,-210.1268 169.4929,-186.2614"/>
<polygon fill="#000000" stroke="#000000" points="173.0012,-186.3226 170.3986,-176.0524 166.0285,-185.704 173.0012,-186.3226"/>
</a>
</g>
<text text-anchor="middle" x="218.0645" y="-215.8" font-family="Times,serif" font-size="14.00" fill="#000000">after(yellowTime)</text>
</g>
<!-- IntersectionTimerDriven_flow_DirectionTwoGo&#45;&gt;IntersectionTimerDriven_flow_FourWayStop -->
<g id="edge4" class="edge">
<title>IntersectionTimerDriven_flow_DirectionTwoGo&#45;&gt;IntersectionTimerDriven_flow_FourWayStop</title>
<g id="a_edge4"><a xlink:title="From DirectionTwoGo to FourWayStop on detectMalfunction">
<path fill="none" stroke="#000000" d="M227.1797,-175.131C244.9833,-183.5662 262.7511,-195.7489 273,-213 284.8435,-232.9351 265.3387,-241.0537 262,-264 256.3348,-302.9354 253.4108,-320.5863 278.3721,-351 299.861,-377.1828 327.82,-358.8082 345,-388 365.7709,-423.2932 353.8782,-472.2185 342.8456,-502.4528"/>
<polygon fill="#000000" stroke="#000000" points="339.5184,-501.3534 339.1856,-511.943 346.0495,-503.8723 339.5184,-501.3534"/>
</a>
</g>
<text text-anchor="middle" x="329.314" y="-339.8" font-family="Times,serif" font-size="14.00" fill="#000000">detectMalfunction</text>
</g>
<!-- IntersectionTimerDriven_flow_DirectionTwoHalting -->
<g id="node6" class="node">
<title>IntersectionTimerDriven_flow_DirectionTwoHalting</title>
<g id="a_node6"><a xlink:title="Class IntersectionTimerDriven, SM flow, State DirectionTwoHalting&#13;Entry:&#10; &#160;&#160;setDirectionTwoLight(DirectionTwoLight.Yellow);">
<path fill="none" stroke="#000000" d="M195.5476,-52C195.5476,-52 84.4524,-52 84.4524,-52 78.4524,-52 72.4524,-46 72.4524,-40 72.4524,-40 72.4524,-28 72.4524,-28 72.4524,-22 78.4524,-16 84.4524,-16 84.4524,-16 195.5476,-16 195.5476,-16 201.5476,-16 207.5476,-22 207.5476,-28 207.5476,-28 207.5476,-40 207.5476,-40 207.5476,-46 201.5476,-52 195.5476,-52"/>
<text text-anchor="middle" x="140" y="-29.8" font-family="Times,serif" font-size="14.00" fill="#000000">DirectionTwoHalting</text>
</a>
</g>
</g>
<!-- IntersectionTimerDriven_flow_DirectionTwoGo&#45;&gt;IntersectionTimerDriven_flow_DirectionTwoHalting -->
<g id="edge10" class="edge">
<title>IntersectionTimerDriven_flow_DirectionTwoGo&#45;&gt;IntersectionTimerDriven_flow_DirectionTwoHalting</title>
<g id="a_edge10"><a xlink:title="From DirectionTwoGo to DirectionTwoHalting after(directionOneGoTime)">
<path fill="none" stroke="#000000" d="M165.3592,-139.8356C161.6273,-129.1975 157.0726,-115.4475 153.7813,-103 150.2437,-89.6216 147.1384,-74.5723 144.7755,-61.9505"/>
<polygon fill="#000000" stroke="#000000" points="148.2009,-61.2237 142.9721,-52.0091 141.3133,-62.4732 148.2009,-61.2237"/>
</a>
</g>
<text text-anchor="middle" x="230.1094" y="-91.8" font-family="Times,serif" font-size="14.00" fill="#000000">after(directionOneGoTime)</text>
</g>
<!-- IntersectionTimerDriven_flow_DirectionTwoHalting&#45;&gt;IntersectionTimerDriven_flow_FourWayStop -->
<g id="edge5" class="edge">
<title>IntersectionTimerDriven_flow_DirectionTwoHalting&#45;&gt;IntersectionTimerDriven_flow_FourWayStop</title>
<g id="a_edge5"><a xlink:title="From DirectionTwoHalting to FourWayStop on detectMalfunction">
<path fill="none" stroke="#000000" d="M207.8776,-45.4987C256.3446,-55.7029 313,-72.6294 313,-96 313,-194.5 313,-194.5 313,-194.5 313,-205.0196 283.3277,-280.0604 296.3721,-300 318.845,-334.3523 355.9731,-304.4613 381,-337 389.9099,-348.5842 386,-354.8856 386,-369.5 386,-468 386,-468 386,-468 386,-482.3573 377.6443,-494.9416 367.4466,-504.9539"/>
<polygon fill="#000000" stroke="#000000" points="364.9257,-502.5122 359.7886,-511.7783 369.5829,-507.7382 364.9257,-502.5122"/>
</a>
</g>
<text text-anchor="middle" x="347.314" y="-277.8" font-family="Times,serif" font-size="14.00" fill="#000000">detectMalfunction</text>
</g>
<!-- IntersectionTimerDriven_flow_DirectionTwoHalting&#45;&gt;IntersectionTimerDriven_flow_DirectionOneGo -->
<g id="edge7" class="edge">
<title>IntersectionTimerDriven_flow_DirectionTwoHalting&#45;&gt;IntersectionTimerDriven_flow_DirectionOneGo</title>
<g id="a_edge7"><a xlink:title="From DirectionTwoHalting to DirectionOneGo after(yellowTime)">
<path fill="none" stroke="#000000" d="M72.2684,-50.1667C51.4941,-59.4379 34,-73.8277 34,-96 34,-194.5 34,-194.5 34,-194.5 34,-273.226 39.193,-293.5534 58,-370 58.6618,-372.6899 59.4527,-375.4584 60.3133,-378.2086"/>
<polygon fill="#000000" stroke="#000000" points="57.0842,-379.5832 63.6282,-387.9154 63.7085,-377.3209 57.0842,-379.5832"/>
</a>
</g>
<text text-anchor="middle" x="85.0645" y="-215.8" font-family="Times,serif" font-size="14.00" fill="#000000">after(yellowTime)</text>
</g>
<!-- start_IntersectionTimerDriven_pedestrianFlow -->
<g id="node7" class="node">
<title>start_IntersectionTimerDriven_pedestrianFlow</title>
<g id="a_node7"><a xlink:title="Class IntersectionTimerDriven, SM pedestrianFlow, State start">
<ellipse fill="#000000" stroke="#000000" cx="763" cy="-641" rx="7.2" ry="7.2"/>
</a>
</g>
</g>
<!-- IntersectionTimerDriven_pedestrianFlow_FourWayStop -->
<g id="node8" class="node">
<title>IntersectionTimerDriven_pedestrianFlow_FourWayStop</title>
<g id="a_node8"><a xlink:title="Class IntersectionTimerDriven, SM pedestrianFlow, State FourWayStop&#13;Entry:&#10; &#160;&#160;setP1Light(P1Light.DoNotWalk); &#160;&#10; &#160;	setP2Light(P2Light.DoNotWalk);">
<path fill="none" stroke="#000000" d="M797.9385,-548C797.9385,-548 728.0615,-548 728.0615,-548 722.0615,-548 716.0615,-542 716.0615,-536 716.0615,-536 716.0615,-524 716.0615,-524 716.0615,-518 722.0615,-512 728.0615,-512 728.0615,-512 797.9385,-512 797.9385,-512 803.9385,-512 809.9385,-518 809.9385,-524 809.9385,-524 809.9385,-536 809.9385,-536 809.9385,-542 803.9385,-548 797.9385,-548"/>
<text text-anchor="middle" x="763" y="-525.8" font-family="Times,serif" font-size="14.00" fill="#000000">FourWayStop</text>
</a>
</g>
</g>
<!-- start_IntersectionTimerDriven_pedestrianFlow&#45;&gt;IntersectionTimerDriven_pedestrianFlow_FourWayStop -->
<g id="edge11" class="edge">
<title>start_IntersectionTimerDriven_pedestrianFlow&#45;&gt;IntersectionTimerDriven_pedestrianFlow_FourWayStop</title>
<g id="a_edge11"><a xlink:title="start to FourWayStop">
<path fill="none" stroke="#000000" d="M763,-633.717C763,-618.6929 763,-583.5594 763,-558.3466"/>
<polygon fill="#000000" stroke="#000000" points="766.5001,-558.2361 763,-548.2361 759.5001,-558.2362 766.5001,-558.2361"/>
</a>
</g>
</g>
<!-- IntersectionTimerDriven_pedestrianFlow_P2Go -->
<g id="node11" class="node">
<title>IntersectionTimerDriven_pedestrianFlow_P2Go</title>
<g id="a_node11"><a xlink:title="Class IntersectionTimerDriven, SM pedestrianFlow, State P2Go&#13;Entry:&#10; &#160;&#160;setP2Light(P2Light.Walk);">
<path fill="none" stroke="#000000" d="M490,-424C490,-424 442,-424 442,-424 436,-424 430,-418 430,-412 430,-412 430,-400 430,-400 430,-394 436,-388 442,-388 442,-388 490,-388 490,-388 496,-388 502,-394 502,-400 502,-400 502,-412 502,-412 502,-418 496,-424 490,-424"/>
<text text-anchor="middle" x="466" y="-401.8" font-family="Times,serif" font-size="14.00" fill="#000000">P2Go</text>
</a>
</g>
</g>
<!-- IntersectionTimerDriven_pedestrianFlow_FourWayStop&#45;&gt;IntersectionTimerDriven_pedestrianFlow_P2Go -->
<g id="edge18" class="edge">
<title>IntersectionTimerDriven_pedestrianFlow_FourWayStop&#45;&gt;IntersectionTimerDriven_pedestrianFlow_P2Go</title>
<g id="a_edge18"><a xlink:title="From FourWayStop to P2Go on initiateRegularOperation">
<path fill="none" stroke="#000000" d="M715.971,-512.8669C687.6575,-502.352 650.9815,-488.378 618.8271,-475 582.4475,-459.8641 541.8154,-441.445 511.5971,-427.4457"/>
<polygon fill="#000000" stroke="#000000" points="512.7142,-424.1054 502.1705,-423.0655 509.7644,-430.4535 512.7142,-424.1054"/>
</a>
</g>
<text text-anchor="middle" x="687.5864" y="-463.8" font-family="Times,serif" font-size="14.00" fill="#000000">initiateRegularOperation</text>
</g>
<!-- IntersectionTimerDriven_pedestrianFlow_P1Go -->
<g id="node9" class="node">
<title>IntersectionTimerDriven_pedestrianFlow_P1Go</title>
<g id="a_node9"><a xlink:title="Class IntersectionTimerDriven, SM pedestrianFlow, State P1Go&#13;Entry:&#10; &#160;&#160;setP1Light(P1Light.Walk);">
<path fill="none" stroke="#000000" d="M733,-176C733,-176 685,-176 685,-176 679,-176 673,-170 673,-164 673,-164 673,-152 673,-152 673,-146 679,-140 685,-140 685,-140 733,-140 733,-140 739,-140 745,-146 745,-152 745,-152 745,-164 745,-164 745,-170 739,-176 733,-176"/>
<text text-anchor="middle" x="709" y="-153.8" font-family="Times,serif" font-size="14.00" fill="#000000">P1Go</text>
</a>
</g>
</g>
<!-- IntersectionTimerDriven_pedestrianFlow_P1Go&#45;&gt;IntersectionTimerDriven_pedestrianFlow_FourWayStop -->
<g id="edge12" class="edge">
<title>IntersectionTimerDriven_pedestrianFlow_P1Go&#45;&gt;IntersectionTimerDriven_pedestrianFlow_FourWayStop</title>
<g id="a_edge12"><a xlink:title="From P1Go to FourWayStop on detectMalfunction">
<path fill="none" stroke="#000000" d="M745.2152,-160.6085C807.5214,-165.9317 930.8462,-180.4105 957,-213 985.5343,-248.5558 893.4666,-226.1864 868,-264 847.0168,-295.1566 863.1772,-325.7219 867.3721,-351 870.2167,-368.1414 877.1554,-370.8586 880,-388 882.6194,-403.7841 886.4853,-409.3733 880,-424 864.4113,-459.158 830.7622,-487.6198 803.5338,-506.1637"/>
<polygon fill="#000000" stroke="#000000" points="801.3662,-503.4008 794.95,-511.8319 805.2235,-509.2422 801.3662,-503.4008"/>
</a>
</g>
<text text-anchor="middle" x="918.314" y="-339.8" font-family="Times,serif" font-size="14.00" fill="#000000">detectMalfunction</text>
</g>
<!-- IntersectionTimerDriven_pedestrianFlow_P1Halting -->
<g id="node10" class="node">
<title>IntersectionTimerDriven_pedestrianFlow_P1Halting</title>
<g id="a_node10"><a xlink:title="Class IntersectionTimerDriven, SM pedestrianFlow, State P1Halting&#13;Entry:&#10; &#160;&#160;setP1Light(P1Light.Flashing);">
<path fill="none" stroke="#000000" d="M704.2796,-52C704.2796,-52 655.7204,-52 655.7204,-52 649.7204,-52 643.7204,-46 643.7204,-40 643.7204,-40 643.7204,-28 643.7204,-28 643.7204,-22 649.7204,-16 655.7204,-16 655.7204,-16 704.2796,-16 704.2796,-16 710.2796,-16 716.2796,-22 716.2796,-28 716.2796,-28 716.2796,-40 716.2796,-40 716.2796,-46 710.2796,-52 704.2796,-52"/>
<text text-anchor="middle" x="680" y="-29.8" font-family="Times,serif" font-size="14.00" fill="#000000">P1Halting</text>
</a>
</g>
</g>
<!-- IntersectionTimerDriven_pedestrianFlow_P1Go&#45;&gt;IntersectionTimerDriven_pedestrianFlow_P1Halting -->
<g id="edge17" class="edge">
<title>IntersectionTimerDriven_pedestrianFlow_P1Go&#45;&gt;IntersectionTimerDriven_pedestrianFlow_P1Halting</title>
<g id="a_edge17"><a xlink:title="From P1Go to P1Halting after(directionOneGoTime&#45;extraPedestrianWarning)">
<path fill="none" stroke="#000000" d="M703.6754,-139.7459C700.647,-129.0779 696.8862,-115.3279 693.957,-103 690.7785,-89.6229 687.6983,-74.6778 685.2437,-62.1262"/>
<polygon fill="#000000" stroke="#000000" points="688.6667,-61.3916 683.3407,-52.2328 681.7927,-62.7139 688.6667,-61.3916"/>
</a>
</g>
<text text-anchor="middle" x="839.5215" y="-91.8" font-family="Times,serif" font-size="14.00" fill="#000000">after(directionOneGoTime&#45;extraPedestrianWarning)</text>
</g>
<!-- IntersectionTimerDriven_pedestrianFlow_P1Halting&#45;&gt;IntersectionTimerDriven_pedestrianFlow_FourWayStop -->
<g id="edge13" class="edge">
<title>IntersectionTimerDriven_pedestrianFlow_P1Halting&#45;&gt;IntersectionTimerDriven_pedestrianFlow_FourWayStop</title>
<g id="a_edge13"><a xlink:title="From P1Halting to FourWayStop on detectMalfunction">
<path fill="none" stroke="#000000" d="M716.401,-37.4509C798.7032,-45.7432 992,-68.18 992,-96 992,-194.5 992,-194.5 992,-194.5 992,-272.6439 975,-291.3561 975,-369.5 975,-468 975,-468 975,-468 975,-500.3747 882.7729,-517.0146 819.9793,-524.5922"/>
<polygon fill="#000000" stroke="#000000" points="819.3168,-521.1454 809.7867,-525.7746 820.1235,-528.0988 819.3168,-521.1454"/>
</a>
</g>
<text text-anchor="middle" x="1037.314" y="-277.8" font-family="Times,serif" font-size="14.00" fill="#000000">detectMalfunction</text>
</g>
<!-- IntersectionTimerDriven_pedestrianFlow_P1Halting&#45;&gt;IntersectionTimerDriven_pedestrianFlow_P2Go -->
<g id="edge19" class="edge">
<title>IntersectionTimerDriven_pedestrianFlow_P1Halting&#45;&gt;IntersectionTimerDriven_pedestrianFlow_P2Go</title>
<g id="a_edge19"><a xlink:title="From P1Halting to P2Go after(extraPedestrianWarning+yellowTime)">
<path fill="none" stroke="#000000" d="M643.5024,-35.4576C573.8882,-39.2376 429,-52.3483 429,-96 429,-344 429,-344 429,-344 429,-356.8287 434.9135,-369.3092 442.0123,-379.6695"/>
<polygon fill="#000000" stroke="#000000" points="439.3437,-381.9444 448.1503,-387.8347 444.9391,-377.7382 439.3437,-381.9444"/>
</a>
</g>
<text text-anchor="middle" x="551.0933" y="-215.8" font-family="Times,serif" font-size="14.00" fill="#000000">after(extraPedestrianWarning+yellowTime)</text>
</g>
<!-- IntersectionTimerDriven_pedestrianFlow_P2Go&#45;&gt;IntersectionTimerDriven_pedestrianFlow_FourWayStop -->
<g id="edge14" class="edge">
<title>IntersectionTimerDriven_pedestrianFlow_P2Go&#45;&gt;IntersectionTimerDriven_pedestrianFlow_FourWayStop</title>
<g id="a_edge14"><a xlink:title="From P2Go to FourWayStop on detectMalfunction">
<path fill="none" stroke="#000000" d="M464.6364,-424.1346C464.5161,-439.7715 467.0472,-461.8493 480.3721,-475 511.6338,-505.8532 633.1585,-520.265 706.2904,-526.2692"/>
<polygon fill="#000000" stroke="#000000" points="706.0284,-529.7593 716.274,-527.0614 706.5822,-522.7812 706.0284,-529.7593"/>
</a>
</g>
<text text-anchor="middle" x="531.314" y="-463.8" font-family="Times,serif" font-size="14.00" fill="#000000">detectMalfunction</text>
</g>
<!-- IntersectionTimerDriven_pedestrianFlow_P2Halting -->
<g id="node12" class="node">
<title>IntersectionTimerDriven_pedestrianFlow_P2Halting</title>
<g id="a_node12"><a xlink:title="Class IntersectionTimerDriven, SM pedestrianFlow, State P2Halting&#13;Entry:&#10; &#160;&#160;setP2Light(P2Light.Flashing);">
<path fill="none" stroke="#000000" d="M733.2796,-300C733.2796,-300 684.7204,-300 684.7204,-300 678.7204,-300 672.7204,-294 672.7204,-288 672.7204,-288 672.7204,-276 672.7204,-276 672.7204,-270 678.7204,-264 684.7204,-264 684.7204,-264 733.2796,-264 733.2796,-264 739.2796,-264 745.2796,-270 745.2796,-276 745.2796,-276 745.2796,-288 745.2796,-288 745.2796,-294 739.2796,-300 733.2796,-300"/>
<text text-anchor="middle" x="709" y="-277.8" font-family="Times,serif" font-size="14.00" fill="#000000">P2Halting</text>
</a>
</g>
</g>
<!-- IntersectionTimerDriven_pedestrianFlow_P2Go&#45;&gt;IntersectionTimerDriven_pedestrianFlow_P2Halting -->
<g id="edge20" class="edge">
<title>IntersectionTimerDriven_pedestrianFlow_P2Go&#45;&gt;IntersectionTimerDriven_pedestrianFlow_P2Halting</title>
<g id="a_edge20"><a xlink:title="From P2Go to P2Halting after(directionTwoGoTime&#45;extraPedestrianWarning)">
<path fill="none" stroke="#000000" d="M464.5451,-387.7178C464.3605,-372.2025 466.7439,-350.3875 479.5967,-337 504.4656,-311.0965 602.9012,-294.8738 662.4512,-287.2235"/>
<polygon fill="#000000" stroke="#000000" points="662.8862,-290.6965 672.3741,-285.9817 662.0169,-283.7507 662.8862,-290.6965"/>
</a>
</g>
<text text-anchor="middle" x="626.2017" y="-339.8" font-family="Times,serif" font-size="14.00" fill="#000000">after(directionTwoGoTime&#45;extraPedestrianWarning)</text>
</g>
<!-- IntersectionTimerDriven_pedestrianFlow_P2Halting&#45;&gt;IntersectionTimerDriven_pedestrianFlow_FourWayStop -->
<g id="edge15" class="edge">
<title>IntersectionTimerDriven_pedestrianFlow_P2Halting&#45;&gt;IntersectionTimerDriven_pedestrianFlow_FourWayStop</title>
<g id="a_edge15"><a xlink:title="From P2Halting to FourWayStop on detectMalfunction">
<path fill="none" stroke="#000000" d="M740.6077,-300.1268C753.4836,-309.3544 766.9718,-321.8463 774,-337 780.7422,-351.537 771.3022,-451.8028 766.0725,-501.7922"/>
<polygon fill="#000000" stroke="#000000" points="762.5716,-501.617 764.9974,-511.9304 769.5325,-502.3553 762.5716,-501.617"/>
</a>
</g>
<text text-anchor="middle" x="826.314" y="-401.8" font-family="Times,serif" font-size="14.00" fill="#000000">detectMalfunction</text>
</g>
<!-- IntersectionTimerDriven_pedestrianFlow_P2Halting&#45;&gt;IntersectionTimerDriven_pedestrianFlow_P1Go -->
<g id="edge16" class="edge">
<title>IntersectionTimerDriven_pedestrianFlow_P2Halting&#45;&gt;IntersectionTimerDriven_pedestrianFlow_P1Go</title>
<g id="a_edge16"><a xlink:title="From P2Halting to P1Go after(extraPedestrianWarning+yellowTime)">
<path fill="none" stroke="#000000" d="M709,-263.9693C709,-243.5822 709,-210.1268 709,-186.2614"/>
<polygon fill="#000000" stroke="#000000" points="712.5001,-186.0524 709,-176.0524 705.5001,-186.0525 712.5001,-186.0524"/>
</a>
</g>
<text text-anchor="middle" x="831.0933" y="-215.8" font-family="Times,serif" font-size="14.00" fill="#000000">after(extraPedestrianWarning+yellowTime)</text>
</g>
<!-- start_IntersectionTimerDriven_DirectionOneLight -->
<g id="node13" class="node">
<title>start_IntersectionTimerDriven_DirectionOneLight</title>
<g id="a_node13"><a xlink:title="Class IntersectionTimerDriven, SM DirectionOneLight, State start">
<ellipse fill="#000000" stroke="#000000" cx="1294" cy="-641" rx="7.2" ry="7.2"/>
</a>
</g>
</g>
<!-- IntersectionTimerDriven_DirectionOneLight_FlashingRed -->
<g id="node14" class="node">
<title>IntersectionTimerDriven_DirectionOneLight_FlashingRed</title>
<g id="a_node14"><a xlink:title="Class IntersectionTimerDriven, SM DirectionOneLight, State FlashingRed">
<path fill="none" stroke="#000000" d="M1289.2796,-548C1289.2796,-548 1226.7204,-548 1226.7204,-548 1220.7204,-548 1214.7204,-542 1214.7204,-536 1214.7204,-536 1214.7204,-524 1214.7204,-524 1214.7204,-518 1220.7204,-512 1226.7204,-512 1226.7204,-512 1289.2796,-512 1289.2796,-512 1295.2796,-512 1301.2796,-518 1301.2796,-524 1301.2796,-524 1301.2796,-536 1301.2796,-536 1301.2796,-542 1295.2796,-548 1289.2796,-548"/>
<text text-anchor="middle" x="1258" y="-525.8" font-family="Times,serif" font-size="14.00" fill="#000000">FlashingRed</text>
</a>
</g>
</g>
<!-- start_IntersectionTimerDriven_DirectionOneLight&#45;&gt;IntersectionTimerDriven_DirectionOneLight_FlashingRed -->
<g id="edge21" class="edge">
<title>start_IntersectionTimerDriven_DirectionOneLight&#45;&gt;IntersectionTimerDriven_DirectionOneLight_FlashingRed</title>
<g id="a_edge21"><a xlink:title="start to FlashingRed">
<path fill="none" stroke="#000000" d="M1291.748,-634.0565C1286.9317,-619.206 1275.3984,-583.6452 1267.1566,-558.2329"/>
<polygon fill="#000000" stroke="#000000" points="1270.378,-556.8202 1263.9636,-548.3878 1263.7194,-558.9798 1270.378,-556.8202"/>
</a>
</g>
</g>
<!-- IntersectionTimerDriven_DirectionOneLight_Red -->
<g id="node15" class="node">
<title>IntersectionTimerDriven_DirectionOneLight_Red</title>
<g id="a_node15"><a xlink:title="Class IntersectionTimerDriven, SM DirectionOneLight, State Red">
<path fill="none" stroke="#000000" d="M1257,-659C1257,-659 1209,-659 1209,-659 1203,-659 1197,-653 1197,-647 1197,-647 1197,-635 1197,-635 1197,-629 1203,-623 1209,-623 1209,-623 1257,-623 1257,-623 1263,-623 1269,-629 1269,-635 1269,-635 1269,-647 1269,-647 1269,-653 1263,-659 1257,-659"/>
<text text-anchor="middle" x="1233" y="-636.8" font-family="Times,serif" font-size="14.00" fill="#000000">Red</text>
</a>
</g>
</g>
<!-- IntersectionTimerDriven_DirectionOneLight_Yellow -->
<g id="node16" class="node">
<title>IntersectionTimerDriven_DirectionOneLight_Yellow</title>
<g id="a_node16"><a xlink:title="Class IntersectionTimerDriven, SM DirectionOneLight, State Yellow">
<path fill="none" stroke="#000000" d="M1167,-659C1167,-659 1119,-659 1119,-659 1113,-659 1107,-653 1107,-647 1107,-647 1107,-635 1107,-635 1107,-629 1113,-623 1119,-623 1119,-623 1167,-623 1167,-623 1173,-623 1179,-629 1179,-635 1179,-635 1179,-647 1179,-647 1179,-653 1173,-659 1167,-659"/>
<text text-anchor="middle" x="1143" y="-636.8" font-family="Times,serif" font-size="14.00" fill="#000000">Yellow</text>
</a>
</g>
</g>
<!-- IntersectionTimerDriven_DirectionOneLight_Green -->
<g id="node17" class="node">
<title>IntersectionTimerDriven_DirectionOneLight_Green</title>
<g id="a_node17"><a xlink:title="Class IntersectionTimerDriven, SM DirectionOneLight, State Green">
<path fill="none" stroke="#000000" d="M1077,-659C1077,-659 1029,-659 1029,-659 1023,-659 1017,-653 1017,-647 1017,-647 1017,-635 1017,-635 1017,-629 1023,-623 1029,-623 1029,-623 1077,-623 1077,-623 1083,-623 1089,-629 1089,-635 1089,-635 1089,-647 1089,-647 1089,-653 1083,-659 1077,-659"/>
<text text-anchor="middle" x="1053" y="-636.8" font-family="Times,serif" font-size="14.00" fill="#000000">Green</text>
</a>
</g>
</g>
<!-- start_IntersectionTimerDriven_DirectionTwoLight -->
<g id="node18" class="node">
<title>start_IntersectionTimerDriven_DirectionTwoLight</title>
<g id="a_node18"><a xlink:title="Class IntersectionTimerDriven, SM DirectionTwoLight, State start">
<ellipse fill="#000000" stroke="#000000" cx="1602" cy="-641" rx="7.2" ry="7.2"/>
</a>
</g>
</g>
<!-- IntersectionTimerDriven_DirectionTwoLight_FlashingRed -->
<g id="node19" class="node">
<title>IntersectionTimerDriven_DirectionTwoLight_FlashingRed</title>
<g id="a_node19"><a xlink:title="Class IntersectionTimerDriven, SM DirectionTwoLight, State FlashingRed">
<path fill="none" stroke="#000000" d="M1597.2796,-548C1597.2796,-548 1534.7204,-548 1534.7204,-548 1528.7204,-548 1522.7204,-542 1522.7204,-536 1522.7204,-536 1522.7204,-524 1522.7204,-524 1522.7204,-518 1528.7204,-512 1534.7204,-512 1534.7204,-512 1597.2796,-512 1597.2796,-512 1603.2796,-512 1609.2796,-518 1609.2796,-524 1609.2796,-524 1609.2796,-536 1609.2796,-536 1609.2796,-542 1603.2796,-548 1597.2796,-548"/>
<text text-anchor="middle" x="1566" y="-525.8" font-family="Times,serif" font-size="14.00" fill="#000000">FlashingRed</text>
</a>
</g>
</g>
<!-- start_IntersectionTimerDriven_DirectionTwoLight&#45;&gt;IntersectionTimerDriven_DirectionTwoLight_FlashingRed -->
<g id="edge22" class="edge">
<title>start_IntersectionTimerDriven_DirectionTwoLight&#45;&gt;IntersectionTimerDriven_DirectionTwoLight_FlashingRed</title>
<g id="a_edge22"><a xlink:title="start to FlashingRed">
<path fill="none" stroke="#000000" d="M1599.748,-634.0565C1594.9317,-619.206 1583.3984,-583.6452 1575.1566,-558.2329"/>
<polygon fill="#000000" stroke="#000000" points="1578.378,-556.8202 1571.9636,-548.3878 1571.7194,-558.9798 1578.378,-556.8202"/>
</a>
</g>
</g>
<!-- IntersectionTimerDriven_DirectionTwoLight_Red -->
<g id="node20" class="node">
<title>IntersectionTimerDriven_DirectionTwoLight_Red</title>
<g id="a_node20"><a xlink:title="Class IntersectionTimerDriven, SM DirectionTwoLight, State Red">
<path fill="none" stroke="#000000" d="M1565,-659C1565,-659 1517,-659 1517,-659 1511,-659 1505,-653 1505,-647 1505,-647 1505,-635 1505,-635 1505,-629 1511,-623 1517,-623 1517,-623 1565,-623 1565,-623 1571,-623 1577,-629 1577,-635 1577,-635 1577,-647 1577,-647 1577,-653 1571,-659 1565,-659"/>
<text text-anchor="middle" x="1541" y="-636.8" font-family="Times,serif" font-size="14.00" fill="#000000">Red</text>
</a>
</g>
</g>
<!-- IntersectionTimerDriven_DirectionTwoLight_Yellow -->
<g id="node21" class="node">
<title>IntersectionTimerDriven_DirectionTwoLight_Yellow</title>
<g id="a_node21"><a xlink:title="Class IntersectionTimerDriven, SM DirectionTwoLight, State Yellow">
<path fill="none" stroke="#000000" d="M1475,-659C1475,-659 1427,-659 1427,-659 1421,-659 1415,-653 1415,-647 1415,-647 1415,-635 1415,-635 1415,-629 1421,-623 1427,-623 1427,-623 1475,-623 1475,-623 1481,-623 1487,-629 1487,-635 1487,-635 1487,-647 1487,-647 1487,-653 1481,-659 1475,-659"/>
<text text-anchor="middle" x="1451" y="-636.8" font-family="Times,serif" font-size="14.00" fill="#000000">Yellow</text>
</a>
</g>
</g>
<!-- IntersectionTimerDriven_DirectionTwoLight_Green -->
<g id="node22" class="node">
<title>IntersectionTimerDriven_DirectionTwoLight_Green</title>
<g id="a_node22"><a xlink:title="Class IntersectionTimerDriven, SM DirectionTwoLight, State Green">
<path fill="none" stroke="#000000" d="M1385,-659C1385,-659 1337,-659 1337,-659 1331,-659 1325,-653 1325,-647 1325,-647 1325,-635 1325,-635 1325,-629 1331,-623 1337,-623 1337,-623 1385,-623 1385,-623 1391,-623 1397,-629 1397,-635 1397,-635 1397,-647 1397,-647 1397,-653 1391,-659 1385,-659"/>
<text text-anchor="middle" x="1361" y="-636.8" font-family="Times,serif" font-size="14.00" fill="#000000">Green</text>
</a>
</g>
</g>
<!-- start_IntersectionTimerDriven_P1Light -->
<g id="node23" class="node">
<title>start_IntersectionTimerDriven_P1Light</title>
<g id="a_node23"><a xlink:title="Class IntersectionTimerDriven, SM P1Light, State start">
<ellipse fill="#000000" stroke="#000000" cx="1820" cy="-641" rx="7.2" ry="7.2"/>
</a>
</g>
</g>
<!-- IntersectionTimerDriven_P1Light_DoNotWalk -->
<g id="node24" class="node">
<title>IntersectionTimerDriven_P1Light_DoNotWalk</title>
<g id="a_node24"><a xlink:title="Class IntersectionTimerDriven, SM P1Light, State DoNotWalk">
<path fill="none" stroke="#000000" d="M1827.8141,-548C1827.8141,-548 1768.1859,-548 1768.1859,-548 1762.1859,-548 1756.1859,-542 1756.1859,-536 1756.1859,-536 1756.1859,-524 1756.1859,-524 1756.1859,-518 1762.1859,-512 1768.1859,-512 1768.1859,-512 1827.8141,-512 1827.8141,-512 1833.8141,-512 1839.8141,-518 1839.8141,-524 1839.8141,-524 1839.8141,-536 1839.8141,-536 1839.8141,-542 1833.8141,-548 1827.8141,-548"/>
<text text-anchor="middle" x="1798" y="-525.8" font-family="Times,serif" font-size="14.00" fill="#000000">DoNotWalk</text>
</a>
</g>
</g>
<!-- start_IntersectionTimerDriven_P1Light&#45;&gt;IntersectionTimerDriven_P1Light_DoNotWalk -->
<g id="edge23" class="edge">
<title>start_IntersectionTimerDriven_P1Light&#45;&gt;IntersectionTimerDriven_P1Light_DoNotWalk</title>
<g id="a_edge23"><a xlink:title="start to DoNotWalk">
<path fill="none" stroke="#000000" d="M1818.5565,-633.717C1815.5788,-618.6929 1808.6154,-583.5594 1803.6183,-558.3466"/>
<polygon fill="#000000" stroke="#000000" points="1806.9918,-557.3649 1801.6144,-548.2361 1800.1254,-558.7258 1806.9918,-557.3649"/>
</a>
</g>
</g>
<!-- IntersectionTimerDriven_P1Light_Flashing -->
<g id="node25" class="node">
<title>IntersectionTimerDriven_P1Light_Flashing</title>
<g id="a_node25"><a xlink:title="Class IntersectionTimerDriven, SM P1Light, State Flashing">
<path fill="none" stroke="#000000" d="M1783,-659C1783,-659 1735,-659 1735,-659 1729,-659 1723,-653 1723,-647 1723,-647 1723,-635 1723,-635 1723,-629 1729,-623 1735,-623 1735,-623 1783,-623 1783,-623 1789,-623 1795,-629 1795,-635 1795,-635 1795,-647 1795,-647 1795,-653 1789,-659 1783,-659"/>
<text text-anchor="middle" x="1759" y="-636.8" font-family="Times,serif" font-size="14.00" fill="#000000">Flashing</text>
</a>
</g>
</g>
<!-- IntersectionTimerDriven_P1Light_Walk -->
<g id="node26" class="node">
<title>IntersectionTimerDriven_P1Light_Walk</title>
<g id="a_node26"><a xlink:title="Class IntersectionTimerDriven, SM P1Light, State Walk">
<path fill="none" stroke="#000000" d="M1693,-659C1693,-659 1645,-659 1645,-659 1639,-659 1633,-653 1633,-647 1633,-647 1633,-635 1633,-635 1633,-629 1639,-623 1645,-623 1645,-623 1693,-623 1693,-623 1699,-623 1705,-629 1705,-635 1705,-635 1705,-647 1705,-647 1705,-653 1699,-659 1693,-659"/>
<text text-anchor="middle" x="1669" y="-636.8" font-family="Times,serif" font-size="14.00" fill="#000000">Walk</text>
</a>
</g>
</g>
<!-- start_IntersectionTimerDriven_P2Light -->
<g id="node27" class="node">
<title>start_IntersectionTimerDriven_P2Light</title>
<g id="a_node27"><a xlink:title="Class IntersectionTimerDriven, SM P2Light, State start">
<ellipse fill="#000000" stroke="#000000" cx="2051" cy="-641" rx="7.2" ry="7.2"/>
</a>
</g>
</g>
<!-- IntersectionTimerDriven_P2Light_DoNotWalk -->
<g id="node28" class="node">
<title>IntersectionTimerDriven_P2Light_DoNotWalk</title>
<g id="a_node28"><a xlink:title="Class IntersectionTimerDriven, SM P2Light, State DoNotWalk">
<path fill="none" stroke="#000000" d="M2058.8141,-548C2058.8141,-548 1999.1859,-548 1999.1859,-548 1993.1859,-548 1987.1859,-542 1987.1859,-536 1987.1859,-536 1987.1859,-524 1987.1859,-524 1987.1859,-518 1993.1859,-512 1999.1859,-512 1999.1859,-512 2058.8141,-512 2058.8141,-512 2064.8141,-512 2070.8141,-518 2070.8141,-524 2070.8141,-524 2070.8141,-536 2070.8141,-536 2070.8141,-542 2064.8141,-548 2058.8141,-548"/>
<text text-anchor="middle" x="2029" y="-525.8" font-family="Times,serif" font-size="14.00" fill="#000000">DoNotWalk</text>
</a>
</g>
</g>
<!-- start_IntersectionTimerDriven_P2Light&#45;&gt;IntersectionTimerDriven_P2Light_DoNotWalk -->
<g id="edge24" class="edge">
<title>start_IntersectionTimerDriven_P2Light&#45;&gt;IntersectionTimerDriven_P2Light_DoNotWalk</title>
<g id="a_edge24"><a xlink:title="start to DoNotWalk">
<path fill="none" stroke="#000000" d="M2049.5565,-633.717C2046.5788,-618.6929 2039.6154,-583.5594 2034.6183,-558.3466"/>
<polygon fill="#000000" stroke="#000000" points="2037.9918,-557.3649 2032.6144,-548.2361 2031.1254,-558.7258 2037.9918,-557.3649"/>
</a>
</g>
</g>
<!-- IntersectionTimerDriven_P2Light_Flashing -->
<g id="node29" class="node">
<title>IntersectionTimerDriven_P2Light_Flashing</title>
<g id="a_node29"><a xlink:title="Class IntersectionTimerDriven, SM P2Light, State Flashing">
<path fill="none" stroke="#000000" d="M2014,-659C2014,-659 1966,-659 1966,-659 1960,-659 1954,-653 1954,-647 1954,-647 1954,-635 1954,-635 1954,-629 1960,-623 1966,-623 1966,-623 2014,-623 2014,-623 2020,-623 2026,-629 2026,-635 2026,-635 2026,-647 2026,-647 2026,-653 2020,-659 2014,-659"/>
<text text-anchor="middle" x="1990" y="-636.8" font-family="Times,serif" font-size="14.00" fill="#000000">Flashing</text>
</a>
</g>
</g>
<!-- IntersectionTimerDriven_P2Light_Walk -->
<g id="node30" class="node">
<title>IntersectionTimerDriven_P2Light_Walk</title>
<g id="a_node30"><a xlink:title="Class IntersectionTimerDriven, SM P2Light, State Walk">
<path fill="none" stroke="#000000" d="M1924,-659C1924,-659 1876,-659 1876,-659 1870,-659 1864,-653 1864,-647 1864,-647 1864,-635 1864,-635 1864,-629 1870,-623 1876,-623 1876,-623 1924,-623 1924,-623 1930,-623 1936,-629 1936,-635 1936,-635 1936,-647 1936,-647 1936,-653 1930,-659 1924,-659"/>
<text text-anchor="middle" x="1900" y="-636.8" font-family="Times,serif" font-size="14.00" fill="#000000">Walk</text>
</a>
</g>
</g>
</g>
</svg>
