<?xml version="1.0" encoding="UTF-8" standalone="no"?>
<!DOCTYPE svg PUBLIC "-//W3C//DTD SVG 1.1//EN"
 "http://www.w3.org/Graphics/SVG/1.1/DTD/svg11.dtd">
<!-- Generated by graphviz version 2.36.0 (20140111.2315)
 -->
<!-- Title: TrafficLightsB Pages: 1 -->
<svg width="2011pt" height="525pt"
 viewBox="0.00 0.00 2011.00 525.00" xmlns="http://www.w3.org/2000/svg" xmlns:xlink="http://www.w3.org/1999/xlink">
<g id="graph0" class="graph" transform="scale(1 1) rotate(0) translate(4 521)">
<title>TrafficLightsB</title>
<polygon fill="white" stroke="none" points="-4,4 -4,-521 2007,-521 2007,4 -4,4"/>
<g id="clust1" class="cluster"><title>clusterIntersectionTimerDriven_flow</title>
<polygon fill="none" stroke="black" stroke-width="0.5" points="8,-8 8,-498 344,-498 344,-8 8,-8"/>
<text text-anchor="middle" x="176" y="-482.8" font-family="Times,serif" font-size="14.00">sm IntersectionTimerDriven flow</text>
</g>
<g id="clust2" class="cluster"><title>clusterIntersectionTimerDriven_pedestrianFlow</title>
<polygon fill="none" stroke="black" stroke-width="0.5" points="352,-8 352,-498 915,-498 915,-8 352,-8"/>
<text text-anchor="middle" x="633.5" y="-482.8" font-family="Times,serif" font-size="14.00">sm IntersectionTimerDriven pedestrianFlow</text>
</g>
<g id="clust3" class="cluster"><title>clusterIntersectionTimerDriven_directionOneLight</title>
<polygon fill="none" stroke="black" stroke-width="0.5" points="923,-360 923,-509 1223,-509 1223,-360 923,-360"/>
<text text-anchor="middle" x="1073" y="-493.8" font-family="Times,serif" font-size="14.00">sm IntersectionTimerDriven directionOneLight</text>
</g>
<g id="clust4" class="cluster"><title>clusterIntersectionTimerDriven_directionTwoLight</title>
<polygon fill="none" stroke="black" stroke-width="0.5" points="1231,-360 1231,-509 1531,-509 1531,-360 1231,-360"/>
<text text-anchor="middle" x="1381" y="-493.8" font-family="Times,serif" font-size="14.00">sm IntersectionTimerDriven directionTwoLight</text>
</g>
<g id="clust5" class="cluster"><title>clusterIntersectionTimerDriven_P1Light</title>
<polygon fill="none" stroke="black" stroke-width="0.5" points="1539,-360 1539,-509 1763,-509 1763,-360 1539,-360"/>
<text text-anchor="middle" x="1651" y="-493.8" font-family="Times,serif" font-size="14.00">sm IntersectionTimerDriven P1Light</text>
</g>
<g id="clust6" class="cluster"><title>clusterIntersectionTimerDriven_P2Light</title>
<polygon fill="none" stroke="black" stroke-width="0.5" points="1771,-360 1771,-509 1995,-509 1995,-360 1771,-360"/>
<text text-anchor="middle" x="1883" y="-493.8" font-family="Times,serif" font-size="14.00">sm IntersectionTimerDriven P2Light</text>
</g>
<!-- start_IntersectionTimerDriven_flow -->
<g id="node1" class="node"><title>start_IntersectionTimerDriven_flow</title>
<ellipse fill="black" stroke="black" cx="288" cy="-460" rx="7.2" ry="7.2"/>
</g>
<!-- IntersectionTimerDriven_flow_FourWayStop -->
<g id="node2" class="node"><title>IntersectionTimerDriven_flow_FourWayStop</title>
<path fill="none" stroke="black" d="M323.25,-404C323.25,-404 252.75,-404 252.75,-404 246.75,-404 240.75,-398 240.75,-392 240.75,-392 240.75,-380 240.75,-380 240.75,-374 246.75,-368 252.75,-368 252.75,-368 323.25,-368 323.25,-368 329.25,-368 335.25,-374 335.25,-380 335.25,-380 335.25,-392 335.25,-392 335.25,-398 329.25,-404 323.25,-404"/>
<text text-anchor="middle" x="288" y="-382.3" font-family="Times,serif" font-size="14.00">FourWayStop</text>
</g>
<!-- start_IntersectionTimerDriven_flow&#45;&gt;IntersectionTimerDriven_flow_FourWayStop -->
<g id="edge1" class="edge"><title>start_IntersectionTimerDriven_flow&#45;&gt;IntersectionTimerDriven_flow_FourWayStop</title>
<path fill="none" stroke="black" d="M288,-452.355C288,-443.7 288,-428.04 288,-414.219"/>
<polygon fill="black" stroke="black" points="291.5,-414.154 288,-404.154 284.5,-414.154 291.5,-414.154"/>
</g>
<!-- IntersectionTimerDriven_flow_DirectionOneGo -->
<g id="node3" class="node"><title>IntersectionTimerDriven_flow_DirectionOneGo</title>
<path fill="none" stroke="black" d="M114,-316C114,-316 28,-316 28,-316 22,-316 16,-310 16,-304 16,-304 16,-292 16,-292 16,-286 22,-280 28,-280 28,-280 114,-280 114,-280 120,-280 126,-286 126,-292 126,-292 126,-304 126,-304 126,-310 120,-316 114,-316"/>
<text text-anchor="middle" x="71" y="-294.3" font-family="Times,serif" font-size="14.00">DirectionOneGo</text>
</g>
<!-- IntersectionTimerDriven_flow_FourWayStop&#45;&gt;IntersectionTimerDriven_flow_DirectionOneGo -->
<g id="edge6" class="edge"><title>IntersectionTimerDriven_flow_FourWayStop&#45;&gt;IntersectionTimerDriven_flow_DirectionOneGo</title>
<path fill="none" stroke="black" d="M240.544,-385.649C173.882,-385.43 57.6533,-380.529 31,-350 23.4671,-341.372 28.2484,-331.542 36.7423,-322.83"/>
<polygon fill="black" stroke="black" points="39.0966,-325.42 44.1858,-316.128 34.4125,-320.218 39.0966,-325.42"/>
<text text-anchor="middle" x="101" y="-338.3" font-family="Times,serif" font-size="14.00">initiateRegularOperation</text>
</g>
<!-- IntersectionTimerDriven_flow_DirectionOneGo&#45;&gt;IntersectionTimerDriven_flow_FourWayStop -->
<g id="edge2" class="edge"><title>IntersectionTimerDriven_flow_DirectionOneGo&#45;&gt;IntersectionTimerDriven_flow_FourWayStop</title>
<path fill="none" stroke="black" d="M126.157,-314.342C142.283,-319.679 159.684,-326.293 175,-334 186.123,-339.597 187.009,-344.147 198,-350 208.3,-355.485 219.653,-360.576 230.725,-365.08"/>
<polygon fill="black" stroke="black" points="229.762,-368.463 240.349,-368.882 232.335,-361.952 229.762,-368.463"/>
<text text-anchor="middle" x="249.5" y="-338.3" font-family="Times,serif" font-size="14.00">detectMalfunction</text>
</g>
<!-- IntersectionTimerDriven_flow_DirectionOneHalting -->
<g id="node4" class="node"><title>IntersectionTimerDriven_flow_DirectionOneHalting</title>
<path fill="none" stroke="black" d="M164.25,-228C164.25,-228 53.75,-228 53.75,-228 47.75,-228 41.75,-222 41.75,-216 41.75,-216 41.75,-204 41.75,-204 41.75,-198 47.75,-192 53.75,-192 53.75,-192 164.25,-192 164.25,-192 170.25,-192 176.25,-198 176.25,-204 176.25,-204 176.25,-216 176.25,-216 176.25,-222 170.25,-228 164.25,-228"/>
<text text-anchor="middle" x="109" y="-206.3" font-family="Times,serif" font-size="14.00">DirectionOneHalting</text>
</g>
<!-- IntersectionTimerDriven_flow_DirectionOneGo&#45;&gt;IntersectionTimerDriven_flow_DirectionOneHalting -->
<g id="edge8" class="edge"><title>IntersectionTimerDriven_flow_DirectionOneGo&#45;&gt;IntersectionTimerDriven_flow_DirectionOneHalting</title>
<path fill="none" stroke="black" d="M51.4334,-279.863C42.4945,-269.901 35.2445,-257.151 42,-246 44.6935,-241.554 48.1574,-237.646 52.0889,-234.216"/>
<polygon fill="black" stroke="black" points="54.2322,-236.984 60.146,-228.193 50.041,-231.377 54.2322,-236.984"/>
<text text-anchor="middle" x="119.5" y="-250.3" font-family="Times,serif" font-size="14.00">after(directionOneGoTime)</text>
</g>
<!-- IntersectionTimerDriven_flow_DirectionOneHalting&#45;&gt;IntersectionTimerDriven_flow_FourWayStop -->
<g id="edge3" class="edge"><title>IntersectionTimerDriven_flow_DirectionOneHalting&#45;&gt;IntersectionTimerDriven_flow_FourWayStop</title>
<path fill="none" stroke="black" d="M175.344,-228.22C183.623,-232.818 191.202,-238.637 197,-246 216.444,-270.69 185.31,-293.258 207,-316 236.358,-346.781 273.898,-301.215 301,-334 306.668,-340.856 306.145,-349.874 303.319,-358.418"/>
<polygon fill="black" stroke="black" points="300.055,-357.149 299.359,-367.721 306.496,-359.891 300.055,-357.149"/>
<text text-anchor="middle" x="258.5" y="-294.3" font-family="Times,serif" font-size="14.00">detectMalfunction</text>
</g>
<!-- IntersectionTimerDriven_flow_DirectionTwoGo -->
<g id="node5" class="node"><title>IntersectionTimerDriven_flow_DirectionTwoGo</title>
<path fill="none" stroke="black" d="M204,-140C204,-140 116,-140 116,-140 110,-140 104,-134 104,-128 104,-128 104,-116 104,-116 104,-110 110,-104 116,-104 116,-104 204,-104 204,-104 210,-104 216,-110 216,-116 216,-116 216,-128 216,-128 216,-134 210,-140 204,-140"/>
<text text-anchor="middle" x="160" y="-118.3" font-family="Times,serif" font-size="14.00">DirectionTwoGo</text>
</g>
<!-- IntersectionTimerDriven_flow_DirectionOneHalting&#45;&gt;IntersectionTimerDriven_flow_DirectionTwoGo -->
<g id="edge9" class="edge"><title>IntersectionTimerDriven_flow_DirectionOneHalting&#45;&gt;IntersectionTimerDriven_flow_DirectionTwoGo</title>
<path fill="none" stroke="black" d="M124.787,-191.934C129.396,-186.452 134.208,-180.191 138,-174 142.655,-166.4 146.816,-157.641 150.234,-149.549"/>
<polygon fill="black" stroke="black" points="153.536,-150.718 154.016,-140.134 147.041,-148.108 153.536,-150.718"/>
<text text-anchor="middle" x="197.5" y="-162.3" font-family="Times,serif" font-size="14.00">after(yellowTime)</text>
</g>
<!-- IntersectionTimerDriven_flow_DirectionTwoGo&#45;&gt;IntersectionTimerDriven_flow_FourWayStop -->
<g id="edge4" class="edge"><title>IntersectionTimerDriven_flow_DirectionTwoGo&#45;&gt;IntersectionTimerDriven_flow_FourWayStop</title>
<path fill="none" stroke="black" d="M216.425,-132.308C230.671,-137.48 244.36,-145.517 253,-158 257.047,-163.847 256.915,-168.063 253,-174 241.82,-190.955 222.18,-175.045 211,-192 202.192,-205.357 207.51,-212.385 211,-228 214.643,-244.298 213.933,-251.6 227,-262 256.533,-285.507 286.306,-250.617 310,-280 329.531,-304.221 317.745,-320.14 309,-350 308.132,-352.965 306.95,-355.934 305.587,-358.822"/>
<polygon fill="black" stroke="black" points="302.485,-357.2 300.777,-367.656 308.633,-360.547 302.485,-357.2"/>
<text text-anchor="middle" x="278.5" y="-250.3" font-family="Times,serif" font-size="14.00">detectMalfunction</text>
</g>
<!-- IntersectionTimerDriven_flow_DirectionTwoHalting -->
<g id="node6" class="node"><title>IntersectionTimerDriven_flow_DirectionTwoHalting</title>
<path fill="none" stroke="black" d="M171.25,-52C171.25,-52 58.75,-52 58.75,-52 52.75,-52 46.75,-46 46.75,-40 46.75,-40 46.75,-28 46.75,-28 46.75,-22 52.75,-16 58.75,-16 58.75,-16 171.25,-16 171.25,-16 177.25,-16 183.25,-22 183.25,-28 183.25,-28 183.25,-40 183.25,-40 183.25,-46 177.25,-52 171.25,-52"/>
<text text-anchor="middle" x="115" y="-30.3" font-family="Times,serif" font-size="14.00">DirectionTwoHalting</text>
</g>
<!-- IntersectionTimerDriven_flow_DirectionTwoGo&#45;&gt;IntersectionTimerDriven_flow_DirectionTwoHalting -->
<g id="edge10" class="edge"><title>IntersectionTimerDriven_flow_DirectionTwoGo&#45;&gt;IntersectionTimerDriven_flow_DirectionTwoHalting</title>
<path fill="none" stroke="black" d="M130.66,-103.666C124.778,-98.7399 119.375,-92.8247 116,-86 112.452,-78.8244 111.285,-70.3579 111.259,-62.4065"/>
<polygon fill="black" stroke="black" points="114.755,-62.5708 111.78,-52.4024 107.765,-62.2071 114.755,-62.5708"/>
<text text-anchor="middle" x="193.5" y="-74.3" font-family="Times,serif" font-size="14.00">after(directionOneGoTime)</text>
</g>
<!-- IntersectionTimerDriven_flow_DirectionTwoHalting&#45;&gt;IntersectionTimerDriven_flow_FourWayStop -->
<g id="edge5" class="edge"><title>IntersectionTimerDriven_flow_DirectionTwoHalting&#45;&gt;IntersectionTimerDriven_flow_FourWayStop</title>
<path fill="none" stroke="black" d="M183.402,-41.9146C219.981,-47.1775 259.768,-55.9693 271,-70 300.047,-106.286 278.508,-131.364 260,-174 255.853,-183.552 248.545,-182.208 245,-192 239.553,-207.044 234.926,-215.569 245,-228 269.313,-258.001 305.687,-215.999 330,-246 334.477,-251.525 330.521,-254.908 330,-262 327.103,-301.429 333.096,-313.889 317,-350 315.542,-353.27 313.69,-356.481 311.629,-359.55"/>
<polygon fill="black" stroke="black" points="308.663,-357.671 305.423,-367.759 314.246,-361.893 308.663,-357.671"/>
<text text-anchor="middle" x="296.5" y="-206.3" font-family="Times,serif" font-size="14.00">detectMalfunction</text>
</g>
<!-- IntersectionTimerDriven_flow_DirectionTwoHalting&#45;&gt;IntersectionTimerDriven_flow_DirectionOneGo -->
<g id="edge7" class="edge"><title>IntersectionTimerDriven_flow_DirectionTwoHalting&#45;&gt;IntersectionTimerDriven_flow_DirectionOneGo</title>
<path fill="none" stroke="black" d="M98.043,-52.312C77.5331,-74.5879 44.1263,-115.504 31,-158 17.3429,-202.214 15.8195,-220.357 36,-262 37.7625,-265.637 40.0587,-269.119 42.633,-272.38"/>
<polygon fill="black" stroke="black" points="40.1779,-274.885 49.4595,-279.994 45.3899,-270.212 40.1779,-274.885"/>
<text text-anchor="middle" x="82.5" y="-162.3" font-family="Times,serif" font-size="14.00">after(yellowTime)</text>
</g>
<!-- start_IntersectionTimerDriven_pedestrianFlow -->
<g id="node7" class="node"><title>start_IntersectionTimerDriven_pedestrianFlow</title>
<ellipse fill="black" stroke="black" cx="674" cy="-460" rx="7.2" ry="7.2"/>
</g>
<!-- IntersectionTimerDriven_pedestrianFlow_FourWayStop -->
<g id="node8" class="node"><title>IntersectionTimerDriven_pedestrianFlow_FourWayStop</title>
<path fill="none" stroke="black" d="M709.25,-404C709.25,-404 638.75,-404 638.75,-404 632.75,-404 626.75,-398 626.75,-392 626.75,-392 626.75,-380 626.75,-380 626.75,-374 632.75,-368 638.75,-368 638.75,-368 709.25,-368 709.25,-368 715.25,-368 721.25,-374 721.25,-380 721.25,-380 721.25,-392 721.25,-392 721.25,-398 715.25,-404 709.25,-404"/>
<text text-anchor="middle" x="674" y="-382.3" font-family="Times,serif" font-size="14.00">FourWayStop</text>
</g>
<!-- start_IntersectionTimerDriven_pedestrianFlow&#45;&gt;IntersectionTimerDriven_pedestrianFlow_FourWayStop -->
<g id="edge11" class="edge"><title>start_IntersectionTimerDriven_pedestrianFlow&#45;&gt;IntersectionTimerDriven_pedestrianFlow_FourWayStop</title>
<path fill="none" stroke="black" d="M674,-452.355C674,-443.7 674,-428.04 674,-414.219"/>
<polygon fill="black" stroke="black" points="677.5,-414.154 674,-404.154 670.5,-414.154 677.5,-414.154"/>
</g>
<!-- IntersectionTimerDriven_pedestrianFlow_P2Go -->
<g id="node11" class="node"><title>IntersectionTimerDriven_pedestrianFlow_P2Go</title>
<path fill="none" stroke="black" d="M426,-316C426,-316 378,-316 378,-316 372,-316 366,-310 366,-304 366,-304 366,-292 366,-292 366,-286 372,-280 378,-280 378,-280 426,-280 426,-280 432,-280 438,-286 438,-292 438,-292 438,-304 438,-304 438,-310 432,-316 426,-316"/>
<text text-anchor="middle" x="402" y="-294.3" font-family="Times,serif" font-size="14.00">P2Go</text>
</g>
<!-- IntersectionTimerDriven_pedestrianFlow_FourWayStop&#45;&gt;IntersectionTimerDriven_pedestrianFlow_P2Go -->
<g id="edge18" class="edge"><title>IntersectionTimerDriven_pedestrianFlow_FourWayStop&#45;&gt;IntersectionTimerDriven_pedestrianFlow_P2Go</title>
<path fill="none" stroke="black" d="M626.577,-382.329C551.888,-377.631 413.772,-366.771 399,-350 393.332,-343.565 392.373,-334.715 393.375,-326.194"/>
<polygon fill="black" stroke="black" points="396.855,-326.638 395.385,-316.146 389.991,-325.265 396.855,-326.638"/>
<text text-anchor="middle" x="469" y="-338.3" font-family="Times,serif" font-size="14.00">initiateRegularOperation</text>
</g>
<!-- IntersectionTimerDriven_pedestrianFlow_P1Go -->
<g id="node9" class="node"><title>IntersectionTimerDriven_pedestrianFlow_P1Go</title>
<path fill="none" stroke="black" d="M671,-140C671,-140 623,-140 623,-140 617,-140 611,-134 611,-128 611,-128 611,-116 611,-116 611,-110 617,-104 623,-104 623,-104 671,-104 671,-104 677,-104 683,-110 683,-116 683,-116 683,-128 683,-128 683,-134 677,-140 671,-140"/>
<text text-anchor="middle" x="647" y="-118.3" font-family="Times,serif" font-size="14.00">P1Go</text>
</g>
<!-- IntersectionTimerDriven_pedestrianFlow_P1Go&#45;&gt;IntersectionTimerDriven_pedestrianFlow_FourWayStop -->
<g id="edge12" class="edge"><title>IntersectionTimerDriven_pedestrianFlow_P1Go&#45;&gt;IntersectionTimerDriven_pedestrianFlow_FourWayStop</title>
<path fill="none" stroke="black" d="M683.386,-122.587C745.325,-122.747 867.166,-127.096 894,-158 928.106,-197.28 820.478,-156.991 782,-192 768.508,-204.275 758.265,-242.019 768,-262 773.685,-273.669 785.315,-268.331 791,-280 798.008,-294.384 798.936,-302.107 791,-316 777.842,-339.036 753.653,-355.151 730.67,-365.979"/>
<polygon fill="black" stroke="black" points="728.987,-362.897 721.272,-370.158 731.831,-369.293 728.987,-362.897"/>
<text text-anchor="middle" x="819.5" y="-250.3" font-family="Times,serif" font-size="14.00">detectMalfunction</text>
</g>
<!-- IntersectionTimerDriven_pedestrianFlow_P1Halting -->
<g id="node10" class="node"><title>IntersectionTimerDriven_pedestrianFlow_P1Halting</title>
<path fill="none" stroke="black" d="M629.25,-52C629.25,-52 580.75,-52 580.75,-52 574.75,-52 568.75,-46 568.75,-40 568.75,-40 568.75,-28 568.75,-28 568.75,-22 574.75,-16 580.75,-16 580.75,-16 629.25,-16 629.25,-16 635.25,-16 641.25,-22 641.25,-28 641.25,-28 641.25,-40 641.25,-40 641.25,-46 635.25,-52 629.25,-52"/>
<text text-anchor="middle" x="605" y="-30.3" font-family="Times,serif" font-size="14.00">P1Halting</text>
</g>
<!-- IntersectionTimerDriven_pedestrianFlow_P1Go&#45;&gt;IntersectionTimerDriven_pedestrianFlow_P1Halting -->
<g id="edge17" class="edge"><title>IntersectionTimerDriven_pedestrianFlow_P1Go&#45;&gt;IntersectionTimerDriven_pedestrianFlow_P1Halting</title>
<path fill="none" stroke="black" d="M620.049,-103.714C614.406,-98.7239 609.202,-92.7679 606,-86 602.577,-78.764 601.446,-70.2797 601.416,-62.3307"/>
<polygon fill="black" stroke="black" points="604.912,-62.5 601.91,-52.3393 597.92,-62.1542 604.912,-62.5"/>
<text text-anchor="middle" x="753.5" y="-74.3" font-family="Times,serif" font-size="14.00">after(directionOneGoTime&#45;extraPedestrianWarning)</text>
</g>
<!-- IntersectionTimerDriven_pedestrianFlow_P1Halting&#45;&gt;IntersectionTimerDriven_pedestrianFlow_FourWayStop -->
<g id="edge13" class="edge"><title>IntersectionTimerDriven_pedestrianFlow_P1Halting&#45;&gt;IntersectionTimerDriven_pedestrianFlow_FourWayStop</title>
<path fill="none" stroke="black" d="M641.362,-36.6415C716.644,-40.4136 884.006,-50.8779 901,-70 958.374,-134.558 918.425,-189.816 871,-262 839.038,-310.648 824.024,-320.236 774,-350 760.835,-357.833 745.653,-364.273 731.159,-369.399"/>
<polygon fill="black" stroke="black" points="729.623,-366.223 721.268,-372.738 731.862,-372.855 729.623,-366.223"/>
<text text-anchor="middle" x="965.5" y="-206.3" font-family="Times,serif" font-size="14.00">detectMalfunction</text>
</g>
<!-- IntersectionTimerDriven_pedestrianFlow_P1Halting&#45;&gt;IntersectionTimerDriven_pedestrianFlow_P2Go -->
<g id="edge19" class="edge"><title>IntersectionTimerDriven_pedestrianFlow_P1Halting&#45;&gt;IntersectionTimerDriven_pedestrianFlow_P2Go</title>
<path fill="none" stroke="black" d="M568.728,-44.7269C520.039,-59.9179 435.247,-94.3518 397,-158 376.417,-192.253 384.535,-240.307 392.848,-270.005"/>
<polygon fill="black" stroke="black" points="389.527,-271.116 395.75,-279.691 396.233,-269.107 389.527,-271.116"/>
<text text-anchor="middle" x="520" y="-162.3" font-family="Times,serif" font-size="14.00">after(extraPedestrianWarning+yellowTime)</text>
</g>
<!-- IntersectionTimerDriven_pedestrianFlow_P2Go&#45;&gt;IntersectionTimerDriven_pedestrianFlow_FourWayStop -->
<g id="edge14" class="edge"><title>IntersectionTimerDriven_pedestrianFlow_P2Go&#45;&gt;IntersectionTimerDriven_pedestrianFlow_FourWayStop</title>
<path fill="none" stroke="black" d="M438.254,-304.256C467.469,-309.362 509.116,-318.642 543,-334 554.342,-339.141 554.845,-344.465 566,-350 581.94,-357.909 600.069,-364.593 616.861,-369.932"/>
<polygon fill="black" stroke="black" points="615.979,-373.322 626.566,-372.919 618.038,-366.632 615.979,-373.322"/>
<text text-anchor="middle" x="617.5" y="-338.3" font-family="Times,serif" font-size="14.00">detectMalfunction</text>
</g>
<!-- IntersectionTimerDriven_pedestrianFlow_P2Halting -->
<g id="node12" class="node"><title>IntersectionTimerDriven_pedestrianFlow_P2Halting</title>
<path fill="none" stroke="black" d="M671.25,-228C671.25,-228 622.75,-228 622.75,-228 616.75,-228 610.75,-222 610.75,-216 610.75,-216 610.75,-204 610.75,-204 610.75,-198 616.75,-192 622.75,-192 622.75,-192 671.25,-192 671.25,-192 677.25,-192 683.25,-198 683.25,-204 683.25,-204 683.25,-216 683.25,-216 683.25,-222 677.25,-228 671.25,-228"/>
<text text-anchor="middle" x="647" y="-206.3" font-family="Times,serif" font-size="14.00">P2Halting</text>
</g>
<!-- IntersectionTimerDriven_pedestrianFlow_P2Go&#45;&gt;IntersectionTimerDriven_pedestrianFlow_P2Halting -->
<g id="edge20" class="edge"><title>IntersectionTimerDriven_pedestrianFlow_P2Go&#45;&gt;IntersectionTimerDriven_pedestrianFlow_P2Halting</title>
<path fill="none" stroke="black" d="M397.195,-279.835C395.239,-268.853 395.023,-255.023 403,-246 428.307,-217.376 537.018,-211.655 600.472,-210.813"/>
<polygon fill="black" stroke="black" points="600.661,-214.311 610.627,-210.714 600.593,-207.311 600.661,-214.311"/>
<text text-anchor="middle" x="551.5" y="-250.3" font-family="Times,serif" font-size="14.00">after(directionTwoGoTime&#45;extraPedestrianWarning)</text>
</g>
<!-- IntersectionTimerDriven_pedestrianFlow_P2Halting&#45;&gt;IntersectionTimerDriven_pedestrianFlow_FourWayStop -->
<g id="edge15" class="edge"><title>IntersectionTimerDriven_pedestrianFlow_P2Halting&#45;&gt;IntersectionTimerDriven_pedestrianFlow_FourWayStop</title>
<path fill="none" stroke="black" d="M683.413,-228.021C690.075,-232.858 696.134,-238.814 700,-246 703.369,-252.262 702.061,-255.194 700,-262 697.214,-271.202 691.39,-271.002 688,-280 678.516,-305.175 675.299,-335.864 674.284,-357.545"/>
<polygon fill="black" stroke="black" points="670.781,-357.58 673.939,-367.693 677.777,-357.818 670.781,-357.58"/>
<text text-anchor="middle" x="739.5" y="-294.3" font-family="Times,serif" font-size="14.00">detectMalfunction</text>
</g>
<!-- IntersectionTimerDriven_pedestrianFlow_P2Halting&#45;&gt;IntersectionTimerDriven_pedestrianFlow_P1Go -->
<g id="edge16" class="edge"><title>IntersectionTimerDriven_pedestrianFlow_P2Halting&#45;&gt;IntersectionTimerDriven_pedestrianFlow_P1Go</title>
<path fill="none" stroke="black" d="M647,-191.597C647,-179.746 647,-163.817 647,-150.292"/>
<polygon fill="black" stroke="black" points="650.5,-150.084 647,-140.084 643.5,-150.084 650.5,-150.084"/>
<text text-anchor="middle" x="770" y="-162.3" font-family="Times,serif" font-size="14.00">after(extraPedestrianWarning+yellowTime)</text>
</g>
<!-- start_IntersectionTimerDriven_directionOneLight -->
<g id="node13" class="node"><title>start_IntersectionTimerDriven_directionOneLight</title>
<ellipse fill="black" stroke="black" cx="1208" cy="-460" rx="7.2" ry="7.2"/>
</g>
<!-- IntersectionTimerDriven_directionOneLight_FlashingRed -->
<g id="node14" class="node"><title>IntersectionTimerDriven_directionOneLight_FlashingRed</title>
<path fill="none" stroke="black" d="M1202.25,-404C1202.25,-404 1139.75,-404 1139.75,-404 1133.75,-404 1127.75,-398 1127.75,-392 1127.75,-392 1127.75,-380 1127.75,-380 1127.75,-374 1133.75,-368 1139.75,-368 1139.75,-368 1202.25,-368 1202.25,-368 1208.25,-368 1214.25,-374 1214.25,-380 1214.25,-380 1214.25,-392 1214.25,-392 1214.25,-398 1208.25,-404 1202.25,-404"/>
<text text-anchor="middle" x="1171" y="-382.3" font-family="Times,serif" font-size="14.00">FlashingRed</text>
</g>
<!-- start_IntersectionTimerDriven_directionOneLight&#45;&gt;IntersectionTimerDriven_directionOneLight_FlashingRed -->
<g id="edge21" class="edge"><title>start_IntersectionTimerDriven_directionOneLight&#45;&gt;IntersectionTimerDriven_directionOneLight_FlashingRed</title>
<path fill="none" stroke="black" d="M1205.1,-453.35C1200.68,-444.757 1192,-427.858 1184.5,-413.266"/>
<polygon fill="black" stroke="black" points="1187.48,-411.415 1179.8,-404.12 1181.26,-414.614 1187.48,-411.415"/>
</g>
<!-- IntersectionTimerDriven_directionOneLight_Red -->
<g id="node15" class="node"><title>IntersectionTimerDriven_directionOneLight_Red</title>
<path fill="none" stroke="black" d="M1171,-478C1171,-478 1123,-478 1123,-478 1117,-478 1111,-472 1111,-466 1111,-466 1111,-454 1111,-454 1111,-448 1117,-442 1123,-442 1123,-442 1171,-442 1171,-442 1177,-442 1183,-448 1183,-454 1183,-454 1183,-466 1183,-466 1183,-472 1177,-478 1171,-478"/>
<text text-anchor="middle" x="1147" y="-456.3" font-family="Times,serif" font-size="14.00">Red</text>
</g>
<!-- IntersectionTimerDriven_directionOneLight_Yellow -->
<g id="node16" class="node"><title>IntersectionTimerDriven_directionOneLight_Yellow</title>
<path fill="none" stroke="black" d="M1081,-478C1081,-478 1033,-478 1033,-478 1027,-478 1021,-472 1021,-466 1021,-466 1021,-454 1021,-454 1021,-448 1027,-442 1033,-442 1033,-442 1081,-442 1081,-442 1087,-442 1093,-448 1093,-454 1093,-454 1093,-466 1093,-466 1093,-472 1087,-478 1081,-478"/>
<text text-anchor="middle" x="1057" y="-456.3" font-family="Times,serif" font-size="14.00">Yellow</text>
</g>
<!-- IntersectionTimerDriven_directionOneLight_Green -->
<g id="node17" class="node"><title>IntersectionTimerDriven_directionOneLight_Green</title>
<path fill="none" stroke="black" d="M991,-478C991,-478 943,-478 943,-478 937,-478 931,-472 931,-466 931,-466 931,-454 931,-454 931,-448 937,-442 943,-442 943,-442 991,-442 991,-442 997,-442 1003,-448 1003,-454 1003,-454 1003,-466 1003,-466 1003,-472 997,-478 991,-478"/>
<text text-anchor="middle" x="967" y="-456.3" font-family="Times,serif" font-size="14.00">Green</text>
</g>
<!-- start_IntersectionTimerDriven_directionTwoLight -->
<g id="node18" class="node"><title>start_IntersectionTimerDriven_directionTwoLight</title>
<ellipse fill="black" stroke="black" cx="1516" cy="-460" rx="7.2" ry="7.2"/>
</g>
<!-- IntersectionTimerDriven_directionTwoLight_FlashingRed -->
<g id="node19" class="node"><title>IntersectionTimerDriven_directionTwoLight_FlashingRed</title>
<path fill="none" stroke="black" d="M1510.25,-404C1510.25,-404 1447.75,-404 1447.75,-404 1441.75,-404 1435.75,-398 1435.75,-392 1435.75,-392 1435.75,-380 1435.75,-380 1435.75,-374 1441.75,-368 1447.75,-368 1447.75,-368 1510.25,-368 1510.25,-368 1516.25,-368 1522.25,-374 1522.25,-380 1522.25,-380 1522.25,-392 1522.25,-392 1522.25,-398 1516.25,-404 1510.25,-404"/>
<text text-anchor="middle" x="1479" y="-382.3" font-family="Times,serif" font-size="14.00">FlashingRed</text>
</g>
<!-- start_IntersectionTimerDriven_directionTwoLight&#45;&gt;IntersectionTimerDriven_directionTwoLight_FlashingRed -->
<g id="edge22" class="edge"><title>start_IntersectionTimerDriven_directionTwoLight&#45;&gt;IntersectionTimerDriven_directionTwoLight_FlashingRed</title>
<path fill="none" stroke="black" d="M1513.1,-453.35C1508.68,-444.757 1500,-427.858 1492.5,-413.266"/>
<polygon fill="black" stroke="black" points="1495.48,-411.415 1487.8,-404.12 1489.26,-414.614 1495.48,-411.415"/>
</g>
<!-- IntersectionTimerDriven_directionTwoLight_Red -->
<g id="node20" class="node"><title>IntersectionTimerDriven_directionTwoLight_Red</title>
<path fill="none" stroke="black" d="M1479,-478C1479,-478 1431,-478 1431,-478 1425,-478 1419,-472 1419,-466 1419,-466 1419,-454 1419,-454 1419,-448 1425,-442 1431,-442 1431,-442 1479,-442 1479,-442 1485,-442 1491,-448 1491,-454 1491,-454 1491,-466 1491,-466 1491,-472 1485,-478 1479,-478"/>
<text text-anchor="middle" x="1455" y="-456.3" font-family="Times,serif" font-size="14.00">Red</text>
</g>
<!-- IntersectionTimerDriven_directionTwoLight_Yellow -->
<g id="node21" class="node"><title>IntersectionTimerDriven_directionTwoLight_Yellow</title>
<path fill="none" stroke="black" d="M1389,-478C1389,-478 1341,-478 1341,-478 1335,-478 1329,-472 1329,-466 1329,-466 1329,-454 1329,-454 1329,-448 1335,-442 1341,-442 1341,-442 1389,-442 1389,-442 1395,-442 1401,-448 1401,-454 1401,-454 1401,-466 1401,-466 1401,-472 1395,-478 1389,-478"/>
<text text-anchor="middle" x="1365" y="-456.3" font-family="Times,serif" font-size="14.00">Yellow</text>
</g>
<!-- IntersectionTimerDriven_directionTwoLight_Green -->
<g id="node22" class="node"><title>IntersectionTimerDriven_directionTwoLight_Green</title>
<path fill="none" stroke="black" d="M1299,-478C1299,-478 1251,-478 1251,-478 1245,-478 1239,-472 1239,-466 1239,-466 1239,-454 1239,-454 1239,-448 1245,-442 1251,-442 1251,-442 1299,-442 1299,-442 1305,-442 1311,-448 1311,-454 1311,-454 1311,-466 1311,-466 1311,-472 1305,-478 1299,-478"/>
<text text-anchor="middle" x="1275" y="-456.3" font-family="Times,serif" font-size="14.00">Green</text>
</g>
<!-- start_IntersectionTimerDriven_P1Light -->
<g id="node23" class="node"><title>start_IntersectionTimerDriven_P1Light</title>
<ellipse fill="black" stroke="black" cx="1734" cy="-460" rx="7.2" ry="7.2"/>
</g>
<!-- IntersectionTimerDriven_P1Light_DoNotWalk -->
<g id="node24" class="node"><title>IntersectionTimerDriven_P1Light_DoNotWalk</title>
<path fill="none" stroke="black" d="M1742.25,-404C1742.25,-404 1681.75,-404 1681.75,-404 1675.75,-404 1669.75,-398 1669.75,-392 1669.75,-392 1669.75,-380 1669.75,-380 1669.75,-374 1675.75,-368 1681.75,-368 1681.75,-368 1742.25,-368 1742.25,-368 1748.25,-368 1754.25,-374 1754.25,-380 1754.25,-380 1754.25,-392 1754.25,-392 1754.25,-398 1748.25,-404 1742.25,-404"/>
<text text-anchor="middle" x="1712" y="-382.3" font-family="Times,serif" font-size="14.00">DoNotWalk</text>
</g>
<!-- start_IntersectionTimerDriven_P1Light&#45;&gt;IntersectionTimerDriven_P1Light_DoNotWalk -->
<g id="edge23" class="edge"><title>start_IntersectionTimerDriven_P1Light&#45;&gt;IntersectionTimerDriven_P1Light_DoNotWalk</title>
<path fill="none" stroke="black" d="M1732.12,-452.861C1729.5,-444.269 1724.56,-428.117 1720.24,-413.96"/>
<polygon fill="black" stroke="black" points="1723.51,-412.681 1717.24,-404.14 1716.81,-414.726 1723.51,-412.681"/>
</g>
<!-- IntersectionTimerDriven_P1Light_Flashing -->
<g id="node25" class="node"><title>IntersectionTimerDriven_P1Light_Flashing</title>
<path fill="none" stroke="black" d="M1697,-478C1697,-478 1649,-478 1649,-478 1643,-478 1637,-472 1637,-466 1637,-466 1637,-454 1637,-454 1637,-448 1643,-442 1649,-442 1649,-442 1697,-442 1697,-442 1703,-442 1709,-448 1709,-454 1709,-454 1709,-466 1709,-466 1709,-472 1703,-478 1697,-478"/>
<text text-anchor="middle" x="1673" y="-456.3" font-family="Times,serif" font-size="14.00">Flashing</text>
</g>
<!-- IntersectionTimerDriven_P1Light_Walk -->
<g id="node26" class="node"><title>IntersectionTimerDriven_P1Light_Walk</title>
<path fill="none" stroke="black" d="M1607,-478C1607,-478 1559,-478 1559,-478 1553,-478 1547,-472 1547,-466 1547,-466 1547,-454 1547,-454 1547,-448 1553,-442 1559,-442 1559,-442 1607,-442 1607,-442 1613,-442 1619,-448 1619,-454 1619,-454 1619,-466 1619,-466 1619,-472 1613,-478 1607,-478"/>
<text text-anchor="middle" x="1583" y="-456.3" font-family="Times,serif" font-size="14.00">Walk</text>
</g>
<!-- start_IntersectionTimerDriven_P2Light -->
<g id="node27" class="node"><title>start_IntersectionTimerDriven_P2Light</title>
<ellipse fill="black" stroke="black" cx="1966" cy="-460" rx="7.2" ry="7.2"/>
</g>
<!-- IntersectionTimerDriven_P2Light_DoNotWalk -->
<g id="node28" class="node"><title>IntersectionTimerDriven_P2Light_DoNotWalk</title>
<path fill="none" stroke="black" d="M1974.25,-404C1974.25,-404 1913.75,-404 1913.75,-404 1907.75,-404 1901.75,-398 1901.75,-392 1901.75,-392 1901.75,-380 1901.75,-380 1901.75,-374 1907.75,-368 1913.75,-368 1913.75,-368 1974.25,-368 1974.25,-368 1980.25,-368 1986.25,-374 1986.25,-380 1986.25,-380 1986.25,-392 1986.25,-392 1986.25,-398 1980.25,-404 1974.25,-404"/>
<text text-anchor="middle" x="1944" y="-382.3" font-family="Times,serif" font-size="14.00">DoNotWalk</text>
</g>
<!-- start_IntersectionTimerDriven_P2Light&#45;&gt;IntersectionTimerDriven_P2Light_DoNotWalk -->
<g id="edge24" class="edge"><title>start_IntersectionTimerDriven_P2Light&#45;&gt;IntersectionTimerDriven_P2Light_DoNotWalk</title>
<path fill="none" stroke="black" d="M1964.12,-452.861C1961.5,-444.269 1956.56,-428.117 1952.24,-413.96"/>
<polygon fill="black" stroke="black" points="1955.51,-412.681 1949.24,-404.14 1948.81,-414.726 1955.51,-412.681"/>
</g>
<!-- IntersectionTimerDriven_P2Light_Flashing -->
<g id="node29" class="node"><title>IntersectionTimerDriven_P2Light_Flashing</title>
<path fill="none" stroke="black" d="M1929,-478C1929,-478 1881,-478 1881,-478 1875,-478 1869,-472 1869,-466 1869,-466 1869,-454 1869,-454 1869,-448 1875,-442 1881,-442 1881,-442 1929,-442 1929,-442 1935,-442 1941,-448 1941,-454 1941,-454 1941,-466 1941,-466 1941,-472 1935,-478 1929,-478"/>
<text text-anchor="middle" x="1905" y="-456.3" font-family="Times,serif" font-size="14.00">Flashing</text>
</g>
<!-- IntersectionTimerDriven_P2Light_Walk -->
<g id="node30" class="node"><title>IntersectionTimerDriven_P2Light_Walk</title>
<path fill="none" stroke="black" d="M1839,-478C1839,-478 1791,-478 1791,-478 1785,-478 1779,-472 1779,-466 1779,-466 1779,-454 1779,-454 1779,-448 1785,-442 1791,-442 1791,-442 1839,-442 1839,-442 1845,-442 1851,-448 1851,-454 1851,-454 1851,-466 1851,-466 1851,-472 1845,-478 1839,-478"/>
<text text-anchor="middle" x="1815" y="-456.3" font-family="Times,serif" font-size="14.00">Walk</text>
</g>
</g>
</svg>
