<?xml version="1.0" encoding="UTF-8" standalone="no"?>
<!DOCTYPE svg PUBLIC "-//W3C//DTD SVG 1.1//EN"
 "http://www.w3.org/Graphics/SVG/1.1/DTD/svg11.dtd">
<!-- Generated by graphviz version 2.29.20121108.1600 (20121108.1600)
 -->
<!-- Title: TrafficLightsB Pages: 1 -->
<svg width="2283pt" height="550pt"
 viewBox="0.00 0.00 2283.00 550.00" xmlns="http://www.w3.org/2000/svg" xmlns:xlink="http://www.w3.org/1999/xlink">
<g id="graph0" class="graph" transform="scale(1 1) rotate(0) translate(4 546)">
<title>TrafficLightsB</title>
<polygon fill="white" stroke="white" points="-4,5 -4,-546 2280,-546 2280,5 -4,5"/>
<g id="clust1" class="cluster"><title>clusterIntersection_timerDriven_noPedestrian_flow</title>
<polygon fill="none" stroke="black" stroke-width="0.5" points="8,-8 8,-523 463,-523 463,-8 8,-8"/>
<text text-anchor="middle" x="235.5" y="-505" font-family="Times,serif" font-size="14.00">sm Intersection_timerDriven_noPedestrian flow</text>
</g>
<g id="clust2" class="cluster"><title>clusterIntersection_timerDriven_noPedestrian_pedestrianFlow</title>
<polygon fill="none" stroke="black" stroke-width="0.5" points="471,-8 471,-534 898,-534 898,-8 471,-8"/>
<text text-anchor="middle" x="684.5" y="-516" font-family="Times,serif" font-size="14.00">sm Intersection_timerDriven_noPedestrian pedestrianFlow</text>
</g>
<g id="clust3" class="cluster"><title>clusterIntersection_timerDriven_noPedestrian_directionOneLight</title>
<polygon fill="none" stroke="black" stroke-width="0.5" points="906,-368 906,-534 1269,-534 1269,-368 906,-368"/>
<text text-anchor="middle" x="1087.5" y="-516" font-family="Times,serif" font-size="14.00">sm Intersection_timerDriven_noPedestrian directionOneLight</text>
</g>
<g id="clust4" class="cluster"><title>clusterIntersection_timerDriven_noPedestrian_directionTwoLight</title>
<polygon fill="none" stroke="black" stroke-width="0.5" points="1277,-368 1277,-534 1641,-534 1641,-368 1277,-368"/>
<text text-anchor="middle" x="1459" y="-516" font-family="Times,serif" font-size="14.00">sm Intersection_timerDriven_noPedestrian directionTwoLight</text>
</g>
<g id="clust5" class="cluster"><title>clusterIntersection_timerDriven_noPedestrian_P1Light</title>
<polygon fill="none" stroke="black" stroke-width="0.5" points="1649,-368 1649,-534 1954,-534 1954,-368 1649,-368"/>
<text text-anchor="middle" x="1801.5" y="-516" font-family="Times,serif" font-size="14.00">sm Intersection_timerDriven_noPedestrian P1Light</text>
</g>
<g id="clust6" class="cluster"><title>clusterIntersection_timerDriven_noPedestrian_P2Light</title>
<polygon fill="none" stroke="black" stroke-width="0.5" points="1962,-368 1962,-534 2267,-534 2267,-368 1962,-368"/>
<text text-anchor="middle" x="2114.5" y="-516" font-family="Times,serif" font-size="14.00">sm Intersection_timerDriven_noPedestrian P2Light</text>
</g>
<!-- start_Intersection_timerDriven_noPedestrian_flow -->
<g id="node1" class="node"><title>start_Intersection_timerDriven_noPedestrian_flow</title>
<ellipse fill="black" stroke="black" cx="405" cy="-484" rx="7.2" ry="7.2"/>
</g>
<!-- Intersection_timerDriven_noPedestrian_flow_FourWayStop -->
<g id="node2" class="node"><title>Intersection_timerDriven_noPedestrian_flow_FourWayStop</title>
<path fill="none" stroke="black" d="M439.577,-412C439.577,-412 370.423,-412 370.423,-412 364.423,-412 358.423,-406 358.423,-400 358.423,-400 358.423,-388 358.423,-388 358.423,-382 364.423,-376 370.423,-376 370.423,-376 439.577,-376 439.577,-376 445.577,-376 451.577,-382 451.577,-388 451.577,-388 451.577,-400 451.577,-400 451.577,-406 445.577,-412 439.577,-412"/>
<text text-anchor="middle" x="405" y="-388.4" font-family="Times,serif" font-size="14.00">FourWayStop</text>
</g>
<!-- start_Intersection_timerDriven_noPedestrian_flow&#45;&gt;Intersection_timerDriven_noPedestrian_flow_FourWayStop -->
<g id="edge1" class="edge"><title>start_Intersection_timerDriven_noPedestrian_flow&#45;&gt;Intersection_timerDriven_noPedestrian_flow_FourWayStop</title>
<path fill="none" stroke="black" d="M405,-476.671C405,-465.484 405,-441.597 405,-422.531"/>
<polygon fill="black" stroke="black" points="408.5,-422.271 405,-412.271 401.5,-422.271 408.5,-422.271"/>
</g>
<!-- Intersection_timerDriven_noPedestrian_flow_DirectionOneGo -->
<g id="node3" class="node"><title>Intersection_timerDriven_noPedestrian_flow_DirectionOneGo</title>
<path fill="none" stroke="black" d="M113.477,-322C113.477,-322 28.5227,-322 28.5227,-322 22.5227,-322 16.5227,-316 16.5227,-310 16.5227,-310 16.5227,-298 16.5227,-298 16.5227,-292 22.5227,-286 28.5227,-286 28.5227,-286 113.477,-286 113.477,-286 119.477,-286 125.477,-292 125.477,-298 125.477,-298 125.477,-310 125.477,-310 125.477,-316 119.477,-322 113.477,-322"/>
<text text-anchor="middle" x="71" y="-298.4" font-family="Times,serif" font-size="14.00">DirectionOneGo</text>
</g>
<!-- Intersection_timerDriven_noPedestrian_flow_FourWayStop&#45;&gt;Intersection_timerDriven_noPedestrian_flow_DirectionOneGo -->
<g id="edge6" class="edge"><title>Intersection_timerDriven_noPedestrian_flow_FourWayStop&#45;&gt;Intersection_timerDriven_noPedestrian_flow_DirectionOneGo</title>
<path fill="none" stroke="black" d="M358.349,-392.074C262.911,-389.696 52.492,-381.786 30.8271,-358 22.5871,-348.953 28.0554,-338.313 37.2938,-328.95"/>
<polygon fill="black" stroke="black" points="39.8321,-331.374 44.9287,-322.086 35.1521,-326.169 39.8321,-331.374"/>
<text text-anchor="middle" x="100.586" y="-343.4" font-family="Times,serif" font-size="14.00">initiateRegularOperation</text>
</g>
<!-- Intersection_timerDriven_noPedestrian_flow_DirectionOneGo&#45;&gt;Intersection_timerDriven_noPedestrian_flow_FourWayStop -->
<g id="edge2" class="edge"><title>Intersection_timerDriven_noPedestrian_flow_DirectionOneGo&#45;&gt;Intersection_timerDriven_noPedestrian_flow_FourWayStop</title>
<path fill="none" stroke="black" d="M125.361,-319.7C141.491,-325.052 158.877,-331.835 174,-340 185.443,-346.179 185.166,-352.76 197.068,-358 245.456,-379.301 305.425,-387.707 348.508,-390.989"/>
<polygon fill="black" stroke="black" points="348.312,-394.483 358.53,-391.683 348.796,-387.5 348.312,-394.483"/>
<text text-anchor="middle" x="299.466" y="-343.4" font-family="Times,serif" font-size="14.00">detectMalfunction_DirectionOneGo</text>
</g>
<!-- Intersection_timerDriven_noPedestrian_flow_DirectionOneHalting -->
<g id="node4" class="node"><title>Intersection_timerDriven_noPedestrian_flow_DirectionOneHalting</title>
<path fill="none" stroke="black" d="M158.14,-232C158.14,-232 47.86,-232 47.86,-232 41.86,-232 35.86,-226 35.86,-220 35.86,-220 35.86,-208 35.86,-208 35.86,-202 41.86,-196 47.86,-196 47.86,-196 158.14,-196 158.14,-196 164.14,-196 170.14,-202 170.14,-208 170.14,-208 170.14,-220 170.14,-220 170.14,-226 164.14,-232 158.14,-232"/>
<text text-anchor="middle" x="103" y="-208.4" font-family="Times,serif" font-size="14.00">DirectionOneHalting</text>
</g>
<!-- Intersection_timerDriven_noPedestrian_flow_DirectionOneGo&#45;&gt;Intersection_timerDriven_noPedestrian_flow_DirectionOneHalting -->
<g id="edge8" class="edge"><title>Intersection_timerDriven_noPedestrian_flow_DirectionOneGo&#45;&gt;Intersection_timerDriven_noPedestrian_flow_DirectionOneHalting</title>
<path fill="none" stroke="black" d="M51.6522,-285.716C42.4197,-275.31 34.7318,-261.827 41.6035,-250 44.1952,-245.539 47.5918,-241.6 51.459,-238.13"/>
<polygon fill="black" stroke="black" points="53.6001,-240.899 59.388,-232.025 49.3294,-235.353 53.6001,-240.899"/>
<text text-anchor="middle" x="105.198" y="-253.4" font-family="Times,serif" font-size="14.00">Wait_DirectionOneGo</text>
</g>
<!-- Intersection_timerDriven_noPedestrian_flow_DirectionOneHalting&#45;&gt;Intersection_timerDriven_noPedestrian_flow_FourWayStop -->
<g id="edge3" class="edge"><title>Intersection_timerDriven_noPedestrian_flow_DirectionOneHalting&#45;&gt;Intersection_timerDriven_noPedestrian_flow_FourWayStop</title>
<path fill="none" stroke="black" d="M148.461,-232.008C156.052,-236.747 163.054,-242.669 168,-250 186.008,-276.689 152.866,-299.579 175.972,-322 211.815,-356.781 364.44,-304.93 400,-340 406.694,-346.601 408.857,-356.324 409.034,-365.646"/>
<polygon fill="black" stroke="black" points="405.53,-365.65 408.525,-375.812 412.521,-366 405.53,-365.65"/>
<text text-anchor="middle" x="293.014" y="-298.4" font-family="Times,serif" font-size="14.00">detectMalfunction_DirectionOneaHalting</text>
</g>
<!-- Intersection_timerDriven_noPedestrian_flow_DirectionTwoGo -->
<g id="node5" class="node"><title>Intersection_timerDriven_noPedestrian_flow_DirectionTwoGo</title>
<path fill="none" stroke="black" d="M242.999,-142C242.999,-142 157.001,-142 157.001,-142 151.001,-142 145.001,-136 145.001,-130 145.001,-130 145.001,-118 145.001,-118 145.001,-112 151.001,-106 157.001,-106 157.001,-106 242.999,-106 242.999,-106 248.999,-106 254.999,-112 254.999,-118 254.999,-118 254.999,-130 254.999,-130 254.999,-136 248.999,-142 242.999,-142"/>
<text text-anchor="middle" x="200" y="-118.4" font-family="Times,serif" font-size="14.00">DirectionTwoGo</text>
</g>
<!-- Intersection_timerDriven_noPedestrian_flow_DirectionOneHalting&#45;&gt;Intersection_timerDriven_noPedestrian_flow_DirectionTwoGo -->
<g id="edge9" class="edge"><title>Intersection_timerDriven_noPedestrian_flow_DirectionOneHalting&#45;&gt;Intersection_timerDriven_noPedestrian_flow_DirectionTwoGo</title>
<path fill="none" stroke="black" d="M138.085,-195.946C146.746,-190.848 155.64,-184.784 163,-178 171.504,-170.161 179.158,-160.044 185.267,-150.754"/>
<polygon fill="black" stroke="black" points="188.283,-152.532 190.629,-142.201 182.352,-148.814 188.283,-152.532"/>
<text text-anchor="middle" x="251.14" y="-163.4" font-family="Times,serif" font-size="14.00">WaitDirectionOneHalting</text>
</g>
<!-- Intersection_timerDriven_noPedestrian_flow_DirectionTwoGo&#45;&gt;Intersection_timerDriven_noPedestrian_flow_FourWayStop -->
<g id="edge4" class="edge"><title>Intersection_timerDriven_noPedestrian_flow_DirectionTwoGo&#45;&gt;Intersection_timerDriven_noPedestrian_flow_FourWayStop</title>
<path fill="none" stroke="black" d="M255.12,-133.428C285.132,-139.265 317.958,-148.128 327,-160 331.847,-166.364 332.231,-171.947 327,-178 290.872,-219.8 240.128,-154.2 204,-196 193.537,-208.105 200.917,-216.3 204,-232 207.331,-248.96 204.828,-257.701 218.708,-268 252.996,-293.443 381.258,-254.426 410,-286 429.388,-307.298 423.488,-341.989 415.8,-366.072"/>
<polygon fill="black" stroke="black" points="412.44,-365.079 412.465,-375.674 419.053,-367.376 412.44,-365.079"/>
<text text-anchor="middle" x="321.146" y="-253.4" font-family="Times,serif" font-size="14.00">detectMalfunction_DirectionTwoGo</text>
</g>
<!-- Intersection_timerDriven_noPedestrian_flow_DirectionTwoHalting -->
<g id="node6" class="node"><title>Intersection_timerDriven_noPedestrian_flow_DirectionTwoHalting</title>
<path fill="none" stroke="black" d="M255.162,-52C255.162,-52 144.838,-52 144.838,-52 138.838,-52 132.838,-46 132.838,-40 132.838,-40 132.838,-28 132.838,-28 132.838,-22 138.838,-16 144.838,-16 144.838,-16 255.162,-16 255.162,-16 261.162,-16 267.162,-22 267.162,-28 267.162,-28 267.162,-40 267.162,-40 267.162,-46 261.162,-52 255.162,-52"/>
<text text-anchor="middle" x="200" y="-28.4" font-family="Times,serif" font-size="14.00">DirectionTwoHalting</text>
</g>
<!-- Intersection_timerDriven_noPedestrian_flow_DirectionTwoGo&#45;&gt;Intersection_timerDriven_noPedestrian_flow_DirectionTwoHalting -->
<g id="edge10" class="edge"><title>Intersection_timerDriven_noPedestrian_flow_DirectionTwoGo&#45;&gt;Intersection_timerDriven_noPedestrian_flow_DirectionTwoHalting</title>
<path fill="none" stroke="black" d="M200,-105.614C200,-93.2403 200,-76.3686 200,-62.2198"/>
<polygon fill="black" stroke="black" points="203.5,-62.0504 200,-52.0504 196.5,-62.0504 203.5,-62.0504"/>
<text text-anchor="middle" x="260.378" y="-73.4" font-family="Times,serif" font-size="14.00">WaitDirectionTwoGo</text>
</g>
<!-- Intersection_timerDriven_noPedestrian_flow_DirectionTwoHalting&#45;&gt;Intersection_timerDriven_noPedestrian_flow_FourWayStop -->
<g id="edge5" class="edge"><title>Intersection_timerDriven_noPedestrian_flow_DirectionTwoHalting&#45;&gt;Intersection_timerDriven_noPedestrian_flow_FourWayStop</title>
<path fill="none" stroke="black" d="M267.199,-39.4309C288.331,-44.2302 309.825,-53.2784 324,-70 398.715,-158.136 351.678,-156.707 334,-178 306.652,-210.941 174.796,-162.547 237.825,-232 265.61,-262.616 394.709,-219.851 423,-250 460.829,-290.314 434.414,-327.621 426,-358 425.175,-360.977 424.023,-363.955 422.678,-366.848"/>
<polygon fill="black" stroke="black" points="419.574,-365.229 417.891,-375.689 425.73,-368.561 419.574,-365.229"/>
<text text-anchor="middle" x="352.587" y="-208.4" font-family="Times,serif" font-size="14.00">detectMalfunction_DirectionTwoHalting</text>
</g>
<!-- Intersection_timerDriven_noPedestrian_flow_DirectionTwoHalting&#45;&gt;Intersection_timerDriven_noPedestrian_flow_DirectionOneGo -->
<g id="edge7" class="edge"><title>Intersection_timerDriven_noPedestrian_flow_DirectionTwoHalting&#45;&gt;Intersection_timerDriven_noPedestrian_flow_DirectionOneGo</title>
<path fill="none" stroke="black" d="M161.167,-52.1471C121.312,-71.9659 61.0453,-108.583 31.2432,-160 7.1581,-201.554 11.5921,-226.061 35,-268 37.0552,-271.682 39.6191,-275.222 42.4261,-278.543"/>
<polygon fill="black" stroke="black" points="39.8956,-280.961 49.2921,-285.856 44.9988,-276.17 39.8956,-280.961"/>
<text text-anchor="middle" x="95.8784" y="-163.4" font-family="Times,serif" font-size="14.00">Wait_DirectionTwoGo</text>
</g>
<!-- start_Intersection_timerDriven_noPedestrian_pedestrianFlow -->
<g id="node7" class="node"><title>start_Intersection_timerDriven_noPedestrian_pedestrianFlow</title>
<ellipse fill="black" stroke="black" cx="526" cy="-484" rx="7.2" ry="7.2"/>
</g>
<!-- Intersection_timerDriven_noPedestrian_pedestrianFlow_FourWayStop -->
<g id="node8" class="node"><title>Intersection_timerDriven_noPedestrian_pedestrianFlow_FourWayStop</title>
<path fill="none" stroke="black" d="M560.577,-412C560.577,-412 491.423,-412 491.423,-412 485.423,-412 479.423,-406 479.423,-400 479.423,-400 479.423,-388 479.423,-388 479.423,-382 485.423,-376 491.423,-376 491.423,-376 560.577,-376 560.577,-376 566.577,-376 572.577,-382 572.577,-388 572.577,-388 572.577,-400 572.577,-400 572.577,-406 566.577,-412 560.577,-412"/>
<text text-anchor="middle" x="526" y="-388.4" font-family="Times,serif" font-size="14.00">FourWayStop</text>
</g>
<!-- start_Intersection_timerDriven_noPedestrian_pedestrianFlow&#45;&gt;Intersection_timerDriven_noPedestrian_pedestrianFlow_FourWayStop -->
<g id="edge11" class="edge"><title>start_Intersection_timerDriven_noPedestrian_pedestrianFlow&#45;&gt;Intersection_timerDriven_noPedestrian_pedestrianFlow_FourWayStop</title>
<path fill="none" stroke="black" d="M526,-476.671C526,-465.484 526,-441.597 526,-422.531"/>
<polygon fill="black" stroke="black" points="529.5,-422.271 526,-412.271 522.5,-422.271 529.5,-422.271"/>
</g>
<!-- Intersection_timerDriven_noPedestrian_pedestrianFlow_P2Go -->
<g id="node11" class="node"><title>Intersection_timerDriven_noPedestrian_pedestrianFlow_P2Go</title>
<path fill="none" stroke="black" d="M761,-322C761,-322 713,-322 713,-322 707,-322 701,-316 701,-310 701,-310 701,-298 701,-298 701,-292 707,-286 713,-286 713,-286 761,-286 761,-286 767,-286 773,-292 773,-298 773,-298 773,-310 773,-310 773,-316 767,-322 761,-322"/>
<text text-anchor="middle" x="737" y="-298.4" font-family="Times,serif" font-size="14.00">P2Go</text>
</g>
<!-- Intersection_timerDriven_noPedestrian_pedestrianFlow_FourWayStop&#45;&gt;Intersection_timerDriven_noPedestrian_pedestrianFlow_P2Go -->
<g id="edge17" class="edge"><title>Intersection_timerDriven_noPedestrian_pedestrianFlow_FourWayStop&#45;&gt;Intersection_timerDriven_noPedestrian_pedestrianFlow_P2Go</title>
<path fill="none" stroke="black" d="M512.085,-375.956C504.565,-364.595 498.487,-349.973 507.51,-340 534.404,-310.274 647.826,-330.507 687,-322 688.285,-321.721 689.583,-321.42 690.889,-321.1"/>
<polygon fill="black" stroke="black" points="692.237,-324.359 700.953,-318.336 690.383,-317.609 692.237,-324.359"/>
<text text-anchor="middle" x="610.245" y="-343.4" font-family="Times,serif" font-size="14.00">initiateRegularOperation_Pedestrian</text>
</g>
<!-- Intersection_timerDriven_noPedestrian_pedestrianFlow_P1Go -->
<g id="node9" class="node"><title>Intersection_timerDriven_noPedestrian_pedestrianFlow_P1Go</title>
<path fill="none" stroke="black" d="M573,-142C573,-142 525,-142 525,-142 519,-142 513,-136 513,-130 513,-130 513,-118 513,-118 513,-112 519,-106 525,-106 525,-106 573,-106 573,-106 579,-106 585,-112 585,-118 585,-118 585,-130 585,-130 585,-136 579,-142 573,-142"/>
<text text-anchor="middle" x="549" y="-118.4" font-family="Times,serif" font-size="14.00">P1Go</text>
</g>
<!-- Intersection_timerDriven_noPedestrian_pedestrianFlow_P1Go&#45;&gt;Intersection_timerDriven_noPedestrian_pedestrianFlow_FourWayStop -->
<g id="edge12" class="edge"><title>Intersection_timerDriven_noPedestrian_pedestrianFlow_P1Go&#45;&gt;Intersection_timerDriven_noPedestrian_pedestrianFlow_FourWayStop</title>
<path fill="none" stroke="black" d="M538.983,-142.072C525.853,-165.489 503.428,-209.314 494.365,-250 467.921,-368.719 486.041,-343.312 492,-358 493.421,-361.503 495.38,-364.848 497.646,-367.984"/>
<polygon fill="black" stroke="black" points="495.081,-370.372 504.203,-375.762 500.433,-365.86 495.081,-370.372"/>
<text text-anchor="middle" x="567.317" y="-253.4" font-family="Times,serif" font-size="14.00">detectMalfunction_P1GO</text>
</g>
<!-- Intersection_timerDriven_noPedestrian_pedestrianFlow_P1Halting -->
<g id="node13" class="node"><title>Intersection_timerDriven_noPedestrian_pedestrianFlow_P1Halting</title>
<path fill="none" stroke="black" d="M573.085,-52C573.085,-52 524.915,-52 524.915,-52 518.915,-52 512.915,-46 512.915,-40 512.915,-40 512.915,-28 512.915,-28 512.915,-22 518.915,-16 524.915,-16 524.915,-16 573.085,-16 573.085,-16 579.085,-16 585.085,-22 585.085,-28 585.085,-28 585.085,-40 585.085,-40 585.085,-46 579.085,-52 573.085,-52"/>
<text text-anchor="middle" x="549" y="-28.4" font-family="Times,serif" font-size="14.00">P1Halting</text>
</g>
<!-- Intersection_timerDriven_noPedestrian_pedestrianFlow_P1Go&#45;&gt;Intersection_timerDriven_noPedestrian_pedestrianFlow_P1Halting -->
<g id="edge20" class="edge"><title>Intersection_timerDriven_noPedestrian_pedestrianFlow_P1Go&#45;&gt;Intersection_timerDriven_noPedestrian_pedestrianFlow_P1Halting</title>
<path fill="none" stroke="black" d="M549,-105.614C549,-93.2403 549,-76.3686 549,-62.2198"/>
<polygon fill="black" stroke="black" points="552.5,-62.0504 549,-52.0504 545.5,-62.0504 552.5,-62.0504"/>
<text text-anchor="middle" x="583.05" y="-73.4" font-family="Times,serif" font-size="14.00">Wait_P1GO</text>
</g>
<!-- Intersection_timerDriven_noPedestrian_pedestrianFlow_P1halting -->
<g id="node10" class="node"><title>Intersection_timerDriven_noPedestrian_pedestrianFlow_P1halting</title>
<path fill="none" stroke="black" d="M699,-502C699,-502 651,-502 651,-502 645,-502 639,-496 639,-490 639,-490 639,-478 639,-478 639,-472 645,-466 651,-466 651,-466 699,-466 699,-466 705,-466 711,-472 711,-478 711,-478 711,-490 711,-490 711,-496 705,-502 699,-502"/>
<text text-anchor="middle" x="675" y="-478.4" font-family="Times,serif" font-size="14.00">P1halting</text>
</g>
<!-- Intersection_timerDriven_noPedestrian_pedestrianFlow_P1halting&#45;&gt;Intersection_timerDriven_noPedestrian_pedestrianFlow_FourWayStop -->
<g id="edge13" class="edge"><title>Intersection_timerDriven_noPedestrian_pedestrianFlow_P1halting&#45;&gt;Intersection_timerDriven_noPedestrian_pedestrianFlow_FourWayStop</title>
<path fill="none" stroke="black" d="M645.918,-465.824C622.432,-451.953 589.21,-432.332 563.687,-417.258"/>
<polygon fill="black" stroke="black" points="565.399,-414.205 555.009,-412.133 561.84,-420.232 565.399,-414.205"/>
<text text-anchor="middle" x="697.204" y="-433.4" font-family="Times,serif" font-size="14.00">detectMalfunction_P1Halting</text>
</g>
<!-- Intersection_timerDriven_noPedestrian_pedestrianFlow_P1halting&#45;&gt;Intersection_timerDriven_noPedestrian_pedestrianFlow_P2Go -->
<g id="edge18" class="edge"><title>Intersection_timerDriven_noPedestrian_pedestrianFlow_P1halting&#45;&gt;Intersection_timerDriven_noPedestrian_pedestrianFlow_P2Go</title>
<path fill="none" stroke="black" d="M711.111,-479.652C734.64,-475.677 764.484,-466.988 784,-448 811.013,-421.717 783.128,-392.073 812.128,-368 834.575,-349.367 858.008,-380.144 877,-358 905.808,-324.411 834.362,-312.057 783.279,-307.55"/>
<polygon fill="black" stroke="black" points="783.299,-304.04 773.05,-306.725 782.737,-311.017 783.299,-304.04"/>
<text text-anchor="middle" x="857.936" y="-388.4" font-family="Times,serif" font-size="14.00">Wait_P1Halting</text>
</g>
<!-- Intersection_timerDriven_noPedestrian_pedestrianFlow_P2Go&#45;&gt;Intersection_timerDriven_noPedestrian_pedestrianFlow_FourWayStop -->
<g id="edge14" class="edge"><title>Intersection_timerDriven_noPedestrian_pedestrianFlow_P2Go&#45;&gt;Intersection_timerDriven_noPedestrian_pedestrianFlow_FourWayStop</title>
<path fill="none" stroke="black" d="M734.621,-322.113C732.057,-333.962 726.782,-349.14 716,-358 695.98,-374.451 630.914,-383.794 582.47,-388.616"/>
<polygon fill="black" stroke="black" points="582.028,-385.142 572.407,-389.577 582.694,-392.11 582.028,-385.142"/>
<text text-anchor="middle" x="801.317" y="-343.4" font-family="Times,serif" font-size="14.00">detectMalfunction_P2GO</text>
</g>
<!-- Intersection_timerDriven_noPedestrian_pedestrianFlow_P2Halting -->
<g id="node12" class="node"><title>Intersection_timerDriven_noPedestrian_pedestrianFlow_P2Halting</title>
<path fill="none" stroke="black" d="M672.085,-232C672.085,-232 623.915,-232 623.915,-232 617.915,-232 611.915,-226 611.915,-220 611.915,-220 611.915,-208 611.915,-208 611.915,-202 617.915,-196 623.915,-196 623.915,-196 672.085,-196 672.085,-196 678.085,-196 684.085,-202 684.085,-208 684.085,-208 684.085,-220 684.085,-220 684.085,-226 678.085,-232 672.085,-232"/>
<text text-anchor="middle" x="648" y="-208.4" font-family="Times,serif" font-size="14.00">P2Halting</text>
</g>
<!-- Intersection_timerDriven_noPedestrian_pedestrianFlow_P2Go&#45;&gt;Intersection_timerDriven_noPedestrian_pedestrianFlow_P2Halting -->
<g id="edge19" class="edge"><title>Intersection_timerDriven_noPedestrian_pedestrianFlow_P2Go&#45;&gt;Intersection_timerDriven_noPedestrian_pedestrianFlow_P2Halting</title>
<path fill="none" stroke="black" d="M719.416,-285.614C706.043,-272.391 687.475,-254.032 672.624,-239.348"/>
<polygon fill="black" stroke="black" points="674.816,-236.593 665.244,-232.05 669.894,-241.57 674.816,-236.593"/>
<text text-anchor="middle" x="735.05" y="-253.4" font-family="Times,serif" font-size="14.00">Wait_P2GO</text>
</g>
<!-- Intersection_timerDriven_noPedestrian_pedestrianFlow_P2Halting&#45;&gt;Intersection_timerDriven_noPedestrian_pedestrianFlow_FourWayStop -->
<g id="edge15" class="edge"><title>Intersection_timerDriven_noPedestrian_pedestrianFlow_P2Halting&#45;&gt;Intersection_timerDriven_noPedestrian_pedestrianFlow_FourWayStop</title>
<path fill="none" stroke="black" d="M651.346,-232.237C652.533,-243.834 651.816,-258.656 643,-268 606.771,-306.397 567.931,-254.466 525.593,-286 498.356,-306.286 489.334,-325.757 500,-358 501.046,-361.162 502.5,-364.271 504.192,-367.252"/>
<polygon fill="black" stroke="black" points="501.369,-369.328 509.807,-375.735 507.206,-365.464 501.369,-369.328"/>
<text text-anchor="middle" x="609.204" y="-298.4" font-family="Times,serif" font-size="14.00">detectMalfunction_P2Halting</text>
</g>
<!-- Intersection_timerDriven_noPedestrian_pedestrianFlow_P2Halting&#45;&gt;Intersection_timerDriven_noPedestrian_pedestrianFlow_P1Go -->
<g id="edge16" class="edge"><title>Intersection_timerDriven_noPedestrian_pedestrianFlow_P2Halting&#45;&gt;Intersection_timerDriven_noPedestrian_pedestrianFlow_P1Go</title>
<path fill="none" stroke="black" d="M628.441,-195.614C613.429,-182.27 592.531,-163.694 575.937,-148.944"/>
<polygon fill="black" stroke="black" points="577.981,-146.078 568.182,-142.05 573.331,-151.31 577.981,-146.078"/>
<text text-anchor="middle" x="652.936" y="-163.4" font-family="Times,serif" font-size="14.00">Wait_P2Halting</text>
</g>
<!-- start_Intersection_timerDriven_noPedestrian_directionOneLight -->
<g id="node14" class="node"><title>start_Intersection_timerDriven_noPedestrian_directionOneLight</title>
<ellipse fill="black" stroke="black" cx="1216" cy="-484" rx="7.2" ry="7.2"/>
</g>
<!-- Intersection_timerDriven_noPedestrian_directionOneLight_FlashingRed -->
<g id="node15" class="node"><title>Intersection_timerDriven_noPedestrian_directionOneLight_FlashingRed</title>
<path fill="none" stroke="black" d="M1247.09,-412C1247.09,-412 1184.91,-412 1184.91,-412 1178.91,-412 1172.91,-406 1172.91,-400 1172.91,-400 1172.91,-388 1172.91,-388 1172.91,-382 1178.91,-376 1184.91,-376 1184.91,-376 1247.09,-376 1247.09,-376 1253.09,-376 1259.09,-382 1259.09,-388 1259.09,-388 1259.09,-400 1259.09,-400 1259.09,-406 1253.09,-412 1247.09,-412"/>
<text text-anchor="middle" x="1216" y="-388.4" font-family="Times,serif" font-size="14.00">FlashingRed</text>
</g>
<!-- start_Intersection_timerDriven_noPedestrian_directionOneLight&#45;&gt;Intersection_timerDriven_noPedestrian_directionOneLight_FlashingRed -->
<g id="edge21" class="edge"><title>start_Intersection_timerDriven_noPedestrian_directionOneLight&#45;&gt;Intersection_timerDriven_noPedestrian_directionOneLight_FlashingRed</title>
<path fill="none" stroke="black" d="M1216,-476.671C1216,-465.484 1216,-441.597 1216,-422.531"/>
<polygon fill="black" stroke="black" points="1219.5,-422.271 1216,-412.271 1212.5,-422.271 1219.5,-422.271"/>
</g>
<!-- Intersection_timerDriven_noPedestrian_directionOneLight_Red -->
<g id="node16" class="node"><title>Intersection_timerDriven_noPedestrian_directionOneLight_Red</title>
<path fill="none" stroke="black" d="M1177,-502C1177,-502 1129,-502 1129,-502 1123,-502 1117,-496 1117,-490 1117,-490 1117,-478 1117,-478 1117,-472 1123,-466 1129,-466 1129,-466 1177,-466 1177,-466 1183,-466 1189,-472 1189,-478 1189,-478 1189,-490 1189,-490 1189,-496 1183,-502 1177,-502"/>
<text text-anchor="middle" x="1153" y="-478.4" font-family="Times,serif" font-size="14.00">Red</text>
</g>
<!-- Intersection_timerDriven_noPedestrian_directionOneLight_Yellow -->
<g id="node17" class="node"><title>Intersection_timerDriven_noPedestrian_directionOneLight_Yellow</title>
<path fill="none" stroke="black" d="M1084,-502C1084,-502 1036,-502 1036,-502 1030,-502 1024,-496 1024,-490 1024,-490 1024,-478 1024,-478 1024,-472 1030,-466 1036,-466 1036,-466 1084,-466 1084,-466 1090,-466 1096,-472 1096,-478 1096,-478 1096,-490 1096,-490 1096,-496 1090,-502 1084,-502"/>
<text text-anchor="middle" x="1060" y="-478.4" font-family="Times,serif" font-size="14.00">Yellow</text>
</g>
<!-- Intersection_timerDriven_noPedestrian_directionOneLight_Green -->
<g id="node18" class="node"><title>Intersection_timerDriven_noPedestrian_directionOneLight_Green</title>
<path fill="none" stroke="black" d="M987,-502C987,-502 939,-502 939,-502 933,-502 927,-496 927,-490 927,-490 927,-478 927,-478 927,-472 933,-466 939,-466 939,-466 987,-466 987,-466 993,-466 999,-472 999,-478 999,-478 999,-490 999,-490 999,-496 993,-502 987,-502"/>
<text text-anchor="middle" x="963" y="-478.4" font-family="Times,serif" font-size="14.00">Green</text>
</g>
<!-- start_Intersection_timerDriven_noPedestrian_directionTwoLight -->
<g id="node19" class="node"><title>start_Intersection_timerDriven_noPedestrian_directionTwoLight</title>
<ellipse fill="black" stroke="black" cx="1588" cy="-484" rx="7.2" ry="7.2"/>
</g>
<!-- Intersection_timerDriven_noPedestrian_directionTwoLight_FlashingRed -->
<g id="node20" class="node"><title>Intersection_timerDriven_noPedestrian_directionTwoLight_FlashingRed</title>
<path fill="none" stroke="black" d="M1619.09,-412C1619.09,-412 1556.91,-412 1556.91,-412 1550.91,-412 1544.91,-406 1544.91,-400 1544.91,-400 1544.91,-388 1544.91,-388 1544.91,-382 1550.91,-376 1556.91,-376 1556.91,-376 1619.09,-376 1619.09,-376 1625.09,-376 1631.09,-382 1631.09,-388 1631.09,-388 1631.09,-400 1631.09,-400 1631.09,-406 1625.09,-412 1619.09,-412"/>
<text text-anchor="middle" x="1588" y="-388.4" font-family="Times,serif" font-size="14.00">FlashingRed</text>
</g>
<!-- start_Intersection_timerDriven_noPedestrian_directionTwoLight&#45;&gt;Intersection_timerDriven_noPedestrian_directionTwoLight_FlashingRed -->
<g id="edge22" class="edge"><title>start_Intersection_timerDriven_noPedestrian_directionTwoLight&#45;&gt;Intersection_timerDriven_noPedestrian_directionTwoLight_FlashingRed</title>
<path fill="none" stroke="black" d="M1588,-476.671C1588,-465.484 1588,-441.597 1588,-422.531"/>
<polygon fill="black" stroke="black" points="1591.5,-422.271 1588,-412.271 1584.5,-422.271 1591.5,-422.271"/>
</g>
<!-- Intersection_timerDriven_noPedestrian_directionTwoLight_Red -->
<g id="node21" class="node"><title>Intersection_timerDriven_noPedestrian_directionTwoLight_Red</title>
<path fill="none" stroke="black" d="M1549,-502C1549,-502 1501,-502 1501,-502 1495,-502 1489,-496 1489,-490 1489,-490 1489,-478 1489,-478 1489,-472 1495,-466 1501,-466 1501,-466 1549,-466 1549,-466 1555,-466 1561,-472 1561,-478 1561,-478 1561,-490 1561,-490 1561,-496 1555,-502 1549,-502"/>
<text text-anchor="middle" x="1525" y="-478.4" font-family="Times,serif" font-size="14.00">Red</text>
</g>
<!-- Intersection_timerDriven_noPedestrian_directionTwoLight_Yellow -->
<g id="node22" class="node"><title>Intersection_timerDriven_noPedestrian_directionTwoLight_Yellow</title>
<path fill="none" stroke="black" d="M1456,-502C1456,-502 1408,-502 1408,-502 1402,-502 1396,-496 1396,-490 1396,-490 1396,-478 1396,-478 1396,-472 1402,-466 1408,-466 1408,-466 1456,-466 1456,-466 1462,-466 1468,-472 1468,-478 1468,-478 1468,-490 1468,-490 1468,-496 1462,-502 1456,-502"/>
<text text-anchor="middle" x="1432" y="-478.4" font-family="Times,serif" font-size="14.00">Yellow</text>
</g>
<!-- Intersection_timerDriven_noPedestrian_directionTwoLight_Green -->
<g id="node23" class="node"><title>Intersection_timerDriven_noPedestrian_directionTwoLight_Green</title>
<path fill="none" stroke="black" d="M1359,-502C1359,-502 1311,-502 1311,-502 1305,-502 1299,-496 1299,-490 1299,-490 1299,-478 1299,-478 1299,-472 1305,-466 1311,-466 1311,-466 1359,-466 1359,-466 1365,-466 1371,-472 1371,-478 1371,-478 1371,-490 1371,-490 1371,-496 1365,-502 1359,-502"/>
<text text-anchor="middle" x="1335" y="-478.4" font-family="Times,serif" font-size="14.00">Green</text>
</g>
<!-- start_Intersection_timerDriven_noPedestrian_P1Light -->
<g id="node24" class="node"><title>start_Intersection_timerDriven_noPedestrian_P1Light</title>
<ellipse fill="black" stroke="black" cx="1896" cy="-484" rx="7.2" ry="7.2"/>
</g>
<!-- Intersection_timerDriven_noPedestrian_P1Light_DoNotWalk -->
<g id="node25" class="node"><title>Intersection_timerDriven_noPedestrian_P1Light_DoNotWalk</title>
<path fill="none" stroke="black" d="M1925.48,-412C1925.48,-412 1866.52,-412 1866.52,-412 1860.52,-412 1854.52,-406 1854.52,-400 1854.52,-400 1854.52,-388 1854.52,-388 1854.52,-382 1860.52,-376 1866.52,-376 1866.52,-376 1925.48,-376 1925.48,-376 1931.48,-376 1937.48,-382 1937.48,-388 1937.48,-388 1937.48,-400 1937.48,-400 1937.48,-406 1931.48,-412 1925.48,-412"/>
<text text-anchor="middle" x="1896" y="-388.4" font-family="Times,serif" font-size="14.00">DoNotWalk</text>
</g>
<!-- start_Intersection_timerDriven_noPedestrian_P1Light&#45;&gt;Intersection_timerDriven_noPedestrian_P1Light_DoNotWalk -->
<g id="edge23" class="edge"><title>start_Intersection_timerDriven_noPedestrian_P1Light&#45;&gt;Intersection_timerDriven_noPedestrian_P1Light_DoNotWalk</title>
<path fill="none" stroke="black" d="M1896,-476.671C1896,-465.484 1896,-441.597 1896,-422.531"/>
<polygon fill="black" stroke="black" points="1899.5,-422.271 1896,-412.271 1892.5,-422.271 1899.5,-422.271"/>
</g>
<!-- Intersection_timerDriven_noPedestrian_P1Light_Flashing -->
<g id="node26" class="node"><title>Intersection_timerDriven_noPedestrian_P1Light_Flashing</title>
<path fill="none" stroke="black" d="M1852,-502C1852,-502 1804,-502 1804,-502 1798,-502 1792,-496 1792,-490 1792,-490 1792,-478 1792,-478 1792,-472 1798,-466 1804,-466 1804,-466 1852,-466 1852,-466 1858,-466 1864,-472 1864,-478 1864,-478 1864,-490 1864,-490 1864,-496 1858,-502 1852,-502"/>
<text text-anchor="middle" x="1828" y="-478.4" font-family="Times,serif" font-size="14.00">Flashing</text>
</g>
<!-- Intersection_timerDriven_noPedestrian_P1Light_Walk -->
<g id="node27" class="node"><title>Intersection_timerDriven_noPedestrian_P1Light_Walk</title>
<path fill="none" stroke="black" d="M1747,-502C1747,-502 1699,-502 1699,-502 1693,-502 1687,-496 1687,-490 1687,-490 1687,-478 1687,-478 1687,-472 1693,-466 1699,-466 1699,-466 1747,-466 1747,-466 1753,-466 1759,-472 1759,-478 1759,-478 1759,-490 1759,-490 1759,-496 1753,-502 1747,-502"/>
<text text-anchor="middle" x="1723" y="-478.4" font-family="Times,serif" font-size="14.00">Walk</text>
</g>
<!-- start_Intersection_timerDriven_noPedestrian_P2Light -->
<g id="node28" class="node"><title>start_Intersection_timerDriven_noPedestrian_P2Light</title>
<ellipse fill="black" stroke="black" cx="2209" cy="-484" rx="7.2" ry="7.2"/>
</g>
<!-- Intersection_timerDriven_noPedestrian_P2Light_DoNotWalk -->
<g id="node29" class="node"><title>Intersection_timerDriven_noPedestrian_P2Light_DoNotWalk</title>
<path fill="none" stroke="black" d="M2238.48,-412C2238.48,-412 2179.52,-412 2179.52,-412 2173.52,-412 2167.52,-406 2167.52,-400 2167.52,-400 2167.52,-388 2167.52,-388 2167.52,-382 2173.52,-376 2179.52,-376 2179.52,-376 2238.48,-376 2238.48,-376 2244.48,-376 2250.48,-382 2250.48,-388 2250.48,-388 2250.48,-400 2250.48,-400 2250.48,-406 2244.48,-412 2238.48,-412"/>
<text text-anchor="middle" x="2209" y="-388.4" font-family="Times,serif" font-size="14.00">DoNotWalk</text>
</g>
<!-- start_Intersection_timerDriven_noPedestrian_P2Light&#45;&gt;Intersection_timerDriven_noPedestrian_P2Light_DoNotWalk -->
<g id="edge24" class="edge"><title>start_Intersection_timerDriven_noPedestrian_P2Light&#45;&gt;Intersection_timerDriven_noPedestrian_P2Light_DoNotWalk</title>
<path fill="none" stroke="black" d="M2209,-476.671C2209,-465.484 2209,-441.597 2209,-422.531"/>
<polygon fill="black" stroke="black" points="2212.5,-422.271 2209,-412.271 2205.5,-422.271 2212.5,-422.271"/>
</g>
<!-- Intersection_timerDriven_noPedestrian_P2Light_Flashing -->
<g id="node30" class="node"><title>Intersection_timerDriven_noPedestrian_P2Light_Flashing</title>
<path fill="none" stroke="black" d="M2165,-502C2165,-502 2117,-502 2117,-502 2111,-502 2105,-496 2105,-490 2105,-490 2105,-478 2105,-478 2105,-472 2111,-466 2117,-466 2117,-466 2165,-466 2165,-466 2171,-466 2177,-472 2177,-478 2177,-478 2177,-490 2177,-490 2177,-496 2171,-502 2165,-502"/>
<text text-anchor="middle" x="2141" y="-478.4" font-family="Times,serif" font-size="14.00">Flashing</text>
</g>
<!-- Intersection_timerDriven_noPedestrian_P2Light_Walk -->
<g id="node31" class="node"><title>Intersection_timerDriven_noPedestrian_P2Light_Walk</title>
<path fill="none" stroke="black" d="M2060,-502C2060,-502 2012,-502 2012,-502 2006,-502 2000,-496 2000,-490 2000,-490 2000,-478 2000,-478 2000,-472 2006,-466 2012,-466 2012,-466 2060,-466 2060,-466 2066,-466 2072,-472 2072,-478 2072,-478 2072,-490 2072,-490 2072,-496 2066,-502 2060,-502"/>
<text text-anchor="middle" x="2036" y="-478.4" font-family="Times,serif" font-size="14.00">Walk</text>
</g>
</g>
</svg>
