<?xml version="1.0" encoding="UTF-8" standalone="no"?>
<!DOCTYPE svg PUBLIC "-//W3C//DTD SVG 1.1//EN"
 "http://www.w3.org/Graphics/SVG/1.1/DTD/svg11.dtd">
<!-- Generated by graphviz version 2.39.20140502.0445 (20140502.0445)
 -->
<!-- Title: TrafficLightsA Pages: 1 -->
<svg width="1092pt" height="443pt"
 viewBox="0.00 0.00 1092.48 443.40" xmlns="http://www.w3.org/2000/svg" xmlns:xlink="http://www.w3.org/1999/xlink">
<g id="graph0" class="graph" transform="scale(1 1) rotate(0) translate(4 439.4)">
<title>TrafficLightsA</title>
<polygon fill="white" stroke="none" points="-4,4 -4,-439.4 1088.48,-439.4 1088.48,4 -4,4"/>
<!-- start_Intersection_timerDriven_noPedestrian_flow -->
<g id="node1" class="node"><title>start_Intersection_timerDriven_noPedestrian_flow</title>
<ellipse fill="black" stroke="black" cx="372.48" cy="-428.2" rx="7.2" ry="7.2"/>
</g>
<!-- Intersection_timerDriven_noPedestrian_flow_FourWayStop -->
<g id="node2" class="node"><title>Intersection_timerDriven_noPedestrian_flow_FourWayStop</title>
<path fill="none" stroke="black" d="M407.98,-384C407.98,-384 336.98,-384 336.98,-384 330.98,-384 324.98,-378 324.98,-372 324.98,-372 324.98,-360 324.98,-360 324.98,-354 330.98,-348 336.98,-348 336.98,-348 407.98,-348 407.98,-348 413.98,-348 419.98,-354 419.98,-360 419.98,-360 419.98,-372 419.98,-372 419.98,-378 413.98,-384 407.98,-384"/>
<text text-anchor="middle" x="372.48" y="-362.3" font-family="Times,serif" font-size="14.00">FourWayStop</text>
</g>
<!-- start_Intersection_timerDriven_noPedestrian_flow&#45;&gt;Intersection_timerDriven_noPedestrian_flow_FourWayStop -->
<g id="edge1" class="edge"><title>start_Intersection_timerDriven_noPedestrian_flow&#45;&gt;Intersection_timerDriven_noPedestrian_flow_FourWayStop</title>
<g id="a_edge1"><a xlink:title="start &#160;&#45;&gt; FourWayStop">
<path fill="none" stroke="black" d="M372.48,-420.758C372.48,-414.387 372.48,-404.197 372.48,-394.393"/>
<polygon fill="black" stroke="black" points="375.98,-394.105 372.48,-384.105 368.98,-394.105 375.98,-394.105"/>
</a>
</g>
</g>
<!-- Intersection_timerDriven_noPedestrian_flow_DirectionOneGo -->
<g id="node3" class="node"><title>Intersection_timerDriven_noPedestrian_flow_DirectionOneGo</title>
<path fill="none" stroke="black" d="M218.48,-297C218.48,-297 132.48,-297 132.48,-297 126.48,-297 120.48,-291 120.48,-285 120.48,-285 120.48,-273 120.48,-273 120.48,-267 126.48,-261 132.48,-261 132.48,-261 218.48,-261 218.48,-261 224.48,-261 230.48,-267 230.48,-273 230.48,-273 230.48,-285 230.48,-285 230.48,-291 224.48,-297 218.48,-297"/>
<text text-anchor="middle" x="175.48" y="-275.3" font-family="Times,serif" font-size="14.00">DirectionOneGo</text>
</g>
<!-- Intersection_timerDriven_noPedestrian_flow_FourWayStop&#45;&gt;Intersection_timerDriven_noPedestrian_flow_DirectionOneGo -->
<g id="edge6" class="edge"><title>Intersection_timerDriven_noPedestrian_flow_FourWayStop&#45;&gt;Intersection_timerDriven_noPedestrian_flow_DirectionOneGo</title>
<g id="a_edge6"><a xlink:title="FourWayStop initiateRegularOperation &#45;&gt; DirectionOneGo">
<path fill="none" stroke="black" d="M110.215,-280.637 50.3776,-283.433 -24.3203,-293.895 8.47968,-330 29.3706,-352.996 231.139,-361.288 324.955,-363.918"/>
<polygon fill="black" stroke="black" points="110.576,-284.126 120.427,-280.225 110.294,-277.131 110.576,-284.126"/>
</a>
</g>
<text text-anchor="middle" x="78.4797" y="-318.8" font-family="Times,serif" font-size="14.00">initiateRegularOperation</text>
</g>
<!-- Intersection_timerDriven_noPedestrian_flow_DirectionOneGo&#45;&gt;Intersection_timerDriven_noPedestrian_flow_FourWayStop -->
<g id="edge2" class="edge"><title>Intersection_timerDriven_noPedestrian_flow_DirectionOneGo&#45;&gt;Intersection_timerDriven_noPedestrian_flow_FourWayStop</title>
<g id="a_edge2"><a xlink:title="DirectionOneGo detectMalfunction_DirectionOneGo &#45;&gt; FourWayStop">
<path fill="none" stroke="black" d="M160.316,-297.215C153.046,-307.605 147.478,-320.604 155.48,-330 175.553,-353.57 257.355,-361.322 314.573,-363.839"/>
<polygon fill="black" stroke="black" points="314.463,-367.337 324.594,-364.238 314.741,-360.343 314.463,-367.337"/>
</a>
</g>
<text text-anchor="middle" x="256.98" y="-318.8" font-family="Times,serif" font-size="14.00">detectMalfunction_DirectionOneGo</text>
</g>
<!-- Intersection_timerDriven_noPedestrian_flow_DirectionOneHalting -->
<g id="node4" class="node"><title>Intersection_timerDriven_noPedestrian_flow_DirectionOneHalting</title>
<path fill="none" stroke="black" d="M424.98,-210C424.98,-210 313.98,-210 313.98,-210 307.98,-210 301.98,-204 301.98,-198 301.98,-198 301.98,-186 301.98,-186 301.98,-180 307.98,-174 313.98,-174 313.98,-174 424.98,-174 424.98,-174 430.98,-174 436.98,-180 436.98,-186 436.98,-186 436.98,-198 436.98,-198 436.98,-204 430.98,-210 424.98,-210"/>
<text text-anchor="middle" x="369.48" y="-188.3" font-family="Times,serif" font-size="14.00">DirectionOneHalting</text>
</g>
<!-- Intersection_timerDriven_noPedestrian_flow_DirectionOneGo&#45;&gt;Intersection_timerDriven_noPedestrian_flow_DirectionOneHalting -->
<g id="edge8" class="edge"><title>Intersection_timerDriven_noPedestrian_flow_DirectionOneGo&#45;&gt;Intersection_timerDriven_noPedestrian_flow_DirectionOneHalting</title>
<g id="a_edge8"><a xlink:title="DirectionOneGo Wait_DirectionOneGo &#45;&gt; DirectionOneHalting">
<path fill="none" stroke="black" d="M189.212,-260.76C198.819,-249.819 212.563,-236.222 227.48,-228 247.149,-217.159 270.178,-209.632 291.898,-204.421"/>
<polygon fill="black" stroke="black" points="292.788,-207.809 301.768,-202.187 291.242,-200.981 292.788,-207.809"/>
</a>
</g>
<text text-anchor="middle" x="291.48" y="-231.8" font-family="Times,serif" font-size="14.00">Wait_DirectionOneGo</text>
</g>
<!-- Intersection_timerDriven_noPedestrian_flow_DirectionOneHalting&#45;&gt;Intersection_timerDriven_noPedestrian_flow_FourWayStop -->
<g id="edge3" class="edge"><title>Intersection_timerDriven_noPedestrian_flow_DirectionOneHalting&#45;&gt;Intersection_timerDriven_noPedestrian_flow_FourWayStop</title>
<g id="a_edge3"><a xlink:title="DirectionOneHalting detectMalfunction_DirectionOneaHalting &#45;&gt; FourWayStop">
<path fill="none" stroke="black" d="M369.777,-210.052C370.297,-239.88 371.377,-301.764 372.003,-337.643"/>
<polygon fill="black" stroke="black" points="368.507,-337.942 372.181,-347.879 375.506,-337.82 368.507,-337.942"/>
</a>
</g>
<text text-anchor="middle" x="488.98" y="-275.3" font-family="Times,serif" font-size="14.00">detectMalfunction_DirectionOneaHalting</text>
</g>
<!-- Intersection_timerDriven_noPedestrian_flow_DirectionTwoGo -->
<g id="node5" class="node"><title>Intersection_timerDriven_noPedestrian_flow_DirectionTwoGo</title>
<path fill="none" stroke="black" d="M570.48,-123C570.48,-123 482.48,-123 482.48,-123 476.48,-123 470.48,-117 470.48,-111 470.48,-111 470.48,-99 470.48,-99 470.48,-93 476.48,-87 482.48,-87 482.48,-87 570.48,-87 570.48,-87 576.48,-87 582.48,-93 582.48,-99 582.48,-99 582.48,-111 582.48,-111 582.48,-117 576.48,-123 570.48,-123"/>
<text text-anchor="middle" x="526.48" y="-101.3" font-family="Times,serif" font-size="14.00">DirectionTwoGo</text>
</g>
<!-- Intersection_timerDriven_noPedestrian_flow_DirectionOneHalting&#45;&gt;Intersection_timerDriven_noPedestrian_flow_DirectionTwoGo -->
<g id="edge9" class="edge"><title>Intersection_timerDriven_noPedestrian_flow_DirectionOneHalting&#45;&gt;Intersection_timerDriven_noPedestrian_flow_DirectionTwoGo</title>
<g id="a_edge9"><a xlink:title="DirectionOneHalting WaitDirectionOneHalting &#45;&gt; DirectionTwoGo">
<path fill="none" stroke="black" d="M401.251,-173.799C425.697,-160.564 459.649,-142.182 486.035,-127.897"/>
<polygon fill="black" stroke="black" points="487.896,-130.869 495.024,-123.03 484.564,-124.713 487.896,-130.869"/>
</a>
</g>
<text text-anchor="middle" x="530.48" y="-144.8" font-family="Times,serif" font-size="14.00">WaitDirectionOneHalting</text>
</g>
<!-- Intersection_timerDriven_noPedestrian_flow_DirectionTwoGo&#45;&gt;Intersection_timerDriven_noPedestrian_flow_FourWayStop -->
<g id="edge4" class="edge"><title>Intersection_timerDriven_noPedestrian_flow_DirectionTwoGo&#45;&gt;Intersection_timerDriven_noPedestrian_flow_FourWayStop</title>
<g id="a_edge4"><a xlink:title="DirectionTwoGo detectMalfunction_DirectionTwoGo &#45;&gt; FourWayStop">
<path fill="none" stroke="black" d="M430.454,-356.527 493.687,-345.96 588.816,-325.72 610.48,-297 619.48,-285.067 635.292,-182.184 607.48,-141 601.393,-131.986 592.451,-125.28 582.708,-120.295"/>
<polygon fill="black" stroke="black" points="429.513,-353.134 420.208,-358.201 430.642,-360.042 429.513,-353.134"/>
</a>
</g>
<text text-anchor="middle" x="725.48" y="-231.8" font-family="Times,serif" font-size="14.00">detectMalfunction_DirectionTwoGo</text>
</g>
<!-- Intersection_timerDriven_noPedestrian_flow_DirectionTwoHalting -->
<g id="node6" class="node"><title>Intersection_timerDriven_noPedestrian_flow_DirectionTwoHalting</title>
<path fill="none" stroke="black" d="M582.98,-36C582.98,-36 469.98,-36 469.98,-36 463.98,-36 457.98,-30 457.98,-24 457.98,-24 457.98,-12 457.98,-12 457.98,-6 463.98,-0 469.98,-0 469.98,-0 582.98,-0 582.98,-0 588.98,-0 594.98,-6 594.98,-12 594.98,-12 594.98,-24 594.98,-24 594.98,-30 588.98,-36 582.98,-36"/>
<text text-anchor="middle" x="526.48" y="-14.3" font-family="Times,serif" font-size="14.00">DirectionTwoHalting</text>
</g>
<!-- Intersection_timerDriven_noPedestrian_flow_DirectionTwoGo&#45;&gt;Intersection_timerDriven_noPedestrian_flow_DirectionTwoHalting -->
<g id="edge10" class="edge"><title>Intersection_timerDriven_noPedestrian_flow_DirectionTwoGo&#45;&gt;Intersection_timerDriven_noPedestrian_flow_DirectionTwoHalting</title>
<g id="a_edge10"><a xlink:title="DirectionTwoGo WaitDirectionTwoGo &#45;&gt; DirectionTwoHalting">
<path fill="none" stroke="black" d="M526.48,-86.799C526.48,-75.1626 526.48,-59.5479 526.48,-46.2368"/>
<polygon fill="black" stroke="black" points="529.98,-46.1754 526.48,-36.1754 522.98,-46.1755 529.98,-46.1754"/>
</a>
</g>
<text text-anchor="middle" x="587.98" y="-57.8" font-family="Times,serif" font-size="14.00">WaitDirectionTwoGo</text>
</g>
<!-- Intersection_timerDriven_noPedestrian_flow_DirectionTwoHalting&#45;&gt;Intersection_timerDriven_noPedestrian_flow_FourWayStop -->
<g id="edge5" class="edge"><title>Intersection_timerDriven_noPedestrian_flow_DirectionTwoHalting&#45;&gt;Intersection_timerDriven_noPedestrian_flow_FourWayStop</title>
<g id="a_edge5"><a xlink:title="DirectionTwoHalting detectMalfunction_DirectionTwoHalting &#45;&gt; FourWayStop">
<path fill="none" stroke="black" d="M430.369,-360.751 558.23,-350.589 853.48,-322.521 853.48,-280 853.48,-280 853.48,-280 853.48,-104 853.48,-51.0617 690.916,-30.5182 595.03,-23.0052"/>
<polygon fill="black" stroke="black" points="430.054,-357.265 420.358,-361.537 430.602,-364.243 430.054,-357.265"/>
</a>
</g>
<text text-anchor="middle" x="968.98" y="-188.3" font-family="Times,serif" font-size="14.00">detectMalfunction_DirectionTwoHalting</text>
</g>
<!-- Intersection_timerDriven_noPedestrian_flow_DirectionTwoHalting&#45;&gt;Intersection_timerDriven_noPedestrian_flow_DirectionOneGo -->
<g id="edge7" class="edge"><title>Intersection_timerDriven_noPedestrian_flow_DirectionTwoHalting&#45;&gt;Intersection_timerDriven_noPedestrian_flow_DirectionOneGo</title>
<g id="a_edge7"><a xlink:title="DirectionTwoHalting Wait_DirectionTwoGo &#45;&gt; DirectionOneGo">
<path fill="none" stroke="black" d="M187.875,-251.811 192.257,-243.785 197.58,-235.184 203.48,-228 282.111,-132.25 416.382,-65.5255 484.373,-36.0365"/>
<polygon fill="black" stroke="black" points="184.684,-250.362 183.186,-260.85 190.898,-253.585 184.684,-250.362"/>
</a>
</g>
<text text-anchor="middle" x="360.48" y="-144.8" font-family="Times,serif" font-size="14.00">Wait_DirectionTwoGo</text>
</g>
</g>
</svg>
