<?xml version="1.0" encoding="UTF-8" standalone="no"?>
<!DOCTYPE svg PUBLIC "-//W3C//DTD SVG 1.1//EN"
 "http://www.w3.org/Graphics/SVG/1.1/DTD/svg11.dtd">
<!-- Generated by graphviz version 2.29.20121108.1600 (20121108.1600)
 -->
<!-- Title: TrafficLightsA Pages: 1 -->
<svg width="1088pt" height="456pt"
 viewBox="0.00 0.00 1087.95 456.00" xmlns="http://www.w3.org/2000/svg" xmlns:xlink="http://www.w3.org/1999/xlink">
<g id="graph0" class="graph" transform="scale(1 1) rotate(0) translate(4 452)">
<title>TrafficLightsA</title>
<polygon fill="white" stroke="white" points="-4,5 -4,-452 1084.95,-452 1084.95,5 -4,5"/>
<!-- start_Intersection_timerDriven_noPedestrian_flow -->
<g id="node1" class="node"><title>start_Intersection_timerDriven_noPedestrian_flow</title>
<ellipse fill="black" stroke="black" cx="372.778" cy="-441" rx="7.2" ry="7.2"/>
</g>
<!-- Intersection_timerDriven_noPedestrian_flow_FourWayStop -->
<g id="node2" class="node"><title>Intersection_timerDriven_noPedestrian_flow_FourWayStop</title>
<path fill="none" stroke="black" d="M407.356,-396C407.356,-396 338.201,-396 338.201,-396 332.201,-396 326.201,-390 326.201,-384 326.201,-384 326.201,-372 326.201,-372 326.201,-366 332.201,-360 338.201,-360 338.201,-360 407.356,-360 407.356,-360 413.356,-360 419.356,-366 419.356,-372 419.356,-372 419.356,-384 419.356,-384 419.356,-390 413.356,-396 407.356,-396"/>
<text text-anchor="middle" x="372.778" y="-372.4" font-family="Times,serif" font-size="14.00">FourWayStop</text>
</g>
<!-- start_Intersection_timerDriven_noPedestrian_flow&#45;&gt;Intersection_timerDriven_noPedestrian_flow_FourWayStop -->
<g id="edge1" class="edge"><title>start_Intersection_timerDriven_noPedestrian_flow&#45;&gt;Intersection_timerDriven_noPedestrian_flow_FourWayStop</title>
<path fill="none" stroke="black" d="M372.778,-433.472C372.778,-426.902 372.778,-416.324 372.778,-406.229"/>
<polygon fill="black" stroke="black" points="376.278,-406.073 372.778,-396.073 369.278,-406.073 376.278,-406.073"/>
</g>
<!-- Intersection_timerDriven_noPedestrian_flow_DirectionOneGo -->
<g id="node3" class="node"><title>Intersection_timerDriven_noPedestrian_flow_DirectionOneGo</title>
<path fill="none" stroke="black" d="M219.255,-306C219.255,-306 134.301,-306 134.301,-306 128.301,-306 122.301,-300 122.301,-294 122.301,-294 122.301,-282 122.301,-282 122.301,-276 128.301,-270 134.301,-270 134.301,-270 219.255,-270 219.255,-270 225.255,-270 231.255,-276 231.255,-282 231.255,-282 231.255,-294 231.255,-294 231.255,-300 225.255,-306 219.255,-306"/>
<text text-anchor="middle" x="176.778" y="-282.4" font-family="Times,serif" font-size="14.00">DirectionOneGo</text>
</g>
<!-- Intersection_timerDriven_noPedestrian_flow_FourWayStop&#45;&gt;Intersection_timerDriven_noPedestrian_flow_DirectionOneGo -->
<g id="edge6" class="edge"><title>Intersection_timerDriven_noPedestrian_flow_FourWayStop&#45;&gt;Intersection_timerDriven_noPedestrian_flow_DirectionOneGo</title>
<path fill="none" stroke="black" d="M326.305,-375.949C232.92,-373.356 29.5865,-365.094 8.6052,-342 -24.767,-305.267 51.5749,-293.803 112.054,-290.335"/>
<polygon fill="black" stroke="black" points="112.558,-293.814 122.367,-289.81 112.202,-286.823 112.558,-293.814"/>
<text text-anchor="middle" x="78.3645" y="-327.4" font-family="Times,serif" font-size="14.00">initiateRegularOperation</text>
</g>
<!-- Intersection_timerDriven_noPedestrian_flow_DirectionOneGo&#45;&gt;Intersection_timerDriven_noPedestrian_flow_FourWayStop -->
<g id="edge2" class="edge"><title>Intersection_timerDriven_noPedestrian_flow_DirectionOneGo&#45;&gt;Intersection_timerDriven_noPedestrian_flow_FourWayStop</title>
<path fill="none" stroke="black" d="M161.542,-306.267C153.576,-317.439 147.123,-331.757 155.846,-342 176.088,-365.769 259.121,-373.451 316.38,-375.901"/>
<polygon fill="black" stroke="black" points="316.268,-379.399 326.396,-376.288 316.538,-372.405 316.268,-379.399"/>
<text text-anchor="middle" x="258.244" y="-327.4" font-family="Times,serif" font-size="14.00">detectMalfunction_DirectionOneGo</text>
</g>
<!-- Intersection_timerDriven_noPedestrian_flow_DirectionOneHalting -->
<g id="node4" class="node"><title>Intersection_timerDriven_noPedestrian_flow_DirectionOneHalting</title>
<path fill="none" stroke="black" d="M424.918,-216C424.918,-216 314.638,-216 314.638,-216 308.638,-216 302.638,-210 302.638,-204 302.638,-204 302.638,-192 302.638,-192 302.638,-186 308.638,-180 314.638,-180 314.638,-180 424.918,-180 424.918,-180 430.918,-180 436.918,-186 436.918,-192 436.918,-192 436.918,-204 436.918,-204 436.918,-210 430.918,-216 424.918,-216"/>
<text text-anchor="middle" x="369.778" y="-192.4" font-family="Times,serif" font-size="14.00">DirectionOneHalting</text>
</g>
<!-- Intersection_timerDriven_noPedestrian_flow_DirectionOneGo&#45;&gt;Intersection_timerDriven_noPedestrian_flow_DirectionOneHalting -->
<g id="edge8" class="edge"><title>Intersection_timerDriven_noPedestrian_flow_DirectionOneGo&#45;&gt;Intersection_timerDriven_noPedestrian_flow_DirectionOneHalting</title>
<path fill="none" stroke="black" d="M189.465,-269.99C199.145,-258.192 213.489,-243.031 229.382,-234 248.7,-223.022 271.43,-215.452 292.907,-210.246"/>
<polygon fill="black" stroke="black" points="293.701,-213.655 302.671,-208.016 292.142,-206.83 293.701,-213.655"/>
<text text-anchor="middle" x="292.976" y="-237.4" font-family="Times,serif" font-size="14.00">Wait_DirectionOneGo</text>
</g>
<!-- Intersection_timerDriven_noPedestrian_flow_DirectionOneHalting&#45;&gt;Intersection_timerDriven_noPedestrian_flow_FourWayStop -->
<g id="edge3" class="edge"><title>Intersection_timerDriven_noPedestrian_flow_DirectionOneHalting&#45;&gt;Intersection_timerDriven_noPedestrian_flow_FourWayStop</title>
<path fill="none" stroke="black" d="M370.065,-216.016C370.586,-246.943 371.693,-312.607 372.32,-349.809"/>
<polygon fill="black" stroke="black" points="368.822,-349.993 372.49,-359.933 375.821,-349.875 368.822,-349.993"/>
<text text-anchor="middle" x="488.792" y="-282.4" font-family="Times,serif" font-size="14.00">detectMalfunction_DirectionOneaHalting</text>
</g>
<!-- Intersection_timerDriven_noPedestrian_flow_DirectionTwoGo -->
<g id="node5" class="node"><title>Intersection_timerDriven_noPedestrian_flow_DirectionTwoGo</title>
<path fill="none" stroke="black" d="M568.777,-126C568.777,-126 482.779,-126 482.779,-126 476.779,-126 470.779,-120 470.779,-114 470.779,-114 470.779,-102 470.779,-102 470.779,-96 476.779,-90 482.779,-90 482.779,-90 568.777,-90 568.777,-90 574.777,-90 580.777,-96 580.777,-102 580.777,-102 580.777,-114 580.777,-114 580.777,-120 574.777,-126 568.777,-126"/>
<text text-anchor="middle" x="525.778" y="-102.4" font-family="Times,serif" font-size="14.00">DirectionTwoGo</text>
</g>
<!-- Intersection_timerDriven_noPedestrian_flow_DirectionOneHalting&#45;&gt;Intersection_timerDriven_noPedestrian_flow_DirectionTwoGo -->
<g id="edge9" class="edge"><title>Intersection_timerDriven_noPedestrian_flow_DirectionOneHalting&#45;&gt;Intersection_timerDriven_noPedestrian_flow_DirectionTwoGo</title>
<path fill="none" stroke="black" d="M400.227,-179.824C424.923,-165.893 459.902,-146.161 486.67,-131.061"/>
<polygon fill="black" stroke="black" points="488.416,-134.095 495.406,-126.133 484.977,-127.998 488.416,-134.095"/>
<text text-anchor="middle" x="533.918" y="-147.4" font-family="Times,serif" font-size="14.00">WaitDirectionOneHalting</text>
</g>
<!-- Intersection_timerDriven_noPedestrian_flow_DirectionTwoGo&#45;&gt;Intersection_timerDriven_noPedestrian_flow_FourWayStop -->
<g id="edge4" class="edge"><title>Intersection_timerDriven_noPedestrian_flow_DirectionTwoGo&#45;&gt;Intersection_timerDriven_noPedestrian_flow_FourWayStop</title>
<path fill="none" stroke="black" d="M580.788,-121.165C592.205,-126.307 602.855,-133.615 609.778,-144 629.747,-173.954 631.273,-277.122 609.778,-306 588.187,-335.008 492.472,-356.572 429.48,-367.935"/>
<polygon fill="black" stroke="black" points="428.52,-364.551 419.282,-369.738 429.738,-371.444 428.52,-364.551"/>
<text text-anchor="middle" x="726.924" y="-237.4" font-family="Times,serif" font-size="14.00">detectMalfunction_DirectionTwoGo</text>
</g>
<!-- Intersection_timerDriven_noPedestrian_flow_DirectionTwoHalting -->
<g id="node6" class="node"><title>Intersection_timerDriven_noPedestrian_flow_DirectionTwoHalting</title>
<path fill="none" stroke="black" d="M580.94,-36C580.94,-36 470.616,-36 470.616,-36 464.616,-36 458.616,-30 458.616,-24 458.616,-24 458.616,-12 458.616,-12 458.616,-6 464.616,-0 470.616,-0 470.616,-0 580.94,-0 580.94,-0 586.94,-0 592.94,-6 592.94,-12 592.94,-12 592.94,-24 592.94,-24 592.94,-30 586.94,-36 580.94,-36"/>
<text text-anchor="middle" x="525.778" y="-12.4" font-family="Times,serif" font-size="14.00">DirectionTwoHalting</text>
</g>
<!-- Intersection_timerDriven_noPedestrian_flow_DirectionTwoGo&#45;&gt;Intersection_timerDriven_noPedestrian_flow_DirectionTwoHalting -->
<g id="edge10" class="edge"><title>Intersection_timerDriven_noPedestrian_flow_DirectionTwoGo&#45;&gt;Intersection_timerDriven_noPedestrian_flow_DirectionTwoHalting</title>
<path fill="none" stroke="black" d="M525.778,-89.614C525.778,-77.2403 525.778,-60.3686 525.778,-46.2198"/>
<polygon fill="black" stroke="black" points="529.278,-46.0504 525.778,-36.0504 522.278,-46.0504 529.278,-46.0504"/>
<text text-anchor="middle" x="586.156" y="-57.4" font-family="Times,serif" font-size="14.00">WaitDirectionTwoGo</text>
</g>
<!-- Intersection_timerDriven_noPedestrian_flow_DirectionTwoHalting&#45;&gt;Intersection_timerDriven_noPedestrian_flow_FourWayStop -->
<g id="edge5" class="edge"><title>Intersection_timerDriven_noPedestrian_flow_DirectionTwoHalting&#45;&gt;Intersection_timerDriven_noPedestrian_flow_FourWayStop</title>
<path fill="none" stroke="black" d="M593.118,-23.6118C688.313,-32.0121 850.778,-54.0979 850.778,-107 850.778,-289 850.778,-289 850.778,-289 850.778,-331.37 556.535,-361.425 429.765,-372.407"/>
<polygon fill="black" stroke="black" points="429.146,-368.947 419.481,-373.288 429.743,-375.922 429.146,-368.947"/>
<text text-anchor="middle" x="965.365" y="-192.4" font-family="Times,serif" font-size="14.00">detectMalfunction_DirectionTwoHalting</text>
</g>
<!-- Intersection_timerDriven_noPedestrian_flow_DirectionTwoHalting&#45;&gt;Intersection_timerDriven_noPedestrian_flow_DirectionOneGo -->
<g id="edge7" class="edge"><title>Intersection_timerDriven_noPedestrian_flow_DirectionTwoHalting&#45;&gt;Intersection_timerDriven_noPedestrian_flow_DirectionOneGo</title>
<path fill="none" stroke="black" d="M483.49,-36.0206C414.626,-65.8563 278.369,-134.075 202.778,-234 196.693,-242.043 191.445,-251.735 187.289,-260.618"/>
<polygon fill="black" stroke="black" points="184.061,-259.263 183.219,-269.824 190.463,-262.093 184.061,-259.263"/>
<text text-anchor="middle" x="356.656" y="-147.4" font-family="Times,serif" font-size="14.00">Wait_DirectionTwoGo</text>
</g>
</g>
</svg>
