<?xml version="1.0" encoding="UTF-8" standalone="no"?>
<!DOCTYPE svg PUBLIC "-//W3C//DTD SVG 1.1//EN"
 "http://www.w3.org/Graphics/SVG/1.1/DTD/svg11.dtd">
<!-- Generated by graphviz version 2.39.20140502.0445 (20140502.0445)
 -->
<!-- Title: TrafficLightsB Pages: 1 -->
<svg width="2011pt" height="520pt"
 viewBox="0.00 0.00 2011.00 520.00" xmlns="http://www.w3.org/2000/svg" xmlns:xlink="http://www.w3.org/1999/xlink">
<g id="graph0" class="graph" transform="scale(1 1) rotate(0) translate(4 516)">
<title>TrafficLightsB</title>
<polygon fill="white" stroke="none" points="-4,4 -4,-516 2007,-516 2007,4 -4,4"/>
<g id="clust1" class="cluster"><title>clusterIntersectionTimerDriven_flow</title>
<polygon fill="none" stroke="black" stroke-width="0.5" points="8,-8 8,-493.2 344,-493.2 344,-8 8,-8"/>
<text text-anchor="middle" x="176" y="-478" font-family="Times,serif" font-size="14.00">sm IntersectionTimerDriven flow</text>
</g>
<g id="clust2" class="cluster"><title>clusterIntersectionTimerDriven_pedestrianFlow</title>
<polygon fill="none" stroke="black" stroke-width="0.5" points="352,-8 352,-493.2 915,-493.2 915,-8 352,-8"/>
<text text-anchor="middle" x="633.5" y="-478" font-family="Times,serif" font-size="14.00">sm IntersectionTimerDriven pedestrianFlow</text>
</g>
<g id="clust3" class="cluster"><title>clusterIntersectionTimerDriven_directionOneLight</title>
<polygon fill="none" stroke="black" stroke-width="0.5" points="923,-356 923,-504 1223,-504 1223,-356 923,-356"/>
<text text-anchor="middle" x="1073" y="-488.8" font-family="Times,serif" font-size="14.00">sm IntersectionTimerDriven directionOneLight</text>
</g>
<g id="clust4" class="cluster"><title>clusterIntersectionTimerDriven_directionTwoLight</title>
<polygon fill="none" stroke="black" stroke-width="0.5" points="1231,-356 1231,-504 1531,-504 1531,-356 1231,-356"/>
<text text-anchor="middle" x="1381" y="-488.8" font-family="Times,serif" font-size="14.00">sm IntersectionTimerDriven directionTwoLight</text>
</g>
<g id="clust5" class="cluster"><title>clusterIntersectionTimerDriven_P1Light</title>
<polygon fill="none" stroke="black" stroke-width="0.5" points="1539,-356 1539,-504 1763,-504 1763,-356 1539,-356"/>
<text text-anchor="middle" x="1651" y="-488.8" font-family="Times,serif" font-size="14.00">sm IntersectionTimerDriven P1Light</text>
</g>
<g id="clust6" class="cluster"><title>clusterIntersectionTimerDriven_P2Light</title>
<polygon fill="none" stroke="black" stroke-width="0.5" points="1771,-356 1771,-504 1995,-504 1995,-356 1771,-356"/>
<text text-anchor="middle" x="1883" y="-488.8" font-family="Times,serif" font-size="14.00">sm IntersectionTimerDriven P2Light</text>
</g>
<!-- start_IntersectionTimerDriven_flow -->
<g id="node1" class="node"><title>start_IntersectionTimerDriven_flow</title>
<ellipse fill="black" stroke="black" cx="288" cy="-455" rx="7.2" ry="7.2"/>
</g>
<!-- IntersectionTimerDriven_flow_FourWayStop -->
<g id="node2" class="node"><title>IntersectionTimerDriven_flow_FourWayStop</title>
<path fill="none" stroke="black" d="M323.5,-400C323.5,-400 252.5,-400 252.5,-400 246.5,-400 240.5,-394 240.5,-388 240.5,-388 240.5,-376 240.5,-376 240.5,-370 246.5,-364 252.5,-364 252.5,-364 323.5,-364 323.5,-364 329.5,-364 335.5,-370 335.5,-376 335.5,-376 335.5,-388 335.5,-388 335.5,-394 329.5,-400 323.5,-400"/>
<text text-anchor="middle" x="288" y="-378.3" font-family="Times,serif" font-size="14.00">FourWayStop</text>
</g>
<!-- start_IntersectionTimerDriven_flow&#45;&gt;IntersectionTimerDriven_flow_FourWayStop -->
<g id="edge1" class="edge"><title>start_IntersectionTimerDriven_flow&#45;&gt;IntersectionTimerDriven_flow_FourWayStop</title>
<g id="a_edge1"><a xlink:title="start &#160;&#45;&gt; FourWayStop">
<path fill="none" stroke="black" d="M288,-447.448C288,-439.05 288,-423.967 288,-410.502"/>
<polygon fill="black" stroke="black" points="291.5,-410.21 288,-400.21 284.5,-410.21 291.5,-410.21"/>
</a>
</g>
</g>
<!-- IntersectionTimerDriven_flow_DirectionOneGo -->
<g id="node3" class="node"><title>IntersectionTimerDriven_flow_DirectionOneGo</title>
<path fill="none" stroke="black" d="M114,-313C114,-313 28,-313 28,-313 22,-313 16,-307 16,-301 16,-301 16,-289 16,-289 16,-283 22,-277 28,-277 28,-277 114,-277 114,-277 120,-277 126,-283 126,-289 126,-289 126,-301 126,-301 126,-307 120,-313 114,-313"/>
<text text-anchor="middle" x="71" y="-291.3" font-family="Times,serif" font-size="14.00">DirectionOneGo</text>
</g>
<!-- IntersectionTimerDriven_flow_FourWayStop&#45;&gt;IntersectionTimerDriven_flow_DirectionOneGo -->
<g id="edge6" class="edge"><title>IntersectionTimerDriven_flow_FourWayStop&#45;&gt;IntersectionTimerDriven_flow_DirectionOneGo</title>
<g id="a_edge6"><a xlink:title="FourWayStop initiateRegularOperation &#45;&gt; DirectionOneGo">
<path fill="none" stroke="black" d="M36.206,-319.941 28.1236,-328.312 23.7461,-337.691 31,-346 57.6163,-376.487 173.56,-381.417 240.266,-381.649"/>
<polygon fill="black" stroke="black" points="38.6089,-322.487 43.6927,-313.191 33.9218,-317.288 38.6089,-322.487"/>
</a>
</g>
<text text-anchor="middle" x="101" y="-334.8" font-family="Times,serif" font-size="14.00">initiateRegularOperation</text>
</g>
<!-- IntersectionTimerDriven_flow_DirectionOneGo&#45;&gt;IntersectionTimerDriven_flow_FourWayStop -->
<g id="edge2" class="edge"><title>IntersectionTimerDriven_flow_DirectionOneGo&#45;&gt;IntersectionTimerDriven_flow_FourWayStop</title>
<g id="a_edge2"><a xlink:title="DirectionOneGo detectMalfunction &#45;&gt; FourWayStop">
<path fill="none" stroke="black" d="M126.013,-311.632C142.136,-316.977 159.571,-323.523 175,-331 185.982,-336.322 187.144,-340.425 198,-346 208.381,-351.331 219.771,-356.35 230.854,-360.834"/>
<polygon fill="black" stroke="black" points="229.894,-364.218 240.481,-364.63 232.462,-357.706 229.894,-364.218"/>
</a>
</g>
<text text-anchor="middle" x="249.5" y="-334.8" font-family="Times,serif" font-size="14.00">detectMalfunction</text>
</g>
<!-- IntersectionTimerDriven_flow_DirectionOneHalting -->
<g id="node4" class="node"><title>IntersectionTimerDriven_flow_DirectionOneHalting</title>
<path fill="none" stroke="black" d="M164.5,-226C164.5,-226 53.5,-226 53.5,-226 47.5,-226 41.5,-220 41.5,-214 41.5,-214 41.5,-202 41.5,-202 41.5,-196 47.5,-190 53.5,-190 53.5,-190 164.5,-190 164.5,-190 170.5,-190 176.5,-196 176.5,-202 176.5,-202 176.5,-214 176.5,-214 176.5,-220 170.5,-226 164.5,-226"/>
<text text-anchor="middle" x="109" y="-204.3" font-family="Times,serif" font-size="14.00">DirectionOneHalting</text>
</g>
<!-- IntersectionTimerDriven_flow_DirectionOneGo&#45;&gt;IntersectionTimerDriven_flow_DirectionOneHalting -->
<g id="edge8" class="edge"><title>IntersectionTimerDriven_flow_DirectionOneGo&#45;&gt;IntersectionTimerDriven_flow_DirectionOneHalting</title>
<g id="a_edge8"><a xlink:title="DirectionOneGo after(directionOneGoTime) &#45;&gt; DirectionOneHalting">
<path fill="none" stroke="black" d="M51.0917,-276.78C42.3712,-267.096 35.4483,-254.814 42,-244 44.6935,-239.554 48.1574,-235.646 52.0889,-232.216"/>
<polygon fill="black" stroke="black" points="54.2322,-234.984 60.146,-226.193 50.041,-229.377 54.2322,-234.984"/>
</a>
</g>
<text text-anchor="middle" x="119.5" y="-247.8" font-family="Times,serif" font-size="14.00">after(directionOneGoTime)</text>
</g>
<!-- IntersectionTimerDriven_flow_DirectionOneHalting&#45;&gt;IntersectionTimerDriven_flow_FourWayStop -->
<g id="edge3" class="edge"><title>IntersectionTimerDriven_flow_DirectionOneHalting&#45;&gt;IntersectionTimerDriven_flow_FourWayStop</title>
<g id="a_edge3"><a xlink:title="DirectionOneHalting detectMalfunction &#45;&gt; FourWayStop">
<path fill="none" stroke="black" d="M175.33,-226.231C183.611,-230.827 191.194,-236.643 197,-244 216.196,-268.325 185.59,-290.599 207,-313 236.39,-343.751 273.898,-298.215 301,-331 306.422,-337.559 306.039,-346.123 303.41,-354.306"/>
<polygon fill="black" stroke="black" points="300.155,-353.019 299.505,-363.594 306.607,-355.733 300.155,-353.019"/>
</a>
</g>
<text text-anchor="middle" x="258.5" y="-291.3" font-family="Times,serif" font-size="14.00">detectMalfunction</text>
</g>
<!-- IntersectionTimerDriven_flow_DirectionTwoGo -->
<g id="node5" class="node"><title>IntersectionTimerDriven_flow_DirectionTwoGo</title>
<path fill="none" stroke="black" d="M204,-139C204,-139 116,-139 116,-139 110,-139 104,-133 104,-127 104,-127 104,-115 104,-115 104,-109 110,-103 116,-103 116,-103 204,-103 204,-103 210,-103 216,-109 216,-115 216,-115 216,-127 216,-127 216,-133 210,-139 204,-139"/>
<text text-anchor="middle" x="160" y="-117.3" font-family="Times,serif" font-size="14.00">DirectionTwoGo</text>
</g>
<!-- IntersectionTimerDriven_flow_DirectionOneHalting&#45;&gt;IntersectionTimerDriven_flow_DirectionTwoGo -->
<g id="edge9" class="edge"><title>IntersectionTimerDriven_flow_DirectionOneHalting&#45;&gt;IntersectionTimerDriven_flow_DirectionTwoGo</title>
<g id="a_edge9"><a xlink:title="DirectionOneHalting after(yellowTime) &#45;&gt; DirectionTwoGo">
<path fill="none" stroke="black" d="M124.759,-189.917C129.367,-184.435 134.185,-178.177 138,-172 142.485,-164.738 146.535,-156.402 149.902,-148.645"/>
<polygon fill="black" stroke="black" points="153.199,-149.832 153.784,-139.254 146.73,-147.159 153.199,-149.832"/>
</a>
</g>
<text text-anchor="middle" x="197.5" y="-160.8" font-family="Times,serif" font-size="14.00">after(yellowTime)</text>
</g>
<!-- IntersectionTimerDriven_flow_DirectionTwoGo&#45;&gt;IntersectionTimerDriven_flow_FourWayStop -->
<g id="edge4" class="edge"><title>IntersectionTimerDriven_flow_DirectionTwoGo&#45;&gt;IntersectionTimerDriven_flow_FourWayStop</title>
<g id="a_edge4"><a xlink:title="DirectionTwoGo detectMalfunction &#45;&gt; FourWayStop">
<path fill="none" stroke="black" d="M216.425,-131.308C230.671,-136.48 244.36,-144.517 253,-157 256.794,-162.482 256.67,-166.434 253,-172 241.82,-188.955 222.18,-173.045 211,-190 202.192,-203.357 207.419,-210.406 211,-226 214.648,-241.886 214.188,-248.924 227,-259 256.669,-282.335 286.306,-247.617 310,-277 329.252,-300.875 317.634,-316.57 309,-346 308.13,-348.964 306.948,-351.934 305.585,-354.821"/>
<polygon fill="black" stroke="black" points="302.482,-353.199 300.774,-363.655 308.63,-356.547 302.482,-353.199"/>
</a>
</g>
<text text-anchor="middle" x="278.5" y="-247.8" font-family="Times,serif" font-size="14.00">detectMalfunction</text>
</g>
<!-- IntersectionTimerDriven_flow_DirectionTwoHalting -->
<g id="node6" class="node"><title>IntersectionTimerDriven_flow_DirectionTwoHalting</title>
<path fill="none" stroke="black" d="M171.5,-52C171.5,-52 58.5,-52 58.5,-52 52.5,-52 46.5,-46 46.5,-40 46.5,-40 46.5,-28 46.5,-28 46.5,-22 52.5,-16 58.5,-16 58.5,-16 171.5,-16 171.5,-16 177.5,-16 183.5,-22 183.5,-28 183.5,-28 183.5,-40 183.5,-40 183.5,-46 177.5,-52 171.5,-52"/>
<text text-anchor="middle" x="115" y="-30.3" font-family="Times,serif" font-size="14.00">DirectionTwoHalting</text>
</g>
<!-- IntersectionTimerDriven_flow_DirectionTwoGo&#45;&gt;IntersectionTimerDriven_flow_DirectionTwoHalting -->
<g id="edge10" class="edge"><title>IntersectionTimerDriven_flow_DirectionTwoGo&#45;&gt;IntersectionTimerDriven_flow_DirectionTwoHalting</title>
<g id="a_edge10"><a xlink:title="DirectionTwoGo after(directionOneGoTime) &#45;&gt; DirectionTwoHalting">
<path fill="none" stroke="black" d="M111.346,-62.1329 111.399,-69.8517 112.559,-78.0448 116,-85 119.376,-91.8241 124.779,-97.7389 130.662,-102.665"/>
<polygon fill="black" stroke="black" points="114.846,-62.2245 111.851,-52.0619 107.855,-61.8741 114.846,-62.2245"/>
</a>
</g>
<text text-anchor="middle" x="193.5" y="-73.8" font-family="Times,serif" font-size="14.00">after(directionOneGoTime)</text>
</g>
<!-- IntersectionTimerDriven_flow_DirectionTwoHalting&#45;&gt;IntersectionTimerDriven_flow_FourWayStop -->
<g id="edge5" class="edge"><title>IntersectionTimerDriven_flow_DirectionTwoHalting&#45;&gt;IntersectionTimerDriven_flow_FourWayStop</title>
<g id="a_edge5"><a xlink:title="DirectionTwoHalting detectMalfunction &#45;&gt; FourWayStop">
<path fill="none" stroke="black" d="M183.825,-41.9757C220.287,-47.2454 259.812,-56.0235 271,-70 299.495,-105.596 278.186,-130.187 260,-172 255.847,-181.55 248.545,-180.208 245,-190 239.553,-205.044 234.926,-213.569 245,-226 269.313,-256.001 305.687,-213.999 330,-244 334.197,-249.179 330.494,-252.352 330,-259 327.103,-297.988 332.946,-310.304 317,-346 315.54,-349.269 313.686,-352.479 311.624,-355.548"/>
<polygon fill="black" stroke="black" points="308.657,-353.669 305.416,-363.756 314.24,-357.891 308.657,-353.669"/>
</a>
</g>
<text text-anchor="middle" x="296.5" y="-204.3" font-family="Times,serif" font-size="14.00">detectMalfunction</text>
</g>
<!-- IntersectionTimerDriven_flow_DirectionTwoHalting&#45;&gt;IntersectionTimerDriven_flow_DirectionOneGo -->
<g id="edge7" class="edge"><title>IntersectionTimerDriven_flow_DirectionTwoHalting&#45;&gt;IntersectionTimerDriven_flow_DirectionOneGo</title>
<g id="a_edge7"><a xlink:title="DirectionTwoHalting after(yellowTime) &#45;&gt; DirectionOneGo">
<path fill="none" stroke="black" d="M42.6458,-269.374 40.0691,-266.114 37.7689,-262.634 36,-259 16.1349,-218.19 17.5223,-200.341 31,-157 44.1341,-114.764 77.5382,-74.2101 98.0455,-52.1437"/>
<polygon fill="black" stroke="black" points="40.1919,-271.88 49.4749,-276.987 45.4026,-267.206 40.1919,-271.88"/>
</a>
</g>
<text text-anchor="middle" x="82.5" y="-160.8" font-family="Times,serif" font-size="14.00">after(yellowTime)</text>
</g>
<!-- start_IntersectionTimerDriven_pedestrianFlow -->
<g id="node7" class="node"><title>start_IntersectionTimerDriven_pedestrianFlow</title>
<ellipse fill="black" stroke="black" cx="674" cy="-455" rx="7.2" ry="7.2"/>
</g>
<!-- IntersectionTimerDriven_pedestrianFlow_FourWayStop -->
<g id="node8" class="node"><title>IntersectionTimerDriven_pedestrianFlow_FourWayStop</title>
<path fill="none" stroke="black" d="M709.5,-400C709.5,-400 638.5,-400 638.5,-400 632.5,-400 626.5,-394 626.5,-388 626.5,-388 626.5,-376 626.5,-376 626.5,-370 632.5,-364 638.5,-364 638.5,-364 709.5,-364 709.5,-364 715.5,-364 721.5,-370 721.5,-376 721.5,-376 721.5,-388 721.5,-388 721.5,-394 715.5,-400 709.5,-400"/>
<text text-anchor="middle" x="674" y="-378.3" font-family="Times,serif" font-size="14.00">FourWayStop</text>
</g>
<!-- start_IntersectionTimerDriven_pedestrianFlow&#45;&gt;IntersectionTimerDriven_pedestrianFlow_FourWayStop -->
<g id="edge11" class="edge"><title>start_IntersectionTimerDriven_pedestrianFlow&#45;&gt;IntersectionTimerDriven_pedestrianFlow_FourWayStop</title>
<g id="a_edge11"><a xlink:title="start &#160;&#45;&gt; FourWayStop">
<path fill="none" stroke="black" d="M674,-447.448C674,-439.05 674,-423.967 674,-410.502"/>
<polygon fill="black" stroke="black" points="677.5,-410.21 674,-400.21 670.5,-410.21 677.5,-410.21"/>
</a>
</g>
</g>
<!-- IntersectionTimerDriven_pedestrianFlow_P2Go -->
<g id="node11" class="node"><title>IntersectionTimerDriven_pedestrianFlow_P2Go</title>
<path fill="none" stroke="black" d="M426,-313C426,-313 378,-313 378,-313 372,-313 366,-307 366,-301 366,-301 366,-289 366,-289 366,-283 372,-277 378,-277 378,-277 426,-277 426,-277 432,-277 438,-283 438,-289 438,-289 438,-301 438,-301 438,-307 432,-313 426,-313"/>
<text text-anchor="middle" x="402" y="-291.3" font-family="Times,serif" font-size="14.00">P2Go</text>
</g>
<!-- IntersectionTimerDriven_pedestrianFlow_FourWayStop&#45;&gt;IntersectionTimerDriven_pedestrianFlow_P2Go -->
<g id="edge18" class="edge"><title>IntersectionTimerDriven_pedestrianFlow_FourWayStop&#45;&gt;IntersectionTimerDriven_pedestrianFlow_P2Go</title>
<g id="a_edge18"><a xlink:title="FourWayStop initiateRegularOperation &#45;&gt; P2Go">
<path fill="none" stroke="black" d="M393.432,-323.3 392.562,-331.456 393.584,-339.852 399,-346 413.752,-362.749 551.516,-373.602 626.276,-378.31"/>
<polygon fill="black" stroke="black" points="396.906,-323.767 395.358,-313.286 390.032,-322.445 396.906,-323.767"/>
</a>
</g>
<text text-anchor="middle" x="469" y="-334.8" font-family="Times,serif" font-size="14.00">initiateRegularOperation</text>
</g>
<!-- IntersectionTimerDriven_pedestrianFlow_P1Go -->
<g id="node9" class="node"><title>IntersectionTimerDriven_pedestrianFlow_P1Go</title>
<path fill="none" stroke="black" d="M671,-139C671,-139 623,-139 623,-139 617,-139 611,-133 611,-127 611,-127 611,-115 611,-115 611,-109 617,-103 623,-103 623,-103 671,-103 671,-103 677,-103 683,-109 683,-115 683,-115 683,-127 683,-127 683,-133 677,-139 671,-139"/>
<text text-anchor="middle" x="647" y="-117.3" font-family="Times,serif" font-size="14.00">P1Go</text>
</g>
<!-- IntersectionTimerDriven_pedestrianFlow_P1Go&#45;&gt;IntersectionTimerDriven_pedestrianFlow_FourWayStop -->
<g id="edge12" class="edge"><title>IntersectionTimerDriven_pedestrianFlow_P1Go&#45;&gt;IntersectionTimerDriven_pedestrianFlow_FourWayStop</title>
<g id="a_edge12"><a xlink:title="P1Go detectMalfunction &#45;&gt; FourWayStop">
<path fill="none" stroke="black" d="M683.386,-121.587C745.325,-121.747 867.166,-126.096 894,-157 928.023,-196.184 820.383,-155.076 782,-190 766.34,-204.248 758.32,-239.133 768,-259 773.685,-270.669 785.315,-265.331 791,-277 798.008,-291.384 798.98,-299.132 791,-313 777.869,-335.819 753.815,-351.691 730.917,-362.324"/>
<polygon fill="black" stroke="black" points="729.307,-359.209 721.55,-366.426 732.114,-365.621 729.307,-359.209"/>
</a>
</g>
<text text-anchor="middle" x="819.5" y="-247.8" font-family="Times,serif" font-size="14.00">detectMalfunction</text>
</g>
<!-- IntersectionTimerDriven_pedestrianFlow_P1Halting -->
<g id="node10" class="node"><title>IntersectionTimerDriven_pedestrianFlow_P1Halting</title>
<path fill="none" stroke="black" d="M629.5,-52C629.5,-52 580.5,-52 580.5,-52 574.5,-52 568.5,-46 568.5,-40 568.5,-40 568.5,-28 568.5,-28 568.5,-22 574.5,-16 580.5,-16 580.5,-16 629.5,-16 629.5,-16 635.5,-16 641.5,-22 641.5,-28 641.5,-28 641.5,-40 641.5,-40 641.5,-46 635.5,-52 629.5,-52"/>
<text text-anchor="middle" x="605" y="-30.3" font-family="Times,serif" font-size="14.00">P1Halting</text>
</g>
<!-- IntersectionTimerDriven_pedestrianFlow_P1Go&#45;&gt;IntersectionTimerDriven_pedestrianFlow_P1Halting -->
<g id="edge17" class="edge"><title>IntersectionTimerDriven_pedestrianFlow_P1Go&#45;&gt;IntersectionTimerDriven_pedestrianFlow_P1Halting</title>
<g id="a_edge17"><a xlink:title="P1Go after(directionOneGoTime&#45;extraPedestrianWarning) &#45;&gt; P1Halting">
<path fill="none" stroke="black" d="M601.507,-62.6747 601.618,-70.211 602.768,-78.1726 606,-85 609.203,-91.7673 614.408,-97.723 620.051,-102.714"/>
<polygon fill="black" stroke="black" points="605.013,-62.6039 601.934,-52.4663 598.019,-62.3112 605.013,-62.6039"/>
</a>
</g>
<text text-anchor="middle" x="753.5" y="-73.8" font-family="Times,serif" font-size="14.00">after(directionOneGoTime&#45;extraPedestrianWarning)</text>
</g>
<!-- IntersectionTimerDriven_pedestrianFlow_P1Halting&#45;&gt;IntersectionTimerDriven_pedestrianFlow_FourWayStop -->
<g id="edge13" class="edge"><title>IntersectionTimerDriven_pedestrianFlow_P1Halting&#45;&gt;IntersectionTimerDriven_pedestrianFlow_FourWayStop</title>
<g id="a_edge13"><a xlink:title="P1Halting detectMalfunction &#45;&gt; FourWayStop">
<path fill="none" stroke="black" d="M641.648,-36.6559C717.067,-40.4401 884.027,-50.9021 901,-70 957.499,-133.574 918.028,-188.133 871,-259 838.979,-307.253 823.852,-316.53 774,-346 760.942,-353.719 745.919,-360.097 731.553,-365.197"/>
<polygon fill="black" stroke="black" points="730.09,-361.998 721.744,-368.524 732.339,-368.627 730.09,-361.998"/>
</a>
</g>
<text text-anchor="middle" x="965.5" y="-204.3" font-family="Times,serif" font-size="14.00">detectMalfunction</text>
</g>
<!-- IntersectionTimerDriven_pedestrianFlow_P1Halting&#45;&gt;IntersectionTimerDriven_pedestrianFlow_P2Go -->
<g id="edge19" class="edge"><title>IntersectionTimerDriven_pedestrianFlow_P1Halting&#45;&gt;IntersectionTimerDriven_pedestrianFlow_P2Go</title>
<g id="a_edge19"><a xlink:title="P1Halting after(extraPedestrianWarning+yellowTime) &#45;&gt; P2Go">
<path fill="none" stroke="black" d="M392.825,-266.993 384.625,-237.68 376.733,-190.572 397,-157 435.189,-93.7429 519.591,-59.7192 568.329,-44.6878"/>
<polygon fill="black" stroke="black" points="389.581,-268.359 395.808,-276.93 396.285,-266.346 389.581,-268.359"/>
</a>
</g>
<text text-anchor="middle" x="520" y="-160.8" font-family="Times,serif" font-size="14.00">after(extraPedestrianWarning+yellowTime)</text>
</g>
<!-- IntersectionTimerDriven_pedestrianFlow_P2Go&#45;&gt;IntersectionTimerDriven_pedestrianFlow_FourWayStop -->
<g id="edge14" class="edge"><title>IntersectionTimerDriven_pedestrianFlow_P2Go&#45;&gt;IntersectionTimerDriven_pedestrianFlow_FourWayStop</title>
<g id="a_edge14"><a xlink:title="P2Go detectMalfunction &#45;&gt; FourWayStop">
<path fill="none" stroke="black" d="M438.133,-301.529C467.278,-306.793 508.89,-316.15 543,-331 554.19,-335.871 554.988,-340.74 566,-346 581.982,-353.635 600.052,-360.222 616.774,-365.557"/>
<polygon fill="black" stroke="black" points="615.85,-368.935 626.438,-368.551 617.922,-362.248 615.85,-368.935"/>
</a>
</g>
<text text-anchor="middle" x="617.5" y="-334.8" font-family="Times,serif" font-size="14.00">detectMalfunction</text>
</g>
<!-- IntersectionTimerDriven_pedestrianFlow_P2Halting -->
<g id="node12" class="node"><title>IntersectionTimerDriven_pedestrianFlow_P2Halting</title>
<path fill="none" stroke="black" d="M671.5,-226C671.5,-226 622.5,-226 622.5,-226 616.5,-226 610.5,-220 610.5,-214 610.5,-214 610.5,-202 610.5,-202 610.5,-196 616.5,-190 622.5,-190 622.5,-190 671.5,-190 671.5,-190 677.5,-190 683.5,-196 683.5,-202 683.5,-202 683.5,-214 683.5,-214 683.5,-220 677.5,-226 671.5,-226"/>
<text text-anchor="middle" x="647" y="-204.3" font-family="Times,serif" font-size="14.00">P2Halting</text>
</g>
<!-- IntersectionTimerDriven_pedestrianFlow_P2Go&#45;&gt;IntersectionTimerDriven_pedestrianFlow_P2Halting -->
<g id="edge20" class="edge"><title>IntersectionTimerDriven_pedestrianFlow_P2Go&#45;&gt;IntersectionTimerDriven_pedestrianFlow_P2Halting</title>
<g id="a_edge20"><a xlink:title="P2Go after(directionTwoGoTime&#45;extraPedestrianWarning) &#45;&gt; P2Halting">
<path fill="none" stroke="black" d="M397.213,-276.694C395.38,-266.006 395.292,-252.715 403,-244 428.245,-215.457 536.445,-209.688 599.968,-208.821"/>
<polygon fill="black" stroke="black" points="600.175,-212.319 610.14,-208.718 600.105,-205.319 600.175,-212.319"/>
</a>
</g>
<text text-anchor="middle" x="551.5" y="-247.8" font-family="Times,serif" font-size="14.00">after(directionTwoGoTime&#45;extraPedestrianWarning)</text>
</g>
<!-- IntersectionTimerDriven_pedestrianFlow_P2Halting&#45;&gt;IntersectionTimerDriven_pedestrianFlow_FourWayStop -->
<g id="edge15" class="edge"><title>IntersectionTimerDriven_pedestrianFlow_P2Halting&#45;&gt;IntersectionTimerDriven_pedestrianFlow_FourWayStop</title>
<g id="a_edge15"><a xlink:title="P2Halting detectMalfunction &#45;&gt; FourWayStop">
<path fill="none" stroke="black" d="M674.325,-353.806 675.362,-332.331 678.589,-301.934 688,-277 691.395,-268.005 697.214,-268.202 700,-259 701.932,-252.619 703.159,-249.871 700,-244 696.134,-236.814 690.075,-230.858 683.413,-226.021"/>
<polygon fill="black" stroke="black" points="670.825,-353.739 673.967,-363.857 677.82,-353.988 670.825,-353.739"/>
</a>
</g>
<text text-anchor="middle" x="739.5" y="-291.3" font-family="Times,serif" font-size="14.00">detectMalfunction</text>
</g>
<!-- IntersectionTimerDriven_pedestrianFlow_P2Halting&#45;&gt;IntersectionTimerDriven_pedestrianFlow_P1Go -->
<g id="edge16" class="edge"><title>IntersectionTimerDriven_pedestrianFlow_P2Halting&#45;&gt;IntersectionTimerDriven_pedestrianFlow_P1Go</title>
<g id="a_edge16"><a xlink:title="P2Halting after(extraPedestrianWarning+yellowTime) &#45;&gt; P1Go">
<path fill="none" stroke="black" d="M647,-189.799C647,-178.163 647,-162.548 647,-149.237"/>
<polygon fill="black" stroke="black" points="650.5,-149.175 647,-139.175 643.5,-149.175 650.5,-149.175"/>
</a>
</g>
<text text-anchor="middle" x="770" y="-160.8" font-family="Times,serif" font-size="14.00">after(extraPedestrianWarning+yellowTime)</text>
</g>
<!-- start_IntersectionTimerDriven_directionOneLight -->
<g id="node13" class="node"><title>start_IntersectionTimerDriven_directionOneLight</title>
<ellipse fill="black" stroke="black" cx="1208" cy="-455" rx="7.2" ry="7.2"/>
</g>
<!-- IntersectionTimerDriven_directionOneLight_FlashingRed -->
<g id="node14" class="node"><title>IntersectionTimerDriven_directionOneLight_FlashingRed</title>
<path fill="none" stroke="black" d="M1202.5,-400C1202.5,-400 1139.5,-400 1139.5,-400 1133.5,-400 1127.5,-394 1127.5,-388 1127.5,-388 1127.5,-376 1127.5,-376 1127.5,-370 1133.5,-364 1139.5,-364 1139.5,-364 1202.5,-364 1202.5,-364 1208.5,-364 1214.5,-370 1214.5,-376 1214.5,-376 1214.5,-388 1214.5,-388 1214.5,-394 1208.5,-400 1202.5,-400"/>
<text text-anchor="middle" x="1171" y="-378.3" font-family="Times,serif" font-size="14.00">FlashingRed</text>
</g>
<!-- start_IntersectionTimerDriven_directionOneLight&#45;&gt;IntersectionTimerDriven_directionOneLight_FlashingRed -->
<g id="edge21" class="edge"><title>start_IntersectionTimerDriven_directionOneLight&#45;&gt;IntersectionTimerDriven_directionOneLight_FlashingRed</title>
<g id="a_edge21"><a xlink:title="start &#160;&#45;&gt; FlashingRed">
<path fill="none" stroke="black" d="M1184.78,-409.448 1192.08,-423.441 1200.42,-439.446 1204.85,-447.947"/>
<polygon fill="black" stroke="black" points="1187.69,-407.449 1179.96,-400.198 1181.48,-410.684 1187.69,-407.449"/>
</a>
</g>
</g>
<!-- IntersectionTimerDriven_directionOneLight_Red -->
<g id="node15" class="node"><title>IntersectionTimerDriven_directionOneLight_Red</title>
<path fill="none" stroke="black" d="M1171,-473C1171,-473 1123,-473 1123,-473 1117,-473 1111,-467 1111,-461 1111,-461 1111,-449 1111,-449 1111,-443 1117,-437 1123,-437 1123,-437 1171,-437 1171,-437 1177,-437 1183,-443 1183,-449 1183,-449 1183,-461 1183,-461 1183,-467 1177,-473 1171,-473"/>
<text text-anchor="middle" x="1147" y="-451.3" font-family="Times,serif" font-size="14.00">Red</text>
</g>
<!-- IntersectionTimerDriven_directionOneLight_Yellow -->
<g id="node16" class="node"><title>IntersectionTimerDriven_directionOneLight_Yellow</title>
<path fill="none" stroke="black" d="M1081,-473C1081,-473 1033,-473 1033,-473 1027,-473 1021,-467 1021,-461 1021,-461 1021,-449 1021,-449 1021,-443 1027,-437 1033,-437 1033,-437 1081,-437 1081,-437 1087,-437 1093,-443 1093,-449 1093,-449 1093,-461 1093,-461 1093,-467 1087,-473 1081,-473"/>
<text text-anchor="middle" x="1057" y="-451.3" font-family="Times,serif" font-size="14.00">Yellow</text>
</g>
<!-- IntersectionTimerDriven_directionOneLight_Green -->
<g id="node17" class="node"><title>IntersectionTimerDriven_directionOneLight_Green</title>
<path fill="none" stroke="black" d="M991,-473C991,-473 943,-473 943,-473 937,-473 931,-467 931,-461 931,-461 931,-449 931,-449 931,-443 937,-437 943,-437 943,-437 991,-437 991,-437 997,-437 1003,-443 1003,-449 1003,-449 1003,-461 1003,-461 1003,-467 997,-473 991,-473"/>
<text text-anchor="middle" x="967" y="-451.3" font-family="Times,serif" font-size="14.00">Green</text>
</g>
<!-- start_IntersectionTimerDriven_directionTwoLight -->
<g id="node18" class="node"><title>start_IntersectionTimerDriven_directionTwoLight</title>
<ellipse fill="black" stroke="black" cx="1516" cy="-455" rx="7.2" ry="7.2"/>
</g>
<!-- IntersectionTimerDriven_directionTwoLight_FlashingRed -->
<g id="node19" class="node"><title>IntersectionTimerDriven_directionTwoLight_FlashingRed</title>
<path fill="none" stroke="black" d="M1510.5,-400C1510.5,-400 1447.5,-400 1447.5,-400 1441.5,-400 1435.5,-394 1435.5,-388 1435.5,-388 1435.5,-376 1435.5,-376 1435.5,-370 1441.5,-364 1447.5,-364 1447.5,-364 1510.5,-364 1510.5,-364 1516.5,-364 1522.5,-370 1522.5,-376 1522.5,-376 1522.5,-388 1522.5,-388 1522.5,-394 1516.5,-400 1510.5,-400"/>
<text text-anchor="middle" x="1479" y="-378.3" font-family="Times,serif" font-size="14.00">FlashingRed</text>
</g>
<!-- start_IntersectionTimerDriven_directionTwoLight&#45;&gt;IntersectionTimerDriven_directionTwoLight_FlashingRed -->
<g id="edge22" class="edge"><title>start_IntersectionTimerDriven_directionTwoLight&#45;&gt;IntersectionTimerDriven_directionTwoLight_FlashingRed</title>
<g id="a_edge22"><a xlink:title="start &#160;&#45;&gt; FlashingRed">
<path fill="none" stroke="black" d="M1492.78,-409.448 1500.08,-423.441 1508.42,-439.446 1512.85,-447.947"/>
<polygon fill="black" stroke="black" points="1495.69,-407.449 1487.96,-400.198 1489.48,-410.684 1495.69,-407.449"/>
</a>
</g>
</g>
<!-- IntersectionTimerDriven_directionTwoLight_Red -->
<g id="node20" class="node"><title>IntersectionTimerDriven_directionTwoLight_Red</title>
<path fill="none" stroke="black" d="M1479,-473C1479,-473 1431,-473 1431,-473 1425,-473 1419,-467 1419,-461 1419,-461 1419,-449 1419,-449 1419,-443 1425,-437 1431,-437 1431,-437 1479,-437 1479,-437 1485,-437 1491,-443 1491,-449 1491,-449 1491,-461 1491,-461 1491,-467 1485,-473 1479,-473"/>
<text text-anchor="middle" x="1455" y="-451.3" font-family="Times,serif" font-size="14.00">Red</text>
</g>
<!-- IntersectionTimerDriven_directionTwoLight_Yellow -->
<g id="node21" class="node"><title>IntersectionTimerDriven_directionTwoLight_Yellow</title>
<path fill="none" stroke="black" d="M1389,-473C1389,-473 1341,-473 1341,-473 1335,-473 1329,-467 1329,-461 1329,-461 1329,-449 1329,-449 1329,-443 1335,-437 1341,-437 1341,-437 1389,-437 1389,-437 1395,-437 1401,-443 1401,-449 1401,-449 1401,-461 1401,-461 1401,-467 1395,-473 1389,-473"/>
<text text-anchor="middle" x="1365" y="-451.3" font-family="Times,serif" font-size="14.00">Yellow</text>
</g>
<!-- IntersectionTimerDriven_directionTwoLight_Green -->
<g id="node22" class="node"><title>IntersectionTimerDriven_directionTwoLight_Green</title>
<path fill="none" stroke="black" d="M1299,-473C1299,-473 1251,-473 1251,-473 1245,-473 1239,-467 1239,-461 1239,-461 1239,-449 1239,-449 1239,-443 1245,-437 1251,-437 1251,-437 1299,-437 1299,-437 1305,-437 1311,-443 1311,-449 1311,-449 1311,-461 1311,-461 1311,-467 1305,-473 1299,-473"/>
<text text-anchor="middle" x="1275" y="-451.3" font-family="Times,serif" font-size="14.00">Green</text>
</g>
<!-- start_IntersectionTimerDriven_P1Light -->
<g id="node23" class="node"><title>start_IntersectionTimerDriven_P1Light</title>
<ellipse fill="black" stroke="black" cx="1734" cy="-455" rx="7.2" ry="7.2"/>
</g>
<!-- IntersectionTimerDriven_P1Light_DoNotWalk -->
<g id="node24" class="node"><title>IntersectionTimerDriven_P1Light_DoNotWalk</title>
<path fill="none" stroke="black" d="M1742.5,-400C1742.5,-400 1681.5,-400 1681.5,-400 1675.5,-400 1669.5,-394 1669.5,-388 1669.5,-388 1669.5,-376 1669.5,-376 1669.5,-370 1675.5,-364 1681.5,-364 1681.5,-364 1742.5,-364 1742.5,-364 1748.5,-364 1754.5,-370 1754.5,-376 1754.5,-376 1754.5,-388 1754.5,-388 1754.5,-394 1748.5,-400 1742.5,-400"/>
<text text-anchor="middle" x="1712" y="-378.3" font-family="Times,serif" font-size="14.00">DoNotWalk</text>
</g>
<!-- start_IntersectionTimerDriven_P1Light&#45;&gt;IntersectionTimerDriven_P1Light_DoNotWalk -->
<g id="edge23" class="edge"><title>start_IntersectionTimerDriven_P1Light&#45;&gt;IntersectionTimerDriven_P1Light_DoNotWalk</title>
<g id="a_edge23"><a xlink:title="start &#160;&#45;&gt; DoNotWalk">
<path fill="none" stroke="black" d="M1720.32,-409.852 1724.63,-423.749 1729.52,-439.527 1732.12,-447.947"/>
<polygon fill="black" stroke="black" points="1723.63,-408.714 1717.33,-400.198 1716.95,-410.786 1723.63,-408.714"/>
</a>
</g>
</g>
<!-- IntersectionTimerDriven_P1Light_Flashing -->
<g id="node25" class="node"><title>IntersectionTimerDriven_P1Light_Flashing</title>
<path fill="none" stroke="black" d="M1697,-473C1697,-473 1649,-473 1649,-473 1643,-473 1637,-467 1637,-461 1637,-461 1637,-449 1637,-449 1637,-443 1643,-437 1649,-437 1649,-437 1697,-437 1697,-437 1703,-437 1709,-443 1709,-449 1709,-449 1709,-461 1709,-461 1709,-467 1703,-473 1697,-473"/>
<text text-anchor="middle" x="1673" y="-451.3" font-family="Times,serif" font-size="14.00">Flashing</text>
</g>
<!-- IntersectionTimerDriven_P1Light_Walk -->
<g id="node26" class="node"><title>IntersectionTimerDriven_P1Light_Walk</title>
<path fill="none" stroke="black" d="M1607,-473C1607,-473 1559,-473 1559,-473 1553,-473 1547,-467 1547,-461 1547,-461 1547,-449 1547,-449 1547,-443 1553,-437 1559,-437 1559,-437 1607,-437 1607,-437 1613,-437 1619,-443 1619,-449 1619,-449 1619,-461 1619,-461 1619,-467 1613,-473 1607,-473"/>
<text text-anchor="middle" x="1583" y="-451.3" font-family="Times,serif" font-size="14.00">Walk</text>
</g>
<!-- start_IntersectionTimerDriven_P2Light -->
<g id="node27" class="node"><title>start_IntersectionTimerDriven_P2Light</title>
<ellipse fill="black" stroke="black" cx="1966" cy="-455" rx="7.2" ry="7.2"/>
</g>
<!-- IntersectionTimerDriven_P2Light_DoNotWalk -->
<g id="node28" class="node"><title>IntersectionTimerDriven_P2Light_DoNotWalk</title>
<path fill="none" stroke="black" d="M1974.5,-400C1974.5,-400 1913.5,-400 1913.5,-400 1907.5,-400 1901.5,-394 1901.5,-388 1901.5,-388 1901.5,-376 1901.5,-376 1901.5,-370 1907.5,-364 1913.5,-364 1913.5,-364 1974.5,-364 1974.5,-364 1980.5,-364 1986.5,-370 1986.5,-376 1986.5,-376 1986.5,-388 1986.5,-388 1986.5,-394 1980.5,-400 1974.5,-400"/>
<text text-anchor="middle" x="1944" y="-378.3" font-family="Times,serif" font-size="14.00">DoNotWalk</text>
</g>
<!-- start_IntersectionTimerDriven_P2Light&#45;&gt;IntersectionTimerDriven_P2Light_DoNotWalk -->
<g id="edge24" class="edge"><title>start_IntersectionTimerDriven_P2Light&#45;&gt;IntersectionTimerDriven_P2Light_DoNotWalk</title>
<g id="a_edge24"><a xlink:title="start &#160;&#45;&gt; DoNotWalk">
<path fill="none" stroke="black" d="M1952.32,-409.852 1956.63,-423.749 1961.52,-439.527 1964.12,-447.947"/>
<polygon fill="black" stroke="black" points="1955.63,-408.714 1949.33,-400.198 1948.95,-410.786 1955.63,-408.714"/>
</a>
</g>
</g>
<!-- IntersectionTimerDriven_P2Light_Flashing -->
<g id="node29" class="node"><title>IntersectionTimerDriven_P2Light_Flashing</title>
<path fill="none" stroke="black" d="M1929,-473C1929,-473 1881,-473 1881,-473 1875,-473 1869,-467 1869,-461 1869,-461 1869,-449 1869,-449 1869,-443 1875,-437 1881,-437 1881,-437 1929,-437 1929,-437 1935,-437 1941,-443 1941,-449 1941,-449 1941,-461 1941,-461 1941,-467 1935,-473 1929,-473"/>
<text text-anchor="middle" x="1905" y="-451.3" font-family="Times,serif" font-size="14.00">Flashing</text>
</g>
<!-- IntersectionTimerDriven_P2Light_Walk -->
<g id="node30" class="node"><title>IntersectionTimerDriven_P2Light_Walk</title>
<path fill="none" stroke="black" d="M1839,-473C1839,-473 1791,-473 1791,-473 1785,-473 1779,-467 1779,-461 1779,-461 1779,-449 1779,-449 1779,-443 1785,-437 1791,-437 1791,-437 1839,-437 1839,-437 1845,-437 1851,-443 1851,-449 1851,-449 1851,-461 1851,-461 1851,-467 1845,-473 1839,-473"/>
<text text-anchor="middle" x="1815" y="-451.3" font-family="Times,serif" font-size="14.00">Walk</text>
</g>
</g>
</svg>
