<?xml version="1.0" encoding="UTF-8" standalone="no"?>
<!DOCTYPE svg PUBLIC "-//W3C//DTD SVG 1.1//EN"
 "http://www.w3.org/Graphics/SVG/1.1/DTD/svg11.dtd">
<!-- Generated by graphviz version 2.39.20140502.0445 (20140502.0445)
 -->
<!-- Title: VendingMachine Pages: 1 -->
<svg width="487pt" height="356pt"
 viewBox="0.00 0.00 486.50 356.40" xmlns="http://www.w3.org/2000/svg" xmlns:xlink="http://www.w3.org/1999/xlink">
<g id="graph0" class="graph" transform="scale(1 1) rotate(0) translate(4 352.4)">
<title>VendingMachine</title>
<polygon fill="white" stroke="none" points="-4,4 -4,-352.4 482.5,-352.4 482.5,4 -4,4"/>
<!-- start_VendingMachine_controlUnit -->
<g id="node1" class="node"><title>start_VendingMachine_controlUnit</title>
<ellipse fill="black" stroke="black" cx="249" cy="-341.2" rx="7.2" ry="7.2"/>
</g>
<!-- VendingMachine_controlUnit_ReceivingMoney -->
<g id="node2" class="node"><title>VendingMachine_controlUnit_ReceivingMoney</title>
<path fill="none" stroke="black" d="M293.5,-297C293.5,-297 204.5,-297 204.5,-297 198.5,-297 192.5,-291 192.5,-285 192.5,-285 192.5,-273 192.5,-273 192.5,-267 198.5,-261 204.5,-261 204.5,-261 293.5,-261 293.5,-261 299.5,-261 305.5,-267 305.5,-273 305.5,-273 305.5,-285 305.5,-285 305.5,-291 299.5,-297 293.5,-297"/>
<text text-anchor="middle" x="249" y="-275.3" font-family="Times,serif" font-size="14.00">ReceivingMoney</text>
</g>
<!-- start_VendingMachine_controlUnit&#45;&gt;VendingMachine_controlUnit_ReceivingMoney -->
<g id="edge1" class="edge"><title>start_VendingMachine_controlUnit&#45;&gt;VendingMachine_controlUnit_ReceivingMoney</title>
<g id="a_edge1"><a xlink:title="start &#160;&#45;&gt; ReceivingMoney">
<path fill="none" stroke="black" d="M249,-333.758C249,-327.387 249,-317.197 249,-307.393"/>
<polygon fill="black" stroke="black" points="252.5,-307.105 249,-297.105 245.5,-307.105 252.5,-307.105"/>
</a>
</g>
</g>
<!-- VendingMachine_controlUnit_ReceivingMoney&#45;&gt;VendingMachine_controlUnit_ReceivingMoney -->
<g id="edge2" class="edge"><title>VendingMachine_controlUnit_ReceivingMoney&#45;&gt;VendingMachine_controlUnit_ReceivingMoney</title>
<g id="a_edge2"><a xlink:title="ReceivingMoney pressSelection &#45;&gt; ReceivingMoney">
<path fill="none" stroke="black" d="M305.526,-282.202C316.072,-281.807 323.5,-280.74 323.5,-279 323.5,-277.912 320.599,-277.088 315.848,-276.526"/>
<polygon fill="black" stroke="black" points="315.747,-273.01 305.526,-275.798 315.255,-279.993 315.747,-273.01"/>
</a>
</g>
<text text-anchor="middle" x="364" y="-275.3" font-family="Times,serif" font-size="14.00">pressSelection</text>
</g>
<!-- VendingMachine_controlUnit_ReceivingMoney&#45;&gt;VendingMachine_controlUnit_ReceivingMoney -->
<g id="edge3" class="edge"><title>VendingMachine_controlUnit_ReceivingMoney&#45;&gt;VendingMachine_controlUnit_ReceivingMoney</title>
<g id="a_edge3"><a xlink:title="ReceivingMoney enterCoin &#45;&gt; ReceivingMoney">
<path fill="none" stroke="black" d="M305.592,-285.107C351.13,-286.924 404.5,-284.889 404.5,-279 404.5,-273.548 358.758,-271.399 315.836,-272.552"/>
<polygon fill="black" stroke="black" points="315.47,-269.062 305.592,-272.893 315.703,-276.058 315.47,-269.062"/>
</a>
</g>
<text text-anchor="middle" x="432.5" y="-275.3" font-family="Times,serif" font-size="14.00">enterCoin</text>
</g>
<!-- VendingMachine_controlUnit_DeliveringItem -->
<g id="node3" class="node"><title>VendingMachine_controlUnit_DeliveringItem</title>
<path fill="none" stroke="black" d="M215,-210C215,-210 137,-210 137,-210 131,-210 125,-204 125,-198 125,-198 125,-186 125,-186 125,-180 131,-174 137,-174 137,-174 215,-174 215,-174 221,-174 227,-180 227,-186 227,-186 227,-198 227,-198 227,-204 221,-210 215,-210"/>
<text text-anchor="middle" x="176" y="-188.3" font-family="Times,serif" font-size="14.00">DeliveringItem</text>
</g>
<!-- VendingMachine_controlUnit_ReceivingMoney&#45;&gt;VendingMachine_controlUnit_DeliveringItem -->
<g id="edge5" class="edge"><title>VendingMachine_controlUnit_ReceivingMoney&#45;&gt;VendingMachine_controlUnit_DeliveringItem</title>
<g id="a_edge5"><a xlink:title="ReceivingMoney pressSelection &#45;&gt; DeliveringItem">
<path fill="none" stroke="black" d="M191.813,-218.801 197.197,-226.856 203.506,-235.57 210,-243 215.388,-249.165 221.808,-255.321 227.869,-260.712"/>
<polygon fill="black" stroke="black" points="194.748,-216.895 186.368,-210.412 188.877,-220.706 194.748,-216.895"/>
</a>
</g>
<text text-anchor="middle" x="250.5" y="-231.8" font-family="Times,serif" font-size="14.00">pressSelection</text>
</g>
<!-- VendingMachine_controlUnit_ReturningMoney -->
<g id="node4" class="node"><title>VendingMachine_controlUnit_ReturningMoney</title>
<path fill="none" stroke="black" d="M100,-123C100,-123 12,-123 12,-123 6,-123 7.10543e-15,-117 7.10543e-15,-111 7.10543e-15,-111 7.10543e-15,-99 7.10543e-15,-99 7.10543e-15,-93 6,-87 12,-87 12,-87 100,-87 100,-87 106,-87 112,-93 112,-99 112,-99 112,-111 112,-111 112,-117 106,-123 100,-123"/>
<text text-anchor="middle" x="56" y="-101.3" font-family="Times,serif" font-size="14.00">ReturningMoney</text>
</g>
<!-- VendingMachine_controlUnit_DeliveringItem&#45;&gt;VendingMachine_controlUnit_ReturningMoney -->
<g id="edge6" class="edge"><title>VendingMachine_controlUnit_DeliveringItem&#45;&gt;VendingMachine_controlUnit_ReturningMoney</title>
<g id="a_edge6"><a xlink:title="DeliveringItem deliveryComplete &#45;&gt; ReturningMoney">
<path fill="none" stroke="black" d="M53.2347,-133.328 53.7759,-141.386 55.8417,-149.718 61,-156 76.4956,-174.87 101.848,-183.803 124.811,-187.939"/>
<polygon fill="black" stroke="black" points="56.7354,-133.1 53.2698,-123.088 49.7355,-133.076 56.7354,-133.1"/>
</a>
</g>
<text text-anchor="middle" x="111.5" y="-144.8" font-family="Times,serif" font-size="14.00">deliveryComplete</text>
</g>
<!-- VendingMachine_controlUnit_Waiting -->
<g id="node5" class="node"><title>VendingMachine_controlUnit_Waiting</title>
<path fill="none" stroke="black" d="M200,-36C200,-36 152,-36 152,-36 146,-36 140,-30 140,-24 140,-24 140,-12 140,-12 140,-6 146,-0 152,-0 152,-0 200,-0 200,-0 206,-0 212,-6 212,-12 212,-12 212,-24 212,-24 212,-30 206,-36 200,-36"/>
<text text-anchor="middle" x="176" y="-14.3" font-family="Times,serif" font-size="14.00">Waiting</text>
</g>
<!-- VendingMachine_controlUnit_DeliveringItem&#45;&gt;VendingMachine_controlUnit_Waiting -->
<g id="edge7" class="edge"><title>VendingMachine_controlUnit_DeliveringItem&#45;&gt;VendingMachine_controlUnit_Waiting</title>
<g id="a_edge7"><a xlink:title="DeliveringItem deliveryComplete &#45;&gt; Waiting">
<path fill="none" stroke="black" d="M176,-173.879C176,-144.001 176,-82.1129 176,-46.2736"/>
<polygon fill="black" stroke="black" points="179.5,-46.0516 176,-36.0516 172.5,-46.0516 179.5,-46.0516"/>
</a>
</g>
<text text-anchor="middle" x="226.5" y="-101.3" font-family="Times,serif" font-size="14.00">deliveryComplete</text>
</g>
<!-- VendingMachine_controlUnit_ReturningMoney&#45;&gt;VendingMachine_controlUnit_Waiting -->
<g id="edge8" class="edge"><title>VendingMachine_controlUnit_ReturningMoney&#45;&gt;VendingMachine_controlUnit_Waiting</title>
<g id="a_edge8"><a xlink:title="ReturningMoney retunringComplete &#45;&gt; Waiting">
<path fill="none" stroke="black" d="M51.161,-86.6235C49.3398,-76.1737 49.125,-63.1667 56,-54 72.9551,-31.3933 103.709,-22.729 129.837,-19.6725"/>
<polygon fill="black" stroke="black" points="130.321,-23.1426 139.955,-18.7322 129.674,-16.1727 130.321,-23.1426"/>
</a>
</g>
<text text-anchor="middle" x="109" y="-57.8" font-family="Times,serif" font-size="14.00">retunringComplete</text>
</g>
<!-- VendingMachine_controlUnit_Waiting&#45;&gt;VendingMachine_controlUnit_ReceivingMoney -->
<g id="edge4" class="edge"><title>VendingMachine_controlUnit_Waiting&#45;&gt;VendingMachine_controlUnit_ReceivingMoney</title>
<g id="a_edge4"><a xlink:title="Waiting enterCoin &#45;&gt; ReceivingMoney">
<path fill="none" stroke="black" d="M212.13,-32.3395C236.013,-43.1927 265.649,-61.0063 281,-87 426.331,-333.09 307.887,-206.946 291,-243 289.188,-246.868 286.716,-250.458 283.871,-253.747"/>
<polygon fill="black" stroke="black" points="281.327,-251.341 276.692,-260.868 286.256,-256.311 281.327,-251.341"/>
</a>
</g>
<text text-anchor="middle" x="347" y="-144.8" font-family="Times,serif" font-size="14.00">enterCoin</text>
</g>
</g>
</svg>
