<?xml version="1.0" encoding="UTF-8" standalone="no"?>
<!DOCTYPE svg PUBLIC "-//W3C//DTD SVG 1.1//EN"
 "http://www.w3.org/Graphics/SVG/1.1/DTD/svg11.dtd">
<!-- Generated by graphviz version 2.40.1 (20161225.0304)
 -->
<!-- Title: VendingMachine Pages: 1 -->
<svg width="276pt" height="353pt"
 viewBox="0.00 0.00 275.70 353.40" xmlns="http://www.w3.org/2000/svg" xmlns:xlink="http://www.w3.org/1999/xlink">
<g id="graph0" class="graph" transform="scale(1 1) rotate(0) translate(4 349.4)">
<title>VendingMachine</title>
<polygon fill="#ffffff" stroke="transparent" points="-4,4 -4,-349.4 271.6968,-349.4 271.6968,4 -4,4"/>
<!-- start_VendingMachine_controlUnit -->
<g id="node1" class="node">
<title>start_VendingMachine_controlUnit</title>
<g id="a_node1"><a xlink:title="Class VendingMachine, SM controlUnit, State start">
<ellipse fill="#000000" stroke="#000000" cx="138.8276" cy="-338.2" rx="7.2" ry="7.2"/>
</a>
</g>
</g>
<!-- VendingMachine_controlUnit_ReceivingMoney -->
<g id="node2" class="node">
<title>VendingMachine_controlUnit_ReceivingMoney</title>
<g id="a_node2"><a xlink:title="Class VendingMachine, SM controlUnit, State ReceivingMoney">
<path fill="none" stroke="#000000" d="M183.2493,-294C183.2493,-294 94.4059,-294 94.4059,-294 88.4059,-294 82.4059,-288 82.4059,-282 82.4059,-282 82.4059,-270 82.4059,-270 82.4059,-264 88.4059,-258 94.4059,-258 94.4059,-258 183.2493,-258 183.2493,-258 189.2493,-258 195.2493,-264 195.2493,-270 195.2493,-270 195.2493,-282 195.2493,-282 195.2493,-288 189.2493,-294 183.2493,-294"/>
<text text-anchor="middle" x="138.8276" y="-271.8" font-family="Times,serif" font-size="14.00" fill="#000000">ReceivingMoney</text>
</a>
</g>
</g>
<!-- start_VendingMachine_controlUnit&#45;&gt;VendingMachine_controlUnit_ReceivingMoney -->
<g id="edge1" class="edge">
<title>start_VendingMachine_controlUnit&#45;&gt;VendingMachine_controlUnit_ReceivingMoney</title>
<g id="a_edge1"><a xlink:title="start to ReceivingMoney">
<path fill="none" stroke="#000000" d="M138.8276,-330.5731C138.8276,-323.9503 138.8276,-313.9322 138.8276,-304.2795"/>
<polygon fill="#000000" stroke="#000000" points="142.3277,-304.1266 138.8276,-294.1266 135.3277,-304.1267 142.3277,-304.1266"/>
</a>
</g>
</g>
<!-- VendingMachine_controlUnit_DeliveringItem -->
<g id="node3" class="node">
<title>VendingMachine_controlUnit_DeliveringItem</title>
<g id="a_node3"><a xlink:title="Class VendingMachine, SM controlUnit, State DeliveringItem">
<path fill="none" stroke="#000000" d="M115.3532,-208C115.3532,-208 38.3021,-208 38.3021,-208 32.3021,-208 26.3021,-202 26.3021,-196 26.3021,-196 26.3021,-184 26.3021,-184 26.3021,-178 32.3021,-172 38.3021,-172 38.3021,-172 115.3532,-172 115.3532,-172 121.3532,-172 127.3532,-178 127.3532,-184 127.3532,-184 127.3532,-196 127.3532,-196 127.3532,-202 121.3532,-208 115.3532,-208"/>
<text text-anchor="middle" x="76.8276" y="-185.8" font-family="Times,serif" font-size="14.00" fill="#000000">DeliveringItem</text>
</a>
</g>
</g>
<!-- VendingMachine_controlUnit_ReceivingMoney&#45;&gt;VendingMachine_controlUnit_DeliveringItem -->
<g id="edge3" class="edge">
<title>VendingMachine_controlUnit_ReceivingMoney&#45;&gt;VendingMachine_controlUnit_DeliveringItem</title>
<g id="a_edge3"><a xlink:title="From ReceivingMoney to DeliveringItem on enterCoin">
<path fill="none" stroke="#000000" d="M122.6696,-257.6918C117.9816,-252.1315 112.9599,-245.9235 108.6206,-240 103.29,-232.7234 97.881,-224.5653 93.0728,-216.9835"/>
<polygon fill="#000000" stroke="#000000" points="96.0047,-215.0704 87.745,-208.435 90.064,-218.7729 96.0047,-215.0704"/>
</a>
</g>
<text text-anchor="middle" x="136.4312" y="-228.8" font-family="Times,serif" font-size="14.00" fill="#000000">enterCoin</text>
</g>
<!-- VendingMachine_controlUnit_ReturningMoney -->
<g id="node4" class="node">
<title>VendingMachine_controlUnit_ReturningMoney</title>
<g id="a_node4"><a xlink:title="Class VendingMachine, SM controlUnit, State ReturningMoney">
<path fill="none" stroke="#000000" d="M99.4834,-122C99.4834,-122 12.1718,-122 12.1718,-122 6.1718,-122 .1718,-116 .1718,-110 .1718,-110 .1718,-98 .1718,-98 .1718,-92 6.1718,-86 12.1718,-86 12.1718,-86 99.4834,-86 99.4834,-86 105.4834,-86 111.4834,-92 111.4834,-98 111.4834,-98 111.4834,-110 111.4834,-110 111.4834,-116 105.4834,-122 99.4834,-122"/>
<text text-anchor="middle" x="55.8276" y="-99.8" font-family="Times,serif" font-size="14.00" fill="#000000">ReturningMoney</text>
</a>
</g>
</g>
<!-- VendingMachine_controlUnit_DeliveringItem&#45;&gt;VendingMachine_controlUnit_ReturningMoney -->
<g id="edge4" class="edge">
<title>VendingMachine_controlUnit_DeliveringItem&#45;&gt;VendingMachine_controlUnit_ReturningMoney</title>
<g id="a_edge4"><a xlink:title="From DeliveringItem to ReturningMoney on deliveryComplete">
<path fill="none" stroke="#000000" d="M63.5251,-171.8012C60.2557,-166.3443 57.2112,-160.1641 55.5239,-154 53.6454,-147.137 53.001,-139.5428 52.993,-132.3893"/>
<polygon fill="#000000" stroke="#000000" points="56.4918,-132.4839 53.367,-122.3604 49.4966,-132.223 56.4918,-132.4839"/>
</a>
</g>
<text text-anchor="middle" x="105.9795" y="-142.8" font-family="Times,serif" font-size="14.00" fill="#000000">deliveryComplete</text>
</g>
<!-- VendingMachine_controlUnit_Waiting -->
<g id="node5" class="node">
<title>VendingMachine_controlUnit_Waiting</title>
<g id="a_node5"><a xlink:title="Class VendingMachine, SM controlUnit, State Waiting">
<path fill="none" stroke="#000000" d="M140.8276,-36C140.8276,-36 92.8276,-36 92.8276,-36 86.8276,-36 80.8276,-30 80.8276,-24 80.8276,-24 80.8276,-12 80.8276,-12 80.8276,-6 86.8276,0 92.8276,0 92.8276,0 140.8276,0 140.8276,0 146.8276,0 152.8276,-6 152.8276,-12 152.8276,-12 152.8276,-24 152.8276,-24 152.8276,-30 146.8276,-36 140.8276,-36"/>
<text text-anchor="middle" x="116.8276" y="-13.8" font-family="Times,serif" font-size="14.00" fill="#000000">Waiting</text>
</a>
</g>
</g>
<!-- VendingMachine_controlUnit_ReturningMoney&#45;&gt;VendingMachine_controlUnit_Waiting -->
<g id="edge5" class="edge">
<title>VendingMachine_controlUnit_ReturningMoney&#45;&gt;VendingMachine_controlUnit_Waiting</title>
<g id="a_edge5"><a xlink:title="From ReturningMoney to Waiting on returningComplete">
<path fill="none" stroke="#000000" d="M52.6743,-85.7093C51.8811,-75.6896 52.5126,-63.4299 58.0757,-54 61.6287,-47.9775 66.6222,-42.8283 72.2132,-38.4677"/>
<polygon fill="#000000" stroke="#000000" points="74.4603,-41.1709 80.734,-32.6332 70.5055,-35.3952 74.4603,-41.1709"/>
</a>
</g>
<text text-anchor="middle" x="111.7036" y="-56.8" font-family="Times,serif" font-size="14.00" fill="#000000">returningComplete</text>
</g>
<!-- VendingMachine_controlUnit_Waiting&#45;&gt;VendingMachine_controlUnit_ReceivingMoney -->
<g id="edge2" class="edge">
<title>VendingMachine_controlUnit_Waiting&#45;&gt;VendingMachine_controlUnit_ReceivingMoney</title>
<g id="a_edge2"><a xlink:title="From Waiting to ReceivingMoney on pressSelection">
<path fill="none" stroke="#000000" d="M149.2112,-36.3735C155.113,-41.2946 160.4607,-47.1799 163.8276,-54 200.4221,-128.1257 188.5331,-161.1114 163.8276,-240 162.8498,-243.1224 161.4951,-246.2116 159.9177,-249.1906"/>
<polygon fill="#000000" stroke="#000000" points="156.9294,-247.3686 154.6719,-257.7202 162.892,-251.0357 156.9294,-247.3686"/>
</a>
</g>
<text text-anchor="middle" x="227.2622" y="-142.8" font-family="Times,serif" font-size="14.00" fill="#000000">pressSelection</text>
</g>
</g>
</svg>
