<?xml version="1.0" encoding="UTF-8" standalone="no"?>
<!DOCTYPE svg PUBLIC "-//W3C//DTD SVG 1.1//EN"
 "http://www.w3.org/Graphics/SVG/1.1/DTD/svg11.dtd">
<!-- Generated by graphviz version 2.36.0 (20140111.2315)
 -->
<!-- Title: VendingMachine Pages: 1 -->
<svg width="486pt" height="360pt"
 viewBox="0.00 0.00 486.00 360.00" xmlns="http://www.w3.org/2000/svg" xmlns:xlink="http://www.w3.org/1999/xlink">
<g id="graph0" class="graph" transform="scale(1 1) rotate(0) translate(4 356)">
<title>VendingMachine</title>
<polygon fill="white" stroke="none" points="-4,4 -4,-356 482,-356 482,4 -4,4"/>
<!-- start_VendingMachine_controlUnit -->
<g id="node1" class="node"><title>start_VendingMachine_controlUnit</title>
<ellipse fill="black" stroke="black" cx="249" cy="-345" rx="7.2" ry="7.2"/>
</g>
<!-- VendingMachine_controlUnit_ReceivingMoney -->
<g id="node2" class="node"><title>VendingMachine_controlUnit_ReceivingMoney</title>
<path fill="none" stroke="black" d="M293.25,-300C293.25,-300 204.75,-300 204.75,-300 198.75,-300 192.75,-294 192.75,-288 192.75,-288 192.75,-276 192.75,-276 192.75,-270 198.75,-264 204.75,-264 204.75,-264 293.25,-264 293.25,-264 299.25,-264 305.25,-270 305.25,-276 305.25,-276 305.25,-288 305.25,-288 305.25,-294 299.25,-300 293.25,-300"/>
<text text-anchor="middle" x="249" y="-278.3" font-family="Times,serif" font-size="14.00">ReceivingMoney</text>
</g>
<!-- start_VendingMachine_controlUnit&#45;&gt;VendingMachine_controlUnit_ReceivingMoney -->
<g id="edge1" class="edge"><title>start_VendingMachine_controlUnit&#45;&gt;VendingMachine_controlUnit_ReceivingMoney</title>
<path fill="none" stroke="black" d="M249,-337.472C249,-330.902 249,-320.324 249,-310.229"/>
<polygon fill="black" stroke="black" points="252.5,-310.073 249,-300.073 245.5,-310.073 252.5,-310.073"/>
</g>
<!-- VendingMachine_controlUnit_ReceivingMoney&#45;&gt;VendingMachine_controlUnit_ReceivingMoney -->
<g id="edge2" class="edge"><title>VendingMachine_controlUnit_ReceivingMoney&#45;&gt;VendingMachine_controlUnit_ReceivingMoney</title>
<path fill="none" stroke="black" d="M305.463,-285.19C315.77,-284.786 323,-283.723 323,-282 323,-280.923 320.176,-280.104 315.541,-279.543"/>
<polygon fill="black" stroke="black" points="315.69,-276.044 305.463,-278.81 315.183,-283.026 315.69,-276.044"/>
<text text-anchor="middle" x="363.5" y="-278.3" font-family="Times,serif" font-size="14.00">pressSelection</text>
</g>
<!-- VendingMachine_controlUnit_ReceivingMoney&#45;&gt;VendingMachine_controlUnit_ReceivingMoney -->
<g id="edge3" class="edge"><title>VendingMachine_controlUnit_ReceivingMoney&#45;&gt;VendingMachine_controlUnit_ReceivingMoney</title>
<path fill="none" stroke="black" d="M305.38,-288.107C350.772,-289.924 404,-287.889 404,-282 404,-276.548 358.38,-274.399 315.592,-275.552"/>
<polygon fill="black" stroke="black" points="315.258,-272.061 305.38,-275.893 315.492,-279.057 315.258,-272.061"/>
<text text-anchor="middle" x="432" y="-278.3" font-family="Times,serif" font-size="14.00">enterCoin</text>
</g>
<!-- VendingMachine_controlUnit_DeliveringItem -->
<g id="node3" class="node"><title>VendingMachine_controlUnit_DeliveringItem</title>
<path fill="none" stroke="black" d="M215,-212C215,-212 137,-212 137,-212 131,-212 125,-206 125,-200 125,-200 125,-188 125,-188 125,-182 131,-176 137,-176 137,-176 215,-176 215,-176 221,-176 227,-182 227,-188 227,-188 227,-200 227,-200 227,-206 221,-212 215,-212"/>
<text text-anchor="middle" x="176" y="-190.3" font-family="Times,serif" font-size="14.00">DeliveringItem</text>
</g>
<!-- VendingMachine_controlUnit_ReceivingMoney&#45;&gt;VendingMachine_controlUnit_DeliveringItem -->
<g id="edge5" class="edge"><title>VendingMachine_controlUnit_ReceivingMoney&#45;&gt;VendingMachine_controlUnit_DeliveringItem</title>
<path fill="none" stroke="black" d="M227.833,-263.744C221.772,-258.353 215.36,-252.19 210,-246 203.349,-238.32 196.931,-229.276 191.496,-220.952"/>
<polygon fill="black" stroke="black" points="194.326,-218.88 186.02,-212.302 188.412,-222.624 194.326,-218.88"/>
<text text-anchor="middle" x="250.5" y="-234.3" font-family="Times,serif" font-size="14.00">pressSelection</text>
</g>
<!-- VendingMachine_controlUnit_ReturningMoney -->
<g id="node4" class="node"><title>VendingMachine_controlUnit_ReturningMoney</title>
<path fill="none" stroke="black" d="M100,-124C100,-124 12,-124 12,-124 6,-124 7.10543e-15,-118 7.10543e-15,-112 7.10543e-15,-112 7.10543e-15,-100 7.10543e-15,-100 7.10543e-15,-94 6,-88 12,-88 12,-88 100,-88 100,-88 106,-88 112,-94 112,-100 112,-100 112,-112 112,-112 112,-118 106,-124 100,-124"/>
<text text-anchor="middle" x="56" y="-102.3" font-family="Times,serif" font-size="14.00">ReturningMoney</text>
</g>
<!-- VendingMachine_controlUnit_DeliveringItem&#45;&gt;VendingMachine_controlUnit_ReturningMoney -->
<g id="edge6" class="edge"><title>VendingMachine_controlUnit_DeliveringItem&#45;&gt;VendingMachine_controlUnit_ReturningMoney</title>
<path fill="none" stroke="black" d="M124.795,-189.953C101.828,-185.819 76.4773,-176.885 61,-158 55.6868,-151.517 53.6072,-142.898 53.1008,-134.593"/>
<polygon fill="black" stroke="black" points="56.6019,-134.452 53.1758,-124.426 49.6021,-134.4 56.6019,-134.452"/>
<text text-anchor="middle" x="111.5" y="-146.3" font-family="Times,serif" font-size="14.00">deliveryComplete</text>
</g>
<!-- VendingMachine_controlUnit_Waiting -->
<g id="node5" class="node"><title>VendingMachine_controlUnit_Waiting</title>
<path fill="none" stroke="black" d="M200,-36C200,-36 152,-36 152,-36 146,-36 140,-30 140,-24 140,-24 140,-12 140,-12 140,-6 146,-0 152,-0 152,-0 200,-0 200,-0 206,-0 212,-6 212,-12 212,-12 212,-24 212,-24 212,-30 206,-36 200,-36"/>
<text text-anchor="middle" x="176" y="-14.3" font-family="Times,serif" font-size="14.00">Waiting</text>
</g>
<!-- VendingMachine_controlUnit_DeliveringItem&#45;&gt;VendingMachine_controlUnit_Waiting -->
<g id="edge7" class="edge"><title>VendingMachine_controlUnit_DeliveringItem&#45;&gt;VendingMachine_controlUnit_Waiting</title>
<path fill="none" stroke="black" d="M176,-175.999C176,-145.853 176,-82.7897 176,-46.4303"/>
<polygon fill="black" stroke="black" points="179.5,-46.0696 176,-36.0697 172.5,-46.0697 179.5,-46.0696"/>
<text text-anchor="middle" x="226.5" y="-102.3" font-family="Times,serif" font-size="14.00">deliveryComplete</text>
</g>
<!-- VendingMachine_controlUnit_ReturningMoney&#45;&gt;VendingMachine_controlUnit_Waiting -->
<g id="edge8" class="edge"><title>VendingMachine_controlUnit_ReturningMoney&#45;&gt;VendingMachine_controlUnit_Waiting</title>
<path fill="none" stroke="black" d="M51.1497,-87.7587C49.2149,-77.0201 48.8812,-63.4917 56,-54 72.9551,-31.3933 103.709,-22.729 129.837,-19.6725"/>
<polygon fill="black" stroke="black" points="130.321,-23.1426 139.955,-18.7322 129.674,-16.1727 130.321,-23.1426"/>
<text text-anchor="middle" x="109" y="-58.3" font-family="Times,serif" font-size="14.00">retunringComplete</text>
</g>
<!-- VendingMachine_controlUnit_Waiting&#45;&gt;VendingMachine_controlUnit_ReceivingMoney -->
<g id="edge4" class="edge"><title>VendingMachine_controlUnit_Waiting&#45;&gt;VendingMachine_controlUnit_ReceivingMoney</title>
<path fill="none" stroke="black" d="M212.146,-32.6695C236.037,-43.7437 265.676,-61.8376 281,-88 418.087,-322.044 307.963,-209.783 291,-246 289.188,-249.868 286.716,-253.458 283.871,-256.747"/>
<polygon fill="black" stroke="black" points="281.327,-254.341 276.692,-263.868 286.256,-259.311 281.327,-254.341"/>
<text text-anchor="middle" x="347" y="-146.3" font-family="Times,serif" font-size="14.00">enterCoin</text>
</g>
</g>
</svg>
